<?xml version="1.0" encoding="utf-8"?>
<!-- Generator: Adobe Illustrator 28.0.0, SVG Export Plug-In . SVG Version: 6.00 Build 0)  -->
<svg version="1.1" id="Layer_1" xmlns="http://www.w3.org/2000/svg" xmlns:xlink="http://www.w3.org/1999/xlink" x="0px" y="0px"
	 viewBox="0 0 128 128" style="enable-background:new 0 0 128 128;" xml:space="preserve">
<g id="Em2QIK.tif">
	<g>
		<path d="M52.5,9.7c-1.4,0-2.7,1.2-2.7,2.6c0,1.4,1.2,2.6,2.6,2.7c1.4,0,2.6-1.2,2.7-2.6C55.2,10.9,54,9.7,52.5,9.7z M52.5,9.7
			c-1.4,0-2.7,1.2-2.7,2.6c0,1.4,1.2,2.6,2.6,2.7c1.4,0,2.6-1.2,2.7-2.6C55.2,10.9,54,9.7,52.5,9.7z M52.5,9.7
			c-1.4,0-2.7,1.2-2.7,2.6c0,1.4,1.2,2.6,2.6,2.7c1.4,0,2.6-1.2,2.7-2.6C55.2,10.9,54,9.7,52.5,9.7z M52.5,9.7
			c-1.4,0-2.7,1.2-2.7,2.6c0,1.4,1.2,2.6,2.6,2.7c1.4,0,2.6-1.2,2.7-2.6C55.2,10.9,54,9.7,52.5,9.7z M52.5,9.7
			c-1.4,0-2.7,1.2-2.7,2.6c0,1.4,1.2,2.6,2.6,2.7c1.4,0,2.6-1.2,2.7-2.6C55.2,10.9,54,9.7,52.5,9.7z M52.5,9.7
			c-1.4,0-2.7,1.2-2.7,2.6c0,1.4,1.2,2.6,2.6,2.7c1.4,0,2.6-1.2,2.7-2.6C55.2,10.9,54,9.7,52.5,9.7z M52.5,9.7
			c-1.4,0-2.7,1.2-2.7,2.6c0,1.4,1.2,2.6,2.6,2.7c1.4,0,2.6-1.2,2.7-2.6C55.2,10.9,54,9.7,52.5,9.7z M52.5,9.7
			c-1.4,0-2.7,1.2-2.7,2.6c0,1.4,1.2,2.6,2.6,2.7c1.4,0,2.6-1.2,2.7-2.6C55.2,10.9,54,9.7,52.5,9.7z M52.5,9.7
			c-1.4,0-2.7,1.2-2.7,2.6c0,1.4,1.2,2.6,2.6,2.7c1.4,0,2.6-1.2,2.7-2.6C55.2,10.9,54,9.7,52.5,9.7z M113,55c-1.4,0-2.6,1.1-2.6,2.6
			c0,1.5,1.1,2.6,2.5,2.6c1.5,0,2.6-1.1,2.6-2.5C115.6,56.2,114.4,55,113,55z M113,55c-1.4,0-2.6,1.1-2.6,2.6c0,1.5,1.1,2.6,2.5,2.6
			c1.5,0,2.6-1.1,2.6-2.5C115.6,56.2,114.4,55,113,55z M52.5,9.7c-1.4,0-2.7,1.2-2.7,2.6c0,1.4,1.2,2.6,2.6,2.7
			c1.4,0,2.6-1.2,2.7-2.6C55.2,10.9,54,9.7,52.5,9.7z M17.4,74.5c-1.4,0-2.6,1.2-2.6,2.6s1.2,2.6,2.6,2.6c1.4,0,2.6-1.2,2.6-2.6
			C20.1,75.8,18.8,74.5,17.4,74.5z M20.5,67.1c-1.4,0-2.6,1.2-2.6,2.6c0,1.4,1.2,2.6,2.6,2.6c1.4,0,2.6-1.2,2.6-2.6
			C23.2,68.3,21.9,67.1,20.5,67.1z M25.5,60.6c-1.4,0-2.6,1.2-2.6,2.6c0,1.5,1.1,2.6,2.6,2.6c1.4,0,2.6-1.2,2.6-2.6
			C28.1,61.8,26.8,60.6,25.5,60.6z M52.5,9.7c-1.4,0-2.7,1.2-2.7,2.6c0,1.4,1.2,2.6,2.6,2.7c1.4,0,2.6-1.2,2.7-2.6
			C55.2,10.9,54,9.7,52.5,9.7z M113,55c-1.4,0-2.6,1.1-2.6,2.6c0,1.5,1.1,2.6,2.5,2.6c1.5,0,2.6-1.1,2.6-2.5
			C115.6,56.2,114.4,55,113,55z M113,55c-1.4,0-2.6,1.1-2.6,2.6c0,1.5,1.1,2.6,2.5,2.6c1.5,0,2.6-1.1,2.6-2.5
			C115.6,56.2,114.4,55,113,55z M25.5,60.6c-1.4,0-2.6,1.2-2.6,2.6c0,1.5,1.1,2.6,2.6,2.6c1.4,0,2.6-1.2,2.6-2.6
			C28.1,61.8,26.8,60.6,25.5,60.6z M20.5,67.1c-1.4,0-2.6,1.2-2.6,2.6c0,1.4,1.2,2.6,2.6,2.6c1.4,0,2.6-1.2,2.6-2.6
			C23.2,68.3,21.9,67.1,20.5,67.1z M17.4,74.5c-1.4,0-2.6,1.2-2.6,2.6s1.2,2.6,2.6,2.6c1.4,0,2.6-1.2,2.6-2.6
			C20.1,75.8,18.8,74.5,17.4,74.5z M52.5,9.7c-1.4,0-2.7,1.2-2.7,2.6c0,1.4,1.2,2.6,2.6,2.7c1.4,0,2.6-1.2,2.7-2.6
			C55.2,10.9,54,9.7,52.5,9.7z M17.4,74.5c-1.4,0-2.6,1.2-2.6,2.6s1.2,2.6,2.6,2.6c1.4,0,2.6-1.2,2.6-2.6
			C20.1,75.8,18.8,74.5,17.4,74.5z M20.5,67.1c-1.4,0-2.6,1.2-2.6,2.6c0,1.4,1.2,2.6,2.6,2.6c1.4,0,2.6-1.2,2.6-2.6
			C23.2,68.3,21.9,67.1,20.5,67.1z M25.5,60.6c-1.4,0-2.6,1.2-2.6,2.6c0,1.5,1.1,2.6,2.6,2.6c1.4,0,2.6-1.2,2.6-2.6
			C28.1,61.8,26.8,60.6,25.5,60.6z M52.5,9.7c-1.4,0-2.7,1.2-2.7,2.6c0,1.4,1.2,2.6,2.6,2.7c1.4,0,2.6-1.2,2.7-2.6
			C55.2,10.9,54,9.7,52.5,9.7z M47.7,76.1c-5.2,0-9.3,4.3-9.3,9.5c0,5.2,4.2,9.4,9.4,9.3c5.2,0,9.4-4.3,9.4-9.4
			C57.2,80.3,52.9,76.1,47.7,76.1z M47.9,90.8c-2.9,0-5.3-2.3-5.3-5.2c0-2.9,2.3-5.2,5.2-5.3c2.9,0,5.2,2.2,5.3,5.1
			C53.1,88.4,50.7,90.8,47.9,90.8z M113,55c-1.4,0-2.6,1.1-2.6,2.6c0,1.5,1.1,2.6,2.5,2.6c1.5,0,2.6-1.1,2.6-2.5
			C115.6,56.2,114.4,55,113,55z M113,55c-1.4,0-2.6,1.1-2.6,2.6c0,1.5,1.1,2.6,2.5,2.6c1.5,0,2.6-1.1,2.6-2.5
			C115.6,56.2,114.4,55,113,55z M25.5,60.6c-1.4,0-2.6,1.2-2.6,2.6c0,1.5,1.1,2.6,2.6,2.6c1.4,0,2.6-1.2,2.6-2.6
			C28.1,61.8,26.8,60.6,25.5,60.6z M20.5,67.1c-1.4,0-2.6,1.2-2.6,2.6c0,1.4,1.2,2.6,2.6,2.6c1.4,0,2.6-1.2,2.6-2.6
			C23.2,68.3,21.9,67.1,20.5,67.1z M17.4,74.5c-1.4,0-2.6,1.2-2.6,2.6s1.2,2.6,2.6,2.6c1.4,0,2.6-1.2,2.6-2.6
			C20.1,75.8,18.8,74.5,17.4,74.5z M52.5,9.7c-1.4,0-2.7,1.2-2.7,2.6c0,1.4,1.2,2.6,2.6,2.7c1.4,0,2.6-1.2,2.7-2.6
			C55.2,10.9,54,9.7,52.5,9.7z M47.7,76.1c-5.2,0-9.3,4.3-9.3,9.5c0,5.2,4.2,9.4,9.4,9.3c5.2,0,9.4-4.3,9.4-9.4
			C57.2,80.3,52.9,76.1,47.7,76.1z M47.9,90.8c-2.9,0-5.3-2.3-5.3-5.2c0-2.9,2.3-5.2,5.2-5.3c2.9,0,5.2,2.2,5.3,5.1
			C53.1,88.4,50.7,90.8,47.9,90.8z M17.4,74.5c-1.4,0-2.6,1.2-2.6,2.6s1.2,2.6,2.6,2.6c1.4,0,2.6-1.2,2.6-2.6
			C20.1,75.8,18.8,74.5,17.4,74.5z M20.5,67.1c-1.4,0-2.6,1.2-2.6,2.6c0,1.4,1.2,2.6,2.6,2.6c1.4,0,2.6-1.2,2.6-2.6
			C23.2,68.3,21.9,67.1,20.5,67.1z M25.5,60.6c-1.4,0-2.6,1.2-2.6,2.6c0,1.5,1.1,2.6,2.6,2.6c1.4,0,2.6-1.2,2.6-2.6
			C28.1,61.8,26.8,60.6,25.5,60.6z M52.5,9.7c-1.4,0-2.7,1.2-2.7,2.6c0,1.4,1.2,2.6,2.6,2.7c1.4,0,2.6-1.2,2.7-2.6
			C55.2,10.9,54,9.7,52.5,9.7z M47.7,76.1c-5.2,0-9.3,4.3-9.3,9.5c0,5.2,4.2,9.4,9.4,9.3c5.2,0,9.4-4.3,9.4-9.4
			C57.2,80.3,52.9,76.1,47.7,76.1z M47.9,90.8c-2.9,0-5.3-2.3-5.3-5.2c0-2.9,2.3-5.2,5.2-5.3c2.9,0,5.2,2.2,5.3,5.1
			C53.1,88.4,50.7,90.8,47.9,90.8z M113,55c-1.4,0-2.6,1.1-2.6,2.6c0,1.5,1.1,2.6,2.5,2.6c1.5,0,2.6-1.1,2.6-2.5
			C115.6,56.2,114.4,55,113,55z M113,55c-1.4,0-2.6,1.1-2.6,2.6c0,1.5,1.1,2.6,2.5,2.6c1.5,0,2.6-1.1,2.6-2.5
			C115.6,56.2,114.4,55,113,55z M47.7,76.1c-5.2,0-9.3,4.3-9.3,9.5c0,5.2,4.2,9.4,9.4,9.3c5.2,0,9.4-4.3,9.4-9.4
			C57.2,80.3,52.9,76.1,47.7,76.1z M47.9,90.8c-2.9,0-5.3-2.3-5.3-5.2c0-2.9,2.3-5.2,5.2-5.3c2.9,0,5.2,2.2,5.3,5.1
			C53.1,88.4,50.7,90.8,47.9,90.8z M25.5,60.6c-1.4,0-2.6,1.2-2.6,2.6c0,1.5,1.1,2.6,2.6,2.6c1.4,0,2.6-1.2,2.6-2.6
			C28.1,61.8,26.8,60.6,25.5,60.6z M20.5,67.1c-1.4,0-2.6,1.2-2.6,2.6c0,1.4,1.2,2.6,2.6,2.6c1.4,0,2.6-1.2,2.6-2.6
			C23.2,68.3,21.9,67.1,20.5,67.1z M17.4,74.5c-1.4,0-2.6,1.2-2.6,2.6s1.2,2.6,2.6,2.6c1.4,0,2.6-1.2,2.6-2.6
			C20.1,75.8,18.8,74.5,17.4,74.5z M52.5,9.7c-1.4,0-2.7,1.2-2.7,2.6c0,1.4,1.2,2.6,2.6,2.7c1.4,0,2.6-1.2,2.7-2.6
			C55.2,10.9,54,9.7,52.5,9.7z M128,48.2c0.1-3.9-1.3-7.1-4.1-9.9C113,27.5,102,16.6,91.2,5.6c-3.1-3.1-6.6-4.5-10.9-4.5
			c-10.2,0.1-20.3,0-30.4,0c-0.7,0-1.4,0-2.1,0.1c-2.4,0.3-4.6,2-5.1,4.4c-0.3,1.2-0.7,1.4-1.9,1.4c-4.2,0-7.2,2.6-7.6,6.7
			c-0.3,3.2-0.3,6.5,0,9.7c0.4,3.6,3.1,6,6.7,6.3c2.5,0.2,2.5,0.2,2.4,2.8c0,0.6-0.2,0.8-0.8,0.8c-3.8,0.4-7.4,1.3-11,2.6
			c-5.4,1.9-7.9,6.4-6.5,12c0.2,0.7,0,1-0.5,1.3c-2.1,1.4-4.1,3-5.9,4.7C9.5,61.8,4.9,71.4,4.1,82.7c0,0.4,0.1,1-0.4,1.2
			c-1.9,0.8-2.9,2.4-3.7,4.2v6.7c0.8,3.2,2.9,4.9,6.3,5c0.8,0,1.6,0,2.5,0c1-0.1,1.5,0.3,1.8,1.2c2.4,6.6,6.4,12.2,11.8,16.7
			c6,5,12.8,8.1,20.6,8.8c0.9,0.1,1.8-0.1,2.7,0.2h1c0.7-0.2,1.4-0.2,2.1,0h0.8c0.1-0.4,0.4-0.3,0.6-0.3c1.5,0,2.9-0.2,4.3-0.5
			c14.8-2.9,24.9-11.5,30.4-25.6c0.3-0.8,0.6-1.1,1.5-1.1c4,0.1,8,0,12,0c3,0,5.7-2.2,6-5.1c0.2-2.2,0.2-4.4-0.1-6.6
			c0.1,0,0.2-0.1,0.3-0.1c0.4,0,0.8,0,1.2,0c3.3,0,6.2-1.1,8.5-3.4c3.6-3.5,7.1-7,10.6-10.6c2.1-2.2,3.2-5,3.2-8.1
			C128,59.9,127.9,54,128,48.2z M42.3,18.5c0,2.1,0,4.1,0,6.2c0,0.6-0.1,0.8-0.8,0.8c-3.1,0.2-4.4-1.4-4.2-3.9c0.1-2.4,0-4.7,0-7.1
			c0-2.4,2.3-4,4.6-3.2c0.5,0.2,0.3,0.5,0.3,0.8C42.3,14.2,42.3,16.4,42.3,18.5z M117.4,37.8c1.6,1.6,3.2,3.1,5,4.8
			c-5.6,2.3-10.8,4.5-16,6.7c-0.6,0.2-1,0.2-1.4-0.3c-1.4-1.5-3-3-4.6-4.6c2.8-1.2,5.5-2.3,8.2-3.4c2.6-1.1,5.1-2.1,7.7-3.2
			C116.6,37.6,116.9,37.3,117.4,37.8z M106.2,27.7c0.4-0.5,0.7-0.4,1.1,0c2.1,2.1,4.3,4.2,6.5,6.5c-2,0.8-3.8,1.6-5.6,2.4
			c-0.4,0.2-0.8,0.2-1.1-0.2c-1.6-1.6-3.2-3.1-4.8-4.7C103.7,30.2,105,29,106.2,27.7z M100.6,21c0.9,0.9,1.8,1.8,2.7,2.7
			c0.4,0.4,0.4,0.6,0,1c-1.2,1.1-2.3,2.3-3.5,3.5c-0.4,0.4-0.6,0.3-0.9,0c-1.1-1.1-2.2-2.2-3.4-3.4c1.4-1.3,2.7-2.6,4-3.9
			C100,20.5,100.2,20.6,100.6,21z M91.3,16.7c0.8-0.8,1.6-1.7,2.4-2.6c1.1,1.2,2.8,2.1,3,3.3c0.2,1.2-1.7,2.1-2.7,3.1
			c-1.3,1.4-1.4,1.4-2.8,0C89.4,18.6,89.4,18.6,91.3,16.7z M67.3,6.2c0-0.6,0.1-0.9,0.8-0.9c4.7,0,9.4,0,14.1,0
			c1.9,0,3.6,0.9,4.9,2.2c1.1,1,2.1,2.1,3.1,3.1c0.5,0.5,0.4,0.8,0,1.2c-1.6,1.6-3.2,3.2-4.7,4.7c-1.6,1.6-1.6,2.5,0,4.1
			c5.6,5.6,11.2,11.2,16.9,16.9c0.3,0.3,0.6,0.6,1,1c-1.9,0.8-3.8,1.6-5.6,2.4c-0.7,0.3-1-0.2-1.4-0.6c-5.6-5.6-11.3-11.2-16.8-16.9
			c-1.1-1.1-2.1-1.6-3.6-1.5c-2.5,0.1-5.1,0-7.6,0c-0.7,0-1-0.2-0.9-0.9C67.4,16.1,67.4,11.2,67.3,6.2z M67.3,35.4
			c0.1-1.3,0-2.7,0-4c0-1.5,0-3,0-4.5c0-0.6,0.1-0.7,0.7-0.7c2.6,0,5.2,0,7.7,0c0.5,0,0.8,0.2,1.1,0.6c8.5,8.5,17,17,25.5,25.5
			c0.2,0.2,0.6,0.4,0.6,0.8c0,1.9,0.1,3.8-0.1,5.7c-0.3,2.2-2.1,3.6-4.4,3.9c-3,0.3-3,0.3-4.4-2.3c-5.9-10.6-14.4-18.4-25.6-23.2
			C67.6,36.8,67.3,36.3,67.3,35.4z M46.5,7.9c0-1.9,0.7-2.5,2.6-2.5c4.4,0,8.8,0,13.1,0c0.8,0,1,0.2,1,1c0,4.6,0,9.3,0,13.9
			c0,4.6,0,9.2,0,13.8c0,1-0.1,1.1-1.1,0.8c-4.8-1.4-9.6-2-14.6-2c-0.8,0-1-0.2-1-1C46.5,23.9,46.5,15.9,46.5,7.9z M31.4,40
			c17.9-5.9,34.1-2.9,48.4,9.3c8.3,7,13.3,16.2,15.6,26.8c0.4,2,0.5,4.1,0.9,6.1c0.2,1.1-0.2,1.5-1.3,1.3c-0.3-0.1-0.7,0-1,0
			c-2.3,0-2.3,0-2.5-2.6c-0.8-8.2-3.8-15.5-8.8-22C75.4,49.7,66,44.1,54.4,42.3C45.6,40.9,37.1,42.2,29,46c-1.1,0.5-1.2,0.2-1.2-0.8
			C27.8,42.8,29.1,40.7,31.4,40z M8.3,82.3c0.6-6.7,2.7-12.9,6.4-18.5c6.8-10.1,16.4-16.1,28.5-17.6c19.9-2.5,39,11.1,43.2,30.7
			c0.4,1.9,0.7,3.8,0.9,5.7c0.1,0.8-0.2,0.9-0.9,0.9c-2.2,0-4.5,0-6.7,0c-2.1,0-4.3,0-6.4,0c-0.8,0-1.2-0.2-1.3-1.1
			c-1.3-10.1-8.4-18.1-18.4-20.6c-13.7-3.4-27.7,5.9-29.8,19.8c-0.1,0.4-0.2,0.8-0.2,1.1c0,0.7-0.3,0.7-0.9,0.7c-4.5,0-9,0-13.5,0
			C8,83.5,8.2,82.8,8.3,82.3z M68.1,85.6c0,11-9.2,20.1-20.2,20.1c-11.1,0-20.3-9.1-20.3-20.2c0-11,9.1-20,20.2-20
			C58.9,65.5,68.1,74.6,68.1,85.6z M6.4,95.4c-1.5,0-2.2-0.8-2.3-2.3c0-1.1,0-2.1,0-3.2c0-1.4,0.8-2.1,2.2-2.1c5.4,0,10.8,0,16.2,0
			c0.7,0,0.9,0.1,1,0.9c0.3,2.3,0.9,4.5,1.9,6.8C18.9,95.4,12.7,95.4,6.4,95.4z M48.1,122.5c-16.4,0.2-29.2-11-33.3-23
			c4.2,0,8.3,0,12.5,0c0.5,0,0.7,0.3,0.9,0.6c5.7,7.3,13.3,10.6,22.4,9.6c6.7-0.7,12.2-3.9,16.3-9.2c0.6-0.8,1.3-1.1,2.2-1.1
			c3.8,0.1,7.6,0,11.5,0C77,110.9,64.7,122.4,48.1,122.5z M100.3,93.3c0,1.1-0.7,1.8-1.8,2c-0.2,0-0.4,0-0.6,0H70.2
			c0.9-2.4,1.6-4.7,1.8-7.1c0-0.6,0.4-0.6,0.9-0.6c8.5,0,16.9,0,25.4,0c1.2,0,1.9,0.7,2,1.9C100.4,90.8,100.4,92.1,100.3,93.3z
			 M123.8,65.7c0,2-0.7,3.9-2.2,5.3c-3.4,3.4-6.9,6.9-10.3,10.3c-1.5,1.5-3.4,2.1-5.5,2.2c-1.5,0-3,0-4.5,0c-0.5,0-0.9-0.1-0.9-0.7
			c-0.2-5.5-1.4-10.8-3.3-15.9c1.3-0.1,2.5,0,3.8-0.4c3.6-1.1,6.1-4.3,6.3-8.1c0.1-1.3,0.1-2.7,0-4c0-0.7,0.2-1,0.9-1.3
			c4.9-2,9.9-4.1,14.8-6.1c0.9-0.4,1.1-0.1,1.1,0.7C123.8,53.7,123.9,59.7,123.8,65.7z M113,55c-1.4,0-2.6,1.1-2.6,2.6
			c0,1.5,1.1,2.6,2.5,2.6c1.5,0,2.6-1.1,2.6-2.5C115.6,56.2,114.4,55,113,55z M47.7,76.1c-5.2,0-9.3,4.3-9.3,9.5
			c0,5.2,4.2,9.4,9.4,9.3c5.2,0,9.4-4.3,9.4-9.4C57.2,80.3,52.9,76.1,47.7,76.1z M47.9,90.8c-2.9,0-5.3-2.3-5.3-5.2
			c0-2.9,2.3-5.2,5.2-5.3c2.9,0,5.2,2.2,5.3,5.1C53.1,88.4,50.7,90.8,47.9,90.8z M52.5,14.9c1.4,0,2.6-1.2,2.7-2.6
			c0-1.4-1.2-2.6-2.6-2.6c-1.4,0-2.7,1.2-2.7,2.6C49.9,13.6,51.1,14.9,52.5,14.9z M25.5,65.8c1.4,0,2.6-1.2,2.6-2.6
			c0-1.4-1.2-2.6-2.6-2.6c-1.4,0-2.6,1.2-2.6,2.6C22.9,64.7,24,65.8,25.5,65.8z M20.5,72.2c1.4,0,2.6-1.2,2.6-2.6
			c0-1.4-1.2-2.6-2.6-2.6c-1.4,0-2.6,1.2-2.6,2.6C17.9,71.1,19.1,72.2,20.5,72.2z M17.4,79.7c1.4,0,2.6-1.2,2.6-2.6
			c0-1.4-1.2-2.6-2.6-2.6c-1.4,0-2.6,1.2-2.6,2.6S16,79.7,17.4,79.7z M47.7,76.1c-5.2,0-9.3,4.3-9.3,9.5c0,5.2,4.2,9.4,9.4,9.3
			c5.2,0,9.4-4.3,9.4-9.4C57.2,80.3,52.9,76.1,47.7,76.1z M47.9,90.8c-2.9,0-5.3-2.3-5.3-5.2c0-2.9,2.3-5.2,5.2-5.3
			c2.9,0,5.2,2.2,5.3,5.1C53.1,88.4,50.7,90.8,47.9,90.8z M52.5,9.7c-1.4,0-2.7,1.2-2.7,2.6c0,1.4,1.2,2.6,2.6,2.7
			c1.4,0,2.6-1.2,2.7-2.6C55.2,10.9,54,9.7,52.5,9.7z M17.4,74.5c-1.4,0-2.6,1.2-2.6,2.6s1.2,2.6,2.6,2.6c1.4,0,2.6-1.2,2.6-2.6
			C20.1,75.8,18.8,74.5,17.4,74.5z M20.5,67.1c-1.4,0-2.6,1.2-2.6,2.6c0,1.4,1.2,2.6,2.6,2.6c1.4,0,2.6-1.2,2.6-2.6
			C23.2,68.3,21.9,67.1,20.5,67.1z M25.5,60.6c-1.4,0-2.6,1.2-2.6,2.6c0,1.5,1.1,2.6,2.6,2.6c1.4,0,2.6-1.2,2.6-2.6
			C28.1,61.8,26.8,60.6,25.5,60.6z M113,55c-1.4,0-2.6,1.1-2.6,2.6c0,1.5,1.1,2.6,2.5,2.6c1.5,0,2.6-1.1,2.6-2.5
			C115.6,56.2,114.4,55,113,55z M113,55c-1.4,0-2.6,1.1-2.6,2.6c0,1.5,1.1,2.6,2.5,2.6c1.5,0,2.6-1.1,2.6-2.5
			C115.6,56.2,114.4,55,113,55z M47.7,76.1c-5.2,0-9.3,4.3-9.3,9.5c0,5.2,4.2,9.4,9.4,9.3c5.2,0,9.4-4.3,9.4-9.4
			C57.2,80.3,52.9,76.1,47.7,76.1z M47.9,90.8c-2.9,0-5.3-2.3-5.3-5.2c0-2.9,2.3-5.2,5.2-5.3c2.9,0,5.2,2.2,5.3,5.1
			C53.1,88.4,50.7,90.8,47.9,90.8z M52.5,9.7c-1.4,0-2.7,1.2-2.7,2.6c0,1.4,1.2,2.6,2.6,2.7c1.4,0,2.6-1.2,2.7-2.6
			C55.2,10.9,54,9.7,52.5,9.7z M25.5,60.6c-1.4,0-2.6,1.2-2.6,2.6c0,1.5,1.1,2.6,2.6,2.6c1.4,0,2.6-1.2,2.6-2.6
			C28.1,61.8,26.8,60.6,25.5,60.6z M20.5,67.1c-1.4,0-2.6,1.2-2.6,2.6c0,1.4,1.2,2.6,2.6,2.6c1.4,0,2.6-1.2,2.6-2.6
			C23.2,68.3,21.9,67.1,20.5,67.1z M17.4,74.5c-1.4,0-2.6,1.2-2.6,2.6s1.2,2.6,2.6,2.6c1.4,0,2.6-1.2,2.6-2.6
			C20.1,75.8,18.8,74.5,17.4,74.5z M52.5,9.7c-1.4,0-2.7,1.2-2.7,2.6c0,1.4,1.2,2.6,2.6,2.7c1.4,0,2.6-1.2,2.7-2.6
			C55.2,10.9,54,9.7,52.5,9.7z M17.4,74.5c-1.4,0-2.6,1.2-2.6,2.6s1.2,2.6,2.6,2.6c1.4,0,2.6-1.2,2.6-2.6
			C20.1,75.8,18.8,74.5,17.4,74.5z M20.5,67.1c-1.4,0-2.6,1.2-2.6,2.6c0,1.4,1.2,2.6,2.6,2.6c1.4,0,2.6-1.2,2.6-2.6
			C23.2,68.3,21.9,67.1,20.5,67.1z M25.5,60.6c-1.4,0-2.6,1.2-2.6,2.6c0,1.5,1.1,2.6,2.6,2.6c1.4,0,2.6-1.2,2.6-2.6
			C28.1,61.8,26.8,60.6,25.5,60.6z M113,55c-1.4,0-2.6,1.1-2.6,2.6c0,1.5,1.1,2.6,2.5,2.6c1.5,0,2.6-1.1,2.6-2.5
			C115.6,56.2,114.4,55,113,55z M113,55c-1.4,0-2.6,1.1-2.6,2.6c0,1.5,1.1,2.6,2.5,2.6c1.5,0,2.6-1.1,2.6-2.5
			C115.6,56.2,114.4,55,113,55z M52.5,9.7c-1.4,0-2.7,1.2-2.7,2.6c0,1.4,1.2,2.6,2.6,2.7c1.4,0,2.6-1.2,2.7-2.6
			C55.2,10.9,54,9.7,52.5,9.7z M25.5,60.6c-1.4,0-2.6,1.2-2.6,2.6c0,1.5,1.1,2.6,2.6,2.6c1.4,0,2.6-1.2,2.6-2.6
			C28.1,61.8,26.8,60.6,25.5,60.6z M20.5,67.1c-1.4,0-2.6,1.2-2.6,2.6c0,1.4,1.2,2.6,2.6,2.6c1.4,0,2.6-1.2,2.6-2.6
			C23.2,68.3,21.9,67.1,20.5,67.1z M17.4,74.5c-1.4,0-2.6,1.2-2.6,2.6s1.2,2.6,2.6,2.6c1.4,0,2.6-1.2,2.6-2.6
			C20.1,75.8,18.8,74.5,17.4,74.5z M52.5,9.7c-1.4,0-2.7,1.2-2.7,2.6c0,1.4,1.2,2.6,2.6,2.7c1.4,0,2.6-1.2,2.7-2.6
			C55.2,10.9,54,9.7,52.5,9.7z M113,55c-1.4,0-2.6,1.1-2.6,2.6c0,1.5,1.1,2.6,2.5,2.6c1.5,0,2.6-1.1,2.6-2.5
			C115.6,56.2,114.4,55,113,55z M113,55c-1.4,0-2.6,1.1-2.6,2.6c0,1.5,1.1,2.6,2.5,2.6c1.5,0,2.6-1.1,2.6-2.5
			C115.6,56.2,114.4,55,113,55z M52.5,9.7c-1.4,0-2.7,1.2-2.7,2.6c0,1.4,1.2,2.6,2.6,2.7c1.4,0,2.6-1.2,2.7-2.6
			C55.2,10.9,54,9.7,52.5,9.7z M52.5,9.7c-1.4,0-2.7,1.2-2.7,2.6c0,1.4,1.2,2.6,2.6,2.7c1.4,0,2.6-1.2,2.7-2.6
			C55.2,10.9,54,9.7,52.5,9.7z M52.5,9.7c-1.4,0-2.7,1.2-2.7,2.6c0,1.4,1.2,2.6,2.6,2.7c1.4,0,2.6-1.2,2.7-2.6
			C55.2,10.9,54,9.7,52.5,9.7z M52.5,9.7c-1.4,0-2.7,1.2-2.7,2.6c0,1.4,1.2,2.6,2.6,2.7c1.4,0,2.6-1.2,2.7-2.6
			C55.2,10.9,54,9.7,52.5,9.7z M52.5,9.7c-1.4,0-2.7,1.2-2.7,2.6c0,1.4,1.2,2.6,2.6,2.7c1.4,0,2.6-1.2,2.7-2.6
			C55.2,10.9,54,9.7,52.5,9.7z M52.5,9.7c-1.4,0-2.7,1.2-2.7,2.6c0,1.4,1.2,2.6,2.6,2.7c1.4,0,2.6-1.2,2.7-2.6
			C55.2,10.9,54,9.7,52.5,9.7z M52.5,9.7c-1.4,0-2.7,1.2-2.7,2.6c0,1.4,1.2,2.6,2.6,2.7c1.4,0,2.6-1.2,2.7-2.6
			C55.2,10.9,54,9.7,52.5,9.7z M52.5,9.7c-1.4,0-2.7,1.2-2.7,2.6c0,1.4,1.2,2.6,2.6,2.7c1.4,0,2.6-1.2,2.7-2.6
			C55.2,10.9,54,9.7,52.5,9.7z M52.5,9.7c-1.4,0-2.7,1.2-2.7,2.6c0,1.4,1.2,2.6,2.6,2.7c1.4,0,2.6-1.2,2.7-2.6
			C55.2,10.9,54,9.7,52.5,9.7z"/>
		<path d="M46.7,126.9c0.7-0.4,1.4-0.4,2.1,0C48.1,126.9,47.4,126.9,46.7,126.9z"/>
		<path d="M20.1,77.1c0,1.4-1.2,2.6-2.6,2.6c-1.4,0-2.6-1.2-2.6-2.6s1.2-2.6,2.6-2.6C18.8,74.5,20.1,75.8,20.1,77.1z"/>
		<path d="M23.2,69.7c0,1.4-1.2,2.6-2.6,2.6c-1.4,0-2.6-1.1-2.6-2.6c0-1.4,1.2-2.6,2.6-2.6C21.9,67.1,23.2,68.3,23.2,69.7z"/>
		<path d="M28.1,63.2c0,1.4-1.2,2.6-2.6,2.6c-1.5,0-2.6-1.1-2.6-2.6c0-1.4,1.1-2.6,2.6-2.6C26.8,60.6,28.1,61.8,28.1,63.2z"/>
		<path d="M47.7,76.1c-5.2,0-9.3,4.3-9.3,9.5c0,5.2,4.2,9.4,9.4,9.3c5.2,0,9.4-4.3,9.4-9.4C57.2,80.3,52.9,76.1,47.7,76.1z
			 M47.9,90.8c-2.9,0-5.3-2.3-5.3-5.2c0-2.9,2.3-5.2,5.2-5.3c2.9,0,5.2,2.2,5.3,5.1C53.1,88.4,50.7,90.8,47.9,90.8z"/>
		<path d="M115.6,57.6c0,1.4-1.2,2.6-2.6,2.5c-1.5,0-2.5-1.1-2.5-2.6c0-1.4,1.2-2.6,2.6-2.6C114.4,55,115.6,56.2,115.6,57.6z"/>
		<path d="M55.1,12.3c0,1.4-1.3,2.6-2.7,2.6c-1.4,0-2.6-1.3-2.6-2.7c0-1.4,1.2-2.6,2.7-2.6C54,9.7,55.2,10.9,55.1,12.3z"/>
		<path d="M23.2,69.7c0,1.4-1.2,2.6-2.6,2.6c-1.4,0-2.6-1.1-2.6-2.6c0-1.4,1.2-2.6,2.6-2.6C21.9,67.1,23.2,68.3,23.2,69.7z"/>
		<path d="M28.1,63.2c0,1.4-1.2,2.6-2.6,2.6c-1.5,0-2.6-1.1-2.6-2.6c0-1.4,1.1-2.6,2.6-2.6C26.8,60.6,28.1,61.8,28.1,63.2z"/>
		<path d="M20.1,77.1c0,1.4-1.2,2.6-2.6,2.6c-1.4,0-2.6-1.2-2.6-2.6s1.2-2.6,2.6-2.6C18.8,74.5,20.1,75.8,20.1,77.1z"/>
		<path d="M47.7,76.1c-5.2,0-9.3,4.3-9.3,9.5c0,5.2,4.2,9.4,9.4,9.3c5.2,0,9.4-4.3,9.4-9.4C57.2,80.3,52.9,76.1,47.7,76.1z
			 M47.9,90.8c-2.9,0-5.3-2.3-5.3-5.2c0-2.9,2.3-5.2,5.2-5.3c2.9,0,5.2,2.2,5.3,5.1C53.1,88.4,50.7,90.8,47.9,90.8z"/>
		<path d="M115.6,57.6c0,1.4-1.2,2.6-2.6,2.5c-1.5,0-2.5-1.1-2.5-2.6c0-1.4,1.2-2.6,2.6-2.6C114.4,55,115.6,56.2,115.6,57.6z"/>
		<path d="M55.1,12.3c0,1.4-1.3,2.6-2.7,2.6c-1.4,0-2.6-1.3-2.6-2.7c0-1.4,1.2-2.6,2.7-2.6C54,9.7,55.2,10.9,55.1,12.3z"/>
	</g>
</g>
</svg>
