<?xml version="1.0" encoding="utf-8"?>
<!-- Generator: Adobe Illustrator 28.0.0, SVG Export Plug-In . SVG Version: 6.00 Build 0)  -->
<svg version="1.1" id="Layer_1" xmlns="http://www.w3.org/2000/svg" xmlns:xlink="http://www.w3.org/1999/xlink" x="0px" y="0px"
	 viewBox="0 0 128 128" style="enable-background:new 0 0 128 128;" xml:space="preserve">
<g id="NGfafa.tif">
	<g>
		<path d="M125,24.9c-1-1.1-2.3-2-3.6-2.9c6.5-6.1,5.1-14.1,1.1-18.2c-2.1-2.1-4.6-3.4-7.6-3.7c-4.9-0.5-8.7,1.7-11.8,5.3
			c-5-6.8-13.9-6.9-19.7-1.2C68.5,19.2,53.2,33.9,38,48.7C26.6,59.8,15.1,70.9,3.8,82c-2.9,2.8-4.2,6.4-3.6,10.4
			c0.7,5.1,3.7,8.7,8.6,10.2c5,1.6,9.3,0.2,13-3.6c2.8-2.9,5.7-5.7,8.7-8.5c1.2,2.2,3,3.9,5.1,5.1c-3.6,3.6-6.9,7.3-10.6,10.7
			c-6.8,6.2-5.1,17.1,3.4,20.7c0.9,0.4,1.8,0.6,2.7,1h3.9c3.2-0.1,5.6-1.9,7.7-4.1c27.1-27.2,54.3-54.4,81.5-81.5
			c2.1-2.1,3.6-4.4,3.9-7.3V31C127.4,28.8,126.6,26.6,125,24.9z M101.2,14.4c0-0.7,0.2-1.3,0.7-1.8c1.9-1.8,3.8-3.8,5.7-5.6
			c0.5-0.5,1-1,1.9-1.4c0,7.4,0,14.7,0,21.9c0,0.4-0.1,0.7-0.4,1c-2.6,2.5-5.1,5.1-7.7,7.7c-0.4-0.4-0.2-0.8-0.2-1.1
			C101.2,28.1,101.2,21.2,101.2,14.4z M93.7,4.2c2.5,0.3,4.5,1.5,6,3.5c0.3,0.5,0.4,0.8-0.1,1.3c-2.2,2.1-4.3,4.3-6.7,6.7
			c0-3.8,0-7.3,0-10.9C92.9,4.2,93.2,4.1,93.7,4.2z M80.8,12.8c2.4-2.3,4.8-4.6,7.3-6.9c0.2-0.2,0.4-0.3,0.7-0.4c0,4.7,0,9.3,0,13.9
			c0,0.4-0.2,0.6-0.4,0.9c-2.6,2.5-5.1,5.1-7.8,7.8c0-5,0-9.7,0-14.4C80.5,13.3,80.6,13,80.8,12.8z M68.1,26.2
			c0-0.8,0.2-1.3,0.8-1.9c2.4-2.3,4.8-4.7,7.5-7.3c0,5,0,9.7,0,14.4c0,0.5-0.1,0.8-0.4,1.1c-2.6,2.5-5.1,5.1-7.6,7.6
			c-0.3-0.4-0.2-0.8-0.2-1.1C68.2,34.8,68.2,30.5,68.1,26.2z M55.8,38.2c0-0.5-0.1-0.9,0.3-1.3c2.6-2.5,5.2-5,7.9-7.7
			c0,5.1,0,10,0,14.8c0,0.4-0.1,0.7-0.4,1c-2.6,2.5-5.1,5.1-7.6,7.7c-0.4-0.3-0.2-0.7-0.2-1C55.8,47.2,55.8,42.7,55.8,38.2z
			 M43.4,49.7c0-0.3,0.1-0.5,0.3-0.7c2.6-2.5,5.2-5.1,8-7.8v8.1c0,2.2,0,4.5,0,6.7c0,0.4,0.1,0.8-0.3,1.2c-2.6,2.6-5.2,5.2-8,8
			C43.4,59.9,43.4,54.8,43.4,49.7z M47.4,67.4v6.5c-1.6-0.9-3.3-1.3-4.8-1.6C44.2,70.7,45.8,69,47.4,67.4z M12.5,99.1
			c-4.4,0-8.2-3.7-8.3-8.1c-0.1-4.5,3.7-8.3,8.2-8.4c4.5,0,8.3,3.8,8.3,8.3C20.7,95.3,16.9,99.1,12.5,99.1z M29,84.6
			c0,0.8-0.2,1.4-0.8,2c-1.1,1-2.1,2.1-3.2,3.2c-1.1-6.5-4.8-10.3-11.4-11.5c4.4-4.3,8.8-8.6,13.3-13c0,2.2,0,4.2,0,6.1
			c0,0.6,0.2,0.8,0.8,0.8C31,72.4,31,72.4,31,69c0-2.3,0-4.6,0-6.8c0-0.4-0.1-0.8,0.3-1.2c2.6-2.5,5.2-5,7.9-7.7v4.1
			c0,3.6,0,7.2,0,10.8c0,0.7-0.2,1.2-0.7,1.7c-2,1.9-4,3.8-5.9,5.8C30.2,78.2,28.9,81.1,29,84.6z M33,123.9c-4.5,0-8.3-3.9-8.2-8.3
			c0.1-4.5,3.8-8.2,8.3-8.2c4.5,0,8.3,3.9,8.2,8.3C41.3,120.2,37.5,123.9,33,123.9z M41.3,106.4c-2.2-1.9-4.5-2.8-7.4-3.2
			c2.1-2.1,4-3.9,5.8-5.8c0.4-0.4,0.8-0.5,1.3-0.3c0.5,0.2,0.2,0.7,0.2,1C41.3,100.8,41.3,103.4,41.3,106.4z M41.3,92.9
			c-4.5,0-8.3-3.9-8.2-8.4c0.1-4.5,3.9-8.2,8.3-8.1c4.5,0,8.3,3.9,8.2,8.4C49.5,89.2,45.7,93,41.3,92.9z M53.5,106.4
			c-0.7,1.7-2.6,2.9-4,4.3c-1.3,1.3-2.5,2.6-4,4.1c0-6.2,0-12,0-17.9c0-0.3-0.1-0.6,0.3-0.7c3.1-1.1,5-3.7,7.2-5.9
			c0.2-0.2,0.2-0.5,0.3-0.7c0.1,0.1,0.3,0.2,0.4,0.3c0,3.5,0,7,0,10.5C53.7,102.5,54.2,104.7,53.5,106.4z M53.7,83.7
			c-0.3-2.1-0.8-3.9-1.9-5.6c-0.2-0.4-0.2-0.7-0.2-1.1c0-4.4,0-8.9,0-13.3c0-0.5,0.1-1,0.5-1.4c2.5-2.5,5.1-5,7.6-7.5
			c0.3,0.3,0.2,0.7,0.2,1.1c0,6.9,0,13.8,0,20.6c0,0.7-0.2,1.3-0.7,1.8C57.4,80,55.6,81.8,53.7,83.7z M65.8,94.4
			c-2.6,2.6-5.2,5.2-8,8c0-4.1,0-7.9,0-11.6c0-1.8-0.4-3.7,0.2-5.2c0.6-1.5,2.3-2.5,3.5-3.7c1.4-1.5,2.9-2.9,4.6-4.6
			c0,5.7,0,11,0,16.3C66.1,93.9,66.1,94.1,65.8,94.4z M64,73.4c0-7.6,0-14.9,0-22.2c0-0.5,0.1-0.9,0.5-1.2c2.5-2.5,5.1-5,7.6-7.6
			c0.4,0.3,0.2,0.7,0.2,1.1c0,6.9,0,13.8,0,20.6c0,0.7-0.2,1.3-0.7,1.8C69.1,68.3,66.7,70.8,64,73.4z M78.5,80.7
			c0,0.5,0.1,0.9-0.3,1.3c-2.6,2.6-5.1,5.1-7.9,8c0-5.6,0-10.8,0-16.1c0-0.6,0.2-1,0.6-1.3c2.5-2.5,5-5,7.5-7.5
			c0.4,0.3,0.2,0.6,0.2,1C78.5,71,78.5,75.9,78.5,80.7z M76.4,61c0-7.6,0-14.9,0-22.2c0-0.5,0.1-0.9,0.5-1.2c2.5-2.5,5-5,7.6-7.5
			c0.3,0.3,0.2,0.7,0.2,1.1c0,6.9,0,13.8,0,20.6c0,0.7-0.2,1.3-0.7,1.8C81.5,55.9,79,58.4,76.4,61z M90.9,68.3
			c0,0.7-0.2,1.3-0.7,1.8c-2.5,2.4-4.9,4.9-7.5,7.5V71c0-3.1,0-6.3,0-9.4c0-0.5,0-0.9,0.4-1.3c2.6-2.5,5.1-5.1,7.7-7.7
			c0.4,0.4,0.2,0.8,0.2,1.1C90.9,58.6,90.8,63.5,90.9,68.3z M89,48.5c-0.4-0.3-0.2-0.7-0.2-1c0-6.9,0-13.8,0-20.8
			c0-0.7,0.2-1.3,0.7-1.8c2.5-2.4,4.9-4.9,7.5-7.5v1.3c0,6.9,0,13.7,0,20.6c0,0.7-0.2,1.2-0.7,1.7C93.9,43.5,91.5,46,89,48.5z
			 M103.3,55.9c0,0.7-0.2,1.3-0.7,1.8c-2.5,2.4-4.9,4.9-7.5,7.5c0-3.3,0-6.4,0-9.5c0-2.4-0.6-5.2,0.2-7.3c0.8-2.1,3.2-3.5,4.9-5.2
			c1-1,1.9-2,2.9-3c0.4,0.4,0.2,0.8,0.2,1.2C103.2,46.3,103.2,51.1,103.3,55.9z M112.3,47.9c-1.7,1.4-3.2,3.1-5,5
			c0-5.7,0-10.9,0-16.2c0-0.3,0-0.7,0.3-0.9c2.6-2.6,5.2-5.2,8-8c0,4.3-0.2,8.2,0.1,12.1C116,43.3,115,45.8,112.3,47.9z M113.6,23.9
			c0-6.6,0-12.7,0-18.9c0-0.8,0.3-0.9,1-0.8c3.3,0.5,5.7,2.3,6.8,5.5c1.1,3.2,0.3,6.1-2.1,8.5C117.5,20.1,115.6,21.9,113.6,23.9z
			 M119.8,40.2V26C125.2,29.4,125.2,35.5,119.8,40.2z"/>
	</g>
</g>
</svg>
