<?xml version="1.0" encoding="utf-8"?>
<!-- Generator: Adobe Illustrator 28.0.0, SVG Export Plug-In . SVG Version: 6.00 Build 0)  -->
<svg version="1.1" id="Layer_1" xmlns="http://www.w3.org/2000/svg" xmlns:xlink="http://www.w3.org/1999/xlink" x="0px" y="0px"
	 viewBox="0 0 128 128" style="enable-background:new 0 0 128 128;" xml:space="preserve">
<g id="KJA2IG.tif">
	<g>
		<path d="M122.8,19c1,0,1.9,0,2.9,0c1.1,0,1.9-0.3,2.3-1.4v-9c-0.3-1.2-1.1-1.6-2.2-1.6c-1,0-1.9,0-2.9,0c-0.9,0-1.3-0.3-1.3-1.3
			c0-1.2,0.1-2.4,0-3.6c-0.1-1.5-0.8-2.1-2.2-2.1c-3.7,0-7.5,0-11.2,0c-1.7,0-2.3,0.6-2.5,2.3c-0.1,1.1,0,2.2-0.1,3.2
			c0,1.3-0.2,1.4-1.5,1.4c-5.2,0.1-10.5,0.6-15.6,1.5c-3,0.6-2.7,0.9-3.6-2.2c-0.6-2.3-1.7-2.9-4-2.4c-3.2,0.8-6.4,1.7-9.6,2.6
			C69.6,7.1,69,8.2,69.4,10c0.1,0.4,0.2,0.7,0.3,1.1c0.7,3,1,2.6-1.8,3.8c-2.1,0.9-2.1,0.9-2.2-1.3c-0.1-1.7-0.9-2.5-2.7-2.6
			c-0.7,0-1.5,0-2.2,0c-1.4,0-1.5-0.1-1.5-1.5c0-1,0-2,0-3c0-1.4,0.1-2.7,0-4.1C59,0.8,58.3,0,57,0c-2.6,0-5.2,0-7.9,0
			c-1,0-1.5,0.5-1.9,1.4C47,2,46.9,2.6,46.9,3.2c0,2,0,4.1,0,6.1c0,1.5-0.1,1.7-1.6,1.7c-8.4,0-16.9,0-25.3,0
			c-1.6,0-1.7-0.1-1.7-1.8c0-2.2,0-4.4,0-6.6c0-1.9-0.7-2.5-2.6-2.5c-2.2,0-4.3,0-6.5,0C6.8,0,6.3,0.6,6.2,3c0,2.2,0,4.5,0,6.7
			C6.2,10.6,5.9,11,5,11c-1,0-1.9,0-2.9,0C0.6,11.1,0,11.8,0,13.2c0,3.7,0,7.5,0,11.2c0,1.6,0.6,2.3,2.2,2.5C3.1,27,4,27,4.9,27
			c0.9,0,1.3,0.3,1.3,1.2c0,3.8,0,7.7,0,11.5c0,0.9-0.4,1.3-1.3,1.2c-0.9,0-1.8-0.1-2.7,0.1C0.6,41.2,0,41.8,0,43.4
			c0,3.7,0,7.5,0,11.2c0,1.5,0.6,2.1,2.1,2.2C3,57,4,57,5,57c0.9,0,1.3,0.3,1.3,1.2c0,3.9,0,7.8,0,11.7c0,0.9-0.4,1.3-1.3,1.2
			c-1,0-1.9-0.1-2.9,0C0.6,71.3,0,72,0,73.4c0,3.7,0,7.5,0,11.2c0,1.6,0.6,2.3,2.2,2.4c0.9,0.1,1.8,0.1,2.7,0.1
			c0.9,0,1.3,0.3,1.3,1.2c0,3.8,0,7.7,0,11.5c0,0.9-0.4,1.3-1.3,1.2c-0.9,0-1.8-0.1-2.7,0.1c-1.6,0.2-2.2,0.9-2.2,2.5
			c0,3.7,0,7.5,0,11.2c0,1.4,0.6,2.1,2.1,2.2c0.9,0.1,1.7,0,2.6,0c1.4,0,1.5,0.1,1.5,1.5c0,2.3,0,4.7,0,7c0,1.1,0.4,2,1.6,2.3h16.5
			c1-0.4,1.4-1.2,1.4-2.3c0-2.3,0-4.6,0-6.9c0-1.6,0.1-1.7,1.7-1.7c5.9,0,11.9,0,17.8,0c1.6,0,1.6,0.1,1.7,1.7c0,2.2,0,4.3,0,6.5
			c0,1.2,0.3,2.2,1.6,2.6h16.5c1-0.3,1.4-1.1,1.6-2c0.1-0.5,0.1-1.1,0.1-1.6V96.7c0-0.6,0-1.2,0-1.7c1.3-11.4,6.4-20.7,15.7-27.6
			c2-1.5,2.2-1.5,2.6,0.8c0,0,0,0,0,0.1c0,0,0,0,0,0.1c0.5,1.7,1.6,2.4,3.3,2c3.4-0.8,6.8-1.8,10.1-2.7c1.7-0.5,2.4-1.7,1.9-3.5
			c-0.2-0.9-0.5-1.9-0.7-2.8c-0.2-0.7,0-1,0.7-1.1c0.9-0.1,1.7-0.3,2.6-0.3c3,0,2.6-0.2,2.7,2.6c0,0.1,0,0.2,0,0.4
			c0.1,1.7,1,2.7,2.8,2.8c3.5,0.1,7.1,0.1,10.6,0c1.7,0,2.5-0.9,2.6-2.6c0-0.7,0-1.3,0-2c0-0.8,0.3-1.1,1.1-1.1c1,0,2,0.1,3,0
			c1.1-0.1,1.9-0.4,2.3-1.6v-9c-0.3-1.1-1.1-1.5-2.1-1.6c-0.8-0.1-1.7,0-2.5-0.1c-1.6,0-1.7-0.1-1.7-1.7c0-4.5,0-9.1,0-13.6
			c0-0.5,0-0.9,0-1.4c-0.1-1.5-1-2.3-2.3-2.3c-1.3,0-2.1,0.9-2.2,2.4c0,0.5,0,1,0,1.5c0,4.5,0,9.1,0,13.6c0,1.4-0.1,1.5-1.5,1.5
			c-1.1,0-2.2,0-3.4,0c-1.8,0-1.8-0.1-1.8-1.8c0-7.5,0-15,0-22.5c0-1.1,0-2.2,0-3.2c0-0.8,0.3-1.2,1.1-1.2c1.5,0,3,0,4.5,0
			c0.8,0,1.1,0.4,1.1,1.2c0,0.7,0,1.4,0.1,2.1c0.2,1.3,1.1,2.1,2.3,2.1c1.1,0,2-0.8,2.1-2.1c0.1-0.7,0.1-1.4,0.1-2.1
			C121.6,19.3,122,19,122.8,19z M5.7,22.7c-0.4,0-0.8,0-1.2,0c-0.5,0-0.6-0.2-0.6-0.6c0-1.1,0-2.2,0-3.2c0-0.9,0.1-1.8,0-2.7
			c-0.1-0.8,0.2-1,1-0.9c0.3,0,0.7,0,1,0c0.7-0.1,0.8,0.2,0.8,0.8c0,2,0,3.9,0,5.9C6.7,22.5,6.4,22.7,5.7,22.7z M5.7,52.8
			c-0.4-0.1-0.7,0-1.1,0c-0.5,0.1-0.7-0.1-0.7-0.7c0-1,0-2.1,0-3.1c0-1,0-2,0-3c0-0.7,0.2-0.9,0.8-0.8c0.3,0,0.6,0,0.9,0
			c0.9-0.1,1.1,0.2,1.1,1.1c-0.1,1.9-0.1,3.7,0,5.6C6.7,52.7,6.4,52.9,5.7,52.8z M6.1,113c-0.3,0-0.6,0-0.9,0
			c-1,0.2-1.5-0.2-1.4-1.3c0.1-0.8,0-1.7,0-2.5v-2c0-1.8,0.6-2.2,2.4-1.8c0.4,0.1,0.4,0.3,0.4,0.6c0,2.1,0,4.2,0,6.4
			C6.6,112.9,6.5,113.1,6.1,113z M5.2,82.9c-1.2,0-1.4-0.3-1.4-1.4c0.1-1.7,0.1-3.5,0-5.2c0-0.7,0.1-1.1,0.9-1c0.4,0.1,0.8,0,1.2,0
			c0.5,0,0.6,0.2,0.6,0.6c0,1.1,0,2.2,0,3.2c0,0.8-0.1,1.6,0,2.4C6.8,82.7,6.3,82.9,5.2,82.9z M12.7,124.3c-2.3-0.1-2.3,0-2.3-2.3
			V63.9c0-19.6,0-39.1,0-58.7c0-1.2,0.3-1.4,1.4-1.4c2.3,0.1,2.3,0,2.3,2.4c0,38.9,0,77.7,0,116.6C14.2,124,13.9,124.3,12.7,124.3z
			 M111.7,3.9c1.7,0,3.3-0.1,5,0c1.7,0.1,0.6,1.5,0.8,2.3c0.2,0.5,0.3,1.4-0.9,1.2c-1-0.1-2,0-3,0h-2c-1.7,0-1.7,0-1.7-1.8
			C109.9,3.9,109.9,3.9,111.7,3.9z M75.5,9.8c1.6-0.4,3.2-0.8,4.8-1.3c1-0.3,1,0.2,1.2,0.9c0.1,0.6,0.5,1.1-0.5,1.4
			c-2,0.5-4,1.2-6,1.8c-0.3,0.1-0.4,0-0.5-0.3C73.6,10.7,73.8,10.3,75.5,9.8z M59.4,15.1c0,0,0.1,0,0.1,0c1.9-0.1,1.9-0.1,1.9,1.8
			c0,1.5-0.7,2.4-2.2,2.9c-0.4,0.1-0.5,0-0.5-0.4c0-1.2,0-2.5,0-3.7C58.7,15.2,59,15,59.4,15.1z M52.1,3.9c2.8,0,2.8-0.1,2.8,2.6
			c0,4.9,0,9.9,0,14.8c0,0.9-0.3,1.4-1,1.9c-0.8,0.5-1.6,1.1-2.5,1.7c0-0.4-0.1-0.6-0.1-0.7c0-6.5,0-13,0-19.5
			C51.3,4.1,51.4,3.9,52.1,3.9z M19.1,15.1c4.5,0,9.1,0,13.6,0c4.5,0,9.1,0,13.6,0c0.9,0,1.1,0.2,1.1,1.1c-0.1,1.8-0.1,3.7,0,5.5
			c0,0.7-0.1,1-0.9,1c-9.2,0-18.4,0-27.6,0c-0.8,0-1-0.2-1-1c0.1-1.8,0.1-3.7,0-5.5C17.8,15.2,18.3,15.1,19.1,15.1z M46.5,113
			c-3.4,0-6.7,0-10.1,0c-3.3,0-6.7,0-10,0c-0.8,0-1-0.2-1-1c0.1-1.9,0-3.8,0-5.7c0-0.6,0.2-0.9,0.8-0.9c6.8,0,13.6,0,20.4,0
			c0.7,0,0.8,0.2,0.8,0.9c0,2-0.1,3.9,0,5.9C47.4,113,47.1,113,46.5,113z M47.4,88.5c-0.1,4,0,8.1,0,12.1c0,0.8-0.2,1-1,1
			c-3.3,0-6.7,0-10,0c-3.3,0-6.6,0-9.9,0c-0.9,0-1.2-0.1-1.2-1.1c0.1-4.2,0.2-8.4,0.7-12.6c0.1-0.8,0.3-1.2,1.3-1.2
			c3.1,0.1,6.2,0,9.2,0c1.6,0,2.5-1,2.2-2.3c-0.2-1.3-1.2-1.6-2.3-1.6c-2.8,0-5.6,0-8.4,0c-1,0-1.2-0.3-0.9-1.2
			c0.5-1.8,1-3.7,1.4-5.5c0.2-0.7,0.5-0.9,1.2-0.9c5.5,0,11.1,0,16.6,0c0.8,0,1.1,0.2,1,1c-0.1,1.9-0.1,3.7,0,5.6c0,0.7-0.2,1.1-1,1
			c-0.2,0-0.5,0-0.7,0c-1.2,0.2-1.9,0.9-1.9,2c0,1,0.8,2,1.9,1.8C47.4,86.5,47.4,87.3,47.4,88.5z M47.4,70.7c0,0.7-0.2,0.8-0.8,0.8
			c-5.4,0-10.9,0-16.5,0c1.8-5.1,4.1-9.8,6.8-14.3c0.3-0.5,0.6-0.7,1.2-0.7c2.8,0,5.7,0,8.5,0c0.7,0,0.8,0.2,0.8,0.8
			C47.4,61.8,47.4,66.3,47.4,70.7z M47.4,46.5c0,1.8,0,3.6,0,5.4c0,0.7-0.1,1-0.9,1c-2.1-0.1-4.3,0-6.7,0c1.8-2.6,3.6-4.8,5.5-7
			c0.5-0.6,1.2-0.6,1.8-0.5C47.7,45.5,47.4,46.1,47.4,46.5z M53.4,124.3c-2.1-0.1-2.1,0-2.1-2.2c0-26.9,0-53.8,0-80.7
			c0-1.3,0.3-2.2,1.4-2.9c0.7-0.5,1.4-1.1,2.3-1.9v1.7c0,28.1,0,56.3,0,84.4C54.9,123.9,54.7,124.4,53.4,124.3z M59.9,56.5
			c1.1,0.1,2.2,0,3.4,0c1.3,0,2-0.7,2-2c0-3.7,0-7.4,0-11.1c0-1.3-0.8-2.1-2.1-2.1c-1.2,0-2.4,0-3.6,0c-0.6,0-0.8-0.1-0.8-0.8
			c0-2.1,0-4.2,0-6.4c0-0.6,0.3-0.8,0.7-1.1c4.3-3,8.9-5.6,13.7-7.8c0.6-0.3,0.8-0.1,1,0.5c2.4,9.1,4.8,18.2,7.3,27.3
			c0.2,0.7,0,1-0.6,1.2c-7.2,4-13.1,9.5-17.6,16.4c-0.5,0.7-1,0.7-1.7,0.7c-2.8,0-2.8,0-2.8-2.7V64c0-2.1,0-4.2,0-6.2
			C58.7,56.8,58.9,56.5,59.9,56.5z M61.5,52c0,0.7-0.2,0.8-0.8,0.8c-1.9,0-1.9,0.1-1.9-1.8v-2c0-1,0-2,0-3c0-0.6,0.1-0.9,0.8-0.9
			c1.9,0,1.9-0.1,1.9,1.8C61.5,48.7,61.4,50.3,61.5,52z M106.1,33.4c0,4.5,0,9.1,0,13.6c0,0.8-0.1,1.1-1,1.1c-2.7,0-5.4,0.2-8.1,0.7
			c-0.7,0.1-1,0-1.2-0.7c-2.4-8.9-4.8-17.8-7.2-26.7c-0.2-0.7-0.1-1,0.7-1.1c5.1-1.1,10.4-1.5,15.6-1.6c0.9,0,1.2,0.2,1.2,1.1
			C106,24.4,106.1,28.9,106.1,33.4z M92.1,49.1c0.2,0.7,0.1,0.9-0.5,1c-2.2,0.5-4.2,1.4-6.4,2.3c-2.5-9.3-5-18.6-7.5-27.9
			c-0.2-0.6,0-0.9,0.6-1.1c1.9-0.6,3.9-1.2,5.8-1.8c0.6-0.2,0.7-0.1,0.9,0.5C87.2,31.1,89.6,40.1,92.1,49.1z M60.5,75.4
			c-0.5,1.1-1,2.2-1.5,3.2c-0.1,0-0.2,0-0.2,0v-1.7C58.8,75.2,58.8,75.2,60.5,75.4z M95.4,64c-2,0.5-4,1-6,1.6
			c-0.5,0.2-0.7,0.1-0.9-0.5c-0.5-1.7-0.6-1.7,1.2-2.5c1.6-0.7,3.2-1.2,4.8-1.7c0.7-0.2,0.9,0,1,0.6c0.1,0.6,0.3,1.3,0.5,1.9
			C96.1,64,95.6,64,95.4,64z M123.1,52c0.9,0,1.2,0.2,1.2,1.2c-0.1,2.5,0,2.5-2.5,2.5c-6.5,0.1-13-0.2-19.5,0.2
			c-10.2,0.7-19,4.6-26.4,11.6c-7.7,7.2-12,16.2-13.2,26.6c-0.2,1.7-0.2,3.4-0.2,5.1c0,8,0,16,0,24c0,0.8-0.1,1.2-1.1,1.2
			c-2.5-0.1-2.5,0-2.5-2.5v-12.6h0c0-4.1-0.1-8.2,0-12.2c0.3-10.6,3.9-20,10.7-28.2c7.3-8.8,16.6-14.1,27.8-16.1
			c2.4-0.4,4.8-0.6,7.2-0.6C110.7,52,116.9,52.1,123.1,52z M104.7,14.9C81.6,15.3,61.8,23.6,45.6,40C34.2,51.5,26.9,65.2,23.4,81
			c-1.3,5.8-1.8,11.7-1.8,17.7c0,8.1,0,16.2,0,24.3c0,0.9-0.2,1.3-1.2,1.2c-2.5-0.1-2.5,0-2.5-2.5v-15.5c0-3.5-0.1-8.7,0.2-13.9
			c0.9-12.2,4.1-23.7,9.8-34.5C31,52,34.7,46.6,39,41.6c0.7-0.8,0.9-1.6,0.4-2.5c-0.5-0.8-1.2-1-2-0.8c-0.6,0.1-1,0.5-1.3,0.9
			c-1.1,1.8-2.6,2.2-4.7,2.2c-4.1-0.2-8.2-0.1-12.2,0c-0.9,0-1.2-0.1-1.2-1.1c0.1-4.2,0.1-8.4,0-12.6c0-1,0.3-1.1,1.2-1.1
			c9,0,18.1,0,27.1,0c0.4,0,1-0.3,1.2,0.3c0.1,0.6,0.1,1.2-0.5,1.7c-1.4,1.2-2.8,2.5-4.2,3.7c-0.8,0.7-1,1.5-0.4,2.5
			c0.5,0.8,1.3,1,2.2,0.8c0.5-0.1,0.8-0.5,1.2-0.8c10.1-9.4,21.7-16,34.9-19.9c8.3-2.5,16.7-3.5,25.3-3.6c5.8,0,11.6,0,17.4,0
			c1,0,1.2,0.3,1.2,1.2c-0.1,2.5,0,2.5-2.6,2.5C116,14.9,110.4,14.8,104.7,14.9z M17.9,57.6c0-0.7,0.1-1,0.9-1c1.7,0.1,3.5,0,5.5,0
			c-2.5,4.9-4.5,9.8-6.1,14.8c-0.4,0-0.3-0.3-0.3-0.4C17.9,66.5,17.9,62,17.9,57.6z M17.9,46.1c0-0.5,0-0.9,0.7-0.9
			c4.1,0,8.3,0,12.6,0c-1.7,2.5-3.3,4.8-4.6,7.2c-0.2,0.4-0.5,0.4-0.9,0.4c-2.3,0-4.7,0-7,0c-0.7,0-0.8-0.2-0.8-0.9
			C17.9,50,17.9,48.1,17.9,46.1z"/>
	</g>
</g>
</svg>
