<?xml version="1.0" encoding="utf-8"?>
<!-- Generator: Adobe Illustrator 28.0.0, SVG Export Plug-In . SVG Version: 6.00 Build 0)  -->
<svg version="1.1" id="Layer_1" xmlns="http://www.w3.org/2000/svg" xmlns:xlink="http://www.w3.org/1999/xlink" x="0px" y="0px"
	 viewBox="0 0 128 128" style="enable-background:new 0 0 128 128;" xml:space="preserve">
<g>
	<path d="M74,55.5c-6.6,0-13.2,0-19.8,0c-2.3,0-3.1,0.7-3.1,3c0,17.9,0,35.8,0,53.7c0,2.2,0.8,3,3,3h19.8c2.2,0,2.9-0.7,2.9-3V58.4
		C76.8,56.2,76.2,55.5,74,55.5z M72.6,109.8c0,0.9-0.3,1.1-1.1,1.1c-4.9,0-9.8,0-14.7,0c-1,0-1.2-0.3-1.2-1.2c0-8.2,0-16.3,0-24.5
		c0-8.1,0-16.2,0-24.4c0-0.9,0.1-1.2,1.1-1.2c5,0.1,9.9,0,14.9,0c0.8,0,1,0.2,1,1C72.5,77.1,72.5,93.5,72.6,109.8z"/>
</g>
<g>
	<path d="M74,55.5c-6.6,0-13.2,0-19.8,0c-2.3,0-3.1,0.7-3.1,3c0,17.9,0,35.8,0,53.7c0,2.2,0.8,3,3,3h19.8c2.2,0,2.9-0.7,2.9-3V58.4
		C76.8,56.2,76.2,55.5,74,55.5z M72.6,109.8c0,0.9-0.3,1.1-1.1,1.1c-4.9,0-9.8,0-14.7,0c-1,0-1.2-0.3-1.2-1.2c0-8.2,0-16.3,0-24.5
		c0-8.1,0-16.2,0-24.4c0-0.9,0.1-1.2,1.1-1.2c5,0.1,9.9,0,14.9,0c0.8,0,1,0.2,1,1C72.5,77.1,72.5,93.5,72.6,109.8z"/>
</g>
<g>
	<path d="M74,55.5c-6.6,0-13.2,0-19.8,0c-2.3,0-3.1,0.7-3.1,3c0,17.9,0,35.8,0,53.7c0,2.2,0.8,3,3,3h19.8c2.2,0,2.9-0.7,2.9-3V58.4
		C76.8,56.2,76.2,55.5,74,55.5z M72.6,109.8c0,0.9-0.3,1.1-1.1,1.1c-4.9,0-9.8,0-14.7,0c-1,0-1.2-0.3-1.2-1.2c0-8.2,0-16.3,0-24.5
		c0-8.1,0-16.2,0-24.4c0-0.9,0.1-1.2,1.1-1.2c5,0.1,9.9,0,14.9,0c0.8,0,1,0.2,1,1C72.5,77.1,72.5,93.5,72.6,109.8z"/>
	<path d="M85.3,43.1c0-2.3-0.3-4.6-1-6.9c-1.8-6.3-5.2-11.3-10.5-15.1c-1-0.7-1.3-1.4-1.3-2.6c0.1-5.2,0-10.5,0-15.8
		c0-2-0.8-2.8-2.8-2.8H58.7c-2.6,0-3.2,0.6-3.2,3.2c0,5.2,0,10.3,0,15.5c0,1.1-0.3,1.7-1.2,2.4c-7.8,5.8-11.6,13.6-11.6,23.2
		c-0.1,26.9,0,53.8,0,80.6c0,1.3,0.3,2.4,1.5,3h40c0.7-0.7,1.3-1.4,1.3-2.5C85.3,98,85.3,70.6,85.3,43.1z M60,4.5
		c0.6-0.6,2-0.2,3.1-0.2c1.5,0,2.9,0,4.4,0c0.6,0,0.8,0.2,0.8,0.8c0.2,3.5,0.2,3.5-3.3,3.5h-1.1c-1.1,0-2.2-0.1-3.2,0
		c-0.7,0-0.9-0.2-0.8-0.8C59.9,6.6,59.4,5.1,60,4.5z M79.9,123.8c-10.5,0-21.1,0-31.6,0c-1.1,0-1.3-0.3-1.3-1.3c0-13.5,0-27,0-40.5
		c0-12.5,0-25,0-37.5c0-4.9,1.1-9.5,3.8-13.7c1.6-2.4,3.5-4.5,5.9-6.2c2.2-1.5,3.2-3.5,3.1-6.1c-0.1-1.6,0-3.2,0-4.9
		c0-0.6,0.2-0.8,0.8-0.8c2.3,0,4.6,0,6.9,0c0.7,0,0.8,0.3,0.8,0.9c0,1.8,0,3.5,0,5.2c-0.1,2.3,0.8,4.1,2.7,5.4
		c3.7,2.6,6.5,6,8.3,10.2c1.3,3.1,1.8,6.4,1.8,9.7c0,26.1,0,52.2,0,78.2C81.1,123.5,80.9,123.8,79.9,123.8z"/>
	<path d="M74,55.5c-6.6,0-13.2,0-19.8,0c-2.3,0-3.1,0.7-3.1,3c0,17.9,0,35.8,0,53.7c0,2.2,0.8,3,3,3h19.8c2.2,0,2.9-0.7,2.9-3V58.4
		C76.8,56.2,76.2,55.5,74,55.5z M72.6,109.8c0,0.9-0.3,1.1-1.1,1.1c-4.9,0-9.8,0-14.7,0c-1,0-1.2-0.3-1.2-1.2c0-8.2,0-16.3,0-24.5
		c0-8.1,0-16.2,0-24.4c0-0.9,0.1-1.2,1.1-1.2c5,0.1,9.9,0,14.9,0c0.8,0,1,0.2,1,1C72.5,77.1,72.5,93.5,72.6,109.8z"/>
</g>
<g>
	<path d="M74,55.5c-6.6,0-13.2,0-19.8,0c-2.3,0-3.1,0.7-3.1,3c0,17.9,0,35.8,0,53.7c0,2.2,0.8,3,3,3h19.8c2.2,0,2.9-0.7,2.9-3V58.4
		C76.8,56.2,76.2,55.5,74,55.5z M72.6,109.8c0,0.9-0.3,1.1-1.1,1.1c-4.9,0-9.8,0-14.7,0c-1,0-1.2-0.3-1.2-1.2c0-8.2,0-16.3,0-24.5
		c0-8.1,0-16.2,0-24.4c0-0.9,0.1-1.2,1.1-1.2c5,0.1,9.9,0,14.9,0c0.8,0,1,0.2,1,1C72.5,77.1,72.5,93.5,72.6,109.8z"/>
</g>
<path d="M74,55.5c-6.6,0-13.2,0-19.8,0c-2.3,0-3.1,0.7-3.1,3c0,17.9,0,35.8,0,53.7c0,2.2,0.8,3,3,3h19.8c2.2,0,2.9-0.7,2.9-3V58.4
	C76.8,56.2,76.2,55.5,74,55.5z M72.6,109.8c0,0.9-0.3,1.1-1.1,1.1c-4.9,0-9.8,0-14.7,0c-1,0-1.2-0.3-1.2-1.2c0-8.2,0-16.3,0-24.5
	c0-8.1,0-16.2,0-24.4c0-0.9,0.1-1.2,1.1-1.2c5,0.1,9.9,0,14.9,0c0.8,0,1,0.2,1,1C72.5,77.1,72.5,93.5,72.6,109.8z"/>
<path d="M74,55.5c-6.6,0-13.2,0-19.8,0c-2.3,0-3.1,0.7-3.1,3c0,17.9,0,35.8,0,53.7c0,2.2,0.8,3,3,3h19.8c2.2,0,2.9-0.7,2.9-3V58.4
	C76.8,56.2,76.2,55.5,74,55.5z M72.6,109.8c0,0.9-0.3,1.1-1.1,1.1c-4.9,0-9.8,0-14.7,0c-1,0-1.2-0.3-1.2-1.2c0-8.2,0-16.3,0-24.5
	c0-8.1,0-16.2,0-24.4c0-0.9,0.1-1.2,1.1-1.2c5,0.1,9.9,0,14.9,0c0.8,0,1,0.2,1,1C72.5,77.1,72.5,93.5,72.6,109.8z"/>
</svg>
