<?xml version="1.0" encoding="utf-8"?>
<!-- Generator: Adobe Illustrator 28.0.0, SVG Export Plug-In . SVG Version: 6.00 Build 0)  -->
<svg version="1.1" id="Layer_1" xmlns="http://www.w3.org/2000/svg" xmlns:xlink="http://www.w3.org/1999/xlink" x="0px" y="0px"
	 viewBox="0 0 128 128" style="enable-background:new 0 0 128 128;" xml:space="preserve">
<g id="p6xAHC.tif">
	<g>
		<path d="M0,38.1c2.1-0.7,4.3-1.8,6.4-1.9C18.7,36,31,36.1,44,36.1c0-6.2,0.1-12.1,0-18.1c-0.1-4.2,1.5-6,5.8-6
			c16.2,0.1,32.3,0.1,48.5,0c4,0,5.8,1.5,5.7,5.6c-0.2,5,0.1,10-0.1,15c-0.1,2.6,0.6,3.7,3.3,4.5c13,3.8,20.8,14.1,20.8,27.2
			c0,12.6-7.9,22.9-20.8,26.7c-2.7,0.8-3.4,2-3.3,4.5c0.2,5.2,0,10.3,0.1,15.5c0,3.6-1.6,5.1-5.2,5.1c-16.5-0.1-33-0.1-49.5,0
			c-3.9,0-5.4-1.8-5.3-5.5c0.1-6,0-11.9,0-18.6c-9.3,0-18.2,0-27.1,0c-3.7,0-7.4,0.2-11-0.1c-2-0.2-4-1.2-5.9-1.9
			C0,72.8,0,55.4,0,38.1z M96.1,20.3c-15.2,0-29.5,0-43.9,0c0,5.5,0,10.5,0,15.7c1.3,0.1,2.3,0.1,3.3,0.1c8.3,0.1,8.4,0.2,8.4,8.4
			c0,12.2-0.1,24.3,0,36.5c0.1,12.2-0.3,11-10.8,11.2c-0.3,0-0.6,0.3-1,0.5c0,5,0,10.1,0,15.3c14.7,0,29.1,0,44,0
			c0-4.7,0.2-9.2-0.1-13.6c-0.1-1.2-1.6-2.8-2.8-3.2C80,86.6,72.1,76.7,72.1,64.1c0-12.6,7.9-22.7,21-27.2c1.2-0.4,2.8-2,2.9-3.1
			C96.3,29.4,96.1,25,96.1,20.3z M55.6,84c0-13.3,0-26.5,0-39.7c-16.1,0-31.8,0-47.5,0c0,13.4,0,26.4,0,39.7C24,84,39.6,84,55.6,84z
			 M120.2,64c0-11.4-8.8-20.1-20.2-20.1C88.9,44,80,52.8,80,63.9c-0.1,11.3,8.8,20.3,20.1,20.3C111.5,84.2,120.2,75.5,120.2,64z"/>
		<path d="M26,0.1c0.9,4.9,1.8,9.9,2.6,14.1c2.1,0.6,4.3,1.2,6.5,1.8c-0.9,2.2-1.1,5.1-2.7,6.7c-9.5,10-8.1,9.1-17.4-0.1
			c-1.9-1.9-4.6-4-2.2-6.6c1.3-1.4,4.4-1.2,6.4-1.6C20.1,10.2,21,5.1,22,0.1C23.3,0.1,24.7,0.1,26,0.1z"/>
		<path d="M20,114.1c-3-0.7-5.8-0.4-7.1-1.8c-2.5-2.6,0.1-4.7,2-6.6c9.5-9.4,7.9-10.2,17.8,0.1c1.4,1.5,1.7,4.2,2.5,6.3
			c-2.2,0.7-4.4,1.3-7.3,2.2c0,2.1,0,5.4,0,8.7c0,2.8-1.1,5.5-4.2,4.8c-1.5-0.3-3.1-3-3.5-4.9C19.6,119.7,20,116.3,20,114.1z"/>
		<path d="M102.2,59.7c6,1.5,6.7,2.8,4.7,8c-0.8,2.2-1.3,4.6-2.7,6.3c-1.3,1.6-3.8,3.7-5.3,3.4c-2.9-0.6-3-3.5-1.7-6.1
			c0.3-0.7,0.6-1.5,0.9-2.2c-1.8-1.3-4.5-2.2-5.1-3.8c-0.6-1.8,0.6-4.3,1.2-6.5c0.6-1.9,1.1-4,2.3-5.5c1.2-1.4,3.3-2,5-3
			c0.7,1.9,1.6,3.8,2,5.8C103.5,57.2,102.7,58.4,102.2,59.7z"/>
	</g>
</g>
</svg>
