<?xml version="1.0" encoding="utf-8"?>
<!-- Generator: Adobe Illustrator 28.0.0, SVG Export Plug-In . SVG Version: 6.00 Build 0)  -->
<svg version="1.1" id="Layer_1" xmlns="http://www.w3.org/2000/svg" xmlns:xlink="http://www.w3.org/1999/xlink" x="0px" y="0px"
	 viewBox="0 0 128 128" style="enable-background:new 0 0 128 128;" xml:space="preserve">
<g id="K0JaCW.tif">
	<g>
		<path d="M0,98.9C0,72,0,45.2,0,18.1c41.7,0,83.3,0,125,0c1,3,2.8,6,2.9,9c0.2,22.1,0.1,44.2,0.1,66.3c0,7-1.5,8.5-8.5,8.5
			c-9.1,0-18.2,0-27.3,0c-0.2,0.6-0.4,1.2-0.6,1.8c1.7,0.7,3.4,1.5,5.1,2.2c1.7,0.7,3.4,1.3,5.1,1.9c-1.6,0.7-3.2,2-4.8,2
			c-22,0.1-44,0.1-66,0c-1.6,0-3.2-1.3-4.8-2c1.5-0.6,3-1.6,4.6-1.8c2.6-0.2,5.1,0.1,5-4.1c-8.8,0-17.6,0.3-26.3-0.1
			C6.3,101.6,3.2,99.9,0,98.9z M4.3,93.9c-0.3,0.5-0.5,1-0.8,1.5c1.1,0.8,2.1,2,3.3,2.4c1.4,0.4,3,0.1,4.5,0.1
			c10.2,0,20.3-0.1,30.5,0.1c1.3,0,2.6,1.2,3.9,1.9c-1,0.6-2.1,1.2-3,1.9c-1.2,0.9-2.2,2-4,3.8c17.4,0,33.3,0,49.2,0
			c0.2-0.5,0.4-1,0.6-1.6c-1.7-0.7-3.5-2.1-5.2-2.1c-9-0.2-18,0-27-0.2c-2.1,0-4.1-1.1-6.1-1.7c2.1-0.7,4.2-2.1,6.3-2.1
			c20.8-0.2,41.6-0.1,62.4-0.1c2.3,0,5.4,0.7,4.9-3.4c-0.2-0.1-0.3-0.3-0.5-0.3c-2.4-0.7-4.7-1.4-7.1-2c2.3-1.1,4.6-2.1,7.6-3.5
			c-0.2,0.5,0.1,0.1,0.1-0.4c0-20.8,0-41.5,0.1-62.3c0-4.1-2.4-4-5.2-4C82.2,22.1,45.6,22.1,9,22c-4,0-5.1,1.3-5.1,5.2
			C4,46.7,3.9,66.3,3.9,85.9c0,1.3,0.2,2.5,0.4,4c2.1,0,3.9,0,5.8,0c31.6,0,63.3,0,94.9,0c1.3,0,2.7-0.3,4,0.1
			c1,0.3,1.9,1.3,2.8,2.1c-0.9,0.6-1.7,1.5-2.6,1.7c-1.3,0.3-2.6,0.1-4,0.1c-31.8,0-63.6,0-95.4,0C7.9,93.9,6.1,93.9,4.3,93.9z"/>
		<path d="M94.1,32.2c-0.8,1-1.5,2-2.3,2.8C76.9,49.9,62,64.8,46.9,79.7c-1,0.9-2.7,1.1-4.1,1.7c0.4-1.4,0.3-3.2,1.2-4.1
			c15-15.1,30-30.1,45.2-45.1c0.9-0.9,2.5-1.2,3.8-1.6C93.2,30.6,93.7,31.6,94.1,32.2z"/>
		<path d="M45.9,66.1c-0.6-0.6-1.5-1.1-1.5-1.5c0.2-1,0.5-2.2,1.2-3c3.7-3.8,7.5-7.5,11.2-11.3c4.9-4.9,9.8-9.9,14.9-14.7
			c0.8-0.7,2.5-0.5,3.7-0.8c-0.3,1.1-0.3,2.6-1,3.4c-8.6,8.7-17.3,17.4-26.1,26C47.7,65,46.8,65.5,45.9,66.1z"/>
	</g>
</g>
</svg>
