<?xml version="1.0" encoding="utf-8"?>
<!-- Generator: Adobe Illustrator 28.0.0, SVG Export Plug-In . SVG Version: 6.00 Build 0)  -->
<svg version="1.1" id="Layer_1" xmlns="http://www.w3.org/2000/svg" xmlns:xlink="http://www.w3.org/1999/xlink" x="0px" y="0px"
	 viewBox="0 0 128 128" style="enable-background:new 0 0 128 128;" xml:space="preserve">
<g id="KU6OsK.tif">
	<g>
		<path d="M127.7,34.2c-0.3-5.7-2.3-10.8-6.3-15c-0.4-0.4-0.8-0.9-1-1.4c-0.9-2.1-2.4-3.7-4.5-4.7c-2.6-1.2-5.2-2.2-7.7-3.5
			c-1.8-0.9-3.6-1.2-5.5-1c-0.6,0.1-1.2,0-1.7-0.2c-4-2-8.1-3.8-11.9-6c-4.3-2.5-8.8-2.7-13.4-1.8c-3.7,0.8-6.9,2.7-9.8,5.1
			c-3,2.5-5.5,5.4-7.7,8.6c-0.5,0.8-1.1,1.1-2,0.6c-1.3-0.7-2.8-1.1-4.2-1.7C41.9,8.9,31.6,4.7,21.3,0.4C20.7,0.1,20,0,19.3,0
			C13.6,0,7.9,0,2.2,0c-1,0-1.8,0.3-2,1.4v8.5c0.3,1.2,1.3,1.6,2.2,2c9,3.7,18.1,7.5,27.1,11.2c6.6,2.7,13.2,5.4,19.7,8.2
			c1.8,0.7,1.8,0.4,1.3,2.4c-0.7,2.9-0.9,5.9-0.9,8.9c0,4.2,0.5,8.3,1.7,12.3c0.2,0.7,0.3,1.4,0,2.1c-2.6,7.2-4.5,14.6-5.5,22.2
			c-0.2,1.6-0.3,1.6-1.8,1.6c-5.3,0-10.7,0-16,0c-2.2,0-4.1,0.8-5.6,2.4c-1,1.1-1.9,2.3-2.9,3.4c-5.3,6.3-10.7,12.6-16,19
			c-1.3,1.5-2.9,2.8-3.5,4.8v16.5c0.2,0.6,0.6,1,1.2,1.2H101c1.6-0.4,1.8-1.6,1.8-3c0-4.1-0.1-8.2,0-12.4c0-1.7-0.5-3.1-1.6-4.4
			c-6.9-8.1-13.8-16.2-20.6-24.3c-1.8-2.2-4-3.3-6.9-3.2c-3.7,0.1-7.5,0-11.2,0c-1.1,0-1.2-0.2-0.7-1.1c1.5-2.7,3.2-5.2,4.9-7.7
			c0.5-0.7,1.1-1.1,2-1c2.7,0.3,5.5,0.6,8.2,0.8c0.8,0.1,1.4,0.3,2,0.9c1.3,1.5,3,2.3,5.1,2.2c0.8,0,1.6,0,2.4,0.1
			c3.4,0.3,6.9,0.4,10.3,0c2.4-0.3,4.7-0.7,7.1-0.9c5.5-0.3,9.8-3.3,13.4-7.2c4.7-5,7.6-11,9.4-17.5C128,44.4,128,39.3,127.7,34.2z
			 M51.5,27.1C39.3,22,27.1,17,15,12c-3.2-1.3-6.3-2.6-9.5-3.9C4.6,7.7,4.2,7.3,4.4,6.4c0.1-0.4,0.1-0.8,0-1.2
			C4.3,4.5,4.6,4.4,5.2,4.4c2.2,0,4.3,0,7.4,0c3.9-0.8,8.2,0.8,12.6,2.7c9.7,4.2,19.5,8.1,29.2,12.1c0.9,0.4,1,0.8,0.6,1.6
			c-1,1.9-1.7,3.8-2.3,5.9C52.5,27.4,52.2,27.4,51.5,27.1z M98.1,114.5c-0.1,2.6-0.1,5.2,0,7.9c0,1.1-0.2,1.4-1.4,1.4
			c-15.2,0-30.4,0-45.6,0c-15.1,0-30.3,0-45.4,0c-1.1,0-1.4-0.3-1.3-1.4c0.1-2.7,0.1-5.4,0-8.1c0-1,0.3-1.2,1.3-1.2
			c18.4,0,36.7,0,55.1,0c12,0,24.1,0,36.1,0C97.9,113.1,98.1,113.4,98.1,114.5z M62,85.4c3.9,0,7.8,0,11.7,0c1.5,0,2.5,0.4,3.4,1.6
			c6,7.2,12.2,14.4,18.4,21.8H7.2c-0.2-0.4,0.2-0.6,0.4-0.8c6-7.1,12-14.2,18-21.4c0.7-0.8,1.5-1.2,2.6-1.2c5.5,0,10.9,0,16.4,0
			c0.7,0,1.1,0.1,0.9,1c-0.2,0.8-0.2,1.6-0.2,2.4c0,1-0.4,1.3-1.3,1.3c-2.7,0.2-5.4,0.7-8,1.7c-1.1,0.4-2.2,1-3,1.9
			c-1.3,1.4-1.3,3.2,0,4.6c1.6,1.7,3.8,2.4,6,2.9c6.2,1.4,12.6,1.6,18.9,0.9c2.7-0.3,5.4-0.7,8-1.6c0.9-0.3,1.8-0.7,2.6-1.3
			c2.7-1.8,2.7-4.6,0-6.5c-1.9-1.3-4-1.8-6.1-2.2c-1.4-0.3-2.9-0.4-4.3-0.6c-0.6-0.1-0.9-0.3-0.6-1c0-0.1,0.1-0.1,0.1-0.2
			C58.5,85.4,58.5,85.4,62,85.4z M44.8,97.3c0.1,0.7-0.5,0.5-0.8,0.5c-2.3-0.3-4.5-0.7-6.9-1.7c2.5-1.1,4.8-1.5,7.2-1.8
			c0.1,0,0.2,0,0.2,0C45.3,95.2,44.7,96.3,44.8,97.3z M55.7,97.4c0,0,0-0.1,0-0.1c0.5-4.1-0.2-3.1,3.6-2.8c1.4,0.1,2.8,0.5,4.1,0.9
			c0.5,0.2,1.1,0.4,1.9,0.7c-3.2,1.2-6.1,1.7-9.1,2C55.8,98,55.6,97.9,55.7,97.4z M58.1,76.7c-3.3,5.6-5.6,11.5-6.4,18
			c-0.1,0.7-0.3,1.5-0.2,2.2c0.1,1.2-0.7,1.2-1.6,1.2c-0.6,0-0.7-0.2-0.7-0.8c0-0.9,0-1.8,0-2.6c0.6-13.9,2.4-27.3,8-40
			c1.4-3.2,3.1-6.1,5-9c1-1.5,2.3-2.1,4-2.2c4.9-0.3,9.5,1,14.1,2.4c0.8,0.3,1.6,0.7,2.5,0.8c0.9,0.2,0.7,0.6,0.4,1.2
			c-1.7,2.9-3.9,5.4-6.6,7.3C68.6,60.8,63,68.4,58.1,76.7z M61.8,40.2c0.1-3.5,0.7-6.9,1.8-10.1c2-6,4.9-11.4,10-15.4
			c2.3-1.8,4.9-2.9,8-2.1c2.3,0.6,3.8,2.2,4.9,4.2c1.9,3.4,2.4,7,2.4,10.8c0,5.1-0.9,10-2.9,14.7c-0.3,0.7-0.5,0.9-1.3,0.6
			c-4.8-1.7-9.6-3.1-14.7-3.6C67.3,39,64.5,39.1,61.8,40.2z M78.9,63.4c-2.6,1.6-4.7,2.4-7.9,2.8c1.6-2,3.3-3.7,5.1-5.2
			c2.1-1.7,4.4-3.1,6.3-5.1c5.3-5.4,8.2-12,9.9-19.2c1.4-6,1.6-12-0.2-18c-0.6-2.1-1.6-4.1-2.9-5.9c-3.6-4.9-9.3-6.3-15-3.7
			c-3.8,1.7-6.7,4.5-9,7.9c-5.7,8.2-8.3,17.3-7.7,27.2c0,0.4,0,0.7-0.2,1.1c-0.8,1.3-1.6,2.6-2.4,4.1c-1-6.4-0.6-12.5,1-18.5
			c2.1-8.1,6-15.2,12.1-20.9c2.8-2.6,6-4.6,9.8-5.3c6.2-1.1,10.7,1.5,14.1,6.5c2.4,3.6,3.5,7.7,4,11.9c1.1,10.6-1.4,20.4-6.8,29.4
			C86.4,57,83.2,60.7,78.9,63.4z M88.6,67.5c-0.3,0.2-0.5,0.6-0.9,0.6c-2.2-0.2-4.3-0.4-6.7-0.6c9.3-6.3,14.5-15.1,17.4-25.4
			c2.9-10.3,3-20.4-1.6-30.6c3.3,1.6,6.3,3.2,9.4,4.7c0.5,0.3,0.6,0.7,0.7,1.2c0.8,4.7,0.2,9.3-0.8,13.8
			c-2.2,10.8-6.2,20.9-12.3,30.1C92.2,63.5,90.6,65.7,88.6,67.5z M101,67.1c-2.4,3.1-5.2,3.9-8.8,3.1c8.5-9.5,13.5-20.9,16.9-33.1
			c1.5-5.3,2.5-10.7,2.4-16.3c0-1.6-0.2-3.1-0.4-4.9c1.3,0.6,2.6,1.1,3.7,1.8c1.7,1.1,1.8,3,2,4.7c0.6,7.3-1,14.3-3.2,21.1
			C110.7,52.2,106.5,59.9,101,67.1z M123.4,38.8c-0.4,10.7-4,20-12.2,27.2c-1.8,1.6-4,2.7-6.6,3.3c9.2-12.2,14.9-25.6,16.4-40.7
			c0.4-0.3-0.1-0.9,0.4-1C122.7,31.3,123.6,35,123.4,38.8z"/>
		<path d="M121,28.7c0.3-0.3-0.3-0.9,0.4-1C121,27.8,121.4,28.4,121,28.7z"/>
		<path d="M121,28.7c0-0.4-0.1-0.9,0-1.2c0.2-0.4,0.4-0.3,0.4,0.2C121,27.8,121.4,28.4,121,28.7z"/>
		<path d="M34.3,55.5c-3.6,0-6.4,2.7-6.4,6.3c0,3.6,2.7,6.4,6.3,6.5c3.7,0,6.5-2.7,6.5-6.4C40.6,58.4,37.8,55.6,34.3,55.5z
			 M34.1,64.1c-1.1,0-2.1-1.1-2.1-2.1c0-1.1,1.1-2.1,2.2-2.1c1.1,0,2.1,1.1,2,2.1C36.3,63.1,35.2,64.1,34.1,64.1z"/>
		<path d="M30,40.6c0,1.1-1.1,2.2-2.2,2.2c-1.2,0-2.2-1.1-2.2-2.3c0.1-1.1,1.1-2.1,2.2-2.1C29,38.5,30,39.5,30,40.6z"/>
		<path d="M23.6,51.2c0,1.2-0.9,2.2-2.1,2.2c-1.2,0-2.2-0.8-2.2-2c0-1.3,0.9-2.3,2.1-2.3C22.5,49.1,23.6,50.1,23.6,51.2z"/>
	</g>
</g>
</svg>
