<?xml version="1.0" encoding="utf-8"?>
<!-- Generator: Adobe Illustrator 28.0.0, SVG Export Plug-In . SVG Version: 6.00 Build 0)  -->
<svg version="1.1" id="Layer_1" xmlns="http://www.w3.org/2000/svg" xmlns:xlink="http://www.w3.org/1999/xlink" x="0px" y="0px"
	 viewBox="0 0 128 128" style="enable-background:new 0 0 128 128;" xml:space="preserve">
<g id="JLQydd.tif">
	<g>
		<path d="M126.9,36.5c0-4-1.2-7.7-3.1-11.1c-3.3-5.9-8.3-10.3-14-13.8C98.3,4.5,85.7,1.4,72.5,0.3C64.8-0.3,57.1,0,49.5,1
			c-8.6,1.2-16.9,3.4-24.8,7.1c-1.4,0.6-1.8,1.5-1.4,2.6c0.5,1.2,1.6,1.5,3,0.8C36,7.1,46.2,4.9,56.7,4.1c9.6-0.7,19.1-0.1,28.5,2
			c9.4,2,18.2,5.4,26,11.1C116,20.7,120,25,122,30.7c1.9,5.5,0.7,11.3,1,16.9c-0.3-0.2-0.5-0.5-0.7-0.7c-2.5-3.7-5.7-6.7-9.3-9.4
			c-1.4-1-3.1-0.4-3.2,1.2c-0.1,0.9,0.5,1.5,1.2,2c3.5,2.6,6.6,5.6,8.9,9.3c0.5,0.8,0.3,1-0.5,1.2c-2.2,0.6-4.4,1.4-6.7,2
			c-1.3,0.4-1.8,1.1-1.8,2.4c0,3.3,0,6.7,0,10c0,1.7,0.3,2.1,1.9,2.6c2.2,0.7,4.4,1.4,6.7,2c0.7,0.2,0.8,0.4,0.4,1
			c-0.6,0.8-1.1,1.7-1.7,2.5c-4.2,5.4-9.7,9.1-15.8,12.1c-1.3,0.6-1.3,0.6-1.3-0.7V60.7c1.1,0.6,1.9,1.1,2.9,1.5
			c1.2,0.6,2.3,0.4,2.8-0.5c0.6-1,0.3-2.1-1-2.8c-1.5-0.8-3-1.6-4.5-2.4c-9.2-4.3-19-6.5-29.1-7.3C62.6,48.5,53,49,43.4,51
			c-7.4,1.6-14.4,4-21,7.8c-1.4,0.8-1.8,1.8-1.2,2.8c0.6,1.1,1.7,1.3,3.1,0.5c0.8-0.4,1.7-0.9,2.5-1.3v25.6
			c-2.7-1.2-5.1-2.5-7.5-4.1c-4.4-2.9-8.2-6.3-11-10.8c-0.4-0.6-0.6-1,0.4-1.2c2.2-0.6,4.4-1.3,6.7-2c1.2-0.3,1.8-1,1.8-2.3
			c0-3.5,0-6.9,0-10.4c0-1.2-0.6-1.9-1.7-2.3c-1.6-0.5-3.2-0.9-4.8-1.4c-1-0.3-2.5-0.3-2.7-1C7.8,50,8.9,49,9.5,48.2
			c4-5.4,9.4-9.1,15.3-12.2c7.3-3.7,15-5.9,23-7.2c0.7-0.1,0.8,0.3,1.1,0.7c1.4,2.8,2.9,5.6,4.3,8.4c0.6,1.2,1.4,1.7,2.7,1.7
			c5.4,0,10.8-0.1,16.2,0c1.4,0,2.2-0.5,2.8-1.8c1.4-2.8,2.9-5.6,4.3-8.4c0.3-0.5,0.5-0.7,1.1-0.6c4.2,0.8,8.3,1.7,12.3,2.9
			c3.6,1.1,7.1,2.5,10.5,4.2c1.4,0.7,2.8,0.1,3-1.3c0.2-1.2-0.6-1.8-1.6-2.3c-11.2-5.5-23.1-8-35.4-8.6c-12.3-0.6-24.5,0.7-36.2,4.7
			c-7.9,2.7-15.2,6.3-21.5,11.9c-2.4,2.1-4.5,4.5-6.4,7.4c0-3.6,0.1-6.8,0-10C5,33.2,6.4,29.1,9,25.3c2.5-3.7,5.8-6.6,9.4-9.2
			c1.1-0.8,1.3-1.9,0.7-2.8c-0.7-0.9-1.7-1-2.9-0.3c-1.7,1.1-3.3,2.4-4.8,3.8c-4.7,4.3-8.3,9.4-9.7,15.8c-0.2,1.1-0.1,2.4-0.6,3.5
			v0.5c0.2,0.3,0.1,0.6,0.1,1c0,7.6,0,15.2,0,22.8c0,0.3,0.1,0.7-0.1,1V62c0.3,1.5,0.2,3,0.6,4.5C3.5,73.1,7.4,78,12.4,82.3
			c3.7,3.2,7.9,5.7,12.4,7.7c1.3,0.6,1.7,1.4,1.7,2.8c-0.1,10.5,0,21.1,0,31.6c0,0.6,0,1.2,0.1,1.7c0.2,0.9,0.6,1.6,1.5,1.9h1.5
			c1.4-0.4,1.6-1.6,1.6-2.8c0-3.7,0-7.3,0-11c0-17.8,0-35.5,0-53.3c0-1.8,0.1-1.9,1.7-2.4c3.1-1.1,6.3-2.2,9.6-2.9
			c1.1-0.2,1.2-0.2,1.1,0.9c-0.3,2.1-0.4,4.2,0,6.3c0.3,1.7,0.6,3.4,0.1,5.2c-0.1,0.3,0,0.7,0.1,1c0.6,3.5,2.5,5.8,6,6.8
			c1,0.3,1.6,0.7,2,1.7c0.4,0.9,0.9,1.9,1.6,2.5c1.9,1.6,2.3,3.7,2,6.1c0,0.2,0,0.3,0,0.5c0,1.7-0.1,1.8-1.7,2.2c-4,1-7.9,2-11.9,3
			c-4.3,1.1-6.3,3.5-6.6,7.9c0,0.5,0,0.9,0,1.4c0,7.7,0,15.4,0,23.1c0,0.7,0,1.4,0.2,2.1c0.2,0.8,0.6,1.5,1.5,1.7h1.5
			c1.1-0.2,1.4-1,1.6-2c0.1-0.6,0-1.2,0-1.7c0-8.1,0-16.2,0-24.4c0-2,0.6-3,2.4-3.4c3.6-1,7.3-1.8,10.9-2.8c0.9-0.2,1.4,0,1.8,0.8
			c1.1,2,2.1,4,3.2,6.1c1.1,2.1,2.1,4.2,3.4,6.3c1.3,2.1,3.9,2.1,5.2,0c0.5-0.8,0.9-1.6,1.3-2.4c1.7-3.2,3.4-6.4,5.1-9.6
			c0.8-1.4,0.8-1.4,2.4-1c3.3,0.8,6.5,1.7,9.8,2.5c2.6,0.7,3.1,1.3,3.1,4c0,8,0,16.1,0,24.1c0,0.5,0,1.1,0,1.6c0.1,1,0.5,1.8,1.6,2
			h1.5c1.5-0.5,1.6-1.8,1.6-3c0-8.2,0-16.4,0-24.6c0-1.5-0.3-3.1-1-4.5c-1.1-2.3-3.2-3.4-5.6-4c-4.1-1-8.2-2.1-12.2-3
			c-1-0.2-1.5-0.7-1.4-1.8c0.1-1.1,0-2.2,0-3.4c0-0.9,0.3-1.6,0.9-2.2c1-1,1.9-2.1,2.5-3.4c0.5-1.2,1.3-1.8,2.6-2.2
			c3.9-1.3,6-4.8,5.5-8.8c-0.1-0.6-0.2-1.2,0-1.9c0.6-2.8,0.8-5.6,0.3-8.4c-0.2-1.2-0.1-1.2,1.1-1c3.1,0.7,6.2,1.7,9.2,2.8
			c2,0.7,2,0.7,2,2.9V124c0,0.7,0,1.3,0.1,2c0.1,1,0.5,1.7,1.6,2h1.5c1-0.7,1.2-1.6,1.2-2.8c0-11,0-22.1,0-33.1
			c0-1.2,0.4-1.7,1.4-2.2c6.4-2.9,12.3-6.6,17-11.9c4.3-4.8,7.1-10.3,7.1-16.9C126.9,52.9,126.9,44.7,126.9,36.5z M53.6,28
			c3.5-0.2,7-0.5,10.5-0.5c3.5,0,7,0.3,10.5,0.5c0.8,0.1,1.2,0.1,0.7,1.1c-1.1,1.9-2.1,3.9-3,5.8c-0.3,0.5-0.5,0.8-1.2,0.8
			c-4.6,0-9.2,0-13.7,0c-0.6,0-0.9-0.2-1.2-0.8c-1-2-2-3.9-3-5.8C52.5,28.3,52.7,28.1,53.6,28z M5.9,66.2c-1.1-3.7-1.1-7.4,0-11
			c0.1-0.4,0.2-0.8,0.9-0.5c1.9,0.7,3.9,1.2,5.8,1.7c0.7,0.2,0.7,0.5,0.7,1c0,1.1,0,2.2,0,3.4c0,0.8-0.1,1.7,0,2.5
			c0.2,1.2-0.3,1.7-1.4,2c-1.7,0.4-3.3,1-5,1.5C6.5,66.9,6.1,66.9,5.9,66.2z M50.2,71.7c-1.4-0.5-2.5-2.2-2.4-3.7
			c0.1-1,0.7-1.6,1.7-1.7c1,0,1.6,0.7,1.6,1.7c0,0.5,0,0.9,0,1.4c0,0.5,0,1.1,0,1.6C51.2,71.8,50.9,72,50.2,71.7z M69.4,93.1
			c-1.7,3.2-3.4,6.4-5.1,9.6c-0.5-0.1-0.5-0.5-0.6-0.7c-1.6-3.1-3.3-6.1-4.9-9.2c-0.3-0.5-0.5-1,0.1-1.5c0.5-0.4,0.6-1.1,0.6-1.8
			c0-1.5,0-3,0-4.5c0-0.4-0.1-0.8,0.5-0.7c3,0.7,5.9,0.6,9-0.1c0,1.8,0,3.5,0,5.2c0,0.6,0,1.2,0.4,1.6C70,91.7,69.8,92.3,69.4,93.1z
			 M73.3,64.8c-0.1,1.4,0,2.9,0,4.4V73c0,3.8-3.2,7.4-7,7.8c-1.3,0.1-2.6,0.1-3.9,0.1c-3.4-0.2-5.4-2.3-7-4.9
			c-0.4-0.6-0.5-1.4-0.5-2.2c0-3.7,0-7.3,0-11c0-1.7,0.8-2.6,2.2-2.6c0.3,0,0.6,0.1,0.9,0.3c3.9,4.2,8.7,4.7,14,3.2
			C73.1,63.5,73.4,63.6,73.3,64.8z M77.7,71.8c-0.4,0.1-0.6,0-0.6-0.5c0-0.6,0-1.2,0-1.9c0-0.5,0.1-1,0-1.5
			c-0.1-1.1,0.6-1.5,1.4-1.6c0.9-0.2,1.5,0.4,1.8,1.2C80.8,69.1,79.3,71.5,77.7,71.8z M80.6,62c0,0.5-0.1,0.9-0.7,0.6
			c-0.1-0.1-0.2-0.1-0.4-0.1c-1.4,0.1-2.5,0.2-2.9-1.8c-0.2-1.4-2-1.8-3.6-1.2c-2.4,0.8-4.7,1.5-7.3,1.1c-1.9-0.3-3.5-1.1-4.8-2.4
			c-2.6-2.7-6.8-2.2-8.9,0.9c-0.6,0.9-0.9,1.9-0.9,2.9c0,0.6-0.2,0.6-0.7,0.6c-0.9-0.1-1.8-0.1-2.7,0.2c-0.3-2.7-0.2-5.4,0.5-8
			c0.2-0.6,0.5-0.9,1.1-1c7-1,14.1-1.3,21.1-0.9c2.7,0.2,5.5,0.5,8.2,0.8c0.9,0.1,1.3,0.4,1.6,1.4C80.7,57.4,80.7,59.7,80.6,62z
			 M122.3,66c-0.2,0.7-0.4,1-1.2,0.7c-1.8-0.6-3.6-1.2-5.5-1.7c-0.7-0.2-0.9-0.5-0.8-1.1c0-1.1,0-2.2,0-3.5c0.1-1.1-0.5-2.8,0.2-3.8
			c0.7-0.8,2.4-0.9,3.7-1.2c0.6-0.2,1.2-0.4,1.8-0.5c1.6-0.5,1.6-0.5,2,1.1C123.3,59.4,123.3,62.7,122.3,66z"/>
		<path d="M47.4,128c-1-0.6-1.3-1.4-1.3-2.5c0-5.7,0-11.5,0-17.2c0-1.7,1.4-2.7,2.8-2c0.7,0.4,1,1,1,1.7c0,6,0,12,0,18
			c0,0.9-0.6,1.4-1,2C48.4,128,47.9,128,47.4,128z"/>
		<path d="M79.3,128c-0.9-0.8-1-1.7-1-2.9c0-5.7,0-11.3,0-17c0-0.8,0.3-1.5,1-1.9c0.6-0.4,1.3-0.3,1.9,0.1c0.6,0.4,0.9,0.9,0.9,1.7
			c0,6,0,12,0,18c0,1-0.6,1.5-1.3,2C80.3,128,79.8,128,79.3,128z"/>
		<path d="M1.1,36.5c0.4,0.2,0.2,0.6,0.2,0.9c0,7.7,0,15.3,0,23c0,0.3,0.2,0.7-0.2,0.9C1.1,53,1.1,44.8,1.1,36.5z"/>
	</g>
</g>
</svg>
