<?xml version="1.0" encoding="utf-8"?>
<!-- Generator: Adobe Illustrator 28.0.0, SVG Export Plug-In . SVG Version: 6.00 Build 0)  -->
<svg version="1.1" id="Layer_1" xmlns="http://www.w3.org/2000/svg" xmlns:xlink="http://www.w3.org/1999/xlink" x="0px" y="0px"
	 viewBox="0 0 128 128" style="enable-background:new 0 0 128 128;" xml:space="preserve">
<g id="ShyeLt.tif">
	<g>
		<path d="M65,0c1.3,0.8,1.8,1.9,1.7,3.4c-0.1,3.2,0,6.5,0,9.7c0,2.2-1.8,3.4-3.7,2.7c-1.2-0.4-1.7-1.4-1.7-2.6c0-3.5,0-7,0-10.5
			C61.3,1.5,62,0.6,63,0C63.7,0,64.3,0,65,0z"/>
		<path d="M128,65c-0.8,1.3-1.9,1.8-3.4,1.7c-3.2-0.1-6.5,0-9.7,0c-2.2,0-3.4-1.8-2.7-3.7c0.4-1.2,1.4-1.7,2.6-1.7c3.5,0,7,0,10.5,0
			c1.3,0,2.1,0.7,2.8,1.7C128,63.6,128,64.3,128,65z"/>
		<path d="M87.5,58.8c0.3,1.7,0.6,3.4,0.5,5.2c-0.1,1.6-1,2.6-2.5,2.7c-1.5,0.1-2.7-0.8-2.8-2.4c-0.2-2.8-0.5-5.5-1.8-8.1
			c-3.3-6.5-8.6-10.3-16-10.8c-1-0.1-2,0-2.8-0.8c-0.8-0.8-1-1.9-0.6-3c0.4-1.1,1.2-1.6,2.4-1.7H65C75.5,40.1,85.4,48.3,87.5,58.8z"
			/>
		<path d="M100.7,57.5c-2.5-15-14.6-29.1-33.6-30.7c-10.6-0.9-19.9,2.5-27.8,9.5C25.7,48.4,22.8,67.8,32,83.3
			c2.2,3.6,4.9,6.7,8.2,9.4c5.2,4.2,8.1,9.5,7.8,16.4c-0.1,3.2,0,6.3,0,9.5c0,0.9,0.1,1.7,0.3,2.6c0.9,4.2,4.4,7.1,8.4,6.9
			c2.4-0.1,4.9,0,7.4,0c2.6,0,5.2,0,7.9,0c4.5,0,8.1-3.6,8.1-8.1c0-3.9,0-7.8,0-11.7C80.1,102,82.5,97,87.2,93
			c1.3-1.1,2.7-2.2,3.8-3.4C99.7,80.6,102.8,69.8,100.7,57.5z M74.6,119.5c0,2.3-0.8,3.1-3.1,3.1c-5,0-10.1,0-15.1,0
			c-1.9,0-2.8-0.8-2.9-2.8c-0.1-2.3-0.1-4.7-0.1-7c0-0.7,0.2-0.9,0.9-0.9c3.3,0,6.6,0,9.9,0c3.2,0,6.3,0,9.5,0c0.8,0,1,0.2,1,1
			C74.6,115.1,74.6,117.3,74.6,119.5z M84.1,88.6c-5.3,4.5-8.6,10.2-9.4,17.3c-0.1,0.8-0.5,0.7-1,0.7H54.4c-0.5,0-1,0.1-1.1-0.8
			c-0.4-7.4-4.1-13-9.8-17.5c-6.3-5-9.7-11.7-11-19.6C29.8,53.3,40.6,37.4,56,33.1c17.2-4.8,35.9,6.6,39.2,24.1
			C97.6,69.7,94,80.3,84.1,88.6z"/>
		<path d="M27.9,31c-0.9-0.1-1.6-0.3-2.1-0.9c-2.3-2.5-4.6-4.9-6.9-7.4c-1.3-1.5-1.4-2.9-0.2-4.1c1.2-1.1,2.6-1.1,4,0.3
			c2.4,2.4,4.8,4.8,7.1,7.2c0.9,0.9,1.2,1.9,0.6,3.1C29.9,30.1,29.1,31,27.9,31z"/>
		<path d="M7.9,66.7c-1.7,0-3.3,0-5,0c-1.9,0-3-1-2.9-2.8c0-1.7,1.1-2.7,2.9-2.7c3.4,0,6.8,0,10.2,0c1.8,0,2.9,1,2.9,2.7
			c0,1.7-1,2.7-2.8,2.7c0,0-0.1,0-0.1,0C11.3,66.7,9.6,66.7,7.9,66.7z"/>
		<path d="M20.9,109.9c-1.3,0-2.3-0.3-2.8-1.4c-0.5-1.2-0.1-2.2,0.7-3.1c2.4-2.4,4.8-4.8,7.2-7.2c1.3-1.2,2.7-1.2,3.9-0.1
			c1.1,1.1,1.1,2.6-0.1,3.9c-2.4,2.4-4.8,4.8-7.1,7.2C22.1,109.7,21.5,109.9,20.9,109.9z"/>
		<path d="M99.5,31c-1.2-0.1-2-0.3-2.5-1.4c-0.5-1-0.4-2,0.4-2.8c2.6-2.6,5.2-5.3,7.8-7.8c1-1,2.6-0.8,3.6,0.2c1,1,1.1,2.5,0.1,3.5
			c-2.5,2.6-5,5.1-7.6,7.6C100.9,30.8,100.1,31,99.5,31z"/>
		<path d="M107.4,109.9c-1.3,0-2.2-0.3-3-1.2c-2.2-2.3-4.4-4.4-6.6-6.6c-1.3-1.3-1.4-2.6-0.4-3.8c1-1.2,2.6-1.5,3.7-0.4
			c2.7,2.6,5.3,5.2,7.9,7.8c0.8,0.8,0.8,1.8,0.3,2.9C108.9,109.5,108.3,110.1,107.4,109.9z"/>
		<path d="M88,64c-0.1,1.6-1,2.6-2.5,2.7c-1.5,0.1-2.7-0.8-2.8-2.4c-0.2-2.8-0.5-5.5-1.8-8.1c-3.3-6.5-8.6-10.3-16-10.8
			c-1-0.1-2,0-2.8-0.8c-0.8-0.8-1-1.9-0.6-3c0.4-1.1,1.2-1.6,2.4-1.7H65c10.5,0.1,20.4,8.4,22.5,18.8C87.8,60.5,88.1,62.2,88,64z"/>
		<path d="M88,64c-0.1,1.6-1,2.6-2.5,2.7c-1.5,0.1-2.7-0.8-2.8-2.4c-0.2-2.8-0.5-5.5-1.8-8.1c-3.3-6.5-8.6-10.3-16-10.8
			c-1-0.1-2,0-2.8-0.8c-0.8-0.8-1-1.9-0.6-3c0.4-1.1,1.2-1.6,2.4-1.7H65c10.5,0.1,20.4,8.4,22.5,18.8C87.8,60.5,88.1,62.2,88,64z"/>
	</g>
</g>
</svg>
