<?xml version="1.0" encoding="utf-8"?>
<!-- Generator: Adobe Illustrator 28.0.0, SVG Export Plug-In . SVG Version: 6.00 Build 0)  -->
<svg version="1.1" id="Layer_1" xmlns="http://www.w3.org/2000/svg" xmlns:xlink="http://www.w3.org/1999/xlink" x="0px" y="0px"
	 viewBox="0 0 128 128" style="enable-background:new 0 0 128 128;" xml:space="preserve">
<g>
	<g id="_x30_18---Laser-Cutting_1_">
		<path id="Shape_5_" d="M96,0H32c-2.4,0-4.3,1.9-4.3,4.3v14.9c0,2.4,1.9,4.3,4.3,4.3h6.4v10.7c0,0.8-0.7-0.6,12.8,21.9v7.3
			c0,1.6,0,1.3,6.1,11.3c0.8,1.3,2.2,2.1,3.7,2.1h0.9v9.2l-44.8,17.6c-1.2,0.5-2,1.7-2,3s0.8,2.5,2,3C64.5,128.7,61.6,128,64,128
			c2.4,0-0.5,0.7,46.9-18.4c1.2-0.5,2-1.7,2-3c0-1.3-0.8-2.5-2-3L66.1,86v-9.2h0.9c1.5,0,2.9-0.8,3.7-2.1c5.9-9.8,6.1-9.7,6.1-11.3
			v-7.3C90.2,33.7,89.6,35,89.6,34.1V23.5H96c2.4,0,4.3-1.9,4.3-4.3V4.3C100.3,1.9,98.4,0,96,0z M61.9,90.6v14.7l-20.7,9.5L21,106.7
			L61.9,90.6z M107,106.7l-41.4,16.8c-1,0.4-2.1,0.4-3.2,0L46.6,117l18.3-8.5c0.7-0.3,1.2-1,1.2-1.8V90.6L107,106.7z M72.5,63.4
			l-5.5,9.1H61l-5.5-9.1v-5.8h17.1V63.4z M85.3,32H61.9c-1.2,0-2.1,1-2.1,2.1c0,1.2,1,2.1,2.1,2.1h21.8L73.5,53.3H54.6L44.3,36.3
			h6.9c1.2,0,2.1-1,2.1-2.1s-1-2.1-2.1-2.1h-8.5v-8.5h42.7V32z M96,19.2H32V4.3h4.3v4.3c0,1.2,1,2.1,2.1,2.1s2.1-1,2.1-2.1V4.3h4.3
			v4.3c0,1.2,1,2.1,2.1,2.1s2.1-1,2.1-2.1V4.3h4.3v4.3c0,1.2,1,2.1,2.1,2.1s2.1-1,2.1-2.1V4.3h4.3v4.3c0,1.2,1,2.1,2.1,2.1
			c1.2,0,2.1-1,2.1-2.1V4.3h4.3v4.3c0,1.2,1,2.1,2.1,2.1c1.2,0,2.1-1,2.1-2.1V4.3h4.3v4.3c0,1.2,1,2.1,2.1,2.1c1.2,0,2.1-1,2.1-2.1
			V4.3h4.3v4.3c0,1.2,1,2.1,2.1,2.1c1.2,0,2.1-1,2.1-2.1V4.3H96V19.2z"/>
		<path id="Shape_4_" d="M94.4,53.9c0.7-0.2,1.3-0.8,1.4-1.6s-0.1-1.5-0.7-2c-0.6-0.5-1.4-0.7-2.1-0.4c-8.4,2.8-11.8,10.5-8,18.6
			c2.7,5.7,0.5,10.7-5.5,12.8c-1.1,0.4-1.6,1.6-1.3,2.7c0.4,1.1,1.5,1.7,2.6,1.4c3.8-1,7-3.7,8.6-7.3s1.4-7.8-0.5-11.3
			C86.2,60.9,88.4,55.9,94.4,53.9L94.4,53.9z"/>
		<path id="Shape_3_" d="M110.4,32.9c0.5-0.2,1-0.6,1.2-1.1s0.3-1.1,0.1-1.6c-0.4-1.1-1.6-1.7-2.7-1.3c-3.8,1-7,3.7-8.6,7.3
			c-1.6,3.6-1.4,7.8,0.5,11.3c2.7,5.8,0.5,10.8-5.5,12.8c-1.1,0.4-1.7,1.6-1.4,2.7c0.4,1.1,1.6,1.7,2.7,1.4
			c8.4-2.8,11.8-10.5,8-18.6C102.2,39.9,104.4,34.9,110.4,32.9L110.4,32.9z"/>
	</g>
</g>
</svg>
