<?xml version="1.0" encoding="utf-8"?>
<!-- Generator: Adobe Illustrator 28.0.0, SVG Export Plug-In . SVG Version: 6.00 Build 0)  -->
<svg version="1.1" id="Layer_1" xmlns="http://www.w3.org/2000/svg" xmlns:xlink="http://www.w3.org/1999/xlink" x="0px" y="0px"
	 viewBox="0 0 128 128" style="enable-background:new 0 0 128 128;" xml:space="preserve">
<g>
	<path d="M122.8,100.3c-39.2,0.1-78.3,0-117.5,0c-0.4,0-0.8,0-1.2,0c-2.5,0.1-4,1.6-4,4.1c0,6.3,0.1,12.7,0,19
		c-0.1,2.7,1.6,4.6,4.6,4.5c39.5-0.1,79.1,0,118.6,0c2.3,0,3.8-0.7,4.8-2.8V103C126.9,100.8,125.1,100.3,122.8,100.3z M120.5,119.3
		c0,1-0.3,1.2-1.2,1.2c-30,0-60,0-90.1,0c-6.9,0-13.7,0-20.6,0c-0.8,0-1.1-0.2-1.1-1.1c0-3.5,0.1-6.9,0-10.4c0-1,0.3-1.1,1.2-1.1
		c18.5,0,37,0,55.5,0c18.4,0,36.7,0,55.1,0c1,0,1.3,0.2,1.3,1.3C120.5,112.5,120.5,115.9,120.5,119.3z"/>
	<path d="M87.9,5.2c0-2.3-0.5-4.1-2.7-5.2H42.8c-1.8,1-2.7,2.3-2.7,4.5c0.1,12.9,0,25.8,0,38.7c0,3.1,1.5,4.5,4.5,4.5
		c12.8,0,25.6,0,38.3,0c3.6,0,4.9-1.3,4.9-4.9C87.9,30.3,87.9,17.7,87.9,5.2z M80.3,39c0,1-0.2,1.2-1.2,1.2c-10.1,0-20.1,0-30.2,0
		c-1,0-1.2-0.3-1.2-1.2c0-10.1,0-20.1,0-30.2c0-1,0.3-1.2,1.2-1.2c10,0,20.1,0,30.1,0c1.1,0,1.3,0.3,1.3,1.3c0,5,0,10.1,0,15.1
		C80.3,28.9,80.3,34,80.3,39z"/>
	<path d="M17.1,68.2c1,0,1.8,0,2.6,0c2.8,0,4.5,2.4,3.7,5c-1.3,4-2.6,7.9-3.9,11.9c-0.7,2.2-2.9,3.2-4.9,2.5c-2-0.7-3-2.8-2.3-5
		c0.7-2.2,1.5-4.5,2.3-6.9c-1,0-1.9,0-2.8,0c-2.7-0.1-4.4-2.4-3.6-5c1.3-4,2.6-7.9,4-11.9c0.8-2.2,2.8-3.2,4.8-2.5
		c2,0.7,3,2.7,2.3,4.9C18.6,63.6,17.9,65.8,17.1,68.2z"/>
	<path d="M111,75.8c-1,0-1.9,0-2.7,0c-2.7-0.1-4.5-2.4-3.7-5c1.3-4,2.6-8,4-12c0.7-2.1,2.9-3.1,4.8-2.4c2,0.7,3,2.7,2.3,4.8
		c-0.7,2.3-1.5,4.5-2.3,7c1,0,1.9,0,2.8,0c2.6,0.1,4.4,2.4,3.6,4.9c-1.3,4-2.6,8-3.9,11.9c-0.8,2.3-2.9,3.3-4.9,2.6
		c-2-0.7-2.9-2.8-2.2-5C109.4,80.3,110.2,78.1,111,75.8z"/>
	<path d="M67.8,74.1c0,4.6,0,9.2,0,13.7c0,2.3-1.6,4-3.7,4c-2.1,0-3.8-1.7-3.8-4.1c0-9.2,0-18.4,0-27.6c0-2.3,1.5-4,3.7-4
		c2.3,0,3.8,1.6,3.8,4C67.8,64.9,67.8,69.5,67.8,74.1z"/>
	<path d="M51.8,66c0,1.9,0,3.8,0,5.7c0,2.3-1.6,4-3.7,4c-2.2,0-3.8-1.5-3.8-3.8c0-4-0.1-7.9,0-11.9c0-2.3,1.6-3.9,3.9-3.8
		c2.1,0,3.7,1.7,3.7,3.9C51.8,62.1,51.8,64,51.8,66z"/>
	<path d="M83.8,66.1c0,1.9,0,3.7,0,5.6c0,2.4-1.6,4-3.8,4c-2.2,0-3.8-1.7-3.8-4.1c0-3.8,0-7.6,0-11.4c0-2.4,1.6-4.1,3.8-4.1
		c2.2,0,3.8,1.6,3.8,4C83.9,62.2,83.8,64.1,83.8,66.1z"/>
</g>
</svg>
