<svg version="1.2" xmlns="http://www.w3.org/2000/svg" viewBox="0 0 90 90" width="90" height="90">
<text style="transform:matrix(1,0,0,1,182.839,643.331)" ></text>


<path class="b" d="m196.4 167.4v12"/><path class="c" d="m-541 164.4h14.4c1.1 0 2-1.1 1.7-2.2l-3.3-13.8c-0.2-0.8-0.9-1.3-1.7-1.3h-7.5c-0.8 0-1.4 0.5-1.6 1.3l-3.7 13.8c-0.3 1.1 0.6 2.2 1.7 2.2z"/><path fill-rule="evenodd" class="c" d="m-550 171.4h10v-2.1c0-0.9 0.8-1.7 1.7-1.7h8.9c1 0 1.7 0.8 1.7 1.7v2.1h5.4v4.2h-5.4v3.4c0 0 7.8 0.6 10.9 7.5h-34c3-6.9 10.8-7.5 10.8-7.5v-3.4h-7.6c-1.4 0-6.4 0.3-8.5 2.3-1.9 1.9-2.9 4.7-2.9 8.6h-4.2c0-5.1 1.4-9 4.2-11.7 3.7-3.4 8.4-3.4 9-3.4zm2.5 4.2h0.2q0 0-0.2 0z"/><path class="c" d="m-516.9 178.6l4.3-1.1c0.7-0.2 1.3-0.9 1.3-1.7v-4.6c0-0.8-0.6-1.5-1.3-1.7l-4.3-1.2c-1-0.3-2.1 0.5-2.1 1.7v7c0 1.1 1.1 1.9 2.1 1.6z"/><path class="d" d="m-542.2 139.8c0.6 2.3 2.7 3.9 5 3.9h6.5c2.2 0 4.1-1.4 4.9-3.5 0.9-2.7 1.3-7-2-12.4-3.5-5.7-9.2-7.6-13.3-8.2-0.6-0.1-0.9 0.8-0.3 1.1 5 2.6 6.6 8.2 7.2 10.5 0.5 2.3-2.8 3-2.8 0 0-1.6-1.2-3-2.4-4-0.5-0.3-1.1 0.2-0.9 0.8 0.5 1.2 0.5 2.9-0.9 5.2-1.5 2.3-1.5 4.7-1 6.6z"/><path fill-rule="evenodd" class="d" d="m-561.5 47.8c-0.2 1.7-1.5 3-3.1 3.1-1.7 0.2-3.2-0.9-3.6-2.5h-27.7c-0.4 1.6-2 2.7-3.7 2.5-1.7-0.2-3-1.7-3-3.4 0-0.6 0.2-1.2 0.5-1.7l-5.6-5.6c-0.5 0.3-1.1 0.4-1.7 0.4-1.8 0.1-3.2-1.2-3.4-2.9-0.3-1.7 0.8-3.3 2.5-3.8v-27.6c-1.6-0.4-2.7-2-2.6-3.6 0.2-1.7 1.5-3 3.2-3.1 1.6-0.2 3.1 0.9 3.6 2.5h27.6c0.4-1.6 2-2.7 3.7-2.5 1.7 0.2 3 1.7 3 3.4 0 0.6-0.1 1.2-0.5 1.7l5.6 5.6c0.6-0.3 1.2-0.5 1.8-0.5 1.9 0 3.4 1.6 3.4 3.5 0 1.5-1.1 2.9-2.6 3.3v27.6c1.6 0.4 2.7 1.9 2.6 3.6zm-4.9-33.7c0.4 0.7 1.2 1 1.9 0.8 0.8-0.2 1.3-0.9 1.3-1.6 0-0.7-0.4-1.4-1.1-1.6-0.6-0.3-1.4-0.1-1.8 0.3-0.6 0.6-0.7 1.4-0.3 2.1zm-7.1-8.2q-0.4 0.3-0.8 0.4v6.1h6.1q0.1-0.5 0.3-0.9zm-2.6-1.4c0.7 0.4 1.6 0.2 2.1-0.3 0.5-0.5 0.6-1.2 0.4-1.9-0.3-0.6-0.9-1-1.6-1-0.8 0-1.5 0.5-1.7 1.2-0.2 0.8 0.2 1.6 0.8 2zm2.1 33.9c0.3-0.3 0.5-0.7 0.5-1.2 0-0.8-0.6-1.5-1.4-1.6-0.8-0.2-1.6 0.2-1.9 1-0.3 0.7 0 1.6 0.7 2.1 0.6 0.4 1.5 0.3 2.1-0.3zm-26.9-25.1c0 0.8 0.6 1.5 1.4 1.6 0.8 0.2 1.6-0.2 1.9-1 0.3-0.7 0.1-1.6-0.6-2.1-0.7-0.4-1.6-0.3-2.2 0.2-0.3 0.4-0.5 0.8-0.5 1.3zm2.6 23.1h19.8c0.3-1.2 1.3-2.2 2.5-2.5v-19.8h-19.9c-0.3 1.2-1.2 2.1-2.4 2.5zm-8.2-31.7l5.6 5.6c0.5-0.3 1.1-0.5 1.7-0.5 1.6 0 3 1.1 3.3 2.6h19.9v-6.1c-1.2-0.3-2.2-1.3-2.5-2.5h-27.6q-0.2 0.5-0.4 0.9zm-3.6-0.2c0.6 0.3 1.4 0.2 1.9-0.3 0.5-0.6 0.6-1.4 0.2-2.1-0.3-0.7-1.1-1-1.9-0.8-0.7 0.2-1.3 0.9-1.2 1.7 0 0.7 0.4 1.3 1 1.5zm2.1 31.9c-0.3-0.7-1.1-1-1.9-0.8-0.7 0.2-1.3 0.8-1.3 1.6 0.1 0.7 0.5 1.3 1.1 1.6 0.6 0.3 1.4 0.1 1.9-0.4 0.5-0.5 0.6-1.4 0.2-2zm1.9 0h6.1v-19.9c-1.5-0.3-2.6-1.7-2.6-3.3 0-0.6 0.2-1.2 0.5-1.7l-5.6-5.6q-0.4 0.3-0.9 0.4v27.6c1.2 0.3 2.2 1.3 2.5 2.5zm5.2 8.1q0.4-0.2 0.9-0.3v-6.1h-6.1q-0.2 0.4-0.4 0.8zm2.6 1.5c-0.7-0.4-1.5-0.3-2.1 0.3-0.5 0.5-0.6 1.2-0.4 1.8 0.3 0.7 0.9 1.1 1.6 1.1 0.8 0 1.5-0.5 1.7-1.3 0.2-0.7-0.1-1.5-0.8-1.9zm30.4-0.2l-5.6-5.7c-0.5 0.4-1.1 0.5-1.7 0.5-1.6 0-2.9-1-3.3-2.5h-19.8v6.1c1.2 0.3 2.1 1.2 2.4 2.4h27.7q0.1-0.4 0.3-0.8zm1.2-1.3q0.5-0.2 0.9-0.3v-27.7c-1.2-0.3-2.1-1.2-2.4-2.4h-6.1v19.8c1.5 0.4 2.5 1.8 2.5 3.3 0 0.6-0.1 1.2-0.5 1.7zm3.5 3c0-0.7-0.4-1.3-1.1-1.6-0.6-0.3-1.4-0.1-1.8 0.4-0.6 0.5-0.7 1.4-0.3 2 0.4 0.7 1.2 1 1.9 0.8 0.8-0.2 1.3-0.8 1.3-1.6z"/><path class="e" d="m-584.6 26c-0.3 1.4-1.7 2.4-3.2 2.1-1.4-0.3-2.4-1.7-2.1-3.2 0.3-1.5 1.7-2.4 3.2-2.1 1.5 0.3 2.4 1.7 2.1 3.2z"/><text style="transform:matrix(1,0,0,1,-606.398,75.772)" ><tspan x="0" y="0" class="f">ККО
</tspan></text><text style="transform:matrix(1,0,0,1,412.051,641.949)" ></text><text style="transform:matrix(1,0,0,1,412.051,668.536)" ></text><text style="transform:matrix(1,0,0,1,481.56,603.494)" ></text><path fill-rule="evenodd" class="g" d="m-28.9 42.4c1.2-1.2 2.7-1.8 4.3-1.8 3.6 0 6.6 3.2 6.6 7.1v24.9l11.1 8.1c2.7 1.9 4.3 5.2 4.3 8.7v3.9c0 1.2-0.9 2.1-2 2.1h-13.4v3.5c0 2.7-2 4.9-4.5 4.9h-0.6v6.3c0 1.2-0.9 2.1-2 2.1h-7.6c-1.1 0-2-0.9-2-2.1v-6.3h-0.6c-2.5 0-4.5-2.2-4.5-4.9v-3.5h-3.8v4.9c0 1.2-0.9 2.1-1.9 2.1-1.1 0-2-0.9-2-2.1v-4.9h-5.7c-1.1 0-1.9-0.9-1.9-2.1v-3.9c0-3.5 1.6-6.8 4.2-8.7l11.1-8.1v-13.7c0-3.8 1.5-7.4 4.1-10 0 0 6.8-6.5 6.8-6.5zm-1.9 61.4v4.2h3.8v-4.2zm-8.9-12.6v-13.6l-9 6.6c-1.6 1.1-2.6 3.1-2.6 5.2v1.8zm18-43.5c0-1.6-1.3-2.9-2.8-2.9-0.6 0-1.3 0.2-1.8 0.7l-1.8 1.8v9.6c0 1.2-0.9 2.1-2 2.1-1 0-1.9-0.9-1.9-2.1v-5.8l-1 1c-1.8 1.7-2.8 4.2-2.8 6.8v40c0 0.4 0.3 0.7 0.6 0.7h12.8c0.4 0 0.7-0.3 0.7-0.7v-5.6c0-1.2 0.8-2.1 1.9-2.1h13.4v-1.8c0-2.1-0.9-4.1-2.5-5.2l-15.8-11.5c-0.9-0.7-1.1-2-0.6-2.9 0.6-1 1.8-1.3 2.7-0.6l0.9 0.6c0 0 0-22.1 0-22.1z"/><path class="g" d="m-117.1 26.3v2.8c0 1.2 0.9 2.1 1.9 2.1 1.1 0 1.9-0.9 1.9-2.1v-2.8c0-1.1-0.8-2.1-1.9-2.1-1 0-1.9 1-1.9 2.1z"/><path class="g" d="m-117.1 37.5v2.8c0 1.2 0.9 2.1 1.9 2.1 1.1 0 1.9-0.9 1.9-2.1v-2.8c0-1.1-0.8-2.1-1.9-2.1-1 0-1.9 1-1.9 2.1z"/><path class="g" d="m-117.1 48.7v2.8c0 1.2 0.9 2.1 1.9 2.1 1.1 0 1.9-0.9 1.9-2.1v-2.8c0-1.1-0.8-2.1-1.9-2.1-1 0-1.9 1-1.9 2.1z"/><path class="g" d="m-128.6 71.1v-2.8c0-1.2-0.9-2.1-1.9-2.1-1.1 0-2 0.9-2 2.1v2.8c0 1.2 0.9 2.1 2 2.1 1 0 1.9-0.9 1.9-2.1z"/><path class="g" d="m-138.9 71.1v-9.8c0-1.2-0.8-2.1-1.9-2.1-1 0-1.9 0.9-1.9 2.1v9.8c0 1.2 0.9 2.1 1.9 2.1 1.1 0 1.9-0.9 1.9-2.1z"/><path class="g" d="m-42.2 54.4c0.5-0.1 0.8-0.7 0.7-1.2-0.5-1.9-2.2-2.2-3.1-2.1-0.5 0.1-0.9 0.6-0.8 1.1 0 0.5 0.5 0.9 1.1 0.8 0.1 0 0.7 0 0.9 0.7 0.1 0.5 0.5 0.8 1 0.8q0.1 0 0.2-0.1z"/><path class="g" d="m-29.3 54.4c-0.6-0.1-0.9-0.7-0.7-1.2 0.5-1.9 2.2-2.2 3.1-2.1 0.5 0.1 0.9 0.6 0.8 1.1-0.1 0.5-0.5 0.9-1.1 0.8-0.1 0-0.7 0-0.9 0.7-0.1 0.5-0.5 0.8-1 0.8q-0.1 0-0.2-0.1z"/><path fill-rule="evenodd" class="g" d="m-17.7 60.3c0.9 0 1.6 0.7 1.6 1.6v1.9c0 0.9-0.7 1.7-1.6 1.7h-3.3c-0.9 0-1.7-0.8-1.7-1.7v-1.9c0-0.9 0.8-1.6 1.7-1.6zm-0.3 1.9h-2.7v1.3h2.7z"/><path class="g" d="m-54 61.7h3.1c0.6 0 1-0.5 1-1 0-0.6-0.4-1-1-1h-3.1c-0.5 0-1 0.4-1 1 0 0.5 0.5 1 1 1z"/><path class="g" d="m-54 64.9h2.2c0.6 0 1-0.4 1-1 0-0.5-0.4-0.9-1-0.9h-2.2c-0.5 0-1 0.4-1 0.9 0 0.6 0.5 1 1 1z"/><path fill-rule="evenodd" class="g" d="m-57.5 44.2c0.5 0 1 0.4 1 1v21.1h11.6q0-0.1 0-0.3c0.3-2.3-0.8-4.5-2.8-5.8h-0.1c-2.3-1.4-3.6-4-3.4-6.7q0.1-0.3 0.1-0.6c0.3-1.9 1.2-3.6 2.8-4.8 1.5-1.1 3.3-1.6 5.2-1.4h0.1q1.4 0.2 2.7 1.1l1.3 0.8c0 0.5 0.2-7.8 0.2-7.8-1.9 0.3-3.6 1.2-5 2.5l-1.6 1.6q-0.3 0.3-0.7 0.3-0.3 0-0.6-0.3c-0.4-0.4-0.4-1 0-1.4l1.5-1.5c1.8-1.8 4.1-2.9 6.5-3.2 0-0.6 0.1-2.4 0.1-3.1q-1.6 0-3.1 0c-2.2 0.2-4.3 1.1-5.8 2.7l-1.6 1.5q-0.3 0.3-0.7 0.3-0.4 0-0.7-0.3c-0.4-0.4-0.4-1 0-1.4l1.6-1.5c1.9-1.9 4.4-3.1 7.1-3.2q1.6-0.1 3.2 0l0.1-3.2q-3.6-0.6-6.8-0.4c-2.2 0.1-4.3 1-5.9 2.6l-1.5 1.6q-0.3 0.2-0.7 0.2-0.4 0-0.7-0.2c-0.4-0.4-0.4-1 0-1.4l1.6-1.6c1.9-1.9 4.4-3 7.1-3.2q3.3-0.2 7 0.4c0-1.4 1.2-2.5 2.6-2.5 1.5 0 2.7 1.1 2.7 2.5q3.7-0.6 7-0.4c2.7 0.2 5.2 1.3 7.1 3.2l1.6 1.6c0.4 0.4 0.4 1 0 1.4q-0.3 0.2-0.7 0.2-0.4 0-0.7-0.2l-1.6-1.6c-1.5-1.6-3.6-2.5-5.8-2.6q-3.2-0.2-6.8 0.4c0 0.2 0.1 2.8 0.1 3.2q1.6-0.1 3.2 0c2.7 0.1 5.2 1.3 7.1 3.2l1.6 1.5c0.4 0.4 0.4 1 0 1.4q-0.3 0.3-0.7 0.3-0.4 0-0.7-0.3l-1.6-1.5c-1.5-1.6-3.6-2.5-5.8-2.7q-1.5 0-3.1 0c0 0.6 0.1 2.5 0.1 3.1 2.4 0.3 4.7 1.4 6.5 3.2l1.5 1.5c0.4 0.4 0.4 1 0 1.4q-0.3 0.3-0.7 0.3-0.3 0-0.6-0.3l-1.6-1.6c-1.4-1.3-3.2-2.2-5.1-2.5 0.1 0.9 0.2 6.8 0.2 7.8l1.4-0.8q1.3-0.9 2.7-1.1h0.1c2.9-0.4 5.7 1 7.1 3.6 0.3 0.4 0.1 1-0.4 1.3q-0.2 0.1-0.4 0.1c-0.4 0-0.7-0.1-0.9-0.5-1-1.8-3.1-2.8-5.1-2.5h-0.1q-1 0.1-2 0.7l-2.3 1.5c0.1 3.4 0.3 11.9 0.4 15.4h3.5c-0.4-3.1 1.1-6.1 3.8-7.8h0.1c1.4-0.8 2.3-2.3 2.4-3.9 0.1-0.6 0.5-1 1.1-0.9 0.5 0 0.9 0.5 0.9 1-0.2 2.3-1.5 4.3-3.4 5.5h-0.1c-2 1.3-3.1 3.5-2.8 5.8q0 0.2 0 0.3h11.6v-41.6h-41.5v16.6c0 0.5-0.5 0.9-1 0.9-0.5 0-1-0.4-1-0.9v-17.6c0-0.5 0.5-1 1-1h43.5c0.5 0 1 0.5 1 1v43.6c0 0.5-0.5 0.9-1 0.9h-43.5c-0.5 0-1-0.4-1-0.9v-22.1c0-0.6 0.5-1 1-1zm23.1 9q-0.7 0.2-1.4 0.2-0.6 0-1.3-0.2l-0.1 2.9q1.4 0.5 2.9 0zm-2.9 7.8q1.5 0.5 3.1 0l-0.1-2.9q-0.7 0.2-1.5 0.2-0.7 0-1.5-0.2zm0.4-14.8q1.2 0.5 2.4 0l-0.1-2.9q-0.6 0.2-1.1 0.2-0.6 0-1.1-0.2zm2-12.7q-0.4 0.1-0.8 0.1-0.5 0-0.9-0.1l-0.1 2.9q1 0.4 1.9 0zm-0.9 5q-0.5 0-0.9-0.1l-0.1 2.9q1 0.4 2.1 0l-0.1-2.9q-0.5 0.1-1 0.1zm0 9.9q-0.6 0-1.2-0.2c0 0.8 0 2.2-0.1 2.9q1.3 0.5 2.6 0c0-0.7 0-2.1 0-2.9q-0.6 0.2-1.3 0.2zm1.7 17.9l-0.1-3.3q-0.8 0.2-1.6 0.2-0.8 0-1.6-0.2v3.3zm-1.7-38.3c-0.4 0-0.8 0.3-0.8 0.7v2.7q0.8 0.4 1.6 0l-0.1-2.7c0-0.4-0.3-0.7-0.7-0.7zm-7.2 38.3h3.5c0.1-1.6 0.4-13.1 0.4-15.4l-2.3-1.5q-0.9-0.6-2-0.7c-1.4-0.2-2.7 0.1-3.8 1-1.1 0.8-1.8 2-2 3.4q-0.1 0.3-0.1 0.6c-0.2 1.9 0.8 3.8 2.4 4.8h0.1c2.7 1.7 4.2 4.7 3.8 7.8z"/><path class="g" d="m-10.1 29.5c0.6 0 1-0.4 1-0.9v-7.3c0-1.3-1.1-2.5-2.5-2.5h-3.8l-0.1-0.5c-0.5-2.9-2.9-5.1-5.8-5.4l-4-0.4c-2-0.2-3.6-1.6-4.1-3.5l-0.7-3c-0.2-0.5-0.7-0.9-1.2-0.7-0.5 0.1-0.9 0.6-0.7 1.2l0.7 3c0.7 2.6 3 4.6 5.8 4.9l4 0.5c2 0.2 3.7 1.7 4.1 3.8v0.1h-36.7v-0.1c0.4-2.1 2.1-3.6 4.1-3.8l4-0.5c2.8-0.3 5.1-2.3 5.7-4.9l0.8-3c0.2-0.6-0.2-1.1-0.7-1.2-0.5-0.2-1 0.2-1.2 0.7l-0.7 3c-0.5 1.9-2.2 3.3-4.1 3.5l-4 0.4c-2.9 0.3-5.3 2.5-5.8 5.4l-0.1 0.5h-3.8c-1.4 0-2.5 1.2-2.5 2.5v48.3c0 1.4 1.1 2.6 2.5 2.6h48.3c1.4 0 2.5-1.2 2.5-2.6v-37.1c0-0.6-0.4-1-1-1-0.5 0-1 0.4-1 1v37.1c0 0.3-0.2 0.6-0.5 0.6h-48.3c-0.3 0-0.5-0.3-0.5-0.6v-48.3c0-0.3 0.2-0.5 0.5-0.5h48.3c0.3 0 0.5 0.2 0.5 0.5v7.3c0 0.5 0.5 0.9 1 0.9z"/><path fill-rule="evenodd" class="g" d="m63.6 60.9c-1.1 0-1.9-0.9-1.9-2v-5.5c0-1.2 0.8-2.1 1.9-2.1h5.2c1 0 1.9 0.9 1.9 2.1v5.5c0 1.1-0.9 2-1.9 2zm0.5-2.6h4.1v-4.3h-4.1z"/><path fill-rule="evenodd" class="g" d="m42.3 55.9q-0.1 0-0.3 0c-0.3-0.1-0.6-0.3-0.7-0.6l-3.9-7.2-3.9 7.2c-0.2 0.3-0.4 0.5-0.8 0.6q-0.1 0-0.3 0-0.3 0-0.6-0.2c-3.5-2.1-5.6-6-5.6-10.2 0-0.7 0.6-1.3 1.2-1.3h7.8l-3.9-7.1c-0.3-0.7-0.1-1.5 0.5-1.8 1.7-1.1 3.6-1.6 5.6-1.6 1.9 0 3.9 0.5 5.6 1.6 0.6 0.3 0.8 1.1 0.4 1.8l-3.9 7.1h7.8c0.7 0 1.3 0.6 1.3 1.3 0 4.2-2.2 8.1-5.6 10.2q-0.3 0.2-0.7 0.2zm-7.1-9.1h-6.4c0.3 2.4 1.5 4.5 3.2 5.9zm2.2-3.9l3.2-5.9c-1-0.4-2.1-0.7-3.2-0.7-1.2 0-2.2 0.3-3.3 0.7zm5.4 9.8c1.7-1.4 2.9-3.5 3.2-5.9h-6.4z"/><path fill-rule="evenodd" class="g" d="m75.7 44.8c0.7 0 1.2 0.6 1.2 1.3v22.6c0 0.7-0.5 1.3-1.2 1.3h-61.1c-0.5 0-0.8-0.2-1.1-0.6-0.2-0.4-0.3-0.8-0.1-1.2q0.9-2.5 1.8-4.8c5.5-14.1 8.5-22.1 9.1-39.1-1.1-0.6-1.9-1.8-1.9-3.2v-1.8c0-1.9 1.4-3.4 3.2-3.4h23.6c1.7 0 3.2 1.5 3.2 3.4v1.8c0 1.4-0.8 2.6-2 3.2 0.3 8.4 1.2 14.6 2.7 20.5h7.6v-33.9c0-1.9 1.4-3.5 3.2-3.5h5.3c1.7 0 3.2 1.6 3.2 3.5v33.9zm-12.5-33.9v4.4h6.7v-4.4c0-0.5-0.3-0.8-0.7-0.8h-5.2c-0.5 0-0.8 0.3-0.8 0.8zm0 11.2h6.7v-4.2h-6.7zm0 22.6h6.7v-20h-6.7zm-38.3-25.5v1.9c0 0.4 0.3 0.8 0.7 0.8h23.6c0.4 0 0.7-0.4 0.7-0.8v-1.9c0-0.4-0.3-0.7-0.7-0.7h-23.6c-0.4 0-0.7 0.3-0.7 0.7zm33.5 48.1q-0.6-1.5-1.1-2.9-0.4-0.9-0.7-1.7h-13.6c-0.7 0-1.3-0.6-1.3-1.3 0-0.7 0.6-1.3 1.3-1.3h12.6c-4.4-11.5-7.1-20-7.6-35.6h-21.2c-0.5 15.6-3.2 24.1-7.6 35.6h12.6c0.7 0 1.3 0.6 1.3 1.3 0 0.7-0.6 1.3-1.3 1.3h-13.6q-0.3 0.8-0.6 1.7-0.6 1.4-1.2 2.9zm16.1-19.9h-20.6c1.4 5 3.3 9.9 5.7 16q0.7 1.9 1.5 3.9h13.4z"/><path class="g" d="m37.4 60.1c-0.7 0-1.3 0.6-1.3 1.3 0 0.7 0.6 1.3 1.3 1.3 0.7 0 1.2-0.6 1.2-1.3 0-0.7-0.5-1.3-1.2-1.3z"/><path fill-rule="evenodd" class="g" d="m169.1 30.8q-0.4 0.3-0.9 0.5zm-19.1-13.4l0.3-0.5 8.1 14.4h-0.4l-4.4 7.6 4.8 8.4c0.4 0.6 0.4 1.5 0 2.2l-5.5 9.4c-0.4 0.7-1.1 1.2-1.9 1.2l-9.7-0.1-4.8 8.4c-0.4 0.7-1.2 1.1-2 1.1h-10.9q-0.6 0-1.1-0.3-0.5-0.3-0.8-0.8l-4.9-8.4h-9.6q-0.6 0-1.1-0.3-0.5-0.3-0.8-0.9l-5.5-9.5c-0.4-0.6-0.4-1.5 0-2.2l4.9-8.3-4.8-8.4c-0.4-0.7-0.4-1.6 0-2.2l5.5-9.5c0.4-0.7 1.1-1.1 1.9-1.1h9.7l5-8.6c0.4-0.7 1.1-1.2 1.9-1.2l11 0.1c0.7 0 1.5 0.4 1.9 1.1l4.8 8.4zm-29 2.1l4.2 7.3h8.3l4.2-7.2-4.1-7.3h-8.4zm-16.6 9.7l4.2 7.3h8.3l4.2-7.2-4.1-7.3h-8.4zm12.5 26.2l4.2-7.2-4.2-7.3h-8.3l-4.3 7.2 4.2 7.3zm20.6 2.3l-4.1-7.3h-8.4l-4.2 7.2 4.1 7.3h8.4zm0.1-18.9l-4.2-7.3h-8.4l-4.2 7.2 4.2 7.3h8.4zm16.4 9.5l-4.2-7.2-8.4-0.1-4.2 7.3 4.2 7.2 8.4 0.1zm0.2-19.3l-4.2-7.3h-8.4l-4.2 7.3 4.2 7.2 8.4 0.1z"/><path fill-rule="evenodd" class="g" d="m209.6 31.5c-0.1-0.3-0.8-7.6 4-12.3q0 0 0.1-0.1c0.5-0.3 1.2-0.2 1.5 0.3 1 1.1 2.6 1.6 4 1.1q0.1 0 0.2 0h0.1c1-0.4 1.8-2.3 1.9-4.4 0.1-2-0.5-4.5-2.5-5.5-0.4-0.3-0.6-0.7-0.5-1.2 0.1-0.6 0.6-1 1.2-0.9 0.2 0 20.4 3.1 19.2 22.9-0.2 5.3-3.3 9.9-8.1 11.9-0.3 0.1-0.7 0.1-0.9 0-0.6-0.3-0.8-0.9-0.6-1.5q0.5-0.9 0.6-1.9c0.1-1.3-0.2-2.7-0.9-3.9-0.8 0.5-1.7 0.6-2.6 0.4q-0.1-0.1-0.2-0.1h-0.1c-1.2-0.5-2-1.9-2.1-3.6q0-0.8 0.1-1.5c-2.4 1.1-5.7 3.5-5.4 8.8q0 0.8 0.3 1.6c0.1 0.3 0.1 0.6-0.1 0.9-0.2 0.5-0.9 0.7-1.4 0.4-4.2-2.1-7-6.2-7.8-11.4zm2.1-0.3c0.7 4.3 2.7 6.9 4.7 8.5-0.3-9.9 9.9-11.4 10-11.5 0.5 0 0.9 0.2 1.1 0.6 0.3 0.6 0.1 1.2-0.4 1.5-0.8 0.4-1 1.4-1 2.2 0 0.7 0.2 1.3 0.7 1.7 0.5 0.2 1.1 0 1.4-0.4 0.2-0.2 0.5-0.4 0.8-0.4q0 0 0.1 0 0.4 0 0.7 0.3c2.3 2.2 2.3 5.5 2.2 6.3 2.8-2 4.5-5.2 4.7-8.7 0.4-7.4-2.3-13.1-8.2-17q-2.7-1.7-5.8-2.7c0.7 1.4 1 3 0.9 4.6-0.2 3.1-1.5 5.6-3.4 6.3l-0.1 0.1q-0.2 0.1-0.4 0.1c-1.9 0.5-3.8 0.1-5.4-1.1-3.1 3.9-2.6 9.6-2.6 9.6z"/><path fill-rule="evenodd" class="g" d="m254 57.2v3.9c0 0.6-0.5 1.1-1.1 1.1h-57.4c-0.6 0-1.1-0.5-1.1-1.1v-3.9c0-0.6 0.5-1.1 1.1-1.1h26.1l-21.8-22.1c-0.4-0.4-0.4-1.1 0-1.5 0.4-0.5 1.1-0.5 1.5-0.1l22.9 23.2 21-21.3h-3c-0.6 0-1.1-0.5-1.1-1.1 0-0.6 0.5-1.1 1.1-1.1h5.7c0.6 0 1 0.5 1 1.1v5.8c0 0.6-0.4 1.1-1 1.1-0.6 0-1.1-0.5-1.1-1.1v-3.1l-20 20.2h26.1c0.6 0 1.1 0.5 1.1 1.1zm-57.4 1.1v1.7h55.2v-1.7z"/><path class="g" d="m252.9 66.7h-57.4c-0.6 0-1.1 0.5-1.1 1.1 0 0.6 0.5 1.1 1.1 1.1h57.4c0.6 0 1.1-0.5 1.1-1.1 0-0.6-0.5-1.1-1.1-1.1z"/></svg>