<?xml version="1.0" encoding="UTF-8"?><svg id="a" xmlns="http://www.w3.org/2000/svg" viewBox="0 0 362.83 362.83"><defs><style>.b{stroke-width:0px;}</style></defs><path class="b" d="m158.21,110.74l52.64,52.64c2.27,2.27,5.73,2.82,8.57,1.41,2.87-1.42,4.5-4.51,4.06-7.69-1.84-13.2-5.78-25.93-11.72-37.86-5.93-11.92-13.72-22.74-23.14-32.17l-3.37-3.36,1.99-1.99c3.98-3.98,4.51-10.11,1.62-14.67l11.48-23.09c2.1-4.23,1.27-9.32-2.07-12.66l-6.02-6.02c-3.34-3.34-8.43-4.17-12.66-2.07l-23.09,11.48c-4.57-2.89-10.69-2.36-14.67,1.62l-1.98,1.98-3.37-3.37C117.67,16.13,92.8,3.75,66.43.07c-3.34-.47-6.58,1.4-7.88,4.54-1.15,2.79-.51,5.97,1.62,8.09l52.64,52.65c-3.42,3.69-4.05,9.03-1.89,13.33l-34.28,38.73c-1.95,2.2-1.74,5.56.46,7.5,2.19,1.94,5.55,1.75,7.5-.46l33.45-37.79,18.83,18.83L16.52,212.05c-1.4,1.24-3.53,1.17-4.86-.15-1.32-1.32-1.39-3.45-.15-4.86l56.68-64.04c1.95-2.2,1.74-5.56-.46-7.5-2.2-1.95-5.56-1.74-7.5.46L3.55,200c-4.96,5.6-4.7,14.13.59,19.42,5.3,5.3,13.83,5.54,19.42.59l121.31-107.38c1.67.84,3.49,1.26,5.31,1.26,2.89,0,5.76-1.06,8.02-3.15h0Zm44.05,13.24c3.92,7.87,6.89,16.12,8.86,24.63l-45.38-45.38,12.01-12.01,3.37,3.36c8.61,8.61,15.72,18.5,21.14,29.39h0Zm-17.93-91.25c.14-.07.3-.04.41.07l6.03,6.02c.11.11.13.27.07.41l-9.75,19.62-16.37-16.37,19.61-9.75ZM74.97,12.46c20.32,4.76,39.21,15.2,54,29.98l3.37,3.37-12.01,12.01L74.97,12.46Zm45.67,61.75c-.46-.46-.46-1.21,0-1.67l28.71-28.71c.46-.46,1.21-.46,1.67,0l28.71,28.71c.46.46.46,1.21,0,1.67l-28.71,28.71c-.46.46-1.21.46-1.67,0l-28.71-28.71Zm118.17,119.41c2.08,2.08,5.44,2.08,7.52,0,2.08-2.08,2.08-5.44,0-7.52l-13.63-13.63c-2.08-2.08-5.44-2.08-7.52,0-2.08,2.08-2.08,5.44,0,7.52l13.63,13.63Zm21.93-24.1c2.75.8,5.76-.78,6.58-3.63.81-2.82-.81-5.77-3.63-6.58l-21.15-6.12c-2.82-.81-5.77.81-6.58,3.63-.81,2.82.81,5.77,3.63,6.58l21.15,6.12Zm-51.22,13.74c-2.82.82-4.44,3.76-3.63,6.58l6.12,21.15c.82,2.85,3.82,4.43,6.58,3.63,2.82-.82,4.44-3.76,3.63-6.58l-6.12-21.15c-.82-2.82-3.76-4.44-6.58-3.63h0Zm93.19,46.7c0,2.94,2.38,5.31,5.31,5.31s5.31-2.38,5.31-5.31-2.38-5.31-5.31-5.31-5.31,2.38-5.31,5.31Zm-26.34,35.08c0-12.89-10.49-23.39-23.39-23.39s-23.39,10.49-23.39,23.39,10.49,23.39,23.39,23.39,23.39-10.49,23.39-23.39Zm-36.14,0c0-7.03,5.72-12.76,12.76-12.76s12.76,5.72,12.76,12.76-5.72,12.76-12.76,12.76-12.76-5.72-12.76-12.76Zm100.28-109.49c0-8.79-7.15-15.94-15.94-15.94s-15.94,7.15-15.94,15.94,7.15,15.94,15.94,15.94,15.94-7.15,15.94-15.94Zm-15.94,5.31c-2.93,0-5.31-2.38-5.31-5.31s2.38-5.31,5.31-5.31,5.31,2.38,5.31,5.31-2.38,5.31-5.31,5.31Zm-85.62,175.39c0,2.94,2.38,5.31,5.31,5.31s5.31-2.38,5.31-5.31-2.38-5.31-5.31-5.31-5.31,2.38-5.31,5.31ZM316.41,22.68c-8.79,0-15.94,7.15-15.94,15.94s7.15,15.94,15.94,15.94,15.94-7.15,15.94-15.94-7.15-15.94-15.94-15.94Zm0,21.26c-2.93,0-5.31-2.38-5.31-5.31s2.38-5.31,5.31-5.31,5.31,2.38,5.31,5.31-2.38,5.31-5.31,5.31Zm41.1,108.1c2.94,0,5.31-2.38,5.31-5.31V15.95C362.83,7.16,355.67,0,346.88,0h-106.91c-9.66-.11-14.88,11.37-8.92,18.64l55.3,68.69c1.59,1.98,2.37,4.46,2.19,6.99l-6.8,97.87c-.26,3.81-2.62,7.09-6.14,8.56l-71.14,29.74c-9.49,3.97-14.57,14.08-12.08,24.06l8.28,33.22c.87,3.51-.21,7.23-2.84,9.71l-48.17,45.58c-7.42,7.03-2.33,19.78,7.87,19.78h189.36c8.79,0,15.94-7.15,15.94-15.94v-175.39c0-2.94-2.38-5.31-5.31-5.31s-5.31,2.38-5.31,5.31v175.39c0,2.93-2.38,5.31-5.31,5.31h-189.35c-.62.06-1.06-1.05-.57-1.42l48.17-45.58c5.41-5.12,7.65-12.78,5.85-20l-8.28-33.22c-1.21-4.84,1.26-9.76,5.86-11.68l71.14-29.74c7.25-3.03,12.1-9.79,12.64-17.63l6.8-97.87c.36-5.21-1.24-10.32-4.52-14.39L239.33,11.97c-.41-.41.09-1.4.64-1.34h106.91c2.93,0,5.31,2.38,5.31,5.31v130.77c0,2.94,2.38,5.32,5.31,5.32h0Zm-41.1,168.28c8.79,0,15.94-7.15,15.94-15.94s-7.15-15.94-15.94-15.94-15.94,7.15-15.94,15.94,7.15,15.94,15.94,15.94Zm0-21.26c2.93,0,5.31,2.38,5.31,5.31s-2.38,5.31-5.31,5.31-5.31-2.38-5.31-5.31,2.38-5.31,5.31-5.31Zm7.56-196.65c0,2.94,2.38,5.31,5.31,5.31s5.31-2.38,5.31-5.31-2.38-5.31-5.31-5.31-5.31,2.38-5.31,5.31Z"/></svg>