<svg version="1.2" xmlns="http://www.w3.org/2000/svg" viewBox="0 0 90 90" width="90" height="90">
	
<path fill-rule="evenodd" class="a" d="m45.1 14.4c1.2-1.2 2.7-1.8 4.3-1.8 3.6 0 6.6 3.2 6.6 7.1v24.9l11.1 8.1c2.7 1.9 4.3 5.2 4.3 8.7v3.9c0 1.2-0.9 2.1-2 2.1h-13.4v3.5c0 2.7-2 4.9-4.5 4.9h-0.6v6.3c0 1.2-0.9 2.1-2 2.1h-7.6c-1.1 0-2-0.9-2-2.1v-6.3h-0.6c-2.5 0-4.5-2.2-4.5-4.9v-3.5h-3.8v4.9c0 1.2-0.9 2.1-1.9 2.1-1.1 0-2-0.9-2-2.1v-4.9h-5.7c-1.1 0-1.9-0.9-1.9-2.1v-3.9c0-3.5 1.6-6.8 4.2-8.7l11.1-8.1v-13.7c0-3.8 1.5-7.4 4.1-10 0 0 6.8-6.5 6.8-6.5zm-1.9 61.4v4.2h3.8v-4.2zm-8.9-12.6v-13.6l-9 6.6c-1.6 1.1-2.6 3.1-2.6 5.2v1.8zm18-43.5c0-1.6-1.3-2.9-2.8-2.9-0.6 0-1.3 0.2-1.8 0.7l-1.8 1.8v9.6c0 1.2-0.9 2.1-2 2.1-1 0-1.9-0.9-1.9-2.1v-5.8l-1 1c-1.8 1.7-2.8 4.2-2.8 6.8v40c0 0.4 0.3 0.7 0.6 0.7h12.8c0.4 0 0.7-0.3 0.7-0.7v-5.6c0-1.2 0.8-2.1 1.9-2.1h13.4v-1.8c0-2.1-0.9-4.1-2.5-5.2l-15.8-11.5c-0.9-0.7-1.1-2-0.6-2.9 0.6-1 1.8-1.3 2.7-0.6l0.9 0.6c0 0 0-22.1 0-22.1z"/>
<path class="a" d="m-255.1-0.7v2.8c0 1.2 0.9 2.1 1.9 2.1 1.1 0 1.9-0.9 1.9-2.1v-2.8c0-1.1-0.8-2.1-1.9-2.1-1 0-1.9 1-1.9 2.1z"/>
<path class="a" d="m-255.1 10.5v2.8c0 1.2 0.9 2.1 1.9 2.1 1.1 0 1.9-0.9 1.9-2.1v-2.8c0-1.1-0.8-2.1-1.9-2.1-1 0-1.9 1-1.9 2.1z"/>
<path class="a" d="m-255.1 21.7v2.8c0 1.2 0.9 2.1 1.9 2.1 1.1 0 1.9-0.9 1.9-2.1v-2.8c0-1.1-0.8-2.1-1.9-2.1-1 0-1.9 1-1.9 2.1z"/><path class="a" d="m-266.6 44.1v-2.8c0-1.2-0.9-2.1-1.9-2.1-1.1 0-2 0.9-2 2.1v2.8c0 1.2 0.9 2.1 2 2.1 1 0 1.9-0.9 1.9-2.1z"/><path class="a" d="m-276.9 44.1v-9.8c0-1.2-0.8-2.1-1.9-2.1-1 0-1.9 0.9-1.9 2.1v9.8c0 1.2 0.9 2.1 1.9 2.1 1.1 0 1.9-0.9 1.9-2.1z"/></svg>