<?xml version="1.0" encoding="utf-8"?>
<!-- Generator: Adobe Illustrator 28.0.0, SVG Export Plug-In . SVG Version: 6.00 Build 0)  -->
<svg version="1.1" id="Layer_1" xmlns="http://www.w3.org/2000/svg" xmlns:xlink="http://www.w3.org/1999/xlink" x="0px" y="0px"
	 viewBox="0 0 128 128" style="enable-background:new 0 0 128 128;" xml:space="preserve">
<g id="Ijk0WK.tif">
	<g>
		<path d="M49,0c0.3,4.8-1.8,8.6-4.4,12.4c-3.9,5.6-3.9,9.8,0,15.5c6.2,9,6.2,15.5-0.1,24.7c-1.1,1.6-2.5,3.2-2.6,5.3
			c-0.1,1.6-0.7,2.2-2.4,2.5c-5.2,0.7-6.5-0.8-4.9-5.9c0.9-2.7,2.6-5,4.2-7.3c3.2-4.8,3.2-9.1,0.1-13.8c-7-10.5-7-15.9,0-26.3
			C40.3,4.8,41.5,2.7,41,0C43.7,0,46.3,0,49,0z"/>
		<path d="M72,0c-0.6,4.9-2.4,9.2-5.4,13.1c-3.7,4.9-3.4,8.9,0.2,14.1c6.6,9.7,6.6,15.9,0.1,25.5c-0.8,1.2-1.8,2.5-2,3.9
			c-0.5,3.6-2.7,3.8-5.6,3.6c-2.3-0.1-3.3-0.6-2.7-3.2c0.7-3.5,2.3-6.5,4.4-9.4c4.1-5.9,4.1-9.5,0-15.4c-6.2-8.9-6.2-15.7,0-24.6
			C62.5,5.4,63.8,2.9,64,0C66.6,0,69.3,0,72,0z"/>
		<path d="M93.9,0c0.6,4.8-1.6,8.6-4.2,12.4c-4.1,5.8-4,9.5-0.1,15.4c6.1,8.9,6.1,15.9,0.1,24.7c-0.9,1.4-2.4,2.8-2.4,4.2
			c-0.3,5.4-4.2,3.4-6.9,3.5c-2.1,0.1-1.4-1.9-1.3-3c0.4-3.4,2.1-6.2,4-8.9c4.2-5.9,4.2-10,0.2-15.8c-6.2-9.1-6.2-15.6,0.1-24.6
			C85,5.4,86.7,3.1,85.9,0C88.6,0,91.3,0,93.9,0z"/>
		<path d="M0.1,82.9c1.5-0.1,3-0.1,4.4-0.2c2.5-0.3,3.8,0.6,3.4,3.3c-0.5,3.1,0.6,4.6,3.9,4c2.6-0.5,3.5,0.6,3.4,3.2
			c-0.2,5.3-0.2,10.6,0,15.9c0.1,3-0.6,4.2-3.8,3.8c-1.6-0.2-4.1-0.8-3.5,2.3c0.9,5.1-1.8,5.8-5.9,5.4c-0.6-0.1-1.3,0.1-1.9,0.2
			C0.1,108.2,0.1,95.5,0.1,82.9z"/>
		<path d="M37.4,101.4c0-7.3,0.2-14.6-0.1-22c-0.1-3.4,0.7-4.5,4.3-4.6c4.3-0.1,3.4,2.4,3.5,4.8c0,1,0.1,2,0,3
			c-0.4,2.8,0.7,3.7,3.6,3.7c3.1,0.1,4.3-0.9,3.9-4c-0.2-1.3,0.1-2.7-0.1-4c-0.4-3.1,1.2-3.5,3.8-3.4c2.4,0.1,4.4,0,3.9,3.3
			c-0.2,1.3,0.1,2.7-0.1,4c-0.3,2.8,0.4,4.2,3.7,4.2c3.2,0,4.1-1.2,3.8-4.1c-0.2-1.3,0.1-2.7-0.1-4c-0.4-3.2,1.4-3.3,3.9-3.3
			c2.5,0,4.3,0.2,3.9,3.4c-0.2,1.3,0.1,2.7-0.1,4c-0.4,3,0.6,4,3.8,4.1c3.4,0,3.9-1.5,3.6-4.2c-0.1-1.2,0.1-2.3,0-3.5
			c-0.5-3.3,1.1-3.7,3.9-3.8c3.2-0.1,3.9,1,3.9,4c-0.1,15.1-0.2,30.3,0,45.4c0,3.5-1.5,3.5-4.1,3.7c-3.2,0.2-4.2-0.9-3.7-3.9
			c0.2-1.3-0.1-2.7,0.1-4c0.5-3.3-1.5-3.3-3.9-3.3c-2.3,0-4,0.2-3.6,3.2c0.2,1.1-0.1,2.3,0,3.5c0.4,3.1-0.2,4.6-4.1,4.7
			c-4,0-3.5-2-3.7-4.5c-0.2-2.2,1.6-5.3-1.4-6.6c-3.8-1.7-5.6,0.2-6.1,4.5c-0.2,2.1,2.1,5.6-2,6.4c-3.6,0.7-6.5,0.3-5.8-4.9
			c0.2-1.8,2.2-5.3-1.8-6.1c-3.5-0.7-5.9-0.1-5.6,4.7c0.2,2,2.9,6.3-2.9,6.4c-3.7,0.1-4.9-0.8-4.7-4.6
			C37.7,116,37.4,108.7,37.4,101.4z"/>
		<path d="M127.9,101.9c0,5.3-0.1,10.6,0.1,15.9c0.1,2.8-1.3,3-3.4,2.8c-1.9-0.2-4.9,0.9-4.4-2.8c0.6-4.2-0.9-5.7-5.1-5
			c-2.3,0.4-2.3-1.1-2.3-2.7c0-5.6,0.1-11.3,0-16.9c0-2.2,0.4-3.6,3-3.2c3.4,0.6,4.9-0.6,4.3-4.2c-0.6-4,2.4-2.9,4.5-3.1
			c2.6-0.3,3.4,0.6,3.3,3.3C127.7,91.2,127.9,96.5,127.9,101.9z"/>
		<path d="M30.1,125c-5.8-3.7-8.7-7.9-7.9-14.6c0.7-5.7,0.1-11.6,0.1-17.4c0-8.8,0-8.8,7.8-15.1c0,8.1,0,15.8,0,23.6
			C30.1,109.1,30.1,116.7,30.1,125z"/>
		<path d="M98,124.9c0-15.8,0-31.2,0-47.1c4.6,3.8,8.6,7,7.8,13.9c-0.8,5.9-0.6,12,0,17.9C106.4,116.4,104.1,121.2,98,124.9z"/>
	</g>
</g>
</svg>
