<?xml version="1.0" encoding="utf-8"?>
<!-- Generator: Adobe Illustrator 28.0.0, SVG Export Plug-In . SVG Version: 6.00 Build 0)  -->
<svg version="1.1" id="Layer_1" xmlns="http://www.w3.org/2000/svg" xmlns:xlink="http://www.w3.org/1999/xlink" x="0px" y="0px"
	 viewBox="0 0 128 128" style="enable-background:new 0 0 128 128;" xml:space="preserve">
<g id="wK5SQf.tif">
	<g>
		<path d="M125.8,27c-0.2-1.9-1-3.6-2.4-4.9c-3.4-3.4-6.7-6.7-10.1-10.1c-3.3-3.3-6.5-6.6-9.8-9.8c-2.7-2.6-6.8-2.9-9.9-0.9
			c-3,2-4.3,6-2.9,9.4c0.4,1,0.2,1.5-0.5,2.3c-16.5,16.5-33,33-49.6,49.5c-2.9,2.9-4.9,6.3-5.2,10.5c-0.3,3.4-1.6,6.3-4,8.7
			c-1,0.9-1.8,2-3.3,1.1c-0.2-0.1-0.5-0.1-0.7,0c-1.7,0.9-2.6-0.3-3.6-1.3c-0.4-0.5-0.8-0.9-1.3-1.3c-0.6-0.5-0.5-0.8,0-1.3
			c1.5-1.9,1.4-4.1-0.3-5.9c-0.9-0.9-1.8-1.9-2.7-2.7c-1.8-1.7-4.3-1.7-6,0C10,73.6,6.6,77,3.3,80.4c-1.7,1.8-1.7,4.2,0,6
			C4.1,87.3,5,88.1,5.8,89c1.9,1.9,4,2.1,6.1,0.4c0.6-0.5,0.8-0.3,1.2,0.1c0.8,0.9,1.7,1.7,2.6,2.6c0.4,0.4,0.5,0.7,0.3,1.3
			c-0.5,1.6-0.2,3.1,0.7,4.4c0.5,0.6,0.4,1-0.1,1.5c-2.9,2.9-5.9,5.8-8.8,8.7c-2.4,2.5-2.4,5.7,0,8.2c0.5,0.6,1.1,1.1,1.7,1.7
			c2.7,2.7,5.9,2.7,8.7,0c2.9-2.9,5.8-5.8,8.7-8.7c0.4-0.4,0.7-0.5,1.2-0.1c1.2,1,2.6,1.4,4,0.9c1.6-0.5,2.1,0.5,2.9,1.4
			c-1.4,0.5-2.7,1-3.8,1.7c-3,2-3.3,4.8-0.9,7.5c1.5,1.6,3.2,3.2,4.7,4.8c1,1.1,2.2,2,3.5,2.7h2.2c2.6-1.4,3.7-3.8,4.6-6.5
			c2.4,1.2,4.3,1,6.2-0.8c0.5-0.5,1-1.1,1.6-1.6c2.2-1.9,2.8-4.1,1.4-6.8c1.2-0.4,2.3-0.8,3.4-1.4c3.7-2.1,4.1-5.1,1.2-8.1
			c-1.7-1.8-3.5-3.5-5.2-5.2c-3-2.9-6.1-2.5-8.1,1.1c-0.6,1-1,2.1-1.5,3.2c-0.9-0.8-2-1.4-1.3-3c0.3-0.6,0.1-1.5-0.1-2.2
			c-0.1-0.3-0.3-0.6,0-0.9c2.4-2.7,5.2-4.9,8.9-5.2c4.8-0.4,8.6-2.3,11.9-5.7C80.1,68.4,96.5,52,112.9,35.5c0.7-0.7,1.2-0.9,2.2-0.5
			c4.9,2,10.1-1.2,10.7-6.5C125.9,28,125.9,27.5,125.8,27z M9.9,86.1c-0.6,0.6-1,0.6-1.6,0c-0.8-0.9-2.2-1.7-2.3-2.6
			c-0.1-1,1.4-1.8,2.2-2.6c2.4-2.5,4.9-4.9,7.3-7.3c0.3-0.3,0.5-0.6,0.9-0.7c0.2,0.2,0.5,0.5,0.8,0.7c0.8,0.9,2.2,1.5,2.2,2.5
			c0,1.1-1.4,1.7-2.2,2.5C14.8,81.1,12.3,83.6,9.9,86.1z M15.5,86.2c-0.1-1,1.6-1.9,2.5-2.8c1.1-1.1,1.1-1.1,2.2,0
			c0.6,0.6,1.2,1.2,1.8,1.8c0.1,0.1,0.3,0.3,0.5,0.5c-0.2,0.2-0.3,0.4-0.5,0.6c-0.9,0.9-1.9,1.9-2.8,2.8c-0.4,0.4-0.6,0.5-1.1,0
			C17.3,88.1,15.7,87.3,15.5,86.2z M24.3,106.4c-3,2.9-6,5.9-8.9,8.9c-0.4,0.4-0.9,0.7-1.5,0.8c-0.2-0.1-0.7-0.1-0.9-0.4
			c-0.9-0.8-1.9-1.7-2.6-2.7c-0.6-0.8-0.4-1.6,0.3-2.4c3-3,6-6,9-9c0.5-0.5,0.7-0.3,1.1,0.1c1.2,1.2,2.4,2.4,3.6,3.6
			C24.6,105.7,24.7,105.9,24.3,106.4z M32.4,105.6c-1,1-1.6,1-2.5,0c-3.2-3.2-6.4-6.3-9.5-9.5c-1-1-1-1.7,0-2.7c2-2,4-4,6-6
			c0.4-0.4,0.7-0.7,1.3-0.7c0.5-0.1,0.9,0.2,1.3,0.6c3.2,3.2,6.4,6.4,9.6,9.6c0.9,0.9,0.9,1.6,0,2.5
			C36.6,101.4,34.5,103.5,32.4,105.6z M42.2,118.7c-0.5,2-1,3.6-1.9,5c-0.4,0.6-0.8,0.7-1.3,0.2c-2-2-4.1-4-6.1-6.1
			c-0.6-0.6-0.4-1,0.2-1.4c1.4-0.9,3.1-1.4,4.7-1.8c0.3-0.1,0.5,0.1,0.8,0.3c1.1,1.1,2.2,2.2,3.3,3.3
			C42,118.3,42.2,118.6,42.2,118.7z M47.5,104.6c0.4-1.6,0.9-3.1,1.8-4.5c0.4-0.7,0.9-0.8,1.5-0.2c2,2,3.9,3.9,5.9,5.9
			c0.4,0.4,0.6,0.9,0,1.3c-1.5,1-3.2,1.5-5,2c-0.3,0.1-0.5-0.2-0.7-0.5c-1-1-2-2-3-3C47.7,105.4,47.4,105.1,47.5,104.6z M43.8,106.9
			c2.3,2.4,4.7,4.7,7.1,7c0.7,0.7,0.8,1.3,0,2c-0.7,0.7-1.4,1.4-2.1,2.1c-0.5,0.5-1,0.6-1.6,0.1c-3.6-3.6-7.3-7.3-10.9-10.9
			c1.3-1.3,2.6-2.6,4-3.9C41.4,104.5,42.6,105.7,43.8,106.9z M110.4,32.8C93.7,49.4,77.1,66,60.5,82.7c-2.4,2.4-5.2,3.8-8.6,4
			c-4.3,0.4-7.8,2.2-10.6,5.3c-0.8,0.9-1.3,0.9-2.1,0c-1.8-1.9-3.7-3.8-5.6-5.6c-0.6-0.6-0.7-0.9,0-1.5c2.8-2.5,4.7-5.5,5.4-9.2
			c0.3-1.7,0.3-3.4,0.9-5c0.4-1.1,0.7-2.6,1.6-3c1.1-0.5,1.7,1.2,2.5,1.9c1.1,1,2.1,2.1,3.2,3.2c1.1,1.1,2.3,1.3,3.1,0.4
			c0.9-0.9,0.7-1.9-0.5-3.1c-1.6-1.6-3.2-3.3-4.9-4.8c-0.6-0.6-0.6-0.9,0-1.5c1.3-1.3,1.3-1.3,2.6,0c0.9,0.9,1.8,1.8,2.7,2.7
			c1,1,2.2,1.1,3,0.3c0.9-0.9,0.8-1.9-0.3-3c-1.1-1.1-2.1-2.2-3.3-3.3c-0.6-0.6-0.7-0.9,0-1.5c1.3-1.2,1.3-1.3,2.6,0
			c1,1,1.9,2,2.9,2.9c0.9,0.9,2,0.9,2.8,0.2c0.8-0.8,0.8-1.9-0.1-2.9c-1.2-1.2-2.4-2.4-3.6-3.6c-0.5-0.5-0.4-0.7,0-1.1
			c1.4-1.5,1.4-1.5,2.9,0c0.9,0.9,1.8,1.8,2.7,2.7c1,1,2,1,2.9,0.2c0.8-0.8,0.8-1.9-0.1-2.9c-1.2-1.2-2.3-2.4-3.5-3.5
			c-0.5-0.5-0.6-0.7,0-1.2c1.4-1.4,1.4-1.4,2.9,0c0.9,0.9,1.8,1.8,2.7,2.6c1,1,2.1,1.1,3,0.2c0.8-0.8,0.7-1.9-0.3-3
			c-1.1-1.2-2.3-2.3-3.4-3.4c-0.4-0.4-0.6-0.6-0.1-1.1c1.5-1.5,1.4-1.5,2.9,0c1.4,1.4,2.9,2.9,4.3,4.3c1,1,2.1,1.1,3,0.3
			c0.8-0.8,0.8-1.9-0.3-2.9c-1.6-1.7-3.3-3.3-5-4.9c-0.6-0.6-0.8-0.9-0.1-1.6c1.3-1.2,1.3-1.2,2.5,0c0.9,0.9,1.9,1.9,2.8,2.8
			c1,1,2.2,1.1,3,0.3c0.9-0.8,0.8-1.9-0.2-2.9c-1.1-1.2-2.3-2.3-3.5-3.4c-0.5-0.5-0.5-0.8,0-1.3c1.4-1.4,1.4-1.4,2.7-0.1
			c0.9,0.9,1.8,1.8,2.7,2.7c1.1,1.1,2.2,1.2,3.1,0.3c0.9-0.9,0.8-1.9-0.4-3c-1.1-1.1-2.1-2.2-3.3-3.3c-0.6-0.5-0.6-0.8,0-1.4
			c1.4-1.3,1.3-1.4,2.7,0c0.9,0.9,1.9,1.9,2.8,2.8c0.9,0.9,2,0.9,2.8,0.2c0.8-0.8,0.8-1.9-0.1-2.9c-1.2-1.2-2.3-2.4-3.5-3.5
			c-0.5-0.4-0.6-0.7-0.1-1.2c1.4-1.4,1.4-1.5,2.9,0c0.9,0.9,1.8,1.8,2.7,2.7c1,1,2,1,2.9,0.2c0.8-0.8,0.7-1.9-0.2-2.9
			c-1.2-1.2-2.3-2.4-3.5-3.5c-0.5-0.5-0.5-0.7,0-1.2c1.4-1.4,1.4-1.4,2.8-0.1c1.5,1.5,2.9,3,4.4,4.4c1.1,1,2.1,1.1,3,0.3
			c0.8-0.8,0.7-2-0.2-3c-1-1-1.9-2-2.9-2.9c-0.9-0.9-1.9-1.8-2.9-2.8c1-0.9,1.8-1.8,2.7-2.7c0.2,0,0.3,0.3,0.5,0.4
			c5.3,5.3,10.7,10.7,16,16C111,31.8,111,32.1,110.4,32.8z M119.7,31.5c-1.5,0.7-3.3,0.4-4.6-0.9c-3.4-3.4-6.8-6.8-10.2-10.2
			c-3.1-3.1-6.2-6.2-9.3-9.4c-1.9-1.9-2-4.3-0.4-6c1.7-1.7,4.2-1.6,6.1,0.3c6.5,6.4,12.9,12.9,19.3,19.3c0.9,0.9,1.5,1.9,1.5,2.6
			C122,29.5,121.2,30.7,119.7,31.5z"/>
		<path d="M125.8,28.5c0-0.5,0-1,0-1.5c0.1,0,0.1,0,0.2,0c0,0.5,0,1,0,1.5l-0.1,0L125.8,28.5z"/>
	</g>
</g>
</svg>
