<?xml version="1.0" encoding="utf-8"?>
<!-- Generator: Adobe Illustrator 28.0.0, SVG Export Plug-In . SVG Version: 6.00 Build 0)  -->
<svg version="1.1" id="Layer_1" xmlns="http://www.w3.org/2000/svg" xmlns:xlink="http://www.w3.org/1999/xlink" x="0px" y="0px"
	 viewBox="0 0 128 128" style="enable-background:new 0 0 128 128;" xml:space="preserve">
<g id="_x30_spVtE.tif">
	<g>
		<path d="M21.8,128c-0.1-0.5-0.6-0.5-0.9-0.7c-2.8-1.6-5.5-3.2-8.3-4.8c-0.8-0.4-0.8-0.8-0.4-1.5c1.4-2.3,1.4-2.4,3.8-1
			c1.8,1,3.6,2.1,5.4,3.1c0.6,0.3,1,0.4,1.6,0c5.6-3.3,11.3-6.6,16.9-9.8c0.6-0.3,0.7-0.7,0.7-1.3c0-6.5,0-13.1,0-19.6
			c0-0.7-0.2-1-0.8-1.3c-5.6-3.2-11.2-6.5-16.8-9.8c-0.6-0.3-1-0.3-1.6,0c-5.6,3.3-11.3,6.6-16.9,9.8c-0.5,0.3-0.7,0.6-0.7,1.2
			c0,6.5,0,13.1,0,19.6c0,0.7,0.3,1,0.8,1.3c1.7,0.9,3.4,2,5.1,2.9c0.6,0.3,0.7,0.6,0.3,1.2c-1.4,2.6-1.4,2.6-3.9,1.1
			c-1.8-1-3.5-2.1-5.3-3.1c-0.6-0.3-0.8-0.7-0.8-1.4c0-8,0-15.9,0-23.9c0-0.8,0.3-1.2,0.9-1.5c6.2-3.5,12.3-7.1,18.4-10.6
			c0.7-0.4,0.9-0.8,0.9-1.7c0-6.4,0-12.8,0-19.2c0-0.8-0.2-1.2-0.9-1.6c-6.2-3.6-12.4-7.2-18.5-10.7C0.3,44.7,0,44.4,0,43.6
			c0-3.1,0-6.2,0-9.4c0-0.8,0.2-1,1-1c2.8,0,2.8,0,2.8,2.7c0,1.8,0,3.7,0,5.5c0,0.6,0.2,1,0.7,1.3c5.6,3.2,11.3,6.5,16.9,9.8
			c0.6,0.4,1.1,0.3,1.7,0c5.5-3.2,11-6.4,16.5-9.6c0.7-0.4,1-0.8,1-1.7c0-6.4,0-12.7,0-19.1c0-0.8-0.2-1.3-0.9-1.7
			c-5.5-3.1-11-6.3-16.5-9.6c-0.7-0.4-1.2-0.4-1.9,0c-5.5,3.2-10.9,6.4-16.5,9.6c-0.8,0.5-1.1,1-1,1.8c0.1,2.2,0,4.3,0,6.5
			c0,0.7-0.2,0.9-0.9,0.9C0,29.8,0,29.8,0,26.9c0-2.4,0-4.7,0-7.1c0-0.6,0.1-1,0.7-1.4c6.9-4,13.8-8,20.7-12c0.6-0.3,1-0.3,1.6,0
			c6.8,4,13.7,8,20.6,11.9c0.7,0.4,0.8,0.9,0.8,1.6c0,7,0,14.1,0,21.1c0,1,0.2,1.5,1.1,2c2.2,1.2,4.3,2.5,6.5,3.7
			c0.6,0.4,0.7,0.6,0.3,1.2c-1.4,2.6-1.4,2.6-3.9,1.1c-1.7-1-3.5-2-5.2-3c-0.5-0.3-0.9-0.3-1.5,0c-5.6,3.3-11.3,6.6-16.9,9.8
			c-0.5,0.3-0.8,0.6-0.8,1.3c0,6.5,0,13,0,19.5c0,0.7,0.2,1,0.8,1.4c5.6,3.2,11.3,6.5,16.9,9.8c0.6,0.3,1,0.3,1.6,0
			c5.5-3.2,11.1-6.5,16.7-9.7c0.6-0.3,0.9-0.7,0.9-1.4c0-6.5,0-13,0-19.5c0-0.7-0.2-1.1-0.8-1.5c-1.8-1-3.5-2-5.3-3
			c-0.5-0.3-0.8-0.5-0.3-1.1c0.6-0.8,0.9-2.1,1.6-2.4c0.6-0.2,1.6,0.8,2.4,1.2c1.8,1,3.5,2.1,5.3,3c0.8,0.4,1,0.9,1,1.8
			c0,7.1,0,14.2,0,21.2c0,0.9,0.3,1.3,1,1.7c5.5,3.1,11,6.3,16.5,9.5c0.7,0.4,1.1,0.4,1.8,0c6.2-3.6,12.3-7.2,18.5-10.8
			c0.7-0.4,1.1-0.4,1.8,0c2.6,1.6,5.3,3.1,8,4.6c0.6,0.4,0.7,0.6,0.3,1.2c-1.4,2.6-1.4,2.6-3.9,1.1c-1.5-0.9-3.1-1.8-4.6-2.7
			c-0.5-0.3-0.9-0.3-1.3,0c-5.7,3.3-11.3,6.6-17,9.9c-0.5,0.3-0.7,0.6-0.7,1.2c0,6.6,0,13.2,0,19.7c0,0.6,0.2,1,0.7,1.3
			c5.6,3.2,11.3,6.5,16.9,9.8c0.5,0.3,0.9,0.3,1.5,0c5.6-3.3,11.3-6.6,16.9-9.8c0.6-0.3,0.8-0.7,0.8-1.4c0-6.5,0-12.9,0-19.4
			c0-0.8-0.2-1.2-0.9-1.6c-2-1.1-4-2.3-5.9-3.4c-0.5-0.3-0.6-0.5-0.3-1c1.4-2.7,1.4-2.7,4.2-1.2c2,1.1,3.9,2.3,5.9,3.4
			c0.6,0.3,0.9,0.7,0.9,1.4c0,8,0,15.9,0,23.9c0,0.8-0.3,1.2-1,1.5c-6.6,3.8-13.3,7.7-19.9,11.5c-0.4,0.2-0.8,0.5-1.1,0.7
			c-0.2,0-0.3,0-0.5,0c-2.5-1-4.8-2.6-7.1-3.9c-4-2.3-7.9-4.6-11.9-6.9c-0.7-0.4-1.2-0.4-1.9,0c-5.6,3.2-11.1,6.5-16.7,9.7
			c-0.8,0.4-1.5,0.9-2.3,1.1c-0.2,0-0.3,0-0.5,0c-2.9-1.1-5.4-2.9-8.1-4.4c-0.6-0.3-0.7-0.9-0.4-1.5c0.1-0.1,0.1-0.2,0.2-0.3
			c1.3-2.6,1.4-2.6,3.9-1.2c1.2,0.7,2.4,1.4,3.7,2.1c0.7,0.4,1.3,0.4,2,0c5.3-3.1,10.6-6.2,16-9.3c0.6-0.4,1-0.9,1-1.6
			c0-6.3,0-12.7,0-19c0-0.8-0.3-1.2-1-1.6c-5.4-3.1-10.8-6.3-16.2-9.4c-0.6-0.3-1.1-0.3-1.6,0c-5.4,3.2-10.8,6.3-16.2,9.4
			c-0.8,0.5-1.1,1.1-1.1,2c0,6,0,12.1,0,18.1c0,1,0.4,1.5,1.2,2c2,1.1,4,2.3,6.1,3.5c0.8,0.5,1,1,0.6,1.8c-1.3,2.7-1.5,2.8-4.1,1.3
			c-1.6-0.9-3.2-1.9-4.9-2.8c-0.7-0.4-1.3-0.4-2,0c-5.6,3.3-11.2,6.5-16.8,9.8c-0.7,0.4-1.4,0.7-2.1,1C22.3,128,22,128,21.8,128z"/>
		<path d="M103.2,30.5c-0.2-3.3-2.9-6.4-6.1-7.2C95,22.8,95,22.8,95,25.2c-0.2,1.1,0.1,1.8,1.5,2c1.2,0.2,2.3,1.2,2.4,2.4
			c0.3,1.7,1.3,1.8,2.6,1.7c0.3,0,0.7,0,1,0C103.1,31.3,103.2,31,103.2,30.5z M103.2,30.5c-0.2-3.3-2.9-6.4-6.1-7.2
			C95,22.8,95,22.8,95,25.2c-0.2,1.1,0.1,1.8,1.5,2c1.2,0.2,2.3,1.2,2.4,2.4c0.3,1.7,1.3,1.8,2.6,1.7c0.3,0,0.7,0,1,0
			C103.1,31.3,103.2,31,103.2,30.5z M128,10.3c-0.3-0.4,0-0.9-0.2-1.3c0-0.3,0-0.6-0.1-0.9c-1.2-4.1-3.8-6.8-7.9-7.8
			c-4.3-1-8,0.3-10.7,3.7c-2.7,3.3-3.1,7.1-1.4,11.1c0.3,0.8,1.4,1.5,1,2.2c-0.3,0.8-1.3,1.2-1.9,1.9c-0.6,0.7-1,0.5-1.6,0
			c-2.7-2.3-5.8-3.6-9.3-3.7c-6.7-0.2-11.7,2.8-14.9,8.8c-0.2,0.5-0.4,0.6-1,0.5c-1.9-0.5-3.9-0.9-5.8-1.4C72,23,72,23,71.8,20.8
			c-0.7-5.8-6.5-10.2-12.1-9.2c-6.4,1.2-10.3,7.2-8.7,13.2c1.1,4.2,4.6,7.4,8.7,7.9c4.7,0.6,8.4-1.2,10.9-5.2
			c0.4-0.7,0.8-0.8,1.5-0.6c2.2,0.6,4.4,1.2,6.6,1.6c0.9,0.2,1,0.6,0.9,1.4c-0.2,0.8-0.1,1.7-0.1,2.5c0.4,4.8,2.5,8.6,6.4,11.5
			c0.4,0.3,0.5,0.5,0.2,1c-0.7,0.8-1.3,1.7-1.9,2.6c-0.4,0.6-0.8,0.8-1.5,0.6c-1.4-0.4-2.9-0.5-4.4-0.2c-6.1,1.1-10.1,7-8.6,12.9
			c1.5,6.2,7.9,9.7,13.8,7.6c7.4-2.6,9.7-11.8,4.2-17.4c-0.7-0.7-0.6-1.1-0.1-1.7c0.7-0.8,1.3-1.6,1.9-2.5c0.3-0.5,0.6-0.7,1.3-0.5
			c1.2,0.4,2.4,0.6,3.7,0.6c11.4,0.7,19.6-10.8,15.4-21.4c-0.3-0.9-1.3-1.7-1-2.6c0.3-0.8,1.4-1.4,2.1-2.1c0.7-0.8,1.3-0.9,2.3-0.4
			c6.3,2.9,14-1.3,14.8-8c0.2-0.4-0.1-0.9,0.2-1.3V10.3z M61.1,29c-3.7,0-6.8-3.1-6.7-6.9c0-3.8,3.1-6.8,6.8-6.8
			c3.8,0,6.9,3.1,6.8,6.9C68,26,65,29.1,61.1,29z M79.8,65.1c-3.9,0-6.9-2.9-6.9-6.8c0-3.9,3-6.9,6.8-6.8c3.8,0,6.8,3,6.8,6.8
			C86.6,62,83.6,65,79.8,65.1z M94.9,43c-6.5,0-11.7-5.3-11.7-11.9c0-6.6,5.4-12,11.9-11.9c6.5,0.1,11.8,5.4,11.8,11.9
			C106.8,37.8,101.5,43.1,94.9,43z M117.3,17.5c-3.8,0-6.9-3.1-6.9-6.9c0-3.7,3-6.8,6.8-6.9c3.7,0,6.9,3.1,6.9,6.9
			C124.2,14.4,121.1,17.5,117.3,17.5z M97.1,23.3C95,22.8,95,22.8,95,25.2c-0.2,1.1,0.1,1.8,1.5,2c1.2,0.2,2.3,1.2,2.4,2.4
			c0.3,1.7,1.3,1.8,2.6,1.7c0.3,0,0.7,0,1,0c0.6,0.1,0.7-0.2,0.7-0.7C103,27.2,100.3,24.1,97.1,23.3z M103.2,30.5
			c-0.2-3.3-2.9-6.4-6.1-7.2C95,22.8,95,22.8,95,25.2c-0.2,1.1,0.1,1.8,1.5,2c1.2,0.2,2.3,1.2,2.4,2.4c0.3,1.7,1.3,1.8,2.6,1.7
			c0.3,0,0.7,0,1,0C103.1,31.3,103.2,31,103.2,30.5z M103.2,30.5c-0.2-3.3-2.9-6.4-6.1-7.2C95,22.8,95,22.8,95,25.2
			c-0.2,1.1,0.1,1.8,1.5,2c1.2,0.2,2.3,1.2,2.4,2.4c0.3,1.7,1.3,1.8,2.6,1.7c0.3,0,0.7,0,1,0C103.1,31.3,103.2,31,103.2,30.5z"/>
		<path d="M128,10.3c-0.3-0.4-0.3-0.8-0.2-1.3c0.1,0,0.2,0,0.2,0.1C128,9.5,128,9.9,128,10.3z"/>
		<path d="M127.8,12.4c-0.1-0.5-0.1-0.9,0.2-1.3c0,0.4,0,0.8,0,1.2C127.9,12.3,127.8,12.3,127.8,12.4z"/>
		<path d="M57.2,66.4c0,2.4,0,4.7,0,7.1c0,0.7-0.2,1-1,1c-2.9,0-2.9,0.1-2.9-2.9c0-3.4,0-6.7,0-10.1c0-0.7-0.2-1-0.8-1.3
			c-1.3-0.7-2.5-1.5-3.8-2.2c-0.6-0.3-0.8-0.6-0.4-1.2c0.6-0.8,0.8-2.2,1.6-2.4c0.7-0.2,1.6,0.8,2.5,1.3c1.3,0.7,2.6,1.5,3.9,2.2
			c0.6,0.3,0.9,0.7,0.9,1.5C57.1,61.8,57.2,64.1,57.2,66.4z"/>
		<path d="M118,101.6c0,2.4,0,4.8,0,7.2c0,0.7-0.2,0.9-0.9,0.9c-3,0-3,0.1-3-2.8c0-3.3,0-6.7,0-10c0-0.8-0.2-1.2-0.9-1.5
			c-1.3-0.7-2.5-1.5-3.8-2.2c-0.5-0.3-0.6-0.5-0.3-1c1.4-2.8,1.4-2.8,4.1-1.2c1.3,0.8,2.6,1.6,4,2.3c0.6,0.3,0.8,0.7,0.8,1.4
			C117.9,97,118,99.3,118,101.6z"/>
		<path d="M11.3,27.9c0,0.5,0,0.9,0,1.4c-0.1,0.8,0.4,1.9-0.2,2.2C10.2,32,9,31.7,7.9,31.7c-0.5,0-0.4-0.4-0.4-0.7c0-2,0-4,0-6
			c0-0.5,0.1-0.7,0.7-0.7c3.1-0.2,3.1-0.2,3.1,2.9C11.3,27.4,11.3,27.7,11.3,27.9z"/>
		<path d="M14.6,115c-0.2-0.1-0.3-0.2-0.4-0.2c-1.7-1-3.3-2-5-2.9c-0.6-0.3-0.6-0.6-0.3-1.1c1.5-2.6,1.4-2.6,4-1.1
			c1,0.6,2.1,1.2,3.1,1.8c0.5,0.3,0.8,0.5,0.3,1.1c-0.5,0.6-0.8,1.4-1.2,2C15,114.7,14.9,114.9,14.6,115z"/>
		<path d="M11.3,37.3c0,1.9,0,1.9-1.9,1.9c-0.4,0-0.7,0-1.1,0c-0.6,0.1-0.9-0.1-0.8-0.8c0-0.2,0-0.5,0-0.7c0-2.4,0-2.4,2.4-2.4
			c1.1,0,1.6,0.2,1.4,1.4C11.3,36.9,11.3,37.1,11.3,37.3z"/>
		<path d="M107.4,87.9c-0.6,1-1.2,2-1.8,2.9c-0.1,0.2-0.3,0-0.4-0.1c-0.2-0.1-0.3-0.2-0.4-0.2c-2.8-1.6-2.8-1.6-0.9-4.2
			c0.2-0.3,0.4-0.5,0.8-0.3c0.8,0.5,1.6,1,2.5,1.5C107.3,87.6,107.4,87.7,107.4,87.9z"/>
		<path d="M44.6,55.6c-0.9-0.6-2-1.2-2.9-1.9c-0.1,0,0.3-0.7,0.5-1c1.3-2.2,1.2-2.2,3.5-0.9c0.9,0.5,1.2,0.9,0.5,1.7
			c-0.4,0.5-0.6,1.1-0.9,1.6C45,55.3,45,55.5,44.6,55.6z"/>
		<path d="M23,115.8c-0.5,0.9-1.1,1.9-1.7,2.8c-0.1,0.2-0.4,0-0.5-0.1c-0.8-0.4-1.6-0.9-2.4-1.4c-0.3-0.2-0.5-0.4-0.2-0.8
			c0.1-0.1,0.2-0.3,0.3-0.4c0.5-0.7,0.8-2.2,1.5-2.1c0.9,0,1.9,0.9,2.8,1.4C23,115.4,23.1,115.5,23,115.8z"/>
		<path d="M76.4,111.2c0,0.4-0.3,0.4-0.5,0.5c-4.2,2.4-8.4,4.9-12.6,7.3c-0.4,0.2-0.7,0.2-1.1,0c-2-1.2-4.1-2.4-6.1-3.6
			c-0.1-0.1-0.3-0.1-0.3-0.2c0-1.2,1-2,1.4-3c0.2-0.5,0.6-0.2,0.9,0c1.2,0.7,2.5,1.4,3.6,2.1c0.7,0.5,1.3,0.5,2,0
			c3.2-1.9,6.5-3.7,9.7-5.7c1-0.6,1.5-0.4,1.9,0.6C75.6,110,76,110.6,76.4,111.2z"/>
		<path d="M54.1,110.3c-0.5,0.9-1.1,1.9-1.7,2.8c-0.1,0.2-0.3,0.1-0.4,0c-0.2-0.1-0.4-0.2-0.5-0.3c-0.8-0.5-2.2-1-2.2-1.4
			c0.1-1,0.9-1.9,1.4-2.8c0.2-0.3,0.4-0.5,0.7-0.3c0.8,0.5,1.6,1,2.5,1.4C54,109.8,54.1,110,54.1,110.3z"/>
		<path d="M102.5,31.3c-0.3,0-0.7,0-1,0c-1.3,0.1-2.3,0.1-2.6-1.7c-0.2-1.2-1.2-2.2-2.4-2.4c-1.5-0.3-1.8-1-1.5-2
			c0-2.4,0-2.4,2.1-1.9c3.3,0.8,5.9,3.9,6.1,7.2C103.2,31,103.1,31.3,102.5,31.3z"/>
		<path d="M102.5,31.3c-0.3,0-0.7,0-1,0c-1.3,0.1-2.3,0.1-2.6-1.7c-0.2-1.2-1.2-2.2-2.4-2.4c-1.5-0.3-1.8-1-1.5-2
			c0-2.4,0-2.4,2.1-1.9c3.3,0.8,5.9,3.9,6.1,7.2C103.2,31,103.1,31.3,102.5,31.3z"/>
	</g>
</g>
</svg>
