<?xml version="1.0" encoding="utf-8"?>
<!-- Generator: Adobe Illustrator 28.0.0, SVG Export Plug-In . SVG Version: 6.00 Build 0)  -->
<svg version="1.1" id="Layer_1" xmlns="http://www.w3.org/2000/svg" xmlns:xlink="http://www.w3.org/1999/xlink" x="0px" y="0px"
	 viewBox="0 0 128 128" style="enable-background:new 0 0 128 128;" xml:space="preserve">
<g id="vUOfOs.tif">
	<g>
		<path d="M75.5,77.2c-2-0.3-2-0.3-2.2-2.2c-0.6-4.4-4.6-7.9-9.2-7.9c-4.6-0.1-8.7,3.5-9.3,7.9c-0.3,2-0.3,2-2.2,2.2
			c-4.5,0.6-8,4.8-7.9,9.3c0.1,4.6,3.5,8.6,7.9,9.2c2,0.3,2,0.3,2.2,2.2c0.7,4.9,5.5,8.5,10.3,7.8c4.8-0.7,7.8-3.9,8.3-8.8
			c0.1-0.8,0.3-1,1.1-1.1c5.2-0.5,8.8-4.4,8.9-9.3C83.5,82,79.9,77.9,75.5,77.2z M74.4,92c-0.8,0-1.7,0-2.5,0
			c-1.6,0-2.3,0.8-2.4,2.4c0,0.7,0,1.5,0,2.2c-0.1,3.1-2.5,5.4-5.6,5.3c-3.1,0-5.4-2.3-5.5-5.4c0-0.7,0-1.5,0-2.2
			c0-1.6-0.8-2.3-2.3-2.3c-0.8,0-1.7,0-2.5,0c-3-0.1-5.2-2.6-5.2-5.6c0-3,2.3-5.4,5.3-5.5c0.8,0,1.7,0,2.5,0
			c1.4-0.1,2.1-0.8,2.2-2.2c0-0.8,0-1.6,0-2.4c0.1-3.1,2.5-5.4,5.6-5.4c3,0,5.3,2.3,5.4,5.3c0,0.8,0,1.7,0,2.5
			c0.1,1.3,0.8,2.1,2.1,2.1c0.9,0.1,1.7,0,2.6,0c2.9,0.1,5.2,2.5,5.2,5.4C79.6,89.4,77.4,91.9,74.4,92z M75.5,77.2
			c-2-0.3-2-0.3-2.2-2.2c-0.6-4.4-4.6-7.9-9.2-7.9c-4.6-0.1-8.7,3.5-9.3,7.9c-0.3,2-0.3,2-2.2,2.2c-4.5,0.6-8,4.8-7.9,9.3
			c0.1,4.6,3.5,8.6,7.9,9.2c2,0.3,2,0.3,2.2,2.2c0.7,4.9,5.5,8.5,10.3,7.8c4.8-0.7,7.8-3.9,8.3-8.8c0.1-0.8,0.3-1,1.1-1.1
			c5.2-0.5,8.8-4.4,8.9-9.3C83.5,82,79.9,77.9,75.5,77.2z M74.4,92c-0.8,0-1.7,0-2.5,0c-1.6,0-2.3,0.8-2.4,2.4c0,0.7,0,1.5,0,2.2
			c-0.1,3.1-2.5,5.4-5.6,5.3c-3.1,0-5.4-2.3-5.5-5.4c0-0.7,0-1.5,0-2.2c0-1.6-0.8-2.3-2.3-2.3c-0.8,0-1.7,0-2.5,0
			c-3-0.1-5.2-2.6-5.2-5.6c0-3,2.3-5.4,5.3-5.5c0.8,0,1.7,0,2.5,0c1.4-0.1,2.1-0.8,2.2-2.2c0-0.8,0-1.6,0-2.4
			c0.1-3.1,2.5-5.4,5.6-5.4c3,0,5.3,2.3,5.4,5.3c0,0.8,0,1.7,0,2.5c0.1,1.3,0.8,2.1,2.1,2.1c0.9,0.1,1.7,0,2.6,0
			c2.9,0.1,5.2,2.5,5.2,5.4C79.6,89.4,77.4,91.9,74.4,92z M95.9,93.5c-0.3-0.4-0.1-0.9-0.1-1.3c-0.1-3-0.4-6-1.1-9
			c-2-8.8-5.6-16.8-11.1-23.9c-0.5-0.7-0.6-1.2,0.1-1.9c1.7-1.5,2.5-3.5,2.5-5.7c0.1-3.2,0.2-6.4,0-9.6c-0.3-4.9-3.9-7.7-7.9-7.4
			c-0.9,0.1-1.7,0-2.6,0c-1.9,0-1.9,0-1.9-1.9c0-7.6,0-15.2,0-22.7c0-4.5-3.1-9.7-8.3-10h-3.2c-0.1,0.1-0.2,0.2-0.3,0.2
			c-4.3,1.1-6.7,3.9-7.3,8.3c-0.2,1.5,0.4,2.6,1.6,2.7c1.3,0.1,2.1-0.7,2.2-2.3c0.3-3,2.7-5.3,5.6-5.2c3,0.1,5.4,2.5,5.4,5.5
			c0,8.3,0,16.6,0,24.9c0,0.6-0.1,0.9-0.8,0.9c-3.2,0-6.3,0-9.5,0c-0.7,0-0.9-0.2-0.8-0.8c0-1.6,0-3.2,0-4.7c0-4,0-8.1,0-12.1
			c0-1.6-1-2.6-2.4-2.3c-1.2,0.3-1.5,1.3-1.5,2.4c0,5.5,0,10.9,0,16.4c0,1-0.3,1.2-1.2,1.2c-1.5-0.1-3,0-4.5,0
			c-3.3,0-6.2,2.4-6.6,5.7c-0.5,4.1-0.4,8.2,0,12.3c0.1,1.8,1.1,3.3,2.5,4.3c0.9,0.6,0.8,1,0.2,1.7c-6.9,8.9-10.9,18.9-12.4,30
			c-0.8,5.8-0.6,11.7-0.4,17.6c0.2,4.8,2.6,8.3,7,10.4c0.6,0.3,0.8,0.5,0.7,1.3c-0.9,5.4,2.8,9.7,8.2,9.7c10.6,0,21.2,0,31.8,0
			c5.6,0,9.3-4.4,8.3-9.9c-0.1-0.7,0.1-0.9,0.6-1.1c3.6-1.7,5.9-4.5,6.8-8.4c0.1-0.4-0.1-0.9,0.3-1.1V107c-0.3-1.9-0.1-3.8-0.1-5.7
			c0-1.8-0.2-3.5,0.1-5.3v-0.2c-0.2-0.6-0.2-1.2,0-1.8V93.5z M82,51.7C82,53.8,80.8,55,78.5,55c-4.6,0-9.1,0-13.7,0
			c-5,0-10,0-15.1,0c-2.6,0-3.8-1.1-3.8-3.8c0-2.5,0-2.5,2.4-2.5H64c5.6,0,11.3,0,16.9,0c0.8,0,1.2,0.1,1.1,1.1
			C82,50.4,82,51,82,51.7z M46,43.9c0.1-0.5,0-1,0-1.5c0-2.5,1.2-3.7,3.8-3.7c6.2,0,12.5,0,18.7,0c3.3,0,6.6,0,10,0
			c2.4,0,3.6,1.2,3.6,3.6c0,2.7,0,2.7-2.6,2.7H64c-5.6,0-11.3,0-16.9,0C46.2,45,45.9,44.8,46,43.9z M91.9,107.1
			c-0.1,3.9-3.8,7-8,7.1c-1.6,0-3.2,0-4.9,0c-2.4,0-3.3,0.5-3.3,1.8c0,1.4,0.9,1.9,3.4,1.9c1.3,0,2.7,0.1,4,0c1-0.1,1.3,0.4,1.4,1.3
			c0.3,2.9-1.6,5-4.5,5c-5.3,0-10.6,0-16,0c-5.3,0-10.6,0-15.8,0c-3,0-4.9-2.1-4.6-4.9c0.1-0.9,0.3-1.3,1.4-1.3
			c8.3,0.1,16.6,0,24.9,0c1,0,1.8-0.3,2.1-1.4c0.3-0.9-0.1-1.7-0.9-2.2c-0.5-0.3-1-0.2-1.5-0.2c-8.4,0-16.8,0-25.2,0
			c-4.1,0-7.2-2.4-8.2-6.3c-0.1-0.3-0.1-0.7-0.1-1c0-5.3-0.3-10.6,0.2-15.9c1-10.8,4.9-20.5,11.2-29.2c1.7-2.3,3.4-3.3,6.3-3.2
			c7.7,0.3,15.4,0.1,23.1,0.1c0.7,0,1.2,0.2,1.7,0.8c7.4,8.9,11.7,19.1,13.1,30.6C92.3,95.7,92.1,101.4,91.9,107.1z M75.5,77.2
			c-2-0.3-2-0.3-2.2-2.2c-0.6-4.4-4.6-7.9-9.2-7.9c-4.6-0.1-8.7,3.5-9.3,7.9c-0.3,2-0.3,2-2.2,2.2c-4.5,0.6-8,4.8-7.9,9.3
			c0.1,4.6,3.5,8.6,7.9,9.2c2,0.3,2,0.3,2.2,2.2c0.7,4.9,5.5,8.5,10.3,7.8c4.8-0.7,7.8-3.9,8.3-8.8c0.1-0.8,0.3-1,1.1-1.1
			c5.2-0.5,8.8-4.4,8.9-9.3C83.5,82,79.9,77.9,75.5,77.2z M74.4,92c-0.8,0-1.7,0-2.5,0c-1.6,0-2.3,0.8-2.4,2.4c0,0.7,0,1.5,0,2.2
			c-0.1,3.1-2.5,5.4-5.6,5.3c-3.1,0-5.4-2.3-5.5-5.4c0-0.7,0-1.5,0-2.2c0-1.6-0.8-2.3-2.3-2.3c-0.8,0-1.7,0-2.5,0
			c-3-0.1-5.2-2.6-5.2-5.6c0-3,2.3-5.4,5.3-5.5c0.8,0,1.7,0,2.5,0c1.4-0.1,2.1-0.8,2.2-2.2c0-0.8,0-1.6,0-2.4
			c0.1-3.1,2.5-5.4,5.6-5.4c3,0,5.3,2.3,5.4,5.3c0,0.8,0,1.7,0,2.5c0.1,1.3,0.8,2.1,2.1,2.1c0.9,0.1,1.7,0,2.6,0
			c2.9,0.1,5.2,2.5,5.2,5.4C79.6,89.4,77.4,91.9,74.4,92z M75.5,77.2c-2-0.3-2-0.3-2.2-2.2c-0.6-4.4-4.6-7.9-9.2-7.9
			c-4.6-0.1-8.7,3.5-9.3,7.9c-0.3,2-0.3,2-2.2,2.2c-4.5,0.6-8,4.8-7.9,9.3c0.1,4.6,3.5,8.6,7.9,9.2c2,0.3,2,0.3,2.2,2.2
			c0.7,4.9,5.5,8.5,10.3,7.8c4.8-0.7,7.8-3.9,8.3-8.8c0.1-0.8,0.3-1,1.1-1.1c5.2-0.5,8.8-4.4,8.9-9.3C83.5,82,79.9,77.9,75.5,77.2z
			 M74.4,92c-0.8,0-1.7,0-2.5,0c-1.6,0-2.3,0.8-2.4,2.4c0,0.7,0,1.5,0,2.2c-0.1,3.1-2.5,5.4-5.6,5.3c-3.1,0-5.4-2.3-5.5-5.4
			c0-0.7,0-1.5,0-2.2c0-1.6-0.8-2.3-2.3-2.3c-0.8,0-1.7,0-2.5,0c-3-0.1-5.2-2.6-5.2-5.6c0-3,2.3-5.4,5.3-5.5c0.8,0,1.7,0,2.5,0
			c1.4-0.1,2.1-0.8,2.2-2.2c0-0.8,0-1.6,0-2.4c0.1-3.1,2.5-5.4,5.6-5.4c3,0,5.3,2.3,5.4,5.3c0,0.8,0,1.7,0,2.5
			c0.1,1.3,0.8,2.1,2.1,2.1c0.9,0.1,1.7,0,2.6,0c2.9,0.1,5.2,2.5,5.2,5.4C79.6,89.4,77.4,91.9,74.4,92z M75.5,77.2
			c-2-0.3-2-0.3-2.2-2.2c-0.6-4.4-4.6-7.9-9.2-7.9c-4.6-0.1-8.7,3.5-9.3,7.9c-0.3,2-0.3,2-2.2,2.2c-4.5,0.6-8,4.8-7.9,9.3
			c0.1,4.6,3.5,8.6,7.9,9.2c2,0.3,2,0.3,2.2,2.2c0.7,4.9,5.5,8.5,10.3,7.8c4.8-0.7,7.8-3.9,8.3-8.8c0.1-0.8,0.3-1,1.1-1.1
			c5.2-0.5,8.8-4.4,8.9-9.3C83.5,82,79.9,77.9,75.5,77.2z M74.4,92c-0.8,0-1.7,0-2.5,0c-1.6,0-2.3,0.8-2.4,2.4c0,0.7,0,1.5,0,2.2
			c-0.1,3.1-2.5,5.4-5.6,5.3c-3.1,0-5.4-2.3-5.5-5.4c0-0.7,0-1.5,0-2.2c0-1.6-0.8-2.3-2.3-2.3c-0.8,0-1.7,0-2.5,0
			c-3-0.1-5.2-2.6-5.2-5.6c0-3,2.3-5.4,5.3-5.5c0.8,0,1.7,0,2.5,0c1.4-0.1,2.1-0.8,2.2-2.2c0-0.8,0-1.6,0-2.4
			c0.1-3.1,2.5-5.4,5.6-5.4c3,0,5.3,2.3,5.4,5.3c0,0.8,0,1.7,0,2.5c0.1,1.3,0.8,2.1,2.1,2.1c0.9,0.1,1.7,0,2.6,0
			c2.9,0.1,5.2,2.5,5.2,5.4C79.6,89.4,77.4,91.9,74.4,92z"/>
		<path d="M95.9,107c-0.3-0.1-0.3-0.4-0.3-0.6c0-3.2,0-6.4,0-9.6c0-0.3-0.1-0.6,0.2-0.8C95.9,99.7,95.9,103.3,95.9,107z"/>
		<path d="M95.9,95.7c-0.4-0.6-0.5-1.2,0-1.7C95.9,94.6,95.9,95.2,95.9,95.7z"/>
		<path d="M75.5,77.2c-2-0.3-2-0.3-2.2-2.2c-0.6-4.4-4.6-7.9-9.2-7.9c-4.6-0.1-8.7,3.5-9.3,7.9c-0.3,2-0.3,2-2.2,2.2
			c-4.5,0.6-8,4.8-7.9,9.3c0.1,4.6,3.5,8.6,7.9,9.2c2,0.3,2,0.3,2.2,2.2c0.7,4.9,5.5,8.5,10.3,7.8c4.8-0.7,7.8-3.9,8.3-8.8
			c0.1-0.8,0.3-1,1.1-1.1c5.2-0.5,8.8-4.4,8.9-9.3C83.5,82,79.9,77.9,75.5,77.2z M74.4,92c-0.8,0-1.7,0-2.5,0
			c-1.6,0-2.3,0.8-2.4,2.4c0,0.7,0,1.5,0,2.2c-0.1,3.1-2.5,5.4-5.6,5.3c-3.1,0-5.4-2.3-5.5-5.4c0-0.7,0-1.5,0-2.2
			c0-1.6-0.8-2.3-2.3-2.3c-0.8,0-1.7,0-2.5,0c-3-0.1-5.2-2.6-5.2-5.6c0-3,2.3-5.4,5.3-5.5c0.8,0,1.7,0,2.5,0
			c1.4-0.1,2.1-0.8,2.2-2.2c0-0.8,0-1.6,0-2.4c0.1-3.1,2.5-5.4,5.6-5.4c3,0,5.3,2.3,5.4,5.3c0,0.8,0,1.7,0,2.5
			c0.1,1.3,0.8,2.1,2.1,2.1c0.9,0.1,1.7,0,2.6,0c2.9,0.1,5.2,2.5,5.2,5.4C79.6,89.4,77.4,91.9,74.4,92z"/>
		<path d="M75.5,77.2c-2-0.3-2-0.3-2.2-2.2c-0.6-4.4-4.6-7.9-9.2-7.9c-4.6-0.1-8.7,3.5-9.3,7.9c-0.3,2-0.3,2-2.2,2.2
			c-4.5,0.6-8,4.8-7.9,9.3c0.1,4.6,3.5,8.6,7.9,9.2c2,0.3,2,0.3,2.2,2.2c0.7,4.9,5.5,8.5,10.3,7.8c4.8-0.7,7.8-3.9,8.3-8.8
			c0.1-0.8,0.3-1,1.1-1.1c5.2-0.5,8.8-4.4,8.9-9.3C83.5,82,79.9,77.9,75.5,77.2z M74.4,92c-0.8,0-1.7,0-2.5,0
			c-1.6,0-2.3,0.8-2.4,2.4c0,0.7,0,1.5,0,2.2c-0.1,3.1-2.5,5.4-5.6,5.3c-3.1,0-5.4-2.3-5.5-5.4c0-0.7,0-1.5,0-2.2
			c0-1.6-0.8-2.3-2.3-2.3c-0.8,0-1.7,0-2.5,0c-3-0.1-5.2-2.6-5.2-5.6c0-3,2.3-5.4,5.3-5.5c0.8,0,1.7,0,2.5,0
			c1.4-0.1,2.1-0.8,2.2-2.2c0-0.8,0-1.6,0-2.4c0.1-3.1,2.5-5.4,5.6-5.4c3,0,5.3,2.3,5.4,5.3c0,0.8,0,1.7,0,2.5
			c0.1,1.3,0.8,2.1,2.1,2.1c0.9,0.1,1.7,0,2.6,0c2.9,0.1,5.2,2.5,5.2,5.4C79.6,89.4,77.4,91.9,74.4,92z"/>
	</g>
</g>
</svg>
