<?xml version="1.0" encoding="utf-8"?>
<!-- Generator: Adobe Illustrator 28.0.0, SVG Export Plug-In . SVG Version: 6.00 Build 0)  -->
<svg version="1.1" id="Layer_1" xmlns="http://www.w3.org/2000/svg" xmlns:xlink="http://www.w3.org/1999/xlink" x="0px" y="0px"
	 viewBox="0 0 128 128" style="enable-background:new 0 0 128 128;" xml:space="preserve">
<g id="_x32_XLFgw.tif">
	<g>
		<path d="M128,58.1c-0.7,1.2-1.6,1.6-3,1.8c-5.7,0.7-10.8,3-14.9,7.1c-4.9,4.8-10.7,7.9-17.5,8.9c-13.9,2.2-29.8-6.2-32.9-20.8
			c-2-9.7,0.2-18.4,7.6-25.1c4.8-4.3,10.6-5.3,16.6-2.9c4.1,1.6,6.5,4.9,7,9.3c0.5,4.6-1.2,8.4-5.2,11c-0.8,0.5-1.6,0.8-2.4,1.2
			c1.6,1.1,5.2,1.2,7.7,0.3c4.9-1.7,7.6-5.4,9.2-10c3.2-8.9-0.4-18.1-9-23.3c-0.8-0.5-1.7-0.9-2.5-1.3c-1.4-0.7-1.9-2.1-1.3-3.3
			c0.6-1.3,2-1.9,3.4-1.2c9.3,4.5,15.1,11.7,15.5,22.3c0.3,7.8-2.7,14.5-9,19.3c-6.6,5-15.9,4.3-21.1-1.3c-1.3-1.4-2.2-3-2.9-4.8
			c-0.4-1.2,0-2.4,0.9-3c1-0.7,2.1-0.7,3.1,0.2c1.9,1.8,4.3,1.8,6,0.8c1.9-1.2,3.1-4.1,2.6-6.3c-0.7-3.3-3.4-5.5-6.8-5.6
			c-4.6-0.2-8.1,1.6-10.8,5.2c-7.1,9.6-5.8,24.9,7.9,32c10,5.1,21.7,3.4,29.9-4.5c4.5-4.4,9.8-7.3,16-8.6c0.7-0.1,1.4-0.3,2.1-0.4
			c1.6-0.3,2.9,0,3.8,1.5C128,56.9,128,57.5,128,58.1z"/>
		<path d="M128,113.3c-8.8,10-24.8,10.6-34.6,1.2c-3.2-3-6.7-5.1-11.1-5.7c-6.2-0.9-11.7,0.8-16.2,5.2c-3.8,3.6-8.1,6.1-13.4,6.9
			c-8.1,1.3-15.1-0.9-21-6.5c-3.1-2.9-6.6-5-10.9-5.6c-6.1-0.9-11.5,0.8-16.1,4.9c-0.5,0.5-1,1-1.8,1.1c-1.2,0.1-2.2-0.2-2.7-1.3
			c-0.6-1.1-0.3-2.2,0.6-3.1c2.6-2.5,5.5-4.5,8.9-5.6c9.4-3,17.9-1.2,25.1,5.6c8.1,7.6,19.4,7.7,27.4,0c9.8-9.4,24.3-9.4,34.1,0
			c7.9,7.5,19,7.7,27,0.4c1.7-1.6,3.2-1.3,4.6,0.8C128,112.1,128,112.7,128,113.3z"/>
		<path d="M128,75c-0.7,1.3-1.9,2.1-3,3c-2.9,2.2-5.3,5-8.2,7.2c-8,6-16.9,9.1-26.8,9.1c-1.7,0-2.8-1-2.8-2.5c0-1.5,1-2.5,2.7-2.5
			c11-0.2,20.4-4.2,28.2-11.9c1.5-1.5,3.1-2.9,4.8-4.1c2.7-1.9,3.9-1.6,5.2,1.3C128,74.7,128,74.9,128,75z"/>
		<path d="M79,6.8c1.1,0.4,2.1,1,2.2,2.3c0.2,1.4-0.7,2.5-2.1,2.8c-1.2,0.2-2.6-0.6-2.9-1.8c-0.3-1.3,0.4-2.6,1.7-3
			c0.2-0.1,0.4,0,0.5-0.2C78.7,6.8,78.8,6.8,79,6.8z"/>
		<path d="M35.3,43.2c-6.3,3.8-12.9,6.4-19.9,7.9C11.3,52,7.2,52.5,3,52.5c-1.7,0-2.9-0.9-2.9-2.4c-0.1-1.6,0.9-2.7,2.7-2.7
			c6.2-0.1,12.2-1,18-3c6.1-2,11.7-5,16.8-8.9c0.5-0.4,0.7-0.9,0.9-1.4c5.4-12.7,14.6-21.2,27.8-25.4c1.1-0.4,2.2-0.4,3.1,0.6
			c0.7,0.7,0.8,1.6,0.5,2.5c-0.3,1-1.2,1.4-2.1,1.7c-5.6,1.7-10.7,4.5-15,8.5c-5.6,5.2-9.2,11.6-11.3,18.9
			c-1.7,5.8-3.7,11.4-7.1,16.5C26.8,68.7,16.5,75.8,3.2,78.7c-1.4,0.3-2.8-0.5-3.1-1.8c-0.3-1.4,0.4-2.7,1.9-3.1
			c3.6-0.9,7-1.9,10.3-3.5c11.4-5.6,19-14.4,23-26.4C35.3,43.8,35.3,43.6,35.3,43.2z"/>
		<path d="M63.8,88.8c-9.8-0.4-19.6-8.1-21-20.1c-0.1-0.7-0.1-1.4-0.1-2.1c0-1.5,1-2.6,2.4-2.6c1.5,0,2.5,1,2.6,2.6
			c0.3,8.4,5.5,14.8,13.5,16.8c1.1,0.3,2.2,0.4,3.3,0.4c1.9,0,3,1,3,2.6c0,1.6-1.3,2.6-3.2,2.5C64.2,88.9,64,88.8,63.8,88.8z"/>
	</g>
</g>
</svg>
