<?xml version="1.0" encoding="utf-8"?>
<!-- Generator: Adobe Illustrator 28.0.0, SVG Export Plug-In . SVG Version: 6.00 Build 0)  -->
<svg version="1.1" id="Layer_1" xmlns="http://www.w3.org/2000/svg" xmlns:xlink="http://www.w3.org/1999/xlink" x="0px" y="0px"
	 viewBox="0 0 128 128" style="enable-background:new 0 0 128 128;" xml:space="preserve">
<g id="mlE0Sw.tif">
	<g>
		<path d="M113.4,62.6c-0.2-1.2-1.2-1.8-2.4-1.8c-1.1,0-2,0.6-2.3,1.7c-0.3,0.7-0.2,1.5-0.2,2.2c0.1,0.8-0.2,1-1,1
			c-4.3,0-8.6,0-12.9,0c-2.1,0-2.1,0-2.2-2.1c-0.1-1.7-1.1-2.8-2.5-2.8c-1.5,0-2.5,1.2-2.6,2.9c0,1.3,0,2.6,0,3.9
			c0,2.4,1,3.3,3.3,3.3c3.3,0,6.6,0,9.9,0c3.4,0,6.7,0,10.1,0c1.6,0,2.6-0.6,2.9-1.9C113.8,66.9,113.8,64.7,113.4,62.6z M113.4,62.6
			c-0.2-1.2-1.2-1.8-2.4-1.8c-1.1,0-2,0.6-2.3,1.7c-0.3,0.7-0.2,1.5-0.2,2.2c0.1,0.8-0.2,1-1,1c-4.3,0-8.6,0-12.9,0
			c-2.1,0-2.1,0-2.2-2.1c-0.1-1.7-1.1-2.8-2.5-2.8c-1.5,0-2.5,1.2-2.6,2.9c0,1.3,0,2.6,0,3.9c0,2.4,1,3.3,3.3,3.3c3.3,0,6.6,0,9.9,0
			c3.4,0,6.7,0,10.1,0c1.6,0,2.6-0.6,2.9-1.9C113.8,66.9,113.8,64.7,113.4,62.6z M113.4,62.6c-0.2-1.2-1.2-1.8-2.4-1.8
			c-1.1,0-2,0.6-2.3,1.7c-0.3,0.7-0.2,1.5-0.2,2.2c0.1,0.8-0.2,1-1,1c-4.3,0-8.6,0-12.9,0c-2.1,0-2.1,0-2.2-2.1
			c-0.1-1.7-1.1-2.8-2.5-2.8c-1.5,0-2.5,1.2-2.6,2.9c0,1.3,0,2.6,0,3.9c0,2.4,1,3.3,3.3,3.3c3.3,0,6.6,0,9.9,0c3.4,0,6.7,0,10.1,0
			c1.6,0,2.6-0.6,2.9-1.9C113.8,66.9,113.8,64.7,113.4,62.6z M113.4,62.6c-0.2-1.2-1.2-1.8-2.4-1.8c-1.1,0-2,0.6-2.3,1.7
			c-0.3,0.7-0.2,1.5-0.2,2.2c0.1,0.8-0.2,1-1,1c-4.3,0-8.6,0-12.9,0c-2.1,0-2.1,0-2.2-2.1c-0.1-1.7-1.1-2.8-2.5-2.8
			c-1.5,0-2.5,1.2-2.6,2.9c0,1.3,0,2.6,0,3.9c0,2.4,1,3.3,3.3,3.3c3.3,0,6.6,0,9.9,0c3.4,0,6.7,0,10.1,0c1.6,0,2.6-0.6,2.9-1.9
			C113.8,66.9,113.8,64.7,113.4,62.6z M128,104.5c0-20.2,0-40.5,0-60.8c0-2.3-0.9-3.3-3.3-3.4c-1.5-0.1-3.1,0-4.6,0
			c-1.7,0-1.8-0.1-1.8-1.8c0-5.1,0-10.1,0-15.2c0-1.4-0.4-2.5-1.9-3H11.5c-1.4,0.5-1.9,1.5-1.9,2.9c0,2,0,4,0,6
			c0,0.9-0.4,1.3-1.3,1.3c-1.8,0-3.6,0-5.4,0c-1.5,0-2.6,0.6-3,2.1v73.6c0.4,1.3,1.3,1.6,2.6,1.6c6,0,12,0,18,0
			c2.8,0,3.5-0.8,3.6-3.6c0-1.6,0-3.2,0-4.9c0-0.9,0.4-1.3,1.3-1.3c1.9,0,3.7,0,5.6,0c0.5,0,1.1,0,1.6-0.1c1.5-0.3,2.5-1.5,2.4-2.9
			c-0.1-1.4-1.1-2.6-2.6-2.7c-0.6-0.1-1.2,0-1.7,0c-7.8,0-15.6,0-23.3,0c-1.9,0-1.9,0-1.9-2c0-17.3,0-34.6,0-51.9c0-1.9,0-2,1.9-2
			c21.1,0,42.2,0,63.3,0c1.8,0,1.9,0.1,1.9,1.9c0,4.8,0,9.6,0,14.5c0,12.5,0,25,0,37.4c0,2,0,2-2,2c-3.6,0-7.2,0-10.9,0
			c-1.7,0-3.3-0.1-5,0c-1.6,0.1-2.8,1.3-2.8,2.8c0,1.5,1,2.6,2.6,2.9c0.7,0.1,1.3,0.1,2,0.1h34.3c3.8,0,7.7,0,11.5,0
			c1.4,0,1.5,0.1,1.5,1.5c0,1.7,0,3.4,0,5.1c0.1,2.2,0.9,3.1,3.2,3.1c6,0,12,0,18,0c0.5,0,0.9,0,1.4-0.1c0.9-0.2,1.5-0.7,1.7-1.6
			C128,105.5,128,105,128,104.5z M9,97.6c3,0,5.9,0,8.9,0c0.7,0,0.9,0.2,0.9,0.9c-0.1,1.3,0.4,3.1-0.2,3.9c-0.7,0.8-2.5,0.2-3.8,0.3
			c-1,0-1.9,0-2.9,0c-2,0-4,0-6,0c-0.7,0-0.9-0.2-0.9-0.9c0.1-1.3-0.5-3.1,0.2-3.9C5.9,97.1,7.7,97.7,9,97.6z M121.8,45.9
			c0.9,0,1.2,0.2,1.1,1.2c-0.1,1.2,0.4,2.8-0.2,3.5c-0.7,0.8-2.3,0.2-3.6,0.2c-13.3,0-26.6,0-39.9,0c-1,0-1.4-0.2-1.3-1.3
			c0.1-1.1-0.4-2.7,0.2-3.4c0.7-0.8,2.3-0.2,3.4-0.2c6.3,0,12.6,0,18.8,0C107.5,45.9,114.6,45.9,121.8,45.9z M77.9,56.9
			c0-0.8,0.2-1,1-1c14.3,0,28.6,0,42.9,0c0.8,0,1,0.2,1,1c0,8.2,0,16.5,0,24.7c0,0.9-0.2,1.1-1.1,1.1c-7.2,0-14.3,0-21.5,0
			c-7.1,0-14.2,0-21.3,0c-0.9,0-1.1-0.2-1.1-1.1C77.9,73.4,77.9,65.1,77.9,56.9z M75.3,30.8c-0.4,0-0.7,0-1.1,0
			c-19.3,0-38.6,0-57.9,0c-1.1,0-1.4-0.3-1.3-1.4c0.1-1.1,0.1-2.2,0-3.2c-0.1-0.8,0.2-1,1-1c5.2,0,10.4,0,15.6,0h32.3
			c15.9,0,31.8,0,47.7,0c1.1,0,1.3,0.3,1.3,1.4c-0.1,4.4,0,8.7,0,13.1c0,0.8-0.1,1.1-1,1.1c-11,0-22,0-33,0c-0.8,0-1-0.2-1-1
			c0.1-2.1,0-4.2,0-6.2C77.9,31.9,77,30.9,75.3,30.8z M122.1,102.6c-2,0-4.1,0-6.1,0c-2,0-4,0-6,0c-0.7,0-0.9-0.2-0.8-0.8
			c0.1-1.2,0-2.3,0-3.5c0-0.6,0.2-0.7,0.7-0.7c4.1,0,8.2,0,12.4,0c0.6,0,0.7,0.2,0.7,0.7c0,1.2-0.1,2.3,0,3.5
			C122.9,102.5,122.7,102.6,122.1,102.6z M122.7,92.4c-0.7,0.8-2.4,0.2-3.7,0.2c-13.3,0-26.6,0-39.8,0c-1,0-1.4-0.2-1.3-1.3
			c0.1-1.2-0.4-2.8,0.2-3.5c0.7-0.8,2.3-0.2,3.6-0.2c6.3,0,12.6,0,18.9,0c7.1,0,14.2,0,21.2,0c0.9,0,1.2,0.2,1.1,1.1
			C122.8,90,123.3,91.7,122.7,92.4z M90.5,70.9c3.3,0,6.6,0,9.9,0c3.4,0,6.7,0,10.1,0c1.6,0,2.6-0.6,2.9-1.9c0.4-2.1,0.4-4.3,0-6.4
			c-0.2-1.2-1.2-1.8-2.4-1.8c-1.1,0-2,0.6-2.3,1.7c-0.3,0.7-0.2,1.5-0.2,2.2c0.1,0.8-0.2,1-1,1c-4.3,0-8.6,0-12.9,0
			c-2.1,0-2.1,0-2.2-2.1c-0.1-1.7-1.1-2.8-2.5-2.8c-1.5,0-2.5,1.2-2.6,2.9c0,1.3,0,2.6,0,3.9C87.2,69.9,88.2,70.9,90.5,70.9z
			 M113.4,62.6c-0.2-1.2-1.2-1.8-2.4-1.8c-1.1,0-2,0.6-2.3,1.7c-0.3,0.7-0.2,1.5-0.2,2.2c0.1,0.8-0.2,1-1,1c-4.3,0-8.6,0-12.9,0
			c-2.1,0-2.1,0-2.2-2.1c-0.1-1.7-1.1-2.8-2.5-2.8c-1.5,0-2.5,1.2-2.6,2.9c0,1.3,0,2.6,0,3.9c0,2.4,1,3.3,3.3,3.3c3.3,0,6.6,0,9.9,0
			c3.4,0,6.7,0,10.1,0c1.6,0,2.6-0.6,2.9-1.9C113.8,66.9,113.8,64.7,113.4,62.6z M113.4,62.6c-0.2-1.2-1.2-1.8-2.4-1.8
			c-1.1,0-2,0.6-2.3,1.7c-0.3,0.7-0.2,1.5-0.2,2.2c0.1,0.8-0.2,1-1,1c-4.3,0-8.6,0-12.9,0c-2.1,0-2.1,0-2.2-2.1
			c-0.1-1.7-1.1-2.8-2.5-2.8c-1.5,0-2.5,1.2-2.6,2.9c0,1.3,0,2.6,0,3.9c0,2.4,1,3.3,3.3,3.3c3.3,0,6.6,0,9.9,0c3.4,0,6.7,0,10.1,0
			c1.6,0,2.6-0.6,2.9-1.9C113.8,66.9,113.8,64.7,113.4,62.6z"/>
		<path d="M113.4,69c-0.2,1.3-1.3,1.9-2.9,1.9c-3.4,0-6.7,0-10.1,0c-3.3,0-6.6,0-9.9,0c-2.4,0-3.3-1-3.3-3.3c0-1.3,0-2.6,0-3.9
			c0-1.8,1.1-2.9,2.6-2.9c1.4,0,2.5,1.2,2.5,2.8c0.1,2.1,0.1,2.1,2.2,2.1c4.3,0,8.6,0,12.9,0c0.8,0,1.1-0.2,1-1
			c-0.1-0.7-0.1-1.5,0.2-2.2c0.4-1.1,1.2-1.7,2.3-1.7c1.2,0,2.2,0.6,2.4,1.8C113.8,64.7,113.8,66.9,113.4,69z"/>
		<path d="M64.9,40.8c-17.3,0-34.6,0-51.9,0c-2.1,0-3,1-3,3.1c0,13.6,0,27.2,0,40.8c0,2.2,0.8,3,3,3c8.6,0,17.2,0,25.8,0
			c8.7,0,17.4,0,26.1,0c2.2,0,3-0.9,3-3c0-13.6,0-27.2,0-40.8C67.9,41.7,67,40.8,64.9,40.8z M24.9,82.7c-3,0-6.1,0-9.1,0
			c-0.7,0-0.9-0.2-0.9-0.9c0-2.6,0-5.1,0-7.7c0-0.5,0-0.8,0.6-1c3.8-1.2,7.1-3.2,10.2-6.1v3.4c0,3.8,0,7.6,0,11.5
			C25.8,82.4,25.7,82.7,24.9,82.7z M46.1,82.7c-4.8,0-9.6,0-14.4,0c-0.8,0-0.9-0.3-0.9-0.9c0-3.2,0-6.4,0-9.6c0-3.1,0-6.2,0-9.4
			c0-0.8,0.3-1.2,0.9-1.6c2-1.1,3.9-1.1,5.9-0.2c1.5,0.7,2.9,1.5,4.3,2.2c1.3,0.7,2.7,0.8,4.1,0.7c0.7-0.1,0.8,0.1,0.8,0.8
			c0,5.7,0,11.4,0,17.1C47,82.5,46.8,82.7,46.1,82.7z M62.9,69.4c0,4.1,0,8.1,0,12.2c0,0.8-0.2,1.1-1,1c-3-0.1-5.9,0-8.9,0
			c-0.7,0-1-0.2-1-0.9c0-6.3,0-12.6,0-18.8c0-0.4-0.1-0.9,0.4-1.2c2-1.3,3.9-2.7,5.9-3.9c1-0.6,2.1-1.1,3.3-1.4
			c0.9-0.3,1.2-0.2,1.2,0.9C62.9,61.3,62.9,65.3,62.9,69.4z M62.8,50.6c-0.5,1-2.1,0.7-3.2,1.1c-2.8,1-5.2,2.6-7.5,4.3
			c-1.2,0.8-2.4,1.7-3.7,2.2c-1.9,0.8-3.7,0.9-5.6-0.2c-1.9-1.1-3.9-2.2-6.1-2.6c-2.5-0.5-4.8,0.1-7,1.2c-2.1,1.1-3.8,2.7-5.4,4.5
			c-3.2,3.6-5.8,5.5-9.3,6.7c0-7.1,0-14.1,0-21.2c0-1,0.5-0.8,1.1-0.8c10.2,0,20.4,0,30.6,0c5.1,0,10.2,0,15.2,0
			c0.8,0,1.2,0.1,1.1,1C62.9,48.2,63.3,49.6,62.8,50.6z"/>
		<path d="M46,95.1c0,1.4-1,2.5-2.5,2.5c-1.4,0-2.5-1-2.5-2.5c0-1.4,1-2.5,2.5-2.5C44.9,92.6,45.9,93.7,46,95.1z"/>
		<path d="M113.4,69c-0.2,1.3-1.3,1.9-2.9,1.9c-3.4,0-6.7,0-10.1,0c-3.3,0-6.6,0-9.9,0c-2.4,0-3.3-1-3.3-3.3c0-1.3,0-2.6,0-3.9
			c0-1.8,1.1-2.9,2.6-2.9c1.4,0,2.5,1.2,2.5,2.8c0.1,2.1,0.1,2.1,2.2,2.1c4.3,0,8.6,0,12.9,0c0.8,0,1.1-0.2,1-1
			c-0.1-0.7-0.1-1.5,0.2-2.2c0.4-1.1,1.2-1.7,2.3-1.7c1.2,0,2.2,0.6,2.4,1.8C113.8,64.7,113.8,66.9,113.4,69z"/>
	</g>
</g>
</svg>
