<?xml version="1.0" encoding="utf-8"?>
<!-- Generator: Adobe Illustrator 28.0.0, SVG Export Plug-In . SVG Version: 6.00 Build 0)  -->
<svg version="1.1" id="Layer_1" xmlns="http://www.w3.org/2000/svg" xmlns:xlink="http://www.w3.org/1999/xlink" x="0px" y="0px"
	 viewBox="0 0 128 128" style="enable-background:new 0 0 128 128;" xml:space="preserve">
<g>
	<path d="M93.4,86.8c-4.2,0-7.7,3.4-7.7,7.5c0,4.3,3.4,7.9,7.6,7.9c4.2,0,7.6-3.4,7.6-7.6C101,90.3,97.7,86.8,93.4,86.8z M93.3,98.8
		c-2.4,0-4.3-1.9-4.3-4.3c0-2.4,2-4.5,4.4-4.4c2.4,0,4.4,2.1,4.3,4.5C97.7,97,95.8,98.8,93.3,98.8z M93.4,86.8
		c-4.2,0-7.7,3.4-7.7,7.5c0,4.3,3.4,7.9,7.6,7.9c4.2,0,7.6-3.4,7.6-7.6C101,90.3,97.7,86.8,93.4,86.8z M93.3,98.8
		c-2.4,0-4.3-1.9-4.3-4.3c0-2.4,2-4.5,4.4-4.4c2.4,0,4.4,2.1,4.3,4.5C97.7,97,95.8,98.8,93.3,98.8z M112.7,48.5
		c0-4.8-3.3-9.1-7.8-10.5c-1.7-0.5-3.4-0.9-5.1-1.3C90.9,34.7,82,32.5,73,30.5c-0.7-0.2-1.1-0.4-1-1.3c0.1-1.1,0-2.2,0-3.4
		c0-2.1-0.3-2.5-2.4-2.5c-0.7,0-0.8-0.2-0.8-0.8c-0.3-4.9-2.7-8.4-7.2-10.1C53.3,9.1,45,6.2,36.8,3.1c-1.3-0.5-1.8-0.2-2.6,1.1
		c-0.2,0.4-0.3,0.6-0.8,0.4c-1.8-0.7-3.7-1.4-5.6-2.1c-0.3-0.1-0.7-0.2-0.5-0.6c0.5-1-0.3-1-0.9-1.3c-0.5-0.2-1-0.2-1.4-0.7h-0.5
		c-2,5.3-3.9,10.6-5.9,16c-0.1,0.2-0.3,0.6-0.1,0.7c0.8,0.4,1.7,0.7,2.5,1c0.6,0.2,0.5-0.5,0.7-0.8c0.3-0.5,0.6-0.1,0.9-0.1
		c1.8,0.6,3.7,1.3,5.5,2c0.3,0.1,0.6,0.1,0.5,0.8c-0.4,1.7-0.1,2.1,1.5,2.7c3,1.1,5.9,2.2,8.9,3.2c0.7,0.3,0.9,0.6,0.9,1.3
		c0,2.7,0,5.5,0,8.2c0,0.8-0.2,1.4-0.6,2.1c-1.1,1.9-2.1,3.9-3.1,5.8c-0.6,1-0.5,1.9,0.6,2.6c0.2,0.1,0.5,0.2,0.4,0.5
		c-0.4,0.7-0.8,1.5-1.2,2.2c-0.3,0.6-0.8,0.1-1.2,0.3c-0.6,0.2-0.9,0.5-1.2,1c-1.3,2.3-2.5,4.7-3.7,7c-0.3,0.5-0.5,1.2-0.1,1.6
		c0.6,0.7,0.3,1.2,0,1.8c-1.3,2.5-0.4,5.2,2.1,6.6c1,0.5,2,1.1,3,1.6c2.7,1.4,5.3,0.5,6.8-2.1c0.3-0.6,0.6-1,1.4-0.9
		c0.6,0.1,1.1-0.4,1.4-0.9c1.3-2.4,2.5-4.7,3.8-7.1c0.2-0.4,0.5-0.9,0.2-1.3c-0.9-1.1-0.2-2,0.3-2.9c0.2-0.3,0.1-1,0.8-0.8
		c0.5,0.2,1,0.4,1,1.2c-0.1,0.9,0,1.9,0,2.9c0,0.7,0.2,1.5-0.9,1.8c-0.5,0.2-0.7,0.8-0.7,1.4c0,2.7,0,5.4,0,8.1
		c0,0.6,0.2,1.3,0.8,1.5c0.9,0.3,0.8,0.9,0.8,1.6c0.1,3,2.1,4.9,5.1,4.9c0.9,0,1.8,0,2.7,0c3.5,0,5.4-1.8,5.5-5.3
		c0-0.4-0.2-0.8,0.5-1c0.8-0.2,1.1-0.9,1.1-1.8c0-1.8,0-3.5,0-5.2c0-0.8-0.2-1.7,1.1-1.6c0.4,0,0.8-0.4,1-0.8
		c1.2-2.3,2.5-4.6,3.7-6.9c0.5-0.9,0.4-1.9-0.6-2.2c-1.8-0.6-1.8-1.9-1.7-3.4c0.1-0.9,0-1.8,0-2.7c0-0.6,0.1-0.8,0.8-0.6
		c6.4,1.5,12.8,2.9,19.3,4.4c0.6,0.1,0.7,0.4,0.7,0.9c0,9.7,0,19.3,0,29c0,0.6-0.2,0.9-0.8,0.8c-1.8,0-3.5,0-5.2,0
		c-1.8,0-2.2,0.4-2.2,2.2s0,1.8-1.9,1.8h-0.3c-1.9,0-1.9,0-1.9-1.8c0-1.6-0.6-2.2-2.2-2.2c-2.4,0-4.7,0-7.1,0c-9.6,0-19.2,0-28.7,0
		c-1.7,0-2.2,0.4-2.2,2.1c0,2.4,0,4.7,0,7.1c0,1.5,0.5,2,2,2c2.1,0,4.2,0,6.2,0c0.7,0,0.9,0.2,0.8,0.8c-0.1,0.9,0,1.8,0,2.6
		c0,1.9,0.5,2.4,2.3,2.4c2.1,0,4.2,0,6.2,0c3.7,0,7.5,0,11.2,0c1.6,0,2.1-0.5,2.1-2.1c0-0.9,0.1-1.8,0-2.7c-0.1-0.8,0.1-1.1,1-1
		c2.1,0.1,4.2,0,6.4,0c1.1,0,1.6-0.6,1.8-1.6c0.1-0.8-0.4-1.9,0.3-2.3c0.6-0.4,1.6-0.1,2.5-0.1c0.2,0,0.3,0,0.5,0
		c0.6-0.1,0.8,0.1,0.8,0.8c0,6.5,0,13,0,19.5c0,0.6-0.2,0.8-0.8,0.8c-3.9,0-7.7,0-11.6,0c-0.7,0-0.8-0.3-0.8-0.9c0-1.1,0-2.2,0-3.2
		c0-1.2-0.6-1.8-1.7-1.8c-6.1,0-12.2,0-18.4,0c-1.2,0-1.8,0.6-1.8,1.9c0,1-0.1,1.9,0,2.9c0.1,0.9-0.2,1.2-1.1,1.2
		c-5.7-0.1-11.3,0-17,0c-0.8,0-1.5,0.1-2.2,0.7c-3.3,3.3-6.5,6.6-9.8,9.8c-0.5,0.5-0.7,1.1-0.7,1.8c0,2.1,0,4.3,0,6.4
		c0,1.5,0.6,2,2.1,2c31.1,0,62.2,0,93.4,0c1.5,0,2.1-0.5,2.1-2C112.7,100.2,112.8,74.3,112.7,48.5z M63.1,92.8h-6
		c-2.3,0-4.6-0.1-6.9,0c-1.1,0-0.9-0.7-0.8-1.2c0.1-0.5-0.5-1.4,0.8-1.4c4.6,0,9.2,0,13.8,0c0.6,0,0.8,0.2,0.8,0.8
		C64.8,92.8,64.9,92.8,63.1,92.8z M73.9,86.1c0.1,0.8-0.3,0.9-1,0.9c-10.6,0-21.1,0-31.7,0c-0.7,0-1.1-0.1-1-0.9
		c0.1-1.2-0.4-2.9,0.2-3.6c0.6-0.8,2.3-0.2,3.6-0.2c4.4,0,8.8,0,13.2,0c5.2,0,10.3,0,15.5,0c1,0,1.3,0.3,1.2,1.2
		C73.8,84.3,73.8,85.2,73.9,86.1z M29.7,15.9c-2.2-0.8-4.3-1.6-6.4-2.3c-0.5-0.2-0.1-0.5-0.1-0.7c0.8-2.3,1.6-4.5,2.4-6.8
		c0.2-0.6,0.4-0.7,1-0.5c1.8,0.7,3.6,1.4,5.5,2c0.6,0.2,0.7,0.4,0.4,1c-0.8,2.2-1.6,4.4-2.4,6.6C30.1,15.5,30.1,15.9,29.7,15.9z
		 M33.1,19.9c-0.8-0.3-1-0.6-0.7-1.4c1.4-3.6,2.7-7.2,4-10.9c0.3-0.9,0.6-0.9,1.4-0.6c7.4,2.8,14.8,5.5,22.2,8.3
		c3.1,1.2,4.9,3.4,5.4,6.7c0.2,1,0,1.4-1.2,1.3c-3.5-0.1-7,0-10.5,0h-2.1C42,23.3,42,23.2,33.1,19.9z M38.4,65
		c-0.3,0.4-0.7,0.6-1.2,0.6c-1.6-0.7-3.2-1.2-4.5-2.5c-0.5-0.5-0.2-2.1,0.4-2.5c0.3-0.2,0.5,0.1,0.8,0.2c1.4,0.7,2.8,1.5,4.2,2.2
		C39.3,63.6,39.3,64,38.4,65z M44.2,57.6c-0.6,1-1.2,2.1-1.7,3.2c-0.2,0.5-0.4,0.6-0.9,0.3c-2.5-1.4-5-2.7-7.6-4
		c-0.3-0.1-0.6-0.2-0.3-0.6c0.7-1.3,1.4-2.6,2.1-3.8c0.1-0.1,0.1-0.3,0.1-0.3c0.4,0.2,0.5,0.3,0.7,0.3c2.5,1.3,4.9,2.6,7.4,3.9
		C44.4,56.8,44.5,57.1,44.2,57.6z M44.8,53.1c-0.2,0.3-0.4,0-0.6-0.1c-1.6-0.8-3.2-1.7-4.8-2.5c-0.5-0.3-0.5-0.5-0.3-0.9
		c1.1-2.2,1-2.2,3.2-1.1c1.1,0.6,2.2,1.2,3.3,1.8c0.2,0.1,0.6,0.2,0.6,0.6C45.6,51.5,45.2,52.3,44.8,53.1z M59.2,72.2
		c-1.4,0.2-2.9,0.1-4.3,0c-0.9-0.1-1.5-1.7-1.1-2.5c0.2-0.4,0.5-0.3,0.7-0.3c0.9,0,1.8,0,2.7,0c0.6,0,1.3-0.1,1.9,0
		c0.5,0.1,1.4-0.6,1.4,0.6C60.6,71,60.4,72,59.2,72.2z M61.2,66.1c-1.4,0-2.7,0-4.1,0c-1.3,0-2.7,0-4,0c-0.7,0-1-0.1-0.9-0.9
		c0.1-1.1,0-2.2,0-3.4c0-0.6,0.1-0.9,0.8-0.9c2.8,0,5.6,0,8.3,0c0.6,0,0.8,0.2,0.7,0.8c0,1.2-0.1,2.3,0,3.5
		C62.1,66,61.8,66.1,61.2,66.1z M53.7,54.5c2.1,1.1,3.9,2.1,5.8,3.1c0,0.1,0,0.1,0,0.2c-1.8,0-3.5,0-5.2,0c-0.5,0-0.5-0.2-0.5-0.6
		C53.7,56.3,53.7,55.5,53.7,54.5z M65.3,56.6c-0.3,0.5-0.7,0-1-0.2c-7.3-3.8-14.5-7.7-21.7-11.5c-0.9-0.5-2.4-0.9-2.7-1.6
		c-0.2-0.7,0.9-1.8,1.3-2.8c0.5-1.2,1-1.2,2.1-0.6C51,44,58.7,48,66.5,52.2c0.3,0.2,0.8,0.2,0.9,0.8C66.7,54.1,66.1,55.4,65.3,56.6z
		 M65.5,47.9c-5.1-2.7-10-5.3-15-8c0.2-0.1,0.3-0.2,0.5-0.2c4.6,1,9.2,2,13.8,3c0.4,0.1,0.7,0.3,0.7,0.8
		C65.5,45,65.5,46.3,65.5,47.9z M84.5,94.8c0-3.9,0-7.7,0-11.6c0-0.7,0.1-1,0.9-1c5,0,10,0,15,0c1.3,0,1.9,0.5,1.9,1.9
		c0,7.4,0,14.8,0,22.2c0,0.8-0.2,1-0.9,1c-5.3,0-10.6,0-15.9,0c-0.8,0-1-0.3-1-1C84.5,102.5,84.5,98.6,84.5,94.8z M50.2,104.7
		c4.6,0.1,9.2,0,13.7,0c0.6,0,0.8,0.1,0.8,0.7c0,1.9,0.1,1.9-1.8,1.9h-5.9c-2.3,0-4.6-0.1-6.9,0c-1.2,0-0.8-0.8-0.8-1.3
		C49.4,105.5,49,104.7,50.2,104.7z M102.3,123.7c0,0.9-0.3,1.1-1.1,1.1c-13.6,0-27.2,0-40.9,0c-13.5,0-27,0-40.5,0
		c-1.1,0-1.3-0.3-1.4-1.3c-0.3-2.5,0.6-4.4,2.5-6c2.2-1.9,4.1-4,6.1-6.1c0.5-0.5,0.9-0.7,1.6-0.7c24.2,0,48.3,0,72.5,0
		c0.9,0,1.1,0.2,1.1,1.1C102.2,115.7,102.2,119.7,102.3,123.7z M108.1,124.8c-2.5-0.1-2.5,0-2.5-2.5v-18.6c0-6.4,0-12.8,0-19.2
		c0-3.6-1.8-5.4-5.5-5.4c-2,0-4.1-0.1-6.1,0c-1,0-1.2-0.2-1.2-1.2c0-9.9,0-19.7,0-29.6c0-2.2-0.2-2.4-2.3-2.9
		c-15.5-3.5-30.9-7-46.4-10.5c-0.6-0.1-0.8-0.4-0.8-1c0-2.1,0-4.3,0-6.4c0-0.6,0.1-0.9,0.8-0.9c8,0,16,0,24,0c0.6,0,0.8,0.2,0.8,0.8
		c0,1.3,0,2.5,0,3.7c-0.1,1.3,0.5,1.9,1.7,2.2c10.6,2.5,21.3,5,31.9,7.5c4.8,1.1,7.1,4,7.1,8.9c0,24.5,0,49.1,0,73.6
		C109.5,124.4,109.3,124.9,108.1,124.8z M93.4,102.2c4.2,0,7.6-3.4,7.6-7.6c0-4.3-3.3-7.7-7.6-7.8c-4.2,0-7.7,3.4-7.7,7.5
		C85.7,98.7,89.1,102.2,93.4,102.2z M93.4,90.1c2.4,0,4.4,2.1,4.3,4.5c0,2.4-2,4.3-4.4,4.2c-2.4,0-4.3-1.9-4.3-4.3
		C89,92.1,91,90,93.4,90.1z"/>
	<path d="M93.4,86.8c-4.2,0-7.7,3.4-7.7,7.5c0,4.3,3.4,7.9,7.6,7.9c4.2,0,7.6-3.4,7.6-7.6C101,90.3,97.7,86.8,93.4,86.8z M93.3,98.8
		c-2.4,0-4.3-1.9-4.3-4.3c0-2.4,2-4.5,4.4-4.4c2.4,0,4.4,2.1,4.3,4.5C97.7,97,95.8,98.8,93.3,98.8z"/>
	<path d="M51,39.7c-0.2,0.1-0.3,0.2-0.5,0.2C50.5,39.5,50.8,39.6,51,39.7z"/>
	<path d="M51,39.7c-0.2,0.1-0.3,0.2-0.5,0.2c-0.2-0.1-0.5-0.2-0.8-0.3C50.2,39.3,50.6,39.5,51,39.7z"/>
</g>
</svg>
