<?xml version="1.0" encoding="utf-8"?>
<!-- Generator: Adobe Illustrator 28.0.0, SVG Export Plug-In . SVG Version: 6.00 Build 0)  -->
<svg version="1.1" id="Layer_1" xmlns="http://www.w3.org/2000/svg" xmlns:xlink="http://www.w3.org/1999/xlink" x="0px" y="0px"
	 viewBox="0 0 128 128" style="enable-background:new 0 0 128 128;" xml:space="preserve">
<g id="SdBJH2.tif">
	<g>
		<path d="M103.9,15.2c-2.1-1.5-4.5-2.3-6.9-3C87.9,9.7,78.5,9,69.1,8.7c-7.7-0.3-15.4,0-23.1,0.8c-5.7,0.6-11.3,1.4-16.8,3.2
			c-2.4,0.8-4.8,1.8-6.6,3.7c-1.7,1.8-1.7,4.1,0,6c0.8,0.9,1.8,1.5,2.9,2.1c3.1,1.6,6.5,2.5,9.9,3.2c9.4,1.8,19,2.5,26.7,2.4
			c11.9,0,21.9-0.6,31.7-2.7c3.5-0.7,7-1.7,10.1-3.7C107.5,21.1,107.4,17.6,103.9,15.2z M101,20.3c-2.5,1.4-5.2,2.2-8,2.7
			c-11.4,2.3-22.9,2.9-34.5,2.6c-5.9-0.2-11.8-0.6-17.6-1.5c-4.7-0.7-9.3-1.5-13.6-3.6c-0.6-0.3-1.5-0.5-1.4-1.2
			c0-0.7,0.9-0.9,1.5-1.2c3.3-1.6,6.9-2.3,10.4-3c8.7-1.6,17.4-2,26.4-2.1c9.9,0.2,20,0.7,29.9,2.9c2.4,0.6,4.8,1.2,7,2.4
			C102.5,19.1,102.5,19.5,101,20.3z M103.9,15.2c-2.1-1.5-4.5-2.3-6.9-3C87.9,9.7,78.5,9,69.1,8.7c-7.7-0.3-15.4,0-23.1,0.8
			c-5.7,0.6-11.3,1.4-16.8,3.2c-2.4,0.8-4.8,1.8-6.6,3.7c-1.7,1.8-1.7,4.1,0,6c0.8,0.9,1.8,1.5,2.9,2.1c3.1,1.6,6.5,2.5,9.9,3.2
			c9.4,1.8,19,2.5,26.7,2.4c11.9,0,21.9-0.6,31.7-2.7c3.5-0.7,7-1.7,10.1-3.7C107.5,21.1,107.4,17.6,103.9,15.2z M101,20.3
			c-2.5,1.4-5.2,2.2-8,2.7c-11.4,2.3-22.9,2.9-34.5,2.6c-5.9-0.2-11.8-0.6-17.6-1.5c-4.7-0.7-9.3-1.5-13.6-3.6
			c-0.6-0.3-1.5-0.5-1.4-1.2c0-0.7,0.9-0.9,1.5-1.2c3.3-1.6,6.9-2.3,10.4-3c8.7-1.6,17.4-2,26.4-2.1c9.9,0.2,20,0.7,29.9,2.9
			c2.4,0.6,4.8,1.2,7,2.4C102.5,19.1,102.5,19.5,101,20.3z M103.9,15.2c-2.1-1.5-4.5-2.3-6.9-3C87.9,9.7,78.5,9,69.1,8.7
			c-7.7-0.3-15.4,0-23.1,0.8c-5.7,0.6-11.3,1.4-16.8,3.2c-2.4,0.8-4.8,1.8-6.6,3.7c-1.7,1.8-1.7,4.1,0,6c0.8,0.9,1.8,1.5,2.9,2.1
			c3.1,1.6,6.5,2.5,9.9,3.2c9.4,1.8,19,2.5,26.7,2.4c11.9,0,21.9-0.6,31.7-2.7c3.5-0.7,7-1.7,10.1-3.7
			C107.5,21.1,107.4,17.6,103.9,15.2z M101,20.3c-2.5,1.4-5.2,2.2-8,2.7c-11.4,2.3-22.9,2.9-34.5,2.6c-5.9-0.2-11.8-0.6-17.6-1.5
			c-4.7-0.7-9.3-1.5-13.6-3.6c-0.6-0.3-1.5-0.5-1.4-1.2c0-0.7,0.9-0.9,1.5-1.2c3.3-1.6,6.9-2.3,10.4-3c8.7-1.6,17.4-2,26.4-2.1
			c9.9,0.2,20,0.7,29.9,2.9c2.4,0.6,4.8,1.2,7,2.4C102.5,19.1,102.5,19.5,101,20.3z M103.9,15.2c-2.1-1.5-4.5-2.3-6.9-3
			C87.9,9.7,78.5,9,69.1,8.7c-7.7-0.3-15.4,0-23.1,0.8c-5.7,0.6-11.3,1.4-16.8,3.2c-2.4,0.8-4.8,1.8-6.6,3.7c-1.7,1.8-1.7,4.1,0,6
			c0.8,0.9,1.8,1.5,2.9,2.1c3.1,1.6,6.5,2.5,9.9,3.2c9.4,1.8,19,2.5,26.7,2.4c11.9,0,21.9-0.6,31.7-2.7c3.5-0.7,7-1.7,10.1-3.7
			C107.5,21.1,107.4,17.6,103.9,15.2z M101,20.3c-2.5,1.4-5.2,2.2-8,2.7c-11.4,2.3-22.9,2.9-34.5,2.6c-5.9-0.2-11.8-0.6-17.6-1.5
			c-4.7-0.7-9.3-1.5-13.6-3.6c-0.6-0.3-1.5-0.5-1.4-1.2c0-0.7,0.9-0.9,1.5-1.2c3.3-1.6,6.9-2.3,10.4-3c8.7-1.6,17.4-2,26.4-2.1
			c9.9,0.2,20,0.7,29.9,2.9c2.4,0.6,4.8,1.2,7,2.4C102.5,19.1,102.5,19.5,101,20.3z M103.9,15.2c-2.1-1.5-4.5-2.3-6.9-3
			C87.9,9.7,78.5,9,69.1,8.7c-7.7-0.3-15.4,0-23.1,0.8c-5.7,0.6-11.3,1.4-16.8,3.2c-2.4,0.8-4.8,1.8-6.6,3.7c-1.7,1.8-1.7,4.1,0,6
			c0.8,0.9,1.8,1.5,2.9,2.1c3.1,1.6,6.5,2.5,9.9,3.2c9.4,1.8,19,2.5,26.7,2.4c11.9,0,21.9-0.6,31.7-2.7c3.5-0.7,7-1.7,10.1-3.7
			C107.5,21.1,107.4,17.6,103.9,15.2z M101,20.3c-2.5,1.4-5.2,2.2-8,2.7c-11.4,2.3-22.9,2.9-34.5,2.6c-5.9-0.2-11.8-0.6-17.6-1.5
			c-4.7-0.7-9.3-1.5-13.6-3.6c-0.6-0.3-1.5-0.5-1.4-1.2c0-0.7,0.9-0.9,1.5-1.2c3.3-1.6,6.9-2.3,10.4-3c8.7-1.6,17.4-2,26.4-2.1
			c9.9,0.2,20,0.7,29.9,2.9c2.4,0.6,4.8,1.2,7,2.4C102.5,19.1,102.5,19.5,101,20.3z M103.9,15.2c-2.1-1.5-4.5-2.3-6.9-3
			C87.9,9.7,78.5,9,69.1,8.7c-7.7-0.3-15.4,0-23.1,0.8c-5.7,0.6-11.3,1.4-16.8,3.2c-2.4,0.8-4.8,1.8-6.6,3.7c-1.7,1.8-1.7,4.1,0,6
			c0.8,0.9,1.8,1.5,2.9,2.1c3.1,1.6,6.5,2.5,9.9,3.2c9.4,1.8,19,2.5,26.7,2.4c11.9,0,21.9-0.6,31.7-2.7c3.5-0.7,7-1.7,10.1-3.7
			C107.5,21.1,107.4,17.6,103.9,15.2z M101,20.3c-2.5,1.4-5.2,2.2-8,2.7c-11.4,2.3-22.9,2.9-34.5,2.6c-5.9-0.2-11.8-0.6-17.6-1.5
			c-4.7-0.7-9.3-1.5-13.6-3.6c-0.6-0.3-1.5-0.5-1.4-1.2c0-0.7,0.9-0.9,1.5-1.2c3.3-1.6,6.9-2.3,10.4-3c8.7-1.6,17.4-2,26.4-2.1
			c9.9,0.2,20,0.7,29.9,2.9c2.4,0.6,4.8,1.2,7,2.4C102.5,19.1,102.5,19.5,101,20.3z M128,30.2c0-2-0.7-2.7-2.7-2.8
			c-1.3,0-2.6,0-3.9,0c-1.6,0-1.7-0.1-1.7-1.6c0-2,0-4.1,0-6.1c0.1-2.7-1-4.9-2.8-6.9c-1.8-2-4-3.4-6.3-4.6
			c-5.2-2.7-10.8-4.3-16.5-5.5c-7.3-1.5-14.8-2.5-22.3-2.6c-7.5-0.1-15-0.3-22.5,0.3c-8.2,0.6-16.3,2-24.2,4.5
			c-4.4,1.4-8.6,3.1-12.3,6c-3.2,2.5-5.1,5.6-4.8,9.8c0.1,1.7,0,3.4,0,5.1c0,1.6-0.1,1.7-1.6,1.7c-1.4,0-2.7,0-4.1,0
			c-1.2,0-2.1,0.4-2.4,1.7V46c0.3,1.4,0.2,2.7,0.3,4.1c0.9,7.5,3.4,14.4,6.9,21c0.6,1.1,0.9,2.2,0.9,3.5c0,11.2,0,22.3,0,33.5
			c0,3.1,1.1,5.5,3.2,7.6c2.2,2.2,4.9,3.8,7.7,5.1c4.2,1.9,8.5,3.3,13,4.2c6.3,1.4,12.7,2.5,19.2,2.7c1.4,0,2.8-0.1,4.2,0.2H57
			c0,0,0,0,0,0c0.3-0.2,0.7-0.2,1,0h1.6c0,0,0.1,0,0.1,0c0.8-0.2,1.7-0.2,2.5,0h3.3c0,0,0.1,0,0.1,0c0.7-0.2,1.4-0.2,2.2,0
			c0,0,0.1,0,0.1,0h1.8c0,0,0,0,0.1,0c0.2-0.1,0.4,0,0.7-0.1h0.1c0,0,0,0,0,0h0c0.2,0,0.3,0,0.4,0.1h0.8c0.5-0.2,1-0.1,1.4-0.1
			c2.6,0,5.2-0.1,7.8-0.4c7.4-0.8,14.8-2.1,21.9-4.4c4.2-1.4,8.3-3.1,11.8-5.9c3.1-2.5,4.9-5.5,4.8-9.7c-0.1-11,0-22,0-33
			c0-1,0-1.9,0.6-2.8c1.9-3.2,3.3-6.6,4.5-10.1c1.6-4.6,2.8-9.4,3.1-14.3C128.1,41.6,127.9,36,128,30.2z M8.5,62
			c-1.8-3.8-2.8-7.8-3.5-11.9c-1-5.7-0.8-11.5-0.8-17.2c0-0.5,0.1-0.7,0.7-0.8c3.6-0.2,3.6-0.2,3.6,3.3V62z M14.7,15.7
			c3.1-3,7-4.6,11-5.9c6.7-2.3,13.7-3.5,20.7-4.3c5.8-0.7,11.7-0.9,17.3-1C76,4.6,88,5.5,99.7,9c4.2,1.2,8.2,2.7,11.8,5.3
			c0.4,0.2,0.7,0.5,1,0.8c3.3,3,3.3,5.8-0.2,8.6c-4,3.3-8.8,4.9-13.6,6.3c-7.6,2.2-15.3,3.2-23.1,3.8c-8.2,0.6-16.3,0.6-24.4,0
			c-10.3-0.9-20.5-2.4-30-6.6c-2.4-1.1-4.6-2.3-6.4-4.1C12.2,20.5,12.2,18.1,14.7,15.7z M80.8,63.2c-0.8,4.4-4.6,7.5-8.8,7.2
			c-4.6-0.4-8-4-8.1-8.6c0-2.2,0.3-4.3-0.2-6.5c-1.2-5.3-6.1-8.8-11.7-8.3c-5.2,0.5-9.4,5.2-9.4,10.5c0,4.3,0,8.5,0,12.8
			c0,4.1-2.9,7.6-6.6,8.4c-5.6,1.1-10.4-2.8-10.4-8.6c0-8.5,0-17,0-25.5V33.4c5.4,1.6,10.7,2.8,16.1,3.6c5.7,0.8,11.5,1.3,17.2,1.5
			c8.1,0.3,16.2,0,24.3-1.1c4.6-0.6,9.2-1.3,13.7-2.5c0.9-0.3,1.1,0,1.1,0.9c-0.1,1.6,0,3.2,0,4.8c-0.1,3.6-2.7,6.5-6.4,6.4
			c-5.8,0-11,5-10.7,11.2C81,59.9,81.1,61.6,80.8,63.2z M113,112.7c-2.4,2.3-5.3,3.6-8.4,4.8c-6.7,2.6-13.6,4-20.7,4.9
			c-7.3,0.9-14.6,1.4-22,1.3c-12.3-0.3-24.5-1.4-36.2-5.3c-3.3-1.1-6.5-2.5-9.4-4.5c-2.3-1.7-3.6-3.8-3.5-6.8c0.1-8.8,0-17.7,0-26.5
			v-1.5c1.2,1.5,2.3,2.7,3.4,4c6.5,7.3,14.3,12.9,23.4,16.7c0.7,0.3,1,0.6,1,1.4c-0.1,1.1,0,2.1,0,3.2c0,1.6,0.8,2.4,2.4,2.4
			c4.1,0,8.2,0,12.2,0h29.6c2,0,2.7-0.7,2.7-2.7c0-1.3-0.4-2.8,0.2-3.8c0.5-0.9,2.1-1.1,3.3-1.6c9.2-4.4,17.1-10.5,23.4-18.6
			c0.2-0.3,0.4-0.5,0.8-1c0,0.6,0.1,1,0.1,1.4c0,9.1,0,18.2,0,27.3C115.1,109.8,114.4,111.4,113,112.7z M44.7,101.2
			c0.1-3.1,0-3.1,3.1-3.1c11.3,0,22.6,0,33.9,0c1.1,0,1.4,0.3,1.4,1.4c-0.1,2.9,0,2.9-3,2.9H63.9c-6,0-12,0-18,0
			C44.9,102.5,44.7,102.2,44.7,101.2z M114.4,72.3c-6.4,10.1-15.1,17.6-26,22.6c-0.7,0.3-1.2,0.6-1.7-0.4c-0.3-0.6-1-0.7-1.6-0.7
			H42.8c-0.7,0-1.3,0.1-1.7,0.7c-0.5,0.9-1.1,0.7-1.8,0.4c-11-5.1-19.7-12.8-26.1-23c-0.3-0.4-0.4-0.9-0.4-1.4V27.8
			c0-0.2,0-0.3,0.1-0.7c2.3,1.8,4.7,3.2,7.3,4.2c0.9,0.4,1.2,0.8,1.2,1.8c0,12.3,0.1,24.6-0.1,36.8c-0.1,7,5.6,13.8,13.9,13.2
			c6.1-0.4,11.6-6,11.7-12.1c0.1-4.5,0-9,0-13.5c0-3.3,2.3-5.8,5.6-6.4c2.7-0.4,5.7,1.4,6.7,4.1c0.4,1.1,0.5,2.2,0.5,3.4
			c0,2.5-0.2,5,0.7,7.5c2.1,5.6,8.1,9.3,13.8,8.3c6.4-1.1,10.9-6.2,11-12.5c0-1.9-0.2-3.8,0.2-5.6c0.7-3.1,3-5.2,6.2-5.2
			c5.8,0.1,11.1-4.9,10.7-11.3c-0.1-1.9,0-3.8,0-5.7c0-0.5,0-0.9,0.6-1.1c4.3-1.4,8.4-3.1,12.2-6v1.5c0,13.8,0,27.6,0,41.4
			C115.1,70.9,114.9,71.6,114.4,72.3z M121.2,57c-0.5,1.7-1.1,3.3-1.6,5h-0.3V38.5c0-1.8,0-3.5,0-5.3c0-0.7,0.1-1.1,1-1.1
			c3.3,0,3.3-0.1,3.3,3.3C123.7,42.7,123.3,49.9,121.2,57z M25.4,24.4c3.1,1.6,6.5,2.5,9.9,3.2c9.4,1.8,19,2.5,26.7,2.4
			c11.9,0,21.9-0.6,31.7-2.7c3.5-0.7,7-1.7,10.1-3.7c3.6-2.4,3.6-5.9,0-8.4c-2.1-1.5-4.5-2.3-6.9-3C87.9,9.7,78.5,9,69.1,8.7
			c-7.7-0.3-15.4,0-23.1,0.8c-5.7,0.6-11.3,1.4-16.8,3.2c-2.4,0.8-4.8,1.8-6.6,3.7c-1.7,1.8-1.7,4.1,0,6
			C23.3,23.2,24.3,23.9,25.4,24.4z M27.3,18.1c3.3-1.6,6.9-2.3,10.4-3c8.7-1.6,17.4-2,26.4-2.1c9.9,0.2,20,0.7,29.9,2.9
			c2.4,0.6,4.8,1.2,7,2.4c1.5,0.8,1.5,1.2,0,2c-2.5,1.4-5.2,2.2-8,2.7c-11.4,2.3-22.9,2.9-34.5,2.6c-5.9-0.2-11.8-0.6-17.6-1.5
			c-4.7-0.7-9.3-1.5-13.6-3.6c-0.6-0.3-1.5-0.5-1.4-1.2C25.9,18.6,26.7,18.3,27.3,18.1z M103.9,15.2c-2.1-1.5-4.5-2.3-6.9-3
			C87.9,9.7,78.5,9,69.1,8.7c-7.7-0.3-15.4,0-23.1,0.8c-5.7,0.6-11.3,1.4-16.8,3.2c-2.4,0.8-4.8,1.8-6.6,3.7c-1.7,1.8-1.7,4.1,0,6
			c0.8,0.9,1.8,1.5,2.9,2.1c3.1,1.6,6.5,2.5,9.9,3.2c9.4,1.8,19,2.5,26.7,2.4c11.9,0,21.9-0.6,31.7-2.7c3.5-0.7,7-1.7,10.1-3.7
			C107.5,21.1,107.4,17.6,103.9,15.2z M101,20.3c-2.5,1.4-5.2,2.2-8,2.7c-11.4,2.3-22.9,2.9-34.5,2.6c-5.9-0.2-11.8-0.6-17.6-1.5
			c-4.7-0.7-9.3-1.5-13.6-3.6c-0.6-0.3-1.5-0.5-1.4-1.2c0-0.7,0.9-0.9,1.5-1.2c3.3-1.6,6.9-2.3,10.4-3c8.7-1.6,17.4-2,26.4-2.1
			c9.9,0.2,20,0.7,29.9,2.9c2.4,0.6,4.8,1.2,7,2.4C102.5,19.1,102.5,19.5,101,20.3z M103.9,15.2c-2.1-1.5-4.5-2.3-6.9-3
			C87.9,9.7,78.5,9,69.1,8.7c-7.7-0.3-15.4,0-23.1,0.8c-5.7,0.6-11.3,1.4-16.8,3.2c-2.4,0.8-4.8,1.8-6.6,3.7c-1.7,1.8-1.7,4.1,0,6
			c0.8,0.9,1.8,1.5,2.9,2.1c3.1,1.6,6.5,2.5,9.9,3.2c9.4,1.8,19,2.5,26.7,2.4c11.9,0,21.9-0.6,31.7-2.7c3.5-0.7,7-1.7,10.1-3.7
			C107.5,21.1,107.4,17.6,103.9,15.2z M101,20.3c-2.5,1.4-5.2,2.2-8,2.7c-11.4,2.3-22.9,2.9-34.5,2.6c-5.9-0.2-11.8-0.6-17.6-1.5
			c-4.7-0.7-9.3-1.5-13.6-3.6c-0.6-0.3-1.5-0.5-1.4-1.2c0-0.7,0.9-0.9,1.5-1.2c3.3-1.6,6.9-2.3,10.4-3c8.7-1.6,17.4-2,26.4-2.1
			c9.9,0.2,20,0.7,29.9,2.9c2.4,0.6,4.8,1.2,7,2.4C102.5,19.1,102.5,19.5,101,20.3z M103.9,15.2c-2.1-1.5-4.5-2.3-6.9-3
			C87.9,9.7,78.5,9,69.1,8.7c-7.7-0.3-15.4,0-23.1,0.8c-5.7,0.6-11.3,1.4-16.8,3.2c-2.4,0.8-4.8,1.8-6.6,3.7c-1.7,1.8-1.7,4.1,0,6
			c0.8,0.9,1.8,1.5,2.9,2.1c3.1,1.6,6.5,2.5,9.9,3.2c9.4,1.8,19,2.5,26.7,2.4c11.9,0,21.9-0.6,31.7-2.7c3.5-0.7,7-1.7,10.1-3.7
			C107.5,21.1,107.4,17.6,103.9,15.2z M101,20.3c-2.5,1.4-5.2,2.2-8,2.7c-11.4,2.3-22.9,2.9-34.5,2.6c-5.9-0.2-11.8-0.6-17.6-1.5
			c-4.7-0.7-9.3-1.5-13.6-3.6c-0.6-0.3-1.5-0.5-1.4-1.2c0-0.7,0.9-0.9,1.5-1.2c3.3-1.6,6.9-2.3,10.4-3c8.7-1.6,17.4-2,26.4-2.1
			c9.9,0.2,20,0.7,29.9,2.9c2.4,0.6,4.8,1.2,7,2.4C102.5,19.1,102.5,19.5,101,20.3z M103.9,15.2c-2.1-1.5-4.5-2.3-6.9-3
			C87.9,9.7,78.5,9,69.1,8.7c-7.7-0.3-15.4,0-23.1,0.8c-5.7,0.6-11.3,1.4-16.8,3.2c-2.4,0.8-4.8,1.8-6.6,3.7c-1.7,1.8-1.7,4.1,0,6
			c0.8,0.9,1.8,1.5,2.9,2.1c3.1,1.6,6.5,2.5,9.9,3.2c9.4,1.8,19,2.5,26.7,2.4c11.9,0,21.9-0.6,31.7-2.7c3.5-0.7,7-1.7,10.1-3.7
			C107.5,21.1,107.4,17.6,103.9,15.2z M101,20.3c-2.5,1.4-5.2,2.2-8,2.7c-11.4,2.3-22.9,2.9-34.5,2.6c-5.9-0.2-11.8-0.6-17.6-1.5
			c-4.7-0.7-9.3-1.5-13.6-3.6c-0.6-0.3-1.5-0.5-1.4-1.2c0-0.7,0.9-0.9,1.5-1.2c3.3-1.6,6.9-2.3,10.4-3c8.7-1.6,17.4-2,26.4-2.1
			c9.9,0.2,20,0.7,29.9,2.9c2.4,0.6,4.8,1.2,7,2.4C102.5,19.1,102.5,19.5,101,20.3z M103.9,15.2c-2.1-1.5-4.5-2.3-6.9-3
			C87.9,9.7,78.5,9,69.1,8.7c-7.7-0.3-15.4,0-23.1,0.8c-5.7,0.6-11.3,1.4-16.8,3.2c-2.4,0.8-4.8,1.8-6.6,3.7c-1.7,1.8-1.7,4.1,0,6
			c0.8,0.9,1.8,1.5,2.9,2.1c3.1,1.6,6.5,2.5,9.9,3.2c9.4,1.8,19,2.5,26.7,2.4c11.9,0,21.9-0.6,31.7-2.7c3.5-0.7,7-1.7,10.1-3.7
			C107.5,21.1,107.4,17.6,103.9,15.2z M101,20.3c-2.5,1.4-5.2,2.2-8,2.7c-11.4,2.3-22.9,2.9-34.5,2.6c-5.9-0.2-11.8-0.6-17.6-1.5
			c-4.7-0.7-9.3-1.5-13.6-3.6c-0.6-0.3-1.5-0.5-1.4-1.2c0-0.7,0.9-0.9,1.5-1.2c3.3-1.6,6.9-2.3,10.4-3c8.7-1.6,17.4-2,26.4-2.1
			c9.9,0.2,20,0.7,29.9,2.9c2.4,0.6,4.8,1.2,7,2.4C102.5,19.1,102.5,19.5,101,20.3z M103.9,15.2c-2.1-1.5-4.5-2.3-6.9-3
			C87.9,9.7,78.5,9,69.1,8.7c-7.7-0.3-15.4,0-23.1,0.8c-5.7,0.6-11.3,1.4-16.8,3.2c-2.4,0.8-4.8,1.8-6.6,3.7c-1.7,1.8-1.7,4.1,0,6
			c0.8,0.9,1.8,1.5,2.9,2.1c3.1,1.6,6.5,2.5,9.9,3.2c9.4,1.8,19,2.5,26.7,2.4c11.9,0,21.9-0.6,31.7-2.7c3.5-0.7,7-1.7,10.1-3.7
			C107.5,21.1,107.4,17.6,103.9,15.2z M101,20.3c-2.5,1.4-5.2,2.2-8,2.7c-11.4,2.3-22.9,2.9-34.5,2.6c-5.9-0.2-11.8-0.6-17.6-1.5
			c-4.7-0.7-9.3-1.5-13.6-3.6c-0.6-0.3-1.5-0.5-1.4-1.2c0-0.7,0.9-0.9,1.5-1.2c3.3-1.6,6.9-2.3,10.4-3c8.7-1.6,17.4-2,26.4-2.1
			c9.9,0.2,20,0.7,29.9,2.9c2.4,0.6,4.8,1.2,7,2.4C102.5,19.1,102.5,19.5,101,20.3z"/>
		<path d="M98,35.8c-0.1,1.6,0,3.2,0,4.8c-0.1,3.6-2.7,6.5-6.4,6.4c-5.8,0-11,5-10.7,11.2c0.1,1.7,0.2,3.3-0.1,5
			c-0.8,4.4-4.6,7.5-8.8,7.2c-4.6-0.4-8-4-8.1-8.6c0-2.2,0.3-4.3-0.2-6.5c-1.2-5.3-6.1-8.8-11.7-8.3c-5.2,0.5-9.4,5.2-9.4,10.5
			c0,4.3,0,8.5,0,12.8c0,4.1-2.9,7.6-6.6,8.4c-5.6,1.1-10.4-2.8-10.4-8.6c0-8.5,0-17,0-25.5V33.4c5.4,1.6,10.7,2.8,16.1,3.6
			c5.7,0.8,11.5,1.3,17.2,1.5c8.1,0.3,16.2,0,24.3-1.1c4.6-0.6,9.2-1.3,13.7-2.5C97.9,34.6,98.1,34.9,98,35.8z"/>
		<path d="M59.7,128c0.9-0.4,1.8-0.4,2.7,0C61.4,128,60.6,128,59.7,128z"/>
		<path d="M65.5,128c0.8-0.4,1.6-0.4,2.4,0C67.1,128,66.3,128,65.5,128z"/>
		<path d="M57,128c0.4-0.5,0.7-0.3,1.1,0C57.7,128,57.4,128,57,128z"/>
		<path d="M69.8,128c0.2-0.3,0.5-0.3,0.8-0.2c0.1,0.1,0.1,0.1,0.1,0.2c0,0-0.1,0.1-0.1,0.1C70.3,128,70.1,128,69.8,128z"/>
		<path d="M70.6,128c0-0.1,0-0.2,0-0.2c0.2,0,0.4-0.1,0.5,0.2C70.9,128,70.8,128,70.6,128z"/>
		<path d="M103.9,15.1c-2.1-1.5-4.5-2.3-6.9-3C87.9,9.7,78.5,9,69.1,8.7c-7.7-0.3-15.4,0-23.1,0.8c-5.7,0.6-11.3,1.4-16.8,3.2
			c-2.4,0.8-4.8,1.8-6.6,3.7c-1.7,1.8-1.7,4.1,0,6c0.8,0.9,1.8,1.5,2.9,2.1c3.1,1.6,6.5,2.5,9.9,3.1c9.4,1.8,19,2.5,26.7,2.4
			c11.9,0,21.9-0.6,31.7-2.7c3.5-0.7,7-1.7,10.1-3.7C107.5,21.1,107.4,17.6,103.9,15.1z M101,20.3c-2.5,1.4-5.2,2.2-8,2.7
			c-11.4,2.3-22.9,2.9-34.5,2.6c-5.9-0.2-11.8-0.6-17.6-1.5c-4.7-0.7-9.3-1.5-13.6-3.6c-0.6-0.3-1.5-0.5-1.4-1.2
			c0-0.7,0.9-0.9,1.5-1.2c3.3-1.6,6.9-2.3,10.4-3c8.7-1.6,17.4-2,26.4-2.2c9.9,0.2,20,0.7,29.9,2.9c2.4,0.6,4.8,1.2,7,2.4
			C102.5,19.1,102.5,19.4,101,20.3z"/>
		<path d="M103.9,15.1c-2.1-1.5-4.5-2.3-6.9-3C87.9,9.7,78.5,9,69.1,8.7c-7.7-0.3-15.4,0-23.1,0.8c-5.7,0.6-11.3,1.4-16.8,3.2
			c-2.4,0.8-4.8,1.8-6.6,3.7c-1.7,1.8-1.7,4.1,0,6c0.8,0.9,1.8,1.5,2.9,2.1c3.1,1.6,6.5,2.5,9.9,3.1c9.4,1.8,19,2.5,26.7,2.4
			c11.9,0,21.9-0.6,31.7-2.7c3.5-0.7,7-1.7,10.1-3.7C107.5,21.1,107.4,17.6,103.9,15.1z M101,20.3c-2.5,1.4-5.2,2.2-8,2.7
			c-11.4,2.3-22.9,2.9-34.5,2.6c-5.9-0.2-11.8-0.6-17.6-1.5c-4.7-0.7-9.3-1.5-13.6-3.6c-0.6-0.3-1.5-0.5-1.4-1.2
			c0-0.7,0.9-0.9,1.5-1.2c3.3-1.6,6.9-2.3,10.4-3c8.7-1.6,17.4-2,26.4-2.2c9.9,0.2,20,0.7,29.9,2.9c2.4,0.6,4.8,1.2,7,2.4
			C102.5,19.1,102.5,19.4,101,20.3z"/>
	</g>
</g>
</svg>
