<?xml version="1.0" encoding="utf-8"?>
<!-- Generator: Adobe Illustrator 28.0.0, SVG Export Plug-In . SVG Version: 6.00 Build 0)  -->
<svg version="1.1" id="Layer_1" xmlns="http://www.w3.org/2000/svg" xmlns:xlink="http://www.w3.org/1999/xlink" x="0px" y="0px"
	 viewBox="0 0 128 128" style="enable-background:new 0 0 128 128;" xml:space="preserve">
<g>
	<path d="M12.9,96c-1.3,0-2.2,0.9-2.2,2.2c0,1.2,0.9,2.1,2.2,2.1c1.2,0,2.1-1,2.1-2.1S14,96,12.9,96z M17.1,104.5
		c-1.2,0-2.1,0.9-2.1,2.1c0,1.2,0.9,2.1,2.1,2.2c1.3,0,2.2-0.9,2.2-2.2C19.2,105.5,18.2,104.5,17.1,104.5z M25.6,110.9
		c-1.2,0-2.1,0.9-2.1,2.1c0,1.2,0.9,2.1,2.1,2.2c1.2,0,2.2-1,2.2-2.2C27.7,111.8,26.8,110.9,25.6,110.9z M36.3,113
		c-1.2,0-2.2,1.1-2.1,2.3c0.1,1.2,1.1,2.1,2.3,2c1.1,0,2.1-1.1,2.1-2.2C38.4,114,37.4,113,36.3,113z M47,110.9
		c-1.2-0.1-2.3,0.9-2.3,2.1c0,1.1,1,2.1,2.1,2.2c1.2,0,2.1-0.9,2.2-2.1C49.1,111.9,48.2,111,47,110.9z M53.2,78.5
		C49.4,70.2,44,63.1,38,56.3c-1.1-1.2-2.4-1.1-3.6,0.2c-5.2,5.8-9.8,11.9-13.5,18.8c-2,3.8-3.7,7.7-3.9,12.1
		c-0.3,10.5,8.5,19.3,19.4,19.3c0.7,0,1.7-0.1,2.6-0.2c8.8-0.9,16.3-9,16.5-17.9C55.6,85.1,54.6,81.7,53.2,78.5z M50.4,92.4
		c-2.2,6.1-7.6,9.9-14.1,9.9c-8.8,0-15.4-7.1-14.7-15.8c0.2-2.9,1.4-5.5,2.7-8.1c3.1-6.2,7.2-11.6,11.6-16.9c0.4-0.4,0.6-0.6,1-0.1
		C41.5,67.2,46,73.2,49.2,80C51,84,51.9,88.1,50.4,92.4z M55.5,104.5c-1.2,0-2.3,1-2.2,2.2c0,1.2,1,2.1,2.2,2.1c1.2,0,2.1-1,2.1-2.1
		C57.6,105.5,56.7,104.5,55.5,104.5z M55.5,104.5c-1.2,0-2.3,1-2.2,2.2c0,1.2,1,2.1,2.2,2.1c1.2,0,2.1-1,2.1-2.1
		C57.6,105.5,56.7,104.5,55.5,104.5z M53.2,78.5C49.4,70.2,44,63.1,38,56.3c-1.1-1.2-2.4-1.1-3.6,0.2c-5.2,5.8-9.8,11.9-13.5,18.8
		c-2,3.8-3.7,7.7-3.9,12.1c-0.3,10.5,8.5,19.3,19.4,19.3c0.7,0,1.7-0.1,2.6-0.2c8.8-0.9,16.3-9,16.5-17.9
		C55.6,85.1,54.6,81.7,53.2,78.5z M50.4,92.4c-2.2,6.1-7.6,9.9-14.1,9.9c-8.8,0-15.4-7.1-14.7-15.8c0.2-2.9,1.4-5.5,2.7-8.1
		c3.1-6.2,7.2-11.6,11.6-16.9c0.4-0.4,0.6-0.6,1-0.1C41.5,67.2,46,73.2,49.2,80C51,84,51.9,88.1,50.4,92.4z M47,110.9
		c-1.2-0.1-2.3,0.9-2.3,2.1c0,1.1,1,2.1,2.1,2.2c1.2,0,2.1-0.9,2.2-2.1C49.1,111.9,48.2,111,47,110.9z M36.3,113
		c-1.2,0-2.2,1.1-2.1,2.3c0.1,1.2,1.1,2.1,2.3,2c1.1,0,2.1-1.1,2.1-2.2C38.4,114,37.4,113,36.3,113z M25.6,110.9
		c-1.2,0-2.1,0.9-2.1,2.1c0,1.2,0.9,2.1,2.1,2.2c1.2,0,2.2-1,2.2-2.2C27.7,111.8,26.8,110.9,25.6,110.9z M17.1,104.5
		c-1.2,0-2.1,0.9-2.1,2.1c0,1.2,0.9,2.1,2.1,2.2c1.3,0,2.2-0.9,2.2-2.2C19.2,105.5,18.2,104.5,17.1,104.5z M12.9,96
		c-1.3,0-2.2,0.9-2.2,2.2c0,1.2,0.9,2.1,2.2,2.1c1.2,0,2.1-1,2.1-2.1S14,96,12.9,96z M12.9,96c-1.3,0-2.2,0.9-2.2,2.2
		c0,1.2,0.9,2.1,2.2,2.1c1.2,0,2.1-1,2.1-2.1S14,96,12.9,96z M17.1,104.5c-1.2,0-2.1,0.9-2.1,2.1c0,1.2,0.9,2.1,2.1,2.2
		c1.3,0,2.2-0.9,2.2-2.2C19.2,105.5,18.2,104.5,17.1,104.5z M25.6,110.9c-1.2,0-2.1,0.9-2.1,2.1c0,1.2,0.9,2.1,2.1,2.2
		c1.2,0,2.2-1,2.2-2.2C27.7,111.8,26.8,110.9,25.6,110.9z M36.3,113c-1.2,0-2.2,1.1-2.1,2.3c0.1,1.2,1.1,2.1,2.3,2
		c1.1,0,2.1-1.1,2.1-2.2C38.4,114,37.4,113,36.3,113z M47,110.9c-1.2-0.1-2.3,0.9-2.3,2.1c0,1.1,1,2.1,2.1,2.2
		c1.2,0,2.1-0.9,2.2-2.1C49.1,111.9,48.2,111,47,110.9z M53.2,78.5C49.4,70.2,44,63.1,38,56.3c-1.1-1.2-2.4-1.1-3.6,0.2
		c-5.2,5.8-9.8,11.9-13.5,18.8c-2,3.8-3.7,7.7-3.9,12.1c-0.3,10.5,8.5,19.3,19.4,19.3c0.7,0,1.7-0.1,2.6-0.2
		c8.8-0.9,16.3-9,16.5-17.9C55.6,85.1,54.6,81.7,53.2,78.5z M50.4,92.4c-2.2,6.1-7.6,9.9-14.1,9.9c-8.8,0-15.4-7.1-14.7-15.8
		c0.2-2.9,1.4-5.5,2.7-8.1c3.1-6.2,7.2-11.6,11.6-16.9c0.4-0.4,0.6-0.6,1-0.1C41.5,67.2,46,73.2,49.2,80C51,84,51.9,88.1,50.4,92.4z
		 M55.5,104.5c-1.2,0-2.3,1-2.2,2.2c0,1.2,1,2.1,2.2,2.1c1.2,0,2.1-1,2.1-2.1C57.6,105.5,56.7,104.5,55.5,104.5z M55.5,104.5
		c-1.2,0-2.3,1-2.2,2.2c0,1.2,1,2.1,2.2,2.1c1.2,0,2.1-1,2.1-2.1C57.6,105.5,56.7,104.5,55.5,104.5z M53.2,78.5
		C49.4,70.2,44,63.1,38,56.3c-1.1-1.2-2.4-1.1-3.6,0.2c-5.2,5.8-9.8,11.9-13.5,18.8c-2,3.8-3.7,7.7-3.9,12.1
		c-0.3,10.5,8.5,19.3,19.4,19.3c0.7,0,1.7-0.1,2.6-0.2c8.8-0.9,16.3-9,16.5-17.9C55.6,85.1,54.6,81.7,53.2,78.5z M50.4,92.4
		c-2.2,6.1-7.6,9.9-14.1,9.9c-8.8,0-15.4-7.1-14.7-15.8c0.2-2.9,1.4-5.5,2.7-8.1c3.1-6.2,7.2-11.6,11.6-16.9c0.4-0.4,0.6-0.6,1-0.1
		C41.5,67.2,46,73.2,49.2,80C51,84,51.9,88.1,50.4,92.4z M47,110.9c-1.2-0.1-2.3,0.9-2.3,2.1c0,1.1,1,2.1,2.1,2.2
		c1.2,0,2.1-0.9,2.2-2.1C49.1,111.9,48.2,111,47,110.9z M36.3,113c-1.2,0-2.2,1.1-2.1,2.3c0.1,1.2,1.1,2.1,2.3,2
		c1.1,0,2.1-1.1,2.1-2.2C38.4,114,37.4,113,36.3,113z M25.6,110.9c-1.2,0-2.1,0.9-2.1,2.1c0,1.2,0.9,2.1,2.1,2.2
		c1.2,0,2.2-1,2.2-2.2C27.7,111.8,26.8,110.9,25.6,110.9z M17.1,104.5c-1.2,0-2.1,0.9-2.1,2.1c0,1.2,0.9,2.1,2.1,2.2
		c1.3,0,2.2-0.9,2.2-2.2C19.2,105.5,18.2,104.5,17.1,104.5z M12.9,96c-1.3,0-2.2,0.9-2.2,2.2c0,1.2,0.9,2.1,2.2,2.1
		c1.2,0,2.1-1,2.1-2.1S14,96,12.9,96z M125.8,92.7c-0.3-4.8-1.8-9.3-3.7-13.7c-4.4-10.4-10.7-19.6-17.4-28.5
		c-2.8-3.7-5.8-7.3-8.9-10.9c2.8-1.7,4.4-4,4.5-7.2c0.1-3.2-1.3-5.6-3.9-7.6c0.4-0.2,0.7-0.4,1-0.5c8.6-4.3,9.7-15.9,2.1-21.8
		c-1.7-1.3-3.7-1.9-5.7-2.5h-4c-0.8,0.2-1.6,0.1-2.4,0.4C81,2.8,77.5,8.9,79,15.7c0.8,3.8,3.1,6.7,6.5,8.6c0.7,0.4,0.9,0.6,0.2,1.2
		c-1,0.9-1.8,2-2.2,3.3c-1.3,3.7-0.4,7.7,2.9,10.2c0.6,0.5,0.8,0.9,0.2,1.5c-0.2,0.2-0.3,0.4-0.5,0.6C78.1,50.3,71,60.3,65,71
		c-0.3,0.5-0.5,1.1-1.1,1.6c-0.4-0.7-0.8-1.4-1.2-2c-4.2-7.5-9-14.6-14.2-21.4c-2.3-2.9-4.7-5.8-7.1-8.7c-0.4-0.5-0.6-0.8,0-1.3
		c4.5-3.2,4.9-9.7,0.9-13.6c-0.5-0.5-0.7-0.8,0.1-1.2c1.5-0.6,2.6-1.8,3.7-2.9c3.4-3.9,4.2-8.3,2.5-13.1C46.9,3.6,43.5,0.6,38.3,0
		h-4c-0.1,0.1-0.2,0.2-0.2,0.2c-5.6,1.1-9.8,5.4-10.5,10.9c-0.7,5.6,2.2,10.8,7.3,13.3c0.2,0.1,0.6,0.1,0.6,0.5
		c-2.5,1.9-3.9,4.4-3.8,7.6c0.2,3.2,1.8,5.5,4.5,7.1c-5,5.7-9.6,11.5-13.8,17.6C13,65.1,7.9,73.3,4.6,82.3C2.3,88.6,1.4,95,3,101.6
		c3.5,14.7,15,24.9,30.1,26.2c12,1,22.2-3.2,30-12.5c1-1.2,0.9-1.2,1.9,0c8.5,10,19.3,14,32.2,12.3c9.3-1.2,16.8-5.9,22.3-13.5
		C124,107.8,126.3,100.7,125.8,92.7z M95.9,32.6c-0.4,2-2,3.5-3.9,3.6c-1.9,0.1-3.6-1-4.3-2.8c-0.7-1.9-0.1-3.6,1.7-4.9
		c0.1,2.6,0.7,3.5,2.2,3.5c1.5,0,2.1-0.8,2.3-3.3C95.4,29.3,96.2,31.1,95.9,32.6z M83.3,12.2C83.4,8,87,4.5,91.4,4.3
		c4.3-0.2,8,3,8.8,7.6c0.6,3.9-2.2,8-6.1,9.1c-0.4-3-0.9-3.9-2.3-3.9c-1.5,0-2.1,1-2.2,3.8C85.9,20.3,83.1,16.4,83.3,12.2z
		 M27.8,12.1c0.4-4.4,3.9-7.7,8.3-7.8c4.2-0.2,8,3.1,8.7,7.4c0.6,4-2,8-6.2,9.3c-0.2-2.9-0.7-3.9-2.2-3.9c-1.5,0-2,0.8-2.3,3.8
		C30.8,20.3,27.4,16.6,27.8,12.1z M32.3,33.3c-0.6-1.9,0-3.6,1.7-4.7c0.4,2.8,1,3.5,2.5,3.4c1.4-0.1,1.9-0.9,2.1-3.4
		c1.5,0.8,2.3,2.6,1.9,4.3c-0.5,1.9-2.1,3.3-4,3.4C34.6,36.3,32.8,35.1,32.3,33.3z M60.9,111.2c-6.9,9-16,13.1-27.3,12.4
		c-12.6-0.8-23.6-10.2-26.4-22.9c-0.4-1.9-0.7-3.9-0.7-5.8c0.1-5.4,1.7-10.3,3.9-15.2c4.4-9.8,10.4-18.5,16.9-27
		c2.7-3.5,5.5-7,8.5-10.3c0.3-0.4,0.5-0.8,1.1-0.2c8.7,10.1,16.7,20.7,23,32.5c1.3,2.5,1.8,4.5,0.5,7.2c-1.9,4.1-2.6,8.6-2.7,13.1
		c-0.1,5,1.1,9.8,3.4,14.2C61.4,109.9,61.4,110.5,60.9,111.2z M115.7,111.8c-6.7,8.8-15.7,12.5-26.7,11.7
		c-12.5-0.9-23.5-10.1-26.3-22.7c-0.5-2-0.7-4-0.7-6.1c0-5.4,1.8-10.4,3.9-15.3c4.3-9.7,10.3-18.3,16.7-26.7
		c2.8-3.6,5.6-7.1,8.6-10.5c0.4-0.5,0.6-0.6,1.1,0c8.9,10.3,17.1,21.1,23.4,33.3c2.4,4.6,4.4,9.4,5.3,14.5
		C122.5,98.1,120.6,105.4,115.7,111.8z M115.3,96c-1.2-0.1-2.3,0.9-2.3,2.1c0,1.2,0.9,2.1,2.1,2.2c1.2,0,2.2-0.8,2.2-2
		C117.4,97,116.5,96.1,115.3,96z M111,104.5c-1.2,0-2.2,1-2.2,2.2c0,1.2,1,2.1,2.2,2.1c1.2,0,2.1-0.9,2.1-2.1
		C113,105.4,112.1,104.5,111,104.5z M109.4,80.5c-3.6-9.2-9.6-17-16.1-24.3c-1-1.1-2.3-1-3.5,0.3c-5.2,5.8-9.8,11.9-13.5,18.8
		c-2.1,4-3.8,8.1-3.9,12.7c0,0.9,0.1,1.8,0.2,2.7c1.4,8,6,13.5,13.8,15.7c7.7,2.2,14.6,0.1,19.8-6.1
		C111.4,94.4,112.2,87.6,109.4,80.5z M93.3,102.7c-7.9,0.7-14.9-4.6-16.3-12.2c-0.6-3.5,0.3-6.8,1.7-10c2.9-6.6,7.2-12.4,11.7-18
		c1.3-1.6,1.3-1.6,2.7,0c4.4,5.5,8.7,11.2,11.6,17.7c1.1,2.5,2,5.1,2,7C106.5,95.6,100.7,102.1,93.3,102.7z M102.4,110.9
		c-1.2,0-2.1,0.8-2.2,2c0,1.2,0.9,2.2,2.1,2.2c1.2,0,2.1-0.9,2.1-2.1C104.5,111.8,103.7,110.9,102.4,110.9z M91.8,113
		c-1.2,0-2.3,1-2.2,2.2c0,1.1,1,2.1,2.2,2.1c1.2,0,2.2-1,2.2-2.1C93.9,114,92.9,113,91.8,113z M81,110.9c-1.2,0-2.1,1-2,2.2
		c0,1.2,1,2.1,2.2,2.1c1.1,0,2.1-1,2.1-2.1C83.3,111.8,82.2,110.9,81,110.9z M72.6,104.5c-1.2,0-2.2,1-2.2,2.1
		c0,1.2,0.9,2.1,2.1,2.2c1.2,0,2.3-1,2.2-2.2C74.7,105.5,73.7,104.5,72.6,104.5z M68.2,96c-1.2,0-2.1,1-2.2,2.1c0,1.2,1,2.1,2.2,2.1
		c1.2,0,2.2-0.9,2.2-2.1C70.5,97,69.5,96,68.2,96z M55.5,104.5c-1.2,0-2.3,1-2.2,2.2c0,1.2,1,2.1,2.2,2.1c1.2,0,2.1-1,2.1-2.1
		C57.6,105.5,56.7,104.5,55.5,104.5z M53.2,78.5C49.4,70.2,44,63.1,38,56.3c-1.1-1.2-2.4-1.1-3.6,0.2c-5.2,5.8-9.8,11.9-13.5,18.8
		c-2,3.8-3.7,7.7-3.9,12.1c-0.3,10.5,8.5,19.3,19.4,19.3c0.7,0,1.7-0.1,2.6-0.2c8.8-0.9,16.3-9,16.5-17.9
		C55.6,85.1,54.6,81.7,53.2,78.5z M50.4,92.4c-2.2,6.1-7.6,9.9-14.1,9.9c-8.8,0-15.4-7.1-14.7-15.8c0.2-2.9,1.4-5.5,2.7-8.1
		c3.1-6.2,7.2-11.6,11.6-16.9c0.4-0.4,0.6-0.6,1-0.1C41.5,67.2,46,73.2,49.2,80C51,84,51.9,88.1,50.4,92.4z M47,110.9
		c-1.2-0.1-2.3,0.9-2.3,2.1c0,1.1,1,2.1,2.1,2.2c1.2,0,2.1-0.9,2.2-2.1C49.1,111.9,48.2,111,47,110.9z M36.3,113
		c-1.2,0-2.2,1.1-2.1,2.3c0.1,1.2,1.1,2.1,2.3,2c1.1,0,2.1-1.1,2.1-2.2C38.4,114,37.4,113,36.3,113z M25.6,110.9
		c-1.2,0-2.1,0.9-2.1,2.1c0,1.2,0.9,2.1,2.1,2.2c1.2,0,2.2-1,2.2-2.2C27.7,111.8,26.8,110.9,25.6,110.9z M17.1,104.5
		c-1.2,0-2.1,0.9-2.1,2.1c0,1.2,0.9,2.1,2.1,2.2c1.3,0,2.2-0.9,2.2-2.2C19.2,105.5,18.2,104.5,17.1,104.5z M12.9,96
		c-1.3,0-2.2,0.9-2.2,2.2c0,1.2,0.9,2.1,2.2,2.1c1.2,0,2.1-1,2.1-2.1S14,96,12.9,96z M12.9,96c-1.3,0-2.2,0.9-2.2,2.2
		c0,1.2,0.9,2.1,2.2,2.1c1.2,0,2.1-1,2.1-2.1S14,96,12.9,96z M17.1,104.5c-1.2,0-2.1,0.9-2.1,2.1c0,1.2,0.9,2.1,2.1,2.2
		c1.3,0,2.2-0.9,2.2-2.2C19.2,105.5,18.2,104.5,17.1,104.5z M25.6,110.9c-1.2,0-2.1,0.9-2.1,2.1c0,1.2,0.9,2.1,2.1,2.2
		c1.2,0,2.2-1,2.2-2.2C27.7,111.8,26.8,110.9,25.6,110.9z M36.3,113c-1.2,0-2.2,1.1-2.1,2.3c0.1,1.2,1.1,2.1,2.3,2
		c1.1,0,2.1-1.1,2.1-2.2C38.4,114,37.4,113,36.3,113z M47,110.9c-1.2-0.1-2.3,0.9-2.3,2.1c0,1.1,1,2.1,2.1,2.2
		c1.2,0,2.1-0.9,2.2-2.1C49.1,111.9,48.2,111,47,110.9z M53.2,78.5C49.4,70.2,44,63.1,38,56.3c-1.1-1.2-2.4-1.1-3.6,0.2
		c-5.2,5.8-9.8,11.9-13.5,18.8c-2,3.8-3.7,7.7-3.9,12.1c-0.3,10.5,8.5,19.3,19.4,19.3c0.7,0,1.7-0.1,2.6-0.2
		c8.8-0.9,16.3-9,16.5-17.9C55.6,85.1,54.6,81.7,53.2,78.5z M50.4,92.4c-2.2,6.1-7.6,9.9-14.1,9.9c-8.8,0-15.4-7.1-14.7-15.8
		c0.2-2.9,1.4-5.5,2.7-8.1c3.1-6.2,7.2-11.6,11.6-16.9c0.4-0.4,0.6-0.6,1-0.1C41.5,67.2,46,73.2,49.2,80C51,84,51.9,88.1,50.4,92.4z
		 M55.5,104.5c-1.2,0-2.3,1-2.2,2.2c0,1.2,1,2.1,2.2,2.1c1.2,0,2.1-1,2.1-2.1C57.6,105.5,56.7,104.5,55.5,104.5z M55.5,104.5
		c-1.2,0-2.3,1-2.2,2.2c0,1.2,1,2.1,2.2,2.1c1.2,0,2.1-1,2.1-2.1C57.6,105.5,56.7,104.5,55.5,104.5z M53.2,78.5
		C49.4,70.2,44,63.1,38,56.3c-1.1-1.2-2.4-1.1-3.6,0.2c-5.2,5.8-9.8,11.9-13.5,18.8c-2,3.8-3.7,7.7-3.9,12.1
		c-0.3,10.5,8.5,19.3,19.4,19.3c0.7,0,1.7-0.1,2.6-0.2c8.8-0.9,16.3-9,16.5-17.9C55.6,85.1,54.6,81.7,53.2,78.5z M50.4,92.4
		c-2.2,6.1-7.6,9.9-14.1,9.9c-8.8,0-15.4-7.1-14.7-15.8c0.2-2.9,1.4-5.5,2.7-8.1c3.1-6.2,7.2-11.6,11.6-16.9c0.4-0.4,0.6-0.6,1-0.1
		C41.5,67.2,46,73.2,49.2,80C51,84,51.9,88.1,50.4,92.4z M47,110.9c-1.2-0.1-2.3,0.9-2.3,2.1c0,1.1,1,2.1,2.1,2.2
		c1.2,0,2.1-0.9,2.2-2.1C49.1,111.9,48.2,111,47,110.9z M36.3,113c-1.2,0-2.2,1.1-2.1,2.3c0.1,1.2,1.1,2.1,2.3,2
		c1.1,0,2.1-1.1,2.1-2.2C38.4,114,37.4,113,36.3,113z M25.6,110.9c-1.2,0-2.1,0.9-2.1,2.1c0,1.2,0.9,2.1,2.1,2.2
		c1.2,0,2.2-1,2.2-2.2C27.7,111.8,26.8,110.9,25.6,110.9z M17.1,104.5c-1.2,0-2.1,0.9-2.1,2.1c0,1.2,0.9,2.1,2.1,2.2
		c1.3,0,2.2-0.9,2.2-2.2C19.2,105.5,18.2,104.5,17.1,104.5z M12.9,96c-1.3,0-2.2,0.9-2.2,2.2c0,1.2,0.9,2.1,2.2,2.1
		c1.2,0,2.1-1,2.1-2.1S14,96,12.9,96z"/>
	<path d="M115.3,96c-1.2-0.1-2.3,0.9-2.3,2.1c0,1.2,0.9,2.1,2.1,2.2c1.2,0,2.2-0.8,2.2-2C117.4,97,116.5,96.1,115.3,96z M111,104.5
		c-1.2,0-2.2,1-2.2,2.2c0,1.2,1,2.1,2.2,2.1c1.2,0,2.1-0.9,2.1-2.1C113,105.4,112.1,104.5,111,104.5z M109.4,80.5
		c-3.6-9.2-9.6-17-16.1-24.3c-1-1.1-2.3-1-3.5,0.3c-5.2,5.8-9.8,11.9-13.5,18.8c-2.1,4-3.8,8.1-3.9,12.7c0,0.9,0.1,1.8,0.2,2.7
		c1.4,8,6,13.5,13.8,15.7c7.7,2.2,14.6,0.1,19.8-6.1C111.4,94.4,112.2,87.6,109.4,80.5z M93.3,102.7c-7.9,0.7-14.9-4.6-16.3-12.2
		c-0.6-3.5,0.3-6.8,1.7-10c2.9-6.6,7.2-12.4,11.7-18c1.3-1.6,1.3-1.6,2.7,0c4.4,5.5,8.7,11.2,11.6,17.7c1.1,2.5,2,5.1,2,7
		C106.5,95.6,100.7,102.1,93.3,102.7z M102.4,110.9c-1.2,0-2.1,0.8-2.2,2c0,1.2,0.9,2.2,2.1,2.2c1.2,0,2.1-0.9,2.1-2.1
		C104.5,111.8,103.7,110.9,102.4,110.9z M91.8,113c-1.2,0-2.3,1-2.2,2.2c0,1.1,1,2.1,2.2,2.1c1.2,0,2.2-1,2.2-2.1
		C93.9,114,92.9,113,91.8,113z M81,110.9c-1.2,0-2.1,1-2,2.2c0,1.2,1,2.1,2.2,2.1c1.1,0,2.1-1,2.1-2.1
		C83.3,111.8,82.2,110.9,81,110.9z M72.6,104.5c-1.2,0-2.2,1-2.2,2.1c0,1.2,0.9,2.1,2.1,2.2c1.2,0,2.3-1,2.2-2.2
		C74.7,105.5,73.7,104.5,72.6,104.5z M68.2,96c-1.2,0-2.1,1-2.2,2.1c0,1.2,1,2.1,2.2,2.1c1.2,0,2.2-0.9,2.2-2.1
		C70.5,97,69.5,96,68.2,96z"/>
	<path d="M15,98.1c0,1.2-1,2.1-2.1,2.1c-1.2,0-2.1-0.9-2.2-2.1c0-1.3,0.9-2.2,2.2-2.2C14,96,15,97,15,98.1z"/>
	<path d="M19.3,106.6c0,1.2-0.9,2.2-2.2,2.2c-1.2,0-2.1-0.9-2.1-2.2c0-1.2,0.9-2.1,2.1-2.1C18.2,104.5,19.2,105.5,19.3,106.6z"/>
	<path d="M27.8,113c0,1.2-1,2.2-2.2,2.2c-1.2,0-2.1-1-2.1-2.2c0-1.2,0.9-2.1,2.1-2.1C26.8,110.9,27.7,111.8,27.8,113z"/>
	<path d="M38.5,115.1c0,1.1-0.9,2.2-2.1,2.2c-1.2,0.1-2.2-0.9-2.3-2c-0.1-1.2,0.9-2.3,2.1-2.3C37.4,113,38.4,114,38.5,115.1z"/>
	<path d="M49.1,113.1c0,1.2-1,2.1-2.2,2.1c-1.1,0-2.1-1-2.1-2.2c0-1.2,1-2.2,2.3-2.1C48.2,111,49.1,111.9,49.1,113.1z"/>
	<path d="M53.2,78.5C49.4,70.2,44,63.1,38,56.3c-1.1-1.2-2.4-1.1-3.6,0.2c-5.2,5.8-9.8,11.9-13.5,18.8c-2,3.8-3.7,7.7-3.9,12.1
		c-0.3,10.5,8.5,19.3,19.4,19.3c0.7,0,1.7-0.1,2.6-0.2c8.8-0.9,16.3-9,16.5-17.9C55.6,85.1,54.6,81.7,53.2,78.5z M50.4,92.4
		c-2.2,6.1-7.6,9.9-14.1,9.9c-8.8,0-15.4-7.1-14.7-15.8c0.2-2.9,1.4-5.5,2.7-8.1c3.1-6.2,7.2-11.6,11.6-16.9c0.4-0.4,0.6-0.6,1-0.1
		C41.5,67.2,46,73.2,49.2,80C51,84,51.9,88.1,50.4,92.4z"/>
	<path d="M57.6,106.6c0,1.2-1,2.1-2.1,2.1c-1.2,0-2.2-0.9-2.2-2.1c0-1.2,1-2.2,2.2-2.2C56.7,104.5,57.6,105.5,57.6,106.6z"/>
	<path d="M109.4,80.5c-3.6-9.2-9.6-17-16.1-24.3c-1-1.1-2.3-1-3.5,0.3c-5.2,5.8-9.8,11.9-13.5,18.8c-2.1,4-3.8,8.1-3.9,12.7
		c0,0.9,0.1,1.8,0.2,2.7c1.4,8,6,13.5,13.8,15.7c7.7,2.2,14.6,0.1,19.8-6.1C111.4,94.4,112.2,87.6,109.4,80.5z M93.3,102.7
		c-7.9,0.7-14.9-4.6-16.3-12.2c-0.6-3.5,0.3-6.8,1.7-10c2.9-6.6,7.2-12.4,11.7-18c1.3-1.6,1.3-1.6,2.7,0c4.4,5.5,8.7,11.2,11.6,17.7
		c1.1,2.5,2,5.1,2,7C106.5,95.6,100.7,102.1,93.3,102.7z"/>
	<path d="M93.9,115.2c0,1.2-1,2.1-2.2,2.1c-1.2,0-2.2-1-2.2-2.1c0-1.2,1.1-2.2,2.2-2.2C92.9,113,93.9,114,93.9,115.2z"/>
	<path d="M74.7,106.6c0,1.2-1,2.2-2.2,2.2c-1.2,0-2.1-1-2.1-2.2c0-1.2,1-2.1,2.2-2.1C73.7,104.5,74.7,105.5,74.7,106.6z"/>
	<path d="M70.5,98.2c-0.1,1.2-1,2.1-2.2,2.1c-1.2,0-2.2-1-2.2-2.1c0-1.1,1-2.1,2.2-2.1C69.5,96,70.5,97,70.5,98.2z"/>
	<path d="M113,106.6c0,1.2-0.9,2.1-2.1,2.1c-1.2,0-2.1-0.9-2.2-2.1c0-1.2,1-2.2,2.2-2.2C112.1,104.5,113,105.4,113,106.6z"/>
	<path d="M83.3,113.1c0,1.1-1,2.1-2.1,2.1c-1.2,0-2.1-0.9-2.2-2.1c0-1.2,0.8-2.1,2-2.2C82.2,110.9,83.3,111.8,83.3,113.1z"/>
	<path d="M104.5,113.1c0,1.2-0.9,2.1-2.1,2.1c-1.2,0-2.2-1-2.1-2.2c0-1.2,1-2.1,2.2-2C103.7,110.9,104.5,111.8,104.5,113.1z"/>
	<path d="M117.3,98.2c-0.1,1.2-1,2-2.2,2c-1.2,0-2.1-1-2.1-2.2c0-1.2,1.1-2.1,2.3-2.1C116.5,96.1,117.4,97,117.3,98.2z"/>
	<path d="M53.2,78.5C49.4,70.2,44,63.1,38,56.3c-1.1-1.2-2.4-1.1-3.6,0.2c-5.2,5.8-9.8,11.9-13.5,18.8c-2,3.8-3.7,7.7-3.9,12.1
		c-0.3,10.5,8.5,19.3,19.4,19.3c0.7,0,1.7-0.1,2.6-0.2c8.8-0.9,16.3-9,16.5-17.9C55.6,85.1,54.6,81.7,53.2,78.5z M50.4,92.4
		c-2.2,6.1-7.6,9.9-14.1,9.9c-8.8,0-15.4-7.1-14.7-15.8c0.2-2.9,1.4-5.5,2.7-8.1c3.1-6.2,7.2-11.6,11.6-16.9c0.4-0.4,0.6-0.6,1-0.1
		C41.5,67.2,46,73.2,49.2,80C51,84,51.9,88.1,50.4,92.4z"/>
	<path d="M57.6,106.6c0,1.2-1,2.1-2.1,2.1c-1.2,0-2.2-0.9-2.2-2.1c0-1.2,1-2.2,2.2-2.2C56.7,104.5,57.6,105.5,57.6,106.6z"/>
	<path d="M38.5,115.1c0,1.1-0.9,2.2-2.1,2.2c-1.2,0.1-2.2-0.9-2.3-2c-0.1-1.2,0.9-2.3,2.1-2.3C37.4,113,38.4,114,38.5,115.1z"/>
	<path d="M19.3,106.6c0,1.2-0.9,2.2-2.2,2.2c-1.2,0-2.1-0.9-2.1-2.2c0-1.2,0.9-2.1,2.1-2.1C18.2,104.5,19.2,105.5,19.3,106.6z"/>
	<path d="M49.1,113.1c0,1.2-1,2.1-2.2,2.1c-1.1,0-2.1-1-2.1-2.2c0-1.2,1-2.2,2.3-2.1C48.2,111,49.1,111.9,49.1,113.1z"/>
	<path d="M27.8,113c0,1.2-1,2.2-2.2,2.2c-1.2,0-2.1-1-2.1-2.2c0-1.2,0.9-2.1,2.1-2.1C26.8,110.9,27.7,111.8,27.8,113z"/>
	<path d="M15,98.1c0,1.2-1,2.1-2.1,2.1c-1.2,0-2.1-0.9-2.2-2.1c0-1.3,0.9-2.2,2.2-2.2C14,96,15,97,15,98.1z"/>
</g>
</svg>
