<?xml version="1.0" encoding="utf-8"?>
<!-- Generator: Adobe Illustrator 28.0.0, SVG Export Plug-In . SVG Version: 6.00 Build 0)  -->
<svg version="1.1" id="Layer_1" xmlns="http://www.w3.org/2000/svg" xmlns:xlink="http://www.w3.org/1999/xlink" x="0px" y="0px"
	 viewBox="0 0 128 128" style="enable-background:new 0 0 128 128;" xml:space="preserve">
<g>
	<path d="M103,44c0,1.4-1.1,2.5-2.5,2.5c-1.4,0-2.5-1.1-2.5-2.5c0-1.4,1.1-2.4,2.5-2.5C101.9,41.5,103,42.6,103,44z"/>
	<path d="M118,44c0,1.3-1,2.3-2.3,2.5h-2.6c-0.9,0-1.7,0-2.6,0c-1.4-0.1-2.4-1.1-2.4-2.5c0-1.4,1-2.5,2.4-2.5c1.7,0,3.5,0,5.2,0
		C117,41.6,118,42.7,118,44z"/>
	<path d="M63.8,61.5c-6.3-0.1-12.2,5.7-12.3,11.9c0,1.9,0.8,3,2.3,3.1c1.5,0.1,2.4-0.8,2.7-2.8c0.1-0.6,0.2-1.2,0.4-1.8
		c1.1-3.5,3.6-5.1,7.1-5.4c1.6-0.1,2.6-1.2,2.5-2.7C66.4,62.4,65.3,61.5,63.8,61.5z M63.8,61.5c-6.3-0.1-12.2,5.7-12.3,11.9
		c0,1.9,0.8,3,2.3,3.1c1.5,0.1,2.4-0.8,2.7-2.8c0.1-0.6,0.2-1.2,0.4-1.8c1.1-3.5,3.6-5.1,7.1-5.4c1.6-0.1,2.6-1.2,2.5-2.7
		C66.4,62.4,65.3,61.5,63.8,61.5z M63.8,61.5c-6.3-0.1-12.2,5.7-12.3,11.9c0,1.9,0.8,3,2.3,3.1c1.5,0.1,2.4-0.8,2.7-2.8
		c0.1-0.6,0.2-1.2,0.4-1.8c1.1-3.5,3.6-5.1,7.1-5.4c1.6-0.1,2.6-1.2,2.5-2.7C66.4,62.4,65.3,61.5,63.8,61.5z M63.8,61.5
		c-6.3-0.1-12.2,5.7-12.3,11.9c0,1.9,0.8,3,2.3,3.1c1.5,0.1,2.4-0.8,2.7-2.8c0.1-0.6,0.2-1.2,0.4-1.8c1.1-3.5,3.6-5.1,7.1-5.4
		c1.6-0.1,2.6-1.2,2.5-2.7C66.4,62.4,65.3,61.5,63.8,61.5z M63.8,61.5c-6.3-0.1-12.2,5.7-12.3,11.9c0,1.9,0.8,3,2.3,3.1
		c1.5,0.1,2.4-0.8,2.7-2.8c0.1-0.6,0.2-1.2,0.4-1.8c1.1-3.5,3.6-5.1,7.1-5.4c1.6-0.1,2.6-1.2,2.5-2.7C66.4,62.4,65.3,61.5,63.8,61.5
		z M63.8,61.5c-6.3-0.1-12.2,5.7-12.3,11.9c0,1.9,0.8,3,2.3,3.1c1.5,0.1,2.4-0.8,2.7-2.8c0.1-0.6,0.2-1.2,0.4-1.8
		c1.1-3.5,3.6-5.1,7.1-5.4c1.6-0.1,2.6-1.2,2.5-2.7C66.4,62.4,65.3,61.5,63.8,61.5z M64,51.5c-12.4,0-22.5,10.1-22.5,22.5
		c0,12.4,10.1,22.5,22.5,22.5c12.4,0,22.5-10.1,22.5-22.5C86.5,61.6,76.4,51.5,64,51.5z M63.8,91.5c-9.7-0.2-17.5-8.2-17.3-17.6
		c0.2-9.7,8.3-17.6,17.7-17.3c9.7,0.3,17.5,8.3,17.3,17.7C81.3,83.9,73.3,91.7,63.8,91.5z M63.8,61.5c-6.3-0.1-12.2,5.7-12.3,11.9
		c0,1.9,0.8,3,2.3,3.1c1.5,0.1,2.4-0.8,2.7-2.8c0.1-0.6,0.2-1.2,0.4-1.8c1.1-3.5,3.6-5.1,7.1-5.4c1.6-0.1,2.6-1.2,2.5-2.7
		C66.4,62.4,65.3,61.5,63.8,61.5z M63.8,61.5c-6.3-0.1-12.2,5.7-12.3,11.9c0,1.9,0.8,3,2.3,3.1c1.5,0.1,2.4-0.8,2.7-2.8
		c0.1-0.6,0.2-1.2,0.4-1.8c1.1-3.5,3.6-5.1,7.1-5.4c1.6-0.1,2.6-1.2,2.5-2.7C66.4,62.4,65.3,61.5,63.8,61.5z M63.8,61.5
		c-6.3-0.1-12.2,5.7-12.3,11.9c0,1.9,0.8,3,2.3,3.1c1.5,0.1,2.4-0.8,2.7-2.8c0.1-0.6,0.2-1.2,0.4-1.8c1.1-3.5,3.6-5.1,7.1-5.4
		c1.6-0.1,2.6-1.2,2.5-2.7C66.4,62.4,65.3,61.5,63.8,61.5z M63.8,61.5c-6.3-0.1-12.2,5.7-12.3,11.9c0,1.9,0.8,3,2.3,3.1
		c1.5,0.1,2.4-0.8,2.7-2.8c0.1-0.6,0.2-1.2,0.4-1.8c1.1-3.5,3.6-5.1,7.1-5.4c1.6-0.1,2.6-1.2,2.5-2.7C66.4,62.4,65.3,61.5,63.8,61.5
		z M63.8,61.5c-6.3-0.1-12.2,5.7-12.3,11.9c0,1.9,0.8,3,2.3,3.1c1.5,0.1,2.4-0.8,2.7-2.8c0.1-0.6,0.2-1.2,0.4-1.8
		c1.1-3.5,3.6-5.1,7.1-5.4c1.6-0.1,2.6-1.2,2.5-2.7C66.4,62.4,65.3,61.5,63.8,61.5z M63.8,61.5c-6.3-0.1-12.2,5.7-12.3,11.9
		c0,1.9,0.8,3,2.3,3.1c1.5,0.1,2.4-0.8,2.7-2.8c0.1-0.6,0.2-1.2,0.4-1.8c1.1-3.5,3.6-5.1,7.1-5.4c1.6-0.1,2.6-1.2,2.5-2.7
		C66.4,62.4,65.3,61.5,63.8,61.5z M63.8,61.5c-6.3-0.1-12.2,5.7-12.3,11.9c0,1.9,0.8,3,2.3,3.1c1.5,0.1,2.4-0.8,2.7-2.8
		c0.1-0.6,0.2-1.2,0.4-1.8c1.1-3.5,3.6-5.1,7.1-5.4c1.6-0.1,2.6-1.2,2.5-2.7C66.4,62.4,65.3,61.5,63.8,61.5z M63.8,61.5
		c-6.3-0.1-12.2,5.7-12.3,11.9c0,1.9,0.8,3,2.3,3.1c1.5,0.1,2.4-0.8,2.7-2.8c0.1-0.6,0.2-1.2,0.4-1.8c1.1-3.5,3.6-5.1,7.1-5.4
		c1.6-0.1,2.6-1.2,2.5-2.7C66.4,62.4,65.3,61.5,63.8,61.5z M63.8,61.5c-6.3-0.1-12.2,5.7-12.3,11.9c0,1.9,0.8,3,2.3,3.1
		c1.5,0.1,2.4-0.8,2.7-2.8c0.1-0.6,0.2-1.2,0.4-1.8c1.1-3.5,3.6-5.1,7.1-5.4c1.6-0.1,2.6-1.2,2.5-2.7C66.4,62.4,65.3,61.5,63.8,61.5
		z M64,51.5c-12.4,0-22.5,10.1-22.5,22.5c0,12.4,10.1,22.5,22.5,22.5c12.4,0,22.5-10.1,22.5-22.5C86.5,61.6,76.4,51.5,64,51.5z
		 M63.8,91.5c-9.7-0.2-17.5-8.2-17.3-17.6c0.2-9.7,8.3-17.6,17.7-17.3c9.7,0.3,17.5,8.3,17.3,17.7C81.3,83.9,73.3,91.7,63.8,91.5z
		 M63.8,61.5c-6.3-0.1-12.2,5.7-12.3,11.9c0,1.9,0.8,3,2.3,3.1c1.5,0.1,2.4-0.8,2.7-2.8c0.1-0.6,0.2-1.2,0.4-1.8
		c1.1-3.5,3.6-5.1,7.1-5.4c1.6-0.1,2.6-1.2,2.5-2.7C66.4,62.4,65.3,61.5,63.8,61.5z M63.8,61.5c-6.3-0.1-12.2,5.7-12.3,11.9
		c0,1.9,0.8,3,2.3,3.1c1.5,0.1,2.4-0.8,2.7-2.8c0.1-0.6,0.2-1.2,0.4-1.8c1.1-3.5,3.6-5.1,7.1-5.4c1.6-0.1,2.6-1.2,2.5-2.7
		C66.4,62.4,65.3,61.5,63.8,61.5z M63.8,61.5c-6.3-0.1-12.2,5.7-12.3,11.9c0,1.9,0.8,3,2.3,3.1c1.5,0.1,2.4-0.8,2.7-2.8
		c0.1-0.6,0.2-1.2,0.4-1.8c1.1-3.5,3.6-5.1,7.1-5.4c1.6-0.1,2.6-1.2,2.5-2.7C66.4,62.4,65.3,61.5,63.8,61.5z M63.8,61.5
		c-6.3-0.1-12.2,5.7-12.3,11.9c0,1.9,0.8,3,2.3,3.1c1.5,0.1,2.4-0.8,2.7-2.8c0.1-0.6,0.2-1.2,0.4-1.8c1.1-3.5,3.6-5.1,7.1-5.4
		c1.6-0.1,2.6-1.2,2.5-2.7C66.4,62.4,65.3,61.5,63.8,61.5z M63.8,61.5c-6.3-0.1-12.2,5.7-12.3,11.9c0,1.9,0.8,3,2.3,3.1
		c1.5,0.1,2.4-0.8,2.7-2.8c0.1-0.6,0.2-1.2,0.4-1.8c1.1-3.5,3.6-5.1,7.1-5.4c1.6-0.1,2.6-1.2,2.5-2.7C66.4,62.4,65.3,61.5,63.8,61.5
		z M63.8,61.5c-6.3-0.1-12.2,5.7-12.3,11.9c0,1.9,0.8,3,2.3,3.1c1.5,0.1,2.4-0.8,2.7-2.8c0.1-0.6,0.2-1.2,0.4-1.8
		c1.1-3.5,3.6-5.1,7.1-5.4c1.6-0.1,2.6-1.2,2.5-2.7C66.4,62.4,65.3,61.5,63.8,61.5z M63.8,61.5c-6.3-0.1-12.2,5.7-12.3,11.9
		c0,1.9,0.8,3,2.3,3.1c1.5,0.1,2.4-0.8,2.7-2.8c0.1-0.6,0.2-1.2,0.4-1.8c1.1-3.5,3.6-5.1,7.1-5.4c1.6-0.1,2.6-1.2,2.5-2.7
		C66.4,62.4,65.3,61.5,63.8,61.5z M63.8,61.5c-6.3-0.1-12.2,5.7-12.3,11.9c0,1.9,0.8,3,2.3,3.1c1.5,0.1,2.4-0.8,2.7-2.8
		c0.1-0.6,0.2-1.2,0.4-1.8c1.1-3.5,3.6-5.1,7.1-5.4c1.6-0.1,2.6-1.2,2.5-2.7C66.4,62.4,65.3,61.5,63.8,61.5z M63.8,61.5
		c-6.3-0.1-12.2,5.7-12.3,11.9c0,1.9,0.8,3,2.3,3.1c1.5,0.1,2.4-0.8,2.7-2.8c0.1-0.6,0.2-1.2,0.4-1.8c1.1-3.5,3.6-5.1,7.1-5.4
		c1.6-0.1,2.6-1.2,2.5-2.7C66.4,62.4,65.3,61.5,63.8,61.5z M64,51.5c-12.4,0-22.5,10.1-22.5,22.5c0,12.4,10.1,22.5,22.5,22.5
		c12.4,0,22.5-10.1,22.5-22.5C86.5,61.6,76.4,51.5,64,51.5z M63.8,91.5c-9.7-0.2-17.5-8.2-17.3-17.6c0.2-9.7,8.3-17.6,17.7-17.3
		c9.7,0.3,17.5,8.3,17.3,17.7C81.3,83.9,73.3,91.7,63.8,91.5z M63.8,61.5c-6.3-0.1-12.2,5.7-12.3,11.9c0,1.9,0.8,3,2.3,3.1
		c1.5,0.1,2.4-0.8,2.7-2.8c0.1-0.6,0.2-1.2,0.4-1.8c1.1-3.5,3.6-5.1,7.1-5.4c1.6-0.1,2.6-1.2,2.5-2.7C66.4,62.4,65.3,61.5,63.8,61.5
		z M63.8,61.5c-6.3-0.1-12.2,5.7-12.3,11.9c0,1.9,0.8,3,2.3,3.1c1.5,0.1,2.4-0.8,2.7-2.8c0.1-0.6,0.2-1.2,0.4-1.8
		c1.1-3.5,3.6-5.1,7.1-5.4c1.6-0.1,2.6-1.2,2.5-2.7C66.4,62.4,65.3,61.5,63.8,61.5z M63.8,61.5c-6.3-0.1-12.2,5.7-12.3,11.9
		c0,1.9,0.8,3,2.3,3.1c1.5,0.1,2.4-0.8,2.7-2.8c0.1-0.6,0.2-1.2,0.4-1.8c1.1-3.5,3.6-5.1,7.1-5.4c1.6-0.1,2.6-1.2,2.5-2.7
		C66.4,62.4,65.3,61.5,63.8,61.5z M63.8,61.5c-6.3-0.1-12.2,5.7-12.3,11.9c0,1.9,0.8,3,2.3,3.1c1.5,0.1,2.4-0.8,2.7-2.8
		c0.1-0.6,0.2-1.2,0.4-1.8c1.1-3.5,3.6-5.1,7.1-5.4c1.6-0.1,2.6-1.2,2.5-2.7C66.4,62.4,65.3,61.5,63.8,61.5z M63.8,61.5
		c-6.3-0.1-12.2,5.7-12.3,11.9c0,1.9,0.8,3,2.3,3.1c1.5,0.1,2.4-0.8,2.7-2.8c0.1-0.6,0.2-1.2,0.4-1.8c1.1-3.5,3.6-5.1,7.1-5.4
		c1.6-0.1,2.6-1.2,2.5-2.7C66.4,62.4,65.3,61.5,63.8,61.5z M64,51.5c-12.4,0-22.5,10.1-22.5,22.5c0,12.4,10.1,22.5,22.5,22.5
		c12.4,0,22.5-10.1,22.5-22.5C86.5,61.6,76.4,51.5,64,51.5z M63.8,91.5c-9.7-0.2-17.5-8.2-17.3-17.6c0.2-9.7,8.3-17.6,17.7-17.3
		c9.7,0.3,17.5,8.3,17.3,17.7C81.3,83.9,73.3,91.7,63.8,91.5z M63.8,61.5c-6.3-0.1-12.2,5.7-12.3,11.9c0,1.9,0.8,3,2.3,3.1
		c1.5,0.1,2.4-0.8,2.7-2.8c0.1-0.6,0.2-1.2,0.4-1.8c1.1-3.5,3.6-5.1,7.1-5.4c1.6-0.1,2.6-1.2,2.5-2.7C66.4,62.4,65.3,61.5,63.8,61.5
		z M63.8,61.5c-6.3-0.1-12.2,5.7-12.3,11.9c0,1.9,0.8,3,2.3,3.1c1.5,0.1,2.4-0.8,2.7-2.8c0.1-0.6,0.2-1.2,0.4-1.8
		c1.1-3.5,3.6-5.1,7.1-5.4c1.6-0.1,2.6-1.2,2.5-2.7C66.4,62.4,65.3,61.5,63.8,61.5z M63.8,61.5c-6.3-0.1-12.2,5.7-12.3,11.9
		c0,1.9,0.8,3,2.3,3.1c1.5,0.1,2.4-0.8,2.7-2.8c0.1-0.6,0.2-1.2,0.4-1.8c1.1-3.5,3.6-5.1,7.1-5.4c1.6-0.1,2.6-1.2,2.5-2.7
		C66.4,62.4,65.3,61.5,63.8,61.5z M63.8,61.5c-6.3-0.1-12.2,5.7-12.3,11.9c0,1.9,0.8,3,2.3,3.1c1.5,0.1,2.4-0.8,2.7-2.8
		c0.1-0.6,0.2-1.2,0.4-1.8c1.1-3.5,3.6-5.1,7.1-5.4c1.6-0.1,2.6-1.2,2.5-2.7C66.4,62.4,65.3,61.5,63.8,61.5z M71.3,21.5
		c-4.9,0-9.7,0-14.6,0c-1.6,0-2.7,1-2.7,2.5c0,1.5,1.1,2.5,2.8,2.5c2.4,0,4.7,0,7.1,0c2.5,0,4.9,0,7.4,0c1.7,0,2.8-1,2.8-2.5
		C74,22.5,72.9,21.5,71.3,21.5z M63.8,61.5c-6.3-0.1-12.2,5.7-12.3,11.9c0,1.9,0.8,3,2.3,3.1c1.5,0.1,2.4-0.8,2.7-2.8
		c0.1-0.6,0.2-1.2,0.4-1.8c1.1-3.5,3.6-5.1,7.1-5.4c1.6-0.1,2.6-1.2,2.5-2.7C66.4,62.4,65.3,61.5,63.8,61.5z M64,51.5
		c-12.4,0-22.5,10.1-22.5,22.5c0,12.4,10.1,22.5,22.5,22.5c12.4,0,22.5-10.1,22.5-22.5C86.5,61.6,76.4,51.5,64,51.5z M63.8,91.5
		c-9.7-0.2-17.5-8.2-17.3-17.6c0.2-9.7,8.3-17.6,17.7-17.3c9.7,0.3,17.5,8.3,17.3,17.7C81.3,83.9,73.3,91.7,63.8,91.5z M63.8,61.5
		c-6.3-0.1-12.2,5.7-12.3,11.9c0,1.9,0.8,3,2.3,3.1c1.5,0.1,2.4-0.8,2.7-2.8c0.1-0.6,0.2-1.2,0.4-1.8c1.1-3.5,3.6-5.1,7.1-5.4
		c1.6-0.1,2.6-1.2,2.5-2.7C66.4,62.4,65.3,61.5,63.8,61.5z M64,51.5c-12.4,0-22.5,10.1-22.5,22.5c0,12.4,10.1,22.5,22.5,22.5
		c12.4,0,22.5-10.1,22.5-22.5C86.5,61.6,76.4,51.5,64,51.5z M63.8,91.5c-9.7-0.2-17.5-8.2-17.3-17.6c0.2-9.7,8.3-17.6,17.7-17.3
		c9.7,0.3,17.5,8.3,17.3,17.7C81.3,83.9,73.3,91.7,63.8,91.5z M63.8,61.5c-6.3-0.1-12.2,5.7-12.3,11.9c0,1.9,0.8,3,2.3,3.1
		c1.5,0.1,2.4-0.8,2.7-2.8c0.1-0.6,0.2-1.2,0.4-1.8c1.1-3.5,3.6-5.1,7.1-5.4c1.6-0.1,2.6-1.2,2.5-2.7C66.4,62.4,65.3,61.5,63.8,61.5
		z M71.3,21.5c-4.9,0-9.7,0-14.6,0c-1.6,0-2.7,1-2.7,2.5c0,1.5,1.1,2.5,2.8,2.5c2.4,0,4.7,0,7.1,0c2.5,0,4.9,0,7.4,0
		c1.7,0,2.8-1,2.8-2.5C74,22.5,72.9,21.5,71.3,21.5z M127.8,37.4c-1.3-4.1-3.7-5.9-8-5.9c-8.6,0-17.1,0-25.6,0
		c-0.9,0-1.3-0.3-1.7-1.1c-2.4-4.9-4.8-9.7-7.3-14.6c-1.5-2.9-3.9-4.4-7.2-4.4c-9.3,0-18.5,0.1-27.7,0c-3.7,0-6.2,1.6-7.8,4.9
		c-2.1,4.4-4.4,8.6-6.5,13c-0.8,1.7-1.7,2.3-3.6,2.2c-2.4-0.2-2.4,0-2.4-2.5c-0.1-4.3-3.3-7.5-7.6-7.6c-1.5,0-3,0-4.5,0
		c-4.7,0-7.9,3.2-7.9,7.9c0,2.1,0,2.1-2.2,2.1c-4.7,0-7.8,3.2-7.8,7.8c0,23.1,0,46.2,0,69.4c0,0.7,0,1.3,0.2,2
		c1,3.7,3.8,5.8,7.8,5.8h95.4c5.7,0,11.3,0,17,0c3.4,0,6-1.8,7.3-5.1c0.1-0.2,0-0.6,0.4-0.7V37.5C127.9,37.5,127.8,37.4,127.8,37.4z
		 M41.1,30.6c2-4,4-8,6-12c0.7-1.4,1.7-2.1,3.3-2.1c9.1,0,18.2,0,27.3,0c1.6,0,2.6,0.6,3.3,2.1c2.1,4.3,4.2,8.5,6.4,12.9H40.8
		C40.6,31.1,40.9,30.8,41.1,30.6z M15,29.2c0.1-1.6,1-2.6,2.7-2.7c1.5-0.1,3.1-0.1,4.6,0c1.8,0.1,2.7,1.2,2.7,3.2
		c0,1.8,0,1.8-1.7,1.8h-3.4c-1.4,0-2.8,0-4.2,0c-0.6,0-0.7-0.2-0.7-0.7C15,30.3,15,29.7,15,29.2z M5.9,56.5c10.2,0,20.3,0,30.6,0
		c-6.6,10.7-6.7,24-0.1,34.9c-0.2,0.2-0.5,0.1-0.8,0.1c-9.8,0-19.7,0-29.5,0c-0.9,0-1.1-0.2-1.1-1.2c0-10.9,0-21.8,0-32.8
		C5,57,4.8,56.5,5.9,56.5z M123,108.1c0,2.6-0.9,3.5-3.4,3.5H8.6c-2.7,0-3.6-0.9-3.6-3.6c0-3.5,0-7,0-10.5c0-0.8,0.2-1,1-1
		c11.2,0,22.5,0,33.7,0c0.7,0,1.2,0.3,1.6,0.7c4.5,4.5,9.9,7.4,16.1,8.6c9.3,1.9,17.9,0,25.6-5.5c0.8-0.6,1.7-1.1,2.3-1.9
		c1.3-1.6,2.9-2,4.9-2c10.5,0.1,21,0.1,31.5,0c0.9,0,1.3,0.1,1.2,1.2C123,101.1,123,104.6,123,108.1z M36.6,74
		c0-15.4,12.3-27.2,27.5-27.5c15.1,0,27.6,12.4,27.4,27.5c-0.1,15.5-12.3,27.5-27.6,27.4C48.5,101.4,36.5,89.2,36.6,74z M123,90.3
		c0,1-0.2,1.3-1.3,1.3c-10,0-20.1,0-30.2,0c6.7-11.7,6.7-23.3,0-35h1.2c9.7,0,19.4,0,29.1,0c1.1,0,1.3,0.3,1.3,1.3
		C123,68.6,123,79.4,123,90.3z M122,51.5c-11.2,0-22.4,0-33.6,0c-0.7,0-1.2-0.2-1.6-0.7c-4.5-4.5-9.9-7.4-16.1-8.6
		c-9.3-1.9-17.9,0-25.7,5.5c-1.3,0.9-2.6,2-3.7,3.2c-0.5,0.5-1,0.7-1.8,0.7c-11.1,0-22.2,0-33.4,0c-0.9,0-1.2-0.2-1.2-1.1
		c0.1-3.5,0-7,0-10.5c0-2.4,0.9-3.4,3.4-3.4h111c2.8,0,3.6,0.8,3.6,3.6c0,3.4,0,6.8,0,10.2C123,51.2,122.9,51.5,122,51.5z M64,96.5
		c12.4,0,22.5-10.1,22.5-22.5c0-12.4-10.1-22.5-22.5-22.5c-12.4,0-22.5,10.1-22.5,22.5C41.5,86.5,51.6,96.5,64,96.5z M64.2,56.5
		c9.7,0.3,17.5,8.3,17.3,17.7c-0.2,9.7-8.2,17.5-17.7,17.3c-9.7-0.2-17.5-8.2-17.3-17.6C46.7,64.2,54.8,56.3,64.2,56.5z M56.8,26.5
		c2.4,0,4.7,0,7.1,0c2.5,0,4.9,0,7.4,0c1.7,0,2.8-1,2.8-2.5c0-1.5-1.1-2.5-2.7-2.5c-4.9,0-9.7,0-14.6,0c-1.6,0-2.7,1-2.7,2.5
		C54,25.5,55.1,26.5,56.8,26.5z M53.8,76.5c1.5,0.1,2.4-0.8,2.7-2.8c0.1-0.6,0.2-1.2,0.4-1.8c1.1-3.5,3.6-5.1,7.1-5.4
		c1.6-0.1,2.6-1.2,2.5-2.7c-0.1-1.4-1.2-2.3-2.7-2.3c-6.3-0.1-12.2,5.7-12.3,11.9C51.5,75.3,52.3,76.4,53.8,76.5z M71.3,21.5
		c-4.9,0-9.7,0-14.6,0c-1.6,0-2.7,1-2.7,2.5c0,1.5,1.1,2.5,2.8,2.5c2.4,0,4.7,0,7.1,0c2.5,0,4.9,0,7.4,0c1.7,0,2.8-1,2.8-2.5
		C74,22.5,72.9,21.5,71.3,21.5z M63.8,61.5c-6.3-0.1-12.2,5.7-12.3,11.9c0,1.9,0.8,3,2.3,3.1c1.5,0.1,2.4-0.8,2.7-2.8
		c0.1-0.6,0.2-1.2,0.4-1.8c1.1-3.5,3.6-5.1,7.1-5.4c1.6-0.1,2.6-1.2,2.5-2.7C66.4,62.4,65.3,61.5,63.8,61.5z M63.8,61.5
		c-6.3-0.1-12.2,5.7-12.3,11.9c0,1.9,0.8,3,2.3,3.1c1.5,0.1,2.4-0.8,2.7-2.8c0.1-0.6,0.2-1.2,0.4-1.8c1.1-3.5,3.6-5.1,7.1-5.4
		c1.6-0.1,2.6-1.2,2.5-2.7C66.4,62.4,65.3,61.5,63.8,61.5z M64,51.5c-12.4,0-22.5,10.1-22.5,22.5c0,12.4,10.1,22.5,22.5,22.5
		c12.4,0,22.5-10.1,22.5-22.5C86.5,61.6,76.4,51.5,64,51.5z M63.8,91.5c-9.7-0.2-17.5-8.2-17.3-17.6c0.2-9.7,8.3-17.6,17.7-17.3
		c9.7,0.3,17.5,8.3,17.3,17.7C81.3,83.9,73.3,91.7,63.8,91.5z M63.8,61.5c-6.3-0.1-12.2,5.7-12.3,11.9c0,1.9,0.8,3,2.3,3.1
		c1.5,0.1,2.4-0.8,2.7-2.8c0.1-0.6,0.2-1.2,0.4-1.8c1.1-3.5,3.6-5.1,7.1-5.4c1.6-0.1,2.6-1.2,2.5-2.7C66.4,62.4,65.3,61.5,63.8,61.5
		z M63.8,61.5c-6.3-0.1-12.2,5.7-12.3,11.9c0,1.9,0.8,3,2.3,3.1c1.5,0.1,2.4-0.8,2.7-2.8c0.1-0.6,0.2-1.2,0.4-1.8
		c1.1-3.5,3.6-5.1,7.1-5.4c1.6-0.1,2.6-1.2,2.5-2.7C66.4,62.4,65.3,61.5,63.8,61.5z M63.8,61.5c-6.3-0.1-12.2,5.7-12.3,11.9
		c0,1.9,0.8,3,2.3,3.1c1.5,0.1,2.4-0.8,2.7-2.8c0.1-0.6,0.2-1.2,0.4-1.8c1.1-3.5,3.6-5.1,7.1-5.4c1.6-0.1,2.6-1.2,2.5-2.7
		C66.4,62.4,65.3,61.5,63.8,61.5z M64,51.5c-12.4,0-22.5,10.1-22.5,22.5c0,12.4,10.1,22.5,22.5,22.5c12.4,0,22.5-10.1,22.5-22.5
		C86.5,61.6,76.4,51.5,64,51.5z M63.8,91.5c-9.7-0.2-17.5-8.2-17.3-17.6c0.2-9.7,8.3-17.6,17.7-17.3c9.7,0.3,17.5,8.3,17.3,17.7
		C81.3,83.9,73.3,91.7,63.8,91.5z M63.8,61.5c-6.3-0.1-12.2,5.7-12.3,11.9c0,1.9,0.8,3,2.3,3.1c1.5,0.1,2.4-0.8,2.7-2.8
		c0.1-0.6,0.2-1.2,0.4-1.8c1.1-3.5,3.6-5.1,7.1-5.4c1.6-0.1,2.6-1.2,2.5-2.7C66.4,62.4,65.3,61.5,63.8,61.5z M63.8,61.5
		c-6.3-0.1-12.2,5.7-12.3,11.9c0,1.9,0.8,3,2.3,3.1c1.5,0.1,2.4-0.8,2.7-2.8c0.1-0.6,0.2-1.2,0.4-1.8c1.1-3.5,3.6-5.1,7.1-5.4
		c1.6-0.1,2.6-1.2,2.5-2.7C66.4,62.4,65.3,61.5,63.8,61.5z M71.3,21.5c-4.9,0-9.7,0-14.6,0c-1.6,0-2.7,1-2.7,2.5
		c0,1.5,1.1,2.5,2.8,2.5c2.4,0,4.7,0,7.1,0c2.5,0,4.9,0,7.4,0c1.7,0,2.8-1,2.8-2.5C74,22.5,72.9,21.5,71.3,21.5z M63.8,61.5
		c-6.3-0.1-12.2,5.7-12.3,11.9c0,1.9,0.8,3,2.3,3.1c1.5,0.1,2.4-0.8,2.7-2.8c0.1-0.6,0.2-1.2,0.4-1.8c1.1-3.5,3.6-5.1,7.1-5.4
		c1.6-0.1,2.6-1.2,2.5-2.7C66.4,62.4,65.3,61.5,63.8,61.5z M63.8,61.5c-6.3-0.1-12.2,5.7-12.3,11.9c0,1.9,0.8,3,2.3,3.1
		c1.5,0.1,2.4-0.8,2.7-2.8c0.1-0.6,0.2-1.2,0.4-1.8c1.1-3.5,3.6-5.1,7.1-5.4c1.6-0.1,2.6-1.2,2.5-2.7C66.4,62.4,65.3,61.5,63.8,61.5
		z M63.8,61.5c-6.3-0.1-12.2,5.7-12.3,11.9c0,1.9,0.8,3,2.3,3.1c1.5,0.1,2.4-0.8,2.7-2.8c0.1-0.6,0.2-1.2,0.4-1.8
		c1.1-3.5,3.6-5.1,7.1-5.4c1.6-0.1,2.6-1.2,2.5-2.7C66.4,62.4,65.3,61.5,63.8,61.5z M63.8,61.5c-6.3-0.1-12.2,5.7-12.3,11.9
		c0,1.9,0.8,3,2.3,3.1c1.5,0.1,2.4-0.8,2.7-2.8c0.1-0.6,0.2-1.2,0.4-1.8c1.1-3.5,3.6-5.1,7.1-5.4c1.6-0.1,2.6-1.2,2.5-2.7
		C66.4,62.4,65.3,61.5,63.8,61.5z M63.8,61.5c-6.3-0.1-12.2,5.7-12.3,11.9c0,1.9,0.8,3,2.3,3.1c1.5,0.1,2.4-0.8,2.7-2.8
		c0.1-0.6,0.2-1.2,0.4-1.8c1.1-3.5,3.6-5.1,7.1-5.4c1.6-0.1,2.6-1.2,2.5-2.7C66.4,62.4,65.3,61.5,63.8,61.5z M64,51.5
		c-12.4,0-22.5,10.1-22.5,22.5c0,12.4,10.1,22.5,22.5,22.5c12.4,0,22.5-10.1,22.5-22.5C86.5,61.6,76.4,51.5,64,51.5z M63.8,91.5
		c-9.7-0.2-17.5-8.2-17.3-17.6c0.2-9.7,8.3-17.6,17.7-17.3c9.7,0.3,17.5,8.3,17.3,17.7C81.3,83.9,73.3,91.7,63.8,91.5z M63.8,61.5
		c-6.3-0.1-12.2,5.7-12.3,11.9c0,1.9,0.8,3,2.3,3.1c1.5,0.1,2.4-0.8,2.7-2.8c0.1-0.6,0.2-1.2,0.4-1.8c1.1-3.5,3.6-5.1,7.1-5.4
		c1.6-0.1,2.6-1.2,2.5-2.7C66.4,62.4,65.3,61.5,63.8,61.5z M63.8,61.5c-6.3-0.1-12.2,5.7-12.3,11.9c0,1.9,0.8,3,2.3,3.1
		c1.5,0.1,2.4-0.8,2.7-2.8c0.1-0.6,0.2-1.2,0.4-1.8c1.1-3.5,3.6-5.1,7.1-5.4c1.6-0.1,2.6-1.2,2.5-2.7C66.4,62.4,65.3,61.5,63.8,61.5
		z M63.8,61.5c-6.3-0.1-12.2,5.7-12.3,11.9c0,1.9,0.8,3,2.3,3.1c1.5,0.1,2.4-0.8,2.7-2.8c0.1-0.6,0.2-1.2,0.4-1.8
		c1.1-3.5,3.6-5.1,7.1-5.4c1.6-0.1,2.6-1.2,2.5-2.7C66.4,62.4,65.3,61.5,63.8,61.5z M63.8,61.5c-6.3-0.1-12.2,5.7-12.3,11.9
		c0,1.9,0.8,3,2.3,3.1c1.5,0.1,2.4-0.8,2.7-2.8c0.1-0.6,0.2-1.2,0.4-1.8c1.1-3.5,3.6-5.1,7.1-5.4c1.6-0.1,2.6-1.2,2.5-2.7
		C66.4,62.4,65.3,61.5,63.8,61.5z M63.8,61.5c-6.3-0.1-12.2,5.7-12.3,11.9c0,1.9,0.8,3,2.3,3.1c1.5,0.1,2.4-0.8,2.7-2.8
		c0.1-0.6,0.2-1.2,0.4-1.8c1.1-3.5,3.6-5.1,7.1-5.4c1.6-0.1,2.6-1.2,2.5-2.7C66.4,62.4,65.3,61.5,63.8,61.5z M63.8,61.5
		c-6.3-0.1-12.2,5.7-12.3,11.9c0,1.9,0.8,3,2.3,3.1c1.5,0.1,2.4-0.8,2.7-2.8c0.1-0.6,0.2-1.2,0.4-1.8c1.1-3.5,3.6-5.1,7.1-5.4
		c1.6-0.1,2.6-1.2,2.5-2.7C66.4,62.4,65.3,61.5,63.8,61.5z M63.8,61.5c-6.3-0.1-12.2,5.7-12.3,11.9c0,1.9,0.8,3,2.3,3.1
		c1.5,0.1,2.4-0.8,2.7-2.8c0.1-0.6,0.2-1.2,0.4-1.8c1.1-3.5,3.6-5.1,7.1-5.4c1.6-0.1,2.6-1.2,2.5-2.7C66.4,62.4,65.3,61.5,63.8,61.5
		z M64,51.5c-12.4,0-22.5,10.1-22.5,22.5c0,12.4,10.1,22.5,22.5,22.5c12.4,0,22.5-10.1,22.5-22.5C86.5,61.6,76.4,51.5,64,51.5z
		 M63.8,91.5c-9.7-0.2-17.5-8.2-17.3-17.6c0.2-9.7,8.3-17.6,17.7-17.3c9.7,0.3,17.5,8.3,17.3,17.7C81.3,83.9,73.3,91.7,63.8,91.5z
		 M63.8,61.5c-6.3-0.1-12.2,5.7-12.3,11.9c0,1.9,0.8,3,2.3,3.1c1.5,0.1,2.4-0.8,2.7-2.8c0.1-0.6,0.2-1.2,0.4-1.8
		c1.1-3.5,3.6-5.1,7.1-5.4c1.6-0.1,2.6-1.2,2.5-2.7C66.4,62.4,65.3,61.5,63.8,61.5z M63.8,61.5c-6.3-0.1-12.2,5.7-12.3,11.9
		c0,1.9,0.8,3,2.3,3.1c1.5,0.1,2.4-0.8,2.7-2.8c0.1-0.6,0.2-1.2,0.4-1.8c1.1-3.5,3.6-5.1,7.1-5.4c1.6-0.1,2.6-1.2,2.5-2.7
		C66.4,62.4,65.3,61.5,63.8,61.5z M63.8,61.5c-6.3-0.1-12.2,5.7-12.3,11.9c0,1.9,0.8,3,2.3,3.1c1.5,0.1,2.4-0.8,2.7-2.8
		c0.1-0.6,0.2-1.2,0.4-1.8c1.1-3.5,3.6-5.1,7.1-5.4c1.6-0.1,2.6-1.2,2.5-2.7C66.4,62.4,65.3,61.5,63.8,61.5z M63.8,61.5
		c-6.3-0.1-12.2,5.7-12.3,11.9c0,1.9,0.8,3,2.3,3.1c1.5,0.1,2.4-0.8,2.7-2.8c0.1-0.6,0.2-1.2,0.4-1.8c1.1-3.5,3.6-5.1,7.1-5.4
		c1.6-0.1,2.6-1.2,2.5-2.7C66.4,62.4,65.3,61.5,63.8,61.5z M63.8,61.5c-6.3-0.1-12.2,5.7-12.3,11.9c0,1.9,0.8,3,2.3,3.1
		c1.5,0.1,2.4-0.8,2.7-2.8c0.1-0.6,0.2-1.2,0.4-1.8c1.1-3.5,3.6-5.1,7.1-5.4c1.6-0.1,2.6-1.2,2.5-2.7C66.4,62.4,65.3,61.5,63.8,61.5
		z M63.8,61.5c-6.3-0.1-12.2,5.7-12.3,11.9c0,1.9,0.8,3,2.3,3.1c1.5,0.1,2.4-0.8,2.7-2.8c0.1-0.6,0.2-1.2,0.4-1.8
		c1.1-3.5,3.6-5.1,7.1-5.4c1.6-0.1,2.6-1.2,2.5-2.7C66.4,62.4,65.3,61.5,63.8,61.5z M63.8,61.5c-6.3-0.1-12.2,5.7-12.3,11.9
		c0,1.9,0.8,3,2.3,3.1c1.5,0.1,2.4-0.8,2.7-2.8c0.1-0.6,0.2-1.2,0.4-1.8c1.1-3.5,3.6-5.1,7.1-5.4c1.6-0.1,2.6-1.2,2.5-2.7
		C66.4,62.4,65.3,61.5,63.8,61.5z M63.8,61.5c-6.3-0.1-12.2,5.7-12.3,11.9c0,1.9,0.8,3,2.3,3.1c1.5,0.1,2.4-0.8,2.7-2.8
		c0.1-0.6,0.2-1.2,0.4-1.8c1.1-3.5,3.6-5.1,7.1-5.4c1.6-0.1,2.6-1.2,2.5-2.7C66.4,62.4,65.3,61.5,63.8,61.5z M63.8,61.5
		c-6.3-0.1-12.2,5.7-12.3,11.9c0,1.9,0.8,3,2.3,3.1c1.5,0.1,2.4-0.8,2.7-2.8c0.1-0.6,0.2-1.2,0.4-1.8c1.1-3.5,3.6-5.1,7.1-5.4
		c1.6-0.1,2.6-1.2,2.5-2.7C66.4,62.4,65.3,61.5,63.8,61.5z M63.8,61.5c-6.3-0.1-12.2,5.7-12.3,11.9c0,1.9,0.8,3,2.3,3.1
		c1.5,0.1,2.4-0.8,2.7-2.8c0.1-0.6,0.2-1.2,0.4-1.8c1.1-3.5,3.6-5.1,7.1-5.4c1.6-0.1,2.6-1.2,2.5-2.7C66.4,62.4,65.3,61.5,63.8,61.5
		z M63.8,61.5c-6.3-0.1-12.2,5.7-12.3,11.9c0,1.9,0.8,3,2.3,3.1c1.5,0.1,2.4-0.8,2.7-2.8c0.1-0.6,0.2-1.2,0.4-1.8
		c1.1-3.5,3.6-5.1,7.1-5.4c1.6-0.1,2.6-1.2,2.5-2.7C66.4,62.4,65.3,61.5,63.8,61.5z M64,51.5c-12.4,0-22.5,10.1-22.5,22.5
		c0,12.4,10.1,22.5,22.5,22.5c12.4,0,22.5-10.1,22.5-22.5C86.5,61.6,76.4,51.5,64,51.5z M63.8,91.5c-9.7-0.2-17.5-8.2-17.3-17.6
		c0.2-9.7,8.3-17.6,17.7-17.3c9.7,0.3,17.5,8.3,17.3,17.7C81.3,83.9,73.3,91.7,63.8,91.5z M63.8,61.5c-6.3-0.1-12.2,5.7-12.3,11.9
		c0,1.9,0.8,3,2.3,3.1c1.5,0.1,2.4-0.8,2.7-2.8c0.1-0.6,0.2-1.2,0.4-1.8c1.1-3.5,3.6-5.1,7.1-5.4c1.6-0.1,2.6-1.2,2.5-2.7
		C66.4,62.4,65.3,61.5,63.8,61.5z M63.8,61.5c-6.3-0.1-12.2,5.7-12.3,11.9c0,1.9,0.8,3,2.3,3.1c1.5,0.1,2.4-0.8,2.7-2.8
		c0.1-0.6,0.2-1.2,0.4-1.8c1.1-3.5,3.6-5.1,7.1-5.4c1.6-0.1,2.6-1.2,2.5-2.7C66.4,62.4,65.3,61.5,63.8,61.5z M63.8,61.5
		c-6.3-0.1-12.2,5.7-12.3,11.9c0,1.9,0.8,3,2.3,3.1c1.5,0.1,2.4-0.8,2.7-2.8c0.1-0.6,0.2-1.2,0.4-1.8c1.1-3.5,3.6-5.1,7.1-5.4
		c1.6-0.1,2.6-1.2,2.5-2.7C66.4,62.4,65.3,61.5,63.8,61.5z M63.8,61.5c-6.3-0.1-12.2,5.7-12.3,11.9c0,1.9,0.8,3,2.3,3.1
		c1.5,0.1,2.4-0.8,2.7-2.8c0.1-0.6,0.2-1.2,0.4-1.8c1.1-3.5,3.6-5.1,7.1-5.4c1.6-0.1,2.6-1.2,2.5-2.7C66.4,62.4,65.3,61.5,63.8,61.5
		z M63.8,61.5c-6.3-0.1-12.2,5.7-12.3,11.9c0,1.9,0.8,3,2.3,3.1c1.5,0.1,2.4-0.8,2.7-2.8c0.1-0.6,0.2-1.2,0.4-1.8
		c1.1-3.5,3.6-5.1,7.1-5.4c1.6-0.1,2.6-1.2,2.5-2.7C66.4,62.4,65.3,61.5,63.8,61.5z M63.8,61.5c-6.3-0.1-12.2,5.7-12.3,11.9
		c0,1.9,0.8,3,2.3,3.1c1.5,0.1,2.4-0.8,2.7-2.8c0.1-0.6,0.2-1.2,0.4-1.8c1.1-3.5,3.6-5.1,7.1-5.4c1.6-0.1,2.6-1.2,2.5-2.7
		C66.4,62.4,65.3,61.5,63.8,61.5z M63.8,61.5c-6.3-0.1-12.2,5.7-12.3,11.9c0,1.9,0.8,3,2.3,3.1c1.5,0.1,2.4-0.8,2.7-2.8
		c0.1-0.6,0.2-1.2,0.4-1.8c1.1-3.5,3.6-5.1,7.1-5.4c1.6-0.1,2.6-1.2,2.5-2.7C66.4,62.4,65.3,61.5,63.8,61.5z M63.8,61.5
		c-6.3-0.1-12.2,5.7-12.3,11.9c0,1.9,0.8,3,2.3,3.1c1.5,0.1,2.4-0.8,2.7-2.8c0.1-0.6,0.2-1.2,0.4-1.8c1.1-3.5,3.6-5.1,7.1-5.4
		c1.6-0.1,2.6-1.2,2.5-2.7C66.4,62.4,65.3,61.5,63.8,61.5z M63.8,61.5c-6.3-0.1-12.2,5.7-12.3,11.9c0,1.9,0.8,3,2.3,3.1
		c1.5,0.1,2.4-0.8,2.7-2.8c0.1-0.6,0.2-1.2,0.4-1.8c1.1-3.5,3.6-5.1,7.1-5.4c1.6-0.1,2.6-1.2,2.5-2.7C66.4,62.4,65.3,61.5,63.8,61.5
		z M63.8,61.5c-6.3-0.1-12.2,5.7-12.3,11.9c0,1.9,0.8,3,2.3,3.1c1.5,0.1,2.4-0.8,2.7-2.8c0.1-0.6,0.2-1.2,0.4-1.8
		c1.1-3.5,3.6-5.1,7.1-5.4c1.6-0.1,2.6-1.2,2.5-2.7C66.4,62.4,65.3,61.5,63.8,61.5z M63.8,61.5c-6.3-0.1-12.2,5.7-12.3,11.9
		c0,1.9,0.8,3,2.3,3.1c1.5,0.1,2.4-0.8,2.7-2.8c0.1-0.6,0.2-1.2,0.4-1.8c1.1-3.5,3.6-5.1,7.1-5.4c1.6-0.1,2.6-1.2,2.5-2.7
		C66.4,62.4,65.3,61.5,63.8,61.5z M64,51.5c-12.4,0-22.5,10.1-22.5,22.5c0,12.4,10.1,22.5,22.5,22.5c12.4,0,22.5-10.1,22.5-22.5
		C86.5,61.6,76.4,51.5,64,51.5z M63.8,91.5c-9.7-0.2-17.5-8.2-17.3-17.6c0.2-9.7,8.3-17.6,17.7-17.3c9.7,0.3,17.5,8.3,17.3,17.7
		C81.3,83.9,73.3,91.7,63.8,91.5z M63.8,61.5c-6.3-0.1-12.2,5.7-12.3,11.9c0,1.9,0.8,3,2.3,3.1c1.5,0.1,2.4-0.8,2.7-2.8
		c0.1-0.6,0.2-1.2,0.4-1.8c1.1-3.5,3.6-5.1,7.1-5.4c1.6-0.1,2.6-1.2,2.5-2.7C66.4,62.4,65.3,61.5,63.8,61.5z M63.8,61.5
		c-6.3-0.1-12.2,5.7-12.3,11.9c0,1.9,0.8,3,2.3,3.1c1.5,0.1,2.4-0.8,2.7-2.8c0.1-0.6,0.2-1.2,0.4-1.8c1.1-3.5,3.6-5.1,7.1-5.4
		c1.6-0.1,2.6-1.2,2.5-2.7C66.4,62.4,65.3,61.5,63.8,61.5z M63.8,61.5c-6.3-0.1-12.2,5.7-12.3,11.9c0,1.9,0.8,3,2.3,3.1
		c1.5,0.1,2.4-0.8,2.7-2.8c0.1-0.6,0.2-1.2,0.4-1.8c1.1-3.5,3.6-5.1,7.1-5.4c1.6-0.1,2.6-1.2,2.5-2.7C66.4,62.4,65.3,61.5,63.8,61.5
		z M63.8,61.5c-6.3-0.1-12.2,5.7-12.3,11.9c0,1.9,0.8,3,2.3,3.1c1.5,0.1,2.4-0.8,2.7-2.8c0.1-0.6,0.2-1.2,0.4-1.8
		c1.1-3.5,3.6-5.1,7.1-5.4c1.6-0.1,2.6-1.2,2.5-2.7C66.4,62.4,65.3,61.5,63.8,61.5z M63.8,61.5c-6.3-0.1-12.2,5.7-12.3,11.9
		c0,1.9,0.8,3,2.3,3.1c1.5,0.1,2.4-0.8,2.7-2.8c0.1-0.6,0.2-1.2,0.4-1.8c1.1-3.5,3.6-5.1,7.1-5.4c1.6-0.1,2.6-1.2,2.5-2.7
		C66.4,62.4,65.3,61.5,63.8,61.5z"/>
	<path d="M103,44c0,1.4-1.1,2.5-2.5,2.5c-1.4,0-2.5-1.1-2.5-2.5c0-1.4,1.1-2.4,2.5-2.5C101.9,41.5,103,42.6,103,44z"/>
	<path d="M118,44c0,1.3-1,2.3-2.3,2.5h-2.6c-0.9,0-1.7,0-2.6,0c-1.4-0.1-2.4-1.1-2.4-2.5c0-1.4,1-2.5,2.4-2.5c1.7,0,3.5,0,5.2,0
		C117,41.6,118,42.7,118,44z"/>
	<path d="M66.5,63.8c0.1,1.5-0.8,2.5-2.5,2.7c-3.5,0.3-6,1.9-7.1,5.4c-0.2,0.6-0.3,1.2-0.4,1.8c-0.3,1.9-1.2,2.8-2.7,2.8
		c-1.5-0.1-2.4-1.2-2.3-3.1c0.1-6.3,6-12,12.3-11.9C65.3,61.5,66.4,62.4,66.5,63.8z"/>
	<path d="M64,51.5c-12.4,0-22.5,10.1-22.5,22.5c0,12.4,10.1,22.5,22.5,22.5c12.4,0,22.5-10.1,22.5-22.5C86.5,61.6,76.4,51.5,64,51.5
		z M63.8,91.5c-9.7-0.2-17.5-8.2-17.3-17.6c0.2-9.7,8.3-17.6,17.7-17.3c9.7,0.3,17.5,8.3,17.3,17.7C81.3,83.9,73.3,91.7,63.8,91.5z"
		/>
	<path d="M74,24c0,1.5-1.1,2.5-2.8,2.5c-2.5,0-4.9,0-7.4,0c-2.4,0-4.7,0-7.1,0c-1.7,0-2.8-1-2.8-2.5c0-1.5,1.1-2.5,2.7-2.5
		c4.9,0,9.7,0,14.6,0C72.9,21.5,74,22.5,74,24z"/>
	<path d="M118,44c0,1.3-1,2.3-2.3,2.5h-2.6c-0.9,0-1.7,0-2.6,0c-1.4-0.1-2.4-1.1-2.4-2.5c0-1.4,1-2.5,2.4-2.5c1.7,0,3.5,0,5.2,0
		C117,41.6,118,42.7,118,44z"/>
	<path d="M103,44c0,1.4-1.1,2.5-2.5,2.5c-1.4,0-2.5-1.1-2.5-2.5c0-1.4,1.1-2.4,2.5-2.5C101.9,41.5,103,42.6,103,44z"/>
	<path d="M66.5,63.8c0.1,1.5-0.8,2.5-2.5,2.7c-3.5,0.3-6,1.9-7.1,5.4c-0.2,0.6-0.3,1.2-0.4,1.8c-0.3,1.9-1.2,2.8-2.7,2.8
		c-1.5-0.1-2.4-1.2-2.3-3.1c0.1-6.3,6-12,12.3-11.9C65.3,61.5,66.4,62.4,66.5,63.8z"/>
	<path d="M64,51.5c-12.4,0-22.5,10.1-22.5,22.5c0,12.4,10.1,22.5,22.5,22.5c12.4,0,22.5-10.1,22.5-22.5C86.5,61.6,76.4,51.5,64,51.5
		z M63.8,91.5c-9.7-0.2-17.5-8.2-17.3-17.6c0.2-9.7,8.3-17.6,17.7-17.3c9.7,0.3,17.5,8.3,17.3,17.7C81.3,83.9,73.3,91.7,63.8,91.5z"
		/>
	<path d="M74,24c0,1.5-1.1,2.5-2.8,2.5c-2.5,0-4.9,0-7.4,0c-2.4,0-4.7,0-7.1,0c-1.7,0-2.8-1-2.8-2.5c0-1.5,1.1-2.5,2.7-2.5
		c4.9,0,9.7,0,14.6,0C72.9,21.5,74,22.5,74,24z"/>
	<path d="M66.5,63.8c0.1,1.5-0.8,2.5-2.5,2.7c-3.5,0.3-6,1.9-7.1,5.4c-0.2,0.6-0.3,1.2-0.4,1.8c-0.3,1.9-1.2,2.8-2.7,2.8
		c-1.5-0.1-2.4-1.2-2.3-3.1c0.1-6.3,6-12,12.3-11.9C65.3,61.5,66.4,62.4,66.5,63.8z"/>
	<path d="M66.5,63.8c0.1,1.5-0.8,2.5-2.5,2.7c-3.5,0.3-6,1.9-7.1,5.4c-0.2,0.6-0.3,1.2-0.4,1.8c-0.3,1.9-1.2,2.8-2.7,2.8
		c-1.5-0.1-2.4-1.2-2.3-3.1c0.1-6.3,6-12,12.3-11.9C65.3,61.5,66.4,62.4,66.5,63.8z"/>
</g>
</svg>
