<?xml version="1.0" encoding="utf-8"?>
<!-- Generator: Adobe Illustrator 28.0.0, SVG Export Plug-In . SVG Version: 6.00 Build 0)  -->
<svg version="1.1" id="Layer_1" xmlns="http://www.w3.org/2000/svg" xmlns:xlink="http://www.w3.org/1999/xlink" x="0px" y="0px"
	 viewBox="0 0 128 128" style="enable-background:new 0 0 128 128;" xml:space="preserve">
<g id="Ru2pqD_1_">
	<g>
		<path d="M74,0c4.1,0,8.2,0,12.3,0C89.4,0,91,1.4,91,4.6c0,2.2,0,4.4,0,6.5c0,1.9-0.7,3-2.7,2.8c-2-0.2-2.3,0.7-2.2,2.4
			c0.1,11,0.1,22,0,33c0,2.2,1.1,2.7,2.7,3.4c15.5,6.5,25.1,21.6,24.2,37.8c-0.9,16.9-12,30.9-28.3,35.7c-7.9,2.3-15.9,2.1-23.6-0.8
			c-1.1-0.4-3.7,0-3-2.2c0.5-1.7,2-2.6,4.5-1.6c6.7,2.7,13.7,2.9,20.6,0.9c14.8-4.1,24.9-16.8,25.6-32.1c0.7-15-8.2-28.8-22.4-34.1
			c-3.6-1.3-4.6-3.2-4.5-6.7c0.2-10.5,0.1-21,0-31.5c0-1.8,0.5-3.5-1.8-4.8c-1.5-0.8-1.1-2.8,1-3.2C82,9.9,83,9.9,83.8,10
			c2.4,0.3,3.3-0.4,3.3-3c0-2.7-1-3.1-3.3-3c-6.8,0.1-13.5,0.2-20.3,0c-2.6-0.1-2.5,1.2-2.5,3c0,1.7-0.2,3.4,2.4,3.1
			c1.9-0.2,3.8,0,5.7,0c1.4,0,2.7,0.2,2.7,1.9c0,1.6-1.2,2.2-2.6,2c-2.9-0.5-3.2,1-3.2,3.4c0.1,11,0,22,0.1,33c0,3-0.9,4.6-3.9,5.6
			c-9.7,3.4-16.4,10-20.5,19.4c-0.2,0.3-0.3,0.7-0.4,1.1c-0.6,2-2.3,1.5-3.5,1.2c-1.9-0.5-0.6-1.8-0.2-2.7
			c4-10.4,11.1-17.9,21.5-22.1c2.1-0.8,2.9-1.8,2.8-4.2c-0.1-10.6-0.1-21.2,0-31.9c0-1.8,0.1-3.4-2.5-3c-0.8,0.1-1.8-0.1-2-0.8
			c-0.7-3.6-1-7.4,0.1-10.9c0.9-2.8,3.7-2.1,6-2.2C67.1,0,70.6,0,74,0z"/>
		<path d="M38.3,94.7C32.8,94.7,28,99.6,28.2,105c0.1,5.5,4.6,9.8,10.2,9.7c5.6,0,9.8-4.4,9.8-9.9C48.1,99.3,43.7,94.8,38.3,94.7z
			 M38.4,110.8c-3.3,0.1-6.1-2.7-6.1-5.9c0-3.3,2.8-6,6.2-5.9c3.2,0.1,5.7,2.8,5.7,5.9C44.2,108,41.5,110.7,38.4,110.8z"/>
		<path d="M57.7,97.7c-1-1-0.3-1.9-0.4-2.7c0.2-5.3-4.6-9.9-9.8-9.1c-1.3,0.2-1.7-0.2-2.5-1c-3.8-4.5-9.9-4.5-13.7,0.1
			c-0.8,1-1.4,1-2.5,0.8c-5.1-0.8-10.4,4.4-9.6,9.5c0.2,1.4-0.1,1.9-1.1,2.7c-4.4,3.5-4.3,9.9,0.1,13.6c0.6,0.5,1.4,0.8,1.3,2
			c-0.4,6.5,3.1,10.2,9.5,10.1c0.9,0,1.5,0,2.3,0.8c4.2,4.6,9.3,4.5,13.9-0.1c0.6-0.6,1.1-0.8,2-0.8c6.8-0.2,10-3.3,9.9-9.9
			c0-0.8,0.1-1.3,0.7-2C62.6,107,62.6,102.9,57.7,97.7z M55.3,108.4c-2.4,1.4-3.1,3.5-2.5,6.1c0.5,2.1-1.8,5.4-3.8,5.5
			c-3.7-1.5-6.1-0.4-7.9,3.1c-0.8,1.5-5.4,1-6.3-0.7c-1.5-2.8-3.5-3.6-6.5-2.8c-2.6,0.7-5.6-2.6-4.7-5.3c0.8-2.5-0.4-4.4-1.9-5.7
			c-3.2-2.8-3.4-5.1-0.1-7.7c1.7-1.3,2.7-3.2,2.1-5.6c-0.9-3.3,1.8-5.8,5.2-5.1c2.3,0.5,4.2-0.4,5.5-2.2c2.2-3.1,5.3-3.1,7.5,0
			c1.3,1.7,3.2,2.7,5.5,2.2c3.3-0.8,5.9,1.8,5.2,5.1c-0.5,2.5,0.3,4.4,2.5,5.8C58,103,58,106.8,55.3,108.4z"/>
		<path d="M56,84.9c0.8-0.9,1.7-0.6,2.4-0.1c6.5,4.9,13.8,4.5,21.2,3.1c6.7-1.2,13.3-2,20,0.4c2.6,0.9,3.6,2,3.1,5
			c-2.7,17.6-21.1,28.8-37.9,22.9c-1.1-0.4-3.4-0.2-2.9-2c0.5-1.8,2-2.6,4.4-1.8c13.8,4.5,27.9-3.2,31.8-17.1c0.7-2.6,0-3.2-2.3-3.9
			c-6.6-1.8-12.9,0.2-19.3,1.2c-4.1,0.6-8.1,0.1-12.2-0.4c-3.6-0.4-4.2-3.8-6.3-5.6C57.4,86.1,56.7,85.5,56,84.9L56,84.9z"/>
		<path d="M69.2,58.9c-4.4,0-8,3.6-8.1,8c-0.1,4.4,3.5,8,7.9,8c4.5,0,8.1-3.4,8.1-7.9C77.2,62.6,73.5,58.9,69.2,58.9z M69.4,70.8
			c-2.6,0.2-4.1-1.5-4.2-3.9c0-2.2,1.4-3.8,3.8-3.9c2.5-0.1,3.6,1.5,4.1,3.7C72.8,68.9,71.8,70.6,69.4,70.8z"/>
		<path d="M86.7,69.9c-3.8,0.2-6.6,3.1-6.6,7c0,4,3.2,7,7.1,6.9c3.9-0.1,6.9-3.3,6.8-7.2C93.9,72.7,90.7,69.8,86.7,69.9z M87,79.9
			c-1.7-0.3-2.9-1.2-2.8-3c0-1.8,1.1-2.9,2.8-3c2-0.1,3.1,1.2,3.1,3.1C89.9,78.7,88.7,79.7,87,79.9z"/>
		<path d="M56.1,84.9c-1.7-2.3-4.2-3.1-6.9-3.2c-1.2-0.1-2.6-0.3-2.5-1.6c0.2-1.7,0.7-3.6,2.4-4.5c1.5-0.7,2.2,0.4,2.9,1.6
			c1.1,1.8,2.4,3.5,3.7,5.3C56.3,83.2,57.2,83.9,56.1,84.9C56,84.9,56.1,84.9,56.1,84.9z"/>
		<path d="M38.3,94.7C32.8,94.7,28,99.6,28.2,105c0.1,5.5,4.6,9.8,10.2,9.7c5.6,0,9.8-4.4,9.8-9.9C48.1,99.3,43.7,94.8,38.3,94.7z
			 M38.4,110.8c-3.3,0.1-6.1-2.7-6.1-5.9c0-3.3,2.8-6,6.2-5.9c3.2,0.1,5.7,2.8,5.7,5.9C44.2,108,41.5,110.7,38.4,110.8z"/>
		<path d="M38.3,94.7C32.8,94.7,28,99.6,28.2,105c0.1,5.5,4.6,9.8,10.2,9.7c5.6,0,9.8-4.4,9.8-9.9C48.1,99.3,43.7,94.8,38.3,94.7z
			 M38.4,110.8c-3.3,0.1-6.1-2.7-6.1-5.9c0-3.3,2.8-6,6.2-5.9c3.2,0.1,5.7,2.8,5.7,5.9C44.2,108,41.5,110.7,38.4,110.8z"/>
	</g>
</g>
</svg>
