<?xml version="1.0" encoding="utf-8"?>
<!-- Generator: Adobe Illustrator 28.0.0, SVG Export Plug-In . SVG Version: 6.00 Build 0)  -->
<svg version="1.1" id="Layer_1" xmlns="http://www.w3.org/2000/svg" xmlns:xlink="http://www.w3.org/1999/xlink" x="0px" y="0px"
	 viewBox="0 0 128 128" style="enable-background:new 0 0 128 128;" xml:space="preserve">
<g id="JT73Oi.tif">
	<g>
		<path d="M124,6c0-3.3-2.6-5.9-5.9-5.9c-17.4,0-34.7,0-52.1,0C62.6,0.1,60,2.7,60,6c0,6.6,0,13.2,0,19.7c0,1.6,0.7,2.3,2.4,2.3
			c3.4,0,6.8,0.1,10.2,0c1.1,0,1.4,0.3,1.4,1.4c0,31.1,0,62.1-0.1,93.2c0,2.4,0.6,4.2,2.8,5.4h30.5c2.3-1.2,2.8-3,2.8-5.5
			c-0.1-31.1,0-62.1-0.1-93.2c0-1,0.2-1.3,1.3-1.3c3.5,0.1,6.9,0,10.4,0c1.7,0,2.4-0.7,2.4-2.3C124,19.1,124,12.6,124,6z M82,4.9
			C82,4.2,82.2,4,82.9,4c6.1,0,12.2,0,18.2,0c0.7,0,0.9,0.2,0.9,0.9c0,3,0,6.1,0,9.1c0,3,0,6.1,0,9.1c0,0.7-0.2,0.9-0.9,0.9
			c-6.1,0-12.2,0-18.2,0c-0.7,0-0.9-0.2-0.9-0.9C82,17.1,82,11,82,4.9z M78.8,28c8.8,0,17.6,0,26.5,0c0.6,0,0.7,0.2,0.8,0.8
			c0.2,3.7,0.2,3.6-3.4,4.5c-7.8,1.9-15.6,3.9-23.5,5.9c-1,0.3-1.2,0-1.1-0.9c0.1-1.5,0-3.1,0-4.6c0-1.6,0-3.2,0-4.7
			C78,28.3,78,28,78.8,28z M106,79.7c0,0.4,0,0.7-0.6,0.9c-8.9,2.2-17.9,4.5-26.8,6.7c-0.2,0-0.3,0-0.6,0c0-2.4,0-4.8,0-7.1
			c0-0.8,0.6-0.7,1-0.8c7.2-1.8,14.3-3.6,21.5-5.4c1.6-0.4,3.1-0.8,4.7-1.2c0.6-0.2,0.9-0.1,0.9,0.7C105.9,75.6,106,77.6,106,79.7z
			 M106,61.5c-0.1,1,0,2.1,0,3.1v1.5c0,2.4,0,2.4-2.3,2.9c-8.2,2-16.4,4-24.5,6.1c-1.1,0.3-1.3,0-1.2-1c0.1-1.9,0-3.8,0-5.7
			c0-0.5,0-0.8,0.7-1c8.8-2.2,17.6-4.4,26.4-6.6C105.7,60.7,106,60.7,106,61.5z M106,49.5c-0.1,1,0,2.1,0,3.1v1.6
			c0,2.2,0,2.3-2.1,2.8c-8.3,2.1-16.5,4.1-24.8,6.2c-0.9,0.2-1.1,0.1-1.1-0.9c0.1-2,0-4,0-6c0-0.5,0.1-0.7,0.7-0.9
			c8.8-2.2,17.6-4.4,26.4-6.6C105.7,48.7,106,48.7,106,49.5z M78,44.4c0-0.5,0-0.8,0.6-0.9c8.9-2.2,17.9-4.5,26.8-6.7
			c0.2,0,0.3,0,0.6,0c0,2.4,0,4.8,0,7.1c0,0.8-0.6,0.7-1,0.8c-6.8,1.7-13.6,3.4-20.4,5.1c-1.9,0.5-3.8,0.9-5.6,1.4
			c-0.7,0.2-1,0.1-0.9-0.7C78,48.5,78,46.4,78,44.4z M77.1,24.1c-4.1,0-8.2,0-12.2,0c-0.7,0-0.9-0.2-0.9-0.9c0-5.6,0-11.2,0-16.7
			c0-1.6,0.8-2.4,2.4-2.4c3.6,0,7.2,0,10.7,0C77.8,4,78,4.2,78,4.9c0,3,0,6.1,0,9.1c0,3,0,6.1,0,9.1C78,23.9,77.8,24.1,77.1,24.1z
			 M78,122.5c0.1-1,0-2.1,0-3.1c0-0.8,0.1-1.7,0-2.5c-0.2-1.1,0.4-1.4,1.3-1.6c8.5-2.1,17.1-4.2,25.6-6.4c1-0.3,1.2,0,1.1,0.9
			c-0.1,1.9,0,3.8,0,5.7c0,0.6-0.1,0.9-0.8,1.1c-8.8,2.2-17.6,4.4-26.3,6.6C78.1,123.4,77.9,123.2,78,122.5z M78,104.3
			c0-0.6,0.1-0.7,0.7-0.9c8.8-2.2,17.6-4.4,26.4-6.6c0.6-0.1,0.9-0.1,0.9,0.7c-0.1,1,0,2.1,0,3.1v1.6c0,2.2,0,2.3-2.1,2.8
			c-8.3,2.1-16.5,4.1-24.8,6.2c-0.9,0.2-1.1,0.1-1.1-0.9C78,108.3,78,106.3,78,104.3z M103.5,124c-3.4,0-6.7,0-10.1,0
			c-0.1,0-0.2,0-0.6-0.1c4.4-1.1,8.4-2.1,12.3-3.1c0.6-0.2,0.8,0,0.9,0.7C106,124,106.1,124,103.5,124z M105.8,92.3
			c-0.6,0.7-2,0.6-3,0.9c-7.9,2-15.7,3.9-23.6,5.9c-1.1,0.3-1.3,0-1.2-1c0.1-1.9,0-3.8,0-5.7c0-0.5,0-0.8,0.7-1
			c8.8-2.2,17.6-4.4,26.4-6.6c0.6-0.2,0.9-0.1,0.9,0.7c-0.1,1,0,2.1,0,3.1c0,0.2,0,0.3,0,0.5C105.9,90.2,106.4,91.6,105.8,92.3z
			 M119.1,24.1c-4.1,0-8.2,0-12.2,0c-0.7,0-0.9-0.2-0.9-0.9c0-3.1,0-6.2,0-9.2c0-3,0-6,0-9c0-0.7,0.1-0.9,0.9-0.9
			c3.6,0,7.2,0,10.7,0c1.6,0,2.4,0.8,2.4,2.4c0,5.6,0,11.2,0,16.7C120,23.9,119.8,24.1,119.1,24.1z"/>
		<path d="M28,8C21.4,8.1,16,13.4,16,20c0,6.7,5.3,12,12,12.1c6.7,0,12-5.3,12-12C40,13.4,34.7,8,28,8z M28.1,28
			c-4.3,0.1-8.1-3.6-8.1-8c0-4.4,3.7-8,8-8c4.3,0,7.9,3.7,7.9,8C36,24.3,32.4,28,28.1,28z"/>
		<path d="M51.5,18.5c-3.5-5.6-7-11.3-10.4-17c-0.6-1-1.4-1.5-2.6-1.5c-6.7,0-13.3,0.1-20,0c-1.9,0-3,0.6-4,2.2
			C11.1,8,7.5,13.6,4,19.3v1.5c0.1,0.1,0.2,0.2,0.3,0.4C7.9,27,11.4,32.8,15,38.6c0.6,1,1.4,1.5,2.6,1.5c7,0,13.9,0,20.9,0
			c1.2,0,2-0.4,2.6-1.5c3.4-5.7,6.9-11.3,10.4-17C52.1,20.5,52.1,19.6,51.5,18.5z M47.1,20.9c-3,4.8-5.9,9.6-8.8,14.4
			c-0.4,0.6-0.7,0.8-1.4,0.8c-3,0-6,0-9,0c-3,0-5.9,0-8.9,0c-0.7,0-1-0.2-1.4-0.8c-2.9-4.8-5.9-9.7-8.8-14.4
			c-0.4-0.6-0.3-1.1,0.1-1.7c2.9-4.8,5.9-9.5,8.8-14.3C18.1,4.2,18.5,4,19.2,4c5.9,0,11.8,0,17.7,0c0.7,0,1.1,0.2,1.5,0.8
			c2.9,4.8,5.8,9.6,8.8,14.3C47.5,19.8,47.5,20.2,47.1,20.9z"/>
		<path d="M28,52c-6.6,0-12,5.3-12,11.9C16,70.7,21.3,76,28,76c6.7,0,12-5.3,12-12S34.7,52,28,52z M28,72c-4.3,0-8-3.7-8-8
			c0-4.4,3.8-8,8.1-8c4.3,0.1,7.9,3.7,7.9,8C36,68.4,32.4,72,28,72z"/>
		<path d="M51.5,62.5c-3.5-5.6-7-11.3-10.4-17c-0.6-1-1.4-1.5-2.6-1.5c-6.7,0-13.3,0.1-20,0c-1.9,0-3,0.6-4,2.2
			C11.1,52,7.5,57.6,4,63.3v1.5c0.1,0.1,0.2,0.2,0.3,0.4c3.6,5.8,7.1,11.6,10.6,17.4c0.6,1,1.4,1.5,2.6,1.5c7,0,13.9,0,20.9,0
			c1.2,0,2-0.4,2.6-1.5c3.4-5.7,6.9-11.3,10.4-17C52.1,64.5,52.1,63.5,51.5,62.5z M47.1,64.8c-3,4.8-5.9,9.6-8.8,14.4
			C38,79.9,37.6,80,36.9,80c-3,0-6,0-9,0c-3,0-5.9,0-8.9,0c-0.7,0-1-0.2-1.4-0.8c-2.9-4.8-5.9-9.7-8.8-14.4
			c-0.4-0.6-0.3-1.1,0.1-1.7c2.9-4.8,5.9-9.5,8.8-14.3c0.4-0.6,0.8-0.8,1.5-0.8c5.9,0,11.8,0,17.7,0c0.7,0,1.1,0.2,1.5,0.8
			c2.9,4.8,5.8,9.6,8.8,14.3C47.5,63.8,47.5,64.2,47.1,64.8z"/>
		<path d="M28,96c-6.6,0-11.9,5.3-12,11.9c0,6.7,5.3,12,12,12c6.7,0,12-5.3,12-12C40,101.3,34.7,96,28,96z M28.1,116
			c-4.3,0-8-3.6-8-7.9c-0.1-4.3,3.6-8.1,7.9-8.1c4.3,0,8.1,3.6,8,8C36,112.3,32.4,116,28.1,116z"/>
		<path d="M51.5,106.5c-3.5-5.6-7-11.3-10.4-17c-0.6-1-1.4-1.5-2.6-1.5c-6.7,0-13.3,0.1-20,0c-1.9,0-3,0.6-4,2.2
			c-3.4,5.7-7,11.4-10.4,17.1v1.5c0.3,0.6,0.4,1.2,0.7,1.7c3.4,5.4,6.6,10.8,9.9,16.2c0.4,0.6,0.8,1.1,1.6,1.3h23.5
			c0.5-0.4,0.9-0.9,1.3-1.4c3.5-5.7,6.9-11.3,10.4-17C52.1,108.5,52.1,107.5,51.5,106.5z M47.2,108.8c-3,4.8-5.9,9.6-8.8,14.4
			c-0.3,0.6-0.7,0.8-1.4,0.8c-6,0-12,0-18,0c-0.6,0-1-0.2-1.3-0.7c-2.9-4.9-5.9-9.7-8.9-14.6c-0.3-0.5-0.3-0.9,0-1.5
			c3-4.8,6-9.7,8.9-14.6c0.4-0.6,0.8-0.7,1.4-0.7c3,0,5.9,0,8.9,0c3,0,5.9,0,8.9,0c0.7,0,1.1,0.1,1.5,0.8c2.9,4.8,5.9,9.6,8.8,14.4
			C47.5,107.8,47.5,108.2,47.2,108.8z"/>
		<path d="M28,8C21.4,8.1,16,13.4,16,20c0,6.7,5.3,12,12,12.1c6.7,0,12-5.3,12-12C40,13.4,34.7,8,28,8z M28.1,28
			c-4.3,0.1-8.1-3.6-8.1-8c0-4.4,3.7-8,8-8c4.3,0,7.9,3.7,7.9,8C36,24.3,32.4,28,28.1,28z"/>
		<path d="M28,52c-6.6,0-12,5.3-12,11.9C16,70.7,21.3,76,28,76c6.7,0,12-5.3,12-12S34.7,52,28,52z M28,72c-4.3,0-8-3.7-8-8
			c0-4.4,3.8-8,8.1-8c4.3,0.1,7.9,3.7,7.9,8C36,68.4,32.4,72,28,72z"/>
		<path d="M28,96c-6.6,0-11.9,5.3-12,11.9c0,6.7,5.3,12,12,12c6.7,0,12-5.3,12-12C40,101.3,34.7,96,28,96z M28.1,116
			c-4.3,0-8-3.6-8-7.9c-0.1-4.3,3.6-8.1,7.9-8.1c4.3,0,8.1,3.6,8,8C36,112.3,32.4,116,28.1,116z"/>
		<path d="M28,8C21.4,8.1,16,13.4,16,20c0,6.7,5.3,12,12,12.1c6.7,0,12-5.3,12-12C40,13.4,34.7,8,28,8z M28.1,28
			c-4.3,0.1-8.1-3.6-8.1-8c0-4.4,3.7-8,8-8c4.3,0,7.9,3.7,7.9,8C36,24.3,32.4,28,28.1,28z"/>
		<path d="M28,52c-6.6,0-12,5.3-12,11.9C16,70.7,21.3,76,28,76c6.7,0,12-5.3,12-12S34.7,52,28,52z M28,72c-4.3,0-8-3.7-8-8
			c0-4.4,3.8-8,8.1-8c4.3,0.1,7.9,3.7,7.9,8C36,68.4,32.4,72,28,72z"/>
		<path d="M28,96c-6.6,0-11.9,5.3-12,11.9c0,6.7,5.3,12,12,12c6.7,0,12-5.3,12-12C40,101.3,34.7,96,28,96z M28.1,116
			c-4.3,0-8-3.6-8-7.9c-0.1-4.3,3.6-8.1,7.9-8.1c4.3,0,8.1,3.6,8,8C36,112.3,32.4,116,28.1,116z"/>
	</g>
</g>
</svg>
