<?xml version="1.0" encoding="utf-8"?>
<!-- Generator: Adobe Illustrator 28.0.0, SVG Export Plug-In . SVG Version: 6.00 Build 0)  -->
<svg version="1.1" id="Layer_1" xmlns="http://www.w3.org/2000/svg" xmlns:xlink="http://www.w3.org/1999/xlink" x="0px" y="0px"
	 viewBox="0 0 128 128" style="enable-background:new 0 0 128 128;" xml:space="preserve">
<g id="be7at9_1_">
	<g>
		<path d="M23.3,67.5C23.3,67.5,23.3,67.5,23.3,67.5l0.1,4.1c0,0,0,0-0.1,0V67.5z"/>
		<path d="M23.3,58.1C23.3,58.1,23.3,58.1,23.3,58.1l0.1,4c0,0-0.1,0-0.1,0V58.1z"/>
		<path d="M41.1,100.1C41.1,100.2,41.1,100.2,41.1,100.1l-5.2,0.1c0,0,0,0,0-0.1H41.1z"/>
		<rect x="23.9" y="67" width="29.5" height="0.1"/>
		<path d="M23.5,58.1c0-0.1,0.1-0.2,0.2-0.3c0-0.1,0-0.1,0-0.2c0.2-0.3,0.6-0.2,0.9-0.2c9.1,0,18.3,0,27.4,0c0.3,0,0.6-0.1,0.9,0.2
			c0.2,0,0.4,0,0.5,0.2c0.1,0.1,0.2,0.1,0.2,0.2c0,1.6,0,3.2,0,4.8c0,0.1-0.1,0.1-0.2,0.2c-0.2,0.3-0.5,0.2-0.8,0.2
			c-9.5,0-19,0-28.5,0c-0.2,0-0.4,0-0.6-0.1c0,0,0,0,0-0.1c0,0,0,0,0-0.1C23.4,61.3,23.6,59.7,23.5,58.1z"/>
		<path d="M53.6,71.5c0,0.6-0.1,0.7-0.7,0.7c-3.6,0-7.2,0-10.8,0c-0.2,0-0.4,0-0.6,0c0,0.1,0,0.1,0,0.2c0.2,0.3,0.1,0.6,0.1,0.9
			c0,8.4,0,16.7,0,25c0,0.3,0.1,0.6-0.1,0.9c-0.1,0.2,0.1,0.5-0.2,0.7c-0.1,0-0.2,0-0.3,0c-1.7,0-3.3,0-5,0l-0.1,0l-0.1,0
			c-0.1,0-0.1,0-0.2,0c-0.3-0.2-0.2-0.5-0.2-0.8c0-8.6,0-17.1,0-25.7c0-0.3-0.2-0.7,0.1-1c0,0,0-0.1,0-0.1c-3.8,0-7.5,0-11.3,0
			c-0.7,0-0.8-0.2-0.8-0.8c0-1.1,0.1-2.3,0-3.4c0-0.7,0.2-0.8,0.8-0.8c8.3,0,16.6,0,25,0c1.2,0,2.4,0,3.6,0c0.5,0,0.7,0.1,0.6,0.6
			C53.5,69.1,53.5,70.3,53.6,71.5z"/>
		<path d="M53.7,67.5L53.7,67.5l0.1,4.7c0,0-0.1,0-0.1,0V67.5z"/>
		<path d="M53.7,58L53.7,58l0.1,4.6c0,0,0,0-0.1,0V58z"/>
		<path d="M127,100.9L127,100.9C127,100.9,127,100.9,127,100.9c0-6.8,0-13.6,0-20.3c0-17.1,0-34.2,0-51.2v0c0-0.8,0-1.5,0-2.3
			c0.2-0.8,0-1.6-0.3-2.4c-0.6-1.4-1.7-2.5-2.8-3.5c-0.5-0.4-1-0.9-1.7-1c-0.3,0-0.4-0.2-0.6-0.4c-0.3-0.5-0.9-0.7-1.5-0.8l0,0
			c-0.9-0.7-1.9-1.1-3-1.3c-0.2,0-0.5,0-0.6-0.2c-0.2-0.3-0.4-0.2-0.7-0.2h0c-0.1,0-0.1,0-0.2-0.1c-0.8-0.1-1.6-0.4-2.3-0.7
			c-0.3-0.4-0.7-0.1-1-0.3c0,0-0.1,0-0.1,0c-0.1-0.2-0.4,0-0.5-0.1c-0.8-0.1-1.5-0.3-2.3-0.5c-0.2-0.3-0.6-0.3-0.9-0.4
			c-0.8-0.2-1.7-0.3-2.5-0.2c-0.4,0-0.9,0-1.3-0.2c-0.3-0.1-0.6,0-0.8-0.1c0,0,0,0,0,0c-0.1,0-0.2,0-0.3,0c-0.3-0.2-0.6,0-0.9-0.1
			c-0.1,0-0.3,0-0.4,0c-0.3-0.1-0.6,0-0.9-0.1c0,0,0,0,0,0h0c-0.1,0-0.3,0-0.4,0c-0.4-0.2-0.8,0-1.2-0.1c0,0,0,0-0.1,0
			c-0.2,0-0.4,0-0.6,0c-0.4-0.2-0.8,0-1.3-0.1c-0.2,0.1-0.5,0-0.7,0c-0.6-0.2-1.2,0-1.7-0.1c0,0,0,0,0,0c0,0-0.1,0-0.1,0
			c-0.4,0-0.7,0-1.1,0c-0.5-0.1-1-0.1-1.5,0c-0.3,0-0.6,0-0.9,0c0,0,0,0,0,0c-1.8,0.1-3.6,0-5.3,0h0c-0.3,0-0.6,0-0.9,0
			c-0.5,0-0.9-0.1-1.3,0c-0.4,0.1-0.8,0.1-1.2,0c-0.8,0.2-1.6-0.1-2.5,0c-1.1,0-2.2,0.2-3.3,0.3c-4.7,0.5-9.3,1.3-13.7,2.7
			c-0.5,0.1-1,0.2-1.3,0.6c0,0-0.1,0.1-0.1,0c-1.4,0.3-2.7,0.7-3.9,1.6c0,0-0.1,0.1-0.1,0c-0.2,0-0.5,0.1-0.7,0.2
			c-1.2,0.5-2.1,1.2-3.1,2c-1.9,1.5-3.3,3.3-3.3,5.8c0,0.1,0,0.3,0,0.4c0,0,0,0,0,0c0,0,0,0,0,0.1c0.1,2.9,0,5.7,0,8.6
			c0,0.5-0.2,0.9-0.1,1.4c0.2,1,0.1,2,0.1,3c0,0.9,0,0.9-1,0.8c-0.3,0-0.5-0.1-0.8-0.2c-0.2-0.3-0.6-0.4-1-0.5
			C47,40.2,45.7,40,44.4,40c-0.1,0-0.2,0-0.3,0c-0.3-0.1-0.6,0-0.9-0.1c-0.1,0-0.3,0-0.4,0c-0.4-0.1-0.7,0-1.1-0.1
			c-0.3,0-0.6,0-0.9,0c-0.1,0-0.1,0-0.2-0.1c-0.1,0-0.2,0-0.4,0c-1.4-0.1-2.9,0-4.3-0.1c-0.9-0.1-2,0-2.9,0.5c-0.1,0-0.2,0-0.3,0
			c-0.1,0.1-0.2,0.1-0.4,0.1c-0.4,0-0.9-0.2-1.2,0.2c-0.1,0-0.2,0-0.3,0c-0.1,0-0.1,0.1-0.2,0.1h0c-0.1,0-0.2,0-0.3,0
			c-0.7,0-1.4,0.1-2,0.6c-0.4,0.1-0.8,0.2-1.3,0.4c-0.4,0-0.7,0-1,0.2c-1.5,0.5-2.9,1.2-4.3,1.8c-0.2,0.1-0.4,0.2-0.6,0.5
			c-0.3,0.2-0.6,0.4-1,0.5c-0.9,0.2-1.6,0.7-2.2,1.3c-0.1,0.1-0.2,0.2-0.4,0.3c-5.9,4-10.3,9.2-13.2,15.6c-1.3,2.8-2.1,5.7-2.8,8.6
			c-0.4,0.4,0,0.9-0.2,1.3c-0.3,0.3-0.3,0.8-0.4,1.2c-0.1,0.9-0.1,1.7,0,2.6c0,0.2,0,0.4,0,0.6c0,0,0,0,0,0c0,0.7,0,1.4,0,2.1v0
			c0,0.2,0,0.4,0,0.6C1.2,79,1,79.4,1,79.9c0.1,1.8,0.5,3.6,0.8,5.3c0.1,0.2,0.2,0.5,0.4,0.6c0,0.1,0,0.2,0,0.3c0,0,0,0.1,0,0.1v0
			c0.1,0.9,0.1,1.9,0.8,2.6c0,0,0.1,0.1,0,0.1c0.1,0.3,0,0.7,0.2,1c0.6,1.6,1.2,3.2,2.1,4.7c0.3,0.6,0.5,1.2,1.1,1.6
			c0.1,0,0.1,0.1,0.1,0.1c0.1,0.5,0.3,0.9,0.8,1.2c0.1,0,0.1,0.1,0.1,0.1c0.1,0.4,0.3,0.7,0.5,1c0.9,1.3,1.9,2.5,2.9,3.7
			c1.1,1.2,2.1,2.4,3.5,3.2c0.2,0.1,0.3,0.2,0.5,0.4c0.1,0.1,0.2,0.2,0.3,0.3c0.1,0.1,0.2,0.2,0.4,0.3c0.1,0.1,0.3,0.3,0.5,0.3
			c0.2,0.1,0.4,0.2,0.5,0.4c0.2,0.4,0.5,0.5,0.9,0.6c0.1,0,0.1,0,0.1,0.1c0.5,0.6,1.1,1.1,1.9,1.2c0.1,0.2,0.3,0.2,0.4,0.2
			c1.3,1.2,2.9,1.8,4.6,2.3l0.1,0l0,0c0.2,0.3,0.5,0.2,0.7,0.3l0.1,0l0,0c0.2,0.3,0.5,0.4,0.8,0.5c0.9,0.3,1.8,0.7,2.8,0.7
			c0.2,0.2,0.4,0.2,0.6,0.2c0.7,0.6,1.5,0.4,2.2,0.5c0.3,0.2,0.7,0.2,1.1,0.2c0.3,0.2,0.6,0,0.9,0.1c0.1,0,0.3,0,0.4,0
			c0.8,0.6,1.7,0.3,2.6,0.2c0.2,0,0.3,0,0.5,0c0,0,0,0,0,0c1-0.1,1.9,0,2.9,0h0c0.1,0,0.3,0,0.4,0c0.3,0,0.6,0.1,0.9,0
			c0.2,0,0.5,0,0.7,0c0.4-0.1,0.7-0.1,1.1,0c0.4,0.1,0.8,0,1.1-0.3c0.4-0.1,0.8-0.3,1.3-0.2c0.4-0.2,1,0.2,1.4-0.3
			c0.5-0.1,1-0.2,1.5-0.4c0.3-0.2,0.8,0.1,1-0.3c0.2-0.2,0.4-0.2,0.6-0.2c1.8-0.2,3.3-1.1,4.9-1.8c0.2-0.1,0.4-0.2,0.5-0.5l0.1,0
			h0.1c0.6,0,1.1-0.4,1.6-0.7c0.5-0.3,1-0.4,1.6-0.1c1,0.5,2,1,3.1,1.1l0.1,0l0,0c0.5,0.6,1.3,0.5,2,0.6c0.2,0.2,0.4,0.1,0.6,0.2
			c0.3,0.4,0.7,0.2,1.1,0.3c0.1,0,0.2,0,0.3,0c0.3,0.4,0.7,0.4,1.1,0.5c2,0.4,3.9,0.9,6,1c0.1,0,0.3,0,0.4,0
			c0.2,0.3,0.5,0.3,0.8,0.4c1.7,0.2,3.3,0.4,5,0.5c0.6,0,1.1,0.3,1.7,0.1c0.6-0.2,1.2-0.1,1.9,0c0.4-0.1,0.8,0,1.2,0
			c0.4,0.1,0.9,0.1,1.4,0c0.3,0,0.6,0,0.8,0h0c1.8,0,3.6-0.1,5.3,0h0c0.3,0,0.6,0,0.9,0c0.5,0,1,0.1,1.5,0c0.4,0,0.7,0,1.1,0
			c0,0,0.1,0,0.1,0c0,0,0,0,0,0c0.6-0.1,1.2,0.1,1.7-0.1c0.2,0,0.4,0,0.6,0c0,0,0.1,0,0.1,0c0,0,0,0,0,0c0.4-0.1,0.9,0.1,1.3-0.1
			c0.2,0,0.4,0,0.6,0c0,0,0,0,0.1,0c0.4-0.1,0.8,0,1.2-0.1c0.1,0,0.2,0,0.3,0c0,0,0.1,0,0.1,0c0,0,0,0,0,0c0.3-0.1,0.6,0,1-0.1
			c0.1,0,0.3,0,0.4,0c0.3-0.1,0.6,0,0.9-0.1c0.1,0,0.2,0,0.3,0c0,0,0,0,0,0c0.3-0.1,0.6,0,0.8-0.1c0.4-0.1,0.8-0.3,1.3-0.2
			c0.8,0,1.7,0,2.5-0.3c1-0.3,2.1-0.2,3-0.9c0.3,0,0.5-0.3,0.8-0.2c0.9-0.1,1.9-0.1,2.7-0.8c0.2-0.1,0.4-0.1,0.6-0.2
			c1.7-0.3,3.4-0.9,4.8-2c0.2-0.1,0.3-0.4,0.6-0.4c0.2-0.1,0.4,0,0.5-0.3c0.2-0.1,0.3-0.4,0.6-0.4c0.3-0.1,0.6-0.2,0.9-0.4
			c1.2-0.8,2.1-1.8,2.9-3C126.8,103.5,127.4,102.3,127,100.9z M120.6,50c-2.5,1.9-5.3,2.9-8.2,3.7C107,55.3,101.6,56,96,56.4
			c-6.4,0.4-12.8,0.3-19.2-0.5c-2.7-0.3-5.3-0.8-7.9-1.3c-0.3-0.1-0.6-0.2-0.8-0.4c-1.7-2.2-3.5-4.1-5.6-5.8
			c-0.1-0.1-0.1-0.2-0.3-0.4c1.8,0.5,3.5,1,5.1,1.4c8.6,2,17.3,2.5,26,2.2c6.4-0.2,12.7-1,18.9-2.6c3.3-0.9,6.5-2,9.5-3.7
			c0.1-0.1,0.2-0.1,0.4-0.2c0,0.7-0.1,1.2,0,1.7C122.4,48.2,121.7,49.2,120.6,50z M122.2,37.2c0,0.8-0.6,1.3-1.2,1.8
			c-1.3,1.1-2.8,1.9-4.3,2.6c-4.5,1.9-9.1,2.8-13.9,3.5c-3.8,0.5-7.7,0.9-11.5,0.8c-0.2-0.2-0.4-0.2-0.6-0.2c-1.3,0.1-2.7-0.2-4,0.1
			c-3.4,0-6.7-0.3-10.1-0.7c-4.9-0.6-9.7-1.5-14.3-3.3c-1.6-0.6-3.2-1.4-4.6-2.4C57,39,56.3,38.4,56,37.5l0,0l0,0
			c0.2-0.3,0.1-0.6,0.1-1c0.1-0.6-0.1-1.3,0.2-1.8c6.4,3.5,13.4,4.8,20.6,5.6c7.7,0.9,15.4,0.9,23.1,0.1c6.4-0.6,12.7-1.8,18.7-4.3
			c1.2-0.5,2.3-1.1,3.5-1.7C122.2,35.4,122.2,36.3,122.2,37.2z M59.3,23.9c3.6-1.9,7.4-3,11.3-3.7c9.3-1.8,18.7-2.1,28.1-1.2
			c5.6,0.5,11.1,1.4,16.5,3.3c1.9,0.7,3.7,1.5,5.3,2.8c2.1,1.7,2.1,2.9,0,4.5c-2.5,1.9-5.5,3-8.6,3.8c-6.8,1.9-13.7,2.6-20.7,2.7
			c-0.8,0-1.5,0-2.3,0c-7.9,0-15.8-0.7-23.5-2.9c-2.4-0.7-4.8-1.6-7-2.9c-0.8-0.5-1.6-1.1-2.1-1.8c-0.6-0.8-0.6-1.5,0-2.3
			C57.2,25.1,58.3,24.4,59.3,23.9z M38.5,109.5C20.7,109.5,6.1,94.9,6,77.1c0-17.9,14.6-32.6,32.5-32.6C56.4,44.5,71,59.1,71,76.9
			C71,94.9,56.5,109.5,38.5,109.5z M105,71.6c5.2-0.8,10.3-2,15.1-4.3c0.7-0.3,1.3-0.7,2.1-1.1c-0.1,1.1,0.1,2.1-0.2,3.1V67
			c0,0.2-0.1,0.4-0.1,0.6c0-0.1,0-0.2,0-0.2c0,0.1,0,0.2,0,0.3c-0.1,0.6-0.2,1.2,0.1,1.8c-0.5,1.2-1.5,1.8-2.5,2.5
			c-2.2,1.4-4.7,2.3-7.2,3c-7.8,2.2-15.7,2.8-23.7,2.8c-4,0-7.9-0.3-11.9-0.7c-0.6-0.1-0.8-0.2-0.8-0.9c0-1.2-0.1-2.4-0.2-3.6
			c0-0.5,0-0.6,0.5-0.6C85.8,73.1,95.4,73,105,71.6z M76,82.5c3.2,0.5,6.5,0.6,9.7,0.8h-2.2c0,0.1,0,0.1,0,0.2h10.7
			c0.2,0,0.4,0,0.6,0c0,0,0,0,0,0H95c0-0.1,0-0.1,0-0.2h-2.5c2.2-0.2,4.5-0.3,6.7-0.5c6.8-0.6,13.4-1.8,19.7-4.5
			c0.9-0.4,1.8-0.9,2.7-1.3c0.2,0.3,0.1,0.7,0.2,1.1c0.1,0.6-0.2,1.3,0.1,1.9c-0.4,1-1.2,1.6-2,2.1c-2.5,1.7-5.4,2.7-8.3,3.5
			c-5.3,1.5-10.8,2.2-16.3,2.5c-6.2,0.4-12.4,0.2-18.6-0.5c-0.7-0.1-1.3-0.2-2-0.3c-0.4,0-0.4-0.2-0.3-0.5c0.4-1.2,0.6-2.5,0.8-3.8
			C75.5,82.8,75.5,82.5,76,82.5z M94.2,93.8c7.7-0.4,15.4-1.3,22.7-4c1.7-0.6,3.2-1.4,4.8-2.2c0.3,0.5,0.1,1,0.2,1.5
			c0,0.4-0.2,0.9,0.2,1.3c-0.2,0.8-0.8,1.3-1.4,1.8c-2,1.6-4.4,2.5-6.8,3.3c-4.7,1.5-9.6,2.3-14.5,2.8c-6.3,0.6-12.6,0.7-18.8,0.2
			c-3.4-0.3-6.7-0.7-10.1-1.4c-0.1,0-0.2-0.1-0.4-0.1c0.8-1.4,1.6-2.7,2.2-4.1c0.1-0.3,0.4-0.2,0.6-0.2C80,93.8,87.1,94.1,94.2,93.8
			z M120.1,103.2c-1.9,1.4-4.1,2.2-6.3,2.9c-4.7,1.5-9.5,2.3-14.4,2.8c-6.2,0.6-12.5,0.7-18.8,0.2c-5.7-0.5-11.3-1.3-16.8-3.1
			c-0.4-0.1-0.7-0.3-1.2-0.4c1.3-1.1,2.5-2.3,3.6-3.5c0.2-0.2,0.4-0.1,0.6,0c6.3,1.5,12.8,2.2,19.3,2.4c0.2,0,0.4,0,0.6,0.1h-2.9
			c0,0.1,0,0.1,0,0.2h1.5c2.8,0,5.6,0,8.4,0c0.2,0,0.6,0,0.5,0.1c-0.4,0.7,0.3,0.5,0.4,0.5c0.6,0.1,1.1,0,1.7,0
			c-0.3-0.2-0.6-0.2-0.9-0.2c-0.3,0-0.6,0-0.6-0.3c0-0.4,0.4-0.3,0.6-0.3c0.6,0,1.2,0,1.8,0c0-0.1,0-0.1,0-0.2h-1.5
			c2.2-0.2,4.3-0.4,6.5-0.6c6.3-0.8,12.5-2,18.2-4.8c0.4-0.2,0.9-0.4,1.3-0.7c0.3,0.5,0.1,1,0.2,1.5c0,0.4-0.2,0.9,0.2,1.3
			C121.8,102.1,120.9,102.7,120.1,103.2z M119.3,61.5c-3.2,1.8-6.6,2.8-10.2,3.6c-8.4,1.9-16.9,2.3-25.4,1.9
			c-2.8-0.1-5.5-0.4-8.2-0.7c-0.8-0.1-1.3-0.3-1.5-1.2c-0.4-1.4-1-2.8-1.7-4.3c6.3,1,12.5,1.4,18.7,1.3c8.2-0.2,16.3-1,24.1-3.5
			c2.2-0.7,4.4-1.6,6.4-2.8c0.6-0.4,0.6-0.1,0.7,0.4C122.7,58.9,121.3,60.3,119.3,61.5z"/>
		<path d="M58,19c-1.3,0.7-2.6,1.4-3.7,2.4c-2.1,1.8-3.3,3.9-3.3,6.8c0.1,4.2,0,8.3,0,12.5c0,1.1,0,1.1-1.1,0.7
			c0.7-0.1,1-0.4,0.9-1.1c-0.1-0.7,0-1.3,0-2c0-0.1,0-0.1-0.2-0.2c0,0.5,0,0.9,0,1.4c0,0.5,0,1,0,1.4c-0.3-2.1-0.2-4.3-0.2-6.4
			c0-2.2,0-4.5,0.2-6.7c0,3,0,5.9,0,8.9c0.1,0,0.1,0,0.2,0c0-1.8,0-3.6,0-5.4c0-1.1,0.1-2.3,0-3.4c0-0.4,0.5-1.1-0.4-1.2
			c0.2-0.5,0.1-1.1,0-1.6c0,0,0.3,0.3,0.4-0.1c0.1-0.3-0.2-0.4-0.2-0.6c0.1-0.3,0-0.8,0.6-0.5c0.4,0.2,0.4-0.2,0.4-0.5
			c0-0.6-0.2-1.3,0.9-1.2c0.5,0.1,0.4-0.5,0.6-0.7c0.4-0.7,1.3-0.6,1.7-1.2c0.5-0.1-0.2-0.7,0.4-0.8C56.2,19.6,56.9,18.5,58,19z"/>
		<path d="M1.5,71.4c-0.1,1.3-0.4,2.5-0.3,3.8c0.1,1.1,0.1,2.2,0,3.3c0,2.5,0.5,4.9,0.9,7.3c-0.5,0.3-0.6,0-0.6-0.4
			c0-1-0.4-1.9-0.6-2.8c-0.2-0.8,0-1.6-0.3-2.4c-0.1-0.1-0.1,0.4-0.3,0.2c-0.2-0.2-0.2-1.2,0.1-1.4c0.5-0.4,0.3-0.8,0.1-1.3
			c-0.2-0.5-0.6-0.9-0.1-1.4c0.2-0.2-0.1-0.7-0.1-1.1c0.4,0.1,0.5,0.4,0.5,0.8c0,1,0,2,0.1,2.9c0-1.5,0-2.9,0-4.6
			c-0.1,0.4-0.1,0.6-0.2,0.7c-0.1-1.5-0.2-3,0.5-4.5C1.5,70.8,1.2,71.2,1.5,71.4z"/>
		<path d="M3,88.9c0.9,2.5,2,5,3.4,7.3c-0.1,0.3-0.6-0.4-0.6,0.2c0,0.1-0.4,0-0.3-0.1c0.1-0.7-0.3-1.2-0.8-1.6
			c-0.1-0.1,0.2-0.4-0.2-0.6c-0.2,0.2-0.2,0.7-0.6,0.7c-0.3-0.5,0.4-0.9,0.2-1.5c-0.2-0.6-0.3-1.3-0.7-1.7C2.6,90.8,2.9,89.9,3,88.9
			z"/>
		<path d="M27.1,41.3c-2,0.7-3.9,1.6-5.9,2.4c-0.1-0.6,0-1.1,0.8-1.1c0.7,0,1.2-0.5,1.9-0.5c0.1,0,0.7-0.3,0-0.4
			c-0.2,0-0.1-0.2,0-0.3c0.1-0.1,0.3-0.4,0.5-0.2c0.8,0.8,1.5,0.2,2.2-0.2C27,40.7,27,41,27.1,41.3z"/>
		<path d="M49.2,41.1c-1.6-0.4-3.2-0.7-4.9-1.1c0.3,0,0.7,0.1,0.9-0.2c0.1-0.2,0.4-0.1,0.5-0.1c0.4,0.1,0.6,0.3,1.1,0
			c0.3-0.2,0.9,0.3,1.3-0.2c0,0,0.1,0,0.2,0.1c-0.1,0.1-0.2,0.2-0.3,0.4c1.2-0.7,1.4,0.5,2,1C49.8,41.1,49.5,40.8,49.2,41.1z"/>
		<path d="M40.8,39.6c-2.6-0.1-5.2,0-7.8,0.3c-0.1-0.2-0.4-0.1-0.5-0.2c0.3-0.3,0.7-0.3,1.1-0.3c0.6,0.1,1.2,0.1,1.6-0.5
			c0.2-0.3,0.4-0.2,0.6,0c0.5,0.6,1.2,0.6,1.9,0.6C38.7,39.5,39.8,39.3,40.8,39.6z"/>
		<path d="M62,17.3c-1.3,0.5-2.6,1.1-3.9,1.6c0-0.7,0.5-1,1.1-1.1c0.3-0.1,0.6,0,0.8-0.2C60.7,17,61.3,17,62,17.3z"/>
		<path d="M30.9,40.3c-0.8,0.2-1.7,0.4-2.5,0.6c-0.1-0.2-0.4-0.1-0.5-0.2c0.8-1.2,1.3-1.3,2.5-0.6C30.5,40.3,30.7,40.3,30.9,40.3z"
			/>
		<path d="M2.2,86.1C2.5,87,2.8,87.9,3,88.8c-0.2,0-0.3,0.5-0.4,0.2c-0.3-0.6-0.6-1.3-0.8-2C1.6,86.5,2.3,86.5,2.2,86.1z"/>
		<path d="M20.3,44.3c-0.7,0.4-1.5,0.9-2.2,1.3c0.2-0.4,0.4-0.9,0.7-1.3C19.1,43.9,19.9,43.9,20.3,44.3z"/>
		<path d="M41.5,39.4c0.6,0.2,1.6-1.2,2.6,0.2C43.1,39.8,42.1,39.3,41.5,39.4z"/>
		<path d="M36.6,39.1c1.3,0.3,2.6-0.5,3.9,0C39.2,39.3,37.9,39.4,36.6,39.1z"/>
		<path d="M36.5,38.6c0.9-0.4,1.8-0.5,2.7-0.2C38.2,38.6,37.3,38.4,36.5,38.6z"/>
		<path d="M32.7,40c-0.5,0.1-1,0.2-1.5,0.3c-0.2-0.1-0.3-0.1-0.5-0.2C31.3,39.6,32,39.8,32.7,40z"/>
		<path d="M6.5,96.4c0.3,0.4,0.5,0.8,0.8,1.2c-0.2,0.1-0.6,0.2-0.6,0.1C6.6,97.2,6,96.9,6.5,96.4z"/>
		<path d="M97.7,13.6c0.4-0.3,0.8-0.7,1,0.1C98.4,13.6,98,13.6,97.7,13.6z"/>
		<path d="M116.4,17.4c-0.3-0.1-0.6-0.2-0.8-0.3c0.3,0.1,0.1-0.6,0.5-0.3C116.3,17,116.6,17,116.4,17.4z"/>
		<path d="M99,114.5c-0.1,0-0.2,0-0.2,0c-0.3-0.1-0.4,0.5-0.7,0.2c-0.1-0.1-0.1-0.1,0-0.2C98.4,114.2,98.7,114.2,99,114.5
			C99,114.4,99,114.4,99,114.5z"/>
		<path d="M95.2,114.3c0.6-0.2,1.3-0.1,1.9-0.1C96.4,114.5,95.8,114.2,95.2,114.3z"/>
		<path d="M97.1,13.8c-0.6,0-1.3,0-1.9-0.1C95.8,13.7,96.4,13.5,97.1,13.8z"/>
		<path d="M14.8,105.9c0.1,0.1,0.3,0.1,0.3,0.3c-0.2,0.1-0.2,0.5-0.4,0.4C14.4,106.4,14.5,106.1,14.8,105.9z"/>
		<path d="M116.7,16.9c0.4,0.3,0.7,0.1,1,0.2C117.5,17.1,117.2,17.7,116.7,16.9z"/>
		<path d="M100.5,13.3c-0.4,0-0.8,0-1.2,0C99.8,12.9,100.2,13.1,100.5,13.3z"/>
		<path d="M97.5,114.8c0,0.1-0.1,0.2-0.2,0.2c-0.1,0-0.3-0.1-0.3-0.2c0-0.2,0.1-0.2,0.2-0.2C97.4,114.5,97.4,114.6,97.5,114.8z"/>
		<path d="M127.9,25.8c-0.2-0.4-0.3-0.6,0-0.8C128.1,25.2,128,25.4,127.9,25.8z"/>
		<path d="M62.1,16.1c0.3,0.1,0.5,0.1,0.9,0.2C62.6,16.5,62.4,16.5,62.1,16.1z"/>
		<path d="M42.3,114.6c-0.3,0.2-0.5,0.2-0.8,0C41.9,114.5,41.9,114.5,42.3,114.6z"/>
		<path d="M78.6,13.1c-0.2,0.3-0.5,0.3-0.7,0.1C78.1,13.2,78.3,13.1,78.6,13.1z"/>
		<path d="M103.4,14.4c0.3-0.4,0.5-0.5,0.8-0.2C104,14.4,103.7,14.2,103.4,14.4z"/>
		<path d="M0.1,73.9c0-0.3-0.1-0.7-0.1-1.2C0.3,73.2,0.2,73.6,0.1,73.9z"/>
		<path d="M103.5,113.6c0.2,0,0.5-0.1,0.8,0.1C103.9,114.1,103.7,114,103.5,113.6z"/>
		<path d="M0.2,73.9c0.3,0.4,0.1,0.9,0.2,1.3C0.1,74.8,0.3,74.4,0.2,73.9z"/>
		<path d="M97.6,114.1c0.5-0.2,0.9-0.2,1.4-0.1C98.6,114.3,98.1,114.1,97.6,114.1z"/>
		<path d="M110.7,15.3c-0.1,0.1-0.2,0.1-0.3,0.1c-0.1,0-0.2-0.1-0.2-0.2c0,0,0.1-0.1,0.2-0.1C110.6,15.2,110.7,15.2,110.7,15.3z"/>
		<path d="M114.5,16.1c0.2-0.1,0.4-0.3,0.7-0.1C115,16.2,114.8,16.1,114.5,16.1z"/>
		<path d="M37,38.7c0.3,0,0.6,0,0.9,0C37.6,38.8,37.3,38.9,37,38.7z"/>
		<path d="M96.8,13.5c0.2-0.3,0.4-0.3,0.6-0.3C97.3,13.4,97.1,13.5,96.8,13.5z"/>
		<path d="M99.6,114c0.4-0.2,0.8-0.2,1.2-0.1C100.5,114.1,100,113.9,99.6,114z"/>
		<path d="M100.9,14.1c-0.4,0-0.8,0-1.2-0.1C100,14,100.5,13.8,100.9,14.1z"/>
		<path d="M99,14c-0.4,0-0.9,0.1-1.3-0.1C98.2,13.9,98.6,13.7,99,14z"/>
		<path d="M62.8,111.5c0,0.1,0.2,0.3-0.1,0.3c-0.1,0-0.3,0-0.3-0.2C62.5,111.4,62.7,111.5,62.8,111.5L62.8,111.5z"/>
		<path d="M112.1,16.1c-0.2,0-0.4,0-0.5-0.1c0.1,0,0.3-0.1,0.4-0.1c0.1,0,0.2-0.1,0.3,0C112.3,16,112.2,16.1,112.1,16.1z"/>
		<path d="M101.1,113.8c0.3-0.1,0.7-0.2,1-0.1C101.9,113.9,101.5,113.8,101.1,113.8z"/>
		<path d="M54.9,20.5c-0.2,0-0.5,0-0.4-0.3c0.1-0.2,0.2-0.1,0.3,0C54.8,20.3,54.8,20.4,54.9,20.5z"/>
		<path d="M68.3,14.3c0.1,0.1,0.1,0.1,0.2,0.2c-0.1,0-0.1,0.1-0.2,0.1c-0.1,0-0.1-0.1-0.2-0.1C68.2,14.4,68.3,14.4,68.3,14.3z"/>
		<path d="M15.4,106.5c0.2,0,0.4,0.1,0.5,0.3C15.5,107,15.5,106.8,15.4,106.5z"/>
		<path d="M42.8,39.8c-0.4,0-0.7,0-1.1-0.1c0.4,0,0.7,0,1.1,0C42.8,39.7,42.8,39.7,42.8,39.8z"/>
		<path d="M102.2,14.3c-0.3,0-0.6,0-0.9-0.1C101.6,14.2,101.9,14,102.2,14.3z"/>
		<path d="M104.7,14.6c-0.3,0-0.6,0-0.9-0.1C104.1,14.5,104.4,14.4,104.7,14.6z"/>
		<path d="M50.6,113.2c0.1-0.1,0.3-0.1,0.4-0.2c0,0,0.1,0.1,0.1,0.1C51,113.3,50.8,113.4,50.6,113.2z"/>
		<path d="M127.9,102.7c0,0.1,0.1,0.1,0.1,0.2c0,0.1-0.1,0.1-0.2,0.1c0,0-0.1-0.1-0.1-0.1C127.7,102.7,127.7,102.7,127.9,102.7z"/>
		<path d="M103.8,113.5c0.3-0.2,0.6-0.2,0.9-0.1C104.4,113.6,104.1,113.4,103.8,113.5z"/>
		<path d="M102.6,113.6c0.3-0.2,0.6-0.2,0.9-0.1c0,0.1,0,0.1,0,0.2C103.2,113.6,102.9,113.6,102.6,113.6z"/>
		<path d="M18,109.5c-0.1,0-0.2,0.1-0.3,0.1c-0.1,0-0.1-0.1-0.1-0.1c0.1-0.1,0.2-0.1,0.3-0.1C17.9,109.4,17.9,109.4,18,109.5z"/>
		<path d="M76.6,13.5c0.3-0.2,0.5-0.2,0.8-0.1C77.1,13.6,76.9,13.5,76.6,13.5z"/>
		<path d="M115.2,16.6c-0.2,0-0.3,0.1-0.4,0.1c-0.1,0-0.2,0-0.1-0.1c0-0.1,0.1-0.1,0.2-0.1C115,16.4,115.1,16.5,115.2,16.6z"/>
		<path d="M44.1,40c-0.3,0-0.6,0-0.9-0.1C43.5,39.8,43.8,39.7,44.1,40z"/>
		<path d="M103.5,14.5c-0.3,0-0.6,0-0.9-0.1c0.3,0,0.6,0,0.9,0C103.5,14.4,103.5,14.4,103.5,14.5z"/>
		<path d="M23.3,67.5C23.3,67.5,23.3,67.5,23.3,67.5l0.1,4.1c0,0,0,0-0.1,0V67.5z"/>
		<path d="M23.3,58.1C23.3,58.1,23.3,58.1,23.3,58.1l0.1,4c0,0-0.1,0-0.1,0V58.1z"/>
		<path d="M41.1,100.1C41.1,100.2,41.1,100.2,41.1,100.1l-5.2,0.1c0,0,0,0,0-0.1H41.1z"/>
		<rect x="23.9" y="67" width="29.5" height="0.1"/>
		<path d="M23.5,58.1c0-0.1,0.1-0.2,0.2-0.3c0-0.1,0-0.1,0-0.2c0.2-0.3,0.6-0.2,0.9-0.2c9.1,0,18.3,0,27.4,0c0.3,0,0.6-0.1,0.9,0.2
			c0.2,0,0.4,0,0.5,0.2c0.1,0.1,0.2,0.1,0.2,0.2c0,1.6,0,3.2,0,4.8c0,0.1-0.1,0.1-0.2,0.2c-0.2,0.3-0.5,0.2-0.8,0.2
			c-9.5,0-19,0-28.5,0c-0.2,0-0.4,0-0.6-0.1c0,0,0,0,0-0.1c0,0,0,0,0-0.1C23.4,61.3,23.6,59.7,23.5,58.1z"/>
		<path d="M53.6,71.5c0,0.6-0.1,0.7-0.7,0.7c-3.6,0-7.2,0-10.8,0c-0.2,0-0.4,0-0.6,0c0,0.1,0,0.1,0,0.2c0.2,0.3,0.1,0.6,0.1,0.9
			c0,8.4,0,16.7,0,25c0,0.3,0.1,0.6-0.1,0.9c-0.1,0.2,0.1,0.5-0.2,0.7c-0.1,0-0.2,0-0.3,0c-1.7,0-3.3,0-5,0l-0.1,0l-0.1,0
			c-0.1,0-0.1,0-0.2,0c-0.3-0.2-0.2-0.5-0.2-0.8c0-8.6,0-17.1,0-25.7c0-0.3-0.2-0.7,0.1-1c0,0,0-0.1,0-0.1c-3.8,0-7.5,0-11.3,0
			c-0.7,0-0.8-0.2-0.8-0.8c0-1.1,0.1-2.3,0-3.4c0-0.7,0.2-0.8,0.8-0.8c8.3,0,16.6,0,25,0c1.2,0,2.4,0,3.6,0c0.5,0,0.7,0.1,0.6,0.6
			C53.5,69.1,53.5,70.3,53.6,71.5z"/>
		<path d="M53.7,67.5L53.7,67.5l0.1,4.7c0,0-0.1,0-0.1,0V67.5z"/>
		<path d="M53.8,58v4.6c0,0,0,0-0.1,0L53.8,58L53.8,58z"/>
		<path d="M56.3,34.7c-0.3,0.6-0.1,1.2-0.2,1.8c0,0.3,0.1,0.7-0.1,1l0,0l0,0c0,0,0-0.1,0-0.1c0-0.6,0-1.2,0-1.9c0-0.2,0-0.4,0.1-0.6
			c0,0,0,0,0.1-0.1C56.2,34.8,56.2,34.7,56.3,34.7z"/>
		<path d="M91.3,45.9c-1.5-0.1-3.1-0.1-4.6,0c1.3-0.3,2.7-0.1,4-0.1C90.9,45.8,91.1,45.7,91.3,45.9z"/>
		<path d="M95.9,104.4c-0.1,0-0.2,0-0.3,0c-0.3,0.1-1-0.3-1,0.4c0,0.6,0.6,0.4,1,0.4c-0.4,0-0.9,0.1-1-0.2c-0.2-0.4-0.5-0.5-0.7-0.5
			c-0.2,0-0.4,0-0.6,0c-0.1,0-0.2,0-0.3,0c-2.3,0.1-4.7,0.1-7,0.1c0.2,0,0.5,0,0.7-0.1h-2.9c0,0.1,0,0.1,0,0.2h1.5
			c2.8,0,5.6,0,8.4,0c0.2,0,0.6,0,0.5,0.1c-0.4,0.7,0.3,0.5,0.4,0.5c0.6,0.1,1.1,0,1.7,0c-0.3-0.2-0.6-0.2-0.9-0.2
			c-0.3,0-0.6,0-0.6-0.3c0-0.4,0.4-0.3,0.6-0.3c0.6,0,1.2,0,1.8,0c0-0.1,0-0.1,0-0.2h-1.5C95.7,104.4,95.8,104.4,95.9,104.4z
			 M84.1,104.6c0.4,0,0.7,0,1.1,0C84.8,104.6,84.5,104.6,84.1,104.6z M96.7,104.5c-0.1,0-0.2,0-0.3,0
			C96.5,104.4,96.6,104.4,96.7,104.5z"/>
		<path d="M121.9,99.7c-0.1-0.5,0.1-1-0.2-1.5c0.4,0.1,0.3,0.4,0.3,0.7c0,0.7,0,1.4,0,2.1C121.7,100.7,121.9,100.2,121.9,99.7z"/>
		<path d="M121.9,89.1c-0.1-0.5,0.1-1-0.2-1.5c0.4,0.1,0.3,0.5,0.3,0.8c0,0.7,0,1.4,0,2.1C121.7,90.1,121.9,89.6,121.9,89.1z"/>
		<path d="M85.2,83.4c0.2,0,0.3,0,0.5-0.1h-2.2c0,0.1,0,0.1,0,0.2h10.7C91.2,83.4,88.1,83.5,85.2,83.4z M84.3,83.4
			c0.2,0,0.4,0,0.6,0C84.7,83.4,84.5,83.4,84.3,83.4z"/>
		<path d="M92.5,83.3H95c0,0.1,0,0.1,0,0.2h-0.2c0,0,0,0,0,0C94.1,83.3,93.3,83.6,92.5,83.3z"/>
		<path d="M122,80c-0.3-0.6-0.1-1.2-0.1-1.9c0-0.4,0-0.8-0.2-1.1c0.4,0.1,0.3,0.5,0.3,0.8C122.1,78.6,122.1,79.3,122,80z"/>
		<path d="M122.1,69.3c-0.1-0.2-0.1-0.5-0.1-0.7c0,0.3,0,0.6,0.1,0.9c-0.2-0.6-0.2-1.2-0.1-1.8c0-0.1,0-0.2,0-0.3c0,0.1,0,0.2,0,0.2
			c0-0.2,0.1-0.4,0.1-0.6V69.3z"/>
		<path d="M127,26.7c0,3.2,0.1,6.3,0.1,9.5c0,8,0,16,0,24.1c0,13.2,0,26.5,0,39.7c0,0.4,0,0.8-0.1,1.2c-0.2-0.3-0.1-0.6-0.1-0.9
			c0-24.2,0-48.5,0-72.7C126.9,27.3,126.8,27,127,26.7z"/>
		<path d="M94.8,104.8c0,0.4,0.4,0.3,0.6,0.3c0.3,0,0.6,0,0.9,0.2c-0.6,0-1.1,0-1.7,0c-0.1,0-0.8,0.2-0.4-0.5
			c0.1-0.2-0.3-0.1-0.5-0.1c-2.8,0-5.6,0-8.4,0h-1.5c0-0.1,0-0.1,0-0.2h2.9c1.6,0,3.2,0,4.8,0c0,0,0,0,0,0c0,0,0.1,0,0.1,0
			c1-0.2,2,0.1,2.9-0.1c0.4,0,0.7,0,1.1,0h1.5c0,0.1,0,0.1,0,0.2c-0.6,0-1.2,0-1.8,0C95.2,104.5,94.8,104.4,94.8,104.8z"/>
		<path d="M95,83.3c0,0.1,0,0.1,0,0.2H83.5c0-0.1,0-0.1,0-0.2h2.2c2.3,0,4.6,0,6.8,0H95z"/>
		<path d="M92.6,114.3c-2.4,0.1-4.7,0.1-7.1,0c0.1-0.2,0.3-0.1,0.5-0.1c2,0,4,0,6,0C92.2,114.1,92.4,114.1,92.6,114.3z"/>
		<path d="M85.5,13.7c2.4-0.1,4.7-0.1,7.1,0c-0.1,0-0.2,0.1-0.4,0.1c-2.1,0-4.2,0-6.4,0C85.7,13.8,85.6,13.7,85.5,13.7z"/>
		<path d="M122,80c-0.3-0.6-0.1-1.2-0.1-1.9c0-0.4,0-0.8-0.2-1.1c0.2-0.1,0.5-0.5,0.4,0C122.2,78.1,122.4,79.1,122,80z"/>
		<path d="M122.1,90.5c-0.3-0.4-0.1-0.9-0.2-1.3c-0.1-0.5,0.1-1-0.2-1.5c0.2-0.1,0.4-0.5,0.4,0C122.2,88.6,122.3,89.5,122.1,90.5z"
			/>
		<path d="M122.1,101.1c-0.3-0.4-0.1-0.9-0.2-1.3c-0.1-0.5,0.1-1-0.2-1.5c0.2-0.1,0.4-0.5,0.5,0C122.2,99.2,122.3,100.1,122.1,101.1
			z"/>
		<path d="M91.5,67.4c-1.8,0-3.6,0-5.3,0c0,0,0-0.1,0-0.1C88,67.4,89.8,67.4,91.5,67.4C91.6,67.4,91.5,67.4,91.5,67.4z"/>
		<path d="M91.3,45.9c-1.5,0.1-3.1,0.1-4.6,0c1.3-0.3,2.7-0.1,4-0.1C90.9,45.8,91.1,45.7,91.3,45.9z"/>
		<path d="M40.4,114.3c-1.3,0.1-2.5,0.1-3.8,0C37.9,114,39.2,114,40.4,114.3z"/>
		<path d="M1.2,78.5c-0.1-1.1-0.1-2.2,0-3.3C1.5,76.3,1.5,77.4,1.2,78.5z"/>
		<path d="M56.1,34.8c-0.1,0.9,0,1.8-0.1,2.7l0,0l0,0l-0.1,0h-0.1c-0.2-1-0.2-2.1,0-3.1c0.1,0.1,0.2,0.1,0.3,0.2
			C56.1,34.6,56.1,34.7,56.1,34.8z"/>
		<path d="M55.9,34.4c-0.1,1-0.1,2.1,0,3.1C55.6,36.4,55.5,35.4,55.9,34.4z"/>
		<path d="M56.2,36.5c0,0.3,0.1,0.7-0.1,1c0-0.9-0.2-1.7,0-2.6c0-0.1,0.1-0.3,0.1-0.4c0.1,0.1,0.1,0.1,0.2,0.2
			C56,35.3,56.2,35.9,56.2,36.5z"/>
		<path d="M94.6,104.4c-1,0.3-2,0.1-3.1,0.1C92.5,104.3,93.5,104.4,94.6,104.4z"/>
		<path d="M122,69.4c-0.2-0.6-0.2-1.2-0.1-1.8c0,0,0,0,0,0c0,0,0,0,0,0c0-0.2,0.1-0.4,0.1-0.6v2.3C122.1,69.4,122.1,69.4,122,69.4z"
			/>
		<path d="M52.9,72.3c-3.6,0-7.2,0-10.8,0c-0.2,0-0.4,0-0.6,0c-0.1,0.1-0.1,0.3-0.1,0.4c0,8.5,0,17,0,25.6c0,0.4,0.1,0.8-0.1,1.2
			c0,0.1,0,0.1-0.1,0.2c-0.1,0.1-0.1,0.2-0.2,0.3c-1.7,0-3.3,0-5,0c0,0-0.1-0.1-0.1-0.1v0c0,0,0-0.1-0.1-0.1c0,0,0,0,0-0.1
			c-0.1-0.3,0-0.7,0-1c0-8.6,0-17.2,0-25.8c0-0.1,0-0.1,0-0.2c0-0.1,0-0.2-0.1-0.3c-3.8,0-7.5,0-11.3,0c-0.7,0-0.8-0.2-0.8-0.8
			c0-1.1,0.1-2.3,0-3.4c0-0.7,0.2-0.8,0.8-0.8c8.3,0,16.6,0,25,0c1.2,0,2.4,0,3.6,0c0.5,0,0.7,0.1,0.6,0.6c0,1.2,0,2.4,0,3.6
			C53.6,72.1,53.4,72.3,52.9,72.3z"/>
		<path d="M53.5,62.8c0,0.1-0.1,0.1-0.2,0.2c-0.2,0.2-0.5,0.1-0.7,0.1c-9.4,0-18.9,0-28.3,0c-0.2,0-0.5,0.1-0.7-0.1
			c-0.2-1.6,0-3.2-0.1-4.8c0-0.1,0.1-0.2,0.2-0.3c0.1-0.1,0.3-0.2,0.5-0.2c0.1,0,0.2,0,0.3,0c0.1,0,0.1,0,0.2,0c9.1,0,18.3,0,27.4,0
			c0.4,0,0.9,0,1.3,0.2c0.1,0.1,0.2,0.1,0.2,0.2C53.5,59.6,53.5,61.2,53.5,62.8z"/>
		<rect x="23.9" y="67" width="29.5" height="0.1"/>
		<path d="M53.4,63c-0.2,0.3-0.5,0.2-0.8,0.2c-9.5,0-19,0-28.5,0c-0.2,0-0.4,0-0.6-0.1c0,0,0,0,0-0.1c0,0,0,0,0-0.1
			c0.2,0,0.4,0,0.6,0c9.5,0,19,0,28.5,0C52.9,62.9,53.1,62.9,53.4,63z"/>
		<path d="M53.4,57.9c-0.2,0-0.4,0-0.6,0c-9.5,0-19,0-28.5,0c-0.2,0-0.4,0-0.6,0c0-0.1,0-0.1,0-0.2c0.2-0.1,0.5-0.1,0.7-0.1
			c9.2,0,18.5,0,27.7,0c0.2,0,0.5-0.1,0.7,0.1C53,57.7,53.2,57.7,53.4,57.9z"/>
		<path d="M52.9,57.7H23.7c0.2-0.3,0.6-0.2,0.9-0.2c9.1,0,18.3,0,27.4,0C52.3,57.5,52.6,57.4,52.9,57.7z"/>
		<path d="M35.8,99.6c0,0.1-0.1,0.2-0.1,0.3c-0.3-0.2-0.2-0.5-0.2-0.8c0-8.6,0-17.1,0-25.7c0-0.3-0.2-0.7,0.1-1c0,0,0.1,0.1,0.1,0.1
			c0.1,0.2,0.1,0.5,0.1,0.7c0,8.6,0,17.2,0,25.7C35.8,99.2,35.8,99.4,35.8,99.6z"/>
		<path d="M41.5,99.2c-0.1,0.2,0.1,0.5-0.2,0.7c-0.1-0.1-0.1-0.2-0.1-0.3c0-0.1,0-0.2,0-0.4c0-8.7,0-17.4,0-26.2
			c0-0.2,0-0.4,0.1-0.7c0.1-0.1,0.1-0.1,0.2-0.2c0,0.1,0,0.1,0,0.2c0.1,0.2,0.1,0.4,0.1,0.7c0,8.5,0,17,0,25.5
			C41.5,98.8,41.6,99,41.5,99.2z"/>
		<path d="M35.9,99.7L35.9,99.7c0,0,0,0.1-0.1,0.1c-0.1,0-0.1,0-0.2,0c0-8.8,0-17.7,0-26.5c0-0.3,0-0.7,0-1c0,0,0-0.1,0-0.1
			c0.1,0.1,0.1,0.1,0.2,0.2c0.1,0.2,0.1,0.5,0.1,0.7c0,8.7,0,17.3,0,26C35.9,99.4,35.9,99.6,35.9,99.7z"/>
		<path d="M41.3,88.1c0,3.8,0,7.5,0,11.3v0.4c-0.1,0-0.2,0-0.3,0c0.2-0.4,0.2-0.7,0.2-1.1c0-8.5,0-16.9,0-25.4c0-0.3-0.1-0.7,0.1-1
			C41.3,77.7,41.3,82.9,41.3,88.1z"/>
		<path d="M36,73.4c0,8.8,0,17.7,0,26.5l-0.1,0l-0.1,0v-0.2c0-9.1,0-18.1,0-27.2C36.1,72.7,36,73.1,36,73.4z"/>
		<path d="M41.5,99.2c0-6.6,0-13.2,0-19.8c0-2.3,0-4.6,0-6.9c0.2,0.3,0.1,0.6,0.1,0.9c0,8.4,0,16.7,0,25
			C41.6,98.6,41.7,99,41.5,99.2z"/>
		<path d="M41.1,100.2h-5.2c0,0,0,0,0-0.1L41.1,100.2C41.1,100.2,41.1,100.2,41.1,100.2z"/>
		<path d="M53.8,67.5v4.7c0,0-0.1,0-0.1,0L53.8,67.5L53.8,67.5z"/>
		<path d="M53.8,58v4.6c0,0,0,0-0.1,0L53.8,58L53.8,58z"/>
		<path d="M23.4,58.1v4c0,0-0.1,0-0.1,0L23.4,58.1C23.3,58.1,23.3,58.1,23.4,58.1z"/>
		<path d="M23.3,67.5v4.1c0,0,0,0-0.1,0L23.3,67.5C23.3,67.5,23.3,67.5,23.3,67.5z"/>
	</g>
</g>
</svg>
