<?xml version="1.0" encoding="utf-8"?>
<!-- Generator: Adobe Illustrator 28.0.0, SVG Export Plug-In . SVG Version: 6.00 Build 0)  -->
<svg version="1.1" id="Layer_1" xmlns="http://www.w3.org/2000/svg" xmlns:xlink="http://www.w3.org/1999/xlink" x="0px" y="0px"
	 viewBox="0 0 128 128" style="enable-background:new 0 0 128 128;" xml:space="preserve">
<g id="jMtto4.tif">
	<g>
		<path d="M85.5,112.6c-5.2-7.8-10.4-15.5-15.6-23.3c-0.8-1.3-2-1.9-3.6-1.9c-1.4,0-2.8,0.1-4.2,0c-1.8-0.1-3.2,0.7-4.2,2.2
			c-5.1,7.6-10.1,15.2-15.2,22.8c-1,1.5-1.3,3.1-0.4,4.7c0.9,1.7,2.4,2.3,4.2,2.3c5.8,0,11.6,0,17.5,0c5.9,0,11.8,0,17.7,0
			c1.8,0,3.2-0.7,4-2.2C86.6,115.6,86.5,114,85.5,112.6z M46.2,115c1.4-2,2.7-4,3.9-5.9c0.3-0.4,0.7-0.3,1.1-0.3c2,0,4.1,0,6.1,0
			c1.6,0,2.5-0.9,2.4-2.2c0-1.3-1-2.1-2.4-2.1c-1.3,0-2.6,0-4.1,0c0.9-1.4,1.7-2.5,2.5-3.8c0.3-0.5,0.7-0.5,1.2-0.5
			c1.6,0,3.2,0,4.9,0c1.4,0,2.2-0.8,2.3-2.1c0-1.3-0.9-2.1-2.3-2.2c-0.8,0-1.7,0-2.5,0c0,0-0.1,0-0.2-0.2c0.8-1.2,1.6-2.4,2.4-3.7
			c0.2-0.3,0.5-0.4,0.8-0.4c1.1,0,2.2,0,3.4,0c0.5,0,0.8,0.2,1,0.6c5,7.5,10,15,15,22.6c0,0,0,0.1,0,0.2H46.2z M85.5,112.6
			c-5.2-7.8-10.4-15.5-15.6-23.3c-0.8-1.3-2-1.9-3.6-1.9c-1.4,0-2.8,0.1-4.2,0c-1.8-0.1-3.2,0.7-4.2,2.2
			c-5.1,7.6-10.1,15.2-15.2,22.8c-1,1.5-1.3,3.1-0.4,4.7c0.9,1.7,2.4,2.3,4.2,2.3c5.8,0,11.6,0,17.5,0c5.9,0,11.8,0,17.7,0
			c1.8,0,3.2-0.7,4-2.2C86.6,115.6,86.5,114,85.5,112.6z M46.2,115c1.4-2,2.7-4,3.9-5.9c0.3-0.4,0.7-0.3,1.1-0.3c2,0,4.1,0,6.1,0
			c1.6,0,2.5-0.9,2.4-2.2c0-1.3-1-2.1-2.4-2.1c-1.3,0-2.6,0-4.1,0c0.9-1.4,1.7-2.5,2.5-3.8c0.3-0.5,0.7-0.5,1.2-0.5
			c1.6,0,3.2,0,4.9,0c1.4,0,2.2-0.8,2.3-2.1c0-1.3-0.9-2.1-2.3-2.2c-0.8,0-1.7,0-2.5,0c0,0-0.1,0-0.2-0.2c0.8-1.2,1.6-2.4,2.4-3.7
			c0.2-0.3,0.5-0.4,0.8-0.4c1.1,0,2.2,0,3.4,0c0.5,0,0.8,0.2,1,0.6c5,7.5,10,15,15,22.6c0,0,0,0.1,0,0.2H46.2z M117.7,49.5
			c-0.6-0.4-1.2-0.6-1.8-0.7c-2.1-0.5-4.3-1.1-6.4-1.6c-1-0.2-1.6-0.7-1.8-1.8c-0.2-1.1-0.4-2.1-0.9-3.1c-0.4-1-0.2-1.7,0.6-2.4
			c1.7-1.7,3.5-3.2,5.1-4.9c1.6-1.6,1.9-3.6,0.9-5.5c-0.7-1.2-1.3-2.4-2.1-3.6c-1.5-2.3-3.1-2.9-5.8-2.2c-2.2,0.6-4.3,1.3-6.5,1.9
			c-0.9,0.3-1.5,0.1-2.1-0.5c-0.8-0.8-1.5-1.7-2.4-2.4c-0.9-0.8-1.1-1.6-0.7-2.8c0.7-2,1.2-4.1,1.8-6.1c0.8-2.7,0.1-4.4-2.3-5.9
			c-0.9-0.5-1.8-1-2.7-1.5c-2.7-1.5-4.3-1.3-6.6,0.9c-1.6,1.6-3.1,3.3-4.6,4.9c-0.5,0.6-1.1,0.8-1.9,0.5c-1.2-0.4-2.5-0.7-3.7-1
			c-0.9-0.2-1.3-0.7-1.6-1.5c-0.5-2.3-1.1-4.5-1.7-6.8c-0.5-1.9-1.5-3.2-3.6-3.4h-6C59,0.2,58,1.5,57.5,3.4
			c-0.6,2.3-1.2,4.6-1.7,6.9c-0.2,0.8-0.6,1.3-1.5,1.4c-1.1,0.2-2.2,0.4-3.2,0.9c-1.1,0.5-1.9,0.3-2.6-0.6c-1.5-1.8-3.1-3.5-4.8-5.1
			c-1.9-1.7-3.6-2-5.8-0.7c-1.2,0.7-2.3,1.3-3.4,2c-2.1,1.4-2.7,2.9-2,5.3c0.6,2.3,1.3,4.6,2,6.8c0.2,0.8,0.1,1.4-0.5,2
			c-0.9,0.8-1.7,1.7-2.6,2.6c-0.7,0.7-1.4,0.9-2.3,0.6c-2.3-0.7-4.6-1.4-7-2c-2.1-0.5-3.9,0.2-5,2c-0.8,1.2-1.5,2.4-2.1,3.7
			c-1.1,1.9-0.9,3.8,0.6,5.4c0.4,0.5,0.9,1,1.4,1.4c1.5,1.2,2.8,2.6,4.2,4c0.6,0.6,0.7,1.2,0.4,2c-0.4,1-0.7,2.1-0.9,3.2
			c-0.2,1.1-0.7,1.6-1.7,1.8c-2.3,0.5-4.6,1.1-6.9,1.7c-2.3,0.6-3.3,2-3.3,4.4c0,1.2,0.1,2.5,0,3.7c-0.2,3.1,1.3,4.4,4,5.1
			c2.1,0.5,4.3,1.1,6.4,1.6c0.9,0.2,1.3,0.6,1.5,1.4c0.3,1.1,0.4,2.2,0.9,3.3c0.5,1.1,0.2,2-0.7,2.7c-1.7,1.5-3.4,3-5,4.7
			c-1.6,1.7-1.9,3.3-0.9,5.5c0.6,1.2,1.3,2.4,2,3.6c1.4,2.3,3.2,2.9,5.7,2.2c2.2-0.6,4.3-1.2,6.5-1.9c0.9-0.3,1.6-0.1,2.2,0.6
			c0.8,0.9,1.6,1.8,2.6,2.5c0.7,0.6,0.8,1.2,0.6,2.1c-0.8,2.5-1.5,4.9-2.1,7.4c-0.4,1.5,0,2.7,1,3.8c0.7,0.8,1.7,1.3,2.7,1.8
			c1.4,0.8,1.4,0.9,0.6,2.2c-2.4,3.7-4.8,7.4-7.2,11.1c-0.4,0.7-0.9,1.3-1.2,2.1c-1.9,4.4,1.2,9.3,5.6,9.3c20.3-0.1,40.5,0,60.8,0
			c1,0,1.9-0.1,2.8-0.6c3.3-1.9,4.4-6,2.4-9.3c-2-3.4-4.2-6.6-6.4-9.8c-0.7-1-1.3-2.1-1.9-3.1c-0.4-0.6-0.3-1,0.3-1.3
			c0.7-0.3,1.3-0.7,1.9-1.1c2.1-1.3,2.8-3,2.2-5.3c-0.6-2.4-1.3-4.7-2-7.1c-0.2-0.8-0.1-1.3,0.5-1.9c1-0.8,1.9-1.8,2.7-2.7
			c0.6-0.7,1.2-0.8,2-0.6c2.2,0.7,4.5,1.3,6.7,2c2.4,0.7,4.1,0.1,5.5-2c0.7-1.1,1.4-2.2,2-3.3c1.3-2.7,1.1-4.1-1-6.3
			c-1.6-1.6-3.3-3.1-4.9-4.6c-0.7-0.6-0.8-1.2-0.5-2.1c0.4-1.1,0.7-2.1,0.9-3.2c0.2-1.1,0.8-1.6,1.8-1.9c2.3-0.5,4.5-1.1,6.8-1.7
			c2-0.5,2.9-1.5,3.1-3.3c0-0.1,0-0.2,0-0.3v-5.9c0-0.1,0-0.2,0-0.3C119.4,51,118.7,50.1,117.7,49.5z M95.2,119.6
			c0.5,0.7,1,1.4,0.7,2.3c-0.3,1.1-1.1,1.7-2.7,1.7c-9.7,0-19.5,0-29.2,0c-9.7,0-19.4,0-29.1,0c-0.7,0-1.3,0-1.9-0.4
			c-1.1-0.8-1.2-1.9-0.2-3.4c4.7-7.2,9.4-14.5,14.1-21.7c2.7-4.1,5.3-8.2,8-12.2c1.9-2.9,2.8-6,2.8-9.4c0-3.8,0-7.6,0-11.4
			c0-1.1,0.3-1.3,1.3-1.3c1.6,0.1,3.2,0,4.9,0c1.4,0,2.4-1,2.4-2.2c0-1.2-1-2.1-2.3-2.1c-3.4,0-6.8,0-10.2,0c-2.1,0-3.6-1.1-4.3-2.9
			c-0.6-1.6-0.1-3.5,1.3-4.6c0.8-0.7,1.8-1,2.9-1c7,0,14,0,21,0c2.5,0,4.3,1.7,4.4,4.1c0.1,2.3-1.7,4.1-4.1,4.3c-0.6,0-1.2,0-1.7,0
			c-2,0-2.7,0.7-2.7,2.7c0,2.7,0,5.5,0,8.2c0,2,0,3.9,0,5.9c0,3.4,0.9,6.5,2.8,9.4C80.6,97.1,87.9,108.4,95.2,119.6z M74.8,64.8
			c0-0.6,0.1-0.9,0.8-1c4.4-0.4,7.7-4.2,7.7-8.6c-0.1-4.4-3.5-8.1-8-8.3c-3.7-0.2-7.5,0-11.2,0v0c-3.8,0-7.6-0.1-11.4,0
			c-4.4,0.2-7.8,3.9-7.9,8.3c-0.1,4.4,3.3,8.3,7.6,8.7c0.7,0.1,0.9,0.2,0.9,0.9c0,4.3,0,8.7,0,13c0,1.3-0.4,2.5-0.9,3.7
			c-0.3,0.9-0.7,1.1-1.6,0.6c-5-2.6-9-6.2-12-10.9c-11.1-17.7-0.9-41,19.6-45c16.3-3.2,32,7.5,35,23.7c2.4,13.2-4,26.1-15.9,32.1
			c-1.1,0.6-1.5,0.3-1.9-0.7c-0.5-1.3-0.8-2.5-0.8-3.9C74.8,73.2,74.8,69,74.8,64.8z M112.3,58.1c-1.8,0.4-3.6,0.9-5.4,1.3
			c-1.8,0.4-3,1.5-3.4,3.4c-0.4,2-0.9,3.9-1.6,5.9c-0.6,1.7-0.1,3.2,1.2,4.4c1.9,1.8,3.7,3.7,5.7,5.5c0.5,0.5,0.5,0.8,0.2,1.3
			c-1.6,2.8-1.5,2.8-4.6,1.9c-1.7-0.5-3.5-1-5.2-1.5c-1.8-0.5-3.3-0.2-4.6,1.3c-1.3,1.5-2.7,2.9-4.2,4.2c-1.4,1.2-1.7,2.8-1.3,4.5
			c0.7,2.5,1.4,5,2.2,7.5c0.2,0.7,0,0.9-0.5,1.2c-2.7,1.5-2.6,1.5-4.3-1c-2.4-3.6-4.7-7.2-7.1-10.8c-0.4-0.7-0.6-0.9,0.3-1.4
			c10-5.3,16.2-13.5,18.1-24.6c3.2-18.4-8.9-35.6-26.9-39.2c-2.2-0.4-4.5-0.7-6.3-0.7c-16.8,0-30.8,11.6-33.9,27.7
			C27.7,63.8,35,78.8,48.4,85.7c0.9,0.5,1,0.8,0.4,1.7c-2.7,4-5.3,8.1-8,12.2c-0.4,0.7-0.7,1-1.6,0.5c-2.4-1.4-2.5-1.4-1.7-4.1
			c0.5-1.9,1.1-3.7,1.6-5.6c0.5-1.7,0.2-3.2-1.2-4.4c-1.5-1.3-2.9-2.7-4.2-4.2c-1.3-1.5-2.9-1.9-4.7-1.3c-2.4,0.7-4.8,1.4-7.1,2.1
			c-0.2,0.1-0.5,0.3-0.7,0.2c-1.2-0.6-1.3-2-2.1-2.9c-0.4-0.5,0-0.7,0.3-1c1.8-1.8,3.6-3.5,5.5-5.3c1.5-1.4,2-3.1,1.3-5.1
			c-0.6-1.7-1.1-3.6-1.4-5.4c-0.4-1.9-1.6-3-3.4-3.5c-2.4-0.6-4.7-1.2-7.1-1.7c-0.8-0.2-1.2-0.5-1.2-1.5c0.1-2.9,0-2.9,2.9-3.6
			c1.9-0.4,3.8-0.9,5.7-1.4c1.7-0.4,2.7-1.5,3.1-3.2c0.4-2,1-4,1.6-6c0.6-1.7,0.1-3.2-1.1-4.4c-1.9-1.8-3.8-3.7-5.7-5.4
			c-0.5-0.5-0.5-0.8-0.2-1.3c1.5-2.7,1.5-2.7,4.5-1.9c1.8,0.5,3.7,1,5.5,1.6c1.7,0.5,3.2,0.1,4.4-1.2c1.3-1.5,2.8-3,4.3-4.3
			c1.4-1.2,1.7-2.8,1.2-4.5c-0.7-2.5-1.4-5-2.2-7.5c-0.2-0.6-0.1-0.9,0.4-1.2c2.7-1.7,2.7-1.7,4.9,0.6c1.3,1.3,2.6,2.6,3.8,4
			c1.3,1.4,2.9,1.8,4.7,1.2c1.8-0.6,3.7-1.1,5.6-1.5c1.9-0.4,3-1.6,3.5-3.5c0.6-2.5,1.2-4.9,1.8-7.4C62,4.5,62.2,4.3,63,4.3
			c3.1,0,3.1,0,3.8,2.9c0.4,1.8,0.9,3.6,1.3,5.4c0.5,1.9,1.6,3,3.5,3.4c1.9,0.4,3.7,0.9,5.5,1.5c1.9,0.7,3.5,0.3,4.9-1.2
			c1.7-1.9,3.5-3.6,5.3-5.5c0.4-0.5,0.8-0.6,1.3-0.2c2.8,1.5,2.8,1.5,1.9,4.5c-0.5,1.8-1.1,3.7-1.6,5.5c-0.5,1.7-0.2,3.2,1.2,4.4
			c1.6,1.4,3,2.9,4.4,4.4c1.2,1.4,2.7,1.7,4.4,1.2c2.5-0.7,5-1.4,7.5-2.2c0.7-0.2,1,0,1.3,0.5c1.6,2.7,1.6,2.7-0.6,4.8
			c-1.3,1.3-2.7,2.6-4.1,3.9c-1.3,1.3-1.8,2.8-1.2,4.5c0.7,1.9,1.2,3.9,1.6,5.9c0.4,1.8,1.5,2.9,3.3,3.3c2.5,0.6,5,1.3,7.5,1.8
			c0.7,0.2,0.9,0.4,0.9,1.2C115.2,57.4,115.2,57.4,112.3,58.1z M66.4,87.4c-1.4,0-2.8,0.1-4.2,0c-1.8-0.1-3.2,0.7-4.2,2.2
			c-5.1,7.6-10.1,15.2-15.2,22.8c-1,1.5-1.3,3.1-0.4,4.7c0.9,1.7,2.4,2.3,4.2,2.3c5.8,0,11.6,0,17.5,0c5.9,0,11.8,0,17.7,0
			c1.8,0,3.2-0.7,4-2.2c0.9-1.5,0.7-3.1-0.2-4.6c-5.2-7.8-10.4-15.5-15.6-23.3C69.1,88,67.9,87.4,66.4,87.4z M81.8,115H46.2
			c1.4-2,2.7-4,3.9-5.9c0.3-0.4,0.7-0.3,1.1-0.3c2,0,4.1,0,6.1,0c1.6,0,2.5-0.9,2.4-2.2c0-1.3-1-2.1-2.4-2.1c-1.3,0-2.6,0-4.1,0
			c0.9-1.4,1.7-2.5,2.5-3.8c0.3-0.5,0.7-0.5,1.2-0.5c1.6,0,3.2,0,4.9,0c1.4,0,2.2-0.8,2.3-2.1c0-1.3-0.9-2.1-2.3-2.2
			c-0.8,0-1.7,0-2.5,0c0,0-0.1,0-0.2-0.2c0.8-1.2,1.6-2.4,2.4-3.7c0.2-0.3,0.5-0.4,0.8-0.4c1.1,0,2.2,0,3.4,0c0.5,0,0.8,0.2,1,0.6
			c5,7.5,10,15,15,22.6C81.8,114.8,81.8,114.8,81.8,115z"/>
		<path d="M119.3,52.1c0.1,0,0.1,0,0.2,0c0,2.2,0,4.3,0,6.5c-0.1,0-0.2,0-0.2,0C119.3,56.5,119.3,54.3,119.3,52.1z"/>
		<path d="M85.5,112.6c-5.2-7.8-10.4-15.5-15.6-23.3c-0.8-1.3-2-1.9-3.6-1.9c-1.4,0-2.8,0.1-4.2,0c-1.8-0.1-3.2,0.7-4.2,2.2
			c-5.1,7.6-10.1,15.2-15.2,22.8c-1,1.5-1.3,3.1-0.4,4.7c0.9,1.7,2.4,2.3,4.2,2.3c5.8,0,11.6,0,17.5,0c5.9,0,11.8,0,17.7,0
			c1.8,0,3.2-0.7,4-2.2C86.6,115.6,86.5,114,85.5,112.6z M46.2,115c1.4-2,2.7-4,3.9-5.9c0.3-0.4,0.7-0.3,1.1-0.3c2,0,4.1,0,6.1,0
			c1.6,0,2.5-0.9,2.4-2.2c0-1.3-1-2.1-2.4-2.1c-1.3,0-2.6,0-4.1,0c0.9-1.4,1.7-2.5,2.5-3.8c0.3-0.5,0.7-0.5,1.2-0.5
			c1.6,0,3.2,0,4.9,0c1.4,0,2.2-0.8,2.3-2.1c0-1.3-0.9-2.1-2.3-2.2c-0.8,0-1.7,0-2.5,0c0,0-0.1,0-0.2-0.2c0.8-1.2,1.6-2.4,2.4-3.7
			c0.2-0.3,0.5-0.4,0.8-0.4c1.1,0,2.2,0,3.4,0c0.5,0,0.8,0.2,1,0.6c5,7.5,10,15,15,22.6c0,0,0,0.1,0,0.2H46.2z"/>
		<path d="M85.5,112.6c-5.2-7.8-10.4-15.5-15.6-23.3c-0.8-1.3-2-1.9-3.6-1.9c-1.4,0-2.8,0.1-4.2,0c-1.8-0.1-3.2,0.7-4.2,2.2
			c-5.1,7.6-10.1,15.2-15.2,22.8c-1,1.5-1.3,3.1-0.4,4.7c0.9,1.7,2.4,2.3,4.2,2.3c5.8,0,11.6,0,17.5,0c5.9,0,11.8,0,17.7,0
			c1.8,0,3.2-0.7,4-2.2C86.6,115.6,86.5,114,85.5,112.6z M46.2,115c1.4-2,2.7-4,3.9-5.9c0.3-0.4,0.7-0.3,1.1-0.3c2,0,4.1,0,6.1,0
			c1.6,0,2.5-0.9,2.4-2.2c0-1.3-1-2.1-2.4-2.1c-1.3,0-2.6,0-4.1,0c0.9-1.4,1.7-2.5,2.5-3.8c0.3-0.5,0.7-0.5,1.2-0.5
			c1.6,0,3.2,0,4.9,0c1.4,0,2.2-0.8,2.3-2.1c0-1.3-0.9-2.1-2.3-2.2c-0.8,0-1.7,0-2.5,0c0,0-0.1,0-0.2-0.2c0.8-1.2,1.6-2.4,2.4-3.7
			c0.2-0.3,0.5-0.4,0.8-0.4c1.1,0,2.2,0,3.4,0c0.5,0,0.8,0.2,1,0.6c5,7.5,10,15,15,22.6c0,0,0,0.1,0,0.2H46.2z"/>
	</g>
</g>
</svg>
