<?xml version="1.0" encoding="utf-8"?>
<!-- Generator: Adobe Illustrator 28.0.0, SVG Export Plug-In . SVG Version: 6.00 Build 0)  -->
<svg version="1.1" id="Layer_1" xmlns="http://www.w3.org/2000/svg" xmlns:xlink="http://www.w3.org/1999/xlink" x="0px" y="0px"
	 viewBox="0 0 128 128" style="enable-background:new 0 0 128 128;" xml:space="preserve">
<g id="wlNHcX.tif">
	<g>
		<path d="M55.8,72.4c-0.9-0.9-1.8-1.7-3-0.5c-6.7,6.7-13.5,13.5-20.3,20.2c-0.9,0.9-1.1,1.7-0.1,2.6c0.6,0.5,1.3,1,1.8,1.5
			c0.5-0.3,0.9-0.4,1.1-0.6c6.9-6.9,13.8-13.7,20.6-20.6C56.9,74.1,56.7,73.3,55.8,72.4z M55.8,72.4c-0.9-0.9-1.8-1.7-3-0.5
			c-6.7,6.7-13.5,13.5-20.3,20.2c-0.9,0.9-1.1,1.7-0.1,2.6c0.6,0.5,1.3,1,1.8,1.5c0.5-0.3,0.9-0.4,1.1-0.6
			c6.9-6.9,13.8-13.7,20.6-20.6C56.9,74.1,56.7,73.3,55.8,72.4z M55.8,72.4c-0.9-0.9-1.8-1.7-3-0.5c-6.7,6.7-13.5,13.5-20.3,20.2
			c-0.9,0.9-1.1,1.7-0.1,2.6c0.6,0.5,1.3,1,1.8,1.5c0.5-0.3,0.9-0.4,1.1-0.6c6.9-6.9,13.8-13.7,20.6-20.6
			C56.9,74.1,56.7,73.3,55.8,72.4z M55.8,72.4c-0.9-0.9-1.8-1.7-3-0.5c-6.7,6.7-13.5,13.5-20.3,20.2c-0.9,0.9-1.1,1.7-0.1,2.6
			c0.6,0.5,1.3,1,1.8,1.5c0.5-0.3,0.9-0.4,1.1-0.6c6.9-6.9,13.8-13.7,20.6-20.6C56.9,74.1,56.7,73.3,55.8,72.4z M55.8,72.4
			c-0.9-0.9-1.8-1.7-3-0.5c-6.7,6.7-13.5,13.5-20.3,20.2c-0.9,0.9-1.1,1.7-0.1,2.6c0.6,0.5,1.3,1,1.8,1.5c0.5-0.3,0.9-0.4,1.1-0.6
			c6.9-6.9,13.8-13.7,20.6-20.6C56.9,74.1,56.7,73.3,55.8,72.4z M55.8,72.4c-0.9-0.9-1.8-1.7-3-0.5c-6.7,6.7-13.5,13.5-20.3,20.2
			c-0.9,0.9-1.1,1.7-0.1,2.6c0.6,0.5,1.3,1,1.8,1.5c0.5-0.3,0.9-0.4,1.1-0.6c6.9-6.9,13.8-13.7,20.6-20.6
			C56.9,74.1,56.7,73.3,55.8,72.4z M55.8,72.4c-0.9-0.9-1.8-1.7-3-0.5c-6.7,6.7-13.5,13.5-20.3,20.2c-0.9,0.9-1.1,1.7-0.1,2.6
			c0.6,0.5,1.3,1,1.8,1.5c0.5-0.3,0.9-0.4,1.1-0.6c6.9-6.9,13.8-13.7,20.6-20.6C56.9,74.1,56.7,73.3,55.8,72.4z M55.8,72.4
			c-0.9-0.9-1.8-1.7-3-0.5c-6.7,6.7-13.5,13.5-20.3,20.2c-0.9,0.9-1.1,1.7-0.1,2.6c0.6,0.5,1.3,1,1.8,1.5c0.5-0.3,0.9-0.4,1.1-0.6
			c6.9-6.9,13.8-13.7,20.6-20.6C56.9,74.1,56.7,73.3,55.8,72.4z M55.8,72.4c-0.9-0.9-1.8-1.7-3-0.5c-6.7,6.7-13.5,13.5-20.3,20.2
			c-0.9,0.9-1.1,1.7-0.1,2.6c0.6,0.5,1.3,1,1.8,1.5c0.5-0.3,0.9-0.4,1.1-0.6c6.9-6.9,13.8-13.7,20.6-20.6
			C56.9,74.1,56.7,73.3,55.8,72.4z M55.8,72.4c-0.9-0.9-1.8-1.7-3-0.5c-6.7,6.7-13.5,13.5-20.3,20.2c-0.9,0.9-1.1,1.7-0.1,2.6
			c0.6,0.5,1.3,1,1.8,1.5c0.5-0.3,0.9-0.4,1.1-0.6c6.9-6.9,13.8-13.7,20.6-20.6C56.9,74.1,56.7,73.3,55.8,72.4z M55.8,72.4
			c-0.9-0.9-1.8-1.7-3-0.5c-6.7,6.7-13.5,13.5-20.3,20.2c-0.9,0.9-1.1,1.7-0.1,2.6c0.6,0.5,1.3,1,1.8,1.5c0.5-0.3,0.9-0.4,1.1-0.6
			c6.9-6.9,13.8-13.7,20.6-20.6C56.9,74.1,56.7,73.3,55.8,72.4z M55.8,72.4c-0.9-0.9-1.8-1.7-3-0.5c-6.7,6.7-13.5,13.5-20.3,20.2
			c-0.9,0.9-1.1,1.7-0.1,2.6c0.6,0.5,1.3,1,1.8,1.5c0.5-0.3,0.9-0.4,1.1-0.6c6.9-6.9,13.8-13.7,20.6-20.6
			C56.9,74.1,56.7,73.3,55.8,72.4z M55.8,72.4c-0.9-0.9-1.8-1.7-3-0.5c-6.7,6.7-13.5,13.5-20.3,20.2c-0.9,0.9-1.1,1.7-0.1,2.6
			c0.6,0.5,1.3,1,1.8,1.5c0.5-0.3,0.9-0.4,1.1-0.6c6.9-6.9,13.8-13.7,20.6-20.6C56.9,74.1,56.7,73.3,55.8,72.4z M55.8,72.4
			c-0.9-0.9-1.8-1.7-3-0.5c-6.7,6.7-13.5,13.5-20.3,20.2c-0.9,0.9-1.1,1.7-0.1,2.6c0.6,0.5,1.3,1,1.8,1.5c0.5-0.3,0.9-0.4,1.1-0.6
			c6.9-6.9,13.8-13.7,20.6-20.6C56.9,74.1,56.7,73.3,55.8,72.4z M55.8,72.4c-0.9-0.9-1.8-1.7-3-0.5c-6.7,6.7-13.5,13.5-20.3,20.2
			c-0.9,0.9-1.1,1.7-0.1,2.6c0.6,0.5,1.3,1,1.8,1.5c0.5-0.3,0.9-0.4,1.1-0.6c6.9-6.9,13.8-13.7,20.6-20.6
			C56.9,74.1,56.7,73.3,55.8,72.4z M55.8,72.4c-0.9-0.9-1.8-1.7-3-0.5c-6.7,6.7-13.5,13.5-20.3,20.2c-0.9,0.9-1.1,1.7-0.1,2.6
			c0.6,0.5,1.3,1,1.8,1.5c0.5-0.3,0.9-0.4,1.1-0.6c6.9-6.9,13.8-13.7,20.6-20.6C56.9,74.1,56.7,73.3,55.8,72.4z M55.8,72.4
			c-0.9-0.9-1.8-1.7-3-0.5c-6.7,6.7-13.5,13.5-20.3,20.2c-0.9,0.9-1.1,1.7-0.1,2.6c0.6,0.5,1.3,1,1.8,1.5c0.5-0.3,0.9-0.4,1.1-0.6
			c6.9-6.9,13.8-13.7,20.6-20.6C56.9,74.1,56.7,73.3,55.8,72.4z M55.8,72.4c-0.9-0.9-1.8-1.7-3-0.5c-6.7,6.7-13.5,13.5-20.3,20.2
			c-0.9,0.9-1.1,1.7-0.1,2.6c0.6,0.5,1.3,1,1.8,1.5c0.5-0.3,0.9-0.4,1.1-0.6c6.9-6.9,13.8-13.7,20.6-20.6
			C56.9,74.1,56.7,73.3,55.8,72.4z M101.1,42.6c4.8-4.2,8.8-9.1,12.9-14c5.5-6.6,10.6-13.5,13.3-21.8c2-6.2,0.5-7.6-5.7-6.3
			c-1,0.2-2,0.5-2.9,0.9c-7.1,3.4-13.8,7.6-19.7,12.9c-5,4.4-9.9,8.9-14.7,13.6C82.1,30,73.2,31,72.7,29.3c-1.1-3.2,0.8-6.2,2.4-8.9
			c0.4-0.7,1.1-1.3,1.5-2.1c1.8-2.7,3.3-5.6,4.1-8.8c1.1-4.5-1.3-7.2-5.5-5.3c-8.2,3.6-16.6,7-23.5,13.1c-2.6,2.3-4.7,5.4-8,7
			c-0.7-1-0.2-1.6,0-2.2c1.3-3.6,0.7-6.8-2.5-9.1c-3.2-2.3-6.5-1.6-9.6,0.4c-2.2,1.4-4,3.2-5.8,5c-1.8,1.9-3.8,2.5-6.5,2.2
			C9.5,19.6,3.6,23.2,0,32.3v2.1c1,1.4,1.7,2.9,2.9,4.2c8.4,8.9,16.7,18,25.6,26.6c6.2,6,6.1,6.1,1.1,13.2c-0.2,0.3-0.5,0.5-0.6,0.9
			c-3.3,8.9-9.3,11-18.3,8.7C5,86.5,2.1,88.8,0,94v2.1c0.8,2.4,2.1,4.5,4,6.3c7.3,7.1,14.4,14.3,21.6,21.6c1.8,1.9,3.9,3.2,6.3,4
			h2.1c5-2,6.5-4.3,6.4-9.7c-0.1-3.4-1-6.8-1.1-10.2c-0.1-2.6,0.5-4.1,3-5.1c4-1.7,7.6-4.1,10.6-7.1c2.7-2.7,4.6-2,6.8,0.4
			c6.7,7.3,14.7,13.2,21.3,20.8c3.6,4.2,7.3,8.7,12.7,10.9h2.1c9.1-3.6,12.7-9.5,11.6-19.4c-0.3-2.6,0.3-4.7,2.2-6.5
			c2.4-2.2,4.7-4.6,6-7.6c1.3-2.9,1.2-5.7-0.9-8.2c-1.9-2.3-4.4-3-7.4-2.6c-1.1,0.2-2.1,1.2-3.6,0.6c0.8-2.2,2.4-3.8,4.1-5.2
			c7.9-6.6,10.7-16.4,15.6-24.9c0.3-0.4,0.4-1,0.5-1.5c1.1-4.6-0.9-6.7-5.4-5.6c-3.7,1-7.1,2.6-10,5c-2.2,1.8-4.9,2.3-7.5,3.3
			c-1.6,0.6-2.8,0.3-2.8-1.6C97.9,49.9,97.4,45.8,101.1,42.6z M107.2,89.7c1.1-0.9,2-1.1,3.1,0c1.1,1.1,0.8,2.1-0.1,3
			c-1.8,1.8-3.6,3.5-5.7,5.5C102.5,94.1,104.5,91.9,107.2,89.7z M102.5,18.6c4.6-3.9,9.4-7.2,14.7-10c0.6-0.3,1.3-1.2,2.2-0.4
			c1,0.8,0.3,1.5,0,2.2c-2.8,5.6-6.4,10.8-10.6,15.5c-0.7,0.8-1.4,1.5-2.2,1.2c-2.9-0.2-4.6-1.4-5.5-3.7
			C100.3,21.6,100.8,20.1,102.5,18.6z M78.8,35.8C73,41.5,67.8,46.9,62.4,52c-1,0.9-2.2,3.3-4.1,1.4c-2-2,0.1-3.3,1.3-4.6
			c3.5-3.5,7.1-6.8,10.4-10.5C72.3,35.7,74.9,34.8,78.8,35.8z M67.5,15.1c0.4-2.2,2.8-2.7,4.5-3.8c0.8-0.5,1.5,0.3,1.4,0.8
			c-0.4,2.2-1.8,3.8-3.4,5.2C68.5,17.1,67.3,16.1,67.5,15.1z M58.3,19.2c2.6-3,4.7-2.8,6.9,0.2c1.1,1.5,4,2.7,2.1,4.9
			c-1.7,2.1-3.1,5.3-6.6,4.9c-3.2-0.4-6.3-1.2-11.1-2.1C53.3,23.8,56.1,21.7,58.3,19.2z M35.1,17.9c1-0.9,1.9-1.3,3.1-0.2
			c1.1,1,1,1.9,0.1,3.1c-2.1,2.6-4.3,4.8-9.2,2.4C31.3,21.2,33.2,19.5,35.1,17.9z M12.2,26.5c1-1.7,2.8-0.6,4.2-0.4
			c16.6,2.8,33.3,5.6,51.1,8.7c-4.4,4.3-8.1,8.1-11.9,11.7c-2.5,2.4-3.8,5.4-1.9,8.3c3.7,5.4-2.6,5-4,7.2c-1.8,2.8-3.4,0.3-4.8-1
			C34.8,50.7,24.5,40.4,14.3,30.1C13.3,29.1,11.2,28.4,12.2,26.5z M26.2,54.4c-6.3-6.3-12.6-12.6-18.8-18.9c-1-1-2.6-1.9-0.8-3.7
			c1.7-1.7,2.6-0.6,3.7,0.5C21,43,31.6,53.7,42.2,64.3c0.6,0.6,1.1,1.2,1.6,1.7c0.1,1.3-1,1.5-1.5,2c-1.5,1.3-2.4,0-3.4-0.9
			C34.7,62.9,30.5,58.7,26.2,54.4z M33.6,121.9c-1.2,0.8-1.9-0.3-2.5-1c-8-8-16-16-24-24c-0.7-0.7-1.8-1.4-1.2-2.5
			c0.6-1.2,1.8-1.2,3.1-1.1c3,0.4,6.1,0.5,9.2,1c2.9,0.5,7.2,0,4.5,4.5c-0.3,6.6-0.1,7.1,6.4,6.3c3.2-0.4,4.2,0.3,4.3,3.4
			c0.2,3.6,0.7,7.1,1.2,10.7C34.7,120.3,34.6,121.3,33.6,121.9z M95.6,121.8c-1.2,0.8-1.8,0.2-2.6-0.5
			c-10.9-10.9-21.7-21.8-32.7-32.6c-1.3-1.3-1-2.2-0.1-3.5c1-1.5,1.8-1,2.8-0.1c11,11,22,22,33,33c0.5,0.5,0.8,1,2,2.6
			C97.2,121.1,96.3,121.3,95.6,121.8z M110.7,58.2c0.6-2.1,2.8-2.7,4.6-3.7c0.7-0.4,1.5,0.4,1.4,0.9c-0.7,2.1-1.7,4-3.7,5.2
			C111.8,60.1,110.4,59.3,110.7,58.2z M102.2,61.7c2.8-2.8,4.4-1,6.2,0.9c1.7,1.8,4.2,3.3,1.2,6.2c-2.8,2.7-5.3,5.7-8.2,8.8
			C97.6,68.9,98.1,65.7,102.2,61.7z M101.7,110.2c0.3,1.8,1.9,4.5-0.5,5.6c-2,0.9-3-1.8-4.2-3c-10.1-10-20.1-20-30.2-30
			c-1.5-1.5-3.4-3.2-0.7-4.8c2.2-1.3,1.6-7.4,6.8-4c2.9,2,5.9,0.9,8.3-1.5c3.7-3.8,7.3-7.7,11.8-12.4C96.1,77.7,99,93.9,101.7,110.2
			z M75.5,66.1c5.4-5.5,10.9-10.8,16.7-16.5c1,3.8-0.1,6.3-2.7,8.5c-3.8,3.4-7.3,7.2-10.9,10.8c-1.1,1.1-2.3,2.3-3.9,0.9
			C72.7,68.1,74.6,66.9,75.5,66.1z M92.3,42.8C77.9,56.2,65.2,71.2,53.3,86.9c-5.8,7.7-13.6,12.2-23.2,13.7
			c-2.5,0.4-3.3,0.3-2.8-2.6c1.4-8.6,4.9-16.3,11.7-21.5C59.5,60.9,78.3,43.6,96.4,24c1.6,4,4.1,5.9,7.3,7.9
			C99.7,35.7,96.1,39.3,92.3,42.8z M52.9,72c-6.7,6.7-13.5,13.5-20.3,20.2c-0.9,0.9-1.1,1.7-0.1,2.6c0.6,0.5,1.3,1,1.8,1.5
			c0.5-0.3,0.9-0.4,1.1-0.6c6.9-6.9,13.8-13.7,20.6-20.6c0.9-0.9,0.7-1.8-0.2-2.6C54.9,71.5,54.1,70.8,52.9,72z M55.8,72.4
			c-0.9-0.9-1.8-1.7-3-0.5c-6.7,6.7-13.5,13.5-20.3,20.2c-0.9,0.9-1.1,1.7-0.1,2.6c0.6,0.5,1.3,1,1.8,1.5c0.5-0.3,0.9-0.4,1.1-0.6
			c6.9-6.9,13.8-13.7,20.6-20.6C56.9,74.1,56.7,73.3,55.8,72.4z M55.8,72.4c-0.9-0.9-1.8-1.7-3-0.5c-6.7,6.7-13.5,13.5-20.3,20.2
			c-0.9,0.9-1.1,1.7-0.1,2.6c0.6,0.5,1.3,1,1.8,1.5c0.5-0.3,0.9-0.4,1.1-0.6c6.9-6.9,13.8-13.7,20.6-20.6
			C56.9,74.1,56.7,73.3,55.8,72.4z M55.8,72.4c-0.9-0.9-1.8-1.7-3-0.5c-6.7,6.7-13.5,13.5-20.3,20.2c-0.9,0.9-1.1,1.7-0.1,2.6
			c0.6,0.5,1.3,1,1.8,1.5c0.5-0.3,0.9-0.4,1.1-0.6c6.9-6.9,13.8-13.7,20.6-20.6C56.9,74.1,56.7,73.3,55.8,72.4z M55.8,72.4
			c-0.9-0.9-1.8-1.7-3-0.5c-6.7,6.7-13.5,13.5-20.3,20.2c-0.9,0.9-1.1,1.7-0.1,2.6c0.6,0.5,1.3,1,1.8,1.5c0.5-0.3,0.9-0.4,1.1-0.6
			c6.9-6.9,13.8-13.7,20.6-20.6C56.9,74.1,56.7,73.3,55.8,72.4z M55.8,72.4c-0.9-0.9-1.8-1.7-3-0.5c-6.7,6.7-13.5,13.5-20.3,20.2
			c-0.9,0.9-1.1,1.7-0.1,2.6c0.6,0.5,1.3,1,1.8,1.5c0.5-0.3,0.9-0.4,1.1-0.6c6.9-6.9,13.8-13.7,20.6-20.6
			C56.9,74.1,56.7,73.3,55.8,72.4z M55.8,72.4c-0.9-0.9-1.8-1.7-3-0.5c-6.7,6.7-13.5,13.5-20.3,20.2c-0.9,0.9-1.1,1.7-0.1,2.6
			c0.6,0.5,1.3,1,1.8,1.5c0.5-0.3,0.9-0.4,1.1-0.6c6.9-6.9,13.8-13.7,20.6-20.6C56.9,74.1,56.7,73.3,55.8,72.4z M55.8,72.4
			c-0.9-0.9-1.8-1.7-3-0.5c-6.7,6.7-13.5,13.5-20.3,20.2c-0.9,0.9-1.1,1.7-0.1,2.6c0.6,0.5,1.3,1,1.8,1.5c0.5-0.3,0.9-0.4,1.1-0.6
			c6.9-6.9,13.8-13.7,20.6-20.6C56.9,74.1,56.7,73.3,55.8,72.4z M55.8,72.4c-0.9-0.9-1.8-1.7-3-0.5c-6.7,6.7-13.5,13.5-20.3,20.2
			c-0.9,0.9-1.1,1.7-0.1,2.6c0.6,0.5,1.3,1,1.8,1.5c0.5-0.3,0.9-0.4,1.1-0.6c6.9-6.9,13.8-13.7,20.6-20.6
			C56.9,74.1,56.7,73.3,55.8,72.4z M55.8,72.4c-0.9-0.9-1.8-1.7-3-0.5c-6.7,6.7-13.5,13.5-20.3,20.2c-0.9,0.9-1.1,1.7-0.1,2.6
			c0.6,0.5,1.3,1,1.8,1.5c0.5-0.3,0.9-0.4,1.1-0.6c6.9-6.9,13.8-13.7,20.6-20.6C56.9,74.1,56.7,73.3,55.8,72.4z M55.8,72.4
			c-0.9-0.9-1.8-1.7-3-0.5c-6.7,6.7-13.5,13.5-20.3,20.2c-0.9,0.9-1.1,1.7-0.1,2.6c0.6,0.5,1.3,1,1.8,1.5c0.5-0.3,0.9-0.4,1.1-0.6
			c6.9-6.9,13.8-13.7,20.6-20.6C56.9,74.1,56.7,73.3,55.8,72.4z M55.8,72.4c-0.9-0.9-1.8-1.7-3-0.5c-6.7,6.7-13.5,13.5-20.3,20.2
			c-0.9,0.9-1.1,1.7-0.1,2.6c0.6,0.5,1.3,1,1.8,1.5c0.5-0.3,0.9-0.4,1.1-0.6c6.9-6.9,13.8-13.7,20.6-20.6
			C56.9,74.1,56.7,73.3,55.8,72.4z M55.8,72.4c-0.9-0.9-1.8-1.7-3-0.5c-6.7,6.7-13.5,13.5-20.3,20.2c-0.9,0.9-1.1,1.7-0.1,2.6
			c0.6,0.5,1.3,1,1.8,1.5c0.5-0.3,0.9-0.4,1.1-0.6c6.9-6.9,13.8-13.7,20.6-20.6C56.9,74.1,56.7,73.3,55.8,72.4z M55.8,72.4
			c-0.9-0.9-1.8-1.7-3-0.5c-6.7,6.7-13.5,13.5-20.3,20.2c-0.9,0.9-1.1,1.7-0.1,2.6c0.6,0.5,1.3,1,1.8,1.5c0.5-0.3,0.9-0.4,1.1-0.6
			c6.9-6.9,13.8-13.7,20.6-20.6C56.9,74.1,56.7,73.3,55.8,72.4z M55.8,72.4c-0.9-0.9-1.8-1.7-3-0.5c-6.7,6.7-13.5,13.5-20.3,20.2
			c-0.9,0.9-1.1,1.7-0.1,2.6c0.6,0.5,1.3,1,1.8,1.5c0.5-0.3,0.9-0.4,1.1-0.6c6.9-6.9,13.8-13.7,20.6-20.6
			C56.9,74.1,56.7,73.3,55.8,72.4z M55.8,72.4c-0.9-0.9-1.8-1.7-3-0.5c-6.7,6.7-13.5,13.5-20.3,20.2c-0.9,0.9-1.1,1.7-0.1,2.6
			c0.6,0.5,1.3,1,1.8,1.5c0.5-0.3,0.9-0.4,1.1-0.6c6.9-6.9,13.8-13.7,20.6-20.6C56.9,74.1,56.7,73.3,55.8,72.4z M55.8,72.4
			c-0.9-0.9-1.8-1.7-3-0.5c-6.7,6.7-13.5,13.5-20.3,20.2c-0.9,0.9-1.1,1.7-0.1,2.6c0.6,0.5,1.3,1,1.8,1.5c0.5-0.3,0.9-0.4,1.1-0.6
			c6.9-6.9,13.8-13.7,20.6-20.6C56.9,74.1,56.7,73.3,55.8,72.4z"/>
		<path d="M56,75.1c-6.9,6.9-13.7,13.7-20.6,20.6c-0.2,0.2-0.6,0.3-1.1,0.6c-0.6-0.4-1.2-0.9-1.8-1.5c-1-0.9-0.7-1.7,0.1-2.6
			c6.8-6.7,13.5-13.5,20.3-20.2c1.2-1.2,2.1-0.4,3,0.5C56.7,73.3,56.9,74.1,56,75.1z"/>
		<path d="M56,75.1c-6.9,6.9-13.7,13.7-20.6,20.6c-0.2,0.2-0.6,0.3-1.1,0.6c-0.6-0.4-1.2-0.9-1.8-1.5c-1-0.9-0.7-1.7,0.1-2.6
			c6.8-6.7,13.5-13.5,20.3-20.2c1.2-1.2,2.1-0.4,3,0.5C56.7,73.3,56.9,74.1,56,75.1z"/>
	</g>
</g>
</svg>
