<?xml version="1.0" encoding="utf-8"?>
<!-- Generator: Adobe Illustrator 28.0.0, SVG Export Plug-In . SVG Version: 6.00 Build 0)  -->
<svg version="1.1" id="Layer_1" xmlns="http://www.w3.org/2000/svg" xmlns:xlink="http://www.w3.org/1999/xlink" x="0px" y="0px"
	 viewBox="0 0 128 128" style="enable-background:new 0 0 128 128;" xml:space="preserve">
<g id="mHuF0z.tif">
	<g>
		<path d="M122.8,0h-6c-3.7,3.5-7.4,7-11.2,10.5c-0.8,0.8-1.5,2.7-3.1,1.4c-2.8-2.3-4.5-0.2-6.4,1.4C83.3,24.3,70.5,35.4,57.7,46.5
			c-2.1,1.8-3.8,4.2-7.3,1.6c-1.8-1.4-4,0.3-5.6,1.9C40.8,54,37,57.9,33.1,61.7c-2.9,2.9-3.2,5.8,0,8.5c2.2,1.8,1.4,2.9-0.2,4.5
			c-6.5,6.4-13,12.9-19.4,19.4c-2.4,2.5-4.6,5.3-2.3,8.8c1.3,2,1,3.3,0,5.2c-1.5,2.6-0.7,5.3,1.3,7.3c2,2,4.5,2.6,7.3,1.5
			c1-0.4,1.8-1.7,3.8-1c-1.7,1.8-3.2,3.2-4.6,4.8c-2.4,2.9-5.5,3-8.6,2.1c-3-0.9-5.3-3-5.3-6.4c0-3.8-2.3-3.7-4.9-3.5v6
			c0.7,1,1.5,2.1,2.2,3.2c4.4,6.5,13,8.2,18.5,2.9c6.8-6.5,15-11.4,21.2-18.7c4.1-4.8,8.7-9.1,13.1-13.6c5.8,5.2,7.2,5.6,10.4,2.7
			c4.5-4.2,8.7-8.6,13.1-13c1.6-1.6,2.3-3.9,1-5.4c-2.3-2.7-0.5-4,1-5.7C91.8,58,103.1,45,114.4,31.9c1.4-1.6,3.8-3.3,2.2-5.5
			c-1.7-2.3-0.4-3.1,0.9-4.4c1.9-1.9,3.8-3.8,5.7-5.6C129.7,9.8,129.6,6.1,122.8,0z M17.2,112.8c-1.3,0-2.2-0.7-2.3-2.1
			c-0.1-0.9,0.4-2,1.3-1.7c1,0.3,1.8,1.4,2.5,2C18.8,112.4,18.1,112.8,17.2,112.8z M29,112.4c-0.9,0.7-1.9,0.7-2.7-0.1
			c-3.7-3.6-7.3-7.1-10.8-10.8c-1.2-1.2,1.3-5.7,3-5.8c1,0.1,1.4,0.8,1.8,1.5c2.8,4.3,5.7,8.5,8.5,12.7
			C29.3,110.7,30.2,111.5,29,112.4z M34.3,107.3c-2.2,1.4-2.4-1-3.1-1.9c-2.5-3.5-4.7-7.3-7.3-10.7c-1.9-2.5-1.5-4.1,1.6-5.6
			c3.1,4.7,6.1,9.3,9.3,13.7C36.1,104.6,36.2,106,34.3,107.3z M40.1,101.3c-1.4,0.8-1.5-0.8-2-1.5c-2.8-4.1-5.4-8.4-8.3-12.4
			c-1.4-2-0.6-3,0.8-4.1c1.8-1.3,2.1,0.7,2.8,1.6c2.6,3.8,5.2,7.7,7.7,11.5c0.4,0.7,0.8,1.4,1.1,1.9C42,100,41,100.7,40.1,101.3z
			 M46.8,94.7c-1.3,0.8-1.7-0.3-2.2-1.1c-2.8-4.2-5.7-8.5-8.5-12.7c-0.4-0.5-0.7-1.1-1.1-1.7c0.5-0.5,0.9-1.1,1.3-1.5
			c0.9-0.8,1.3-0.1,1.8,0.7c3,4.5,6,9.1,9.1,13.5C48.2,93.1,47.9,94,46.8,94.7z M46.2,77.8c-1.6-1.9-3-3.8-4.6-5.4
			c-6.3-6.4-6.4-6.4,0-12.7c7.5-7.4,7.3-7.2,14.9-0.1c3.6,3.4,4.1,5.5,0,8.7c-2.7,2.1-5,4.9-7.5,7.3C48.4,76.1,47.6,76.7,46.2,77.8z
			 M72.4,82c-3,2.5-5.7,5.6-8.5,8.4c-0.7,0.7-1.2,1.6-3.3,1.5c-1.4-1.5-3.2-3.7-5.2-5.7c-5.3-5.3-5.3-5.3,0-10.7
			c8.5-8.5,8.4-8.4,17-0.1C75.2,78.1,75.3,79.6,72.4,82z M79.8,64.9c-1.7,2.1-3.5,4-5.5,6.4c-5.4-5.5-10.6-10.9-15.8-16.1
			c-1.2-1.2-1.8-2-0.1-3.4c5.4-4.4,10.7-9,15.9-13.7c1.5-1.4,2.5-1.1,3.6,0.3c0.1,0.1,0.2,0.2,0.4,0.4C82.4,43,89.3,46.8,90,51.6
			C90.7,56.1,83.4,60.4,79.8,64.9z M95.6,46.9c-1.3,1.5-2.1,0.9-3.2-0.2c-3.7-3.8-7.5-7.5-11.3-11.3c-0.6-0.6-1.8-1.2-0.9-2.4
			c0.6-0.8,1.5-1.3,2.4-2.2c0.7,0.5,1.3,0.9,1.9,1.5c3.7,3.6,7.2,7.3,11,10.9C97,44.6,96.8,45.5,95.6,46.9z M98.7,40.1
			c-3.7-3.6-7.3-7.2-10.9-10.9c-1-0.9-1.5-1.8-0.1-2.8c1-0.7,1.7-2.2,3.2-0.6c3.6,3.7,7.3,7.3,10.9,10.9c0.4,0.5,0.7,1,1.2,1.7
			C101.4,39.1,101.2,42.5,98.7,40.1z M111.1,28.6c-1.4,2-3.2,3.8-4.9,5.8c-0.9-0.8-1.7-1.3-2.4-2c-2.3-2.2-4.5-4.4-6.7-6.7
			c-3.7-3.7-2.8-7.2,2.1-9.2c1.7-0.7,2.1,0.6,2.8,1.3c2.5,2.4,5,4.8,7.4,7.4C110.2,26.1,112.5,26.7,111.1,28.6z M121.3,11.9
			c-2.1,2.1-4.5,4-6.3,6.3c-2.8,3.8-4.6,1.9-6.8-0.5c-1.3-1.4-1.5-2.2,0-3.6c2.9-2.7,5.7-5.6,8.5-8.3c1.3-1.3,2.9-1.6,4.6-0.9
			c1.4,0.5,1.9,1.7,2,3.1C123.2,9.7,122.4,10.9,121.3,11.9z"/>
	</g>
</g>
</svg>
