<?xml version="1.0" encoding="utf-8"?>
<!-- Generator: Adobe Illustrator 28.0.0, SVG Export Plug-In . SVG Version: 6.00 Build 0)  -->
<svg version="1.1" id="Layer_1" xmlns="http://www.w3.org/2000/svg" xmlns:xlink="http://www.w3.org/1999/xlink" x="0px" y="0px"
	 viewBox="0 0 128 128" style="enable-background:new 0 0 128 128;" xml:space="preserve">
<g>
	<path d="M86.2,8.2H50c-2.8,0-4.4,1.7-4.4,4.4V53c0,2.7,1.6,4.4,4.4,4.4c12.1,0,24.2,0,36.4,0c2.7,0,4.4-1.7,4.4-4.4
		c0-13.4,0-26.9,0-40.3C90.6,9.8,89,8.2,86.2,8.2z M50.8,12.3c9.3,0,18.7,0,28,0c2.3,0,4.5,0,6.8,0c0.7,0,0.9,0.2,0.9,0.9
		c0,4.9,0,9.7,0,14.6c0,0.7-0.2,0.9-0.9,0.9c-2.3,0-4.7-0.1-7,0c-0.8,0-1-0.3-1.3-0.9c-1.6-4-3.1-7.9-4.7-11.9
		c-0.5,0.3-0.6,0.8-0.8,1.1c-3.1,5.6-6.3,11.3-9.4,16.9c-0.6,1.1-0.9,0.9-1.5,0c-1.1-1.6-2.3-3.1-3.4-4.6c-0.4-0.6-0.8-0.7-1.5-0.7
		c-1.8,0-3.7,0-5.5,0c-0.6,0-0.8-0.2-0.8-0.8c0-4.9,0-9.9,0-14.8C49.6,12,50.3,12.3,50.8,12.3z M58.8,53.2h-3.1c-1.7,0-3.4,0-5.1,0
		c-0.7,0-1-0.1-1-0.9c0-3.2,0-3.2,3.1-3.2c2.7,0,5.5,0,8.2,0c0.7,0,1,0.1,1,0.9C62,53.2,62,53.2,58.8,53.2z M68.1,53.2
		c-2.1,0-2.1,0-2.1-2.1c0-2,0-2,2-2c2.1,0,2.1,0,2.1,2.1C70.1,53.2,70.1,53.2,68.1,53.2z M84.5,53.2c-2.1,0-2.1,0-2.1-2
		c0-2.1,0-2.1,2.1-2.1c1.9,0,1.9,0,1.9,2C86.5,53.2,86.5,53.2,84.5,53.2z M85,45.1c-1.7-0.1-3.5,0-5.2-0.1c-1.1-0.1-1.6,0.2-1.5,1.4
		c0.1,2,0,3.9,0,5.9c0,0.7-0.1,0.9-0.9,0.9c-3.2,0-3.2,0.1-3.2-3.2c0-1.2-0.1-2.5,0-3.7c0.1-1-0.2-1.4-1.3-1.3
		c-7.4,0.1-14.8,0-22.1,0.1c-0.9,0-1.2-0.1-1.2-1.1c0.1-3.4,0.1-6.7,0-10.1c0-0.8,0.2-1,1-1.1c3-0.5,5,0.6,6.5,3.2
		c1.2,2.1,2.9,4,4.4,6c0.5,0.7,0.7,0.7,1.2-0.1c3-5.4,6-10.8,9.1-16.5c0.9,2.2,1.8,4.2,2.5,6.3c0.3,0.9,0.8,1.2,1.7,1.1
		c3-0.1,6,0.1,9-0.1c1.3,0,1.5,0.4,1.5,1.5c-0.1,3.1-0.1,6.2,0,9.3C86.6,44.9,86.2,45.2,85,45.1z M86.2,8.2H50
		c-2.8,0-4.4,1.7-4.4,4.4V53c0,2.7,1.6,4.4,4.4,4.4c12.1,0,24.2,0,36.4,0c2.7,0,4.4-1.7,4.4-4.4c0-13.4,0-26.9,0-40.3
		C90.6,9.8,89,8.2,86.2,8.2z M50.8,12.3c9.3,0,18.7,0,28,0c2.3,0,4.5,0,6.8,0c0.7,0,0.9,0.2,0.9,0.9c0,4.9,0,9.7,0,14.6
		c0,0.7-0.2,0.9-0.9,0.9c-2.3,0-4.7-0.1-7,0c-0.8,0-1-0.3-1.3-0.9c-1.6-4-3.1-7.9-4.7-11.9c-0.5,0.3-0.6,0.8-0.8,1.1
		c-3.1,5.6-6.3,11.3-9.4,16.9c-0.6,1.1-0.9,0.9-1.5,0c-1.1-1.6-2.3-3.1-3.4-4.6c-0.4-0.6-0.8-0.7-1.5-0.7c-1.8,0-3.7,0-5.5,0
		c-0.6,0-0.8-0.2-0.8-0.8c0-4.9,0-9.9,0-14.8C49.6,12,50.3,12.3,50.8,12.3z M58.8,53.2h-3.1c-1.7,0-3.4,0-5.1,0c-0.7,0-1-0.1-1-0.9
		c0-3.2,0-3.2,3.1-3.2c2.7,0,5.5,0,8.2,0c0.7,0,1,0.1,1,0.9C62,53.2,62,53.2,58.8,53.2z M68.1,53.2c-2.1,0-2.1,0-2.1-2.1
		c0-2,0-2,2-2c2.1,0,2.1,0,2.1,2.1C70.1,53.2,70.1,53.2,68.1,53.2z M84.5,53.2c-2.1,0-2.1,0-2.1-2c0-2.1,0-2.1,2.1-2.1
		c1.9,0,1.9,0,1.9,2C86.5,53.2,86.5,53.2,84.5,53.2z M85,45.1c-1.7-0.1-3.5,0-5.2-0.1c-1.1-0.1-1.6,0.2-1.5,1.4c0.1,2,0,3.9,0,5.9
		c0,0.7-0.1,0.9-0.9,0.9c-3.2,0-3.2,0.1-3.2-3.2c0-1.2-0.1-2.5,0-3.7c0.1-1-0.2-1.4-1.3-1.3c-7.4,0.1-14.8,0-22.1,0.1
		c-0.9,0-1.2-0.1-1.2-1.1c0.1-3.4,0.1-6.7,0-10.1c0-0.8,0.2-1,1-1.1c3-0.5,5,0.6,6.5,3.2c1.2,2.1,2.9,4,4.4,6
		c0.5,0.7,0.7,0.7,1.2-0.1c3-5.4,6-10.8,9.1-16.5c0.9,2.2,1.8,4.2,2.5,6.3c0.3,0.9,0.8,1.2,1.7,1.1c3-0.1,6,0.1,9-0.1
		c1.3,0,1.5,0.4,1.5,1.5c-0.1,3.1-0.1,6.2,0,9.3C86.6,44.9,86.2,45.2,85,45.1z M86.2,8.2H50c-2.8,0-4.4,1.7-4.4,4.4V53
		c0,2.7,1.6,4.4,4.4,4.4c12.1,0,24.2,0,36.4,0c2.7,0,4.4-1.7,4.4-4.4c0-13.4,0-26.9,0-40.3C90.6,9.8,89,8.2,86.2,8.2z M50.8,12.3
		c9.3,0,18.7,0,28,0c2.3,0,4.5,0,6.8,0c0.7,0,0.9,0.2,0.9,0.9c0,4.9,0,9.7,0,14.6c0,0.7-0.2,0.9-0.9,0.9c-2.3,0-4.7-0.1-7,0
		c-0.8,0-1-0.3-1.3-0.9c-1.6-4-3.1-7.9-4.7-11.9c-0.5,0.3-0.6,0.8-0.8,1.1c-3.1,5.6-6.3,11.3-9.4,16.9c-0.6,1.1-0.9,0.9-1.5,0
		c-1.1-1.6-2.3-3.1-3.4-4.6c-0.4-0.6-0.8-0.7-1.5-0.7c-1.8,0-3.7,0-5.5,0c-0.6,0-0.8-0.2-0.8-0.8c0-4.9,0-9.9,0-14.8
		C49.6,12,50.3,12.3,50.8,12.3z M58.8,53.2h-3.1c-1.7,0-3.4,0-5.1,0c-0.7,0-1-0.1-1-0.9c0-3.2,0-3.2,3.1-3.2c2.7,0,5.5,0,8.2,0
		c0.7,0,1,0.1,1,0.9C62,53.2,62,53.2,58.8,53.2z M68.1,53.2c-2.1,0-2.1,0-2.1-2.1c0-2,0-2,2-2c2.1,0,2.1,0,2.1,2.1
		C70.1,53.2,70.1,53.2,68.1,53.2z M84.5,53.2c-2.1,0-2.1,0-2.1-2c0-2.1,0-2.1,2.1-2.1c1.9,0,1.9,0,1.9,2
		C86.5,53.2,86.5,53.2,84.5,53.2z M85,45.1c-1.7-0.1-3.5,0-5.2-0.1c-1.1-0.1-1.6,0.2-1.5,1.4c0.1,2,0,3.9,0,5.9
		c0,0.7-0.1,0.9-0.9,0.9c-3.2,0-3.2,0.1-3.2-3.2c0-1.2-0.1-2.5,0-3.7c0.1-1-0.2-1.4-1.3-1.3c-7.4,0.1-14.8,0-22.1,0.1
		c-0.9,0-1.2-0.1-1.2-1.1c0.1-3.4,0.1-6.7,0-10.1c0-0.8,0.2-1,1-1.1c3-0.5,5,0.6,6.5,3.2c1.2,2.1,2.9,4,4.4,6
		c0.5,0.7,0.7,0.7,1.2-0.1c3-5.4,6-10.8,9.1-16.5c0.9,2.2,1.8,4.2,2.5,6.3c0.3,0.9,0.8,1.2,1.7,1.1c3-0.1,6,0.1,9-0.1
		c1.3,0,1.5,0.4,1.5,1.5c-0.1,3.1-0.1,6.2,0,9.3C86.6,44.9,86.2,45.2,85,45.1z M86.2,8.2H50c-2.8,0-4.4,1.7-4.4,4.4V53
		c0,2.7,1.6,4.4,4.4,4.4c12.1,0,24.2,0,36.4,0c2.7,0,4.4-1.7,4.4-4.4c0-13.4,0-26.9,0-40.3C90.6,9.8,89,8.2,86.2,8.2z M50.8,12.3
		c9.3,0,18.7,0,28,0c2.3,0,4.5,0,6.8,0c0.7,0,0.9,0.2,0.9,0.9c0,4.9,0,9.7,0,14.6c0,0.7-0.2,0.9-0.9,0.9c-2.3,0-4.7-0.1-7,0
		c-0.8,0-1-0.3-1.3-0.9c-1.6-4-3.1-7.9-4.7-11.9c-0.5,0.3-0.6,0.8-0.8,1.1c-3.1,5.6-6.3,11.3-9.4,16.9c-0.6,1.1-0.9,0.9-1.5,0
		c-1.1-1.6-2.3-3.1-3.4-4.6c-0.4-0.6-0.8-0.7-1.5-0.7c-1.8,0-3.7,0-5.5,0c-0.6,0-0.8-0.2-0.8-0.8c0-4.9,0-9.9,0-14.8
		C49.6,12,50.3,12.3,50.8,12.3z M58.8,53.2h-3.1c-1.7,0-3.4,0-5.1,0c-0.7,0-1-0.1-1-0.9c0-3.2,0-3.2,3.1-3.2c2.7,0,5.5,0,8.2,0
		c0.7,0,1,0.1,1,0.9C62,53.2,62,53.2,58.8,53.2z M68.1,53.2c-2.1,0-2.1,0-2.1-2.1c0-2,0-2,2-2c2.1,0,2.1,0,2.1,2.1
		C70.1,53.2,70.1,53.2,68.1,53.2z M84.5,53.2c-2.1,0-2.1,0-2.1-2c0-2.1,0-2.1,2.1-2.1c1.9,0,1.9,0,1.9,2
		C86.5,53.2,86.5,53.2,84.5,53.2z M85,45.1c-1.7-0.1-3.5,0-5.2-0.1c-1.1-0.1-1.6,0.2-1.5,1.4c0.1,2,0,3.9,0,5.9
		c0,0.7-0.1,0.9-0.9,0.9c-3.2,0-3.2,0.1-3.2-3.2c0-1.2-0.1-2.5,0-3.7c0.1-1-0.2-1.4-1.3-1.3c-7.4,0.1-14.8,0-22.1,0.1
		c-0.9,0-1.2-0.1-1.2-1.1c0.1-3.4,0.1-6.7,0-10.1c0-0.8,0.2-1,1-1.1c3-0.5,5,0.6,6.5,3.2c1.2,2.1,2.9,4,4.4,6
		c0.5,0.7,0.7,0.7,1.2-0.1c3-5.4,6-10.8,9.1-16.5c0.9,2.2,1.8,4.2,2.5,6.3c0.3,0.9,0.8,1.2,1.7,1.1c3-0.1,6,0.1,9-0.1
		c1.3,0,1.5,0.4,1.5,1.5c-0.1,3.1-0.1,6.2,0,9.3C86.6,44.9,86.2,45.2,85,45.1z M86.2,8.2H50c-2.8,0-4.4,1.7-4.4,4.4V53
		c0,2.7,1.6,4.4,4.4,4.4c12.1,0,24.2,0,36.4,0c2.7,0,4.4-1.7,4.4-4.4c0-13.4,0-26.9,0-40.3C90.6,9.8,89,8.2,86.2,8.2z M50.8,12.3
		c9.3,0,18.7,0,28,0c2.3,0,4.5,0,6.8,0c0.7,0,0.9,0.2,0.9,0.9c0,4.9,0,9.7,0,14.6c0,0.7-0.2,0.9-0.9,0.9c-2.3,0-4.7-0.1-7,0
		c-0.8,0-1-0.3-1.3-0.9c-1.6-4-3.1-7.9-4.7-11.9c-0.5,0.3-0.6,0.8-0.8,1.1c-3.1,5.6-6.3,11.3-9.4,16.9c-0.6,1.1-0.9,0.9-1.5,0
		c-1.1-1.6-2.3-3.1-3.4-4.6c-0.4-0.6-0.8-0.7-1.5-0.7c-1.8,0-3.7,0-5.5,0c-0.6,0-0.8-0.2-0.8-0.8c0-4.9,0-9.9,0-14.8
		C49.6,12,50.3,12.3,50.8,12.3z M58.8,53.2h-3.1c-1.7,0-3.4,0-5.1,0c-0.7,0-1-0.1-1-0.9c0-3.2,0-3.2,3.1-3.2c2.7,0,5.5,0,8.2,0
		c0.7,0,1,0.1,1,0.9C62,53.2,62,53.2,58.8,53.2z M68.1,53.2c-2.1,0-2.1,0-2.1-2.1c0-2,0-2,2-2c2.1,0,2.1,0,2.1,2.1
		C70.1,53.2,70.1,53.2,68.1,53.2z M84.5,53.2c-2.1,0-2.1,0-2.1-2c0-2.1,0-2.1,2.1-2.1c1.9,0,1.9,0,1.9,2
		C86.5,53.2,86.5,53.2,84.5,53.2z M85,45.1c-1.7-0.1-3.5,0-5.2-0.1c-1.1-0.1-1.6,0.2-1.5,1.4c0.1,2,0,3.9,0,5.9
		c0,0.7-0.1,0.9-0.9,0.9c-3.2,0-3.2,0.1-3.2-3.2c0-1.2-0.1-2.5,0-3.7c0.1-1-0.2-1.4-1.3-1.3c-7.4,0.1-14.8,0-22.1,0.1
		c-0.9,0-1.2-0.1-1.2-1.1c0.1-3.4,0.1-6.7,0-10.1c0-0.8,0.2-1,1-1.1c3-0.5,5,0.6,6.5,3.2c1.2,2.1,2.9,4,4.4,6
		c0.5,0.7,0.7,0.7,1.2-0.1c3-5.4,6-10.8,9.1-16.5c0.9,2.2,1.8,4.2,2.5,6.3c0.3,0.9,0.8,1.2,1.7,1.1c3-0.1,6,0.1,9-0.1
		c1.3,0,1.5,0.4,1.5,1.5c-0.1,3.1-0.1,6.2,0,9.3C86.6,44.9,86.2,45.2,85,45.1z M86.2,8.2H50c-2.8,0-4.4,1.7-4.4,4.4V53
		c0,2.7,1.6,4.4,4.4,4.4c12.1,0,24.2,0,36.4,0c2.7,0,4.4-1.7,4.4-4.4c0-13.4,0-26.9,0-40.3C90.6,9.8,89,8.2,86.2,8.2z M50.8,12.3
		c9.3,0,18.7,0,28,0c2.3,0,4.5,0,6.8,0c0.7,0,0.9,0.2,0.9,0.9c0,4.9,0,9.7,0,14.6c0,0.7-0.2,0.9-0.9,0.9c-2.3,0-4.7-0.1-7,0
		c-0.8,0-1-0.3-1.3-0.9c-1.6-4-3.1-7.9-4.7-11.9c-0.5,0.3-0.6,0.8-0.8,1.1c-3.1,5.6-6.3,11.3-9.4,16.9c-0.6,1.1-0.9,0.9-1.5,0
		c-1.1-1.6-2.3-3.1-3.4-4.6c-0.4-0.6-0.8-0.7-1.5-0.7c-1.8,0-3.7,0-5.5,0c-0.6,0-0.8-0.2-0.8-0.8c0-4.9,0-9.9,0-14.8
		C49.6,12,50.3,12.3,50.8,12.3z M58.8,53.2h-3.1c-1.7,0-3.4,0-5.1,0c-0.7,0-1-0.1-1-0.9c0-3.2,0-3.2,3.1-3.2c2.7,0,5.5,0,8.2,0
		c0.7,0,1,0.1,1,0.9C62,53.2,62,53.2,58.8,53.2z M68.1,53.2c-2.1,0-2.1,0-2.1-2.1c0-2,0-2,2-2c2.1,0,2.1,0,2.1,2.1
		C70.1,53.2,70.1,53.2,68.1,53.2z M84.5,53.2c-2.1,0-2.1,0-2.1-2c0-2.1,0-2.1,2.1-2.1c1.9,0,1.9,0,1.9,2
		C86.5,53.2,86.5,53.2,84.5,53.2z M85,45.1c-1.7-0.1-3.5,0-5.2-0.1c-1.1-0.1-1.6,0.2-1.5,1.4c0.1,2,0,3.9,0,5.9
		c0,0.7-0.1,0.9-0.9,0.9c-3.2,0-3.2,0.1-3.2-3.2c0-1.2-0.1-2.5,0-3.7c0.1-1-0.2-1.4-1.3-1.3c-7.4,0.1-14.8,0-22.1,0.1
		c-0.9,0-1.2-0.1-1.2-1.1c0.1-3.4,0.1-6.7,0-10.1c0-0.8,0.2-1,1-1.1c3-0.5,5,0.6,6.5,3.2c1.2,2.1,2.9,4,4.4,6
		c0.5,0.7,0.7,0.7,1.2-0.1c3-5.4,6-10.8,9.1-16.5c0.9,2.2,1.8,4.2,2.5,6.3c0.3,0.9,0.8,1.2,1.7,1.1c3-0.1,6,0.1,9-0.1
		c1.3,0,1.5,0.4,1.5,1.5c-0.1,3.1-0.1,6.2,0,9.3C86.6,44.9,86.2,45.2,85,45.1z M86.2,8.2H50c-2.8,0-4.4,1.7-4.4,4.4V53
		c0,2.7,1.6,4.4,4.4,4.4c12.1,0,24.2,0,36.4,0c2.7,0,4.4-1.7,4.4-4.4c0-13.4,0-26.9,0-40.3C90.6,9.8,89,8.2,86.2,8.2z M50.8,12.3
		c9.3,0,18.7,0,28,0c2.3,0,4.5,0,6.8,0c0.7,0,0.9,0.2,0.9,0.9c0,4.9,0,9.7,0,14.6c0,0.7-0.2,0.9-0.9,0.9c-2.3,0-4.7-0.1-7,0
		c-0.8,0-1-0.3-1.3-0.9c-1.6-4-3.1-7.9-4.7-11.9c-0.5,0.3-0.6,0.8-0.8,1.1c-3.1,5.6-6.3,11.3-9.4,16.9c-0.6,1.1-0.9,0.9-1.5,0
		c-1.1-1.6-2.3-3.1-3.4-4.6c-0.4-0.6-0.8-0.7-1.5-0.7c-1.8,0-3.7,0-5.5,0c-0.6,0-0.8-0.2-0.8-0.8c0-4.9,0-9.9,0-14.8
		C49.6,12,50.3,12.3,50.8,12.3z M58.8,53.2h-3.1c-1.7,0-3.4,0-5.1,0c-0.7,0-1-0.1-1-0.9c0-3.2,0-3.2,3.1-3.2c2.7,0,5.5,0,8.2,0
		c0.7,0,1,0.1,1,0.9C62,53.2,62,53.2,58.8,53.2z M68.1,53.2c-2.1,0-2.1,0-2.1-2.1c0-2,0-2,2-2c2.1,0,2.1,0,2.1,2.1
		C70.1,53.2,70.1,53.2,68.1,53.2z M84.5,53.2c-2.1,0-2.1,0-2.1-2c0-2.1,0-2.1,2.1-2.1c1.9,0,1.9,0,1.9,2
		C86.5,53.2,86.5,53.2,84.5,53.2z M85,45.1c-1.7-0.1-3.5,0-5.2-0.1c-1.1-0.1-1.6,0.2-1.5,1.4c0.1,2,0,3.9,0,5.9
		c0,0.7-0.1,0.9-0.9,0.9c-3.2,0-3.2,0.1-3.2-3.2c0-1.2-0.1-2.5,0-3.7c0.1-1-0.2-1.4-1.3-1.3c-7.4,0.1-14.8,0-22.1,0.1
		c-0.9,0-1.2-0.1-1.2-1.1c0.1-3.4,0.1-6.7,0-10.1c0-0.8,0.2-1,1-1.1c3-0.5,5,0.6,6.5,3.2c1.2,2.1,2.9,4,4.4,6
		c0.5,0.7,0.7,0.7,1.2-0.1c3-5.4,6-10.8,9.1-16.5c0.9,2.2,1.8,4.2,2.5,6.3c0.3,0.9,0.8,1.2,1.7,1.1c3-0.1,6,0.1,9-0.1
		c1.3,0,1.5,0.4,1.5,1.5c-0.1,3.1-0.1,6.2,0,9.3C86.6,44.9,86.2,45.2,85,45.1z M86.2,8.2H50c-2.8,0-4.4,1.7-4.4,4.4V53
		c0,2.7,1.6,4.4,4.4,4.4c12.1,0,24.2,0,36.4,0c2.7,0,4.4-1.7,4.4-4.4c0-13.4,0-26.9,0-40.3C90.6,9.8,89,8.2,86.2,8.2z M50.8,12.3
		c9.3,0,18.7,0,28,0c2.3,0,4.5,0,6.8,0c0.7,0,0.9,0.2,0.9,0.9c0,4.9,0,9.7,0,14.6c0,0.7-0.2,0.9-0.9,0.9c-2.3,0-4.7-0.1-7,0
		c-0.8,0-1-0.3-1.3-0.9c-1.6-4-3.1-7.9-4.7-11.9c-0.5,0.3-0.6,0.8-0.8,1.1c-3.1,5.6-6.3,11.3-9.4,16.9c-0.6,1.1-0.9,0.9-1.5,0
		c-1.1-1.6-2.3-3.1-3.4-4.6c-0.4-0.6-0.8-0.7-1.5-0.7c-1.8,0-3.7,0-5.5,0c-0.6,0-0.8-0.2-0.8-0.8c0-4.9,0-9.9,0-14.8
		C49.6,12,50.3,12.3,50.8,12.3z M58.8,53.2h-3.1c-1.7,0-3.4,0-5.1,0c-0.7,0-1-0.1-1-0.9c0-3.2,0-3.2,3.1-3.2c2.7,0,5.5,0,8.2,0
		c0.7,0,1,0.1,1,0.9C62,53.2,62,53.2,58.8,53.2z M68.1,53.2c-2.1,0-2.1,0-2.1-2.1c0-2,0-2,2-2c2.1,0,2.1,0,2.1,2.1
		C70.1,53.2,70.1,53.2,68.1,53.2z M84.5,53.2c-2.1,0-2.1,0-2.1-2c0-2.1,0-2.1,2.1-2.1c1.9,0,1.9,0,1.9,2
		C86.5,53.2,86.5,53.2,84.5,53.2z M85,45.1c-1.7-0.1-3.5,0-5.2-0.1c-1.1-0.1-1.6,0.2-1.5,1.4c0.1,2,0,3.9,0,5.9
		c0,0.7-0.1,0.9-0.9,0.9c-3.2,0-3.2,0.1-3.2-3.2c0-1.2-0.1-2.5,0-3.7c0.1-1-0.2-1.4-1.3-1.3c-7.4,0.1-14.8,0-22.1,0.1
		c-0.9,0-1.2-0.1-1.2-1.1c0.1-3.4,0.1-6.7,0-10.1c0-0.8,0.2-1,1-1.1c3-0.5,5,0.6,6.5,3.2c1.2,2.1,2.9,4,4.4,6
		c0.5,0.7,0.7,0.7,1.2-0.1c3-5.4,6-10.8,9.1-16.5c0.9,2.2,1.8,4.2,2.5,6.3c0.3,0.9,0.8,1.2,1.7,1.1c3-0.1,6,0.1,9-0.1
		c1.3,0,1.5,0.4,1.5,1.5c-0.1,3.1-0.1,6.2,0,9.3C86.6,44.9,86.2,45.2,85,45.1z M86.2,8.2H50c-2.8,0-4.4,1.7-4.4,4.4V53
		c0,2.7,1.6,4.4,4.4,4.4c12.1,0,24.2,0,36.4,0c2.7,0,4.4-1.7,4.4-4.4c0-13.4,0-26.9,0-40.3C90.6,9.8,89,8.2,86.2,8.2z M50.8,12.3
		c9.3,0,18.7,0,28,0c2.3,0,4.5,0,6.8,0c0.7,0,0.9,0.2,0.9,0.9c0,4.9,0,9.7,0,14.6c0,0.7-0.2,0.9-0.9,0.9c-2.3,0-4.7-0.1-7,0
		c-0.8,0-1-0.3-1.3-0.9c-1.6-4-3.1-7.9-4.7-11.9c-0.5,0.3-0.6,0.8-0.8,1.1c-3.1,5.6-6.3,11.3-9.4,16.9c-0.6,1.1-0.9,0.9-1.5,0
		c-1.1-1.6-2.3-3.1-3.4-4.6c-0.4-0.6-0.8-0.7-1.5-0.7c-1.8,0-3.7,0-5.5,0c-0.6,0-0.8-0.2-0.8-0.8c0-4.9,0-9.9,0-14.8
		C49.6,12,50.3,12.3,50.8,12.3z M58.8,53.2h-3.1c-1.7,0-3.4,0-5.1,0c-0.7,0-1-0.1-1-0.9c0-3.2,0-3.2,3.1-3.2c2.7,0,5.5,0,8.2,0
		c0.7,0,1,0.1,1,0.9C62,53.2,62,53.2,58.8,53.2z M68.1,53.2c-2.1,0-2.1,0-2.1-2.1c0-2,0-2,2-2c2.1,0,2.1,0,2.1,2.1
		C70.1,53.2,70.1,53.2,68.1,53.2z M84.5,53.2c-2.1,0-2.1,0-2.1-2c0-2.1,0-2.1,2.1-2.1c1.9,0,1.9,0,1.9,2
		C86.5,53.2,86.5,53.2,84.5,53.2z M85,45.1c-1.7-0.1-3.5,0-5.2-0.1c-1.1-0.1-1.6,0.2-1.5,1.4c0.1,2,0,3.9,0,5.9
		c0,0.7-0.1,0.9-0.9,0.9c-3.2,0-3.2,0.1-3.2-3.2c0-1.2-0.1-2.5,0-3.7c0.1-1-0.2-1.4-1.3-1.3c-7.4,0.1-14.8,0-22.1,0.1
		c-0.9,0-1.2-0.1-1.2-1.1c0.1-3.4,0.1-6.7,0-10.1c0-0.8,0.2-1,1-1.1c3-0.5,5,0.6,6.5,3.2c1.2,2.1,2.9,4,4.4,6
		c0.5,0.7,0.7,0.7,1.2-0.1c3-5.4,6-10.8,9.1-16.5c0.9,2.2,1.8,4.2,2.5,6.3c0.3,0.9,0.8,1.2,1.7,1.1c3-0.1,6,0.1,9-0.1
		c1.3,0,1.5,0.4,1.5,1.5c-0.1,3.1-0.1,6.2,0,9.3C86.6,44.9,86.2,45.2,85,45.1z M86.2,8.2H50c-2.8,0-4.4,1.7-4.4,4.4V53
		c0,2.7,1.6,4.4,4.4,4.4c12.1,0,24.2,0,36.4,0c2.7,0,4.4-1.7,4.4-4.4c0-13.4,0-26.9,0-40.3C90.6,9.8,89,8.2,86.2,8.2z M50.8,12.3
		c9.3,0,18.7,0,28,0c2.3,0,4.5,0,6.8,0c0.7,0,0.9,0.2,0.9,0.9c0,4.9,0,9.7,0,14.6c0,0.7-0.2,0.9-0.9,0.9c-2.3,0-4.7-0.1-7,0
		c-0.8,0-1-0.3-1.3-0.9c-1.6-4-3.1-7.9-4.7-11.9c-0.5,0.3-0.6,0.8-0.8,1.1c-3.1,5.6-6.3,11.3-9.4,16.9c-0.6,1.1-0.9,0.9-1.5,0
		c-1.1-1.6-2.3-3.1-3.4-4.6c-0.4-0.6-0.8-0.7-1.5-0.7c-1.8,0-3.7,0-5.5,0c-0.6,0-0.8-0.2-0.8-0.8c0-4.9,0-9.9,0-14.8
		C49.6,12,50.3,12.3,50.8,12.3z M58.8,53.2h-3.1c-1.7,0-3.4,0-5.1,0c-0.7,0-1-0.1-1-0.9c0-3.2,0-3.2,3.1-3.2c2.7,0,5.5,0,8.2,0
		c0.7,0,1,0.1,1,0.9C62,53.2,62,53.2,58.8,53.2z M68.1,53.2c-2.1,0-2.1,0-2.1-2.1c0-2,0-2,2-2c2.1,0,2.1,0,2.1,2.1
		C70.1,53.2,70.1,53.2,68.1,53.2z M84.5,53.2c-2.1,0-2.1,0-2.1-2c0-2.1,0-2.1,2.1-2.1c1.9,0,1.9,0,1.9,2
		C86.5,53.2,86.5,53.2,84.5,53.2z M85,45.1c-1.7-0.1-3.5,0-5.2-0.1c-1.1-0.1-1.6,0.2-1.5,1.4c0.1,2,0,3.9,0,5.9
		c0,0.7-0.1,0.9-0.9,0.9c-3.2,0-3.2,0.1-3.2-3.2c0-1.2-0.1-2.5,0-3.7c0.1-1-0.2-1.4-1.3-1.3c-7.4,0.1-14.8,0-22.1,0.1
		c-0.9,0-1.2-0.1-1.2-1.1c0.1-3.4,0.1-6.7,0-10.1c0-0.8,0.2-1,1-1.1c3-0.5,5,0.6,6.5,3.2c1.2,2.1,2.9,4,4.4,6
		c0.5,0.7,0.7,0.7,1.2-0.1c3-5.4,6-10.8,9.1-16.5c0.9,2.2,1.8,4.2,2.5,6.3c0.3,0.9,0.8,1.2,1.7,1.1c3-0.1,6,0.1,9-0.1
		c1.3,0,1.5,0.4,1.5,1.5c-0.1,3.1-0.1,6.2,0,9.3C86.6,44.9,86.2,45.2,85,45.1z M86.2,8.2H50c-2.8,0-4.4,1.7-4.4,4.4V53
		c0,2.7,1.6,4.4,4.4,4.4c12.1,0,24.2,0,36.4,0c2.7,0,4.4-1.7,4.4-4.4c0-13.4,0-26.9,0-40.3C90.6,9.8,89,8.2,86.2,8.2z M50.8,12.3
		c9.3,0,18.7,0,28,0c2.3,0,4.5,0,6.8,0c0.7,0,0.9,0.2,0.9,0.9c0,4.9,0,9.7,0,14.6c0,0.7-0.2,0.9-0.9,0.9c-2.3,0-4.7-0.1-7,0
		c-0.8,0-1-0.3-1.3-0.9c-1.6-4-3.1-7.9-4.7-11.9c-0.5,0.3-0.6,0.8-0.8,1.1c-3.1,5.6-6.3,11.3-9.4,16.9c-0.6,1.1-0.9,0.9-1.5,0
		c-1.1-1.6-2.3-3.1-3.4-4.6c-0.4-0.6-0.8-0.7-1.5-0.7c-1.8,0-3.7,0-5.5,0c-0.6,0-0.8-0.2-0.8-0.8c0-4.9,0-9.9,0-14.8
		C49.6,12,50.3,12.3,50.8,12.3z M58.8,53.2h-3.1c-1.7,0-3.4,0-5.1,0c-0.7,0-1-0.1-1-0.9c0-3.2,0-3.2,3.1-3.2c2.7,0,5.5,0,8.2,0
		c0.7,0,1,0.1,1,0.9C62,53.2,62,53.2,58.8,53.2z M68.1,53.2c-2.1,0-2.1,0-2.1-2.1c0-2,0-2,2-2c2.1,0,2.1,0,2.1,2.1
		C70.1,53.2,70.1,53.2,68.1,53.2z M84.5,53.2c-2.1,0-2.1,0-2.1-2c0-2.1,0-2.1,2.1-2.1c1.9,0,1.9,0,1.9,2
		C86.5,53.2,86.5,53.2,84.5,53.2z M85,45.1c-1.7-0.1-3.5,0-5.2-0.1c-1.1-0.1-1.6,0.2-1.5,1.4c0.1,2,0,3.9,0,5.9
		c0,0.7-0.1,0.9-0.9,0.9c-3.2,0-3.2,0.1-3.2-3.2c0-1.2-0.1-2.5,0-3.7c0.1-1-0.2-1.4-1.3-1.3c-7.4,0.1-14.8,0-22.1,0.1
		c-0.9,0-1.2-0.1-1.2-1.1c0.1-3.4,0.1-6.7,0-10.1c0-0.8,0.2-1,1-1.1c3-0.5,5,0.6,6.5,3.2c1.2,2.1,2.9,4,4.4,6
		c0.5,0.7,0.7,0.7,1.2-0.1c3-5.4,6-10.8,9.1-16.5c0.9,2.2,1.8,4.2,2.5,6.3c0.3,0.9,0.8,1.2,1.7,1.1c3-0.1,6,0.1,9-0.1
		c1.3,0,1.5,0.4,1.5,1.5c-0.1,3.1-0.1,6.2,0,9.3C86.6,44.9,86.2,45.2,85,45.1z M86.2,8.2H50c-2.8,0-4.4,1.7-4.4,4.4V53
		c0,2.7,1.6,4.4,4.4,4.4c12.1,0,24.2,0,36.4,0c2.7,0,4.4-1.7,4.4-4.4c0-13.4,0-26.9,0-40.3C90.6,9.8,89,8.2,86.2,8.2z M50.8,12.3
		c9.3,0,18.7,0,28,0c2.3,0,4.5,0,6.8,0c0.7,0,0.9,0.2,0.9,0.9c0,4.9,0,9.7,0,14.6c0,0.7-0.2,0.9-0.9,0.9c-2.3,0-4.7-0.1-7,0
		c-0.8,0-1-0.3-1.3-0.9c-1.6-4-3.1-7.9-4.7-11.9c-0.5,0.3-0.6,0.8-0.8,1.1c-3.1,5.6-6.3,11.3-9.4,16.9c-0.6,1.1-0.9,0.9-1.5,0
		c-1.1-1.6-2.3-3.1-3.4-4.6c-0.4-0.6-0.8-0.7-1.5-0.7c-1.8,0-3.7,0-5.5,0c-0.6,0-0.8-0.2-0.8-0.8c0-4.9,0-9.9,0-14.8
		C49.6,12,50.3,12.3,50.8,12.3z M58.8,53.2h-3.1c-1.7,0-3.4,0-5.1,0c-0.7,0-1-0.1-1-0.9c0-3.2,0-3.2,3.1-3.2c2.7,0,5.5,0,8.2,0
		c0.7,0,1,0.1,1,0.9C62,53.2,62,53.2,58.8,53.2z M68.1,53.2c-2.1,0-2.1,0-2.1-2.1c0-2,0-2,2-2c2.1,0,2.1,0,2.1,2.1
		C70.1,53.2,70.1,53.2,68.1,53.2z M84.5,53.2c-2.1,0-2.1,0-2.1-2c0-2.1,0-2.1,2.1-2.1c1.9,0,1.9,0,1.9,2
		C86.5,53.2,86.5,53.2,84.5,53.2z M85,45.1c-1.7-0.1-3.5,0-5.2-0.1c-1.1-0.1-1.6,0.2-1.5,1.4c0.1,2,0,3.9,0,5.9
		c0,0.7-0.1,0.9-0.9,0.9c-3.2,0-3.2,0.1-3.2-3.2c0-1.2-0.1-2.5,0-3.7c0.1-1-0.2-1.4-1.3-1.3c-7.4,0.1-14.8,0-22.1,0.1
		c-0.9,0-1.2-0.1-1.2-1.1c0.1-3.4,0.1-6.7,0-10.1c0-0.8,0.2-1,1-1.1c3-0.5,5,0.6,6.5,3.2c1.2,2.1,2.9,4,4.4,6
		c0.5,0.7,0.7,0.7,1.2-0.1c3-5.4,6-10.8,9.1-16.5c0.9,2.2,1.8,4.2,2.5,6.3c0.3,0.9,0.8,1.2,1.7,1.1c3-0.1,6,0.1,9-0.1
		c1.3,0,1.5,0.4,1.5,1.5c-0.1,3.1-0.1,6.2,0,9.3C86.6,44.9,86.2,45.2,85,45.1z M86.2,8.2H50c-2.8,0-4.4,1.7-4.4,4.4V53
		c0,2.7,1.6,4.4,4.4,4.4c12.1,0,24.2,0,36.4,0c2.7,0,4.4-1.7,4.4-4.4c0-13.4,0-26.9,0-40.3C90.6,9.8,89,8.2,86.2,8.2z M50.8,12.3
		c9.3,0,18.7,0,28,0c2.3,0,4.5,0,6.8,0c0.7,0,0.9,0.2,0.9,0.9c0,4.9,0,9.7,0,14.6c0,0.7-0.2,0.9-0.9,0.9c-2.3,0-4.7-0.1-7,0
		c-0.8,0-1-0.3-1.3-0.9c-1.6-4-3.1-7.9-4.7-11.9c-0.5,0.3-0.6,0.8-0.8,1.1c-3.1,5.6-6.3,11.3-9.4,16.9c-0.6,1.1-0.9,0.9-1.5,0
		c-1.1-1.6-2.3-3.1-3.4-4.6c-0.4-0.6-0.8-0.7-1.5-0.7c-1.8,0-3.7,0-5.5,0c-0.6,0-0.8-0.2-0.8-0.8c0-4.9,0-9.9,0-14.8
		C49.6,12,50.3,12.3,50.8,12.3z M58.8,53.2h-3.1c-1.7,0-3.4,0-5.1,0c-0.7,0-1-0.1-1-0.9c0-3.2,0-3.2,3.1-3.2c2.7,0,5.5,0,8.2,0
		c0.7,0,1,0.1,1,0.9C62,53.2,62,53.2,58.8,53.2z M68.1,53.2c-2.1,0-2.1,0-2.1-2.1c0-2,0-2,2-2c2.1,0,2.1,0,2.1,2.1
		C70.1,53.2,70.1,53.2,68.1,53.2z M84.5,53.2c-2.1,0-2.1,0-2.1-2c0-2.1,0-2.1,2.1-2.1c1.9,0,1.9,0,1.9,2
		C86.5,53.2,86.5,53.2,84.5,53.2z M85,45.1c-1.7-0.1-3.5,0-5.2-0.1c-1.1-0.1-1.6,0.2-1.5,1.4c0.1,2,0,3.9,0,5.9
		c0,0.7-0.1,0.9-0.9,0.9c-3.2,0-3.2,0.1-3.2-3.2c0-1.2-0.1-2.5,0-3.7c0.1-1-0.2-1.4-1.3-1.3c-7.4,0.1-14.8,0-22.1,0.1
		c-0.9,0-1.2-0.1-1.2-1.1c0.1-3.4,0.1-6.7,0-10.1c0-0.8,0.2-1,1-1.1c3-0.5,5,0.6,6.5,3.2c1.2,2.1,2.9,4,4.4,6
		c0.5,0.7,0.7,0.7,1.2-0.1c3-5.4,6-10.8,9.1-16.5c0.9,2.2,1.8,4.2,2.5,6.3c0.3,0.9,0.8,1.2,1.7,1.1c3-0.1,6,0.1,9-0.1
		c1.3,0,1.5,0.4,1.5,1.5c-0.1,3.1-0.1,6.2,0,9.3C86.6,44.9,86.2,45.2,85,45.1z M86.2,8.2H50c-2.8,0-4.4,1.7-4.4,4.4V53
		c0,2.7,1.6,4.4,4.4,4.4c12.1,0,24.2,0,36.4,0c2.7,0,4.4-1.7,4.4-4.4c0-13.4,0-26.9,0-40.3C90.6,9.8,89,8.2,86.2,8.2z M50.8,12.3
		c9.3,0,18.7,0,28,0c2.3,0,4.5,0,6.8,0c0.7,0,0.9,0.2,0.9,0.9c0,4.9,0,9.7,0,14.6c0,0.7-0.2,0.9-0.9,0.9c-2.3,0-4.7-0.1-7,0
		c-0.8,0-1-0.3-1.3-0.9c-1.6-4-3.1-7.9-4.7-11.9c-0.5,0.3-0.6,0.8-0.8,1.1c-3.1,5.6-6.3,11.3-9.4,16.9c-0.6,1.1-0.9,0.9-1.5,0
		c-1.1-1.6-2.3-3.1-3.4-4.6c-0.4-0.6-0.8-0.7-1.5-0.7c-1.8,0-3.7,0-5.5,0c-0.6,0-0.8-0.2-0.8-0.8c0-4.9,0-9.9,0-14.8
		C49.6,12,50.3,12.3,50.8,12.3z M58.8,53.2h-3.1c-1.7,0-3.4,0-5.1,0c-0.7,0-1-0.1-1-0.9c0-3.2,0-3.2,3.1-3.2c2.7,0,5.5,0,8.2,0
		c0.7,0,1,0.1,1,0.9C62,53.2,62,53.2,58.8,53.2z M68.1,53.2c-2.1,0-2.1,0-2.1-2.1c0-2,0-2,2-2c2.1,0,2.1,0,2.1,2.1
		C70.1,53.2,70.1,53.2,68.1,53.2z M84.5,53.2c-2.1,0-2.1,0-2.1-2c0-2.1,0-2.1,2.1-2.1c1.9,0,1.9,0,1.9,2
		C86.5,53.2,86.5,53.2,84.5,53.2z M85,45.1c-1.7-0.1-3.5,0-5.2-0.1c-1.1-0.1-1.6,0.2-1.5,1.4c0.1,2,0,3.9,0,5.9
		c0,0.7-0.1,0.9-0.9,0.9c-3.2,0-3.2,0.1-3.2-3.2c0-1.2-0.1-2.5,0-3.7c0.1-1-0.2-1.4-1.3-1.3c-7.4,0.1-14.8,0-22.1,0.1
		c-0.9,0-1.2-0.1-1.2-1.1c0.1-3.4,0.1-6.7,0-10.1c0-0.8,0.2-1,1-1.1c3-0.5,5,0.6,6.5,3.2c1.2,2.1,2.9,4,4.4,6
		c0.5,0.7,0.7,0.7,1.2-0.1c3-5.4,6-10.8,9.1-16.5c0.9,2.2,1.8,4.2,2.5,6.3c0.3,0.9,0.8,1.2,1.7,1.1c3-0.1,6,0.1,9-0.1
		c1.3,0,1.5,0.4,1.5,1.5c-0.1,3.1-0.1,6.2,0,9.3C86.6,44.9,86.2,45.2,85,45.1z M105.8,29.9c-1.1-1.2-2.5-1.3-4-1.2
		c-3.1,0-3.1,0-3.1-3.1c0-0.7,0.1-1.1,1-1c1.1,0.1,2.1,0,3.2,0c2.3,0,4-1.8,4.1-4c0-1.4,0-2.8,0-4.2c0-2.3-1.8-4-4.1-4
		c-1.1,0-2.1,0-3.2,0c-0.7,0-1-0.1-0.9-0.9c0.1-1.1,0-2.1,0-3.2c0-4.6-3.6-8.2-8.1-8.2C75.6,0,60.5,0,45.5,0c-4.5,0-8.1,3.6-8.1,8.1
		c0,16.4,0,32.8,0,49.3c0,3.8,2.5,6.9,6.2,7.9c1.7,0.4,3.4,0.2,5.1,0.2c0.9,0,1.2,0.3,1.2,1.1c0.1,2.1,0.1,4.3,0.4,6.4
		c0.2,1.2-0.3,1.5-1.3,1.7c-5.3,1.4-9.8,4.2-13.6,8.1c-0.6,0.6-1,0.7-1.7,0.5c-6.3-1.8-12.6-3.6-18.9-5.4c-3.3-1-6.7-1.9-10-2.9V128
		c0.4-0.2,0.8-0.3,1.1-0.4c9.3-4,18.7-8,28-12.1c0.9-0.4,1.6-0.4,2.4,0.2c5,3.2,10.5,4.9,16.5,5.1c0.8,0,1,0.3,1.2,0.9
		c1.3,3.3,4.2,5.2,7.7,5.2c4.3,0,8.6,0,12.9,0c0.6,0,1.2,0,1.8-0.1c3.6-1,5.8-3.2,6.4-6.9c0.1-0.9,0.4-1.2,1.4-1.1
		c1.4,0.1,2.7,0,4.1,0c2.6,0.1,4.6-1,5.8-3.2c1.2-2.2,1-4.4-0.4-6.5c-0.3-0.4-0.3-0.7,0-1.1c1.6-2.4,1.6-4.8,0-7.1
		c-0.3-0.4-0.3-0.6,0-1c1.3-1.7,1.5-3.6,0.9-5.7c0.8,0,1.5,0,2.2,0c3.6,0,6.3-2.7,6.3-6.2c0-3.5-2.7-6.1-6.3-6.1
		c-3.5,0-6.9,0-10.4,0c-0.7,0-0.9-0.1-0.9-0.9c0.2-1.9,0.2-3.8,0.4-5.7c0.2-2.9,0.4-5.9,0.6-8.8c0-0.7,0.3-1,1.1-1
		c1.1,0.1,2.2,0,3.3,0c3.7,0,6.9-2.5,7.8-6.1c0.4-1.6,0.2-3.1,0.2-4.7c0-1.1,0.2-1.6,1.4-1.5c0.9,0.1,1.9,0,2.8,0c2.2,0,4-1.8,4-4
		c0-5.5,0-11.1,0-16.6C107,31.5,106.5,30.7,105.8,29.9z M100.8,16.4c2.1,0,2.1,0,2.1,2.1c0,2,0,2-2,2c-2.1,0-2.1,0-2.1-2.1
		C98.8,16.4,98.8,16.4,100.8,16.4z M33.3,110.4c0,0.5,0,0.9-0.6,1.2c-7.8,3.3-15.7,6.7-23.5,10c-0.1,0-0.2,0-0.3,0v-41
		c4.9,1.4,9.9,2.8,14.8,4.2c2.9,0.8,5.9,1.7,8.8,2.5c0.7,0.2,0.9,0.4,0.9,1.2C33.2,95.8,33.3,103.1,33.3,110.4z M66,106.3
		c0,5.1,0,10.1,0,15.2c0,1.2-0.4,1.5-1.5,1.4c-1-0.1-2,0-2.9,0c-2.3-0.1-3.9-1.6-4.1-3.9c-0.4-6.1-0.8-12.2-1.3-18.2
		c-0.2-3.2-0.4-6.4-0.7-9.6c-0.1-0.9,0.1-1.1,1-1.1c3-0.1,6,0.4,8.9-0.5c0.9-0.3,0.5,0.6,0.5,0.9C66,95.8,66,101,66,106.3z M61.8,86
		c-2.4,0-4.8,0-7.2,0c-1.2,0-2.2,0.4-3,1.2c-1.7,1.7-3.3,3.3-5,5c-0.5,0.4-0.5,0.7,0,1.2c0.8,0.7,1.4,1.9,2.3,2.1
		c0.8,0.1,1.4-1.2,2.2-1.9c0.1-0.1,0.2-0.1,0.4-0.2c0.2,2.9,0.4,5.7,0.6,8.6c0.3,4.6,0.6,9.3,0.9,13.9c0.1,0.7-0.1,0.9-0.8,0.8
		c-5.1-0.4-9.8-1.9-14.1-4.6c-0.6-0.4-0.8-0.8-0.8-1.5c0-7.6,0-15.2,0-22.8c0-0.6,0.1-1.1,0.6-1.6c4.3-4.6,9.5-7.5,15.9-8.1
		c5.2-0.5,10.4-0.1,15.6-0.3c0.7,0,0.8,0.2,0.7,0.8C69.6,82.9,66.2,85.9,61.8,86z M66,72.9c0,0.6-0.2,0.8-0.8,0.8
		c-3.4,0-6.7,0-10.1,0c-0.6,0-0.7-0.2-0.7-0.7c-0.1-2.2-0.3-4.3-0.5-6.5c-0.1-0.9,0.3-1,1.1-1c1.6,0,3.2,0,4.9,0c1.8,0,3.6,0,5.4,0
		c0.6,0,0.8,0.2,0.8,0.8C66,68.5,66,70.7,66,72.9z M82.2,66.4c-0.2,3.1-0.4,6.3-0.6,9.4c-0.3,4.5-0.6,9.1-0.9,13.6
		c-0.4,5.9-0.8,11.8-1.2,17.7c-0.3,4-0.5,7.9-0.8,11.9c-0.2,2.2-1.8,3.7-4,3.8c-1.4,0-3.3,0.5-4.2-0.2c-0.9-0.7-0.2-2.6-0.3-4
		c0-4.6,0-9.2,0-13.8c0-5.6,0-11.2,0-16.8c0-0.7,0.2-1.3,0.7-1.8c2.2-2.3,3.4-5.1,3.4-8.3c0-2.2-1.2-3.8-3.4-4.2
		c-0.6-0.1-0.7-0.3-0.7-0.8c0-2.2,0-4.4,0-6.7c0-0.6,0.1-0.8,0.7-0.8c3.5,0,7.1,0,10.6,0C82.2,65.5,82.2,65.8,82.2,66.4z
		 M88.5,114.7c-0.8,0.1-1.5,0-2.3,0c0,0,0,0,0,0h-1.5c-1.6,0-1.6,0-1.5-1.7c0.2-2.4,0.2-2.4,2.6-2.4c0.9,0,1.8,0,2.7,0
		c1.2,0.1,2.1,1,2.1,2C90.6,113.7,89.7,114.6,88.5,114.7z M88.4,106.5c-0.7,0-1.4,0-2,0c-2.7,0-2.6,0-2.5-2.7c0-1.3,0.5-1.6,1.6-1.4
		c1,0.1,2,0,2.9,0c1.3,0.1,2.2,0.9,2.2,2C90.6,105.5,89.7,106.4,88.4,106.5z M88.5,98.3c-0.6,0-1.3,0-1.9,0c-2.4,0-2.4,0-2.2-2.3
		c0.1-1.8,0.1-1.8,1.9-1.8c0.7,0,1.4,0,2.2,0c1.2,0.1,2.1,1,2.1,2C90.6,97.3,89.7,98.2,88.5,98.3z M86,86c3.5,0.1,6.9,0,10.4,0
		c1,0,1.7,0.3,2.2,1.2c0.4,0.7,0.2,1.4-0.2,2c-0.5,0.7-1.2,0.9-2,0.9c-1.8,0-3.6,0-5.4,0c-1.8,0-3.6,0-5.4,0c-0.7,0-0.8-0.2-0.7-0.9
		c0.1-0.7,0.2-1.4,0.1-2.2C84.9,86.3,85.1,86,86,86z M94.7,56.6c0,3.2-1.6,4.8-4.9,4.8c-14.5,0-29,0-43.5,0c-3.3,0-4.9-1.6-4.9-4.9
		c0-7.9,0-15.9,0-23.8V9c0-3.3,1.6-4.9,4.9-4.9c14.5,0,28.9,0,43.4,0c3.4,0,4.9,1.6,4.9,4.9V56.6z M101.9,49.2c-3.1,0-3.1,0-3.1-3
		v-5.2c0-2.4,0-4.8,0-7.2c0-0.8,0.2-1,1-1c3.1,0,3.1,0,3.1,3c0,4.1,0,8.3,0,12.4C102.9,49,102.7,49.2,101.9,49.2z M86.2,8.2H50
		c-2.8,0-4.4,1.7-4.4,4.4V53c0,2.7,1.6,4.4,4.4,4.4c12.1,0,24.2,0,36.4,0c2.7,0,4.4-1.7,4.4-4.4c0-13.4,0-26.9,0-40.3
		C90.6,9.8,89,8.2,86.2,8.2z M50.8,12.3c9.3,0,18.7,0,28,0c2.3,0,4.5,0,6.8,0c0.7,0,0.9,0.2,0.9,0.9c0,4.9,0,9.7,0,14.6
		c0,0.7-0.2,0.9-0.9,0.9c-2.3,0-4.7-0.1-7,0c-0.8,0-1-0.3-1.3-0.9c-1.6-4-3.1-7.9-4.7-11.9c-0.5,0.3-0.6,0.8-0.8,1.1
		c-3.1,5.6-6.3,11.3-9.4,16.9c-0.6,1.1-0.9,0.9-1.5,0c-1.1-1.6-2.3-3.1-3.4-4.6c-0.4-0.6-0.8-0.7-1.5-0.7c-1.8,0-3.7,0-5.5,0
		c-0.6,0-0.8-0.2-0.8-0.8c0-4.9,0-9.9,0-14.8C49.6,12,50.3,12.3,50.8,12.3z M58.8,53.2h-3.1c-1.7,0-3.4,0-5.1,0c-0.7,0-1-0.1-1-0.9
		c0-3.2,0-3.2,3.1-3.2c2.7,0,5.5,0,8.2,0c0.7,0,1,0.1,1,0.9C62,53.2,62,53.2,58.8,53.2z M68.1,53.2c-2.1,0-2.1,0-2.1-2.1
		c0-2,0-2,2-2c2.1,0,2.1,0,2.1,2.1C70.1,53.2,70.1,53.2,68.1,53.2z M84.5,53.2c-2.1,0-2.1,0-2.1-2c0-2.1,0-2.1,2.1-2.1
		c1.9,0,1.9,0,1.9,2C86.5,53.2,86.5,53.2,84.5,53.2z M85,45.1c-1.7-0.1-3.5,0-5.2-0.1c-1.1-0.1-1.6,0.2-1.5,1.4c0.1,2,0,3.9,0,5.9
		c0,0.7-0.1,0.9-0.9,0.9c-3.2,0-3.2,0.1-3.2-3.2c0-1.2-0.1-2.5,0-3.7c0.1-1-0.2-1.4-1.3-1.3c-7.4,0.1-14.8,0-22.1,0.1
		c-0.9,0-1.2-0.1-1.2-1.1c0.1-3.4,0.1-6.7,0-10.1c0-0.8,0.2-1,1-1.1c3-0.5,5,0.6,6.5,3.2c1.2,2.1,2.9,4,4.4,6
		c0.5,0.7,0.7,0.7,1.2-0.1c3-5.4,6-10.8,9.1-16.5c0.9,2.2,1.8,4.2,2.5,6.3c0.3,0.9,0.8,1.2,1.7,1.1c3-0.1,6,0.1,9-0.1
		c1.3,0,1.5,0.4,1.5,1.5c-0.1,3.1-0.1,6.2,0,9.3C86.6,44.9,86.2,45.2,85,45.1z M86.2,8.2H50c-2.8,0-4.4,1.7-4.4,4.4V53
		c0,2.7,1.6,4.4,4.4,4.4c12.1,0,24.2,0,36.4,0c2.7,0,4.4-1.7,4.4-4.4c0-13.4,0-26.9,0-40.3C90.6,9.8,89,8.2,86.2,8.2z M50.8,12.3
		c9.3,0,18.7,0,28,0c2.3,0,4.5,0,6.8,0c0.7,0,0.9,0.2,0.9,0.9c0,4.9,0,9.7,0,14.6c0,0.7-0.2,0.9-0.9,0.9c-2.3,0-4.7-0.1-7,0
		c-0.8,0-1-0.3-1.3-0.9c-1.6-4-3.1-7.9-4.7-11.9c-0.5,0.3-0.6,0.8-0.8,1.1c-3.1,5.6-6.3,11.3-9.4,16.9c-0.6,1.1-0.9,0.9-1.5,0
		c-1.1-1.6-2.3-3.1-3.4-4.6c-0.4-0.6-0.8-0.7-1.5-0.7c-1.8,0-3.7,0-5.5,0c-0.6,0-0.8-0.2-0.8-0.8c0-4.9,0-9.9,0-14.8
		C49.6,12,50.3,12.3,50.8,12.3z M58.8,53.2h-3.1c-1.7,0-3.4,0-5.1,0c-0.7,0-1-0.1-1-0.9c0-3.2,0-3.2,3.1-3.2c2.7,0,5.5,0,8.2,0
		c0.7,0,1,0.1,1,0.9C62,53.2,62,53.2,58.8,53.2z M68.1,53.2c-2.1,0-2.1,0-2.1-2.1c0-2,0-2,2-2c2.1,0,2.1,0,2.1,2.1
		C70.1,53.2,70.1,53.2,68.1,53.2z M84.5,53.2c-2.1,0-2.1,0-2.1-2c0-2.1,0-2.1,2.1-2.1c1.9,0,1.9,0,1.9,2
		C86.5,53.2,86.5,53.2,84.5,53.2z M85,45.1c-1.7-0.1-3.5,0-5.2-0.1c-1.1-0.1-1.6,0.2-1.5,1.4c0.1,2,0,3.9,0,5.9
		c0,0.7-0.1,0.9-0.9,0.9c-3.2,0-3.2,0.1-3.2-3.2c0-1.2-0.1-2.5,0-3.7c0.1-1-0.2-1.4-1.3-1.3c-7.4,0.1-14.8,0-22.1,0.1
		c-0.9,0-1.2-0.1-1.2-1.1c0.1-3.4,0.1-6.7,0-10.1c0-0.8,0.2-1,1-1.1c3-0.5,5,0.6,6.5,3.2c1.2,2.1,2.9,4,4.4,6
		c0.5,0.7,0.7,0.7,1.2-0.1c3-5.4,6-10.8,9.1-16.5c0.9,2.2,1.8,4.2,2.5,6.3c0.3,0.9,0.8,1.2,1.7,1.1c3-0.1,6,0.1,9-0.1
		c1.3,0,1.5,0.4,1.5,1.5c-0.1,3.1-0.1,6.2,0,9.3C86.6,44.9,86.2,45.2,85,45.1z M86.2,8.2H50c-2.8,0-4.4,1.7-4.4,4.4V53
		c0,2.7,1.6,4.4,4.4,4.4c12.1,0,24.2,0,36.4,0c2.7,0,4.4-1.7,4.4-4.4c0-13.4,0-26.9,0-40.3C90.6,9.8,89,8.2,86.2,8.2z M50.8,12.3
		c9.3,0,18.7,0,28,0c2.3,0,4.5,0,6.8,0c0.7,0,0.9,0.2,0.9,0.9c0,4.9,0,9.7,0,14.6c0,0.7-0.2,0.9-0.9,0.9c-2.3,0-4.7-0.1-7,0
		c-0.8,0-1-0.3-1.3-0.9c-1.6-4-3.1-7.9-4.7-11.9c-0.5,0.3-0.6,0.8-0.8,1.1c-3.1,5.6-6.3,11.3-9.4,16.9c-0.6,1.1-0.9,0.9-1.5,0
		c-1.1-1.6-2.3-3.1-3.4-4.6c-0.4-0.6-0.8-0.7-1.5-0.7c-1.8,0-3.7,0-5.5,0c-0.6,0-0.8-0.2-0.8-0.8c0-4.9,0-9.9,0-14.8
		C49.6,12,50.3,12.3,50.8,12.3z M58.8,53.2h-3.1c-1.7,0-3.4,0-5.1,0c-0.7,0-1-0.1-1-0.9c0-3.2,0-3.2,3.1-3.2c2.7,0,5.5,0,8.2,0
		c0.7,0,1,0.1,1,0.9C62,53.2,62,53.2,58.8,53.2z M68.1,53.2c-2.1,0-2.1,0-2.1-2.1c0-2,0-2,2-2c2.1,0,2.1,0,2.1,2.1
		C70.1,53.2,70.1,53.2,68.1,53.2z M84.5,53.2c-2.1,0-2.1,0-2.1-2c0-2.1,0-2.1,2.1-2.1c1.9,0,1.9,0,1.9,2
		C86.5,53.2,86.5,53.2,84.5,53.2z M85,45.1c-1.7-0.1-3.5,0-5.2-0.1c-1.1-0.1-1.6,0.2-1.5,1.4c0.1,2,0,3.9,0,5.9
		c0,0.7-0.1,0.9-0.9,0.9c-3.2,0-3.2,0.1-3.2-3.2c0-1.2-0.1-2.5,0-3.7c0.1-1-0.2-1.4-1.3-1.3c-7.4,0.1-14.8,0-22.1,0.1
		c-0.9,0-1.2-0.1-1.2-1.1c0.1-3.4,0.1-6.7,0-10.1c0-0.8,0.2-1,1-1.1c3-0.5,5,0.6,6.5,3.2c1.2,2.1,2.9,4,4.4,6
		c0.5,0.7,0.7,0.7,1.2-0.1c3-5.4,6-10.8,9.1-16.5c0.9,2.2,1.8,4.2,2.5,6.3c0.3,0.9,0.8,1.2,1.7,1.1c3-0.1,6,0.1,9-0.1
		c1.3,0,1.5,0.4,1.5,1.5c-0.1,3.1-0.1,6.2,0,9.3C86.6,44.9,86.2,45.2,85,45.1z M86.2,8.2H50c-2.8,0-4.4,1.7-4.4,4.4V53
		c0,2.7,1.6,4.4,4.4,4.4c12.1,0,24.2,0,36.4,0c2.7,0,4.4-1.7,4.4-4.4c0-13.4,0-26.9,0-40.3C90.6,9.8,89,8.2,86.2,8.2z M50.8,12.3
		c9.3,0,18.7,0,28,0c2.3,0,4.5,0,6.8,0c0.7,0,0.9,0.2,0.9,0.9c0,4.9,0,9.7,0,14.6c0,0.7-0.2,0.9-0.9,0.9c-2.3,0-4.7-0.1-7,0
		c-0.8,0-1-0.3-1.3-0.9c-1.6-4-3.1-7.9-4.7-11.9c-0.5,0.3-0.6,0.8-0.8,1.1c-3.1,5.6-6.3,11.3-9.4,16.9c-0.6,1.1-0.9,0.9-1.5,0
		c-1.1-1.6-2.3-3.1-3.4-4.6c-0.4-0.6-0.8-0.7-1.5-0.7c-1.8,0-3.7,0-5.5,0c-0.6,0-0.8-0.2-0.8-0.8c0-4.9,0-9.9,0-14.8
		C49.6,12,50.3,12.3,50.8,12.3z M58.8,53.2h-3.1c-1.7,0-3.4,0-5.1,0c-0.7,0-1-0.1-1-0.9c0-3.2,0-3.2,3.1-3.2c2.7,0,5.5,0,8.2,0
		c0.7,0,1,0.1,1,0.9C62,53.2,62,53.2,58.8,53.2z M68.1,53.2c-2.1,0-2.1,0-2.1-2.1c0-2,0-2,2-2c2.1,0,2.1,0,2.1,2.1
		C70.1,53.2,70.1,53.2,68.1,53.2z M84.5,53.2c-2.1,0-2.1,0-2.1-2c0-2.1,0-2.1,2.1-2.1c1.9,0,1.9,0,1.9,2
		C86.5,53.2,86.5,53.2,84.5,53.2z M85,45.1c-1.7-0.1-3.5,0-5.2-0.1c-1.1-0.1-1.6,0.2-1.5,1.4c0.1,2,0,3.9,0,5.9
		c0,0.7-0.1,0.9-0.9,0.9c-3.2,0-3.2,0.1-3.2-3.2c0-1.2-0.1-2.5,0-3.7c0.1-1-0.2-1.4-1.3-1.3c-7.4,0.1-14.8,0-22.1,0.1
		c-0.9,0-1.2-0.1-1.2-1.1c0.1-3.4,0.1-6.7,0-10.1c0-0.8,0.2-1,1-1.1c3-0.5,5,0.6,6.5,3.2c1.2,2.1,2.9,4,4.4,6
		c0.5,0.7,0.7,0.7,1.2-0.1c3-5.4,6-10.8,9.1-16.5c0.9,2.2,1.8,4.2,2.5,6.3c0.3,0.9,0.8,1.2,1.7,1.1c3-0.1,6,0.1,9-0.1
		c1.3,0,1.5,0.4,1.5,1.5c-0.1,3.1-0.1,6.2,0,9.3C86.6,44.9,86.2,45.2,85,45.1z M86.2,8.2H50c-2.8,0-4.4,1.7-4.4,4.4V53
		c0,2.7,1.6,4.4,4.4,4.4c12.1,0,24.2,0,36.4,0c2.7,0,4.4-1.7,4.4-4.4c0-13.4,0-26.9,0-40.3C90.6,9.8,89,8.2,86.2,8.2z M50.8,12.3
		c9.3,0,18.7,0,28,0c2.3,0,4.5,0,6.8,0c0.7,0,0.9,0.2,0.9,0.9c0,4.9,0,9.7,0,14.6c0,0.7-0.2,0.9-0.9,0.9c-2.3,0-4.7-0.1-7,0
		c-0.8,0-1-0.3-1.3-0.9c-1.6-4-3.1-7.9-4.7-11.9c-0.5,0.3-0.6,0.8-0.8,1.1c-3.1,5.6-6.3,11.3-9.4,16.9c-0.6,1.1-0.9,0.9-1.5,0
		c-1.1-1.6-2.3-3.1-3.4-4.6c-0.4-0.6-0.8-0.7-1.5-0.7c-1.8,0-3.7,0-5.5,0c-0.6,0-0.8-0.2-0.8-0.8c0-4.9,0-9.9,0-14.8
		C49.6,12,50.3,12.3,50.8,12.3z M58.8,53.2h-3.1c-1.7,0-3.4,0-5.1,0c-0.7,0-1-0.1-1-0.9c0-3.2,0-3.2,3.1-3.2c2.7,0,5.5,0,8.2,0
		c0.7,0,1,0.1,1,0.9C62,53.2,62,53.2,58.8,53.2z M68.1,53.2c-2.1,0-2.1,0-2.1-2.1c0-2,0-2,2-2c2.1,0,2.1,0,2.1,2.1
		C70.1,53.2,70.1,53.2,68.1,53.2z M84.5,53.2c-2.1,0-2.1,0-2.1-2c0-2.1,0-2.1,2.1-2.1c1.9,0,1.9,0,1.9,2
		C86.5,53.2,86.5,53.2,84.5,53.2z M85,45.1c-1.7-0.1-3.5,0-5.2-0.1c-1.1-0.1-1.6,0.2-1.5,1.4c0.1,2,0,3.9,0,5.9
		c0,0.7-0.1,0.9-0.9,0.9c-3.2,0-3.2,0.1-3.2-3.2c0-1.2-0.1-2.5,0-3.7c0.1-1-0.2-1.4-1.3-1.3c-7.4,0.1-14.8,0-22.1,0.1
		c-0.9,0-1.2-0.1-1.2-1.1c0.1-3.4,0.1-6.7,0-10.1c0-0.8,0.2-1,1-1.1c3-0.5,5,0.6,6.5,3.2c1.2,2.1,2.9,4,4.4,6
		c0.5,0.7,0.7,0.7,1.2-0.1c3-5.4,6-10.8,9.1-16.5c0.9,2.2,1.8,4.2,2.5,6.3c0.3,0.9,0.8,1.2,1.7,1.1c3-0.1,6,0.1,9-0.1
		c1.3,0,1.5,0.4,1.5,1.5c-0.1,3.1-0.1,6.2,0,9.3C86.6,44.9,86.2,45.2,85,45.1z M86.2,8.2H50c-2.8,0-4.4,1.7-4.4,4.4V53
		c0,2.7,1.6,4.4,4.4,4.4c12.1,0,24.2,0,36.4,0c2.7,0,4.4-1.7,4.4-4.4c0-13.4,0-26.9,0-40.3C90.6,9.8,89,8.2,86.2,8.2z M50.8,12.3
		c9.3,0,18.7,0,28,0c2.3,0,4.5,0,6.8,0c0.7,0,0.9,0.2,0.9,0.9c0,4.9,0,9.7,0,14.6c0,0.7-0.2,0.9-0.9,0.9c-2.3,0-4.7-0.1-7,0
		c-0.8,0-1-0.3-1.3-0.9c-1.6-4-3.1-7.9-4.7-11.9c-0.5,0.3-0.6,0.8-0.8,1.1c-3.1,5.6-6.3,11.3-9.4,16.9c-0.6,1.1-0.9,0.9-1.5,0
		c-1.1-1.6-2.3-3.1-3.4-4.6c-0.4-0.6-0.8-0.7-1.5-0.7c-1.8,0-3.7,0-5.5,0c-0.6,0-0.8-0.2-0.8-0.8c0-4.9,0-9.9,0-14.8
		C49.6,12,50.3,12.3,50.8,12.3z M58.8,53.2h-3.1c-1.7,0-3.4,0-5.1,0c-0.7,0-1-0.1-1-0.9c0-3.2,0-3.2,3.1-3.2c2.7,0,5.5,0,8.2,0
		c0.7,0,1,0.1,1,0.9C62,53.2,62,53.2,58.8,53.2z M68.1,53.2c-2.1,0-2.1,0-2.1-2.1c0-2,0-2,2-2c2.1,0,2.1,0,2.1,2.1
		C70.1,53.2,70.1,53.2,68.1,53.2z M84.5,53.2c-2.1,0-2.1,0-2.1-2c0-2.1,0-2.1,2.1-2.1c1.9,0,1.9,0,1.9,2
		C86.5,53.2,86.5,53.2,84.5,53.2z M85,45.1c-1.7-0.1-3.5,0-5.2-0.1c-1.1-0.1-1.6,0.2-1.5,1.4c0.1,2,0,3.9,0,5.9
		c0,0.7-0.1,0.9-0.9,0.9c-3.2,0-3.2,0.1-3.2-3.2c0-1.2-0.1-2.5,0-3.7c0.1-1-0.2-1.4-1.3-1.3c-7.4,0.1-14.8,0-22.1,0.1
		c-0.9,0-1.2-0.1-1.2-1.1c0.1-3.4,0.1-6.7,0-10.1c0-0.8,0.2-1,1-1.1c3-0.5,5,0.6,6.5,3.2c1.2,2.1,2.9,4,4.4,6
		c0.5,0.7,0.7,0.7,1.2-0.1c3-5.4,6-10.8,9.1-16.5c0.9,2.2,1.8,4.2,2.5,6.3c0.3,0.9,0.8,1.2,1.7,1.1c3-0.1,6,0.1,9-0.1
		c1.3,0,1.5,0.4,1.5,1.5c-0.1,3.1-0.1,6.2,0,9.3C86.6,44.9,86.2,45.2,85,45.1z M86.2,8.2H50c-2.8,0-4.4,1.7-4.4,4.4V53
		c0,2.7,1.6,4.4,4.4,4.4c12.1,0,24.2,0,36.4,0c2.7,0,4.4-1.7,4.4-4.4c0-13.4,0-26.9,0-40.3C90.6,9.8,89,8.2,86.2,8.2z M50.8,12.3
		c9.3,0,18.7,0,28,0c2.3,0,4.5,0,6.8,0c0.7,0,0.9,0.2,0.9,0.9c0,4.9,0,9.7,0,14.6c0,0.7-0.2,0.9-0.9,0.9c-2.3,0-4.7-0.1-7,0
		c-0.8,0-1-0.3-1.3-0.9c-1.6-4-3.1-7.9-4.7-11.9c-0.5,0.3-0.6,0.8-0.8,1.1c-3.1,5.6-6.3,11.3-9.4,16.9c-0.6,1.1-0.9,0.9-1.5,0
		c-1.1-1.6-2.3-3.1-3.4-4.6c-0.4-0.6-0.8-0.7-1.5-0.7c-1.8,0-3.7,0-5.5,0c-0.6,0-0.8-0.2-0.8-0.8c0-4.9,0-9.9,0-14.8
		C49.6,12,50.3,12.3,50.8,12.3z M58.8,53.2h-3.1c-1.7,0-3.4,0-5.1,0c-0.7,0-1-0.1-1-0.9c0-3.2,0-3.2,3.1-3.2c2.7,0,5.5,0,8.2,0
		c0.7,0,1,0.1,1,0.9C62,53.2,62,53.2,58.8,53.2z M68.1,53.2c-2.1,0-2.1,0-2.1-2.1c0-2,0-2,2-2c2.1,0,2.1,0,2.1,2.1
		C70.1,53.2,70.1,53.2,68.1,53.2z M84.5,53.2c-2.1,0-2.1,0-2.1-2c0-2.1,0-2.1,2.1-2.1c1.9,0,1.9,0,1.9,2
		C86.5,53.2,86.5,53.2,84.5,53.2z M85,45.1c-1.7-0.1-3.5,0-5.2-0.1c-1.1-0.1-1.6,0.2-1.5,1.4c0.1,2,0,3.9,0,5.9
		c0,0.7-0.1,0.9-0.9,0.9c-3.2,0-3.2,0.1-3.2-3.2c0-1.2-0.1-2.5,0-3.7c0.1-1-0.2-1.4-1.3-1.3c-7.4,0.1-14.8,0-22.1,0.1
		c-0.9,0-1.2-0.1-1.2-1.1c0.1-3.4,0.1-6.7,0-10.1c0-0.8,0.2-1,1-1.1c3-0.5,5,0.6,6.5,3.2c1.2,2.1,2.9,4,4.4,6
		c0.5,0.7,0.7,0.7,1.2-0.1c3-5.4,6-10.8,9.1-16.5c0.9,2.2,1.8,4.2,2.5,6.3c0.3,0.9,0.8,1.2,1.7,1.1c3-0.1,6,0.1,9-0.1
		c1.3,0,1.5,0.4,1.5,1.5c-0.1,3.1-0.1,6.2,0,9.3C86.6,44.9,86.2,45.2,85,45.1z M86.2,8.2H50c-2.8,0-4.4,1.7-4.4,4.4V53
		c0,2.7,1.6,4.4,4.4,4.4c12.1,0,24.2,0,36.4,0c2.7,0,4.4-1.7,4.4-4.4c0-13.4,0-26.9,0-40.3C90.6,9.8,89,8.2,86.2,8.2z M50.8,12.3
		c9.3,0,18.7,0,28,0c2.3,0,4.5,0,6.8,0c0.7,0,0.9,0.2,0.9,0.9c0,4.9,0,9.7,0,14.6c0,0.7-0.2,0.9-0.9,0.9c-2.3,0-4.7-0.1-7,0
		c-0.8,0-1-0.3-1.3-0.9c-1.6-4-3.1-7.9-4.7-11.9c-0.5,0.3-0.6,0.8-0.8,1.1c-3.1,5.6-6.3,11.3-9.4,16.9c-0.6,1.1-0.9,0.9-1.5,0
		c-1.1-1.6-2.3-3.1-3.4-4.6c-0.4-0.6-0.8-0.7-1.5-0.7c-1.8,0-3.7,0-5.5,0c-0.6,0-0.8-0.2-0.8-0.8c0-4.9,0-9.9,0-14.8
		C49.6,12,50.3,12.3,50.8,12.3z M58.8,53.2h-3.1c-1.7,0-3.4,0-5.1,0c-0.7,0-1-0.1-1-0.9c0-3.2,0-3.2,3.1-3.2c2.7,0,5.5,0,8.2,0
		c0.7,0,1,0.1,1,0.9C62,53.2,62,53.2,58.8,53.2z M68.1,53.2c-2.1,0-2.1,0-2.1-2.1c0-2,0-2,2-2c2.1,0,2.1,0,2.1,2.1
		C70.1,53.2,70.1,53.2,68.1,53.2z M84.5,53.2c-2.1,0-2.1,0-2.1-2c0-2.1,0-2.1,2.1-2.1c1.9,0,1.9,0,1.9,2
		C86.5,53.2,86.5,53.2,84.5,53.2z M85,45.1c-1.7-0.1-3.5,0-5.2-0.1c-1.1-0.1-1.6,0.2-1.5,1.4c0.1,2,0,3.9,0,5.9
		c0,0.7-0.1,0.9-0.9,0.9c-3.2,0-3.2,0.1-3.2-3.2c0-1.2-0.1-2.5,0-3.7c0.1-1-0.2-1.4-1.3-1.3c-7.4,0.1-14.8,0-22.1,0.1
		c-0.9,0-1.2-0.1-1.2-1.1c0.1-3.4,0.1-6.7,0-10.1c0-0.8,0.2-1,1-1.1c3-0.5,5,0.6,6.5,3.2c1.2,2.1,2.9,4,4.4,6
		c0.5,0.7,0.7,0.7,1.2-0.1c3-5.4,6-10.8,9.1-16.5c0.9,2.2,1.8,4.2,2.5,6.3c0.3,0.9,0.8,1.2,1.7,1.1c3-0.1,6,0.1,9-0.1
		c1.3,0,1.5,0.4,1.5,1.5c-0.1,3.1-0.1,6.2,0,9.3C86.6,44.9,86.2,45.2,85,45.1z M86.2,8.2H50c-2.8,0-4.4,1.7-4.4,4.4V53
		c0,2.7,1.6,4.4,4.4,4.4c12.1,0,24.2,0,36.4,0c2.7,0,4.4-1.7,4.4-4.4c0-13.4,0-26.9,0-40.3C90.6,9.8,89,8.2,86.2,8.2z M50.8,12.3
		c9.3,0,18.7,0,28,0c2.3,0,4.5,0,6.8,0c0.7,0,0.9,0.2,0.9,0.9c0,4.9,0,9.7,0,14.6c0,0.7-0.2,0.9-0.9,0.9c-2.3,0-4.7-0.1-7,0
		c-0.8,0-1-0.3-1.3-0.9c-1.6-4-3.1-7.9-4.7-11.9c-0.5,0.3-0.6,0.8-0.8,1.1c-3.1,5.6-6.3,11.3-9.4,16.9c-0.6,1.1-0.9,0.9-1.5,0
		c-1.1-1.6-2.3-3.1-3.4-4.6c-0.4-0.6-0.8-0.7-1.5-0.7c-1.8,0-3.7,0-5.5,0c-0.6,0-0.8-0.2-0.8-0.8c0-4.9,0-9.9,0-14.8
		C49.6,12,50.3,12.3,50.8,12.3z M58.8,53.2h-3.1c-1.7,0-3.4,0-5.1,0c-0.7,0-1-0.1-1-0.9c0-3.2,0-3.2,3.1-3.2c2.7,0,5.5,0,8.2,0
		c0.7,0,1,0.1,1,0.9C62,53.2,62,53.2,58.8,53.2z M68.1,53.2c-2.1,0-2.1,0-2.1-2.1c0-2,0-2,2-2c2.1,0,2.1,0,2.1,2.1
		C70.1,53.2,70.1,53.2,68.1,53.2z M84.5,53.2c-2.1,0-2.1,0-2.1-2c0-2.1,0-2.1,2.1-2.1c1.9,0,1.9,0,1.9,2
		C86.5,53.2,86.5,53.2,84.5,53.2z M85,45.1c-1.7-0.1-3.5,0-5.2-0.1c-1.1-0.1-1.6,0.2-1.5,1.4c0.1,2,0,3.9,0,5.9
		c0,0.7-0.1,0.9-0.9,0.9c-3.2,0-3.2,0.1-3.2-3.2c0-1.2-0.1-2.5,0-3.7c0.1-1-0.2-1.4-1.3-1.3c-7.4,0.1-14.8,0-22.1,0.1
		c-0.9,0-1.2-0.1-1.2-1.1c0.1-3.4,0.1-6.7,0-10.1c0-0.8,0.2-1,1-1.1c3-0.5,5,0.6,6.5,3.2c1.2,2.1,2.9,4,4.4,6
		c0.5,0.7,0.7,0.7,1.2-0.1c3-5.4,6-10.8,9.1-16.5c0.9,2.2,1.8,4.2,2.5,6.3c0.3,0.9,0.8,1.2,1.7,1.1c3-0.1,6,0.1,9-0.1
		c1.3,0,1.5,0.4,1.5,1.5c-0.1,3.1-0.1,6.2,0,9.3C86.6,44.9,86.2,45.2,85,45.1z M86.2,8.2H50c-2.8,0-4.4,1.7-4.4,4.4V53
		c0,2.7,1.6,4.4,4.4,4.4c12.1,0,24.2,0,36.4,0c2.7,0,4.4-1.7,4.4-4.4c0-13.4,0-26.9,0-40.3C90.6,9.8,89,8.2,86.2,8.2z M50.8,12.3
		c9.3,0,18.7,0,28,0c2.3,0,4.5,0,6.8,0c0.7,0,0.9,0.2,0.9,0.9c0,4.9,0,9.7,0,14.6c0,0.7-0.2,0.9-0.9,0.9c-2.3,0-4.7-0.1-7,0
		c-0.8,0-1-0.3-1.3-0.9c-1.6-4-3.1-7.9-4.7-11.9c-0.5,0.3-0.6,0.8-0.8,1.1c-3.1,5.6-6.3,11.3-9.4,16.9c-0.6,1.1-0.9,0.9-1.5,0
		c-1.1-1.6-2.3-3.1-3.4-4.6c-0.4-0.6-0.8-0.7-1.5-0.7c-1.8,0-3.7,0-5.5,0c-0.6,0-0.8-0.2-0.8-0.8c0-4.9,0-9.9,0-14.8
		C49.6,12,50.3,12.3,50.8,12.3z M58.8,53.2h-3.1c-1.7,0-3.4,0-5.1,0c-0.7,0-1-0.1-1-0.9c0-3.2,0-3.2,3.1-3.2c2.7,0,5.5,0,8.2,0
		c0.7,0,1,0.1,1,0.9C62,53.2,62,53.2,58.8,53.2z M68.1,53.2c-2.1,0-2.1,0-2.1-2.1c0-2,0-2,2-2c2.1,0,2.1,0,2.1,2.1
		C70.1,53.2,70.1,53.2,68.1,53.2z M84.5,53.2c-2.1,0-2.1,0-2.1-2c0-2.1,0-2.1,2.1-2.1c1.9,0,1.9,0,1.9,2
		C86.5,53.2,86.5,53.2,84.5,53.2z M85,45.1c-1.7-0.1-3.5,0-5.2-0.1c-1.1-0.1-1.6,0.2-1.5,1.4c0.1,2,0,3.9,0,5.9
		c0,0.7-0.1,0.9-0.9,0.9c-3.2,0-3.2,0.1-3.2-3.2c0-1.2-0.1-2.5,0-3.7c0.1-1-0.2-1.4-1.3-1.3c-7.4,0.1-14.8,0-22.1,0.1
		c-0.9,0-1.2-0.1-1.2-1.1c0.1-3.4,0.1-6.7,0-10.1c0-0.8,0.2-1,1-1.1c3-0.5,5,0.6,6.5,3.2c1.2,2.1,2.9,4,4.4,6
		c0.5,0.7,0.7,0.7,1.2-0.1c3-5.4,6-10.8,9.1-16.5c0.9,2.2,1.8,4.2,2.5,6.3c0.3,0.9,0.8,1.2,1.7,1.1c3-0.1,6,0.1,9-0.1
		c1.3,0,1.5,0.4,1.5,1.5c-0.1,3.1-0.1,6.2,0,9.3C86.6,44.9,86.2,45.2,85,45.1z M86.2,8.2H50c-2.8,0-4.4,1.7-4.4,4.4V53
		c0,2.7,1.6,4.4,4.4,4.4c12.1,0,24.2,0,36.4,0c2.7,0,4.4-1.7,4.4-4.4c0-13.4,0-26.9,0-40.3C90.6,9.8,89,8.2,86.2,8.2z M50.8,12.3
		c9.3,0,18.7,0,28,0c2.3,0,4.5,0,6.8,0c0.7,0,0.9,0.2,0.9,0.9c0,4.9,0,9.7,0,14.6c0,0.7-0.2,0.9-0.9,0.9c-2.3,0-4.7-0.1-7,0
		c-0.8,0-1-0.3-1.3-0.9c-1.6-4-3.1-7.9-4.7-11.9c-0.5,0.3-0.6,0.8-0.8,1.1c-3.1,5.6-6.3,11.3-9.4,16.9c-0.6,1.1-0.9,0.9-1.5,0
		c-1.1-1.6-2.3-3.1-3.4-4.6c-0.4-0.6-0.8-0.7-1.5-0.7c-1.8,0-3.7,0-5.5,0c-0.6,0-0.8-0.2-0.8-0.8c0-4.9,0-9.9,0-14.8
		C49.6,12,50.3,12.3,50.8,12.3z M58.8,53.2h-3.1c-1.7,0-3.4,0-5.1,0c-0.7,0-1-0.1-1-0.9c0-3.2,0-3.2,3.1-3.2c2.7,0,5.5,0,8.2,0
		c0.7,0,1,0.1,1,0.9C62,53.2,62,53.2,58.8,53.2z M68.1,53.2c-2.1,0-2.1,0-2.1-2.1c0-2,0-2,2-2c2.1,0,2.1,0,2.1,2.1
		C70.1,53.2,70.1,53.2,68.1,53.2z M84.5,53.2c-2.1,0-2.1,0-2.1-2c0-2.1,0-2.1,2.1-2.1c1.9,0,1.9,0,1.9,2
		C86.5,53.2,86.5,53.2,84.5,53.2z M85,45.1c-1.7-0.1-3.5,0-5.2-0.1c-1.1-0.1-1.6,0.2-1.5,1.4c0.1,2,0,3.9,0,5.9
		c0,0.7-0.1,0.9-0.9,0.9c-3.2,0-3.2,0.1-3.2-3.2c0-1.2-0.1-2.5,0-3.7c0.1-1-0.2-1.4-1.3-1.3c-7.4,0.1-14.8,0-22.1,0.1
		c-0.9,0-1.2-0.1-1.2-1.1c0.1-3.4,0.1-6.7,0-10.1c0-0.8,0.2-1,1-1.1c3-0.5,5,0.6,6.5,3.2c1.2,2.1,2.9,4,4.4,6
		c0.5,0.7,0.7,0.7,1.2-0.1c3-5.4,6-10.8,9.1-16.5c0.9,2.2,1.8,4.2,2.5,6.3c0.3,0.9,0.8,1.2,1.7,1.1c3-0.1,6,0.1,9-0.1
		c1.3,0,1.5,0.4,1.5,1.5c-0.1,3.1-0.1,6.2,0,9.3C86.6,44.9,86.2,45.2,85,45.1z M86.2,8.2H50c-2.8,0-4.4,1.7-4.4,4.4V53
		c0,2.7,1.6,4.4,4.4,4.4c12.1,0,24.2,0,36.4,0c2.7,0,4.4-1.7,4.4-4.4c0-13.4,0-26.9,0-40.3C90.6,9.8,89,8.2,86.2,8.2z M50.8,12.3
		c9.3,0,18.7,0,28,0c2.3,0,4.5,0,6.8,0c0.7,0,0.9,0.2,0.9,0.9c0,4.9,0,9.7,0,14.6c0,0.7-0.2,0.9-0.9,0.9c-2.3,0-4.7-0.1-7,0
		c-0.8,0-1-0.3-1.3-0.9c-1.6-4-3.1-7.9-4.7-11.9c-0.5,0.3-0.6,0.8-0.8,1.1c-3.1,5.6-6.3,11.3-9.4,16.9c-0.6,1.1-0.9,0.9-1.5,0
		c-1.1-1.6-2.3-3.1-3.4-4.6c-0.4-0.6-0.8-0.7-1.5-0.7c-1.8,0-3.7,0-5.5,0c-0.6,0-0.8-0.2-0.8-0.8c0-4.9,0-9.9,0-14.8
		C49.6,12,50.3,12.3,50.8,12.3z M58.8,53.2h-3.1c-1.7,0-3.4,0-5.1,0c-0.7,0-1-0.1-1-0.9c0-3.2,0-3.2,3.1-3.2c2.7,0,5.5,0,8.2,0
		c0.7,0,1,0.1,1,0.9C62,53.2,62,53.2,58.8,53.2z M68.1,53.2c-2.1,0-2.1,0-2.1-2.1c0-2,0-2,2-2c2.1,0,2.1,0,2.1,2.1
		C70.1,53.2,70.1,53.2,68.1,53.2z M84.5,53.2c-2.1,0-2.1,0-2.1-2c0-2.1,0-2.1,2.1-2.1c1.9,0,1.9,0,1.9,2
		C86.5,53.2,86.5,53.2,84.5,53.2z M85,45.1c-1.7-0.1-3.5,0-5.2-0.1c-1.1-0.1-1.6,0.2-1.5,1.4c0.1,2,0,3.9,0,5.9
		c0,0.7-0.1,0.9-0.9,0.9c-3.2,0-3.2,0.1-3.2-3.2c0-1.2-0.1-2.5,0-3.7c0.1-1-0.2-1.4-1.3-1.3c-7.4,0.1-14.8,0-22.1,0.1
		c-0.9,0-1.2-0.1-1.2-1.1c0.1-3.4,0.1-6.7,0-10.1c0-0.8,0.2-1,1-1.1c3-0.5,5,0.6,6.5,3.2c1.2,2.1,2.9,4,4.4,6
		c0.5,0.7,0.7,0.7,1.2-0.1c3-5.4,6-10.8,9.1-16.5c0.9,2.2,1.8,4.2,2.5,6.3c0.3,0.9,0.8,1.2,1.7,1.1c3-0.1,6,0.1,9-0.1
		c1.3,0,1.5,0.4,1.5,1.5c-0.1,3.1-0.1,6.2,0,9.3C86.6,44.9,86.2,45.2,85,45.1z M86.2,8.2H50c-2.8,0-4.4,1.7-4.4,4.4V53
		c0,2.7,1.6,4.4,4.4,4.4c12.1,0,24.2,0,36.4,0c2.7,0,4.4-1.7,4.4-4.4c0-13.4,0-26.9,0-40.3C90.6,9.8,89,8.2,86.2,8.2z M50.8,12.3
		c9.3,0,18.7,0,28,0c2.3,0,4.5,0,6.8,0c0.7,0,0.9,0.2,0.9,0.9c0,4.9,0,9.7,0,14.6c0,0.7-0.2,0.9-0.9,0.9c-2.3,0-4.7-0.1-7,0
		c-0.8,0-1-0.3-1.3-0.9c-1.6-4-3.1-7.9-4.7-11.9c-0.5,0.3-0.6,0.8-0.8,1.1c-3.1,5.6-6.3,11.3-9.4,16.9c-0.6,1.1-0.9,0.9-1.5,0
		c-1.1-1.6-2.3-3.1-3.4-4.6c-0.4-0.6-0.8-0.7-1.5-0.7c-1.8,0-3.7,0-5.5,0c-0.6,0-0.8-0.2-0.8-0.8c0-4.9,0-9.9,0-14.8
		C49.6,12,50.3,12.3,50.8,12.3z M58.8,53.2h-3.1c-1.7,0-3.4,0-5.1,0c-0.7,0-1-0.1-1-0.9c0-3.2,0-3.2,3.1-3.2c2.7,0,5.5,0,8.2,0
		c0.7,0,1,0.1,1,0.9C62,53.2,62,53.2,58.8,53.2z M68.1,53.2c-2.1,0-2.1,0-2.1-2.1c0-2,0-2,2-2c2.1,0,2.1,0,2.1,2.1
		C70.1,53.2,70.1,53.2,68.1,53.2z M84.5,53.2c-2.1,0-2.1,0-2.1-2c0-2.1,0-2.1,2.1-2.1c1.9,0,1.9,0,1.9,2
		C86.5,53.2,86.5,53.2,84.5,53.2z M85,45.1c-1.7-0.1-3.5,0-5.2-0.1c-1.1-0.1-1.6,0.2-1.5,1.4c0.1,2,0,3.9,0,5.9
		c0,0.7-0.1,0.9-0.9,0.9c-3.2,0-3.2,0.1-3.2-3.2c0-1.2-0.1-2.5,0-3.7c0.1-1-0.2-1.4-1.3-1.3c-7.4,0.1-14.8,0-22.1,0.1
		c-0.9,0-1.2-0.1-1.2-1.1c0.1-3.4,0.1-6.7,0-10.1c0-0.8,0.2-1,1-1.1c3-0.5,5,0.6,6.5,3.2c1.2,2.1,2.9,4,4.4,6
		c0.5,0.7,0.7,0.7,1.2-0.1c3-5.4,6-10.8,9.1-16.5c0.9,2.2,1.8,4.2,2.5,6.3c0.3,0.9,0.8,1.2,1.7,1.1c3-0.1,6,0.1,9-0.1
		c1.3,0,1.5,0.4,1.5,1.5c-0.1,3.1-0.1,6.2,0,9.3C86.6,44.9,86.2,45.2,85,45.1z M86.2,8.2H50c-2.8,0-4.4,1.7-4.4,4.4V53
		c0,2.7,1.6,4.4,4.4,4.4c12.1,0,24.2,0,36.4,0c2.7,0,4.4-1.7,4.4-4.4c0-13.4,0-26.9,0-40.3C90.6,9.8,89,8.2,86.2,8.2z M50.8,12.3
		c9.3,0,18.7,0,28,0c2.3,0,4.5,0,6.8,0c0.7,0,0.9,0.2,0.9,0.9c0,4.9,0,9.7,0,14.6c0,0.7-0.2,0.9-0.9,0.9c-2.3,0-4.7-0.1-7,0
		c-0.8,0-1-0.3-1.3-0.9c-1.6-4-3.1-7.9-4.7-11.9c-0.5,0.3-0.6,0.8-0.8,1.1c-3.1,5.6-6.3,11.3-9.4,16.9c-0.6,1.1-0.9,0.9-1.5,0
		c-1.1-1.6-2.3-3.1-3.4-4.6c-0.4-0.6-0.8-0.7-1.5-0.7c-1.8,0-3.7,0-5.5,0c-0.6,0-0.8-0.2-0.8-0.8c0-4.9,0-9.9,0-14.8
		C49.6,12,50.3,12.3,50.8,12.3z M58.8,53.2h-3.1c-1.7,0-3.4,0-5.1,0c-0.7,0-1-0.1-1-0.9c0-3.2,0-3.2,3.1-3.2c2.7,0,5.5,0,8.2,0
		c0.7,0,1,0.1,1,0.9C62,53.2,62,53.2,58.8,53.2z M68.1,53.2c-2.1,0-2.1,0-2.1-2.1c0-2,0-2,2-2c2.1,0,2.1,0,2.1,2.1
		C70.1,53.2,70.1,53.2,68.1,53.2z M84.5,53.2c-2.1,0-2.1,0-2.1-2c0-2.1,0-2.1,2.1-2.1c1.9,0,1.9,0,1.9,2
		C86.5,53.2,86.5,53.2,84.5,53.2z M85,45.1c-1.7-0.1-3.5,0-5.2-0.1c-1.1-0.1-1.6,0.2-1.5,1.4c0.1,2,0,3.9,0,5.9
		c0,0.7-0.1,0.9-0.9,0.9c-3.2,0-3.2,0.1-3.2-3.2c0-1.2-0.1-2.5,0-3.7c0.1-1-0.2-1.4-1.3-1.3c-7.4,0.1-14.8,0-22.1,0.1
		c-0.9,0-1.2-0.1-1.2-1.1c0.1-3.4,0.1-6.7,0-10.1c0-0.8,0.2-1,1-1.1c3-0.5,5,0.6,6.5,3.2c1.2,2.1,2.9,4,4.4,6
		c0.5,0.7,0.7,0.7,1.2-0.1c3-5.4,6-10.8,9.1-16.5c0.9,2.2,1.8,4.2,2.5,6.3c0.3,0.9,0.8,1.2,1.7,1.1c3-0.1,6,0.1,9-0.1
		c1.3,0,1.5,0.4,1.5,1.5c-0.1,3.1-0.1,6.2,0,9.3C86.6,44.9,86.2,45.2,85,45.1z M86.2,8.2H50c-2.8,0-4.4,1.7-4.4,4.4V53
		c0,2.7,1.6,4.4,4.4,4.4c12.1,0,24.2,0,36.4,0c2.7,0,4.4-1.7,4.4-4.4c0-13.4,0-26.9,0-40.3C90.6,9.8,89,8.2,86.2,8.2z M50.8,12.3
		c9.3,0,18.7,0,28,0c2.3,0,4.5,0,6.8,0c0.7,0,0.9,0.2,0.9,0.9c0,4.9,0,9.7,0,14.6c0,0.7-0.2,0.9-0.9,0.9c-2.3,0-4.7-0.1-7,0
		c-0.8,0-1-0.3-1.3-0.9c-1.6-4-3.1-7.9-4.7-11.9c-0.5,0.3-0.6,0.8-0.8,1.1c-3.1,5.6-6.3,11.3-9.4,16.9c-0.6,1.1-0.9,0.9-1.5,0
		c-1.1-1.6-2.3-3.1-3.4-4.6c-0.4-0.6-0.8-0.7-1.5-0.7c-1.8,0-3.7,0-5.5,0c-0.6,0-0.8-0.2-0.8-0.8c0-4.9,0-9.9,0-14.8
		C49.6,12,50.3,12.3,50.8,12.3z M58.8,53.2h-3.1c-1.7,0-3.4,0-5.1,0c-0.7,0-1-0.1-1-0.9c0-3.2,0-3.2,3.1-3.2c2.7,0,5.5,0,8.2,0
		c0.7,0,1,0.1,1,0.9C62,53.2,62,53.2,58.8,53.2z M68.1,53.2c-2.1,0-2.1,0-2.1-2.1c0-2,0-2,2-2c2.1,0,2.1,0,2.1,2.1
		C70.1,53.2,70.1,53.2,68.1,53.2z M84.5,53.2c-2.1,0-2.1,0-2.1-2c0-2.1,0-2.1,2.1-2.1c1.9,0,1.9,0,1.9,2
		C86.5,53.2,86.5,53.2,84.5,53.2z M85,45.1c-1.7-0.1-3.5,0-5.2-0.1c-1.1-0.1-1.6,0.2-1.5,1.4c0.1,2,0,3.9,0,5.9
		c0,0.7-0.1,0.9-0.9,0.9c-3.2,0-3.2,0.1-3.2-3.2c0-1.2-0.1-2.5,0-3.7c0.1-1-0.2-1.4-1.3-1.3c-7.4,0.1-14.8,0-22.1,0.1
		c-0.9,0-1.2-0.1-1.2-1.1c0.1-3.4,0.1-6.7,0-10.1c0-0.8,0.2-1,1-1.1c3-0.5,5,0.6,6.5,3.2c1.2,2.1,2.9,4,4.4,6
		c0.5,0.7,0.7,0.7,1.2-0.1c3-5.4,6-10.8,9.1-16.5c0.9,2.2,1.8,4.2,2.5,6.3c0.3,0.9,0.8,1.2,1.7,1.1c3-0.1,6,0.1,9-0.1
		c1.3,0,1.5,0.4,1.5,1.5c-0.1,3.1-0.1,6.2,0,9.3C86.6,44.9,86.2,45.2,85,45.1z"/>
	<path d="M25.1,32.8c0,9.2,0,18.3,0,27.5c0,1-0.2,1.2-1.2,1.2c-2.9-0.1-2.9,0-2.9-3c0-17.7,0-35.4,0-53.1c0-1.1,0.2-1.3,1.3-1.3
		c2.8,0.1,2.8,0,2.8,2.8C25.1,15.5,25.1,24.1,25.1,32.8z"/>
	<path d="M123.4,32.7c0,9.2,0,18.3,0,27.5c0,0.9-0.1,1.3-1.2,1.3c-2.9-0.1-2.9,0-2.9-3c0-17.7,0-35.4,0-53.1c0-1.1,0.3-1.3,1.3-1.3
		c2.8,0.1,2.8,0,2.8,2.9C123.4,15.5,123.4,24.1,123.4,32.7z"/>
	<path d="M33.3,32.8c0,2.4,0,4.9,0,7.3c0,0.7-0.2,0.9-0.9,0.9c-3.2,0-3.2,0.1-3.2-3.1c0-4.1,0-8.2,0-12.3c0-0.9,0.2-1,1.1-1
		c3.1,0,3.1,0,3.1,3.1C33.3,29.4,33.3,31.1,33.3,32.8z"/>
	<path d="M115.2,32.8c0,2.4,0,4.8,0,7.2c0,0.7-0.1,1-0.9,1c-3.2,0-3.2,0-3.2-3.1c0-4.1,0-8.1,0-12.2c0-0.8,0.1-1.2,1.1-1.2
		c3,0,3,0,3,3C115.2,29.3,115.2,31,115.2,32.8z"/>
	<path d="M86.2,8.2H50c-2.8,0-4.4,1.7-4.4,4.4V53c0,2.7,1.6,4.4,4.4,4.4c12.1,0,24.2,0,36.4,0c2.7,0,4.4-1.7,4.4-4.4
		c0-13.4,0-26.9,0-40.3C90.6,9.8,89,8.2,86.2,8.2z M50.8,12.3c9.3,0,18.7,0,28,0c2.3,0,4.5,0,6.8,0c0.7,0,0.9,0.2,0.9,0.9
		c0,4.9,0,9.7,0,14.6c0,0.7-0.2,0.9-0.9,0.9c-2.3,0-4.7-0.1-7,0c-0.8,0-1-0.3-1.3-0.9c-1.6-4-3.1-7.9-4.7-11.9
		c-0.5,0.3-0.6,0.8-0.8,1.1c-3.1,5.6-6.3,11.3-9.4,16.9c-0.6,1.1-0.9,0.9-1.5,0c-1.1-1.6-2.3-3.1-3.4-4.6c-0.4-0.6-0.8-0.7-1.5-0.7
		c-1.8,0-3.7,0-5.5,0c-0.6,0-0.8-0.2-0.8-0.8c0-4.9,0-9.9,0-14.8C49.6,12,50.3,12.3,50.8,12.3z M58.8,53.2h-3.1c-1.7,0-3.4,0-5.1,0
		c-0.7,0-1-0.1-1-0.9c0-3.2,0-3.2,3.1-3.2c2.7,0,5.5,0,8.2,0c0.7,0,1,0.1,1,0.9C62,53.2,62,53.2,58.8,53.2z M68.1,53.2
		c-2.1,0-2.1,0-2.1-2.1c0-2,0-2,2-2c2.1,0,2.1,0,2.1,2.1C70.1,53.2,70.1,53.2,68.1,53.2z M84.5,53.2c-2.1,0-2.1,0-2.1-2
		c0-2.1,0-2.1,2.1-2.1c1.9,0,1.9,0,1.9,2C86.5,53.2,86.5,53.2,84.5,53.2z M85,45.1c-1.7-0.1-3.5,0-5.2-0.1c-1.1-0.1-1.6,0.2-1.5,1.4
		c0.1,2,0,3.9,0,5.9c0,0.7-0.1,0.9-0.9,0.9c-3.2,0-3.2,0.1-3.2-3.2c0-1.2-0.1-2.5,0-3.7c0.1-1-0.2-1.4-1.3-1.3
		c-7.4,0.1-14.8,0-22.1,0.1c-0.9,0-1.2-0.1-1.2-1.1c0.1-3.4,0.1-6.7,0-10.1c0-0.8,0.2-1,1-1.1c3-0.5,5,0.6,6.5,3.2
		c1.2,2.1,2.9,4,4.4,6c0.5,0.7,0.7,0.7,1.2-0.1c3-5.4,6-10.8,9.1-16.5c0.9,2.2,1.8,4.2,2.5,6.3c0.3,0.9,0.8,1.2,1.7,1.1
		c3-0.1,6,0.1,9-0.1c1.3,0,1.5,0.4,1.5,1.5c-0.1,3.1-0.1,6.2,0,9.3C86.6,44.9,86.2,45.2,85,45.1z"/>
	<path d="M86.2,8.2H50c-2.8,0-4.4,1.7-4.4,4.4V53c0,2.7,1.6,4.4,4.4,4.4c12.1,0,24.2,0,36.4,0c2.7,0,4.4-1.7,4.4-4.4
		c0-13.4,0-26.9,0-40.3C90.6,9.8,89,8.2,86.2,8.2z M50.8,12.3c9.3,0,18.7,0,28,0c2.3,0,4.5,0,6.8,0c0.7,0,0.9,0.2,0.9,0.9
		c0,4.9,0,9.7,0,14.6c0,0.7-0.2,0.9-0.9,0.9c-2.3,0-4.7-0.1-7,0c-0.8,0-1-0.3-1.3-0.9c-1.6-4-3.1-7.9-4.7-11.9
		c-0.5,0.3-0.6,0.8-0.8,1.1c-3.1,5.6-6.3,11.3-9.4,16.9c-0.6,1.1-0.9,0.9-1.5,0c-1.1-1.6-2.3-3.1-3.4-4.6c-0.4-0.6-0.8-0.7-1.5-0.7
		c-1.8,0-3.7,0-5.5,0c-0.6,0-0.8-0.2-0.8-0.8c0-4.9,0-9.9,0-14.8C49.6,12,50.3,12.3,50.8,12.3z M58.8,53.2h-3.1c-1.7,0-3.4,0-5.1,0
		c-0.7,0-1-0.1-1-0.9c0-3.2,0-3.2,3.1-3.2c2.7,0,5.5,0,8.2,0c0.7,0,1,0.1,1,0.9C62,53.2,62,53.2,58.8,53.2z M68.1,53.2
		c-2.1,0-2.1,0-2.1-2.1c0-2,0-2,2-2c2.1,0,2.1,0,2.1,2.1C70.1,53.2,70.1,53.2,68.1,53.2z M84.5,53.2c-2.1,0-2.1,0-2.1-2
		c0-2.1,0-2.1,2.1-2.1c1.9,0,1.9,0,1.9,2C86.5,53.2,86.5,53.2,84.5,53.2z M85,45.1c-1.7-0.1-3.5,0-5.2-0.1c-1.1-0.1-1.6,0.2-1.5,1.4
		c0.1,2,0,3.9,0,5.9c0,0.7-0.1,0.9-0.9,0.9c-3.2,0-3.2,0.1-3.2-3.2c0-1.2-0.1-2.5,0-3.7c0.1-1-0.2-1.4-1.3-1.3
		c-7.4,0.1-14.8,0-22.1,0.1c-0.9,0-1.2-0.1-1.2-1.1c0.1-3.4,0.1-6.7,0-10.1c0-0.8,0.2-1,1-1.1c3-0.5,5,0.6,6.5,3.2
		c1.2,2.1,2.9,4,4.4,6c0.5,0.7,0.7,0.7,1.2-0.1c3-5.4,6-10.8,9.1-16.5c0.9,2.2,1.8,4.2,2.5,6.3c0.3,0.9,0.8,1.2,1.7,1.1
		c3-0.1,6,0.1,9-0.1c1.3,0,1.5,0.4,1.5,1.5c-0.1,3.1-0.1,6.2,0,9.3C86.6,44.9,86.2,45.2,85,45.1z"/>
</g>
</svg>
