<?xml version="1.0" encoding="utf-8"?>
<!-- Generator: Adobe Illustrator 28.0.0, SVG Export Plug-In . SVG Version: 6.00 Build 0)  -->
<svg version="1.1" id="Layer_1" xmlns="http://www.w3.org/2000/svg" xmlns:xlink="http://www.w3.org/1999/xlink" x="0px" y="0px"
	 viewBox="0 0 128 128" style="enable-background:new 0 0 128 128;" xml:space="preserve">
<g id="RLRoWY.tif">
	<g>
		<path d="M64,50.3c0-2.2-0.9-3.7-2.6-4.8c-0.9-0.6-1.9-1.1-2.9-1.5c-4.4-1.7-9.1-2.3-13.8-2.5c-1-0.1-1.3-0.3-1.3-1.3
			c0-12.4,0-24.8,0-37.1c0-2.9,0-2.8-2.8-2.9c-1,0-1.3,0.2-1.3,1.3c0,12.9,0,25.8,0.1,38.7c0,1-0.2,1.3-1.3,1.4
			c-4.2,0.2-8.5,0.7-12.5,2c-2.8,0.9-5.6,2.1-6.9,5.1v35.1c0.2,1,0.6,1.9,1.4,2.6c1.6,1.4,3.5,2.3,5.5,2.9c3.9,1.3,7.9,1.7,11.9,2
			c1,0.1,1.4,0.4,1.3,1.4c0,0.4,0,0.8,0,1.2c0,10.7,0,21.4,0,32.1c0,0.7-0.1,1.5,0.4,2.1h4.1v-4.1c0-10.6,0-21.2,0-31.9
			c0-0.8,0-1.2,1-1.2c3-0.1,5.9-0.4,8.8-1c3.1-0.6,6.1-1.4,8.6-3.4c1.5-1.1,2.2-2.5,2.2-4.4C64,71.4,63.9,60.9,64,50.3z M23.5,48.8
			c2.1-1.3,4.4-1.9,6.7-2.4c2.7-0.6,5.4-0.8,8.2-1c0.6,0,0.9,0,0.8,0.7c0,0.1,0,0.2,0,0.3c0.1,3.4,0.1,3.4,3.5,3.1
			c0.5,0,0.6-0.2,0.6-0.7c0-0.9,0-1.8,0-2.7c0-0.4,0-0.7,0.6-0.7c4.6,0.3,9.2,0.7,13.6,2.5c0.8,0.3,2.1,0.6,2.1,1.5
			c0,1-1.3,1.2-2.1,1.6c-3.4,1.5-7.1,2-10.7,2.3c-1.8,0.2-3.6,0.2-5.2,0.3c-5.7-0.2-11.2-0.5-16.5-2.6c-0.6-0.2-1.1-0.5-1.6-0.8
			C22.6,49.8,22.7,49.3,23.5,48.8z M22.7,56.4c0.1-0.5,0-1.1,0-1.6c12.4,4,24.7,4,37.1,0c0,0.8,0,1.6,0,2.4c0,0.9-0.6,1.2-1.2,1.5
			c-2.3,1.2-4.8,1.9-7.3,2.3c-7.8,1.3-15.6,1.2-23.3-0.7c-1.3-0.3-2.5-0.8-3.7-1.4C23.2,58.5,22.5,57.8,22.7,56.4z M58.6,83.6
			c-3,1.5-6.2,2.1-9.5,2.6c-5.2,0.7-10.4,0.7-15.5,0c-3.1-0.4-6.1-1-9-2.3c-1.2-0.6-1.9-1.3-1.8-2.8c0.1-6,0-12,0-18
			c12.5,4,24.7,4,37.1,0v1.1c0,5.7,0,11.4,0,17.1C59.9,82.5,59.5,83.2,58.6,83.6z"/>
		<path d="M109.4,41.6c0-1.7-0.6-3.1-1.8-4.3c-0.9-0.9-1.9-1.5-3-2c-2.7-1.3-5.6-1.9-8.5-2.2c-1-0.1-1.2-0.4-1.2-1.4
			c0-9.6,0-19.3,0-28.9c0-2.9,0-2.9-2.9-2.9c-1,0-1.3,0.2-1.2,1.3c0,9.8,0,19.6,0,29.4c0,2.5,0,2.4-2.5,2.7
			c-3.3,0.4-6.5,1.2-9.2,3.2c-1.8,1.3-2.8,3-2.8,5.3c0.1,14.8,0,29.7,0,44.5c0,1.9,0.7,3.3,2,4.5c0.8,0.7,1.7,1.3,2.7,1.8
			c2.7,1.3,5.7,1.9,8.7,2.2c1,0.1,1.1,0.4,1.1,1.3c0,10.6,0,21.2,0,31.9h4.1V97.3c0-2.4,0-2.3,2.4-2.6c3.3-0.4,6.5-1.2,9.2-3.1
			c1.9-1.3,2.8-3,2.8-5.4C109.3,71.3,109.3,56.4,109.4,41.6z M83,39.1c2.2-1,4.5-1.5,6.9-1.7c0.7-0.1,0.9,0.1,0.8,0.8
			c0,0.1,0,0.3,0,0.4c0.1,0.9-0.4,2.3,0.2,2.5c1,0.4,2.3,0.2,3.5,0.2c0.5,0,0.4-0.3,0.4-0.6c0-0.6,0-1.1,0-1.7c0-1.7,0-1.8,1.7-1.6
			c2.5,0.4,5.1,0.9,7.3,2.3c1.8,1.1,1.8,2,0,3.1c-2.2,1.4-4.7,2-7.3,2.3c-1.2,0.2-2.5,0.2-3.5,0.3c-3.6-0.1-6.9-0.5-10-1.9
			c-1.1-0.5-2.5-1-2.5-2.3C80.6,40,82,39.6,83,39.1z M103.5,88.6c-2.7,1.5-5.6,2-8.6,2.2c-4,0.3-7.9-0.2-11.6-1.7
			c-1.9-0.8-2.9-2-2.8-4.3c0.1-9.3,0.1-18.6,0.1-28v-1.4c8.2,3.3,16.4,3.3,24.7,0v1.3c0,9.6,0,19.2,0,28.7
			C105.3,87,104.7,87.9,103.5,88.6z M102.9,51.7c-3.8,1.8-7.8,2.2-11.9,1.9c-2.5-0.1-5-0.6-7.4-1.5c-2.9-1.2-3.2-1.8-3.1-5
			c6.9,3.3,17.6,3.4,24.5,0.1C105.6,49.8,105.3,50.5,102.9,51.7z"/>
	</g>
</g>
</svg>
