<?xml version="1.0" encoding="utf-8"?>
<!-- Generator: Adobe Illustrator 28.0.0, SVG Export Plug-In . SVG Version: 6.00 Build 0)  -->
<svg version="1.1" id="Layer_1" xmlns="http://www.w3.org/2000/svg" xmlns:xlink="http://www.w3.org/1999/xlink" x="0px" y="0px"
	 viewBox="0 0 128 128" style="enable-background:new 0 0 128 128;" xml:space="preserve">
<g id="DaxiTj.tif">
	<g>
		<path d="M68.1,78.5c-2.7,0-5.3,0-8,0c-1.4,0-2.2,0.8-2.2,2.1c0,1.2,0.9,2,2.2,2c1.3,0,2.7,0,4,0c1.3,0,2.7,0,4,0
			c1.4,0,2.2-0.8,2.2-2.1C70.2,79.3,69.4,78.5,68.1,78.5z M68.1,78.5c-2.7,0-5.3,0-8,0c-1.4,0-2.2,0.8-2.2,2.1c0,1.2,0.9,2,2.2,2
			c1.3,0,2.7,0,4,0c1.3,0,2.7,0,4,0c1.4,0,2.2-0.8,2.2-2.1C70.2,79.3,69.4,78.5,68.1,78.5z M68.1,78.5c-2.7,0-5.3,0-8,0
			c-1.4,0-2.2,0.8-2.2,2.1c0,1.2,0.9,2,2.2,2c1.3,0,2.7,0,4,0c1.3,0,2.7,0,4,0c1.4,0,2.2-0.8,2.2-2.1C70.2,79.3,69.4,78.5,68.1,78.5
			z M68.1,78.5c-2.7,0-5.3,0-8,0c-1.4,0-2.2,0.8-2.2,2.1c0,1.2,0.9,2,2.2,2c1.3,0,2.7,0,4,0c1.3,0,2.7,0,4,0c1.4,0,2.2-0.8,2.2-2.1
			C70.2,79.3,69.4,78.5,68.1,78.5z M68.1,78.5c-2.7,0-5.3,0-8,0c-1.4,0-2.2,0.8-2.2,2.1c0,1.2,0.9,2,2.2,2c1.3,0,2.7,0,4,0
			c1.3,0,2.7,0,4,0c1.4,0,2.2-0.8,2.2-2.1C70.2,79.3,69.4,78.5,68.1,78.5z M99.1,94v-3c0,0,0-0.1,0-0.1c-0.1-1.3-0.8-2.1-2.1-2.1
			c-2,0-4,0-6.1,0c-1.3,0-2.1,0.8-2.1,2c0,2.1,0,4.1,0,6.2c0,1.3,0.8,2.1,2.1,2.1c2,0,4,0,6.1,0c1.4,0,2.1-0.8,2.1-2.2
			C99.1,96,99.1,95,99.1,94z M93.9,95c-0.9,0.1-1-0.3-1-1.1c0-0.9,0.2-1.2,1-0.9c1-0.3,1,0.3,1.1,1C95.1,94.9,94.7,95,93.9,95z
			 M99.1,103.3c0-1.3-0.8-2.1-2-2.1c-2.1,0-4.1,0-6.2,0c-1.3,0-2,0.8-2.1,2.1c0,2,0,4,0,6.1c0,1.4,0.8,2.1,2.2,2.1c1,0,2,0,3,0
			s2,0,3,0c1.4,0,2.2-0.8,2.2-2.1C99.1,107.4,99.1,105.3,99.1,103.3z M93.9,107.4c-1,0.1-1-0.5-0.9-1.2c-0.3-1.1,0.5-0.8,1.1-0.9
			c1.1-0.2,0.9,0.5,1,1.2C95.2,107.5,94.5,107.3,93.9,107.4z M99.1,78.5c0-1.3-0.8-2.1-2.1-2.1c-2,0-4,0-6.1,0
			c-1.4,0-2.1,0.8-2.1,2.2c0,1,0,2,0,3c0,1,0,2,0,3c0,1.4,0.8,2.2,2.1,2.2c2,0,4,0,6.1,0c1.3,0,2.1-0.8,2.1-2
			C99.1,82.6,99.1,80.6,99.1,78.5z M93.9,82.6c-1,0.1-1-0.5-0.9-1.2c-0.3-1.1,0.5-0.8,1.1-0.9c1.1-0.2,0.9,0.5,1,1.2
			C95.2,82.8,94.5,82.6,93.9,82.6z M101.3,55.8c-3.5,0-6.3,2.6-6.3,6.1c0,3.5,2.7,6.3,6.1,6.3c3.5,0,6.3-2.6,6.3-6.1
			C107.4,58.6,104.7,55.8,101.3,55.8z M101.2,64.1c-1,0-2-1-2-2.1c0-1,1-2,2.1-2c1,0,2,1,2,2.1C103.2,63.1,102.2,64.1,101.2,64.1z
			 M101.3,55.8c-3.5,0-6.3,2.6-6.3,6.1c0,3.5,2.7,6.3,6.1,6.3c3.5,0,6.3-2.6,6.3-6.1C107.4,58.6,104.7,55.8,101.3,55.8z M101.2,64.1
			c-1,0-2-1-2-2.1c0-1,1-2,2.1-2c1,0,2,1,2,2.1C103.2,63.1,102.2,64.1,101.2,64.1z M101.3,55.8c-3.5,0-6.3,2.6-6.3,6.1
			c0,3.5,2.7,6.3,6.1,6.3c3.5,0,6.3-2.6,6.3-6.1C107.4,58.6,104.7,55.8,101.3,55.8z M101.2,64.1c-1,0-2-1-2-2.1c0-1,1-2,2.1-2
			c1,0,2,1,2,2.1C103.2,63.1,102.2,64.1,101.2,64.1z M101.3,55.8c-3.5,0-6.3,2.6-6.3,6.1c0,3.5,2.7,6.3,6.1,6.3
			c3.5,0,6.3-2.6,6.3-6.1C107.4,58.6,104.7,55.8,101.3,55.8z M101.2,64.1c-1,0-2-1-2-2.1c0-1,1-2,2.1-2c1,0,2,1,2,2.1
			C103.2,63.1,102.2,64.1,101.2,64.1z M101.3,55.8c-3.5,0-6.3,2.6-6.3,6.1c0,3.5,2.7,6.3,6.1,6.3c3.5,0,6.3-2.6,6.3-6.1
			C107.4,58.6,104.7,55.8,101.3,55.8z M101.2,64.1c-1,0-2-1-2-2.1c0-1,1-2,2.1-2c1,0,2,1,2,2.1C103.2,63.1,102.2,64.1,101.2,64.1z
			 M101.3,55.8c-3.5,0-6.3,2.6-6.3,6.1c0,3.5,2.7,6.3,6.1,6.3c3.5,0,6.3-2.6,6.3-6.1C107.4,58.6,104.7,55.8,101.3,55.8z M101.2,64.1
			c-1,0-2-1-2-2.1c0-1,1-2,2.1-2c1,0,2,1,2,2.1C103.2,63.1,102.2,64.1,101.2,64.1z M101.3,55.8c-3.5,0-6.3,2.6-6.3,6.1
			c0,3.5,2.7,6.3,6.1,6.3c3.5,0,6.3-2.6,6.3-6.1C107.4,58.6,104.7,55.8,101.3,55.8z M101.2,64.1c-1,0-2-1-2-2.1c0-1,1-2,2.1-2
			c1,0,2,1,2,2.1C103.2,63.1,102.2,64.1,101.2,64.1z M101.3,55.8c-3.5,0-6.3,2.6-6.3,6.1c0,3.5,2.7,6.3,6.1,6.3
			c3.5,0,6.3-2.6,6.3-6.1C107.4,58.6,104.7,55.8,101.3,55.8z M101.2,64.1c-1,0-2-1-2-2.1c0-1,1-2,2.1-2c1,0,2,1,2,2.1
			C103.2,63.1,102.2,64.1,101.2,64.1z M101.2,49.6c-6.9,0-12.4,5.5-12.4,12.4c0,6.9,5.5,12.4,12.4,12.4c6.8,0,12.3-5.5,12.3-12.3
			C113.6,55.1,108.1,49.6,101.2,49.6z M101.1,70.2c-4.4,0-8.2-3.8-8.2-8.3c0-4.5,3.9-8.3,8.3-8.2c4.5,0.1,8.2,3.8,8.2,8.3
			C109.4,66.5,105.6,70.3,101.1,70.2z M101.3,55.8c-3.5,0-6.3,2.6-6.3,6.1c0,3.5,2.7,6.3,6.1,6.3c3.5,0,6.3-2.6,6.3-6.1
			C107.4,58.6,104.7,55.8,101.3,55.8z M101.2,64.1c-1,0-2-1-2-2.1c0-1,1-2,2.1-2c1,0,2,1,2,2.1C103.2,63.1,102.2,64.1,101.2,64.1z
			 M101.3,55.8c-3.5,0-6.3,2.6-6.3,6.1c0,3.5,2.7,6.3,6.1,6.3c3.5,0,6.3-2.6,6.3-6.1C107.4,58.6,104.7,55.8,101.3,55.8z M101.2,64.1
			c-1,0-2-1-2-2.1c0-1,1-2,2.1-2c1,0,2,1,2,2.1C103.2,63.1,102.2,64.1,101.2,64.1z M101.3,55.8c-3.5,0-6.3,2.6-6.3,6.1
			c0,3.5,2.7,6.3,6.1,6.3c3.5,0,6.3-2.6,6.3-6.1C107.4,58.6,104.7,55.8,101.3,55.8z M101.2,64.1c-1,0-2-1-2-2.1c0-1,1-2,2.1-2
			c1,0,2,1,2,2.1C103.2,63.1,102.2,64.1,101.2,64.1z M101.3,55.8c-3.5,0-6.3,2.6-6.3,6.1c0,3.5,2.7,6.3,6.1,6.3
			c3.5,0,6.3-2.6,6.3-6.1C107.4,58.6,104.7,55.8,101.3,55.8z M101.2,64.1c-1,0-2-1-2-2.1c0-1,1-2,2.1-2c1,0,2,1,2,2.1
			C103.2,63.1,102.2,64.1,101.2,64.1z M101.3,55.8c-3.5,0-6.3,2.6-6.3,6.1c0,3.5,2.7,6.3,6.1,6.3c3.5,0,6.3-2.6,6.3-6.1
			C107.4,58.6,104.7,55.8,101.3,55.8z M101.2,64.1c-1,0-2-1-2-2.1c0-1,1-2,2.1-2c1,0,2,1,2,2.1C103.2,63.1,102.2,64.1,101.2,64.1z
			 M101.3,55.8c-3.5,0-6.3,2.6-6.3,6.1c0,3.5,2.7,6.3,6.1,6.3c3.5,0,6.3-2.6,6.3-6.1C107.4,58.6,104.7,55.8,101.3,55.8z M101.2,64.1
			c-1,0-2-1-2-2.1c0-1,1-2,2.1-2c1,0,2,1,2,2.1C103.2,63.1,102.2,64.1,101.2,64.1z M101.3,55.8c-3.5,0-6.3,2.6-6.3,6.1
			c0,3.5,2.7,6.3,6.1,6.3c3.5,0,6.3-2.6,6.3-6.1C107.4,58.6,104.7,55.8,101.3,55.8z M101.2,64.1c-1,0-2-1-2-2.1c0-1,1-2,2.1-2
			c1,0,2,1,2,2.1C103.2,63.1,102.2,64.1,101.2,64.1z M113.6,94c0-0.9,0-1.9,0-2.8c0-1.6-0.7-2.3-2.3-2.3c-1.9,0-3.9,0-5.8,0
			c-1.5,0-2.2,0.7-2.3,2.2c0,2,0,4,0,5.9c0,1.4,0.8,2.2,2.1,2.2c2,0,4,0,6.1,0c1.4,0,2.1-0.8,2.1-2.2C113.6,95.9,113.6,95,113.6,94z
			 M108.3,95c-1.1,0.1-0.9-0.5-1-1.2c-0.1-1,0.5-1,1.2-0.9c1.1-0.3,0.8,0.5,0.9,1.1C109.6,95.1,109,94.9,108.3,95z M113.6,103.3
			c0-1.3-0.8-2.1-2.1-2.1c-2,0-4,0-6.1,0c-1.4,0-2.1,0.8-2.2,2.1c0,2,0,4,0,6.1c0,1.3,0.8,2.1,2.1,2.1c1,0,2.1,0,3.1,0c1,0,2,0,3,0
			c1.4,0,2.2-0.8,2.2-2.1C113.6,107.3,113.6,105.3,113.6,103.3z M108.3,107.4c-1.1,0.2-0.8-0.5-0.9-1.2c-0.1-1.1,0.5-1,1.2-0.9
			c1.1-0.3,0.8,0.5,0.9,1.1C109.6,107.5,108.9,107.3,108.3,107.4z M113.6,78.6c0-1.3-0.8-2.1-2-2.1c-2.1,0-4.1,0-6.2,0
			c-1.3,0-2.1,0.8-2.1,2.1c0,2,0,4,0,6.1c0,1.4,0.8,2.1,2.2,2.1c1,0,2,0,3,0c1,0,2.1,0,3.1,0c1.3,0,2.1-0.8,2.1-2.1
			C113.6,82.6,113.6,80.6,113.6,78.6z M108.3,82.6c-1.1,0.1-1-0.5-0.9-1.2c-0.3-1.1,0.5-0.8,1.1-0.9c1.1-0.2,0.8,0.5,0.9,1.2
			C109.6,82.8,108.9,82.6,108.3,82.6z M113.6,78.6c0-1.3-0.8-2.1-2-2.1c-2.1,0-4.1,0-6.2,0c-1.3,0-2.1,0.8-2.1,2.1c0,2,0,4,0,6.1
			c0,1.4,0.8,2.1,2.2,2.1c1,0,2,0,3,0c1,0,2.1,0,3.1,0c1.3,0,2.1-0.8,2.1-2.1C113.6,82.6,113.6,80.6,113.6,78.6z M108.3,82.6
			c-1.1,0.1-1-0.5-0.9-1.2c-0.3-1.1,0.5-0.8,1.1-0.9c1.1-0.2,0.8,0.5,0.9,1.2C109.6,82.8,108.9,82.6,108.3,82.6z M113.6,103.3
			c0-1.3-0.8-2.1-2.1-2.1c-2,0-4,0-6.1,0c-1.4,0-2.1,0.8-2.2,2.1c0,2,0,4,0,6.1c0,1.3,0.8,2.1,2.1,2.1c1,0,2.1,0,3.1,0c1,0,2,0,3,0
			c1.4,0,2.2-0.8,2.2-2.1C113.6,107.3,113.6,105.3,113.6,103.3z M108.3,107.4c-1.1,0.2-0.8-0.5-0.9-1.2c-0.1-1.1,0.5-1,1.2-0.9
			c1.1-0.3,0.8,0.5,0.9,1.1C109.6,107.5,108.9,107.3,108.3,107.4z M113.6,94c0-0.9,0-1.9,0-2.8c0-1.6-0.7-2.3-2.3-2.3
			c-1.9,0-3.9,0-5.8,0c-1.5,0-2.2,0.7-2.3,2.2c0,2,0,4,0,5.9c0,1.4,0.8,2.2,2.1,2.2c2,0,4,0,6.1,0c1.4,0,2.1-0.8,2.1-2.2
			C113.6,95.9,113.6,95,113.6,94z M108.3,95c-1.1,0.1-0.9-0.5-1-1.2c-0.1-1,0.5-1,1.2-0.9c1.1-0.3,0.8,0.5,0.9,1.1
			C109.6,95.1,109,94.9,108.3,95z M101.3,55.8c-3.5,0-6.3,2.6-6.3,6.1c0,3.5,2.7,6.3,6.1,6.3c3.5,0,6.3-2.6,6.3-6.1
			C107.4,58.6,104.7,55.8,101.3,55.8z M101.2,64.1c-1,0-2-1-2-2.1c0-1,1-2,2.1-2c1,0,2,1,2,2.1C103.2,63.1,102.2,64.1,101.2,64.1z
			 M101.3,55.8c-3.5,0-6.3,2.6-6.3,6.1c0,3.5,2.7,6.3,6.1,6.3c3.5,0,6.3-2.6,6.3-6.1C107.4,58.6,104.7,55.8,101.3,55.8z M101.2,64.1
			c-1,0-2-1-2-2.1c0-1,1-2,2.1-2c1,0,2,1,2,2.1C103.2,63.1,102.2,64.1,101.2,64.1z M101.3,55.8c-3.5,0-6.3,2.6-6.3,6.1
			c0,3.5,2.7,6.3,6.1,6.3c3.5,0,6.3-2.6,6.3-6.1C107.4,58.6,104.7,55.8,101.3,55.8z M101.2,64.1c-1,0-2-1-2-2.1c0-1,1-2,2.1-2
			c1,0,2,1,2,2.1C103.2,63.1,102.2,64.1,101.2,64.1z M101.3,55.8c-3.5,0-6.3,2.6-6.3,6.1c0,3.5,2.7,6.3,6.1,6.3
			c3.5,0,6.3-2.6,6.3-6.1C107.4,58.6,104.7,55.8,101.3,55.8z M101.2,64.1c-1,0-2-1-2-2.1c0-1,1-2,2.1-2c1,0,2,1,2,2.1
			C103.2,63.1,102.2,64.1,101.2,64.1z M101.3,55.8c-3.5,0-6.3,2.6-6.3,6.1c0,3.5,2.7,6.3,6.1,6.3c3.5,0,6.3-2.6,6.3-6.1
			C107.4,58.6,104.7,55.8,101.3,55.8z M101.2,64.1c-1,0-2-1-2-2.1c0-1,1-2,2.1-2c1,0,2,1,2,2.1C103.2,63.1,102.2,64.1,101.2,64.1z
			 M101.3,55.8c-3.5,0-6.3,2.6-6.3,6.1c0,3.5,2.7,6.3,6.1,6.3c3.5,0,6.3-2.6,6.3-6.1C107.4,58.6,104.7,55.8,101.3,55.8z M101.2,64.1
			c-1,0-2-1-2-2.1c0-1,1-2,2.1-2c1,0,2,1,2,2.1C103.2,63.1,102.2,64.1,101.2,64.1z M101.2,49.6c-6.9,0-12.4,5.5-12.4,12.4
			c0,6.9,5.5,12.4,12.4,12.4c6.8,0,12.3-5.5,12.3-12.3C113.6,55.1,108.1,49.6,101.2,49.6z M101.1,70.2c-4.4,0-8.2-3.8-8.2-8.3
			c0-4.5,3.9-8.3,8.3-8.2c4.5,0.1,8.2,3.8,8.2,8.3C109.4,66.5,105.6,70.3,101.1,70.2z M101.3,55.8c-3.5,0-6.3,2.6-6.3,6.1
			c0,3.5,2.7,6.3,6.1,6.3c3.5,0,6.3-2.6,6.3-6.1C107.4,58.6,104.7,55.8,101.3,55.8z M101.2,64.1c-1,0-2-1-2-2.1c0-1,1-2,2.1-2
			c1,0,2,1,2,2.1C103.2,63.1,102.2,64.1,101.2,64.1z M101.3,55.8c-3.5,0-6.3,2.6-6.3,6.1c0,3.5,2.7,6.3,6.1,6.3
			c3.5,0,6.3-2.6,6.3-6.1C107.4,58.6,104.7,55.8,101.3,55.8z M101.2,64.1c-1,0-2-1-2-2.1c0-1,1-2,2.1-2c1,0,2,1,2,2.1
			C103.2,63.1,102.2,64.1,101.2,64.1z M101.3,55.8c-3.5,0-6.3,2.6-6.3,6.1c0,3.5,2.7,6.3,6.1,6.3c3.5,0,6.3-2.6,6.3-6.1
			C107.4,58.6,104.7,55.8,101.3,55.8z M101.2,64.1c-1,0-2-1-2-2.1c0-1,1-2,2.1-2c1,0,2,1,2,2.1C103.2,63.1,102.2,64.1,101.2,64.1z
			 M101.3,55.8c-3.5,0-6.3,2.6-6.3,6.1c0,3.5,2.7,6.3,6.1,6.3c3.5,0,6.3-2.6,6.3-6.1C107.4,58.6,104.7,55.8,101.3,55.8z M101.2,64.1
			c-1,0-2-1-2-2.1c0-1,1-2,2.1-2c1,0,2,1,2,2.1C103.2,63.1,102.2,64.1,101.2,64.1z M101.3,55.8c-3.5,0-6.3,2.6-6.3,6.1
			c0,3.5,2.7,6.3,6.1,6.3c3.5,0,6.3-2.6,6.3-6.1C107.4,58.6,104.7,55.8,101.3,55.8z M101.2,64.1c-1,0-2-1-2-2.1c0-1,1-2,2.1-2
			c1,0,2,1,2,2.1C103.2,63.1,102.2,64.1,101.2,64.1z M101.3,55.8c-3.5,0-6.3,2.6-6.3,6.1c0,3.5,2.7,6.3,6.1,6.3
			c3.5,0,6.3-2.6,6.3-6.1C107.4,58.6,104.7,55.8,101.3,55.8z M101.2,64.1c-1,0-2-1-2-2.1c0-1,1-2,2.1-2c1,0,2,1,2,2.1
			C103.2,63.1,102.2,64.1,101.2,64.1z M101.3,55.8c-3.5,0-6.3,2.6-6.3,6.1c0,3.5,2.7,6.3,6.1,6.3c3.5,0,6.3-2.6,6.3-6.1
			C107.4,58.6,104.7,55.8,101.3,55.8z M101.2,64.1c-1,0-2-1-2-2.1c0-1,1-2,2.1-2c1,0,2,1,2,2.1C103.2,63.1,102.2,64.1,101.2,64.1z
			 M99.1,78.5c0-1.3-0.8-2.1-2.1-2.1c-2,0-4,0-6.1,0c-1.4,0-2.1,0.8-2.1,2.2c0,1,0,2,0,3c0,1,0,2,0,3c0,1.4,0.8,2.2,2.1,2.2
			c2,0,4,0,6.1,0c1.3,0,2.1-0.8,2.1-2C99.1,82.6,99.1,80.6,99.1,78.5z M93.9,82.6c-1,0.1-1-0.5-0.9-1.2c-0.3-1.1,0.5-0.8,1.1-0.9
			c1.1-0.2,0.9,0.5,1,1.2C95.2,82.8,94.5,82.6,93.9,82.6z M99.1,103.3c0-1.3-0.8-2.1-2-2.1c-2.1,0-4.1,0-6.2,0c-1.3,0-2,0.8-2.1,2.1
			c0,2,0,4,0,6.1c0,1.4,0.8,2.1,2.2,2.1c1,0,2,0,3,0s2,0,3,0c1.4,0,2.2-0.8,2.2-2.1C99.1,107.4,99.1,105.3,99.1,103.3z M93.9,107.4
			c-1,0.1-1-0.5-0.9-1.2c-0.3-1.1,0.5-0.8,1.1-0.9c1.1-0.2,0.9,0.5,1,1.2C95.2,107.5,94.5,107.3,93.9,107.4z M99.1,94v-3
			c0,0,0-0.1,0-0.1c-0.1-1.3-0.8-2.1-2.1-2.1c-2,0-4,0-6.1,0c-1.3,0-2.1,0.8-2.1,2c0,2.1,0,4.1,0,6.2c0,1.3,0.8,2.1,2.1,2.1
			c2,0,4,0,6.1,0c1.4,0,2.1-0.8,2.1-2.2C99.1,96,99.1,95,99.1,94z M93.9,95c-0.9,0.1-1-0.3-1-1.1c0-0.9,0.2-1.2,1-0.9
			c1-0.3,1,0.3,1.1,1C95.1,94.9,94.7,95,93.9,95z M68.1,78.5c-2.7,0-5.3,0-8,0c-1.4,0-2.2,0.8-2.2,2.1c0,1.2,0.9,2,2.2,2
			c1.3,0,2.7,0,4,0c1.3,0,2.7,0,4,0c1.4,0,2.2-0.8,2.2-2.1C70.2,79.3,69.4,78.5,68.1,78.5z M68.1,78.5c-2.7,0-5.3,0-8,0
			c-1.4,0-2.2,0.8-2.2,2.1c0,1.2,0.9,2,2.2,2c1.3,0,2.7,0,4,0c1.3,0,2.7,0,4,0c1.4,0,2.2-0.8,2.2-2.1C70.2,79.3,69.4,78.5,68.1,78.5
			z M99.1,94v-3c0,0,0-0.1,0-0.1c-0.1-1.3-0.8-2.1-2.1-2.1c-2,0-4,0-6.1,0c-1.3,0-2.1,0.8-2.1,2c0,2.1,0,4.1,0,6.2
			c0,1.3,0.8,2.1,2.1,2.1c2,0,4,0,6.1,0c1.4,0,2.1-0.8,2.1-2.2C99.1,96,99.1,95,99.1,94z M93.9,95c-0.9,0.1-1-0.3-1-1.1
			c0-0.9,0.2-1.2,1-0.9c1-0.3,1,0.3,1.1,1C95.1,94.9,94.7,95,93.9,95z M99.1,103.3c0-1.3-0.8-2.1-2-2.1c-2.1,0-4.1,0-6.2,0
			c-1.3,0-2,0.8-2.1,2.1c0,2,0,4,0,6.1c0,1.4,0.8,2.1,2.2,2.1c1,0,2,0,3,0s2,0,3,0c1.4,0,2.2-0.8,2.2-2.1
			C99.1,107.4,99.1,105.3,99.1,103.3z M93.9,107.4c-1,0.1-1-0.5-0.9-1.2c-0.3-1.1,0.5-0.8,1.1-0.9c1.1-0.2,0.9,0.5,1,1.2
			C95.2,107.5,94.5,107.3,93.9,107.4z M99.1,78.5c0-1.3-0.8-2.1-2.1-2.1c-2,0-4,0-6.1,0c-1.4,0-2.1,0.8-2.1,2.2c0,1,0,2,0,3
			c0,1,0,2,0,3c0,1.4,0.8,2.2,2.1,2.2c2,0,4,0,6.1,0c1.3,0,2.1-0.8,2.1-2C99.1,82.6,99.1,80.6,99.1,78.5z M93.9,82.6
			c-1,0.1-1-0.5-0.9-1.2c-0.3-1.1,0.5-0.8,1.1-0.9c1.1-0.2,0.9,0.5,1,1.2C95.2,82.8,94.5,82.6,93.9,82.6z M101.3,55.8
			c-3.5,0-6.3,2.6-6.3,6.1c0,3.5,2.7,6.3,6.1,6.3c3.5,0,6.3-2.6,6.3-6.1C107.4,58.6,104.7,55.8,101.3,55.8z M101.2,64.1
			c-1,0-2-1-2-2.1c0-1,1-2,2.1-2c1,0,2,1,2,2.1C103.2,63.1,102.2,64.1,101.2,64.1z M101.3,55.8c-3.5,0-6.3,2.6-6.3,6.1
			c0,3.5,2.7,6.3,6.1,6.3c3.5,0,6.3-2.6,6.3-6.1C107.4,58.6,104.7,55.8,101.3,55.8z M101.2,64.1c-1,0-2-1-2-2.1c0-1,1-2,2.1-2
			c1,0,2,1,2,2.1C103.2,63.1,102.2,64.1,101.2,64.1z M101.3,55.8c-3.5,0-6.3,2.6-6.3,6.1c0,3.5,2.7,6.3,6.1,6.3
			c3.5,0,6.3-2.6,6.3-6.1C107.4,58.6,104.7,55.8,101.3,55.8z M101.2,64.1c-1,0-2-1-2-2.1c0-1,1-2,2.1-2c1,0,2,1,2,2.1
			C103.2,63.1,102.2,64.1,101.2,64.1z M101.3,55.8c-3.5,0-6.3,2.6-6.3,6.1c0,3.5,2.7,6.3,6.1,6.3c3.5,0,6.3-2.6,6.3-6.1
			C107.4,58.6,104.7,55.8,101.3,55.8z M101.2,64.1c-1,0-2-1-2-2.1c0-1,1-2,2.1-2c1,0,2,1,2,2.1C103.2,63.1,102.2,64.1,101.2,64.1z
			 M101.3,55.8c-3.5,0-6.3,2.6-6.3,6.1c0,3.5,2.7,6.3,6.1,6.3c3.5,0,6.3-2.6,6.3-6.1C107.4,58.6,104.7,55.8,101.3,55.8z M101.2,64.1
			c-1,0-2-1-2-2.1c0-1,1-2,2.1-2c1,0,2,1,2,2.1C103.2,63.1,102.2,64.1,101.2,64.1z M101.3,55.8c-3.5,0-6.3,2.6-6.3,6.1
			c0,3.5,2.7,6.3,6.1,6.3c3.5,0,6.3-2.6,6.3-6.1C107.4,58.6,104.7,55.8,101.3,55.8z M101.2,64.1c-1,0-2-1-2-2.1c0-1,1-2,2.1-2
			c1,0,2,1,2,2.1C103.2,63.1,102.2,64.1,101.2,64.1z M101.2,49.6c-6.9,0-12.4,5.5-12.4,12.4c0,6.9,5.5,12.4,12.4,12.4
			c6.8,0,12.3-5.5,12.3-12.3C113.6,55.1,108.1,49.6,101.2,49.6z M101.1,70.2c-4.4,0-8.2-3.8-8.2-8.3c0-4.5,3.9-8.3,8.3-8.2
			c4.5,0.1,8.2,3.8,8.2,8.3C109.4,66.5,105.6,70.3,101.1,70.2z M101.3,55.8c-3.5,0-6.3,2.6-6.3,6.1c0,3.5,2.7,6.3,6.1,6.3
			c3.5,0,6.3-2.6,6.3-6.1C107.4,58.6,104.7,55.8,101.3,55.8z M101.2,64.1c-1,0-2-1-2-2.1c0-1,1-2,2.1-2c1,0,2,1,2,2.1
			C103.2,63.1,102.2,64.1,101.2,64.1z M101.3,55.8c-3.5,0-6.3,2.6-6.3,6.1c0,3.5,2.7,6.3,6.1,6.3c3.5,0,6.3-2.6,6.3-6.1
			C107.4,58.6,104.7,55.8,101.3,55.8z M101.2,64.1c-1,0-2-1-2-2.1c0-1,1-2,2.1-2c1,0,2,1,2,2.1C103.2,63.1,102.2,64.1,101.2,64.1z
			 M101.3,55.8c-3.5,0-6.3,2.6-6.3,6.1c0,3.5,2.7,6.3,6.1,6.3c3.5,0,6.3-2.6,6.3-6.1C107.4,58.6,104.7,55.8,101.3,55.8z M101.2,64.1
			c-1,0-2-1-2-2.1c0-1,1-2,2.1-2c1,0,2,1,2,2.1C103.2,63.1,102.2,64.1,101.2,64.1z M101.3,55.8c-3.5,0-6.3,2.6-6.3,6.1
			c0,3.5,2.7,6.3,6.1,6.3c3.5,0,6.3-2.6,6.3-6.1C107.4,58.6,104.7,55.8,101.3,55.8z M101.2,64.1c-1,0-2-1-2-2.1c0-1,1-2,2.1-2
			c1,0,2,1,2,2.1C103.2,63.1,102.2,64.1,101.2,64.1z M101.3,55.8c-3.5,0-6.3,2.6-6.3,6.1c0,3.5,2.7,6.3,6.1,6.3
			c3.5,0,6.3-2.6,6.3-6.1C107.4,58.6,104.7,55.8,101.3,55.8z M101.2,64.1c-1,0-2-1-2-2.1c0-1,1-2,2.1-2c1,0,2,1,2,2.1
			C103.2,63.1,102.2,64.1,101.2,64.1z M113.6,94c0-0.9,0-1.9,0-2.8c0-1.6-0.7-2.3-2.3-2.3c-1.9,0-3.9,0-5.8,0
			c-1.5,0-2.2,0.7-2.3,2.2c0,2,0,4,0,5.9c0,1.4,0.8,2.2,2.1,2.2c2,0,4,0,6.1,0c1.4,0,2.1-0.8,2.1-2.2C113.6,95.9,113.6,95,113.6,94z
			 M108.3,95c-1.1,0.1-0.9-0.5-1-1.2c-0.1-1,0.5-1,1.2-0.9c1.1-0.3,0.8,0.5,0.9,1.1C109.6,95.1,109,94.9,108.3,95z M113.6,103.3
			c0-1.3-0.8-2.1-2.1-2.1c-2,0-4,0-6.1,0c-1.4,0-2.1,0.8-2.2,2.1c0,2,0,4,0,6.1c0,1.3,0.8,2.1,2.1,2.1c1,0,2.1,0,3.1,0c1,0,2,0,3,0
			c1.4,0,2.2-0.8,2.2-2.1C113.6,107.3,113.6,105.3,113.6,103.3z M108.3,107.4c-1.1,0.2-0.8-0.5-0.9-1.2c-0.1-1.1,0.5-1,1.2-0.9
			c1.1-0.3,0.8,0.5,0.9,1.1C109.6,107.5,108.9,107.3,108.3,107.4z M113.6,78.6c0-1.3-0.8-2.1-2-2.1c-2.1,0-4.1,0-6.2,0
			c-1.3,0-2.1,0.8-2.1,2.1c0,2,0,4,0,6.1c0,1.4,0.8,2.1,2.2,2.1c1,0,2,0,3,0c1,0,2.1,0,3.1,0c1.3,0,2.1-0.8,2.1-2.1
			C113.6,82.6,113.6,80.6,113.6,78.6z M108.3,82.6c-1.1,0.1-1-0.5-0.9-1.2c-0.3-1.1,0.5-0.8,1.1-0.9c1.1-0.2,0.8,0.5,0.9,1.2
			C109.6,82.8,108.9,82.6,108.3,82.6z M113.6,78.6c0-1.3-0.8-2.1-2-2.1c-2.1,0-4.1,0-6.2,0c-1.3,0-2.1,0.8-2.1,2.1c0,2,0,4,0,6.1
			c0,1.4,0.8,2.1,2.2,2.1c1,0,2,0,3,0c1,0,2.1,0,3.1,0c1.3,0,2.1-0.8,2.1-2.1C113.6,82.6,113.6,80.6,113.6,78.6z M108.3,82.6
			c-1.1,0.1-1-0.5-0.9-1.2c-0.3-1.1,0.5-0.8,1.1-0.9c1.1-0.2,0.8,0.5,0.9,1.2C109.6,82.8,108.9,82.6,108.3,82.6z M113.6,103.3
			c0-1.3-0.8-2.1-2.1-2.1c-2,0-4,0-6.1,0c-1.4,0-2.1,0.8-2.2,2.1c0,2,0,4,0,6.1c0,1.3,0.8,2.1,2.1,2.1c1,0,2.1,0,3.1,0c1,0,2,0,3,0
			c1.4,0,2.2-0.8,2.2-2.1C113.6,107.3,113.6,105.3,113.6,103.3z M108.3,107.4c-1.1,0.2-0.8-0.5-0.9-1.2c-0.1-1.1,0.5-1,1.2-0.9
			c1.1-0.3,0.8,0.5,0.9,1.1C109.6,107.5,108.9,107.3,108.3,107.4z M113.6,94c0-0.9,0-1.9,0-2.8c0-1.6-0.7-2.3-2.3-2.3
			c-1.9,0-3.9,0-5.8,0c-1.5,0-2.2,0.7-2.3,2.2c0,2,0,4,0,5.9c0,1.4,0.8,2.2,2.1,2.2c2,0,4,0,6.1,0c1.4,0,2.1-0.8,2.1-2.2
			C113.6,95.9,113.6,95,113.6,94z M108.3,95c-1.1,0.1-0.9-0.5-1-1.2c-0.1-1,0.5-1,1.2-0.9c1.1-0.3,0.8,0.5,0.9,1.1
			C109.6,95.1,109,94.9,108.3,95z M101.3,55.8c-3.5,0-6.3,2.6-6.3,6.1c0,3.5,2.7,6.3,6.1,6.3c3.5,0,6.3-2.6,6.3-6.1
			C107.4,58.6,104.7,55.8,101.3,55.8z M101.2,64.1c-1,0-2-1-2-2.1c0-1,1-2,2.1-2c1,0,2,1,2,2.1C103.2,63.1,102.2,64.1,101.2,64.1z
			 M101.3,55.8c-3.5,0-6.3,2.6-6.3,6.1c0,3.5,2.7,6.3,6.1,6.3c3.5,0,6.3-2.6,6.3-6.1C107.4,58.6,104.7,55.8,101.3,55.8z M101.2,64.1
			c-1,0-2-1-2-2.1c0-1,1-2,2.1-2c1,0,2,1,2,2.1C103.2,63.1,102.2,64.1,101.2,64.1z M101.3,55.8c-3.5,0-6.3,2.6-6.3,6.1
			c0,3.5,2.7,6.3,6.1,6.3c3.5,0,6.3-2.6,6.3-6.1C107.4,58.6,104.7,55.8,101.3,55.8z M101.2,64.1c-1,0-2-1-2-2.1c0-1,1-2,2.1-2
			c1,0,2,1,2,2.1C103.2,63.1,102.2,64.1,101.2,64.1z M101.3,55.8c-3.5,0-6.3,2.6-6.3,6.1c0,3.5,2.7,6.3,6.1,6.3
			c3.5,0,6.3-2.6,6.3-6.1C107.4,58.6,104.7,55.8,101.3,55.8z M101.2,64.1c-1,0-2-1-2-2.1c0-1,1-2,2.1-2c1,0,2,1,2,2.1
			C103.2,63.1,102.2,64.1,101.2,64.1z M101.2,49.6c-6.9,0-12.4,5.5-12.4,12.4c0,6.9,5.5,12.4,12.4,12.4c6.8,0,12.3-5.5,12.3-12.3
			C113.6,55.1,108.1,49.6,101.2,49.6z M101.1,70.2c-4.4,0-8.2-3.8-8.2-8.3c0-4.5,3.9-8.3,8.3-8.2c4.5,0.1,8.2,3.8,8.2,8.3
			C109.4,66.5,105.6,70.3,101.1,70.2z M101.3,55.8c-3.5,0-6.3,2.6-6.3,6.1c0,3.5,2.7,6.3,6.1,6.3c3.5,0,6.3-2.6,6.3-6.1
			C107.4,58.6,104.7,55.8,101.3,55.8z M101.2,64.1c-1,0-2-1-2-2.1c0-1,1-2,2.1-2c1,0,2,1,2,2.1C103.2,63.1,102.2,64.1,101.2,64.1z
			 M101.3,55.8c-3.5,0-6.3,2.6-6.3,6.1c0,3.5,2.7,6.3,6.1,6.3c3.5,0,6.3-2.6,6.3-6.1C107.4,58.6,104.7,55.8,101.3,55.8z M101.2,64.1
			c-1,0-2-1-2-2.1c0-1,1-2,2.1-2c1,0,2,1,2,2.1C103.2,63.1,102.2,64.1,101.2,64.1z M101.3,55.8c-3.5,0-6.3,2.6-6.3,6.1
			c0,3.5,2.7,6.3,6.1,6.3c3.5,0,6.3-2.6,6.3-6.1C107.4,58.6,104.7,55.8,101.3,55.8z M101.2,64.1c-1,0-2-1-2-2.1c0-1,1-2,2.1-2
			c1,0,2,1,2,2.1C103.2,63.1,102.2,64.1,101.2,64.1z M101.3,55.8c-3.5,0-6.3,2.6-6.3,6.1c0,3.5,2.7,6.3,6.1,6.3
			c3.5,0,6.3-2.6,6.3-6.1C107.4,58.6,104.7,55.8,101.3,55.8z M101.2,64.1c-1,0-2-1-2-2.1c0-1,1-2,2.1-2c1,0,2,1,2,2.1
			C103.2,63.1,102.2,64.1,101.2,64.1z M101.3,55.8c-3.5,0-6.3,2.6-6.3,6.1c0,3.5,2.7,6.3,6.1,6.3c3.5,0,6.3-2.6,6.3-6.1
			C107.4,58.6,104.7,55.8,101.3,55.8z M101.2,64.1c-1,0-2-1-2-2.1c0-1,1-2,2.1-2c1,0,2,1,2,2.1C103.2,63.1,102.2,64.1,101.2,64.1z
			 M99.1,78.5c0-1.3-0.8-2.1-2.1-2.1c-2,0-4,0-6.1,0c-1.4,0-2.1,0.8-2.1,2.2c0,1,0,2,0,3c0,1,0,2,0,3c0,1.4,0.8,2.2,2.1,2.2
			c2,0,4,0,6.1,0c1.3,0,2.1-0.8,2.1-2C99.1,82.6,99.1,80.6,99.1,78.5z M93.9,82.6c-1,0.1-1-0.5-0.9-1.2c-0.3-1.1,0.5-0.8,1.1-0.9
			c1.1-0.2,0.9,0.5,1,1.2C95.2,82.8,94.5,82.6,93.9,82.6z M99.1,103.3c0-1.3-0.8-2.1-2-2.1c-2.1,0-4.1,0-6.2,0c-1.3,0-2,0.8-2.1,2.1
			c0,2,0,4,0,6.1c0,1.4,0.8,2.1,2.2,2.1c1,0,2,0,3,0s2,0,3,0c1.4,0,2.2-0.8,2.2-2.1C99.1,107.4,99.1,105.3,99.1,103.3z M93.9,107.4
			c-1,0.1-1-0.5-0.9-1.2c-0.3-1.1,0.5-0.8,1.1-0.9c1.1-0.2,0.9,0.5,1,1.2C95.2,107.5,94.5,107.3,93.9,107.4z M99.1,94v-3
			c0,0,0-0.1,0-0.1c-0.1-1.3-0.8-2.1-2.1-2.1c-2,0-4,0-6.1,0c-1.3,0-2.1,0.8-2.1,2c0,2.1,0,4.1,0,6.2c0,1.3,0.8,2.1,2.1,2.1
			c2,0,4,0,6.1,0c1.4,0,2.1-0.8,2.1-2.2C99.1,96,99.1,95,99.1,94z M93.9,95c-0.9,0.1-1-0.3-1-1.1c0-0.9,0.2-1.2,1-0.9
			c1-0.3,1,0.3,1.1,1C95.1,94.9,94.7,95,93.9,95z M68.1,78.5c-2.7,0-5.3,0-8,0c-1.4,0-2.2,0.8-2.2,2.1c0,1.2,0.9,2,2.2,2
			c1.3,0,2.7,0,4,0c1.3,0,2.7,0,4,0c1.4,0,2.2-0.8,2.2-2.1C70.2,79.3,69.4,78.5,68.1,78.5z M68.1,78.5c-2.7,0-5.3,0-8,0
			c-1.4,0-2.2,0.8-2.2,2.1c0,1.2,0.9,2,2.2,2c1.3,0,2.7,0,4,0c1.3,0,2.7,0,4,0c1.4,0,2.2-0.8,2.2-2.1C70.2,79.3,69.4,78.5,68.1,78.5
			z M99.1,94v-3c0,0,0-0.1,0-0.1c-0.1-1.3-0.8-2.1-2.1-2.1c-2,0-4,0-6.1,0c-1.3,0-2.1,0.8-2.1,2c0,2.1,0,4.1,0,6.2
			c0,1.3,0.8,2.1,2.1,2.1c2,0,4,0,6.1,0c1.4,0,2.1-0.8,2.1-2.2C99.1,96,99.1,95,99.1,94z M93.9,95c-0.9,0.1-1-0.3-1-1.1
			c0-0.9,0.2-1.2,1-0.9c1-0.3,1,0.3,1.1,1C95.1,94.9,94.7,95,93.9,95z M99.1,103.3c0-1.3-0.8-2.1-2-2.1c-2.1,0-4.1,0-6.2,0
			c-1.3,0-2,0.8-2.1,2.1c0,2,0,4,0,6.1c0,1.4,0.8,2.1,2.2,2.1c1,0,2,0,3,0s2,0,3,0c1.4,0,2.2-0.8,2.2-2.1
			C99.1,107.4,99.1,105.3,99.1,103.3z M93.9,107.4c-1,0.1-1-0.5-0.9-1.2c-0.3-1.1,0.5-0.8,1.1-0.9c1.1-0.2,0.9,0.5,1,1.2
			C95.2,107.5,94.5,107.3,93.9,107.4z M99.1,78.5c0-1.3-0.8-2.1-2.1-2.1c-2,0-4,0-6.1,0c-1.4,0-2.1,0.8-2.1,2.2c0,1,0,2,0,3
			c0,1,0,2,0,3c0,1.4,0.8,2.2,2.1,2.2c2,0,4,0,6.1,0c1.3,0,2.1-0.8,2.1-2C99.1,82.6,99.1,80.6,99.1,78.5z M93.9,82.6
			c-1,0.1-1-0.5-0.9-1.2c-0.3-1.1,0.5-0.8,1.1-0.9c1.1-0.2,0.9,0.5,1,1.2C95.2,82.8,94.5,82.6,93.9,82.6z M101.3,55.8
			c-3.5,0-6.3,2.6-6.3,6.1c0,3.5,2.7,6.3,6.1,6.3c3.5,0,6.3-2.6,6.3-6.1C107.4,58.6,104.7,55.8,101.3,55.8z M101.2,64.1
			c-1,0-2-1-2-2.1c0-1,1-2,2.1-2c1,0,2,1,2,2.1C103.2,63.1,102.2,64.1,101.2,64.1z M101.3,55.8c-3.5,0-6.3,2.6-6.3,6.1
			c0,3.5,2.7,6.3,6.1,6.3c3.5,0,6.3-2.6,6.3-6.1C107.4,58.6,104.7,55.8,101.3,55.8z M101.2,64.1c-1,0-2-1-2-2.1c0-1,1-2,2.1-2
			c1,0,2,1,2,2.1C103.2,63.1,102.2,64.1,101.2,64.1z M101.3,55.8c-3.5,0-6.3,2.6-6.3,6.1c0,3.5,2.7,6.3,6.1,6.3
			c3.5,0,6.3-2.6,6.3-6.1C107.4,58.6,104.7,55.8,101.3,55.8z M101.2,64.1c-1,0-2-1-2-2.1c0-1,1-2,2.1-2c1,0,2,1,2,2.1
			C103.2,63.1,102.2,64.1,101.2,64.1z M101.3,55.8c-3.5,0-6.3,2.6-6.3,6.1c0,3.5,2.7,6.3,6.1,6.3c3.5,0,6.3-2.6,6.3-6.1
			C107.4,58.6,104.7,55.8,101.3,55.8z M101.2,64.1c-1,0-2-1-2-2.1c0-1,1-2,2.1-2c1,0,2,1,2,2.1C103.2,63.1,102.2,64.1,101.2,64.1z
			 M101.2,49.6c-6.9,0-12.4,5.5-12.4,12.4c0,6.9,5.5,12.4,12.4,12.4c6.8,0,12.3-5.5,12.3-12.3C113.6,55.1,108.1,49.6,101.2,49.6z
			 M101.1,70.2c-4.4,0-8.2-3.8-8.2-8.3c0-4.5,3.9-8.3,8.3-8.2c4.5,0.1,8.2,3.8,8.2,8.3C109.4,66.5,105.6,70.3,101.1,70.2z
			 M101.3,55.8c-3.5,0-6.3,2.6-6.3,6.1c0,3.5,2.7,6.3,6.1,6.3c3.5,0,6.3-2.6,6.3-6.1C107.4,58.6,104.7,55.8,101.3,55.8z M101.2,64.1
			c-1,0-2-1-2-2.1c0-1,1-2,2.1-2c1,0,2,1,2,2.1C103.2,63.1,102.2,64.1,101.2,64.1z M101.3,55.8c-3.5,0-6.3,2.6-6.3,6.1
			c0,3.5,2.7,6.3,6.1,6.3c3.5,0,6.3-2.6,6.3-6.1C107.4,58.6,104.7,55.8,101.3,55.8z M101.2,64.1c-1,0-2-1-2-2.1c0-1,1-2,2.1-2
			c1,0,2,1,2,2.1C103.2,63.1,102.2,64.1,101.2,64.1z M101.3,55.8c-3.5,0-6.3,2.6-6.3,6.1c0,3.5,2.7,6.3,6.1,6.3
			c3.5,0,6.3-2.6,6.3-6.1C107.4,58.6,104.7,55.8,101.3,55.8z M101.2,64.1c-1,0-2-1-2-2.1c0-1,1-2,2.1-2c1,0,2,1,2,2.1
			C103.2,63.1,102.2,64.1,101.2,64.1z M113.6,94c0-0.9,0-1.9,0-2.8c0-1.6-0.7-2.3-2.3-2.3c-1.9,0-3.9,0-5.8,0
			c-1.5,0-2.2,0.7-2.3,2.2c0,2,0,4,0,5.9c0,1.4,0.8,2.2,2.1,2.2c2,0,4,0,6.1,0c1.4,0,2.1-0.8,2.1-2.2C113.6,95.9,113.6,95,113.6,94z
			 M108.3,95c-1.1,0.1-0.9-0.5-1-1.2c-0.1-1,0.5-1,1.2-0.9c1.1-0.3,0.8,0.5,0.9,1.1C109.6,95.1,109,94.9,108.3,95z M113.6,103.3
			c0-1.3-0.8-2.1-2.1-2.1c-2,0-4,0-6.1,0c-1.4,0-2.1,0.8-2.2,2.1c0,2,0,4,0,6.1c0,1.3,0.8,2.1,2.1,2.1c1,0,2.1,0,3.1,0c1,0,2,0,3,0
			c1.4,0,2.2-0.8,2.2-2.1C113.6,107.3,113.6,105.3,113.6,103.3z M108.3,107.4c-1.1,0.2-0.8-0.5-0.9-1.2c-0.1-1.1,0.5-1,1.2-0.9
			c1.1-0.3,0.8,0.5,0.9,1.1C109.6,107.5,108.9,107.3,108.3,107.4z M113.6,78.6c0-1.3-0.8-2.1-2-2.1c-2.1,0-4.1,0-6.2,0
			c-1.3,0-2.1,0.8-2.1,2.1c0,2,0,4,0,6.1c0,1.4,0.8,2.1,2.2,2.1c1,0,2,0,3,0c1,0,2.1,0,3.1,0c1.3,0,2.1-0.8,2.1-2.1
			C113.6,82.6,113.6,80.6,113.6,78.6z M108.3,82.6c-1.1,0.1-1-0.5-0.9-1.2c-0.3-1.1,0.5-0.8,1.1-0.9c1.1-0.2,0.8,0.5,0.9,1.2
			C109.6,82.8,108.9,82.6,108.3,82.6z M113.6,78.6c0-1.3-0.8-2.1-2-2.1c-2.1,0-4.1,0-6.2,0c-1.3,0-2.1,0.8-2.1,2.1c0,2,0,4,0,6.1
			c0,1.4,0.8,2.1,2.2,2.1c1,0,2,0,3,0c1,0,2.1,0,3.1,0c1.3,0,2.1-0.8,2.1-2.1C113.6,82.6,113.6,80.6,113.6,78.6z M108.3,82.6
			c-1.1,0.1-1-0.5-0.9-1.2c-0.3-1.1,0.5-0.8,1.1-0.9c1.1-0.2,0.8,0.5,0.9,1.2C109.6,82.8,108.9,82.6,108.3,82.6z M113.6,103.3
			c0-1.3-0.8-2.1-2.1-2.1c-2,0-4,0-6.1,0c-1.4,0-2.1,0.8-2.2,2.1c0,2,0,4,0,6.1c0,1.3,0.8,2.1,2.1,2.1c1,0,2.1,0,3.1,0c1,0,2,0,3,0
			c1.4,0,2.2-0.8,2.2-2.1C113.6,107.3,113.6,105.3,113.6,103.3z M108.3,107.4c-1.1,0.2-0.8-0.5-0.9-1.2c-0.1-1.1,0.5-1,1.2-0.9
			c1.1-0.3,0.8,0.5,0.9,1.1C109.6,107.5,108.9,107.3,108.3,107.4z M113.6,94c0-0.9,0-1.9,0-2.8c0-1.6-0.7-2.3-2.3-2.3
			c-1.9,0-3.9,0-5.8,0c-1.5,0-2.2,0.7-2.3,2.2c0,2,0,4,0,5.9c0,1.4,0.8,2.2,2.1,2.2c2,0,4,0,6.1,0c1.4,0,2.1-0.8,2.1-2.2
			C113.6,95.9,113.6,95,113.6,94z M108.3,95c-1.1,0.1-0.9-0.5-1-1.2c-0.1-1,0.5-1,1.2-0.9c1.1-0.3,0.8,0.5,0.9,1.1
			C109.6,95.1,109,94.9,108.3,95z M101.3,55.8c-3.5,0-6.3,2.6-6.3,6.1c0,3.5,2.7,6.3,6.1,6.3c3.5,0,6.3-2.6,6.3-6.1
			C107.4,58.6,104.7,55.8,101.3,55.8z M101.2,64.1c-1,0-2-1-2-2.1c0-1,1-2,2.1-2c1,0,2,1,2,2.1C103.2,63.1,102.2,64.1,101.2,64.1z
			 M101.3,55.8c-3.5,0-6.3,2.6-6.3,6.1c0,3.5,2.7,6.3,6.1,6.3c3.5,0,6.3-2.6,6.3-6.1C107.4,58.6,104.7,55.8,101.3,55.8z M101.2,64.1
			c-1,0-2-1-2-2.1c0-1,1-2,2.1-2c1,0,2,1,2,2.1C103.2,63.1,102.2,64.1,101.2,64.1z M101.2,49.6c-6.9,0-12.4,5.5-12.4,12.4
			c0,6.9,5.5,12.4,12.4,12.4c6.8,0,12.3-5.5,12.3-12.3C113.6,55.1,108.1,49.6,101.2,49.6z M101.1,70.2c-4.4,0-8.2-3.8-8.2-8.3
			c0-4.5,3.9-8.3,8.3-8.2c4.5,0.1,8.2,3.8,8.2,8.3C109.4,66.5,105.6,70.3,101.1,70.2z M101.3,55.8c-3.5,0-6.3,2.6-6.3,6.1
			c0,3.5,2.7,6.3,6.1,6.3c3.5,0,6.3-2.6,6.3-6.1C107.4,58.6,104.7,55.8,101.3,55.8z M101.2,64.1c-1,0-2-1-2-2.1c0-1,1-2,2.1-2
			c1,0,2,1,2,2.1C103.2,63.1,102.2,64.1,101.2,64.1z M101.3,55.8c-3.5,0-6.3,2.6-6.3,6.1c0,3.5,2.7,6.3,6.1,6.3
			c3.5,0,6.3-2.6,6.3-6.1C107.4,58.6,104.7,55.8,101.3,55.8z M101.2,64.1c-1,0-2-1-2-2.1c0-1,1-2,2.1-2c1,0,2,1,2,2.1
			C103.2,63.1,102.2,64.1,101.2,64.1z M101.3,55.8c-3.5,0-6.3,2.6-6.3,6.1c0,3.5,2.7,6.3,6.1,6.3c3.5,0,6.3-2.6,6.3-6.1
			C107.4,58.6,104.7,55.8,101.3,55.8z M101.2,64.1c-1,0-2-1-2-2.1c0-1,1-2,2.1-2c1,0,2,1,2,2.1C103.2,63.1,102.2,64.1,101.2,64.1z
			 M99.1,78.5c0-1.3-0.8-2.1-2.1-2.1c-2,0-4,0-6.1,0c-1.4,0-2.1,0.8-2.1,2.2c0,1,0,2,0,3c0,1,0,2,0,3c0,1.4,0.8,2.2,2.1,2.2
			c2,0,4,0,6.1,0c1.3,0,2.1-0.8,2.1-2C99.1,82.6,99.1,80.6,99.1,78.5z M93.9,82.6c-1,0.1-1-0.5-0.9-1.2c-0.3-1.1,0.5-0.8,1.1-0.9
			c1.1-0.2,0.9,0.5,1,1.2C95.2,82.8,94.5,82.6,93.9,82.6z M99.1,103.3c0-1.3-0.8-2.1-2-2.1c-2.1,0-4.1,0-6.2,0c-1.3,0-2,0.8-2.1,2.1
			c0,2,0,4,0,6.1c0,1.4,0.8,2.1,2.2,2.1c1,0,2,0,3,0s2,0,3,0c1.4,0,2.2-0.8,2.2-2.1C99.1,107.4,99.1,105.3,99.1,103.3z M93.9,107.4
			c-1,0.1-1-0.5-0.9-1.2c-0.3-1.1,0.5-0.8,1.1-0.9c1.1-0.2,0.9,0.5,1,1.2C95.2,107.5,94.5,107.3,93.9,107.4z M99.1,94v-3
			c0,0,0-0.1,0-0.1c-0.1-1.3-0.8-2.1-2.1-2.1c-2,0-4,0-6.1,0c-1.3,0-2.1,0.8-2.1,2c0,2.1,0,4.1,0,6.2c0,1.3,0.8,2.1,2.1,2.1
			c2,0,4,0,6.1,0c1.4,0,2.1-0.8,2.1-2.2C99.1,96,99.1,95,99.1,94z M93.9,95c-0.9,0.1-1-0.3-1-1.1c0-0.9,0.2-1.2,1-0.9
			c1-0.3,1,0.3,1.1,1C95.1,94.9,94.7,95,93.9,95z M68.1,78.5c-2.7,0-5.3,0-8,0c-1.4,0-2.2,0.8-2.2,2.1c0,1.2,0.9,2,2.2,2
			c1.3,0,2.7,0,4,0c1.3,0,2.7,0,4,0c1.4,0,2.2-0.8,2.2-2.1C70.2,79.3,69.4,78.5,68.1,78.5z M68.1,78.5c-2.7,0-5.3,0-8,0
			c-1.4,0-2.2,0.8-2.2,2.1c0,1.2,0.9,2,2.2,2c1.3,0,2.7,0,4,0c1.3,0,2.7,0,4,0c1.4,0,2.2-0.8,2.2-2.1C70.2,79.3,69.4,78.5,68.1,78.5
			z M99.1,94v-3c0,0,0-0.1,0-0.1c-0.1-1.3-0.8-2.1-2.1-2.1c-2,0-4,0-6.1,0c-1.3,0-2.1,0.8-2.1,2c0,2.1,0,4.1,0,6.2
			c0,1.3,0.8,2.1,2.1,2.1c2,0,4,0,6.1,0c1.4,0,2.1-0.8,2.1-2.2C99.1,96,99.1,95,99.1,94z M93.9,95c-0.9,0.1-1-0.3-1-1.1
			c0-0.9,0.2-1.2,1-0.9c1-0.3,1,0.3,1.1,1C95.1,94.9,94.7,95,93.9,95z M99.1,103.3c0-1.3-0.8-2.1-2-2.1c-2.1,0-4.1,0-6.2,0
			c-1.3,0-2,0.8-2.1,2.1c0,2,0,4,0,6.1c0,1.4,0.8,2.1,2.2,2.1c1,0,2,0,3,0s2,0,3,0c1.4,0,2.2-0.8,2.2-2.1
			C99.1,107.4,99.1,105.3,99.1,103.3z M93.9,107.4c-1,0.1-1-0.5-0.9-1.2c-0.3-1.1,0.5-0.8,1.1-0.9c1.1-0.2,0.9,0.5,1,1.2
			C95.2,107.5,94.5,107.3,93.9,107.4z M99.1,78.5c0-1.3-0.8-2.1-2.1-2.1c-2,0-4,0-6.1,0c-1.4,0-2.1,0.8-2.1,2.2c0,1,0,2,0,3
			c0,1,0,2,0,3c0,1.4,0.8,2.2,2.1,2.2c2,0,4,0,6.1,0c1.3,0,2.1-0.8,2.1-2C99.1,82.6,99.1,80.6,99.1,78.5z M93.9,82.6
			c-1,0.1-1-0.5-0.9-1.2c-0.3-1.1,0.5-0.8,1.1-0.9c1.1-0.2,0.9,0.5,1,1.2C95.2,82.8,94.5,82.6,93.9,82.6z M101.3,55.8
			c-3.5,0-6.3,2.6-6.3,6.1c0,3.5,2.7,6.3,6.1,6.3c3.5,0,6.3-2.6,6.3-6.1C107.4,58.6,104.7,55.8,101.3,55.8z M101.2,64.1
			c-1,0-2-1-2-2.1c0-1,1-2,2.1-2c1,0,2,1,2,2.1C103.2,63.1,102.2,64.1,101.2,64.1z M101.3,55.8c-3.5,0-6.3,2.6-6.3,6.1
			c0,3.5,2.7,6.3,6.1,6.3c3.5,0,6.3-2.6,6.3-6.1C107.4,58.6,104.7,55.8,101.3,55.8z M101.2,64.1c-1,0-2-1-2-2.1c0-1,1-2,2.1-2
			c1,0,2,1,2,2.1C103.2,63.1,102.2,64.1,101.2,64.1z M101.2,49.6c-6.9,0-12.4,5.5-12.4,12.4c0,6.9,5.5,12.4,12.4,12.4
			c6.8,0,12.3-5.5,12.3-12.3C113.6,55.1,108.1,49.6,101.2,49.6z M101.1,70.2c-4.4,0-8.2-3.8-8.2-8.3c0-4.5,3.9-8.3,8.3-8.2
			c4.5,0.1,8.2,3.8,8.2,8.3C109.4,66.5,105.6,70.3,101.1,70.2z M101.3,55.8c-3.5,0-6.3,2.6-6.3,6.1c0,3.5,2.7,6.3,6.1,6.3
			c3.5,0,6.3-2.6,6.3-6.1C107.4,58.6,104.7,55.8,101.3,55.8z M101.2,64.1c-1,0-2-1-2-2.1c0-1,1-2,2.1-2c1,0,2,1,2,2.1
			C103.2,63.1,102.2,64.1,101.2,64.1z M113.6,94c0-0.9,0-1.9,0-2.8c0-1.6-0.7-2.3-2.3-2.3c-1.9,0-3.9,0-5.8,0
			c-1.5,0-2.2,0.7-2.3,2.2c0,2,0,4,0,5.9c0,1.4,0.8,2.2,2.1,2.2c2,0,4,0,6.1,0c1.4,0,2.1-0.8,2.1-2.2C113.6,95.9,113.6,95,113.6,94z
			 M108.3,95c-1.1,0.1-0.9-0.5-1-1.2c-0.1-1,0.5-1,1.2-0.9c1.1-0.3,0.8,0.5,0.9,1.1C109.6,95.1,109,94.9,108.3,95z M113.6,103.3
			c0-1.3-0.8-2.1-2.1-2.1c-2,0-4,0-6.1,0c-1.4,0-2.1,0.8-2.2,2.1c0,2,0,4,0,6.1c0,1.3,0.8,2.1,2.1,2.1c1,0,2.1,0,3.1,0c1,0,2,0,3,0
			c1.4,0,2.2-0.8,2.2-2.1C113.6,107.3,113.6,105.3,113.6,103.3z M108.3,107.4c-1.1,0.2-0.8-0.5-0.9-1.2c-0.1-1.1,0.5-1,1.2-0.9
			c1.1-0.3,0.8,0.5,0.9,1.1C109.6,107.5,108.9,107.3,108.3,107.4z M113.6,78.6c0-1.3-0.8-2.1-2-2.1c-2.1,0-4.1,0-6.2,0
			c-1.3,0-2.1,0.8-2.1,2.1c0,2,0,4,0,6.1c0,1.4,0.8,2.1,2.2,2.1c1,0,2,0,3,0c1,0,2.1,0,3.1,0c1.3,0,2.1-0.8,2.1-2.1
			C113.6,82.6,113.6,80.6,113.6,78.6z M108.3,82.6c-1.1,0.1-1-0.5-0.9-1.2c-0.3-1.1,0.5-0.8,1.1-0.9c1.1-0.2,0.8,0.5,0.9,1.2
			C109.6,82.8,108.9,82.6,108.3,82.6z M113.6,78.6c0-1.3-0.8-2.1-2-2.1c-2.1,0-4.1,0-6.2,0c-1.3,0-2.1,0.8-2.1,2.1c0,2,0,4,0,6.1
			c0,1.4,0.8,2.1,2.2,2.1c1,0,2,0,3,0c1,0,2.1,0,3.1,0c1.3,0,2.1-0.8,2.1-2.1C113.6,82.6,113.6,80.6,113.6,78.6z M108.3,82.6
			c-1.1,0.1-1-0.5-0.9-1.2c-0.3-1.1,0.5-0.8,1.1-0.9c1.1-0.2,0.8,0.5,0.9,1.2C109.6,82.8,108.9,82.6,108.3,82.6z M111.5,101.2
			c-2,0-4,0-6.1,0c-1.4,0-2.1,0.8-2.2,2.1c0,2,0,4,0,6.1c0,1.3,0.8,2.1,2.1,2.1c1,0,2.1,0,3.1,0c1,0,2,0,3,0c1.4,0,2.2-0.8,2.2-2.1
			c0-2,0-4,0-6.1C113.5,102,112.8,101.2,111.5,101.2z M108.3,107.4c-1.1,0.2-0.8-0.5-0.9-1.2c-0.1-1.1,0.5-1,1.2-0.9
			c1.1-0.3,0.8,0.5,0.9,1.1C109.6,107.5,108.9,107.3,108.3,107.4z M113.6,91.1c0-1.6-0.7-2.3-2.3-2.3c-1.9,0-3.9,0-5.8,0
			c-1.5,0-2.2,0.7-2.3,2.2c0,2,0,4,0,5.9c0,1.4,0.8,2.2,2.1,2.2c2,0,4,0,6.1,0c1.4,0,2.1-0.8,2.1-2.2c0-1,0-2,0-3
			C113.6,93,113.6,92.1,113.6,91.1z M108.3,95c-1.1,0.1-0.9-0.5-1-1.2c-0.1-1,0.5-1,1.2-0.9c1.1-0.3,0.8,0.5,0.9,1.1
			C109.6,95.1,109,94.9,108.3,95z M113.6,62.1c0-6.9-5.5-12.4-12.4-12.4c-6.9,0-12.4,5.5-12.4,12.4c0,6.9,5.5,12.4,12.4,12.4
			C108,74.4,113.6,68.9,113.6,62.1z M101.1,70.2c-4.4,0-8.2-3.8-8.2-8.3c0-4.5,3.9-8.3,8.3-8.2c4.5,0.1,8.2,3.8,8.2,8.3
			C109.4,66.5,105.6,70.3,101.1,70.2z M101.3,55.8c-3.5,0-6.3,2.6-6.3,6.1c0,3.5,2.7,6.3,6.1,6.3c3.5,0,6.3-2.6,6.3-6.1
			C107.4,58.6,104.7,55.8,101.3,55.8z M101.2,64.1c-1,0-2-1-2-2.1c0-1,1-2,2.1-2c1,0,2,1,2,2.1C103.2,63.1,102.2,64.1,101.2,64.1z
			 M97,76.4c-2,0-4,0-6.1,0c-1.4,0-2.1,0.8-2.1,2.2c0,1,0,2,0,3c0,1,0,2,0,3c0,1.4,0.8,2.2,2.1,2.2c2,0,4,0,6.1,0
			c1.3,0,2.1-0.8,2.1-2c0-2.1,0-4.1,0-6.2C99.1,77.2,98.3,76.5,97,76.4z M93.9,82.6c-1,0.1-1-0.5-0.9-1.2c-0.3-1.1,0.5-0.8,1.1-0.9
			c1.1-0.2,0.9,0.5,1,1.2C95.2,82.8,94.5,82.6,93.9,82.6z M97.1,101.2c-2.1,0-4.1,0-6.2,0c-1.3,0-2,0.8-2.1,2.1c0,2,0,4,0,6.1
			c0,1.4,0.8,2.1,2.2,2.1c1,0,2,0,3,0s2,0,3,0c1.4,0,2.2-0.8,2.2-2.1c0-2,0-4,0-6.1C99.1,102,98.4,101.2,97.1,101.2z M93.9,107.4
			c-1,0.1-1-0.5-0.9-1.2c-0.3-1.1,0.5-0.8,1.1-0.9c1.1-0.2,0.9,0.5,1,1.2C95.2,107.5,94.5,107.3,93.9,107.4z M99.1,90.9
			c-0.1-1.3-0.8-2.1-2.1-2.1c-2,0-4,0-6.1,0c-1.3,0-2.1,0.8-2.1,2c0,2.1,0,4.1,0,6.2c0,1.3,0.8,2.1,2.1,2.1c2,0,4,0,6.1,0
			c1.4,0,2.1-0.8,2.1-2.2c0-1,0-2,0-3v-3C99.1,91,99.1,90.9,99.1,90.9z M93.9,95c-0.9,0.1-1-0.3-1-1.1c0-0.9,0.2-1.2,1-0.9
			c1-0.3,1,0.3,1.1,1C95.1,94.9,94.7,95,93.9,95z M68.1,78.5c-2.7,0-5.3,0-8,0c-1.4,0-2.2,0.8-2.2,2.1c0,1.2,0.9,2,2.2,2
			c1.3,0,2.7,0,4,0c1.3,0,2.7,0,4,0c1.4,0,2.2-0.8,2.2-2.1C70.2,79.3,69.4,78.5,68.1,78.5z M125.4,10.3c-40.9,0-81.7,0-122.6,0
			c-0.2,0-0.4,0-0.6,0c-1.6,0.1-2.1,0.6-2.2,2.1c0,0.3,0,0.7,0,1v71.9c0,3.5,0.3,3.9,3.9,3.9c17,0,34,0,51,0c0.5,0,1,0,1.5,0
			c0.3,0,0.7,0.1,0.8,0.5c0.7,1.5-0.1,2.8-1.7,2.8c-4.9,0-9.9,0-14.8,0c-0.6,0-1.2,0-1.8,0.1c-1.3,0.2-2.1,1.2-2.1,2.4
			c0,1.2,0.8,2.2,2.1,2.4c0.7,0.1,1.5,0.1,2.2,0.1c13,0,26,0,39.1,0c1.9,0,2,0.1,2,1.9c0,4.3,0,8.5,0,12.8c0,3.2,1.3,4.8,4.3,5.5
			h29.4c2.5-0.6,3.9-2.1,4.2-4.4c0.1-0.6,0.1-1.2,0.1-1.8c0-6.8,0-13.7,0-20.5c0-1.7,0.1-1.8,1.8-1.8c1.2,0,2.5,0,3.7,0
			c1.1,0,2-0.5,2.3-1.7V11.7C127.7,10.3,126.5,10.3,125.4,10.3z M63.9,92.9c-1.9,0-1.9,0-1.9-1.9c0-2.2,0-2.2,2.2-2.2
			c1.9,0,1.9,0,1.9,1.9C66.1,92.9,66.1,92.9,63.9,92.9z M79.5,92.9h-3.2c-1.8,0-3.5,0-5.3,0c-0.6,0-0.8-0.2-0.8-0.8
			c-0.1-3.4-0.1-3.4,3.2-3.4c2.7,0,5.5,0,8.2,0c0.7,0,0.9,0.2,0.9,0.9C82.7,92.9,82.7,92.9,79.5,92.9z M82.7,83.5
			c0,1-0.2,1.2-1.2,1.2c-12.7,0-25.4,0-38,0c-12.6,0-25.3,0-37.9,0c-1.1,0-1.4-0.2-1.3-1.3c0.1-1.9,0.1-3.9,0-5.8
			c0-1,0.2-1.2,1.2-1.2c15,0,30,0,45,0c10.4,0,20.7,0,31.1,0c1,0,1.2,0.2,1.2,1.2C82.6,79.6,82.6,81.6,82.7,83.5z M115.6,111.5
			c0,1.9-0.2,2-2.1,2H88.7c-1.7,0-1.9-0.2-1.9-1.9V49.5c0-1.8,0.2-2,2-2h24.9c1.8,0,2,0.2,2,2V111.5z M123.9,71c0,1-0.2,1.4-1.3,1.3
			c-2.8-0.1-2.8,0-2.8-2.9c0-6.8,0-13.7,0-20.5c0-3.4-2.1-5.6-5.5-5.6c-8.7,0-17.4,0-26.2,0c-3.3,0-5.5,2.1-5.5,5.4
			c0,7.4,0,14.9,0,22.3c0,1-0.3,1.2-1.2,1.2c-25.4,0-50.7,0-76,0c-1,0-1.2-0.2-1.2-1.2c0-18.5,0-36.9,0-55.4c0-1,0.2-1.2,1.2-1.2
			c19.6,0,39.2,0,58.8,0c19.5,0,38.9,0,58.4,0c1.1,0,1.3,0.2,1.3,1.3C123.9,34.2,123.9,52.6,123.9,71z M111.5,76.5
			c-2.1,0-4.1,0-6.2,0c-1.3,0-2.1,0.8-2.1,2.1c0,2,0,4,0,6.1c0,1.4,0.8,2.1,2.2,2.1c1,0,2,0,3,0c1,0,2.1,0,3.1,0
			c1.3,0,2.1-0.8,2.1-2.1c0-2,0-4,0-6.1C113.5,77.3,112.8,76.5,111.5,76.5z M108.3,82.6c-1.1,0.1-1-0.5-0.9-1.2
			c-0.3-1.1,0.5-0.8,1.1-0.9c1.1-0.2,0.8,0.5,0.9,1.2C109.6,82.8,108.9,82.6,108.3,82.6z M111.5,101.2c-2,0-4,0-6.1,0
			c-1.4,0-2.1,0.8-2.2,2.1c0,2,0,4,0,6.1c0,1.3,0.8,2.1,2.1,2.1c1,0,2.1,0,3.1,0c1,0,2,0,3,0c1.4,0,2.2-0.8,2.2-2.1c0-2,0-4,0-6.1
			C113.5,102,112.8,101.2,111.5,101.2z M108.3,107.4c-1.1,0.2-0.8-0.5-0.9-1.2c-0.1-1.1,0.5-1,1.2-0.9c1.1-0.3,0.8,0.5,0.9,1.1
			C109.6,107.5,108.9,107.3,108.3,107.4z M113.6,91.1c0-1.6-0.7-2.3-2.3-2.3c-1.9,0-3.9,0-5.8,0c-1.5,0-2.2,0.7-2.3,2.2
			c0,2,0,4,0,5.9c0,1.4,0.8,2.2,2.1,2.2c2,0,4,0,6.1,0c1.4,0,2.1-0.8,2.1-2.2c0-1,0-2,0-3C113.6,93,113.6,92.1,113.6,91.1z
			 M108.3,95c-1.1,0.1-0.9-0.5-1-1.2c-0.1-1,0.5-1,1.2-0.9c1.1-0.3,0.8,0.5,0.9,1.1C109.6,95.1,109,94.9,108.3,95z M113.6,62.1
			c0-6.9-5.5-12.4-12.4-12.4c-6.9,0-12.4,5.5-12.4,12.4c0,6.9,5.5,12.4,12.4,12.4C108,74.4,113.6,68.9,113.6,62.1z M101.1,70.2
			c-4.4,0-8.2-3.8-8.2-8.3c0-4.5,3.9-8.3,8.3-8.2c4.5,0.1,8.2,3.8,8.2,8.3C109.4,66.5,105.6,70.3,101.1,70.2z M101.3,55.8
			c-3.5,0-6.3,2.6-6.3,6.1c0,3.5,2.7,6.3,6.1,6.3c3.5,0,6.3-2.6,6.3-6.1C107.4,58.6,104.7,55.8,101.3,55.8z M101.2,64.1
			c-1,0-2-1-2-2.1c0-1,1-2,2.1-2c1,0,2,1,2,2.1C103.2,63.1,102.2,64.1,101.2,64.1z M97,76.4c-2,0-4,0-6.1,0c-1.4,0-2.1,0.8-2.1,2.2
			c0,1,0,2,0,3c0,1,0,2,0,3c0,1.4,0.8,2.2,2.1,2.2c2,0,4,0,6.1,0c1.3,0,2.1-0.8,2.1-2c0-2.1,0-4.1,0-6.2
			C99.1,77.2,98.3,76.5,97,76.4z M93.9,82.6c-1,0.1-1-0.5-0.9-1.2c-0.3-1.1,0.5-0.8,1.1-0.9c1.1-0.2,0.9,0.5,1,1.2
			C95.2,82.8,94.5,82.6,93.9,82.6z M97.1,101.2c-2.1,0-4.1,0-6.2,0c-1.3,0-2,0.8-2.1,2.1c0,2,0,4,0,6.1c0,1.4,0.8,2.1,2.2,2.1
			c1,0,2,0,3,0s2,0,3,0c1.4,0,2.2-0.8,2.2-2.1c0-2,0-4,0-6.1C99.1,102,98.4,101.2,97.1,101.2z M93.9,107.4c-1,0.1-1-0.5-0.9-1.2
			c-0.3-1.1,0.5-0.8,1.1-0.9c1.1-0.2,0.9,0.5,1,1.2C95.2,107.5,94.5,107.3,93.9,107.4z M99.1,90.9c-0.1-1.3-0.8-2.1-2.1-2.1
			c-2,0-4,0-6.1,0c-1.3,0-2.1,0.8-2.1,2c0,2.1,0,4.1,0,6.2c0,1.3,0.8,2.1,2.1,2.1c2,0,4,0,6.1,0c1.4,0,2.1-0.8,2.1-2.2c0-1,0-2,0-3
			v-3C99.1,91,99.1,90.9,99.1,90.9z M93.9,95c-0.9,0.1-1-0.3-1-1.1c0-0.9,0.2-1.2,1-0.9c1-0.3,1,0.3,1.1,1
			C95.1,94.9,94.7,95,93.9,95z M68.1,78.5c-2.7,0-5.3,0-8,0c-1.4,0-2.2,0.8-2.2,2.1c0,1.2,0.9,2,2.2,2c1.3,0,2.7,0,4,0
			c1.3,0,2.7,0,4,0c1.4,0,2.2-0.8,2.2-2.1C70.2,79.3,69.4,78.5,68.1,78.5z M68.1,78.5c-2.7,0-5.3,0-8,0c-1.4,0-2.2,0.8-2.2,2.1
			c0,1.2,0.9,2,2.2,2c1.3,0,2.7,0,4,0c1.3,0,2.7,0,4,0c1.4,0,2.2-0.8,2.2-2.1C70.2,79.3,69.4,78.5,68.1,78.5z M99.1,94v-3
			c0,0,0-0.1,0-0.1c-0.1-1.3-0.8-2.1-2.1-2.1c-2,0-4,0-6.1,0c-1.3,0-2.1,0.8-2.1,2c0,2.1,0,4.1,0,6.2c0,1.3,0.8,2.1,2.1,2.1
			c2,0,4,0,6.1,0c1.4,0,2.1-0.8,2.1-2.2C99.1,96,99.1,95,99.1,94z M93.9,95c-0.9,0.1-1-0.3-1-1.1c0-0.9,0.2-1.2,1-0.9
			c1-0.3,1,0.3,1.1,1C95.1,94.9,94.7,95,93.9,95z M99.1,103.3c0-1.3-0.8-2.1-2-2.1c-2.1,0-4.1,0-6.2,0c-1.3,0-2,0.8-2.1,2.1
			c0,2,0,4,0,6.1c0,1.4,0.8,2.1,2.2,2.1c1,0,2,0,3,0s2,0,3,0c1.4,0,2.2-0.8,2.2-2.1C99.1,107.4,99.1,105.3,99.1,103.3z M93.9,107.4
			c-1,0.1-1-0.5-0.9-1.2c-0.3-1.1,0.5-0.8,1.1-0.9c1.1-0.2,0.9,0.5,1,1.2C95.2,107.5,94.5,107.3,93.9,107.4z M99.1,78.5
			c0-1.3-0.8-2.1-2.1-2.1c-2,0-4,0-6.1,0c-1.4,0-2.1,0.8-2.1,2.2c0,1,0,2,0,3c0,1,0,2,0,3c0,1.4,0.8,2.2,2.1,2.2c2,0,4,0,6.1,0
			c1.3,0,2.1-0.8,2.1-2C99.1,82.6,99.1,80.6,99.1,78.5z M93.9,82.6c-1,0.1-1-0.5-0.9-1.2c-0.3-1.1,0.5-0.8,1.1-0.9
			c1.1-0.2,0.9,0.5,1,1.2C95.2,82.8,94.5,82.6,93.9,82.6z M101.3,55.8c-3.5,0-6.3,2.6-6.3,6.1c0,3.5,2.7,6.3,6.1,6.3
			c3.5,0,6.3-2.6,6.3-6.1C107.4,58.6,104.7,55.8,101.3,55.8z M101.2,64.1c-1,0-2-1-2-2.1c0-1,1-2,2.1-2c1,0,2,1,2,2.1
			C103.2,63.1,102.2,64.1,101.2,64.1z M101.3,55.8c-3.5,0-6.3,2.6-6.3,6.1c0,3.5,2.7,6.3,6.1,6.3c3.5,0,6.3-2.6,6.3-6.1
			C107.4,58.6,104.7,55.8,101.3,55.8z M101.2,64.1c-1,0-2-1-2-2.1c0-1,1-2,2.1-2c1,0,2,1,2,2.1C103.2,63.1,102.2,64.1,101.2,64.1z
			 M101.2,49.6c-6.9,0-12.4,5.5-12.4,12.4c0,6.9,5.5,12.4,12.4,12.4c6.8,0,12.3-5.5,12.3-12.3C113.6,55.1,108.1,49.6,101.2,49.6z
			 M101.1,70.2c-4.4,0-8.2-3.8-8.2-8.3c0-4.5,3.9-8.3,8.3-8.2c4.5,0.1,8.2,3.8,8.2,8.3C109.4,66.5,105.6,70.3,101.1,70.2z
			 M101.3,55.8c-3.5,0-6.3,2.6-6.3,6.1c0,3.5,2.7,6.3,6.1,6.3c3.5,0,6.3-2.6,6.3-6.1C107.4,58.6,104.7,55.8,101.3,55.8z M101.2,64.1
			c-1,0-2-1-2-2.1c0-1,1-2,2.1-2c1,0,2,1,2,2.1C103.2,63.1,102.2,64.1,101.2,64.1z M113.6,94c0-0.9,0-1.9,0-2.8
			c0-1.6-0.7-2.3-2.3-2.3c-1.9,0-3.9,0-5.8,0c-1.5,0-2.2,0.7-2.3,2.2c0,2,0,4,0,5.9c0,1.4,0.8,2.2,2.1,2.2c2,0,4,0,6.1,0
			c1.4,0,2.1-0.8,2.1-2.2C113.6,95.9,113.6,95,113.6,94z M108.3,95c-1.1,0.1-0.9-0.5-1-1.2c-0.1-1,0.5-1,1.2-0.9
			c1.1-0.3,0.8,0.5,0.9,1.1C109.6,95.1,109,94.9,108.3,95z M113.6,103.3c0-1.3-0.8-2.1-2.1-2.1c-2,0-4,0-6.1,0
			c-1.4,0-2.1,0.8-2.2,2.1c0,2,0,4,0,6.1c0,1.3,0.8,2.1,2.1,2.1c1,0,2.1,0,3.1,0c1,0,2,0,3,0c1.4,0,2.2-0.8,2.2-2.1
			C113.6,107.3,113.6,105.3,113.6,103.3z M108.3,107.4c-1.1,0.2-0.8-0.5-0.9-1.2c-0.1-1.1,0.5-1,1.2-0.9c1.1-0.3,0.8,0.5,0.9,1.1
			C109.6,107.5,108.9,107.3,108.3,107.4z M113.6,78.6c0-1.3-0.8-2.1-2-2.1c-2.1,0-4.1,0-6.2,0c-1.3,0-2.1,0.8-2.1,2.1c0,2,0,4,0,6.1
			c0,1.4,0.8,2.1,2.2,2.1c1,0,2,0,3,0c1,0,2.1,0,3.1,0c1.3,0,2.1-0.8,2.1-2.1C113.6,82.6,113.6,80.6,113.6,78.6z M108.3,82.6
			c-1.1,0.1-1-0.5-0.9-1.2c-0.3-1.1,0.5-0.8,1.1-0.9c1.1-0.2,0.8,0.5,0.9,1.2C109.6,82.8,108.9,82.6,108.3,82.6z M113.6,78.6
			c0-1.3-0.8-2.1-2-2.1c-2.1,0-4.1,0-6.2,0c-1.3,0-2.1,0.8-2.1,2.1c0,2,0,4,0,6.1c0,1.4,0.8,2.1,2.2,2.1c1,0,2,0,3,0
			c1,0,2.1,0,3.1,0c1.3,0,2.1-0.8,2.1-2.1C113.6,82.6,113.6,80.6,113.6,78.6z M108.3,82.6c-1.1,0.1-1-0.5-0.9-1.2
			c-0.3-1.1,0.5-0.8,1.1-0.9c1.1-0.2,0.8,0.5,0.9,1.2C109.6,82.8,108.9,82.6,108.3,82.6z M113.6,103.3c0-1.3-0.8-2.1-2.1-2.1
			c-2,0-4,0-6.1,0c-1.4,0-2.1,0.8-2.2,2.1c0,2,0,4,0,6.1c0,1.3,0.8,2.1,2.1,2.1c1,0,2.1,0,3.1,0c1,0,2,0,3,0c1.4,0,2.2-0.8,2.2-2.1
			C113.6,107.3,113.6,105.3,113.6,103.3z M108.3,107.4c-1.1,0.2-0.8-0.5-0.9-1.2c-0.1-1.1,0.5-1,1.2-0.9c1.1-0.3,0.8,0.5,0.9,1.1
			C109.6,107.5,108.9,107.3,108.3,107.4z M113.6,94c0-0.9,0-1.9,0-2.8c0-1.6-0.7-2.3-2.3-2.3c-1.9,0-3.9,0-5.8,0
			c-1.5,0-2.2,0.7-2.3,2.2c0,2,0,4,0,5.9c0,1.4,0.8,2.2,2.1,2.2c2,0,4,0,6.1,0c1.4,0,2.1-0.8,2.1-2.2C113.6,95.9,113.6,95,113.6,94z
			 M108.3,95c-1.1,0.1-0.9-0.5-1-1.2c-0.1-1,0.5-1,1.2-0.9c1.1-0.3,0.8,0.5,0.9,1.1C109.6,95.1,109,94.9,108.3,95z M101.3,55.8
			c-3.5,0-6.3,2.6-6.3,6.1c0,3.5,2.7,6.3,6.1,6.3c3.5,0,6.3-2.6,6.3-6.1C107.4,58.6,104.7,55.8,101.3,55.8z M101.2,64.1
			c-1,0-2-1-2-2.1c0-1,1-2,2.1-2c1,0,2,1,2,2.1C103.2,63.1,102.2,64.1,101.2,64.1z M101.3,55.8c-3.5,0-6.3,2.6-6.3,6.1
			c0,3.5,2.7,6.3,6.1,6.3c3.5,0,6.3-2.6,6.3-6.1C107.4,58.6,104.7,55.8,101.3,55.8z M101.2,64.1c-1,0-2-1-2-2.1c0-1,1-2,2.1-2
			c1,0,2,1,2,2.1C103.2,63.1,102.2,64.1,101.2,64.1z M101.2,49.6c-6.9,0-12.4,5.5-12.4,12.4c0,6.9,5.5,12.4,12.4,12.4
			c6.8,0,12.3-5.5,12.3-12.3C113.6,55.1,108.1,49.6,101.2,49.6z M101.1,70.2c-4.4,0-8.2-3.8-8.2-8.3c0-4.5,3.9-8.3,8.3-8.2
			c4.5,0.1,8.2,3.8,8.2,8.3C109.4,66.5,105.6,70.3,101.1,70.2z M101.3,55.8c-3.5,0-6.3,2.6-6.3,6.1c0,3.5,2.7,6.3,6.1,6.3
			c3.5,0,6.3-2.6,6.3-6.1C107.4,58.6,104.7,55.8,101.3,55.8z M101.2,64.1c-1,0-2-1-2-2.1c0-1,1-2,2.1-2c1,0,2,1,2,2.1
			C103.2,63.1,102.2,64.1,101.2,64.1z M101.3,55.8c-3.5,0-6.3,2.6-6.3,6.1c0,3.5,2.7,6.3,6.1,6.3c3.5,0,6.3-2.6,6.3-6.1
			C107.4,58.6,104.7,55.8,101.3,55.8z M101.2,64.1c-1,0-2-1-2-2.1c0-1,1-2,2.1-2c1,0,2,1,2,2.1C103.2,63.1,102.2,64.1,101.2,64.1z
			 M101.3,55.8c-3.5,0-6.3,2.6-6.3,6.1c0,3.5,2.7,6.3,6.1,6.3c3.5,0,6.3-2.6,6.3-6.1C107.4,58.6,104.7,55.8,101.3,55.8z M101.2,64.1
			c-1,0-2-1-2-2.1c0-1,1-2,2.1-2c1,0,2,1,2,2.1C103.2,63.1,102.2,64.1,101.2,64.1z M99.1,78.5c0-1.3-0.8-2.1-2.1-2.1c-2,0-4,0-6.1,0
			c-1.4,0-2.1,0.8-2.1,2.2c0,1,0,2,0,3c0,1,0,2,0,3c0,1.4,0.8,2.2,2.1,2.2c2,0,4,0,6.1,0c1.3,0,2.1-0.8,2.1-2
			C99.1,82.6,99.1,80.6,99.1,78.5z M93.9,82.6c-1,0.1-1-0.5-0.9-1.2c-0.3-1.1,0.5-0.8,1.1-0.9c1.1-0.2,0.9,0.5,1,1.2
			C95.2,82.8,94.5,82.6,93.9,82.6z M99.1,103.3c0-1.3-0.8-2.1-2-2.1c-2.1,0-4.1,0-6.2,0c-1.3,0-2,0.8-2.1,2.1c0,2,0,4,0,6.1
			c0,1.4,0.8,2.1,2.2,2.1c1,0,2,0,3,0s2,0,3,0c1.4,0,2.2-0.8,2.2-2.1C99.1,107.4,99.1,105.3,99.1,103.3z M93.9,107.4
			c-1,0.1-1-0.5-0.9-1.2c-0.3-1.1,0.5-0.8,1.1-0.9c1.1-0.2,0.9,0.5,1,1.2C95.2,107.5,94.5,107.3,93.9,107.4z M99.1,94v-3
			c0,0,0-0.1,0-0.1c-0.1-1.3-0.8-2.1-2.1-2.1c-2,0-4,0-6.1,0c-1.3,0-2.1,0.8-2.1,2c0,2.1,0,4.1,0,6.2c0,1.3,0.8,2.1,2.1,2.1
			c2,0,4,0,6.1,0c1.4,0,2.1-0.8,2.1-2.2C99.1,96,99.1,95,99.1,94z M93.9,95c-0.9,0.1-1-0.3-1-1.1c0-0.9,0.2-1.2,1-0.9
			c1-0.3,1,0.3,1.1,1C95.1,94.9,94.7,95,93.9,95z M68.1,78.5c-2.7,0-5.3,0-8,0c-1.4,0-2.2,0.8-2.2,2.1c0,1.2,0.9,2,2.2,2
			c1.3,0,2.7,0,4,0c1.3,0,2.7,0,4,0c1.4,0,2.2-0.8,2.2-2.1C70.2,79.3,69.4,78.5,68.1,78.5z M68.1,78.5c-2.7,0-5.3,0-8,0
			c-1.4,0-2.2,0.8-2.2,2.1c0,1.2,0.9,2,2.2,2c1.3,0,2.7,0,4,0c1.3,0,2.7,0,4,0c1.4,0,2.2-0.8,2.2-2.1C70.2,79.3,69.4,78.5,68.1,78.5
			z M99.1,94v-3c0,0,0-0.1,0-0.1c-0.1-1.3-0.8-2.1-2.1-2.1c-2,0-4,0-6.1,0c-1.3,0-2.1,0.8-2.1,2c0,2.1,0,4.1,0,6.2
			c0,1.3,0.8,2.1,2.1,2.1c2,0,4,0,6.1,0c1.4,0,2.1-0.8,2.1-2.2C99.1,96,99.1,95,99.1,94z M93.9,95c-0.9,0.1-1-0.3-1-1.1
			c0-0.9,0.2-1.2,1-0.9c1-0.3,1,0.3,1.1,1C95.1,94.9,94.7,95,93.9,95z M99.1,103.3c0-1.3-0.8-2.1-2-2.1c-2.1,0-4.1,0-6.2,0
			c-1.3,0-2,0.8-2.1,2.1c0,2,0,4,0,6.1c0,1.4,0.8,2.1,2.2,2.1c1,0,2,0,3,0s2,0,3,0c1.4,0,2.2-0.8,2.2-2.1
			C99.1,107.4,99.1,105.3,99.1,103.3z M93.9,107.4c-1,0.1-1-0.5-0.9-1.2c-0.3-1.1,0.5-0.8,1.1-0.9c1.1-0.2,0.9,0.5,1,1.2
			C95.2,107.5,94.5,107.3,93.9,107.4z M99.1,78.5c0-1.3-0.8-2.1-2.1-2.1c-2,0-4,0-6.1,0c-1.4,0-2.1,0.8-2.1,2.2c0,1,0,2,0,3
			c0,1,0,2,0,3c0,1.4,0.8,2.2,2.1,2.2c2,0,4,0,6.1,0c1.3,0,2.1-0.8,2.1-2C99.1,82.6,99.1,80.6,99.1,78.5z M93.9,82.6
			c-1,0.1-1-0.5-0.9-1.2c-0.3-1.1,0.5-0.8,1.1-0.9c1.1-0.2,0.9,0.5,1,1.2C95.2,82.8,94.5,82.6,93.9,82.6z M101.3,55.8
			c-3.5,0-6.3,2.6-6.3,6.1c0,3.5,2.7,6.3,6.1,6.3c3.5,0,6.3-2.6,6.3-6.1C107.4,58.6,104.7,55.8,101.3,55.8z M101.2,64.1
			c-1,0-2-1-2-2.1c0-1,1-2,2.1-2c1,0,2,1,2,2.1C103.2,63.1,102.2,64.1,101.2,64.1z M101.3,55.8c-3.5,0-6.3,2.6-6.3,6.1
			c0,3.5,2.7,6.3,6.1,6.3c3.5,0,6.3-2.6,6.3-6.1C107.4,58.6,104.7,55.8,101.3,55.8z M101.2,64.1c-1,0-2-1-2-2.1c0-1,1-2,2.1-2
			c1,0,2,1,2,2.1C103.2,63.1,102.2,64.1,101.2,64.1z M101.3,55.8c-3.5,0-6.3,2.6-6.3,6.1c0,3.5,2.7,6.3,6.1,6.3
			c3.5,0,6.3-2.6,6.3-6.1C107.4,58.6,104.7,55.8,101.3,55.8z M101.2,64.1c-1,0-2-1-2-2.1c0-1,1-2,2.1-2c1,0,2,1,2,2.1
			C103.2,63.1,102.2,64.1,101.2,64.1z M101.3,55.8c-3.5,0-6.3,2.6-6.3,6.1c0,3.5,2.7,6.3,6.1,6.3c3.5,0,6.3-2.6,6.3-6.1
			C107.4,58.6,104.7,55.8,101.3,55.8z M101.2,64.1c-1,0-2-1-2-2.1c0-1,1-2,2.1-2c1,0,2,1,2,2.1C103.2,63.1,102.2,64.1,101.2,64.1z
			 M101.2,49.6c-6.9,0-12.4,5.5-12.4,12.4c0,6.9,5.5,12.4,12.4,12.4c6.8,0,12.3-5.5,12.3-12.3C113.6,55.1,108.1,49.6,101.2,49.6z
			 M101.1,70.2c-4.4,0-8.2-3.8-8.2-8.3c0-4.5,3.9-8.3,8.3-8.2c4.5,0.1,8.2,3.8,8.2,8.3C109.4,66.5,105.6,70.3,101.1,70.2z
			 M101.3,55.8c-3.5,0-6.3,2.6-6.3,6.1c0,3.5,2.7,6.3,6.1,6.3c3.5,0,6.3-2.6,6.3-6.1C107.4,58.6,104.7,55.8,101.3,55.8z M101.2,64.1
			c-1,0-2-1-2-2.1c0-1,1-2,2.1-2c1,0,2,1,2,2.1C103.2,63.1,102.2,64.1,101.2,64.1z M101.3,55.8c-3.5,0-6.3,2.6-6.3,6.1
			c0,3.5,2.7,6.3,6.1,6.3c3.5,0,6.3-2.6,6.3-6.1C107.4,58.6,104.7,55.8,101.3,55.8z M101.2,64.1c-1,0-2-1-2-2.1c0-1,1-2,2.1-2
			c1,0,2,1,2,2.1C103.2,63.1,102.2,64.1,101.2,64.1z M101.3,55.8c-3.5,0-6.3,2.6-6.3,6.1c0,3.5,2.7,6.3,6.1,6.3
			c3.5,0,6.3-2.6,6.3-6.1C107.4,58.6,104.7,55.8,101.3,55.8z M101.2,64.1c-1,0-2-1-2-2.1c0-1,1-2,2.1-2c1,0,2,1,2,2.1
			C103.2,63.1,102.2,64.1,101.2,64.1z M113.6,94c0-0.9,0-1.9,0-2.8c0-1.6-0.7-2.3-2.3-2.3c-1.9,0-3.9,0-5.8,0
			c-1.5,0-2.2,0.7-2.3,2.2c0,2,0,4,0,5.9c0,1.4,0.8,2.2,2.1,2.2c2,0,4,0,6.1,0c1.4,0,2.1-0.8,2.1-2.2C113.6,95.9,113.6,95,113.6,94z
			 M108.3,95c-1.1,0.1-0.9-0.5-1-1.2c-0.1-1,0.5-1,1.2-0.9c1.1-0.3,0.8,0.5,0.9,1.1C109.6,95.1,109,94.9,108.3,95z M113.6,103.3
			c0-1.3-0.8-2.1-2.1-2.1c-2,0-4,0-6.1,0c-1.4,0-2.1,0.8-2.2,2.1c0,2,0,4,0,6.1c0,1.3,0.8,2.1,2.1,2.1c1,0,2.1,0,3.1,0c1,0,2,0,3,0
			c1.4,0,2.2-0.8,2.2-2.1C113.6,107.3,113.6,105.3,113.6,103.3z M108.3,107.4c-1.1,0.2-0.8-0.5-0.9-1.2c-0.1-1.1,0.5-1,1.2-0.9
			c1.1-0.3,0.8,0.5,0.9,1.1C109.6,107.5,108.9,107.3,108.3,107.4z M113.6,78.6c0-1.3-0.8-2.1-2-2.1c-2.1,0-4.1,0-6.2,0
			c-1.3,0-2.1,0.8-2.1,2.1c0,2,0,4,0,6.1c0,1.4,0.8,2.1,2.2,2.1c1,0,2,0,3,0c1,0,2.1,0,3.1,0c1.3,0,2.1-0.8,2.1-2.1
			C113.6,82.6,113.6,80.6,113.6,78.6z M108.3,82.6c-1.1,0.1-1-0.5-0.9-1.2c-0.3-1.1,0.5-0.8,1.1-0.9c1.1-0.2,0.8,0.5,0.9,1.2
			C109.6,82.8,108.9,82.6,108.3,82.6z M113.6,78.6c0-1.3-0.8-2.1-2-2.1c-2.1,0-4.1,0-6.2,0c-1.3,0-2.1,0.8-2.1,2.1c0,2,0,4,0,6.1
			c0,1.4,0.8,2.1,2.2,2.1c1,0,2,0,3,0c1,0,2.1,0,3.1,0c1.3,0,2.1-0.8,2.1-2.1C113.6,82.6,113.6,80.6,113.6,78.6z M108.3,82.6
			c-1.1,0.1-1-0.5-0.9-1.2c-0.3-1.1,0.5-0.8,1.1-0.9c1.1-0.2,0.8,0.5,0.9,1.2C109.6,82.8,108.9,82.6,108.3,82.6z M113.6,103.3
			c0-1.3-0.8-2.1-2.1-2.1c-2,0-4,0-6.1,0c-1.4,0-2.1,0.8-2.2,2.1c0,2,0,4,0,6.1c0,1.3,0.8,2.1,2.1,2.1c1,0,2.1,0,3.1,0c1,0,2,0,3,0
			c1.4,0,2.2-0.8,2.2-2.1C113.6,107.3,113.6,105.3,113.6,103.3z M108.3,107.4c-1.1,0.2-0.8-0.5-0.9-1.2c-0.1-1.1,0.5-1,1.2-0.9
			c1.1-0.3,0.8,0.5,0.9,1.1C109.6,107.5,108.9,107.3,108.3,107.4z M113.6,94c0-0.9,0-1.9,0-2.8c0-1.6-0.7-2.3-2.3-2.3
			c-1.9,0-3.9,0-5.8,0c-1.5,0-2.2,0.7-2.3,2.2c0,2,0,4,0,5.9c0,1.4,0.8,2.2,2.1,2.2c2,0,4,0,6.1,0c1.4,0,2.1-0.8,2.1-2.2
			C113.6,95.9,113.6,95,113.6,94z M108.3,95c-1.1,0.1-0.9-0.5-1-1.2c-0.1-1,0.5-1,1.2-0.9c1.1-0.3,0.8,0.5,0.9,1.1
			C109.6,95.1,109,94.9,108.3,95z M101.3,55.8c-3.5,0-6.3,2.6-6.3,6.1c0,3.5,2.7,6.3,6.1,6.3c3.5,0,6.3-2.6,6.3-6.1
			C107.4,58.6,104.7,55.8,101.3,55.8z M101.2,64.1c-1,0-2-1-2-2.1c0-1,1-2,2.1-2c1,0,2,1,2,2.1C103.2,63.1,102.2,64.1,101.2,64.1z
			 M101.3,55.8c-3.5,0-6.3,2.6-6.3,6.1c0,3.5,2.7,6.3,6.1,6.3c3.5,0,6.3-2.6,6.3-6.1C107.4,58.6,104.7,55.8,101.3,55.8z M101.2,64.1
			c-1,0-2-1-2-2.1c0-1,1-2,2.1-2c1,0,2,1,2,2.1C103.2,63.1,102.2,64.1,101.2,64.1z M101.3,55.8c-3.5,0-6.3,2.6-6.3,6.1
			c0,3.5,2.7,6.3,6.1,6.3c3.5,0,6.3-2.6,6.3-6.1C107.4,58.6,104.7,55.8,101.3,55.8z M101.2,64.1c-1,0-2-1-2-2.1c0-1,1-2,2.1-2
			c1,0,2,1,2,2.1C103.2,63.1,102.2,64.1,101.2,64.1z M101.3,55.8c-3.5,0-6.3,2.6-6.3,6.1c0,3.5,2.7,6.3,6.1,6.3
			c3.5,0,6.3-2.6,6.3-6.1C107.4,58.6,104.7,55.8,101.3,55.8z M101.2,64.1c-1,0-2-1-2-2.1c0-1,1-2,2.1-2c1,0,2,1,2,2.1
			C103.2,63.1,102.2,64.1,101.2,64.1z M101.2,49.6c-6.9,0-12.4,5.5-12.4,12.4c0,6.9,5.5,12.4,12.4,12.4c6.8,0,12.3-5.5,12.3-12.3
			C113.6,55.1,108.1,49.6,101.2,49.6z M101.1,70.2c-4.4,0-8.2-3.8-8.2-8.3c0-4.5,3.9-8.3,8.3-8.2c4.5,0.1,8.2,3.8,8.2,8.3
			C109.4,66.5,105.6,70.3,101.1,70.2z M101.3,55.8c-3.5,0-6.3,2.6-6.3,6.1c0,3.5,2.7,6.3,6.1,6.3c3.5,0,6.3-2.6,6.3-6.1
			C107.4,58.6,104.7,55.8,101.3,55.8z M101.2,64.1c-1,0-2-1-2-2.1c0-1,1-2,2.1-2c1,0,2,1,2,2.1C103.2,63.1,102.2,64.1,101.2,64.1z
			 M101.3,55.8c-3.5,0-6.3,2.6-6.3,6.1c0,3.5,2.7,6.3,6.1,6.3c3.5,0,6.3-2.6,6.3-6.1C107.4,58.6,104.7,55.8,101.3,55.8z M101.2,64.1
			c-1,0-2-1-2-2.1c0-1,1-2,2.1-2c1,0,2,1,2,2.1C103.2,63.1,102.2,64.1,101.2,64.1z M101.3,55.8c-3.5,0-6.3,2.6-6.3,6.1
			c0,3.5,2.7,6.3,6.1,6.3c3.5,0,6.3-2.6,6.3-6.1C107.4,58.6,104.7,55.8,101.3,55.8z M101.2,64.1c-1,0-2-1-2-2.1c0-1,1-2,2.1-2
			c1,0,2,1,2,2.1C103.2,63.1,102.2,64.1,101.2,64.1z M101.3,55.8c-3.5,0-6.3,2.6-6.3,6.1c0,3.5,2.7,6.3,6.1,6.3
			c3.5,0,6.3-2.6,6.3-6.1C107.4,58.6,104.7,55.8,101.3,55.8z M101.2,64.1c-1,0-2-1-2-2.1c0-1,1-2,2.1-2c1,0,2,1,2,2.1
			C103.2,63.1,102.2,64.1,101.2,64.1z M101.3,55.8c-3.5,0-6.3,2.6-6.3,6.1c0,3.5,2.7,6.3,6.1,6.3c3.5,0,6.3-2.6,6.3-6.1
			C107.4,58.6,104.7,55.8,101.3,55.8z M101.2,64.1c-1,0-2-1-2-2.1c0-1,1-2,2.1-2c1,0,2,1,2,2.1C103.2,63.1,102.2,64.1,101.2,64.1z
			 M99.1,78.5c0-1.3-0.8-2.1-2.1-2.1c-2,0-4,0-6.1,0c-1.4,0-2.1,0.8-2.1,2.2c0,1,0,2,0,3c0,1,0,2,0,3c0,1.4,0.8,2.2,2.1,2.2
			c2,0,4,0,6.1,0c1.3,0,2.1-0.8,2.1-2C99.1,82.6,99.1,80.6,99.1,78.5z M93.9,82.6c-1,0.1-1-0.5-0.9-1.2c-0.3-1.1,0.5-0.8,1.1-0.9
			c1.1-0.2,0.9,0.5,1,1.2C95.2,82.8,94.5,82.6,93.9,82.6z M99.1,103.3c0-1.3-0.8-2.1-2-2.1c-2.1,0-4.1,0-6.2,0c-1.3,0-2,0.8-2.1,2.1
			c0,2,0,4,0,6.1c0,1.4,0.8,2.1,2.2,2.1c1,0,2,0,3,0s2,0,3,0c1.4,0,2.2-0.8,2.2-2.1C99.1,107.4,99.1,105.3,99.1,103.3z M93.9,107.4
			c-1,0.1-1-0.5-0.9-1.2c-0.3-1.1,0.5-0.8,1.1-0.9c1.1-0.2,0.9,0.5,1,1.2C95.2,107.5,94.5,107.3,93.9,107.4z M99.1,94v-3
			c0,0,0-0.1,0-0.1c-0.1-1.3-0.8-2.1-2.1-2.1c-2,0-4,0-6.1,0c-1.3,0-2.1,0.8-2.1,2c0,2.1,0,4.1,0,6.2c0,1.3,0.8,2.1,2.1,2.1
			c2,0,4,0,6.1,0c1.4,0,2.1-0.8,2.1-2.2C99.1,96,99.1,95,99.1,94z M93.9,95c-0.9,0.1-1-0.3-1-1.1c0-0.9,0.2-1.2,1-0.9
			c1-0.3,1,0.3,1.1,1C95.1,94.9,94.7,95,93.9,95z M68.1,78.5c-2.7,0-5.3,0-8,0c-1.4,0-2.2,0.8-2.2,2.1c0,1.2,0.9,2,2.2,2
			c1.3,0,2.7,0,4,0c1.3,0,2.7,0,4,0c1.4,0,2.2-0.8,2.2-2.1C70.2,79.3,69.4,78.5,68.1,78.5z M68.1,78.5c-2.7,0-5.3,0-8,0
			c-1.4,0-2.2,0.8-2.2,2.1c0,1.2,0.9,2,2.2,2c1.3,0,2.7,0,4,0c1.3,0,2.7,0,4,0c1.4,0,2.2-0.8,2.2-2.1C70.2,79.3,69.4,78.5,68.1,78.5
			z M99.1,94v-3c0,0,0-0.1,0-0.1c-0.1-1.3-0.8-2.1-2.1-2.1c-2,0-4,0-6.1,0c-1.3,0-2.1,0.8-2.1,2c0,2.1,0,4.1,0,6.2
			c0,1.3,0.8,2.1,2.1,2.1c2,0,4,0,6.1,0c1.4,0,2.1-0.8,2.1-2.2C99.1,96,99.1,95,99.1,94z M93.9,95c-0.9,0.1-1-0.3-1-1.1
			c0-0.9,0.2-1.2,1-0.9c1-0.3,1,0.3,1.1,1C95.1,94.9,94.7,95,93.9,95z M99.1,103.3c0-1.3-0.8-2.1-2-2.1c-2.1,0-4.1,0-6.2,0
			c-1.3,0-2,0.8-2.1,2.1c0,2,0,4,0,6.1c0,1.4,0.8,2.1,2.2,2.1c1,0,2,0,3,0s2,0,3,0c1.4,0,2.2-0.8,2.2-2.1
			C99.1,107.4,99.1,105.3,99.1,103.3z M93.9,107.4c-1,0.1-1-0.5-0.9-1.2c-0.3-1.1,0.5-0.8,1.1-0.9c1.1-0.2,0.9,0.5,1,1.2
			C95.2,107.5,94.5,107.3,93.9,107.4z M99.1,78.5c0-1.3-0.8-2.1-2.1-2.1c-2,0-4,0-6.1,0c-1.4,0-2.1,0.8-2.1,2.2c0,1,0,2,0,3
			c0,1,0,2,0,3c0,1.4,0.8,2.2,2.1,2.2c2,0,4,0,6.1,0c1.3,0,2.1-0.8,2.1-2C99.1,82.6,99.1,80.6,99.1,78.5z M93.9,82.6
			c-1,0.1-1-0.5-0.9-1.2c-0.3-1.1,0.5-0.8,1.1-0.9c1.1-0.2,0.9,0.5,1,1.2C95.2,82.8,94.5,82.6,93.9,82.6z M101.3,55.8
			c-3.5,0-6.3,2.6-6.3,6.1c0,3.5,2.7,6.3,6.1,6.3c3.5,0,6.3-2.6,6.3-6.1C107.4,58.6,104.7,55.8,101.3,55.8z M101.2,64.1
			c-1,0-2-1-2-2.1c0-1,1-2,2.1-2c1,0,2,1,2,2.1C103.2,63.1,102.2,64.1,101.2,64.1z M101.3,55.8c-3.5,0-6.3,2.6-6.3,6.1
			c0,3.5,2.7,6.3,6.1,6.3c3.5,0,6.3-2.6,6.3-6.1C107.4,58.6,104.7,55.8,101.3,55.8z M101.2,64.1c-1,0-2-1-2-2.1c0-1,1-2,2.1-2
			c1,0,2,1,2,2.1C103.2,63.1,102.2,64.1,101.2,64.1z M101.3,55.8c-3.5,0-6.3,2.6-6.3,6.1c0,3.5,2.7,6.3,6.1,6.3
			c3.5,0,6.3-2.6,6.3-6.1C107.4,58.6,104.7,55.8,101.3,55.8z M101.2,64.1c-1,0-2-1-2-2.1c0-1,1-2,2.1-2c1,0,2,1,2,2.1
			C103.2,63.1,102.2,64.1,101.2,64.1z M101.3,55.8c-3.5,0-6.3,2.6-6.3,6.1c0,3.5,2.7,6.3,6.1,6.3c3.5,0,6.3-2.6,6.3-6.1
			C107.4,58.6,104.7,55.8,101.3,55.8z M101.2,64.1c-1,0-2-1-2-2.1c0-1,1-2,2.1-2c1,0,2,1,2,2.1C103.2,63.1,102.2,64.1,101.2,64.1z
			 M101.3,55.8c-3.5,0-6.3,2.6-6.3,6.1c0,3.5,2.7,6.3,6.1,6.3c3.5,0,6.3-2.6,6.3-6.1C107.4,58.6,104.7,55.8,101.3,55.8z M101.2,64.1
			c-1,0-2-1-2-2.1c0-1,1-2,2.1-2c1,0,2,1,2,2.1C103.2,63.1,102.2,64.1,101.2,64.1z M101.3,55.8c-3.5,0-6.3,2.6-6.3,6.1
			c0,3.5,2.7,6.3,6.1,6.3c3.5,0,6.3-2.6,6.3-6.1C107.4,58.6,104.7,55.8,101.3,55.8z M101.2,64.1c-1,0-2-1-2-2.1c0-1,1-2,2.1-2
			c1,0,2,1,2,2.1C103.2,63.1,102.2,64.1,101.2,64.1z M101.2,49.6c-6.9,0-12.4,5.5-12.4,12.4c0,6.9,5.5,12.4,12.4,12.4
			c6.8,0,12.3-5.5,12.3-12.3C113.6,55.1,108.1,49.6,101.2,49.6z M101.1,70.2c-4.4,0-8.2-3.8-8.2-8.3c0-4.5,3.9-8.3,8.3-8.2
			c4.5,0.1,8.2,3.8,8.2,8.3C109.4,66.5,105.6,70.3,101.1,70.2z M101.3,55.8c-3.5,0-6.3,2.6-6.3,6.1c0,3.5,2.7,6.3,6.1,6.3
			c3.5,0,6.3-2.6,6.3-6.1C107.4,58.6,104.7,55.8,101.3,55.8z M101.2,64.1c-1,0-2-1-2-2.1c0-1,1-2,2.1-2c1,0,2,1,2,2.1
			C103.2,63.1,102.2,64.1,101.2,64.1z M101.3,55.8c-3.5,0-6.3,2.6-6.3,6.1c0,3.5,2.7,6.3,6.1,6.3c3.5,0,6.3-2.6,6.3-6.1
			C107.4,58.6,104.7,55.8,101.3,55.8z M101.2,64.1c-1,0-2-1-2-2.1c0-1,1-2,2.1-2c1,0,2,1,2,2.1C103.2,63.1,102.2,64.1,101.2,64.1z
			 M101.3,55.8c-3.5,0-6.3,2.6-6.3,6.1c0,3.5,2.7,6.3,6.1,6.3c3.5,0,6.3-2.6,6.3-6.1C107.4,58.6,104.7,55.8,101.3,55.8z M101.2,64.1
			c-1,0-2-1-2-2.1c0-1,1-2,2.1-2c1,0,2,1,2,2.1C103.2,63.1,102.2,64.1,101.2,64.1z M101.3,55.8c-3.5,0-6.3,2.6-6.3,6.1
			c0,3.5,2.7,6.3,6.1,6.3c3.5,0,6.3-2.6,6.3-6.1C107.4,58.6,104.7,55.8,101.3,55.8z M101.2,64.1c-1,0-2-1-2-2.1c0-1,1-2,2.1-2
			c1,0,2,1,2,2.1C103.2,63.1,102.2,64.1,101.2,64.1z M101.3,55.8c-3.5,0-6.3,2.6-6.3,6.1c0,3.5,2.7,6.3,6.1,6.3
			c3.5,0,6.3-2.6,6.3-6.1C107.4,58.6,104.7,55.8,101.3,55.8z M101.2,64.1c-1,0-2-1-2-2.1c0-1,1-2,2.1-2c1,0,2,1,2,2.1
			C103.2,63.1,102.2,64.1,101.2,64.1z M113.6,94c0-0.9,0-1.9,0-2.8c0-1.6-0.7-2.3-2.3-2.3c-1.9,0-3.9,0-5.8,0
			c-1.5,0-2.2,0.7-2.3,2.2c0,2,0,4,0,5.9c0,1.4,0.8,2.2,2.1,2.2c2,0,4,0,6.1,0c1.4,0,2.1-0.8,2.1-2.2C113.6,95.9,113.6,95,113.6,94z
			 M108.3,95c-1.1,0.1-0.9-0.5-1-1.2c-0.1-1,0.5-1,1.2-0.9c1.1-0.3,0.8,0.5,0.9,1.1C109.6,95.1,109,94.9,108.3,95z M113.6,103.3
			c0-1.3-0.8-2.1-2.1-2.1c-2,0-4,0-6.1,0c-1.4,0-2.1,0.8-2.2,2.1c0,2,0,4,0,6.1c0,1.3,0.8,2.1,2.1,2.1c1,0,2.1,0,3.1,0c1,0,2,0,3,0
			c1.4,0,2.2-0.8,2.2-2.1C113.6,107.3,113.6,105.3,113.6,103.3z M108.3,107.4c-1.1,0.2-0.8-0.5-0.9-1.2c-0.1-1.1,0.5-1,1.2-0.9
			c1.1-0.3,0.8,0.5,0.9,1.1C109.6,107.5,108.9,107.3,108.3,107.4z M113.6,78.6c0-1.3-0.8-2.1-2-2.1c-2.1,0-4.1,0-6.2,0
			c-1.3,0-2.1,0.8-2.1,2.1c0,2,0,4,0,6.1c0,1.4,0.8,2.1,2.2,2.1c1,0,2,0,3,0c1,0,2.1,0,3.1,0c1.3,0,2.1-0.8,2.1-2.1
			C113.6,82.6,113.6,80.6,113.6,78.6z M108.3,82.6c-1.1,0.1-1-0.5-0.9-1.2c-0.3-1.1,0.5-0.8,1.1-0.9c1.1-0.2,0.8,0.5,0.9,1.2
			C109.6,82.8,108.9,82.6,108.3,82.6z M113.6,78.6c0-1.3-0.8-2.1-2-2.1c-2.1,0-4.1,0-6.2,0c-1.3,0-2.1,0.8-2.1,2.1c0,2,0,4,0,6.1
			c0,1.4,0.8,2.1,2.2,2.1c1,0,2,0,3,0c1,0,2.1,0,3.1,0c1.3,0,2.1-0.8,2.1-2.1C113.6,82.6,113.6,80.6,113.6,78.6z M108.3,82.6
			c-1.1,0.1-1-0.5-0.9-1.2c-0.3-1.1,0.5-0.8,1.1-0.9c1.1-0.2,0.8,0.5,0.9,1.2C109.6,82.8,108.9,82.6,108.3,82.6z M113.6,103.3
			c0-1.3-0.8-2.1-2.1-2.1c-2,0-4,0-6.1,0c-1.4,0-2.1,0.8-2.2,2.1c0,2,0,4,0,6.1c0,1.3,0.8,2.1,2.1,2.1c1,0,2.1,0,3.1,0c1,0,2,0,3,0
			c1.4,0,2.2-0.8,2.2-2.1C113.6,107.3,113.6,105.3,113.6,103.3z M108.3,107.4c-1.1,0.2-0.8-0.5-0.9-1.2c-0.1-1.1,0.5-1,1.2-0.9
			c1.1-0.3,0.8,0.5,0.9,1.1C109.6,107.5,108.9,107.3,108.3,107.4z M113.6,94c0-0.9,0-1.9,0-2.8c0-1.6-0.7-2.3-2.3-2.3
			c-1.9,0-3.9,0-5.8,0c-1.5,0-2.2,0.7-2.3,2.2c0,2,0,4,0,5.9c0,1.4,0.8,2.2,2.1,2.2c2,0,4,0,6.1,0c1.4,0,2.1-0.8,2.1-2.2
			C113.6,95.9,113.6,95,113.6,94z M108.3,95c-1.1,0.1-0.9-0.5-1-1.2c-0.1-1,0.5-1,1.2-0.9c1.1-0.3,0.8,0.5,0.9,1.1
			C109.6,95.1,109,94.9,108.3,95z M101.3,55.8c-3.5,0-6.3,2.6-6.3,6.1c0,3.5,2.7,6.3,6.1,6.3c3.5,0,6.3-2.6,6.3-6.1
			C107.4,58.6,104.7,55.8,101.3,55.8z M101.2,64.1c-1,0-2-1-2-2.1c0-1,1-2,2.1-2c1,0,2,1,2,2.1C103.2,63.1,102.2,64.1,101.2,64.1z
			 M101.3,55.8c-3.5,0-6.3,2.6-6.3,6.1c0,3.5,2.7,6.3,6.1,6.3c3.5,0,6.3-2.6,6.3-6.1C107.4,58.6,104.7,55.8,101.3,55.8z M101.2,64.1
			c-1,0-2-1-2-2.1c0-1,1-2,2.1-2c1,0,2,1,2,2.1C103.2,63.1,102.2,64.1,101.2,64.1z M101.3,55.8c-3.5,0-6.3,2.6-6.3,6.1
			c0,3.5,2.7,6.3,6.1,6.3c3.5,0,6.3-2.6,6.3-6.1C107.4,58.6,104.7,55.8,101.3,55.8z M101.2,64.1c-1,0-2-1-2-2.1c0-1,1-2,2.1-2
			c1,0,2,1,2,2.1C103.2,63.1,102.2,64.1,101.2,64.1z M101.3,55.8c-3.5,0-6.3,2.6-6.3,6.1c0,3.5,2.7,6.3,6.1,6.3
			c3.5,0,6.3-2.6,6.3-6.1C107.4,58.6,104.7,55.8,101.3,55.8z M101.2,64.1c-1,0-2-1-2-2.1c0-1,1-2,2.1-2c1,0,2,1,2,2.1
			C103.2,63.1,102.2,64.1,101.2,64.1z M101.3,55.8c-3.5,0-6.3,2.6-6.3,6.1c0,3.5,2.7,6.3,6.1,6.3c3.5,0,6.3-2.6,6.3-6.1
			C107.4,58.6,104.7,55.8,101.3,55.8z M101.2,64.1c-1,0-2-1-2-2.1c0-1,1-2,2.1-2c1,0,2,1,2,2.1C103.2,63.1,102.2,64.1,101.2,64.1z
			 M101.3,55.8c-3.5,0-6.3,2.6-6.3,6.1c0,3.5,2.7,6.3,6.1,6.3c3.5,0,6.3-2.6,6.3-6.1C107.4,58.6,104.7,55.8,101.3,55.8z M101.2,64.1
			c-1,0-2-1-2-2.1c0-1,1-2,2.1-2c1,0,2,1,2,2.1C103.2,63.1,102.2,64.1,101.2,64.1z M101.2,49.6c-6.9,0-12.4,5.5-12.4,12.4
			c0,6.9,5.5,12.4,12.4,12.4c6.8,0,12.3-5.5,12.3-12.3C113.6,55.1,108.1,49.6,101.2,49.6z M101.1,70.2c-4.4,0-8.2-3.8-8.2-8.3
			c0-4.5,3.9-8.3,8.3-8.2c4.5,0.1,8.2,3.8,8.2,8.3C109.4,66.5,105.6,70.3,101.1,70.2z M101.3,55.8c-3.5,0-6.3,2.6-6.3,6.1
			c0,3.5,2.7,6.3,6.1,6.3c3.5,0,6.3-2.6,6.3-6.1C107.4,58.6,104.7,55.8,101.3,55.8z M101.2,64.1c-1,0-2-1-2-2.1c0-1,1-2,2.1-2
			c1,0,2,1,2,2.1C103.2,63.1,102.2,64.1,101.2,64.1z M101.3,55.8c-3.5,0-6.3,2.6-6.3,6.1c0,3.5,2.7,6.3,6.1,6.3
			c3.5,0,6.3-2.6,6.3-6.1C107.4,58.6,104.7,55.8,101.3,55.8z M101.2,64.1c-1,0-2-1-2-2.1c0-1,1-2,2.1-2c1,0,2,1,2,2.1
			C103.2,63.1,102.2,64.1,101.2,64.1z M101.3,55.8c-3.5,0-6.3,2.6-6.3,6.1c0,3.5,2.7,6.3,6.1,6.3c3.5,0,6.3-2.6,6.3-6.1
			C107.4,58.6,104.7,55.8,101.3,55.8z M101.2,64.1c-1,0-2-1-2-2.1c0-1,1-2,2.1-2c1,0,2,1,2,2.1C103.2,63.1,102.2,64.1,101.2,64.1z
			 M101.3,55.8c-3.5,0-6.3,2.6-6.3,6.1c0,3.5,2.7,6.3,6.1,6.3c3.5,0,6.3-2.6,6.3-6.1C107.4,58.6,104.7,55.8,101.3,55.8z M101.2,64.1
			c-1,0-2-1-2-2.1c0-1,1-2,2.1-2c1,0,2,1,2,2.1C103.2,63.1,102.2,64.1,101.2,64.1z M101.3,55.8c-3.5,0-6.3,2.6-6.3,6.1
			c0,3.5,2.7,6.3,6.1,6.3c3.5,0,6.3-2.6,6.3-6.1C107.4,58.6,104.7,55.8,101.3,55.8z M101.2,64.1c-1,0-2-1-2-2.1c0-1,1-2,2.1-2
			c1,0,2,1,2,2.1C103.2,63.1,102.2,64.1,101.2,64.1z M101.3,55.8c-3.5,0-6.3,2.6-6.3,6.1c0,3.5,2.7,6.3,6.1,6.3
			c3.5,0,6.3-2.6,6.3-6.1C107.4,58.6,104.7,55.8,101.3,55.8z M101.2,64.1c-1,0-2-1-2-2.1c0-1,1-2,2.1-2c1,0,2,1,2,2.1
			C103.2,63.1,102.2,64.1,101.2,64.1z M101.3,55.8c-3.5,0-6.3,2.6-6.3,6.1c0,3.5,2.7,6.3,6.1,6.3c3.5,0,6.3-2.6,6.3-6.1
			C107.4,58.6,104.7,55.8,101.3,55.8z M101.2,64.1c-1,0-2-1-2-2.1c0-1,1-2,2.1-2c1,0,2,1,2,2.1C103.2,63.1,102.2,64.1,101.2,64.1z
			 M99.1,78.5c0-1.3-0.8-2.1-2.1-2.1c-2,0-4,0-6.1,0c-1.4,0-2.1,0.8-2.1,2.2c0,1,0,2,0,3c0,1,0,2,0,3c0,1.4,0.8,2.2,2.1,2.2
			c2,0,4,0,6.1,0c1.3,0,2.1-0.8,2.1-2C99.1,82.6,99.1,80.6,99.1,78.5z M93.9,82.6c-1,0.1-1-0.5-0.9-1.2c-0.3-1.1,0.5-0.8,1.1-0.9
			c1.1-0.2,0.9,0.5,1,1.2C95.2,82.8,94.5,82.6,93.9,82.6z M99.1,103.3c0-1.3-0.8-2.1-2-2.1c-2.1,0-4.1,0-6.2,0c-1.3,0-2,0.8-2.1,2.1
			c0,2,0,4,0,6.1c0,1.4,0.8,2.1,2.2,2.1c1,0,2,0,3,0s2,0,3,0c1.4,0,2.2-0.8,2.2-2.1C99.1,107.4,99.1,105.3,99.1,103.3z M93.9,107.4
			c-1,0.1-1-0.5-0.9-1.2c-0.3-1.1,0.5-0.8,1.1-0.9c1.1-0.2,0.9,0.5,1,1.2C95.2,107.5,94.5,107.3,93.9,107.4z M99.1,94v-3
			c0,0,0-0.1,0-0.1c-0.1-1.3-0.8-2.1-2.1-2.1c-2,0-4,0-6.1,0c-1.3,0-2.1,0.8-2.1,2c0,2.1,0,4.1,0,6.2c0,1.3,0.8,2.1,2.1,2.1
			c2,0,4,0,6.1,0c1.4,0,2.1-0.8,2.1-2.2C99.1,96,99.1,95,99.1,94z M93.9,95c-0.9,0.1-1-0.3-1-1.1c0-0.9,0.2-1.2,1-0.9
			c1-0.3,1,0.3,1.1,1C95.1,94.9,94.7,95,93.9,95z M68.1,78.5c-2.7,0-5.3,0-8,0c-1.4,0-2.2,0.8-2.2,2.1c0,1.2,0.9,2,2.2,2
			c1.3,0,2.7,0,4,0c1.3,0,2.7,0,4,0c1.4,0,2.2-0.8,2.2-2.1C70.2,79.3,69.4,78.5,68.1,78.5z M68.1,78.5c-2.7,0-5.3,0-8,0
			c-1.4,0-2.2,0.8-2.2,2.1c0,1.2,0.9,2,2.2,2c1.3,0,2.7,0,4,0c1.3,0,2.7,0,4,0c1.4,0,2.2-0.8,2.2-2.1C70.2,79.3,69.4,78.5,68.1,78.5
			z M99.1,94v-3c0,0,0-0.1,0-0.1c-0.1-1.3-0.8-2.1-2.1-2.1c-2,0-4,0-6.1,0c-1.3,0-2.1,0.8-2.1,2c0,2.1,0,4.1,0,6.2
			c0,1.3,0.8,2.1,2.1,2.1c2,0,4,0,6.1,0c1.4,0,2.1-0.8,2.1-2.2C99.1,96,99.1,95,99.1,94z M93.9,95c-0.9,0.1-1-0.3-1-1.1
			c0-0.9,0.2-1.2,1-0.9c1-0.3,1,0.3,1.1,1C95.1,94.9,94.7,95,93.9,95z M99.1,103.3c0-1.3-0.8-2.1-2-2.1c-2.1,0-4.1,0-6.2,0
			c-1.3,0-2,0.8-2.1,2.1c0,2,0,4,0,6.1c0,1.4,0.8,2.1,2.2,2.1c1,0,2,0,3,0s2,0,3,0c1.4,0,2.2-0.8,2.2-2.1
			C99.1,107.4,99.1,105.3,99.1,103.3z M93.9,107.4c-1,0.1-1-0.5-0.9-1.2c-0.3-1.1,0.5-0.8,1.1-0.9c1.1-0.2,0.9,0.5,1,1.2
			C95.2,107.5,94.5,107.3,93.9,107.4z M99.1,78.5c0-1.3-0.8-2.1-2.1-2.1c-2,0-4,0-6.1,0c-1.4,0-2.1,0.8-2.1,2.2c0,1,0,2,0,3
			c0,1,0,2,0,3c0,1.4,0.8,2.2,2.1,2.2c2,0,4,0,6.1,0c1.3,0,2.1-0.8,2.1-2C99.1,82.6,99.1,80.6,99.1,78.5z M93.9,82.6
			c-1,0.1-1-0.5-0.9-1.2c-0.3-1.1,0.5-0.8,1.1-0.9c1.1-0.2,0.9,0.5,1,1.2C95.2,82.8,94.5,82.6,93.9,82.6z M101.3,55.8
			c-3.5,0-6.3,2.6-6.3,6.1c0,3.5,2.7,6.3,6.1,6.3c3.5,0,6.3-2.6,6.3-6.1C107.4,58.6,104.7,55.8,101.3,55.8z M101.2,64.1
			c-1,0-2-1-2-2.1c0-1,1-2,2.1-2c1,0,2,1,2,2.1C103.2,63.1,102.2,64.1,101.2,64.1z M101.3,55.8c-3.5,0-6.3,2.6-6.3,6.1
			c0,3.5,2.7,6.3,6.1,6.3c3.5,0,6.3-2.6,6.3-6.1C107.4,58.6,104.7,55.8,101.3,55.8z M101.2,64.1c-1,0-2-1-2-2.1c0-1,1-2,2.1-2
			c1,0,2,1,2,2.1C103.2,63.1,102.2,64.1,101.2,64.1z M101.3,55.8c-3.5,0-6.3,2.6-6.3,6.1c0,3.5,2.7,6.3,6.1,6.3
			c3.5,0,6.3-2.6,6.3-6.1C107.4,58.6,104.7,55.8,101.3,55.8z M101.2,64.1c-1,0-2-1-2-2.1c0-1,1-2,2.1-2c1,0,2,1,2,2.1
			C103.2,63.1,102.2,64.1,101.2,64.1z M101.3,55.8c-3.5,0-6.3,2.6-6.3,6.1c0,3.5,2.7,6.3,6.1,6.3c3.5,0,6.3-2.6,6.3-6.1
			C107.4,58.6,104.7,55.8,101.3,55.8z M101.2,64.1c-1,0-2-1-2-2.1c0-1,1-2,2.1-2c1,0,2,1,2,2.1C103.2,63.1,102.2,64.1,101.2,64.1z
			 M101.3,55.8c-3.5,0-6.3,2.6-6.3,6.1c0,3.5,2.7,6.3,6.1,6.3c3.5,0,6.3-2.6,6.3-6.1C107.4,58.6,104.7,55.8,101.3,55.8z M101.2,64.1
			c-1,0-2-1-2-2.1c0-1,1-2,2.1-2c1,0,2,1,2,2.1C103.2,63.1,102.2,64.1,101.2,64.1z M101.3,55.8c-3.5,0-6.3,2.6-6.3,6.1
			c0,3.5,2.7,6.3,6.1,6.3c3.5,0,6.3-2.6,6.3-6.1C107.4,58.6,104.7,55.8,101.3,55.8z M101.2,64.1c-1,0-2-1-2-2.1c0-1,1-2,2.1-2
			c1,0,2,1,2,2.1C103.2,63.1,102.2,64.1,101.2,64.1z M101.3,55.8c-3.5,0-6.3,2.6-6.3,6.1c0,3.5,2.7,6.3,6.1,6.3
			c3.5,0,6.3-2.6,6.3-6.1C107.4,58.6,104.7,55.8,101.3,55.8z M101.2,64.1c-1,0-2-1-2-2.1c0-1,1-2,2.1-2c1,0,2,1,2,2.1
			C103.2,63.1,102.2,64.1,101.2,64.1z M101.3,55.8c-3.5,0-6.3,2.6-6.3,6.1c0,3.5,2.7,6.3,6.1,6.3c3.5,0,6.3-2.6,6.3-6.1
			C107.4,58.6,104.7,55.8,101.3,55.8z M101.2,64.1c-1,0-2-1-2-2.1c0-1,1-2,2.1-2c1,0,2,1,2,2.1C103.2,63.1,102.2,64.1,101.2,64.1z
			 M101.2,49.6c-6.9,0-12.4,5.5-12.4,12.4c0,6.9,5.5,12.4,12.4,12.4c6.8,0,12.3-5.5,12.3-12.3C113.6,55.1,108.1,49.6,101.2,49.6z
			 M101.1,70.2c-4.4,0-8.2-3.8-8.2-8.3c0-4.5,3.9-8.3,8.3-8.2c4.5,0.1,8.2,3.8,8.2,8.3C109.4,66.5,105.6,70.3,101.1,70.2z
			 M101.3,55.8c-3.5,0-6.3,2.6-6.3,6.1c0,3.5,2.7,6.3,6.1,6.3c3.5,0,6.3-2.6,6.3-6.1C107.4,58.6,104.7,55.8,101.3,55.8z M101.2,64.1
			c-1,0-2-1-2-2.1c0-1,1-2,2.1-2c1,0,2,1,2,2.1C103.2,63.1,102.2,64.1,101.2,64.1z M101.3,55.8c-3.5,0-6.3,2.6-6.3,6.1
			c0,3.5,2.7,6.3,6.1,6.3c3.5,0,6.3-2.6,6.3-6.1C107.4,58.6,104.7,55.8,101.3,55.8z M101.2,64.1c-1,0-2-1-2-2.1c0-1,1-2,2.1-2
			c1,0,2,1,2,2.1C103.2,63.1,102.2,64.1,101.2,64.1z M101.3,55.8c-3.5,0-6.3,2.6-6.3,6.1c0,3.5,2.7,6.3,6.1,6.3
			c3.5,0,6.3-2.6,6.3-6.1C107.4,58.6,104.7,55.8,101.3,55.8z M101.2,64.1c-1,0-2-1-2-2.1c0-1,1-2,2.1-2c1,0,2,1,2,2.1
			C103.2,63.1,102.2,64.1,101.2,64.1z M101.3,55.8c-3.5,0-6.3,2.6-6.3,6.1c0,3.5,2.7,6.3,6.1,6.3c3.5,0,6.3-2.6,6.3-6.1
			C107.4,58.6,104.7,55.8,101.3,55.8z M101.2,64.1c-1,0-2-1-2-2.1c0-1,1-2,2.1-2c1,0,2,1,2,2.1C103.2,63.1,102.2,64.1,101.2,64.1z
			 M101.3,55.8c-3.5,0-6.3,2.6-6.3,6.1c0,3.5,2.7,6.3,6.1,6.3c3.5,0,6.3-2.6,6.3-6.1C107.4,58.6,104.7,55.8,101.3,55.8z M101.2,64.1
			c-1,0-2-1-2-2.1c0-1,1-2,2.1-2c1,0,2,1,2,2.1C103.2,63.1,102.2,64.1,101.2,64.1z M101.3,55.8c-3.5,0-6.3,2.6-6.3,6.1
			c0,3.5,2.7,6.3,6.1,6.3c3.5,0,6.3-2.6,6.3-6.1C107.4,58.6,104.7,55.8,101.3,55.8z M101.2,64.1c-1,0-2-1-2-2.1c0-1,1-2,2.1-2
			c1,0,2,1,2,2.1C103.2,63.1,102.2,64.1,101.2,64.1z M101.3,55.8c-3.5,0-6.3,2.6-6.3,6.1c0,3.5,2.7,6.3,6.1,6.3
			c3.5,0,6.3-2.6,6.3-6.1C107.4,58.6,104.7,55.8,101.3,55.8z M101.2,64.1c-1,0-2-1-2-2.1c0-1,1-2,2.1-2c1,0,2,1,2,2.1
			C103.2,63.1,102.2,64.1,101.2,64.1z M113.6,94c0-0.9,0-1.9,0-2.8c0-1.6-0.7-2.3-2.3-2.3c-1.9,0-3.9,0-5.8,0
			c-1.5,0-2.2,0.7-2.3,2.2c0,2,0,4,0,5.9c0,1.4,0.8,2.2,2.1,2.2c2,0,4,0,6.1,0c1.4,0,2.1-0.8,2.1-2.2C113.6,95.9,113.6,95,113.6,94z
			 M108.3,95c-1.1,0.1-0.9-0.5-1-1.2c-0.1-1,0.5-1,1.2-0.9c1.1-0.3,0.8,0.5,0.9,1.1C109.6,95.1,109,94.9,108.3,95z M113.6,103.3
			c0-1.3-0.8-2.1-2.1-2.1c-2,0-4,0-6.1,0c-1.4,0-2.1,0.8-2.2,2.1c0,2,0,4,0,6.1c0,1.3,0.8,2.1,2.1,2.1c1,0,2.1,0,3.1,0c1,0,2,0,3,0
			c1.4,0,2.2-0.8,2.2-2.1C113.6,107.3,113.6,105.3,113.6,103.3z M108.3,107.4c-1.1,0.2-0.8-0.5-0.9-1.2c-0.1-1.1,0.5-1,1.2-0.9
			c1.1-0.3,0.8,0.5,0.9,1.1C109.6,107.5,108.9,107.3,108.3,107.4z M113.6,78.6c0-1.3-0.8-2.1-2-2.1c-2.1,0-4.1,0-6.2,0
			c-1.3,0-2.1,0.8-2.1,2.1c0,2,0,4,0,6.1c0,1.4,0.8,2.1,2.2,2.1c1,0,2,0,3,0c1,0,2.1,0,3.1,0c1.3,0,2.1-0.8,2.1-2.1
			C113.6,82.6,113.6,80.6,113.6,78.6z M108.3,82.6c-1.1,0.1-1-0.5-0.9-1.2c-0.3-1.1,0.5-0.8,1.1-0.9c1.1-0.2,0.8,0.5,0.9,1.2
			C109.6,82.8,108.9,82.6,108.3,82.6z M113.6,78.6c0-1.3-0.8-2.1-2-2.1c-2.1,0-4.1,0-6.2,0c-1.3,0-2.1,0.8-2.1,2.1c0,2,0,4,0,6.1
			c0,1.4,0.8,2.1,2.2,2.1c1,0,2,0,3,0c1,0,2.1,0,3.1,0c1.3,0,2.1-0.8,2.1-2.1C113.6,82.6,113.6,80.6,113.6,78.6z M108.3,82.6
			c-1.1,0.1-1-0.5-0.9-1.2c-0.3-1.1,0.5-0.8,1.1-0.9c1.1-0.2,0.8,0.5,0.9,1.2C109.6,82.8,108.9,82.6,108.3,82.6z M113.6,103.3
			c0-1.3-0.8-2.1-2.1-2.1c-2,0-4,0-6.1,0c-1.4,0-2.1,0.8-2.2,2.1c0,2,0,4,0,6.1c0,1.3,0.8,2.1,2.1,2.1c1,0,2.1,0,3.1,0c1,0,2,0,3,0
			c1.4,0,2.2-0.8,2.2-2.1C113.6,107.3,113.6,105.3,113.6,103.3z M108.3,107.4c-1.1,0.2-0.8-0.5-0.9-1.2c-0.1-1.1,0.5-1,1.2-0.9
			c1.1-0.3,0.8,0.5,0.9,1.1C109.6,107.5,108.9,107.3,108.3,107.4z M113.6,94c0-0.9,0-1.9,0-2.8c0-1.6-0.7-2.3-2.3-2.3
			c-1.9,0-3.9,0-5.8,0c-1.5,0-2.2,0.7-2.3,2.2c0,2,0,4,0,5.9c0,1.4,0.8,2.2,2.1,2.2c2,0,4,0,6.1,0c1.4,0,2.1-0.8,2.1-2.2
			C113.6,95.9,113.6,95,113.6,94z M108.3,95c-1.1,0.1-0.9-0.5-1-1.2c-0.1-1,0.5-1,1.2-0.9c1.1-0.3,0.8,0.5,0.9,1.1
			C109.6,95.1,109,94.9,108.3,95z M101.3,55.8c-3.5,0-6.3,2.6-6.3,6.1c0,3.5,2.7,6.3,6.1,6.3c3.5,0,6.3-2.6,6.3-6.1
			C107.4,58.6,104.7,55.8,101.3,55.8z M101.2,64.1c-1,0-2-1-2-2.1c0-1,1-2,2.1-2c1,0,2,1,2,2.1C103.2,63.1,102.2,64.1,101.2,64.1z
			 M101.3,55.8c-3.5,0-6.3,2.6-6.3,6.1c0,3.5,2.7,6.3,6.1,6.3c3.5,0,6.3-2.6,6.3-6.1C107.4,58.6,104.7,55.8,101.3,55.8z M101.2,64.1
			c-1,0-2-1-2-2.1c0-1,1-2,2.1-2c1,0,2,1,2,2.1C103.2,63.1,102.2,64.1,101.2,64.1z M101.3,55.8c-3.5,0-6.3,2.6-6.3,6.1
			c0,3.5,2.7,6.3,6.1,6.3c3.5,0,6.3-2.6,6.3-6.1C107.4,58.6,104.7,55.8,101.3,55.8z M101.2,64.1c-1,0-2-1-2-2.1c0-1,1-2,2.1-2
			c1,0,2,1,2,2.1C103.2,63.1,102.2,64.1,101.2,64.1z M101.3,55.8c-3.5,0-6.3,2.6-6.3,6.1c0,3.5,2.7,6.3,6.1,6.3
			c3.5,0,6.3-2.6,6.3-6.1C107.4,58.6,104.7,55.8,101.3,55.8z M101.2,64.1c-1,0-2-1-2-2.1c0-1,1-2,2.1-2c1,0,2,1,2,2.1
			C103.2,63.1,102.2,64.1,101.2,64.1z M101.3,55.8c-3.5,0-6.3,2.6-6.3,6.1c0,3.5,2.7,6.3,6.1,6.3c3.5,0,6.3-2.6,6.3-6.1
			C107.4,58.6,104.7,55.8,101.3,55.8z M101.2,64.1c-1,0-2-1-2-2.1c0-1,1-2,2.1-2c1,0,2,1,2,2.1C103.2,63.1,102.2,64.1,101.2,64.1z
			 M101.3,55.8c-3.5,0-6.3,2.6-6.3,6.1c0,3.5,2.7,6.3,6.1,6.3c3.5,0,6.3-2.6,6.3-6.1C107.4,58.6,104.7,55.8,101.3,55.8z M101.2,64.1
			c-1,0-2-1-2-2.1c0-1,1-2,2.1-2c1,0,2,1,2,2.1C103.2,63.1,102.2,64.1,101.2,64.1z M101.3,55.8c-3.5,0-6.3,2.6-6.3,6.1
			c0,3.5,2.7,6.3,6.1,6.3c3.5,0,6.3-2.6,6.3-6.1C107.4,58.6,104.7,55.8,101.3,55.8z M101.2,64.1c-1,0-2-1-2-2.1c0-1,1-2,2.1-2
			c1,0,2,1,2,2.1C103.2,63.1,102.2,64.1,101.2,64.1z M101.3,55.8c-3.5,0-6.3,2.6-6.3,6.1c0,3.5,2.7,6.3,6.1,6.3
			c3.5,0,6.3-2.6,6.3-6.1C107.4,58.6,104.7,55.8,101.3,55.8z M101.2,64.1c-1,0-2-1-2-2.1c0-1,1-2,2.1-2c1,0,2,1,2,2.1
			C103.2,63.1,102.2,64.1,101.2,64.1z M101.2,49.6c-6.9,0-12.4,5.5-12.4,12.4c0,6.9,5.5,12.4,12.4,12.4c6.8,0,12.3-5.5,12.3-12.3
			C113.6,55.1,108.1,49.6,101.2,49.6z M101.1,70.2c-4.4,0-8.2-3.8-8.2-8.3c0-4.5,3.9-8.3,8.3-8.2c4.5,0.1,8.2,3.8,8.2,8.3
			C109.4,66.5,105.6,70.3,101.1,70.2z M101.3,55.8c-3.5,0-6.3,2.6-6.3,6.1c0,3.5,2.7,6.3,6.1,6.3c3.5,0,6.3-2.6,6.3-6.1
			C107.4,58.6,104.7,55.8,101.3,55.8z M101.2,64.1c-1,0-2-1-2-2.1c0-1,1-2,2.1-2c1,0,2,1,2,2.1C103.2,63.1,102.2,64.1,101.2,64.1z
			 M101.3,55.8c-3.5,0-6.3,2.6-6.3,6.1c0,3.5,2.7,6.3,6.1,6.3c3.5,0,6.3-2.6,6.3-6.1C107.4,58.6,104.7,55.8,101.3,55.8z M101.2,64.1
			c-1,0-2-1-2-2.1c0-1,1-2,2.1-2c1,0,2,1,2,2.1C103.2,63.1,102.2,64.1,101.2,64.1z M101.3,55.8c-3.5,0-6.3,2.6-6.3,6.1
			c0,3.5,2.7,6.3,6.1,6.3c3.5,0,6.3-2.6,6.3-6.1C107.4,58.6,104.7,55.8,101.3,55.8z M101.2,64.1c-1,0-2-1-2-2.1c0-1,1-2,2.1-2
			c1,0,2,1,2,2.1C103.2,63.1,102.2,64.1,101.2,64.1z M101.3,55.8c-3.5,0-6.3,2.6-6.3,6.1c0,3.5,2.7,6.3,6.1,6.3
			c3.5,0,6.3-2.6,6.3-6.1C107.4,58.6,104.7,55.8,101.3,55.8z M101.2,64.1c-1,0-2-1-2-2.1c0-1,1-2,2.1-2c1,0,2,1,2,2.1
			C103.2,63.1,102.2,64.1,101.2,64.1z M101.3,55.8c-3.5,0-6.3,2.6-6.3,6.1c0,3.5,2.7,6.3,6.1,6.3c3.5,0,6.3-2.6,6.3-6.1
			C107.4,58.6,104.7,55.8,101.3,55.8z M101.2,64.1c-1,0-2-1-2-2.1c0-1,1-2,2.1-2c1,0,2,1,2,2.1C103.2,63.1,102.2,64.1,101.2,64.1z
			 M101.3,55.8c-3.5,0-6.3,2.6-6.3,6.1c0,3.5,2.7,6.3,6.1,6.3c3.5,0,6.3-2.6,6.3-6.1C107.4,58.6,104.7,55.8,101.3,55.8z M101.2,64.1
			c-1,0-2-1-2-2.1c0-1,1-2,2.1-2c1,0,2,1,2,2.1C103.2,63.1,102.2,64.1,101.2,64.1z M101.3,55.8c-3.5,0-6.3,2.6-6.3,6.1
			c0,3.5,2.7,6.3,6.1,6.3c3.5,0,6.3-2.6,6.3-6.1C107.4,58.6,104.7,55.8,101.3,55.8z M101.2,64.1c-1,0-2-1-2-2.1c0-1,1-2,2.1-2
			c1,0,2,1,2,2.1C103.2,63.1,102.2,64.1,101.2,64.1z M99.1,78.5c0-1.3-0.8-2.1-2.1-2.1c-2,0-4,0-6.1,0c-1.4,0-2.1,0.8-2.1,2.2
			c0,1,0,2,0,3c0,1,0,2,0,3c0,1.4,0.8,2.2,2.1,2.2c2,0,4,0,6.1,0c1.3,0,2.1-0.8,2.1-2C99.1,82.6,99.1,80.6,99.1,78.5z M93.9,82.6
			c-1,0.1-1-0.5-0.9-1.2c-0.3-1.1,0.5-0.8,1.1-0.9c1.1-0.2,0.9,0.5,1,1.2C95.2,82.8,94.5,82.6,93.9,82.6z M99.1,103.3
			c0-1.3-0.8-2.1-2-2.1c-2.1,0-4.1,0-6.2,0c-1.3,0-2,0.8-2.1,2.1c0,2,0,4,0,6.1c0,1.4,0.8,2.1,2.2,2.1c1,0,2,0,3,0s2,0,3,0
			c1.4,0,2.2-0.8,2.2-2.1C99.1,107.4,99.1,105.3,99.1,103.3z M93.9,107.4c-1,0.1-1-0.5-0.9-1.2c-0.3-1.1,0.5-0.8,1.1-0.9
			c1.1-0.2,0.9,0.5,1,1.2C95.2,107.5,94.5,107.3,93.9,107.4z M99.1,94v-3c0,0,0-0.1,0-0.1c-0.1-1.3-0.8-2.1-2.1-2.1c-2,0-4,0-6.1,0
			c-1.3,0-2.1,0.8-2.1,2c0,2.1,0,4.1,0,6.2c0,1.3,0.8,2.1,2.1,2.1c2,0,4,0,6.1,0c1.4,0,2.1-0.8,2.1-2.2C99.1,96,99.1,95,99.1,94z
			 M93.9,95c-0.9,0.1-1-0.3-1-1.1c0-0.9,0.2-1.2,1-0.9c1-0.3,1,0.3,1.1,1C95.1,94.9,94.7,95,93.9,95z M68.1,78.5c-2.7,0-5.3,0-8,0
			c-1.4,0-2.2,0.8-2.2,2.1c0,1.2,0.9,2,2.2,2c1.3,0,2.7,0,4,0c1.3,0,2.7,0,4,0c1.4,0,2.2-0.8,2.2-2.1C70.2,79.3,69.4,78.5,68.1,78.5
			z M68.1,78.5c-2.7,0-5.3,0-8,0c-1.4,0-2.2,0.8-2.2,2.1c0,1.2,0.9,2,2.2,2c1.3,0,2.7,0,4,0c1.3,0,2.7,0,4,0c1.4,0,2.2-0.8,2.2-2.1
			C70.2,79.3,69.4,78.5,68.1,78.5z M68.1,78.5c-2.7,0-5.3,0-8,0c-1.4,0-2.2,0.8-2.2,2.1c0,1.2,0.9,2,2.2,2c1.3,0,2.7,0,4,0
			c1.3,0,2.7,0,4,0c1.4,0,2.2-0.8,2.2-2.1C70.2,79.3,69.4,78.5,68.1,78.5z"/>
		<path d="M99.1,94v-3c0,0,0-0.1,0-0.1c-0.1-1.3-0.8-2.1-2.1-2.1c-2,0-4,0-6.1,0c-1.3,0-2.1,0.8-2.1,2c0,2.1,0,4.1,0,6.2
			c0,1.3,0.8,2.1,2.1,2.1c2,0,4,0,6.1,0c1.4,0,2.1-0.8,2.1-2.2C99.1,96,99.1,95,99.1,94z M93.9,95c-0.9,0.1-1-0.3-1-1.1
			c0-0.9,0.2-1.2,1-0.9c1-0.3,1,0.3,1.1,1C95.1,94.9,94.7,95,93.9,95z"/>
		<path d="M99.1,103.3c0-1.3-0.8-2.1-2-2.1c-2.1,0-4.1,0-6.2,0c-1.3,0-2,0.8-2.1,2.1c0,2,0,4,0,6.1c0,1.4,0.8,2.1,2.2,2.1
			c1,0,2,0,3,0s2,0,3,0c1.4,0,2.2-0.8,2.2-2.1C99.1,107.4,99.1,105.3,99.1,103.3z M93.9,107.4c-1,0.1-1-0.5-0.9-1.2
			c-0.3-1.1,0.5-0.8,1.1-0.9c1.1-0.2,0.9,0.5,1,1.2C95.2,107.5,94.5,107.3,93.9,107.4z"/>
		<path d="M99.1,78.5c0-1.3-0.8-2.1-2.1-2.1c-2,0-4,0-6.1,0c-1.4,0-2.1,0.8-2.1,2.2c0,1,0,2,0,3c0,1,0,2,0,3c0,1.4,0.8,2.2,2.1,2.2
			c2,0,4,0,6.1,0c1.3,0,2.1-0.8,2.1-2C99.1,82.6,99.1,80.6,99.1,78.5z M93.9,82.6c-1,0.1-1-0.5-0.9-1.2c-0.3-1.1,0.5-0.8,1.1-0.9
			c1.1-0.2,0.9,0.5,1,1.2C95.2,82.8,94.5,82.6,93.9,82.6z"/>
		<path d="M101.3,55.8c-3.5,0-6.3,2.6-6.3,6.1c0,3.5,2.7,6.3,6.1,6.3c3.5,0,6.3-2.6,6.3-6.1C107.4,58.6,104.7,55.8,101.3,55.8z
			 M101.2,64.1c-1,0-2-1-2-2.1c0-1,1-2,2.1-2c1,0,2,1,2,2.1C103.2,63.1,102.2,64.1,101.2,64.1z"/>
		<path d="M101.2,49.6c-6.9,0-12.4,5.5-12.4,12.4c0,6.9,5.5,12.4,12.4,12.4c6.8,0,12.3-5.5,12.3-12.3
			C113.6,55.1,108.1,49.6,101.2,49.6z M101.1,70.2c-4.4,0-8.2-3.8-8.2-8.3c0-4.5,3.9-8.3,8.3-8.2c4.5,0.1,8.2,3.8,8.2,8.3
			C109.4,66.5,105.6,70.3,101.1,70.2z"/>
		<path d="M113.6,94c0-0.9,0-1.9,0-2.8c0-1.6-0.7-2.3-2.3-2.3c-1.9,0-3.9,0-5.8,0c-1.5,0-2.2,0.7-2.3,2.2c0,2,0,4,0,5.9
			c0,1.4,0.8,2.2,2.1,2.2c2,0,4,0,6.1,0c1.4,0,2.1-0.8,2.1-2.2C113.6,95.9,113.6,95,113.6,94z M108.3,95c-1.1,0.1-0.9-0.5-1-1.2
			c-0.1-1,0.5-1,1.2-0.9c1.1-0.3,0.8,0.5,0.9,1.1C109.6,95.1,109,94.9,108.3,95z"/>
		<path d="M113.6,103.3c0-1.3-0.8-2.1-2.1-2.1c-2,0-4,0-6.1,0c-1.4,0-2.1,0.8-2.2,2.1c0,2,0,4,0,6.1c0,1.3,0.8,2.1,2.1,2.1
			c1,0,2.1,0,3.1,0c1,0,2,0,3,0c1.4,0,2.2-0.8,2.2-2.1C113.6,107.3,113.6,105.3,113.6,103.3z M108.3,107.4c-1.1,0.2-0.8-0.5-0.9-1.2
			c-0.1-1.1,0.5-1,1.2-0.9c1.1-0.3,0.8,0.5,0.9,1.1C109.6,107.5,108.9,107.3,108.3,107.4z"/>
		<path d="M113.6,78.6c0-1.3-0.8-2.1-2-2.1c-2.1,0-4.1,0-6.2,0c-1.3,0-2.1,0.8-2.1,2.1c0,2,0,4,0,6.1c0,1.4,0.8,2.1,2.2,2.1
			c1,0,2,0,3,0c1,0,2.1,0,3.1,0c1.3,0,2.1-0.8,2.1-2.1C113.6,82.6,113.6,80.6,113.6,78.6z M108.3,82.6c-1.1,0.1-1-0.5-0.9-1.2
			c-0.3-1.1,0.5-0.8,1.1-0.9c1.1-0.2,0.8,0.5,0.9,1.2C109.6,82.8,108.9,82.6,108.3,82.6z"/>
		<path d="M70.2,80.5c0,1.3-0.8,2.1-2.2,2.1c-1.3,0-2.7,0-4,0c-1.3,0-2.7,0-4,0c-1.3,0-2.2-0.8-2.2-2c0-1.3,0.8-2.1,2.2-2.1
			c2.7,0,5.3,0,8,0C69.4,78.5,70.2,79.3,70.2,80.5z"/>
		<path d="M119.8,80.4c0-0.3,0-0.6,0-0.9c0-3.1,0-3.1,3.1-3.1c0.8,0,1.1,0.2,1.1,1c-0.1,2.1,0,4.3,0,6.4c0,0.6-0.1,0.8-0.8,0.8
			c-3.4,0.1-3.4,0.2-3.4-3.2C119.8,81.1,119.8,80.8,119.8,80.4z"/>
		<path d="M101.3,55.8c-3.5,0-6.3,2.6-6.3,6.1c0,3.5,2.7,6.3,6.1,6.3c3.5,0,6.3-2.6,6.3-6.1C107.4,58.6,104.7,55.8,101.3,55.8z
			 M101.2,64.1c-1,0-2-1-2-2.1c0-1,1-2,2.1-2c1,0,2,1,2,2.1C103.2,63.1,102.2,64.1,101.2,64.1z"/>
		<path d="M101.2,49.6c-6.9,0-12.4,5.5-12.4,12.4c0,6.9,5.5,12.4,12.4,12.4c6.8,0,12.3-5.5,12.3-12.3
			C113.6,55.1,108.1,49.6,101.2,49.6z M101.1,70.2c-4.4,0-8.2-3.8-8.2-8.3c0-4.5,3.9-8.3,8.3-8.2c4.5,0.1,8.2,3.8,8.2,8.3
			C109.4,66.5,105.6,70.3,101.1,70.2z"/>
		<path d="M99.1,78.5c0-1.3-0.8-2.1-2.1-2.1c-2,0-4,0-6.1,0c-1.4,0-2.1,0.8-2.1,2.2c0,1,0,2,0,3c0,1,0,2,0,3c0,1.4,0.8,2.2,2.1,2.2
			c2,0,4,0,6.1,0c1.3,0,2.1-0.8,2.1-2C99.1,82.6,99.1,80.6,99.1,78.5z M93.9,82.6c-1,0.1-1-0.5-0.9-1.2c-0.3-1.1,0.5-0.8,1.1-0.9
			c1.1-0.2,0.9,0.5,1,1.2C95.2,82.8,94.5,82.6,93.9,82.6z"/>
		<path d="M113.6,78.6c0-1.3-0.8-2.1-2-2.1c-2.1,0-4.1,0-6.2,0c-1.3,0-2.1,0.8-2.1,2.1c0,2,0,4,0,6.1c0,1.4,0.8,2.1,2.2,2.1
			c1,0,2,0,3,0c1,0,2.1,0,3.1,0c1.3,0,2.1-0.8,2.1-2.1C113.6,82.6,113.6,80.6,113.6,78.6z M108.3,82.6c-1.1,0.1-1-0.5-0.9-1.2
			c-0.3-1.1,0.5-0.8,1.1-0.9c1.1-0.2,0.8,0.5,0.9,1.2C109.6,82.8,108.9,82.6,108.3,82.6z"/>
		<path d="M99.1,94v-3c0,0,0-0.1,0-0.1c-0.1-1.3-0.8-2.1-2.1-2.1c-2,0-4,0-6.1,0c-1.3,0-2.1,0.8-2.1,2c0,2.1,0,4.1,0,6.2
			c0,1.3,0.8,2.1,2.1,2.1c2,0,4,0,6.1,0c1.4,0,2.1-0.8,2.1-2.2C99.1,96,99.1,95,99.1,94z M93.9,95c-0.9,0.1-1-0.3-1-1.1
			c0-0.9,0.2-1.2,1-0.9c1-0.3,1,0.3,1.1,1C95.1,94.9,94.7,95,93.9,95z"/>
		<path d="M113.6,94c0-0.9,0-1.9,0-2.8c0-1.6-0.7-2.3-2.3-2.3c-1.9,0-3.9,0-5.8,0c-1.5,0-2.2,0.7-2.3,2.2c0,2,0,4,0,5.9
			c0,1.4,0.8,2.2,2.1,2.2c2,0,4,0,6.1,0c1.4,0,2.1-0.8,2.1-2.2C113.6,95.9,113.6,95,113.6,94z M108.3,95c-1.1,0.1-0.9-0.5-1-1.2
			c-0.1-1,0.5-1,1.2-0.9c1.1-0.3,0.8,0.5,0.9,1.1C109.6,95.1,109,94.9,108.3,95z"/>
		<path d="M99.1,103.3c0-1.3-0.8-2.1-2-2.1c-2.1,0-4.1,0-6.2,0c-1.3,0-2,0.8-2.1,2.1c0,2,0,4,0,6.1c0,1.4,0.8,2.1,2.2,2.1
			c1,0,2,0,3,0s2,0,3,0c1.4,0,2.2-0.8,2.2-2.1C99.1,107.4,99.1,105.3,99.1,103.3z M93.9,107.4c-1,0.1-1-0.5-0.9-1.2
			c-0.3-1.1,0.5-0.8,1.1-0.9c1.1-0.2,0.9,0.5,1,1.2C95.2,107.5,94.5,107.3,93.9,107.4z"/>
		<path d="M113.6,103.3c0-1.3-0.8-2.1-2.1-2.1c-2,0-4,0-6.1,0c-1.4,0-2.1,0.8-2.2,2.1c0,2,0,4,0,6.1c0,1.3,0.8,2.1,2.1,2.1
			c1,0,2.1,0,3.1,0c1,0,2,0,3,0c1.4,0,2.2-0.8,2.2-2.1C113.6,107.3,113.6,105.3,113.6,103.3z M108.3,107.4c-1.1,0.2-0.8-0.5-0.9-1.2
			c-0.1-1.1,0.5-1,1.2-0.9c1.1-0.3,0.8,0.5,0.9,1.1C109.6,107.5,108.9,107.3,108.3,107.4z"/>
		<path d="M70.2,80.5c0,1.3-0.8,2.1-2.2,2.1c-1.3,0-2.7,0-4,0c-1.3,0-2.7,0-4,0c-1.3,0-2.2-0.8-2.2-2c0-1.3,0.8-2.1,2.2-2.1
			c2.7,0,5.3,0,8,0C69.4,78.5,70.2,79.3,70.2,80.5z"/>
		<path d="M101.3,55.8c-3.5,0-6.3,2.6-6.3,6.1c0,3.5,2.7,6.3,6.1,6.3c3.5,0,6.3-2.6,6.3-6.1C107.4,58.6,104.7,55.8,101.3,55.8z
			 M101.2,64.1c-1,0-2-1-2-2.1c0-1,1-2,2.1-2c1,0,2,1,2,2.1C103.2,63.1,102.2,64.1,101.2,64.1z"/>
		<path d="M101.3,55.8c-3.5,0-6.3,2.6-6.3,6.1c0,3.5,2.7,6.3,6.1,6.3c3.5,0,6.3-2.6,6.3-6.1C107.4,58.6,104.7,55.8,101.3,55.8z
			 M101.2,64.1c-1,0-2-1-2-2.1c0-1,1-2,2.1-2c1,0,2,1,2,2.1C103.2,63.1,102.2,64.1,101.2,64.1z"/>
	</g>
</g>
</svg>
