<?xml version="1.0" encoding="utf-8"?>
<!-- Generator: Adobe Illustrator 28.0.0, SVG Export Plug-In . SVG Version: 6.00 Build 0)  -->
<svg version="1.1" id="Layer_1" xmlns="http://www.w3.org/2000/svg" xmlns:xlink="http://www.w3.org/1999/xlink" x="0px" y="0px"
	 viewBox="0 0 128 128" style="enable-background:new 0 0 128 128;" xml:space="preserve">
<g>
	<path d="M53.8,91.6c0,0.1,0,0.1,0,0.2c-0.6,3.6-0.6,3.6-4.2,2.7c-1.7-0.4-3.3-0.9-5-1.3c-0.7-0.1-0.8-0.4-0.7-1c0,0,0-0.1,0-0.1
		c0.8-3.5,0.8-3.5,4.3-2.5c1.6,0.4,3.3,0.8,4.9,1.2C53.6,90.9,54,91,53.8,91.6z"/>
	<path d="M57.8,86.5c-0.3,0.4-0.6,0.7-0.9,1.1C55,89.9,55,89.9,52.6,88c-1.4-1.1-2.7-2.3-4.1-3.4c-0.6-0.4-0.6-0.8-0.1-1.3
		c0.8-0.8,1.4-2.3,2.3-2.5c0.9-0.2,1.8,1.2,2.7,1.9c1.3,1,2.5,2.1,3.8,3.2C57.3,86.1,57.5,86.3,57.8,86.5z"/>
	<path d="M77.8,86.1c-1.2,1.2-2.6,2.1-3.9,3.3c-0.6,0.5-0.9,0.6-1.5-0.1c-2.2-2.7-2.3-2.7,0.4-4.9c1.3-1,2.5-2.1,3.8-3.2
		c0.2-0.2,0.4-0.3,0.7-0.6c0.2,0.1,0.3,0.2,0.4,0.4c0.8,0.9,1.9,1.7,2.2,2.8C80.2,85,78.5,85.4,77.8,86.1z"/>
	<path d="M83.5,93c-2.6,0.7-5.2,1.3-7.8,2c-0.5,0.1-0.7-0.1-0.8-0.5c0-0.1-0.1-0.3-0.1-0.4c-0.2-1.1-1.1-2.4-0.6-3.2
		c0.4-0.7,2-0.7,3-1c1.7-0.4,3.4-0.8,5.1-1.3c0.4-0.1,0.7-0.3,0.8,0.3c0.3,1.2,0.6,2.3,0.9,3.4C84.2,93,83.8,93,83.5,93z"/>
	<path d="M127.8,124.4c-5.7-17.8-11.4-35.6-17.1-53.4c-0.7-2.2-1.2-2.6-3.6-2.6c-10.3,0-20.6,0-30.9,0c-0.9,0-1.3-0.1-1.2-1.2
		c0.1-2.2,0.1-4.4,0-6.6c0-1,0.3-1.1,1.2-1.1c1.8,0.1,3.7,0,5.5,0c1.5,0,2.2-0.7,2.2-2.2c0-18.4,0-36.8,0-55.2
		c0-1.6-0.7-2.2-2.3-2.2C69.9,0,58.1,0,46.4,0c-1.6,0-2.3,0.7-2.3,2.2c0,18.4,0,36.8,0,55.2c0,1.5,0.7,2.2,2.2,2.2
		c1.8,0,3.7,0,5.5,0c0.9,0,1.2,0.2,1.2,1.1c-0.1,2.1-0.1,4.2,0,6.3c0.1,1.1-0.2,1.4-1.4,1.4c-10.4-0.1-20.8,0-31.2,0
		c-1.8,0-2.5,0.5-3,2.2C11.7,88.5,6,106.4,0.2,124.4c-0.8,2.5,0,3.6,2.7,3.6h122.2C127.7,128,128.6,126.9,127.8,124.4z M49.8,55.2
		c-1,0-1.3-0.2-1.3-1.3c0-16.1,0-32.2,0-48.3c0-1,0.2-1.3,1.3-1.3c9.5,0,18.9,0,28.4,0c1,0,1.3,0.2,1.3,1.3c-0.1,8,0,16.1,0,24.1
		c0,8,0,16.1,0,24.1c0,1-0.2,1.3-1.3,1.3C68.7,55.2,59.3,55.2,49.8,55.2z M57.4,60.6c0-0.8,0.2-1.1,1.1-1.1c3.7,0.1,7.4,0.1,11.2,0
		c0.8,0,1.1,0.2,1.1,1.1c-0.1,2,0,3.9,0,5.9c0,0.9-0.1,1.9,0,2.8c0.4,2.8-0.5,5-2.7,6.9c-1.3,1.1-2.3,2.5-3.5,3.7
		c-0.4,0.5-0.7,0.5-1.1,0c-1.9-2.1-3.8-4.2-5.8-6.3c-0.4-0.4-0.3-0.8-0.3-1.3C57.4,68.4,57.4,64.5,57.4,60.6z M5.4,123.5
		c0.8-2.6,1.6-5.1,2.4-7.7C12.2,101.9,16.6,88,21,74.1c0.3-1,0.7-1.3,1.8-1.3c9.6,0.1,19.2,0,28.8,0c1,0,1.6,0.1,1.4,1.3
		c-0.1,0.9,0.4,1.5,1,2c2.4,2.7,4.8,5.3,7.2,8c0.5,0.5,0.6,1,0.6,1.7c0,3.4-0.1,6.8,0,10.2c0,0.9-0.3,1.1-1.1,1.1
		c-9.7,0-19.3,0-29,0c-2,0-2.4,0.3-3.1,2.2c-1.4,4.1-2.7,8.1-4.1,12.2c-0.7,2.1,0,3.2,2.2,3.2c25.4,0,50.8,0,76.3,0
		c2.5,0,3.3-1.2,2.5-3.5c-3.5-9.7-6.9-19.4-10.4-29c-0.3-1-0.6-1.2-1.7-0.9c-2.8,1-2.8,0.9-1.8,3.7c2.9,8.1,5.7,16.2,8.6,24.3
		c0.1,0.3,0.3,0.6,0.2,1H29.6c0.9-2.8,1.8-5.6,2.7-8.4c0.2-0.6,0.8-0.4,1.2-0.4c4.5,0,9.1,0,13.7,0c10.3,0,20.7,0,31,0
		c1,0,1.3-0.3,1.3-1.3c-0.1-3.2,0-3.2-3.2-3.2c-3,0-6.1,0-9.1,0c-0.8,0-1-0.2-1-1c0-3.5,0-7,0-10.5c0-0.7,0.2-1.1,0.7-1.6
		c2.4-2.6,4.7-5.2,7.1-7.9c0.6-0.6,1.2-1.2,1.1-2.1c-0.2-1.1,0.3-1.3,1.3-1.3c9.7,0,19.4,0,29.1,0c0.9,0,1.3,0.2,1.5,1.1
		c5.2,16.3,10.3,32.6,15.5,49c0.1,0.2,0.1,0.4,0.1,0.6H5.4z"/>
	<path d="M53.8,91.6c0,0.1,0,0.1,0,0.2c-0.6,3.6-0.6,3.6-4.2,2.7c-1.7-0.4-3.3-0.9-5-1.3c-0.7-0.1-0.8-0.4-0.7-1c0,0,0-0.1,0-0.1
		c0.8-3.5,0.8-3.5,4.3-2.5c1.6,0.4,3.3,0.8,4.9,1.2C53.6,90.9,54,91,53.8,91.6z"/>
	<path d="M57.8,86.5c-0.3,0.4-0.6,0.7-0.9,1.1C55,89.9,55,89.9,52.6,88c-1.4-1.1-2.7-2.3-4.1-3.4c-0.6-0.4-0.6-0.8-0.1-1.3
		c0.8-0.8,1.4-2.3,2.3-2.5c0.9-0.2,1.8,1.2,2.7,1.9c1.3,1,2.5,2.1,3.8,3.2C57.3,86.1,57.5,86.3,57.8,86.5z"/>
	<path d="M77.8,86.1c-1.2,1.2-2.6,2.1-3.9,3.3c-0.6,0.5-0.9,0.6-1.5-0.1c-2.2-2.7-2.3-2.7,0.4-4.9c1.3-1,2.5-2.1,3.8-3.2
		c0.2-0.2,0.4-0.3,0.7-0.6c0.2,0.1,0.3,0.2,0.4,0.4c0.8,0.9,1.9,1.7,2.2,2.8C80.2,85,78.5,85.4,77.8,86.1z"/>
	<path d="M83.5,93c-2.6,0.7-5.2,1.3-7.8,2c-0.5,0.1-0.7-0.1-0.8-0.5c0-0.1-0.1-0.3-0.1-0.4c-0.2-1.1-1.1-2.4-0.6-3.2
		c0.4-0.7,2-0.7,3-1c1.7-0.4,3.4-0.8,5.1-1.3c0.4-0.1,0.7-0.3,0.8,0.3c0.3,1.2,0.6,2.3,0.9,3.4C84.2,93,83.8,93,83.5,93z"/>
	<path d="M53.8,91.6c0,0.1,0,0.1,0,0.2c-0.6,3.6-0.6,3.6-4.2,2.7c-1.7-0.4-3.3-0.9-5-1.3c-0.7-0.1-0.8-0.4-0.7-1c0,0,0-0.1,0-0.1
		c0.8-3.5,0.8-3.5,4.3-2.5c1.6,0.4,3.3,0.8,4.9,1.2C53.6,90.9,54,91,53.8,91.6z"/>
	<path d="M83.5,93c-2.6,0.7-5.2,1.3-7.8,2c-0.5,0.1-0.7-0.1-0.8-0.5c0-0.1-0.1-0.3-0.1-0.4c-0.2-1.1-1.1-2.4-0.6-3.2
		c0.4-0.7,2-0.7,3-1c1.7-0.4,3.4-0.8,5.1-1.3c0.4-0.1,0.7-0.3,0.8,0.3c0.3,1.2,0.6,2.3,0.9,3.4C84.2,93,83.8,93,83.5,93z"/>
	<path d="M77.8,86.1c-1.2,1.2-2.6,2.1-3.9,3.3c-0.6,0.5-0.9,0.6-1.5-0.1c-2.2-2.7-2.3-2.7,0.4-4.9c1.3-1,2.5-2.1,3.8-3.2
		c0.2-0.2,0.4-0.3,0.7-0.6c0.2,0.1,0.3,0.2,0.4,0.4c0.8,0.9,1.9,1.7,2.2,2.8C80.2,85,78.5,85.4,77.8,86.1z"/>
	<path d="M57.8,86.5c-0.3,0.4-0.6,0.7-0.9,1.1C55,89.9,55,89.9,52.6,88c-1.4-1.1-2.7-2.3-4.1-3.4c-0.6-0.4-0.6-0.8-0.1-1.3
		c0.8-0.8,1.4-2.3,2.3-2.5c0.9-0.2,1.8,1.2,2.7,1.9c1.3,1,2.5,2.1,3.8,3.2C57.3,86.1,57.5,86.3,57.8,86.5z"/>
</g>
</svg>
