<?xml version="1.0" encoding="utf-8"?>
<!-- Generator: Adobe Illustrator 28.0.0, SVG Export Plug-In . SVG Version: 6.00 Build 0)  -->
<svg version="1.1" id="Layer_1" xmlns="http://www.w3.org/2000/svg" xmlns:xlink="http://www.w3.org/1999/xlink" x="0px" y="0px"
	 viewBox="0 0 128 128" style="enable-background:new 0 0 128 128;" xml:space="preserve">
<g id="F5crYN.tif">
	<g>
		<path d="M104.2,21.5c-0.3-1-0.2-2.1-0.7-3.1c-2.1-4.3-5.7-6.1-10.3-6.2c-1.9,0-3.8,0-5.7,0c-0.8,0-1.2-0.3-1.2-1.2
			c0-1.1,0-2.2,0-3.4c-0.1-4-2.4-6.9-6.3-7.6H48.1c-0.9,0.2-1.9,0.3-2.7,0.9c-2.4,1.5-3.5,3.7-3.6,6.5c-0.1,1,0,2,0,3
			c0,1.7-0.1,1.8-1.7,1.8c-1.8,0-3.6,0-5.4,0c-5.9,0.1-10.9,4.2-10.9,11.2c0.1,31.1,0.1,62.2,0.1,93.2c0,0.9,0,1.9,0.1,2.9
			c0.4,4.7,4.4,8.6,9.2,8.6c20.7,0,41.3,0,62,0c1.2,0,2.3-0.1,3.4-0.6c3.5-1.7,5.5-4.3,5.8-8.2v-0.5c-0.2-0.4-0.1-0.9-0.1-1.4V74.7
			c0,0,0-0.1,0-0.1c-0.1-1.3-0.8-2-2.1-2.2c-1.3-0.2-2.4,0.5-3,1.8c-0.4,0.9-0.4,1.9-0.4,2.9c0,13.4,0,26.9,0,40.3
			c0,3.1-1.7,4.9-4.8,5c-0.3,0-0.7,0-1,0H35.4c-1,0-1.9,0-2.8-0.3c-1.8-0.6-2.8-1.9-3-3.8c-0.1-0.5,0-1,0-1.5V23.7
			c0-0.5,0-1.1,0-1.6c0.2-2.2,1.7-3.7,4-3.9c0.6-0.1,1.2,0,1.9,0h49.7c3,0,6,0,9,0c2.7,0.1,4.3,1.7,4.4,4.4c0,0.5,0,1,0,1.5
			c0,8.9,0,17.7,0,26.6c0,1.1,0,2.2,0.5,3.3c0.6,1.1,1.8,1.8,3,1.5c1.2-0.2,1.8-0.9,2-2.2c0,0,0-0.1,0-0.1V23.6
			c0-0.4-0.1-0.9,0.1-1.4V21.5z M80,12.6c-5.3,0-10.7,0-16,0c-5.2,0-10.5,0-15.7,0c-0.9,0-1.2-0.2-1.2-1.2c0.1-1.2,0-2.4,0-3.6
			C47.2,6,48.2,5,50,5c9.4,0,18.8,0,28.2,0C80,5,80.9,6,81,7.8c0,1.2,0,2.5,0,3.7C81.1,12.4,80.8,12.6,80,12.6z"/>
		<path d="M104,74.6c0.1,0,0.2,0,0.2,0.1c0,14.7,0,29.3,0,44c-0.4-0.2-0.2-0.6-0.2-0.9c0-14.3,0-28.6,0-42.9
			C104,74.8,104,74.7,104,74.6z"/>
		<path d="M104.2,53.2L104.2,53.2l-0.2,0.1c0-10.1,0-20.2,0-30.2c0-0.3-0.1-0.6,0.2-0.8C104.2,32.6,104.2,42.9,104.2,53.2z"/>
		<path d="M104.1,63.4c0.1,0,0.1,0,0.2,0.1c0,0.4,0,0.8,0,1.2l-0.1,0l-0.1,0C103.6,64.3,103.6,63.8,104.1,63.4z"/>
		<path d="M80.2,58.3c-0.5-1.2-1.6-1.5-2.9-1.5c-2,0-4.1,0-6.3,0c2.3-4.1,4.5-8,6.7-11.9c1.1-2,0-3.9-2.3-3.9c-4.2,0-8.4,0-12.6,0
			c-1.1,0-1.9,0.5-2.4,1.4c-4.1,7.7-8.1,15.4-12.2,23c-1,1.9,0.2,3.8,2.4,3.8c2,0,4.1,0,6.1,0c1.6,0,1.6,0,1.4,1.6
			c-0.3,2.7-0.6,5.4-0.9,8.2c-0.1,1.3,0.2,2.4,1.5,3c1.2,0.5,2.1,0.2,3.3-1.1c5.8-6.4,11.6-12.9,17.5-19.3
			C80.2,60.6,80.7,59.6,80.2,58.3z M63.4,71.7c-0.3-0.1-0.2-0.4-0.3-0.5c0.1-1.3,0.2-2.6,0.4-3.9c0.2-1.9-0.8-3.1-2.7-3.1
			c-2,0-4,0-6,0c-0.1-0.5,0.2-0.7,0.4-1c2.9-5.4,5.7-10.8,8.6-16.3c0.4-0.7,0.8-1,1.6-0.9c1.9,0.1,3.9,0,6,0
			c-0.6,1.2-1.2,2.2-1.8,3.3c-1.6,2.9-3.2,5.7-4.8,8.6c-1.2,2.2-0.1,4.1,2.4,4.1c1.6,0,3.2,0,5,0C69.1,65.3,66.2,68.5,63.4,71.7z"/>
		<path d="M93.2,27c0-2.5-0.9-3.4-3.3-3.4H38.3c-2.4,0-3.3,0.9-3.3,3.3v86.8c0,2.4,0.9,3.3,3.2,3.3h51.6c2.7,0,3.4-0.8,3.4-3.5
			c0-14.4,0-28.8,0-43.2C93.2,55.8,93.2,41.4,93.2,27z M88.2,110.9c0,0.8-0.2,1-1,1c-7.7,0-15.4,0-23.1,0c-7.6,0-15.2,0-22.8,0
			c-1,0-1.2-0.2-1.2-1.2c0.1-4.1,0-8.1,0-12.2c0-0.8,0.2-1.1,1-1.1c15.3,0,30.7,0,46,0c0.9,0,1.1,0.3,1.1,1.1
			C88.1,102.6,88.1,106.8,88.2,110.9z M88.1,91.3c0,0.9-0.1,1.2-1.1,1.2c-15.3,0-30.6,0-45.9,0c-1,0-1.1-0.3-1.1-1.2
			c0-10.2,0-20.5,0-30.7c0-10.2,0-20.4,0-30.6c0-1,0.1-1.3,1.2-1.3c15.2,0,30.4,0,45.6,0c0.9,0,1.2,0.2,1.2,1.2
			C88.1,50.3,88.1,70.8,88.1,91.3z"/>
		<path d="M104.1,63.4c0,0.4,0,0.9,0,1.3c-0.6,1.5-1.7,2-3,1.7c-1.1-0.3-1.9-1.4-1.9-2.5c0-1.2,0.9-2.2,2.1-2.4
			C102.5,61.3,103.5,62,104.1,63.4z"/>
		<path d="M80.2,58.3c-0.5-1.2-1.6-1.5-2.9-1.5c-2,0-4.1,0-6.3,0c2.3-4.1,4.5-8,6.7-11.9c1.1-2,0-3.9-2.3-3.9c-4.2,0-8.4,0-12.6,0
			c-1.1,0-1.9,0.5-2.4,1.4c-4.1,7.7-8.1,15.4-12.2,23c-1,1.9,0.2,3.8,2.4,3.8c2,0,4.1,0,6.1,0c1.6,0,1.6,0,1.4,1.6
			c-0.3,2.7-0.6,5.4-0.9,8.2c-0.1,1.3,0.2,2.4,1.5,3c1.2,0.5,2.1,0.2,3.3-1.1c5.8-6.4,11.6-12.9,17.5-19.3
			C80.2,60.6,80.7,59.6,80.2,58.3z M63.4,71.7c-0.3-0.1-0.2-0.4-0.3-0.5c0.1-1.3,0.2-2.6,0.4-3.9c0.2-1.9-0.8-3.1-2.7-3.1
			c-2,0-4,0-6,0c-0.1-0.5,0.2-0.7,0.4-1c2.9-5.4,5.7-10.8,8.6-16.3c0.4-0.7,0.8-1,1.6-0.9c1.9,0.1,3.9,0,6,0
			c-0.6,1.2-1.2,2.2-1.8,3.3c-1.6,2.9-3.2,5.7-4.8,8.6c-1.2,2.2-0.1,4.1,2.4,4.1c1.6,0,3.2,0,5,0C69.1,65.3,66.2,68.5,63.4,71.7z"/>
		<path d="M80.2,58.3c-0.5-1.2-1.6-1.5-2.9-1.5c-2,0-4.1,0-6.3,0c2.3-4.1,4.5-8,6.7-11.9c1.1-2,0-3.9-2.3-3.9c-4.2,0-8.4,0-12.6,0
			c-1.1,0-1.9,0.5-2.4,1.4c-4.1,7.7-8.1,15.4-12.2,23c-1,1.9,0.2,3.8,2.4,3.8c2,0,4.1,0,6.1,0c1.6,0,1.6,0,1.4,1.6
			c-0.3,2.7-0.6,5.4-0.9,8.2c-0.1,1.3,0.2,2.4,1.5,3c1.2,0.5,2.1,0.2,3.3-1.1c5.8-6.4,11.6-12.9,17.5-19.3
			C80.2,60.6,80.7,59.6,80.2,58.3z M63.4,71.7c-0.3-0.1-0.2-0.4-0.3-0.5c0.1-1.3,0.2-2.6,0.4-3.9c0.2-1.9-0.8-3.1-2.7-3.1
			c-2,0-4,0-6,0c-0.1-0.5,0.2-0.7,0.4-1c2.9-5.4,5.7-10.8,8.6-16.3c0.4-0.7,0.8-1,1.6-0.9c1.9,0.1,3.9,0,6,0
			c-0.6,1.2-1.2,2.2-1.8,3.3c-1.6,2.9-3.2,5.7-4.8,8.6c-1.2,2.2-0.1,4.1,2.4,4.1c1.6,0,3.2,0,5,0C69.1,65.3,66.2,68.5,63.4,71.7z"/>
		<path d="M63.4,71.7c-0.5,0-0.4-0.2-0.3-0.5C63.2,71.3,63,71.6,63.4,71.7z"/>
		<path d="M63.4,71.7c0,0.2-0.3,0.4-0.4,0.3c-0.2-0.3-0.1-0.6,0.1-0.9C63.2,71.3,63,71.6,63.4,71.7z"/>
	</g>
</g>
</svg>
