<?xml version="1.0" encoding="utf-8"?>
<!-- Generator: Adobe Illustrator 28.0.0, SVG Export Plug-In . SVG Version: 6.00 Build 0)  -->
<svg version="1.1" id="Layer_1" xmlns="http://www.w3.org/2000/svg" xmlns:xlink="http://www.w3.org/1999/xlink" x="0px" y="0px"
	 viewBox="0 0 128 128" style="enable-background:new 0 0 128 128;" xml:space="preserve">
<g>
	<g>
		<path d="M56.9,85.7h27.6c2.1,0,3.7-2,3.2-4.1l-6.3-26.5c-0.4-1.5-1.7-2.5-3.2-2.5H63.8c-1.5,0-2.8,1-3.2,2.5l-6.9,26.5
			C53.1,83.6,54.7,85.7,56.9,85.7z"/>
		<path d="M22.4,105.8c-5.4,5.1-8.1,12.6-8.1,22.2h8.1c0-7.3,1.9-12.8,5.5-16.3c4.1-4,13.7-4.4,16.3-4.5h14.6v6.6
			c0,0-14.9,1-20.8,14.2h32.6h32.6c-5.9-13.2-20.8-14.2-20.8-14.2v-6.6h10.2v-8.1H82.4v-3.9c0-1.8-1.5-3.3-3.3-3.3h-8.5h-8.5
			c-1.8,0-3.3,1.5-3.3,3.3v3.9H39.7C38.5,99.1,29.4,99.1,22.4,105.8z M44.9,107.2l-0.4,0C44.7,107.2,44.8,107.2,44.9,107.2z"/>
		<path d="M103.1,113l8.1-2.3c1.4-0.4,2.4-1.7,2.4-3.2v-8.9c0-1.5-1-2.8-2.4-3.2l-8.1-2.3c-2.1-0.6-4.2,1-4.2,3.2v13.4
			C98.9,112,101,113.6,103.1,113z"/>
		<path d="M54.6,38.7c1.1,4.4,5,7.5,9.5,7.5h12.6c4.1,0,7.8-2.7,9.2-6.6c1.9-5.3,2.6-13.6-3.8-23.8C75.4,4.8,64.5,1.2,56.7,0
			c-1.2-0.2-1.8,1.6-0.7,2.1c9.5,5,12.7,15.7,13.7,20.1c1,4.4-5.3,5.7-5.3,0c0-3.1-2.2-5.7-4.6-7.6c-0.9-0.7-2.1,0.3-1.7,1.4
			c1,2.4,1,5.7-1.7,10C53.6,30.5,53.7,35.1,54.6,38.7z"/>
	</g>
</g>
</svg>
