<?xml version="1.0" encoding="utf-8"?>
<!-- Generator: Adobe Illustrator 28.0.0, SVG Export Plug-In . SVG Version: 6.00 Build 0)  -->
<svg version="1.1" id="Layer_1" xmlns="http://www.w3.org/2000/svg" xmlns:xlink="http://www.w3.org/1999/xlink" x="0px" y="0px"
	 viewBox="0 0 128 128" style="enable-background:new 0 0 128 128;" xml:space="preserve">
<g id="QId3o3.tif">
	<g>
		<path d="M10.7,19.2c-1.1,0-2.2-0.9-2.2-2.1c-0.1-2.2-0.1-4.3,0-6.5c0-1.2,1-2.1,2.1-2.1c1.2,0,2,0.9,2.1,2.1c0,0.1,0,0.2,0,0.2
			v2.9h0c0,1.1,0,2.2,0,3.4C12.7,18.3,11.8,19.2,10.7,19.2z"/>
		<path d="M17.1,17.3c-0.1-2.3-0.1-4.6,0-6.8c0.1-1.2,1.1-2,2.2-1.9c1.1,0.1,1.9,0.8,2,2c0.1,1.1,0,2.2,0,3.4c0,1.1,0.1,2.2,0,3.4
			c-0.1,1.2-0.9,1.9-2,2C18.2,19.3,17.1,18.5,17.1,17.3z"/>
		<path d="M25.5,13.8c0-1,0-1.9,0-2.9c0.1-1.5,0.9-2.4,2.1-2.5c1.2,0,2.2,0.9,2.2,2.3c0.1,2,0.1,4.1,0,6.1c-0.1,1.4-1,2.3-2.2,2.3
			c-1.2,0-2.1-1-2.2-2.4C25.5,15.8,25.5,14.8,25.5,13.8z"/>
		<path d="M34.1,16.9c-0.1-2-0.1-4.1,0-6.1c0.1-1.4,1-2.3,2.2-2.3c1.2,0,2.1,1,2.2,2.4c0.1,1,0,2,0,3c0,1,0,1.9,0,2.9
			c-0.1,1.5-0.9,2.4-2.1,2.5C35.2,19.3,34.1,18.3,34.1,16.9z"/>
		<path d="M42.7,17.1c-0.1-2.2-0.1-4.3,0-6.5c0.1-1.3,1-2.1,2.1-2.1c1.2,0,2.1,1,2.1,2.3c0,1,0,2.1,0,3.1c0,1,0,2,0,3
			c-0.1,1.3-1,2.3-2.1,2.3C43.7,19.2,42.7,18.4,42.7,17.1z"/>
		<path d="M51.2,17c-0.1-2.1-0.1-4.1,0-6.2c0-1.4,1-2.3,2.1-2.2c1.2,0,2.1,1,2.1,2.3c0,1,0,2.1,0,3.1c0,1,0,2,0,3
			c0,1.3-0.9,2.3-2.1,2.3S51.2,18.3,51.2,17z"/>
		<path d="M59.7,17.1c0-2.2,0-4.3,0-6.5c0-1.2,1-2.1,2.2-2.1c1.1,0,2,0.9,2.1,2.1c0,1.1,0,2.2,0,3.2c0,1.1,0,2.2,0,3.2
			c0,1.2-1,2.2-2.1,2.2C60.7,19.2,59.8,18.3,59.7,17.1z"/>
		<path d="M68.2,13.8c0-1,0-2,0-3c0-1.3,1-2.3,2.2-2.3c1.1,0,2.1,0.9,2.1,2.2c0,2.1,0,4.2,0,6.3c0,1.3-0.9,2.2-2.1,2.2
			c-1.2,0-2.1-0.9-2.2-2.2C68.2,15.9,68.2,14.8,68.2,13.8z"/>
		<path d="M18.2,33c-0.6-1-1.6-1.3-2.7-0.9c-3.6,1.4-6.9,6.2-7,10c0,1.5,0.6,2.4,1.8,2.5c1.4,0.2,2.2-0.5,2.5-2
			c0-0.2,0.1-0.5,0.2-0.7c0.2-1.9,1.1-3.3,2.5-4.5c0.7-0.6,1.5-1.1,2.2-1.7C18.6,35.1,18.8,34,18.2,33z M18.2,33
			c-0.6-1-1.6-1.3-2.7-0.9c-3.6,1.4-6.9,6.2-7,10c0,1.5,0.6,2.4,1.8,2.5c1.4,0.2,2.2-0.5,2.5-2c0-0.2,0.1-0.5,0.2-0.7
			c0.2-1.9,1.1-3.3,2.5-4.5c0.7-0.6,1.5-1.1,2.2-1.7C18.6,35.1,18.8,34,18.2,33z M18.2,33c-0.6-1-1.6-1.3-2.7-0.9
			c-3.6,1.4-6.9,6.2-7,10c0,1.5,0.6,2.4,1.8,2.5c1.4,0.2,2.2-0.5,2.5-2c0-0.2,0.1-0.5,0.2-0.7c0.2-1.9,1.1-3.3,2.5-4.5
			c0.7-0.6,1.5-1.1,2.2-1.7C18.6,35.1,18.8,34,18.2,33z M35.8,89.7c-0.7,0.1-1.1,0.7-1.5,1.2c-3,3.5-7.4,3.9-10.9,0.8
			c-3.2-2.8-3.9-6.6-4.1-9.5c0-4,0.6-6.9,2.2-9.5c2.4-4.1,7.2-5.5,10.9-3.3c1,0.6,1.7,1.5,2.4,2.3c0.8,0.9,2,0.9,2.9,0.2
			c0.9-0.7,1.1-1.9,0.4-2.9c-0.9-1.3-1.9-2.4-3.3-3.2c-6.2-3.9-13.3-1.5-17,4.5c-2.6,4.1-3.3,8.7-2.7,13.5c0.6,4.6,2.3,8.6,6,11.6
			c5.2,4.2,13.2,3.1,16.9-2.4c0.5-0.8,0.6-1.6,0-2.4C37.5,89.8,36.7,89.6,35.8,89.7z M64.4,93.9c-0.7-0.2-1.5-0.1-2.2-0.1
			c-1.7-0.1-2.4-0.8-2.4-2.5c0-2.1,0-4.2,0-6.7c-0.1-2.1,0.2-4.7-0.2-7.3c-0.7-4.2-4.6-7.2-8.9-6.9c-4.6,0.3-7.9,3.7-8.1,8.1
			c-0.1,1.9,1.6,3.1,3.1,2.3c1-0.5,1.2-1.4,1.3-2.4c0.2-2.6,2.7-4.2,5.2-3.5c2.4,0.7,3.9,3.3,3.2,5.7c-0.1,0.5-0.5,0.4-0.8,0.4
			c-1.2,0-2.5,0-3.7,0c-3.8,0.2-6.9,2.6-8,6.3c-1,3.5,0.4,7.2,3.5,9.4c3,2,6.8,2,9.9-0.3c0.5-0.4,0.8-0.4,1.3,0
			c1.9,1.8,4.3,2,6.8,1.6c1.2-0.2,1.7-1,1.7-2.1C66,94.9,65.5,94.2,64.4,93.9z M55.3,90.1c-0.3,2.3-2.1,3.8-4.5,3.7
			c-2.1-0.1-3.8-1.9-3.8-4c-0.1-2.3,1.5-4.1,3.7-4.3c1.2-0.1,2.4,0,3.6-0.1c0.9-0.1,1.2,0.3,1.1,1.1c-0.1,0.5,0,0.9,0,1.4
			c0,0,0,0,0,0C55.4,88.6,55.4,89.3,55.3,90.1z M63.8,61.8c-1.6,0.1-2-0.4-1.9-1.9c0.1-1.4-1-2.4-2.2-2.4c-1.2,0-2.1,1-2.1,2.5
			c0,0.1,0,0.2,0,0.2c0.2,1.2-0.2,1.7-1.5,1.6c-0.9-0.1-1.8,0.1-2.4,1c-0.5,0.7-0.5,1.5,0,2.2c0.6,1,1.5,1.2,2.5,1.1
			c1.2-0.1,1.6,0.3,1.5,1.5c-0.1,0.9,0.1,1.8,0.9,2.3c0.6,0.5,1.3,0.6,2.1,0.3c1-0.4,1.4-1.3,1.3-2.2c-0.2-1.6,0.4-2,1.9-1.9
			c1.4,0.1,2.3-0.9,2.3-2.1C66.2,62.8,65.2,61.7,63.8,61.8z M18.2,33c-0.6-1-1.6-1.3-2.7-0.9c-3.6,1.4-6.9,6.2-7,10
			c0,1.5,0.6,2.4,1.8,2.5c1.4,0.2,2.2-0.5,2.5-2c0-0.2,0.1-0.5,0.2-0.7c0.2-1.9,1.1-3.3,2.5-4.5c0.7-0.6,1.5-1.1,2.2-1.7
			C18.6,35.1,18.8,34,18.2,33z M56.1,66.2c1.2-0.1,1.6,0.3,1.5,1.5c-0.1,0.9,0.1,1.8,0.9,2.3c0.6,0.5,1.3,0.6,2.1,0.3
			c1-0.4,1.4-1.3,1.3-2.2c-0.2-1.6,0.4-2,1.9-1.9c1.4,0.1,2.3-0.9,2.3-2.1c0-1.2-0.9-2.3-2.3-2.2c-1.6,0.1-2-0.4-1.9-1.9
			c0.1-1.4-1-2.4-2.2-2.4c-1.2,0-2.1,1-2.1,2.5c0,0.1,0,0.2,0,0.2c0.2,1.2-0.2,1.7-1.5,1.6c-0.9-0.1-1.8,0.1-2.4,1
			c-0.5,0.7-0.5,1.5,0,2.2C54.2,66,55.1,66.3,56.1,66.2z M64.4,93.9c-0.7-0.2-1.5-0.1-2.2-0.1c-1.7-0.1-2.4-0.8-2.4-2.5
			c0-2.1,0-4.2,0-6.7c-0.1-2.1,0.2-4.7-0.2-7.3c-0.7-4.2-4.6-7.2-8.9-6.9c-4.6,0.3-7.9,3.7-8.1,8.1c-0.1,1.9,1.6,3.1,3.1,2.3
			c1-0.5,1.2-1.4,1.3-2.4c0.2-2.6,2.7-4.2,5.2-3.5c2.4,0.7,3.9,3.3,3.2,5.7c-0.1,0.5-0.5,0.4-0.8,0.4c-1.2,0-2.5,0-3.7,0
			c-3.8,0.2-6.9,2.6-8,6.3c-1,3.5,0.4,7.2,3.5,9.4c3,2,6.8,2,9.9-0.3c0.5-0.4,0.8-0.4,1.3,0c1.9,1.8,4.3,2,6.8,1.6
			c1.2-0.2,1.7-1,1.7-2.1C66,94.9,65.5,94.2,64.4,93.9z M55.3,90.1c-0.3,2.3-2.1,3.8-4.5,3.7c-2.1-0.1-3.8-1.9-3.8-4
			c-0.1-2.3,1.5-4.1,3.7-4.3c1.2-0.1,2.4,0,3.6-0.1c0.9-0.1,1.2,0.3,1.1,1.1c-0.1,0.5,0,0.9,0,1.4c0,0,0,0,0,0
			C55.4,88.6,55.4,89.3,55.3,90.1z M32.3,69.5c1,0.6,1.7,1.5,2.4,2.3c0.8,0.9,2,0.9,2.9,0.2c0.9-0.7,1.1-1.9,0.4-2.9
			c-0.9-1.3-1.9-2.4-3.3-3.2c-6.2-3.9-13.3-1.5-17,4.5c-2.6,4.1-3.3,8.7-2.7,13.5c0.6,4.6,2.3,8.6,6,11.6c5.2,4.2,13.2,3.1,16.9-2.4
			c0.5-0.8,0.6-1.6,0-2.4c-0.6-0.8-1.4-1.1-2.3-0.9c-0.7,0.1-1.1,0.7-1.5,1.2c-3,3.5-7.4,3.9-10.9,0.8c-3.2-2.8-3.9-6.6-4.1-9.5
			c0-4,0.6-6.9,2.2-9.5C23.8,68.6,28.6,67.2,32.3,69.5z M75.8,29.5c-0.5-0.7-1.3-1.2-1.6-2c4.3-1.1,6.7-3.9,6.9-8.3
			c0.1-3.6,0-7.2,0-10.9c0-2.2-0.8-4-2.2-5.7C77.5,1.3,75.8,0.6,74,0H6.8C3,0.7,0.8,3,0,6.7V21c0.7,3.6,3,5.7,6.4,6.8
			c-3.5,3.9-6,8.3-6.4,13.7v0.8c0.2,0.5,0.2,1,0,1.5v73.5c0.1,0.1,0.2,0.2,0.2,0.3c1,6.1,6.9,10.6,13,10.5c18.2-0.1,36.5,0,54.7,0
			c0.7,0,1.5,0,2.2-0.1c6.7-1.3,10.9-6.3,10.9-13.1c0-23.3,0-46.6,0-69.8C81.1,39.1,79.4,34,75.8,29.5z M4.3,18.1c0-3,0-5.9,0-8.9
			C4.3,6,6,4.3,9.2,4.3c10.5,0,20.9,0,31.4,0c10.3,0,20.7,0.1,31,0c3.3,0,5.4,2,5.2,5.2c-0.2,3.1,0,6.2,0,9.4c0,2.8-1.7,4.6-4.5,4.7
			c-0.3,0-0.5,0-0.7,0H9.6C5.8,23.5,4.3,21.9,4.3,18.1z M76.5,117.2c-0.9,3.8-4.3,6.4-8.6,6.5c-18.2,0-36.5,0-54.7,0
			c-5.3,0-8.9-3.7-8.9-9c0-1.6,0.1-3.2,0-4.7c-0.1-1.1,0.4-1.2,1.3-1.2c11.7,0,23.3,0,35,0c11.7,0,23.3,0,35,0c1,0,1.4,0.2,1.3,1.3
			C76.6,112.4,77,114.8,76.5,117.2z M4.2,52.5c0-1,0.2-1.3,1.3-1.3c23.3,0,46.6,0,70,0c1.1,0,1.3,0.3,1.3,1.3c0,16.9,0,33.8,0,50.7
			c0,1-0.2,1.3-1.3,1.3c-11.7,0-23.3,0-35,0c-11.7,0-23.3,0-35,0c-1,0-1.3-0.3-1.3-1.3C4.3,86.3,4.3,69.4,4.2,52.5z M76.8,46
			c0,1-0.5,0.9-1.2,0.9c-11.7,0-23.4,0-35.1,0c-11.7,0-23.3,0-35,0c-1,0-1.3-0.3-1.3-1.3c-0.1-7.4,2.9-13.2,8.8-17.5
			c0.4-0.3,0.9-0.4,1.4-0.4c17.4,0,34.8,0,52.2,0c0.5,0,0.9,0,1.3,0.3C74,32.5,77.1,38.4,76.8,46z M56.1,66.2
			c1.2-0.1,1.6,0.3,1.5,1.5c-0.1,0.9,0.1,1.8,0.9,2.3c0.6,0.5,1.3,0.6,2.1,0.3c1-0.4,1.4-1.3,1.3-2.2c-0.2-1.6,0.4-2,1.9-1.9
			c1.4,0.1,2.3-0.9,2.3-2.1c0-1.2-0.9-2.3-2.3-2.2c-1.6,0.1-2-0.4-1.9-1.9c0.1-1.4-1-2.4-2.2-2.4c-1.2,0-2.1,1-2.1,2.5
			c0,0.1,0,0.2,0,0.2c0.2,1.2-0.2,1.7-1.5,1.6c-0.9-0.1-1.8,0.1-2.4,1c-0.5,0.7-0.5,1.5,0,2.2C54.2,66,55.1,66.3,56.1,66.2z
			 M54.6,81c-1.2,0-2.5,0-3.7,0c-3.8,0.2-6.9,2.6-8,6.3c-1,3.5,0.4,7.2,3.5,9.4c3,2,6.8,2,9.9-0.3c0.5-0.4,0.8-0.4,1.3,0
			c1.9,1.8,4.3,2,6.8,1.6c1.2-0.2,1.7-1,1.7-2.1c0-1.1-0.6-1.7-1.7-2c-0.7-0.2-1.5-0.1-2.2-0.1c-1.7-0.1-2.4-0.8-2.4-2.5
			c0-2.1,0-4.2,0-6.7c-0.1-2.1,0.2-4.7-0.2-7.3c-0.7-4.2-4.6-7.2-8.9-6.9c-4.6,0.3-7.9,3.7-8.1,8.1c-0.1,1.9,1.6,3.1,3.1,2.3
			c1-0.5,1.2-1.4,1.3-2.4c0.2-2.6,2.7-4.2,5.2-3.5c2.4,0.7,3.9,3.3,3.2,5.7C55.2,81.1,54.9,81,54.6,81z M55.4,87.8
			C55.4,87.8,55.4,87.8,55.4,87.8c0,0.7,0,1.5-0.1,2.2c-0.3,2.3-2.1,3.8-4.5,3.7c-2.1-0.1-3.8-1.9-3.8-4c-0.1-2.3,1.5-4.1,3.7-4.3
			c1.2-0.1,2.4,0,3.6-0.1c0.9-0.1,1.2,0.3,1.1,1.1C55.3,86.9,55.4,87.4,55.4,87.8z M44.4,113c-3.4,0-6.8,0-10.2,0
			c-3.4,0-6.7,0-10.1,0c-1.7,0-2.8,0.8-2.8,2.2c0,1.3,1,2.1,2.8,2.2c0.4,0,0.7,0,1.1,0h18.3c0.3,0,0.7,0,1,0c1.5-0.1,2.4-1,2.4-2.2
			C47,113.9,45.9,113,44.4,113z M21.1,95.5c5.2,4.2,13.2,3.1,16.9-2.4c0.5-0.8,0.6-1.6,0-2.4c-0.6-0.8-1.4-1.1-2.3-0.9
			c-0.7,0.1-1.1,0.7-1.5,1.2c-3,3.5-7.4,3.9-10.9,0.8c-3.2-2.8-3.9-6.6-4.1-9.5c0-4,0.6-6.9,2.2-9.5c2.4-4.1,7.2-5.5,10.9-3.3
			c1,0.6,1.7,1.5,2.4,2.3c0.8,0.9,2,0.9,2.9,0.2c0.9-0.7,1.1-1.9,0.4-2.9c-0.9-1.3-1.9-2.4-3.3-3.2c-6.2-3.9-13.3-1.5-17,4.5
			c-2.6,4.1-3.3,8.7-2.7,13.5C15.7,88.5,17.4,92.5,21.1,95.5z M15.5,32.2c-3.6,1.4-6.9,6.2-7,10c0,1.5,0.6,2.4,1.8,2.5
			c1.4,0.2,2.2-0.5,2.5-2c0-0.2,0.1-0.5,0.2-0.7c0.2-1.9,1.1-3.3,2.5-4.5c0.7-0.6,1.5-1.1,2.2-1.7c0.9-0.7,1.1-1.8,0.6-2.8
			C17.6,32.1,16.6,31.8,15.5,32.2z M14.9,113c-0.7-0.1-1.4,0-2.1,0v0c-0.7,0-1.5-0.1-2.2,0c-1.2,0.1-2,1.1-2,2.2
			c0,1.1,0.8,1.9,1.9,2.1c1.5,0.2,3.1,0.2,4.6,0c1.3-0.1,2-1,2-2.1C17,114,16.2,113.1,14.9,113z M35.8,89.7
			c-0.7,0.1-1.1,0.7-1.5,1.2c-3,3.5-7.4,3.9-10.9,0.8c-3.2-2.8-3.9-6.6-4.1-9.5c0-4,0.6-6.9,2.2-9.5c2.4-4.1,7.2-5.5,10.9-3.3
			c1,0.6,1.7,1.5,2.4,2.3c0.8,0.9,2,0.9,2.9,0.2c0.9-0.7,1.1-1.9,0.4-2.9c-0.9-1.3-1.9-2.4-3.3-3.2c-6.2-3.9-13.3-1.5-17,4.5
			c-2.6,4.1-3.3,8.7-2.7,13.5c0.6,4.6,2.3,8.6,6,11.6c5.2,4.2,13.2,3.1,16.9-2.4c0.5-0.8,0.6-1.6,0-2.4
			C37.5,89.8,36.7,89.6,35.8,89.7z M64.4,93.9c-0.7-0.2-1.5-0.1-2.2-0.1c-1.7-0.1-2.4-0.8-2.4-2.5c0-2.1,0-4.2,0-6.7
			c-0.1-2.1,0.2-4.7-0.2-7.3c-0.7-4.2-4.6-7.2-8.9-6.9c-4.6,0.3-7.9,3.7-8.1,8.1c-0.1,1.9,1.6,3.1,3.1,2.3c1-0.5,1.2-1.4,1.3-2.4
			c0.2-2.6,2.7-4.2,5.2-3.5c2.4,0.7,3.9,3.3,3.2,5.7c-0.1,0.5-0.5,0.4-0.8,0.4c-1.2,0-2.5,0-3.7,0c-3.8,0.2-6.9,2.6-8,6.3
			c-1,3.5,0.4,7.2,3.5,9.4c3,2,6.8,2,9.9-0.3c0.5-0.4,0.8-0.4,1.3,0c1.9,1.8,4.3,2,6.8,1.6c1.2-0.2,1.7-1,1.7-2.1
			C66,94.9,65.5,94.2,64.4,93.9z M55.3,90.1c-0.3,2.3-2.1,3.8-4.5,3.7c-2.1-0.1-3.8-1.9-3.8-4c-0.1-2.3,1.5-4.1,3.7-4.3
			c1.2-0.1,2.4,0,3.6-0.1c0.9-0.1,1.2,0.3,1.1,1.1c-0.1,0.5,0,0.9,0,1.4c0,0,0,0,0,0C55.4,88.6,55.4,89.3,55.3,90.1z M63.8,61.8
			c-1.6,0.1-2-0.4-1.9-1.9c0.1-1.4-1-2.4-2.2-2.4c-1.2,0-2.1,1-2.1,2.5c0,0.1,0,0.2,0,0.2c0.2,1.2-0.2,1.7-1.5,1.6
			c-0.9-0.1-1.8,0.1-2.4,1c-0.5,0.7-0.5,1.5,0,2.2c0.6,1,1.5,1.2,2.5,1.1c1.2-0.1,1.6,0.3,1.5,1.5c-0.1,0.9,0.1,1.8,0.9,2.3
			c0.6,0.5,1.3,0.6,2.1,0.3c1-0.4,1.4-1.3,1.3-2.2c-0.2-1.6,0.4-2,1.9-1.9c1.4,0.1,2.3-0.9,2.3-2.1C66.2,62.8,65.2,61.7,63.8,61.8z
			 M18.2,33c-0.6-1-1.6-1.3-2.7-0.9c-3.6,1.4-6.9,6.2-7,10c0,1.5,0.6,2.4,1.8,2.5c1.4,0.2,2.2-0.5,2.5-2c0-0.2,0.1-0.5,0.2-0.7
			c0.2-1.9,1.1-3.3,2.5-4.5c0.7-0.6,1.5-1.1,2.2-1.7C18.6,35.1,18.8,34,18.2,33z M63.8,61.8c-1.6,0.1-2-0.4-1.9-1.9
			c0.1-1.4-1-2.4-2.2-2.4c-1.2,0-2.1,1-2.1,2.5c0,0.1,0,0.2,0,0.2c0.2,1.2-0.2,1.7-1.5,1.6c-0.9-0.1-1.8,0.1-2.4,1
			c-0.5,0.7-0.5,1.5,0,2.2c0.6,1,1.5,1.2,2.5,1.1c1.2-0.1,1.6,0.3,1.5,1.5c-0.1,0.9,0.1,1.8,0.9,2.3c0.6,0.5,1.3,0.6,2.1,0.3
			c1-0.4,1.4-1.3,1.3-2.2c-0.2-1.6,0.4-2,1.9-1.9c1.4,0.1,2.3-0.9,2.3-2.1C66.2,62.8,65.2,61.7,63.8,61.8z M64.4,93.9
			c-0.7-0.2-1.5-0.1-2.2-0.1c-1.7-0.1-2.4-0.8-2.4-2.5c0-2.1,0-4.2,0-6.7c-0.1-2.1,0.2-4.7-0.2-7.3c-0.7-4.2-4.6-7.2-8.9-6.9
			c-4.6,0.3-7.9,3.7-8.1,8.1c-0.1,1.9,1.6,3.1,3.1,2.3c1-0.5,1.2-1.4,1.3-2.4c0.2-2.6,2.7-4.2,5.2-3.5c2.4,0.7,3.9,3.3,3.2,5.7
			c-0.1,0.5-0.5,0.4-0.8,0.4c-1.2,0-2.5,0-3.7,0c-3.8,0.2-6.9,2.6-8,6.3c-1,3.5,0.4,7.2,3.5,9.4c3,2,6.8,2,9.9-0.3
			c0.5-0.4,0.8-0.4,1.3,0c1.9,1.8,4.3,2,6.8,1.6c1.2-0.2,1.7-1,1.7-2.1C66,94.9,65.5,94.2,64.4,93.9z M55.3,90.1
			c-0.3,2.3-2.1,3.8-4.5,3.7c-2.1-0.1-3.8-1.9-3.8-4c-0.1-2.3,1.5-4.1,3.7-4.3c1.2-0.1,2.4,0,3.6-0.1c0.9-0.1,1.2,0.3,1.1,1.1
			c-0.1,0.5,0,0.9,0,1.4c0,0,0,0,0,0C55.4,88.6,55.4,89.3,55.3,90.1z M35.8,89.7c-0.7,0.1-1.1,0.7-1.5,1.2c-3,3.5-7.4,3.9-10.9,0.8
			c-3.2-2.8-3.9-6.6-4.1-9.5c0-4,0.6-6.9,2.2-9.5c2.4-4.1,7.2-5.5,10.9-3.3c1,0.6,1.7,1.5,2.4,2.3c0.8,0.9,2,0.9,2.9,0.2
			c0.9-0.7,1.1-1.9,0.4-2.9c-0.9-1.3-1.9-2.4-3.3-3.2c-6.2-3.9-13.3-1.5-17,4.5c-2.6,4.1-3.3,8.7-2.7,13.5c0.6,4.6,2.3,8.6,6,11.6
			c5.2,4.2,13.2,3.1,16.9-2.4c0.5-0.8,0.6-1.6,0-2.4C37.5,89.8,36.7,89.6,35.8,89.7z M18.2,33c-0.6-1-1.6-1.3-2.7-0.9
			c-3.6,1.4-6.9,6.2-7,10c0,1.5,0.6,2.4,1.8,2.5c1.4,0.2,2.2-0.5,2.5-2c0-0.2,0.1-0.5,0.2-0.7c0.2-1.9,1.1-3.3,2.5-4.5
			c0.7-0.6,1.5-1.1,2.2-1.7C18.6,35.1,18.8,34,18.2,33z"/>
		<path d="M0,42.2c0.4,0.5,0.4,1,0,1.5C0,43.2,0,42.7,0,42.2z"/>
		<path d="M121.2,107.4c1.1-1.2,2.1-2.4,3.2-3.5c4-4,4.7-9.9,1.6-14c-4.1-5.6-11.4-6.2-16.5-1.3c-5,4.7-9.9,9.5-14.8,14.3
			c-1.1,1-2,2.2-2.5,3.7c-0.3,0.7-0.7,1.1-1.4,1.5c-4.1,2.2-6.3,7.1-5.3,11.6c1,4.6,5.3,8.3,10,8.3c7.4,0.1,14.9,0.1,22.4,0
			c4-0.1,7-2.1,8.9-5.7C129.7,116.8,127.3,109.8,121.2,107.4z M107.2,96.8c2-1.9,4-3.9,6.1-5.7c2-1.7,4.4-1.9,6.8-0.8
			c2.4,1.1,3.5,3.2,3.7,5.7c-0.1,1.7-0.6,3.2-1.8,4.4c-1.9,1.9-3.9,3.7-5.8,5.6c-0.4,0.4-0.6,0.3-0.9-0.1c-2.6-2.7-5.2-5.5-7.9-8.2
			C106.9,97.4,106.8,97.2,107.2,96.8z M104.5,117.4c0,1.8,0,3.7,0,5.5c0,0.4,0.2,0.9-0.5,0.9c-3-0.1-6.1,0.3-9.1-0.2
			c-3.3-0.5-5.4-3.3-5.2-6.8c0.2-3.1,2.8-5.7,6-5.7c2.7-0.1,5.3,0,8,0c0.8,0,0.9,0.3,0.8,0.9C104.5,113.7,104.5,115.5,104.5,117.4z
			 M97.7,106.5c1.4-1.5,2.8-3.1,4.3-4.6c1.6-1.7,1.7-1.6,3.3,0c1.4,1.5,2.8,2.9,4.4,4.6H97.7z M118.4,123.5c-3,0.4-6.1,0.1-9.1,0.2
			c-0.7,0-0.5-0.5-0.6-0.9c0-1.8,0-3.7,0-5.5c0-1.8,0-3.7,0-5.5c0-0.7,0.2-0.9,0.9-0.9c2.7,0,5.3,0,8,0c3.2,0.1,5.8,2.8,6,6.2
			C123.8,120.1,121.5,123,118.4,123.5z"/>
		<path d="M21.4,72.7c-1.5,2.6-2.2,5.4-2.2,9.5c0.2,3,1,6.7,4.1,9.5c3.4,3.1,7.9,2.8,10.9-0.8c0.4-0.5,0.8-1.1,1.5-1.2
			c0.9-0.2,1.7,0.1,2.3,0.9c0.5,0.8,0.5,1.6,0,2.4c-3.7,5.5-11.7,6.7-16.9,2.4c-3.7-3-5.4-7.1-6-11.6c-0.6-4.8,0.1-9.4,2.7-13.5
			c3.7-6,10.8-8.4,17-4.5c1.3,0.8,2.4,1.9,3.3,3.2c0.7,1,0.5,2.1-0.4,2.9c-0.9,0.7-2.1,0.7-2.9-0.2c-0.8-0.8-1.4-1.7-2.4-2.3
			C28.6,67.2,23.8,68.6,21.4,72.7z"/>
		<path d="M64.4,93.9c-0.7-0.2-1.5-0.1-2.2-0.1c-1.7-0.1-2.4-0.8-2.4-2.5c0-2.1,0-4.2,0-6.7c-0.1-2.1,0.2-4.7-0.2-7.3
			c-0.7-4.2-4.6-7.2-8.9-6.9c-4.6,0.3-7.9,3.7-8.1,8.1c-0.1,1.9,1.6,3.1,3.1,2.3c1-0.5,1.2-1.4,1.3-2.4c0.2-2.6,2.7-4.2,5.2-3.5
			c2.4,0.7,3.9,3.3,3.2,5.7c-0.1,0.5-0.5,0.4-0.8,0.4c-1.2,0-2.5,0-3.7,0c-3.8,0.2-6.9,2.6-8,6.3c-1,3.5,0.4,7.2,3.5,9.4
			c3,2,6.8,2,9.9-0.3c0.5-0.4,0.8-0.4,1.3,0c1.9,1.8,4.3,2,6.8,1.6c1.2-0.2,1.7-1,1.7-2.1C66,94.9,65.5,94.2,64.4,93.9z M55.3,90.1
			c-0.3,2.3-2.1,3.8-4.5,3.7c-2.1-0.1-3.8-1.9-3.8-4c-0.1-2.3,1.5-4.1,3.7-4.3c1.2-0.1,2.4,0,3.6-0.1c0.9-0.1,1.2,0.3,1.1,1.1
			c-0.1,0.5,0,0.9,0,1.4c0,0,0,0,0,0C55.4,88.6,55.4,89.3,55.3,90.1z"/>
		<path d="M53.6,65.1c-0.4-0.7-0.4-1.5,0-2.2c0.6-0.9,1.5-1.1,2.4-1c1.3,0.2,1.7-0.4,1.5-1.6c0-0.1,0-0.2,0-0.2
			c0.1-1.4,0.9-2.4,2.1-2.5c1.2,0,2.3,1,2.2,2.4c-0.1,1.6,0.4,2,1.9,1.9c1.4-0.1,2.4,1,2.3,2.2c0,1.2-1,2.2-2.3,2.1
			c-1.5-0.1-2.1,0.3-1.9,1.9c0.1,0.9-0.4,1.8-1.3,2.2c-0.8,0.3-1.5,0.2-2.1-0.3c-0.8-0.6-1-1.4-0.9-2.3c0.2-1.2-0.2-1.6-1.5-1.5
			C55.1,66.3,54.2,66,53.6,65.1z"/>
		<path d="M17.6,35.8c-0.7,0.6-1.5,1.1-2.2,1.7c-1.4,1.2-2.4,2.6-2.5,4.5c0,0.2-0.1,0.5-0.2,0.7c-0.3,1.5-1.1,2.2-2.5,2
			c-1.2-0.1-1.8-1.1-1.8-2.5c0.1-3.8,3.4-8.6,7-10c1.1-0.4,2.1-0.1,2.7,0.9C18.8,34,18.6,35.1,17.6,35.8z"/>
		<path d="M12.8,10.7c0,0.1,0,0.2,0,0.2v2.9h0c0,1.1,0,2.2,0,3.4c-0.1,1.2-0.9,2.1-2,2.1c-1.1,0-2.2-0.9-2.2-2.1
			c-0.1-2.2-0.1-4.3,0-6.5c0-1.2,1-2.1,2.1-2.1C11.8,8.5,12.7,9.4,12.8,10.7z"/>
		<path d="M21.3,13.9c0,1.1,0.1,2.2,0,3.4c-0.1,1.2-0.9,1.9-2,2c-1.1,0.1-2.2-0.8-2.2-1.9c-0.1-2.3-0.1-4.6,0-6.8
			c0.1-1.2,1.1-2,2.2-1.9c1.1,0.1,1.9,0.8,2,2C21.4,11.6,21.3,12.8,21.3,13.9z"/>
		<path d="M29.9,10.8c0.1,2,0.1,4.1,0,6.1c-0.1,1.4-1,2.3-2.2,2.3c-1.2,0-2.1-1-2.2-2.4c0-1,0-2,0-3c0-1,0-1.9,0-2.9
			c0.1-1.5,0.9-2.4,2.1-2.5C28.9,8.5,29.9,9.4,29.9,10.8z"/>
		<path d="M38.5,13.9c0,1,0,1.9,0,2.9c-0.1,1.5-0.9,2.4-2.1,2.5c-1.2,0.1-2.2-0.9-2.3-2.3c-0.1-2-0.1-4.1,0-6.1
			c0.1-1.4,1-2.3,2.2-2.3c1.2,0,2.1,1,2.2,2.4C38.5,11.9,38.5,12.9,38.5,13.9z"/>
		<path d="M47,13.9c0,1,0,2,0,3c-0.1,1.3-1,2.3-2.1,2.3c-1.1,0-2.1-0.8-2.2-2.1c-0.1-2.2-0.1-4.3,0-6.5c0.1-1.3,1-2.1,2.1-2.1
			c1.2,0,2.1,1,2.1,2.3C47,11.8,47,12.9,47,13.9z"/>
		<path d="M55.5,13.9c0,1,0,2,0,3c0,1.3-0.9,2.3-2.1,2.3s-2.1-0.9-2.2-2.2c-0.1-2.1-0.1-4.1,0-6.2c0-1.4,1-2.3,2.1-2.2
			c1.2,0,2.1,1,2.1,2.3C55.5,11.8,55.5,12.9,55.5,13.9z"/>
		<path d="M64,13.8c0,1.1,0,2.2,0,3.2c0,1.2-1,2.2-2.1,2.2c-1.1,0-2.1-0.9-2.1-2.1c0-2.2,0-4.3,0-6.5c0-1.2,1-2.1,2.2-2.1
			c1.1,0,2,0.9,2.1,2.1C64,11.7,64,12.7,64,13.8z"/>
		<path d="M72.5,17c0,1.3-0.9,2.2-2.1,2.2c-1.2,0-2.1-0.9-2.2-2.2c0-1.1,0-2.2,0-3.2c0-1,0-2,0-3c0-1.3,1-2.3,2.2-2.3
			c1.1,0,2.1,0.9,2.1,2.2C72.5,12.8,72.5,14.9,72.5,17z"/>
		<path d="M17,115.1c0,1.2-0.7,2-2,2.1c-1.5,0.2-3.1,0.2-4.6,0c-1.2-0.2-1.9-1-1.9-2.1c0-1.1,0.8-2,2-2.2c0.7-0.1,1.5,0,2.2,0v0
			c0.7,0,1.4,0,2.1,0C16.2,113.1,17,114,17,115.1z"/>
		<path d="M47,115.2c0,1.2-1,2-2.4,2.2c-0.3,0-0.7,0-1,0H25.2c-0.4,0-0.7,0-1.1,0c-1.8,0-2.8-0.9-2.8-2.2c0-1.3,1.1-2.2,2.8-2.2
			c3.4,0,6.7,0,10.1,0c3.4,0,6.8,0,10.2,0C45.9,113,47,113.9,47,115.2z"/>
		<path d="M64.4,93.9c-0.7-0.2-1.5-0.1-2.2-0.1c-1.7-0.1-2.4-0.8-2.4-2.5c0-2.1,0-4.2,0-6.7c-0.1-2.1,0.2-4.7-0.2-7.3
			c-0.7-4.2-4.6-7.2-8.9-6.9c-4.6,0.3-7.9,3.7-8.1,8.1c-0.1,1.9,1.6,3.1,3.1,2.3c1-0.5,1.2-1.4,1.3-2.4c0.2-2.6,2.7-4.2,5.2-3.5
			c2.4,0.7,3.9,3.3,3.2,5.7c-0.1,0.5-0.5,0.4-0.8,0.4c-1.2,0-2.5,0-3.7,0c-3.8,0.2-6.9,2.6-8,6.3c-1,3.5,0.4,7.2,3.5,9.4
			c3,2,6.8,2,9.9-0.3c0.5-0.4,0.8-0.4,1.3,0c1.9,1.8,4.3,2,6.8,1.6c1.2-0.2,1.7-1,1.7-2.1C66,94.9,65.5,94.2,64.4,93.9z M55.3,90.1
			c-0.3,2.3-2.1,3.8-4.5,3.7c-2.1-0.1-3.8-1.9-3.8-4c-0.1-2.3,1.5-4.1,3.7-4.3c1.2-0.1,2.4,0,3.6-0.1c0.9-0.1,1.2,0.3,1.1,1.1
			c-0.1,0.5,0,0.9,0,1.4c0,0,0,0,0,0C55.4,88.6,55.4,89.3,55.3,90.1z"/>
		<path d="M38,90.6c0.5,0.8,0.5,1.6,0,2.4c-3.7,5.5-11.7,6.7-16.9,2.4c-3.7-3-5.4-7.1-6-11.6c-0.6-4.8,0.1-9.4,2.7-13.5
			c3.7-6,10.8-8.4,17-4.5c1.3,0.8,2.4,1.9,3.3,3.2c0.7,1,0.5,2.1-0.4,2.9c-0.9,0.7-2.1,0.7-2.9-0.2c-0.8-0.8-1.4-1.7-2.4-2.3
			c-3.7-2.3-8.5-0.8-10.9,3.3c-1.5,2.6-2.2,5.4-2.2,9.5c0.2,3,1,6.7,4.1,9.5c3.4,3.1,7.9,2.8,10.9-0.8c0.4-0.5,0.8-1.1,1.5-1.2
			C36.7,89.6,37.5,89.8,38,90.6z"/>
		<path d="M66.2,64c0,1.2-1,2.2-2.3,2.1c-1.5-0.1-2.1,0.3-1.9,1.9c0.1,0.9-0.4,1.8-1.3,2.2c-0.8,0.3-1.5,0.2-2.1-0.3
			c-0.8-0.6-1-1.4-0.9-2.3c0.2-1.2-0.2-1.6-1.5-1.5c-1,0.1-1.9-0.1-2.5-1.1c-0.4-0.7-0.4-1.5,0-2.2c0.6-0.9,1.5-1.1,2.4-1
			c1.3,0.2,1.7-0.4,1.5-1.6c0-0.1,0-0.2,0-0.2c0.1-1.4,0.9-2.4,2.1-2.5c1.2,0,2.3,1,2.2,2.4c-0.1,1.6,0.4,2,1.9,1.9
			C65.2,61.7,66.2,62.8,66.2,64z"/>
		<path d="M17.6,35.8c-0.7,0.6-1.5,1.1-2.2,1.7c-1.4,1.2-2.4,2.6-2.5,4.5c0,0.2-0.1,0.5-0.2,0.7c-0.3,1.5-1.1,2.2-2.5,2
			c-1.2-0.1-1.8-1.1-1.8-2.5c0.1-3.8,3.4-8.6,7-10c1.1-0.4,2.1-0.1,2.7,0.9C18.8,34,18.6,35.1,17.6,35.8z"/>
		<path d="M29.9,16.9c-0.1,1.4-1,2.3-2.2,2.3c-1.2,0-2.1-1-2.2-2.4c0-1,0-2,0-3c0-1,0-1.9,0-2.9c0.1-1.5,0.9-2.4,2.1-2.5
			c1.2,0,2.2,0.9,2.2,2.3C30,12.9,30,14.9,29.9,16.9z"/>
		<path d="M38.5,13.9c0,1,0,1.9,0,2.9c-0.1,1.5-0.9,2.4-2.1,2.5c-1.2,0.1-2.2-0.9-2.3-2.3c-0.1-2-0.1-4.1,0-6.1
			c0.1-1.4,1-2.3,2.2-2.3c1.2,0,2.1,1,2.2,2.4C38.5,11.9,38.5,12.9,38.5,13.9z"/>
		<path d="M47,13.9c0,1,0,2,0,3c-0.1,1.3-1,2.3-2.1,2.3c-1.1,0-2.1-0.8-2.2-2.1c-0.1-2.2-0.1-4.3,0-6.5c0.1-1.3,1-2.1,2.1-2.1
			c1.2,0,2.1,1,2.1,2.3C47,11.8,47,12.9,47,13.9z"/>
		<path d="M12.8,13.8L12.8,13.8c0,1.1,0,2.2,0,3.4c-0.1,1.2-0.9,2.1-2,2.1c-1.1,0-2.2-0.9-2.2-2.1c-0.1-2.2-0.1-4.3,0-6.5
			c0-1.2,1-2.1,2.1-2.1c1.2,0,2,0.9,2.1,2.1c0,0.1,0,0.2,0,0.2V13.8z"/>
		<path d="M21.3,13.9c0,1.1,0.1,2.2,0,3.4c-0.1,1.2-0.9,1.9-2,2c-1.1,0.1-2.2-0.8-2.2-1.9c-0.1-2.3-0.1-4.6,0-6.8
			c0.1-1.2,1.1-2,2.2-1.9c1.1,0.1,1.9,0.8,2,2C21.4,11.6,21.3,12.8,21.3,13.9z"/>
		<path d="M55.5,13.9c0,1,0,2,0,3c0,1.3-0.9,2.3-2.1,2.3s-2.1-0.9-2.2-2.2c-0.1-2.1-0.1-4.1,0-6.2c0-1.4,1-2.3,2.1-2.2
			c1.2,0,2.1,1,2.1,2.3C55.5,11.8,55.5,12.9,55.5,13.9z"/>
		<path d="M64,13.8c0,1.1,0,2.2,0,3.2c0,1.2-1,2.2-2.1,2.2c-1.1,0-2.1-0.9-2.1-2.1c0-2.2,0-4.3,0-6.5c0-1.2,1-2.1,2.2-2.1
			c1.1,0,2,0.9,2.1,2.1C64,11.7,64,12.7,64,13.8z"/>
		<path d="M72.5,17c0,1.3-0.9,2.2-2.1,2.2c-1.2,0-2.1-0.9-2.2-2.2c0-1.1,0-2.2,0-3.2c0-1,0-2,0-3c0-1.3,1-2.3,2.2-2.3
			c1.1,0,2.1,0.9,2.1,2.2C72.5,12.8,72.5,14.9,72.5,17z"/>
		<path d="M47,115.2c0,1.2-1,2-2.4,2.2c-0.3,0-0.7,0-1,0H25.2c-0.4,0-0.7,0-1.1,0c-1.8,0-2.8-0.9-2.8-2.2c0-1.3,1.1-2.2,2.8-2.2
			c3.4,0,6.7,0,10.1,0c3.4,0,6.8,0,10.2,0C45.9,113,47,113.9,47,115.2z"/>
		<path d="M17,115.1c0,1.2-0.7,2-2,2.1c-1.5,0.2-3.1,0.2-4.6,0c-1.2-0.2-1.9-1-1.9-2.1c0-1.1,0.8-2,2-2.2c0.7-0.1,1.5,0,2.2,0v0
			c0.7,0,1.4,0,2.1,0C16.2,113.1,17,114,17,115.1z"/>
	</g>
</g>
</svg>
