<?xml version="1.0" encoding="utf-8"?>
<!-- Generator: Adobe Illustrator 28.0.0, SVG Export Plug-In . SVG Version: 6.00 Build 0)  -->
<svg version="1.1" id="Layer_1" xmlns="http://www.w3.org/2000/svg" xmlns:xlink="http://www.w3.org/1999/xlink" x="0px" y="0px"
	 viewBox="0 0 128 128" style="enable-background:new 0 0 128 128;" xml:space="preserve">
<g>
	<g>
		<path d="M64,128C28.7,128,0,99.3,0,64C0,28.7,28.7,0,64,0c35.3,0,64,28.7,64,64C128,99.3,99.3,128,64,128z M64,5
			C31.5,5,5,31.5,5,64c0,32.5,26.5,59,59,59s59-26.5,59-59C123,31.5,96.5,5,64,5z"/>
	</g>
	<g>
		<path d="M25.3,64.8c-0.2,0-0.4-0.1-0.5-0.2c-0.1-0.1-0.2-0.3-0.2-0.5v-3.8h-9.5c-0.2,0-0.4-0.1-0.5-0.2s-0.2-0.3-0.2-0.5v-2
			c0-0.1,0-0.3,0.1-0.4c0.1-0.2,0.1-0.3,0.3-0.5l8.8-12.2c0.3-0.3,0.6-0.5,1.1-0.5h3.3c0.2,0,0.4,0.1,0.5,0.2s0.2,0.3,0.2,0.5v12.1
			h2.7c0.2,0,0.4,0.1,0.6,0.2c0.1,0.1,0.2,0.3,0.2,0.5v2.1c0,0.2-0.1,0.4-0.2,0.5s-0.3,0.2-0.5,0.2h-2.7v3.8c0,0.2-0.1,0.4-0.2,0.5
			s-0.3,0.2-0.5,0.2H25.3z M18.6,56.9h6.1v-8.6L18.6,56.9z"/>
		<path d="M42.8,65.1c-1.3,0-2.5-0.2-3.5-0.5c-1-0.3-1.9-0.8-2.6-1.3c-0.7-0.6-1.2-1.3-1.6-2c-0.4-0.8-0.6-1.6-0.6-2.6
			c0-1.2,0.3-2.2,0.9-3s1.3-1.5,2.2-2c-0.7-0.5-1.3-1-1.7-1.8c-0.4-0.7-0.6-1.6-0.6-2.5c0-1.2,0.3-2.2,0.9-3s1.4-1.5,2.6-2
			c1.1-0.5,2.5-0.7,4.1-0.7s3,0.2,4.1,0.7c1.1,0.5,2,1.2,2.5,2c0.6,0.9,0.9,1.9,0.9,3c0,1-0.2,1.8-0.6,2.5c-0.4,0.7-1,1.3-1.7,1.8
			c0.9,0.4,1.7,1.1,2.2,2s0.8,1.9,0.8,3c0,1.3-0.3,2.4-1,3.3c-0.6,1-1.6,1.7-2.8,2.3C46,64.8,44.5,65.1,42.8,65.1z M42.8,62
			c0.8,0,1.5-0.1,2.1-0.4c0.6-0.3,1.1-0.7,1.5-1.2c0.4-0.5,0.6-1.1,0.6-1.8c0-0.7-0.2-1.3-0.6-1.8c-0.4-0.5-0.9-0.9-1.5-1.1
			c-0.6-0.3-1.3-0.4-2.1-0.4s-1.5,0.1-2.1,0.4c-0.6,0.3-1.1,0.6-1.5,1.1c-0.4,0.5-0.6,1.1-0.6,1.8c0,0.7,0.2,1.3,0.6,1.8
			c0.4,0.5,0.9,0.9,1.5,1.2C41.3,61.9,42,62,42.8,62z M42.8,52.4c0.7,0,1.3-0.1,1.8-0.4c0.5-0.2,1-0.6,1.3-1
			c0.3-0.4,0.5-0.9,0.5-1.5c0-0.6-0.2-1.1-0.5-1.5c-0.3-0.4-0.7-0.8-1.3-1c-0.5-0.2-1.2-0.4-1.9-0.4s-1.3,0.1-1.9,0.4
			c-0.5,0.2-1,0.6-1.3,1c-0.3,0.4-0.5,0.9-0.5,1.5c0,0.6,0.2,1.1,0.5,1.5c0.3,0.4,0.7,0.7,1.3,1C41.5,52.3,42.1,52.4,42.8,52.4z"/>
		<path d="M70.4,82.4c-3.2,0-5.9-0.6-8.1-1.7c-2.2-1.1-3.9-2.7-5-4.8c-1.2-2.1-1.8-4.6-1.9-7.5c0-1.4-0.1-2.9-0.1-4.5s0-3.1,0.1-4.6
			c0.1-2.9,0.8-5.3,2-7.4c1.2-2.1,2.9-3.7,5.1-4.8c2.2-1.1,4.9-1.7,8-1.7c2.3,0,4.4,0.3,6.3,0.9c1.8,0.6,3.4,1.5,4.7,2.5
			c1.3,1.1,2.3,2.3,3,3.8s1.1,3,1.1,4.7c0,0.3-0.1,0.6-0.3,0.8c-0.2,0.2-0.5,0.3-0.8,0.3h-4.9c-0.4,0-0.7-0.1-0.9-0.3
			c-0.2-0.2-0.4-0.5-0.5-0.9c-0.5-2.3-1.5-3.8-2.8-4.6s-3-1.2-5-1.2c-2.3,0-4.1,0.6-5.5,1.9c-1.4,1.3-2.1,3.4-2.2,6.3
			c-0.1,2.8-0.1,5.7,0,8.6c0.1,2.9,0.8,5,2.2,6.3c1.4,1.3,3.2,1.9,5.5,1.9c2,0,3.6-0.4,5-1.3c1.4-0.8,2.3-2.4,2.8-4.6
			c0.1-0.5,0.3-0.8,0.5-1c0.2-0.2,0.5-0.3,0.9-0.3h4.9c0.3,0,0.6,0.1,0.8,0.3c0.2,0.2,0.3,0.5,0.3,0.8c0,1.7-0.4,3.2-1.1,4.7
			c-0.7,1.4-1.7,2.7-3,3.8c-1.3,1.1-2.9,1.9-4.7,2.5C74.8,82.1,72.7,82.4,70.4,82.4z"/>
		<path d="M98.8,82.4c-1.8,0-3.4-0.3-4.8-1.1c-1.4-0.7-2.6-1.6-3.4-2.8c-0.8-1.2-1.3-2.5-1.3-4c0-2.4,1-4.3,2.9-5.7
			c1.9-1.4,4.5-2.4,7.6-2.8l7-1v-1.1c0-1.4-0.4-2.5-1.1-3.3c-0.7-0.8-1.9-1.2-3.7-1.2c-1.2,0-2.2,0.2-3,0.7c-0.8,0.5-1.3,1.2-1.7,2
			c-0.3,0.4-0.7,0.7-1.2,0.7h-4c-0.4,0-0.7-0.1-0.8-0.3C91.1,62.3,91,62,91,61.6c0-0.5,0.3-1.2,0.7-2c0.4-0.8,1.1-1.5,1.9-2.3
			c0.9-0.7,2-1.4,3.4-1.9c1.4-0.5,3.1-0.8,5.1-0.8c2.2,0,4,0.3,5.5,0.8c1.5,0.5,2.7,1.2,3.6,2.1c0.9,0.9,1.5,1.9,1.9,3.1
			c0.4,1.2,0.6,2.5,0.6,3.8v16.1c0,0.3-0.1,0.6-0.4,0.9c-0.2,0.2-0.5,0.4-0.9,0.4h-4.2c-0.4,0-0.7-0.1-0.9-0.4
			c-0.2-0.2-0.3-0.5-0.3-0.9v-2c-0.4,0.6-1,1.2-1.8,1.8c-0.8,0.6-1.7,1.1-2.7,1.4C101.5,82.2,100.2,82.4,98.8,82.4z M100.5,77.5
			c1.2,0,2.3-0.3,3.3-0.8c1-0.5,1.7-1.3,2.3-2.4c0.6-1.1,0.8-2.4,0.8-4.1v-1.1l-5.1,0.8c-2,0.3-3.5,0.8-4.5,1.5
			c-1,0.7-1.5,1.5-1.5,2.5c0,0.8,0.2,1.4,0.7,1.9c0.5,0.5,1.1,0.9,1.8,1.2C99,77.4,99.7,77.5,100.5,77.5z"/>
	</g>
</g>
</svg>
