<?xml version="1.0" encoding="utf-8"?>
<!-- Generator: Adobe Illustrator 28.0.0, SVG Export Plug-In . SVG Version: 6.00 Build 0)  -->
<svg version="1.1" id="Layer_1" xmlns="http://www.w3.org/2000/svg" xmlns:xlink="http://www.w3.org/1999/xlink" x="0px" y="0px"
	 viewBox="0 0 128 128" style="enable-background:new 0 0 128 128;" xml:space="preserve">
<g id="YuPioZ.tif">
	<g>
		<path d="M59.7,105.5H17.2c-1.6,0-2.3,0.6-2.3,2.3v10.4c0,1.8,0.6,2.4,2.4,2.4h42.2c1.9,0,2.5-0.6,2.5-2.5c0-3.3,0-6.7,0-10
			C62.2,106.2,61.5,105.5,59.7,105.5z M57.2,116.8c-6.2,0-12.5,0-18.7,0c-6.2,0-12.4,0-18.6,0c-0.8,0-1.1-0.2-1.1-1.1
			c0.1-1.9,0.1-3.7,0-5.6c0-0.6,0.1-0.9,0.8-0.9c12.7,0,25.3,0,38,0c0.7,0,0.8,0.3,0.8,0.9c0,1.8-0.1,3.7,0,5.5
			C58.4,116.5,58.2,116.8,57.2,116.8z M110.6,105.5H68.1c-1.4,0-2.2,0.6-2.2,1.9c-0.1,3.7-0.1,7.4,0,11.1c0,1.3,0.8,1.9,2.1,1.9
			c5.8,0,11.7,0,17.5,0c0.4,0,0.8,0,1.2-0.2c0.8-0.5,1.1-1.3,0.9-2.1c-0.3-1-1-1.4-2-1.4c-5,0-9.9,0-14.9,0c-0.8,0-1-0.2-1-1
			c0.1-1.8,0.1-3.7,0-5.5c0-0.9,0.2-1.1,1.1-1.1c5.3,0.1,10.7,0,16,0c7.1,0,14.3,0,21.4,0c0.9,0,1.2,0.2,1.1,1.2
			c-0.1,1.8-0.1,3.6,0,5.4c0,0.9-0.2,1-1,1c-4.9,0-9.8,0-14.6,0c-1.5,0-2.3,0.7-2.3,1.8c0,1.2,0.9,1.9,2.4,1.9h17
			c1.8,0,2.3-0.6,2.4-2.4V108C113,106.1,112.4,105.5,110.6,105.5z M110.6,105.5H68.1c-1.4,0-2.2,0.6-2.2,1.9
			c-0.1,3.7-0.1,7.4,0,11.1c0,1.3,0.8,1.9,2.1,1.9c5.8,0,11.7,0,17.5,0c0.4,0,0.8,0,1.2-0.2c0.8-0.5,1.1-1.3,0.9-2.1
			c-0.3-1-1-1.4-2-1.4c-5,0-9.9,0-14.9,0c-0.8,0-1-0.2-1-1c0.1-1.8,0.1-3.7,0-5.5c0-0.9,0.2-1.1,1.1-1.1c5.3,0.1,10.7,0,16,0
			c7.1,0,14.3,0,21.4,0c0.9,0,1.2,0.2,1.1,1.2c-0.1,1.8-0.1,3.6,0,5.4c0,0.9-0.2,1-1,1c-4.9,0-9.8,0-14.6,0c-1.5,0-2.3,0.7-2.3,1.8
			c0,1.2,0.9,1.9,2.4,1.9h17c1.8,0,2.3-0.6,2.4-2.4V108C113,106.1,112.4,105.5,110.6,105.5z M59.7,105.5H17.2
			c-1.6,0-2.3,0.6-2.3,2.3v10.4c0,1.8,0.6,2.4,2.4,2.4h42.2c1.9,0,2.5-0.6,2.5-2.5c0-3.3,0-6.7,0-10
			C62.2,106.2,61.5,105.5,59.7,105.5z M57.2,116.8c-6.2,0-12.5,0-18.7,0c-6.2,0-12.4,0-18.6,0c-0.8,0-1.1-0.2-1.1-1.1
			c0.1-1.9,0.1-3.7,0-5.6c0-0.6,0.1-0.9,0.8-0.9c12.7,0,25.3,0,38,0c0.7,0,0.8,0.3,0.8,0.9c0,1.8-0.1,3.7,0,5.5
			C58.4,116.5,58.2,116.8,57.2,116.8z M59.7,105.5H17.2c-1.6,0-2.3,0.6-2.3,2.3v10.4c0,1.8,0.6,2.4,2.4,2.4h42.2
			c1.9,0,2.5-0.6,2.5-2.5c0-3.3,0-6.7,0-10C62.2,106.2,61.5,105.5,59.7,105.5z M57.2,116.8c-6.2,0-12.5,0-18.7,0
			c-6.2,0-12.4,0-18.6,0c-0.8,0-1.1-0.2-1.1-1.1c0.1-1.9,0.1-3.7,0-5.6c0-0.6,0.1-0.9,0.8-0.9c12.7,0,25.3,0,38,0
			c0.7,0,0.8,0.3,0.8,0.9c0,1.8-0.1,3.7,0,5.5C58.4,116.5,58.2,116.8,57.2,116.8z M59.7,79.3H17.2c-1.6,0-2.3,0.6-2.3,2.3v10.4
			c0,1.8,0.6,2.4,2.4,2.4h16.9c1.5,0,2.4-0.7,2.5-1.9c0-1.2-0.9-1.9-2.4-1.9c-4.9,0-9.8,0-14.6,0c-0.7,0-1-0.1-1-0.9
			c0.1-1.8,0.1-3.7,0-5.5c0-0.9,0.2-1.1,1.1-1.1c4.9,0.1,9.8,0,14.6,0c7.6,0,15.3,0,22.9,0c0.8,0,1.1,0.2,1,1
			c-0.1,1.8-0.1,3.7,0,5.5c0,0.8-0.2,1-1,1c-4.8,0-9.6,0-14.4,0c-1.7,0-2.5,0.6-2.5,1.9c0,1.2,0.8,1.8,2.4,1.8h16.9
			c1.8,0,2.5-0.6,2.5-2.4c0-3.4,0-6.8,0-10.3C62.2,79.9,61.5,79.3,59.7,79.3z M110.6,79.3H68.2c-1.7,0-2.4,0.6-2.4,2.3
			c0,3.5,0,7,0,10.5c0,1.6,0.7,2.2,2.3,2.2h42.6c1.6,0,2.2-0.6,2.2-2.3c0-3.5,0-6.9,0-10.4C113,79.8,112.4,79.3,110.6,79.3z
			 M108.2,90.5c-6.3,0-12.5,0-18.7,0c-6.2,0-12.4,0-18.6,0c-1,0-1.2-0.3-1.2-1.2c0.1-1.8,0.1-3.6,0-5.4c0-0.7,0.1-0.9,0.9-0.9
			c12.6,0,25.2,0,37.8,0c0.7,0,0.9,0.3,0.9,0.9c0,1.9-0.1,3.7,0,5.6C109.3,90.4,109,90.5,108.2,90.5z M110.6,105.5H68.1
			c-1.4,0-2.2,0.6-2.2,1.9c-0.1,3.7-0.1,7.4,0,11.1c0,1.3,0.8,1.9,2.1,1.9c5.8,0,11.7,0,17.5,0c0.4,0,0.8,0,1.2-0.2
			c0.8-0.5,1.1-1.3,0.9-2.1c-0.3-1-1-1.4-2-1.4c-5,0-9.9,0-14.9,0c-0.8,0-1-0.2-1-1c0.1-1.8,0.1-3.7,0-5.5c0-0.9,0.2-1.1,1.1-1.1
			c5.3,0.1,10.7,0,16,0c7.1,0,14.3,0,21.4,0c0.9,0,1.2,0.2,1.1,1.2c-0.1,1.8-0.1,3.6,0,5.4c0,0.9-0.2,1-1,1c-4.9,0-9.8,0-14.6,0
			c-1.5,0-2.3,0.7-2.3,1.8c0,1.2,0.9,1.9,2.4,1.9h17c1.8,0,2.3-0.6,2.4-2.4V108C113,106.1,112.4,105.5,110.6,105.5z M110.6,79.3
			H68.2c-1.7,0-2.4,0.6-2.4,2.3c0,3.5,0,7,0,10.5c0,1.6,0.7,2.2,2.3,2.2h42.6c1.6,0,2.2-0.6,2.2-2.3c0-3.5,0-6.9,0-10.4
			C113,79.8,112.4,79.3,110.6,79.3z M108.2,90.5c-6.3,0-12.5,0-18.7,0c-6.2,0-12.4,0-18.6,0c-1,0-1.2-0.3-1.2-1.2
			c0.1-1.8,0.1-3.6,0-5.4c0-0.7,0.1-0.9,0.9-0.9c12.6,0,25.2,0,37.8,0c0.7,0,0.9,0.3,0.9,0.9c0,1.9-0.1,3.7,0,5.6
			C109.3,90.4,109,90.5,108.2,90.5z M59.7,79.3H17.2c-1.6,0-2.3,0.6-2.3,2.3v10.4c0,1.8,0.6,2.4,2.4,2.4h16.9c1.5,0,2.4-0.7,2.5-1.9
			c0-1.2-0.9-1.9-2.4-1.9c-4.9,0-9.8,0-14.6,0c-0.7,0-1-0.1-1-0.9c0.1-1.8,0.1-3.7,0-5.5c0-0.9,0.2-1.1,1.1-1.1
			c4.9,0.1,9.8,0,14.6,0c7.6,0,15.3,0,22.9,0c0.8,0,1.1,0.2,1,1c-0.1,1.8-0.1,3.7,0,5.5c0,0.8-0.2,1-1,1c-4.8,0-9.6,0-14.4,0
			c-1.7,0-2.5,0.6-2.5,1.9c0,1.2,0.8,1.8,2.4,1.8h16.9c1.8,0,2.5-0.6,2.5-2.4c0-3.4,0-6.8,0-10.3C62.2,79.9,61.5,79.3,59.7,79.3z
			 M110.6,105.5H68.1c-1.4,0-2.2,0.6-2.2,1.9c-0.1,3.7-0.1,7.4,0,11.1c0,1.3,0.8,1.9,2.1,1.9c5.8,0,11.7,0,17.5,0
			c0.4,0,0.8,0,1.2-0.2c0.8-0.5,1.1-1.3,0.9-2.1c-0.3-1-1-1.4-2-1.4c-5,0-9.9,0-14.9,0c-0.8,0-1-0.2-1-1c0.1-1.8,0.1-3.7,0-5.5
			c0-0.9,0.2-1.1,1.1-1.1c5.3,0.1,10.7,0,16,0c7.1,0,14.3,0,21.4,0c0.9,0,1.2,0.2,1.1,1.2c-0.1,1.8-0.1,3.6,0,5.4c0,0.9-0.2,1-1,1
			c-4.9,0-9.8,0-14.6,0c-1.5,0-2.3,0.7-2.3,1.8c0,1.2,0.9,1.9,2.4,1.9h17c1.8,0,2.3-0.6,2.4-2.4V108
			C113,106.1,112.4,105.5,110.6,105.5z M59.7,105.5H17.2c-1.6,0-2.3,0.6-2.3,2.3v10.4c0,1.8,0.6,2.4,2.4,2.4h42.2
			c1.9,0,2.5-0.6,2.5-2.5c0-3.3,0-6.7,0-10C62.2,106.2,61.5,105.5,59.7,105.5z M57.2,116.8c-6.2,0-12.5,0-18.7,0
			c-6.2,0-12.4,0-18.6,0c-0.8,0-1.1-0.2-1.1-1.1c0.1-1.9,0.1-3.7,0-5.6c0-0.6,0.1-0.9,0.8-0.9c12.7,0,25.3,0,38,0
			c0.7,0,0.8,0.3,0.8,0.9c0,1.8-0.1,3.7,0,5.5C58.4,116.5,58.2,116.8,57.2,116.8z M59.7,105.5H17.2c-1.6,0-2.3,0.6-2.3,2.3v10.4
			c0,1.8,0.6,2.4,2.4,2.4h42.2c1.9,0,2.5-0.6,2.5-2.5c0-3.3,0-6.7,0-10C62.2,106.2,61.5,105.5,59.7,105.5z M57.2,116.8
			c-6.2,0-12.5,0-18.7,0c-6.2,0-12.4,0-18.6,0c-0.8,0-1.1-0.2-1.1-1.1c0.1-1.9,0.1-3.7,0-5.6c0-0.6,0.1-0.9,0.8-0.9
			c12.7,0,25.3,0,38,0c0.7,0,0.8,0.3,0.8,0.9c0,1.8-0.1,3.7,0,5.5C58.4,116.5,58.2,116.8,57.2,116.8z M59.7,79.3H17.2
			c-1.6,0-2.3,0.6-2.3,2.3v10.4c0,1.8,0.6,2.4,2.4,2.4h16.9c1.5,0,2.4-0.7,2.5-1.9c0-1.2-0.9-1.9-2.4-1.9c-4.9,0-9.8,0-14.6,0
			c-0.7,0-1-0.1-1-0.9c0.1-1.8,0.1-3.7,0-5.5c0-0.9,0.2-1.1,1.1-1.1c4.9,0.1,9.8,0,14.6,0c7.6,0,15.3,0,22.9,0c0.8,0,1.1,0.2,1,1
			c-0.1,1.8-0.1,3.7,0,5.5c0,0.8-0.2,1-1,1c-4.8,0-9.6,0-14.4,0c-1.7,0-2.5,0.6-2.5,1.9c0,1.2,0.8,1.8,2.4,1.8h16.9
			c1.8,0,2.5-0.6,2.5-2.4c0-3.4,0-6.8,0-10.3C62.2,79.9,61.5,79.3,59.7,79.3z M110.6,79.3H68.2c-1.7,0-2.4,0.6-2.4,2.3
			c0,3.5,0,7,0,10.5c0,1.6,0.7,2.2,2.3,2.2h42.6c1.6,0,2.2-0.6,2.2-2.3c0-3.5,0-6.9,0-10.4C113,79.8,112.4,79.3,110.6,79.3z
			 M108.2,90.5c-6.3,0-12.5,0-18.7,0c-6.2,0-12.4,0-18.6,0c-1,0-1.2-0.3-1.2-1.2c0.1-1.8,0.1-3.6,0-5.4c0-0.7,0.1-0.9,0.9-0.9
			c12.6,0,25.2,0,37.8,0c0.7,0,0.9,0.3,0.9,0.9c0,1.9-0.1,3.7,0,5.6C109.3,90.4,109,90.5,108.2,90.5z M110.6,105.5H68.1
			c-1.4,0-2.2,0.6-2.2,1.9c-0.1,3.7-0.1,7.4,0,11.1c0,1.3,0.8,1.9,2.1,1.9c5.8,0,11.7,0,17.5,0c0.4,0,0.8,0,1.2-0.2
			c0.8-0.5,1.1-1.3,0.9-2.1c-0.3-1-1-1.4-2-1.4c-5,0-9.9,0-14.9,0c-0.8,0-1-0.2-1-1c0.1-1.8,0.1-3.7,0-5.5c0-0.9,0.2-1.1,1.1-1.1
			c5.3,0.1,10.7,0,16,0c7.1,0,14.3,0,21.4,0c0.9,0,1.2,0.2,1.1,1.2c-0.1,1.8-0.1,3.6,0,5.4c0,0.9-0.2,1-1,1c-4.9,0-9.8,0-14.6,0
			c-1.5,0-2.3,0.7-2.3,1.8c0,1.2,0.9,1.9,2.4,1.9h17c1.8,0,2.3-0.6,2.4-2.4V108C113,106.1,112.4,105.5,110.6,105.5z M110.6,79.3
			H68.2c-1.7,0-2.4,0.6-2.4,2.3c0,3.5,0,7,0,10.5c0,1.6,0.7,2.2,2.3,2.2h42.6c1.6,0,2.2-0.6,2.2-2.3c0-3.5,0-6.9,0-10.4
			C113,79.8,112.4,79.3,110.6,79.3z M108.2,90.5c-6.3,0-12.5,0-18.7,0c-6.2,0-12.4,0-18.6,0c-1,0-1.2-0.3-1.2-1.2
			c0.1-1.8,0.1-3.6,0-5.4c0-0.7,0.1-0.9,0.9-0.9c12.6,0,25.2,0,37.8,0c0.7,0,0.9,0.3,0.9,0.9c0,1.9-0.1,3.7,0,5.6
			C109.3,90.4,109,90.5,108.2,90.5z M59.7,79.3H17.2c-1.6,0-2.3,0.6-2.3,2.3v10.4c0,1.8,0.6,2.4,2.4,2.4h16.9c1.5,0,2.4-0.7,2.5-1.9
			c0-1.2-0.9-1.9-2.4-1.9c-4.9,0-9.8,0-14.6,0c-0.7,0-1-0.1-1-0.9c0.1-1.8,0.1-3.7,0-5.5c0-0.9,0.2-1.1,1.1-1.1
			c4.9,0.1,9.8,0,14.6,0c7.6,0,15.3,0,22.9,0c0.8,0,1.1,0.2,1,1c-0.1,1.8-0.1,3.7,0,5.5c0,0.8-0.2,1-1,1c-4.8,0-9.6,0-14.4,0
			c-1.7,0-2.5,0.6-2.5,1.9c0,1.2,0.8,1.8,2.4,1.8h16.9c1.8,0,2.5-0.6,2.5-2.4c0-3.4,0-6.8,0-10.3C62.2,79.9,61.5,79.3,59.7,79.3z
			 M110.6,105.5H68.1c-1.4,0-2.2,0.6-2.2,1.9c-0.1,3.7-0.1,7.4,0,11.1c0,1.3,0.8,1.9,2.1,1.9c5.8,0,11.7,0,17.5,0
			c0.4,0,0.8,0,1.2-0.2c0.8-0.5,1.1-1.3,0.9-2.1c-0.3-1-1-1.4-2-1.4c-5,0-9.9,0-14.9,0c-0.8,0-1-0.2-1-1c0.1-1.8,0.1-3.7,0-5.5
			c0-0.9,0.2-1.1,1.1-1.1c5.3,0.1,10.7,0,16,0c7.1,0,14.3,0,21.4,0c0.9,0,1.2,0.2,1.1,1.2c-0.1,1.8-0.1,3.6,0,5.4c0,0.9-0.2,1-1,1
			c-4.9,0-9.8,0-14.6,0c-1.5,0-2.3,0.7-2.3,1.8c0,1.2,0.9,1.9,2.4,1.9h17c1.8,0,2.3-0.6,2.4-2.4V108
			C113,106.1,112.4,105.5,110.6,105.5z M59.7,105.5H17.2c-1.6,0-2.3,0.6-2.3,2.3v10.4c0,1.8,0.6,2.4,2.4,2.4h42.2
			c1.9,0,2.5-0.6,2.5-2.5c0-3.3,0-6.7,0-10C62.2,106.2,61.5,105.5,59.7,105.5z M57.2,116.8c-6.2,0-12.5,0-18.7,0
			c-6.2,0-12.4,0-18.6,0c-0.8,0-1.1-0.2-1.1-1.1c0.1-1.9,0.1-3.7,0-5.6c0-0.6,0.1-0.9,0.8-0.9c12.7,0,25.3,0,38,0
			c0.7,0,0.8,0.3,0.8,0.9c0,1.8-0.1,3.7,0,5.5C58.4,116.5,58.2,116.8,57.2,116.8z M59.7,105.5H17.2c-1.6,0-2.3,0.6-2.3,2.3v10.4
			c0,1.8,0.6,2.4,2.4,2.4h42.2c1.9,0,2.5-0.6,2.5-2.5c0-3.3,0-6.7,0-10C62.2,106.2,61.5,105.5,59.7,105.5z M57.2,116.8
			c-6.2,0-12.5,0-18.7,0c-6.2,0-12.4,0-18.6,0c-0.8,0-1.1-0.2-1.1-1.1c0.1-1.9,0.1-3.7,0-5.6c0-0.6,0.1-0.9,0.8-0.9
			c12.7,0,25.3,0,38,0c0.7,0,0.8,0.3,0.8,0.9c0,1.8-0.1,3.7,0,5.5C58.4,116.5,58.2,116.8,57.2,116.8z M59.7,79.3H17.2
			c-1.6,0-2.3,0.6-2.3,2.3v10.4c0,1.8,0.6,2.4,2.4,2.4h16.9c1.5,0,2.4-0.7,2.5-1.9c0-1.2-0.9-1.9-2.4-1.9c-4.9,0-9.8,0-14.6,0
			c-0.7,0-1-0.1-1-0.9c0.1-1.8,0.1-3.7,0-5.5c0-0.9,0.2-1.1,1.1-1.1c4.9,0.1,9.8,0,14.6,0c7.6,0,15.3,0,22.9,0c0.8,0,1.1,0.2,1,1
			c-0.1,1.8-0.1,3.7,0,5.5c0,0.8-0.2,1-1,1c-4.8,0-9.6,0-14.4,0c-1.7,0-2.5,0.6-2.5,1.9c0,1.2,0.8,1.8,2.4,1.8h16.9
			c1.8,0,2.5-0.6,2.5-2.4c0-3.4,0-6.8,0-10.3C62.2,79.9,61.5,79.3,59.7,79.3z M110.6,79.3H68.2c-1.7,0-2.4,0.6-2.4,2.3
			c0,3.5,0,7,0,10.5c0,1.6,0.7,2.2,2.3,2.2h42.6c1.6,0,2.2-0.6,2.2-2.3c0-3.5,0-6.9,0-10.4C113,79.8,112.4,79.3,110.6,79.3z
			 M108.2,90.5c-6.3,0-12.5,0-18.7,0c-6.2,0-12.4,0-18.6,0c-1,0-1.2-0.3-1.2-1.2c0.1-1.8,0.1-3.6,0-5.4c0-0.7,0.1-0.9,0.9-0.9
			c12.6,0,25.2,0,37.8,0c0.7,0,0.9,0.3,0.9,0.9c0,1.9-0.1,3.7,0,5.6C109.3,90.4,109,90.5,108.2,90.5z M110.6,105.5H68.1
			c-1.4,0-2.2,0.6-2.2,1.9c-0.1,3.7-0.1,7.4,0,11.1c0,1.3,0.8,1.9,2.1,1.9c5.8,0,11.7,0,17.5,0c0.4,0,0.8,0,1.2-0.2
			c0.8-0.5,1.1-1.3,0.9-2.1c-0.3-1-1-1.4-2-1.4c-5,0-9.9,0-14.9,0c-0.8,0-1-0.2-1-1c0.1-1.8,0.1-3.7,0-5.5c0-0.9,0.2-1.1,1.1-1.1
			c5.3,0.1,10.7,0,16,0c7.1,0,14.3,0,21.4,0c0.9,0,1.2,0.2,1.1,1.2c-0.1,1.8-0.1,3.6,0,5.4c0,0.9-0.2,1-1,1c-4.9,0-9.8,0-14.6,0
			c-1.5,0-2.3,0.7-2.3,1.8c0,1.2,0.9,1.9,2.4,1.9h17c1.8,0,2.3-0.6,2.4-2.4V108C113,106.1,112.4,105.5,110.6,105.5z M110.6,79.3
			H68.2c-1.7,0-2.4,0.6-2.4,2.3c0,3.5,0,7,0,10.5c0,1.6,0.7,2.2,2.3,2.2h42.6c1.6,0,2.2-0.6,2.2-2.3c0-3.5,0-6.9,0-10.4
			C113,79.8,112.4,79.3,110.6,79.3z M108.2,90.5c-6.3,0-12.5,0-18.7,0c-6.2,0-12.4,0-18.6,0c-1,0-1.2-0.3-1.2-1.2
			c0.1-1.8,0.1-3.6,0-5.4c0-0.7,0.1-0.9,0.9-0.9c12.6,0,25.2,0,37.8,0c0.7,0,0.9,0.3,0.9,0.9c0,1.9-0.1,3.7,0,5.6
			C109.3,90.4,109,90.5,108.2,90.5z M59.7,79.3H17.2c-1.6,0-2.3,0.6-2.3,2.3v10.4c0,1.8,0.6,2.4,2.4,2.4h16.9c1.5,0,2.4-0.7,2.5-1.9
			c0-1.2-0.9-1.9-2.4-1.9c-4.9,0-9.8,0-14.6,0c-0.7,0-1-0.1-1-0.9c0.1-1.8,0.1-3.7,0-5.5c0-0.9,0.2-1.1,1.1-1.1
			c4.9,0.1,9.8,0,14.6,0c7.6,0,15.3,0,22.9,0c0.8,0,1.1,0.2,1,1c-0.1,1.8-0.1,3.7,0,5.5c0,0.8-0.2,1-1,1c-4.8,0-9.6,0-14.4,0
			c-1.7,0-2.5,0.6-2.5,1.9c0,1.2,0.8,1.8,2.4,1.8h16.9c1.8,0,2.5-0.6,2.5-2.4c0-3.4,0-6.8,0-10.3C62.2,79.9,61.5,79.3,59.7,79.3z
			 M110.6,105.5H68.1c-1.4,0-2.2,0.6-2.2,1.9c-0.1,3.7-0.1,7.4,0,11.1c0,1.3,0.8,1.9,2.1,1.9c5.8,0,11.7,0,17.5,0
			c0.4,0,0.8,0,1.2-0.2c0.8-0.5,1.1-1.3,0.9-2.1c-0.3-1-1-1.4-2-1.4c-5,0-9.9,0-14.9,0c-0.8,0-1-0.2-1-1c0.1-1.8,0.1-3.7,0-5.5
			c0-0.9,0.2-1.1,1.1-1.1c5.3,0.1,10.7,0,16,0c7.1,0,14.3,0,21.4,0c0.9,0,1.2,0.2,1.1,1.2c-0.1,1.8-0.1,3.6,0,5.4c0,0.9-0.2,1-1,1
			c-4.9,0-9.8,0-14.6,0c-1.5,0-2.3,0.7-2.3,1.8c0,1.2,0.9,1.9,2.4,1.9h17c1.8,0,2.3-0.6,2.4-2.4V108
			C113,106.1,112.4,105.5,110.6,105.5z M59.7,105.5H17.2c-1.6,0-2.3,0.6-2.3,2.3v10.4c0,1.8,0.6,2.4,2.4,2.4h42.2
			c1.9,0,2.5-0.6,2.5-2.5c0-3.3,0-6.7,0-10C62.2,106.2,61.5,105.5,59.7,105.5z M57.2,116.8c-6.2,0-12.5,0-18.7,0
			c-6.2,0-12.4,0-18.6,0c-0.8,0-1.1-0.2-1.1-1.1c0.1-1.9,0.1-3.7,0-5.6c0-0.6,0.1-0.9,0.8-0.9c12.7,0,25.3,0,38,0
			c0.7,0,0.8,0.3,0.8,0.9c0,1.8-0.1,3.7,0,5.5C58.4,116.5,58.2,116.8,57.2,116.8z M59.7,105.5H17.2c-1.6,0-2.3,0.6-2.3,2.3v10.4
			c0,1.8,0.6,2.4,2.4,2.4h42.2c1.9,0,2.5-0.6,2.5-2.5c0-3.3,0-6.7,0-10C62.2,106.2,61.5,105.5,59.7,105.5z M57.2,116.8
			c-6.2,0-12.5,0-18.7,0c-6.2,0-12.4,0-18.6,0c-0.8,0-1.1-0.2-1.1-1.1c0.1-1.9,0.1-3.7,0-5.6c0-0.6,0.1-0.9,0.8-0.9
			c12.7,0,25.3,0,38,0c0.7,0,0.8,0.3,0.8,0.9c0,1.8-0.1,3.7,0,5.5C58.4,116.5,58.2,116.8,57.2,116.8z M59.7,79.3H17.2
			c-1.6,0-2.3,0.6-2.3,2.3v10.4c0,1.8,0.6,2.4,2.4,2.4h16.9c1.5,0,2.4-0.7,2.5-1.9c0-1.2-0.9-1.9-2.4-1.9c-4.9,0-9.8,0-14.6,0
			c-0.7,0-1-0.1-1-0.9c0.1-1.8,0.1-3.7,0-5.5c0-0.9,0.2-1.1,1.1-1.1c4.9,0.1,9.8,0,14.6,0c7.6,0,15.3,0,22.9,0c0.8,0,1.1,0.2,1,1
			c-0.1,1.8-0.1,3.7,0,5.5c0,0.8-0.2,1-1,1c-4.8,0-9.6,0-14.4,0c-1.7,0-2.5,0.6-2.5,1.9c0,1.2,0.8,1.8,2.4,1.8h16.9
			c1.8,0,2.5-0.6,2.5-2.4c0-3.4,0-6.8,0-10.3C62.2,79.9,61.5,79.3,59.7,79.3z M110.6,79.3H68.2c-1.7,0-2.4,0.6-2.4,2.3
			c0,3.5,0,7,0,10.5c0,1.6,0.7,2.2,2.3,2.2h42.6c1.6,0,2.2-0.6,2.2-2.3c0-3.5,0-6.9,0-10.4C113,79.8,112.4,79.3,110.6,79.3z
			 M108.2,90.5c-6.3,0-12.5,0-18.7,0c-6.2,0-12.4,0-18.6,0c-1,0-1.2-0.3-1.2-1.2c0.1-1.8,0.1-3.6,0-5.4c0-0.7,0.1-0.9,0.9-0.9
			c12.6,0,25.2,0,37.8,0c0.7,0,0.9,0.3,0.9,0.9c0,1.9-0.1,3.7,0,5.6C109.3,90.4,109,90.5,108.2,90.5z M110.6,105.5H68.1
			c-1.4,0-2.2,0.6-2.2,1.9c-0.1,3.7-0.1,7.4,0,11.1c0,1.3,0.8,1.9,2.1,1.9c5.8,0,11.7,0,17.5,0c0.4,0,0.8,0,1.2-0.2
			c0.8-0.5,1.1-1.3,0.9-2.1c-0.3-1-1-1.4-2-1.4c-5,0-9.9,0-14.9,0c-0.8,0-1-0.2-1-1c0.1-1.8,0.1-3.7,0-5.5c0-0.9,0.2-1.1,1.1-1.1
			c5.3,0.1,10.7,0,16,0c7.1,0,14.3,0,21.4,0c0.9,0,1.2,0.2,1.1,1.2c-0.1,1.8-0.1,3.6,0,5.4c0,0.9-0.2,1-1,1c-4.9,0-9.8,0-14.6,0
			c-1.5,0-2.3,0.7-2.3,1.8c0,1.2,0.9,1.9,2.4,1.9h17c1.8,0,2.3-0.6,2.4-2.4V108C113,106.1,112.4,105.5,110.6,105.5z M110.6,79.3
			H68.2c-1.7,0-2.4,0.6-2.4,2.3c0,3.5,0,7,0,10.5c0,1.6,0.7,2.2,2.3,2.2h42.6c1.6,0,2.2-0.6,2.2-2.3c0-3.5,0-6.9,0-10.4
			C113,79.8,112.4,79.3,110.6,79.3z M108.2,90.5c-6.3,0-12.5,0-18.7,0c-6.2,0-12.4,0-18.6,0c-1,0-1.2-0.3-1.2-1.2
			c0.1-1.8,0.1-3.6,0-5.4c0-0.7,0.1-0.9,0.9-0.9c12.6,0,25.2,0,37.8,0c0.7,0,0.9,0.3,0.9,0.9c0,1.9-0.1,3.7,0,5.6
			C109.3,90.4,109,90.5,108.2,90.5z M59.7,79.3H17.2c-1.6,0-2.3,0.6-2.3,2.3v10.4c0,1.8,0.6,2.4,2.4,2.4h16.9c1.5,0,2.4-0.7,2.5-1.9
			c0-1.2-0.9-1.9-2.4-1.9c-4.9,0-9.8,0-14.6,0c-0.7,0-1-0.1-1-0.9c0.1-1.8,0.1-3.7,0-5.5c0-0.9,0.2-1.1,1.1-1.1
			c4.9,0.1,9.8,0,14.6,0c7.6,0,15.3,0,22.9,0c0.8,0,1.1,0.2,1,1c-0.1,1.8-0.1,3.7,0,5.5c0,0.8-0.2,1-1,1c-4.8,0-9.6,0-14.4,0
			c-1.7,0-2.5,0.6-2.5,1.9c0,1.2,0.8,1.8,2.4,1.8h16.9c1.8,0,2.5-0.6,2.5-2.4c0-3.4,0-6.8,0-10.3C62.2,79.9,61.5,79.3,59.7,79.3z
			 M110.6,105.5H68.1c-1.4,0-2.2,0.6-2.2,1.9c-0.1,3.7-0.1,7.4,0,11.1c0,1.3,0.8,1.9,2.1,1.9c5.8,0,11.7,0,17.5,0
			c0.4,0,0.8,0,1.2-0.2c0.8-0.5,1.1-1.3,0.9-2.1c-0.3-1-1-1.4-2-1.4c-5,0-9.9,0-14.9,0c-0.8,0-1-0.2-1-1c0.1-1.8,0.1-3.7,0-5.5
			c0-0.9,0.2-1.1,1.1-1.1c5.3,0.1,10.7,0,16,0c7.1,0,14.3,0,21.4,0c0.9,0,1.2,0.2,1.1,1.2c-0.1,1.8-0.1,3.6,0,5.4c0,0.9-0.2,1-1,1
			c-4.9,0-9.8,0-14.6,0c-1.5,0-2.3,0.7-2.3,1.8c0,1.2,0.9,1.9,2.4,1.9h17c1.8,0,2.3-0.6,2.4-2.4V108
			C113,106.1,112.4,105.5,110.6,105.5z M59.7,105.5H17.2c-1.6,0-2.3,0.6-2.3,2.3v10.4c0,1.8,0.6,2.4,2.4,2.4h42.2
			c1.9,0,2.5-0.6,2.5-2.5c0-3.3,0-6.7,0-10C62.2,106.2,61.5,105.5,59.7,105.5z M57.2,116.8c-6.2,0-12.5,0-18.7,0
			c-6.2,0-12.4,0-18.6,0c-0.8,0-1.1-0.2-1.1-1.1c0.1-1.9,0.1-3.7,0-5.6c0-0.6,0.1-0.9,0.8-0.9c12.7,0,25.3,0,38,0
			c0.7,0,0.8,0.3,0.8,0.9c0,1.8-0.1,3.7,0,5.5C58.4,116.5,58.2,116.8,57.2,116.8z M122.2,86.4c-1.1,0-1.4-0.3-1.4-1.3
			c0-3.6,0-7.2,0-10.7c0-2.2-0.8-2.9-2.9-2.9c-3.7,0-7.4,0-11.1,0H75.4c-1.5,0-1.5-0.1-1.6-1.6c0-1.8,0-3.6,0-5.4
			c0-1.8,0-1.8,1.7-2.5c5.3-2.1,9.9-5.3,13.5-9.8c5.4-6.7,7.8-14.4,7.1-23C95.1,15.9,85.6,4.6,73,0.9c-1.9-0.6-3.8-0.6-5.7-0.9h-6.8
			c-1.1,0.5-2.4,0.5-3.5,0.7c-17,3.8-28.1,21.2-24.1,38C35.6,50.2,42.6,58,53.7,62c0.7,0.3,0.9,0.6,0.9,1.3c0,2.4-0.1,4.8,0,7.1
			c0.1,1.2-0.3,1.3-1.4,1.3c-14.4,0-28.8,0-43.2,0c-1.9,0-2.5,0.6-2.5,2.4c0,3.3,0,6.6,0,9.9V87C3.2,86,0,88.5,0,92.7v14.1
			c0,4.4,3.1,6.9,7.5,5.9v12.6c0,2.1,0.5,2.6,2.7,2.6h107.7c2.1,0,2.6-0.5,2.6-2.7c0-3.8,0-7.7,0-11.5c0-0.3-0.1-0.7,0.1-1.1
			c1.5,0.4,3,0.3,4.4-0.4c1.5-0.8,2.3-2.2,3-3.6V91C127.3,88.1,125.2,86.4,122.2,86.4z M7.5,106.8c0,1.5-0.7,2.5-1.9,2.4
			s-1.8-0.9-1.9-2.5V93c0-1.6,0.7-2.5,1.9-2.5c1.1,0,1.9,0.9,1.9,2.4C7.5,97.6,7.5,102.2,7.5,106.8z M36.1,28.7
			C37.8,13.6,51,3,65.4,3.8c16,0.9,26.8,14.3,26.7,28.3C91.9,46.3,81.3,56,73.8,57.9c0.6-1.7,1.6-3,2.9-4.3c2.5-2.6,5.3-4.9,7.3-7.9
			c10.2-14.5,1.6-35.2-15.9-38c-13.6-2.2-26.5,7.1-28.3,20.7c-1,7.7,1.2,14.5,6.6,20.2c1.7,1.8,3.6,3.6,5.4,5.4
			c1.1,1.1,1.9,2.3,2.3,3.8C43.4,54.4,34.5,42.6,36.1,28.7z M81.8,30C75.9,30,70,30,64,30c-5.9,0-11.7,0-17.6,0
			c-2.2,0-2.9-0.9-2.4-3c1.9-8.1,9.2-14.6,17.6-15.5c10.6-1.1,20.1,5.6,22.4,15.9C84.4,29.1,83.7,30,81.8,30z M49.6,46.6
			c-3.4-3.4-5.4-7.4-6-12.2c-0.1-0.3-0.2-0.7,0-0.8h41c-0.1,2-0.6,4-1.4,5.9c-1.1,2.8-2.7,5.1-4.8,7.2c-1.7,1.6-3.3,3.3-4.9,5
			c-2.6,2.7-3.8,5.9-3.8,9.6c0,3.1-0.1,6.2,0,9.4c0,1-0.3,1.1-1.2,1.1c-2.9-0.1-5.8-0.1-8.7,0c-0.9,0-1.2-0.2-1.3-1.2
			c0-3.8,0.2-7.6-0.1-11.4c-0.3-2.7-1.3-5-3.1-6.9C53.4,50.3,51.5,48.5,49.6,46.6z M116.8,123.1c0,0.9-0.2,1.1-1.1,1.1
			c-34.4,0-68.8,0-103.2,0c-0.9,0-1.2-0.2-1.1-1.1c0-6.8,0-13.5,0-20.2c0-0.9,0.2-1.2,1.1-1.2c17.2,0,34.5,0,51.7,0
			c17.1,0,34.2,0,51.4,0c1,0,1.3,0.2,1.3,1.3C116.7,109.7,116.7,116.4,116.8,123.1z M116.8,96.9c0,0.9-0.2,1.1-1.1,1.1
			c-34.4,0-68.8,0-103.2,0c-0.9,0-1.2-0.2-1.1-1.2c0-6.7,0-13.5,0-20.2c0-0.9,0.2-1.1,1.1-1.1c17.2,0,34.5,0,51.7,0
			c17.1,0,34.2,0,51.4,0c1,0,1.3,0.2,1.3,1.3C116.7,83.4,116.7,90.2,116.8,96.9z M124.2,99.9c0,2.3,0,4.6,0,6.9
			c0,1.6-0.7,2.5-1.8,2.5c-1.2,0-1.9-0.9-1.9-2.4V92.9c0-1.5,0.7-2.5,1.9-2.4c1.2,0,1.8,0.9,1.8,2.5
			C124.3,95.3,124.2,97.6,124.2,99.9z M110.6,105.5H68.1c-1.4,0-2.2,0.6-2.2,1.9c-0.1,3.7-0.1,7.4,0,11.1c0,1.3,0.8,1.9,2.1,1.9
			c5.8,0,11.7,0,17.5,0c0.4,0,0.8,0,1.2-0.2c0.8-0.5,1.1-1.3,0.9-2.1c-0.3-1-1-1.4-2-1.4c-5,0-9.9,0-14.9,0c-0.8,0-1-0.2-1-1
			c0.1-1.8,0.1-3.7,0-5.5c0-0.9,0.2-1.1,1.1-1.1c5.3,0.1,10.7,0,16,0c7.1,0,14.3,0,21.4,0c0.9,0,1.2,0.2,1.1,1.2
			c-0.1,1.8-0.1,3.6,0,5.4c0,0.9-0.2,1-1,1c-4.9,0-9.8,0-14.6,0c-1.5,0-2.3,0.7-2.3,1.8c0,1.2,0.9,1.9,2.4,1.9h17
			c1.8,0,2.3-0.6,2.4-2.4V108C113,106.1,112.4,105.5,110.6,105.5z M110.6,79.3H68.2c-1.7,0-2.4,0.6-2.4,2.3c0,3.5,0,7,0,10.5
			c0,1.6,0.7,2.2,2.3,2.2h42.6c1.6,0,2.2-0.6,2.2-2.3c0-3.5,0-6.9,0-10.4C113,79.8,112.4,79.3,110.6,79.3z M108.2,90.5
			c-6.3,0-12.5,0-18.7,0c-6.2,0-12.4,0-18.6,0c-1,0-1.2-0.3-1.2-1.2c0.1-1.8,0.1-3.6,0-5.4c0-0.7,0.1-0.9,0.9-0.9
			c12.6,0,25.2,0,37.8,0c0.7,0,0.9,0.3,0.9,0.9c0,1.9-0.1,3.7,0,5.6C109.3,90.4,109,90.5,108.2,90.5z M59.7,79.3H17.2
			c-1.6,0-2.3,0.6-2.3,2.3v10.4c0,1.8,0.6,2.4,2.4,2.4h16.9c1.5,0,2.4-0.7,2.5-1.9c0-1.2-0.9-1.9-2.4-1.9c-4.9,0-9.8,0-14.6,0
			c-0.7,0-1-0.1-1-0.9c0.1-1.8,0.1-3.7,0-5.5c0-0.9,0.2-1.1,1.1-1.1c4.9,0.1,9.8,0,14.6,0c7.6,0,15.3,0,22.9,0c0.8,0,1.1,0.2,1,1
			c-0.1,1.8-0.1,3.7,0,5.5c0,0.8-0.2,1-1,1c-4.8,0-9.6,0-14.4,0c-1.7,0-2.5,0.6-2.5,1.9c0,1.2,0.8,1.8,2.4,1.8h16.9
			c1.8,0,2.5-0.6,2.5-2.4c0-3.4,0-6.8,0-10.3C62.2,79.9,61.5,79.3,59.7,79.3z M59.7,105.5H17.2c-1.6,0-2.3,0.6-2.3,2.3v10.4
			c0,1.8,0.6,2.4,2.4,2.4h42.2c1.9,0,2.5-0.6,2.5-2.5c0-3.3,0-6.7,0-10C62.2,106.2,61.5,105.5,59.7,105.5z M57.2,116.8
			c-6.2,0-12.5,0-18.7,0c-6.2,0-12.4,0-18.6,0c-0.8,0-1.1-0.2-1.1-1.1c0.1-1.9,0.1-3.7,0-5.6c0-0.6,0.1-0.9,0.8-0.9
			c12.7,0,25.3,0,38,0c0.7,0,0.8,0.3,0.8,0.9c0,1.8-0.1,3.7,0,5.5C58.4,116.5,58.2,116.8,57.2,116.8z M59.7,105.5H17.2
			c-1.6,0-2.3,0.6-2.3,2.3v10.4c0,1.8,0.6,2.4,2.4,2.4h42.2c1.9,0,2.5-0.6,2.5-2.5c0-3.3,0-6.7,0-10
			C62.2,106.2,61.5,105.5,59.7,105.5z M57.2,116.8c-6.2,0-12.5,0-18.7,0c-6.2,0-12.4,0-18.6,0c-0.8,0-1.1-0.2-1.1-1.1
			c0.1-1.9,0.1-3.7,0-5.6c0-0.6,0.1-0.9,0.8-0.9c12.7,0,25.3,0,38,0c0.7,0,0.8,0.3,0.8,0.9c0,1.8-0.1,3.7,0,5.5
			C58.4,116.5,58.2,116.8,57.2,116.8z M110.6,105.5H68.1c-1.4,0-2.2,0.6-2.2,1.9c-0.1,3.7-0.1,7.4,0,11.1c0,1.3,0.8,1.9,2.1,1.9
			c5.8,0,11.7,0,17.5,0c0.4,0,0.8,0,1.2-0.2c0.8-0.5,1.1-1.3,0.9-2.1c-0.3-1-1-1.4-2-1.4c-5,0-9.9,0-14.9,0c-0.8,0-1-0.2-1-1
			c0.1-1.8,0.1-3.7,0-5.5c0-0.9,0.2-1.1,1.1-1.1c5.3,0.1,10.7,0,16,0c7.1,0,14.3,0,21.4,0c0.9,0,1.2,0.2,1.1,1.2
			c-0.1,1.8-0.1,3.6,0,5.4c0,0.9-0.2,1-1,1c-4.9,0-9.8,0-14.6,0c-1.5,0-2.3,0.7-2.3,1.8c0,1.2,0.9,1.9,2.4,1.9h17
			c1.8,0,2.3-0.6,2.4-2.4V108C113,106.1,112.4,105.5,110.6,105.5z M59.7,79.3H17.2c-1.6,0-2.3,0.6-2.3,2.3v10.4
			c0,1.8,0.6,2.4,2.4,2.4h16.9c1.5,0,2.4-0.7,2.5-1.9c0-1.2-0.9-1.9-2.4-1.9c-4.9,0-9.8,0-14.6,0c-0.7,0-1-0.1-1-0.9
			c0.1-1.8,0.1-3.7,0-5.5c0-0.9,0.2-1.1,1.1-1.1c4.9,0.1,9.8,0,14.6,0c7.6,0,15.3,0,22.9,0c0.8,0,1.1,0.2,1,1
			c-0.1,1.8-0.1,3.7,0,5.5c0,0.8-0.2,1-1,1c-4.8,0-9.6,0-14.4,0c-1.7,0-2.5,0.6-2.5,1.9c0,1.2,0.8,1.8,2.4,1.8h16.9
			c1.8,0,2.5-0.6,2.5-2.4c0-3.4,0-6.8,0-10.3C62.2,79.9,61.5,79.3,59.7,79.3z M110.6,79.3H68.2c-1.7,0-2.4,0.6-2.4,2.3
			c0,3.5,0,7,0,10.5c0,1.6,0.7,2.2,2.3,2.2h42.6c1.6,0,2.2-0.6,2.2-2.3c0-3.5,0-6.9,0-10.4C113,79.8,112.4,79.3,110.6,79.3z
			 M108.2,90.5c-6.3,0-12.5,0-18.7,0c-6.2,0-12.4,0-18.6,0c-1,0-1.2-0.3-1.2-1.2c0.1-1.8,0.1-3.6,0-5.4c0-0.7,0.1-0.9,0.9-0.9
			c12.6,0,25.2,0,37.8,0c0.7,0,0.9,0.3,0.9,0.9c0,1.9-0.1,3.7,0,5.6C109.3,90.4,109,90.5,108.2,90.5z M110.6,105.5H68.1
			c-1.4,0-2.2,0.6-2.2,1.9c-0.1,3.7-0.1,7.4,0,11.1c0,1.3,0.8,1.9,2.1,1.9c5.8,0,11.7,0,17.5,0c0.4,0,0.8,0,1.2-0.2
			c0.8-0.5,1.1-1.3,0.9-2.1c-0.3-1-1-1.4-2-1.4c-5,0-9.9,0-14.9,0c-0.8,0-1-0.2-1-1c0.1-1.8,0.1-3.7,0-5.5c0-0.9,0.2-1.1,1.1-1.1
			c5.3,0.1,10.7,0,16,0c7.1,0,14.3,0,21.4,0c0.9,0,1.2,0.2,1.1,1.2c-0.1,1.8-0.1,3.6,0,5.4c0,0.9-0.2,1-1,1c-4.9,0-9.8,0-14.6,0
			c-1.5,0-2.3,0.7-2.3,1.8c0,1.2,0.9,1.9,2.4,1.9h17c1.8,0,2.3-0.6,2.4-2.4V108C113,106.1,112.4,105.5,110.6,105.5z M110.6,79.3
			H68.2c-1.7,0-2.4,0.6-2.4,2.3c0,3.5,0,7,0,10.5c0,1.6,0.7,2.2,2.3,2.2h42.6c1.6,0,2.2-0.6,2.2-2.3c0-3.5,0-6.9,0-10.4
			C113,79.8,112.4,79.3,110.6,79.3z M108.2,90.5c-6.3,0-12.5,0-18.7,0c-6.2,0-12.4,0-18.6,0c-1,0-1.2-0.3-1.2-1.2
			c0.1-1.8,0.1-3.6,0-5.4c0-0.7,0.1-0.9,0.9-0.9c12.6,0,25.2,0,37.8,0c0.7,0,0.9,0.3,0.9,0.9c0,1.9-0.1,3.7,0,5.6
			C109.3,90.4,109,90.5,108.2,90.5z M59.7,79.3H17.2c-1.6,0-2.3,0.6-2.3,2.3v10.4c0,1.8,0.6,2.4,2.4,2.4h16.9c1.5,0,2.4-0.7,2.5-1.9
			c0-1.2-0.9-1.9-2.4-1.9c-4.9,0-9.8,0-14.6,0c-0.7,0-1-0.1-1-0.9c0.1-1.8,0.1-3.7,0-5.5c0-0.9,0.2-1.1,1.1-1.1
			c4.9,0.1,9.8,0,14.6,0c7.6,0,15.3,0,22.9,0c0.8,0,1.1,0.2,1,1c-0.1,1.8-0.1,3.7,0,5.5c0,0.8-0.2,1-1,1c-4.8,0-9.6,0-14.4,0
			c-1.7,0-2.5,0.6-2.5,1.9c0,1.2,0.8,1.8,2.4,1.8h16.9c1.8,0,2.5-0.6,2.5-2.4c0-3.4,0-6.8,0-10.3C62.2,79.9,61.5,79.3,59.7,79.3z
			 M59.7,105.5H17.2c-1.6,0-2.3,0.6-2.3,2.3v10.4c0,1.8,0.6,2.4,2.4,2.4h42.2c1.9,0,2.5-0.6,2.5-2.5c0-3.3,0-6.7,0-10
			C62.2,106.2,61.5,105.5,59.7,105.5z M57.2,116.8c-6.2,0-12.5,0-18.7,0c-6.2,0-12.4,0-18.6,0c-0.8,0-1.1-0.2-1.1-1.1
			c0.1-1.9,0.1-3.7,0-5.6c0-0.6,0.1-0.9,0.8-0.9c12.7,0,25.3,0,38,0c0.7,0,0.8,0.3,0.8,0.9c0,1.8-0.1,3.7,0,5.5
			C58.4,116.5,58.2,116.8,57.2,116.8z M59.7,105.5H17.2c-1.6,0-2.3,0.6-2.3,2.3v10.4c0,1.8,0.6,2.4,2.4,2.4h42.2
			c1.9,0,2.5-0.6,2.5-2.5c0-3.3,0-6.7,0-10C62.2,106.2,61.5,105.5,59.7,105.5z M57.2,116.8c-6.2,0-12.5,0-18.7,0
			c-6.2,0-12.4,0-18.6,0c-0.8,0-1.1-0.2-1.1-1.1c0.1-1.9,0.1-3.7,0-5.6c0-0.6,0.1-0.9,0.8-0.9c12.7,0,25.3,0,38,0
			c0.7,0,0.8,0.3,0.8,0.9c0,1.8-0.1,3.7,0,5.5C58.4,116.5,58.2,116.8,57.2,116.8z M110.6,105.5H68.1c-1.4,0-2.2,0.6-2.2,1.9
			c-0.1,3.7-0.1,7.4,0,11.1c0,1.3,0.8,1.9,2.1,1.9c5.8,0,11.7,0,17.5,0c0.4,0,0.8,0,1.2-0.2c0.8-0.5,1.1-1.3,0.9-2.1
			c-0.3-1-1-1.4-2-1.4c-5,0-9.9,0-14.9,0c-0.8,0-1-0.2-1-1c0.1-1.8,0.1-3.7,0-5.5c0-0.9,0.2-1.1,1.1-1.1c5.3,0.1,10.7,0,16,0
			c7.1,0,14.3,0,21.4,0c0.9,0,1.2,0.2,1.1,1.2c-0.1,1.8-0.1,3.6,0,5.4c0,0.9-0.2,1-1,1c-4.9,0-9.8,0-14.6,0c-1.5,0-2.3,0.7-2.3,1.8
			c0,1.2,0.9,1.9,2.4,1.9h17c1.8,0,2.3-0.6,2.4-2.4V108C113,106.1,112.4,105.5,110.6,105.5z M59.7,79.3H17.2c-1.6,0-2.3,0.6-2.3,2.3
			v10.4c0,1.8,0.6,2.4,2.4,2.4h16.9c1.5,0,2.4-0.7,2.5-1.9c0-1.2-0.9-1.9-2.4-1.9c-4.9,0-9.8,0-14.6,0c-0.7,0-1-0.1-1-0.9
			c0.1-1.8,0.1-3.7,0-5.5c0-0.9,0.2-1.1,1.1-1.1c4.9,0.1,9.8,0,14.6,0c7.6,0,15.3,0,22.9,0c0.8,0,1.1,0.2,1,1
			c-0.1,1.8-0.1,3.7,0,5.5c0,0.8-0.2,1-1,1c-4.8,0-9.6,0-14.4,0c-1.7,0-2.5,0.6-2.5,1.9c0,1.2,0.8,1.8,2.4,1.8h16.9
			c1.8,0,2.5-0.6,2.5-2.4c0-3.4,0-6.8,0-10.3C62.2,79.9,61.5,79.3,59.7,79.3z M110.6,79.3H68.2c-1.7,0-2.4,0.6-2.4,2.3
			c0,3.5,0,7,0,10.5c0,1.6,0.7,2.2,2.3,2.2h42.6c1.6,0,2.2-0.6,2.2-2.3c0-3.5,0-6.9,0-10.4C113,79.8,112.4,79.3,110.6,79.3z
			 M108.2,90.5c-6.3,0-12.5,0-18.7,0c-6.2,0-12.4,0-18.6,0c-1,0-1.2-0.3-1.2-1.2c0.1-1.8,0.1-3.6,0-5.4c0-0.7,0.1-0.9,0.9-0.9
			c12.6,0,25.2,0,37.8,0c0.7,0,0.9,0.3,0.9,0.9c0,1.9-0.1,3.7,0,5.6C109.3,90.4,109,90.5,108.2,90.5z M110.6,105.5H68.1
			c-1.4,0-2.2,0.6-2.2,1.9c-0.1,3.7-0.1,7.4,0,11.1c0,1.3,0.8,1.9,2.1,1.9c5.8,0,11.7,0,17.5,0c0.4,0,0.8,0,1.2-0.2
			c0.8-0.5,1.1-1.3,0.9-2.1c-0.3-1-1-1.4-2-1.4c-5,0-9.9,0-14.9,0c-0.8,0-1-0.2-1-1c0.1-1.8,0.1-3.7,0-5.5c0-0.9,0.2-1.1,1.1-1.1
			c5.3,0.1,10.7,0,16,0c7.1,0,14.3,0,21.4,0c0.9,0,1.2,0.2,1.1,1.2c-0.1,1.8-0.1,3.6,0,5.4c0,0.9-0.2,1-1,1c-4.9,0-9.8,0-14.6,0
			c-1.5,0-2.3,0.7-2.3,1.8c0,1.2,0.9,1.9,2.4,1.9h17c1.8,0,2.3-0.6,2.4-2.4V108C113,106.1,112.4,105.5,110.6,105.5z M110.6,79.3
			H68.2c-1.7,0-2.4,0.6-2.4,2.3c0,3.5,0,7,0,10.5c0,1.6,0.7,2.2,2.3,2.2h42.6c1.6,0,2.2-0.6,2.2-2.3c0-3.5,0-6.9,0-10.4
			C113,79.8,112.4,79.3,110.6,79.3z M108.2,90.5c-6.3,0-12.5,0-18.7,0c-6.2,0-12.4,0-18.6,0c-1,0-1.2-0.3-1.2-1.2
			c0.1-1.8,0.1-3.6,0-5.4c0-0.7,0.1-0.9,0.9-0.9c12.6,0,25.2,0,37.8,0c0.7,0,0.9,0.3,0.9,0.9c0,1.9-0.1,3.7,0,5.6
			C109.3,90.4,109,90.5,108.2,90.5z M59.7,79.3H17.2c-1.6,0-2.3,0.6-2.3,2.3v10.4c0,1.8,0.6,2.4,2.4,2.4h16.9c1.5,0,2.4-0.7,2.5-1.9
			c0-1.2-0.9-1.9-2.4-1.9c-4.9,0-9.8,0-14.6,0c-0.7,0-1-0.1-1-0.9c0.1-1.8,0.1-3.7,0-5.5c0-0.9,0.2-1.1,1.1-1.1
			c4.9,0.1,9.8,0,14.6,0c7.6,0,15.3,0,22.9,0c0.8,0,1.1,0.2,1,1c-0.1,1.8-0.1,3.7,0,5.5c0,0.8-0.2,1-1,1c-4.8,0-9.6,0-14.4,0
			c-1.7,0-2.5,0.6-2.5,1.9c0,1.2,0.8,1.8,2.4,1.8h16.9c1.8,0,2.5-0.6,2.5-2.4c0-3.4,0-6.8,0-10.3C62.2,79.9,61.5,79.3,59.7,79.3z
			 M59.7,105.5H17.2c-1.6,0-2.3,0.6-2.3,2.3v10.4c0,1.8,0.6,2.4,2.4,2.4h42.2c1.9,0,2.5-0.6,2.5-2.5c0-3.3,0-6.7,0-10
			C62.2,106.2,61.5,105.5,59.7,105.5z M57.2,116.8c-6.2,0-12.5,0-18.7,0c-6.2,0-12.4,0-18.6,0c-0.8,0-1.1-0.2-1.1-1.1
			c0.1-1.9,0.1-3.7,0-5.6c0-0.6,0.1-0.9,0.8-0.9c12.7,0,25.3,0,38,0c0.7,0,0.8,0.3,0.8,0.9c0,1.8-0.1,3.7,0,5.5
			C58.4,116.5,58.2,116.8,57.2,116.8z M59.7,105.5H17.2c-1.6,0-2.3,0.6-2.3,2.3v10.4c0,1.8,0.6,2.4,2.4,2.4h42.2
			c1.9,0,2.5-0.6,2.5-2.5c0-3.3,0-6.7,0-10C62.2,106.2,61.5,105.5,59.7,105.5z M57.2,116.8c-6.2,0-12.5,0-18.7,0
			c-6.2,0-12.4,0-18.6,0c-0.8,0-1.1-0.2-1.1-1.1c0.1-1.9,0.1-3.7,0-5.6c0-0.6,0.1-0.9,0.8-0.9c12.7,0,25.3,0,38,0
			c0.7,0,0.8,0.3,0.8,0.9c0,1.8-0.1,3.7,0,5.5C58.4,116.5,58.2,116.8,57.2,116.8z M110.6,105.5H68.1c-1.4,0-2.2,0.6-2.2,1.9
			c-0.1,3.7-0.1,7.4,0,11.1c0,1.3,0.8,1.9,2.1,1.9c5.8,0,11.7,0,17.5,0c0.4,0,0.8,0,1.2-0.2c0.8-0.5,1.1-1.3,0.9-2.1
			c-0.3-1-1-1.4-2-1.4c-5,0-9.9,0-14.9,0c-0.8,0-1-0.2-1-1c0.1-1.8,0.1-3.7,0-5.5c0-0.9,0.2-1.1,1.1-1.1c5.3,0.1,10.7,0,16,0
			c7.1,0,14.3,0,21.4,0c0.9,0,1.2,0.2,1.1,1.2c-0.1,1.8-0.1,3.6,0,5.4c0,0.9-0.2,1-1,1c-4.9,0-9.8,0-14.6,0c-1.5,0-2.3,0.7-2.3,1.8
			c0,1.2,0.9,1.9,2.4,1.9h17c1.8,0,2.3-0.6,2.4-2.4V108C113,106.1,112.4,105.5,110.6,105.5z M59.7,79.3H17.2c-1.6,0-2.3,0.6-2.3,2.3
			v10.4c0,1.8,0.6,2.4,2.4,2.4h16.9c1.5,0,2.4-0.7,2.5-1.9c0-1.2-0.9-1.9-2.4-1.9c-4.9,0-9.8,0-14.6,0c-0.7,0-1-0.1-1-0.9
			c0.1-1.8,0.1-3.7,0-5.5c0-0.9,0.2-1.1,1.1-1.1c4.9,0.1,9.8,0,14.6,0c7.6,0,15.3,0,22.9,0c0.8,0,1.1,0.2,1,1
			c-0.1,1.8-0.1,3.7,0,5.5c0,0.8-0.2,1-1,1c-4.8,0-9.6,0-14.4,0c-1.7,0-2.5,0.6-2.5,1.9c0,1.2,0.8,1.8,2.4,1.8h16.9
			c1.8,0,2.5-0.6,2.5-2.4c0-3.4,0-6.8,0-10.3C62.2,79.9,61.5,79.3,59.7,79.3z M110.6,79.3H68.2c-1.7,0-2.4,0.6-2.4,2.3
			c0,3.5,0,7,0,10.5c0,1.6,0.7,2.2,2.3,2.2h42.6c1.6,0,2.2-0.6,2.2-2.3c0-3.5,0-6.9,0-10.4C113,79.8,112.4,79.3,110.6,79.3z
			 M108.2,90.5c-6.3,0-12.5,0-18.7,0c-6.2,0-12.4,0-18.6,0c-1,0-1.2-0.3-1.2-1.2c0.1-1.8,0.1-3.6,0-5.4c0-0.7,0.1-0.9,0.9-0.9
			c12.6,0,25.2,0,37.8,0c0.7,0,0.9,0.3,0.9,0.9c0,1.9-0.1,3.7,0,5.6C109.3,90.4,109,90.5,108.2,90.5z M110.6,105.5H68.1
			c-1.4,0-2.2,0.6-2.2,1.9c-0.1,3.7-0.1,7.4,0,11.1c0,1.3,0.8,1.9,2.1,1.9c5.8,0,11.7,0,17.5,0c0.4,0,0.8,0,1.2-0.2
			c0.8-0.5,1.1-1.3,0.9-2.1c-0.3-1-1-1.4-2-1.4c-5,0-9.9,0-14.9,0c-0.8,0-1-0.2-1-1c0.1-1.8,0.1-3.7,0-5.5c0-0.9,0.2-1.1,1.1-1.1
			c5.3,0.1,10.7,0,16,0c7.1,0,14.3,0,21.4,0c0.9,0,1.2,0.2,1.1,1.2c-0.1,1.8-0.1,3.6,0,5.4c0,0.9-0.2,1-1,1c-4.9,0-9.8,0-14.6,0
			c-1.5,0-2.3,0.7-2.3,1.8c0,1.2,0.9,1.9,2.4,1.9h17c1.8,0,2.3-0.6,2.4-2.4V108C113,106.1,112.4,105.5,110.6,105.5z M110.6,79.3
			H68.2c-1.7,0-2.4,0.6-2.4,2.3c0,3.5,0,7,0,10.5c0,1.6,0.7,2.2,2.3,2.2h42.6c1.6,0,2.2-0.6,2.2-2.3c0-3.5,0-6.9,0-10.4
			C113,79.8,112.4,79.3,110.6,79.3z M108.2,90.5c-6.3,0-12.5,0-18.7,0c-6.2,0-12.4,0-18.6,0c-1,0-1.2-0.3-1.2-1.2
			c0.1-1.8,0.1-3.6,0-5.4c0-0.7,0.1-0.9,0.9-0.9c12.6,0,25.2,0,37.8,0c0.7,0,0.9,0.3,0.9,0.9c0,1.9-0.1,3.7,0,5.6
			C109.3,90.4,109,90.5,108.2,90.5z M59.7,79.3H17.2c-1.6,0-2.3,0.6-2.3,2.3v10.4c0,1.8,0.6,2.4,2.4,2.4h16.9c1.5,0,2.4-0.7,2.5-1.9
			c0-1.2-0.9-1.9-2.4-1.9c-4.9,0-9.8,0-14.6,0c-0.7,0-1-0.1-1-0.9c0.1-1.8,0.1-3.7,0-5.5c0-0.9,0.2-1.1,1.1-1.1
			c4.9,0.1,9.8,0,14.6,0c7.6,0,15.3,0,22.9,0c0.8,0,1.1,0.2,1,1c-0.1,1.8-0.1,3.7,0,5.5c0,0.8-0.2,1-1,1c-4.8,0-9.6,0-14.4,0
			c-1.7,0-2.5,0.6-2.5,1.9c0,1.2,0.8,1.8,2.4,1.8h16.9c1.8,0,2.5-0.6,2.5-2.4c0-3.4,0-6.8,0-10.3C62.2,79.9,61.5,79.3,59.7,79.3z
			 M59.7,105.5H17.2c-1.6,0-2.3,0.6-2.3,2.3v10.4c0,1.8,0.6,2.4,2.4,2.4h42.2c1.9,0,2.5-0.6,2.5-2.5c0-3.3,0-6.7,0-10
			C62.2,106.2,61.5,105.5,59.7,105.5z M57.2,116.8c-6.2,0-12.5,0-18.7,0c-6.2,0-12.4,0-18.6,0c-0.8,0-1.1-0.2-1.1-1.1
			c0.1-1.9,0.1-3.7,0-5.6c0-0.6,0.1-0.9,0.8-0.9c12.7,0,25.3,0,38,0c0.7,0,0.8,0.3,0.8,0.9c0,1.8-0.1,3.7,0,5.5
			C58.4,116.5,58.2,116.8,57.2,116.8z M59.7,105.5H17.2c-1.6,0-2.3,0.6-2.3,2.3v10.4c0,1.8,0.6,2.4,2.4,2.4h42.2
			c1.9,0,2.5-0.6,2.5-2.5c0-3.3,0-6.7,0-10C62.2,106.2,61.5,105.5,59.7,105.5z M57.2,116.8c-6.2,0-12.5,0-18.7,0
			c-6.2,0-12.4,0-18.6,0c-0.8,0-1.1-0.2-1.1-1.1c0.1-1.9,0.1-3.7,0-5.6c0-0.6,0.1-0.9,0.8-0.9c12.7,0,25.3,0,38,0
			c0.7,0,0.8,0.3,0.8,0.9c0,1.8-0.1,3.7,0,5.5C58.4,116.5,58.2,116.8,57.2,116.8z M110.6,105.5H68.1c-1.4,0-2.2,0.6-2.2,1.9
			c-0.1,3.7-0.1,7.4,0,11.1c0,1.3,0.8,1.9,2.1,1.9c5.8,0,11.7,0,17.5,0c0.4,0,0.8,0,1.2-0.2c0.8-0.5,1.1-1.3,0.9-2.1
			c-0.3-1-1-1.4-2-1.4c-5,0-9.9,0-14.9,0c-0.8,0-1-0.2-1-1c0.1-1.8,0.1-3.7,0-5.5c0-0.9,0.2-1.1,1.1-1.1c5.3,0.1,10.7,0,16,0
			c7.1,0,14.3,0,21.4,0c0.9,0,1.2,0.2,1.1,1.2c-0.1,1.8-0.1,3.6,0,5.4c0,0.9-0.2,1-1,1c-4.9,0-9.8,0-14.6,0c-1.5,0-2.3,0.7-2.3,1.8
			c0,1.2,0.9,1.9,2.4,1.9h17c1.8,0,2.3-0.6,2.4-2.4V108C113,106.1,112.4,105.5,110.6,105.5z M110.6,105.5H68.1
			c-1.4,0-2.2,0.6-2.2,1.9c-0.1,3.7-0.1,7.4,0,11.1c0,1.3,0.8,1.9,2.1,1.9c5.8,0,11.7,0,17.5,0c0.4,0,0.8,0,1.2-0.2
			c0.8-0.5,1.1-1.3,0.9-2.1c-0.3-1-1-1.4-2-1.4c-5,0-9.9,0-14.9,0c-0.8,0-1-0.2-1-1c0.1-1.8,0.1-3.7,0-5.5c0-0.9,0.2-1.1,1.1-1.1
			c5.3,0.1,10.7,0,16,0c7.1,0,14.3,0,21.4,0c0.9,0,1.2,0.2,1.1,1.2c-0.1,1.8-0.1,3.6,0,5.4c0,0.9-0.2,1-1,1c-4.9,0-9.8,0-14.6,0
			c-1.5,0-2.3,0.7-2.3,1.8c0,1.2,0.9,1.9,2.4,1.9h17c1.8,0,2.3-0.6,2.4-2.4V108C113,106.1,112.4,105.5,110.6,105.5z M59.7,105.5
			H17.2c-1.6,0-2.3,0.6-2.3,2.3v10.4c0,1.8,0.6,2.4,2.4,2.4h42.2c1.9,0,2.5-0.6,2.5-2.5c0-3.3,0-6.7,0-10
			C62.2,106.2,61.5,105.5,59.7,105.5z M57.2,116.8c-6.2,0-12.5,0-18.7,0c-6.2,0-12.4,0-18.6,0c-0.8,0-1.1-0.2-1.1-1.1
			c0.1-1.9,0.1-3.7,0-5.6c0-0.6,0.1-0.9,0.8-0.9c12.7,0,25.3,0,38,0c0.7,0,0.8,0.3,0.8,0.9c0,1.8-0.1,3.7,0,5.5
			C58.4,116.5,58.2,116.8,57.2,116.8z M59.7,105.5H17.2c-1.6,0-2.3,0.6-2.3,2.3v10.4c0,1.8,0.6,2.4,2.4,2.4h42.2
			c1.9,0,2.5-0.6,2.5-2.5c0-3.3,0-6.7,0-10C62.2,106.2,61.5,105.5,59.7,105.5z M57.2,116.8c-6.2,0-12.5,0-18.7,0
			c-6.2,0-12.4,0-18.6,0c-0.8,0-1.1-0.2-1.1-1.1c0.1-1.9,0.1-3.7,0-5.6c0-0.6,0.1-0.9,0.8-0.9c12.7,0,25.3,0,38,0
			c0.7,0,0.8,0.3,0.8,0.9c0,1.8-0.1,3.7,0,5.5C58.4,116.5,58.2,116.8,57.2,116.8z M110.6,105.5H68.1c-1.4,0-2.2,0.6-2.2,1.9
			c-0.1,3.7-0.1,7.4,0,11.1c0,1.3,0.8,1.9,2.1,1.9c5.8,0,11.7,0,17.5,0c0.4,0,0.8,0,1.2-0.2c0.8-0.5,1.1-1.3,0.9-2.1
			c-0.3-1-1-1.4-2-1.4c-5,0-9.9,0-14.9,0c-0.8,0-1-0.2-1-1c0.1-1.8,0.1-3.7,0-5.5c0-0.9,0.2-1.1,1.1-1.1c5.3,0.1,10.7,0,16,0
			c7.1,0,14.3,0,21.4,0c0.9,0,1.2,0.2,1.1,1.2c-0.1,1.8-0.1,3.6,0,5.4c0,0.9-0.2,1-1,1c-4.9,0-9.8,0-14.6,0c-1.5,0-2.3,0.7-2.3,1.8
			c0,1.2,0.9,1.9,2.4,1.9h17c1.8,0,2.3-0.6,2.4-2.4V108C113,106.1,112.4,105.5,110.6,105.5z M110.6,105.5H68.1
			c-1.4,0-2.2,0.6-2.2,1.9c-0.1,3.7-0.1,7.4,0,11.1c0,1.3,0.8,1.9,2.1,1.9c5.8,0,11.7,0,17.5,0c0.4,0,0.8,0,1.2-0.2
			c0.8-0.5,1.1-1.3,0.9-2.1c-0.3-1-1-1.4-2-1.4c-5,0-9.9,0-14.9,0c-0.8,0-1-0.2-1-1c0.1-1.8,0.1-3.7,0-5.5c0-0.9,0.2-1.1,1.1-1.1
			c5.3,0.1,10.7,0,16,0c7.1,0,14.3,0,21.4,0c0.9,0,1.2,0.2,1.1,1.2c-0.1,1.8-0.1,3.6,0,5.4c0,0.9-0.2,1-1,1c-4.9,0-9.8,0-14.6,0
			c-1.5,0-2.3,0.7-2.3,1.8c0,1.2,0.9,1.9,2.4,1.9h17c1.8,0,2.3-0.6,2.4-2.4V108C113,106.1,112.4,105.5,110.6,105.5z M59.7,105.5
			H17.2c-1.6,0-2.3,0.6-2.3,2.3v10.4c0,1.8,0.6,2.4,2.4,2.4h42.2c1.9,0,2.5-0.6,2.5-2.5c0-3.3,0-6.7,0-10
			C62.2,106.2,61.5,105.5,59.7,105.5z M57.2,116.8c-6.2,0-12.5,0-18.7,0c-6.2,0-12.4,0-18.6,0c-0.8,0-1.1-0.2-1.1-1.1
			c0.1-1.9,0.1-3.7,0-5.6c0-0.6,0.1-0.9,0.8-0.9c12.7,0,25.3,0,38,0c0.7,0,0.8,0.3,0.8,0.9c0,1.8-0.1,3.7,0,5.5
			C58.4,116.5,58.2,116.8,57.2,116.8z"/>
		<path d="M110.6,79.3H68.2c-1.7,0-2.4,0.6-2.4,2.3c0,3.5,0,7,0,10.5c0,1.6,0.7,2.2,2.3,2.2h42.6c1.6,0,2.2-0.6,2.2-2.3
			c0-3.5,0-6.9,0-10.4C113,79.8,112.4,79.3,110.6,79.3z M108.2,90.5c-6.3,0-12.5,0-18.7,0c-6.2,0-12.4,0-18.6,0
			c-1,0-1.2-0.3-1.2-1.2c0.1-1.8,0.1-3.6,0-5.4c0-0.7,0.1-0.9,0.9-0.9c12.6,0,25.2,0,37.8,0c0.7,0,0.9,0.3,0.9,0.9
			c0,1.9-0.1,3.7,0,5.6C109.3,90.4,109,90.5,108.2,90.5z M59.7,79.3H17.2c-1.6,0-2.3,0.6-2.3,2.3v10.4c0,1.8,0.6,2.4,2.4,2.4h16.9
			c1.5,0,2.4-0.7,2.5-1.9c0-1.2-0.9-1.9-2.4-1.9c-4.9,0-9.8,0-14.6,0c-0.7,0-1-0.1-1-0.9c0.1-1.8,0.1-3.7,0-5.5
			c0-0.9,0.2-1.1,1.1-1.1c4.9,0.1,9.8,0,14.6,0c7.6,0,15.3,0,22.9,0c0.8,0,1.1,0.2,1,1c-0.1,1.8-0.1,3.7,0,5.5c0,0.8-0.2,1-1,1
			c-4.8,0-9.6,0-14.4,0c-1.7,0-2.5,0.6-2.5,1.9c0,1.2,0.8,1.8,2.4,1.8h16.9c1.8,0,2.5-0.6,2.5-2.4c0-3.4,0-6.8,0-10.3
			C62.2,79.9,61.5,79.3,59.7,79.3z"/>
		<path d="M110.6,79.3H68.2c-1.7,0-2.4,0.6-2.4,2.3c0,3.5,0,7,0,10.5c0,1.6,0.7,2.2,2.3,2.2h42.6c1.6,0,2.2-0.6,2.2-2.3
			c0-3.5,0-6.9,0-10.4C113,79.8,112.4,79.3,110.6,79.3z M108.2,90.5c-6.3,0-12.5,0-18.7,0c-6.2,0-12.4,0-18.6,0
			c-1,0-1.2-0.3-1.2-1.2c0.1-1.8,0.1-3.6,0-5.4c0-0.7,0.1-0.9,0.9-0.9c12.6,0,25.2,0,37.8,0c0.7,0,0.9,0.3,0.9,0.9
			c0,1.9-0.1,3.7,0,5.6C109.3,90.4,109,90.5,108.2,90.5z M59.7,79.3H17.2c-1.6,0-2.3,0.6-2.3,2.3v10.4c0,1.8,0.6,2.4,2.4,2.4h16.9
			c1.5,0,2.4-0.7,2.5-1.9c0-1.2-0.9-1.9-2.4-1.9c-4.9,0-9.8,0-14.6,0c-0.7,0-1-0.1-1-0.9c0.1-1.8,0.1-3.7,0-5.5
			c0-0.9,0.2-1.1,1.1-1.1c4.9,0.1,9.8,0,14.6,0c7.6,0,15.3,0,22.9,0c0.8,0,1.1,0.2,1,1c-0.1,1.8-0.1,3.7,0,5.5c0,0.8-0.2,1-1,1
			c-4.8,0-9.6,0-14.4,0c-1.7,0-2.5,0.6-2.5,1.9c0,1.2,0.8,1.8,2.4,1.8h16.9c1.8,0,2.5-0.6,2.5-2.4c0-3.4,0-6.8,0-10.3
			C62.2,79.9,61.5,79.3,59.7,79.3z"/>
		<path d="M59.7,105.5H17.2c-1.6,0-2.3,0.6-2.3,2.3v10.4c0,1.8,0.6,2.4,2.4,2.4h42.2c1.9,0,2.5-0.6,2.5-2.5c0-3.3,0-6.7,0-10
			C62.2,106.2,61.5,105.5,59.7,105.5z M57.2,116.8c-6.2,0-12.5,0-18.7,0c-6.2,0-12.4,0-18.6,0c-0.8,0-1.1-0.2-1.1-1.1
			c0.1-1.9,0.1-3.7,0-5.6c0-0.6,0.1-0.9,0.8-0.9c12.7,0,25.3,0,38,0c0.7,0,0.8,0.3,0.8,0.9c0,1.8-0.1,3.7,0,5.5
			C58.4,116.5,58.2,116.8,57.2,116.8z M110.6,105.5H68.1c-1.4,0-2.2,0.6-2.2,1.9c-0.1,3.7-0.1,7.4,0,11.1c0,1.3,0.8,1.9,2.1,1.9
			c5.8,0,11.7,0,17.5,0c0.4,0,0.8,0,1.2-0.2c0.8-0.5,1.1-1.3,0.9-2.1c-0.3-1-1-1.4-2-1.4c-5,0-9.9,0-14.9,0c-0.8,0-1-0.2-1-1
			c0.1-1.8,0.1-3.7,0-5.5c0-0.9,0.2-1.1,1.1-1.1c5.3,0.1,10.7,0,16,0c7.1,0,14.3,0,21.4,0c0.9,0,1.2,0.2,1.1,1.2
			c-0.1,1.8-0.1,3.6,0,5.4c0,0.9-0.2,1-1,1c-4.9,0-9.8,0-14.6,0c-1.5,0-2.3,0.7-2.3,1.8c0,1.2,0.9,1.9,2.4,1.9h17
			c1.8,0,2.3-0.6,2.4-2.4V108C113,106.1,112.4,105.5,110.6,105.5z"/>
		<path d="M110.6,79.3H68.2c-1.7,0-2.4,0.6-2.4,2.3c0,3.5,0,7,0,10.5c0,1.6,0.7,2.2,2.3,2.2h42.6c1.6,0,2.2-0.6,2.2-2.3
			c0-3.5,0-6.9,0-10.4C113,79.8,112.4,79.3,110.6,79.3z M108.2,90.5c-6.3,0-12.5,0-18.7,0c-6.2,0-12.4,0-18.6,0
			c-1,0-1.2-0.3-1.2-1.2c0.1-1.8,0.1-3.6,0-5.4c0-0.7,0.1-0.9,0.9-0.9c12.6,0,25.2,0,37.8,0c0.7,0,0.9,0.3,0.9,0.9
			c0,1.9-0.1,3.7,0,5.6C109.3,90.4,109,90.5,108.2,90.5z"/>
		<path d="M62.2,81.6c0,3.4,0,6.8,0,10.3c0,1.7-0.7,2.4-2.5,2.4H42.9c-1.6,0-2.4-0.6-2.4-1.8c0-1.3,0.8-1.9,2.5-1.9
			c4.8,0,9.6,0,14.4,0c0.8,0,1.1-0.2,1-1c-0.1-1.8-0.1-3.7,0-5.5c0-0.8-0.2-1-1-1c-7.6,0-15.3,0-22.9,0c-4.9,0-9.8,0-14.6,0
			c-0.9,0-1.1,0.2-1.1,1.1c0.1,1.8,0.1,3.7,0,5.5c0,0.8,0.2,0.9,1,0.9c4.9,0,9.7,0,14.6,0c1.5,0,2.4,0.7,2.4,1.9
			c0,1.2-0.9,1.9-2.5,1.9H17.4c-1.8,0-2.4-0.6-2.4-2.4V81.5c0-1.6,0.6-2.3,2.3-2.3h42.5C61.5,79.3,62.2,79.9,62.2,81.6z"/>
		<path d="M59.7,105.5H17.2c-1.6,0-2.3,0.6-2.3,2.3v10.4c0,1.8,0.6,2.4,2.4,2.4h42.2c1.9,0,2.5-0.6,2.5-2.5c0-3.3,0-6.7,0-10
			C62.2,106.2,61.5,105.5,59.7,105.5z M57.2,116.8c-6.2,0-12.5,0-18.7,0c-6.2,0-12.4,0-18.6,0c-0.8,0-1.1-0.2-1.1-1.1
			c0.1-1.9,0.1-3.7,0-5.6c0-0.6,0.1-0.9,0.8-0.9c12.7,0,25.3,0,38,0c0.7,0,0.8,0.3,0.8,0.9c0,1.8-0.1,3.7,0,5.5
			C58.4,116.5,58.2,116.8,57.2,116.8z"/>
		<path d="M113,108v10.1c0,1.8-0.6,2.4-2.4,2.4h-17c-1.5,0-2.4-0.7-2.4-1.9c0-1.1,0.9-1.8,2.3-1.8c4.9,0,9.7,0,14.6,0
			c0.8,0,1.1-0.2,1-1c-0.1-1.8-0.1-3.6,0-5.4c0-0.9-0.2-1.2-1.1-1.2c-7.1,0.1-14.3,0-21.4,0c-5.3,0-10.7,0-16,0
			c-0.9,0-1.1,0.2-1.1,1.1c0.1,1.8,0.1,3.7,0,5.5c0,0.8,0.2,1,1,1c5,0,9.9,0,14.9,0c1,0,1.7,0.4,2,1.4c0.2,0.9,0,1.6-0.9,2.1
			c-0.4,0.2-0.8,0.2-1.2,0.2c-5.8,0-11.7,0-17.5,0c-1.3,0-2.1-0.7-2.1-1.9c-0.1-3.7-0.1-7.4,0-11.1c0-1.3,0.8-1.9,2.2-1.9h42.5
			C112.4,105.5,113,106.1,113,108z"/>
	</g>
</g>
</svg>
