<?xml version="1.0" encoding="utf-8"?>
<!-- Generator: Adobe Illustrator 28.0.0, SVG Export Plug-In . SVG Version: 6.00 Build 0)  -->
<svg version="1.1" id="Layer_1" xmlns="http://www.w3.org/2000/svg" xmlns:xlink="http://www.w3.org/1999/xlink" x="0px" y="0px"
	 viewBox="0 0 128 128" style="enable-background:new 0 0 128 128;" xml:space="preserve">
<g id="zuYlNf.tif_1_">
	<g>
		<path d="M0,74.3c1.1-3,2.2-6,3.5-8.9c3.2-7.2,10-9.7,16.9-6c1.8,0.9,2.8,0.9,4.5,0c6.9-3.6,13.7-1.1,17,6c3.7,8,4.1,16.4,3.3,25.1
			c2.3-2.7,2.4-6.3,3.7-9.3c0.6-1.3,0.6-3.3,2.8-2.8c3.8,0.8,4-1.4,3.9-4.3c-0.2-5.1,0-10.3-0.1-15.4c0-3.4,1.6-4.8,5-5
			c11.4-0.5,11.5-0.5,11.5,10.8c0,2.7,0,5.5,0,8.2c-0.1,3.2-0.8,6.3,4.6,6c2.8-0.2,2,3.7,3.2,5.7c1.2,2,0.7,6.4,2.9,6
			c2.1-0.4-0.3-4.1-0.4-6.3C82,77.3,83,71.1,86,65.1c3.4-6.9,10-9.3,16.7-5.7c2,1.1,3.1,0.8,4.9-0.2c6.3-3.3,12.8-1.1,16.1,5.2
			c3.8,7.2,5.2,14.8,3.3,22.8c-0.3,1.3-0.7,2.4,0.2,3.8c0.8,1.4,1.8,3.6-1.5,4c-1.7,0.2-1.5,2.2-1.8,3.3c-1.7,5.3-3.5,10.7-4.8,16.2
			c-1.4,6-4.4,10.5-9.9,13.4c-2.7,0-5.5,0-8.2,0c-5.7-2.9-8.6-7.8-10.1-13.8c-1.1-4.5-2.4-8.9-3.9-13.2c-0.8-2.1,0-6.2-3.4-5.6
			c-2.7,0.5-0.8,4.1-1,6.3c-1.1,9-1.2,18.3-6.3,26.4c-2.1,0-4.1,0-6.2,0c-4.6-5.4-3.4-12.9-6.3-19.6c-2.5,7-1.6,14.2-6.1,19.6
			c-2.1,0-4.1,0-6.2,0c-1.7-2.3-2.8-4.7-3.4-7.7c-1.7-8.3-3.3-16.5-3.4-25.1c-1.3,3.9-1.7,7.9-2.6,11.8c-1.6,7-0.4,14.7-5,20.9
			c-2.1,0-4.1,0-6.2,0c-4-4.4-3.6-10.3-5-15.6c-0.5-2-0.6-4.6-3-4.7c-2.9-0.2-2.9,2.5-3.5,4.7c-1.4,5.3-1,11.2-5,15.6
			c-2.1,0-4.1,0-6.2,0c-1.9-2.6-2.9-5.4-3.2-8.7c-0.7-7.1-2-14.1-3.1-21.1c-0.2-1.2-0.1-2.8-1.9-3.2C0,88.1,0,81.2,0,74.3z
			 M22.6,90.8c4.8,0,9.6-0.1,14.4,0c2.2,0.1,3.1-0.4,3.6-2.9c1.5-7.6,0.1-14.6-3.1-21.4c-2.4-5-7.3-6.1-11.4-2.4
			c-2.5,2.2-3.8,2.7-6.5,0.1c-4.1-3.8-8.9-2.8-11.5,2.1c-2.9,5.7-4.1,11.9-3.8,18.3c0.2,4.6,1.8,7,7,6.2
			C15,90.3,18.8,90.8,22.6,90.8z M104.8,90.8c4.5,0,8.9-0.2,13.4,0.1c2.8,0.2,3.8-1.1,4.4-3.6c1.9-7.2,0.6-13.9-2.5-20.4
			c-2.7-5.5-7.6-6.6-12.1-2.4c-2.3,2.1-3.4,2.2-5.7,0c-4-3.8-8.9-3.3-11.4,1c-3.1,5.4-5,11.3-4,17.6c1.1,7.6,1.1,7.6,8.7,7.6
			C98.6,90.8,101.7,90.8,104.8,90.8z M106.4,94.9c-5.1,0-9.4,0.1-13.6,0c-2.2-0.1-2.7,0.7-2.1,2.7c2.1,6.8,4,13.7,6.3,20.5
			c1.3,3.8,4.5,5.7,8.4,5.6c3.6-0.1,6.5-2,7.9-5.6c1.1-2.9,2-5.8,2.7-8.8c1.1-4.6,5.2-10.3,3.1-13.4
			C116.9,92.8,110.2,95.4,106.4,94.9z M33.5,123.6c0.5,0,1,0,1.5,0c1.4-8.9,2.7-17.8,4.1-26.7c0.4-2.8-1.8-1.9-3.1-1.9
			c-6.7-0.1-13.4,0-20.1,0c-10,0-10.3,0-8.7,10c1,6.2,1,12.8,3.7,19.6c3.4-4.6,3-9.4,4.1-13.7c1.1-4.3,2.6-7.5,7.5-7.5
			c4.8,0,6.5,3.2,7.5,7.5C31.2,115,30.9,119.8,33.5,123.6z M64.2,94.9c-3.6,0-7.2,0.2-10.8-0.1c-3-0.2-3.9,1-3.9,3.8
			c-0.2,7.8,2.1,15.2,3.4,22.7c0.1,0.9,0.5,2.2,1.8,2.1c1.2-0.1,1.5-1.3,1.7-2.2c0.9-4.2,1.6-8.4,2.4-12.5c0.6-2.8,1.5-5.4,5-5.5
			c3.5-0.1,4.6,2.5,5.1,5.3c0.8,4.2,1.6,8.4,2.4,12.6c0.2,1,0.6,2.2,1.6,2.4c1.6,0.2,1.9-1.3,2.1-2.4c1.1-6.4,2.5-12.7,3.1-19.2
			c0.7-6.9,0.4-7-6.7-7C69,94.9,66.6,94.9,64.2,94.9z M51,90.8c6.9,0,13.6,0,20.2,0c5.9,0,6.4-1,4-6.5c-0.9-2-2.3-1.7-3.7-1.7
			c-3.9,0-7.8,0-11.8,0C52.5,82.6,52.5,82.6,51,90.8z M59.9,63.8c2.8-1.6,7.9-0.2,7.8-4.7c0-2.6-3.7-1.2-5.6-1.1
			C57.2,58.2,61,61.9,59.9,63.8z M67.5,66.1c-2.2,0.8-4.4,1.5-6.6,2.4c-1.1,0.4-1.4,1.4-1.2,2.5c0.1,0.4,0.3,1.1,0.6,1.2
			C62.4,73.1,67.6,68.8,67.5,66.1z M59.9,77.3c8.2,1.3,8.2,1.3,7.3-3C64.7,75.4,62.3,76.4,59.9,77.3z"/>
		<path d="M64.2,49.6c-2,0-3.4,0-4.7,0c-14.1-0.2-23-9.8-22.5-24.1c0.4-12,14-20.4,24.7-15.2c1.9,0.9,2.9,0.5,4.5-0.3
			c5.9-3,11.5-2.2,16.6,2.1c5.8,4.8,9.4,10.6,7.2,18.3c-1.4,4.7-3.7,9.1-5.6,13.7c-1.3,3.2-4.3,3.6-7.1,4.4
			C72.9,49.7,68.3,49.8,64.2,49.6z M55.7,12.4c-3.5,0.4-5.7,1.2-7.6,2.7c-7.6,6-8.3,10.9-3.2,21.6c1,2.1,1.6,2.7,4.1,2
			c8.2-2.3,16.6-2.1,25-1c8.3,1.1,8.3,1.4,11.2-6.3c0.2-0.6,0.3-1.4,0.6-2C89.3,22.9,79,11.1,73,12.9C66.5,14.9,60.7,18,55.7,12.4z
			 M50.6,43.5c8.9,2.3,17.7,2.7,26.4-0.1C68.2,40.9,59.4,40.9,50.6,43.5z"/>
		<path d="M1.9,25.3c8.4-0.8,8.4-0.8,8.4-8.9c0-4.5,0-8.9,0-13.4c0-1.6-0.2-3,2.3-2.9c2.2,0.1,1.9,1.5,1.9,2.8c0,7.9,0,15.8,0,23.6
			c0,1.1,0.4,2.4-1.6,2.5c-2.3,0.1-0.8,1.3-0.3,1.8c1.4,1.8,2.9,3.4,4.3,5.1c1.3,1.7,2.3,1.5,3.6-0.1c1.3-1.6,2.6-3.1,4-4.7
			c0.9-1,2.2-2.1-0.7-2.3c-1.7-0.1-1-1.9-1-2.9c-0.1-7.5-0.1-15.1,0-22.6c0-1.3-0.7-3.2,1.9-3.2c3.1-0.1,2.1,2,2.2,3.5
			c0.1,5.3,0.4,10.7-0.1,15.9c-0.4,4.7,1.2,6.1,5.6,5.4c0.8-0.1,1.6,0,3.3,0C30,31.4,25,37.1,20.1,43c-1.7,2-2.4,0.8-3.5-0.5
			C11.9,37,7.1,31.4,1.9,25.3z"/>
		<path d="M126.2,24.9c-5.5,6.4-10.3,12-15,17.6c-1.3,1.6-2.1,2.3-3.8,0.3c-4.7-5.8-9.7-11.4-14.5-17.1c0.5-0.4,0.8-0.7,1-0.7
			c7.1-0.1,7.1-0.1,7.1-7.3c0-5,0-9.9,0-14.9c0-1.5,0-2.6,2.1-2.6c2.1,0,2.1,1.2,2.1,2.6c0,7.9,0,15.8,0,23.6c0,0.5,0.1,1.1-0.1,1.5
			c-1.1,3.2,0.1,6.6,3,8.8c1.1,0.9,1.7,0.7,2.5-0.2c1.3-1.6,2.7-3.1,4-4.7c0.8-1.1,3.3-2.4-0.5-2.9c-1.3-0.2-0.7-1.7-0.7-2.7
			c-0.1-7.5,0-15.1,0-22.6c0-1.6-0.7-3.6,2.3-3.4c2.7,0.1,1.8,2,1.8,3.3c0.1,5.5,0.3,11,0,16.4c-0.2,3.8,0.6,5.8,4.8,5
			C123.1,24.7,124.1,24.9,126.2,24.9z"/>
		<path d="M50.6,43.5c8.8-2.6,17.6-2.6,26.4-0.1C68.3,46.2,59.5,45.8,50.6,43.5z"/>
		<path d="M25,78.4c-3.6,0.4-6.5-0.3-8.7-2.7c-0.7-0.8-2.3-1.6-0.8-2.8c0.9-0.8,2.1-2.1,3.5-0.7c1.7,1.7,3.7,2.2,6,2.3
			c1.5,0.1,4.1-1.3,3.9,2.2C28.7,80,26,77.8,25,78.4z"/>
		<path d="M101.6,70c2.3,1.7,3.8,0.5,5.3-1c0.8-0.8,1.9-1.4,3-1.8c1.7-0.7,4.1-2.3,5.3,0c1.4,2.9-1.4,3.4-3.4,4.2
			c-1.1,0.4-2.4,1-2.9,1.9c-2.3,4.8-5.1,3-8.5,1.3c-1.9-0.9-1.5-2-1.4-3.2C99,69.3,100.8,70.8,101.6,70z"/>
		<path d="M61.8,24.8c-3.7,0.4-6.3-0.4-8.4-2.7c-0.7-0.8-2.2-1.6-0.8-2.8c0.9-0.7,2.1-2.1,3.5-0.7c1.5,1.5,3.3,2,5.5,2.3
			c1.6,0.2,4.6-1.7,4.4,2.1C65.7,26.8,62.6,23.7,61.8,24.8z"/>
		<path d="M71.8,24.9c-1.7,0.2-1.8-0.8-1.8-2.1c0-1.5,0.6-1.9,2.1-2c2-0.1,2.1,0.9,2.1,2.5C74.2,25,73.1,24.9,71.8,24.9z"/>
	</g>
</g>
</svg>
