<?xml version="1.0" encoding="utf-8"?>
<!-- Generator: Adobe Illustrator 28.0.0, SVG Export Plug-In . SVG Version: 6.00 Build 0)  -->
<svg version="1.1" id="Layer_1" xmlns="http://www.w3.org/2000/svg" xmlns:xlink="http://www.w3.org/1999/xlink" x="0px" y="0px"
	 viewBox="0 0 128 128" style="enable-background:new 0 0 128 128;" xml:space="preserve">
<g id="Mv76xL.tif">
	<g>
		<path d="M128,91.7c-1.5,5.3-3,10.5-4.4,15.8c-2.4,9.3-2.7,9.5-12.3,10c-2.5,6.2-6.4,10.9-14,10.4c-6.6-0.4-10-4.7-12.2-10.5
			c-15.5,0-30.9,0-46.4,0c-2.4,6.1-6,10.5-13.2,10.5c-6.9-0.1-10.5-4.3-13-10.7c-2.8,0-5.8-0.1-8.8,0c-3.2,0.1-4.2-1.3-3.4-4.3
			c1.5-5.3,2.2-11,4.7-15.7c2.4-4.7,6.1-9.2,10.2-12.4C23,79,31.5,74.2,39.6,68.7c5-3.4,9.8-7.3,15.2-11.4c1.8,1,2.1,2.9,0,5.2
			c-1.8,1.9-3.6,4-5.7,5.4C41,73.5,32.8,78.8,24.6,84c-2.5,1.6-3.7,2.9-2.6,6.3c1.6,5.3-0.8,8.3-6.3,7.8c-5.4-0.5-7.7,1.6-8.4,6.6
			c-0.4,2.6-1.3,5.1-2.1,8.1c2.5,0,4.7,0,7.3,0c2-5.2,5.2-9.7,11.7-10.3c6-0.5,10.1,2.2,13.1,7.3c0.8,1.4,2.6,3.1,3.9,3.2
			c14.6,0.2,29.1,0.1,43.6,0.1c0.5-1,1-1.8,1.3-2.6c2.2-5,5.9-7.9,11.5-8c5.8-0.2,9.6,2.7,12.4,7.6c0.8,1.4,3,2.8,4.6,2.8
			c1.3,0,2.9-2,3.7-3.5c0.9-1.8,1-4.1,1.7-6.1c0.9-2.7,1.2-4.6-2-6.5c-3.9-2.3-3.7-6.7-0.4-10.5c6.4-7.4,5.9-7.3,1.9-16.5
			c-3.4-8-8.3-11.1-17-10.2c-8.6,0.9-17.4,0.1-26.1,0.2c-2.7,0-4.7-0.3-3.2-4.2c13.3,0,26.8-0.2,40.2,0.2c1.9,0.1,4.5,2.3,5.5,4.2
			c3.4,6.2,6.1,12.7,9.2,19C128,83.2,128,87.5,128,91.7z M34,115.4c0.2-4.3-4-8.6-8.4-8.7c-4.1-0.1-8.3,3.8-8.6,8
			c-0.3,4.3,3.7,8.8,8.1,9C29.5,123.9,33.9,119.8,34,115.4z M98,123.7c4.4,0,8.6-4.1,8.5-8.5c0-4.4-4.3-8.5-8.7-8.4
			c-4.2,0.1-8.2,4.1-8.3,8.3C89.5,119.4,93.6,123.6,98,123.7z"/>
		<path d="M101.3,0c1.1,3.2,2.9,6.4,3,9.6c0.4,11.2,0.2,22.4,0.1,33.5c0,6-2,8-7.9,8.1c-6,0.1-12.1,0.3-18.1-0.1
			c-4.9-0.3-8.5,0.8-10.9,5.4c-2.2,4.2-5,4.2-7.3,0c-2.4-4.5-6-5.7-10.9-5.4c-6,0.4-12.1,0.1-18.1,0.1c-5.7-0.1-7.8-2-7.9-7.5
			c-0.1-12.1-0.2-24.1,0.1-36.2c0.1-2.5,2-5,3-7.5C51.5,0,76.4,0,101.3,0z M64,53.7c3-7,8.3-7.1,14.1-6.8c5.8,0.3,11.7-0.1,17.6,0.1
			c3.5,0.1,4.7-1.3,4.7-4.7c-0.1-11.2-0.1-22.4,0-33.6c0-3.1-1.1-4.5-4.3-4.5C74.6,4.3,53.3,4.3,32,4.2c-3.2,0-4.4,1.3-4.4,4.5
			c0.1,11.2,0.1,22.4,0,33.6c0,3.4,1.1,4.8,4.6,4.7c5.9-0.2,11.7,0.2,17.6-0.1C55.6,46.6,61,46.6,64,53.7z"/>
		<path d="M72.8,89.6c-10.8,0-21.6,0.2-32.5-0.1c-2-0.1-4-2-5.9-3.1c1.1-1.9,2.1-3.7,3.2-5.6c0.2-0.3,0.6-0.4,0.9-0.6
			C63,62.4,66.8,61.3,97.5,64c7.4,0.7,13.3,6.9,13.3,14.7c0,13.1,1.6,10.6-10.4,10.8C91.2,89.7,82,89.6,72.8,89.6z M75.1,68.3
			c0,5.7,0,11.2,0,16.7c10.6,0,21,0,31.3,0c0.8-12.9-2.8-16.7-15.4-16.7C85.8,68.3,80.7,68.3,75.1,68.3z M70.1,68.2
			C57.2,68.7,50.1,78.8,40.6,85c9.8,0,19.5,0,29.5,0C70.1,79.3,70.1,73.9,70.1,68.2z"/>
		<path d="M62.2,94.1c7.9-0.5,7.9-0.5,7.6,3.6C62.3,98.6,62.3,98.6,62.2,94.1z"/>
		<path d="M102.9,94.3c7.5-0.9,7.5-0.9,7.6,3.3C103.1,98.9,102.7,98.7,102.9,94.3z"/>
		<path d="M61.8,40.5c-5,0-9.9,0.1-14.9,0C38.4,40.3,32,34,32,25.7c0-8.3,6.2-14.9,14.7-15c10.1-0.1,20.2-0.1,30.4,0
			c5.9,0,10,3,13,7.9c1.2,2.1,1,5.6,4.9,5c-0.1,1.4,0.2,3-0.5,4c-1,1.5-3,2.4-3.9,3.9c-3,5.6-7.4,9-13.9,9
			C71.7,40.5,66.8,40.5,61.8,40.5z M51.4,35.9c7.3,0,14.1,0,20.9,0c0-7.1,0-13.8,0-20.6c-7.1,0-13.9,0-20.9,0
			C51.4,22.2,51.4,28.9,51.4,35.9z M46.6,36c0-7.1,0-13.9,0-20.7c-6.6,1.3-10.3,5-10.3,10.3C36.3,30.8,39.9,34.6,46.6,36z M76.9,36
			c7.1-1.5,10.8-5.7,10.4-11c-0.4-5.5-4.6-9.2-10.4-9.3C76.9,22.3,76.9,29,76.9,36z"/>
	</g>
</g>
</svg>
