<?xml version="1.0" encoding="utf-8"?>
<!-- Generator: Adobe Illustrator 28.0.0, SVG Export Plug-In . SVG Version: 6.00 Build 0)  -->
<svg version="1.1" id="Layer_1" xmlns="http://www.w3.org/2000/svg" xmlns:xlink="http://www.w3.org/1999/xlink" x="0px" y="0px"
	 viewBox="0 0 128 128" style="enable-background:new 0 0 128 128;" xml:space="preserve">
<g>
	<g>
		<g>
			<g>
				<path d="M121.6,111.2V42.4c3.8-1,6.4-4.4,6.4-8.2c0-4.7-3.8-8.5-8.5-8.5c-1.5,0-3,0.4-4.3,1.2l-14-14c0.8-1.3,1.2-2.8,1.2-4.3
					c0-4.3-3.2-7.9-7.4-8.5s-8.3,2.2-9.3,6.3H16.8c-1-4-4.8-6.7-9-6.4C3.7,0.4,0.4,3.7,0,7.8s2.3,7.9,6.4,9v68.9
					c-4.2,1.1-6.9,5.1-6.3,9.3s4.2,7.4,8.5,7.4c1.5,0,3-0.4,4.3-1.2l14,14c-0.8,1.3-1.2,2.8-1.2,4.3c0,4.3,3.2,7.9,7.4,8.5
					s8.3-2.2,9.3-6.3h68.9c1,4,4.8,6.7,9,6.4c4.1-0.3,7.4-3.6,7.8-7.8C128.3,116.1,125.6,112.3,121.6,111.2z M116.4,31.1
					c1.2-1.2,3.1-1.6,4.6-0.9c1.6,0.7,2.6,2.2,2.6,3.9c0,1.9-1.3,3.6-3.2,4.1c-1.9,0.5-3.8-0.3-4.8-2
					C114.8,34.6,115.1,32.5,116.4,31.1z M112.1,29.8c-0.4,0.7-0.7,1.4-0.9,2.2H96V16.8c0.8-0.2,1.5-0.5,2.2-0.9L112.1,29.8z
					 M89.7,7.4c0.5-1.9,2.2-3.2,4.1-3.2c1.7,0,3.3,1,3.9,2.6c0.7,1.6,0.3,3.4-0.9,4.6c-1.4,1.4-3.5,1.6-5.2,0.7S89.2,9.3,89.7,7.4z
					 M96.9,96.9c-1.4,1.4-3.7,1.7-5.4,0.5c-1.7-1.1-2.4-3.3-1.6-5.2s2.8-3,4.8-2.6c2,0.4,3.4,2.1,3.4,4.2
					C98.1,95,97.7,96.1,96.9,96.9L96.9,96.9z M31.1,31.1c1.4-1.4,3.7-1.7,5.4-0.5c1.7,1.1,2.4,3.3,1.6,5.2c-0.8,1.9-2.8,2.9-4.8,2.6
					s-3.4-2.2-3.4-4.2C29.9,33,30.3,31.9,31.1,31.1z M36.3,42.4c3-0.8,5.3-3.1,6.1-6.1h49.4v49.4c-3,0.8-5.3,3.1-6.1,6.1H36.3V42.4z
					 M16.8,10.7h68.9c0.8,3,3.1,5.3,6.1,6.1V32H42.4c-1-3.8-4.4-6.4-8.2-6.4c-1.5,0-3,0.4-4.3,1.2l-14-14
					C16.3,12.2,16.6,11.4,16.8,10.7z M4.3,8.5c0-1.9,1.3-3.6,3.2-4.1c1.9-0.5,3.8,0.3,4.8,2c1,1.7,0.7,3.8-0.7,5.2
					c-1.2,1.2-3.1,1.6-4.6,0.9C5.3,11.8,4.3,10.3,4.3,8.5z M11.6,96.9c-1.2,1.2-3.1,1.6-4.6,0.9c-1.6-0.7-2.6-2.2-2.6-3.9
					c0-1.9,1.3-3.6,3.2-4.1c1.9-0.5,3.8,0.3,4.8,2C13.2,93.4,12.9,95.5,11.6,96.9z M10.7,85.6V16.8c0.8-0.2,1.5-0.5,2.2-0.9l14,14
					c-0.8,1.3-1.2,2.8-1.2,4.3c0,3.9,2.6,7.3,6.4,8.2v49.4H16.8C16,88.7,13.7,86.4,10.7,85.6z M15.9,98.2c0.4-0.7,0.7-1.4,0.9-2.2
					H32v15.2c-0.8,0.2-1.5,0.5-2.2,0.9L15.9,98.2z M38.3,120.6c-0.5,1.9-2.2,3.2-4.1,3.2c-1.7,0-3.3-1-3.9-2.6
					c-0.7-1.6-0.3-3.4,0.9-4.6c1.4-1.4,3.5-1.6,5.2-0.7C37.9,116.7,38.8,118.7,38.3,120.6z M111.2,117.3H42.4
					c-0.8-3-3.1-5.3-6.1-6.1V96h49.4c1,3.8,4.4,6.4,8.2,6.4c1.5,0,3-0.4,4.3-1.2l14,14C111.7,115.8,111.4,116.6,111.2,117.3z
					 M101.2,98.2c0.8-1.3,1.2-2.8,1.2-4.3c0-3.9-2.6-7.3-6.4-8.2V36.3h15.2c0.8,3,3.1,5.3,6.1,6.1v68.9c-0.8,0.2-1.5,0.5-2.2,0.9
					L101.2,98.2z M120.6,123.6c-1.9,0.5-3.8-0.3-4.8-2s-0.7-3.8,0.7-5.2c1.2-1.2,3.1-1.6,4.6-0.9c1.6,0.7,2.6,2.2,2.6,3.9
					C123.7,121.4,122.4,123.1,120.6,123.6z"/>
			</g>
		</g>
	</g>
	<g>
		<path d="M78.5,89.6c-0.6,0-1.2-0.1-1.8-0.2c-4.7-1-7.7-5.4-6.8-9.9c0.5-2.2,1.8-4.1,3.7-5.3c1.9-1.2,4.2-1.6,6.4-1.2
			c4.7,1,7.7,5.4,6.8,9.9c-0.4,2.2-1.8,4.1-3.7,5.3C81.7,89.1,80.1,89.6,78.5,89.6z M78.2,76.6c-0.9,0-1.9,0.3-2.6,0.8
			c-1.1,0.7-1.8,1.7-2,2.9c-0.5,2.5,1.2,5,3.9,5.5c1.3,0.3,2.6,0,3.7-0.7c1.1-0.7,1.8-1.7,2-2.9v0c0.5-2.5-1.2-5-3.9-5.5
			C78.9,76.6,78.6,76.6,78.2,76.6z"/>
	</g>
	<g>
		<path d="M64,30c-0.6,0-1.2-0.1-1.7-0.2c-2.3-0.5-4.2-1.8-5.5-3.7c-1.3-1.9-1.7-4.2-1.3-6.5c0.5-2.3,1.8-4.2,3.7-5.5
			c1.9-1.3,4.2-1.7,6.5-1.3c4.7,1,7.7,5.5,6.7,10.2l0,0c-0.5,2.3-1.8,4.2-3.7,5.5C67.3,29.5,65.7,30,64,30z M64,16.4
			c-0.9,0-1.9,0.3-2.7,0.8c-1.1,0.7-1.8,1.8-2.1,3.1c-0.3,1.3,0,2.6,0.7,3.7c0.7,1.1,1.8,1.8,3.1,2.1c2.6,0.5,5.2-1.2,5.8-3.8l0,0
			c0.5-2.6-1.2-5.2-3.8-5.8C64.6,16.5,64.3,16.4,64,16.4z"/>
	</g>
	<g>
		<path d="M64,115.3c-0.6,0-1.2-0.1-1.7-0.2c-2.3-0.5-4.2-1.8-5.5-3.7c-1.3-1.9-1.7-4.2-1.3-6.5c0.5-2.3,1.8-4.2,3.7-5.5
			c1.9-1.3,4.2-1.7,6.5-1.3c4.7,1,7.7,5.5,6.7,10.2v0c-0.5,2.3-1.8,4.2-3.7,5.5C67.3,114.8,65.7,115.3,64,115.3z M64,101.8
			c-2.3,0-4.3,1.6-4.8,3.9c-0.3,1.3,0,2.6,0.7,3.7c0.7,1.1,1.8,1.8,3.1,2.1c2.7,0.5,5.2-1.2,5.8-3.8l0,0c0.5-2.6-1.2-5.2-3.8-5.8
			C64.6,101.8,64.3,101.8,64,101.8z"/>
	</g>
	<g>
		<path d="M21.2,74.9c-0.6,0-1.2-0.1-1.7-0.2c-2.3-0.5-4.2-1.8-5.5-3.7c-1.3-1.9-1.7-4.2-1.3-6.5c0.5-2.3,1.8-4.2,3.7-5.5
			c1.9-1.3,4.2-1.7,6.5-1.3c4.7,1,7.7,5.5,6.7,10.2l0,0c-0.5,2.3-1.8,4.2-3.7,5.5C24.5,74.4,22.8,74.9,21.2,74.9z M21.1,61.3
			c-2.3,0-4.3,1.6-4.8,3.9c-0.3,1.3,0,2.6,0.7,3.7c0.7,1.1,1.8,1.8,3.1,2.1c1.3,0.3,2.6,0,3.7-0.7c1.1-0.7,1.8-1.8,2.1-3.1v0
			c0.3-1.3,0-2.6-0.7-3.7c-0.7-1.1-1.8-1.8-3.1-2.1C21.8,61.4,21.5,61.3,21.1,61.3z"/>
	</g>
	<g>
		<path d="M106.5,75.1c-0.6,0-1.1-0.1-1.7-0.2c-2.3-0.5-4.2-1.8-5.5-3.7C98,69.3,97.6,67,98,64.7c0.5-2.3,1.8-4.2,3.7-5.5
			c1.9-1.3,4.2-1.7,6.5-1.3c2.3,0.5,4.2,1.8,5.5,3.7c1.3,1.9,1.7,4.2,1.3,6.5C114.1,72.2,110.5,75.1,106.5,75.1z M106.5,61.5
			c-0.9,0-1.9,0.3-2.7,0.8c-1.1,0.7-1.8,1.8-2.1,3.1c-0.3,1.3,0,2.6,0.7,3.7c0.7,1.1,1.8,1.8,3.1,2.1c2.7,0.5,5.2-1.2,5.8-3.8l0,0
			c0.3-1.3,0-2.6-0.7-3.7c-0.7-1.1-1.8-1.8-3.1-2.1C107.1,61.6,106.8,61.5,106.5,61.5z"/>
	</g>
	<g>
		<path d="M56.9,64.9c-0.6,0-1.2-0.1-1.7-0.2c-4.7-1-7.7-5.5-6.7-10.2c1-4.7,5.5-7.7,10.2-6.7c4.7,1,7.7,5.5,6.7,10.2l0,0
			c-0.5,2.3-1.8,4.2-3.7,5.5C60.2,64.5,58.6,64.9,56.9,64.9z M56.9,51.4c-2.3,0-4.3,1.6-4.8,3.9c-0.5,2.6,1.2,5.2,3.8,5.8
			c2.6,0.5,5.2-1.2,5.8-3.8l0,0c0.5-2.6-1.2-5.2-3.8-5.8C57.5,51.5,57.2,51.4,56.9,51.4z"/>
	</g>
</g>
</svg>
