<?xml version="1.0" encoding="utf-8"?>
<!-- Generator: Adobe Illustrator 28.0.0, SVG Export Plug-In . SVG Version: 6.00 Build 0)  -->
<svg version="1.1" id="Layer_1" xmlns="http://www.w3.org/2000/svg" xmlns:xlink="http://www.w3.org/1999/xlink" x="0px" y="0px"
	 viewBox="0 0 128 128" style="enable-background:new 0 0 128 128;" xml:space="preserve">
<g id="N9RHdM.tif">
	<g>
		<path d="M37,85.2c1,0.1,1.8,0.8,1.9,1.9c0.1,1.5-0.9,1.9-2.1,2.1c-1.2-0.1-1.9-0.6-1.8-1.8C35,86,35.6,85.1,37,85.2z"/>
		<path d="M59.9,85.1c1.3,0.2,2,0.9,2,2.2c0,1.2-0.7,1.8-1.8,1.8c-1.1,0-2-0.4-2.2-1.6C57.8,86.3,58.7,85.5,59.9,85.1z"/>
		<path d="M49.1,46.7c-9.9-0.4-17.5,6.6-18,16.5C30.6,73.1,38,81,48,81.4c9.5,0.4,17.5-7.2,17.8-16.9C66.1,54.7,59,47.1,49.1,46.7z
			 M50.1,69.2c-3.4,1-6.1-0.2-7-3.6c-1.1-4,0.8-6.7,5.5-7.4c0.4,2.9-4.2,5.4-0.9,7.2c3.1,1.7,2.9-3.6,5.3-4.4
			C54.6,65.6,53.7,68.2,50.1,69.2z M60.1,70.4c-2.5,4.7-6.4,6.9-9.2,6.9c-10.4-0.1-16.5-6.4-15.9-14c0.6-7.8,7.2-13.4,14.9-12.5
			c1,0.1,3.2-0.7,2.8,1.6c-0.3,1.4-1.3,2.1-3.2,2C43,54.3,39.1,58,38.9,63.7c-0.2,4.4,1.9,7.4,5.7,9c3.8,1.6,7.6,1.2,10.5-1.9
			c2.8-3,3.6-6.6,2-10.6c-0.3-0.6-0.5-1.3-0.9-1.7c-1.4-1.5-1.3-3.2,0.3-4.2c1.6-1,2.3,1,2.9,1.9C62.3,60.8,62.7,65.5,60.1,70.4z"/>
		<path d="M27,14.5c0.1,7.2,0.1,14.3,0,21.5c0,2.3,0.8,2.8,2.9,2.8c4.8-0.1,9.6,0,15.2,0c-2-4.2-3.7-7.8-5.5-11.3
			c-0.7-1.4-1.4-3,0.3-3.9c1.9-1.1,2.5,0.7,3.2,2.1c0.2,0.3,0.4,0.6,0.5,0.9c7.1,13.5,7.9,13.9,23.5,12.4c2.3-0.2,2.7-1.1,2.7-3.1
			c-0.1-7-0.1-14,0-21c0.1-2.6-1.1-3-3.2-3c-4.2,0.1-8.3,0-12.5,0c-1.5,0-3.3-0.1-3.3-2.1c-0.1-2.3,1.9-2,3.3-2
			c5.3-0.1,10.6,0,15.9-0.1c2.7,0,3.8,1.1,3.8,3.9c-0.1,9.2-0.1,18.3,0,27.5c0,2.8-1.2,3.9-3.9,3.9c-14.3,0-28.5-0.1-42.8,0
			c-3.1,0-4-1.4-4-4.3c0.1-9,0.1-18,0-27c-0.1-3.2,1.3-4.1,4.2-4c5,0.1,10,0,14.9,0.1C43.7,7.7,46,7,46,9.6c0,2.7-2.4,2.2-4.1,2.2
			c-4,0.1-8,0.1-12,0C27.8,11.7,27,12.3,27,14.5z"/>
		<path d="M78.4,86.9c0,6.4-1.2,7.5-7.7,7.6c-14.9,0.1-29.9,0.1-44.8,0c-6.7-0.1-8.2-1.7-8.3-8.3c-0.1-4.2,0-8.3,0-12.5
			c0-1.6,0.5-3.4-1.1-4.7c-0.1-0.1-0.3-0.2-0.4-0.3c0,0-0.1,0-0.1-0.1c-0.3-0.2-0.6-0.5-0.9-0.7c0.3,0,0.7,0,1,0
			c3.7-2,3.3,0.9,3.3,2.9c0.1,6,0.2,12,0,18c-0.1,3.2,0.9,4.3,4.3,4.3c16.5-0.2,32.9-0.2,49.3,0c3.2,0,4.4-0.8,4.4-4.2
			c-0.1-27-0.1-54,0-81c0-3.4-1.2-4.1-4.4-4.1C56.7,4,40.4,4,24.2,3.8c-3.8-0.1-4.8,1.1-4.8,4.8c0.1,16.5,0.1,33,0,49.5
			c0,1.8,1.4,5.7-3.3,3.9c-0.3,0-0.7,0-1,0c0.3-0.2,0.5-0.4,0.8-0.6c0.1-0.1,0.2-0.1,0.2-0.2c0.2-0.1,0.3-0.2,0.4-0.3
			c1.7-1.6,1-3.8,1-5.7c0.1-14.6,0-29.3,0.1-43.9c0-7.2,1.5-8.8,8.8-8.8c14.8-0.1,29.5-0.1,44.3,0c6.5,0.1,7.7,1.2,7.7,7.6
			C78.5,35.7,78.5,61.3,78.4,86.9z"/>
		<path d="M110.6,53.1c-3.7-0.1-1.5,3.5-2.2,5.4c-0.1,0.1,0,0.3,0,0.5c0,1.5,0.3,3.1-2.1,3c-2.3-0.1-1.6-1.7-1.6-2.9
			c-0.1-4.2-0.1-8.3,0-12.5c0.1-1.3-1.2-3.6,1.7-3.8c2.4-0.1,1.9,1.7,2.1,3.1c0.1,1.1,0.4,2.1,1.6,2.2c0.6,0.1,1.5-0.3,1.7-0.7
			c1.2-2.7,1.9-6.6-0.3-7.8c-2.8-1.6-3-3.3-2.9-5.8c0-1.4-0.4-2.8-2.2-2.8c-1.9,0-1.7,1.7-1.8,2.9c-0.2,1.4,0.7,3.9-0.6,4.2
			c-4.9,1.1-3.1,4.8-3.2,7.5c-0.2,5.3-0.1,10.7-0.1,16c0,1.3-0.4,3.4,0.8,3.6c4.4,0.8,2.9,4,3,6.5c0.1,4.5,0.1,9,0,13.5
			c0,8.7,0.3,17.4-0.3,26c-0.5,8-6,12.7-13.8,12.7c-12.8,0.1-25.6,0.1-38.4,0c-7.6-0.1-13-5.7-13.1-13.3c0-1.9-1.1-4.9,0.8-5.4
			c3.5-1.1,3-3.4,3.1-5.8c0-0.7-0.4-2,0.6-2.1c3.1-0.3,6.4-0.6,9.4-0.1c2.4,0.4,0.8,3,1.2,4.6c0.2,1,0.2,2.4,1.1,2.6
			c3.7,0.6,2.7,3.3,2.8,5.6c0.2,6.2,3.6,10,9.8,10.3c4.6,0.3,9.3,0.2,14,0.1c7.8-0.2,11.1-3.6,11.1-11.4c0-16.7-0.1-33.3,0.1-50
			c0-3.3-2.4-7.9,3.4-9.4c0.4-0.1,0.4-1.8,0.5-2.8c0-6.7,0-13.3,0-20c0-1.1,0.3-2.8-1-3.1c-3.2-0.5-3.1-2.6-3-5
			c0.1-1.4,0.1-3-1.6-3.1c-1.9-0.1-2.4,1.3-2.4,3c0.1,2.3,0.4,4.5-2.9,5.1c-1.2,0.2-1.1,1.9-1.1,3.1c0,2.3-0.4,4.8,0.1,7
			c1.3,5.9-3.7,13.2,3.7,17.9c0.3,0.2,0.1,1.3,0.1,1.9c0,18.8,0,37.7,0,56.5c0,3.8-1.8,6-5.7,6.1c-5.2,0.1-10.3,0-15.5,0
			c-3.4,0-4.9-2.1-5.8-5.1c-1.7-5.6,6.1-8.2,4.4-13.8c0.6-0.1,1.3-0.3,1.9-0.3c1.8,0,3.7,0,5.5,0c5.8-0.1,7.7-1.8,7.7-7.8
			c0.1-27.2,0-54.3,0-81.5c0-3.2-0.9-5.9-3.6-7.7H19.1c-2.2,0.6-3.4,1.8-3.5,3.7c0,0.1,0,0.2,0,0.4c0,0.4,0,0.8,0.1,1.3
			c0,16.9,0,33.9,0,50.8c0,1.8-0.4,3.6,0.2,5.3c0.1,0.2,0.1,0.4,0.2,0.6c4.7,1.8,3.2-2.1,3.3-3.9c0.1-16.5,0.2-33,0-49.5
			c0-3.6,1-4.8,4.8-4.8C40.4,4,56.7,4,73,3.9c3.1,0,4.4,0.7,4.4,4.1c-0.1,27-0.1,54,0,81c0,3.4-1.2,4.2-4.4,4.2
			c-16.5-0.1-32.9-0.2-49.3,0c-3.4,0-4.4-1.1-4.3-4.3c0.2-6,0.1-12,0-18c0-1.9,0.4-4.9-3.3-2.9c0,0.2-0.1,0.5-0.1,0.7
			c-0.8,8.1-0.6,16.3,0,24.4c1.8,5.4,6.4,3.8,10.1,3.8c3.4,0,5.9,0.2,5,4.6c-0.2,1.1-0.2,2.8,1.1,3c3.6,0.4,2.7,3,2.7,5.1
			C35.1,121.2,42,128,53.7,128c11.8,0,23.6,0,35.4,0c12.6,0,19.5-7,19.6-19.8c0-12.7,0-25.3,0-38c0-1.3,0.1-3.7,0.4-3.7
			c5.3-0.9,3.2-5.1,3.4-8C112.6,56.5,113.6,53.2,110.6,53.1z M88.9,44.1c0-5,0-10,0-14.9c0-1.4,0.4-2.1,1.9-2.2c2-0.1,2,1.1,2,2.5
			c0,2.5,0,5,0,7.5c0,2.3,0,4.6,0,7c0,1.5-0.2,2.6-2.1,2.4C89.3,46.3,88.9,45.5,88.9,44.1z M60.2,101c-1.3,0-2.2-0.2-2.2-1.9
			c0-1.4,0.3-2.2,1.9-2.2c1.3,0,2.4,0.1,2.1,1.8C62,100,61.9,101,60.2,101z M36.9,101c-1.5,0.1-2-0.6-2-2c0-1.4,0.3-2.2,1.9-2.1
			c1.3,0.1,2.3,0.4,2.1,1.9C39,100.3,38.3,100.9,36.9,101z"/>
		<path d="M73.8,39c0,2.8-1.2,3.9-3.9,3.9c-14.3,0-28.5-0.1-42.8,0c-3.1,0-4-1.4-4-4.3c0.1-9,0.1-18,0-27c-0.1-3.2,1.3-4.1,4.2-4
			c5,0.1,10,0,14.9,0.1C43.7,7.7,46,7,46,9.6c0,2.7-2.4,2.2-4.1,2.2c-4,0.1-8,0.1-12,0c-2.1-0.1-2.9,0.5-2.9,2.8
			c0.1,7.2,0.1,14.3,0,21.5c0,2.3,0.8,2.8,2.9,2.8c4.8-0.1,9.6,0,15.2,0c-2-4.2-3.7-7.8-5.5-11.3c-0.7-1.4-1.4-3,0.3-3.9
			c1.9-1.1,2.5,0.7,3.2,2.1c0.2,0.3,0.4,0.6,0.5,0.9c7.1,13.5,7.9,13.9,23.5,12.4c2.3-0.2,2.7-1.1,2.7-3.1c-0.1-7-0.1-14,0-21
			c0.1-2.6-1.1-3-3.2-3c-4.2,0.1-8.3,0-12.5,0c-1.5,0-3.3-0.1-3.3-2.1c-0.1-2.3,1.9-2,3.3-2c5.3-0.1,10.6,0,15.9-0.1
			c2.7,0,3.8,1.1,3.8,3.9C73.7,20.7,73.7,29.9,73.8,39z"/>
		<path d="M49.1,46.7c-9.9-0.4-17.5,6.6-18,16.5C30.6,73.1,38,81,48,81.4c9.5,0.4,17.5-7.2,17.8-16.9C66.1,54.7,59,47.1,49.1,46.7z
			 M50.1,69.2c-3.4,1-6.1-0.2-7-3.6c-1.1-4,0.8-6.7,5.5-7.4c0.4,2.9-4.2,5.4-0.9,7.2c3.1,1.7,2.9-3.6,5.3-4.4
			C54.6,65.6,53.7,68.2,50.1,69.2z M60.1,70.4c-2.5,4.7-6.4,6.9-9.2,6.9c-10.4-0.1-16.5-6.4-15.9-14c0.6-7.8,7.2-13.4,14.9-12.5
			c1,0.1,3.2-0.7,2.8,1.6c-0.3,1.4-1.3,2.1-3.2,2C43,54.3,39.1,58,38.9,63.7c-0.2,4.4,1.9,7.4,5.7,9c3.8,1.6,7.6,1.2,10.5-1.9
			c2.8-3,3.6-6.6,2-10.6c-0.3-0.6-0.5-1.3-0.9-1.7c-1.4-1.5-1.3-3.2,0.3-4.2c1.6-1,2.3,1,2.9,1.9C62.3,60.8,62.7,65.5,60.1,70.4z"/>
		<path d="M62,87.3c0,1.2-0.7,1.8-1.8,1.8c-1.1,0-2-0.4-2.2-1.6c-0.2-1.4,0.6-2.1,1.9-2.5C61.2,85.3,61.9,86,62,87.3z"/>
		<path d="M38.9,87.1c0.1,1.5-0.9,1.9-2.1,2.1c-1.2-0.1-1.9-0.6-1.8-1.8c0.1-1.3,0.7-2.2,2.1-2.1C38,85.3,38.8,86,38.9,87.1z"/>
	</g>
</g>
</svg>
