<?xml version="1.0" encoding="utf-8"?>
<!-- Generator: Adobe Illustrator 28.0.0, SVG Export Plug-In . SVG Version: 6.00 Build 0)  -->
<svg version="1.1" id="Layer_1" xmlns="http://www.w3.org/2000/svg" xmlns:xlink="http://www.w3.org/1999/xlink" x="0px" y="0px"
	 viewBox="0 0 128 128" style="enable-background:new 0 0 128 128;" xml:space="preserve">
<g>
	<path d="M100.2,86.8c1.2,0.1,1.9-0.5,2-1.8c0.5-3.9,0.1-7.7-0.3-11.6c-0.8-7-2.4-13.8-3.8-20.7c-1-4.8-2.2-9.6-2.2-14.6
		c0-3.3,0-6.7,0-10c0-1.8-1.2-3.2-2.9-3.3c-1.8-0.1-3.7-0.1-5.5,0c-1.8,0.1-2.8,1.2-2.8,3c0,2.2,0,4.4,0,6.6c0,2.7,0.1,5.4-0.3,8.1
		c-1,6.9-2.7,13.7-4.1,20.5c-1.1,5.5-2,11-2,16.7c0,7.8,0.3,15.6,1.1,23.4c0.6,5.7,1.1,11.3,1.6,17c0.1,1.1,0.5,2,1.5,2.6
		c0.3,0.1,0.5,0.3,0.5,0.6c0,2.4,1.3,3.9,3.5,4.7H87c0.9-0.3,1.8-0.1,2.7-0.1c0,0,0.1,0,0.1,0h0.1c1.2,0.1,2.5-0.2,3.7,0.1H94
		c1.9-0.6,3.1-1.8,3.4-3.8c0.1-0.8,0.4-1.4,1.1-1.8c0.6-0.4,0.9-1,1-1.8c0.3-3.2,0.7-6.4,1-9.6c0.6-5.8,1.1-11.5,1.6-17.3
		c0.1-1.5-0.4-2.4-1.6-2.6c-1.2-0.1-2,0.6-2.2,2c-0.3,2.8-0.5,5.7-0.8,8.6c-0.3,2.7-0.5,5.4-0.8,8.1c-0.3-1.4-0.4-2.8-0.5-4.2
		c-0.9-8.2-1.6-16.4-1.4-24.7c0.1-3.4-0.1-6.8-0.6-10.2c-1-6.2-2.6-12.3-3.8-18.5c-0.9-4.4-2-8.7-1.9-13.3c0.1-2.6,0-5.2,0-7.7
		c0-2.7,0-2.7,2.7-2.7c0.9,0,1,0.3,1,1.1c0,3.8-0.2,7.7,0,11.5c0.2,4.6,1.5,9.1,2.4,13.6c1.1,5.3,2.4,10.5,3.2,15.9
		c0.7,4.8,0.7,9.5,0.7,14.3C98.5,86.1,99.1,86.7,100.2,86.8z M85.8,84.2c0.1,5.9-0.4,11.7-1,17.6c-0.2,2.4-0.4,4.8-0.6,7.2
		c-0.1,0-0.3,0-0.4,0c-0.4-4.6-0.9-9.2-1.2-13.8c-0.7-10.2-1-20.4,1.3-30.4c0.9-3.9,1.6-7.8,2.4-11.7c0.1,0,0.3,0,0.4,0.1
		c0.3,1.5,0.5,3.1,1,4.6c0.6,2.2,0.6,4.3,0.1,6.6C86.3,70.8,85.6,77.5,85.8,84.2z M93.7,120c0,1,0,2.1,0,3.1c0,0.7-0.3,1.1-1,1.1
		c-1.6,0-3.2,0-4.9,0c-0.6,0-1-0.3-1-1c0-1.6,0.1-3.2,0.1-4.7c0-0.9,0.4-1.4,1.4-1.2c0.7,0.1,1.3,0,2,0h0.5
		C93.6,117.3,93.6,117.3,93.7,120z M90.2,71.7C91,76.3,91.1,81,91,85.6c-0.1,6.1,0.5,12.2,1.2,18.3c0.3,2.9,0.5,5.8,0.8,8.7
		c0.1,0.7,0,1-0.9,1c-1.5-0.1-3.1,0-4.7,0C89.4,99.6,89.7,85.6,90.2,71.7z"/>
	<path d="M85.4,8.6c-0.5-0.9-1.3-1.4-2.3-1c-0.9,0.3-1.3,1.1-1.2,2.1c0.1,0.5,0.1,1,0.1,1.5c0.1,2.1-0.4,4-1.6,5.6
		c-2.6,3.7-7.4,3.5-9.6-0.5c-1.3-2.5-1.5-5.1-0.7-7.7c0.8-2.5,2.2-4.2,4.9-4.7c1.2-0.2,2.3,0.3,3.4,0.6c1,0.2,1.7,0,2.2-0.9
		c0.5-1,0.2-1.8-0.7-2.4c-0.5-0.4-1.2-0.6-1.8-0.8c-5-1.2-9.7,1.4-11.5,6.3c-0.9,2.4-0.9,4.9-1.2,7.4c-0.6,4.6-1.1,9.2-1.6,13.7
		c-0.5,4.1-0.9,8.2-1.4,12.3c-0.2,0.4-0.1,0.9-0.4,1.2c0.1-0.2,0.1-0.4-0.1-0.7c-0.4-3.4-0.8-6.8-1.2-10.1c-0.7-6-1.4-12-2.1-17.9
		c-0.3-2.9-0.7-5.7-2.3-8.2C53-0.8,45.7-1.5,41.8,3c-3.9,4.4-4.1,12.3-0.4,16.8c2.3,2.8,5.4,3.9,9,3.2c2.1-0.4,3.8-1.5,5.4-3.2
		c0.7,5.7,1.3,11.1,2,16.6c0.6,5.3,1.3,10.6,1.9,15.8c0.2,2.1,0.8,4.3,0.6,6.4c-0.4,3.5-0.8,7-1.3,10.5c-0.1,0.9,0.2,1.9-0.8,2.7
		c-2.9,2.4-3.5,6.4-1.3,9.5c0.4,0.5,0.5,1,0.4,1.7C56.6,88.6,56,94,55.4,99.4c-0.8,6.6-1.5,13.2-2.4,19.8c-0.4,2.8,0.1,5.2,2.2,7.1
		c0.9,0.8,2,1.1,3,1.6h8c0.1-0.1,0.3-0.2,0.4-0.2c3.4-1.1,5.3-3.9,4.9-7.4c-0.5-4.3-1-8.5-1.5-12.8c-0.9-8.1-1.9-16.2-2.9-24.3
		c-0.1-0.7,0.1-1.1,0.5-1.7c2.2-3.1,1.7-7.2-1.3-9.6c-0.4-0.3-0.6-0.7-0.7-1.2c-0.3-2.5-0.7-4.9-0.9-7.4c-0.2-2.1-0.8-4.3-0.5-6.4
		c0.5-4.4,1-8.8,1.6-13.2c0.7-6.1,1.4-12.1,2.2-18.2c0.2-1.8,0.4-3.6,0.7-5.6c0.3,0.3,0.6,0.5,0.8,0.7c3.1,3.2,9.7,4.3,13.6-0.9
		c1.5-2.1,2.6-4.4,2.9-6.9C86.1,11.4,86.2,9.9,85.4,8.6z M53.2,16.8c-2.2,3.6-7,3.6-9.3,0.1c-1.1-1.6-1.5-3.4-1.4-5.3
		c0-1.8,0.4-3.5,1.4-5.1c2.3-3.6,7.2-3.6,9.4,0C55.3,9.9,55.3,13.4,53.2,16.8z M66.3,108.2c0.5,3.8,0.9,7.7,1.4,11.5
		c0.4,3.2-0.7,4.6-3.9,4.6c-1.2,0-2.5,0-3.7,0c-2.2,0-3.5-1.3-3.3-3.5c0.4-4,0.9-8,1.4-12c0.5-4.6,1.1-9.2,1.7-13.8
		c0-0.4,0-0.8,0.4-1.1c1.3-1.2,2.6-2.3,4-3.6C64.9,96.3,65.6,102.2,66.3,108.2z M60.7,87.2c0-0.5,0.1-1,0.1-1.5
		c0-1.2,0.5-1.8,1.7-1.5c0.3,0.1,0.8-0.3,0.9,0.3c0.1,0.4,0.2,0.9-0.3,1.3c-0.7,0.6-1.5,1.3-2.2,2C60.7,87.7,60.8,87.4,60.7,87.2z
		 M65.2,77.5c0,1.6-1.3,2.9-2.9,3c-1.7,0-3-1.3-3-3c0-1.7,1.2-3,2.9-3C64,74.5,65.2,75.8,65.2,77.5z"/>
	<path d="M89.7,127.8c1.3,0.1,2.5-0.3,3.8,0.2c-1.2,0-2.5,0-3.7,0C89.7,128,89.6,127.9,89.7,127.8C89.7,127.8,89.7,127.8,89.7,127.8
		z"/>
	<path d="M89.7,127.8c0,0.1,0,0.2,0,0.2c-0.9,0-1.8,0-2.7,0C87.9,127.5,88.8,127.9,89.7,127.8z"/>
	<path d="M39.2,91.3c-1-0.9-0.9-2-0.9-3.2c0-1.4,0.2-2.6,0.6-3.9c0.5-1.4,0.6-2.7,0.6-4.2c0-5.5,0-11.1,0-16.6c0-5.2,0-10.3,0-15.5
		c0-2.7,0.4-5.4,0.9-8c0.7-3.5,1.8-7,1.6-10.7c-0.1-2.6-1.8-4.4-4.4-4.5c-2.5-0.1-5.1-0.1-7.6,0c-2.6,0-4.4,1.9-4.5,4.5
		c-0.1,1.9,0.1,3.8,0.6,5.7c1.3,5.5,2.1,11.1,1.9,16.8c-0.2,9.1,0,18.2-0.1,27.4c0,1.9,0.3,3.8,0.8,5.6c0.6,2.3,1.2,4.7-0.5,6.8
		c-0.2,0.2-0.2,0.6-0.3,0.9c-0.4,4.8-0.9,9.6-1,14.4c-0.1,1.3,0.1,2.6,0.7,3.8c1.1,2.5,2.2,5.1,3.4,7.6c0.5,1.2,1.3,2,2.7,2
		c1.4,0,2.3-0.8,2.8-2c1.1-2.4,2.1-4.9,3.2-7.3c0.6-1.4,1-2.9,0.9-4.5c-0.3-4.4-0.6-8.8-0.9-13.2C39.6,92.6,39.7,91.8,39.2,91.3z
		 M35.7,110.8c-0.7,1.3-1.2,2.7-2,4.4c-1.1-3.2-3.1-5.7-3-8.9c0.2-3.9,0.6-7.9,0.8-11.8c0-0.8,0.3-1.1,1.1-1c1,0.1,2.3-0.4,3,0.2
		c0.7,0.6,0.2,1.9,0.3,2.9c0.2,2.7,0.4,5.4,0.7,8.1C36.9,106.8,36.7,108.9,35.7,110.8z M36.9,37.9c-0.8,3.4-1.2,6.8-1.2,10.2
		c0.1,10.6,0,21.2,0,31.7c0,0.9,0,1.8-0.3,2.6c-0.7,2.1-1.1,4.2-0.9,6.4c0,0.5,0.1,1-0.7,0.9c-0.8,0-0.8-0.4-0.8-0.9
		c0.2-2.2-0.2-4.4-0.9-6.5c-0.3-0.8-0.3-1.7-0.3-2.6c0-5.9,0-11.7,0-17.6c0-3.8-0.1-7.6,0-11.4c0.2-5.2-0.4-10.3-1.7-15.3
		c-0.5-1.9-0.8-3.9-0.8-5.9c0-0.8,0.3-1.1,1.1-1.1c2.2,0,4.4,0.1,6.6,0c0.9,0,1.1,0.4,1.1,1.2C38.2,32.5,37.5,35.2,36.9,37.9z"/>
	<path d="M62.5,40c0.1,0.5,0.1,1-0.4,1.3c-0.2-0.3-0.2-0.6-0.1-0.9C62.3,40.4,62.3,40.1,62.5,40z"/>
	<path d="M83.8,109c0.1,0,0.3,0,0.4,0C84.1,109.2,83.9,109.2,83.8,109z"/>
	<path d="M86.7,53.1c-0.1,0-0.3,0-0.4-0.1C86.4,52.9,86.6,52.9,86.7,53.1z"/>
	<path d="M84,110.2c-0.4-0.4-0.3-0.8-0.2-1.2c0.1,0,0.3,0,0.4,0C84.3,109.4,84.3,109.7,84,110.2z"/>
	<path d="M86.7,53.1c-0.1,0-0.3,0-0.4-0.1c0-0.2-0.2-0.6,0.2-0.5C86.7,52.5,86.8,52.8,86.7,53.1z"/>
	<path d="M61,87.8c-0.5,0-0.4-0.3-0.3-0.6C60.8,87.4,60.7,87.7,61,87.8z"/>
	<path d="M61,87.8c-0.1,0.2-0.3,0.4-0.4,0.3c-0.3-0.3-0.1-0.6,0.1-0.9C60.8,87.4,60.7,87.7,61,87.8z"/>
</g>
</svg>
