<?xml version="1.0" encoding="utf-8"?>
<!-- Generator: Adobe Illustrator 28.0.0, SVG Export Plug-In . SVG Version: 6.00 Build 0)  -->
<svg version="1.1" id="Layer_1" xmlns="http://www.w3.org/2000/svg" xmlns:xlink="http://www.w3.org/1999/xlink" x="0px" y="0px"
	 viewBox="0 0 128 128" style="enable-background:new 0 0 128 128;" xml:space="preserve">
<path d="M128,64.1c-0.1,0.1-0.1,0.2-0.2,0.3c-0.1,0.1-0.3,0.3-0.4,0.4c-20.9,20.9-41.7,41.7-62.6,62.6c-0.6,0.6-0.8,0.5-1.4,0
	C42.6,106.6,21.8,85.7,0.9,64.9c-0.6-0.6-0.5-0.9,0-1.4C21.8,42.6,42.7,21.8,63.5,0.9c0.6-0.6,0.8-0.5,1.4,0
	c20.9,20.9,41.7,41.8,62.6,62.6C127.6,63.7,127.8,63.9,128,64.1z M64.2,117.9c0.2-0.2,0.4-0.4,0.6-0.6c17.5-17.5,35-35,52.5-52.5
	c0.5-0.5,0.5-0.7,0-1.2C99.8,46,82.3,28.5,64.8,11c-0.5-0.5-0.8-0.5-1.2,0c-17.5,17.5-35,35-52.5,52.5c-0.6,0.6-0.6,0.8,0,1.4
	c17.5,17.5,35,35,52.5,52.4c0.1,0.1,0.2,0.2,0.3,0.3C64,117.7,64,117.8,64.2,117.9z"/>
<path d="M79.6,66.1c-0.2,0.5-0.4,0.9-1,0.9c-0.4,0-0.2,0.3-0.2,0.5c0,0.9-0.6,1.4-1.5,1.3c-0.3,0-0.5-0.1-0.7,0.1
	c-0.2,0.2-0.5,0.3-0.7,0.1c-0.6-0.6-1.2-0.3-1.9-0.3c-0.3,0-0.5-0.2-0.7-0.5c-0.2-0.2-0.5-0.3-0.8-0.1c-0.2,0.2-0.2,0.4,0.1,0.7
	c0.4,0.4,0.4,0.8,0,1.2c-0.4,0.4-0.8,0.4-1.2,0c-0.5-0.4-0.9-0.1-1.2,0.3c-0.4,0.6-0.8,0.9-1.5,0.6c-0.7-0.3-0.6-1-0.8-1.5
	c-0.6-1.4-0.1-2.9-0.5-4.4C67,65,66.8,65,66.7,64.9c-0.3-0.2-0.5-0.4-0.3-0.8c0.1-0.3,0.4-0.5,0.8-0.4c0.4,0.1,0.5,0,0.4-0.4
	c-0.1-0.4-0.2-0.8-0.1-1.2c0.1-0.3-0.1-0.5-0.2-0.7c-0.3-0.8-0.6-1.6-1-2.4c-0.1-0.2-0.1-0.6,0.1-0.7c0.6-0.6,0.3-1,0-1.7
	c-0.3-0.9-0.5-1.8-1-2.6c-0.4-0.5-0.1-1.4-0.6-2c-0.1-0.1,0-0.4-0.2-0.3c-0.2,0-0.4,0-0.4,0.3c0,0.4-0.3,0.7,0.1,1.2
	c0.4,0.5,0.4,1.1-0.2,1.6c-0.3,0.3-0.3,0.4-0.1,0.7c0.3,0.8,0.2,1.5-0.6,2.1c-0.3,0.2-0.4,0.3-0.3,0.7c0.1,0.3,0.1,0.7-0.1,1
	c-0.3,0.7,0.2,0.9,0.6,0.9c0.4,0,0.7,0.1,0.8,0.4c0.1,0.4-0.1,0.6-0.4,0.8c-0.4,0.1-0.1,0.3-0.1,0.5c0.3,0.9,0.2,1.6-0.6,2.2
	c-0.4,0.3-0.7,1.4-0.5,1.9c0.1,0.2,0.1,0.4,0,0.5c-0.6,0.4-0.2,1-0.2,1.5c0,0.5-0.1,1-0.5,1.3c-0.3,0.3-0.7,0.6-0.9,1.1
	c-0.1,0.4-0.8,0.4-1.1,0c-0.5-0.9-1-1.4-2.2-1.4c-0.6,0-1-0.1-1.5,0.4c-0.8,0.6-2,0.3-2.5-0.7c-0.2-0.3-0.3-0.5-0.6-0.5
	c-0.1,0-0.1,0-0.2,0c-0.7-1.2-2.6-0.5-3.2-2c-0.1-0.2-0.3-0.1-0.4-0.1c-0.8-0.1-1.1-0.7-1.6-1.1c-0.4-0.4-1.3-0.2-1.8-0.8
	c-0.3-0.5-0.5-0.8,0.2-1c3-1.1,6.1-2.2,9.1-3.3c0.4-0.1,0.6-0.3,0.6-0.8c0.1-1.3,0.2-2.5,0.4-3.8c0-0.3-0.1-0.6-0.3-0.8
	c-3.8-5.1-5.6-10.8-5.5-17.1c0.1-6.1,2.8-10.8,8.5-13.4c4.1-1.9,8.2-1.5,11.8,1.2c4.5,3.4,7.2,7.8,6.9,13.6
	c-0.1,2.6-0.8,5.1-1.5,7.6c-1,3.2-2.2,6.4-4.5,8.9c-0.2,0.2-0.2,0.4-0.2,0.7c0,1.1,0.1,2.1,0,3.2c0,0.6,0.2,0.8,0.7,1
	c3.3,1,6.6,2.1,9.9,3.2c0.3,0.1,0.7,0,0.7,0.4c0,0.4-0.3,0.5-0.6,0.7c-0.4,0.2-0.6,0.7-0.8,1.1C81.3,66.7,80.6,66.9,79.6,66.1z"/>
<path d="M76.5,82c-0.4,0.5-0.8,0.7-1.2,0.2c-0.4-0.4-0.2-0.9,0.3-1.1c0.6-0.3,0.1-0.7,0.2-1c-0.4-0.1-0.9-0.5-1.3,0
	c-0.3,0.3-0.6,0.4-1,0.2c-0.4-0.1-0.5-0.5-0.5-0.8c0-0.3,0.1-0.5,0.4-0.7c0.5-0.3,0.3-0.8,0.1-1.1c-0.1-0.2-0.6-0.3-0.9,0
	c-0.4,0.3-0.8,0.3-1.1-0.1c-0.3-0.4-0.2-0.7,0.2-1c0.3-0.2,0.2-0.3,0.1-0.5c-0.3-1,0-1.6,1-1.8c0.3,0,0.5-0.1,0.5-0.5
	c0-0.3,0.2-0.7,0.4-0.7c0.8-0.2,1-0.8,1.3-1.4c0.3-0.6,1-0.9,1.7-0.9c0.4,0,0.8-0.2,1.1-0.2c0.8-0.1,0.9-0.5,1-1.1
	c0.2-1,1.1-1.6,2.2-1.6c0.4,0,0.5-0.1,0.7-0.5c0.3-1,1.2-1.4,2.2-1.1c0.3,0.1,0.5,0.2,0.5-0.3c0-0.2,0.3-0.6,0.5-0.5
	c0.9,0.2,1.2-1.1,2.2-0.6c1.2,0.5,2.5,0.8,3.8,1.3c1.4,0.5,2.6,1.3,3.5,2.5c0.8,1,1.2,2.1,1.2,3.4c0,1.6,0,3.3,0,4.9
	c0,0.7-0.2,1.2-0.8,1.7c-2.9,2.6-5.7,5.3-8.6,7.9c-0.4,0.4-0.8,0.9-1.5,0.6c-0.7-0.3-0.7-0.9-0.6-1.5c-1.6,0.2-2.2-0.2-2.6-1.7
	c-0.9,0.4-1.8,0.4-2.3-0.7C79.2,83,79.1,83,78.9,83C77.8,83.4,77,83,76.5,82z"/>
<path d="M48.1,84.3c-0.4,1.4-0.7,1.7-2.2,1.7c-0.3,0-0.4,0.2-0.6,0.3c-0.5,0.4-1,0.5-1.6-0.1c-2.9-3-5.9-6-8.8-9
	c-0.2-0.3-0.4-0.5-0.4-0.9c0-1.8,0-3.6,0-5.4c0-2,1-3.5,2.8-4.3c1.8-0.8,3.7-1.5,5.5-2.2c0.2-0.1,0.4-0.2,0.5-0.1
	c0.6,0.4,1.2,0.6,1.8,0.8c0.4,0.1,0.7,0.3,1.1,0.3c0.6,0.1,1.1,0.5,1.4,1c0.1,0.1,0.1,0.4,0.1,0.4c0.9,0.1,1.1,0.9,1.5,1.6
	c0.2,0.4,0.7,0.7,1.4,0.5c0.9-0.2,1.6,0.5,1.8,1.4c0.1,0.3,0,0.6,0.5,0.6c0.3,0,0.6,0.3,0.6,0.6c0,0.6,0.3,0.4,0.7,0.4
	c0.8-0.1,1.5,0.2,1.8,1c0.2,0.7,0.6,1.2,0.9,1.8c0.1,0.1,0.1,0.3,0.2,0.4c0.8,0.4,0.9,0.8,0.1,1.4c-0.2,0.2-0.4,0.7,0.1,1
	c0.5,0.3,0.5,0.7,0.1,1.1c-0.4,0.4-0.8,0.3-1.1-0.2c-0.1-0.2-0.3-0.3-0.5-0.2c-0.3,0-0.2,0.3-0.2,0.4c0,0.2,0,0.4-0.1,0.5
	c-0.2,0.4-0.3,0.6,0.1,0.9c0.4,0.3,0.3,0.8,0,1.2c-0.3,0.4-0.7,0.5-1.1,0.3c-0.5-0.1-0.7-0.5-0.7-1c0-0.3,0.3-0.7-0.2-0.7
	c-0.2,0-0.4-0.4-0.5-0.1c-0.1,0.3-0.8,0.5-0.4,1.1c0.2,0.4,0.1,0.7-0.2,1c-0.3,0.3-0.7,0.4-1,0.2c-0.6-0.3-0.9,0.1-0.9,0.5
	C50.4,84.6,49.7,85,48.1,84.3z"/>
<path d="M75.9,84.7c0.6-1.1,1-1.2,2-0.1c0.2,0.2,0.3,0.1,0.5,0.1c1.1,0,1.6,0.4,1.9,1.4c0.1,0.3,0.1,0.4,0.4,0.3
	c0.6-0.2,1.2,0,1.5,0.6c0.2,0.2,0.3,0.3,0.6,0.3c0.5-0.1,0.8,0.2,1,0.6c0.2,0.4,0,0.7-0.3,1c-6,5.5-12,11-17.9,16.5
	c-0.2,0.1-0.3,0.5-0.6,0.3c-0.3-0.2-0.2-0.5-0.1-0.8c0.4-0.7,0.1-1.5,0.2-2.3c0.1-1-0.3-2.1,0.5-3c0.2-0.2,0.1-0.3,0-0.5
	C64.8,98,65,97,66,96.1c0.3-0.2,0.3-0.3,0.1-0.5c-0.3-0.3-0.6-0.7-0.6-1.2c0-0.7,0.3-1.4-0.7-1.8c-0.2-0.1-0.3-0.6-0.1-0.7
	c0.9-0.6,0-1.8,1-2.3c0.8-0.4,1.5,0.2,1.4,1.1c0,0.2-0.1,0.4,0.2,0.4c0.3,0,0.1-0.2,0.2-0.3c0.1-0.5,0.1-0.9-0.2-1.4
	c-0.4-0.6,0-1.3-0.1-1.9c-0.1-0.6-0.7-1.1-0.5-1.8c0.1-0.3,0.1-0.4-0.2-0.6c-0.4-0.3-0.6-0.7-0.4-1.1c0.2-0.5,0.5-0.7,1-0.6
	c0.4,0.1,0.4-0.1,0.4-0.4c0-0.5,0.3-0.9,0.8-1.1c0.5-0.2,0.9-0.1,1.2,0.3c0.4,0.5,0.7,0.4,1.1,0c0.7-0.6,1.2-0.6,1.7,0.1
	c0.2,0.3,0.3,0.3,0.6,0.3c0.4,0,0.9,0.2,1.1,0.5C74.4,83.9,74.9,84.6,75.9,84.7z"/>
<path d="M51.4,86c0.1-1.3,0.7-1.7,1.9-1.5c0.3,0,0.4,0,0.6-0.3c0.3-0.5,0.8-0.8,1.2-0.6c0.8,0.3,1.4,0.2,2-0.3
	c0.2-0.2,0.6-0.1,1-0.2c-0.1-0.5-0.2-1,0.3-1.4c0.5-0.3,1-0.2,1.4,0.2c0.2,0.2,0.4,0,0.5,0c0.4-0.1,0.8,0,1.1,0.2
	c0.3,0.2,0.6,0.4,1.1,0.2c0.2-0.1,0.5,0.1,0.7,0.3c0.1,0.2,0.2,0.5,0,0.7c-0.3,0.3-0.1,0.7-0.1,1c-0.1,1.1,0,2.1,0.4,3.1
	c0,0.1,0,0.2,0,0.2c-0.3,0.6-0.6,1.2,0,1.8c0.2,0.2,0,0.8-0.3,0.9c-0.8,0.3-0.3,1-0.5,1.5c-0.1,0.2,0.2,0.2,0.3,0.2
	c0.3,0.1,0.6,0.2,0.7,0.5c0.1,0.7,0.3,1.5,0.2,2.2c0,0.4-0.1,0.6,0.2,0.9c0.7,0.7,0.8,1.6,0.1,2.3c-0.3,0.4-0.3,0.6-0.1,1
	c0.4,1.1,0.2,2-0.5,2.9c-0.2,0.2-0.5,0.4,0,0.7c0.3,0.2,0.2,0.5,0.2,0.8c-0.1,0.6-0.1,1.2,0,1.9c0,0.3,0.1,0.6-0.2,0.7
	c-0.3,0.1-0.4-0.2-0.5-0.3c-5.6-5.6-11.1-11.3-16.7-16.9c-0.4-0.4-0.4-0.9-0.2-1.3c0.3-0.6,0.8-0.9,1.5-0.7c0.4,0.1,0.6,0,0.9-0.3
	C49.1,85.4,50,85.3,51.4,86z"/>
<path d="M65.9,87.6c0,0.5-0.5,1-1,1c-0.5,0-1.1-0.6-1-1.1c0.1-0.4,0.2-0.8,0.1-1.2c-0.1-0.3,0.1-0.5,0.4-0.6
	c0.3-0.1,0.7-0.1,0.8,0.2C65.5,86.4,65.7,87,65.9,87.6z"/>
<path d="M69.2,74.2c0,0-0.2,0-0.2,0c-0.5-0.4-1-0.8-1.5-1.3c-0.2-0.2-0.1-0.6,0.2-0.8c0.2-0.2,0.6-0.3,0.8-0.1
	c0.3,0.3,0.6,0.3,1,0.4c0.6,0.1,0.8,0.5,0.8,1C70.1,73.9,69.8,74.1,69.2,74.2z"/>
<path d="M71.6,79.1c0,0.1,0,0.2-0.1,0.3c-0.4,0.6-1,1-1.6,1.4c-0.2,0.2-0.6,0-0.7-0.3c-0.2-0.3-0.2-0.6,0.1-0.8
	c0.3-0.2,0.4-0.5,0.4-0.9c0.1-0.5,0.5-0.8,1-0.7C71.3,78.2,71.5,78.5,71.6,79.1z"/>
<path d="M64.8,65.6c0.4,0,0.6,0.2,0.8,0.5c0.2,0.3,0.2,0.7-0.1,1c-0.2,0.2-0.5,0.4-0.3,0.8c0.1,0.3-0.1,0.5-0.3,0.7
	c-0.3,0.1-0.5,0.1-0.7-0.1c-0.3-0.2-0.3-0.5-0.1-0.8c0.2-0.3,0.1-0.4,0-0.7C63.7,66.3,64.1,65.6,64.8,65.6z"/>
<path d="M60.1,74.6c0,0.4-0.2,0.7-0.5,0.9c-0.3,0.1-0.7,0.1-0.8-0.1c-0.3-0.7-1.3-0.4-1.5-1.1c-0.1-0.2,0-0.4,0.2-0.6
	c0.2-0.2,0.5-0.3,0.7-0.1c0.3,0.4,0.7,0.2,1.1,0.2C59.8,73.8,60.1,74.1,60.1,74.6z"/>
<path d="M58.5,71.1c-0.1,0.6-0.4,0.9-1,0.9c-0.5,0-0.9-0.3-0.9-0.9c0-0.6,0.3-0.9,0.9-0.9C58.1,70.2,58.4,70.6,58.5,71.1z"/>
<path d="M62.9,79.3c0.6,0,1,0.3,1,0.8c0,0.6-0.3,0.9-0.9,0.9c-0.5,0-0.9-0.3-0.9-0.9C62.2,79.7,62.5,79.4,62.9,79.3z"/>
<path d="M57.8,80.9c-0.4,0-0.7-0.2-0.7-0.7c0-0.4,0.2-0.7,0.6-0.7c0.4,0,0.7,0.2,0.8,0.6C58.5,80.6,58.3,80.8,57.8,80.9z"/>
<path d="M64.2,70.2c0,0.4-0.3,0.6-0.6,0.6c-0.4,0-0.7-0.3-0.6-0.7c0-0.4,0.3-0.6,0.7-0.6C64,69.6,64.2,69.8,64.2,70.2z"/>
</svg>
