<?xml version="1.0" encoding="utf-8"?>
<!-- Generator: Adobe Illustrator 28.0.0, SVG Export Plug-In . SVG Version: 6.00 Build 0)  -->
<svg version="1.1" id="Layer_1" xmlns="http://www.w3.org/2000/svg" xmlns:xlink="http://www.w3.org/1999/xlink" x="0px" y="0px"
	 viewBox="0 0 128 128" style="enable-background:new 0 0 128 128;" xml:space="preserve">
<g>
	<g>
		<path d="M35.1,97c-0.1,0-0.2,0-0.2-0.1c-0.1-0.1-0.1-0.1-0.1-0.2V86.6c0-0.1,0-0.2,0.1-0.3c0.1-0.1,0.1-0.1,0.2-0.1h0.3
			c0.1,0,0.2,0,0.3,0.1s0.1,0.1,0.1,0.3v4.5h2.1l2.9-4.6c0.1-0.1,0.1-0.1,0.2-0.2c0.1,0,0.2-0.1,0.3-0.1h0.2c0.1,0,0.2,0,0.2,0.1
			c0,0.1,0.1,0.1,0.1,0.2c0,0.1,0,0.1-0.1,0.2l-3,4.7l3.3,5c0,0,0,0.1,0,0.2c0,0.1,0,0.2-0.1,0.3c-0.1,0.1-0.2,0.1-0.3,0.1h-0.3
			c-0.1,0-0.2,0-0.2-0.1c-0.1,0-0.1-0.1-0.1-0.1L37.8,92h-2.1v4.6c0,0.1,0,0.2-0.1,0.2C35.5,97,35.5,97,35.3,97H35.1z"/>
		<path d="M43.4,97c-0.1,0-0.2,0-0.3-0.1c-0.1-0.1-0.1-0.2-0.1-0.3v-0.2c0-0.2,0.1-0.3,0.3-0.3c0.3,0,0.6-0.2,0.9-0.5
			c0.2-0.3,0.4-0.8,0.6-1.5c0.1-0.7,0.2-1.7,0.2-2.8v-1.9c0-0.1,0-0.2,0.1-0.2s0.1-0.1,0.2-0.1h4.4c0.1,0,0.2,0,0.2,0.1
			c0.1,0.1,0.1,0.1,0.1,0.2v7.3c0,0.1,0,0.2-0.1,0.2C49.9,97,49.8,97,49.7,97h-0.3c-0.1,0-0.2,0-0.2-0.1c-0.1-0.1-0.1-0.1-0.1-0.2
			v-6.8h-3.2v1.4c0,1-0.1,1.8-0.2,2.6c-0.1,0.7-0.3,1.3-0.5,1.8c-0.2,0.5-0.5,0.8-0.8,1C44.2,96.9,43.8,97,43.4,97z"/>
		<path d="M55.5,97.1c-1,0-1.8-0.3-2.4-1c-0.6-0.6-0.9-1.5-1-2.6c0-0.2,0-0.4,0-0.6s0-0.5,0-0.6c0.1-0.7,0.2-1.3,0.5-1.8
			c0.3-0.5,0.7-0.9,1.1-1.2c0.5-0.3,1.1-0.4,1.7-0.4c0.7,0,1.3,0.2,1.8,0.5c0.5,0.3,0.9,0.8,1.2,1.4c0.3,0.6,0.4,1.3,0.4,2.1V93
			c0,0.1,0,0.2-0.1,0.2c-0.1,0.1-0.2,0.1-0.3,0.1h-5.5c0,0.1,0,0.1,0,0.2c0,0.5,0.1,0.9,0.3,1.3c0.2,0.4,0.5,0.8,0.8,1
			c0.4,0.3,0.8,0.4,1.3,0.4c0.4,0,0.8-0.1,1.1-0.2c0.3-0.1,0.5-0.3,0.7-0.4c0.2-0.2,0.3-0.3,0.3-0.4c0.1-0.1,0.2-0.2,0.2-0.2
			c0.1,0,0.1,0,0.2,0h0.2c0.1,0,0.2,0,0.2,0.1c0.1,0.1,0.1,0.1,0.1,0.2c0,0.1-0.1,0.3-0.2,0.5c-0.1,0.2-0.4,0.4-0.6,0.6
			c-0.3,0.2-0.6,0.4-1,0.5C56.4,97.1,56,97.1,55.5,97.1z M53.1,92.5H58v-0.1c0-0.5-0.1-1-0.3-1.4c-0.2-0.4-0.5-0.7-0.8-1
			c-0.4-0.2-0.8-0.4-1.3-0.4s-0.9,0.1-1.3,0.4c-0.4,0.2-0.6,0.6-0.8,1C53.2,91.5,53.1,91.9,53.1,92.5L53.1,92.5z"/>
		<path d="M61.3,99.9c-0.1,0-0.2,0-0.2-0.1C61,99.7,61,99.7,61,99.6V89.3c0-0.1,0-0.2,0.1-0.2c0.1-0.1,0.1-0.1,0.2-0.1h0.3
			c0.1,0,0.2,0,0.2,0.1c0.1,0.1,0.1,0.1,0.1,0.2v0.7c0.3-0.3,0.6-0.6,1-0.9c0.4-0.2,0.9-0.3,1.6-0.3c0.6,0,1.1,0.1,1.5,0.3
			c0.4,0.2,0.7,0.5,1,0.8c0.3,0.3,0.4,0.7,0.6,1.2c0.1,0.4,0.2,0.9,0.2,1.3c0,0.2,0,0.3,0,0.5s0,0.4,0,0.5c0,0.4-0.1,0.9-0.2,1.3
			c-0.1,0.4-0.3,0.8-0.6,1.2c-0.3,0.3-0.6,0.6-1,0.8c-0.4,0.2-0.9,0.3-1.5,0.3c-0.6,0-1.2-0.1-1.6-0.4c-0.4-0.2-0.7-0.5-1-0.9v3.6
			c0,0.1,0,0.2-0.1,0.2c-0.1,0.1-0.1,0.1-0.2,0.1H61.3z M64.4,96.2c0.6,0,1.1-0.1,1.4-0.4c0.3-0.3,0.6-0.6,0.8-1
			c0.2-0.4,0.2-0.9,0.3-1.4c0-0.3,0-0.6,0-0.9c0-0.5-0.1-1-0.3-1.4c-0.2-0.4-0.4-0.8-0.8-1c-0.3-0.3-0.8-0.4-1.4-0.4
			c-0.6,0-1.1,0.1-1.4,0.4c-0.4,0.3-0.6,0.6-0.8,1c-0.2,0.4-0.3,0.8-0.3,1.3c0,0.2,0,0.4,0,0.6c0,0.2,0,0.4,0,0.6
			c0,0.4,0.1,0.8,0.3,1.2s0.4,0.7,0.8,1C63.4,96.1,63.8,96.2,64.4,96.2z"/>
		<path d="M70.2,97c-0.1,0-0.2,0-0.2-0.1c-0.1-0.1-0.1-0.1-0.1-0.2v-7.3c0-0.1,0-0.2,0.1-0.2C70,89,70.1,89,70.2,89h0.3
			c0.1,0,0.2,0,0.2,0.1c0.1,0.1,0.1,0.1,0.1,0.2v6.9l-0.3-0.4l5-6.6c0.1-0.1,0.1-0.1,0.2-0.2c0.1,0,0.1-0.1,0.2-0.1h0.3
			c0.1,0,0.2,0,0.2,0.1c0.1,0.1,0.1,0.1,0.1,0.2v7.3c0,0.1,0,0.2-0.1,0.2C76.4,97,76.3,97,76.2,97h-0.3c-0.1,0-0.2,0-0.2-0.1
			c-0.1-0.1-0.1-0.1-0.1-0.2v-6.4l0.3-0.1l-5,6.6c0,0.1-0.1,0.1-0.2,0.2C70.6,97,70.6,97,70.5,97H70.2z"/>
		<path d="M84,97c-0.1,0-0.2,0-0.2-0.1c-0.1-0.1-0.1-0.1-0.1-0.2v-3.1c-0.3,0.3-0.6,0.5-1,0.6c-0.4,0.1-0.9,0.2-1.4,0.2
			c-0.9,0-1.5-0.2-2-0.5c-0.5-0.4-0.7-0.9-0.7-1.7v-2.7c0-0.1,0-0.2,0.1-0.2c0.1-0.1,0.1-0.1,0.2-0.1H79c0.1,0,0.2,0,0.2,0.1
			s0.1,0.1,0.1,0.2V92c0,0.5,0.2,0.9,0.5,1.1c0.3,0.2,0.8,0.4,1.4,0.4c0.7,0,1.3-0.1,1.7-0.3c0.4-0.2,0.7-0.5,0.7-1v-2.9
			c0-0.1,0-0.2,0.1-0.2C83.8,89,83.9,89,84,89h0.3c0.1,0,0.2,0,0.2,0.1s0.1,0.1,0.1,0.2v7.3c0,0.1,0,0.2-0.1,0.2
			C84.4,97,84.4,97,84.3,97H84z"/>
		<path d="M87.4,97c-0.1,0-0.2,0-0.2-0.1c-0.1-0.1-0.1-0.1-0.1-0.2v-7.3c0-0.1,0-0.2,0.1-0.2c0.1-0.1,0.1-0.1,0.2-0.1h0.3
			c0.1,0,0.2,0,0.2,0.1s0.1,0.1,0.1,0.2v6.9l-0.3-0.4l5-6.6c0.1-0.1,0.1-0.1,0.2-0.2C93,89,93,89,93.1,89h0.3c0.1,0,0.2,0,0.2,0.1
			c0.1,0.1,0.1,0.1,0.1,0.2v7.3c0,0.1,0,0.2-0.1,0.2C93.6,97,93.5,97,93.4,97h-0.3c-0.1,0-0.2,0-0.2-0.1c-0.1-0.1-0.1-0.1-0.1-0.2
			v-6.4l0.3-0.1l-5,6.6c0,0.1-0.1,0.1-0.2,0.2C87.9,97,87.8,97,87.7,97H87.4z"/>
		<path d="M35.9,115.6c-1,0-1.8-0.3-2.4-1c-0.6-0.6-0.9-1.5-1-2.6c0-0.2,0-0.4,0-0.6s0-0.5,0-0.6c0.1-0.7,0.2-1.3,0.5-1.8
			c0.3-0.5,0.7-0.9,1.1-1.2c0.5-0.3,1.1-0.4,1.7-0.4c0.7,0,1.3,0.2,1.8,0.5c0.5,0.3,0.9,0.8,1.2,1.4c0.3,0.6,0.4,1.3,0.4,2.1v0.2
			c0,0.1,0,0.2-0.1,0.2c-0.1,0.1-0.2,0.1-0.3,0.1h-5.5c0,0.1,0,0.1,0,0.2c0,0.5,0.1,0.9,0.3,1.3c0.2,0.4,0.5,0.8,0.8,1
			c0.4,0.3,0.8,0.4,1.3,0.4c0.4,0,0.8-0.1,1.1-0.2c0.3-0.1,0.5-0.3,0.7-0.4c0.2-0.2,0.3-0.3,0.3-0.4c0.1-0.1,0.2-0.2,0.2-0.2
			c0.1,0,0.1,0,0.2,0h0.2c0.1,0,0.2,0,0.2,0.1c0.1,0.1,0.1,0.1,0.1,0.2c0,0.1-0.1,0.3-0.2,0.5c-0.1,0.2-0.4,0.4-0.6,0.6
			c-0.3,0.2-0.6,0.4-1,0.5C36.9,115.5,36.4,115.6,35.9,115.6z M33.5,110.9h4.9v-0.1c0-0.5-0.1-1-0.3-1.4c-0.2-0.4-0.5-0.7-0.8-1
			c-0.4-0.2-0.8-0.4-1.3-0.4s-0.9,0.1-1.3,0.4c-0.4,0.2-0.6,0.6-0.8,1C33.6,109.9,33.5,110.4,33.5,110.9L33.5,110.9z"/>
		<path d="M41.7,118.3c-0.1,0-0.2,0-0.2-0.1c-0.1-0.1-0.1-0.1-0.1-0.2v-10.2c0-0.1,0-0.2,0.1-0.2c0.1-0.1,0.1-0.1,0.2-0.1H42
			c0.1,0,0.2,0,0.2,0.1c0.1,0.1,0.1,0.1,0.1,0.2v0.7c0.3-0.3,0.6-0.6,1-0.9c0.4-0.2,0.9-0.3,1.6-0.3c0.6,0,1.1,0.1,1.5,0.3
			c0.4,0.2,0.7,0.5,1,0.8c0.3,0.3,0.4,0.7,0.6,1.2c0.1,0.4,0.2,0.9,0.2,1.3c0,0.2,0,0.3,0,0.5s0,0.4,0,0.5c0,0.4-0.1,0.9-0.2,1.3
			c-0.1,0.4-0.3,0.8-0.6,1.2c-0.3,0.3-0.6,0.6-1,0.8c-0.4,0.2-0.9,0.3-1.5,0.3c-0.6,0-1.2-0.1-1.6-0.4c-0.4-0.2-0.7-0.5-1-0.9v3.6
			c0,0.1,0,0.2-0.1,0.2c-0.1,0.1-0.1,0.1-0.2,0.1H41.7z M44.8,114.7c0.6,0,1.1-0.1,1.4-0.4c0.3-0.3,0.6-0.6,0.8-1
			c0.2-0.4,0.2-0.9,0.3-1.4c0-0.3,0-0.6,0-0.9c0-0.5-0.1-1-0.3-1.4c-0.2-0.4-0.4-0.8-0.8-1c-0.3-0.3-0.8-0.4-1.4-0.4
			c-0.6,0-1.1,0.1-1.4,0.4c-0.4,0.3-0.6,0.6-0.8,1c-0.2,0.4-0.3,0.8-0.3,1.3c0,0.2,0,0.4,0,0.6c0,0.2,0,0.4,0,0.6
			c0,0.4,0.1,0.8,0.3,1.2s0.4,0.7,0.8,1C43.8,114.5,44.2,114.7,44.8,114.7z"/>
		<path d="M50.4,105.8c-0.1,0-0.2,0-0.2-0.1c-0.1-0.1-0.1-0.1-0.1-0.2v-0.6c0-0.1,0-0.2,0.1-0.3c0.1-0.1,0.1-0.1,0.2-0.1H51
			c0.1,0,0.2,0,0.3,0.1c0.1,0.1,0.1,0.2,0.1,0.3v0.6c0,0.1,0,0.2-0.1,0.2c-0.1,0.1-0.2,0.1-0.3,0.1H50.4z M50.6,115.4
			c-0.1,0-0.2,0-0.2-0.1c-0.1-0.1-0.1-0.1-0.1-0.2v-7.3c0-0.1,0-0.2,0.1-0.2s0.1-0.1,0.2-0.1h0.3c0.1,0,0.2,0,0.2,0.1
			s0.1,0.1,0.1,0.2v7.3c0,0.1,0,0.2-0.1,0.2c-0.1,0.1-0.1,0.1-0.2,0.1H50.6z"/>
		<path d="M56.1,115.4c-0.1,0-0.2,0-0.2-0.1c-0.1-0.1-0.1-0.1-0.1-0.2v-6.8H53c-0.1,0-0.2,0-0.2-0.1c-0.1-0.1-0.1-0.1-0.1-0.2v-0.2
			c0-0.1,0-0.2,0.1-0.2c0.1-0.1,0.1-0.1,0.2-0.1h6.6c0.1,0,0.2,0,0.2,0.1c0.1,0.1,0.1,0.1,0.1,0.2v0.2c0,0.1,0,0.2-0.1,0.2
			c-0.1,0.1-0.1,0.1-0.2,0.1h-2.8v6.8c0,0.1,0,0.2-0.1,0.2c-0.1,0.1-0.1,0.1-0.2,0.1H56.1z"/>
		<path d="M61.5,105.8c-0.1,0-0.2,0-0.2-0.1c-0.1-0.1-0.1-0.1-0.1-0.2v-0.6c0-0.1,0-0.2,0.1-0.3c0.1-0.1,0.1-0.1,0.2-0.1h0.6
			c0.1,0,0.2,0,0.3,0.1c0.1,0.1,0.1,0.2,0.1,0.3v0.6c0,0.1,0,0.2-0.1,0.2c-0.1,0.1-0.2,0.1-0.3,0.1H61.5z M61.7,115.4
			c-0.1,0-0.2,0-0.2-0.1c-0.1-0.1-0.1-0.1-0.1-0.2v-7.3c0-0.1,0-0.2,0.1-0.2s0.1-0.1,0.2-0.1h0.3c0.1,0,0.2,0,0.2,0.1
			s0.1,0.1,0.1,0.2v7.3c0,0.1,0,0.2-0.1,0.2c-0.1,0.1-0.1,0.1-0.2,0.1H61.7z"/>
		<path d="M65.1,115.4c-0.1,0-0.2,0-0.2-0.1c-0.1-0.1-0.1-0.1-0.1-0.2v-7.3c0-0.1,0-0.2,0.1-0.2c0.1-0.1,0.1-0.1,0.2-0.1h0.3
			c0.1,0,0.2,0,0.2,0.1c0.1,0.1,0.1,0.1,0.1,0.2v3.1h4.8v-3.1c0-0.1,0-0.2,0.1-0.2c0.1-0.1,0.1-0.1,0.2-0.1h0.3c0.1,0,0.2,0,0.2,0.1
			c0.1,0.1,0.1,0.1,0.1,0.2v7.3c0,0.1,0,0.2-0.1,0.2c-0.1,0.1-0.1,0.1-0.2,0.1h-0.3c-0.1,0-0.2,0-0.2-0.1c-0.1-0.1-0.1-0.1-0.1-0.2
			v-3.3h-4.8v3.3c0,0.1,0,0.2-0.1,0.2c-0.1,0.1-0.1,0.1-0.2,0.1H65.1z"/>
		<path d="M73.3,117.1c-0.1,0-0.2,0-0.2-0.1c-0.1-0.1-0.1-0.1-0.1-0.2v-1.9c0-0.1,0-0.2,0.1-0.2c0.1-0.1,0.1-0.1,0.2-0.1h0
			c0.3,0,0.5-0.2,0.8-0.5c0.2-0.3,0.4-0.8,0.5-1.5c0.1-0.7,0.2-1.7,0.2-2.8v-1.9c0-0.1,0-0.2,0.1-0.2c0.1-0.1,0.1-0.1,0.2-0.1h4.4
			c0.1,0,0.2,0,0.2,0.1c0.1,0.1,0.1,0.1,0.1,0.2v6.7h0.8c0.1,0,0.2,0,0.2,0.1s0.1,0.1,0.1,0.2v1.9c0,0.1,0,0.2-0.1,0.2
			c-0.1,0.1-0.1,0.1-0.2,0.1h-0.3c-0.1,0-0.2,0-0.2-0.1c-0.1-0.1-0.1-0.1-0.1-0.2v-1.4h-6.1v1.4c0,0.1,0,0.2-0.1,0.2
			c-0.1,0.1-0.1,0.1-0.2,0.1H73.3z M74.7,114.5l4.2,0v-6.2h-3.2v1.4c0,1.2-0.1,2.2-0.3,3C75.3,113.5,75,114.1,74.7,114.5z"/>
		<path d="M82.9,105.8c-0.1,0-0.2,0-0.2-0.1c-0.1-0.1-0.1-0.1-0.1-0.2v-0.6c0-0.1,0-0.2,0.1-0.3c0.1-0.1,0.1-0.1,0.2-0.1h0.6
			c0.1,0,0.2,0,0.3,0.1c0.1,0.1,0.1,0.2,0.1,0.3v0.6c0,0.1,0,0.2-0.1,0.2c-0.1,0.1-0.2,0.1-0.3,0.1H82.9z M83.1,115.4
			c-0.1,0-0.2,0-0.2-0.1c-0.1-0.1-0.1-0.1-0.1-0.2v-7.3c0-0.1,0-0.2,0.1-0.2c0.1-0.1,0.1-0.1,0.2-0.1h0.3c0.1,0,0.2,0,0.2,0.1
			c0.1,0.1,0.1,0.1,0.1,0.2v7.3c0,0.1,0,0.2-0.1,0.2c-0.1,0.1-0.1,0.1-0.2,0.1H83.1z"/>
		<path d="M89.2,115.6c-0.7,0-1.3-0.1-1.8-0.4c-0.5-0.3-0.9-0.7-1.1-1.2c-0.3-0.5-0.4-1.2-0.4-1.9c0-0.2,0-0.4,0-0.6s0-0.5,0-0.6
			c0-0.7,0.2-1.4,0.4-1.9c0.3-0.5,0.6-0.9,1.1-1.2c0.5-0.3,1.1-0.4,1.8-0.4c0.5,0,1,0.1,1.4,0.2c0.4,0.1,0.7,0.3,1,0.6
			s0.4,0.5,0.6,0.8c0.1,0.3,0.2,0.6,0.2,0.8c0,0.1,0,0.2-0.1,0.2c-0.1,0.1-0.2,0.1-0.2,0.1h-0.2c-0.1,0-0.2,0-0.2-0.1
			c0,0-0.1-0.1-0.1-0.3c-0.2-0.6-0.5-1-0.9-1.2c-0.4-0.2-0.8-0.3-1.4-0.3c-0.7,0-1.3,0.2-1.7,0.6c-0.5,0.4-0.7,1.1-0.7,2.1
			c0,0.4,0,0.7,0,1.1c0,1,0.3,1.7,0.7,2.1c0.5,0.4,1,0.6,1.7,0.6c0.5,0,1-0.1,1.4-0.3c0.4-0.2,0.7-0.6,0.9-1.2
			c0.1-0.1,0.1-0.2,0.1-0.3c0,0,0.1-0.1,0.2-0.1H92c0.1,0,0.2,0,0.2,0.1c0.1,0.1,0.1,0.1,0.1,0.2c0,0.2-0.1,0.5-0.1,0.7
			c-0.1,0.2-0.2,0.4-0.4,0.7c-0.2,0.2-0.4,0.4-0.6,0.6c-0.2,0.2-0.5,0.3-0.9,0.4C90,115.5,89.6,115.6,89.2,115.6z"/>
		<path d="M94.5,105.8c-0.1,0-0.2,0-0.2-0.1c-0.1-0.1-0.1-0.1-0.1-0.2v-0.6c0-0.1,0-0.2,0.1-0.3c0.1-0.1,0.1-0.1,0.2-0.1h0.6
			c0.1,0,0.2,0,0.3,0.1c0.1,0.1,0.1,0.2,0.1,0.3v0.6c0,0.1,0,0.2-0.1,0.2c-0.1,0.1-0.2,0.1-0.3,0.1H94.5z M94.7,115.4
			c-0.1,0-0.2,0-0.2-0.1c-0.1-0.1-0.1-0.1-0.1-0.2v-7.3c0-0.1,0-0.2,0.1-0.2c0.1-0.1,0.1-0.1,0.2-0.1H95c0.1,0,0.2,0,0.2,0.1
			c0.1,0.1,0.1,0.1,0.1,0.2v7.3c0,0.1,0,0.2-0.1,0.2c-0.1,0.1-0.1,0.1-0.2,0.1H94.7z"/>
	</g>
	<g id="C5j3qn.tif">
		<g>
			<g>
				<path d="M122.1,119.9c-0.1-1.6-0.7-3-1.4-4.4c-12.2-23.5-24.3-47.1-36.5-70.6c-1-1.9-1.5-3.8-1.5-6c0.1-7,0.1-13.9,0-20.9
					c0-1.6,0.4-2,1.9-1.9c2.4,0.1,3.4-1,3.4-3.4c0-3.1,0-6.2,0-9.4C88,1,87,0,84.7,0C70.8,0,57,0,43.2,0c-2.2,0-3.2,1-3.2,3.2
					c0,3,0,5.9,0,8.9c0,3.2,0.8,4,4,3.9c1.3,0,1.4,0.5,1.4,1.5c0,7.1-0.1,14.3,0,21.4c0,2.1-0.5,4.1-1.5,6
					c-9.7,18.6-19.3,37.3-29,56c-2.7,5.2-5.4,10.4-8,15.6c-2.4,4.8,0.2,10.5,5,11.2c0.6,0.3,1.2,0.1,1.9,0.1c33.2,0,66.5,0,99.7,0
					c0.6,0,1.2-0.2,1.8,0.2h0.6C120.4,127.1,122.5,124.5,122.1,119.9z M49.1,5.4c10.6,0,21.2,0,31.8,0c1.3,0,1.7,0.3,1.7,1.6
					c-0.1,3.7,0,3.7-3.6,3.7H63.9c-5.7,0-11.3,0-17,0c-1.1,0-1.6-0.2-1.6-1.5C45.4,5.4,45.3,5.4,49.1,5.4z M48.8,47.1
					c1.4-2.5,2-5.2,1.9-8.1c0-7.2,0-14.4,0-21.5c0-1,0.2-1.4,1.3-1.4c8,0.1,15.9,0.1,23.9,0c1.1,0,1.4,0.4,1.3,1.4
					c0,7.2,0,14.4,0,21.5c0,2.9,0.6,5.5,1.9,8.1c2.8,5.2,5.4,10.5,8.2,15.7c0.4,0.8,0.5,1.2-0.6,1.5c-3.4,0.9-6.7,2.6-10.3,2.9
					c-3.2,0.3-6.3-0.2-8.8-2.3c-6.4-5.2-13.4-6-21.1-3.6c-1.8,0.6-3.7,0.9-5.9,1.4C43.5,57.3,46,52.2,48.8,47.1z M114.6,122.5
					c-0.5,0.1-1,0-1.6,0H63.9c-16.4,0-32.9,0-49.3,0c-3.3,0-4.2-1.4-2.6-4.4c8.3-16,16.5-32,24.8-48c0.4-0.8,0.9-1.2,1.7-1.4
					c4.1-0.9,8.3-1.9,12.4-2.8c4.6-1,8.8-0.2,12.6,2.8c3.8,3,8.2,4.3,13.1,4c3.3-0.2,6.4-1.6,9.6-2.5c1.4-0.4,3-1.7,4.2-1.1
					c1,0.5,1.4,2.4,2.1,3.7c7.8,15.1,15.6,30.2,23.4,45.4c0.2,0.5,0.5,0.9,0.7,1.4C117,121,116.2,122.4,114.6,122.5z"/>
			</g>
			<g>
				<path d="M11.8,127.7c5.9,0,11.8,0,17.6,0c27.9,0,55.9,0,83.8,0c0.6,0,1.4-0.3,1.9,0.3c-34.4,0-68.9,0-103.3,0
					C11.8,127.9,11.8,127.8,11.8,127.7z"/>
			</g>
		</g>
	</g>
</g>
</svg>
