<?xml version="1.0" encoding="UTF-8"?><svg id="Layer_1" xmlns="http://www.w3.org/2000/svg" viewBox="0 0 128 128"><defs><style>.cls-1{stroke-width:0px;}</style></defs><path class="cls-1" d="m0,19.9c1.44-2.96,3.81-3.24,6.77-2.7,7.88,1.44,15.8,2.66,23.69,4.02,2.43.42,3.67,2.01,3.67,4.46,0,14.07,0,28.14,0,42.21,0,2.46-1.24,4.07-3.64,4.49-6.8,1.19-13.61,2.31-20.42,3.45-1.18.2-2.38.28-3.54.58C3.65,77.16,1.44,76.4,0,73.72V19.9Z"/><path class="cls-1" d="m19.73,111.02c-4.37-2.81-4.29-6.02.22-8.71,10.3-6.16,20.58-12.34,30.89-18.49.69-.41.98-.7.64-1.61-.63-1.65-.19-3.42-.25-5.14-.03-.67.58-.4.9-.4,3.02-.02,6.04-.01,9.07-.01,4.84,0,9.69.02,14.53-.02.85,0,1.19.18,1.09,1.08-.19,1.7.34,3.45-.48,5.11-.31.63.41.68.73.88,4.96,3,9.93,5.97,14.9,8.95,5.54,3.32,11.09,6.64,16.62,9.98,2,1.21,2.81,3.12,2.21,5.05-.87,2.81-3.88,3.92-6.55,2.34-4.42-2.61-8.82-5.26-13.22-7.9-7.18-4.3-14.35-8.61-21.53-12.91-.33-.2-.68-.39-1.21-.69v1.28c0,5.46,0,10.92,0,16.38,0,2.7-1.75,4.57-4.25,4.57-2.52,0-4.27-1.86-4.28-4.55,0-5.82,0-11.63,0-17.44-.45-.18-.67.17-.95.34-11.67,6.96-23.33,13.92-35,20.88-.62.37-1.27.69-1.91,1.04h-2.13Z"/><path class="cls-1" d="m42.67,46.71c0-6.66.02-13.32-.02-19.97,0-.92.11-1.27,1.19-1.27,9.51.05,19.02.03,28.52.03,2.18,0,4.02,1.29,4.34,3.33.16,1,.6.94,1.28.94,4.89-.01,9.77.02,14.66-.03.94,0,1.26.14,1.26,1.19-.05,10.56-.05,21.13,0,31.69,0,1.11-.36,1.27-1.33,1.26-4.84-.05-9.69,0-14.53-.03-.77,0-1.18.01-1.35,1.01-.33,1.98-2.17,3.26-4.27,3.26-9.55,0-19.11-.01-28.66.03-.99,0-1.12-.33-1.11-1.2.04-6.75.02-13.49.02-20.24Z"/><path class="cls-1" d="m128,46.84c0,5.59,0,11.18,0,16.77,0,2.8-1.74,4.52-4.57,4.52-5.51,0-11.01,0-16.52,0-2.8,0-4.51-1.73-4.51-4.57,0-11.18,0-22.36,0-33.54,0-2.83,1.71-4.51,4.56-4.51,5.51,0,11.01,0,16.52,0,2.81,0,4.51,1.73,4.51,4.57,0,5.59,0,11.18,0,16.77Z"/></svg>