<?xml version="1.0" encoding="utf-8"?>
<!-- Generator: Adobe Illustrator 28.0.0, SVG Export Plug-In . SVG Version: 6.00 Build 0)  -->
<svg version="1.1" id="Layer_1" xmlns="http://www.w3.org/2000/svg" xmlns:xlink="http://www.w3.org/1999/xlink" x="0px" y="0px"
	 viewBox="0 0 128 128" style="enable-background:new 0 0 128 128;" xml:space="preserve">
<g id="_x35_st2G7.tif_1_">
	<g>
		<path d="M55.6,83.7c-0.6-0.8-1.4-1.2-2.2-0.7c-2.3,1.4-4.6,2.9-6.9,4.5c-0.7,0.5-0.8,1.3-0.4,2.1c0.3,0.8,0.9,1.2,1.9,1.1
			c0,0,0.2,0,0.3,0c2.6-1.3,5-2.9,7.3-4.8C56.2,85.4,56.1,84.4,55.6,83.7z M98.7,35.2c-2-2-4.1-4.1-6.1-6.1
			c-1.1-1.1-2.2-1.2-3.3-0.1c-10,10-20,20-29.9,29.9c-1.1,1.1-1.1,2,0,3.1c2.1,2.2,4.3,4.3,6.5,6.5c0.4,0.4,0.9,0.7,1.5,0.8
			c0.6,0,1.1-0.3,1.5-0.8c0.8-0.8,1.6-1.6,2.4-2.4c9.1-9.1,18.2-18.2,27.4-27.4C100.1,37.5,100.1,36.6,98.7,35.2z M94.5,37.6
			c-8.8,8.8-17.7,17.7-26.5,26.5c-0.5,0.5-0.8,0.4-1.3,0c-0.9-0.9-1.7-1.9-2.7-2.7c-0.8-0.7-0.7-1.1,0-1.8
			c7.7-7.6,15.3-15.3,23-22.9c1-1.1,2.1-2.1,3.1-3.2c0.5-0.5,0.8-0.7,1.4-0.1c0.9,1,2,2,2.9,3c0.2,0.2,0.3,0.3,0.4,0.4
			C95,37.3,94.7,37.4,94.5,37.6z M98.7,35.2c-2-2-4.1-4.1-6.1-6.1c-1.1-1.1-2.2-1.2-3.3-0.1c-10,10-20,20-29.9,29.9
			c-1.1,1.1-1.1,2,0,3.1c2.1,2.2,4.3,4.3,6.5,6.5c0.4,0.4,0.9,0.7,1.5,0.8c0.6,0,1.1-0.3,1.5-0.8c0.8-0.8,1.6-1.6,2.4-2.4
			c9.1-9.1,18.2-18.2,27.4-27.4C100.1,37.5,100.1,36.6,98.7,35.2z M94.5,37.6c-8.8,8.8-17.7,17.7-26.5,26.5c-0.5,0.5-0.8,0.4-1.3,0
			c-0.9-0.9-1.7-1.9-2.7-2.7c-0.8-0.7-0.7-1.1,0-1.8c7.7-7.6,15.3-15.3,23-22.9c1-1.1,2.1-2.1,3.1-3.2c0.5-0.5,0.8-0.7,1.4-0.1
			c0.9,1,2,2,2.9,3c0.2,0.2,0.3,0.3,0.4,0.4C95,37.3,94.7,37.4,94.5,37.6z M55.6,83.7c-0.6-0.8-1.4-1.2-2.2-0.7
			c-2.3,1.4-4.6,2.9-6.9,4.5c-0.7,0.5-0.8,1.3-0.4,2.1c0.3,0.8,0.9,1.2,1.9,1.1c0,0,0.2,0,0.3,0c2.6-1.3,5-2.9,7.3-4.8
			C56.2,85.4,56.1,84.4,55.6,83.7z M55.6,83.7c-0.6-0.8-1.4-1.2-2.2-0.7c-2.3,1.4-4.6,2.9-6.9,4.5c-0.7,0.5-0.8,1.3-0.4,2.1
			c0.3,0.8,0.9,1.2,1.9,1.1c0,0,0.2,0,0.3,0c2.6-1.3,5-2.9,7.3-4.8C56.2,85.4,56.1,84.4,55.6,83.7z M98.7,35.2c-2-2-4.1-4.1-6.1-6.1
			c-1.1-1.1-2.2-1.2-3.3-0.1c-10,10-20,20-29.9,29.9c-1.1,1.1-1.1,2,0,3.1c2.1,2.2,4.3,4.3,6.5,6.5c0.4,0.4,0.9,0.7,1.5,0.8
			c0.6,0,1.1-0.3,1.5-0.8c0.8-0.8,1.6-1.6,2.4-2.4c9.1-9.1,18.2-18.2,27.4-27.4C100.1,37.5,100.1,36.6,98.7,35.2z M94.5,37.6
			c-8.8,8.8-17.7,17.7-26.5,26.5c-0.5,0.5-0.8,0.4-1.3,0c-0.9-0.9-1.7-1.9-2.7-2.7c-0.8-0.7-0.7-1.1,0-1.8
			c7.7-7.6,15.3-15.3,23-22.9c1-1.1,2.1-2.1,3.1-3.2c0.5-0.5,0.8-0.7,1.4-0.1c0.9,1,2,2,2.9,3c0.2,0.2,0.3,0.3,0.4,0.4
			C95,37.3,94.7,37.4,94.5,37.6z M98.7,35.2c-2-2-4.1-4.1-6.1-6.1c-1.1-1.1-2.2-1.2-3.3-0.1c-10,10-20,20-29.9,29.9
			c-1.1,1.1-1.1,2,0,3.1c2.1,2.2,4.3,4.3,6.5,6.5c0.4,0.4,0.9,0.7,1.5,0.8c0.6,0,1.1-0.3,1.5-0.8c0.8-0.8,1.6-1.6,2.4-2.4
			c9.1-9.1,18.2-18.2,27.4-27.4C100.1,37.5,100.1,36.6,98.7,35.2z M94.5,37.6c-8.8,8.8-17.7,17.7-26.5,26.5c-0.5,0.5-0.8,0.4-1.3,0
			c-0.9-0.9-1.7-1.9-2.7-2.7c-0.8-0.7-0.7-1.1,0-1.8c7.7-7.6,15.3-15.3,23-22.9c1-1.1,2.1-2.1,3.1-3.2c0.5-0.5,0.8-0.7,1.4-0.1
			c0.9,1,2,2,2.9,3c0.2,0.2,0.3,0.3,0.4,0.4C95,37.3,94.7,37.4,94.5,37.6z M53.4,83c-2.3,1.4-4.6,2.9-6.9,4.5
			c-0.7,0.5-0.8,1.3-0.4,2.1c0.3,0.8,0.9,1.2,1.9,1.1c0,0,0.2,0,0.3,0c2.6-1.3,5-2.9,7.3-4.8c0.7-0.5,0.6-1.5,0.1-2.2
			C55.1,82.9,54.2,82.5,53.4,83z M116.9,1.6c-1.6-0.7-3.3-1-4.9-1.5h-5.1c0,0.1-0.1,0.2-0.2,0.2c-4.6,0.6-8.2,2.9-11.4,6.1
			C81.3,20.4,67.2,34.5,53.1,48.6c-1.8,1.8-3.6,3.7-5.3,5.6c-11.4,13-20.2,27.6-27.6,43.2c-0.4,0.9-0.9,1.7-1.7,2.4
			c-5.5,5.5-10.9,10.9-16.4,16.4c-1.9,1.9-2.7,4.1-2,6.7c1.4,5.2,7.6,6.8,11.4,3c5.6-5.5,11.1-11.1,16.7-16.7
			c0.6-0.7,1.4-1.1,2.2-1.5c14.8-6.9,28.7-15.3,41.2-25.9c5.9-5,11.2-10.6,16.7-16.1c11.3-11.3,22.7-22.6,34-34
			C131.8,22.3,129,7,116.9,1.6z M10.6,121.4c-0.8,1.3-1.9,2.6-4,2.7c-1.9,0-3.3-2.1-2.5-4c0.1-0.3,0.3-0.6,0.6-0.9
			c1.9-2.4,1.9-2.4,4.1-0.2c0.1,0.1,0.3,0.2,0.4,0.4C9.6,120.1,11.1,120.6,10.6,121.4z M25,107.2c-3.6,3.6-7.2,7.2-10.9,10.8
			c-0.3,0.3-0.5,0.4-0.9,0c-1.2-1.2-2.5-2.4-3.8-3.7c3.9-3.8,7.6-7.6,11.3-11.3c0.5-0.5,0.7-0.4,1.2,0c1,1,2,2.1,3,3
			C25.4,106.5,25.4,106.7,25,107.2z M115.9,32.9c-9.1,9.1-18.2,18.3-27.4,27.4c-5.6,5.6-11,11.4-16.9,16.6
			c-11.5,10.2-24.3,18.2-38,25.1c-1.2,0.6-2.5,1.1-3.7,1.8c-0.8,0.5-1.4,0.4-2.1-0.3c-1-1.1-2.1-2.2-3.2-3.2
			c-0.7-0.6-0.8-1.2-0.4-2.1c5.2-11,11.3-21.4,18.4-31.2c4.7-6.4,9.9-12.3,15.5-17.9C70.4,36.8,82.7,24.5,95,12.1
			c0.7-0.7,1.1-0.8,1.8,0c6.3,6.4,12.7,12.7,19.1,19.1c0.3,0.3,0.6,0.4,0.9,0.7C116.4,32.3,116.1,32.6,115.9,32.9z M120.1,28.6
			c-0.5,0.6-0.8,0.6-1.3,0.1c-6.5-6.5-12.9-13-19.4-19.4c-0.5-0.5-0.7-0.8,0-1.3c2.9-2.6,6.2-3.9,10.4-4.1c5.9,0.4,10.6,3.2,13.2,9
			C125.3,18.1,124.2,24.3,120.1,28.6z M92.6,29.1c-1.1-1.1-2.2-1.2-3.3-0.1c-10,10-20,20-29.9,29.9c-1.1,1.1-1.1,2,0,3.1
			c2.1,2.2,4.3,4.3,6.5,6.5c0.4,0.4,0.9,0.7,1.5,0.8c0.6,0,1.1-0.3,1.5-0.8c0.8-0.8,1.6-1.6,2.4-2.4c9.1-9.1,18.2-18.2,27.4-27.4
			c1.4-1.4,1.4-2.3,0-3.7C96.7,33.2,94.7,31.1,92.6,29.1z M94.5,37.6c-8.8,8.8-17.7,17.7-26.5,26.5c-0.5,0.5-0.8,0.4-1.3,0
			c-0.9-0.9-1.7-1.9-2.7-2.7c-0.8-0.7-0.7-1.1,0-1.8c7.7-7.6,15.3-15.3,23-22.9c1-1.1,2.1-2.1,3.1-3.2c0.5-0.5,0.8-0.7,1.4-0.1
			c0.9,1,2,2,2.9,3c0.2,0.2,0.3,0.3,0.4,0.4C95,37.3,94.7,37.4,94.5,37.6z M53.4,83c-2.3,1.4-4.6,2.9-6.9,4.5
			c-0.7,0.5-0.8,1.3-0.4,2.1c0.3,0.8,0.9,1.2,1.9,1.1c0,0,0.2,0,0.3,0c2.6-1.3,5-2.9,7.3-4.8c0.7-0.5,0.6-1.5,0.1-2.2
			C55.1,82.9,54.2,82.5,53.4,83z M55.6,83.7c-0.6-0.8-1.4-1.2-2.2-0.7c-2.3,1.4-4.6,2.9-6.9,4.5c-0.7,0.5-0.8,1.3-0.4,2.1
			c0.3,0.8,0.9,1.2,1.9,1.1c0,0,0.2,0,0.3,0c2.6-1.3,5-2.9,7.3-4.8C56.2,85.4,56.1,84.4,55.6,83.7z M98.7,35.2c-2-2-4.1-4.1-6.1-6.1
			c-1.1-1.1-2.2-1.2-3.3-0.1c-10,10-20,20-29.9,29.9c-1.1,1.1-1.1,2,0,3.1c2.1,2.2,4.3,4.3,6.5,6.5c0.4,0.4,0.9,0.7,1.5,0.8
			c0.6,0,1.1-0.3,1.5-0.8c0.8-0.8,1.6-1.6,2.4-2.4c9.1-9.1,18.2-18.2,27.4-27.4C100.1,37.5,100.1,36.6,98.7,35.2z M94.5,37.6
			c-8.8,8.8-17.7,17.7-26.5,26.5c-0.5,0.5-0.8,0.4-1.3,0c-0.9-0.9-1.7-1.9-2.7-2.7c-0.8-0.7-0.7-1.1,0-1.8
			c7.7-7.6,15.3-15.3,23-22.9c1-1.1,2.1-2.1,3.1-3.2c0.5-0.5,0.8-0.7,1.4-0.1c0.9,1,2,2,2.9,3c0.2,0.2,0.3,0.3,0.4,0.4
			C95,37.3,94.7,37.4,94.5,37.6z M98.7,35.2c-2-2-4.1-4.1-6.1-6.1c-1.1-1.1-2.2-1.2-3.3-0.1c-10,10-20,20-29.9,29.9
			c-1.1,1.1-1.1,2,0,3.1c2.1,2.2,4.3,4.3,6.5,6.5c0.4,0.4,0.9,0.7,1.5,0.8c0.6,0,1.1-0.3,1.5-0.8c0.8-0.8,1.6-1.6,2.4-2.4
			c9.1-9.1,18.2-18.2,27.4-27.4C100.1,37.5,100.1,36.6,98.7,35.2z M94.5,37.6c-8.8,8.8-17.7,17.7-26.5,26.5c-0.5,0.5-0.8,0.4-1.3,0
			c-0.9-0.9-1.7-1.9-2.7-2.7c-0.8-0.7-0.7-1.1,0-1.8c7.7-7.6,15.3-15.3,23-22.9c1-1.1,2.1-2.1,3.1-3.2c0.5-0.5,0.8-0.7,1.4-0.1
			c0.9,1,2,2,2.9,3c0.2,0.2,0.3,0.3,0.4,0.4C95,37.3,94.7,37.4,94.5,37.6z M55.6,83.7c-0.6-0.8-1.4-1.2-2.2-0.7
			c-2.3,1.4-4.6,2.9-6.9,4.5c-0.7,0.5-0.8,1.3-0.4,2.1c0.3,0.8,0.9,1.2,1.9,1.1c0,0,0.2,0,0.3,0c2.6-1.3,5-2.9,7.3-4.8
			C56.2,85.4,56.1,84.4,55.6,83.7z M55.6,83.7c-0.6-0.8-1.4-1.2-2.2-0.7c-2.3,1.4-4.6,2.9-6.9,4.5c-0.7,0.5-0.8,1.3-0.4,2.1
			c0.3,0.8,0.9,1.2,1.9,1.1c0,0,0.2,0,0.3,0c2.6-1.3,5-2.9,7.3-4.8C56.2,85.4,56.1,84.4,55.6,83.7z M98.7,35.2c-2-2-4.1-4.1-6.1-6.1
			c-1.1-1.1-2.2-1.2-3.3-0.1c-10,10-20,20-29.9,29.9c-1.1,1.1-1.1,2,0,3.1c2.1,2.2,4.3,4.3,6.5,6.5c0.4,0.4,0.9,0.7,1.5,0.8
			c0.6,0,1.1-0.3,1.5-0.8c0.8-0.8,1.6-1.6,2.4-2.4c9.1-9.1,18.2-18.2,27.4-27.4C100.1,37.5,100.1,36.6,98.7,35.2z M94.5,37.6
			c-8.8,8.8-17.7,17.7-26.5,26.5c-0.5,0.5-0.8,0.4-1.3,0c-0.9-0.9-1.7-1.9-2.7-2.7c-0.8-0.7-0.7-1.1,0-1.8
			c7.7-7.6,15.3-15.3,23-22.9c1-1.1,2.1-2.1,3.1-3.2c0.5-0.5,0.8-0.7,1.4-0.1c0.9,1,2,2,2.9,3c0.2,0.2,0.3,0.3,0.4,0.4
			C95,37.3,94.7,37.4,94.5,37.6z M98.7,35.2c-2-2-4.1-4.1-6.1-6.1c-1.1-1.1-2.2-1.2-3.3-0.1c-10,10-20,20-29.9,29.9
			c-1.1,1.1-1.1,2,0,3.1c2.1,2.2,4.3,4.3,6.5,6.5c0.4,0.4,0.9,0.7,1.5,0.8c0.6,0,1.1-0.3,1.5-0.8c0.8-0.8,1.6-1.6,2.4-2.4
			c9.1-9.1,18.2-18.2,27.4-27.4C100.1,37.5,100.1,36.6,98.7,35.2z M94.5,37.6c-8.8,8.8-17.7,17.7-26.5,26.5c-0.5,0.5-0.8,0.4-1.3,0
			c-0.9-0.9-1.7-1.9-2.7-2.7c-0.8-0.7-0.7-1.1,0-1.8c7.7-7.6,15.3-15.3,23-22.9c1-1.1,2.1-2.1,3.1-3.2c0.5-0.5,0.8-0.7,1.4-0.1
			c0.9,1,2,2,2.9,3c0.2,0.2,0.3,0.3,0.4,0.4C95,37.3,94.7,37.4,94.5,37.6z M55.6,83.7c-0.6-0.8-1.4-1.2-2.2-0.7
			c-2.3,1.4-4.6,2.9-6.9,4.5c-0.7,0.5-0.8,1.3-0.4,2.1c0.3,0.8,0.9,1.2,1.9,1.1c0,0,0.2,0,0.3,0c2.6-1.3,5-2.9,7.3-4.8
			C56.2,85.4,56.1,84.4,55.6,83.7z"/>
		<path d="M55.5,85.9c-2.2,1.9-4.7,3.4-7.3,4.8c-0.1,0.1-0.3,0-0.3,0c-1,0.1-1.6-0.4-1.9-1.1c-0.3-0.8-0.3-1.6,0.4-2.1
			c2.3-1.5,4.5-3.1,6.9-4.5c0.8-0.5,1.7-0.1,2.2,0.7C56.1,84.4,56.2,85.4,55.5,85.9z"/>
		<path d="M98.7,35.2c-2-2-4.1-4.1-6.1-6.1c-1.1-1.1-2.2-1.2-3.3-0.1c-10,10-20,20-29.9,29.9c-1.1,1.1-1.1,2,0,3.1
			c2.1,2.2,4.3,4.3,6.5,6.5c0.4,0.4,0.9,0.7,1.5,0.8c0.6,0,1.1-0.3,1.5-0.8c0.8-0.8,1.6-1.6,2.4-2.4c9.1-9.1,18.2-18.2,27.4-27.4
			C100.1,37.5,100.1,36.6,98.7,35.2z M94.5,37.6c-8.8,8.8-17.7,17.7-26.5,26.5c-0.5,0.5-0.8,0.4-1.3,0c-0.9-0.9-1.7-1.9-2.7-2.7
			c-0.8-0.7-0.7-1.1,0-1.8c7.7-7.6,15.3-15.3,23-22.9c1-1.1,2.1-2.1,3.1-3.2c0.5-0.5,0.8-0.7,1.4-0.1c0.9,1,2,2,2.9,3
			c0.2,0.2,0.3,0.3,0.4,0.4C95,37.3,94.7,37.4,94.5,37.6z"/>
		<path d="M98.7,35.2c-2-2-4.1-4.1-6.1-6.1c-1.1-1.1-2.2-1.2-3.3-0.1c-10,10-20,20-29.9,29.9c-1.1,1.1-1.1,2,0,3.1
			c2.1,2.2,4.3,4.3,6.5,6.5c0.4,0.4,0.9,0.7,1.5,0.8c0.6,0,1.1-0.3,1.5-0.8c0.8-0.8,1.6-1.6,2.4-2.4c9.1-9.1,18.2-18.2,27.4-27.4
			C100.1,37.5,100.1,36.6,98.7,35.2z M94.5,37.6c-8.8,8.8-17.7,17.7-26.5,26.5c-0.5,0.5-0.8,0.4-1.3,0c-0.9-0.9-1.7-1.9-2.7-2.7
			c-0.8-0.7-0.7-1.1,0-1.8c7.7-7.6,15.3-15.3,23-22.9c1-1.1,2.1-2.1,3.1-3.2c0.5-0.5,0.8-0.7,1.4-0.1c0.9,1,2,2,2.9,3
			c0.2,0.2,0.3,0.3,0.4,0.4C95,37.3,94.7,37.4,94.5,37.6z"/>
		<path d="M55.5,85.9c-2.2,1.9-4.7,3.4-7.3,4.8c-0.1,0.1-0.3,0-0.3,0c-1,0.1-1.6-0.4-1.9-1.1c-0.3-0.8-0.3-1.6,0.4-2.1
			c2.3-1.5,4.5-3.1,6.9-4.5c0.8-0.5,1.7-0.1,2.2,0.7C56.1,84.4,56.2,85.4,55.5,85.9z"/>
	</g>
</g>
</svg>
