<?xml version="1.0" encoding="utf-8"?>
<!-- Generator: Adobe Illustrator 28.0.0, SVG Export Plug-In . SVG Version: 6.00 Build 0)  -->
<svg version="1.1" id="Layer_1" xmlns="http://www.w3.org/2000/svg" xmlns:xlink="http://www.w3.org/1999/xlink" x="0px" y="0px"
	 viewBox="0 0 128 128" style="enable-background:new 0 0 128 128;" xml:space="preserve">
<path d="M64.3,0.2c0,0.4,0.4,0.5,0.6,0.7c20.8,20.8,41.7,41.7,62.5,62.5c0.6,0.6,0.6,0.9,0,1.5c-20.9,20.9-41.8,41.7-62.6,62.6
	c-0.5,0.5-0.7,0.5-1.2,0C42.7,106.6,21.8,85.7,0.9,64.8c-0.6-0.6-0.6-0.8,0-1.4C21.7,42.6,42.6,21.8,63.4,0.9
	C63.6,0.7,64,0.5,64,0.2C64.1,0.2,64.2,0.2,64.3,0.2z M64,117.9c0.4-0.1,0.6-0.4,0.8-0.5c17.5-17.5,35.1-35,52.6-52.6
	c0.5-0.5,0.5-0.8,0-1.3C99.8,46,82.3,28.6,64.9,11c-0.6-0.6-0.8-0.6-1.4,0C46,28.6,28.5,46,11,63.5c-0.5,0.5-0.5,0.8,0,1.3
	c10.6,10.5,21.1,21.1,31.7,31.7c7,7,13.9,13.9,20.9,20.9C63.8,117.5,63.9,117.8,64,117.9z"/>
<path d="M50.6,53.1c-0.1-0.7-0.3-1.4-0.5-2c-0.3-1-0.9-1.8-1.8-2.5c-1.8-1.4-3.6-2.8-5.4-4.3c-1.2-1-1.2-1-1.1-2.8
	c2.5,1.5,5,3,7.5,4.6c0-2.3-0.2-4.4-1.3-6.3c-0.8-1.5-1.6-3-2.5-4.5c-0.3-0.5,0.1-1.2,0.6-1.3c0.3,0,0.3,0.2,0.4,0.4
	c1,1.5,1.9,2.9,2.9,4.4c0.1,0.2,0.1,0.4,0.4,0.4c0.3-0.9,0.6-1.8,0.9-2.7c0.2-0.5,0.9-1,1.4-0.9c0.4,0.1,0.2,0.3,0.1,0.5
	c-0.2,1.4-0.4,2.8-0.5,4.2c-0.1,1.3,0.1,2.5,0.5,3.8c0.9,3,1.7,5.9,2.5,8.9c0,0.2,0,0.3,0.3,0.5c1-1.5,2-2.9,3-4.4
	c0.2-0.3,0.1-0.6,0.1-0.9c-0.2-3.7-0.4-7.4-0.6-11.1c0-0.7,0.1-0.9,0.8-0.9c0.5,0,0.6,0.2,0.6,0.6c0.3,2.1,0.6,4.3,0.8,6.4
	c0,0,0.1,0.1,0.1,0.2c2-2.3,3.9-4.5,6-6.9c0.1,0.9,0.2,1.6-0.4,2.4c-1.6,2-3.1,4.1-4.4,6.3c-0.6,1-0.9,1.9-0.6,3.1
	c0.3,1.4-0.1,2.7-0.7,4c-0.2,0.4-0.5,0.8-0.5,1.4c0.6-0.2,0.9-0.7,1.3-1c0.8-0.6,1.6-1.1,2.7-1c1.8,0.1,3.4-0.5,4.6-2
	c1-1.2,2.1-2.2,3.1-3.3c0.2-0.2,0.3-0.5,0.6-0.2c0.4,0.3,0.1,0.4,0,0.7c-1.5,2.4-3.1,4.8-4.6,7.2c-0.2,0.3-0.4,0.4-0.8,0.5
	c-1.4,0.1-2.6,0.6-3.5,1.8c-1.2,1.5-2.5,2.8-3.7,4.2c-0.3,0.3-0.6,2.5-0.4,2.8c0.2,0.3,0.4,0.1,0.7,0.1c3.2,0,6.5,0,9.7,0
	c2,0,4,0,6,0c0.6,0,1-0.1,1.5-0.5c3-2.2,5.7-3,9.2-2.7c-0.3,1.2-1,2.1-1.5,3.2c1.9-0.6,3.7-1.1,5.5-1.7c0.7,3.1-2.3,8-7.2,11.9
	c1.6,1.2,3.2,2.3,4.8,3.5c-1.6,0.8-3.1,1.5-4.7,2.3c0,0,0,0.1,0,0.1c2.1,0.2,4.3,0.4,6.5,0.6c-0.7,0.9-1.3,1.7-2,2.6
	c1.1,0,2.1,0,3.1,0c0.6,0,0.7,0.2,0.7,0.7c0,0.8,0,1.5,0.1,2.3c0.1,0.7-0.2,0.7-0.7,0.7c-5.5,0-11-0.1-16.6-0.1
	c-10.8-0.1-21.7-0.1-32.5-0.2c-0.8,0-1.5,0-2.3,0c-0.3,0-0.5,0-0.6-0.3c-0.1-0.4,0.2-0.4,0.5-0.5c2.6-0.7,5.1-1.4,7.8-1.6
	c0.3,0,0.6-0.1,0.9,0c1.1,0.4,1.9-0.2,2.9-0.5c2.9-1.2,5.9-2.5,9-3.8c-0.4-0.2-0.8-0.3-1.1-0.5c-0.3-0.1-0.5-0.2-0.4-0.6
	c0.1-0.4,0.2-0.5,0.6-0.5c4.2-0.4,7.6-2.2,10-5.9c1.8-2.7,3.7-5.2,6-7.4c-0.1-0.3-0.4-0.2-0.6-0.2c-4.9,0-9.8,0-14.7,0
	c-0.6,0-0.7,0.2-0.7,0.7c0,1.8,0,3.5,0,5.3c0,0.5,0.1,0.7,0.6,0.9c2.2,1.1,4.4,2.2,6.8,3.4c-1.7,0.3-3.3,0.5-4.8,0.7
	c-1.2,0.2-2.5,0.4-3.7,0.5c-0.3,0-0.5,0.2-0.7,0.5c-0.4,0.7-0.9,1.3-1.4,2c-0.3,0.4-0.5,0.6-0.9,0.1c-0.3-0.3-0.7-0.5-0.9-0.8
	c-0.9-1.1-2-1.2-3.3-1c-1.5,0.2-3,0.3-4.5,0.4c-0.3,0-0.6,0.1-0.7-0.3c-0.1-0.4,0.2-0.5,0.4-0.6c1.6-0.9,3.2-1.9,4.9-2.8
	c0.4-0.2,0.6-0.4,0.6-0.9c0-2.5,0.1-5.1,0.1-7.6c0-0.6-0.2-0.7-0.7-0.7c-3.8,0-7.5,0-11.3,0c-0.3,0-0.7,0.2-0.7-0.4
	c0-0.6,0.4-0.4,0.7-0.4c3.7,0,7.5,0,11.2,0c0.6,0,0.9-0.1,0.8-0.8c0-1.2,0-2.5,0.1-3.8c0-0.4-0.1-0.7-0.5-0.9
	c-2.3-1.2-4.6-2.5-6.9-3.8c-0.8-0.4-1.7-0.4-2.5-0.2c-0.3,0.1-0.7,0.2-1,0.3c-0.2,0.1-0.4,0-0.4-0.2c-0.1-0.2-0.2-0.3,0-0.5
	c1.4-1.1,2.7-2.3,4.4-3c0.4-0.2,0.8,0,1.2,0.1c1.6,0.7,3.2,1.5,4.9,2.2c0,0,0.1,0.1,0.1,0.1C50.6,53.3,50.6,53.2,50.6,53.1z
	 M60.2,78.9c2.6,1.2,5.1,2.2,7.5,3.3c0.3,0.1,0.4-0.1,0.5-0.3c0.4-0.6,0.9-1.3,1.3-2c0.7-1.4,1.9-2.2,3.4-2.6c2.6-0.8,5.2-1.6,7.6-3
	c3.2-2,6-4.4,7.6-7.9c0.5-1,0.8-2,0.9-3.2c-2.2,0.7-4.4,1.3-6.6,2c0.8-1.4,1.6-2.6,2.2-4c-0.3,0-0.5,0-0.8,0c-0.2,0-0.4,0-0.6,0.1
	c-2.6,0.3-4.8,1.5-6.9,3.2c-3,2.4-5.2,5.5-7.3,8.7c-0.8,1.3-1.9,2.3-3.1,3.2C64.3,77.5,62.5,78.4,60.2,78.9z M59.5,54
	c0,0,0.1-0.1,0.1-0.1c0,0-0.1-0.1-0.1-0.1c-0.1,0-0.1,0.1-0.2,0.1C59.4,54,59.4,54,59.5,54z"/>
<path d="M84.9,68.3c-0.5,0-1-0.2-1-0.9c0-0.7,0.5-0.9,1-0.9c0.6,0,1,0.3,1,0.9C86,68,85.5,68.3,84.9,68.3z"/>
</svg>
