<?xml version="1.0" encoding="utf-8"?>
<!-- Generator: Adobe Illustrator 28.0.0, SVG Export Plug-In . SVG Version: 6.00 Build 0)  -->
<svg version="1.1" id="Layer_1" xmlns="http://www.w3.org/2000/svg" xmlns:xlink="http://www.w3.org/1999/xlink" x="0px" y="0px"
	 viewBox="0 0 128 128" style="enable-background:new 0 0 128 128;" xml:space="preserve">
<g id="G7kpF7.tif_1_">
	<g>
		<path d="M127.7,111.7c-2.8-7-5.5-14-8.3-21c-0.8-2.2-1.6-2.7-3.9-2.7c-5.2,0-10.3,0-15.5,0c-0.5,0-1,0.1-1.4-0.1
			c0-0.1,0-0.1,0-0.1c0.2-0.3,0.3-0.7,0.5-1c4.8-9.9,6.4-20.3,4.6-31.1c-2-12.3-7.8-22.6-17.1-30.9c-1.9-1.7-3.9-3.2-6-4.5
			c-1-0.6-2.1-0.4-2.7,0.5c-0.6,0.9-0.4,1.9,0.6,2.6c0.4,0.3,0.9,0.6,1.3,0.9c15.9,11.8,22.7,27.5,20.1,47.1
			c-1.5,11.6-7.1,21.3-15.9,28.9c-12,10.3-25.8,13.9-41.3,11c-9.4-1.7-17.5-6.1-24.2-12.9C6.2,86,1.6,71,5,53.9
			c2.3-11.6,8.5-21.1,17.9-28.3c8-6.2,17.1-9.5,27.3-9.9c7.3-0.3,14.4,1,21.1,3.8c1.4,0.6,2.5,0.2,2.9-0.9c0.4-1.1-0.1-2-1.5-2.6
			c-4.9-2.1-10-3.4-15.3-4c-8.4-0.8-16.4,0.4-24.3,3.4C8.6,25-5.5,52.5,2,77.7c6.2,21,20.5,33.6,42.1,37.7c1.6,0.3,3.2,0.2,4.7,0.7
			h2.7c0.5-0.3,1-0.1,1.5-0.1c24.1,0,48.2,0,72.3,0c0.2,0,0.3,0,0.5,0c1.4-0.1,1.8-0.6,2.2-2.1v-1.7
			C127.9,112,127.8,111.9,127.7,111.7z M110.4,92.7c0-0.7,0.3-0.8,0.9-0.8c1.5,0,3.3-0.5,4.4,0.2c1,0.6,1.2,2.5,1.8,3.8
			c2,5.1,4,10.1,6,15.2c0.1,0.3,0.2,0.6,0.4,1.1h-6.7c-1.9,0-3.8,0-5.7,0c-0.6,0-1-0.1-1-0.9C110.5,105.1,110.5,98.9,110.4,92.7z
			 M90.7,99.1c1.8-2,3.5-4,4.9-6.3c0.4-0.7,0.9-0.9,1.7-0.9c2.8,0.1,5.6,0,8.4,0c0.7,0,0.9,0.2,0.9,0.9c0,6.2,0,12.4,0,18.6
			c0,0.6-0.1,0.9-0.8,0.9c-11,0-22.1,0-33.1,0c-0.1,0-0.1-0.1-0.4-0.2C79.5,109,85.6,104.7,90.7,99.1z"/>
		<path d="M51.6,116.1c0.3-0.4,0.7-0.2,1-0.2c24.4,0,48.8,0,73.2,0c0.1,0.1,0.1,0.1,0.1,0.2c0,0-0.1,0.1-0.1,0.1
			C101,116.1,76.3,116.1,51.6,116.1z"/>
		<path d="M51.8,92.7c14.5,0,26.2-9.9,28.8-23.9c0.4-2.1,0.5-4.3,0.4-6.5c0-1.3,0.7-2.1,1.8-2.1c1.2,0,1.9,0.8,2,2
			c0.6,15.7-9.3,29.2-24.4,33.2c-17.7,4.7-36.3-6.8-40-24.6c-3.7-17.8,7.1-34.7,24.9-38.7c15.8-3.6,32.1,5.1,37.8,21
			c0.5,1.5,0.1,2.5-1.1,2.9c-1.1,0.4-2-0.2-2.5-1.7C76.2,45.9,70.4,40,62,36.9c-16.6-6.1-34.9,4.5-38.1,21.8
			C21,74.5,31.5,89.6,47.5,92.4C49,92.6,50.6,92.8,51.8,92.7z"/>
		<path d="M76.1,63.9c-0.1,12-8.6,21.9-20.3,23.7c-10,1.6-20.3-3.7-24.9-12.8c-0.7-1.3-0.4-2.4,0.6-3c1-0.5,2-0.1,2.7,1.2
			c2.9,5.5,7.3,9,13.4,10.5c11.2,2.8,22.9-5.1,24.4-16.6c1.5-11.2-5.9-21.1-17-22.9c-10.8-1.7-21.6,6.5-22.8,17.4
			c-0.2,1.4-0.2,2.7-0.1,4.1c0.1,1.4-0.6,2.2-1.8,2.2c-1.2,0.1-2-0.7-2-2.1c-0.6-12.1,6.9-22.1,18.5-24.9c13.2-3.2,26.9,6,28.9,19.4
			C76,61.4,76,62.7,76.1,63.9z"/>
		<path d="M96.3,66.1c-0.9,19.6-14.8,35.9-33.1,40.6c-3.5,0.9-7,1.4-10.6,1.4c-1.4,0-2.3-0.7-2.3-1.8c0-1.2,0.7-1.9,2.2-1.9
			c7.9-0.2,15.2-2.2,21.7-6.6c10.4-7,16.5-16.8,18.1-29.3c0.2-1.4,0.2-2.7,0.2-4.1c0-1.4,0.9-2.3,2-2.3c1.2,0,1.9,1,1.9,2.5
			C96.4,65,96.4,65.6,96.3,66.1z"/>
		<path d="M8.1,62.1c0.5-19.2,14.9-36.8,33.7-41c3.3-0.7,6.6-1.2,10-1.2c1.5,0,2.3,0.6,2.3,1.8c0,1.2-0.7,1.9-2.2,1.9
			c-9.5,0.2-18.1,3.2-25.4,9.3c-7.8,6.5-12.5,14.9-14.1,25c-0.3,1.9-0.5,3.9-0.5,5.8c0,1.3-0.8,2.2-1.9,2.2c-1.1,0-1.8-0.9-1.9-2.2
			C8.1,63.2,8.1,62.6,8.1,62.1z"/>
		<path d="M84.9,39c-0.6,0.1-1.1-0.3-1.5-0.7c-1.2-1.4-2.4-2.7-3.8-4c-0.9-0.8-0.9-2-0.1-2.8c0.7-0.7,1.9-0.7,2.8,0.1
			c1.5,1.4,2.9,2.8,4.1,4.3c0.5,0.6,0.6,1.3,0.2,2.1C86.2,38.7,85.7,39.1,84.9,39z"/>
	</g>
</g>
</svg>
