<?xml version="1.0" encoding="utf-8"?>
<!-- Generator: Adobe Illustrator 28.0.0, SVG Export Plug-In . SVG Version: 6.00 Build 0)  -->
<svg version="1.1" id="Layer_1" xmlns="http://www.w3.org/2000/svg" xmlns:xlink="http://www.w3.org/1999/xlink" x="0px" y="0px"
	 viewBox="0 0 128 128" style="enable-background:new 0 0 128 128;" xml:space="preserve">
<g id="vH1MkJ.tif">
	<g>
		<path d="M121.5,84.9c-4-0.4-7.6-1.8-10.9-4.2c-1-0.8-2.1-1.5-3.2-2.1c-1.7-1-3.6-1.9-5.6-1.8c-4.6,0.1-8,2.3-10.3,6.2
			c-0.4,0.6-0.7,0.8-1.3,0.5c-7.3-2.9-15-4.4-22.8-4.5c-0.9,0-1.2-0.3-1.2-1.2c0.1-3.4,0.1-6.8,0-10.1c0-1.2,0.2-1.5,1.5-1.5
			c4.4,0.1,7.1-2.7,7.1-7c0-4.4,0-8.8,0-13.2c0-0.9,0.3-1.1,1.1-1.1c1.5,0,3.1,0.2,4.6-0.1c3.1-0.7,4.9-3.3,4.9-6.8
			c0-4.5,0-8.9,0-13.4c0-0.5-0.2-1,0.8-1c2.6-0.1,4-1.3,4.6-3.9c1-4.8,2.1-9.6,3.1-14.3C94.4,2.6,92.4,0,89.6,0
			C72.6,0,55.5,0,38.4,0c-2.7,0-4.7,2.3-4.2,5c1,5.1,2.2,10.1,3.3,15.2c0.4,1.9,2,3.3,3.8,3.3c1.3,0,1.3,0.5,1.3,1.5
			c0,4.7-0.1,9.4,0.1,14.1c0.1,3.2,2.8,5.6,6,5.7c1.1,0.1,2.3,0.1,3.4,0c0.9-0.1,1.2,0.2,1.2,1.2c-0.1,4.5,0,8.9,0,13.4
			c0,0.9,0.1,1.7,0.4,2.6c1,2.7,3.3,4.3,6.5,4.3c1.6,0,1.6,0,1.6,1.7c0,3.2-0.1,6.5,0,9.7c0,1.1-0.3,1.4-1.4,1.4
			c-7.1,0.2-14,1.5-20.7,3.9c-0.8,0.3-1.7,0.9-2.4,0.8c-0.9-0.1-1-1.3-1.6-2c-2.9-3.8-8.6-6.9-14.7-3.4c-1.4,0.8-2.8,1.7-4.2,2.7
			c-3.3,2.3-7,3.6-11,4c-3.5,0.4-5.9,3-5.9,6.4c0,10.1,0,20.2,0,30.2c0,0.5,0,1,0.1,1.5c0.6,2.6,2.5,4,4.8,4.9h117.7
			c3-0.3,4.7-2,5.2-5V90.3C127.1,87,125,85.2,121.5,84.9z M42.7,19.2c-0.5,0-0.9,0.1-1.1-0.6c-1-4.7-2.1-9.5-3.2-14.3h1.3
			c16.2,0,32.3,0,48.5,0c1.2,0,1.3,0.2,1.1,1.3c-1,4.2-1.9,8.5-2.8,12.7c-0.1,0.7-0.4,0.9-1.2,0.9C71.1,19.2,56.9,19.2,42.7,19.2z
			 M49.6,40.5c-1.8,0-2.6-0.7-2.6-2.5c0-4.5,0-9,0-13.5c0-0.9,0.3-1,1-1c5.3,0,10.7,0,16,0c5.3,0,10.6,0,15.9,0
			c0.9,0,1.2,0.1,1.2,1.1C81,29,81,33.5,81,38c0,1.8-0.8,2.6-2.6,2.6C68.8,40.5,59.2,40.5,49.6,40.5z M60.1,61.8
			c-1.7,0-2.5-0.7-2.5-2.4c0-4.6,0-9.1,0-13.7c0-0.7,0.2-0.9,0.9-0.9c3.6,0,7.2,0,10.8,0c0.8,0,0.9,0.3,0.9,1c0,2.3,0,4.6,0,6.9
			c0,2.2,0,4.4,0,6.6c0,1.8-0.7,2.5-2.5,2.5C65.3,61.8,62.7,61.8,60.1,61.8z M51.4,84.2c3.1-0.5,6.3-0.8,9.4-1c0.8,0,1.1,0.2,1,0.9
			c-0.1,0.4,0,0.9,0,1.4C61.9,87,62.7,88,64,88c1.2,0,2.1-0.9,2.2-2.4c0-0.5,0-1.1,0-1.6c-0.1-0.6,0.2-0.8,0.8-0.7
			c3.5,0.2,7,0.5,10.6,1.3c-2.8,5.1-8.9,8.2-14.8,7.6c-5-0.5-9-2.6-11.9-6.8C50.3,84.6,50.4,84.4,51.4,84.2z M39.9,87.4
			c1.7-0.6,3.4-1.2,5.2-1.7c0.7-0.2,1-0.1,1.4,0.5c3.8,6.8,9.5,10.2,17.2,10.3c8,0.1,14-3.4,17.9-10.3c0.3-0.6,0.6-0.8,1.3-0.6
			c1.9,0.6,3.7,1.2,5.5,1.8c0.7,0.3,0.7,0.5,0.4,1.1c-3.6,7-8.1,13.4-13.4,19.3c-0.4,0.5-0.7,0.3-1.1,0.1c-2.5-1.3-5-2.5-7.7-3
			c-0.8-0.1-1.7-0.2-2.5-0.2c-3.6,0-6.7,1.4-9.8,3c-0.8,0.4-1.2,0.4-1.8-0.3c-5.2-5.7-9.5-11.9-13-18.7
			C38.9,87.9,39.1,87.7,39.9,87.4z M71.2,112c-4.2,4.9-10.2,4.9-14.4,0c-0.3-0.3-0.5-0.5,0.1-0.8c1.8-1.1,5.3-2.2,7.7-2.2
			c2,0.1,4.3,1.1,6.5,2.2C71.7,111.4,71.5,111.6,71.2,112z M123.7,120.9c0,2.1-0.8,2.8-2.9,2.8c-19,0-37.9,0-56.9,0H7.6
			c-2.8,0-3.3-0.6-3.3-3.4v-28c0-2.4,0.5-2.9,2.9-3.1C12,88.6,16.4,87,20.2,84c0.9-0.7,1.7-1.3,2.7-1.7c4.2-2,8-0.7,10.1,3.4
			c1.4,2.7,2.6,5.4,4.1,8.1c4.7,8.5,10.9,15.9,17.9,22.6c5.3,5,12.7,4.9,18-0.1c9-8.5,16.3-18.3,21.4-29.6c1.3-2.8,3.2-4.8,6.3-5.5
			c1.4-0.3,2.6,0.2,3.8,0.8c1.7,0.8,3.1,1.9,4.6,3c3.7,2.5,7.8,3.8,12.2,4.4c1.7,0.2,2.4,0.9,2.4,2.6
			C123.7,101.5,123.7,111.2,123.7,120.9z"/>
		<path d="M111,59.7c-0.1,0.8-0.4,1.3-1,1.8c-4.8,4.1-9.7,8.3-14.5,12.4c-1.2,1.1-2.4,1-3.3,0c-0.8-1-0.7-2.2,0.5-3.3
			c4.8-4.1,9.6-8.2,14.4-12.4c0.8-0.7,1.6-1,2.6-0.5C110.5,58.2,110.9,58.9,111,59.7z"/>
		<path d="M36.3,72.5c0.1,0.9-0.4,1.5-1.1,2c-0.9,0.5-1.7,0.3-2.4-0.3c-2-1.7-3.9-3.4-5.9-5c-2.9-2.5-5.9-5-8.8-7.6
			c-0.7-0.6-1.2-1.3-0.9-2.3c0.2-0.8,0.7-1.4,1.6-1.6c0.8-0.3,1.5,0,2.1,0.5c4.9,4.2,9.8,8.4,14.7,12.6
			C35.9,71.2,36.3,71.8,36.3,72.5z"/>
		<path d="M49.1,68.2c0,1.2-0.6,1.9-1.7,2.1c-1.1,0.3-2-0.3-2.4-1.3c-1.1-2.5-2.2-5-3.2-7.5c-1-2.4-2-4.7-3-7.1
			c-0.6-1.5-0.2-2.7,1-3.2c1.2-0.5,2.3,0,3,1.5c2,4.8,4.1,9.5,6.1,14.3C48.9,67.4,49.1,67.8,49.1,68.2z"/>
		<path d="M89.6,53.5c-0.1,0.3-0.2,0.8-0.4,1.2c-2,4.7-4,9.4-6,14.1c-0.5,1.1-1.2,1.9-2.4,1.7c-1.4-0.2-2.3-1.6-1.7-3
			c2.1-5,4.2-10,6.4-14.9c0.5-1.1,1.5-1.5,2.6-1.2C89.1,51.6,89.6,52.4,89.6,53.5z"/>
	</g>
</g>
</svg>
