<svg width="24" height="24" viewBox="0 0 24 24" fill="none" xmlns="http://www.w3.org/2000/svg">
<path d="M19 9.75196C19 9.32789 19 9.11585 18.9161 9.01767C18.8434 8.93247 18.7342 8.88726 18.6225 8.89605C18.4938 8.90618 18.3439 9.05612 18.044 9.35598L15.5 11.9L18.044 14.444C18.3439 14.7439 18.4938 14.8938 18.6225 14.9039C18.7342 14.9127 18.8434 14.8675 18.9161 14.7823C19 14.6841 19 14.4721 19 14.048V9.75196Z" stroke="#838383" stroke-width="1.2" stroke-linecap="round" stroke-linejoin="round"/>
<path d="M5 10.36C5 9.18389 5 8.59583 5.22889 8.14662C5.43022 7.75148 5.75148 7.43022 6.14662 7.22889C6.59583 7 7.18389 7 8.36 7H12.14C13.3161 7 13.9042 7 14.3534 7.22889C14.7485 7.43022 15.0698 7.75148 15.2711 8.14662C15.5 8.59583 15.5 9.18389 15.5 10.36V13.44C15.5 14.6161 15.5 15.2042 15.2711 15.6534C15.0698 16.0485 14.7485 16.3698 14.3534 16.5711C13.9042 16.8 13.3161 16.8 12.14 16.8H8.36C7.18389 16.8 6.59583 16.8 6.14662 16.5711C5.75148 16.3698 5.43022 16.0485 5.22889 15.6534C5 15.2042 5 14.6161 5 13.44V10.36Z" stroke="#838383" stroke-width="1.2" stroke-linecap="round" stroke-linejoin="round"/>
</svg>
