<?xml version="1.0" encoding="utf-8"?>
<!-- Generator: Adobe Illustrator 27.9.0, SVG Export Plug-In . SVG Version: 6.00 Build 0)  -->
<svg version="1.1" id="Layer_1" xmlns="http://www.w3.org/2000/svg" xmlns:xlink="http://www.w3.org/1999/xlink" x="0px" y="0px"
	 viewBox="0 0 128 128" style="enable-background:new 0 0 128 128;" xml:space="preserve">
<g id="outline">
	<g>
		<path d="M125.85,59.71v-2.15c0-5.93-4.8-10.73-10.73-10.73s-10.73,4.8-10.73,10.73v0.3c-1.83-2.52-5.2-3.37-8.01-2.03l-0.82,0.4
			c-0.69-0.44-1.43-0.79-2.2-1.06c-2.68-0.95-5.64-0.78-8.2,0.46l-15.47,7.44c-4.6,2.22-7,7.38-5.74,12.33l-5.73-0.57L42.15,56.75
			v-5.62c0-1.19-0.96-2.15-2.15-2.15H7.81c-1.19,0-2.15,0.96-2.15,2.15c0,1.19,0.96,2.15,2.15,2.15h13.1
			c0.82,3.89,3.79,6.98,7.65,7.94l1.53,0.38l15.32,22.98c1.14,1.72,2.78,3.05,4.69,3.81l2.32,0.93l-0.23,0.23l-26.74-6.17
			c-0.63-0.15-1.29,0-1.8,0.4c0,0,0,0-0.01,0.01l-22.8,17.97c-0.94,0.72-1.13,2.06-0.41,3.01c0.72,0.94,2.06,1.13,3.01,0.41
			c0.02-0.02,0.04-0.03,0.06-0.05l10.39-8.19c3.09,2.91,7.69,3.54,11.44,1.54l24.86,5.74c1.83,0.42,3.74,0.33,5.52-0.26l23.28-7.76
			c4.97-0.03,9.91-0.78,14.67-2.23v4.38c0,0.69,0.33,1.34,0.9,1.75l14.7,10.5l4.07,6.11c0.5,0.75,1.43,1.11,2.31,0.89l8.58-2.15
			c1.15-0.29,1.85-1.45,1.56-2.6c-0.04-0.15-0.09-0.3-0.16-0.44l-1.67-3.33l1.67-3.33c0.3-0.6,0.3-1.32,0-1.92l-2.15-4.29
			c-0.53-1.06-1.82-1.49-2.88-0.96l-3.06,1.53l-8.85-7.08v-5.39l5.08-2.31c3.47,0.75,6.9-1.45,7.65-4.93
			c0.1-0.45,0.15-0.91,0.15-1.37l0,0c2.1-1.58,3.55-3.87,4.08-6.44h0.22c1.19,0,2.15-0.96,2.15-2.15v-8.58
			C128,60.67,127.04,59.71,125.85,59.71z M119.92,68.29l-3.84-1.92c-0.6-0.3-1.32-0.3-1.92,0l-3.84,1.92h-3.79V64h17.17v4.29H119.92
			z M108.28,81.97h1.12c0.09,0.17,0.18,0.33,0.28,0.48l-1.13,0.51C108.48,82.63,108.39,82.3,108.28,81.97z M105.46,77.68
			c-1.78,0-3.22-1.44-3.22-3.22v-4.02c0,1.19,0.96,2.15,2.15,2.15h0.22c0.39,1.9,1.29,3.66,2.6,5.1H105.46z M108.68,57.56
			c0-3.56,2.88-6.44,6.44-6.44s6.44,2.88,6.44,6.44v2.15h-12.88V57.56z M99.89,59.61c1.12,0.39,1.71,1.61,1.32,2.73
			c-0.15,0.43-0.44,0.81-0.82,1.07c-0.17-0.96-0.47-1.89-0.9-2.77c-0.19-0.39-0.4-0.77-0.63-1.13
			C99.2,59.46,99.56,59.49,99.89,59.61L99.89,59.61z M87.03,59.49c3.2-1.54,7.05-0.19,8.59,3.01c1.54,3.2,0.19,7.05-3.01,8.59
			l-1.93,0.93l-5.58-11.6L87.03,59.49z M81.23,62.28l5.58,11.6l-7.74,3.72L73.49,66L81.23,62.28z M69.78,68.19l5.26,10.94
			c-3.53,0.39-6.71-2.17-7.1-5.7C67.73,71.5,68.41,69.57,69.78,68.19z M51.71,84.4c-1.11-0.44-2.06-1.21-2.72-2.21L33.21,58.52
			c-0.3-0.44-0.75-0.76-1.27-0.89l-2.34-0.58c-1.95-0.48-3.53-1.9-4.23-3.77h12.49v4.29c0,0.53,0.19,1.03,0.54,1.43L55.57,78.3
			c0.36,0.4,0.85,0.66,1.39,0.71l5.88,0.59c-1.2,0.74-2.32,1.62-3.32,2.62l-3.79,3.79L51.71,84.4z M78.64,91.9
			c-0.23,0-0.46,0.04-0.68,0.11l-23.61,7.87c-1.03,0.34-2.13,0.4-3.19,0.15L25.47,94.1c-0.58-0.13-1.18-0.02-1.67,0.31
			c-1.97,1.31-4.56,1.24-6.46-0.19l8.17-6.44l26.9,6.21c0.72,0.17,1.48-0.05,2-0.57l8.16-8.16c1.66-1.65,3.71-2.87,5.95-3.52
			c1.74,1.13,3.77,1.73,5.85,1.73c1.61,0,3.19-0.36,4.64-1.06l15.47-7.44c1.33-0.64,2.52-1.55,3.48-2.67v2.17
			c0,0.99,0.2,1.98,0.58,2.89c-2.93,1.1-4.87,3.9-4.87,7.03v5.07C88.82,91.08,83.74,91.9,78.64,91.9z M115.93,104.31
			c0.65,0.52,1.55,0.62,2.3,0.24l2.37-1.19l0.71,1.41l-1.67,3.33c-0.3,0.6-0.3,1.32,0,1.92l0.95,1.9l-4.52,1.13l-3.45-5.18
			c-0.14-0.22-0.33-0.4-0.54-0.56L97.95,97.23V84.39c0-1.78,1.44-3.22,3.22-3.22s3.22,1.44,3.22,3.22v9.66c0,0.65,0.3,1.27,0.8,1.68
			L115.93,104.31z M115.12,81.17c-1.19,0-2.15-0.96-2.15-2.15c0-1.19,0.96-2.15,2.15-2.15s2.15,0.96,2.15,2.15
			C117.27,80.21,116.31,81.17,115.12,81.17z M119.92,74.73c-2.36-2.65-6.43-2.88-9.07-0.52c-0.18,0.16-0.36,0.34-0.52,0.52
			c-0.56-0.63-0.99-1.36-1.27-2.15h1.78c0.33,0,0.66-0.08,0.96-0.23l3.33-1.67l3.33,1.67c0.3,0.15,0.63,0.23,0.96,0.23h1.78
			C120.91,73.38,120.48,74.11,119.92,74.73z"/>
		<path d="M100.1,46.83c3.56,0,6.44-2.88,6.44-6.44s-2.88-6.44-6.44-6.44s-6.44,2.88-6.44,6.44C93.66,43.95,96.55,46.83,100.1,46.83
			z M100.1,38.25c1.19,0,2.15,0.96,2.15,2.15c0,1.19-0.96,2.15-2.15,2.15c-1.19,0-2.15-0.96-2.15-2.15
			C97.95,39.21,98.91,38.25,100.1,38.25z"/>
		<path d="M112.98,31.81c3.56,0,6.44-2.88,6.44-6.44s-2.88-6.44-6.44-6.44s-6.44,2.88-6.44,6.44
			C106.54,28.92,109.42,31.8,112.98,31.81z M112.98,23.22c1.19,0,2.15,0.96,2.15,2.15c0,1.19-0.96,2.15-2.15,2.15
			c-1.19,0-2.15-0.96-2.15-2.15C110.83,24.18,111.79,23.22,112.98,23.22z"/>
		<path d="M87.22,23.22c3.56,0,6.44-2.88,6.44-6.44s-2.88-6.44-6.44-6.44c-3.56,0-6.44,2.88-6.44,6.44
			C80.79,20.34,83.67,23.22,87.22,23.22z M87.22,14.64c1.19,0,2.15,0.96,2.15,2.15c0,1.19-0.96,2.15-2.15,2.15
			c-1.19,0-2.15-0.96-2.15-2.15C85.08,15.6,86.04,14.64,87.22,14.64z"/>
	</g>
</g>
</svg>
