<?xml version="1.0" encoding="utf-8"?>
<!-- Generator: Adobe Illustrator 27.9.0, SVG Export Plug-In . SVG Version: 6.00 Build 0)  -->
<svg version="1.1" id="Layer_1" xmlns="http://www.w3.org/2000/svg" xmlns:xlink="http://www.w3.org/1999/xlink" x="0px" y="0px"
	 viewBox="0 0 128 128" style="enable-background:new 0 0 128 128;" xml:space="preserve">
<path d="M103.34,59.21c-1.28-4.55-4.26-8.34-8.38-10.65c-4.13-2.31-8.91-2.88-13.46-1.6c-5.82,1.64-10.14,6.02-11.96,11.35H58.46
	c-2.38-6.98-8.98-12.01-16.75-12.01C31.94,46.29,24,54.23,24,64s7.94,17.71,17.71,17.71c7.88,0,14.57-5.18,16.86-12.31h10.87
	c1.37,4.28,4.24,7.84,8.18,10.05c2.68,1.5,5.64,2.27,8.64,2.27c1.61,0,3.23-0.22,4.82-0.67C100.48,78.4,105.98,68.61,103.34,59.21z
	 M59.28,61.9h9.42c-0.15,1.28-0.16,2.58-0.02,3.9h-9.36c0.06-0.59,0.09-1.19,0.09-1.8C59.42,63.29,59.37,62.59,59.28,61.9z"/>
</svg>
