<?xml version="1.0" encoding="utf-8"?>
<!-- Generator: Adobe Illustrator 27.9.0, SVG Export Plug-In . SVG Version: 6.00 Build 0)  -->
<svg version="1.1" id="Layer_1" xmlns="http://www.w3.org/2000/svg" xmlns:xlink="http://www.w3.org/1999/xlink" x="0px" y="0px"
	 viewBox="0 0 128 128" style="enable-background:new 0 0 128 128;" xml:space="preserve">
<g>
	<path d="M102.53,91.68c-1,0.29-1.57,1.33-1.28,2.33c3.36,11.57,4.18,25.28,4.37,30.23h-11.7v-24.18c0-1.04-0.84-1.88-1.88-1.88
		c-1.04,0-1.88,0.84-1.88,1.88v12.53H70.55v-12.53c0-1.04-0.84-1.88-1.88-1.88s-1.88,0.84-1.88,1.88v24.18H52.4
		c0.14-4.9,0.81-9.75,2.01-14.45c0.26-1.01-0.35-2.03-1.36-2.29c-1.01-0.26-2.03,0.35-2.29,1.36c-1.43,5.6-2.16,11.41-2.16,17.26
		c0,1.04,0.84,1.88,1.88,1.88h57.06c0.5,0,0.98-0.2,1.34-0.56c0.35-0.36,0.55-0.84,0.54-1.34c-0.01-0.74-0.27-18.3-4.58-33.14
		C104.57,91.96,103.53,91.39,102.53,91.68L102.53,91.68z M70.55,124.24v-7.89h19.61v7.89L70.55,124.24z"/>
	<path d="M110.81,16.52c-0.51-0.91-1.65-1.23-2.56-0.72c-0.91,0.51-1.23,1.65-0.72,2.56c3.15,5.64,4.49,12.41,3.78,19.08
		c-1.4,13-13.73,23.26-18.16,26.56l-7.26-11.88c3.99-1.58,6.66-5.66,6.27-10.16c-0.41-4.77-4.33-8.67-9.11-9.05
		c-0.71-0.06-1.41-0.04-2.1,0.05L96.37,7.27c2.59,1.4,4.94,3.2,7,5.39c0.71,0.76,1.9,0.79,2.66,0.08c0.76-0.71,0.79-1.9,0.08-2.66
		C100.25,3.85,92.36,0.37,83.3,0.04C71.74-0.39,66.61,2.82,62.07,5.65c-2.21,1.38-4.12,2.57-6.6,3.21
		c-2.85,0.72-5.98,0.33-9.31-1.16c-2.31-1.04-4.89-0.49-6.57,1.41c-1.66,1.88-1.9,4.49-0.59,6.64c2.6,4.3,5.83,7.77,9.61,10.33
		v27.13c-3.23,0.38-5.74,3.13-5.74,6.46v12.14c0,1.04,0.84,1.88,1.88,1.88h3.29v1.22c0,7.6-5.71,13.89-13.06,14.82v-1.07
		c0-3.81-3.1-6.91-6.91-6.91s-6.91,3.1-6.91,6.91v7.79c-4.98,2.53-8.41,7.7-8.41,13.67v16c0,1.04,0.84,1.88,1.88,1.88h26.88
		c1.04,0,1.88-0.84,1.88-1.88v-16c0-5.96-3.43-11.14-8.41-13.67v-2.93c9.43-0.95,16.82-8.93,16.82-18.6V73.7h3.29
		c1.04,0,1.88-0.84,1.88-1.88v-1.23c2.47,1.83,5.37,3.14,8.56,3.72v7.38c-5.12,5.15-9.44,12.01-12.41,19.78
		c-0.37,0.97,0.11,2.06,1.08,2.43c0.22,0.08,0.45,0.12,0.67,0.12c0.76,0,1.47-0.46,1.76-1.21c2.94-7.67,7.16-14.15,11.9-18.83
		c0.14-0.1,0.26-0.22,0.36-0.35c6.55-6.3,14.06-9.18,20.56-7.08c3.49,1.12,6.53,4.46,9.05,9.93c0.43,0.94,1.55,1.35,2.49,0.92
		c0.94-0.43,1.36-1.55,0.92-2.49c-2.09-4.53-4.59-7.86-7.46-9.94v-7.29c3.83-2.69,18.89-14.17,20.58-29.85
		C115.84,30.4,114.33,22.83,110.81,16.52L110.81,16.52z M24.92,88.66c0-1.74,1.41-3.15,3.15-3.15c1.74,0,3.15,1.41,3.15,3.15v6.46
		c-1.02-0.21-2.07-0.33-3.15-0.33c-1.08,0-2.13,0.11-3.15,0.33V88.66z M39.63,110.12v14.12H16.51v-14.12
		c0-6.37,5.19-11.56,11.56-11.56C34.44,98.56,39.63,103.75,39.63,110.12z M65.8,50.86c-2.27-1.75-5.13-2.96-8.49-3.57
		c-1.92-0.35-3.67-0.44-4.94-0.45V28.25c4.81,2.32,10.3,3.34,16.38,3.03l4.44,7.27L65.8,50.86z M42.22,13.8
		c-0.66-1.09-0.02-1.96,0.19-2.2c0.22-0.24,1.02-1,2.21-0.47c4.12,1.85,8.08,2.31,11.78,1.37c3.05-0.78,5.4-2.24,7.67-3.66
		c4.27-2.67,8.69-5.43,19.09-5.05c3.47,0.13,6.75,0.77,9.76,1.9L75.38,34.91l-4.01-6.56c-0.37-0.6-1.04-0.95-1.75-0.89
		c-6.98,0.53-13.08-0.81-18.13-3.98C47.84,21.18,44.72,17.93,42.22,13.8L42.22,13.8z M46.63,69.94V59.68c0-1.33,0.95-2.44,2.21-2.7
		c0.55,3.75,2.09,7.18,4.37,10v2.96L46.63,69.94L46.63,69.94z M66.19,70.61c-7.97-1.48-13.82-8.42-13.82-16.68V50.6
		c3.18,0.02,10.03,0.67,13.46,5.68C69.02,60.92,67.18,67.77,66.19,70.61z M90.7,73.01c-0.03-0.01-0.06-0.02-0.1-0.03
		c-6.6-2.13-14.12-0.26-21.19,5.25c-0.04,0.03-0.08,0.07-0.13,0.1v-5.26c0.86-2.09,4.45-11.92-0.35-18.92
		c-0.13-0.19-0.26-0.37-0.4-0.55l8.66-14.41c1.27-1.75,3.36-2.71,5.54-2.54c2.97,0.24,5.41,2.66,5.67,5.63
		c0.3,3.42-2.23,6.45-5.63,6.75c-0.65,0.06-1.22,0.45-1.51,1.03s-0.27,1.27,0.07,1.83l9.37,15.34L90.7,73.01L90.7,73.01z"/>
	<path d="M63.55,40.42c-0.03,0-2.58-0.32-4.72-1.25c-0.95-0.41-2.06,0.02-2.47,0.97c-0.41,0.95,0.02,2.06,0.97,2.47
		c2.64,1.15,5.64,1.52,5.77,1.54c0.08,0.01,0.15,0.01,0.23,0.01c0.94,0,1.75-0.7,1.86-1.66C65.31,41.48,64.58,40.54,63.55,40.42
		L63.55,40.42z"/>
</g>
</svg>
