<?xml version="1.0" encoding="utf-8"?>
<!-- Generator: Adobe Illustrator 27.9.0, SVG Export Plug-In . SVG Version: 6.00 Build 0)  -->
<svg version="1.1" id="Layer_1" xmlns="http://www.w3.org/2000/svg" xmlns:xlink="http://www.w3.org/1999/xlink" x="0px" y="0px"
	 viewBox="0 0 128 128" style="enable-background:new 0 0 128 128;" xml:space="preserve">
<g id="Page-1">
	<g id="_x30_22---Furnace">
		<path id="Shape" d="M123.73,115.2h-8.53v-4.27c0-2.36-1.91-4.27-4.27-4.27h-7.97c7.47-5.37,11.54-13.72,10.42-21.45
			c-0.54-3.68-1.99-7.18-4.21-10.17c-0.55-0.73-1.5-1.03-2.37-0.75c-0.87,0.28-1.46,1.09-1.47,2.01c-0.04,0.13-0.09,0.27-0.12,0.38
			c-0.06,0.17-0.1,0.31-0.12,0.38c-0.1,0.43-0.21,0.84-0.33,1.26c-0.23,0.8-0.5,1.59-0.82,2.36c-0.44,1.05-1.04,2.02-1.77,2.89
			c1.22-6.59,1.12-14.16-3.11-20.23c-0.41-0.59-0.85-1.15-1.33-1.69c-5.52-6-12.72-10.19-20.66-12.01c-1.07-0.2-2.11,0.43-2.43,1.47
			c-0.32,1.04,0.19,2.15,1.19,2.58c0.38,0.42,0.74,0.86,1.07,1.31c0.21,0.28,0.39,0.51,0.52,0.66c0.85,0.97,1.63,2,2.36,3.07
			c1.31,1.87,2.16,4.02,2.47,6.29c0.1,1.8-0.28,3.6-1.1,5.21c-0.37-3.16-1.87-6.08-4.22-8.22c-0.61-0.44-1.42-0.52-2.11-0.22
			c-0.69,0.31-1.17,0.96-1.25,1.71c-0.07,0.67-0.13,1.33-0.18,1.98c-0.06,1.43-0.27,2.85-0.64,4.23c-0.74,2.29-1.88,4.44-3.37,6.32
			c-3.21,3.74-5.1,8.43-5.38,13.35c0.01,5.46,2.21,10.69,6.11,14.51c1.02,1.02,2.13,1.94,3.32,2.76h-5.17
			c-2.36,0-4.27,1.91-4.27,4.27v4.27h-8.53c-2.36,0-4.27,1.91-4.27,4.27v4.27c0,2.36,1.91,4.27,4.27,4.27h68.27
			c2.36,0,4.27-1.91,4.27-4.27v-4.27C128,117.11,126.09,115.2,123.73,115.2z M81.91,100.42c0.24-4.33,1.92-8.45,4.79-11.71
			c1.02,3.04,2.7,5.81,4.94,8.11c2.5,2.69,2.37,6.85,2.02,9.32c-2.26,0.42-4.56,0.59-6.85,0.52c-0.21,0-0.41-0.03-0.62-0.03
			C84.99,106.48,81.96,105.6,81.91,100.42z M68.27,89.43c0.28-3.99,1.85-7.79,4.48-10.8c1.81-2.29,3.18-4.89,4.06-7.67
			c0.02-0.07,0.04-0.15,0.07-0.23c0.16,0.74,0.28,1.39,0.36,1.83c0.3,1.62,0.47,3.26,0.48,4.91c0,0.94,0.61,1.76,1.51,2.04
			c0.9,0.27,1.87-0.07,2.39-0.84c0.01-0.02,0.11-0.16,0.12-0.18c0.97-1.59,1.83-3.24,2.58-4.94c1.53-2.72,2.28-5.81,2.15-8.93
			c-0.37-2.97-1.46-5.8-3.17-8.25l-0.07-0.11c4.29,1.94,8.13,4.74,11.29,8.23c0.37,0.41,0.71,0.85,1.02,1.3
			c4.6,6.61,3.11,15.88,1.04,22.49c-0.26,0.82-0.01,1.71,0.64,2.27c0.65,0.56,1.58,0.67,2.34,0.29c3.72-1.71,6.67-4.74,8.29-8.49
			c0.07-0.18,0.15-0.36,0.21-0.54c0.51,1.3,0.88,2.66,1.08,4.04c1.12,7.68-4.22,14.33-9.14,17.71c-0.62,0.41-1.27,0.78-1.94,1.11
			c0.38-3.87-0.82-7.74-3.32-10.72c-4.05-4.36-4.79-8.26-4.01-9.52c0.54-0.89,0.36-2.04-0.42-2.72c-0.79-0.68-1.95-0.7-2.75-0.04
			c-0.41,0.34-10.04,8.41-9.93,18.82c0,1.39,0.21,2.77,0.62,4.09c-1.89-0.94-3.62-2.18-5.12-3.67
			C70.04,97.89,68.28,93.76,68.27,89.43z M68.27,110.93h42.67v4.27H68.27V110.93z M55.47,123.73v-4.27h68.27v4.27H55.47z"/>
		<path id="Shape_1_" d="M58.27,66.13c1.67,1.67,4.37,1.67,6.03,0l6.03-6.03c1.67-1.67,1.67-4.37,0-6.03l-7.62-7.62
			c8.58-10.16,7.96-25.21-1.43-34.63c-0.87-0.87-1.81-1.68-2.79-2.42c-4.8-3.55-10.68-5.33-16.64-5.03
			c-2.94,0.13-5.82,0.78-8.53,1.92c-1.14,0.49-2.25,1.05-3.33,1.67c-0.89,0.49-1.74,0.95-2.62,1.33c-1.03-2.61-2.35-5.1-3.94-7.42
			C22.63,0.7,21.3,0,19.88,0h-5.27c-1.61,0-3.08,0.9-3.81,2.33c-0.59,1.16-0.6,2.54-0.04,3.71C9.39,5.11,8.03,4.17,6.75,3.24
			c-1.3-0.93-3.01-1.06-4.43-0.33S0,5.11,0,6.71v5.24c0,1.4,0.69,2.7,1.83,3.5c1.21,0.83,2.5,1.71,3.88,2.62
			c2.81,1.87,5.91,3.28,9.17,4.17c-0.36,0.5-0.77,1-1.2,1.52c-0.25,0.3-0.49,0.59-0.73,0.89c-1.8,2.48-3.06,5.3-3.71,8.29
			c-2.61,10.76,1.99,21.98,11.41,27.8c9.42,5.82,21.51,4.94,29.97-2.2L58.27,66.13z M26.31,28.39c1.08-1.87,1.86-3.89,2.3-6.01
			c1.76-0.46,3.46-1.09,5.1-1.87c0.79-0.36,1.54-0.79,2.3-1.21c0.97-0.59,2-1.09,3.06-1.49c3.91-1.32,8.21-0.68,11.57,1.72
			c3.35,2.4,5.34,6.28,5.35,10.4c0,2.65-0.83,5.24-2.38,7.4l-5.9-5.9c-1.67-1.66-4.36-1.66-6.03,0l-6.05,6.04
			c-0.8,0.8-1.25,1.89-1.25,3.02c0,1.13,0.45,2.22,1.25,3.02l5.91,5.9c-2.16,1.55-4.75,2.38-7.4,2.38h-0.01
			c-3.39,0-6.65-1.35-9.03-3.76c-3.37-3.32-4.61-8.25-3.2-12.77c0.28-1.07,0.76-2.08,1.42-2.96c0.28-0.35,0.57-0.7,0.85-1.04
			C24.96,30.37,25.68,29.41,26.31,28.39z M61.29,63.12l-9.03-9.03l-0.02-0.02l-6.04-6.04c0-0.01-0.03-0.01-0.04-0.03l-7.53-7.51
			l6.04-6.03L52.23,42l6.04,6.04l9.05,9.05L61.29,63.12z M19.9,4.27c1.29,1.89,2.38,3.91,3.26,6.02c-0.17,0.01-0.35,0-0.52,0.01
			c-0.53,0.03-1.07,0.02-1.6-0.01c-0.29-0.02-0.57-0.06-0.85-0.1c-0.49-0.06-0.97-0.15-1.45-0.26c-0.17-0.04-0.34-0.08-0.51-0.13
			c-0.71-1.35-1.52-2.65-2.43-3.89l-1.17-1.64H19.9z M4.27,11.95L4.25,6.7c1.93,1.41,4.01,2.83,6.15,4.23
			c1.75,1.17,3.65,2.09,5.66,2.72c0.92,0.3,1.86,0.53,2.81,0.68c0.3,0.05,0.59,0.06,0.89,0.1c0.64,0.09,1.29,0.14,1.94,0.16
			c0.11,0,0.23,0.03,0.34,0.03c0.4,0,0.8-0.04,1.2-0.07c0.28-0.02,0.56-0.02,0.84-0.05c0.8-0.08,1.59-0.22,2.38-0.41h0.05h0.02
			c1.94-0.53,3.79-1.33,5.5-2.38c0.94-0.54,1.91-1.04,2.91-1.47c2.26-0.95,4.66-1.49,7.11-1.61c4.97-0.26,9.87,1.22,13.87,4.18
			c0.83,0.62,1.61,1.3,2.35,2.03c7.73,7.75,8.35,20.1,1.43,28.59l-3.04-3.04c5.28-6.79,4.68-16.45-1.41-22.53
			c-4.6-4.59-11.41-6.17-17.56-4.09c-1.31,0.48-2.57,1.09-3.77,1.8c-0.66,0.37-1.32,0.74-2.01,1.07c-1.76,0.86-3.63,1.48-5.55,1.86
			c-1.95,0.37-3.95,0.49-5.93,0.36c-0.68-0.04-1.36-0.12-2.04-0.24c-3.7-0.63-7.22-2.04-10.33-4.14C6.7,13.6,5.44,12.74,4.27,11.95z
			 M19.04,54.07c-5.26-5.27-7.39-12.9-5.64-20.13c0.51-2.38,1.49-4.64,2.9-6.62l0.67-0.82c0.93-1.05,1.75-2.19,2.43-3.41
			c0.1,0,0.21,0,0.3,0.02c0.34,0.03,0.68,0.04,1.03,0.05c0.43,0.02,0.85,0.04,1.28,0.04c0.36,0,0.73-0.02,1.1-0.04
			c0.3-0.01,0.6,0,0.91-0.03c-0.35,1.09-0.82,2.13-1.4,3.12c-0.5,0.8-1.07,1.55-1.71,2.24c-0.33,0.38-0.64,0.77-0.96,1.17
			c-1,1.31-1.73,2.8-2.16,4.38c-1.85,6.02-0.21,12.57,4.27,17c3.19,3.21,7.52,5.02,12.05,5.01h0.03c3.79,0.01,7.47-1.25,10.45-3.58
			l3.04,3.04C39.13,62.4,26.8,61.78,19.04,54.07z"/>
		<path id="Shape_2_" d="M57.6,98.13c0-3.53-2.87-6.4-6.4-6.4s-6.4,2.87-6.4,6.4c0,3.53,2.87,6.4,6.4,6.4S57.6,101.67,57.6,98.13z
			 M49.07,98.13c0-1.18,0.96-2.13,2.13-2.13c1.18,0,2.13,0.96,2.13,2.13s-0.96,2.13-2.13,2.13C50.02,100.27,49.07,99.31,49.07,98.13
			z"/>
		<circle id="Oval" cx="38.4" cy="87.47" r="2.13"/>
		<circle id="Oval_1_" cx="44.8" cy="76.8" r="2.13"/>
		<path id="Shape_3_" d="M108.8,55.47c0,3.53,2.87,6.4,6.4,6.4c3.53,0,6.4-2.87,6.4-6.4s-2.87-6.4-6.4-6.4
			C111.67,49.07,108.8,51.93,108.8,55.47z M117.33,55.47c0,1.18-0.96,2.13-2.13,2.13s-2.13-0.96-2.13-2.13s0.96-2.13,2.13-2.13
			S117.33,54.29,117.33,55.47z"/>
		<circle id="Oval_2_" cx="98.13" cy="36.27" r="2.13"/>
		<circle id="Oval_3_" cx="108.8" cy="17.07" r="2.13"/>
		<circle id="Oval_4_" cx="117.33" cy="36.27" r="2.13"/>
	</g>
</g>
</svg>
