<?xml version="1.0" encoding="utf-8"?>
<!-- Generator: Adobe Illustrator 27.9.0, SVG Export Plug-In . SVG Version: 6.00 Build 0)  -->
<svg version="1.1" id="Layer_1" xmlns="http://www.w3.org/2000/svg" xmlns:xlink="http://www.w3.org/1999/xlink" x="0px" y="0px"
	 viewBox="0 0 128 128" style="enable-background:new 0 0 128 128;" xml:space="preserve">
<g>
	<g>
		<path d="M119.72,113.69c-0.22-1.01-1.23-1.65-2.24-1.43c-1.01,0.22-1.65,1.23-1.43,2.24c0.13,0.57,0.19,1.15,0.19,1.74
			c0,4.41-3.59,7.99-7.99,7.99c-1.04,0-1.88,0.84-1.88,1.88c0,1.04,0.84,1.88,1.88,1.88c6.48,0,11.75-5.27,11.75-11.75
			C120,115.39,119.91,114.53,119.72,113.69L119.72,113.69z"/>
		<path d="M64,50.12c6.67,0,12.09-5.42,12.09-12.09c0-6.67-5.42-12.09-12.09-12.09s-12.09,5.42-12.09,12.09
			C51.91,44.69,57.33,50.12,64,50.12z M64,29.7c4.59,0,8.33,3.74,8.33,8.33c0,4.59-3.74,8.33-8.33,8.33s-8.33-3.74-8.33-8.33
			C55.67,33.44,59.41,29.7,64,29.7z"/>
		<path d="M32.21,73.45H44.3v7.4c-1.85,0.51-3.21,2.21-3.21,4.22v3.94c0,2.41,1.96,4.38,4.38,4.38h3.27l2.21,5.1
			c0.72,1.67,2.37,2.75,4.19,2.75h17.71c1.82,0,3.46-1.08,4.19-2.75l2.21-5.1h3.27c2.41,0,4.38-1.96,4.38-4.38v-3.94
			c0-2.01-1.36-3.7-3.21-4.22v-7.4h12.09c2.29,0,4.15-1.86,4.15-4.15v-8.5c0-0.99-0.36-1.96-1.01-2.71L83.7,40.4v-7.76
			c0-9.16-3.2-17.99-9.02-24.85c-1.88-2.21-3.96-4.29-6.2-6.16c-2.59-2.18-6.36-2.18-8.95,0c-2.23,1.87-4.32,3.95-6.2,6.16
			c-5.82,6.86-9.02,15.68-9.02,24.85v7.76l-5.35,6.21c-0.68,0.79-0.59,1.97,0.2,2.65c0.79,0.68,1.97,0.59,2.65-0.2l2.5-2.9v23.53
			H32.21c-0.22,0-0.39-0.18-0.39-0.39v-8.5c0-0.09,0.03-0.19,0.09-0.26l4.23-4.91c0.68-0.79,0.59-1.97-0.2-2.65
			c-0.79-0.68-1.97-0.59-2.65,0.2l-4.23,4.91c-0.65,0.75-1.01,1.72-1.01,2.71v8.5C28.06,71.59,29.92,73.45,32.21,73.45L32.21,73.45z
			 M96.09,60.54c0.06,0.07,0.1,0.16,0.1,0.26v8.5c0,0.22-0.18,0.39-0.39,0.39H83.7l0-23.53L96.09,60.54z M73.59,96.99
			c-0.13,0.29-0.42,0.48-0.74,0.48H55.14c-0.32,0-0.61-0.19-0.74-0.48l-1.56-3.6h22.31L73.59,96.99z M56.2,10.23
			c1.74-2.05,3.67-3.98,5.75-5.71c1.19-1,2.92-1,4.12,0c2.07,1.74,4,3.66,5.75,5.71c0.51,0.6,2.6,3.5,2.63,3.56H53.56
			C53.61,13.71,55.55,10.98,56.2,10.23L56.2,10.23z M48.06,41.09v-8.45c0-5.29,1.18-10.45,3.4-15.09h25.07
			c2.22,4.65,3.4,9.81,3.4,15.09v48.05H48.06l0-39.59C48.07,41.1,48.07,41.09,48.06,41.09z M44.86,85.07c0-0.34,0.28-0.62,0.62-0.62
			h0.69h36.36c0.34,0,0.62,0.28,0.62,0.62v3.94c0,0.34-0.28,0.62-0.62,0.62H45.47c-0.34,0-0.62-0.28-0.62-0.62L44.86,85.07z"/>
		<path d="M23.17,93.23c1.04,0,1.88-0.84,1.88-1.88V80.22c0-1.04-0.84-1.88-1.88-1.88s-1.88,0.84-1.88,1.88v11.13
			C21.29,92.39,22.13,93.23,23.17,93.23z"/>
		<path d="M29.36,80.22v3.93c0,1.04,0.84,1.88,1.88,1.88c1.04,0,1.88-0.84,1.88-1.88v-3.93c0-1.04-0.84-1.88-1.88-1.88
			C30.21,78.34,29.36,79.18,29.36,80.22z"/>
		<path d="M104.83,93.23c1.04,0,1.88-0.84,1.88-1.88V80.22c0-1.04-0.84-1.88-1.88-1.88c-1.04,0-1.88,0.84-1.88,1.88v11.13
			C102.95,92.39,103.79,93.23,104.83,93.23z"/>
		<path d="M94.88,80.22v3.93c0,1.04,0.84,1.88,1.88,1.88c1.04,0,1.88-0.84,1.88-1.88v-3.93c0-1.04-0.84-1.88-1.88-1.88
			C95.72,78.34,94.88,79.18,94.88,80.22z"/>
		<path d="M107.27,106.4c-0.01,0.98,0.74,1.8,1.71,1.89c1,0.09,1.96,0.36,2.85,0.81c0.93,0.47,2.06,0.09,2.52-0.84
			c0.47-0.93,0.09-2.06-0.84-2.52c-0.84-0.42-1.71-0.74-2.62-0.94c-0.75-4.54-4.71-8.02-9.46-8.02c-2.8,0-5.45,1.24-7.26,3.33
			c-1.78-0.75-3.7-1.14-5.64-1.14c-5.22,0-9.94,2.76-12.52,7.16c-1.35-0.55-2.82-0.86-4.34-0.86c-2.87,0-5.61,1.1-7.69,3
			c-2.08-1.91-4.82-3-7.69-3c-1.52,0-2.99,0.3-4.34,0.86c-2.58-4.41-7.3-7.16-12.52-7.16c-1.94,0-3.86,0.39-5.64,1.14
			c-1.81-2.08-4.46-3.33-7.26-3.33c-4.75,0-8.71,3.47-9.46,8.01C11.81,106,8,110.67,8,116.25C8,122.73,13.27,128,19.75,128
			c1.04,0,1.88-0.84,1.88-1.88c0-1.04-0.84-1.88-1.88-1.88c-4.41,0-7.99-3.59-7.99-7.99c0-4.16,3.12-7.58,7.26-7.96
			c0.97-0.09,1.72-0.91,1.71-1.89l0-0.04c0.01-3.21,2.62-5.82,5.83-5.82c2.07,0,4,1.11,5.04,2.9c0.52,0.89,1.66,1.2,2.55,0.69
			c1.61-0.92,3.45-1.4,5.3-1.4c3.9,0,7.42,2.08,9.33,5.4c-1.06,0.94-1.96,2.09-2.63,3.42c-0.47,0.93-0.09,2.06,0.84,2.52
			c0.27,0.14,0.56,0.2,0.84,0.2c0.69,0,1.35-0.38,1.68-1.04c0.61-1.22,1.51-2.22,2.6-2.93c0.02-0.01,0.04-0.02,0.06-0.03
			c0.58-0.38,1.2-0.66,1.84-0.87c0.73-0.23,1.5-0.36,2.3-0.36c2.42,0,4.71,1.17,6.14,3.12c0.12,0.17,0.26,0.33,0.44,0.45
			c0.65,0.47,1.57,0.46,2.21,0c0.18-0.13,0.32-0.28,0.44-0.45c1.43-1.96,3.72-3.13,6.15-3.13c0.9,0,1.78,0.16,2.6,0.45
			c0,0,0,0,0,0.01c0.54,0.2,1.06,0.45,1.55,0.77c0.02,0.01,0.04,0.02,0.06,0.03c1.08,0.72,1.99,1.72,2.6,2.93
			c0.33,0.66,0.99,1.04,1.68,1.04c0.28,0,0.57-0.06,0.84-0.2c0.93-0.47,1.3-1.6,0.84-2.52c-0.67-1.33-1.56-2.47-2.63-3.42
			c1.9-3.32,5.42-5.4,9.33-5.4c1.86,0,3.69,0.48,5.3,1.4c0.9,0.51,2.03,0.2,2.55-0.69c1.04-1.79,2.97-2.9,5.04-2.9
			c3.21,0,5.82,2.6,5.83,5.81C107.27,106.37,107.27,106.39,107.27,106.4L107.27,106.4z"/>
		<path d="M24.93,116.69c-0.71-0.37-1.3-0.94-1.69-1.64c-0.27-0.49-0.44-1.01-0.5-1.56c-0.11-1.03-1.04-1.78-2.08-1.66
			c-1.03,0.11-1.78,1.04-1.66,2.08c0.12,1.05,0.44,2.06,0.96,2.99c0.75,1.35,1.87,2.43,3.24,3.14c0.28,0.14,0.57,0.21,0.87,0.21
			c0.68,0,1.33-0.37,1.67-1.01C26.21,118.3,25.85,117.17,24.93,116.69L24.93,116.69z"/>
		<path d="M88.14,109.58c-0.88-0.55-2.04-0.29-2.59,0.59c-0.55,0.88-0.29,2.04,0.59,2.59c0.68,0.43,1.22,1.04,1.55,1.78
			c0.23,0.51,0.36,1.05,0.37,1.6c0.03,1.02,0.86,1.83,1.88,1.83c0.02,0,0.04,0,0.05,0c1.04-0.03,1.86-0.89,1.83-1.93
			c-0.03-1.06-0.27-2.09-0.71-3.06C90.47,111.58,89.44,110.4,88.14,109.58L88.14,109.58z"/>
	</g>
</g>
</svg>
