<?xml version="1.0" encoding="utf-8"?>
<!-- Generator: Adobe Illustrator 27.9.0, SVG Export Plug-In . SVG Version: 6.00 Build 0)  -->
<svg version="1.1" id="Layer_1" xmlns="http://www.w3.org/2000/svg" xmlns:xlink="http://www.w3.org/1999/xlink" x="0px" y="0px"
	 viewBox="0 0 128 128" style="enable-background:new 0 0 128 128;" xml:space="preserve">
<g>
	<path d="M119.47,96.77V64.88c3.14-1.31,5.36-4.41,5.36-8.03V42.09c0-3.61-2.21-6.71-5.36-8.03v-0.13c0-7.65-6.22-13.87-13.87-13.87
		l-1.55,0.03C94.92,7.91,80.37,0,64,0c-9.48,0-18.71,2.67-26.68,7.71c-0.88,0.55-1.14,1.71-0.58,2.59c0.55,0.88,1.71,1.14,2.59,0.58
		C46.7,6.21,55.23,3.75,64,3.75c25.5,0,46.25,20.75,46.25,46.25S89.5,96.25,64,96.25S17.75,75.51,17.75,50
		c0-13.41,5.81-26.14,15.95-34.94c0.78-0.68,0.87-1.86,0.19-2.65c-0.68-0.78-1.86-0.87-2.65-0.19c-2.73,2.37-5.16,5-7.29,7.84H22.4
		c-7.65,0-13.87,6.22-13.87,13.87v0.13c-3.14,1.31-5.36,4.41-5.36,8.03v14.76c0,3.61,2.21,6.71,5.36,8.03V96.8
		c-0.41,0.57-0.81,1.14-1.18,1.74c-3.22,5.1-4.92,11-4.92,17.06v10.52c0,1.04,0.84,1.88,1.87,1.88h119.39
		c1.04,0,1.88-0.84,1.88-1.88V115.6C125.57,108.67,123.37,102.13,119.47,96.77L119.47,96.77z M108.1,79.57
		c-0.76-0.76-1.67-1.3-2.66-1.61c2.57-3.8,4.63-7.97,6.09-12.41h4.19v26.94c-1.95-1.86-4.15-3.5-6.58-4.85
		c0.56-1,0.86-2.15,0.86-3.34C110,82.5,109.31,80.77,108.1,79.57L108.1,79.57z M121.07,42.09v14.76c0,2.73-2.22,4.94-4.94,4.94
		h-3.54c0.92-3.78,1.41-7.73,1.41-11.8c0-4.44-0.59-8.75-1.68-12.85h3.81C118.86,37.15,121.07,39.37,121.07,42.09z M115.7,33.4
		h-4.54c-1.18-3.35-2.72-6.55-4.55-9.53C111.54,24.36,115.44,28.4,115.7,33.4z M64,100c15.65,0,29.63-7.23,38.81-18.51
		c0.04-0.01,0.07-0.01,0.11-0.02c0.92-0.2,1.86,0.08,2.52,0.74c0.51,0.51,0.81,1.27,0.81,2.08s-0.29,1.57-0.81,2.08
		c-5.69,5.69-12.12,10.18-19.1,13.33c-7.29,3.29-14.84,4.96-22.44,4.96c-14.88,0-29.56-6.43-41.34-18.09
		c-1.07-1.06-1.08-3.08-0.02-4.16c0.73-0.74,1.8-1,2.79-0.69c0.02,0.01,0.04,0.01,0.06,0.02C34.58,92.89,48.47,100,64,100z
		 M16.48,65.55c1.48,4.5,3.57,8.73,6.2,12.57c-1.03,0.3-2,0.86-2.79,1.66c-2.05,2.07-2.41,5.39-1.1,7.9
		c-2.37,1.33-4.55,2.95-6.5,4.82V65.55H16.48z M21.38,23.87c-1.85,3.01-3.37,6.2-4.54,9.53H12.3
		C12.56,28.41,16.45,24.36,21.38,23.87z M6.93,56.86V42.09c0-2.73,2.22-4.94,4.94-4.94h3.81C14.58,41.3,14,45.62,14,50
		c0,4.06,0.49,8.01,1.41,11.8h-3.54C9.14,61.8,6.93,59.58,6.93,56.86z M121.82,124.25h-18.6v-2.56c0-4.46-3.63-8.1-8.1-8.1H48.27
		c-1.04,0-1.88,0.84-1.88,1.88s0.84,1.88,1.88,1.88h46.86c2.4,0,4.35,1.95,4.35,4.35v2.56H28.53v-2.56c0-2.4,1.95-4.35,4.35-4.35
		h7.89c1.04,0,1.88-0.84,1.88-1.88s-0.84-1.88-1.88-1.88h-7.89c-4.46,0-8.1,3.63-8.1,8.1v2.56H6.18v-8.65
		c0-10.59,5.78-20.12,15.13-25.03c5.65,5.32,11.95,9.55,18.75,12.61c7.74,3.48,15.76,5.24,23.84,5.24c8.14,0,16.21-1.78,23.98-5.29
		c6.77-3.06,13.05-7.3,18.68-12.61c9.42,4.89,15.26,14.47,15.26,25.09V124.25z"/>
	<path d="M25.8,35.37c-0.55,0.8-0.83,1.73-0.83,2.69V64.6c0,0.96,0.29,1.89,0.83,2.69C33.33,78.34,47.97,85.23,64,85.25
		c16.03-0.03,30.66-6.91,38.19-17.96c0.55-0.8,0.83-1.73,0.83-2.69V38.05c0-0.96-0.29-1.88-0.83-2.69
		C94.67,24.32,80.03,17.43,64,17.4c0,0,0,0-0.01,0C47.97,17.43,33.33,24.32,25.8,35.37L25.8,35.37z M64,21.15
		c14.81,0.03,28.25,6.28,35.1,16.33c0.12,0.18,0.18,0.37,0.18,0.57V64.6c0,0.2-0.06,0.4-0.18,0.57C92.25,75.22,78.8,81.48,64,81.5
		c-14.81-0.03-28.26-6.28-35.1-16.33c-0.12-0.18-0.18-0.37-0.18-0.57V38.05c0-0.2,0.06-0.4,0.18-0.57
		C35.75,27.44,49.19,21.18,64,21.15L64,21.15z"/>
	<path d="M37.36,40.59c0.46,0,0.92-0.17,1.28-0.51c5.55-5.21,15.03-8.33,25.36-8.34c10.33,0.01,19.81,3.13,25.36,8.34
		c0.75,0.71,1.94,0.67,2.65-0.08c0.71-0.76,0.67-1.94-0.08-2.65C85.7,31.5,75.26,28,64,27.99C52.74,28,42.3,31.5,36.07,37.34
		c-0.76,0.71-0.79,1.9-0.08,2.65C36.36,40.39,36.86,40.59,37.36,40.59L37.36,40.59z"/>
</g>
</svg>
