<?xml version="1.0" encoding="utf-8"?>
<!-- Generator: Adobe Illustrator 28.0.0, SVG Export Plug-In . SVG Version: 6.00 Build 0)  -->
<svg version="1.1" id="Layer_1" xmlns="http://www.w3.org/2000/svg" xmlns:xlink="http://www.w3.org/1999/xlink" x="0px" y="0px"
	 viewBox="0 0 128 128" style="enable-background:new 0 0 128 128;" xml:space="preserve">
<g id="pswOMv.tif">
	<g>
		<path d="M115.7,2.6v-1c-0.4-1.5-0.6-1.6-2.3-1.6C102,0,90.6,0,79.1,0c-4.4,0-3.5-0.7-6.6,3.3c-2.6,3.3-5.1,6.6-7.7,9.8
			c-0.7,0.9-0.9,0.9-1.6,0c-0.2-0.2-0.4-0.5-0.5-0.7C59.8,8.8,57,5,54,1.4C53.4,0.6,52.7,0,51.7,0C39.2,0,26.8,0,14.3,0
			c-1.6,0-2.3,0.9-2,2.4c0.1,0.6,0.4,1.2,0.8,1.7c4,5.1,8,10.2,12,15.3c3.8,4.9,7.6,9.8,11.5,14.6c0.7,0.8,1,1.6,0.5,2.7
			c-0.4,0.8-0.4,1.7-0.4,2.6c0,5.4,0,10.8,0,16.2c0,0.9-0.1,1.8-0.9,2.3c-1.4,1-2.4,2.4-3.5,3.7c-7,8.8-10.1,18.7-9,29.9
			c1,9.9,5.2,18.3,12.2,25.2c4.4,4.4,9.7,7.5,15.6,9.5c2.9,1,5.8,1.5,8.9,1.7h1.2c0.2-0.2,0.3-0.2,0.5,0h5.7c1.7-0.3,3.4-0.5,5-0.9
			c5.9-1.3,11.2-3.7,16-7.3c2.3-1.8,4.4-3.8,6.3-6c0.8-0.9,0.8-2-0.1-2.8c-0.7-0.7-1.8-0.7-2.7,0.1c-0.4,0.4-0.8,0.8-1.1,1.2
			c-1.7,1.9-3.5,3.5-5.6,5c-7.2,5.1-15.1,7.3-23.9,6.8c-8-0.5-15.1-3.3-21.1-8.5c-9.7-8.4-14.1-19.1-12.9-32
			c0.8-8.5,4.2-15.9,10.3-21.8C49,51,62.2,48,76.9,53.1c14,4.9,23.6,18.6,23.9,33.4c0.1,6.1-1.2,11.8-3.8,17.3
			c-0.7,1.4-0.4,2.4,0.7,3c1.1,0.5,2,0.1,2.7-1.2c4.3-8.7,5.3-17.7,3.2-27.1c-1.8-8-5.7-14.9-11.8-20.5c-0.6-0.6-0.9-1.2-0.9-2.1
			c0-5.6,0-11.2,0-16.8c0-0.8,0-1.7-0.5-2.4c-0.6-0.9-0.3-1.5,0.3-2.2C99.2,23.8,107.4,13.2,115.7,2.6z M66.9,17.3
			C70.3,13,73.6,8.8,77,4.5c0.3-0.4,0.6-0.5,1-0.5c2.1,0,4.1,0,6.5,0c-1,1.3-1.9,2.4-2.7,3.6c-0.8,1.1-0.7,2.2,0.1,2.9
			c0.9,0.7,2,0.6,2.9-0.6c1.3-1.7,2.7-3.4,4-5.1c0.4-0.5,0.8-0.8,1.6-0.8c2.4,0.1,4.7,0,7.3,0c-7.1,9.1-14.1,18-21,26.9
			c-1.2-1.6-2.4-3.1-3.6-4.6c-0.4-0.5-0.5-0.9,0-1.4c1.9-2.4,3.8-4.8,5.7-7.3c0.5-0.7,0.8-1.4,0.5-2.2c-0.6-1.5-2.3-1.7-3.5-0.2
			c-1.9,2.4-3.7,4.8-5.7,7.2c-1.1-1.4-2.2-2.8-3.3-4.2C66.4,17.8,66.7,17.6,66.9,17.3z M50.1,4c0.5,0,0.8,0.1,1,0.5
			c9.1,11.6,18.2,23.2,27.3,34.9c0,0.1,0.1,0.1,0.1,0.4c-2.3,0-4.5,0-6.7,0c-0.5,0-0.7-0.6-1-0.9C62.6,28.2,54.3,17.7,46.1,7.1
			c-0.8-1-1.5-2-2.5-3.1C46,4,48,4,50.1,4z M30.7,4c2.5,0,5.1,0,7.6,0c0.6,0,0.7,0.5,1,0.8c7.3,9.3,14.6,18.6,21.9,27.9
			c1.6,2.1,3.3,4.2,4.9,6.3c0.1,0.2,0.4,0.3,0.3,0.7c-2.5,0-5,0-7.4,0c-0.7,0-0.9-0.5-1.2-0.9c-5.5-7.1-11.1-14.1-16.6-21.2
			C37.7,13.3,34.4,9,31,4.7C30.9,4.5,30.6,4.4,30.7,4z M43.5,50.5c0.2,1.9-0.8,2.7-2.4,3.4V39.5c1.7,1.6,2.7,3.2,2.4,5.5
			C43.3,46.8,43.3,48.7,43.5,50.5z M45.9,39.2C36.9,27.6,27.8,16.1,18.8,4.5c-0.1-0.1-0.1-0.3-0.3-0.5c2.3,0,4.4,0,6.5,0
			c0.6,0,0.8,0.5,1.1,0.9c5.2,6.7,10.5,13.3,15.7,20c3.7,4.7,7.4,9.5,11.1,14.2c0.1,0.2,0.2,0.3,0.5,0.7c-2.4,0-4.7,0-6.9,0
			C46.3,39.7,46.1,39.5,45.9,39.2z M80.8,44.7c-0.1,1.9,0,3.7,0,5.7c-11.2-4.8-22.3-4.8-33.5,0c0-2.2,0-4.2,0-6.2
			c0-0.5,0.2-0.6,0.7-0.6c0.7,0,1.4,0,2.1,0c9.8,0,19.7,0,29.5,0C80.6,43.6,80.9,43.7,80.8,44.7z M87.1,53.8c-2.1-0.6-2.4-1-2.4-3.1
			c0-2.5-0.1-5,0-7.5c0.1-1.5-0.3-2.8-1.4-4c-0.5-0.5-0.9-1.2-1.6-2c1.5,0,2.7,0,4,0c0.9,0,1.4,0.5,1.4,1.4
			C87.1,43.7,87.1,48.7,87.1,53.8z M87.4,32.6c-0.5,0.6-0.9,0.9-1.7,0.9c-1.9-0.1-3.9,0-5.8,0c0-0.5,0.3-0.7,0.5-0.9
			c7.1-9.1,14.3-18.2,21.4-27.4c0.6-0.8,1.3-1.2,2.4-1.2c1.8,0.1,3.6,0,5.7,0c-0.6,0.8-1,1.3-1.5,1.9
			C101.3,14.8,94.4,23.7,87.4,32.6z"/>
		<path d="M61.3,128c0.2-0.3,0.3-0.3,0.5,0C61.7,128,61.5,128,61.3,128z"/>
		<path d="M77.5,95c0,2.5-0.3,5-1.6,7.2c-1.9,3.2-4.8,4.6-8.4,5.1c-4.2,0.6-8.3,0.2-11.8-2.7c-2.1-1.8-3.2-4.1-3.4-6.8
			c-0.1-1.8,0.5-2.5,2.4-2.6c0.6,0,1.2,0,1.7,0.1c0.8,0.2,1.6,0.5,1.6,1.6c0.1,2.1,0.9,3.9,3.1,4.7c2.6,1,5.2,1,7.7-0.3
			c1-0.5,1.7-1.5,2-2.6c0.6-2.1,0.8-4.3,0.2-6.5c-0.6-2.5-2.7-3.8-5.8-3.9c-2-0.1-2.7-0.9-2.5-2.8c0.1-1.2,0.7-1.8,2-2
			c0.5-0.1,1-0.1,1.5-0.2c2.2-0.3,3.3-1.2,3.8-3.3c0.4-1.6,0.4-3.1,0.1-4.7c-0.4-1.8-1.4-3-3.2-3.4c-1.7-0.4-3.5-0.4-5.1,0.3
			c-1.5,0.6-2.4,1.7-2.6,3.3c-0.4,2.8-1.8,3.7-4.6,3c-0.9-0.3-1.3-0.9-1.4-1.8c-0.2-4.2,2.1-7.9,6.1-9.3c3.9-1.4,7.8-1.3,11.7,0.2
			c2.8,1.1,4.4,3.3,4.9,6.3c0.4,2.2,0.4,4.5-0.3,6.7c-0.6,2.1-1.7,4-3.9,5.2C76.1,87.4,77.5,90.8,77.5,95z"/>
		<path d="M64.2,56.6c-16.8-0.1-31,13.4-31,30.9c0,17.6,14.3,30.8,30.8,30.8c16.5,0.1,30.9-13.2,30.9-30.8
			C94.9,70,80.8,56.6,64.2,56.6z M64.1,114.4c-15.3-0.1-27-12.4-27-27c0-14.9,12.1-27.1,27-27c15.3,0,27,12.4,27,27
			C91.1,102.3,79,114.5,64.1,114.4z"/>
		<path d="M77.5,95c0,2.5-0.3,5-1.6,7.2c-1.9,3.2-4.8,4.6-8.4,5.1c-4.2,0.6-8.3,0.2-11.8-2.7c-2.1-1.8-3.2-4.1-3.4-6.8
			c-0.1-1.8,0.5-2.5,2.4-2.6c0.6,0,1.2,0,1.7,0.1c0.8,0.2,1.6,0.5,1.6,1.6c0.1,2.1,0.9,3.9,3.1,4.7c2.6,1,5.2,1,7.7-0.3
			c1-0.5,1.7-1.5,2-2.6c0.6-2.1,0.8-4.3,0.2-6.5c-0.6-2.5-2.7-3.8-5.8-3.9c-2-0.1-2.7-0.9-2.5-2.8c0.1-1.2,0.7-1.8,2-2
			c0.5-0.1,1-0.1,1.5-0.2c2.2-0.3,3.3-1.2,3.8-3.3c0.4-1.6,0.4-3.1,0.1-4.7c-0.4-1.8-1.4-3-3.2-3.4c-1.7-0.4-3.5-0.4-5.1,0.3
			c-1.5,0.6-2.4,1.7-2.6,3.3c-0.4,2.8-1.8,3.7-4.6,3c-0.9-0.3-1.3-0.9-1.4-1.8c-0.2-4.2,2.1-7.9,6.1-9.3c3.9-1.4,7.8-1.3,11.7,0.2
			c2.8,1.1,4.4,3.3,4.9,6.3c0.4,2.2,0.4,4.5-0.3,6.7c-0.6,2.1-1.7,4-3.9,5.2C76.1,87.4,77.5,90.8,77.5,95z"/>
		<path d="M77.5,95c0,2.5-0.3,5-1.6,7.2c-1.9,3.2-4.8,4.6-8.4,5.1c-4.2,0.6-8.3,0.2-11.8-2.7c-2.1-1.8-3.2-4.1-3.4-6.8
			c-0.1-1.8,0.5-2.5,2.4-2.6c0.6,0,1.2,0,1.7,0.1c0.8,0.2,1.6,0.5,1.6,1.6c0.1,2.1,0.9,3.9,3.1,4.7c2.6,1,5.2,1,7.7-0.3
			c1-0.5,1.7-1.5,2-2.6c0.6-2.1,0.8-4.3,0.2-6.5c-0.6-2.5-2.7-3.8-5.8-3.9c-2-0.1-2.7-0.9-2.5-2.8c0.1-1.2,0.7-1.8,2-2
			c0.5-0.1,1-0.1,1.5-0.2c2.2-0.3,3.3-1.2,3.8-3.3c0.4-1.6,0.4-3.1,0.1-4.7c-0.4-1.8-1.4-3-3.2-3.4c-1.7-0.4-3.5-0.4-5.1,0.3
			c-1.5,0.6-2.4,1.7-2.6,3.3c-0.4,2.8-1.8,3.7-4.6,3c-0.9-0.3-1.3-0.9-1.4-1.8c-0.2-4.2,2.1-7.9,6.1-9.3c3.9-1.4,7.8-1.3,11.7,0.2
			c2.8,1.1,4.4,3.3,4.9,6.3c0.4,2.2,0.4,4.5-0.3,6.7c-0.6,2.1-1.7,4-3.9,5.2C76.1,87.4,77.5,90.8,77.5,95z"/>
	</g>
</g>
</svg>
