<?xml version="1.0" encoding="utf-8"?>
<!-- Generator: Adobe Illustrator 28.0.0, SVG Export Plug-In . SVG Version: 6.00 Build 0)  -->
<svg version="1.1" id="Layer_1" xmlns="http://www.w3.org/2000/svg" xmlns:xlink="http://www.w3.org/1999/xlink" x="0px" y="0px"
	 viewBox="0 0 128 128" style="enable-background:new 0 0 128 128;" xml:space="preserve">
<g id="JNxOUi.tif">
	<g>
		<path d="M124.1,49.3c0-1.9,0.3-1.8,1.6-1.9c1.1-0.1,2-0.6,2.3-1.8V35.4c-1.9-1.5-2.8-3.9-4.5-5.5c-0.1-0.1-0.1-0.1-0.2-0.2
			c-4-4-8.7-7-13.4-9.9c-7.6-4.7-15.6-8.7-23.7-12.2C78.7,4.3,71.2,1,63,0.1h-4.2c-0.1,0.4-0.5,0.2-0.8,0.3c-2.3,0.8-3.2,2.8-2.2,5
			c0.3,0.7,0.7,1.3,1.2,1.9c1.6,2,3.6,3.6,5.6,5.1c8.6,6.4,17.9,11.4,27.5,15.9c4.3,2,8.7,3.9,13,5.8h-1.3c-16,0-32,0-48,0
			c-2,0-2.7,0.7-2.7,2.7c0,2.6,0,5.2,0,7.7c0,1.6,0.7,2.3,2.2,2.5c2,0.2,2,0.2,2,2.3c0,0.2,0,0.3,0,0.5c-0.2,1.1,0.3,1.3,1.3,1.3
			c3-0.1,3,0,3-2.9c0-0.9,0.2-1.1,1.1-1.1c19.2,0,38.3,0,57.5,0c0.9,0,1.2,0.2,1.2,1.1c0,20.5,0,41.1,0,61.6c0,1-0.3,1.2-1.2,1.2
			c-6,0-12.1,0-18.1,0c-1,0-2.4-0.5-3,0.2c-0.6,0.7-0.1,2-0.2,3c-0.1,1,0.2,1.2,1.2,1.2c7.5,0,15.1,0,22.6,0c3,0,2.9,0,3,3
			c0,1-0.3,1.2-1.3,1.2c-8.2,0-16.5,0-24.7,0c-3.2,0-3.1,0-3.2,3.2c0,1,0.2,1.2,1.2,1.2c9.8,0,19.5,0,29.2,0c1.3,0,2.3-0.4,2.9-1.5
			v-10c-0.3-1.4-1.4-1.8-2.6-1.9c-0.9,0-1.3-0.4-1.2-1.3c0-0.5,0-0.9,0-1.4V60.5C124.1,56.8,124.1,53,124.1,49.3z M65.7,9.3
			c-2-1.4-3.8-2.9-5.5-4.9c2.5,0,4.7,0.5,6.8,1.1C77.6,8.4,87.6,13,97.3,18c7,3.6,13.8,7.5,20,12.4c1.4,1.1,2.7,2.2,4,3.8
			c-3.6-0.2-6.7-1-9.8-2.1C95.1,26.7,79.8,19.2,65.7,9.3z M123.8,39.9c-0.1,2.8,0,2.8-2.8,2.8H89.5c-10.9,0-21.9,0-32.8,0
			c-1,0-1.3-0.3-1.2-1.2c0.1-0.9-0.3-2.2,0.2-2.8c0.6-0.7,1.9-0.2,2.9-0.2c21.3,0,42.5,0,63.8,0C123.5,38.4,123.8,38.8,123.8,39.9z"
			/>
		<path d="M37.5,88.8c-0.1,0-0.4,0-0.6,0.1c-4.6,0.8-9.3,1.5-13.9,2.3c-3.4,0.6-5.9,3.5-6,6.8c-0.1,3.4,2.2,6.4,5.6,7.2
			c2.1,0.5,4.2,0.8,6.4,1.1c2.7,0.5,5.5,1.1,8.2,1.3c5.1,0.4,9.7-3.9,9.8-9C47.1,93.2,42.9,88.8,37.5,88.8z M27.7,98.2v1.1
			c0,2.5,0,2.5-2.5,2c-0.6-0.1-1.3-0.2-1.9-0.4c-1.3-0.4-2-1.5-1.9-2.9c0.1-1.2,0.9-2.3,2.1-2.6c0.5-0.1,1-0.2,1.5-0.3
			c0.9-0.1,2.1-0.7,2.6-0.2c0.5,0.5,0.1,1.7,0.2,2.6C27.7,97.7,27.7,98,27.7,98.2z M42.1,100.4c-0.9,1.9-2.5,2.8-4.6,2.8
			c-1.6-0.1-3.2-0.5-4.8-0.7c-0.5-0.1-0.7-0.3-0.6-0.8c0-1.2,0-2.3,0-3.5v-2.2c0-2,0-2,2.1-2.3c0.8-0.1,1.6-0.3,2.5-0.4
			c2.1-0.3,3.8,0.3,5.1,1.9C42.8,96.8,43,98.6,42.1,100.4z M37.5,88.8c-0.1,0-0.4,0-0.6,0.1c-4.6,0.8-9.3,1.5-13.9,2.3
			c-3.4,0.6-5.9,3.5-6,6.8c-0.1,3.4,2.2,6.4,5.6,7.2c2.1,0.5,4.2,0.8,6.4,1.1c2.7,0.5,5.5,1.1,8.2,1.3c5.1,0.4,9.7-3.9,9.8-9
			C47.1,93.2,42.9,88.8,37.5,88.8z M27.7,98.2v1.1c0,2.5,0,2.5-2.5,2c-0.6-0.1-1.3-0.2-1.9-0.4c-1.3-0.4-2-1.5-1.9-2.9
			c0.1-1.2,0.9-2.3,2.1-2.6c0.5-0.1,1-0.2,1.5-0.3c0.9-0.1,2.1-0.7,2.6-0.2c0.5,0.5,0.1,1.7,0.2,2.6C27.7,97.7,27.7,98,27.7,98.2z
			 M42.1,100.4c-0.9,1.9-2.5,2.8-4.6,2.8c-1.6-0.1-3.2-0.5-4.8-0.7c-0.5-0.1-0.7-0.3-0.6-0.8c0-1.2,0-2.3,0-3.5v-2.2
			c0-2,0-2,2.1-2.3c0.8-0.1,1.6-0.3,2.5-0.4c2.1-0.3,3.8,0.3,5.1,1.9C42.8,96.8,43,98.6,42.1,100.4z M85.2,86.4
			c-0.2-5-4.8-9.4-9.9-9.5c-9.5-0.1-18.9,0-28.4,0s-18.9-0.1-28.4,0c-5.4,0.1-10,4.8-10.1,10.1c-0.1,7.5-0.1,14.9,0,22.4
			c0,4.9,4.1,9.4,9,10c3.6,0.5,7.3,0.2,11,0.2c15.2,0,30.3,0,45.5,0c7,0,11.3-5.3,11.3-10.5C85.4,101.5,85.6,93.9,85.2,86.4z
			 M81.1,88.2c-0.2,6.7-0.2,13.4,0,20.1c0.1,3.6-2.6,7-6.9,6.9c-9.1-0.1-18.2,0-27.2,0c-9,0-17.9-0.1-26.9,0.1
			c-4.2,0.1-7.3-2.8-7.2-7.3c0.1-6.5,0-13.1,0-19.6c0-4.6,2.6-7.2,7.2-7.2c18,0,36,0,54,0C78.3,81.1,81.2,84.3,81.1,88.2z
			 M37.5,88.8c-0.1,0-0.4,0-0.6,0.1c-4.6,0.8-9.3,1.5-13.9,2.3c-3.4,0.6-5.9,3.5-6,6.8c-0.1,3.4,2.2,6.4,5.6,7.2
			c2.1,0.5,4.2,0.8,6.4,1.1c2.7,0.5,5.5,1.1,8.2,1.3c5.1,0.4,9.7-3.9,9.8-9C47.1,93.2,42.9,88.8,37.5,88.8z M27.7,98.2v1.1
			c0,2.5,0,2.5-2.5,2c-0.6-0.1-1.3-0.2-1.9-0.4c-1.3-0.4-2-1.5-1.9-2.9c0.1-1.2,0.9-2.3,2.1-2.6c0.5-0.1,1-0.2,1.5-0.3
			c0.9-0.1,2.1-0.7,2.6-0.2c0.5,0.5,0.1,1.7,0.2,2.6C27.7,97.7,27.7,98,27.7,98.2z M42.1,100.4c-0.9,1.9-2.5,2.8-4.6,2.8
			c-1.6-0.1-3.2-0.5-4.8-0.7c-0.5-0.1-0.7-0.3-0.6-0.8c0-1.2,0-2.3,0-3.5v-2.2c0-2,0-2,2.1-2.3c0.8-0.1,1.6-0.3,2.5-0.4
			c2.1-0.3,3.8,0.3,5.1,1.9C42.8,96.8,43,98.6,42.1,100.4z M37.5,88.8c-0.1,0-0.4,0-0.6,0.1c-4.6,0.8-9.3,1.5-13.9,2.3
			c-3.4,0.6-5.9,3.5-6,6.8c-0.1,3.4,2.2,6.4,5.6,7.2c2.1,0.5,4.2,0.8,6.4,1.1c2.7,0.5,5.5,1.1,8.2,1.3c5.1,0.4,9.7-3.9,9.8-9
			C47.1,93.2,42.9,88.8,37.5,88.8z M27.7,98.2v1.1c0,2.5,0,2.5-2.5,2c-0.6-0.1-1.3-0.2-1.9-0.4c-1.3-0.4-2-1.5-1.9-2.9
			c0.1-1.2,0.9-2.3,2.1-2.6c0.5-0.1,1-0.2,1.5-0.3c0.9-0.1,2.1-0.7,2.6-0.2c0.5,0.5,0.1,1.7,0.2,2.6C27.7,97.7,27.7,98,27.7,98.2z
			 M42.1,100.4c-0.9,1.9-2.5,2.8-4.6,2.8c-1.6-0.1-3.2-0.5-4.8-0.7c-0.5-0.1-0.7-0.3-0.6-0.8c0-1.2,0-2.3,0-3.5v-2.2
			c0-2,0-2,2.1-2.3c0.8-0.1,1.6-0.3,2.5-0.4c2.1-0.3,3.8,0.3,5.1,1.9C42.8,96.8,43,98.6,42.1,100.4z M37.5,88.8
			c-0.1,0-0.4,0-0.6,0.1c-4.6,0.8-9.3,1.5-13.9,2.3c-3.4,0.6-5.9,3.5-6,6.8c-0.1,3.4,2.2,6.4,5.6,7.2c2.1,0.5,4.2,0.8,6.4,1.1
			c2.7,0.5,5.5,1.1,8.2,1.3c5.1,0.4,9.7-3.9,9.8-9C47.1,93.2,42.9,88.8,37.5,88.8z M27.7,98.2v1.1c0,2.5,0,2.5-2.5,2
			c-0.6-0.1-1.3-0.2-1.9-0.4c-1.3-0.4-2-1.5-1.9-2.9c0.1-1.2,0.9-2.3,2.1-2.6c0.5-0.1,1-0.2,1.5-0.3c0.9-0.1,2.1-0.7,2.6-0.2
			c0.5,0.5,0.1,1.7,0.2,2.6C27.7,97.7,27.7,98,27.7,98.2z M42.1,100.4c-0.9,1.9-2.5,2.8-4.6,2.8c-1.6-0.1-3.2-0.5-4.8-0.7
			c-0.5-0.1-0.7-0.3-0.6-0.8c0-1.2,0-2.3,0-3.5v-2.2c0-2,0-2,2.1-2.3c0.8-0.1,1.6-0.3,2.5-0.4c2.1-0.3,3.8,0.3,5.1,1.9
			C42.8,96.8,43,98.6,42.1,100.4z M37.5,88.8c-0.1,0-0.4,0-0.6,0.1c-4.6,0.8-9.3,1.5-13.9,2.3c-3.4,0.6-5.9,3.5-6,6.8
			c-0.1,3.4,2.2,6.4,5.6,7.2c2.1,0.5,4.2,0.8,6.4,1.1c2.7,0.5,5.5,1.1,8.2,1.3c5.1,0.4,9.7-3.9,9.8-9C47.1,93.2,42.9,88.8,37.5,88.8
			z M27.7,98.2v1.1c0,2.5,0,2.5-2.5,2c-0.6-0.1-1.3-0.2-1.9-0.4c-1.3-0.4-2-1.5-1.9-2.9c0.1-1.2,0.9-2.3,2.1-2.6
			c0.5-0.1,1-0.2,1.5-0.3c0.9-0.1,2.1-0.7,2.6-0.2c0.5,0.5,0.1,1.7,0.2,2.6C27.7,97.7,27.7,98,27.7,98.2z M42.1,100.4
			c-0.9,1.9-2.5,2.8-4.6,2.8c-1.6-0.1-3.2-0.5-4.8-0.7c-0.5-0.1-0.7-0.3-0.6-0.8c0-1.2,0-2.3,0-3.5v-2.2c0-2,0-2,2.1-2.3
			c0.8-0.1,1.6-0.3,2.5-0.4c2.1-0.3,3.8,0.3,5.1,1.9C42.8,96.8,43,98.6,42.1,100.4z M37.5,88.8c-0.1,0-0.4,0-0.6,0.1
			c-4.6,0.8-9.3,1.5-13.9,2.3c-3.4,0.6-5.9,3.5-6,6.8c-0.1,3.4,2.2,6.4,5.6,7.2c2.1,0.5,4.2,0.8,6.4,1.1c2.7,0.5,5.5,1.1,8.2,1.3
			c5.1,0.4,9.7-3.9,9.8-9C47.1,93.2,42.9,88.8,37.5,88.8z M27.7,98.2v1.1c0,2.5,0,2.5-2.5,2c-0.6-0.1-1.3-0.2-1.9-0.4
			c-1.3-0.4-2-1.5-1.9-2.9c0.1-1.2,0.9-2.3,2.1-2.6c0.5-0.1,1-0.2,1.5-0.3c0.9-0.1,2.1-0.7,2.6-0.2c0.5,0.5,0.1,1.7,0.2,2.6
			C27.7,97.7,27.7,98,27.7,98.2z M42.1,100.4c-0.9,1.9-2.5,2.8-4.6,2.8c-1.6-0.1-3.2-0.5-4.8-0.7c-0.5-0.1-0.7-0.3-0.6-0.8
			c0-1.2,0-2.3,0-3.5v-2.2c0-2,0-2,2.1-2.3c0.8-0.1,1.6-0.3,2.5-0.4c2.1-0.3,3.8,0.3,5.1,1.9C42.8,96.8,43,98.6,42.1,100.4z
			 M85.2,86.4c-0.2-5-4.8-9.4-9.9-9.5c-9.5-0.1-18.9,0-28.4,0s-18.9-0.1-28.4,0c-5.4,0.1-10,4.8-10.1,10.1c-0.1,7.5-0.1,14.9,0,22.4
			c0,4.9,4.1,9.4,9,10c3.6,0.5,7.3,0.2,11,0.2c15.2,0,30.3,0,45.5,0c7,0,11.3-5.3,11.3-10.5C85.4,101.5,85.6,93.9,85.2,86.4z
			 M81.1,88.2c-0.2,6.7-0.2,13.4,0,20.1c0.1,3.6-2.6,7-6.9,6.9c-9.1-0.1-18.2,0-27.2,0c-9,0-17.9-0.1-26.9,0.1
			c-4.2,0.1-7.3-2.8-7.2-7.3c0.1-6.5,0-13.1,0-19.6c0-4.6,2.6-7.2,7.2-7.2c18,0,36,0,54,0C78.3,81.1,81.2,84.3,81.1,88.2z
			 M37.5,88.8c-0.1,0-0.4,0-0.6,0.1c-4.6,0.8-9.3,1.5-13.9,2.3c-3.4,0.6-5.9,3.5-6,6.8c-0.1,3.4,2.2,6.4,5.6,7.2
			c2.1,0.5,4.2,0.8,6.4,1.1c2.7,0.5,5.5,1.1,8.2,1.3c5.1,0.4,9.7-3.9,9.8-9C47.1,93.2,42.9,88.8,37.5,88.8z M27.7,98.2v1.1
			c0,2.5,0,2.5-2.5,2c-0.6-0.1-1.3-0.2-1.9-0.4c-1.3-0.4-2-1.5-1.9-2.9c0.1-1.2,0.9-2.3,2.1-2.6c0.5-0.1,1-0.2,1.5-0.3
			c0.9-0.1,2.1-0.7,2.6-0.2c0.5,0.5,0.1,1.7,0.2,2.6C27.7,97.7,27.7,98,27.7,98.2z M42.1,100.4c-0.9,1.9-2.5,2.8-4.6,2.8
			c-1.6-0.1-3.2-0.5-4.8-0.7c-0.5-0.1-0.7-0.3-0.6-0.8c0-1.2,0-2.3,0-3.5v-2.2c0-2,0-2,2.1-2.3c0.8-0.1,1.6-0.3,2.5-0.4
			c2.1-0.3,3.8,0.3,5.1,1.9C42.8,96.8,43,98.6,42.1,100.4z M37.5,88.8c-0.1,0-0.4,0-0.6,0.1c-4.6,0.8-9.3,1.5-13.9,2.3
			c-3.4,0.6-5.9,3.5-6,6.8c-0.1,3.4,2.2,6.4,5.6,7.2c2.1,0.5,4.2,0.8,6.4,1.1c2.7,0.5,5.5,1.1,8.2,1.3c5.1,0.4,9.7-3.9,9.8-9
			C47.1,93.2,42.9,88.8,37.5,88.8z M27.7,98.2v1.1c0,2.5,0,2.5-2.5,2c-0.6-0.1-1.3-0.2-1.9-0.4c-1.3-0.4-2-1.5-1.9-2.9
			c0.1-1.2,0.9-2.3,2.1-2.6c0.5-0.1,1-0.2,1.5-0.3c0.9-0.1,2.1-0.7,2.6-0.2c0.5,0.5,0.1,1.7,0.2,2.6C27.7,97.7,27.7,98,27.7,98.2z
			 M42.1,100.4c-0.9,1.9-2.5,2.8-4.6,2.8c-1.6-0.1-3.2-0.5-4.8-0.7c-0.5-0.1-0.7-0.3-0.6-0.8c0-1.2,0-2.3,0-3.5v-2.2
			c0-2,0-2,2.1-2.3c0.8-0.1,1.6-0.3,2.5-0.4c2.1-0.3,3.8,0.3,5.1,1.9C42.8,96.8,43,98.6,42.1,100.4z M37.5,88.8
			c-0.1,0-0.4,0-0.6,0.1c-4.6,0.8-9.3,1.5-13.9,2.3c-3.4,0.6-5.9,3.5-6,6.8c-0.1,3.4,2.2,6.4,5.6,7.2c2.1,0.5,4.2,0.8,6.4,1.1
			c2.7,0.5,5.5,1.1,8.2,1.3c5.1,0.4,9.7-3.9,9.8-9C47.1,93.2,42.9,88.8,37.5,88.8z M27.7,98.2v1.1c0,2.5,0,2.5-2.5,2
			c-0.6-0.1-1.3-0.2-1.9-0.4c-1.3-0.4-2-1.5-1.9-2.9c0.1-1.2,0.9-2.3,2.1-2.6c0.5-0.1,1-0.2,1.5-0.3c0.9-0.1,2.1-0.7,2.6-0.2
			c0.5,0.5,0.1,1.7,0.2,2.6C27.7,97.7,27.7,98,27.7,98.2z M42.1,100.4c-0.9,1.9-2.5,2.8-4.6,2.8c-1.6-0.1-3.2-0.5-4.8-0.7
			c-0.5-0.1-0.7-0.3-0.6-0.8c0-1.2,0-2.3,0-3.5v-2.2c0-2,0-2,2.1-2.3c0.8-0.1,1.6-0.3,2.5-0.4c2.1-0.3,3.8,0.3,5.1,1.9
			C42.8,96.8,43,98.6,42.1,100.4z M37.5,88.8c-0.1,0-0.4,0-0.6,0.1c-4.6,0.8-9.3,1.5-13.9,2.3c-3.4,0.6-5.9,3.5-6,6.8
			c-0.1,3.4,2.2,6.4,5.6,7.2c2.1,0.5,4.2,0.8,6.4,1.1c2.7,0.5,5.5,1.1,8.2,1.3c5.1,0.4,9.7-3.9,9.8-9C47.1,93.2,42.9,88.8,37.5,88.8
			z M27.7,98.2v1.1c0,2.5,0,2.5-2.5,2c-0.6-0.1-1.3-0.2-1.9-0.4c-1.3-0.4-2-1.5-1.9-2.9c0.1-1.2,0.9-2.3,2.1-2.6
			c0.5-0.1,1-0.2,1.5-0.3c0.9-0.1,2.1-0.7,2.6-0.2c0.5,0.5,0.1,1.7,0.2,2.6C27.7,97.7,27.7,98,27.7,98.2z M42.1,100.4
			c-0.9,1.9-2.5,2.8-4.6,2.8c-1.6-0.1-3.2-0.5-4.8-0.7c-0.5-0.1-0.7-0.3-0.6-0.8c0-1.2,0-2.3,0-3.5v-2.2c0-2,0-2,2.1-2.3
			c0.8-0.1,1.6-0.3,2.5-0.4c2.1-0.3,3.8,0.3,5.1,1.9C42.8,96.8,43,98.6,42.1,100.4z M37.5,88.8c-0.1,0-0.4,0-0.6,0.1
			c-4.6,0.8-9.3,1.5-13.9,2.3c-3.4,0.6-5.9,3.5-6,6.8c-0.1,3.4,2.2,6.4,5.6,7.2c2.1,0.5,4.2,0.8,6.4,1.1c2.7,0.5,5.5,1.1,8.2,1.3
			c5.1,0.4,9.7-3.9,9.8-9C47.1,93.2,42.9,88.8,37.5,88.8z M27.7,98.2v1.1c0,2.5,0,2.5-2.5,2c-0.6-0.1-1.3-0.2-1.9-0.4
			c-1.3-0.4-2-1.5-1.9-2.9c0.1-1.2,0.9-2.3,2.1-2.6c0.5-0.1,1-0.2,1.5-0.3c0.9-0.1,2.1-0.7,2.6-0.2c0.5,0.5,0.1,1.7,0.2,2.6
			C27.7,97.7,27.7,98,27.7,98.2z M42.1,100.4c-0.9,1.9-2.5,2.8-4.6,2.8c-1.6-0.1-3.2-0.5-4.8-0.7c-0.5-0.1-0.7-0.3-0.6-0.8
			c0-1.2,0-2.3,0-3.5v-2.2c0-2,0-2,2.1-2.3c0.8-0.1,1.6-0.3,2.5-0.4c2.1-0.3,3.8,0.3,5.1,1.9C42.8,96.8,43,98.6,42.1,100.4z
			 M85.2,86.4c-0.2-5-4.8-9.4-9.9-9.5c-9.5-0.1-18.9,0-28.4,0s-18.9-0.1-28.4,0c-5.4,0.1-10,4.8-10.1,10.1c-0.1,7.5-0.1,14.9,0,22.4
			c0,4.9,4.1,9.4,9,10c3.6,0.5,7.3,0.2,11,0.2c15.2,0,30.3,0,45.5,0c7,0,11.3-5.3,11.3-10.5C85.4,101.5,85.6,93.9,85.2,86.4z
			 M81.1,88.2c-0.2,6.7-0.2,13.4,0,20.1c0.1,3.6-2.6,7-6.9,6.9c-9.1-0.1-18.2,0-27.2,0c-9,0-17.9-0.1-26.9,0.1
			c-4.2,0.1-7.3-2.8-7.2-7.3c0.1-6.5,0-13.1,0-19.6c0-4.6,2.6-7.2,7.2-7.2c18,0,36,0,54,0C78.3,81.1,81.2,84.3,81.1,88.2z
			 M37.5,88.8c-0.1,0-0.4,0-0.6,0.1c-4.6,0.8-9.3,1.5-13.9,2.3c-3.4,0.6-5.9,3.5-6,6.8c-0.1,3.4,2.2,6.4,5.6,7.2
			c2.1,0.5,4.2,0.8,6.4,1.1c2.7,0.5,5.5,1.1,8.2,1.3c5.1,0.4,9.7-3.9,9.8-9C47.1,93.2,42.9,88.8,37.5,88.8z M27.7,98.2v1.1
			c0,2.5,0,2.5-2.5,2c-0.6-0.1-1.3-0.2-1.9-0.4c-1.3-0.4-2-1.5-1.9-2.9c0.1-1.2,0.9-2.3,2.1-2.6c0.5-0.1,1-0.2,1.5-0.3
			c0.9-0.1,2.1-0.7,2.6-0.2c0.5,0.5,0.1,1.7,0.2,2.6C27.7,97.7,27.7,98,27.7,98.2z M42.1,100.4c-0.9,1.9-2.5,2.8-4.6,2.8
			c-1.6-0.1-3.2-0.5-4.8-0.7c-0.5-0.1-0.7-0.3-0.6-0.8c0-1.2,0-2.3,0-3.5v-2.2c0-2,0-2,2.1-2.3c0.8-0.1,1.6-0.3,2.5-0.4
			c2.1-0.3,3.8,0.3,5.1,1.9C42.8,96.8,43,98.6,42.1,100.4z M85.2,86.4c-0.2-5-4.8-9.4-9.9-9.5c-9.5-0.1-18.9,0-28.4,0
			s-18.9-0.1-28.4,0c-5.4,0.1-10,4.8-10.1,10.1c-0.1,7.5-0.1,14.9,0,22.4c0,4.9,4.1,9.4,9,10c3.6,0.5,7.3,0.2,11,0.2
			c15.2,0,30.3,0,45.5,0c7,0,11.3-5.3,11.3-10.5C85.4,101.5,85.6,93.9,85.2,86.4z M81.1,88.2c-0.2,6.7-0.2,13.4,0,20.1
			c0.1,3.6-2.6,7-6.9,6.9c-9.1-0.1-18.2,0-27.2,0c-9,0-17.9-0.1-26.9,0.1c-4.2,0.1-7.3-2.8-7.2-7.3c0.1-6.5,0-13.1,0-19.6
			c0-4.6,2.6-7.2,7.2-7.2c18,0,36,0,54,0C78.3,81.1,81.2,84.3,81.1,88.2z M37.5,88.8c-0.1,0-0.4,0-0.6,0.1
			c-4.6,0.8-9.3,1.5-13.9,2.3c-3.4,0.6-5.9,3.5-6,6.8c-0.1,3.4,2.2,6.4,5.6,7.2c2.1,0.5,4.2,0.8,6.4,1.1c2.7,0.5,5.5,1.1,8.2,1.3
			c5.1,0.4,9.7-3.9,9.8-9C47.1,93.2,42.9,88.8,37.5,88.8z M27.7,98.2v1.1c0,2.5,0,2.5-2.5,2c-0.6-0.1-1.3-0.2-1.9-0.4
			c-1.3-0.4-2-1.5-1.9-2.9c0.1-1.2,0.9-2.3,2.1-2.6c0.5-0.1,1-0.2,1.5-0.3c0.9-0.1,2.1-0.7,2.6-0.2c0.5,0.5,0.1,1.7,0.2,2.6
			C27.7,97.7,27.7,98,27.7,98.2z M42.1,100.4c-0.9,1.9-2.5,2.8-4.6,2.8c-1.6-0.1-3.2-0.5-4.8-0.7c-0.5-0.1-0.7-0.3-0.6-0.8
			c0-1.2,0-2.3,0-3.5v-2.2c0-2,0-2,2.1-2.3c0.8-0.1,1.6-0.3,2.5-0.4c2.1-0.3,3.8,0.3,5.1,1.9C42.8,96.8,43,98.6,42.1,100.4z
			 M93.9,75.2c0-1.7-0.2-3.4-0.6-5.1c-2.3-8.9-9.8-14.7-19.2-14.7c-17.8,0-35.6,0-53.4,0c-1.2,0-2.3,0-3.5,0.2
			C7.7,56.5,0,64.7,0,74.4C0,85.9,0,97.5,0,109c0,4,1.2,7.7,3.6,10.9c3.8,5.1,8.8,8,15.3,7.9c9.3-0.1,18.7,0,28,0
			c9.9,0,19.7,0,29.6,0c0.6,0,1.2,0,1.7-0.1c9.5-2,15.7-9.6,15.7-19.4C94,97.3,93.9,86.3,93.9,75.2z M13.7,60.9c1.8-0.7,3.6-1,5.6-1
			c18.5,0,36.9,0,55.4,0c8.3,0,15,6.7,14.9,14.7c0,0.1,0,0.3,0,0.7c-1.3-1.4-2.5-2.6-3.9-3.5c-3.4-2.3-7.2-3.4-11.4-3.4
			c-18.2,0-36.4,0-54.6,0c-6.1,0-11.1,2.3-15.3,7C3.9,69.4,8,63,13.7,60.9z M77.2,123.5c-1.1,0.2-2.2,0.2-3.2,0.2
			c-9,0-18.1,0-27.1,0v-0.1c-9.6,0-19.3,0.1-28.9,0c-6.7-0.1-12.8-6.1-13.5-12.7c-0.1-1.2-0.2-2.5-0.2-3.7c0-6.4,0-12.8,0-19.2
			c0-8.8,6.6-15.4,15.4-15.4c18.2,0,36.4,0,54.6,0c7.9,0,13.9,5.1,15.2,12.9c0.1,0.8,0.1,1.6,0.1,2.4c0,6.8-0.1,13.7,0,20.5
			C89.7,115.5,84.7,122.2,77.2,123.5z M75.4,76.9c-9.5-0.1-18.9,0-28.4,0s-18.9-0.1-28.4,0c-5.4,0.1-10,4.8-10.1,10.1
			c-0.1,7.5-0.1,14.9,0,22.4c0,4.9,4.1,9.4,9,10c3.6,0.5,7.3,0.2,11,0.2c15.2,0,30.3,0,45.5,0c7,0,11.3-5.3,11.3-10.5
			c0-7.6,0.2-15.2-0.1-22.7C85,81.3,80.4,76.9,75.4,76.9z M81.1,88.2c-0.2,6.7-0.2,13.4,0,20.1c0.1,3.6-2.6,7-6.9,6.9
			c-9.1-0.1-18.2,0-27.2,0c-9,0-17.9-0.1-26.9,0.1c-4.2,0.1-7.3-2.8-7.2-7.3c0.1-6.5,0-13.1,0-19.6c0-4.6,2.6-7.2,7.2-7.2
			c18,0,36,0,54,0C78.3,81.1,81.2,84.3,81.1,88.2z M37.5,88.8c-0.1,0-0.4,0-0.6,0.1c-4.6,0.8-9.3,1.5-13.9,2.3
			c-3.4,0.6-5.9,3.5-6,6.8c-0.1,3.4,2.2,6.4,5.6,7.2c2.1,0.5,4.2,0.8,6.4,1.1c2.7,0.5,5.5,1.1,8.2,1.3c5.1,0.4,9.7-3.9,9.8-9
			C47.1,93.2,42.9,88.8,37.5,88.8z M27.7,98.2v1.1c0,2.5,0,2.5-2.5,2c-0.6-0.1-1.3-0.2-1.9-0.4c-1.3-0.4-2-1.5-1.9-2.9
			c0.1-1.2,0.9-2.3,2.1-2.6c0.5-0.1,1-0.2,1.5-0.3c0.9-0.1,2.1-0.7,2.6-0.2c0.5,0.5,0.1,1.7,0.2,2.6C27.7,97.7,27.7,98,27.7,98.2z
			 M42.1,100.4c-0.9,1.9-2.5,2.8-4.6,2.8c-1.6-0.1-3.2-0.5-4.8-0.7c-0.5-0.1-0.7-0.3-0.6-0.8c0-1.2,0-2.3,0-3.5v-2.2
			c0-2,0-2,2.1-2.3c0.8-0.1,1.6-0.3,2.5-0.4c2.1-0.3,3.8,0.3,5.1,1.9C42.8,96.8,43,98.6,42.1,100.4z M37.5,88.8
			c-0.1,0-0.4,0-0.6,0.1c-4.6,0.8-9.3,1.5-13.9,2.3c-3.4,0.6-5.9,3.5-6,6.8c-0.1,3.4,2.2,6.4,5.6,7.2c2.1,0.5,4.2,0.8,6.4,1.1
			c2.7,0.5,5.5,1.1,8.2,1.3c5.1,0.4,9.7-3.9,9.8-9C47.1,93.2,42.9,88.8,37.5,88.8z M27.7,98.2v1.1c0,2.5,0,2.5-2.5,2
			c-0.6-0.1-1.3-0.2-1.9-0.4c-1.3-0.4-2-1.5-1.9-2.9c0.1-1.2,0.9-2.3,2.1-2.6c0.5-0.1,1-0.2,1.5-0.3c0.9-0.1,2.1-0.7,2.6-0.2
			c0.5,0.5,0.1,1.7,0.2,2.6C27.7,97.7,27.7,98,27.7,98.2z M42.1,100.4c-0.9,1.9-2.5,2.8-4.6,2.8c-1.6-0.1-3.2-0.5-4.8-0.7
			c-0.5-0.1-0.7-0.3-0.6-0.8c0-1.2,0-2.3,0-3.5v-2.2c0-2,0-2,2.1-2.3c0.8-0.1,1.6-0.3,2.5-0.4c2.1-0.3,3.8,0.3,5.1,1.9
			C42.8,96.8,43,98.6,42.1,100.4z M37.5,88.8c-0.1,0-0.4,0-0.6,0.1c-4.6,0.8-9.3,1.5-13.9,2.3c-3.4,0.6-5.9,3.5-6,6.8
			c-0.1,3.4,2.2,6.4,5.6,7.2c2.1,0.5,4.2,0.8,6.4,1.1c2.7,0.5,5.5,1.1,8.2,1.3c5.1,0.4,9.7-3.9,9.8-9C47.1,93.2,42.9,88.8,37.5,88.8
			z M27.7,98.2v1.1c0,2.5,0,2.5-2.5,2c-0.6-0.1-1.3-0.2-1.9-0.4c-1.3-0.4-2-1.5-1.9-2.9c0.1-1.2,0.9-2.3,2.1-2.6
			c0.5-0.1,1-0.2,1.5-0.3c0.9-0.1,2.1-0.7,2.6-0.2c0.5,0.5,0.1,1.7,0.2,2.6C27.7,97.7,27.7,98,27.7,98.2z M42.1,100.4
			c-0.9,1.9-2.5,2.8-4.6,2.8c-1.6-0.1-3.2-0.5-4.8-0.7c-0.5-0.1-0.7-0.3-0.6-0.8c0-1.2,0-2.3,0-3.5v-2.2c0-2,0-2,2.1-2.3
			c0.8-0.1,1.6-0.3,2.5-0.4c2.1-0.3,3.8,0.3,5.1,1.9C42.8,96.8,43,98.6,42.1,100.4z M85.2,86.4c-0.2-5-4.8-9.4-9.9-9.5
			c-9.5-0.1-18.9,0-28.4,0s-18.9-0.1-28.4,0c-5.4,0.1-10,4.8-10.1,10.1c-0.1,7.5-0.1,14.9,0,22.4c0,4.9,4.1,9.4,9,10
			c3.6,0.5,7.3,0.2,11,0.2c15.2,0,30.3,0,45.5,0c7,0,11.3-5.3,11.3-10.5C85.4,101.5,85.6,93.9,85.2,86.4z M81.1,88.2
			c-0.2,6.7-0.2,13.4,0,20.1c0.1,3.6-2.6,7-6.9,6.9c-9.1-0.1-18.2,0-27.2,0c-9,0-17.9-0.1-26.9,0.1c-4.2,0.1-7.3-2.8-7.2-7.3
			c0.1-6.5,0-13.1,0-19.6c0-4.6,2.6-7.2,7.2-7.2c18,0,36,0,54,0C78.3,81.1,81.2,84.3,81.1,88.2z M37.5,88.8c-0.1,0-0.4,0-0.6,0.1
			c-4.6,0.8-9.3,1.5-13.9,2.3c-3.4,0.6-5.9,3.5-6,6.8c-0.1,3.4,2.2,6.4,5.6,7.2c2.1,0.5,4.2,0.8,6.4,1.1c2.7,0.5,5.5,1.1,8.2,1.3
			c5.1,0.4,9.7-3.9,9.8-9C47.1,93.2,42.9,88.8,37.5,88.8z M27.7,98.2v1.1c0,2.5,0,2.5-2.5,2c-0.6-0.1-1.3-0.2-1.9-0.4
			c-1.3-0.4-2-1.5-1.9-2.9c0.1-1.2,0.9-2.3,2.1-2.6c0.5-0.1,1-0.2,1.5-0.3c0.9-0.1,2.1-0.7,2.6-0.2c0.5,0.5,0.1,1.7,0.2,2.6
			C27.7,97.7,27.7,98,27.7,98.2z M42.1,100.4c-0.9,1.9-2.5,2.8-4.6,2.8c-1.6-0.1-3.2-0.5-4.8-0.7c-0.5-0.1-0.7-0.3-0.6-0.8
			c0-1.2,0-2.3,0-3.5v-2.2c0-2,0-2,2.1-2.3c0.8-0.1,1.6-0.3,2.5-0.4c2.1-0.3,3.8,0.3,5.1,1.9C42.8,96.8,43,98.6,42.1,100.4z
			 M37.5,88.8c-0.1,0-0.4,0-0.6,0.1c-4.6,0.8-9.3,1.5-13.9,2.3c-3.4,0.6-5.9,3.5-6,6.8c-0.1,3.4,2.2,6.4,5.6,7.2
			c2.1,0.5,4.2,0.8,6.4,1.1c2.7,0.5,5.5,1.1,8.2,1.3c5.1,0.4,9.7-3.9,9.8-9C47.1,93.2,42.9,88.8,37.5,88.8z M27.7,98.2v1.1
			c0,2.5,0,2.5-2.5,2c-0.6-0.1-1.3-0.2-1.9-0.4c-1.3-0.4-2-1.5-1.9-2.9c0.1-1.2,0.9-2.3,2.1-2.6c0.5-0.1,1-0.2,1.5-0.3
			c0.9-0.1,2.1-0.7,2.6-0.2c0.5,0.5,0.1,1.7,0.2,2.6C27.7,97.7,27.7,98,27.7,98.2z M42.1,100.4c-0.9,1.9-2.5,2.8-4.6,2.8
			c-1.6-0.1-3.2-0.5-4.8-0.7c-0.5-0.1-0.7-0.3-0.6-0.8c0-1.2,0-2.3,0-3.5v-2.2c0-2,0-2,2.1-2.3c0.8-0.1,1.6-0.3,2.5-0.4
			c2.1-0.3,3.8,0.3,5.1,1.9C42.8,96.8,43,98.6,42.1,100.4z M37.5,88.8c-0.1,0-0.4,0-0.6,0.1c-4.6,0.8-9.3,1.5-13.9,2.3
			c-3.4,0.6-5.9,3.5-6,6.8c-0.1,3.4,2.2,6.4,5.6,7.2c2.1,0.5,4.2,0.8,6.4,1.1c2.7,0.5,5.5,1.1,8.2,1.3c5.1,0.4,9.7-3.9,9.8-9
			C47.1,93.2,42.9,88.8,37.5,88.8z M27.7,98.2v1.1c0,2.5,0,2.5-2.5,2c-0.6-0.1-1.3-0.2-1.9-0.4c-1.3-0.4-2-1.5-1.9-2.9
			c0.1-1.2,0.9-2.3,2.1-2.6c0.5-0.1,1-0.2,1.5-0.3c0.9-0.1,2.1-0.7,2.6-0.2c0.5,0.5,0.1,1.7,0.2,2.6C27.7,97.7,27.7,98,27.7,98.2z
			 M42.1,100.4c-0.9,1.9-2.5,2.8-4.6,2.8c-1.6-0.1-3.2-0.5-4.8-0.7c-0.5-0.1-0.7-0.3-0.6-0.8c0-1.2,0-2.3,0-3.5v-2.2
			c0-2,0-2,2.1-2.3c0.8-0.1,1.6-0.3,2.5-0.4c2.1-0.3,3.8,0.3,5.1,1.9C42.8,96.8,43,98.6,42.1,100.4z M85.2,86.4
			c-0.2-5-4.8-9.4-9.9-9.5c-9.5-0.1-18.9,0-28.4,0s-18.9-0.1-28.4,0c-5.4,0.1-10,4.8-10.1,10.1c-0.1,7.5-0.1,14.9,0,22.4
			c0,4.9,4.1,9.4,9,10c3.6,0.5,7.3,0.2,11,0.2c15.2,0,30.3,0,45.5,0c7,0,11.3-5.3,11.3-10.5C85.4,101.5,85.6,93.9,85.2,86.4z
			 M81.1,88.2c-0.2,6.7-0.2,13.4,0,20.1c0.1,3.6-2.6,7-6.9,6.9c-9.1-0.1-18.2,0-27.2,0c-9,0-17.9-0.1-26.9,0.1
			c-4.2,0.1-7.3-2.8-7.2-7.3c0.1-6.5,0-13.1,0-19.6c0-4.6,2.6-7.2,7.2-7.2c18,0,36,0,54,0C78.3,81.1,81.2,84.3,81.1,88.2z
			 M37.5,88.8c-0.1,0-0.4,0-0.6,0.1c-4.6,0.8-9.3,1.5-13.9,2.3c-3.4,0.6-5.9,3.5-6,6.8c-0.1,3.4,2.2,6.4,5.6,7.2
			c2.1,0.5,4.2,0.8,6.4,1.1c2.7,0.5,5.5,1.1,8.2,1.3c5.1,0.4,9.7-3.9,9.8-9C47.1,93.2,42.9,88.8,37.5,88.8z M27.7,98.2v1.1
			c0,2.5,0,2.5-2.5,2c-0.6-0.1-1.3-0.2-1.9-0.4c-1.3-0.4-2-1.5-1.9-2.9c0.1-1.2,0.9-2.3,2.1-2.6c0.5-0.1,1-0.2,1.5-0.3
			c0.9-0.1,2.1-0.7,2.6-0.2c0.5,0.5,0.1,1.7,0.2,2.6C27.7,97.7,27.7,98,27.7,98.2z M42.1,100.4c-0.9,1.9-2.5,2.8-4.6,2.8
			c-1.6-0.1-3.2-0.5-4.8-0.7c-0.5-0.1-0.7-0.3-0.6-0.8c0-1.2,0-2.3,0-3.5v-2.2c0-2,0-2,2.1-2.3c0.8-0.1,1.6-0.3,2.5-0.4
			c2.1-0.3,3.8,0.3,5.1,1.9C42.8,96.8,43,98.6,42.1,100.4z M37.5,88.8c-0.1,0-0.4,0-0.6,0.1c-4.6,0.8-9.3,1.5-13.9,2.3
			c-3.4,0.6-5.9,3.5-6,6.8c-0.1,3.4,2.2,6.4,5.6,7.2c2.1,0.5,4.2,0.8,6.4,1.1c2.7,0.5,5.5,1.1,8.2,1.3c5.1,0.4,9.7-3.9,9.8-9
			C47.1,93.2,42.9,88.8,37.5,88.8z M27.7,98.2v1.1c0,2.5,0,2.5-2.5,2c-0.6-0.1-1.3-0.2-1.9-0.4c-1.3-0.4-2-1.5-1.9-2.9
			c0.1-1.2,0.9-2.3,2.1-2.6c0.5-0.1,1-0.2,1.5-0.3c0.9-0.1,2.1-0.7,2.6-0.2c0.5,0.5,0.1,1.7,0.2,2.6C27.7,97.7,27.7,98,27.7,98.2z
			 M42.1,100.4c-0.9,1.9-2.5,2.8-4.6,2.8c-1.6-0.1-3.2-0.5-4.8-0.7c-0.5-0.1-0.7-0.3-0.6-0.8c0-1.2,0-2.3,0-3.5v-2.2
			c0-2,0-2,2.1-2.3c0.8-0.1,1.6-0.3,2.5-0.4c2.1-0.3,3.8,0.3,5.1,1.9C42.8,96.8,43,98.6,42.1,100.4z M37.5,88.8
			c-0.1,0-0.4,0-0.6,0.1c-4.6,0.8-9.3,1.5-13.9,2.3c-3.4,0.6-5.9,3.5-6,6.8c-0.1,3.4,2.2,6.4,5.6,7.2c2.1,0.5,4.2,0.8,6.4,1.1
			c2.7,0.5,5.5,1.1,8.2,1.3c5.1,0.4,9.7-3.9,9.8-9C47.1,93.2,42.9,88.8,37.5,88.8z M27.7,98.2v1.1c0,2.5,0,2.5-2.5,2
			c-0.6-0.1-1.3-0.2-1.9-0.4c-1.3-0.4-2-1.5-1.9-2.9c0.1-1.2,0.9-2.3,2.1-2.6c0.5-0.1,1-0.2,1.5-0.3c0.9-0.1,2.1-0.7,2.6-0.2
			c0.5,0.5,0.1,1.7,0.2,2.6C27.7,97.7,27.7,98,27.7,98.2z M42.1,100.4c-0.9,1.9-2.5,2.8-4.6,2.8c-1.6-0.1-3.2-0.5-4.8-0.7
			c-0.5-0.1-0.7-0.3-0.6-0.8c0-1.2,0-2.3,0-3.5v-2.2c0-2,0-2,2.1-2.3c0.8-0.1,1.6-0.3,2.5-0.4c2.1-0.3,3.8,0.3,5.1,1.9
			C42.8,96.8,43,98.6,42.1,100.4z"/>
		<path d="M37.5,88.8c-0.1,0-0.4,0-0.6,0.1c-4.6,0.8-9.3,1.5-13.9,2.3c-3.4,0.6-5.9,3.5-6,6.8c-0.1,3.4,2.2,6.4,5.6,7.2
			c2.1,0.5,4.2,0.8,6.4,1.1c2.7,0.5,5.5,1.1,8.2,1.3c5.1,0.4,9.7-3.9,9.8-9C47.1,93.2,42.9,88.8,37.5,88.8z M27.7,98.2v1.1
			c0,2.5,0,2.5-2.5,2c-0.6-0.1-1.3-0.2-1.9-0.4c-1.3-0.4-2-1.5-1.9-2.9c0.1-1.2,0.9-2.3,2.1-2.6c0.5-0.1,1-0.2,1.5-0.3
			c0.9-0.1,2.1-0.7,2.6-0.2c0.5,0.5,0.1,1.7,0.2,2.6C27.7,97.7,27.7,98,27.7,98.2z M42.1,100.4c-0.9,1.9-2.5,2.8-4.6,2.8
			c-1.6-0.1-3.2-0.5-4.8-0.7c-0.5-0.1-0.7-0.3-0.6-0.8c0-1.2,0-2.3,0-3.5v-2.2c0-2,0-2,2.1-2.3c0.8-0.1,1.6-0.3,2.5-0.4
			c2.1-0.3,3.8,0.3,5.1,1.9C42.8,96.8,43,98.6,42.1,100.4z"/>
		<path d="M85.2,86.4c-0.2-5-4.8-9.4-9.9-9.5c-9.5-0.1-18.9,0-28.4,0s-18.9-0.1-28.4,0c-5.4,0.1-10,4.8-10.1,10.1
			c-0.1,7.5-0.1,14.9,0,22.4c0,4.9,4.1,9.4,9,10c3.6,0.5,7.3,0.2,11,0.2c15.2,0,30.3,0,45.5,0c7,0,11.3-5.3,11.3-10.5
			C85.4,101.5,85.6,93.9,85.2,86.4z M81.1,88.2c-0.2,6.7-0.2,13.4,0,20.1c0.1,3.6-2.6,7-6.9,6.9c-9.1-0.1-18.2,0-27.2,0
			c-9,0-17.9-0.1-26.9,0.1c-4.2,0.1-7.3-2.8-7.2-7.3c0.1-6.5,0-13.1,0-19.6c0-4.6,2.6-7.2,7.2-7.2c18,0,36,0,54,0
			C78.3,81.1,81.2,84.3,81.1,88.2z"/>
		<path d="M37.5,88.8c-0.1,0-0.4,0-0.6,0.1c-4.6,0.8-9.3,1.5-13.9,2.3c-3.4,0.6-5.9,3.5-6,6.8c-0.1,3.4,2.2,6.4,5.6,7.2
			c2.1,0.5,4.2,0.8,6.4,1.1c2.7,0.5,5.5,1.1,8.2,1.3c5.1,0.4,9.7-3.9,9.8-9C47.1,93.2,42.9,88.8,37.5,88.8z M27.7,98.2v1.1
			c0,2.5,0,2.5-2.5,2c-0.6-0.1-1.3-0.2-1.9-0.4c-1.3-0.4-2-1.5-1.9-2.9c0.1-1.2,0.9-2.3,2.1-2.6c0.5-0.1,1-0.2,1.5-0.3
			c0.9-0.1,2.1-0.7,2.6-0.2c0.5,0.5,0.1,1.7,0.2,2.6C27.7,97.7,27.7,98,27.7,98.2z M42.1,100.4c-0.9,1.9-2.5,2.8-4.6,2.8
			c-1.6-0.1-3.2-0.5-4.8-0.7c-0.5-0.1-0.7-0.3-0.6-0.8c0-1.2,0-2.3,0-3.5v-2.2c0-2,0-2,2.1-2.3c0.8-0.1,1.6-0.3,2.5-0.4
			c2.1-0.3,3.8,0.3,5.1,1.9C42.8,96.8,43,98.6,42.1,100.4z"/>
		<path d="M85.2,86.4c-0.2-5-4.8-9.4-9.9-9.5c-9.5-0.1-18.9,0-28.4,0s-18.9-0.1-28.4,0c-5.4,0.1-10,4.8-10.1,10.1
			c-0.1,7.5-0.1,14.9,0,22.4c0,4.9,4.1,9.4,9,10c3.6,0.5,7.3,0.2,11,0.2c15.2,0,30.3,0,45.5,0c7,0,11.3-5.3,11.3-10.5
			C85.4,101.5,85.6,93.9,85.2,86.4z M81.1,88.2c-0.2,6.7-0.2,13.4,0,20.1c0.1,3.6-2.6,7-6.9,6.9c-9.1-0.1-18.2,0-27.2,0
			c-9,0-17.9-0.1-26.9,0.1c-4.2,0.1-7.3-2.8-7.2-7.3c0.1-6.5,0-13.1,0-19.6c0-4.6,2.6-7.2,7.2-7.2c18,0,36,0,54,0
			C78.3,81.1,81.2,84.3,81.1,88.2z"/>
		<path d="M37.5,88.8c-0.1,0-0.4,0-0.6,0.1c-4.6,0.8-9.3,1.5-13.9,2.3c-3.4,0.6-5.9,3.5-6,6.8c-0.1,3.4,2.2,6.4,5.6,7.2
			c2.1,0.5,4.2,0.8,6.4,1.1c2.7,0.5,5.5,1.1,8.2,1.3c5.1,0.4,9.7-3.9,9.8-9C47.1,93.2,42.9,88.8,37.5,88.8z M27.7,98.2v1.1
			c0,2.5,0,2.5-2.5,2c-0.6-0.1-1.3-0.2-1.9-0.4c-1.3-0.4-2-1.5-1.9-2.9c0.1-1.2,0.9-2.3,2.1-2.6c0.5-0.1,1-0.2,1.5-0.3
			c0.9-0.1,2.1-0.7,2.6-0.2c0.5,0.5,0.1,1.7,0.2,2.6C27.7,97.7,27.7,98,27.7,98.2z M42.1,100.4c-0.9,1.9-2.5,2.8-4.6,2.8
			c-1.6-0.1-3.2-0.5-4.8-0.7c-0.5-0.1-0.7-0.3-0.6-0.8c0-1.2,0-2.3,0-3.5v-2.2c0-2,0-2,2.1-2.3c0.8-0.1,1.6-0.3,2.5-0.4
			c2.1-0.3,3.8,0.3,5.1,1.9C42.8,96.8,43,98.6,42.1,100.4z"/>
		<path d="M37.5,88.8c-0.1,0-0.4,0-0.6,0.1c-4.6,0.8-9.3,1.5-13.9,2.3c-3.4,0.6-5.9,3.5-6,6.8c-0.1,3.4,2.2,6.4,5.6,7.2
			c2.1,0.5,4.2,0.8,6.4,1.1c2.7,0.5,5.5,1.1,8.2,1.3c5.1,0.4,9.7-3.9,9.8-9C47.1,93.2,42.9,88.8,37.5,88.8z M27.7,98.2v1.1
			c0,2.5,0,2.5-2.5,2c-0.6-0.1-1.3-0.2-1.9-0.4c-1.3-0.4-2-1.5-1.9-2.9c0.1-1.2,0.9-2.3,2.1-2.6c0.5-0.1,1-0.2,1.5-0.3
			c0.9-0.1,2.1-0.7,2.6-0.2c0.5,0.5,0.1,1.7,0.2,2.6C27.7,97.7,27.7,98,27.7,98.2z M42.1,100.4c-0.9,1.9-2.5,2.8-4.6,2.8
			c-1.6-0.1-3.2-0.5-4.8-0.7c-0.5-0.1-0.7-0.3-0.6-0.8c0-1.2,0-2.3,0-3.5v-2.2c0-2,0-2,2.1-2.3c0.8-0.1,1.6-0.3,2.5-0.4
			c2.1-0.3,3.8,0.3,5.1,1.9C42.8,96.8,43,98.6,42.1,100.4z"/>
	</g>
</g>
</svg>
