<?xml version="1.0" encoding="utf-8"?>
<!-- Generator: Adobe Illustrator 28.0.0, SVG Export Plug-In . SVG Version: 6.00 Build 0)  -->
<svg version="1.1" id="Layer_1" xmlns="http://www.w3.org/2000/svg" xmlns:xlink="http://www.w3.org/1999/xlink" x="0px" y="0px"
	 viewBox="0 0 128 128" style="enable-background:new 0 0 128 128;" xml:space="preserve">
<g id="cNgdB2.tif">
	<g>
		<path d="M98.8,53c-23.2,0-46.4,0-69.6,0c-2,0-2.7,0.7-2.7,2.8c0,5.5,0,11,0,16.6c0,2.1,0.7,2.8,2.8,2.8c11.5,0,23.1,0,34.6,0
			c11.6,0,23.2,0,34.8,0c2.1,0,2.8-0.7,2.8-2.8c0-5.5,0-11,0-16.6C101.5,53.7,100.8,53,98.8,53z M95.9,70.6c-10.7,0-21.3,0-32,0
			c-10.6,0-21.1,0-31.7,0c-1,0-1.3-0.2-1.3-1.3c0.1-3.6,0.1-7.3,0-10.9c0-0.9,0.2-1.1,1.1-1.1c21.3,0,42.7,0,64,0
			c0.9,0,1.1,0.2,1.1,1.1c-0.1,3.6-0.1,7.3,0,10.9C97.2,70.4,96.9,70.6,95.9,70.6z M98.8,53c-23.2,0-46.4,0-69.6,0
			c-2,0-2.7,0.7-2.7,2.8c0,5.5,0,11,0,16.6c0,2.1,0.7,2.8,2.8,2.8c11.5,0,23.1,0,34.6,0c11.6,0,23.2,0,34.8,0c2.1,0,2.8-0.7,2.8-2.8
			c0-5.5,0-11,0-16.6C101.5,53.7,100.8,53,98.8,53z M95.9,70.6c-10.7,0-21.3,0-32,0c-10.6,0-21.1,0-31.7,0c-1,0-1.3-0.2-1.3-1.3
			c0.1-3.6,0.1-7.3,0-10.9c0-0.9,0.2-1.1,1.1-1.1c21.3,0,42.7,0,64,0c0.9,0,1.1,0.2,1.1,1.1c-0.1,3.6-0.1,7.3,0,10.9
			C97.2,70.4,96.9,70.6,95.9,70.6z M98.8,53c-23.2,0-46.4,0-69.6,0c-2,0-2.7,0.7-2.7,2.8c0,5.5,0,11,0,16.6c0,2.1,0.7,2.8,2.8,2.8
			c11.5,0,23.1,0,34.6,0c11.6,0,23.2,0,34.8,0c2.1,0,2.8-0.7,2.8-2.8c0-5.5,0-11,0-16.6C101.5,53.7,100.8,53,98.8,53z M95.9,70.6
			c-10.7,0-21.3,0-32,0c-10.6,0-21.1,0-31.7,0c-1,0-1.3-0.2-1.3-1.3c0.1-3.6,0.1-7.3,0-10.9c0-0.9,0.2-1.1,1.1-1.1
			c21.3,0,42.7,0,64,0c0.9,0,1.1,0.2,1.1,1.1c-0.1,3.6-0.1,7.3,0,10.9C97.2,70.4,96.9,70.6,95.9,70.6z M98.8,53
			c-23.2,0-46.4,0-69.6,0c-2,0-2.7,0.7-2.7,2.8c0,5.5,0,11,0,16.6c0,2.1,0.7,2.8,2.8,2.8c11.5,0,23.1,0,34.6,0c11.6,0,23.2,0,34.8,0
			c2.1,0,2.8-0.7,2.8-2.8c0-5.5,0-11,0-16.6C101.5,53.7,100.8,53,98.8,53z M95.9,70.6c-10.7,0-21.3,0-32,0c-10.6,0-21.1,0-31.7,0
			c-1,0-1.3-0.2-1.3-1.3c0.1-3.6,0.1-7.3,0-10.9c0-0.9,0.2-1.1,1.1-1.1c21.3,0,42.7,0,64,0c0.9,0,1.1,0.2,1.1,1.1
			c-0.1,3.6-0.1,7.3,0,10.9C97.2,70.4,96.9,70.6,95.9,70.6z M98.8,53c-23.2,0-46.4,0-69.6,0c-2,0-2.7,0.7-2.7,2.8c0,5.5,0,11,0,16.6
			c0,2.1,0.7,2.8,2.8,2.8c11.5,0,23.1,0,34.6,0c11.6,0,23.2,0,34.8,0c2.1,0,2.8-0.7,2.8-2.8c0-5.5,0-11,0-16.6
			C101.5,53.7,100.8,53,98.8,53z M95.9,70.6c-10.7,0-21.3,0-32,0c-10.6,0-21.1,0-31.7,0c-1,0-1.3-0.2-1.3-1.3
			c0.1-3.6,0.1-7.3,0-10.9c0-0.9,0.2-1.1,1.1-1.1c21.3,0,42.7,0,64,0c0.9,0,1.1,0.2,1.1,1.1c-0.1,3.6-0.1,7.3,0,10.9
			C97.2,70.4,96.9,70.6,95.9,70.6z M98.8,53c-23.2,0-46.4,0-69.6,0c-2,0-2.7,0.7-2.7,2.8c0,5.5,0,11,0,16.6c0,2.1,0.7,2.8,2.8,2.8
			c11.5,0,23.1,0,34.6,0c11.6,0,23.2,0,34.8,0c2.1,0,2.8-0.7,2.8-2.8c0-5.5,0-11,0-16.6C101.5,53.7,100.8,53,98.8,53z M95.9,70.6
			c-10.7,0-21.3,0-32,0c-10.6,0-21.1,0-31.7,0c-1,0-1.3-0.2-1.3-1.3c0.1-3.6,0.1-7.3,0-10.9c0-0.9,0.2-1.1,1.1-1.1
			c21.3,0,42.7,0,64,0c0.9,0,1.1,0.2,1.1,1.1c-0.1,3.6-0.1,7.3,0,10.9C97.2,70.4,96.9,70.6,95.9,70.6z M98.8,53
			c-23.2,0-46.4,0-69.6,0c-2,0-2.7,0.7-2.7,2.8c0,5.5,0,11,0,16.6c0,2.1,0.7,2.8,2.8,2.8c11.5,0,23.1,0,34.6,0c11.6,0,23.2,0,34.8,0
			c2.1,0,2.8-0.7,2.8-2.8c0-5.5,0-11,0-16.6C101.5,53.7,100.8,53,98.8,53z M95.9,70.6c-10.7,0-21.3,0-32,0c-10.6,0-21.1,0-31.7,0
			c-1,0-1.3-0.2-1.3-1.3c0.1-3.6,0.1-7.3,0-10.9c0-0.9,0.2-1.1,1.1-1.1c21.3,0,42.7,0,64,0c0.9,0,1.1,0.2,1.1,1.1
			c-0.1,3.6-0.1,7.3,0,10.9C97.2,70.4,96.9,70.6,95.9,70.6z M98.8,53c-23.2,0-46.4,0-69.6,0c-2,0-2.7,0.7-2.7,2.8c0,5.5,0,11,0,16.6
			c0,2.1,0.7,2.8,2.8,2.8c11.5,0,23.1,0,34.6,0c11.6,0,23.2,0,34.8,0c2.1,0,2.8-0.7,2.8-2.8c0-5.5,0-11,0-16.6
			C101.5,53.7,100.8,53,98.8,53z M95.9,70.6c-10.7,0-21.3,0-32,0c-10.6,0-21.1,0-31.7,0c-1,0-1.3-0.2-1.3-1.3
			c0.1-3.6,0.1-7.3,0-10.9c0-0.9,0.2-1.1,1.1-1.1c21.3,0,42.7,0,64,0c0.9,0,1.1,0.2,1.1,1.1c-0.1,3.6-0.1,7.3,0,10.9
			C97.2,70.4,96.9,70.6,95.9,70.6z M98.8,53c-23.2,0-46.4,0-69.6,0c-2,0-2.7,0.7-2.7,2.8c0,5.5,0,11,0,16.6c0,2.1,0.7,2.8,2.8,2.8
			c11.5,0,23.1,0,34.6,0c11.6,0,23.2,0,34.8,0c2.1,0,2.8-0.7,2.8-2.8c0-5.5,0-11,0-16.6C101.5,53.7,100.8,53,98.8,53z M95.9,70.6
			c-10.7,0-21.3,0-32,0c-10.6,0-21.1,0-31.7,0c-1,0-1.3-0.2-1.3-1.3c0.1-3.6,0.1-7.3,0-10.9c0-0.9,0.2-1.1,1.1-1.1
			c21.3,0,42.7,0,64,0c0.9,0,1.1,0.2,1.1,1.1c-0.1,3.6-0.1,7.3,0,10.9C97.2,70.4,96.9,70.6,95.9,70.6z M98.8,53
			c-23.2,0-46.4,0-69.6,0c-2,0-2.7,0.7-2.7,2.8c0,5.5,0,11,0,16.6c0,2.1,0.7,2.8,2.8,2.8c11.5,0,23.1,0,34.6,0c11.6,0,23.2,0,34.8,0
			c2.1,0,2.8-0.7,2.8-2.8c0-5.5,0-11,0-16.6C101.5,53.7,100.8,53,98.8,53z M95.9,70.6c-10.7,0-21.3,0-32,0c-10.6,0-21.1,0-31.7,0
			c-1,0-1.3-0.2-1.3-1.3c0.1-3.6,0.1-7.3,0-10.9c0-0.9,0.2-1.1,1.1-1.1c21.3,0,42.7,0,64,0c0.9,0,1.1,0.2,1.1,1.1
			c-0.1,3.6-0.1,7.3,0,10.9C97.2,70.4,96.9,70.6,95.9,70.6z M98.8,53c-23.2,0-46.4,0-69.6,0c-2,0-2.7,0.7-2.7,2.8c0,5.5,0,11,0,16.6
			c0,2.1,0.7,2.8,2.8,2.8c11.5,0,23.1,0,34.6,0c11.6,0,23.2,0,34.8,0c2.1,0,2.8-0.7,2.8-2.8c0-5.5,0-11,0-16.6
			C101.5,53.7,100.8,53,98.8,53z M95.9,70.6c-10.7,0-21.3,0-32,0c-10.6,0-21.1,0-31.7,0c-1,0-1.3-0.2-1.3-1.3
			c0.1-3.6,0.1-7.3,0-10.9c0-0.9,0.2-1.1,1.1-1.1c21.3,0,42.7,0,64,0c0.9,0,1.1,0.2,1.1,1.1c-0.1,3.6-0.1,7.3,0,10.9
			C97.2,70.4,96.9,70.6,95.9,70.6z M98.8,53c-23.2,0-46.4,0-69.6,0c-2,0-2.7,0.7-2.7,2.8c0,5.5,0,11,0,16.6c0,2.1,0.7,2.8,2.8,2.8
			c11.5,0,23.1,0,34.6,0c11.6,0,23.2,0,34.8,0c2.1,0,2.8-0.7,2.8-2.8c0-5.5,0-11,0-16.6C101.5,53.7,100.8,53,98.8,53z M95.9,70.6
			c-10.7,0-21.3,0-32,0c-10.6,0-21.1,0-31.7,0c-1,0-1.3-0.2-1.3-1.3c0.1-3.6,0.1-7.3,0-10.9c0-0.9,0.2-1.1,1.1-1.1
			c21.3,0,42.7,0,64,0c0.9,0,1.1,0.2,1.1,1.1c-0.1,3.6-0.1,7.3,0,10.9C97.2,70.4,96.9,70.6,95.9,70.6z M98.8,53
			c-23.2,0-46.4,0-69.6,0c-2,0-2.7,0.7-2.7,2.8c0,5.5,0,11,0,16.6c0,2.1,0.7,2.8,2.8,2.8c11.5,0,23.1,0,34.6,0c11.6,0,23.2,0,34.8,0
			c2.1,0,2.8-0.7,2.8-2.8c0-5.5,0-11,0-16.6C101.5,53.7,100.8,53,98.8,53z M95.9,70.6c-10.7,0-21.3,0-32,0c-10.6,0-21.1,0-31.7,0
			c-1,0-1.3-0.2-1.3-1.3c0.1-3.6,0.1-7.3,0-10.9c0-0.9,0.2-1.1,1.1-1.1c21.3,0,42.7,0,64,0c0.9,0,1.1,0.2,1.1,1.1
			c-0.1,3.6-0.1,7.3,0,10.9C97.2,70.4,96.9,70.6,95.9,70.6z M98.8,53c-23.2,0-46.4,0-69.6,0c-2,0-2.7,0.7-2.7,2.8c0,5.5,0,11,0,16.6
			c0,2.1,0.7,2.8,2.8,2.8c11.5,0,23.1,0,34.6,0c11.6,0,23.2,0,34.8,0c2.1,0,2.8-0.7,2.8-2.8c0-5.5,0-11,0-16.6
			C101.5,53.7,100.8,53,98.8,53z M95.9,70.6c-10.7,0-21.3,0-32,0c-10.6,0-21.1,0-31.7,0c-1,0-1.3-0.2-1.3-1.3
			c0.1-3.6,0.1-7.3,0-10.9c0-0.9,0.2-1.1,1.1-1.1c21.3,0,42.7,0,64,0c0.9,0,1.1,0.2,1.1,1.1c-0.1,3.6-0.1,7.3,0,10.9
			C97.2,70.4,96.9,70.6,95.9,70.6z M113.2,31.8c0.7-0.7,1.4-0.5,2,0.3c0.2,0.3,0.4,0.5,0.6,0.8c1.8,2.4,4.3,3.3,7.2,2.7
			c2.7-0.6,4.5-2.3,5.1-5.2V27c-0.2,0-0.2-0.2-0.3-0.4c-1-2.6-2.8-4.3-5.6-4.6c-3-0.3-5.3,1-6.6,3.7c-0.4,0.7-0.8,0.8-1.4,0.7
			c-1.8-0.3-3,0.5-4.2,1.8c-2,2.2-4.2,4.3-6.3,6.3c-1.3,1.2-2.3,2.5-2,4.4c0.1,0.6-0.1,0.8-0.7,0.8c-2.4,0-4.9,0-7.3,0
			c-0.6,0-0.8-0.1-0.8-0.8c0-1.2,0.1-2.5,0-3.7c0-0.9,0.2-1.4,0.8-2c5.1-5.1,10.2-10.2,15.3-15.3c0.6-0.6,1.1-0.8,2-0.5
			c2.8,0.9,6-0.4,7.5-3c1.5-2.6,1.1-6-1-8.1c-2.1-2.1-5.5-2.5-8.1-1c-2.6,1.5-3.8,4.6-2.9,7.5c0.3,0.9,0.1,1.4-0.5,2
			c-5.4,5.4-10.8,10.8-16.2,16.2c-0.8,0.8-1.3,1.7-1.2,2.9c0.1,1.7,0,3.3,0,5c0,0.7-0.2,0.9-0.9,0.9c-2.3,0-4.7,0-7,0
			c-0.7,0-0.9-0.2-0.9-0.9c0-2.7,0-5.4,0-8.1c0-0.7,0.2-1.3,0.7-1.8c3.7-3.7,7.4-7.4,11.1-11.1c1-1,1.6-2,1.4-3.4
			c-0.1-1,0.2-1.6,1.2-2.1c2.6-1.4,3.8-4.5,3.1-7.3c-0.8-3.1-3.4-5-6.6-5c-3,0-5.6,2-6.4,5.1c-0.7,2.8,0.6,5.8,3.2,7.3
			c1.4,0.8,1.5,1.6,0.4,2.8c-3.8,3.8-7.7,7.7-11.5,11.5c-0.7,0.7-1,1.4-1,2.4c0,3.2,0,6.3,0,9.5c0,0.8-0.1,1.1-1,1.1
			c-2.2-0.1-4.5-0.1-6.8,0c-1,0-1.1-0.3-1.1-1.2c0-8.2,0-16.4,0-24.5c0-0.8,0.2-1.2,0.9-1.6c2.7-1.4,4.1-4.5,3.4-7.3
			C69.7,2.1,67.2,0,64.2,0c-3.3,0-5.8,1.9-6.6,5.1c-0.7,2.9,0.6,5.9,3.4,7.4c0.6,0.3,0.9,0.6,0.9,1.3c0,8.3,0,16.6,0,25
			c0,0.8-0.3,1-1,1c-2.3,0-4.5-0.1-6.8,0c-1,0-1.1-0.3-1.1-1.2c0-3.1,0-6.2,0-9.2c0-1.2-0.4-2-1.2-2.8C48,22.8,44.2,19,40.4,15.2
			c-1.1-1.1-1-2,0.4-2.7c2.7-1.5,4-4.5,3.2-7.4c-0.8-3.1-3.4-5-6.5-5c-3.1,0-5.6,2-6.4,5.1c-0.7,2.8,0.6,5.9,3.3,7.3
			c0.9,0.4,1.1,1,1,1.8c-0.2,1.5,0.4,2.7,1.5,3.7c3.7,3.6,7.4,7.3,11,11c0.4,0.4,0.7,0.7,0.7,1.4c0,2.9,0,5.7,0,8.6
			c0,0.7-0.2,0.9-0.8,0.8c-2.4,0-4.8,0-7.2,0c-0.7,0-0.9-0.2-0.8-0.8c0-1.7-0.1-3.3,0-5c0.1-1.3-0.4-2.2-1.2-3
			c-5.4-5.3-10.7-10.7-16.1-16.1c-0.7-0.6-0.8-1.2-0.6-2.1c0.7-2.4,0.1-4.6-1.7-6.4c-1.8-1.7-3.9-2.3-6.3-1.7C10.1,5.6,8,9.2,9,12.7
			c1.1,3.7,4.7,5.8,8.4,4.6c0.7-0.2,1.1-0.1,1.6,0.4c5.2,5.2,10.4,10.4,15.6,15.6c0.5,0.5,0.7,1,0.7,1.7c-0.1,1.3-0.1,2.6,0,3.9
			c0,0.7-0.2,0.8-0.9,0.8c-2.3,0-4.7,0-7,0c-0.8,0-1.1-0.2-1-1c0.3-1.6-0.5-2.8-1.6-3.8c-2.3-2.2-4.6-4.5-6.8-6.8
			c-1.1-1.2-2.2-1.9-3.8-1.6c-0.9,0.1-1.4-0.2-1.8-1c-1.4-2.7-4.5-4-7.3-3.3C2,23,0,25.5,0,28.6c0,3.2,1.9,5.7,5,6.5
			c2.8,0.8,5.9-0.6,7.4-3.2c0.8-1.3,1.6-1.4,2.8-0.3c2,1.9,3.9,3.9,5.8,5.9c0.5,0.5,1.4,1,1,1.9c-0.4,0.8-1.3,0.3-1.9,0.4
			c-4,0.1-6.9,2.8-6.9,6.8c0,11.7,0,23.4,0,35c0,0.5,0,1.1,0.2,1.6c0.8,3.4,3.4,5.1,7.3,5.1c0.4,0,1.1-0.3,1.3,0.3
			c0.2,0.6-0.1,1.1-0.6,1.6c-2.1,2.1-4.2,4.2-6.3,6.3c-1,1-2,0.9-2.7-0.3c-1.5-2.7-4.5-4-7.3-3.3C2,93.6,0,96.2,0,99.3
			c0,3.1,2,5.7,5.1,6.5c2.8,0.7,5.9-0.6,7.3-3.4c0.4-0.8,0.9-1,1.7-0.9c1.6,0.2,2.8-0.4,3.9-1.6c2.2-2.3,4.4-4.6,6.7-6.7
			c1.2-1.1,2.1-2.3,1.8-4.1c-0.1-0.6,0-0.9,0.8-0.9c2.4,0.1,4.9,0,7.3,0c0.6,0,0.8,0.2,0.8,0.8c0,1.2-0.1,2.5,0,3.7
			c0.1,0.9-0.3,1.4-0.9,2c-5.1,5-10.2,10.1-15.2,15.2c-0.6,0.6-1.1,0.9-2.1,0.6c-2.8-0.9-5.9,0.4-7.5,3c-1.5,2.6-1.1,6,1,8.1
			c2.1,2.1,5.5,2.5,8.1,1c2.6-1.5,3.8-4.6,2.9-7.5c-0.3-0.9-0.1-1.4,0.5-2c5.4-5.3,10.7-10.7,16-16c0.9-0.9,1.5-1.9,1.4-3.3
			c-0.1-1.6,0-3.2,0-4.8c0-0.8,0.2-0.9,0.9-0.9c2.3,0,4.7,0,7,0c0.8,0,0.9,0.2,0.9,0.9c0,2.7,0,5.4,0,8.1c0,0.8-0.2,1.3-0.8,1.8
			c-3.6,3.6-7.2,7.2-10.9,10.8c-1.2,1.1-1.9,2.3-1.6,4c0.2,0.9-0.3,1.3-1.1,1.8c-2.4,1.4-3.5,3.5-3.3,6.3c0.2,2.5,1.6,4.3,3.8,5.5
			c0.4,0.2,0.9,0.1,1.1,0.6h3c0.9-0.3,1.9-0.3,2.7-0.9c3.9-2.9,4-8.4,0-11.4c-1.8-1.4-1.8-1.7-0.2-3.3c3.5-3.5,7-7,10.5-10.5
			c1-1,1.5-2.1,1.5-3.6c-0.1-2.8,0-5.5,0-8.3c0-1.1,0.4-1.5,1.5-1.4c1.6,0.1,3.1,0,4.7,0c1.9,0,1.9,0,1.9,1.9c0,7.4,0,14.8,0,22.2
			c0,1.3-0.4,2.2-1.5,3c-2.5,1.7-3.4,4.2-2.8,7.1c0.6,2.8,2.3,4.6,5.2,5.2h3c0.9-0.3,1.9-0.3,2.7-0.9c3.9-2.9,4-8.5,0-11.4
			c-1.1-0.8-1.5-1.7-1.5-3c0.1-2.7,0-5.3,0-8c0-4.7,0-9.5,0-14.2c0-1.9,0-1.9,1.8-1.9c1.6,0,3.2,0,4.8,0c1.1,0,1.5,0.4,1.4,1.5
			c0,2.7,0,5.4,0,8.1c0,1.5,0.5,2.7,1.6,3.8c3.5,3.4,7,6.9,10.4,10.4c1.6,1.6,1.6,1.9-0.2,3.3c-2.4,1.8-3.4,4.2-2.8,7.1
			c0.6,2.8,2.3,4.6,5.2,5.2h3c1.6-0.2,2.9-0.9,4-2.1c2.7-3.3,2.1-7.7-1.5-10.3c-0.7-0.5-1.4-1-1.3-2.1c0.2-1.6-0.5-2.7-1.6-3.8
			c-3.5-3.5-7-7-10.5-10.5c-0.6-0.6-1.1-1.1-1.1-2c0-2.5,0-5.1,0-7.6c0-0.8,0.4-1.1,1.1-1.1c2,0,4,0,5.9,0c0.8,0,1.1,0.4,1.1,1.1
			c0,1.3,0.1,2.7,0,4c-0.1,1.6,0.5,2.8,1.6,3.9c5,5,10,10,15,15c1,1,1.6,1.8,1.1,3.2c-0.2,0.6-0.1,1.2-0.1,1.8
			c0.2,3.4,3.4,6.3,7,6.3c3.6,0,6.8-2.9,7-6.3c0.3-4.9-3.7-8.4-8.5-7.5c-0.8,0.2-1.5,0.1-2.1-0.5c-5-5-10-10-15-15
			c-0.5-0.5-0.8-1.1-0.8-1.8c0-1,0-1.9,0-2.9c0-0.9,0.4-1.2,1.2-1.2c1.9,0,3.8,0,5.7,0c0.9,0,1.3,0.4,1.2,1.2c-0.1,1.1,0.3,2,1,2.8
			c2.8,2.8,5.5,5.5,8.3,8.3c0.6,0.6,1.4,1.1,2.4,1c1.4-0.1,2.2,0.5,2.9,1.5c1.8,2.5,4.3,3.4,7.3,2.7c2.8-0.7,4.6-2.4,5-5.4v-2.8
			c-0.3-0.9-0.3-1.9-0.9-2.7c-2.9-4-8.6-3.9-11.6,0.3c-1.1,1.4-1.5,1.5-2.8,0.2c-1.8-1.7-3.5-3.5-5.3-5.3c-0.4-0.4-1.1-0.8-0.8-1.4
			c0.3-0.6,1.1-0.4,1.6-0.4c4-0.2,6.9-3,6.9-7c0-11.8,0-23.6,0-35.4c0-1.7-0.5-3.2-1.6-4.4c-1.5-1.8-3.5-2.6-5.9-2.5
			c-0.4,0-0.9,0.1-1.1-0.4c-0.1-0.3,0.1-0.6,0.3-0.8C109,36,111,33.8,113.2,31.8z M119.2,28.6c0.1-1.1,1.2-2.2,2.3-2.1
			c1.1,0.1,2.2,1.2,2.1,2.3c-0.1,1.1-1.2,2.2-2.3,2.1C120.1,30.8,119.1,29.7,119.2,28.6z M112.5,8.8c1.1,0,2.2,1.1,2.2,2.2
			c0,1.1-1.1,2.2-2.2,2.2c-1.1,0-2.2-1.1-2.2-2.2C110.4,9.9,111.4,8.9,112.5,8.8z M88.3,6.6c0-1.1,1.1-2.2,2.2-2.2
			c1.1,0,2.2,1.1,2.2,2.2c0,1.1-1.1,2.2-2.2,2.2C89.4,8.8,88.3,7.7,88.3,6.6z M37.5,8.8c-1.1,0-2.2-1.1-2.2-2.2
			c0-1.1,1.1-2.2,2.2-2.2c1.1,0,2.2,1.1,2.2,2.2C39.7,7.8,38.6,8.8,37.5,8.8z M15.4,13.2c-1.1,0-2.2-1.1-2.2-2.2
			c0-1.1,1.1-2.2,2.2-2.2c1.1,0,2.2,1.1,2.2,2.2C17.6,12.2,16.6,13.2,15.4,13.2z M6.6,30.9c-1.1,0-2.2-1.1-2.2-2.2
			c0-1.1,1.1-2.2,2.2-2.2c1.1,0,2.2,1.1,2.2,2.2C8.8,29.8,7.8,30.9,6.6,30.9z M6.6,101.5c-1.1,0-2.2-1.1-2.2-2.2
			c0-1.1,1.1-2.2,2.2-2.2c1.1,0,2.2,1.1,2.2,2.2C8.8,100.4,7.7,101.5,6.6,101.5z M15.4,119.2c-1.1,0-2.2-1.1-2.2-2.2
			c0-1.1,1.1-2.2,2.2-2.2c1.1,0,2.2,1.1,2.2,2.2C17.6,118.1,16.6,119.2,15.4,119.2z M37.5,123.6c-1.1,0-2.2-1.1-2.1-2.3
			c0-1.1,1.1-2.2,2.3-2.1c1.1,0,2.2,1.1,2.1,2.3C39.7,122.6,38.6,123.6,37.5,123.6z M90.5,119.2c1.1,0,2.2,1.1,2.2,2.2
			c0,1.1-1.1,2.2-2.2,2.2c-1.1,0-2.2-1.1-2.2-2.2C88.3,120.3,89.3,119.2,90.5,119.2z M112.6,114.8c1.1,0,2.2,1.1,2.1,2.2
			c0,1.1-1.1,2.2-2.2,2.1c-1.1,0-2.2-1.1-2.1-2.2C110.4,115.8,111.5,114.7,112.6,114.8z M121.5,97.1c1.1,0.1,2.2,1.2,2.1,2.3
			c-0.1,1.1-1.2,2.2-2.3,2.1c-1.1-0.1-2.2-1.2-2.1-2.3C119.2,98.1,120.4,97,121.5,97.1z M61.8,6.6c0-1.1,1.2-2.2,2.3-2.1
			c1.1,0,2.2,1.2,2.1,2.3c0,1.1-1.2,2.2-2.3,2.1C62.8,8.8,61.8,7.7,61.8,6.6z M63.9,123.6c-1.1,0-2.2-1.2-2.1-2.3
			c0-1.1,1.2-2.2,2.3-2.1c1.1,0,2.2,1.2,2.1,2.3C66.1,122.6,65,123.6,63.9,123.6z M107.2,44.1c2.4,0,3.1,0.7,3.1,3.1
			c0,11.1,0,22.3,0,33.4c0,2.5-0.7,3.2-3.2,3.2H20.8c-2.5,0-3.2-0.7-3.2-3.2c0-11.1,0-22.3,0-33.4c0-2.4,0.7-3.1,3.1-3.1
			C49.6,44.1,78.4,44.1,107.2,44.1z M29.3,75c11.5,0,23.1,0,34.6,0c11.6,0,23.2,0,34.8,0c2.1,0,2.8-0.7,2.8-2.8c0-5.5,0-11,0-16.6
			c0-2-0.7-2.8-2.7-2.8c-23.2,0-46.4,0-69.6,0c-2,0-2.7,0.7-2.7,2.8c0,5.5,0,11,0,16.6C26.5,74.4,27.2,75,29.3,75z M30.9,69.4
			c0.1-3.6,0.1-7.3,0-10.9c0-0.9,0.2-1.1,1.1-1.1c21.3,0,42.7,0,64,0c0.9,0,1.1,0.2,1.1,1.1c-0.1,3.6-0.1,7.3,0,10.9
			c0,1-0.3,1.3-1.3,1.3c-10.7,0-21.3,0-32,0c-10.6,0-21.1,0-31.7,0C31.1,70.6,30.8,70.4,30.9,69.4z M98.8,53c-23.2,0-46.4,0-69.6,0
			c-2,0-2.7,0.7-2.7,2.8c0,5.5,0,11,0,16.6c0,2.1,0.7,2.8,2.8,2.8c11.5,0,23.1,0,34.6,0c11.6,0,23.2,0,34.8,0c2.1,0,2.8-0.7,2.8-2.8
			c0-5.5,0-11,0-16.6C101.5,53.7,100.8,53,98.8,53z M95.9,70.6c-10.7,0-21.3,0-32,0c-10.6,0-21.1,0-31.7,0c-1,0-1.3-0.2-1.3-1.3
			c0.1-3.6,0.1-7.3,0-10.9c0-0.9,0.2-1.1,1.1-1.1c21.3,0,42.7,0,64,0c0.9,0,1.1,0.2,1.1,1.1c-0.1,3.6-0.1,7.3,0,10.9
			C97.2,70.4,96.9,70.6,95.9,70.6z M98.8,53c-23.2,0-46.4,0-69.6,0c-2,0-2.7,0.7-2.7,2.8c0,5.5,0,11,0,16.6c0,2.1,0.7,2.8,2.8,2.8
			c11.5,0,23.1,0,34.6,0c11.6,0,23.2,0,34.8,0c2.1,0,2.8-0.7,2.8-2.8c0-5.5,0-11,0-16.6C101.5,53.7,100.8,53,98.8,53z M95.9,70.6
			c-10.7,0-21.3,0-32,0c-10.6,0-21.1,0-31.7,0c-1,0-1.3-0.2-1.3-1.3c0.1-3.6,0.1-7.3,0-10.9c0-0.9,0.2-1.1,1.1-1.1
			c21.3,0,42.7,0,64,0c0.9,0,1.1,0.2,1.1,1.1c-0.1,3.6-0.1,7.3,0,10.9C97.2,70.4,96.9,70.6,95.9,70.6z M98.8,53
			c-23.2,0-46.4,0-69.6,0c-2,0-2.7,0.7-2.7,2.8c0,5.5,0,11,0,16.6c0,2.1,0.7,2.8,2.8,2.8c11.5,0,23.1,0,34.6,0c11.6,0,23.2,0,34.8,0
			c2.1,0,2.8-0.7,2.8-2.8c0-5.5,0-11,0-16.6C101.5,53.7,100.8,53,98.8,53z M95.9,70.6c-10.7,0-21.3,0-32,0c-10.6,0-21.1,0-31.7,0
			c-1,0-1.3-0.2-1.3-1.3c0.1-3.6,0.1-7.3,0-10.9c0-0.9,0.2-1.1,1.1-1.1c21.3,0,42.7,0,64,0c0.9,0,1.1,0.2,1.1,1.1
			c-0.1,3.6-0.1,7.3,0,10.9C97.2,70.4,96.9,70.6,95.9,70.6z M98.8,53c-23.2,0-46.4,0-69.6,0c-2,0-2.7,0.7-2.7,2.8c0,5.5,0,11,0,16.6
			c0,2.1,0.7,2.8,2.8,2.8c11.5,0,23.1,0,34.6,0c11.6,0,23.2,0,34.8,0c2.1,0,2.8-0.7,2.8-2.8c0-5.5,0-11,0-16.6
			C101.5,53.7,100.8,53,98.8,53z M95.9,70.6c-10.7,0-21.3,0-32,0c-10.6,0-21.1,0-31.7,0c-1,0-1.3-0.2-1.3-1.3
			c0.1-3.6,0.1-7.3,0-10.9c0-0.9,0.2-1.1,1.1-1.1c21.3,0,42.7,0,64,0c0.9,0,1.1,0.2,1.1,1.1c-0.1,3.6-0.1,7.3,0,10.9
			C97.2,70.4,96.9,70.6,95.9,70.6z M98.8,53c-23.2,0-46.4,0-69.6,0c-2,0-2.7,0.7-2.7,2.8c0,5.5,0,11,0,16.6c0,2.1,0.7,2.8,2.8,2.8
			c11.5,0,23.1,0,34.6,0c11.6,0,23.2,0,34.8,0c2.1,0,2.8-0.7,2.8-2.8c0-5.5,0-11,0-16.6C101.5,53.7,100.8,53,98.8,53z M95.9,70.6
			c-10.7,0-21.3,0-32,0c-10.6,0-21.1,0-31.7,0c-1,0-1.3-0.2-1.3-1.3c0.1-3.6,0.1-7.3,0-10.9c0-0.9,0.2-1.1,1.1-1.1
			c21.3,0,42.7,0,64,0c0.9,0,1.1,0.2,1.1,1.1c-0.1,3.6-0.1,7.3,0,10.9C97.2,70.4,96.9,70.6,95.9,70.6z M98.8,53
			c-23.2,0-46.4,0-69.6,0c-2,0-2.7,0.7-2.7,2.8c0,5.5,0,11,0,16.6c0,2.1,0.7,2.8,2.8,2.8c11.5,0,23.1,0,34.6,0c11.6,0,23.2,0,34.8,0
			c2.1,0,2.8-0.7,2.8-2.8c0-5.5,0-11,0-16.6C101.5,53.7,100.8,53,98.8,53z M95.9,70.6c-10.7,0-21.3,0-32,0c-10.6,0-21.1,0-31.7,0
			c-1,0-1.3-0.2-1.3-1.3c0.1-3.6,0.1-7.3,0-10.9c0-0.9,0.2-1.1,1.1-1.1c21.3,0,42.7,0,64,0c0.9,0,1.1,0.2,1.1,1.1
			c-0.1,3.6-0.1,7.3,0,10.9C97.2,70.4,96.9,70.6,95.9,70.6z M98.8,53c-23.2,0-46.4,0-69.6,0c-2,0-2.7,0.7-2.7,2.8c0,5.5,0,11,0,16.6
			c0,2.1,0.7,2.8,2.8,2.8c11.5,0,23.1,0,34.6,0c11.6,0,23.2,0,34.8,0c2.1,0,2.8-0.7,2.8-2.8c0-5.5,0-11,0-16.6
			C101.5,53.7,100.8,53,98.8,53z M95.9,70.6c-10.7,0-21.3,0-32,0c-10.6,0-21.1,0-31.7,0c-1,0-1.3-0.2-1.3-1.3
			c0.1-3.6,0.1-7.3,0-10.9c0-0.9,0.2-1.1,1.1-1.1c21.3,0,42.7,0,64,0c0.9,0,1.1,0.2,1.1,1.1c-0.1,3.6-0.1,7.3,0,10.9
			C97.2,70.4,96.9,70.6,95.9,70.6z M98.8,53c-23.2,0-46.4,0-69.6,0c-2,0-2.7,0.7-2.7,2.8c0,5.5,0,11,0,16.6c0,2.1,0.7,2.8,2.8,2.8
			c11.5,0,23.1,0,34.6,0c11.6,0,23.2,0,34.8,0c2.1,0,2.8-0.7,2.8-2.8c0-5.5,0-11,0-16.6C101.5,53.7,100.8,53,98.8,53z M95.9,70.6
			c-10.7,0-21.3,0-32,0c-10.6,0-21.1,0-31.7,0c-1,0-1.3-0.2-1.3-1.3c0.1-3.6,0.1-7.3,0-10.9c0-0.9,0.2-1.1,1.1-1.1
			c21.3,0,42.7,0,64,0c0.9,0,1.1,0.2,1.1,1.1c-0.1,3.6-0.1,7.3,0,10.9C97.2,70.4,96.9,70.6,95.9,70.6z M98.8,53
			c-23.2,0-46.4,0-69.6,0c-2,0-2.7,0.7-2.7,2.8c0,5.5,0,11,0,16.6c0,2.1,0.7,2.8,2.8,2.8c11.5,0,23.1,0,34.6,0c11.6,0,23.2,0,34.8,0
			c2.1,0,2.8-0.7,2.8-2.8c0-5.5,0-11,0-16.6C101.5,53.7,100.8,53,98.8,53z M95.9,70.6c-10.7,0-21.3,0-32,0c-10.6,0-21.1,0-31.7,0
			c-1,0-1.3-0.2-1.3-1.3c0.1-3.6,0.1-7.3,0-10.9c0-0.9,0.2-1.1,1.1-1.1c21.3,0,42.7,0,64,0c0.9,0,1.1,0.2,1.1,1.1
			c-0.1,3.6-0.1,7.3,0,10.9C97.2,70.4,96.9,70.6,95.9,70.6z M98.8,53c-23.2,0-46.4,0-69.6,0c-2,0-2.7,0.7-2.7,2.8c0,5.5,0,11,0,16.6
			c0,2.1,0.7,2.8,2.8,2.8c11.5,0,23.1,0,34.6,0c11.6,0,23.2,0,34.8,0c2.1,0,2.8-0.7,2.8-2.8c0-5.5,0-11,0-16.6
			C101.5,53.7,100.8,53,98.8,53z M95.9,70.6c-10.7,0-21.3,0-32,0c-10.6,0-21.1,0-31.7,0c-1,0-1.3-0.2-1.3-1.3
			c0.1-3.6,0.1-7.3,0-10.9c0-0.9,0.2-1.1,1.1-1.1c21.3,0,42.7,0,64,0c0.9,0,1.1,0.2,1.1,1.1c-0.1,3.6-0.1,7.3,0,10.9
			C97.2,70.4,96.9,70.6,95.9,70.6z M98.8,53c-23.2,0-46.4,0-69.6,0c-2,0-2.7,0.7-2.7,2.8c0,5.5,0,11,0,16.6c0,2.1,0.7,2.8,2.8,2.8
			c11.5,0,23.1,0,34.6,0c11.6,0,23.2,0,34.8,0c2.1,0,2.8-0.7,2.8-2.8c0-5.5,0-11,0-16.6C101.5,53.7,100.8,53,98.8,53z M95.9,70.6
			c-10.7,0-21.3,0-32,0c-10.6,0-21.1,0-31.7,0c-1,0-1.3-0.2-1.3-1.3c0.1-3.6,0.1-7.3,0-10.9c0-0.9,0.2-1.1,1.1-1.1
			c21.3,0,42.7,0,64,0c0.9,0,1.1,0.2,1.1,1.1c-0.1,3.6-0.1,7.3,0,10.9C97.2,70.4,96.9,70.6,95.9,70.6z M98.8,53
			c-23.2,0-46.4,0-69.6,0c-2,0-2.7,0.7-2.7,2.8c0,5.5,0,11,0,16.6c0,2.1,0.7,2.8,2.8,2.8c11.5,0,23.1,0,34.6,0c11.6,0,23.2,0,34.8,0
			c2.1,0,2.8-0.7,2.8-2.8c0-5.5,0-11,0-16.6C101.5,53.7,100.8,53,98.8,53z M95.9,70.6c-10.7,0-21.3,0-32,0c-10.6,0-21.1,0-31.7,0
			c-1,0-1.3-0.2-1.3-1.3c0.1-3.6,0.1-7.3,0-10.9c0-0.9,0.2-1.1,1.1-1.1c21.3,0,42.7,0,64,0c0.9,0,1.1,0.2,1.1,1.1
			c-0.1,3.6-0.1,7.3,0,10.9C97.2,70.4,96.9,70.6,95.9,70.6z M98.8,53c-23.2,0-46.4,0-69.6,0c-2,0-2.7,0.7-2.7,2.8c0,5.5,0,11,0,16.6
			c0,2.1,0.7,2.8,2.8,2.8c11.5,0,23.1,0,34.6,0c11.6,0,23.2,0,34.8,0c2.1,0,2.8-0.7,2.8-2.8c0-5.5,0-11,0-16.6
			C101.5,53.7,100.8,53,98.8,53z M95.9,70.6c-10.7,0-21.3,0-32,0c-10.6,0-21.1,0-31.7,0c-1,0-1.3-0.2-1.3-1.3
			c0.1-3.6,0.1-7.3,0-10.9c0-0.9,0.2-1.1,1.1-1.1c21.3,0,42.7,0,64,0c0.9,0,1.1,0.2,1.1,1.1c-0.1,3.6-0.1,7.3,0,10.9
			C97.2,70.4,96.9,70.6,95.9,70.6z M98.8,53c-23.2,0-46.4,0-69.6,0c-2,0-2.7,0.7-2.7,2.8c0,5.5,0,11,0,16.6c0,2.1,0.7,2.8,2.8,2.8
			c11.5,0,23.1,0,34.6,0c11.6,0,23.2,0,34.8,0c2.1,0,2.8-0.7,2.8-2.8c0-5.5,0-11,0-16.6C101.5,53.7,100.8,53,98.8,53z M95.9,70.6
			c-10.7,0-21.3,0-32,0c-10.6,0-21.1,0-31.7,0c-1,0-1.3-0.2-1.3-1.3c0.1-3.6,0.1-7.3,0-10.9c0-0.9,0.2-1.1,1.1-1.1
			c21.3,0,42.7,0,64,0c0.9,0,1.1,0.2,1.1,1.1c-0.1,3.6-0.1,7.3,0,10.9C97.2,70.4,96.9,70.6,95.9,70.6z"/>
		<path d="M98.8,53c-23.2,0-46.4,0-69.6,0c-2,0-2.7,0.7-2.7,2.8c0,5.5,0,11,0,16.6c0,2.1,0.7,2.8,2.8,2.8c11.5,0,23.1,0,34.6,0
			c11.6,0,23.2,0,34.8,0c2.1,0,2.8-0.7,2.8-2.8c0-5.5,0-11,0-16.6C101.5,53.7,100.8,53,98.8,53z M95.9,70.6c-10.7,0-21.3,0-32,0
			c-10.6,0-21.1,0-31.7,0c-1,0-1.3-0.2-1.3-1.3c0.1-3.6,0.1-7.3,0-10.9c0-0.9,0.2-1.1,1.1-1.1c21.3,0,42.7,0,64,0
			c0.9,0,1.1,0.2,1.1,1.1c-0.1,3.6-0.1,7.3,0,10.9C97.2,70.4,96.9,70.6,95.9,70.6z"/>
		<path d="M98.8,53c-23.2,0-46.4,0-69.6,0c-2,0-2.7,0.7-2.7,2.8c0,5.5,0,11,0,16.6c0,2.1,0.7,2.8,2.8,2.8c11.5,0,23.1,0,34.6,0
			c11.6,0,23.2,0,34.8,0c2.1,0,2.8-0.7,2.8-2.8c0-5.5,0-11,0-16.6C101.5,53.7,100.8,53,98.8,53z M95.9,70.6c-10.7,0-21.3,0-32,0
			c-10.6,0-21.1,0-31.7,0c-1,0-1.3-0.2-1.3-1.3c0.1-3.6,0.1-7.3,0-10.9c0-0.9,0.2-1.1,1.1-1.1c21.3,0,42.7,0,64,0
			c0.9,0,1.1,0.2,1.1,1.1c-0.1,3.6-0.1,7.3,0,10.9C97.2,70.4,96.9,70.6,95.9,70.6z"/>
	</g>
</g>
</svg>
