<?xml version="1.0" encoding="utf-8"?>
<!-- Generator: Adobe Illustrator 28.0.0, SVG Export Plug-In . SVG Version: 6.00 Build 0)  -->
<svg version="1.1" id="Layer_1" xmlns="http://www.w3.org/2000/svg" xmlns:xlink="http://www.w3.org/1999/xlink" x="0px" y="0px"
	 viewBox="0 0 128 128" style="enable-background:new 0 0 128 128;" xml:space="preserve">
<g id="PNf30f.tif">
	<g>
		<path d="M123.3,108.8c-10.4,0.1-20.8,0-31.2,0c-0.5,0-1,0.1-1.5-0.4c-2.2-2.2-4.4-4.4-6.6-6.6c-0.3-0.3-0.4-0.5-0.3-1
			c0.9-2.7,0.1-4.9-1.9-6.9c-3.8-3.7-7.5-7.5-11.3-11.3c-0.7-0.7-0.9-1.1-0.2-1.9c0.4-0.5,0.5-1.1,0.5-1.8c0-2.5-4.2-7-6.7-6.8
			c-1,0.1-1.6-0.3-2.2-1c-0.4-0.4-0.7-0.8-1.2-1.1c-0.8-0.5-1.7-0.5-2.4,0.2c-0.8,0.7-0.8,1.6-0.2,2.5c0.3,0.5,0.8,0.9,1.2,1.2
			c0.6,0.5,0.5,0.8,0,1.3c-1.6,1.5-3.1,3-4.6,4.6c-0.5,0.5-0.7,0.5-1.2,0c-4.4-4.4-8.8-8.8-13.2-13.2c-0.5-0.5-0.4-0.8,0-1.2
			c1.5-1.5,3-3,4.5-4.5c0.5-0.6,0.9-0.6,1.4,0c2,2.1,4,4.1,6.1,6.1c0.9,0.9,2.1,1,2.9,0.2c0.8-0.8,0.8-1.9-0.1-2.9
			c-2.2-2.3-4.5-4.5-6.7-6.7c-0.8-0.8-1.8-1.3-2.9-1.2c-0.9,0.1-1.4-0.3-1.9-0.8c-9.1-9.1-18.2-18.3-27.4-27.4
			c-1.8-1.8-3.4-2.1-5.6-0.8c-0.4,0.3-0.6,0.3-0.9-0.1c-1.4-1.5-2.9-2.8-4.3-4.4c-1.7-2-2.1-4.4-1.3-6.9c1.7-5.1,8.1-6.7,12-2.9
			c4.1,4,8.2,8.2,12.3,12.3c6.6,6.5,16.6,7,23.8,1.2c1.8-1.4,3.3-3.2,4.9-4.8c0.9-0.9,1-2.1,0.2-2.9c-0.8-0.9-1.9-0.8-3,0.2
			c-1,1-2.1,2.1-3.1,3.1c-6.1,6-14.6,6-20.7-0.1c-3.8-3.8-7.6-7.6-11.4-11.4c-1.7-1.7-3.6-2.9-6-3.4c-0.5-0.1-1.2,0.2-1.6-0.3h-1.5
			C9.1,7.6,7.8,7.5,6.6,8.1C3,9.8,0.5,12.5,0,16.6v4c0.9,3.6,3.2,6.1,5.8,8.5c0.5,0.4,0.9,0.9,1.3,1.3c0.3,0.2,0.3,0.4,0.1,0.7
			c-1.6,2.1-0.9,4.2,0.8,5.9c9.2,9.1,18.3,18.2,27.4,27.4c0.3,0.3,0.8,0.5,0.7,1.2c-0.3,1.6,0.4,2.8,1.5,3.9
			c4.5,4.5,9,8.9,13.4,13.4c0.4,0.4,0.7,0.8,0.6,1.5c-0.2,1.1,0.2,2.1,1,3c1,1,2,2,3,3c1.4,1.3,3.2,1.5,4.7,0.5
			c0.7-0.5,1-0.4,1.6,0.2c3.9,3.9,7.8,7.8,11.7,11.8c1.8,1.9,4,2.4,6.5,1.6c0.3-0.1,0.6-0.3,0.9,0c1.4,1.5,2.9,2.9,4.5,4.5H71.1
			c-2.1,0-3,0.6-3,2c0,1.3,0.9,1.9,3,1.9h50.3c2.8,0,2.8,0,2.8,2.9c0,1.1-0.2,1.4-1.3,1.4c-21.3,0-42.6,0-63.8,0
			c-3.3,0-3.3,0-3.2-3.4c0-0.7,0.2-0.9,0.9-0.8c1.7,0,3.3,0,5,0c1.3,0,2.2-0.8,2.1-1.9c0-1.1-0.9-1.9-2.2-1.9c-1.9,0-3.7,0-5.6,0
			c-2.3,0-3.9,1.7-4,3.9c0,1,0,2,0,3c0,3.5,1.4,4.9,4.9,4.9c22.1,0,44.1,0,66.2,0c0.5,0,1.1,0,1.6-0.1c1.8-0.3,3.1-1.8,3.2-3.6
			c0-1.2-0.1-2.3,0-3.5C128.3,110.3,125.8,108.7,123.3,108.8z M18.1,37.1c-0.8,0.7-1.5,1.5-2.3,2.3c-1.8-1.8-3.5-3.6-5.3-5.4
			c-0.4-0.4-0.4-0.7,0-1c0,0,0.1-0.1,0.1-0.1c0.8-0.7,1.5-2,2.3-2.1c0.9-0.1,1.6,1.3,2.3,2c1,0.9,1.8,1.9,2.8,2.8
			C18.8,36.3,18.7,36.6,18.1,37.1z M38.6,61.8c-0.8,0.1-1.5-1.2-2.3-2C30.7,54.2,25.1,48.6,19.5,43c-0.7-0.7-1-1.2,0-1.9
			c0.6-0.4,1.1-1,1.6-1.6c0.1-0.1,0.3-0.3,0.5-0.4c0.2,0.2,0.4,0.4,0.6,0.5c6.2,6.2,12.5,12.5,18.7,18.7c0.6,0.6,0.5,0.9-0.1,1.4
			C40.1,60.4,39.4,61.7,38.6,61.8z M58.9,87c-0.5,0.5-0.7,0.5-1.2,0c-0.6-0.6-1.2-1.3-1.8-1.8c-0.5-0.5-0.4-0.7,0-1.2
			c2.5-2.5,5-5,7.5-7.5c0.4-0.4,0.6-0.5,1.1-0.1c0.8,0.8,1.7,1.6,2.5,2.4C64.3,81.6,61.6,84.3,58.9,87z M67.6,89.6
			c-0.6,0.8-1,0.6-1.6-0.1c-0.6-0.8-1.4-1.4-2.1-2.2c0.8-0.9,1.7-1.7,2.5-2.6c0.1-0.1,0.2-0.2,0.4-0.3c0.2,0.2,0.5,0.4,0.7,0.6
			c0.7,0.7,1.9,1.4,2,2.3C69.7,88.2,68.2,88.8,67.6,89.6z M80.3,98.6c0,1-0.4,1.6-1.2,2c-0.9,0.4-1.7,0.3-2.3-0.3
			c-2.3-2.2-4.5-4.5-6.8-6.8c-0.4-0.4-0.3-0.6,0-0.9c0,0,0.1-0.1,0.1-0.1c0.8-0.8,1.6-2,2.4-2.1c0.7-0.1,1.5,1.3,2.3,2
			c1.5,1.5,3.1,3.1,4.6,4.6C79.9,97.5,80.3,98,80.3,98.6z"/>
		<path d="M100,76.1c0,1.3-0.5,2.8-1.5,4.1c-0.4,0.5-0.8,1-1.3,1.5c-1.7,2-1.7,3.9,0,5.9c1.1,1.2,2.1,2.5,2.5,4.1
			c0.6,2.8,0,5.2-1.9,7.3c-1,1.1-1.9,2.2-1.9,3.9c0,1-1,1.7-2,1.6c-1-0.1-1.7-0.8-1.8-1.9c-0.1-1.9,0.6-3.5,1.7-4.9
			c0.3-0.4,0.7-0.8,1.1-1.2c1.6-1.9,1.6-3.9-0.1-5.7c-2.3-2.5-3.3-5.2-2.4-8.5c0.4-1.4,1.4-2.5,2.3-3.6c1.8-2.1,1.8-3.9,0-6
			c-1.3-1.5-1.4-2.6-0.4-3.4c1-0.9,2-0.5,3.3,1C99.3,72,100,73.6,100,76.1z"/>
		<path d="M84.1,84.7c0-3.7,1.2-7,3.5-9.9c0.9-1.1,2-1.3,2.9-0.6c0.9,0.7,1,1.8,0.1,3c-3.6,4.9-3.6,10.2,0,15.1
			c0.9,1.2,0.9,2.2-0.1,3c-0.9,0.7-2,0.5-3-0.7C85.3,91.7,84.1,88.3,84.1,84.7z"/>
		<path d="M105.2,76.8c1.8,0,2.7,1.1,2.4,2.3c-0.4,1.8-1,3.4-2,4.9c-0.3,0.5-0.3,0.8,0,1.3c2.2,3.4,2.8,7.2,2.2,11.2
			c-0.2,1.4-1,2.1-2.2,2c-1.2-0.1-1.8-1-1.5-2.5c0.6-3.7-0.2-7.1-2.6-10c-0.7-0.9-0.7-1.8,0-2.7c1.2-1.4,2-3,2.4-4.8
			C104.1,77.5,104.6,76.8,105.2,76.8z"/>
	</g>
</g>
</svg>
