<?xml version="1.0" encoding="utf-8"?>
<!-- Generator: Adobe Illustrator 27.9.0, SVG Export Plug-In . SVG Version: 6.00 Build 0)  -->
<svg version="1.1" id="Layer_1" xmlns="http://www.w3.org/2000/svg" xmlns:xlink="http://www.w3.org/1999/xlink" x="0px" y="0px"
	 viewBox="0 0 128 128" style="enable-background:new 0 0 128 128;" xml:space="preserve">
<g>
	<path d="M51.37,55.8c-1.7-3.59-3.27-7.25-4.73-10.93c-1.12-2.8-2.13-5.66-2.41-8.71c-0.52-5.62,0.58-11.08,2.09-16.46
		c1.07-3.77,2.54-7.44,4.13-11.03c0.45-0.99,0.36-1.87-0.47-2.62c-0.86-0.77-1.81-0.69-2.77-0.19C47,5.98,46.81,6.15,46.59,6.28
		c-3.91,2.54-7.61,5.36-11.19,8.33c-7.01,5.83-13.34,12.28-18.31,19.98c-1.48,2.3-2.73,4.73-3.91,7.21
		c-1.87-2.58-2.15-5.4-1.94-8.37c0.11-1.44-0.5-2.28-1.68-2.52c-1.21-0.22-1.94,0.43-2.49,1.44c-3.16,6.07-5.33,12.46-6.37,19.23
		C0.49,52.9,0.6,54.29,0,55.54v1.23c0.15,0.17,0.15,0.34,0,0.5v0.75c0.21,1.92,0.21,3.83,0,5.76v2.24c0.49,0.37,0.21,0.92,0.28,1.38
		c1.87,11.08,7.96,18.72,18.48,22.76c0.92,0.36,1.78,0.37,2.56-0.3c0.82-0.69,0.82-1.61,0.6-2.52c-0.41-1.74-0.86-3.46-1.31-5.18
		c-1.05-3.85-2.11-7.72-1.12-11.75c0.64-2.62,1.63-5.12,4.5-5.91c2.11-0.56,4.34-0.78,6.52-0.11c4.77,1.49,8.33,8.07,7.12,13.1
		c-0.71,2.97-1.42,5.96-2.07,8.95c-0.24,1.05-0.26,2.13,0.8,2.78c1.08,0.65,2.02,0.28,2.97-0.41c5.18-3.7,8.93-8.56,11.53-14.3
		C53.63,68.39,54.4,62.15,51.37,55.8z M48.96,65.48c-0.58,4.58-2.32,8.71-4.97,12.46c-0.56,0.82-1.2,1.59-1.79,2.39
		c-0.21,0.26-0.39,0.56-0.93,0.36c1.31-3.51,1.29-7.1-0.04-10.6c-1.96-5.12-5.12-9.19-10.82-10.13c-3.94-0.64-8.02-0.58-11.29,2.45
		c-2.5,2.32-3.55,5.31-4.13,8.58c-0.78,4.49,0.56,8.71,1.59,12.99c0.04,0.15,0.07,0.3,0.15,0.6c-6.8-4.04-10.97-9.74-12.02-17.51
		c-1.12-8.5-0.02-16.8,2.78-24.89c0.09-0.26,0.22-0.52,0.36-0.88c1.05,2.43,2.54,4.37,4.71,5.76c1.51,0.95,2.95,0.67,3.57-0.95
		c4.58-12.17,13.38-20.95,23.06-29.04c1.36-1.14,2.78-2.19,4.35-3.4c-0.09,1.36-0.6,2.37-0.93,3.42c-1.68,5.25-2.73,10.6-2.84,16.11
		c-0.11,4.93,1.42,9.46,3.1,13.98c1.23,3.31,3.05,6.35,4.3,9.64C48.23,59.59,49.35,62.4,48.96,65.48z"/>
	<path d="M0,58.03c0.4,1.92,0.41,3.83,0,5.75C0,61.86,0,59.94,0,58.03z"/>
	<path d="M0,56.78c0.35,0.17,0.28,0.33,0,0.5C0,57.11,0,56.95,0,56.78z"/>
	<path d="M125.82,51.78c-2.19-2.02-5.1-2.17-8.17-0.39C99.75,61.7,81.87,72.04,63.99,82.37c-9.19,5.31-18.39,10.61-27.6,15.9
		c-0.37,0.22-0.71,0.82-1.27,0.22c-0.78-0.86-1.76-0.8-2.75-0.39c-0.8,0.32-1.63,0.62-2.45,0.92c-3.16,1.2-6.45,2.17-9.47,3.66
		c-4.34,2.15-6.3,7.31-4.99,12.15c1.23,4.56,5.48,7.74,10.26,7.68c2.15,0.06,4.17-0.47,5.83-1.78c3.25-2.54,6.39-5.21,9.57-7.83
		c0.64-0.54,1.21-1.23,0.97-2.04c-0.28-0.99,0.28-1.2,0.9-1.55c24.18-13.96,48.36-27.9,72.54-41.86c3.2-1.85,6.45-3.61,9.55-5.62
		C128.68,59.5,128.98,54.66,125.82,51.78z M36.48,111.13c-2.43,1.94-4.82,3.94-7.23,5.92c-1.05,0.86-2.28,1.12-3.31,1.2
		c-3.2,0-5.94-2.22-6.45-5.01c-0.6-3.23,0.93-6.05,3.92-7.18c2.75-1.03,5.51-2.02,8.24-3.08c0.69-0.26,1.07-0.26,1.48,0.47
		c1.14,2.11,2.35,4.19,3.59,6.24C37.09,110.31,37.08,110.66,36.48,111.13z M123.04,57.99c-0.32,0.32-0.73,0.54-1.12,0.77
		c-27.04,15.62-54.08,31.23-81.1,46.85c-0.88,0.5-1.33,0.52-1.76-0.43c-0.39-0.88-1.35-1.78-1.21-2.5c0.13-0.77,1.46-1.05,2.28-1.51
		l79.5-45.91c0.62-0.34,1.2-0.77,1.94-0.73c0.9-0.04,1.51,0.41,1.89,1.18C123.86,56.53,123.65,57.33,123.04,57.99z"/>
</g>
</svg>
