<?xml version="1.0" encoding="utf-8"?>
<!-- Generator: Adobe Illustrator 27.9.0, SVG Export Plug-In . SVG Version: 6.00 Build 0)  -->
<svg version="1.1" id="Layer_1" xmlns="http://www.w3.org/2000/svg" xmlns:xlink="http://www.w3.org/1999/xlink" x="0px" y="0px"
	 viewBox="0 0 128 128" style="enable-background:new 0 0 128 128;" xml:space="preserve">
<g>
	<path d="M63.82,46.86c-18.77,0.09-33.96,15.31-33.91,33.91c0.07,19.37,15.14,34.43,34.38,34.38c18.58-0.06,33.83-15.38,33.78-33.93
		C97.99,61.9,82.89,46.74,63.82,46.86z M39.48,96.69c-0.62,0.47-0.73,0.06-0.97-0.36c-2.43-3.95-3.8-8.27-4.19-12.87
		c-1.1-12.52,6.01-24.51,17.5-29.7c11.43-5.13,25.02-2.45,33.7,6.59c0.88,0.92,0.77,1.29-0.21,2c-4.08,2.96-8.07,6.01-12.09,9.02
		c-0.28,0.21-0.49,0.66-0.95,0.37c-0.54-0.32-0.17-0.71-0.06-1.09c0.51-1.91,0.49-3.8-0.32-5.61c-0.3-0.67-0.11-0.94,0.41-1.25
		c1.07-0.65,2.1-1.35,3.12-2.04c1.35-0.9,1.72-2.06,1.05-3.16c-0.71-1.14-1.98-1.35-3.35-0.47c-1.27,0.79-2.53,1.59-3.76,2.45
		c-0.51,0.36-0.88,0.37-1.44,0.07c-2.6-1.35-5.26-1.35-7.86,0.02c-0.58,0.3-0.94,0.24-1.44-0.11c-1.2-0.82-2.43-1.59-3.65-2.38
		c-1.38-0.9-2.64-0.77-3.39,0.32c-0.75,1.07-0.36,2.36,0.99,3.26c1.07,0.71,2.13,1.42,3.24,2.11c0.45,0.28,0.58,0.54,0.34,1.09
		c-0.86,1.89-0.9,3.85-0.3,5.82c0.17,0.54,0.11,0.8-0.3,1.16c-1.12,0.92-1.83,2.11-2.1,3.57c-0.24,1.25-0.8,1.55-2.02,1.01
		c-1.07-0.47-2.08-1.03-3.11-1.53c-1.48-0.73-2.71-0.41-3.31,0.8c-0.6,1.22-0.09,2.34,1.4,3.11c1.1,0.56,2.25,1.07,3.33,1.67
		c0.84,0.47,1.74,0.49,2.66,0.45c0.6-0.04,0.86,0.09,0.9,0.8c0.13,3.39,0.17,3.39-3.26,3.39c-1.63,0-3.26-0.02-4.87,0
		c-1.55,0.02-2.51,0.86-2.51,2.17s0.92,2.15,2.49,2.21c1.12,0.02,2.25,0,3.37,0c0.02,0.07,0.06,0.17,0.07,0.24
		C45.56,92.1,42.51,94.39,39.48,96.69z M66.2,92.01c0-0.97-0.32-1.8-1.23-2.28c-0.77-0.41-1.52-0.32-2.23,0.19
		c-0.79,0.56-0.95,1.4-0.94,2.3c0,2.88-0.02,5.74,0,8.63c0.02,0.82-0.15,1.09-0.94,0.6c-1.82-1.1-3.03-2.64-3.12-4.79
		c-0.13-2.54-0.06-5.09-0.07-7.62c-0.02-0.41,0.13-0.69,0.47-0.94c3.99-2.98,7.97-5.97,12.2-9.15V91.2c0,1.7,0.02,3.41-0.04,5.11
		c-0.09,2.21-1.23,3.82-3.03,5.01c-0.73,0.51-1.1,0.54-1.09-0.58C66.24,97.85,66.2,94.93,66.2,92.01z M58.27,75.3
		c0.92-0.77,1.37,0.34,1.96,0.6c1.93,0.88,3.89,0.97,6.21,0.54c-2.99,2.25-5.76,4.34-8.65,6.51c-0.26-1.01-0.09-1.93-0.13-2.84
		c-0.02-0.82-0.02-1.67,0-2.49S57.52,75.92,58.27,75.3z M59.74,68.15c0.04-2.25,1.96-4.19,4.23-4.21c2.3-0.02,4.3,2,4.27,4.3
		c-0.02,2.32-2.02,4.25-4.34,4.19C61.62,72.38,59.73,70.43,59.74,68.15z M73.25,109.3c-11.17,3.93-24.53,0.06-31.68-8.79
		c3.84-2.88,7.67-5.74,11.62-8.7c0.24,2.06-0.06,3.95,0.28,5.84c0.84,4.9,4.79,8.55,9.79,8.96c4.68,0.39,9.23-2.62,10.82-7.17
		c0.47-1.37,1.31-1.74,2.68-1.1c1.01,0.47,2,1.01,2.99,1.5c1.38,0.67,2.62,0.36,3.22-0.82c0.6-1.16,0.15-2.32-1.27-3.05
		c-1.2-0.64-2.43-1.22-3.67-1.83c-0.56-0.28-1.16-0.51-1.8-0.39c-1.37,0.22-1.59-0.39-1.55-1.63c0.11-2.53,0.04-2.53,2.53-2.53
		c1.78,0,3.57,0.02,5.35,0c1.78-0.02,2.77-0.82,2.77-2.19c0-1.38-0.99-2.19-2.75-2.19c-2.32,0-4.66-0.04-6.98,0.02
		c-0.71,0.02-0.99-0.21-0.88-0.9c0.04-0.24,0-0.51,0-0.75c0.02-0.79-0.22-1.74,0.13-2.32c0.36-0.6,1.38-0.07,2.1-0.28
		c2.06-0.56,3.93-1.55,5.63-2.79c0.86-0.62,0.86-1.65,0.28-2.58c-0.56-0.9-1.68-1.27-2.73-0.8c-1.07,0.47-2.08,1.05-3.11,1.55
		c-0.37,0.19-0.73,0.43-1.18,0.34c-0.37-0.07-0.88,0.28-1.1-0.24c-0.24-0.56,0.15-0.9,0.56-1.22c2.81-2.08,5.6-4.19,8.38-6.27
		c1.53-1.16,3.09-2.26,4.58-3.46c0.64-0.51,0.9-0.45,1.31,0.26c3.39,5.84,4.87,12.07,3.93,18.77
		C91.78,96.84,84.93,105.18,73.25,109.3z M103.51,32.77c-0.8-1.03-2.11-1.09-3.31-0.13c-1.68,1.33-3.39,2.68-5.05,4.04
		c-1.31,1.09-2.77,1.63-4.45,1.63H37.25c-1.7,0-3.14-0.58-4.43-1.65c-1.63-1.37-3.31-2.68-4.96-3.99c-1.27-1.01-2.58-0.95-3.41,0.13
		c-0.79,1.03-0.54,2.25,0.69,3.24c1.61,1.31,3.26,2.58,4.87,3.91c2.3,1.91,4.94,2.75,7.92,2.75c8.7-0.04,17.4-0.02,26.1-0.02
		c8.74,0,17.48-0.02,26.22,0c2.81,0.02,5.31-0.77,7.49-2.54c1.72-1.38,3.44-2.75,5.16-4.14C104.09,35.03,104.32,33.78,103.51,32.77z
		 M104.78,21.59c-1.18-3.31-2.38-6.61-3.59-9.92c-0.79-2.19-2.21-3.18-4.51-3.18H74.98c-2.71,0-4.55,1.63-4.62,4.32
		c-0.09,3.54-0.09,7.07,0,10.61c0.07,2.69,1.91,4.29,4.64,4.29c4.25,0.02,8.48,0,12.72,0h12.72
		C104.06,27.71,105.98,24.98,104.78,21.59z M99.62,23.47c-3.95-0.07-7.9-0.02-11.86-0.02c-3.99,0-7.99-0.02-11.98,0
		c-0.75,0.02-1.1-0.07-1.09-0.97c0.06-2.92,0.04-5.82,0-8.74c-0.02-0.79,0.24-0.95,0.99-0.95c6.77,0.02,13.57,0.02,20.34,0
		c0.77-0.02,1.09,0.24,1.33,0.94c0.99,2.86,2.02,5.69,3.11,8.51C100.82,23.17,100.76,23.48,99.62,23.47z M104.78,21.59
		c-1.18-3.31-2.38-6.61-3.59-9.92c-0.79-2.19-2.21-3.18-4.51-3.18H74.98c-2.71,0-4.55,1.63-4.62,4.32c-0.09,3.54-0.09,7.07,0,10.61
		c0.07,2.69,1.91,4.29,4.64,4.29c4.25,0.02,8.48,0,12.72,0h12.72C104.06,27.71,105.98,24.98,104.78,21.59z M99.62,23.47
		c-3.95-0.07-7.9-0.02-11.86-0.02c-3.99,0-7.99-0.02-11.98,0c-0.75,0.02-1.1-0.07-1.09-0.97c0.06-2.92,0.04-5.82,0-8.74
		c-0.02-0.79,0.24-0.95,0.99-0.95c6.77,0.02,13.57,0.02,20.34,0c0.77-0.02,1.09,0.24,1.33,0.94c0.99,2.86,2.02,5.69,3.11,8.51
		C100.82,23.17,100.76,23.48,99.62,23.47z M103.51,32.77c-0.8-1.03-2.11-1.09-3.31-0.13c-1.68,1.33-3.39,2.68-5.05,4.04
		c-1.31,1.09-2.77,1.63-4.45,1.63H37.25c-1.7,0-3.14-0.58-4.43-1.65c-1.63-1.37-3.31-2.68-4.96-3.99c-1.27-1.01-2.58-0.95-3.41,0.13
		c-0.79,1.03-0.54,2.25,0.69,3.24c1.61,1.31,3.26,2.58,4.87,3.91c2.3,1.91,4.94,2.75,7.92,2.75c8.7-0.04,17.4-0.02,26.1-0.02
		c8.74,0,17.48-0.02,26.22,0c2.81,0.02,5.31-0.77,7.49-2.54c1.72-1.38,3.44-2.75,5.16-4.14C104.09,35.03,104.32,33.78,103.51,32.77z
		 M63.82,46.86c-18.77,0.09-33.96,15.31-33.91,33.91c0.07,19.37,15.14,34.43,34.38,34.38c18.58-0.06,33.83-15.38,33.78-33.93
		C97.99,61.9,82.89,46.74,63.82,46.86z M39.48,96.69c-0.62,0.47-0.73,0.06-0.97-0.36c-2.43-3.95-3.8-8.27-4.19-12.87
		c-1.1-12.52,6.01-24.51,17.5-29.7c11.43-5.13,25.02-2.45,33.7,6.59c0.88,0.92,0.77,1.29-0.21,2c-4.08,2.96-8.07,6.01-12.09,9.02
		c-0.28,0.21-0.49,0.66-0.95,0.37c-0.54-0.32-0.17-0.71-0.06-1.09c0.51-1.91,0.49-3.8-0.32-5.61c-0.3-0.67-0.11-0.94,0.41-1.25
		c1.07-0.65,2.1-1.35,3.12-2.04c1.35-0.9,1.72-2.06,1.05-3.16c-0.71-1.14-1.98-1.35-3.35-0.47c-1.27,0.79-2.53,1.59-3.76,2.45
		c-0.51,0.36-0.88,0.37-1.44,0.07c-2.6-1.35-5.26-1.35-7.86,0.02c-0.58,0.3-0.94,0.24-1.44-0.11c-1.2-0.82-2.43-1.59-3.65-2.38
		c-1.38-0.9-2.64-0.77-3.39,0.32c-0.75,1.07-0.36,2.36,0.99,3.26c1.07,0.71,2.13,1.42,3.24,2.11c0.45,0.28,0.58,0.54,0.34,1.09
		c-0.86,1.89-0.9,3.85-0.3,5.82c0.17,0.54,0.11,0.8-0.3,1.16c-1.12,0.92-1.83,2.11-2.1,3.57c-0.24,1.25-0.8,1.55-2.02,1.01
		c-1.07-0.47-2.08-1.03-3.11-1.53c-1.48-0.73-2.71-0.41-3.31,0.8c-0.6,1.22-0.09,2.34,1.4,3.11c1.1,0.56,2.25,1.07,3.33,1.67
		c0.84,0.47,1.74,0.49,2.66,0.45c0.6-0.04,0.86,0.09,0.9,0.8c0.13,3.39,0.17,3.39-3.26,3.39c-1.63,0-3.26-0.02-4.87,0
		c-1.55,0.02-2.51,0.86-2.51,2.17s0.92,2.15,2.49,2.21c1.12,0.02,2.25,0,3.37,0c0.02,0.07,0.06,0.17,0.07,0.24
		C45.56,92.1,42.51,94.39,39.48,96.69z M66.2,92.01c0-0.97-0.32-1.8-1.23-2.28c-0.77-0.41-1.52-0.32-2.23,0.19
		c-0.79,0.56-0.95,1.4-0.94,2.3c0,2.88-0.02,5.74,0,8.63c0.02,0.82-0.15,1.09-0.94,0.6c-1.82-1.1-3.03-2.64-3.12-4.79
		c-0.13-2.54-0.06-5.09-0.07-7.62c-0.02-0.41,0.13-0.69,0.47-0.94c3.99-2.98,7.97-5.97,12.2-9.15V91.2c0,1.7,0.02,3.41-0.04,5.11
		c-0.09,2.21-1.23,3.82-3.03,5.01c-0.73,0.51-1.1,0.54-1.09-0.58C66.24,97.85,66.2,94.93,66.2,92.01z M58.27,75.3
		c0.92-0.77,1.37,0.34,1.96,0.6c1.93,0.88,3.89,0.97,6.21,0.54c-2.99,2.25-5.76,4.34-8.65,6.51c-0.26-1.01-0.09-1.93-0.13-2.84
		c-0.02-0.82-0.02-1.67,0-2.49S57.52,75.92,58.27,75.3z M59.74,68.15c0.04-2.25,1.96-4.19,4.23-4.21c2.3-0.02,4.3,2,4.27,4.3
		c-0.02,2.32-2.02,4.25-4.34,4.19C61.62,72.38,59.73,70.43,59.74,68.15z M73.25,109.3c-11.17,3.93-24.53,0.06-31.68-8.79
		c3.84-2.88,7.67-5.74,11.62-8.7c0.24,2.06-0.06,3.95,0.28,5.84c0.84,4.9,4.79,8.55,9.79,8.96c4.68,0.39,9.23-2.62,10.82-7.17
		c0.47-1.37,1.31-1.74,2.68-1.1c1.01,0.47,2,1.01,2.99,1.5c1.38,0.67,2.62,0.36,3.22-0.82c0.6-1.16,0.15-2.32-1.27-3.05
		c-1.2-0.64-2.43-1.22-3.67-1.83c-0.56-0.28-1.16-0.51-1.8-0.39c-1.37,0.22-1.59-0.39-1.55-1.63c0.11-2.53,0.04-2.53,2.53-2.53
		c1.78,0,3.57,0.02,5.35,0c1.78-0.02,2.77-0.82,2.77-2.19c0-1.38-0.99-2.19-2.75-2.19c-2.32,0-4.66-0.04-6.98,0.02
		c-0.71,0.02-0.99-0.21-0.88-0.9c0.04-0.24,0-0.51,0-0.75c0.02-0.79-0.22-1.74,0.13-2.32c0.36-0.6,1.38-0.07,2.1-0.28
		c2.06-0.56,3.93-1.55,5.63-2.79c0.86-0.62,0.86-1.65,0.28-2.58c-0.56-0.9-1.68-1.27-2.73-0.8c-1.07,0.47-2.08,1.05-3.11,1.55
		c-0.37,0.19-0.73,0.43-1.18,0.34c-0.37-0.07-0.88,0.28-1.1-0.24c-0.24-0.56,0.15-0.9,0.56-1.22c2.81-2.08,5.6-4.19,8.38-6.27
		c1.53-1.16,3.09-2.26,4.58-3.46c0.64-0.51,0.9-0.45,1.31,0.26c3.39,5.84,4.87,12.07,3.93,18.77
		C91.78,96.84,84.93,105.18,73.25,109.3z M63.82,46.86c-18.77,0.09-33.96,15.31-33.91,33.91c0.07,19.37,15.14,34.43,34.38,34.38
		c18.58-0.06,33.83-15.38,33.78-33.93C97.99,61.9,82.89,46.74,63.82,46.86z M39.48,96.69c-0.62,0.47-0.73,0.06-0.97-0.36
		c-2.43-3.95-3.8-8.27-4.19-12.87c-1.1-12.52,6.01-24.51,17.5-29.7c11.43-5.13,25.02-2.45,33.7,6.59c0.88,0.92,0.77,1.29-0.21,2
		c-4.08,2.96-8.07,6.01-12.09,9.02c-0.28,0.21-0.49,0.66-0.95,0.37c-0.54-0.32-0.17-0.71-0.06-1.09c0.51-1.91,0.49-3.8-0.32-5.61
		c-0.3-0.67-0.11-0.94,0.41-1.25c1.07-0.65,2.1-1.35,3.12-2.04c1.35-0.9,1.72-2.06,1.05-3.16c-0.71-1.14-1.98-1.35-3.35-0.47
		c-1.27,0.79-2.53,1.59-3.76,2.45c-0.51,0.36-0.88,0.37-1.44,0.07c-2.6-1.35-5.26-1.35-7.86,0.02c-0.58,0.3-0.94,0.24-1.44-0.11
		c-1.2-0.82-2.43-1.59-3.65-2.38c-1.38-0.9-2.64-0.77-3.39,0.32c-0.75,1.07-0.36,2.36,0.99,3.26c1.07,0.71,2.13,1.42,3.24,2.11
		c0.45,0.28,0.58,0.54,0.34,1.09c-0.86,1.89-0.9,3.85-0.3,5.82c0.17,0.54,0.11,0.8-0.3,1.16c-1.12,0.92-1.83,2.11-2.1,3.57
		c-0.24,1.25-0.8,1.55-2.02,1.01c-1.07-0.47-2.08-1.03-3.11-1.53c-1.48-0.73-2.71-0.41-3.31,0.8c-0.6,1.22-0.09,2.34,1.4,3.11
		c1.1,0.56,2.25,1.07,3.33,1.67c0.84,0.47,1.74,0.49,2.66,0.45c0.6-0.04,0.86,0.09,0.9,0.8c0.13,3.39,0.17,3.39-3.26,3.39
		c-1.63,0-3.26-0.02-4.87,0c-1.55,0.02-2.51,0.86-2.51,2.17s0.92,2.15,2.49,2.21c1.12,0.02,2.25,0,3.37,0
		c0.02,0.07,0.06,0.17,0.07,0.24C45.56,92.1,42.51,94.39,39.48,96.69z M66.2,92.01c0-0.97-0.32-1.8-1.23-2.28
		c-0.77-0.41-1.52-0.32-2.23,0.19c-0.79,0.56-0.95,1.4-0.94,2.3c0,2.88-0.02,5.74,0,8.63c0.02,0.82-0.15,1.09-0.94,0.6
		c-1.82-1.1-3.03-2.64-3.12-4.79c-0.13-2.54-0.06-5.09-0.07-7.62c-0.02-0.41,0.13-0.69,0.47-0.94c3.99-2.98,7.97-5.97,12.2-9.15
		V91.2c0,1.7,0.02,3.41-0.04,5.11c-0.09,2.21-1.23,3.82-3.03,5.01c-0.73,0.51-1.1,0.54-1.09-0.58C66.24,97.85,66.2,94.93,66.2,92.01
		z M58.27,75.3c0.92-0.77,1.37,0.34,1.96,0.6c1.93,0.88,3.89,0.97,6.21,0.54c-2.99,2.25-5.76,4.34-8.65,6.51
		c-0.26-1.01-0.09-1.93-0.13-2.84c-0.02-0.82-0.02-1.67,0-2.49S57.52,75.92,58.27,75.3z M59.74,68.15c0.04-2.25,1.96-4.19,4.23-4.21
		c2.3-0.02,4.3,2,4.27,4.3c-0.02,2.32-2.02,4.25-4.34,4.19C61.62,72.38,59.73,70.43,59.74,68.15z M73.25,109.3
		c-11.17,3.93-24.53,0.06-31.68-8.79c3.84-2.88,7.67-5.74,11.62-8.7c0.24,2.06-0.06,3.95,0.28,5.84c0.84,4.9,4.79,8.55,9.79,8.96
		c4.68,0.39,9.23-2.62,10.82-7.17c0.47-1.37,1.31-1.74,2.68-1.1c1.01,0.47,2,1.01,2.99,1.5c1.38,0.67,2.62,0.36,3.22-0.82
		c0.6-1.16,0.15-2.32-1.27-3.05c-1.2-0.64-2.43-1.22-3.67-1.83c-0.56-0.28-1.16-0.51-1.8-0.39c-1.37,0.22-1.59-0.39-1.55-1.63
		c0.11-2.53,0.04-2.53,2.53-2.53c1.78,0,3.57,0.02,5.35,0c1.78-0.02,2.77-0.82,2.77-2.19c0-1.38-0.99-2.19-2.75-2.19
		c-2.32,0-4.66-0.04-6.98,0.02c-0.71,0.02-0.99-0.21-0.88-0.9c0.04-0.24,0-0.51,0-0.75c0.02-0.79-0.22-1.74,0.13-2.32
		c0.36-0.6,1.38-0.07,2.1-0.28c2.06-0.56,3.93-1.55,5.63-2.79c0.86-0.62,0.86-1.65,0.28-2.58c-0.56-0.9-1.68-1.27-2.73-0.8
		c-1.07,0.47-2.08,1.05-3.11,1.55c-0.37,0.19-0.73,0.43-1.18,0.34c-0.37-0.07-0.88,0.28-1.1-0.24c-0.24-0.56,0.15-0.9,0.56-1.22
		c2.81-2.08,5.6-4.19,8.38-6.27c1.53-1.16,3.09-2.26,4.58-3.46c0.64-0.51,0.9-0.45,1.31,0.26c3.39,5.84,4.87,12.07,3.93,18.77
		C91.78,96.84,84.93,105.18,73.25,109.3z M103.51,32.77c-0.8-1.03-2.11-1.09-3.31-0.13c-1.68,1.33-3.39,2.68-5.05,4.04
		c-1.31,1.09-2.77,1.63-4.45,1.63H37.25c-1.7,0-3.14-0.58-4.43-1.65c-1.63-1.37-3.31-2.68-4.96-3.99c-1.27-1.01-2.58-0.95-3.41,0.13
		c-0.79,1.03-0.54,2.25,0.69,3.24c1.61,1.31,3.26,2.58,4.87,3.91c2.3,1.91,4.94,2.75,7.92,2.75c8.7-0.04,17.4-0.02,26.1-0.02
		c8.74,0,17.48-0.02,26.22,0c2.81,0.02,5.31-0.77,7.49-2.54c1.72-1.38,3.44-2.75,5.16-4.14C104.09,35.03,104.32,33.78,103.51,32.77z
		 M104.78,21.59c-1.18-3.31-2.38-6.61-3.59-9.92c-0.79-2.19-2.21-3.18-4.51-3.18H74.98c-2.71,0-4.55,1.63-4.62,4.32
		c-0.09,3.54-0.09,7.07,0,10.61c0.07,2.69,1.91,4.29,4.64,4.29c4.25,0.02,8.48,0,12.72,0h12.72
		C104.06,27.71,105.98,24.98,104.78,21.59z M99.62,23.47c-3.95-0.07-7.9-0.02-11.86-0.02c-3.99,0-7.99-0.02-11.98,0
		c-0.75,0.02-1.1-0.07-1.09-0.97c0.06-2.92,0.04-5.82,0-8.74c-0.02-0.79,0.24-0.95,0.99-0.95c6.77,0.02,13.57,0.02,20.34,0
		c0.77-0.02,1.09,0.24,1.33,0.94c0.99,2.86,2.02,5.69,3.11,8.51C100.82,23.17,100.76,23.48,99.62,23.47z M104.78,21.59
		c-1.18-3.31-2.38-6.61-3.59-9.92c-0.79-2.19-2.21-3.18-4.51-3.18H74.98c-2.71,0-4.55,1.63-4.62,4.32c-0.09,3.54-0.09,7.07,0,10.61
		c0.07,2.69,1.91,4.29,4.64,4.29c4.25,0.02,8.48,0,12.72,0h12.72C104.06,27.71,105.98,24.98,104.78,21.59z M99.62,23.47
		c-3.95-0.07-7.9-0.02-11.86-0.02c-3.99,0-7.99-0.02-11.98,0c-0.75,0.02-1.1-0.07-1.09-0.97c0.06-2.92,0.04-5.82,0-8.74
		c-0.02-0.79,0.24-0.95,0.99-0.95c6.77,0.02,13.57,0.02,20.34,0c0.77-0.02,1.09,0.24,1.33,0.94c0.99,2.86,2.02,5.69,3.11,8.51
		C100.82,23.17,100.76,23.48,99.62,23.47z M103.51,32.77c-0.8-1.03-2.11-1.09-3.31-0.13c-1.68,1.33-3.39,2.68-5.05,4.04
		c-1.31,1.09-2.77,1.63-4.45,1.63H37.25c-1.7,0-3.14-0.58-4.43-1.65c-1.63-1.37-3.31-2.68-4.96-3.99c-1.27-1.01-2.58-0.95-3.41,0.13
		c-0.79,1.03-0.54,2.25,0.69,3.24c1.61,1.31,3.26,2.58,4.87,3.91c2.3,1.91,4.94,2.75,7.92,2.75c8.7-0.04,17.4-0.02,26.1-0.02
		c8.74,0,17.48-0.02,26.22,0c2.81,0.02,5.31-0.77,7.49-2.54c1.72-1.38,3.44-2.75,5.16-4.14C104.09,35.03,104.32,33.78,103.51,32.77z
		 M63.82,46.86c-18.77,0.09-33.96,15.31-33.91,33.91c0.07,19.37,15.14,34.43,34.38,34.38c18.58-0.06,33.83-15.38,33.78-33.93
		C97.99,61.9,82.89,46.74,63.82,46.86z M39.48,96.69c-0.62,0.47-0.73,0.06-0.97-0.36c-2.43-3.95-3.8-8.27-4.19-12.87
		c-1.1-12.52,6.01-24.51,17.5-29.7c11.43-5.13,25.02-2.45,33.7,6.59c0.88,0.92,0.77,1.29-0.21,2c-4.08,2.96-8.07,6.01-12.09,9.02
		c-0.28,0.21-0.49,0.66-0.95,0.37c-0.54-0.32-0.17-0.71-0.06-1.09c0.51-1.91,0.49-3.8-0.32-5.61c-0.3-0.67-0.11-0.94,0.41-1.25
		c1.07-0.65,2.1-1.35,3.12-2.04c1.35-0.9,1.72-2.06,1.05-3.16c-0.71-1.14-1.98-1.35-3.35-0.47c-1.27,0.79-2.53,1.59-3.76,2.45
		c-0.51,0.36-0.88,0.37-1.44,0.07c-2.6-1.35-5.26-1.35-7.86,0.02c-0.58,0.3-0.94,0.24-1.44-0.11c-1.2-0.82-2.43-1.59-3.65-2.38
		c-1.38-0.9-2.64-0.77-3.39,0.32c-0.75,1.07-0.36,2.36,0.99,3.26c1.07,0.71,2.13,1.42,3.24,2.11c0.45,0.28,0.58,0.54,0.34,1.09
		c-0.86,1.89-0.9,3.85-0.3,5.82c0.17,0.54,0.11,0.8-0.3,1.16c-1.12,0.92-1.83,2.11-2.1,3.57c-0.24,1.25-0.8,1.55-2.02,1.01
		c-1.07-0.47-2.08-1.03-3.11-1.53c-1.48-0.73-2.71-0.41-3.31,0.8c-0.6,1.22-0.09,2.34,1.4,3.11c1.1,0.56,2.25,1.07,3.33,1.67
		c0.84,0.47,1.74,0.49,2.66,0.45c0.6-0.04,0.86,0.09,0.9,0.8c0.13,3.39,0.17,3.39-3.26,3.39c-1.63,0-3.26-0.02-4.87,0
		c-1.55,0.02-2.51,0.86-2.51,2.17s0.92,2.15,2.49,2.21c1.12,0.02,2.25,0,3.37,0c0.02,0.07,0.06,0.17,0.07,0.24
		C45.56,92.1,42.51,94.39,39.48,96.69z M66.2,92.01c0-0.97-0.32-1.8-1.23-2.28c-0.77-0.41-1.52-0.32-2.23,0.19
		c-0.79,0.56-0.95,1.4-0.94,2.3c0,2.88-0.02,5.74,0,8.63c0.02,0.82-0.15,1.09-0.94,0.6c-1.82-1.1-3.03-2.64-3.12-4.79
		c-0.13-2.54-0.06-5.09-0.07-7.62c-0.02-0.41,0.13-0.69,0.47-0.94c3.99-2.98,7.97-5.97,12.2-9.15V91.2c0,1.7,0.02,3.41-0.04,5.11
		c-0.09,2.21-1.23,3.82-3.03,5.01c-0.73,0.51-1.1,0.54-1.09-0.58C66.24,97.85,66.2,94.93,66.2,92.01z M58.27,75.3
		c0.92-0.77,1.37,0.34,1.96,0.6c1.93,0.88,3.89,0.97,6.21,0.54c-2.99,2.25-5.76,4.34-8.65,6.51c-0.26-1.01-0.09-1.93-0.13-2.84
		c-0.02-0.82-0.02-1.67,0-2.49S57.52,75.92,58.27,75.3z M59.74,68.15c0.04-2.25,1.96-4.19,4.23-4.21c2.3-0.02,4.3,2,4.27,4.3
		c-0.02,2.32-2.02,4.25-4.34,4.19C61.62,72.38,59.73,70.43,59.74,68.15z M73.25,109.3c-11.17,3.93-24.53,0.06-31.68-8.79
		c3.84-2.88,7.67-5.74,11.62-8.7c0.24,2.06-0.06,3.95,0.28,5.84c0.84,4.9,4.79,8.55,9.79,8.96c4.68,0.39,9.23-2.62,10.82-7.17
		c0.47-1.37,1.31-1.74,2.68-1.1c1.01,0.47,2,1.01,2.99,1.5c1.38,0.67,2.62,0.36,3.22-0.82c0.6-1.16,0.15-2.32-1.27-3.05
		c-1.2-0.64-2.43-1.22-3.67-1.83c-0.56-0.28-1.16-0.51-1.8-0.39c-1.37,0.22-1.59-0.39-1.55-1.63c0.11-2.53,0.04-2.53,2.53-2.53
		c1.78,0,3.57,0.02,5.35,0c1.78-0.02,2.77-0.82,2.77-2.19c0-1.38-0.99-2.19-2.75-2.19c-2.32,0-4.66-0.04-6.98,0.02
		c-0.71,0.02-0.99-0.21-0.88-0.9c0.04-0.24,0-0.51,0-0.75c0.02-0.79-0.22-1.74,0.13-2.32c0.36-0.6,1.38-0.07,2.1-0.28
		c2.06-0.56,3.93-1.55,5.63-2.79c0.86-0.62,0.86-1.65,0.28-2.58c-0.56-0.9-1.68-1.27-2.73-0.8c-1.07,0.47-2.08,1.05-3.11,1.55
		c-0.37,0.19-0.73,0.43-1.18,0.34c-0.37-0.07-0.88,0.28-1.1-0.24c-0.24-0.56,0.15-0.9,0.56-1.22c2.81-2.08,5.6-4.19,8.38-6.27
		c1.53-1.16,3.09-2.26,4.58-3.46c0.64-0.51,0.9-0.45,1.31,0.26c3.39,5.84,4.87,12.07,3.93,18.77
		C91.78,96.84,84.93,105.18,73.25,109.3z M63.82,46.86c-18.77,0.09-33.96,15.31-33.91,33.91c0.07,19.37,15.14,34.43,34.38,34.38
		c18.58-0.06,33.83-15.38,33.78-33.93C97.99,61.9,82.89,46.74,63.82,46.86z M39.48,96.69c-0.62,0.47-0.73,0.06-0.97-0.36
		c-2.43-3.95-3.8-8.27-4.19-12.87c-1.1-12.52,6.01-24.51,17.5-29.7c11.43-5.13,25.02-2.45,33.7,6.59c0.88,0.92,0.77,1.29-0.21,2
		c-4.08,2.96-8.07,6.01-12.09,9.02c-0.28,0.21-0.49,0.66-0.95,0.37c-0.54-0.32-0.17-0.71-0.06-1.09c0.51-1.91,0.49-3.8-0.32-5.61
		c-0.3-0.67-0.11-0.94,0.41-1.25c1.07-0.65,2.1-1.35,3.12-2.04c1.35-0.9,1.72-2.06,1.05-3.16c-0.71-1.14-1.98-1.35-3.35-0.47
		c-1.27,0.79-2.53,1.59-3.76,2.45c-0.51,0.36-0.88,0.37-1.44,0.07c-2.6-1.35-5.26-1.35-7.86,0.02c-0.58,0.3-0.94,0.24-1.44-0.11
		c-1.2-0.82-2.43-1.59-3.65-2.38c-1.38-0.9-2.64-0.77-3.39,0.32c-0.75,1.07-0.36,2.36,0.99,3.26c1.07,0.71,2.13,1.42,3.24,2.11
		c0.45,0.28,0.58,0.54,0.34,1.09c-0.86,1.89-0.9,3.85-0.3,5.82c0.17,0.54,0.11,0.8-0.3,1.16c-1.12,0.92-1.83,2.11-2.1,3.57
		c-0.24,1.25-0.8,1.55-2.02,1.01c-1.07-0.47-2.08-1.03-3.11-1.53c-1.48-0.73-2.71-0.41-3.31,0.8c-0.6,1.22-0.09,2.34,1.4,3.11
		c1.1,0.56,2.25,1.07,3.33,1.67c0.84,0.47,1.74,0.49,2.66,0.45c0.6-0.04,0.86,0.09,0.9,0.8c0.13,3.39,0.17,3.39-3.26,3.39
		c-1.63,0-3.26-0.02-4.87,0c-1.55,0.02-2.51,0.86-2.51,2.17s0.92,2.15,2.49,2.21c1.12,0.02,2.25,0,3.37,0
		c0.02,0.07,0.06,0.17,0.07,0.24C45.56,92.1,42.51,94.39,39.48,96.69z M66.2,92.01c0-0.97-0.32-1.8-1.23-2.28
		c-0.77-0.41-1.52-0.32-2.23,0.19c-0.79,0.56-0.95,1.4-0.94,2.3c0,2.88-0.02,5.74,0,8.63c0.02,0.82-0.15,1.09-0.94,0.6
		c-1.82-1.1-3.03-2.64-3.12-4.79c-0.13-2.54-0.06-5.09-0.07-7.62c-0.02-0.41,0.13-0.69,0.47-0.94c3.99-2.98,7.97-5.97,12.2-9.15
		V91.2c0,1.7,0.02,3.41-0.04,5.11c-0.09,2.21-1.23,3.82-3.03,5.01c-0.73,0.51-1.1,0.54-1.09-0.58C66.24,97.85,66.2,94.93,66.2,92.01
		z M58.27,75.3c0.92-0.77,1.37,0.34,1.96,0.6c1.93,0.88,3.89,0.97,6.21,0.54c-2.99,2.25-5.76,4.34-8.65,6.51
		c-0.26-1.01-0.09-1.93-0.13-2.84c-0.02-0.82-0.02-1.67,0-2.49S57.52,75.92,58.27,75.3z M59.74,68.15c0.04-2.25,1.96-4.19,4.23-4.21
		c2.3-0.02,4.3,2,4.27,4.3c-0.02,2.32-2.02,4.25-4.34,4.19C61.62,72.38,59.73,70.43,59.74,68.15z M73.25,109.3
		c-11.17,3.93-24.53,0.06-31.68-8.79c3.84-2.88,7.67-5.74,11.62-8.7c0.24,2.06-0.06,3.95,0.28,5.84c0.84,4.9,4.79,8.55,9.79,8.96
		c4.68,0.39,9.23-2.62,10.82-7.17c0.47-1.37,1.31-1.74,2.68-1.1c1.01,0.47,2,1.01,2.99,1.5c1.38,0.67,2.62,0.36,3.22-0.82
		c0.6-1.16,0.15-2.32-1.27-3.05c-1.2-0.64-2.43-1.22-3.67-1.83c-0.56-0.28-1.16-0.51-1.8-0.39c-1.37,0.22-1.59-0.39-1.55-1.63
		c0.11-2.53,0.04-2.53,2.53-2.53c1.78,0,3.57,0.02,5.35,0c1.78-0.02,2.77-0.82,2.77-2.19c0-1.38-0.99-2.19-2.75-2.19
		c-2.32,0-4.66-0.04-6.98,0.02c-0.71,0.02-0.99-0.21-0.88-0.9c0.04-0.24,0-0.51,0-0.75c0.02-0.79-0.22-1.74,0.13-2.32
		c0.36-0.6,1.38-0.07,2.1-0.28c2.06-0.56,3.93-1.55,5.63-2.79c0.86-0.62,0.86-1.65,0.28-2.58c-0.56-0.9-1.68-1.27-2.73-0.8
		c-1.07,0.47-2.08,1.05-3.11,1.55c-0.37,0.19-0.73,0.43-1.18,0.34c-0.37-0.07-0.88,0.28-1.1-0.24c-0.24-0.56,0.15-0.9,0.56-1.22
		c2.81-2.08,5.6-4.19,8.38-6.27c1.53-1.16,3.09-2.26,4.58-3.46c0.64-0.51,0.9-0.45,1.31,0.26c3.39,5.84,4.87,12.07,3.93,18.77
		C91.78,96.84,84.93,105.18,73.25,109.3z M103.51,32.77c-0.8-1.03-2.11-1.09-3.31-0.13c-1.68,1.33-3.39,2.68-5.05,4.04
		c-1.31,1.09-2.77,1.63-4.45,1.63H37.25c-1.7,0-3.14-0.58-4.43-1.65c-1.63-1.37-3.31-2.68-4.96-3.99c-1.27-1.01-2.58-0.95-3.41,0.13
		c-0.79,1.03-0.54,2.25,0.69,3.24c1.61,1.31,3.26,2.58,4.87,3.91c2.3,1.91,4.94,2.75,7.92,2.75c8.7-0.04,17.4-0.02,26.1-0.02
		c8.74,0,17.48-0.02,26.22,0c2.81,0.02,5.31-0.77,7.49-2.54c1.72-1.38,3.44-2.75,5.16-4.14C104.09,35.03,104.32,33.78,103.51,32.77z
		 M104.78,21.59c-1.18-3.31-2.38-6.61-3.59-9.92c-0.79-2.19-2.21-3.18-4.51-3.18H74.98c-2.71,0-4.55,1.63-4.62,4.32
		c-0.09,3.54-0.09,7.07,0,10.61c0.07,2.69,1.91,4.29,4.64,4.29c4.25,0.02,8.48,0,12.72,0h12.72
		C104.06,27.71,105.98,24.98,104.78,21.59z M99.62,23.47c-3.95-0.07-7.9-0.02-11.86-0.02c-3.99,0-7.99-0.02-11.98,0
		c-0.75,0.02-1.1-0.07-1.09-0.97c0.06-2.92,0.04-5.82,0-8.74c-0.02-0.79,0.24-0.95,0.99-0.95c6.77,0.02,13.57,0.02,20.34,0
		c0.77-0.02,1.09,0.24,1.33,0.94c0.99,2.86,2.02,5.69,3.11,8.51C100.82,23.17,100.76,23.48,99.62,23.47z M104.78,21.59
		c-1.18-3.31-2.38-6.61-3.59-9.92c-0.79-2.19-2.21-3.18-4.51-3.18H74.98c-2.71,0-4.55,1.63-4.62,4.32c-0.09,3.54-0.09,7.07,0,10.61
		c0.07,2.69,1.91,4.29,4.64,4.29c4.25,0.02,8.48,0,12.72,0h12.72C104.06,27.71,105.98,24.98,104.78,21.59z M99.62,23.47
		c-3.95-0.07-7.9-0.02-11.86-0.02c-3.99,0-7.99-0.02-11.98,0c-0.75,0.02-1.1-0.07-1.09-0.97c0.06-2.92,0.04-5.82,0-8.74
		c-0.02-0.79,0.24-0.95,0.99-0.95c6.77,0.02,13.57,0.02,20.34,0c0.77-0.02,1.09,0.24,1.33,0.94c0.99,2.86,2.02,5.69,3.11,8.51
		C100.82,23.17,100.76,23.48,99.62,23.47z M103.51,32.77c-0.8-1.03-2.11-1.09-3.31-0.13c-1.68,1.33-3.39,2.68-5.05,4.04
		c-1.31,1.09-2.77,1.63-4.45,1.63H37.25c-1.7,0-3.14-0.58-4.43-1.65c-1.63-1.37-3.31-2.68-4.96-3.99c-1.27-1.01-2.58-0.95-3.41,0.13
		c-0.79,1.03-0.54,2.25,0.69,3.24c1.61,1.31,3.26,2.58,4.87,3.91c2.3,1.91,4.94,2.75,7.92,2.75c8.7-0.04,17.4-0.02,26.1-0.02
		c8.74,0,17.48-0.02,26.22,0c2.81,0.02,5.31-0.77,7.49-2.54c1.72-1.38,3.44-2.75,5.16-4.14C104.09,35.03,104.32,33.78,103.51,32.77z
		 M63.82,46.86c-18.77,0.09-33.96,15.31-33.91,33.91c0.07,19.37,15.14,34.43,34.38,34.38c18.58-0.06,33.83-15.38,33.78-33.93
		C97.99,61.9,82.89,46.74,63.82,46.86z M39.48,96.69c-0.62,0.47-0.73,0.06-0.97-0.36c-2.43-3.95-3.8-8.27-4.19-12.87
		c-1.1-12.52,6.01-24.51,17.5-29.7c11.43-5.13,25.02-2.45,33.7,6.59c0.88,0.92,0.77,1.29-0.21,2c-4.08,2.96-8.07,6.01-12.09,9.02
		c-0.28,0.21-0.49,0.66-0.95,0.37c-0.54-0.32-0.17-0.71-0.06-1.09c0.51-1.91,0.49-3.8-0.32-5.61c-0.3-0.67-0.11-0.94,0.41-1.25
		c1.07-0.65,2.1-1.35,3.12-2.04c1.35-0.9,1.72-2.06,1.05-3.16c-0.71-1.14-1.98-1.35-3.35-0.47c-1.27,0.79-2.53,1.59-3.76,2.45
		c-0.51,0.36-0.88,0.37-1.44,0.07c-2.6-1.35-5.26-1.35-7.86,0.02c-0.58,0.3-0.94,0.24-1.44-0.11c-1.2-0.82-2.43-1.59-3.65-2.38
		c-1.38-0.9-2.64-0.77-3.39,0.32c-0.75,1.07-0.36,2.36,0.99,3.26c1.07,0.71,2.13,1.42,3.24,2.11c0.45,0.28,0.58,0.54,0.34,1.09
		c-0.86,1.89-0.9,3.85-0.3,5.82c0.17,0.54,0.11,0.8-0.3,1.16c-1.12,0.92-1.83,2.11-2.1,3.57c-0.24,1.25-0.8,1.55-2.02,1.01
		c-1.07-0.47-2.08-1.03-3.11-1.53c-1.48-0.73-2.71-0.41-3.31,0.8c-0.6,1.22-0.09,2.34,1.4,3.11c1.1,0.56,2.25,1.07,3.33,1.67
		c0.84,0.47,1.74,0.49,2.66,0.45c0.6-0.04,0.86,0.09,0.9,0.8c0.13,3.39,0.17,3.39-3.26,3.39c-1.63,0-3.26-0.02-4.87,0
		c-1.55,0.02-2.51,0.86-2.51,2.17s0.92,2.15,2.49,2.21c1.12,0.02,2.25,0,3.37,0c0.02,0.07,0.06,0.17,0.07,0.24
		C45.56,92.1,42.51,94.39,39.48,96.69z M66.2,92.01c0-0.97-0.32-1.8-1.23-2.28c-0.77-0.41-1.52-0.32-2.23,0.19
		c-0.79,0.56-0.95,1.4-0.94,2.3c0,2.88-0.02,5.74,0,8.63c0.02,0.82-0.15,1.09-0.94,0.6c-1.82-1.1-3.03-2.64-3.12-4.79
		c-0.13-2.54-0.06-5.09-0.07-7.62c-0.02-0.41,0.13-0.69,0.47-0.94c3.99-2.98,7.97-5.97,12.2-9.15V91.2c0,1.7,0.02,3.41-0.04,5.11
		c-0.09,2.21-1.23,3.82-3.03,5.01c-0.73,0.51-1.1,0.54-1.09-0.58C66.24,97.85,66.2,94.93,66.2,92.01z M58.27,75.3
		c0.92-0.77,1.37,0.34,1.96,0.6c1.93,0.88,3.89,0.97,6.21,0.54c-2.99,2.25-5.76,4.34-8.65,6.51c-0.26-1.01-0.09-1.93-0.13-2.84
		c-0.02-0.82-0.02-1.67,0-2.49S57.52,75.92,58.27,75.3z M59.74,68.15c0.04-2.25,1.96-4.19,4.23-4.21c2.3-0.02,4.3,2,4.27,4.3
		c-0.02,2.32-2.02,4.25-4.34,4.19C61.62,72.38,59.73,70.43,59.74,68.15z M73.25,109.3c-11.17,3.93-24.53,0.06-31.68-8.79
		c3.84-2.88,7.67-5.74,11.62-8.7c0.24,2.06-0.06,3.95,0.28,5.84c0.84,4.9,4.79,8.55,9.79,8.96c4.68,0.39,9.23-2.62,10.82-7.17
		c0.47-1.37,1.31-1.74,2.68-1.1c1.01,0.47,2,1.01,2.99,1.5c1.38,0.67,2.62,0.36,3.22-0.82c0.6-1.16,0.15-2.32-1.27-3.05
		c-1.2-0.64-2.43-1.22-3.67-1.83c-0.56-0.28-1.16-0.51-1.8-0.39c-1.37,0.22-1.59-0.39-1.55-1.63c0.11-2.53,0.04-2.53,2.53-2.53
		c1.78,0,3.57,0.02,5.35,0c1.78-0.02,2.77-0.82,2.77-2.19c0-1.38-0.99-2.19-2.75-2.19c-2.32,0-4.66-0.04-6.98,0.02
		c-0.71,0.02-0.99-0.21-0.88-0.9c0.04-0.24,0-0.51,0-0.75c0.02-0.79-0.22-1.74,0.13-2.32c0.36-0.6,1.38-0.07,2.1-0.28
		c2.06-0.56,3.93-1.55,5.63-2.79c0.86-0.62,0.86-1.65,0.28-2.58c-0.56-0.9-1.68-1.27-2.73-0.8c-1.07,0.47-2.08,1.05-3.11,1.55
		c-0.37,0.19-0.73,0.43-1.18,0.34c-0.37-0.07-0.88,0.28-1.1-0.24c-0.24-0.56,0.15-0.9,0.56-1.22c2.81-2.08,5.6-4.19,8.38-6.27
		c1.53-1.16,3.09-2.26,4.58-3.46c0.64-0.51,0.9-0.45,1.31,0.26c3.39,5.84,4.87,12.07,3.93,18.77
		C91.78,96.84,84.93,105.18,73.25,109.3z M63.82,46.86c-18.77,0.09-33.96,15.31-33.91,33.91c0.07,19.37,15.14,34.43,34.38,34.38
		c18.58-0.06,33.83-15.38,33.78-33.93C97.99,61.9,82.89,46.74,63.82,46.86z M39.48,96.69c-0.62,0.47-0.73,0.06-0.97-0.36
		c-2.43-3.95-3.8-8.27-4.19-12.87c-1.1-12.52,6.01-24.51,17.5-29.7c11.43-5.13,25.02-2.45,33.7,6.59c0.88,0.92,0.77,1.29-0.21,2
		c-4.08,2.96-8.07,6.01-12.09,9.02c-0.28,0.21-0.49,0.66-0.95,0.37c-0.54-0.32-0.17-0.71-0.06-1.09c0.51-1.91,0.49-3.8-0.32-5.61
		c-0.3-0.67-0.11-0.94,0.41-1.25c1.07-0.65,2.1-1.35,3.12-2.04c1.35-0.9,1.72-2.06,1.05-3.16c-0.71-1.14-1.98-1.35-3.35-0.47
		c-1.27,0.79-2.53,1.59-3.76,2.45c-0.51,0.36-0.88,0.37-1.44,0.07c-2.6-1.35-5.26-1.35-7.86,0.02c-0.58,0.3-0.94,0.24-1.44-0.11
		c-1.2-0.82-2.43-1.59-3.65-2.38c-1.38-0.9-2.64-0.77-3.39,0.32c-0.75,1.07-0.36,2.36,0.99,3.26c1.07,0.71,2.13,1.42,3.24,2.11
		c0.45,0.28,0.58,0.54,0.34,1.09c-0.86,1.89-0.9,3.85-0.3,5.82c0.17,0.54,0.11,0.8-0.3,1.16c-1.12,0.92-1.83,2.11-2.1,3.57
		c-0.24,1.25-0.8,1.55-2.02,1.01c-1.07-0.47-2.08-1.03-3.11-1.53c-1.48-0.73-2.71-0.41-3.31,0.8c-0.6,1.22-0.09,2.34,1.4,3.11
		c1.1,0.56,2.25,1.07,3.33,1.67c0.84,0.47,1.74,0.49,2.66,0.45c0.6-0.04,0.86,0.09,0.9,0.8c0.13,3.39,0.17,3.39-3.26,3.39
		c-1.63,0-3.26-0.02-4.87,0c-1.55,0.02-2.51,0.86-2.51,2.17s0.92,2.15,2.49,2.21c1.12,0.02,2.25,0,3.37,0
		c0.02,0.07,0.06,0.17,0.07,0.24C45.56,92.1,42.51,94.39,39.48,96.69z M66.2,92.01c0-0.97-0.32-1.8-1.23-2.28
		c-0.77-0.41-1.52-0.32-2.23,0.19c-0.79,0.56-0.95,1.4-0.94,2.3c0,2.88-0.02,5.74,0,8.63c0.02,0.82-0.15,1.09-0.94,0.6
		c-1.82-1.1-3.03-2.64-3.12-4.79c-0.13-2.54-0.06-5.09-0.07-7.62c-0.02-0.41,0.13-0.69,0.47-0.94c3.99-2.98,7.97-5.97,12.2-9.15
		V91.2c0,1.7,0.02,3.41-0.04,5.11c-0.09,2.21-1.23,3.82-3.03,5.01c-0.73,0.51-1.1,0.54-1.09-0.58C66.24,97.85,66.2,94.93,66.2,92.01
		z M58.27,75.3c0.92-0.77,1.37,0.34,1.96,0.6c1.93,0.88,3.89,0.97,6.21,0.54c-2.99,2.25-5.76,4.34-8.65,6.51
		c-0.26-1.01-0.09-1.93-0.13-2.84c-0.02-0.82-0.02-1.67,0-2.49S57.52,75.92,58.27,75.3z M59.74,68.15c0.04-2.25,1.96-4.19,4.23-4.21
		c2.3-0.02,4.3,2,4.27,4.3c-0.02,2.32-2.02,4.25-4.34,4.19C61.62,72.38,59.73,70.43,59.74,68.15z M73.25,109.3
		c-11.17,3.93-24.53,0.06-31.68-8.79c3.84-2.88,7.67-5.74,11.62-8.7c0.24,2.06-0.06,3.95,0.28,5.84c0.84,4.9,4.79,8.55,9.79,8.96
		c4.68,0.39,9.23-2.62,10.82-7.17c0.47-1.37,1.31-1.74,2.68-1.1c1.01,0.47,2,1.01,2.99,1.5c1.38,0.67,2.62,0.36,3.22-0.82
		c0.6-1.16,0.15-2.32-1.27-3.05c-1.2-0.64-2.43-1.22-3.67-1.83c-0.56-0.28-1.16-0.51-1.8-0.39c-1.37,0.22-1.59-0.39-1.55-1.63
		c0.11-2.53,0.04-2.53,2.53-2.53c1.78,0,3.57,0.02,5.35,0c1.78-0.02,2.77-0.82,2.77-2.19c0-1.38-0.99-2.19-2.75-2.19
		c-2.32,0-4.66-0.04-6.98,0.02c-0.71,0.02-0.99-0.21-0.88-0.9c0.04-0.24,0-0.51,0-0.75c0.02-0.79-0.22-1.74,0.13-2.32
		c0.36-0.6,1.38-0.07,2.1-0.28c2.06-0.56,3.93-1.55,5.63-2.79c0.86-0.62,0.86-1.65,0.28-2.58c-0.56-0.9-1.68-1.27-2.73-0.8
		c-1.07,0.47-2.08,1.05-3.11,1.55c-0.37,0.19-0.73,0.43-1.18,0.34c-0.37-0.07-0.88,0.28-1.1-0.24c-0.24-0.56,0.15-0.9,0.56-1.22
		c2.81-2.08,5.6-4.19,8.38-6.27c1.53-1.16,3.09-2.26,4.58-3.46c0.64-0.51,0.9-0.45,1.31,0.26c3.39,5.84,4.87,12.07,3.93,18.77
		C91.78,96.84,84.93,105.18,73.25,109.3z M103.51,32.77c-0.8-1.03-2.11-1.09-3.31-0.13c-1.68,1.33-3.39,2.68-5.05,4.04
		c-1.31,1.09-2.77,1.63-4.45,1.63H37.25c-1.7,0-3.14-0.58-4.43-1.65c-1.63-1.37-3.31-2.68-4.96-3.99c-1.27-1.01-2.58-0.95-3.41,0.13
		c-0.79,1.03-0.54,2.25,0.69,3.24c1.61,1.31,3.26,2.58,4.87,3.91c2.3,1.91,4.94,2.75,7.92,2.75c8.7-0.04,17.4-0.02,26.1-0.02
		c8.74,0,17.48-0.02,26.22,0c2.81,0.02,5.31-0.77,7.49-2.54c1.72-1.38,3.44-2.75,5.16-4.14C104.09,35.03,104.32,33.78,103.51,32.77z
		 M104.78,21.59c-1.18-3.31-2.38-6.61-3.59-9.92c-0.79-2.19-2.21-3.18-4.51-3.18H74.98c-2.71,0-4.55,1.63-4.62,4.32
		c-0.09,3.54-0.09,7.07,0,10.61c0.07,2.69,1.91,4.29,4.64,4.29c4.25,0.02,8.48,0,12.72,0h12.72
		C104.06,27.71,105.98,24.98,104.78,21.59z M99.62,23.47c-3.95-0.07-7.9-0.02-11.86-0.02c-3.99,0-7.99-0.02-11.98,0
		c-0.75,0.02-1.1-0.07-1.09-0.97c0.06-2.92,0.04-5.82,0-8.74c-0.02-0.79,0.24-0.95,0.99-0.95c6.77,0.02,13.57,0.02,20.34,0
		c0.77-0.02,1.09,0.24,1.33,0.94c0.99,2.86,2.02,5.69,3.11,8.51C100.82,23.17,100.76,23.48,99.62,23.47z M74.99,27.71
		c4.25,0.02,8.48,0,12.72,0h12.72c3.61,0,5.54-2.73,4.34-6.12c-1.18-3.31-2.38-6.61-3.59-9.92c-0.79-2.19-2.21-3.18-4.51-3.18H74.98
		c-2.71,0-4.55,1.63-4.62,4.32c-0.09,3.54-0.09,7.07,0,10.61C70.43,26.12,72.26,27.71,74.99,27.71z M74.7,13.73
		c-0.02-0.79,0.24-0.95,0.99-0.95c6.77,0.02,13.57,0.02,20.34,0c0.77-0.02,1.09,0.24,1.33,0.94c0.99,2.86,2.02,5.69,3.11,8.51
		c0.36,0.94,0.3,1.25-0.84,1.24c-3.95-0.07-7.9-0.02-11.86-0.02c-3.99,0-7.99-0.02-11.98,0c-0.75,0.02-1.1-0.07-1.09-0.97
		C74.75,19.55,74.73,16.65,74.7,13.73z M100.2,32.63c-1.68,1.33-3.39,2.68-5.05,4.04c-1.31,1.09-2.77,1.63-4.45,1.63H37.25
		c-1.7,0-3.14-0.58-4.43-1.65c-1.63-1.37-3.31-2.68-4.96-3.99c-1.27-1.01-2.58-0.95-3.41,0.13c-0.79,1.03-0.54,2.25,0.69,3.24
		c1.61,1.31,3.26,2.58,4.87,3.91c2.3,1.91,4.94,2.75,7.92,2.75c8.7-0.04,17.4-0.02,26.1-0.02c8.74,0,17.48-0.02,26.22,0
		c2.81,0.02,5.31-0.77,7.49-2.54c1.72-1.38,3.44-2.75,5.16-4.14c1.2-0.97,1.42-2.23,0.62-3.24C102.71,31.74,101.4,31.68,100.2,32.63
		z M63.82,46.86c-18.77,0.09-33.96,15.31-33.91,33.91c0.07,19.37,15.14,34.43,34.38,34.38c18.58-0.06,33.83-15.38,33.78-33.93
		C97.99,61.9,82.89,46.74,63.82,46.86z M39.48,96.69c-0.62,0.47-0.73,0.06-0.97-0.36c-2.43-3.95-3.8-8.27-4.19-12.87
		c-1.1-12.52,6.01-24.51,17.5-29.7c11.43-5.13,25.02-2.45,33.7,6.59c0.88,0.92,0.77,1.29-0.21,2c-4.08,2.96-8.07,6.01-12.09,9.02
		c-0.28,0.21-0.49,0.66-0.95,0.37c-0.54-0.32-0.17-0.71-0.06-1.09c0.51-1.91,0.49-3.8-0.32-5.61c-0.3-0.67-0.11-0.94,0.41-1.25
		c1.07-0.65,2.1-1.35,3.12-2.04c1.35-0.9,1.72-2.06,1.05-3.16c-0.71-1.14-1.98-1.35-3.35-0.47c-1.27,0.79-2.53,1.59-3.76,2.45
		c-0.51,0.36-0.88,0.37-1.44,0.07c-2.6-1.35-5.26-1.35-7.86,0.02c-0.58,0.3-0.94,0.24-1.44-0.11c-1.2-0.82-2.43-1.59-3.65-2.38
		c-1.38-0.9-2.64-0.77-3.39,0.32c-0.75,1.07-0.36,2.36,0.99,3.26c1.07,0.71,2.13,1.42,3.24,2.11c0.45,0.28,0.58,0.54,0.34,1.09
		c-0.86,1.89-0.9,3.85-0.3,5.82c0.17,0.54,0.11,0.8-0.3,1.16c-1.12,0.92-1.83,2.11-2.1,3.57c-0.24,1.25-0.8,1.55-2.02,1.01
		c-1.07-0.47-2.08-1.03-3.11-1.53c-1.48-0.73-2.71-0.41-3.31,0.8c-0.6,1.22-0.09,2.34,1.4,3.11c1.1,0.56,2.25,1.07,3.33,1.67
		c0.84,0.47,1.74,0.49,2.66,0.45c0.6-0.04,0.86,0.09,0.9,0.8c0.13,3.39,0.17,3.39-3.26,3.39c-1.63,0-3.26-0.02-4.87,0
		c-1.55,0.02-2.51,0.86-2.51,2.17s0.92,2.15,2.49,2.21c1.12,0.02,2.25,0,3.37,0c0.02,0.07,0.06,0.17,0.07,0.24
		C45.56,92.1,42.51,94.39,39.48,96.69z M66.2,92.01c0-0.97-0.32-1.8-1.23-2.28c-0.77-0.41-1.52-0.32-2.23,0.19
		c-0.79,0.56-0.95,1.4-0.94,2.3c0,2.88-0.02,5.74,0,8.63c0.02,0.82-0.15,1.09-0.94,0.6c-1.82-1.1-3.03-2.64-3.12-4.79
		c-0.13-2.54-0.06-5.09-0.07-7.62c-0.02-0.41,0.13-0.69,0.47-0.94c3.99-2.98,7.97-5.97,12.2-9.15V91.2c0,1.7,0.02,3.41-0.04,5.11
		c-0.09,2.21-1.23,3.82-3.03,5.01c-0.73,0.51-1.1,0.54-1.09-0.58C66.24,97.85,66.2,94.93,66.2,92.01z M58.27,75.3
		c0.92-0.77,1.37,0.34,1.96,0.6c1.93,0.88,3.89,0.97,6.21,0.54c-2.99,2.25-5.76,4.34-8.65,6.51c-0.26-1.01-0.09-1.93-0.13-2.84
		c-0.02-0.82-0.02-1.67,0-2.49S57.52,75.92,58.27,75.3z M59.74,68.15c0.04-2.25,1.96-4.19,4.23-4.21c2.3-0.02,4.3,2,4.27,4.3
		c-0.02,2.32-2.02,4.25-4.34,4.19C61.62,72.38,59.73,70.43,59.74,68.15z M89.57,65.76c3.39,5.84,4.87,12.07,3.93,18.77
		c-1.72,12.31-8.57,20.66-20.25,24.78c-11.17,3.93-24.53,0.06-31.68-8.79c3.84-2.88,7.67-5.74,11.62-8.7
		c0.24,2.06-0.06,3.95,0.28,5.84c0.84,4.9,4.79,8.55,9.79,8.96c4.68,0.39,9.23-2.62,10.82-7.17c0.47-1.37,1.31-1.74,2.68-1.1
		c1.01,0.47,2,1.01,2.99,1.5c1.38,0.67,2.62,0.36,3.22-0.82c0.6-1.16,0.15-2.32-1.27-3.05c-1.2-0.64-2.43-1.22-3.67-1.83
		c-0.56-0.28-1.16-0.51-1.8-0.39c-1.37,0.22-1.59-0.39-1.55-1.63c0.11-2.53,0.04-2.53,2.53-2.53c1.78,0,3.57,0.02,5.35,0
		c1.78-0.02,2.77-0.82,2.77-2.19c0-1.38-0.99-2.19-2.75-2.19c-2.32,0-4.66-0.04-6.98,0.02c-0.71,0.02-0.99-0.21-0.88-0.9
		c0.04-0.24,0-0.51,0-0.75c0.02-0.79-0.22-1.74,0.13-2.32c0.36-0.6,1.38-0.07,2.1-0.28c2.06-0.56,3.93-1.55,5.63-2.79
		c0.86-0.62,0.86-1.65,0.28-2.58c-0.56-0.9-1.68-1.27-2.73-0.8c-1.07,0.47-2.08,1.05-3.11,1.55c-0.37,0.19-0.73,0.43-1.18,0.34
		c-0.37-0.07-0.88,0.28-1.1-0.24c-0.24-0.56,0.15-0.9,0.56-1.22c2.81-2.08,5.6-4.19,8.38-6.27c1.53-1.16,3.09-2.26,4.58-3.46
		C88.9,64.99,89.16,65.04,89.57,65.76z M115.19,28.26c0-1.85-0.26-3.65-0.88-5.39c-1.87-5.22-3.85-10.39-5.61-15.64
		c-1.22-3.71-3.35-6.29-7.24-7.22H68.74c-0.9,0.26-1.87,0.21-2.71,0.75c-2.25,1.42-3.72,3.39-4.36,5.99
		c-0.32,1.31-0.26,2.64-0.26,3.97c0.02,1.5-0.75,2.51-1.93,3.26c-1.05,0.65-1.38,0.47-1.38-0.75c-0.02-2.04,0.04-4.08-0.02-6.12
		C57.97,3.07,56.06,0.67,52.5,0H32.54c-0.04,0.19-0.21,0.21-0.36,0.28c-3.07,1.25-4.4,3.22-4.42,6.49c0,2.64-0.04,5.26,0.02,7.88
		c0.02,1.01-0.22,1.76-0.99,2.49c-3.05,2.96-5.99,6.03-9.04,8.98c-3.37,3.27-4.98,7.2-4.96,11.92c0.04,20.02,0.02,40.04,0.02,60.05
		c0,1.96,0.04,3.91,0.21,5.88c0.67,7.67,3.22,14.67,7.47,21.09c1.25,1.89,3.05,2.86,5.37,2.83c1.16-0.02,2.34-0.11,3.48,0.02
		c3.89,0.45,7.15-0.58,9.56-3.8l0.17-0.17c0.92-0.8,2.02-0.84,2.92-0.06c0.73,0.64,1.38,1.35,2.06,2.02c1.37,1.35,2.98,2.04,4.92,2
		c2.25-0.06,4.49-0.04,6.74,0c1.85,0.02,3.41-0.64,4.72-1.91c0.6-0.58,1.18-1.18,1.78-1.76c1.31-1.27,2.3-1.25,3.63,0.04
		c0.54,0.52,1.07,1.07,1.59,1.59c1.37,1.35,2.96,2.08,4.92,2.04c2.25-0.06,4.49-0.06,6.74,0c1.91,0.04,3.48-0.64,4.83-1.95
		c0.67-0.67,1.33-1.37,2.04-2.02c0.95-0.84,2.08-0.84,3.01,0.02c0.65,0.6,1.23,1.23,1.85,1.85c1.38,1.4,3.01,2.13,5.01,2.1
		c2.08-0.06,4.17-0.04,6.25-0.02c2.41,0.04,4.27-0.99,5.56-2.96c4.85-7.35,7.49-15.46,7.52-24.25
		C115.25,76.53,115.19,52.4,115.19,28.26z M32.03,6.9c0.02-2.06,1.98-3.35,3.95-2.66c0.41,0.17,0.28,0.45,0.3,0.71
		c0,1.16-0.02,2.34,0,3.5c0.04,1.29,1.01,2.26,2.17,2.25c1.16-0.02,2.06-0.94,2.1-2.19c0.04-1.12,0.06-2.26,0-3.37
		c-0.04-0.75,0.22-0.95,0.92-0.9c1.07,0.09,2.43-0.43,3.12,0.21c0.64,0.6,0.13,1.96,0.19,2.99c0.02,0.45-0.04,0.92,0.04,1.37
		c0.15,1.07,1.12,1.91,2.15,1.89c1.07-0.02,2-0.82,2.08-1.93c0.09-1.25,0.07-2.51,0.06-3.74c-0.02-0.6,0.17-0.84,0.77-0.79
		c0.51,0.06,1.01-0.02,1.5,0.04c1.18,0.17,1.89,0.94,1.91,2.1c0.04,2.58-0.02,5.15,0.04,7.73c0,0.73-0.32,0.8-0.9,0.8
		c-3.26-0.04-6.49-0.02-9.75-0.02c-3.2,0-6.4-0.02-9.6,0.02c-0.8,0-1.07-0.17-1.05-1.03C32.07,11.56,32.01,9.23,32.03,6.9z
		 M110.87,65.12c0,11.36-0.02,22.72,0,34.09c0.02,8.16-2.06,15.72-6.38,22.66c-0.8,1.29-1.78,1.87-3.27,1.76
		c-1.03-0.07-2.1-0.13-3.11,0.02c-2.36,0.3-4.19-0.45-5.67-2.34c-0.9-1.16-2.17-1.87-3.65-2.19c-2.23-0.47-4.34-0.04-5.71,1.65
		c-2,2.51-4.45,3.24-7.45,2.86c-0.21-0.04-0.43-0.04-0.62,0c-2.56,0.37-4.47-0.52-6.23-2.47c-2.77-3.07-6.76-3.07-9.52-0.04
		c-1.76,1.93-3.65,2.88-6.21,2.51c-0.34-0.06-0.67-0.06-0.99,0c-2.86,0.41-5.03-0.54-7.02-2.73c-2.45-2.75-6.49-2.77-8.96,0
		c-2,2.25-4.21,2.94-7.11,2.79c-4.77-0.26-4.06,0.67-6.7-4.02c-3.54-6.29-5.13-13.08-5.13-20.27c0-20.47,0.02-40.96-0.02-61.43
		c0-3.42,1.12-6.29,3.61-8.7c3.16-3.07,6.25-6.21,9.34-9.36c0.52-0.52,1.03-0.71,1.76-0.71c8.4,0.02,16.8,0.02,25.21,0.02
		c5.48,0,9.13-3.65,9.17-9.11V8.98c0.02-3.03,1.68-4.72,4.7-4.72c7.9-0.02,15.81,0,23.73,0c1.61,0,3.24-0.02,4.87,0
		c2.41,0,3.85,0.97,4.66,3.18c1.95,5.37,3.87,10.74,5.84,16.09c0.65,1.83,0.88,3.71,0.88,5.61V65.12z M101.19,11.68
		c-0.79-2.19-2.21-3.18-4.51-3.18H74.98c-2.71,0-4.55,1.63-4.62,4.32c-0.09,3.54-0.09,7.07,0,10.61c0.07,2.69,1.91,4.29,4.64,4.29
		c4.25,0.02,8.48,0,12.72,0h12.72c3.61,0,5.54-2.73,4.34-6.12C103.61,18.28,102.41,14.99,101.19,11.68z M99.62,23.47
		c-3.95-0.07-7.9-0.02-11.86-0.02c-3.99,0-7.99-0.02-11.98,0c-0.75,0.02-1.1-0.07-1.09-0.97c0.06-2.92,0.04-5.82,0-8.74
		c-0.02-0.79,0.24-0.95,0.99-0.95c6.77,0.02,13.57,0.02,20.34,0c0.77-0.02,1.09,0.24,1.33,0.94c0.99,2.86,2.02,5.69,3.11,8.51
		C100.82,23.17,100.76,23.48,99.62,23.47z M100.2,32.63c-1.68,1.33-3.39,2.68-5.05,4.04c-1.31,1.09-2.77,1.63-4.45,1.63H37.25
		c-1.7,0-3.14-0.58-4.43-1.65c-1.63-1.37-3.31-2.68-4.96-3.99c-1.27-1.01-2.58-0.95-3.41,0.13c-0.79,1.03-0.54,2.25,0.69,3.24
		c1.61,1.31,3.26,2.58,4.87,3.91c2.3,1.91,4.94,2.75,7.92,2.75c8.7-0.04,17.4-0.02,26.1-0.02c8.74,0,17.48-0.02,26.22,0
		c2.81,0.02,5.31-0.77,7.49-2.54c1.72-1.38,3.44-2.75,5.16-4.14c1.2-0.97,1.42-2.23,0.62-3.24C102.71,31.74,101.4,31.68,100.2,32.63
		z M63.82,46.86c-18.77,0.09-33.96,15.31-33.91,33.91c0.07,19.37,15.14,34.43,34.38,34.38c18.58-0.06,33.83-15.38,33.78-33.93
		C97.99,61.9,82.89,46.74,63.82,46.86z M39.48,96.69c-0.62,0.47-0.73,0.06-0.97-0.36c-2.43-3.95-3.8-8.27-4.19-12.87
		c-1.1-12.52,6.01-24.51,17.5-29.7c11.43-5.13,25.02-2.45,33.7,6.59c0.88,0.92,0.77,1.29-0.21,2c-4.08,2.96-8.07,6.01-12.09,9.02
		c-0.28,0.21-0.49,0.66-0.95,0.37c-0.54-0.32-0.17-0.71-0.06-1.09c0.51-1.91,0.49-3.8-0.32-5.61c-0.3-0.67-0.11-0.94,0.41-1.25
		c1.07-0.65,2.1-1.35,3.12-2.04c1.35-0.9,1.72-2.06,1.05-3.16c-0.71-1.14-1.98-1.35-3.35-0.47c-1.27,0.79-2.53,1.59-3.76,2.45
		c-0.51,0.36-0.88,0.37-1.44,0.07c-2.6-1.35-5.26-1.35-7.86,0.02c-0.58,0.3-0.94,0.24-1.44-0.11c-1.2-0.82-2.43-1.59-3.65-2.38
		c-1.38-0.9-2.64-0.77-3.39,0.32c-0.75,1.07-0.36,2.36,0.99,3.26c1.07,0.71,2.13,1.42,3.24,2.11c0.45,0.28,0.58,0.54,0.34,1.09
		c-0.86,1.89-0.9,3.85-0.3,5.82c0.17,0.54,0.11,0.8-0.3,1.16c-1.12,0.92-1.83,2.11-2.1,3.57c-0.24,1.25-0.8,1.55-2.02,1.01
		c-1.07-0.47-2.08-1.03-3.11-1.53c-1.48-0.73-2.71-0.41-3.31,0.8c-0.6,1.22-0.09,2.34,1.4,3.11c1.1,0.56,2.25,1.07,3.33,1.67
		c0.84,0.47,1.74,0.49,2.66,0.45c0.6-0.04,0.86,0.09,0.9,0.8c0.13,3.39,0.17,3.39-3.26,3.39c-1.63,0-3.26-0.02-4.87,0
		c-1.55,0.02-2.51,0.86-2.51,2.17s0.92,2.15,2.49,2.21c1.12,0.02,2.25,0,3.37,0c0.02,0.07,0.06,0.17,0.07,0.24
		C45.56,92.1,42.51,94.39,39.48,96.69z M66.2,92.01c0-0.97-0.32-1.8-1.23-2.28c-0.77-0.41-1.52-0.32-2.23,0.19
		c-0.79,0.56-0.95,1.4-0.94,2.3c0,2.88-0.02,5.74,0,8.63c0.02,0.82-0.15,1.09-0.94,0.6c-1.82-1.1-3.03-2.64-3.12-4.79
		c-0.13-2.54-0.06-5.09-0.07-7.62c-0.02-0.41,0.13-0.69,0.47-0.94c3.99-2.98,7.97-5.97,12.2-9.15V91.2c0,1.7,0.02,3.41-0.04,5.11
		c-0.09,2.21-1.23,3.82-3.03,5.01c-0.73,0.51-1.1,0.54-1.09-0.58C66.24,97.85,66.2,94.93,66.2,92.01z M58.27,75.3
		c0.92-0.77,1.37,0.34,1.96,0.6c1.93,0.88,3.89,0.97,6.21,0.54c-2.99,2.25-5.76,4.34-8.65,6.51c-0.26-1.01-0.09-1.93-0.13-2.84
		c-0.02-0.82-0.02-1.67,0-2.49S57.52,75.92,58.27,75.3z M59.74,68.15c0.04-2.25,1.96-4.19,4.23-4.21c2.3-0.02,4.3,2,4.27,4.3
		c-0.02,2.32-2.02,4.25-4.34,4.19C61.62,72.38,59.73,70.43,59.74,68.15z M89.57,65.76c3.39,5.84,4.87,12.07,3.93,18.77
		c-1.72,12.31-8.57,20.66-20.25,24.78c-11.17,3.93-24.53,0.06-31.68-8.79c3.84-2.88,7.67-5.74,11.62-8.7
		c0.24,2.06-0.06,3.95,0.28,5.84c0.84,4.9,4.79,8.55,9.79,8.96c4.68,0.39,9.23-2.62,10.82-7.17c0.47-1.37,1.31-1.74,2.68-1.1
		c1.01,0.47,2,1.01,2.99,1.5c1.38,0.67,2.62,0.36,3.22-0.82c0.6-1.16,0.15-2.32-1.27-3.05c-1.2-0.64-2.43-1.22-3.67-1.83
		c-0.56-0.28-1.16-0.51-1.8-0.39c-1.37,0.22-1.59-0.39-1.55-1.63c0.11-2.53,0.04-2.53,2.53-2.53c1.78,0,3.57,0.02,5.35,0
		c1.78-0.02,2.77-0.82,2.77-2.19c0-1.38-0.99-2.19-2.75-2.19c-2.32,0-4.66-0.04-6.98,0.02c-0.71,0.02-0.99-0.21-0.88-0.9
		c0.04-0.24,0-0.51,0-0.75c0.02-0.79-0.22-1.74,0.13-2.32c0.36-0.6,1.38-0.07,2.1-0.28c2.06-0.56,3.93-1.55,5.63-2.79
		c0.86-0.62,0.86-1.65,0.28-2.58c-0.56-0.9-1.68-1.27-2.73-0.8c-1.07,0.47-2.08,1.05-3.11,1.55c-0.37,0.19-0.73,0.43-1.18,0.34
		c-0.37-0.07-0.88,0.28-1.1-0.24c-0.24-0.56,0.15-0.9,0.56-1.22c2.81-2.08,5.6-4.19,8.38-6.27c1.53-1.16,3.09-2.26,4.58-3.46
		C88.9,64.99,89.16,65.04,89.57,65.76z M63.82,46.86c-18.77,0.09-33.96,15.31-33.91,33.91c0.07,19.37,15.14,34.43,34.38,34.38
		c18.58-0.06,33.83-15.38,33.78-33.93C97.99,61.9,82.89,46.74,63.82,46.86z M39.48,96.69c-0.62,0.47-0.73,0.06-0.97-0.36
		c-2.43-3.95-3.8-8.27-4.19-12.87c-1.1-12.52,6.01-24.51,17.5-29.7c11.43-5.13,25.02-2.45,33.7,6.59c0.88,0.92,0.77,1.29-0.21,2
		c-4.08,2.96-8.07,6.01-12.09,9.02c-0.28,0.21-0.49,0.66-0.95,0.37c-0.54-0.32-0.17-0.71-0.06-1.09c0.51-1.91,0.49-3.8-0.32-5.61
		c-0.3-0.67-0.11-0.94,0.41-1.25c1.07-0.65,2.1-1.35,3.12-2.04c1.35-0.9,1.72-2.06,1.05-3.16c-0.71-1.14-1.98-1.35-3.35-0.47
		c-1.27,0.79-2.53,1.59-3.76,2.45c-0.51,0.36-0.88,0.37-1.44,0.07c-2.6-1.35-5.26-1.35-7.86,0.02c-0.58,0.3-0.94,0.24-1.44-0.11
		c-1.2-0.82-2.43-1.59-3.65-2.38c-1.38-0.9-2.64-0.77-3.39,0.32c-0.75,1.07-0.36,2.36,0.99,3.26c1.07,0.71,2.13,1.42,3.24,2.11
		c0.45,0.28,0.58,0.54,0.34,1.09c-0.86,1.89-0.9,3.85-0.3,5.82c0.17,0.54,0.11,0.8-0.3,1.16c-1.12,0.92-1.83,2.11-2.1,3.57
		c-0.24,1.25-0.8,1.55-2.02,1.01c-1.07-0.47-2.08-1.03-3.11-1.53c-1.48-0.73-2.71-0.41-3.31,0.8c-0.6,1.22-0.09,2.34,1.4,3.11
		c1.1,0.56,2.25,1.07,3.33,1.67c0.84,0.47,1.74,0.49,2.66,0.45c0.6-0.04,0.86,0.09,0.9,0.8c0.13,3.39,0.17,3.39-3.26,3.39
		c-1.63,0-3.26-0.02-4.87,0c-1.55,0.02-2.51,0.86-2.51,2.17s0.92,2.15,2.49,2.21c1.12,0.02,2.25,0,3.37,0
		c0.02,0.07,0.06,0.17,0.07,0.24C45.56,92.1,42.51,94.39,39.48,96.69z M66.2,92.01c0-0.97-0.32-1.8-1.23-2.28
		c-0.77-0.41-1.52-0.32-2.23,0.19c-0.79,0.56-0.95,1.4-0.94,2.3c0,2.88-0.02,5.74,0,8.63c0.02,0.82-0.15,1.09-0.94,0.6
		c-1.82-1.1-3.03-2.64-3.12-4.79c-0.13-2.54-0.06-5.09-0.07-7.62c-0.02-0.41,0.13-0.69,0.47-0.94c3.99-2.98,7.97-5.97,12.2-9.15
		V91.2c0,1.7,0.02,3.41-0.04,5.11c-0.09,2.21-1.23,3.82-3.03,5.01c-0.73,0.51-1.1,0.54-1.09-0.58C66.24,97.85,66.2,94.93,66.2,92.01
		z M58.27,75.3c0.92-0.77,1.37,0.34,1.96,0.6c1.93,0.88,3.89,0.97,6.21,0.54c-2.99,2.25-5.76,4.34-8.65,6.51
		c-0.26-1.01-0.09-1.93-0.13-2.84c-0.02-0.82-0.02-1.67,0-2.49S57.52,75.92,58.27,75.3z M59.74,68.15c0.04-2.25,1.96-4.19,4.23-4.21
		c2.3-0.02,4.3,2,4.27,4.3c-0.02,2.32-2.02,4.25-4.34,4.19C61.62,72.38,59.73,70.43,59.74,68.15z M73.25,109.3
		c-11.17,3.93-24.53,0.06-31.68-8.79c3.84-2.88,7.67-5.74,11.62-8.7c0.24,2.06-0.06,3.95,0.28,5.84c0.84,4.9,4.79,8.55,9.79,8.96
		c4.68,0.39,9.23-2.62,10.82-7.17c0.47-1.37,1.31-1.74,2.68-1.1c1.01,0.47,2,1.01,2.99,1.5c1.38,0.67,2.62,0.36,3.22-0.82
		c0.6-1.16,0.15-2.32-1.27-3.05c-1.2-0.64-2.43-1.22-3.67-1.83c-0.56-0.28-1.16-0.51-1.8-0.39c-1.37,0.22-1.59-0.39-1.55-1.63
		c0.11-2.53,0.04-2.53,2.53-2.53c1.78,0,3.57,0.02,5.35,0c1.78-0.02,2.77-0.82,2.77-2.19c0-1.38-0.99-2.19-2.75-2.19
		c-2.32,0-4.66-0.04-6.98,0.02c-0.71,0.02-0.99-0.21-0.88-0.9c0.04-0.24,0-0.51,0-0.75c0.02-0.79-0.22-1.74,0.13-2.32
		c0.36-0.6,1.38-0.07,2.1-0.28c2.06-0.56,3.93-1.55,5.63-2.79c0.86-0.62,0.86-1.65,0.28-2.58c-0.56-0.9-1.68-1.27-2.73-0.8
		c-1.07,0.47-2.08,1.05-3.11,1.55c-0.37,0.19-0.73,0.43-1.18,0.34c-0.37-0.07-0.88,0.28-1.1-0.24c-0.24-0.56,0.15-0.9,0.56-1.22
		c2.81-2.08,5.6-4.19,8.38-6.27c1.53-1.16,3.09-2.26,4.58-3.46c0.64-0.51,0.9-0.45,1.31,0.26c3.39,5.84,4.87,12.07,3.93,18.77
		C91.78,96.84,84.93,105.18,73.25,109.3z M103.51,32.77c-0.8-1.03-2.11-1.09-3.31-0.13c-1.68,1.33-3.39,2.68-5.05,4.04
		c-1.31,1.09-2.77,1.63-4.45,1.63H37.25c-1.7,0-3.14-0.58-4.43-1.65c-1.63-1.37-3.31-2.68-4.96-3.99c-1.27-1.01-2.58-0.95-3.41,0.13
		c-0.79,1.03-0.54,2.25,0.69,3.24c1.61,1.31,3.26,2.58,4.87,3.91c2.3,1.91,4.94,2.75,7.92,2.75c8.7-0.04,17.4-0.02,26.1-0.02
		c8.74,0,17.48-0.02,26.22,0c2.81,0.02,5.31-0.77,7.49-2.54c1.72-1.38,3.44-2.75,5.16-4.14C104.09,35.03,104.32,33.78,103.51,32.77z
		 M104.78,21.59c-1.18-3.31-2.38-6.61-3.59-9.92c-0.79-2.19-2.21-3.18-4.51-3.18H74.98c-2.71,0-4.55,1.63-4.62,4.32
		c-0.09,3.54-0.09,7.07,0,10.61c0.07,2.69,1.91,4.29,4.64,4.29c4.25,0.02,8.48,0,12.72,0h12.72
		C104.06,27.71,105.98,24.98,104.78,21.59z M99.62,23.47c-3.95-0.07-7.9-0.02-11.86-0.02c-3.99,0-7.99-0.02-11.98,0
		c-0.75,0.02-1.1-0.07-1.09-0.97c0.06-2.92,0.04-5.82,0-8.74c-0.02-0.79,0.24-0.95,0.99-0.95c6.77,0.02,13.57,0.02,20.34,0
		c0.77-0.02,1.09,0.24,1.33,0.94c0.99,2.86,2.02,5.69,3.11,8.51C100.82,23.17,100.76,23.48,99.62,23.47z M104.78,21.59
		c-1.18-3.31-2.38-6.61-3.59-9.92c-0.79-2.19-2.21-3.18-4.51-3.18H74.98c-2.71,0-4.55,1.63-4.62,4.32c-0.09,3.54-0.09,7.07,0,10.61
		c0.07,2.69,1.91,4.29,4.64,4.29c4.25,0.02,8.48,0,12.72,0h12.72C104.06,27.71,105.98,24.98,104.78,21.59z M99.62,23.47
		c-3.95-0.07-7.9-0.02-11.86-0.02c-3.99,0-7.99-0.02-11.98,0c-0.75,0.02-1.1-0.07-1.09-0.97c0.06-2.92,0.04-5.82,0-8.74
		c-0.02-0.79,0.24-0.95,0.99-0.95c6.77,0.02,13.57,0.02,20.34,0c0.77-0.02,1.09,0.24,1.33,0.94c0.99,2.86,2.02,5.69,3.11,8.51
		C100.82,23.17,100.76,23.48,99.62,23.47z M103.51,32.77c-0.8-1.03-2.11-1.09-3.31-0.13c-1.68,1.33-3.39,2.68-5.05,4.04
		c-1.31,1.09-2.77,1.63-4.45,1.63H37.25c-1.7,0-3.14-0.58-4.43-1.65c-1.63-1.37-3.31-2.68-4.96-3.99c-1.27-1.01-2.58-0.95-3.41,0.13
		c-0.79,1.03-0.54,2.25,0.69,3.24c1.61,1.31,3.26,2.58,4.87,3.91c2.3,1.91,4.94,2.75,7.92,2.75c8.7-0.04,17.4-0.02,26.1-0.02
		c8.74,0,17.48-0.02,26.22,0c2.81,0.02,5.31-0.77,7.49-2.54c1.72-1.38,3.44-2.75,5.16-4.14C104.09,35.03,104.32,33.78,103.51,32.77z
		 M63.82,46.86c-18.77,0.09-33.96,15.31-33.91,33.91c0.07,19.37,15.14,34.43,34.38,34.38c18.58-0.06,33.83-15.38,33.78-33.93
		C97.99,61.9,82.89,46.74,63.82,46.86z M39.48,96.69c-0.62,0.47-0.73,0.06-0.97-0.36c-2.43-3.95-3.8-8.27-4.19-12.87
		c-1.1-12.52,6.01-24.51,17.5-29.7c11.43-5.13,25.02-2.45,33.7,6.59c0.88,0.92,0.77,1.29-0.21,2c-4.08,2.96-8.07,6.01-12.09,9.02
		c-0.28,0.21-0.49,0.66-0.95,0.37c-0.54-0.32-0.17-0.71-0.06-1.09c0.51-1.91,0.49-3.8-0.32-5.61c-0.3-0.67-0.11-0.94,0.41-1.25
		c1.07-0.65,2.1-1.35,3.12-2.04c1.35-0.9,1.72-2.06,1.05-3.16c-0.71-1.14-1.98-1.35-3.35-0.47c-1.27,0.79-2.53,1.59-3.76,2.45
		c-0.51,0.36-0.88,0.37-1.44,0.07c-2.6-1.35-5.26-1.35-7.86,0.02c-0.58,0.3-0.94,0.24-1.44-0.11c-1.2-0.82-2.43-1.59-3.65-2.38
		c-1.38-0.9-2.64-0.77-3.39,0.32c-0.75,1.07-0.36,2.36,0.99,3.26c1.07,0.71,2.13,1.42,3.24,2.11c0.45,0.28,0.58,0.54,0.34,1.09
		c-0.86,1.89-0.9,3.85-0.3,5.82c0.17,0.54,0.11,0.8-0.3,1.16c-1.12,0.92-1.83,2.11-2.1,3.57c-0.24,1.25-0.8,1.55-2.02,1.01
		c-1.07-0.47-2.08-1.03-3.11-1.53c-1.48-0.73-2.71-0.41-3.31,0.8c-0.6,1.22-0.09,2.34,1.4,3.11c1.1,0.56,2.25,1.07,3.33,1.67
		c0.84,0.47,1.74,0.49,2.66,0.45c0.6-0.04,0.86,0.09,0.9,0.8c0.13,3.39,0.17,3.39-3.26,3.39c-1.63,0-3.26-0.02-4.87,0
		c-1.55,0.02-2.51,0.86-2.51,2.17s0.92,2.15,2.49,2.21c1.12,0.02,2.25,0,3.37,0c0.02,0.07,0.06,0.17,0.07,0.24
		C45.56,92.1,42.51,94.39,39.48,96.69z M66.2,92.01c0-0.97-0.32-1.8-1.23-2.28c-0.77-0.41-1.52-0.32-2.23,0.19
		c-0.79,0.56-0.95,1.4-0.94,2.3c0,2.88-0.02,5.74,0,8.63c0.02,0.82-0.15,1.09-0.94,0.6c-1.82-1.1-3.03-2.64-3.12-4.79
		c-0.13-2.54-0.06-5.09-0.07-7.62c-0.02-0.41,0.13-0.69,0.47-0.94c3.99-2.98,7.97-5.97,12.2-9.15V91.2c0,1.7,0.02,3.41-0.04,5.11
		c-0.09,2.21-1.23,3.82-3.03,5.01c-0.73,0.51-1.1,0.54-1.09-0.58C66.24,97.85,66.2,94.93,66.2,92.01z M58.27,75.3
		c0.92-0.77,1.37,0.34,1.96,0.6c1.93,0.88,3.89,0.97,6.21,0.54c-2.99,2.25-5.76,4.34-8.65,6.51c-0.26-1.01-0.09-1.93-0.13-2.84
		c-0.02-0.82-0.02-1.67,0-2.49S57.52,75.92,58.27,75.3z M59.74,68.15c0.04-2.25,1.96-4.19,4.23-4.21c2.3-0.02,4.3,2,4.27,4.3
		c-0.02,2.32-2.02,4.25-4.34,4.19C61.62,72.38,59.73,70.43,59.74,68.15z M73.25,109.3c-11.17,3.93-24.53,0.06-31.68-8.79
		c3.84-2.88,7.67-5.74,11.62-8.7c0.24,2.06-0.06,3.95,0.28,5.84c0.84,4.9,4.79,8.55,9.79,8.96c4.68,0.39,9.23-2.62,10.82-7.17
		c0.47-1.37,1.31-1.74,2.68-1.1c1.01,0.47,2,1.01,2.99,1.5c1.38,0.67,2.62,0.36,3.22-0.82c0.6-1.16,0.15-2.32-1.27-3.05
		c-1.2-0.64-2.43-1.22-3.67-1.83c-0.56-0.28-1.16-0.51-1.8-0.39c-1.37,0.22-1.59-0.39-1.55-1.63c0.11-2.53,0.04-2.53,2.53-2.53
		c1.78,0,3.57,0.02,5.35,0c1.78-0.02,2.77-0.82,2.77-2.19c0-1.38-0.99-2.19-2.75-2.19c-2.32,0-4.66-0.04-6.98,0.02
		c-0.71,0.02-0.99-0.21-0.88-0.9c0.04-0.24,0-0.51,0-0.75c0.02-0.79-0.22-1.74,0.13-2.32c0.36-0.6,1.38-0.07,2.1-0.28
		c2.06-0.56,3.93-1.55,5.63-2.79c0.86-0.62,0.86-1.65,0.28-2.58c-0.56-0.9-1.68-1.27-2.73-0.8c-1.07,0.47-2.08,1.05-3.11,1.55
		c-0.37,0.19-0.73,0.43-1.18,0.34c-0.37-0.07-0.88,0.28-1.1-0.24c-0.24-0.56,0.15-0.9,0.56-1.22c2.81-2.08,5.6-4.19,8.38-6.27
		c1.53-1.16,3.09-2.26,4.58-3.46c0.64-0.51,0.9-0.45,1.31,0.26c3.39,5.84,4.87,12.07,3.93,18.77
		C91.78,96.84,84.93,105.18,73.25,109.3z M63.82,46.86c-18.77,0.09-33.96,15.31-33.91,33.91c0.07,19.37,15.14,34.43,34.38,34.38
		c18.58-0.06,33.83-15.38,33.78-33.93C97.99,61.9,82.89,46.74,63.82,46.86z M39.48,96.69c-0.62,0.47-0.73,0.06-0.97-0.36
		c-2.43-3.95-3.8-8.27-4.19-12.87c-1.1-12.52,6.01-24.51,17.5-29.7c11.43-5.13,25.02-2.45,33.7,6.59c0.88,0.92,0.77,1.29-0.21,2
		c-4.08,2.96-8.07,6.01-12.09,9.02c-0.28,0.21-0.49,0.66-0.95,0.37c-0.54-0.32-0.17-0.71-0.06-1.09c0.51-1.91,0.49-3.8-0.32-5.61
		c-0.3-0.67-0.11-0.94,0.41-1.25c1.07-0.65,2.1-1.35,3.12-2.04c1.35-0.9,1.72-2.06,1.05-3.16c-0.71-1.14-1.98-1.35-3.35-0.47
		c-1.27,0.79-2.53,1.59-3.76,2.45c-0.51,0.36-0.88,0.37-1.44,0.07c-2.6-1.35-5.26-1.35-7.86,0.02c-0.58,0.3-0.94,0.24-1.44-0.11
		c-1.2-0.82-2.43-1.59-3.65-2.38c-1.38-0.9-2.64-0.77-3.39,0.32c-0.75,1.07-0.36,2.36,0.99,3.26c1.07,0.71,2.13,1.42,3.24,2.11
		c0.45,0.28,0.58,0.54,0.34,1.09c-0.86,1.89-0.9,3.85-0.3,5.82c0.17,0.54,0.11,0.8-0.3,1.16c-1.12,0.92-1.83,2.11-2.1,3.57
		c-0.24,1.25-0.8,1.55-2.02,1.01c-1.07-0.47-2.08-1.03-3.11-1.53c-1.48-0.73-2.71-0.41-3.31,0.8c-0.6,1.22-0.09,2.34,1.4,3.11
		c1.1,0.56,2.25,1.07,3.33,1.67c0.84,0.47,1.74,0.49,2.66,0.45c0.6-0.04,0.86,0.09,0.9,0.8c0.13,3.39,0.17,3.39-3.26,3.39
		c-1.63,0-3.26-0.02-4.87,0c-1.55,0.02-2.51,0.86-2.51,2.17s0.92,2.15,2.49,2.21c1.12,0.02,2.25,0,3.37,0
		c0.02,0.07,0.06,0.17,0.07,0.24C45.56,92.1,42.51,94.39,39.48,96.69z M66.2,92.01c0-0.97-0.32-1.8-1.23-2.28
		c-0.77-0.41-1.52-0.32-2.23,0.19c-0.79,0.56-0.95,1.4-0.94,2.3c0,2.88-0.02,5.74,0,8.63c0.02,0.82-0.15,1.09-0.94,0.6
		c-1.82-1.1-3.03-2.64-3.12-4.79c-0.13-2.54-0.06-5.09-0.07-7.62c-0.02-0.41,0.13-0.69,0.47-0.94c3.99-2.98,7.97-5.97,12.2-9.15
		V91.2c0,1.7,0.02,3.41-0.04,5.11c-0.09,2.21-1.23,3.82-3.03,5.01c-0.73,0.51-1.1,0.54-1.09-0.58C66.24,97.85,66.2,94.93,66.2,92.01
		z M58.27,75.3c0.92-0.77,1.37,0.34,1.96,0.6c1.93,0.88,3.89,0.97,6.21,0.54c-2.99,2.25-5.76,4.34-8.65,6.51
		c-0.26-1.01-0.09-1.93-0.13-2.84c-0.02-0.82-0.02-1.67,0-2.49S57.52,75.92,58.27,75.3z M59.74,68.15c0.04-2.25,1.96-4.19,4.23-4.21
		c2.3-0.02,4.3,2,4.27,4.3c-0.02,2.32-2.02,4.25-4.34,4.19C61.62,72.38,59.73,70.43,59.74,68.15z M73.25,109.3
		c-11.17,3.93-24.53,0.06-31.68-8.79c3.84-2.88,7.67-5.74,11.62-8.7c0.24,2.06-0.06,3.95,0.28,5.84c0.84,4.9,4.79,8.55,9.79,8.96
		c4.68,0.39,9.23-2.62,10.82-7.17c0.47-1.37,1.31-1.74,2.68-1.1c1.01,0.47,2,1.01,2.99,1.5c1.38,0.67,2.62,0.36,3.22-0.82
		c0.6-1.16,0.15-2.32-1.27-3.05c-1.2-0.64-2.43-1.22-3.67-1.83c-0.56-0.28-1.16-0.51-1.8-0.39c-1.37,0.22-1.59-0.39-1.55-1.63
		c0.11-2.53,0.04-2.53,2.53-2.53c1.78,0,3.57,0.02,5.35,0c1.78-0.02,2.77-0.82,2.77-2.19c0-1.38-0.99-2.19-2.75-2.19
		c-2.32,0-4.66-0.04-6.98,0.02c-0.71,0.02-0.99-0.21-0.88-0.9c0.04-0.24,0-0.51,0-0.75c0.02-0.79-0.22-1.74,0.13-2.32
		c0.36-0.6,1.38-0.07,2.1-0.28c2.06-0.56,3.93-1.55,5.63-2.79c0.86-0.62,0.86-1.65,0.28-2.58c-0.56-0.9-1.68-1.27-2.73-0.8
		c-1.07,0.47-2.08,1.05-3.11,1.55c-0.37,0.19-0.73,0.43-1.18,0.34c-0.37-0.07-0.88,0.28-1.1-0.24c-0.24-0.56,0.15-0.9,0.56-1.22
		c2.81-2.08,5.6-4.19,8.38-6.27c1.53-1.16,3.09-2.26,4.58-3.46c0.64-0.51,0.9-0.45,1.31,0.26c3.39,5.84,4.87,12.07,3.93,18.77
		C91.78,96.84,84.93,105.18,73.25,109.3z M103.51,32.77c-0.8-1.03-2.11-1.09-3.31-0.13c-1.68,1.33-3.39,2.68-5.05,4.04
		c-1.31,1.09-2.77,1.63-4.45,1.63H37.25c-1.7,0-3.14-0.58-4.43-1.65c-1.63-1.37-3.31-2.68-4.96-3.99c-1.27-1.01-2.58-0.95-3.41,0.13
		c-0.79,1.03-0.54,2.25,0.69,3.24c1.61,1.31,3.26,2.58,4.87,3.91c2.3,1.91,4.94,2.75,7.92,2.75c8.7-0.04,17.4-0.02,26.1-0.02
		c8.74,0,17.48-0.02,26.22,0c2.81,0.02,5.31-0.77,7.49-2.54c1.72-1.38,3.44-2.75,5.16-4.14C104.09,35.03,104.32,33.78,103.51,32.77z
		 M104.78,21.59c-1.18-3.31-2.38-6.61-3.59-9.92c-0.79-2.19-2.21-3.18-4.51-3.18H74.98c-2.71,0-4.55,1.63-4.62,4.32
		c-0.09,3.54-0.09,7.07,0,10.61c0.07,2.69,1.91,4.29,4.64,4.29c4.25,0.02,8.48,0,12.72,0h12.72
		C104.06,27.71,105.98,24.98,104.78,21.59z M99.62,23.47c-3.95-0.07-7.9-0.02-11.86-0.02c-3.99,0-7.99-0.02-11.98,0
		c-0.75,0.02-1.1-0.07-1.09-0.97c0.06-2.92,0.04-5.82,0-8.74c-0.02-0.79,0.24-0.95,0.99-0.95c6.77,0.02,13.57,0.02,20.34,0
		c0.77-0.02,1.09,0.24,1.33,0.94c0.99,2.86,2.02,5.69,3.11,8.51C100.82,23.17,100.76,23.48,99.62,23.47z M104.78,21.59
		c-1.18-3.31-2.38-6.61-3.59-9.92c-0.79-2.19-2.21-3.18-4.51-3.18H74.98c-2.71,0-4.55,1.63-4.62,4.32c-0.09,3.54-0.09,7.07,0,10.61
		c0.07,2.69,1.91,4.29,4.64,4.29c4.25,0.02,8.48,0,12.72,0h12.72C104.06,27.71,105.98,24.98,104.78,21.59z M99.62,23.47
		c-3.95-0.07-7.9-0.02-11.86-0.02c-3.99,0-7.99-0.02-11.98,0c-0.75,0.02-1.1-0.07-1.09-0.97c0.06-2.92,0.04-5.82,0-8.74
		c-0.02-0.79,0.24-0.95,0.99-0.95c6.77,0.02,13.57,0.02,20.34,0c0.77-0.02,1.09,0.24,1.33,0.94c0.99,2.86,2.02,5.69,3.11,8.51
		C100.82,23.17,100.76,23.48,99.62,23.47z M103.51,32.77c-0.8-1.03-2.11-1.09-3.31-0.13c-1.68,1.33-3.39,2.68-5.05,4.04
		c-1.31,1.09-2.77,1.63-4.45,1.63H37.25c-1.7,0-3.14-0.58-4.43-1.65c-1.63-1.37-3.31-2.68-4.96-3.99c-1.27-1.01-2.58-0.95-3.41,0.13
		c-0.79,1.03-0.54,2.25,0.69,3.24c1.61,1.31,3.26,2.58,4.87,3.91c2.3,1.91,4.94,2.75,7.92,2.75c8.7-0.04,17.4-0.02,26.1-0.02
		c8.74,0,17.48-0.02,26.22,0c2.81,0.02,5.31-0.77,7.49-2.54c1.72-1.38,3.44-2.75,5.16-4.14C104.09,35.03,104.32,33.78,103.51,32.77z
		 M63.82,46.86c-18.77,0.09-33.96,15.31-33.91,33.91c0.07,19.37,15.14,34.43,34.38,34.38c18.58-0.06,33.83-15.38,33.78-33.93
		C97.99,61.9,82.89,46.74,63.82,46.86z M39.48,96.69c-0.62,0.47-0.73,0.06-0.97-0.36c-2.43-3.95-3.8-8.27-4.19-12.87
		c-1.1-12.52,6.01-24.51,17.5-29.7c11.43-5.13,25.02-2.45,33.7,6.59c0.88,0.92,0.77,1.29-0.21,2c-4.08,2.96-8.07,6.01-12.09,9.02
		c-0.28,0.21-0.49,0.66-0.95,0.37c-0.54-0.32-0.17-0.71-0.06-1.09c0.51-1.91,0.49-3.8-0.32-5.61c-0.3-0.67-0.11-0.94,0.41-1.25
		c1.07-0.65,2.1-1.35,3.12-2.04c1.35-0.9,1.72-2.06,1.05-3.16c-0.71-1.14-1.98-1.35-3.35-0.47c-1.27,0.79-2.53,1.59-3.76,2.45
		c-0.51,0.36-0.88,0.37-1.44,0.07c-2.6-1.35-5.26-1.35-7.86,0.02c-0.58,0.3-0.94,0.24-1.44-0.11c-1.2-0.82-2.43-1.59-3.65-2.38
		c-1.38-0.9-2.64-0.77-3.39,0.32c-0.75,1.07-0.36,2.36,0.99,3.26c1.07,0.71,2.13,1.42,3.24,2.11c0.45,0.28,0.58,0.54,0.34,1.09
		c-0.86,1.89-0.9,3.85-0.3,5.82c0.17,0.54,0.11,0.8-0.3,1.16c-1.12,0.92-1.83,2.11-2.1,3.57c-0.24,1.25-0.8,1.55-2.02,1.01
		c-1.07-0.47-2.08-1.03-3.11-1.53c-1.48-0.73-2.71-0.41-3.31,0.8c-0.6,1.22-0.09,2.34,1.4,3.11c1.1,0.56,2.25,1.07,3.33,1.67
		c0.84,0.47,1.74,0.49,2.66,0.45c0.6-0.04,0.86,0.09,0.9,0.8c0.13,3.39,0.17,3.39-3.26,3.39c-1.63,0-3.26-0.02-4.87,0
		c-1.55,0.02-2.51,0.86-2.51,2.17s0.92,2.15,2.49,2.21c1.12,0.02,2.25,0,3.37,0c0.02,0.07,0.06,0.17,0.07,0.24
		C45.56,92.1,42.51,94.39,39.48,96.69z M66.2,92.01c0-0.97-0.32-1.8-1.23-2.28c-0.77-0.41-1.52-0.32-2.23,0.19
		c-0.79,0.56-0.95,1.4-0.94,2.3c0,2.88-0.02,5.74,0,8.63c0.02,0.82-0.15,1.09-0.94,0.6c-1.82-1.1-3.03-2.64-3.12-4.79
		c-0.13-2.54-0.06-5.09-0.07-7.62c-0.02-0.41,0.13-0.69,0.47-0.94c3.99-2.98,7.97-5.97,12.2-9.15V91.2c0,1.7,0.02,3.41-0.04,5.11
		c-0.09,2.21-1.23,3.82-3.03,5.01c-0.73,0.51-1.1,0.54-1.09-0.58C66.24,97.85,66.2,94.93,66.2,92.01z M58.27,75.3
		c0.92-0.77,1.37,0.34,1.96,0.6c1.93,0.88,3.89,0.97,6.21,0.54c-2.99,2.25-5.76,4.34-8.65,6.51c-0.26-1.01-0.09-1.93-0.13-2.84
		c-0.02-0.82-0.02-1.67,0-2.49S57.52,75.92,58.27,75.3z M59.74,68.15c0.04-2.25,1.96-4.19,4.23-4.21c2.3-0.02,4.3,2,4.27,4.3
		c-0.02,2.32-2.02,4.25-4.34,4.19C61.62,72.38,59.73,70.43,59.74,68.15z M73.25,109.3c-11.17,3.93-24.53,0.06-31.68-8.79
		c3.84-2.88,7.67-5.74,11.62-8.7c0.24,2.06-0.06,3.95,0.28,5.84c0.84,4.9,4.79,8.55,9.79,8.96c4.68,0.39,9.23-2.62,10.82-7.17
		c0.47-1.37,1.31-1.74,2.68-1.1c1.01,0.47,2,1.01,2.99,1.5c1.38,0.67,2.62,0.36,3.22-0.82c0.6-1.16,0.15-2.32-1.27-3.05
		c-1.2-0.64-2.43-1.22-3.67-1.83c-0.56-0.28-1.16-0.51-1.8-0.39c-1.37,0.22-1.59-0.39-1.55-1.63c0.11-2.53,0.04-2.53,2.53-2.53
		c1.78,0,3.57,0.02,5.35,0c1.78-0.02,2.77-0.82,2.77-2.19c0-1.38-0.99-2.19-2.75-2.19c-2.32,0-4.66-0.04-6.98,0.02
		c-0.71,0.02-0.99-0.21-0.88-0.9c0.04-0.24,0-0.51,0-0.75c0.02-0.79-0.22-1.74,0.13-2.32c0.36-0.6,1.38-0.07,2.1-0.28
		c2.06-0.56,3.93-1.55,5.63-2.79c0.86-0.62,0.86-1.65,0.28-2.58c-0.56-0.9-1.68-1.27-2.73-0.8c-1.07,0.47-2.08,1.05-3.11,1.55
		c-0.37,0.19-0.73,0.43-1.18,0.34c-0.37-0.07-0.88,0.28-1.1-0.24c-0.24-0.56,0.15-0.9,0.56-1.22c2.81-2.08,5.6-4.19,8.38-6.27
		c1.53-1.16,3.09-2.26,4.58-3.46c0.64-0.51,0.9-0.45,1.31,0.26c3.39,5.84,4.87,12.07,3.93,18.77
		C91.78,96.84,84.93,105.18,73.25,109.3z M63.82,46.86c-18.77,0.09-33.96,15.31-33.91,33.91c0.07,19.37,15.14,34.43,34.38,34.38
		c18.58-0.06,33.83-15.38,33.78-33.93C97.99,61.9,82.89,46.74,63.82,46.86z M39.48,96.69c-0.62,0.47-0.73,0.06-0.97-0.36
		c-2.43-3.95-3.8-8.27-4.19-12.87c-1.1-12.52,6.01-24.51,17.5-29.7c11.43-5.13,25.02-2.45,33.7,6.59c0.88,0.92,0.77,1.29-0.21,2
		c-4.08,2.96-8.07,6.01-12.09,9.02c-0.28,0.21-0.49,0.66-0.95,0.37c-0.54-0.32-0.17-0.71-0.06-1.09c0.51-1.91,0.49-3.8-0.32-5.61
		c-0.3-0.67-0.11-0.94,0.41-1.25c1.07-0.65,2.1-1.35,3.12-2.04c1.35-0.9,1.72-2.06,1.05-3.16c-0.71-1.14-1.98-1.35-3.35-0.47
		c-1.27,0.79-2.53,1.59-3.76,2.45c-0.51,0.36-0.88,0.37-1.44,0.07c-2.6-1.35-5.26-1.35-7.86,0.02c-0.58,0.3-0.94,0.24-1.44-0.11
		c-1.2-0.82-2.43-1.59-3.65-2.38c-1.38-0.9-2.64-0.77-3.39,0.32c-0.75,1.07-0.36,2.36,0.99,3.26c1.07,0.71,2.13,1.42,3.24,2.11
		c0.45,0.28,0.58,0.54,0.34,1.09c-0.86,1.89-0.9,3.85-0.3,5.82c0.17,0.54,0.11,0.8-0.3,1.16c-1.12,0.92-1.83,2.11-2.1,3.57
		c-0.24,1.25-0.8,1.55-2.02,1.01c-1.07-0.47-2.08-1.03-3.11-1.53c-1.48-0.73-2.71-0.41-3.31,0.8c-0.6,1.22-0.09,2.34,1.4,3.11
		c1.1,0.56,2.25,1.07,3.33,1.67c0.84,0.47,1.74,0.49,2.66,0.45c0.6-0.04,0.86,0.09,0.9,0.8c0.13,3.39,0.17,3.39-3.26,3.39
		c-1.63,0-3.26-0.02-4.87,0c-1.55,0.02-2.51,0.86-2.51,2.17s0.92,2.15,2.49,2.21c1.12,0.02,2.25,0,3.37,0
		c0.02,0.07,0.06,0.17,0.07,0.24C45.56,92.1,42.51,94.39,39.48,96.69z M66.2,92.01c0-0.97-0.32-1.8-1.23-2.28
		c-0.77-0.41-1.52-0.32-2.23,0.19c-0.79,0.56-0.95,1.4-0.94,2.3c0,2.88-0.02,5.74,0,8.63c0.02,0.82-0.15,1.09-0.94,0.6
		c-1.82-1.1-3.03-2.64-3.12-4.79c-0.13-2.54-0.06-5.09-0.07-7.62c-0.02-0.41,0.13-0.69,0.47-0.94c3.99-2.98,7.97-5.97,12.2-9.15
		V91.2c0,1.7,0.02,3.41-0.04,5.11c-0.09,2.21-1.23,3.82-3.03,5.01c-0.73,0.51-1.1,0.54-1.09-0.58C66.24,97.85,66.2,94.93,66.2,92.01
		z M58.27,75.3c0.92-0.77,1.37,0.34,1.96,0.6c1.93,0.88,3.89,0.97,6.21,0.54c-2.99,2.25-5.76,4.34-8.65,6.51
		c-0.26-1.01-0.09-1.93-0.13-2.84c-0.02-0.82-0.02-1.67,0-2.49S57.52,75.92,58.27,75.3z M59.74,68.15c0.04-2.25,1.96-4.19,4.23-4.21
		c2.3-0.02,4.3,2,4.27,4.3c-0.02,2.32-2.02,4.25-4.34,4.19C61.62,72.38,59.73,70.43,59.74,68.15z M73.25,109.3
		c-11.17,3.93-24.53,0.06-31.68-8.79c3.84-2.88,7.67-5.74,11.62-8.7c0.24,2.06-0.06,3.95,0.28,5.84c0.84,4.9,4.79,8.55,9.79,8.96
		c4.68,0.39,9.23-2.62,10.82-7.17c0.47-1.37,1.31-1.74,2.68-1.1c1.01,0.47,2,1.01,2.99,1.5c1.38,0.67,2.62,0.36,3.22-0.82
		c0.6-1.16,0.15-2.32-1.27-3.05c-1.2-0.64-2.43-1.22-3.67-1.83c-0.56-0.28-1.16-0.51-1.8-0.39c-1.37,0.22-1.59-0.39-1.55-1.63
		c0.11-2.53,0.04-2.53,2.53-2.53c1.78,0,3.57,0.02,5.35,0c1.78-0.02,2.77-0.82,2.77-2.19c0-1.38-0.99-2.19-2.75-2.19
		c-2.32,0-4.66-0.04-6.98,0.02c-0.71,0.02-0.99-0.21-0.88-0.9c0.04-0.24,0-0.51,0-0.75c0.02-0.79-0.22-1.74,0.13-2.32
		c0.36-0.6,1.38-0.07,2.1-0.28c2.06-0.56,3.93-1.55,5.63-2.79c0.86-0.62,0.86-1.65,0.28-2.58c-0.56-0.9-1.68-1.27-2.73-0.8
		c-1.07,0.47-2.08,1.05-3.11,1.55c-0.37,0.19-0.73,0.43-1.18,0.34c-0.37-0.07-0.88,0.28-1.1-0.24c-0.24-0.56,0.15-0.9,0.56-1.22
		c2.81-2.08,5.6-4.19,8.38-6.27c1.53-1.16,3.09-2.26,4.58-3.46c0.64-0.51,0.9-0.45,1.31,0.26c3.39,5.84,4.87,12.07,3.93,18.77
		C91.78,96.84,84.93,105.18,73.25,109.3z M103.51,32.77c-0.8-1.03-2.11-1.09-3.31-0.13c-1.68,1.33-3.39,2.68-5.05,4.04
		c-1.31,1.09-2.77,1.63-4.45,1.63H37.25c-1.7,0-3.14-0.58-4.43-1.65c-1.63-1.37-3.31-2.68-4.96-3.99c-1.27-1.01-2.58-0.95-3.41,0.13
		c-0.79,1.03-0.54,2.25,0.69,3.24c1.61,1.31,3.26,2.58,4.87,3.91c2.3,1.91,4.94,2.75,7.92,2.75c8.7-0.04,17.4-0.02,26.1-0.02
		c8.74,0,17.48-0.02,26.22,0c2.81,0.02,5.31-0.77,7.49-2.54c1.72-1.38,3.44-2.75,5.16-4.14C104.09,35.03,104.32,33.78,103.51,32.77z
		 M104.78,21.59c-1.18-3.31-2.38-6.61-3.59-9.92c-0.79-2.19-2.21-3.18-4.51-3.18H74.98c-2.71,0-4.55,1.63-4.62,4.32
		c-0.09,3.54-0.09,7.07,0,10.61c0.07,2.69,1.91,4.29,4.64,4.29c4.25,0.02,8.48,0,12.72,0h12.72
		C104.06,27.71,105.98,24.98,104.78,21.59z M99.62,23.47c-3.95-0.07-7.9-0.02-11.86-0.02c-3.99,0-7.99-0.02-11.98,0
		c-0.75,0.02-1.1-0.07-1.09-0.97c0.06-2.92,0.04-5.82,0-8.74c-0.02-0.79,0.24-0.95,0.99-0.95c6.77,0.02,13.57,0.02,20.34,0
		c0.77-0.02,1.09,0.24,1.33,0.94c0.99,2.86,2.02,5.69,3.11,8.51C100.82,23.17,100.76,23.48,99.62,23.47z M104.78,21.59
		c-1.18-3.31-2.38-6.61-3.59-9.92c-0.79-2.19-2.21-3.18-4.51-3.18H74.98c-2.71,0-4.55,1.63-4.62,4.32c-0.09,3.54-0.09,7.07,0,10.61
		c0.07,2.69,1.91,4.29,4.64,4.29c4.25,0.02,8.48,0,12.72,0h12.72C104.06,27.71,105.98,24.98,104.78,21.59z M99.62,23.47
		c-3.95-0.07-7.9-0.02-11.86-0.02c-3.99,0-7.99-0.02-11.98,0c-0.75,0.02-1.1-0.07-1.09-0.97c0.06-2.92,0.04-5.82,0-8.74
		c-0.02-0.79,0.24-0.95,0.99-0.95c6.77,0.02,13.57,0.02,20.34,0c0.77-0.02,1.09,0.24,1.33,0.94c0.99,2.86,2.02,5.69,3.11,8.51
		C100.82,23.17,100.76,23.48,99.62,23.47z M103.51,32.77c-0.8-1.03-2.11-1.09-3.31-0.13c-1.68,1.33-3.39,2.68-5.05,4.04
		c-1.31,1.09-2.77,1.63-4.45,1.63H37.25c-1.7,0-3.14-0.58-4.43-1.65c-1.63-1.37-3.31-2.68-4.96-3.99c-1.27-1.01-2.58-0.95-3.41,0.13
		c-0.79,1.03-0.54,2.25,0.69,3.24c1.61,1.31,3.26,2.58,4.87,3.91c2.3,1.91,4.94,2.75,7.92,2.75c8.7-0.04,17.4-0.02,26.1-0.02
		c8.74,0,17.48-0.02,26.22,0c2.81,0.02,5.31-0.77,7.49-2.54c1.72-1.38,3.44-2.75,5.16-4.14C104.09,35.03,104.32,33.78,103.51,32.77z
		 M63.82,46.86c-18.77,0.09-33.96,15.31-33.91,33.91c0.07,19.37,15.14,34.43,34.38,34.38c18.58-0.06,33.83-15.38,33.78-33.93
		C97.99,61.9,82.89,46.74,63.82,46.86z M39.48,96.69c-0.62,0.47-0.73,0.06-0.97-0.36c-2.43-3.95-3.8-8.27-4.19-12.87
		c-1.1-12.52,6.01-24.51,17.5-29.7c11.43-5.13,25.02-2.45,33.7,6.59c0.88,0.92,0.77,1.29-0.21,2c-4.08,2.96-8.07,6.01-12.09,9.02
		c-0.28,0.21-0.49,0.66-0.95,0.37c-0.54-0.32-0.17-0.71-0.06-1.09c0.51-1.91,0.49-3.8-0.32-5.61c-0.3-0.67-0.11-0.94,0.41-1.25
		c1.07-0.65,2.1-1.35,3.12-2.04c1.35-0.9,1.72-2.06,1.05-3.16c-0.71-1.14-1.98-1.35-3.35-0.47c-1.27,0.79-2.53,1.59-3.76,2.45
		c-0.51,0.36-0.88,0.37-1.44,0.07c-2.6-1.35-5.26-1.35-7.86,0.02c-0.58,0.3-0.94,0.24-1.44-0.11c-1.2-0.82-2.43-1.59-3.65-2.38
		c-1.38-0.9-2.64-0.77-3.39,0.32c-0.75,1.07-0.36,2.36,0.99,3.26c1.07,0.71,2.13,1.42,3.24,2.11c0.45,0.28,0.58,0.54,0.34,1.09
		c-0.86,1.89-0.9,3.85-0.3,5.82c0.17,0.54,0.11,0.8-0.3,1.16c-1.12,0.92-1.83,2.11-2.1,3.57c-0.24,1.25-0.8,1.55-2.02,1.01
		c-1.07-0.47-2.08-1.03-3.11-1.53c-1.48-0.73-2.71-0.41-3.31,0.8c-0.6,1.22-0.09,2.34,1.4,3.11c1.1,0.56,2.25,1.07,3.33,1.67
		c0.84,0.47,1.74,0.49,2.66,0.45c0.6-0.04,0.86,0.09,0.9,0.8c0.13,3.39,0.17,3.39-3.26,3.39c-1.63,0-3.26-0.02-4.87,0
		c-1.55,0.02-2.51,0.86-2.51,2.17s0.92,2.15,2.49,2.21c1.12,0.02,2.25,0,3.37,0c0.02,0.07,0.06,0.17,0.07,0.24
		C45.56,92.1,42.51,94.39,39.48,96.69z M66.2,92.01c0-0.97-0.32-1.8-1.23-2.28c-0.77-0.41-1.52-0.32-2.23,0.19
		c-0.79,0.56-0.95,1.4-0.94,2.3c0,2.88-0.02,5.74,0,8.63c0.02,0.82-0.15,1.09-0.94,0.6c-1.82-1.1-3.03-2.64-3.12-4.79
		c-0.13-2.54-0.06-5.09-0.07-7.62c-0.02-0.41,0.13-0.69,0.47-0.94c3.99-2.98,7.97-5.97,12.2-9.15V91.2c0,1.7,0.02,3.41-0.04,5.11
		c-0.09,2.21-1.23,3.82-3.03,5.01c-0.73,0.51-1.1,0.54-1.09-0.58C66.24,97.85,66.2,94.93,66.2,92.01z M58.27,75.3
		c0.92-0.77,1.37,0.34,1.96,0.6c1.93,0.88,3.89,0.97,6.21,0.54c-2.99,2.25-5.76,4.34-8.65,6.51c-0.26-1.01-0.09-1.93-0.13-2.84
		c-0.02-0.82-0.02-1.67,0-2.49S57.52,75.92,58.27,75.3z M59.74,68.15c0.04-2.25,1.96-4.19,4.23-4.21c2.3-0.02,4.3,2,4.27,4.3
		c-0.02,2.32-2.02,4.25-4.34,4.19C61.62,72.38,59.73,70.43,59.74,68.15z M73.25,109.3c-11.17,3.93-24.53,0.06-31.68-8.79
		c3.84-2.88,7.67-5.74,11.62-8.7c0.24,2.06-0.06,3.95,0.28,5.84c0.84,4.9,4.79,8.55,9.79,8.96c4.68,0.39,9.23-2.62,10.82-7.17
		c0.47-1.37,1.31-1.74,2.68-1.1c1.01,0.47,2,1.01,2.99,1.5c1.38,0.67,2.62,0.36,3.22-0.82c0.6-1.16,0.15-2.32-1.27-3.05
		c-1.2-0.64-2.43-1.22-3.67-1.83c-0.56-0.28-1.16-0.51-1.8-0.39c-1.37,0.22-1.59-0.39-1.55-1.63c0.11-2.53,0.04-2.53,2.53-2.53
		c1.78,0,3.57,0.02,5.35,0c1.78-0.02,2.77-0.82,2.77-2.19c0-1.38-0.99-2.19-2.75-2.19c-2.32,0-4.66-0.04-6.98,0.02
		c-0.71,0.02-0.99-0.21-0.88-0.9c0.04-0.24,0-0.51,0-0.75c0.02-0.79-0.22-1.74,0.13-2.32c0.36-0.6,1.38-0.07,2.1-0.28
		c2.06-0.56,3.93-1.55,5.63-2.79c0.86-0.62,0.86-1.65,0.28-2.58c-0.56-0.9-1.68-1.27-2.73-0.8c-1.07,0.47-2.08,1.05-3.11,1.55
		c-0.37,0.19-0.73,0.43-1.18,0.34c-0.37-0.07-0.88,0.28-1.1-0.24c-0.24-0.56,0.15-0.9,0.56-1.22c2.81-2.08,5.6-4.19,8.38-6.27
		c1.53-1.16,3.09-2.26,4.58-3.46c0.64-0.51,0.9-0.45,1.31,0.26c3.39,5.84,4.87,12.07,3.93,18.77
		C91.78,96.84,84.93,105.18,73.25,109.3z"/>
	<path d="M63.82,46.86c-18.77,0.09-33.96,15.31-33.91,33.91c0.07,19.37,15.14,34.43,34.38,34.38c18.58-0.06,33.83-15.38,33.78-33.93
		C97.99,61.9,82.89,46.74,63.82,46.86z M39.48,96.69c-0.62,0.47-0.73,0.06-0.97-0.36c-2.43-3.95-3.8-8.27-4.19-12.87
		c-1.1-12.52,6.01-24.51,17.5-29.7c11.43-5.13,25.02-2.45,33.7,6.59c0.88,0.92,0.77,1.29-0.21,2c-4.08,2.96-8.07,6.01-12.09,9.02
		c-0.28,0.21-0.49,0.66-0.95,0.37c-0.54-0.32-0.17-0.71-0.06-1.09c0.51-1.91,0.49-3.8-0.32-5.61c-0.3-0.67-0.11-0.94,0.41-1.25
		c1.07-0.65,2.1-1.35,3.12-2.04c1.35-0.9,1.72-2.06,1.05-3.16c-0.71-1.14-1.98-1.35-3.35-0.47c-1.27,0.79-2.53,1.59-3.76,2.45
		c-0.51,0.36-0.88,0.37-1.44,0.07c-2.6-1.35-5.26-1.35-7.86,0.02c-0.58,0.3-0.94,0.24-1.44-0.11c-1.2-0.82-2.43-1.59-3.65-2.38
		c-1.38-0.9-2.64-0.77-3.39,0.32c-0.75,1.07-0.36,2.36,0.99,3.26c1.07,0.71,2.13,1.42,3.24,2.11c0.45,0.28,0.58,0.54,0.34,1.09
		c-0.86,1.89-0.9,3.85-0.3,5.82c0.17,0.54,0.11,0.8-0.3,1.16c-1.12,0.92-1.83,2.11-2.1,3.57c-0.24,1.25-0.8,1.55-2.02,1.01
		c-1.07-0.47-2.08-1.03-3.11-1.53c-1.48-0.73-2.71-0.41-3.31,0.8c-0.6,1.22-0.09,2.34,1.4,3.11c1.1,0.56,2.25,1.07,3.33,1.67
		c0.84,0.47,1.74,0.49,2.66,0.45c0.6-0.04,0.86,0.09,0.9,0.8c0.13,3.39,0.17,3.39-3.26,3.39c-1.63,0-3.26-0.02-4.87,0
		c-1.55,0.02-2.51,0.86-2.51,2.17s0.92,2.15,2.49,2.21c1.12,0.02,2.25,0,3.37,0c0.02,0.07,0.06,0.17,0.07,0.24
		C45.56,92.1,42.51,94.39,39.48,96.69z M66.2,92.01c0-0.97-0.32-1.8-1.23-2.28c-0.77-0.41-1.52-0.32-2.23,0.19
		c-0.79,0.56-0.95,1.4-0.94,2.3c0,2.88-0.02,5.74,0,8.63c0.02,0.82-0.15,1.09-0.94,0.6c-1.82-1.1-3.03-2.64-3.12-4.79
		c-0.13-2.54-0.06-5.09-0.07-7.62c-0.02-0.41,0.13-0.69,0.47-0.94c3.99-2.98,7.97-5.97,12.2-9.15V91.2c0,1.7,0.02,3.41-0.04,5.11
		c-0.09,2.21-1.23,3.82-3.03,5.01c-0.73,0.51-1.1,0.54-1.09-0.58C66.24,97.85,66.2,94.93,66.2,92.01z M58.27,75.3
		c0.92-0.77,1.37,0.34,1.96,0.6c1.93,0.88,3.89,0.97,6.21,0.54c-2.99,2.25-5.76,4.34-8.65,6.51c-0.26-1.01-0.09-1.93-0.13-2.84
		c-0.02-0.82-0.02-1.67,0-2.49S57.52,75.92,58.27,75.3z M59.74,68.15c0.04-2.25,1.96-4.19,4.23-4.21c2.3-0.02,4.3,2,4.27,4.3
		c-0.02,2.32-2.02,4.25-4.34,4.19C61.62,72.38,59.73,70.43,59.74,68.15z M73.25,109.3c-11.17,3.93-24.53,0.06-31.68-8.79
		c3.84-2.88,7.67-5.74,11.62-8.7c0.24,2.06-0.06,3.95,0.28,5.84c0.84,4.9,4.79,8.55,9.79,8.96c4.68,0.39,9.23-2.62,10.82-7.17
		c0.47-1.37,1.31-1.74,2.68-1.1c1.01,0.47,2,1.01,2.99,1.5c1.38,0.67,2.62,0.36,3.22-0.82c0.6-1.16,0.15-2.32-1.27-3.05
		c-1.2-0.64-2.43-1.22-3.67-1.83c-0.56-0.28-1.16-0.51-1.8-0.39c-1.37,0.22-1.59-0.39-1.55-1.63c0.11-2.53,0.04-2.53,2.53-2.53
		c1.78,0,3.57,0.02,5.35,0c1.78-0.02,2.77-0.82,2.77-2.19c0-1.38-0.99-2.19-2.75-2.19c-2.32,0-4.66-0.04-6.98,0.02
		c-0.71,0.02-0.99-0.21-0.88-0.9c0.04-0.24,0-0.51,0-0.75c0.02-0.79-0.22-1.74,0.13-2.32c0.36-0.6,1.38-0.07,2.1-0.28
		c2.06-0.56,3.93-1.55,5.63-2.79c0.86-0.62,0.86-1.65,0.28-2.58c-0.56-0.9-1.68-1.27-2.73-0.8c-1.07,0.47-2.08,1.05-3.11,1.55
		c-0.37,0.19-0.73,0.43-1.18,0.34c-0.37-0.07-0.88,0.28-1.1-0.24c-0.24-0.56,0.15-0.9,0.56-1.22c2.81-2.08,5.6-4.19,8.38-6.27
		c1.53-1.16,3.09-2.26,4.58-3.46c0.64-0.51,0.9-0.45,1.31,0.26c3.39,5.84,4.87,12.07,3.93,18.77
		C91.78,96.84,84.93,105.18,73.25,109.3z"/>
	<path d="M102.9,36c-1.72,1.38-3.44,2.75-5.16,4.14c-2.17,1.78-4.68,2.56-7.49,2.54c-8.74-0.02-17.48,0-26.22,0
		c-8.7,0-17.4-0.02-26.1,0.02c-2.98,0-5.61-0.84-7.92-2.75c-1.61-1.33-3.26-2.6-4.87-3.91c-1.23-0.99-1.48-2.21-0.69-3.24
		c0.82-1.09,2.13-1.14,3.41-0.13c1.65,1.31,3.33,2.62,4.96,3.99c1.29,1.07,2.73,1.65,4.43,1.65h53.44c1.68,0,3.14-0.54,4.45-1.63
		c1.67-1.37,3.37-2.71,5.05-4.04c1.2-0.95,2.51-0.9,3.31,0.13C104.32,33.78,104.09,35.03,102.9,36z"/>
	<path d="M104.78,21.59c-1.18-3.31-2.38-6.61-3.59-9.92c-0.79-2.19-2.21-3.18-4.51-3.18H74.98c-2.71,0-4.55,1.63-4.62,4.32
		c-0.09,3.54-0.09,7.07,0,10.61c0.07,2.69,1.91,4.29,4.64,4.29c4.25,0.02,8.48,0,12.72,0h12.72
		C104.06,27.71,105.98,24.98,104.78,21.59z M99.62,23.47c-3.95-0.07-7.9-0.02-11.86-0.02c-3.99,0-7.99-0.02-11.98,0
		c-0.75,0.02-1.1-0.07-1.09-0.97c0.06-2.92,0.04-5.82,0-8.74c-0.02-0.79,0.24-0.95,0.99-0.95c6.77,0.02,13.57,0.02,20.34,0
		c0.77-0.02,1.09,0.24,1.33,0.94c0.99,2.86,2.02,5.69,3.11,8.51C100.82,23.17,100.76,23.48,99.62,23.47z"/>
	<path d="M63.82,46.86c-18.77,0.09-33.96,15.31-33.91,33.91c0.07,19.37,15.14,34.43,34.38,34.38c18.58-0.06,33.83-15.38,33.78-33.93
		C97.99,61.9,82.89,46.74,63.82,46.86z M39.48,96.69c-0.62,0.47-0.73,0.06-0.97-0.36c-2.43-3.95-3.8-8.27-4.19-12.87
		c-1.1-12.52,6.01-24.51,17.5-29.7c11.43-5.13,25.02-2.45,33.7,6.59c0.88,0.92,0.77,1.29-0.21,2c-4.08,2.96-8.07,6.01-12.09,9.02
		c-0.28,0.21-0.49,0.66-0.95,0.37c-0.54-0.32-0.17-0.71-0.06-1.09c0.51-1.91,0.49-3.8-0.32-5.61c-0.3-0.67-0.11-0.94,0.41-1.25
		c1.07-0.65,2.1-1.35,3.12-2.04c1.35-0.9,1.72-2.06,1.05-3.16c-0.71-1.14-1.98-1.35-3.35-0.47c-1.27,0.79-2.53,1.59-3.76,2.45
		c-0.51,0.36-0.88,0.37-1.44,0.07c-2.6-1.35-5.26-1.35-7.86,0.02c-0.58,0.3-0.94,0.24-1.44-0.11c-1.2-0.82-2.43-1.59-3.65-2.38
		c-1.38-0.9-2.64-0.77-3.39,0.32c-0.75,1.07-0.36,2.36,0.99,3.26c1.07,0.71,2.13,1.42,3.24,2.11c0.45,0.28,0.58,0.54,0.34,1.09
		c-0.86,1.89-0.9,3.85-0.3,5.82c0.17,0.54,0.11,0.8-0.3,1.16c-1.12,0.92-1.83,2.11-2.1,3.57c-0.24,1.25-0.8,1.55-2.02,1.01
		c-1.07-0.47-2.08-1.03-3.11-1.53c-1.48-0.73-2.71-0.41-3.31,0.8c-0.6,1.22-0.09,2.34,1.4,3.11c1.1,0.56,2.25,1.07,3.33,1.67
		c0.84,0.47,1.74,0.49,2.66,0.45c0.6-0.04,0.86,0.09,0.9,0.8c0.13,3.39,0.17,3.39-3.26,3.39c-1.63,0-3.26-0.02-4.87,0
		c-1.55,0.02-2.51,0.86-2.51,2.17s0.92,2.15,2.49,2.21c1.12,0.02,2.25,0,3.37,0c0.02,0.07,0.06,0.17,0.07,0.24
		C45.56,92.1,42.51,94.39,39.48,96.69z M66.2,92.01c0-0.97-0.32-1.8-1.23-2.28c-0.77-0.41-1.52-0.32-2.23,0.19
		c-0.79,0.56-0.95,1.4-0.94,2.3c0,2.88-0.02,5.74,0,8.63c0.02,0.82-0.15,1.09-0.94,0.6c-1.82-1.1-3.03-2.64-3.12-4.79
		c-0.13-2.54-0.06-5.09-0.07-7.62c-0.02-0.41,0.13-0.69,0.47-0.94c3.99-2.98,7.97-5.97,12.2-9.15V91.2c0,1.7,0.02,3.41-0.04,5.11
		c-0.09,2.21-1.23,3.82-3.03,5.01c-0.73,0.51-1.1,0.54-1.09-0.58C66.24,97.85,66.2,94.93,66.2,92.01z M58.27,75.3
		c0.92-0.77,1.37,0.34,1.96,0.6c1.93,0.88,3.89,0.97,6.21,0.54c-2.99,2.25-5.76,4.34-8.65,6.51c-0.26-1.01-0.09-1.93-0.13-2.84
		c-0.02-0.82-0.02-1.67,0-2.49S57.52,75.92,58.27,75.3z M59.74,68.15c0.04-2.25,1.96-4.19,4.23-4.21c2.3-0.02,4.3,2,4.27,4.3
		c-0.02,2.32-2.02,4.25-4.34,4.19C61.62,72.38,59.73,70.43,59.74,68.15z M73.25,109.3c-11.17,3.93-24.53,0.06-31.68-8.79
		c3.84-2.88,7.67-5.74,11.62-8.7c0.24,2.06-0.06,3.95,0.28,5.84c0.84,4.9,4.79,8.55,9.79,8.96c4.68,0.39,9.23-2.62,10.82-7.17
		c0.47-1.37,1.31-1.74,2.68-1.1c1.01,0.47,2,1.01,2.99,1.5c1.38,0.67,2.62,0.36,3.22-0.82c0.6-1.16,0.15-2.32-1.27-3.05
		c-1.2-0.64-2.43-1.22-3.67-1.83c-0.56-0.28-1.16-0.51-1.8-0.39c-1.37,0.22-1.59-0.39-1.55-1.63c0.11-2.53,0.04-2.53,2.53-2.53
		c1.78,0,3.57,0.02,5.35,0c1.78-0.02,2.77-0.82,2.77-2.19c0-1.38-0.99-2.19-2.75-2.19c-2.32,0-4.66-0.04-6.98,0.02
		c-0.71,0.02-0.99-0.21-0.88-0.9c0.04-0.24,0-0.51,0-0.75c0.02-0.79-0.22-1.74,0.13-2.32c0.36-0.6,1.38-0.07,2.1-0.28
		c2.06-0.56,3.93-1.55,5.63-2.79c0.86-0.62,0.86-1.65,0.28-2.58c-0.56-0.9-1.68-1.27-2.73-0.8c-1.07,0.47-2.08,1.05-3.11,1.55
		c-0.37,0.19-0.73,0.43-1.18,0.34c-0.37-0.07-0.88,0.28-1.1-0.24c-0.24-0.56,0.15-0.9,0.56-1.22c2.81-2.08,5.6-4.19,8.38-6.27
		c1.53-1.16,3.09-2.26,4.58-3.46c0.64-0.51,0.9-0.45,1.31,0.26c3.39,5.84,4.87,12.07,3.93,18.77
		C91.78,96.84,84.93,105.18,73.25,109.3z"/>
	<path d="M102.9,36c-1.72,1.38-3.44,2.75-5.16,4.14c-2.17,1.78-4.68,2.56-7.49,2.54c-8.74-0.02-17.48,0-26.22,0
		c-8.7,0-17.4-0.02-26.1,0.02c-2.98,0-5.61-0.84-7.92-2.75c-1.61-1.33-3.26-2.6-4.87-3.91c-1.23-0.99-1.48-2.21-0.69-3.24
		c0.82-1.09,2.13-1.14,3.41-0.13c1.65,1.31,3.33,2.62,4.96,3.99c1.29,1.07,2.73,1.65,4.43,1.65h53.44c1.68,0,3.14-0.54,4.45-1.63
		c1.67-1.37,3.37-2.71,5.05-4.04c1.2-0.95,2.51-0.9,3.31,0.13C104.32,33.78,104.09,35.03,102.9,36z"/>
	<path d="M104.78,21.59c-1.18-3.31-2.38-6.61-3.59-9.92c-0.79-2.19-2.21-3.18-4.51-3.18H74.98c-2.71,0-4.55,1.63-4.62,4.32
		c-0.09,3.54-0.09,7.07,0,10.61c0.07,2.69,1.91,4.29,4.64,4.29c4.25,0.02,8.48,0,12.72,0h12.72
		C104.06,27.71,105.98,24.98,104.78,21.59z M99.62,23.47c-3.95-0.07-7.9-0.02-11.86-0.02c-3.99,0-7.99-0.02-11.98,0
		c-0.75,0.02-1.1-0.07-1.09-0.97c0.06-2.92,0.04-5.82,0-8.74c-0.02-0.79,0.24-0.95,0.99-0.95c6.77,0.02,13.57,0.02,20.34,0
		c0.77-0.02,1.09,0.24,1.33,0.94c0.99,2.86,2.02,5.69,3.11,8.51C100.82,23.17,100.76,23.48,99.62,23.47z"/>
</g>
</svg>
