<?xml version="1.0" encoding="utf-8"?>
<!-- Generator: Adobe Illustrator 27.9.0, SVG Export Plug-In . SVG Version: 6.00 Build 0)  -->
<svg version="1.1" id="Layer_1" xmlns="http://www.w3.org/2000/svg" xmlns:xlink="http://www.w3.org/1999/xlink" x="0px" y="0px"
	 viewBox="0 0 128 128" style="enable-background:new 0 0 128 128;" xml:space="preserve">
<path d="M128,70.87h-11.72c-0.07-0.63-0.2-1.26-0.46-1.86c-0.67-1.56-1.91-2.77-3.49-3.4c-1.58-0.63-3.31-0.6-4.87,0.07
	c-0.06,0.03-0.11,0.06-0.17,0.09l-10.57-18.8c1.15-0.99,1.93-2.32,2.16-3.84c0.26-1.68-0.16-3.36-1.16-4.73
	c-1.01-1.37-2.49-2.27-4.17-2.52c-1.68-0.26-3.36,0.16-4.73,1.16c-1.37,1.01-2.27,2.49-2.52,4.17c-0.26,1.68,0.15,3.36,1.16,4.73
	c0.16,0.21,0.35,0.37,0.53,0.56L77.7,65.82c-1.49-0.49-3.07-0.45-4.52,0.17c-1.56,0.67-2.77,1.91-3.4,3.49
	c-0.17,0.42-0.28,0.85-0.35,1.28H58.87c-0.08-0.57-0.2-1.13-0.44-1.67c-0.67-1.56-1.91-2.77-3.49-3.4c-1.58-0.63-3.31-0.6-4.87,0.07
	c-0.06,0.03-0.11,0.06-0.16,0.09l-10.57-18.8c1.15-0.99,1.93-2.32,2.16-3.84c0.26-1.68-0.16-3.36-1.16-4.73
	c-1.01-1.37-2.49-2.27-4.17-2.52c-1.68-0.26-3.36,0.16-4.73,1.16c-1.37,1.01-2.27,2.49-2.52,4.17c-0.26,1.68,0.16,3.36,1.16,4.73
	c0.16,0.21,0.34,0.39,0.52,0.58l-10.27,19.3c-1.49-0.49-3.07-0.45-4.52,0.17c-2.12,0.91-3.47,2.86-3.76,4.99H0v1.51h12.01
	c0.07,0.63,0.19,1.25,0.46,1.86c1.04,2.41,3.39,3.85,5.86,3.85c0.84,0,1.69-0.17,2.51-0.52c0.37-0.16,0.71-0.36,1.03-0.58l7.83,7.44
	c-0.24,1.24-0.1,2.52,0.41,3.7c1.04,2.41,3.39,3.85,5.86,3.85c0.84,0,1.69-0.17,2.51-0.52c2.71-1.17,4.17-4.01,3.75-6.81l7.07-7.81
	c0.99,0.6,2.13,0.93,3.31,0.93c0.84,0,1.69-0.17,2.51-0.52c1.56-0.67,2.77-1.91,3.4-3.49c0.22-0.55,0.33-1.12,0.39-1.69h10.48
	c0.05,0.71,0.19,1.41,0.48,2.07c1.04,2.41,3.39,3.84,5.86,3.84c0.84,0,1.69-0.17,2.51-0.52c0.37-0.16,0.71-0.36,1.03-0.58l7.83,7.44
	c-0.24,1.24-0.1,2.52,0.41,3.7c0.67,1.56,1.91,2.77,3.49,3.4c0.76,0.3,1.56,0.45,2.35,0.45c0.86,0,1.71-0.17,2.52-0.52
	c2.71-1.17,4.17-4.02,3.75-6.81l7.07-7.81c0.3,0.18,0.61,0.35,0.94,0.49c0.76,0.3,1.56,0.45,2.35,0.45c0.86,0,1.71-0.18,2.52-0.53
	c1.56-0.67,2.77-1.91,3.4-3.49c0.19-0.49,0.3-0.99,0.37-1.5H128V70.87z M32.77,38.97c0.71-0.52,1.55-0.8,2.41-0.8
	c0.21,0,0.42,0.02,0.63,0.05c1.08,0.17,2.03,0.74,2.68,1.62c0.65,0.88,0.91,1.96,0.75,3.04s-0.74,2.03-1.62,2.68
	c-0.88,0.65-1.96,0.91-3.04,0.75c-1.08-0.17-2.03-0.74-2.68-1.62C30.56,42.87,30.95,40.3,32.77,38.97z M19.93,75.7
	c-2.08,0.89-4.49-0.07-5.38-2.14c-0.89-2.07,0.07-4.49,2.14-5.38c0.53-0.23,1.08-0.33,1.62-0.33c1.59,0,3.1,0.93,3.77,2.47
	C22.96,72.39,22,74.8,19.93,75.7z M30.24,83.08l-7.23-6.87c1.62-1.79,2.16-4.43,1.15-6.79c-0.52-1.2-1.38-2.19-2.47-2.87
	l10.08-18.93c0.74,0.47,1.57,0.8,2.47,0.94c0.07,0.01,0.15,0.01,0.22,0.02l0.73,30.96c-0.59,0.07-1.18,0.2-1.75,0.45
	C32.01,80.6,30.9,81.7,30.24,83.08z M37.57,89.59c-2.08,0.89-4.49-0.07-5.38-2.14c-0.43-1-0.45-2.12-0.05-3.13
	c0.4-1.02,1.18-1.82,2.19-2.25c0.52-0.22,1.07-0.34,1.62-0.34c0.51,0,1.02,0.1,1.51,0.29c1.02,0.4,1.82,1.18,2.25,2.18
	C40.61,86.28,39.65,88.7,37.57,89.59z M38.3,79.91c-0.52-0.21-1.06-0.32-1.61-0.38l-0.73-30.96c0.73-0.09,1.45-0.29,2.11-0.63
	l10.54,18.74c-2.18,1.75-3.04,4.78-1.88,7.47c0.33,0.76,0.8,1.42,1.36,1.97l-6.38,7.05C41.03,81.68,39.83,80.52,38.3,79.91z
	 M56.39,73.14c-0.4,1.02-1.18,1.82-2.18,2.25c-1,0.43-2.11,0.45-3.13,0.05c-1.02-0.4-1.82-1.18-2.25-2.19
	c-0.89-2.07,0.07-4.49,2.14-5.38c0.52-0.22,1.07-0.34,1.62-0.34c0.51,0,1.02,0.1,1.51,0.29c1.02,0.4,1.82,1.18,2.25,2.18
	C56.78,71.01,56.8,72.12,56.39,73.14z M88.54,41.55c0.17-1.08,0.74-2.03,1.62-2.68c0.71-0.52,1.55-0.8,2.42-0.8
	c0.21,0,0.42,0.01,0.63,0.05c1.08,0.17,2.03,0.74,2.68,1.62c0.65,0.88,0.91,1.96,0.75,3.04c-0.17,1.08-0.74,2.03-1.62,2.68
	c-1.82,1.34-4.39,0.94-5.73-0.88C88.64,43.71,88.37,42.63,88.54,41.55z M77.32,75.6c-2.08,0.89-4.49-0.07-5.38-2.14
	c-0.43-1-0.45-2.12-0.04-3.13c0.4-1.02,1.18-1.82,2.18-2.25c0.52-0.22,1.07-0.34,1.62-0.34c0.51,0,1.02,0.1,1.51,0.29
	c1.02,0.4,1.82,1.18,2.25,2.18C80.35,72.29,79.4,74.71,77.32,75.6z M87.63,82.98l-7.23-6.87c1.62-1.79,2.16-4.43,1.14-6.79
	c-0.52-1.2-1.38-2.19-2.47-2.87l10.09-18.96c0.82,0.52,1.72,0.84,2.67,0.96l0.73,30.99c-0.59,0.07-1.18,0.2-1.75,0.44
	C89.4,80.5,88.3,81.6,87.63,82.98z M94.96,89.5c-1.01,0.43-2.12,0.45-3.13,0.04c-1.02-0.4-1.82-1.18-2.25-2.18
	c-0.43-1-0.45-2.12-0.05-3.13c0.4-1.02,1.18-1.82,2.18-2.25c0.53-0.23,1.08-0.33,1.62-0.33c1.59,0,3.1,0.93,3.77,2.47
	C98,86.19,97.04,88.6,94.96,89.5z M94.09,79.44l-0.73-30.96c0.72-0.09,1.44-0.29,2.11-0.63l10.54,18.74
	c-2.17,1.75-3.04,4.78-1.88,7.47c0.32,0.75,0.79,1.42,1.35,1.98l-6.37,7.04C98.15,81,96.22,79.7,94.09,79.44z M113.78,73.04
	c-0.4,1.02-1.18,1.82-2.19,2.25c-1,0.43-2.12,0.45-3.13,0.05c-1.02-0.4-1.82-1.18-2.25-2.18c-0.89-2.07,0.07-4.49,2.14-5.38
	c0.52-0.22,1.07-0.34,1.62-0.34c0.51,0,1.02,0.1,1.51,0.29c1.02,0.4,1.82,1.18,2.25,2.18C114.17,70.91,114.19,72.03,113.78,73.04z"
	/>
</svg>
