<?xml version="1.0" encoding="utf-8"?>
<!-- Generator: Adobe Illustrator 27.9.0, SVG Export Plug-In . SVG Version: 6.00 Build 0)  -->
<svg version="1.1" id="Layer_1" xmlns="http://www.w3.org/2000/svg" xmlns:xlink="http://www.w3.org/1999/xlink" x="0px" y="0px"
	 viewBox="0 0 128 128" style="enable-background:new 0 0 128 128;" xml:space="preserve">
<path d="M126.76,75.49c-1.59-3.55-4.52-6.29-8.26-7.72c-3.73-1.43-7.82-1.38-11.52,0.16c-0.14,0.06-0.25,0.15-0.39,0.21L81.61,25.39
	c5.89-4.88,7.03-13.36,2.36-19.49c-4.91-6.44-14.35-7.82-21.04-3.1c-6.68,4.73-8.13,13.81-3.22,20.24c0.29,0.38,0.64,0.68,0.96,1.03
	l-39.64,49.3c-0.15-0.06-0.28-0.16-0.43-0.21c-3.73-1.43-7.82-1.37-11.52,0.16c-3.69,1.53-6.54,4.35-8.02,7.94
	c-1.48,3.6-1.42,7.53,0.17,11.08c2.45,5.47,8.01,8.74,13.84,8.74c1.98,0,4-0.38,5.94-1.18c3.07-1.27,5.5-3.47,7.11-6.23l41.61,16.16
	c-0.87,3.13-0.69,6.41,0.66,9.42c1.59,3.55,4.52,6.29,8.26,7.72c1.8,0.69,3.68,1.03,5.56,1.03c2.02,0,4.04-0.4,5.96-1.19
	c7.62-3.16,11.14-11.7,7.86-19.03c-0.36-0.8-0.81-1.53-1.29-2.24l8.7-11.84c0.63,0.35,1.27,0.71,1.96,0.97
	c1.8,0.69,3.68,1.03,5.56,1.03c2.02,0,4.04-0.4,5.96-1.19c3.69-1.53,6.54-4.35,8.03-7.94C128.41,82.97,128.35,79.04,126.76,75.49z
	 M97.93,81.58l-17.02,0.48L72.7,28.89c2.08-0.11,4.11-0.6,5.97-1.51l24.9,42.61C99.91,72.82,97.82,77.11,97.93,81.58z M66.11,6.97
	c1.72-1.22,3.73-1.8,5.72-1.8c2.97,0,5.91,1.32,7.81,3.79c3.16,4.14,2.23,9.98-2.07,13.02c-2.08,1.47-4.63,2.08-7.19,1.7
	c-2.56-0.38-4.81-1.69-6.34-3.69C60.89,15.85,61.82,10.01,66.11,6.97z M63.36,26.37c1.7,1.12,3.61,1.91,5.69,2.29l8.26,53.51
	L29.74,83.5c-0.21-0.89-0.49-1.77-0.87-2.62c-1.04-2.32-2.7-4.25-4.73-5.73L63.36,26.37z M18.89,95.16
	C14,97.18,8.28,95.01,6.17,90.29c-1.02-2.28-1.06-4.81-0.11-7.12c0.95-2.31,2.79-4.13,5.16-5.11c1.23-0.51,2.53-0.77,3.83-0.77
	c1.21,0,2.42,0.22,3.57,0.66c2.4,0.92,4.29,2.68,5.31,4.97c1.02,2.28,1.06,4.81,0.11,7.12C23.09,92.36,21.26,94.17,18.89,95.16z
	 M71.05,106.62L29.48,90.48c0.34-1.17,0.55-2.35,0.58-3.55l47.78-1.34l2.18,14.09c-0.59,0.17-1.19,0.3-1.76,0.54
	C75.12,101.52,72.65,103.79,71.05,106.62z M88.04,122.07c-2.37,0.98-5.01,1.02-7.4,0.1c-2.41-0.92-4.29-2.68-5.31-4.96
	c-1.02-2.28-1.06-4.81-0.11-7.12c0.95-2.31,2.79-4.13,5.16-5.11c1.24-0.52,2.54-0.76,3.82-0.76c3.75,0,7.32,2.11,8.9,5.62
	C95.21,114.54,92.94,120.03,88.04,122.07z M94.33,102.84c-2.93-2.56-6.82-3.91-10.79-3.75l-2.1-13.6l17.05-0.48
	c0.18,0.65,0.35,1.3,0.64,1.94c0.81,1.81,1.97,3.4,3.41,4.72L94.33,102.84z M121.94,84.66c-0.95,2.31-2.79,4.13-5.16,5.11
	c-2.38,0.99-5.01,1.02-7.4,0.1c-2.41-0.92-4.29-2.68-5.31-4.96c-2.11-4.72,0.16-10.2,5.05-12.24c1.23-0.51,2.53-0.76,3.83-0.76
	c1.21,0,2.42,0.22,3.58,0.66c2.41,0.92,4.29,2.68,5.31,4.96C122.85,79.82,122.89,82.35,121.94,84.66z"/>
</svg>
