<?xml version="1.0" encoding="utf-8"?>
<!-- Generator: Adobe Illustrator 27.9.0, SVG Export Plug-In . SVG Version: 6.00 Build 0)  -->
<svg version="1.1" id="Layer_1" xmlns="http://www.w3.org/2000/svg" xmlns:xlink="http://www.w3.org/1999/xlink" x="0px" y="0px"
	 viewBox="0 0 128 128" style="enable-background:new 0 0 128 128;" xml:space="preserve">
<style type="text/css">
	.st0{fill:#1D1D1B;}
</style>
<g>
	<g>
		<g>
			<path class="st0" d="M121.6,111.23V42.36c3.76-0.97,6.39-4.35,6.4-8.23c0-4.71-3.82-8.53-8.53-8.53
				c-1.52,0.01-3.01,0.43-4.31,1.21l-13.97-13.97c0.78-1.3,1.2-2.79,1.21-4.31c0.01-4.29-3.18-7.92-7.44-8.46s-8.25,2.17-9.32,6.33
				H16.77c-1.03-4.03-4.82-6.72-8.96-6.37C3.66,0.38,0.38,3.66,0.03,7.8s2.35,7.93,6.37,8.96v68.87c-4.16,1.07-6.87,5.07-6.33,9.32
				s4.17,7.45,8.46,7.44c1.52-0.01,3.01-0.43,4.31-1.21l13.97,13.97c-0.78,1.3-1.2,2.79-1.21,4.31c-0.01,4.29,3.18,7.92,7.44,8.46
				s8.25-2.17,9.32-6.33h68.87c1.03,4.03,4.82,6.72,8.96,6.37c4.14-0.35,7.43-3.63,7.77-7.77
				C128.32,116.05,125.62,112.27,121.6,111.23z M116.45,31.12c1.22-1.22,3.05-1.59,4.65-0.93c1.59,0.66,2.64,2.21,2.64,3.94
				c0,1.93-1.29,3.62-3.16,4.12c-1.86,0.5-3.83-0.31-4.8-1.98C114.8,34.6,115.08,32.49,116.45,31.12z M112.14,29.83
				c-0.4,0.68-0.71,1.41-0.91,2.17H96V16.77c0.76-0.2,1.5-0.5,2.17-0.91L112.14,29.83z M89.74,7.43c0.5-1.87,2.19-3.16,4.12-3.16
				c1.72,0,3.28,1.04,3.94,2.63c0.66,1.59,0.3,3.43-0.92,4.65c-1.36,1.37-3.48,1.65-5.15,0.68S89.24,9.3,89.74,7.43z M96.89,96.88
				c-1.43,1.44-3.69,1.67-5.39,0.55c-1.7-1.13-2.36-3.29-1.59-5.18s2.77-2.96,4.77-2.56c2,0.39,3.44,2.14,3.44,4.18
				c0,1.13-0.45,2.22-1.25,3.02L96.89,96.88z M31.12,31.12c1.44-1.44,3.69-1.66,5.38-0.53c1.69,1.13,2.35,3.3,1.57,5.18
				c-0.78,1.88-2.78,2.95-4.78,2.55s-3.43-2.15-3.43-4.19C29.87,33,30.32,31.92,31.12,31.12z M36.27,42.36
				c2.99-0.78,5.32-3.11,6.1-6.1h49.37v49.37c-2.99,0.78-5.32,3.11-6.1,6.1H36.27V42.36z M16.77,10.67h68.87
				c0.78,2.99,3.11,5.32,6.1,6.1V32H42.36c-0.97-3.76-4.35-6.39-8.23-6.4c-1.52,0.01-3.01,0.43-4.31,1.21L15.86,12.84
				C16.26,12.16,16.57,11.43,16.77,10.67z M4.27,8.54c0-1.93,1.29-3.62,3.16-4.12c1.86-0.5,3.83,0.31,4.8,1.98
				c0.97,1.67,0.69,3.78-0.67,5.15c-1.22,1.22-3.05,1.59-4.65,0.93C5.31,11.82,4.27,10.26,4.27,8.54z M11.55,96.88
				c-1.22,1.22-3.05,1.59-4.65,0.93c-1.59-0.66-2.64-2.21-2.64-3.94c0-1.93,1.29-3.62,3.16-4.12c1.86-0.5,3.83,0.31,4.8,1.98
				C13.2,93.4,12.92,95.51,11.55,96.88z M10.67,85.64V16.77c0.76-0.2,1.5-0.5,2.17-0.91l13.97,13.97c-0.78,1.3-1.2,2.79-1.21,4.31
				c0.01,3.88,2.64,7.26,6.4,8.23v49.37H16.77C15.99,88.75,13.65,86.42,10.67,85.64z M15.86,98.17c0.4-0.68,0.71-1.41,0.91-2.17H32
				v15.24c-0.76,0.2-1.5,0.5-2.17,0.91L15.86,98.17z M38.26,120.57c-0.5,1.87-2.19,3.16-4.12,3.16c-1.72,0-3.28-1.04-3.94-2.63
				c-0.66-1.59-0.3-3.43,0.92-4.65c1.36-1.37,3.48-1.65,5.15-0.68C37.94,116.73,38.76,118.7,38.26,120.57z M111.23,117.33H42.36
				c-0.78-2.99-3.11-5.32-6.1-6.1V96h49.37c0.97,3.76,4.35,6.39,8.23,6.4c1.52-0.01,3.01-0.43,4.31-1.21l13.97,13.97
				C111.74,115.84,111.43,116.57,111.23,117.33z M101.19,98.17c0.78-1.3,1.2-2.79,1.21-4.31c-0.01-3.88-2.64-7.26-6.4-8.23V36.27
				h15.24c0.78,2.99,3.11,5.32,6.1,6.1v68.87c-0.76,0.2-1.5,0.5-2.17,0.91L101.19,98.17z M120.57,123.59
				c-1.86,0.5-3.83-0.31-4.8-1.98s-0.69-3.78,0.67-5.15c1.22-1.22,3.05-1.59,4.65-0.93c1.59,0.66,2.64,2.21,2.64,3.94
				C123.73,121.4,122.44,123.09,120.57,123.59z"/>
		</g>
	</g>
	<circle class="st0" cx="63.9" cy="64.47" r="6.76"/>
</g>
</svg>
