<?xml version="1.0" encoding="utf-8"?>
<!-- Generator: Adobe Illustrator 27.9.0, SVG Export Plug-In . SVG Version: 6.00 Build 0)  -->
<svg version="1.1" id="Layer_1" xmlns="http://www.w3.org/2000/svg" xmlns:xlink="http://www.w3.org/1999/xlink" x="0px" y="0px"
	 viewBox="0 0 128 128" style="enable-background:new 0 0 128 128;" xml:space="preserve">
<g>
	<path d="M56.88,85.72h27.59c2.12,0,3.69-1.98,3.2-4.05l-6.28-26.43c-0.35-1.48-1.68-2.53-3.2-2.53H63.81
		c-1.49,0-2.8,1.01-3.18,2.45L53.7,81.6C53.15,83.69,54.72,85.72,56.88,85.72z"/>
	<path d="M82.39,113.8v-6.61H92.6v-8.06H82.39V95.2c0-1.82-1.47-3.29-3.29-3.29h-8.49h-8.49c-1.82,0-3.29,1.47-3.29,3.29v3.93H39.74
		c-1.23-0.03-10.26-0.04-17.27,6.64c-5.35,5.1-8.06,12.58-8.06,22.23h8.06c0-7.31,1.85-12.81,5.5-16.33
		c4.12-3.98,13.66-4.43,16.25-4.48h14.63v6.61c0,0-14.89,1.04-20.78,14.2h32.55h32.55C97.28,114.84,82.39,113.8,82.39,113.8z
		 M44.47,107.19c0.23,0,0.37,0,0.4,0L44.47,107.19z"/>
	<path d="M111.18,95.54l-8.13-2.25c-2.09-0.58-4.16,1-4.16,3.17v13.4c0,2.17,2.07,3.75,4.16,3.17l8.13-2.25
		c1.42-0.39,2.41-1.69,2.41-3.17v-8.9C113.59,97.23,112.61,95.94,111.18,95.54z"/>
	<path d="M54.54,38.83c1.15,4.44,5.08,7.54,9.57,7.54h12.56c4.16,0,7.9-2.69,9.32-6.71c1.82-5.17,2.65-13.51-3.77-23.91
		C75.48,4.84,64.65,1.17,56.75,0.01c-0.7-0.1-1.18,0.35-1.35,0.85c-0.17,0.51-0.04,1.18,0.61,1.53C64.9,7.07,68.39,16.9,69.68,22.34
		c0.3,1.27-0.01,2.4-0.86,3.09c-0.73,0.59-1.73,0.72-2.55,0.34c-0.62-0.29-1.66-1.13-1.67-3.45c-0.01-2.68-1.57-5.26-4.62-7.65
		c-0.44-0.35-1.02-0.36-1.47-0.02c-0.39,0.3-0.68,0.88-0.42,1.53c1.17,2.94,0.61,6.24-1.69,9.83
		C53.95,29.84,53.33,34.15,54.54,38.83z"/>
</g>
</svg>
