<?xml version="1.0" encoding="utf-8"?>
<!-- Generator: Adobe Illustrator 27.9.0, SVG Export Plug-In . SVG Version: 6.00 Build 0)  -->
<svg version="1.1" id="Layer_1" xmlns="http://www.w3.org/2000/svg" xmlns:xlink="http://www.w3.org/1999/xlink" x="0px" y="0px"
	 viewBox="0 0 128 128" style="enable-background:new 0 0 128 128;" xml:space="preserve">
<g transform="translate(-1 -1)">
	<g>
		<path d="M111.92,16.16c0-0.03,0.01-0.05,0.01-0.08c0-0.06,0.01-0.13,0-0.19c0-0.02,0-0.04,0-0.06c0-0.07-0.01-0.14-0.02-0.21
			c0,0,0,0,0,0c-0.02-0.15-0.06-0.29-0.11-0.43c0-0.01,0-0.01-0.01-0.02c-0.02-0.05-0.04-0.1-0.07-0.15
			c-0.02-0.04-0.04-0.08-0.06-0.12c-0.02-0.03-0.04-0.07-0.06-0.1c-0.05-0.08-0.1-0.16-0.16-0.23c0,0,0,0,0-0.01l-10.67-12.8
			c-0.85-1.02-2.42-1.02-3.28,0l-10.67,12.8c0,0,0,0,0,0.01c-0.06,0.07-0.11,0.15-0.16,0.23c-0.02,0.03-0.04,0.07-0.06,0.1
			c-0.02,0.04-0.04,0.08-0.06,0.12c-0.02,0.05-0.05,0.1-0.07,0.15c0,0.01,0,0.01-0.01,0.02c-0.05,0.14-0.09,0.29-0.11,0.43
			c0,0,0,0,0,0c-0.01,0.07-0.02,0.14-0.02,0.21c0,0.02,0,0.04,0,0.06c0,0.06,0,0.13,0,0.19c0,0.03,0.01,0.05,0.01,0.08
			c0.01,0.06,0.01,0.12,0.02,0.17c0,0.01,0,0.01,0,0.02l3.94,19.69c0.38,1.89,0.93,3.54,1.73,5.01c1.18,2.15,2.72,3.67,4.68,4.35
			c-1.21,3.77-6.26,6.8-12.52,6.8c-7.19,0-12.8-4-12.8-8.53V7.4C71.4,3.87,68.54,1,65,1s-6.4,2.86-6.4,6.4v36.27
			c0,4.53-5.61,8.53-12.8,8.53c-6.26,0-11.31-3.03-12.52-6.8c1.95-0.68,3.49-2.2,4.67-4.35c0.81-1.47,1.36-3.12,1.73-5.01
			l3.94-19.69c0-0.01,0-0.01,0-0.02c0.01-0.06,0.02-0.12,0.02-0.17c0-0.03,0.01-0.05,0.01-0.08c0-0.06,0.01-0.13,0.01-0.19
			c0-0.02,0-0.04,0-0.06c0-0.07-0.01-0.14-0.02-0.21c0,0,0,0,0,0c-0.02-0.15-0.06-0.29-0.11-0.43c0-0.01,0-0.01-0.01-0.02
			c-0.02-0.05-0.04-0.1-0.07-0.15c-0.02-0.04-0.04-0.08-0.06-0.12c-0.02-0.03-0.04-0.07-0.06-0.1c-0.05-0.08-0.1-0.16-0.16-0.23
			c0,0,0,0,0-0.01L32.51,1.77c-0.85-1.02-2.42-1.02-3.28,0l-10.67,12.8c0,0,0,0,0,0.01c-0.06,0.07-0.11,0.15-0.16,0.23
			c-0.02,0.03-0.04,0.07-0.06,0.1c-0.02,0.04-0.04,0.08-0.06,0.12c-0.02,0.05-0.05,0.1-0.07,0.15c0,0.01,0,0.01-0.01,0.02
			c-0.05,0.14-0.09,0.29-0.11,0.43c0,0,0,0,0,0c-0.01,0.07-0.01,0.14-0.02,0.21c0,0.02,0,0.04,0,0.06c0,0.06,0,0.13,0,0.19
			c0,0.03,0.01,0.05,0.01,0.08c0.01,0.06,0.01,0.12,0.02,0.17c0,0.01,0,0.01,0,0.02l3.81,19.02c0.38,1.9,1.02,3.71,1.92,5.38
			c1.4,2.6,2.93,4.21,5.08,4.8c1.21,6.31,8.41,10.92,16.89,10.92c5.05,0,9.65-1.64,12.8-4.3v64.03c-5.89,0-10.67,4.78-10.67,10.67
			c0,1.18,0.95,2.13,2.13,2.13h29.87c1.18,0,2.13-0.96,2.13-2.13c0-5.89-4.78-10.67-10.67-10.67V52.17c3.15,2.66,7.75,4.3,12.8,4.3
			c8.48,0,15.68-4.61,16.89-10.92c2.15-0.58,3.68-2.2,5.08-4.79c0.9-1.67,1.54-3.48,1.92-5.38l3.81-19.02c0-0.01,0-0.01,0-0.02
			C111.91,16.28,111.91,16.22,111.92,16.16z M30.87,6.47l6.11,7.33H24.75L30.87,6.47z M26.1,34.54l-3.3-16.47h16.13L35.5,35.2
			c-0.3,1.5-0.71,2.74-1.29,3.79c-0.95,1.73-2,2.54-3.35,2.54c-1.32,0-2.15-0.72-3.28-2.8C26.9,37.44,26.39,36.03,26.1,34.54z
			 M77.44,124.73H52.56c0.88-2.49,3.25-4.27,6.04-4.27h2.13h8.53h2.13C74.19,120.47,76.56,122.25,77.44,124.73z M62.87,116.2V7.4
			c0-1.18,0.95-2.13,2.13-2.13c1.18,0,2.13,0.95,2.13,2.13v108.8L62.87,116.2L62.87,116.2z M99.13,6.47l6.11,7.33H93.02L99.13,6.47z
			 M103.9,34.54c-0.3,1.49-0.8,2.9-1.49,4.19c-1.12,2.08-1.95,2.8-3.28,2.8c-1.34,0-2.4-0.81-3.35-2.54
			c-0.58-1.05-0.99-2.3-1.29-3.79l-3.43-17.14h16.13L103.9,34.54z"/>
	</g>
</g>
</svg>
