<?xml version="1.0" encoding="utf-8"?>
<!-- Generator: Adobe Illustrator 27.9.0, SVG Export Plug-In . SVG Version: 6.00 Build 0)  -->
<svg version="1.1" id="Layer_1" xmlns="http://www.w3.org/2000/svg" xmlns:xlink="http://www.w3.org/1999/xlink" x="0px" y="0px"
	 viewBox="0 0 128 128" style="enable-background:new 0 0 128 128;" xml:space="preserve">
<g>
	<path d="M90.84,20.65h4.13v4.13h-4.13V20.65z"/>
	<path d="M127.4,15.06l-4.13-4.13c-0.39-0.39-0.91-0.6-1.46-0.6h-18.58V2.06c0-1.14-0.93-2.06-2.06-2.06H84.65
		c-1.14,0-2.06,0.93-2.06,2.06v8.26h-5.34L73.72,6.8c-0.39-0.39-0.91-0.6-1.46-0.6H64c-1.14,0-2.06,0.93-2.06,2.06V28.9H51.61
		c-16.38,0-29.79,12.79-30.86,28.9h-6.3c-1.14,0-2.06,0.93-2.06,2.06V64c0,0.55,0.22,1.07,0.6,1.46l2.67,2.67L0.6,83.19
		c-0.19,0.19-0.34,0.42-0.45,0.67C0.06,84.1,0,84.37,0,84.65v24.77c0,0.28,0.06,0.55,0.16,0.79c0.1,0.25,0.26,0.48,0.45,0.67
		l16.52,16.52c0.38,0.39,0.91,0.6,1.46,0.6h28.9c0.55,0,1.07-0.22,1.46-0.6l16.52-16.52c0.19-0.19,0.34-0.42,0.45-0.67
		c0.1-0.25,0.16-0.52,0.16-0.79V84.65c0-0.28-0.06-0.55-0.16-0.79c-0.1-0.25-0.26-0.48-0.45-0.67L50.4,68.13l2.67-2.67
		c0.39-0.39,0.6-0.91,0.6-1.46v-4.13c0-1.14-0.93-2.06-2.06-2.06h-6.19c0-5.69,4.63-10.32,10.32-10.32h6.19v6.19
		c0,1.14,0.93,2.06,2.06,2.06h8.26c0.55,0,1.07-0.22,1.46-0.6l3.52-3.52h44.56c0.55,0,1.07-0.22,1.46-0.6l4.13-4.13
		c0.39-0.39,0.6-0.91,0.6-1.46v-28.9C128,15.97,127.78,15.44,127.4,15.06z M46.63,70.19l12.39,12.39H7.05l12.39-12.39H46.63z
		 M61.94,107.35H4.13v-4.13h57.81V107.35z M4.13,99.1v-4.13h57.81v4.13H4.13z M4.13,86.71h57.81v4.13H4.13V86.71z M46.63,123.87
		H19.44L7.05,111.48h51.97L46.63,123.87z M49.55,61.94v1.21l-2.92,2.92H19.44l-2.92-2.92v-1.21H49.55z M55.74,43.35
		c-7.97,0-14.45,6.48-14.45,14.45H24.88c1.06-13.83,12.63-24.77,26.73-24.77h10.32v10.32H55.74z M86.71,4.13H99.1v18.58
		c0,3.41-2.78,6.19-6.19,6.19s-6.19-2.78-6.19-6.19V4.13z M66.06,10.32h4.13v41.29h-4.13V10.32z M76.39,47.48
		c-0.55,0-1.07,0.22-1.46,0.6l-0.6,0.6V13.24l0.6,0.6c0.39,0.39,0.91,0.6,1.46,0.6h6.19v8.26c0,5.69,4.63,10.32,10.32,10.32
		c5.69,0,10.32-4.63,10.32-10.32v-8.26h12.39v33.03H76.39z M123.87,44.56l-2.92,2.92h-1.21V14.45h1.21l2.92,2.92V44.56z"/>
	<path d="M12.39,49.55h4.13v4.13h-4.13V49.55z"/>
	<path d="M4.13,41.29h4.13v4.13H4.13V41.29z"/>
	<path d="M12.39,33.03h4.13v4.13h-4.13V33.03z"/>
	<path d="M20.65,24.77h4.13v4.13h-4.13V24.77z"/>
	<path d="M8.26,18.58h4.13v4.13H8.26V18.58z"/>
	<path d="M4.13,26.84h4.13v4.13H4.13V26.84z"/>
	<path d="M125.94,76.39h-4.92l-5.62-11.24c-0.26-0.53-0.74-0.92-1.32-1.07c-0.57-0.15-1.18-0.05-1.68,0.28l-4.25,2.83l-5.15-10.3
		c-0.7-1.4-2.99-1.4-3.69,0l-5.15,10.3l-4.25-2.83c-0.5-0.33-1.1-0.43-1.68-0.28c-0.57,0.15-1.05,0.54-1.32,1.07L81.3,76.39h-4.92
		c-1.14,0-2.06,0.93-2.06,2.06v8.26c0,1.14,0.93,2.06,2.06,2.06h2.17c0.62,6.88,4.32,12.87,9.7,16.6L74.7,124.75
		c-0.44,0.63-0.5,1.45-0.14,2.14c0.36,0.68,1.06,1.11,1.83,1.11h12.39c0.82,0,1.55-0.48,1.89-1.23l7.79-17.53
		c0.89,0.11,1.79,0.18,2.71,0.18c0.92,0,1.82-0.07,2.71-0.18l7.79,17.53c0.33,0.75,1.07,1.23,1.89,1.23h12.39
		c0.77,0,1.48-0.43,1.83-1.11c0.35-0.68,0.3-1.51-0.14-2.14l-13.56-19.38c5.38-3.73,9.08-9.73,9.7-16.6h2.17
		c1.14,0,2.06-0.92,2.06-2.06v-8.26C128,77.31,127.07,76.39,125.94,76.39z M89.58,69.08l4.25,2.83c0.49,0.33,1.1,0.43,1.68,0.28
		c0.57-0.15,1.05-0.54,1.32-1.07l4.34-8.69l4.35,8.69c0.26,0.53,0.74,0.92,1.32,1.07c0.57,0.16,1.18,0.05,1.68-0.28l4.25-2.83
		l3.65,7.31H85.92L89.58,69.08z M87.43,123.87h-7.08l11.52-16.46c0.8,0.36,1.61,0.69,2.45,0.95L87.43,123.87z M121.97,123.87h-7.08
		L108,108.36c0.84-0.27,1.66-0.59,2.45-0.95L121.97,123.87z M101.16,105.29c-9.55,0-17.43-7.24-18.46-16.52h36.92
		C118.59,98.05,110.71,105.29,101.16,105.29z M123.87,84.65H78.45v-4.13h45.42V84.65z"/>
</g>
</svg>
