<?xml version="1.0" encoding="utf-8"?>
<!-- Generator: Adobe Illustrator 28.0.0, SVG Export Plug-In . SVG Version: 6.00 Build 0)  -->
<svg version="1.1" id="Layer_1" xmlns="http://www.w3.org/2000/svg" xmlns:xlink="http://www.w3.org/1999/xlink" x="0px" y="0px"
	 viewBox="0 0 128 128" style="enable-background:new 0 0 128 128;" xml:space="preserve">
<g id="YMv5FW.tif">
	<g>
		<path d="M0,115.9c1.2-1,2.6-0.6,3.9-0.5c0.6,0,0.8,0.6,0.9,1.1c0.1,0.5-0.2,1-0.7,1.3c-0.8,0.5-3.4,0.1-4.1-0.6
			C0,116.7,0,116.3,0,115.9z"/>
		<path d="M122.9,118.2c0-0.1-0.1-0.1,0-0.2c1.5-0.7,2.9-0.6,4.4,0c0,0.1,0,0.2,0,0.3C125.8,118.2,124.3,118.2,122.9,118.2z"/>
		<path d="M125.1,43.7c0.4-0.8,0.6-1.6,0.5-2.5c-0.4-3.6-0.6-7.2-0.9-10.8c-0.5-6.3-1-12.5-1.5-18.8c-0.1-1.3-0.7-1.8-2-1.8
			c-0.6,0-1.1,0-1.7,0.1c-6.2,0.5-12.4,1-18.7,1.4c-1.7,0.1-2.3,0.7-2.1,2.4c0.1,2.2,0.3,4.5,0.5,6.7c0.1,1.1-0.2,1.4-1.2,1.7
			c-18.6,5.7-37.1,11.4-55.7,17.2c-3.9,1.2-7.9,2.4-11.8,3.7c2.6,3.9,2.8,4.3,3.2,8.3c5.7-1.8,11.4-3.5,17.3-5.3
			c-0.3,1.8-0.5,3.5-0.8,5.2c-1,6.6-2,13.2-3,19.8c-1,6.5-1.9,13-2.9,19.5c-0.9,6.1-1.9,12.2-2.7,18.3c-0.1,0.9-0.4,1-1.2,1
			c-5.2,0-10.4,0-15.6,0c-4.7,0-9.3,0-14,0c-0.8,0-1,0.2-1,1c0.1,1.1,0,2.1,0,3.2c0.1,0.9-0.1,1.3-1.1,1.3c-0.8-0.1-1.2,0.5-1.2,1.3
			c0,0.9,0.5,1.3,1.4,1.3c0.3,0,0.6,0,0.9,0h107.2c0.3,0,0.7,0,1,0c1-0.1,1.6-1,1.1-1.9c-0.3-0.6-0.8-0.8-1.4-0.7
			c-1.1,0.2-1.3-0.4-1.2-1.3c0.1-0.9-0.1-1.8,0-2.7c0.1-1.1-0.2-1.4-1.4-1.4c-8,0.1-16,0-24,0.1c-1.3,0-1.7-0.4-1.9-1.6
			c-0.9-7.2-1.9-14.4-2.9-21.5c-1.1-7.8-2.2-15.6-3.2-23.4c-1.1-8.4-2.2-16.9-3.4-25.3c-0.1-0.8,0.1-1,0.7-1.2
			c6.1-1.9,12.3-3.7,18.4-5.6c0.9-0.3,1.1-0.2,1.2,0.8c0.2,3.8,0.6,7.6,0.9,11.4c0.1,0.8,0.4,1.3,0.8,1.9c3.6,4.5,7.1,9,10.7,13.4
			c0.3,0.4,0.6,0.9,0.6,1.5c0,9.9,0,19.9,0,29.8c0,0.7-0.2,0.9-0.9,1c-1.8,0-3.7,0.1-5.5,0.2c-1.6,0.1-2.3,0.9-2.3,2.4
			c0,3.1,0,6.3,0,9.4c0,1.6,0.8,2.4,2.3,2.4c4.8,0,9.6,0,14.4,0c1.6,0,2.3-0.7,2.4-2.4c0-3.1,0-6.2,0-9.3c0-1.7-0.7-2.4-2.4-2.4
			c-1.4,0-2.8-0.1-4.2,0c-0.9,0.1-1.1-0.3-1.1-1.1c0-9.7,0-19.5,0-29.2c0-0.7,0.2-1.2,0.5-1.8C119.4,54,122.2,48.9,125.1,43.7z
			 M60.4,52.3c0.4-2.8,0.8-5.6,1.1-8.4c0.1-0.8,0.5-1.2,1.3-1.4c2.2-0.6,4.3-1.3,6.6-2c1.1,8.3,2.3,16.4,3.4,24.7
			c-0.6,0-0.8-0.4-1.1-0.6c-3.6-3.5-7.1-7-10.7-10.6C60.5,53.4,60.2,53,60.4,52.3z M59.8,56.5c2.1,2,4,3.9,5.9,5.7
			c2.4,2.3,4.8,4.7,7.2,7c0.7,0.6,0.8,1.1-0.1,1.7c-5.4,3.8-10.7,7.6-16,11.4c-0.1,0.1-0.3,0.1-0.6,0.3C57.4,74,58.6,65.4,59.8,56.5
			z M56.2,86.1c5.8-4.2,11.7-8.4,17.7-12.6c1.3,9.9,2.7,19.6,4,29.6c-1.5-1-2.7-1.9-3.9-2.7c-5.9-4.1-11.8-8.2-17.7-12.4
			C55.3,87.3,55.3,86.8,56.2,86.1z M78.8,109.8c-0.2,0.5-0.7,0.2-1,0.2c-4.1,0-8.2,0-12.3,0c-3.9,0-7.7-0.1-11.6,0
			c-1.2,0-1.4-0.3-1.3-1.5c0.9-5.9,1.7-11.9,2.6-18c4.6,3.2,9.1,6.4,13.7,9.5c3,2.1,6,4.2,9,6.3C78.2,106.7,79,109.3,78.8,109.8z
			 M111.7,27.3c-2.8,0-5.1-2.3-5.1-5c0-2.8,2.3-5,5-5c2.8,0,5.1,2.2,5.1,5.1C116.8,24.9,114.5,27.2,111.7,27.3z"/>
		<path d="M17.2,61.5c3.4,1.6,6.7,1.4,10,0.1c0,0.6,0,1.1,0,1.5c0,11.8,0,23.5,0,35.3c0,1,0.3,1.3,1.3,1.4c2.1,0,3.6,1.5,3.8,3.7
			c0.1,1.1,0,2.1,0,3.2c0,0.6-0.2,0.7-0.8,0.7c-6.2,0-12.5,0-18.7,0c-0.6,0-0.7-0.2-0.7-0.8c0-1.1,0-2.3,0.1-3.4
			c0.1-2.1,1.7-3.6,3.7-3.6c1.3,0,1.3-0.5,1.3-1.5c0-11.7,0-23.4,0-35C17.2,62.6,17.2,62.2,17.2,61.5z"/>
		<path d="M22.1,60.1c-4.9,0-8.9-4.1-8.8-8.9c0-4.8,4.2-8.9,9-8.9c4.9,0,8.9,4,8.8,9.1C31.1,56.2,27.1,60.1,22.1,60.1z"/>
		<path d="M127.2,117.9c-1.5,0-2.9,0-4.4,0c-0.8-0.2-1.1-0.8-0.9-1.6c0.2-0.7,0.7-1,1.4-1c1,0,2,0,3.1,0c0.7,0,1.3,0.3,1.5,1
			C128.1,117,127.9,117.6,127.2,117.9z"/>
	</g>
</g>
</svg>
