<?xml version="1.0" encoding="utf-8"?>
<!-- Generator: Adobe Illustrator 28.0.0, SVG Export Plug-In . SVG Version: 6.00 Build 0)  -->
<svg version="1.1" id="Layer_1" xmlns="http://www.w3.org/2000/svg" xmlns:xlink="http://www.w3.org/1999/xlink" x="0px" y="0px"
	 viewBox="0 0 128 128" style="enable-background:new 0 0 128 128;" xml:space="preserve">
<g id="YDKAre.tif">
	<g>
		<path d="M127.8,101.7c-2.2-11-8.7-18.5-18.8-23c-1.1-0.5-1.5-1-1.5-2.3c0.1-5.1,0-10.2,0.1-15.4c0.1-3.4-3-5.4-6-3.7
			c-2.6,1.5-4.9,3.3-6.7,5.7c-1.9,2.5-3.1,5.3-4.1,8.4c-0.2-0.2-0.2-0.4-0.3-0.5c-3-4.1-6.7-7.5-11.2-9.9c-0.8-0.4-0.5-0.8-0.3-1.4
			c4.3-8.7,5.6-18,3.2-27.4C77.7,15.8,67.3,5.2,50.7,1c-1.8-0.4-3.6-0.7-5.4-1h-4.7c-0.5,0.2-1,0.2-1.5,0h-1.5
			c0,0.2-0.2,0.2-0.4,0.3C28.6,1.1,21,4.5,14.4,10c-1.5,1.3-1.8,2.5-1,3.5c0.8,0.9,1.9,0.7,3.5-0.5C26.3,5,37.2,2.1,49.2,4.6
			C69.9,8.8,82.8,29,78.3,49.8c-4.1,18.4-21.5,31.4-41.2,29.2c-11.2-1.3-20.1-6.7-26.5-16.1C5,54.7,2.8,45.6,4.3,35.7
			c0.9-6.1,3.3-11.6,6.9-16.6c0.9-1.2,0.7-2.2-0.2-2.9c-1-0.7-2-0.5-2.9,0.7c-4.7,6.5-7.4,13.8-8,21.8c-0.6,9.1,1.6,17.5,6.6,25.2
			C7.1,64.6,7,65,6.5,65.6C3,69.5,0.9,74.1,0.3,79.3c-0.2,1.5,0.4,2.5,1.6,2.6c1.1,0.2,2-0.7,2.2-2.2c0.5-4.2,2.2-8,4.9-11.2
			c0.5-0.6,0.7-0.5,1.2,0C22.6,81.9,37.5,86,55,80.7c0.6-0.2,1-0.1,1.6,0.3c3.5,2.6,7,5.1,10.6,7.7c1.4,1,2.8,1.3,4.3,0.5
			c1.5-0.8,2.1-2.1,2.1-3.8c0-4.4,0.2-8.8,0-13.2c-0.1-2.8,0.4-5.2,2.3-7.4c0.6-0.7,0.9-0.7,1.7-0.3c4.6,2.6,8.2,6.1,11,10.6
			c0.7,1.1,1.6,1.8,3,1.6c1.3-0.2,2.2-1,2.6-3c0.8-3.4,2.2-6.6,4.5-9.3c1.4-1.6,3-2.9,5-3.8c0,0.2,0.1,0.3,0.1,0.4v15
			c0,3.7,0.7,4.7,4,6.2c8.9,4.1,14.6,10.7,16.4,20.5c0.3,1.5-0.1,2-1.6,2c-3.1,0-6.2,0-9.2,0c-1.4,0-2.2,0.7-2.2,1.8
			c0,1.2,0.8,1.9,2.2,1.9c2.9,0,5.7-0.1,8.6,0c3,0.1,5-1,6.1-3.8V102C127.9,101.9,127.8,101.8,127.8,101.7z M69.7,85.9
			c-3.3-2.4-6.5-4.7-9.8-7.1c3.6-1.8,6.8-4,9.8-6.8V85.9z"/>
		<path d="M40.5,0c-0.5,0.4-1,0.4-1.5,0C39.5,0,40,0,40.5,0z"/>
		<path d="M12.4,104.7c-4.5-3-7.8-6.6-9.9-11.1c-0.8-1.7-1.4-3.5-1.8-5.4C0.3,87,0.9,86,1.9,85.7c1.1-0.3,2,0.3,2.4,1.6
			c1.7,6.8,5.6,11.9,11.8,15.1c3.1,1.6,6.5,2.3,10,2.3c7,0,14,0,21,0c5.9,0,10-4.1,10-10.1c0-1.2,0-2.4,0-3.6c0-1.1,0.7-1.8,1.8-1.9
			c1-0.1,1.9,0.4,2,1.5c0.2,3.8,0.4,7.6-1.6,11c-0.6,1-1.4,2-2.3,3.1c0.6,0,1.1,0,1.5,0c15.5,0,30.9,0,46.4,0c1.7,0,2.4,0.5,2.5,1.8
			c0.1,1-0.6,1.9-1.6,2c-0.4,0.1-0.8,0-1.2,0c-31.8,0-63.6,0-95.5,0c-2.4,0-4.2,1.2-4.9,3.1c-1,3,1.2,6,4.5,6.1c1.7,0.1,3.3,0,5,0
			c9,0,17.9-0.1,26.9,0.1c5.8,0.1,10.7,2.7,14.8,6.9c0.9,0.9,0.9,2,0.1,2.8c-0.8,0.8-1.9,0.8-2.8-0.1c-4.2-4.3-9.3-6-15.2-5.9
			c-9.7,0.1-19.3,0-29,0c-4.1,0-7.6-3.1-8.2-7.1c-0.6-4,1.9-8,5.7-9.3c1.7-0.5,3.5-0.3,5.2-0.4C11.4,104.7,11.7,104.7,12.4,104.7z"
			/>
		<path d="M28,25.5c-4.2,2.1-6.2,5.7-6.2,10.3c0,4.3,3.2,7.4,7.4,7.5c0.5-0.1,1.1,0,1.7-0.2c4.7-1.2,8.2-5.8,8.1-10.8
			C38.9,26.3,33.3,22.9,28,25.5z M31,39c-2.7,1.2-5-0.1-5.3-3c-0.5-3.7,2.6-7.5,5.9-7.5c1.9,0,3.1,1,3.5,2.9
			C35.6,34.5,33.8,37.8,31,39z"/>
		<path d="M49.2,52.5c-1.8-3.6-3.6-7.2-5.5-10.7c-1-2-3.3-2-4.4,0c-1.9,3.6-3.7,7.2-5.5,10.8c-0.3,0.6-0.5,1.3-0.5,2
			c0,3.8,4,6.2,7.4,4.5c0.5-0.3,1-0.4,1.6-0.1c2,1.1,4.2,0.8,5.8-0.8C49.7,56.7,50.2,54.5,49.2,52.5z M45.3,55.6
			c-0.7,0.4-1.4,0.2-1.8-0.7c-0.3-0.8-1-1.4-1.9-1.4c-1,0-1.6,0.5-2,1.4c-0.3,0.8-1,1.1-1.7,0.7c-0.8-0.4-0.8-1.1-0.4-1.8
			c1.3-2.6,2.7-5.2,4.1-8.1c1.5,2.8,2.7,5.4,4.1,8C46,54.5,46,55.2,45.3,55.6z"/>
		<path d="M57.4,27.3c-1.9-1.8-4.2-2.9-6.9-2.6c-4.1,0.4-6.5,3.5-6.5,7.7c0,4.4,2.9,8.7,6.9,10.2c4.8,1.9,9.3-0.5,10.2-5.6
			C61.7,33.1,60.2,29.9,57.4,27.3z M57.3,36.7c-0.3,1.9-2,3.1-3.9,2.7c-3.1-0.6-5.6-3.8-5.6-7c0-3.2,2.5-4.7,5.3-3.4
			C56,30.2,57.8,33.6,57.3,36.7z"/>
		<path d="M64.3,22C59,16.1,52,13.2,44.2,12.5c-9.3-0.9-17.6,1.6-24.4,8.1c-6.1,5.9-8.5,13.1-7,21.5c1.1,6,3.9,11.2,8.2,15.5
			c1.6,1.6,2.2,3.2,2.1,5.4c-0.1,4.2,2.5,6.7,6.7,6.7c4,0,8.1,0,12.1,0c4.2,0,8.3,0,12.5,0c3.8,0,6.7-2.9,6.4-6.5
			c-0.1-0.7,0-1.3,0-2c-0.1-1.2,0.4-2,1.2-2.9c2.7-2.8,5-6,6.5-9.7C72.4,39,71.5,29.9,64.3,22z M64.2,48.8c-1.3,2.5-2.8,4.9-4.9,6.8
			c-1.8,1.7-2.5,3.8-2.4,6.2l0.1,1.4c0.1,1.7-0.7,2.6-2.4,2.7c-1.8,0.1-3.6,0.1-5.4,0.1c-2.4,0-4.8,0-7.2,0c-3.9,0-7.8,0-11.7,0
			c-2.7,0-3.5-0.7-3.4-3.4c0.1-2.9-0.8-5.2-2.9-7.3c-4.2-4.1-6.9-9.2-7.6-15.1c-0.8-6.8,1.5-12.5,6.5-17.1
			c5.7-5.2,12.6-7.3,20.3-6.8c6.7,0.4,12.5,2.7,17.3,7.4C67.5,30.4,68.8,39.7,64.2,48.8z"/>
		<path d="M102,93.1c-0.8-0.7-1.6-1.4-2.3-2.2c-1-0.9-1-2-0.2-2.9c0.8-0.8,1.8-0.8,2.8,0c0.9,0.7,1.6,2.2,2.6,2.1
			c0.9,0,1.6-1.4,2.5-2.1c1-0.9,2.1-0.9,2.9,0c0.7,0.8,0.6,1.9-0.3,2.8c-0.7,0.7-1.5,1.4-2.3,2.2c0.8,0.8,1.6,1.5,2.4,2.2
			c0.9,0.9,0.9,2,0.1,2.8c-0.7,0.8-1.7,0.8-2.7,0c-1-0.7-1.7-2.3-2.7-2.2c-0.9,0.1-1.7,1.4-2.6,2.2c-1,0.8-2,0.7-2.8-0.1
			c-0.7-0.8-0.6-1.9,0.3-2.8C100.4,94.5,101.2,93.9,102,93.1z"/>
		<path d="M28,25.5c-4.2,2.1-6.2,5.7-6.2,10.3c0,4.3,3.2,7.4,7.4,7.5c0.5-0.1,1.1,0,1.7-0.2c4.7-1.2,8.2-5.8,8.1-10.8
			C38.9,26.3,33.3,22.9,28,25.5z M31,39c-2.7,1.2-5-0.1-5.3-3c-0.5-3.7,2.6-7.5,5.9-7.5c1.9,0,3.1,1,3.5,2.9
			C35.6,34.5,33.8,37.8,31,39z"/>
		<path d="M49.2,52.5c-1.8-3.6-3.6-7.2-5.5-10.7c-1-2-3.3-2-4.4,0c-1.9,3.6-3.7,7.2-5.5,10.8c-0.3,0.6-0.5,1.3-0.5,2
			c0,3.8,4,6.2,7.4,4.5c0.5-0.3,1-0.4,1.6-0.1c2,1.1,4.2,0.8,5.8-0.8C49.7,56.7,50.2,54.5,49.2,52.5z M45.3,55.6
			c-0.7,0.4-1.4,0.2-1.8-0.7c-0.3-0.8-1-1.4-1.9-1.4c-1,0-1.6,0.5-2,1.4c-0.3,0.8-1,1.1-1.7,0.7c-0.8-0.4-0.8-1.1-0.4-1.8
			c1.3-2.6,2.7-5.2,4.1-8.1c1.5,2.8,2.7,5.4,4.1,8C46,54.5,46,55.2,45.3,55.6z"/>
		<path d="M57.4,27.3c-1.9-1.8-4.2-2.9-6.9-2.6c-4.1,0.4-6.5,3.5-6.5,7.7c0,4.4,2.9,8.7,6.9,10.2c4.8,1.9,9.3-0.5,10.2-5.6
			C61.7,33.1,60.2,29.9,57.4,27.3z M57.3,36.7c-0.3,1.9-2,3.1-3.9,2.7c-3.1-0.6-5.6-3.8-5.6-7c0-3.2,2.5-4.7,5.3-3.4
			C56,30.2,57.8,33.6,57.3,36.7z"/>
		<path d="M49.2,52.5c-1.8-3.6-3.6-7.2-5.5-10.7c-1-2-3.3-2-4.4,0c-1.9,3.6-3.7,7.2-5.5,10.8c-0.3,0.6-0.5,1.3-0.5,2
			c0,3.8,4,6.2,7.4,4.5c0.5-0.3,1-0.4,1.6-0.1c2,1.1,4.2,0.8,5.8-0.8C49.7,56.7,50.2,54.5,49.2,52.5z M45.3,55.6
			c-0.7,0.4-1.4,0.2-1.8-0.7c-0.3-0.8-1-1.4-1.9-1.4c-1,0-1.6,0.5-2,1.4c-0.3,0.8-1,1.1-1.7,0.7c-0.8-0.4-0.8-1.1-0.4-1.8
			c1.3-2.6,2.7-5.2,4.1-8.1c1.5,2.8,2.7,5.4,4.1,8C46,54.5,46,55.2,45.3,55.6z"/>
		<path d="M28,25.5c-4.2,2.1-6.2,5.7-6.2,10.3c0,4.3,3.2,7.4,7.4,7.5c0.5-0.1,1.1,0,1.7-0.2c4.7-1.2,8.2-5.8,8.1-10.8
			C38.9,26.3,33.3,22.9,28,25.5z M31,39c-2.7,1.2-5-0.1-5.3-3c-0.5-3.7,2.6-7.5,5.9-7.5c1.9,0,3.1,1,3.5,2.9
			C35.6,34.5,33.8,37.8,31,39z"/>
		<path d="M57.4,27.3c-1.9-1.8-4.2-2.9-6.9-2.6c-4.1,0.4-6.5,3.5-6.5,7.7c0,4.4,2.9,8.7,6.9,10.2c4.8,1.9,9.3-0.5,10.2-5.6
			C61.7,33.1,60.2,29.9,57.4,27.3z M57.3,36.7c-0.3,1.9-2,3.1-3.9,2.7c-3.1-0.6-5.6-3.8-5.6-7c0-3.2,2.5-4.7,5.3-3.4
			C56,30.2,57.8,33.6,57.3,36.7z"/>
	</g>
</g>
</svg>
