<?xml version="1.0" encoding="utf-8"?>
<!-- Generator: Adobe Illustrator 28.0.0, SVG Export Plug-In . SVG Version: 6.00 Build 0)  -->
<svg version="1.1" id="Layer_1" xmlns="http://www.w3.org/2000/svg" xmlns:xlink="http://www.w3.org/1999/xlink" x="0px" y="0px"
	 viewBox="0 0 128 128" style="enable-background:new 0 0 128 128;" xml:space="preserve">
<g id="KyHFYu.tif">
	<g>
		<path d="M126.8,35c-2.8-0.6-4-2.3-4.3-5.1c-0.2-1.7-2.3-2.2-3.3-0.8c-1.5,2.2-3.3,3.3-6,2.4c-0.8-0.3-1.6,0.2-2,0.9
			c-0.4,0.8-0.4,1.6,0.2,2.2c1.8,2,1.8,4,0.4,6.2c-0.5,0.7-0.4,1.5,0.2,2.2c0.6,0.7,1.3,0.8,2.1,0.6c0.8-0.2,1.6-0.4,2.4-0.6
			c0.7-0.2,1.3-0.1,1.8,0.5c0.7,0.7,1.4,1.3,2.1,1.9c1.3,0.9,2.9,0.2,3-1.4c0.1-0.8,0.3-1.6,0.2-2.4c-0.1-1.1,0.4-1.6,1.3-2.1
			c1.1-0.6,2.2-1.1,3-2.1V36C127.6,35.7,127.4,35.1,126.8,35z M120,39.9c-1-0.9-2-1.2-3.2-0.8c0.5-1.2,0.4-2.2-0.2-3.3
			c1.2,0.1,2.3,0,3.1-1.4c0.2,1.5,1,2.2,2.1,2.7C120.7,37.7,120.1,38.5,120,39.9z"/>
		<path d="M128,62.3c-1.3,1.6-2,1.7-3.7,0.4c-7.5-5.9-15.7-10.2-25.1-12c-2.3-0.5-4.7-0.7-7-0.9c-1.3-0.1-1.9-0.7-1.9-1.9
			c0-1.2,0.7-1.8,2-1.8c7,0.2,13.7,2,20,4.8c5.2,2.3,10,5.4,14.5,8.9c0.4,0.3,0.8,0.7,1.2,1C128,61.3,128,61.8,128,62.3z"/>
		<path d="M51.8,53.8c-4.7-2.9-9.7-4.8-15-6c-5.1-1.1-10.1-1.2-15.2,0C19.9,48.1,19,47.4,19,46c0-1,0.5-1.7,1.4-1.9
			c4.5-1,9-1.3,13.5-0.7c7.6,1,14.5,3.8,21,7.6c0.1,0.1,0.3,0.2,0.4,0.2c0.3-0.2,0.1-0.4,0-0.6c-4-8.6-9.6-16-17.8-21.1
			c-4-2.4-8.3-3.9-12.9-4.8c-1.6-0.3-2.1-1-1.9-2.3c0.2-1.1,1.1-1.7,2.6-1.4c6.7,1.2,12.7,3.8,18,8c6.2,4.8,10.8,10.9,14.4,17.8
			c0.1,0.3,0.2,0.7,0.6,0.8c0.3-2.5,0.5-4.9,1.1-7.3c0.3-1.2,0.7-2.5,1.4-3.6c0.4-0.7,1-1.3,1.9-1c0.9,0.2,1.4,0.9,1.5,1.8
			c0,0.4,0.1,0.8-0.1,1.1c-1,2.8-1.5,5.7-1.9,8.9c0.8-1.1,1.4-2,2-2.9c7.1-9.8,16-17.2,27.6-21.2c5.3-1.8,10.8-2.7,16.4-2.9
			c1.6-0.1,2.5,0.6,2.6,1.9c0.1,1.2-0.8,2-2.5,2c-9.8,0.1-18.7,2.9-26.8,8.4C74.5,37.7,68.9,44,64.5,51.4c0.5,0.4,0.9,0,1.2-0.2
			c4.3-2,8.7-3.7,13.4-4.3c1.6-0.2,2.5,0.3,2.7,1.6c0.2,1.2-0.7,2-2.3,2.2c-4.9,0.6-9.3,2.4-13.7,4.6c-0.1,0-0.1,0.1-0.2,0.3
			c6.7,1.6,12.8,4.5,18.5,8.5c8.9,6.2,15.8,14.4,21.3,23.7c3.2,5.4,5.9,11.1,8.2,17c0.7,1.7-0.4,3.2-2.1,2.9c-1-0.2-1.3-1-1.6-1.8
			c-2.3-6-5.1-11.9-8.5-17.4C95.7,79,88.4,70.9,78.8,65.1c-4.3-2.6-8.9-4.6-13.8-5.7c-0.4-0.1-0.7-0.2-1.2,0
			c1.5,2.7,2.9,5.4,4.2,8.2c3.4,7.6,5.5,15.6,7.1,23.7c0.4,2,0.7,4,1.1,6c0.3,1.5-0.2,2.4-1.5,2.7c-1.2,0.2-2.1-0.6-2.3-2
			c-0.5-3.5-1.2-6.9-2-10.4c-2.1-9.1-4.9-18-9.8-26.1c-0.3-0.5-0.6-0.9-0.9-1.4c0-0.1-0.1-0.1-0.3-0.1c-2.5,3.1-4.2,6.6-5.6,10.3
			c-2.6,6.7-4,13.7-5,20.9c-1.4,10.2-1.9,20.5-1.7,30.8c0,0.2,0,0.3,0,0.5c0,1.4-0.6,2.1-1.8,2.2c-1.3,0-1.9-0.6-2-2
			c-0.3-5.1-0.1-10.2,0.2-15.2c0.3-5.8,0.8-11.5,1.6-17.3c1.5-10.3,3.8-20.3,9.2-29.3c0,0,0-0.1,0-0.1c-0.5-0.1-0.9,0.2-1.2,0.4
			c-7.2,3.3-12.4,8.8-16.4,15.5c-1.1,1.9-2.1,3.8-3.1,5.7c-0.7,1.3-1.6,1.7-2.7,1.2c-1.1-0.6-1.4-1.5-0.7-2.8
			c3.4-7,7.6-13.4,13.7-18.3c2-1.6,4.3-3,6.8-4.3c-2.6-0.2-4.9-0.1-7.2,0.2c-6.5,0.8-12.7,2.5-18.4,5.6c-9.2,5-15.7,12.5-20.3,21.8
			c-0.2,0.4-0.3,0.8-0.5,1.1c-0.6,1.1-1.5,1.5-2.6,0.9c-1-0.5-1.4-1.5-0.9-2.6c3.5-7.3,8-13.8,14.3-19c7.6-6.4,16.5-10.1,26.3-11.4
			C43.1,54.2,45,54,47,54C48.6,53.7,50.2,54.1,51.8,53.8z"/>
		<path d="M60.1,9.2c-0.4-0.7-1-1-1.9-1c-1.2,0.1-2.5,0-3.7,0c-0.8,0-1.3-0.1-1.7-0.8c-0.6-1.1-1.5-2-2.2-3c-0.5-0.7-1.2-1-2-0.9
			C47.7,3.7,47.3,4.2,47,5c-0.3,1.1-0.7,2.3-1,3.4c-0.2,0.8-0.6,1.4-1.5,1.6c-1.1,0.3-2.1,0.7-3.2,1c-0.9,0.2-1.6,0.7-1.8,1.7
			c-0.2,1,0.4,1.6,1.2,2.1c0.5,0.3,0.9,0.7,1.4,1c1.8,0.9,2.9,2.2,2.2,4.1c0,0.9,0,1.6,0,2.2c0,0.8,0.2,1.6,1.1,2
			c0.8,0.4,1.5,0.2,2.2-0.3c1-0.8,2.1-1.6,3.2-2.4c0.4-0.3,0.8-0.4,1.4-0.2c1.3,0.5,2.6,0.9,3.9,1.3c0.7,0.2,1.5,0.2,2.1-0.4
			c0.6-0.6,0.7-1.3,0.4-2.2c-0.6-1.5-1.6-3.1-1.4-4.4c0.2-1.4,1.7-2.6,2.6-3.9c0,0,0.1-0.1,0.1-0.1C60.4,10.8,60.5,10,60.1,9.2z
			 M53.7,17.6c-2.1-1.1-3.8-0.9-5.4,0.9c0.4-2.3-0.4-3.9-2.7-4.8c2.9-1.1,2.9-1.1,4.2-4.1c0.9,2.2,2.5,3,4.8,2.6
			C52.9,13.8,52.6,15.5,53.7,17.6z"/>
		<path d="M96.6,103.8c-3-0.1-5-1.2-5.8-4.2c-0.2-0.8-0.9-1.1-1.5-1.1c-1.2,0-1.7,0.4-2.3,1.8c-0.8,2-1.7,3.5-4.1,3.4
			c-1.1,0-2.4,0-2.9,1.5c-0.5,1.5,0.6,2.2,1.6,3c1.4,1.1,2.2,2.4,1.5,4.2c-0.2,0.4-0.2,1-0.3,1.5c-0.1,0.8,0.1,1.5,0.8,2
			c0.7,0.5,1.4,0.5,2.1,0.1c0.9-0.5,1.9-1,2.8-1.5c0.5-0.3,0.9-0.3,1.4,0c0.9,0.5,1.9,1,2.9,1.5c1.6,0.7,3-0.3,2.8-2
			c-0.1-0.9-0.3-1.9-0.5-2.8c-0.2-0.8-0.1-1.4,0.6-2c0.7-0.6,1.4-1.3,2-2C98.9,105.8,98.3,103.8,96.6,103.8z M91.1,110.6
			c-1.4-0.5-2.6-0.6-3.8,0.1c0.2-1.4,0-2.7-1.3-3.7c1.5-0.2,2.6-0.9,3.2-2.4c0.6,1.5,1.6,2.1,3.3,2.4
			C91,107.9,90.8,109.1,91.1,110.6z"/>
		<path d="M15.7,103c0.8-0.8,1.8-1.7,1.1-3.2c-0.7-1.4-2-1.2-3.2-1C12,99,10.9,98.4,10.1,97c-0.5-1-1.1-2.2-2.6-2
			c-1.5,0.2-1.8,1.5-2,2.7c-0.3,1.6-1.1,2.5-2.8,2.8c-1.1,0.2-2.5,0.4-2.7,1.9c-0.3,1.5,1,2.1,2,2.7c1.4,0.8,2.3,1.8,1.8,3.3
			c0,0.7,0,1.1,0,1.5c-0.1,0.9,0.3,1.5,1.1,1.9c0.7,0.4,1.4,0.3,2.1-0.3c0.3-0.3,0.7-0.4,1-0.7c1.2-1.3,2.4-1.4,4-0.6
			c1,0.5,2.2,1.1,3.2,0c1.1-1.1,0.5-2.3,0-3.3C14.4,105.4,14.6,104.2,15.7,103z M10.8,105.7c-1.2-0.4-2.2-0.2-3.1,0.4
			c0-1.1-0.4-2-1.3-2.7c1.1-0.4,1.7-1.1,2-2.2c0.7,0.9,1.6,1.4,2.8,1.5C10.4,103.7,10.3,104.6,10.8,105.7z"/>
		<path d="M67,28.3c-1.6,0-2.4-1.5-1.7-2.9c2.4-4.7,5.4-8.9,9.3-12.4c0.9-0.8,1.9-1.6,2.9-2.4c1.1-0.8,2.2-0.7,2.9,0.2
			c0.7,0.9,0.6,2-0.5,2.7c-4.8,3.6-8.4,8.2-11.1,13.6C68.3,27.8,67.7,28.2,67,28.3z"/>
		<path d="M2.2,59.3c-0.8,0-1.3-0.4-1.7-1.1c-0.4-0.8-0.2-1.5,0.4-2.2c1.9-2.1,4-4,6.3-5.6c1.2-0.9,2.5-1.7,3.7-2.5
			c1.1-0.6,2-0.4,2.6,0.5c0.6,1,0.5,2.1-0.6,2.7c-3.5,2.1-6.6,4.6-9.3,7.6C3.2,59.1,2.7,59.3,2.2,59.3z"/>
		<path d="M29.1,93.5c0,0.2-0.1,0.5-0.2,0.8c-0.6,1.9-1.1,3.8-1.4,5.8c0,0.2-0.1,0.5-0.2,0.7c-0.3,1.1-1.3,1.6-2.3,1.4
			c-0.9-0.2-1.6-1.2-1.4-2.2c0.4-2.4,0.9-4.8,1.8-7.1c0.4-1,1.1-1.6,2.2-1.4C28.5,91.7,29,92.3,29.1,93.5z"/>
		<path d="M13,29.9c1.1,0,1.8,0.8,1.8,2c0,1.1-0.8,1.8-1.8,1.9c-1,0-1.9-0.9-1.9-1.9C11.1,30.8,11.9,29.9,13,29.9z"/>
		<path d="M110.6,61.7c1.1,0,1.9,0.9,1.8,2c-0.1,1-0.8,1.8-1.8,1.8c-1.1,0-1.8-0.8-1.8-1.9C108.8,62.4,109.5,61.7,110.6,61.7z"/>
		<path d="M62.7,100.9c0,1-0.8,1.9-1.8,2c-1.1,0-1.8-0.8-1.8-1.9c0-1.1,0.7-1.9,1.8-2C61.8,99,62.7,99.9,62.7,100.9z"/>
		<path d="M27.3,117.9c0,1.1-0.7,1.9-1.8,2c-1,0-1.9-0.8-1.9-1.9c0-1,0.8-2,1.8-2C26.4,116,27.2,116.8,27.3,117.9z"/>
		<path d="M121.7,88.7c0,1.1-0.8,1.9-1.9,1.8c-1,0-1.8-0.8-1.8-1.9c0-1.1,0.8-1.9,1.9-1.9C121,86.8,121.8,87.6,121.7,88.7z"/>
		<path d="M93.8,16.1c-1.1,0-1.9-0.7-1.9-1.9c0-1.1,0.8-1.9,1.8-1.9c1,0,1.8,0.8,1.8,1.8C95.6,15.3,94.9,16.1,93.8,16.1z"/>
		<path d="M51.8,53.8c0,0,0.1,0,0.1,0c0.1,0,0.1,0.1,0.1,0.1C51.8,54.1,51.4,54,51,54c-1.3,0-2.7,0-4,0
			C48.6,53.5,50.2,53.8,51.8,53.8z"/>
	</g>
</g>
</svg>
