<?xml version="1.0" encoding="utf-8"?>
<!-- Generator: Adobe Illustrator 28.0.0, SVG Export Plug-In . SVG Version: 6.00 Build 0)  -->
<svg version="1.1" id="Layer_1" xmlns="http://www.w3.org/2000/svg" xmlns:xlink="http://www.w3.org/1999/xlink" x="0px" y="0px"
	 viewBox="0 0 128 128" style="enable-background:new 0 0 128 128;" xml:space="preserve">
<g id="TqmRZ7.tif">
	<g>
		<path d="M99.9,97.3c2.7-3.8,2.8-8.1,0-11.8c-0.4-0.6-0.4-0.9,0-1.4c2.5-3.4,2.7-7.8,0.2-11.3c-0.6-0.8-0.7-1.3,0-2.2
			c2.3-3.3,2.3-7.5,0.2-10.9c-2.1-3.3-6-4.9-9.9-4.3c-1.6,0.3-3.1,1-4.6,1.4c-1.8,0.5-3.6,1.1-5.6,1.4c4.3-4,7.1-8.6,8.4-14.2
			c2.3-9.5-4.6-18.1-14.4-17.9c-2.4,0.1-2.4,0.1-2.4-2.4c0-7,0-13.9,0-20.9c0-0.9-0.1-1.8-0.8-2.4c-0.8-0.7-1.7-0.8-2.7-0.4
			c-1.1,0.5-1.5,1.4-1.5,2.6c0,7.5,0.1,15,0,22.5c-0.1,3.4,2.5,6.8,7.1,6.1c5.8-0.9,11.1,4.6,10.1,10.4c-0.7,4-2.4,7.5-5.1,10.7
			c-7.4,8.8-21.3,10.2-30.2,3.1c-1.9-1.5-2.5-3.8-1.6-6c0.8-2,2.5-2.9,4.5-3.3c5.3-1.3,9.7-3.9,13.4-7.9c1.2-1.3,1.2-2.6,0-3.8
			c-2.6-2.6-3.6-5.7-3.6-9.4c0-7.5,0-14.9,0-22.4c0-1.7-1-2.8-2.6-2.7c-1.5,0-2.4,1-2.5,2.7c0,7.9,0,15.7,0,23.6
			c0,3.4,1,6.5,2.9,9.2c0.4,0.6,0.4,0.9-0.2,1.4c-2.8,2.3-6,3.8-9.5,4.6c-4.9,1.2-8,5.2-8,10.2c0,1.9,0.6,3.5,1.5,5.2
			c-0.6,0.2-1.1-0.1-1.5-0.2c-1.8-0.6-3.6-1.4-5.5-1.4c-4,0-7,1.8-8.8,5.3c-1.9,3.5-1.5,7.1,0.8,10.3c0.3,0.4,0.7,0.7,0.2,1.3
			c-2.9,4-2.8,8,0,12c0.3,0.4,0.3,0.7,0,1.1c-4.1,5.5-2,12.7,4.3,15.2c0.6,0.2,0.8,0.5,0.9,1.1c0.7,2.9,2.3,5.3,4.8,7.1
			c1.5,1.1,2.9,1,3.8-0.3c0.9-1.2,0.6-2.6-0.8-3.8c-1.1-0.8-2-1.8-2.5-3.1c-0.1-0.3-0.5-0.7,0.1-0.9c1-0.3,1.9-0.8,2.8-1.4
			c0.3-0.2,0.5,0,0.8,0.2c2.3,1.9,4.9,2.8,7.8,2.7c0.4,0,0.5,0.1,0.7,0.5c2.4,6.1,5.7,8.4,12.2,8.5c0.9,0,1,0.3,1,1.1
			c0,4.2,0.1,8.3,0,12.5c0,1.5,0.4,2.6,1.8,3.2h11.7c1.2-0.8,1.7-1.9,1.6-3.3c-0.1-0.8,0-1.7,0-2.5V114c2.5,0.5,4.8,0.4,7-0.8
			c0.6-0.3,1.1-0.3,1.7,0c4.1,2,9,1,11.9-2.4c2.9-3.6,3.1-8.5,0.3-12.2C99.5,98.2,99.5,97.9,99.9,97.3z M61.4,104.9
			c0.1,1.2-0.3,1.2-1.2,1c-2.7-0.7-4.6-3-4.8-5.8c-0.1-2-1-2.8-3-2.9c-1.2,0-2.5-0.1-3.7-0.1c-0.9,0-1.6-0.4-2.3-0.8
			c-1.1-0.6-1.8-1.3-1.1-2.6c0.4-0.9,0.3-2,0.3-3c0-3.7,0-7.4,0-11.1c0-0.8,0.1-1.1,1-1c1.6,0.1,3.1-0.2,4.6-1
			c0.3-0.1,0.6-0.4,1-0.1c2.8,2.2,5.8,2.8,9.2,1.7c0.1,0.2,0.1,0.2,0.1,0.3c0.2,4.4-0.7,5.3-5.1,5.3c-1,0-1.9,0-2.9,0
			c-1.2,0.1-2.2,1-2.3,2.2c-0.1,1.4,0.7,2.6,2,2.7c2.2,0.1,4.4,0.3,6.6-0.1c4.1-0.8,6.6-4,6.6-8.1c0-0.7,0-1.4,0-2.3
			c2.8,0.9,5.5,0.8,7.8-0.8c1.3-0.9,2.3-1.1,3.7-0.4c1,0.6,2.2,0.6,3.4,0.5c0.7-0.1,0.9,0.2,0.9,0.9c-0.1,1.5-0.1,2.9,0,4.4
			c0.1,0.9-0.3,1-1.1,1c-2.4,0-4.7,0-7.1,0c-1.7,0-2.8,1-2.9,2.5c0,1.5,1.2,2.5,2.9,2.6c2.4,0,4.8,0,7.2,0c0.7,0,0.9,0.2,0.9,0.9
			c-0.1,1.3,0.5,3.1-0.2,3.9c-0.7,0.8-2.5,0.2-3.8,0.2c-2.4,0-4.8,0.1-7.1,0C65.7,94.5,61,99.6,61.4,104.9z M94.3,100.3
			c2.6,1.6,3.4,4.7,1.7,7.1c-1.7,2.3-4.8,2.5-7.1,0.6c-1.4-1.2-2.4-1.2-3.9,0c-2.1,1.8-4.4,1.9-6.5,0.1c-0.9-0.8-1.9-1.1-3-0.6
			c-1.2,0.5-1.5,1.5-1.5,2.8c0,4,0,7.9,0,11.9c0,0.8-0.2,1-0.9,1c-1-0.1-2-0.1-3,0c-0.9,0.1-1.1-0.2-1.1-1.1c0.1-3.7,0-7.5,0-11.2
			c0-1.1-0.3-2-1.1-2.8c-1.5-1.5-1.9-3.3-1-5.3c0.8-2,2.5-2.8,4.6-2.8c4.2,0,8.4,0,12.6,0c2.5,0,3.4-0.8,3.4-3.3c0-3.5,0-6.9,0-10.4
			c0-3.5-0.1-7.1,0-10.6c0.1-2.4-2.1-4-4.3-2.6c-1.9,1.2-3.8,0.8-5.4-0.8c-1.6-1.6-3.1-1.4-4.4,0.5c-1.8,2.7-5.2,2.8-7.3,0.3
			c-1.3-1.6-2.9-1.6-4.3,0c-2.3,2.6-5.3,2.4-7.3-0.4c-1.1-1.5-2.7-1.8-4-0.5c-1.8,1.7-3.8,2-6.1,0.9c-2-1-3.8,0.2-3.8,2.5
			c0,5.4,0,10.8,0,16.2c0,2.2-1.7,4.1-3.8,4.5c-2.4,0.4-4.5-0.7-5.3-2.9c-0.9-2.3-0.1-4.5,2.2-5.9c1.6-1,2.1-2.5,1.1-3.9
			c-0.3-0.4-0.7-0.7-1.2-0.9c-3.4-2-3.3-6.3,0-8.3c2.2-1.3,2.2-3.4,0-4.8c-2.3-1.4-3.2-3.8-2.1-6.1c1.1-2.4,3.4-3.4,6-2.5
			c5.4,1.8,10.9,3.2,16.5,3.9c6,0.7,12,0.8,18.1,0.2c6.3-0.7,12.5-2.1,18.5-4.2c2.4-0.8,4.9,0.3,5.9,2.6c1,2.2,0.1,4.7-2,6
			c-2.3,1.4-2.3,3.4,0,4.8c3.3,2,3.3,6.3,0,8.4c-2.2,1.4-2.2,3.4,0,4.8c3.4,2.1,3.4,6.3,0,8.4C92.1,96.9,92.1,99,94.3,100.3z"/>
		<path d="M5.2,128c-1.8-1.3-2-1.9-1.3-4.1c3.2-9.8,5.6-19.8,7.2-30.1c1.9-12.3,2.6-24.6,2.2-37.1C12.6,38.7,9.5,21.1,3.9,3.9
			C3.1,1.6,4.2-0.1,6.3,0c1.3,0.1,1.9,1,2.3,2.1c1.7,5.3,3.2,10.6,4.5,16c1.8,7.4,3.1,14.8,4,22.3c1.3,11.1,1.6,22.2,1.1,33.4
			c-0.8,17.6-4,34.8-9.5,51.6c-0.4,1.1-0.9,1.9-1.8,2.5C6.4,128,5.8,128,5.2,128z"/>
		<path d="M120.9,128c-0.9-0.6-1.4-1.5-1.8-2.5c-3.5-10.8-6.1-21.9-7.7-33.2c-0.8-5.2-1.2-10.5-1.7-15.7c0-0.4,0-0.8,0-1.2
			c0-1.4,1-2.5,2.4-2.5c1.4,0,2.4,0.8,2.6,2.3c0.3,3.5,0.6,7,1,10.4c0.9,8.7,2.5,17.3,4.6,25.8c1.1,4.5,2.5,9,3.9,13.5
			c0.2,0.4,0.1,0.9,0.1,1.4c0.1,1.2-0.7,1.6-1.6,1.9C122.1,128,121.5,128,120.9,128z"/>
		<path d="M124.4,3.3l-0.1,0l-0.1,0c-0.4-0.5-0.4-1,0-1.5c0.1,0.1,0.2,0.1,0.2,0C124.4,2.3,124.4,2.8,124.4,3.3z"/>
		<path d="M124.4,126.2c-0.1,0-0.2,0-0.2,0c0-0.5,0-1,0-1.5c0.1,0.1,0.2,0.1,0.2,0C124.4,125.2,124.4,125.7,124.4,126.2z"/>
		<path d="M124.2,1.8c0,0.5,0,1,0,1.5c-2.2,6.9-4.2,13.9-5.6,21c-1.4,6.8-2.5,13.7-3.2,20.7c-0.2,2.7-0.4,5.3-0.7,8
			c-0.2,1.6-1.2,2.4-2.7,2.4c-1.4-0.1-2.4-1.2-2.3-2.7c0.2-4.7,0.7-9.5,1.3-14.2c1.2-9.1,3-18.1,5.5-26.9c0.9-3.2,1.9-6.3,2.9-9.5
			c0.3-1.1,1.1-1.9,2.3-2C122.9,0,123.8,0.6,124.2,1.8z"/>
		<path d="M111.9,61.5c1.4,0,2.5,1.1,2.5,2.5c0,1.4-1.1,2.5-2.5,2.5c-1.4,0-2.5-1.1-2.5-2.5C109.4,62.6,110.5,61.5,111.9,61.5z"/>
	</g>
</g>
</svg>
