<?xml version="1.0" encoding="utf-8"?>
<!-- Generator: Adobe Illustrator 27.9.0, SVG Export Plug-In . SVG Version: 6.00 Build 0)  -->
<svg version="1.1" id="Layer_1" xmlns="http://www.w3.org/2000/svg" xmlns:xlink="http://www.w3.org/1999/xlink" x="0px" y="0px"
	 viewBox="0 0 128 128" style="enable-background:new 0 0 128 128;" xml:space="preserve">
<g>
	<g>
		<g>
			<path d="M64,49.05c-18.84,0.02-34.1,15.29-34.12,34.12c0,18.84,15.28,34.12,34.12,34.12s34.12-15.28,34.12-34.12
				S82.84,49.05,64,49.05z M64,113.03c-16.49,0-29.86-13.37-29.86-29.86S47.51,53.31,64,53.31c16.48,0.02,29.84,13.37,29.86,29.86
				C93.86,99.66,80.49,113.03,64,113.03z"/>
		</g>
	</g>
	<g>
		<g>
			<rect x="12.82" y="12.8" width="12.8" height="4.27"/>
		</g>
	</g>
	<g>
		<g>
			<rect x="18.15" y="-1.48" transform="matrix(0.3714 -0.9285 0.9285 0.3714 8.79 21.5119)" width="4.27" height="11.48"/>
		</g>
	</g>
	<g>
		<g>
			<rect x="14.54" y="23.46" transform="matrix(0.9286 -0.3711 0.3711 0.9286 -8.0484 9.354)" width="11.48" height="4.27"/>
		</g>
	</g>
	<g>
		<g>
			<rect x="102.39" y="12.8" width="12.8" height="4.27"/>
		</g>
	</g>
	<g>
		<g>
			<rect x="101.97" y="2.13" transform="matrix(0.9286 -0.3711 0.3711 0.9286 6.1105 40.2774)" width="11.48" height="4.27"/>
		</g>
	</g>
	<g>
		<g>
			<rect x="105.58" y="19.86" transform="matrix(0.3714 -0.9285 0.9285 0.3714 43.9414 116.0977)" width="4.27" height="11.48"/>
		</g>
	</g>
	<g>
		<g>
			<path d="M105.41,66.14c-4.55-11.04-13.31-19.8-24.35-24.35V29.86c-0.01-0.79-0.45-1.51-1.15-1.87l9.23-11.74
				c0.04-0.05,0.05-0.1,0.09-0.15c0.04-0.05,0.08-0.11,0.12-0.16c0.02-0.04,0.03-0.08,0.04-0.12c0.04-0.08,0.07-0.17,0.09-0.26
				c0.03-0.1,0.06-0.2,0.07-0.3c0.01-0.09,0.02-0.18,0.02-0.27c0.01-0.1,0.01-0.2,0-0.3c-0.01-0.09-0.03-0.18-0.05-0.27
				c-0.02-0.1-0.06-0.2-0.09-0.3c-0.02-0.04-0.02-0.09-0.04-0.13c-0.02-0.04-0.05-0.07-0.08-0.12c-0.02-0.04-0.04-0.09-0.07-0.13
				l-8.53-12.8c-0.05-0.07-0.1-0.13-0.16-0.19c-0.05-0.07-0.11-0.13-0.17-0.19c-0.09-0.08-0.18-0.15-0.28-0.21
				c-0.05-0.03-0.09-0.07-0.15-0.1c-0.1-0.05-0.21-0.09-0.31-0.13c-0.07-0.02-0.13-0.05-0.21-0.07c-0.09-0.02-0.18-0.03-0.27-0.03
				C79.08,0.01,79,0,78.93,0H49.07C49,0,48.93,0.02,48.86,0.03c-0.1,0.01-0.19,0.02-0.28,0.04c-0.07,0.02-0.13,0.04-0.19,0.07
				c-0.11,0.03-0.22,0.08-0.32,0.13c-0.05,0.03-0.09,0.06-0.14,0.1c-0.1,0.06-0.2,0.13-0.29,0.21c-0.06,0.06-0.11,0.12-0.16,0.19
				c-0.06,0.06-0.11,0.12-0.17,0.19l-8.53,12.8c-0.03,0.04-0.04,0.09-0.07,0.13c-0.03,0.04-0.06,0.07-0.08,0.12
				c-0.02,0.04-0.03,0.09-0.04,0.13c-0.04,0.1-0.07,0.2-0.09,0.3c-0.02,0.09-0.04,0.18-0.05,0.27c-0.01,0.1-0.01,0.2-0.01,0.3
				c0,0.09,0.01,0.18,0.02,0.27c0.02,0.1,0.04,0.2,0.07,0.3c0.03,0.09,0.06,0.17,0.09,0.26c0.02,0.04,0.02,0.08,0.04,0.12
				c0.04,0.06,0.08,0.11,0.12,0.16c0.03,0.05,0.05,0.1,0.09,0.15l9.23,11.74c-0.7,0.36-1.15,1.08-1.16,1.87V41.8
				c-22.87,9.42-33.77,35.6-24.35,58.47c9.42,22.87,35.6,33.77,58.47,24.35C103.93,115.19,114.83,89.01,105.41,66.14z M69.04,34.92
				l5.1-17.86h8.93L69.04,34.92z M76.8,40.52h-6.73l6.7-8.53L76.8,40.52z M64,37.02l-2.21-7.75L58.3,17.06h11.4l-0.59,2.07L64,37.02
				z M79.19,6.37l4.28,6.42h-7.49L79.19,6.37z M75.48,4.27l-3.21,6.42l-4.28-6.42H75.48z M68.55,12.8h-9.09L64,5.97L68.55,12.8z
				 M60.02,4.27l-4.28,6.42l-3.21-6.42H60.02z M48.81,6.37l3.21,6.42h-7.49L48.81,6.37z M44.93,17.06h8.93l5.1,17.86L44.93,17.06z
				 M57.94,40.52H51.2v-8.53L57.94,40.52z M64.01,123.7c-22.38,0.01-40.53-18.13-40.53-40.5c-0.01-17.4,11.1-32.86,27.59-38.42
				h25.86c16.5,5.52,27.61,20.99,27.59,38.39C104.53,105.55,86.39,123.69,64.01,123.7z"/>
		</g>
	</g>
</g>
</svg>
