<?xml version="1.0" encoding="utf-8"?>
<!-- Generator: Adobe Illustrator 27.9.0, SVG Export Plug-In . SVG Version: 6.00 Build 0)  -->
<svg version="1.1" id="Layer_1" xmlns="http://www.w3.org/2000/svg" xmlns:xlink="http://www.w3.org/1999/xlink" x="0px" y="0px"
	 viewBox="0 0 128 128" style="enable-background:new 0 0 128 128;" xml:space="preserve">
<g>
	<path d="M127.89,55.87l-7.83-24.2c-0.07-0.22-0.17-0.43-0.31-0.61l-10.73-14.66c-0.11-0.16-0.25-0.29-0.41-0.41L95.04,6.09
		c-0.16-0.11-0.33-0.2-0.51-0.26L77.34,0.11C77.13,0.03,76.89-0.01,76.66,0H51.33c-0.22,0-0.45,0.03-0.67,0.11L33.47,5.83
		c-0.18,0.06-0.36,0.15-0.51,0.26L19.38,16c-0.16,0.11-0.29,0.25-0.41,0.41L8.24,31.07c-0.14,0.18-0.24,0.39-0.31,0.6l-7.83,24.2
		c-0.07,0.21-0.11,0.44-0.1,0.67l0.1,18.19c0,0.19,0.03,0.39,0.09,0.57l5.19,16.04c0.06,0.18,0.15,0.36,0.26,0.52l10.56,14.77
		c0.13,0.19,0.29,0.35,0.48,0.49l20.49,14.96c0.18,0.14,0.38,0.24,0.6,0.31l17.26,5.52c0.18,0.06,0.38,0.09,0.57,0.09H72.4
		c0.19,0,0.39-0.03,0.57-0.09l17.26-5.53c0.21-0.06,0.41-0.17,0.59-0.3l20.5-14.96c0.19-0.13,0.35-0.3,0.48-0.48l10.56-14.77
		c0.11-0.16,0.2-0.33,0.26-0.52l5.19-16.04c0.06-0.18,0.09-0.38,0.09-0.57l0.1-18.19C128.01,56.32,127.97,56.09,127.89,55.87
		L127.89,55.87z M10.72,35.24l4.78,3.43l-5.17,16l-5.87-0.04L10.72,35.24z M86.36,109.07l-9.61-4.24l9.08-11.32l13.53-5.17
		l1.04,10.49L86.36,109.07z M41.64,109.07L27.62,98.84l1.04-10.49l13.53,5.17l9.08,11.32L41.64,109.07z M23.07,67.36l8.26-12.7
		l5.56,1.81l-4.97,15.36l-6.7,2.19L23.07,67.36z M33.08,75.42l3.49,2.55c0.83,0.61,2.01,0.43,2.62-0.42
		c0.61-0.84,0.42-2.02-0.41-2.63l-3.16-2.31l4.84-14.97l6.29,2.05l5.43,16.79l-3.89,5.37l-2.25-1.64c-0.84-0.61-2.01-0.42-2.62,0.42
		c-0.61,0.84-0.42,2.02,0.41,2.63l2.25,1.64l-3.44,4.75l-14.11-5.4l-2.15-6.66L33.08,75.42z M46.46,39.1h15.67v6.64L47.9,56.12
		l-6.29-2.05L46.46,39.1z M70,35.33h-4.12v-5.87l14.57-3.97l5.64,4.12l-4.14,5.72h-3.2c-1.04,0-1.87,0.84-1.87,1.88
		s0.84,1.88,1.87,1.88h2.8l4.84,14.97l-6.29,2.05L65.88,45.74V39.1H70c1.04,0,1.88-0.84,1.88-1.88S71.03,35.33,70,35.33z
		 M55.33,13.16h17.34l5.3,9.1L64,26.06l-13.97-3.8L55.33,13.16z M94.76,35.94l0.75,15.15l-5.56,1.81l-4.97-15.36l4.14-5.72
		L94.76,35.94z M64,93.33l-12.68-9.25l3.89-5.37h17.58l3.89,5.37L64,93.33z M64,49.02l13.56,9.9l-5.18,16.02H55.62l-5.18-16.02
		L64,49.02z M75.82,76.49l5.43-16.79l6.29-2.05l4.84,14.97l-12.68,9.25L75.82,76.49z M55.15,103.69l-9.47-11.81l3.44-4.75l13,9.49
		v7.07H55.15z M65.88,96.62l13-9.49l3.44,4.75l-9.47,11.81h-6.97V96.62z M104.14,98.71l-1.27-12.79l2.31-7.14l7.67,2.5l-3.89,21
		L104.14,98.71z M99.46,84.27l-14.11,5.4l-3.44-4.75l13-9.49l6.7,2.19L99.46,84.27z M96.08,71.84l-4.97-15.36l5.56-1.81l8.26,12.7
		l-2.15,6.66L96.08,71.84z M107.22,64L99.3,51.83l-0.72-14.52l10.26,2.25l5.36,16.56L107.22,64z M117.68,54.68l-5.17-16l4.78-3.43
		l6.27,19.39L117.68,54.68z M109.88,35.93l-12.5-2.74l-6.05-4.41l4.74-6.55l18.68,10.21L109.88,35.93z M88.29,26.56l-6.05-4.41
		l-6.46-11.1l1.81-5.73l15.44,14.69L88.29,26.56z M72.37,9.39H55.63l-1.77-5.63h20.3L72.37,9.39z M52.22,11.05l-6.46,11.1
		l-6.05,4.41l-4.74-6.55L50.41,5.32L52.22,11.05z M47.55,25.49l14.57,3.97v5.87H46.05l-4.14-5.72L47.55,25.49z M43.02,37.54
		L38.05,52.9l-5.56-1.81l0.75-15.15l5.64-4.12L43.02,37.54z M28.7,51.83L20.78,64l-6.98-7.87l5.36-16.56l10.26-2.25L28.7,51.83z
		 M10.84,58.45l8.51,9.6l2.31,7.14l-7.67,2.5L4.85,58.4L10.84,58.45z M22.82,78.77l2.31,7.14l-1.27,12.79l-4.82,3.57l-3.89-21
		L22.82,78.77z M25.65,102.06l13.55,9.89l-1.86,5.6l-16.42-11.98L25.65,102.06z M42.93,112.62l11.72-5.16h7.48v8.1l-21.09,2.77
		L42.93,112.62z M65.88,107.46h7.48l11.72,5.16l1.89,5.7l-21.09-2.77L65.88,107.46L65.88,107.46z M88.8,111.95l13.55-9.89l4.73,3.5
		l-16.42,11.98L88.8,111.95z M114.01,77.69l-7.67-2.5l2.31-7.14l8.51-9.6l5.98-0.04L114.01,77.69z M106.18,18.88l5.59,7.64
		l-15.15-8.28L84.11,6.33l8.96,2.98L106.18,18.88z M21.82,18.88l13.11-9.57l8.96-2.98L31.37,18.24l-6.17,3.37
		c-0.91,0.5-1.25,1.64-0.75,2.55c0.49,0.91,1.63,1.25,2.54,0.75l4.94-2.7l4.74,6.55l-6.05,4.41l-12.5,2.74l-4.87-3.5l6.22-3.4
		c0.91-0.5,1.25-1.64,0.75-2.55c-0.49-0.91-1.63-1.25-2.54-0.75l-1.46,0.8L21.82,18.88z M3.85,74.42L3.8,64.94l7.41,15.64
		l3.16,17.03l-5.51-7.7L3.85,74.42z M72.1,124.23H55.9l-9-2.88l17.1-2.25l17.1,2.25L72.1,124.23z M119.14,89.91l-5.51,7.7
		l3.16-17.03l7.41-15.64l-0.05,9.48L119.14,89.91z"/>
</g>
</svg>
