<?xml version="1.0" encoding="utf-8"?>
<!-- Generator: Adobe Illustrator 27.9.0, SVG Export Plug-In . SVG Version: 6.00 Build 0)  -->
<svg version="1.1" id="Layer_1" xmlns="http://www.w3.org/2000/svg" xmlns:xlink="http://www.w3.org/1999/xlink" x="0px" y="0px"
	 viewBox="0 0 128 128" style="enable-background:new 0 0 128 128;" xml:space="preserve">
<g>
	<g>
		<path d="M127.61,40.17c-22.16-28.41-21.21-27.7-22.39-27.81L70.53,7.68C61.79,6.5,55.85,8.03,52.81,8.31
			c-1.02,0.14-1.73,1.07-1.59,2.09c0.14,1.02,1.07,1.73,2.09,1.59c3.08-0.28,8.59-1.72,16.72-0.63l23.82,3.21
			c-1.78,0.36-28.07,5.72-29.85,6.08l-29.85-6.08l10.32-1.39c1.02-0.14,1.73-1.07,1.59-2.09c-0.14-1.02-1.08-1.73-2.09-1.59
			l-21.18,2.85c0,0-0.01,0-0.01,0l-0.03,0c-0.03,0-0.06,0.01-0.08,0.02c-0.02,0-0.04,0.01-0.06,0.01c-0.02,0-0.03,0.01-0.05,0.01
			c-0.02,0.01-0.04,0.01-0.06,0.02c-0.03,0.01-0.07,0.02-0.1,0.03c-0.01,0-0.03,0.01-0.04,0.01c-0.01,0-0.01,0-0.02,0.01
			c-0.02,0.01-0.04,0.01-0.06,0.02c-0.03,0.01-0.07,0.03-0.1,0.04c-0.01,0.01-0.03,0.01-0.04,0.02c-0.02,0.01-0.03,0.02-0.05,0.02
			c-0.01,0.01-0.03,0.02-0.04,0.03c-0.81,0.47-0.41,0.5-21.67,27.57c-0.44,0.57-0.52,1.34-0.19,1.98
			c0.75,1.48-1.24-1.45,39.79,53.03c0.62,0.82,1.78,0.98,2.6,0.36c0.82-0.62,0.98-1.78,0.36-2.6L6.92,45.16l29.13,9.17
			c0.7,1.84,22.03,58.11,22.43,59.16l-10.26-13.6c-0.62-0.82-1.78-0.98-2.6-0.36c-0.82,0.62-0.98,1.78-0.36,2.6
			c10.75,14.24,11.85,15.72,11.93,15.8c1.36,1.53,3.24,2.5,5.03,2.8c0.27,0.05,3.38,0.04,3.64-0.01c2.26-0.44,4.18-1.72,5.08-2.91
			l36.3-48.11c0.62-0.82,0.46-1.99-0.36-2.6c-0.82-0.62-1.99-0.46-2.6,0.36l-34.72,46.03c1.11-2.93,21.61-57.01,22.43-59.16
			l29.13-9.17l-11.6,15.38c-0.62,0.82-0.46,1.99,0.36,2.6c0.82,0.62,1.99,0.46,2.6-0.36c15.58-20.66,14.74-19.41,15.35-20.63
			C128.12,41.51,128.05,40.73,127.61,40.17z M64,25.37l22.43,25.59H41.57L64,25.37z M4.78,40.59l17.64-22.62l11.96,31.95L4.78,40.59
			z M25.92,16.69c3.68,0.75,30.08,6.13,34.57,7.05L38.11,49.26L25.92,16.69z M64.21,117.04h-0.41L40.16,54.69h47.69L64.21,117.04z
			 M89.89,49.26L67.51,23.74c2.98-0.61,29.99-6.11,34.57-7.05L89.89,49.26z M93.62,49.91l11.96-31.95l17.64,22.62L93.62,49.91z"/>
	</g>
</g>
</svg>
