<?xml version="1.0" encoding="utf-8"?>
<!-- Generator: Adobe Illustrator 27.9.0, SVG Export Plug-In . SVG Version: 6.00 Build 0)  -->
<svg version="1.1" id="Layer_1" xmlns="http://www.w3.org/2000/svg" xmlns:xlink="http://www.w3.org/1999/xlink" x="0px" y="0px"
	 viewBox="0 0 128 128" style="enable-background:new 0 0 128 128;" xml:space="preserve">
<g>
	<g>
		<g>
			<path d="M64,0C32.98,0,7.75,25.23,7.75,56.25c0,27.17,19.36,49.89,45,55.12v-10.21c-2.51-1.9-4.47-4.44-5.78-7.34
				c-14.55-6.58-24.22-21.15-24.22-37.57C22.75,33.5,41.25,15,64,15s41.25,18.5,41.25,41.25c0,16.41-9.67,30.99-24.22,37.57
				c-1.31,2.89-3.27,5.43-5.78,7.34v10.21c25.64-5.23,45-27.95,45-55.12C120.25,25.23,95.02,0,64,0z"/>
		</g>
	</g>
	<g>
		<g>
			<path d="M64,22.5c-18.61,0-33.75,15.14-33.75,33.75c0,11.53,5.83,21.94,15,28.07v-9.76c-6.34-6.46-8.91-15.78-6.72-24.74
				c2.35-9.64,10.17-17.19,19.91-19.23C60.29,30.19,62.16,30,64,30c14.47,0,26.25,11.78,26.25,26.25c0,6.82-2.71,13.39-7.5,18.29
				v9.79c9.17-6.13,15-16.55,15-28.07C97.75,37.64,82.61,22.5,64,22.5z"/>
		</g>
	</g>
	<g>
		<g>
			<path d="M64.95,37.6c-0.27-0.01-0.53-0.08-0.81-0.08c-0.05,0-0.1-0.01-0.15-0.01c-8.83,0-15.88,5.89-18,13.64
				c-2.03,7.36,0.53,14.58,5.49,19.02c0.8,0.71,1.26,1.73,1.26,2.8v13.3c0,0.61,0.11,1.19,0.21,1.78c0.03,0.01,0.05,0.02,0.08,0.03
				c0.68,4.06,3.42,7.4,7.21,8.76v27.44c0,2.07,1.68,3.75,3.75,3.75s3.75-1.68,3.75-3.75V96.81c3.79-1.35,6.53-4.7,7.21-8.76
				c0.03-0.01,0.05-0.02,0.08-0.03c0.1-0.58,0.21-1.16,0.21-1.78V72.94c0-1.07,0.45-2.08,1.25-2.79
				C88.7,59.19,81.89,38.47,64.95,37.6z"/>
		</g>
	</g>
</g>
</svg>
