<?xml version="1.0" encoding="utf-8"?>
<!-- Generator: Adobe Illustrator 27.9.0, SVG Export Plug-In . SVG Version: 6.00 Build 0)  -->
<svg version="1.1" id="Layer_1" xmlns="http://www.w3.org/2000/svg" xmlns:xlink="http://www.w3.org/1999/xlink" x="0px" y="0px"
	 viewBox="0 0 128 128" style="enable-background:new 0 0 128 128;" xml:space="preserve">
<style type="text/css">
	.st0{fill:#212123;}
	.st1{fill:#403F44;}
	.st2{fill:#323234;}
</style>
<g>
	<path class="st0" d="M127.7,93.02l-19.24-59.03c-0.23-0.71-0.59-1.36-1.05-1.93c-0.62-0.79-1.43-1.42-2.37-1.83L54.84,8.37
		c-1.12-0.49-2.34-0.63-3.51-0.43c-0.89,0.15-1.76,0.5-2.52,1.04L2.63,41.42C0.98,42.58,0,44.47,0,46.49v50.54
		c0,2.58,1.6,4.89,4.02,5.8l45.13,16.92c0.26,0.1,0.52,0.17,0.79,0.23c0.46,0.11,0.92,0.16,1.39,0.16c0.54,0,1.08-0.07,1.61-0.21
		l70.48-19.01c1.64-0.44,3.03-1.54,3.83-3.03C128.06,96.39,128.22,94.64,127.7,93.02z"/>
	<path class="st1" d="M105.04,30.23L54.84,8.37c-1.12-0.49-2.34-0.63-3.51-0.43l11.42,59.47l44.66-35.35
		C106.78,31.28,105.98,30.64,105.04,30.23z"/>
	<path class="st2" d="M127.7,93.02l-19.24-59.03c-0.23-0.71-0.59-1.36-1.05-1.93L62.75,67.42l-12.81,52.56
		c0.46,0.11,0.92,0.16,1.39,0.16c0.54,0,1.08-0.07,1.61-0.21l70.48-19.01c1.64-0.44,3.03-1.54,3.83-3.03
		C128.06,96.39,128.22,94.64,127.7,93.02z"/>
</g>
</svg>
