<?xml version="1.0" encoding="utf-8"?>
<!-- Generator: Adobe Illustrator 27.9.0, SVG Export Plug-In . SVG Version: 6.00 Build 0)  -->
<svg version="1.1" id="Layer_1" xmlns="http://www.w3.org/2000/svg" xmlns:xlink="http://www.w3.org/1999/xlink" x="0px" y="0px"
	 viewBox="0 0 128 128" style="enable-background:new 0 0 128 128;" xml:space="preserve">
<g>
	<path d="M122.95,90.88v-2.94c0-1.04-0.84-1.88-1.88-1.88c-1.04,0-1.88,0.84-1.88,1.88v2.94c-2.91,0.82-5.05,3.5-5.05,6.68
		c0,0.45,0.05,0.9,0.13,1.33l-11.16,6.45c-1.25-1.22-2.96-1.97-4.84-1.97c-1.88,0-3.59,0.75-4.84,1.97l-11.16-6.45
		c0.08-0.43,0.13-0.87,0.13-1.33c0-3.17-2.14-5.85-5.05-6.68V77.47c2.91-0.82,5.05-3.5,5.05-6.68c0-0.59-0.07-1.16-0.21-1.71
		l11.47-6.62c1.23,1.1,2.84,1.76,4.61,1.76s3.39-0.67,4.61-1.76l11.47,6.62c-0.14,0.55-0.21,1.12-0.21,1.71
		c0,3.17,2.14,5.85,5.05,6.68v2.93c0,1.04,0.84,1.88,1.88,1.88c1.04,0,1.88-0.84,1.88-1.88v-2.93c2.91-0.82,5.05-3.5,5.05-6.68
		c0-3.83-3.11-6.94-6.94-6.94c-1.88,0-3.59,0.75-4.84,1.97l-11.33-6.54c0.19-0.63,0.29-1.3,0.29-1.99c0-3.2-2.18-5.9-5.14-6.7V37.96
		c2.91-0.82,5.05-3.5,5.05-6.68c0-3.83-3.11-6.94-6.94-6.94c-1.88,0-3.59,0.75-4.84,1.97l-11.33-6.54c0.19-0.63,0.29-1.3,0.29-1.99
		c0-3.83-3.11-6.94-6.94-6.94c-3.83,0-6.94,3.11-6.94,6.94c0,0.69,0.1,1.36,0.29,1.99l-11.33,6.54c-1.25-1.22-2.96-1.97-4.84-1.97
		c-1.85,0-3.54,0.73-4.78,1.92L36.39,19.7c0.19-0.63,0.29-1.3,0.29-1.99c0-3.83-3.11-6.94-6.94-6.94s-6.94,3.11-6.94,6.94
		c0,0.69,0.1,1.36,0.29,1.99l-2.37,1.37c-0.9,0.52-1.21,1.67-0.69,2.57c0.35,0.6,0.98,0.94,1.63,0.94c0.32,0,0.64-0.08,0.94-0.25
		l2.52-1.45c1.23,1.1,2.84,1.76,4.61,1.76c1.77,0,3.39-0.67,4.61-1.76l11.49,6.63c-0.15,0.57-0.23,1.16-0.23,1.78
		c0,3.17,2.14,5.85,5.05,6.68v12.65c-2.91,0.82-5.05,3.5-5.05,6.68c0,0.67,0.1,1.31,0.27,1.92l-11.36,6.56
		c-1.25-1.19-2.93-1.92-4.78-1.92s-3.54,0.73-4.78,1.92l-11.22-6.48c0.08-0.43,0.13-0.87,0.13-1.33c0-3.17-2.14-5.85-5.05-6.68
		V37.88c2.91-0.82,5.05-3.5,5.05-6.68c0-0.59-0.07-1.16-0.21-1.71l2.82-1.63c0.9-0.52,1.21-1.67,0.69-2.57
		c-0.52-0.9-1.67-1.21-2.57-0.69l-2.83,1.63c-1.25-1.22-2.96-1.97-4.84-1.97C3.11,24.27,0,27.38,0,31.2c0,3.17,2.14,5.85,5.05,6.68
		v13.41C2.14,52.11,0,54.79,0,57.97c0,3.83,3.11,6.94,6.94,6.94c2.02,0,3.83-0.86,5.1-2.24l11,6.35c-0.15,0.57-0.23,1.16-0.23,1.78
		c0,3.17,2.14,5.85,5.05,6.68v13.41c-2.91,0.82-5.05,3.5-5.05,6.68c0,3.83,3.11,6.94,6.94,6.94c2.02,0,3.83-0.86,5.1-2.24
		l10.98,6.34c-0.14,0.55-0.21,1.12-0.21,1.71c0,3.83,3.11,6.94,6.94,6.94c3.83,0,6.94-3.11,6.94-6.94c0-0.59-0.07-1.16-0.21-1.71
		l11.04-6.37c1.27,1.4,3.1,2.27,5.13,2.27c2.02,0,3.83-0.86,5.1-2.24l10.98,6.34c-0.14,0.55-0.21,1.12-0.21,1.71
		c0,3.83,3.11,6.94,6.94,6.94c3.83,0,6.94-3.11,6.94-6.94c0-0.59-0.07-1.16-0.21-1.71l10.98-6.34c1.27,1.38,3.09,2.24,5.1,2.24
		c3.83,0,6.94-3.11,6.94-6.94C128,94.38,125.86,91.7,122.95,90.88L122.95,90.88z M3.77,31.2c0-1.75,1.42-3.17,3.17-3.17
		c1.75,0,3.17,1.42,3.17,3.17c0,1.75-1.42,3.17-3.17,3.17C5.19,34.37,3.77,32.95,3.77,31.2z M6.94,61.13
		c-1.75,0-3.17-1.42-3.17-3.17s1.42-3.17,3.17-3.17c1.75,0,3.17,1.42,3.17,3.17S8.68,61.13,6.94,61.13z M59.49,31.29
		c0-0.59-0.07-1.16-0.21-1.71l11.47-6.62c1.23,1.1,2.84,1.76,4.61,1.76c1.77,0,3.39-0.67,4.61-1.76l11.47,6.62
		c-0.14,0.55-0.21,1.12-0.21,1.71c0,3.17,2.14,5.85,5.05,6.68v12.68c-2.87,0.85-4.97,3.51-4.97,6.65c0,0.68,0.1,1.33,0.28,1.95
		l-11.35,6.55c-1.25-1.2-2.94-1.94-4.8-1.94c-0.01,0-0.03,0-0.04,0c-0.01,0-0.03,0-0.04,0c-1.88,0-3.59,0.75-4.84,1.97L59.2,59.28
		c0.19-0.63,0.29-1.3,0.29-1.99c0-3.17-2.14-5.85-5.05-6.68V37.96C57.35,37.14,59.49,34.46,59.49,31.29L59.49,31.29z M78.53,70.79
		c0,1.73-1.4,3.14-3.13,3.17c-1.73-0.02-3.13-1.43-3.13-3.17s1.4-3.14,3.13-3.17C77.13,67.65,78.53,69.06,78.53,70.79z
		 M121.06,67.62c1.75,0,3.17,1.42,3.17,3.17c0,1.75-1.42,3.17-3.17,3.17c-1.75,0-3.17-1.42-3.17-3.17
		C117.89,69.05,119.32,67.62,121.06,67.62z M101.42,57.29c0,1.75-1.42,3.17-3.17,3.17c-1.75,0-3.17-1.42-3.17-3.17
		s1.42-3.17,3.17-3.17C100,54.12,101.42,55.54,101.42,57.29z M98.17,28.12c1.75,0,3.17,1.42,3.17,3.17s-1.42,3.17-3.17,3.17
		c-1.75,0-3.17-1.42-3.17-3.17S96.42,28.12,98.17,28.12z M75.36,14.62c1.75,0,3.17,1.42,3.17,3.17c0,1.75-1.42,3.17-3.17,3.17
		c-1.75,0-3.17-1.42-3.17-3.17S73.61,14.62,75.36,14.62z M29.75,20.87c-1.75,0-3.17-1.42-3.17-3.17s1.42-3.17,3.17-3.17
		c1.75,0,3.17,1.42,3.17,3.17S31.49,20.87,29.75,20.87z M49.39,31.29c0-1.75,1.42-3.17,3.17-3.17s3.17,1.42,3.17,3.17
		c0,1.75-1.42,3.17-3.17,3.17S49.39,33.04,49.39,31.29z M52.55,54.12c1.75,0,3.17,1.42,3.17,3.17s-1.42,3.17-3.17,3.17
		s-3.17-1.42-3.17-3.17S50.81,54.12,52.55,54.12z M26.58,70.79c0-1.75,1.42-3.17,3.17-3.17c1.75,0,3.17,1.42,3.17,3.17
		c0,1.75-1.42,3.17-3.17,3.17C28,73.96,26.58,72.54,26.58,70.79z M29.75,100.72c-1.75,0-3.17-1.42-3.17-3.17
		c0-1.75,1.42-3.17,3.17-3.17c1.75,0,3.17,1.42,3.17,3.17C32.91,99.3,31.49,100.72,29.75,100.72z M52.55,113.47
		c-1.75,0-3.17-1.42-3.17-3.17c0-1.75,1.42-3.17,3.17-3.17s3.17,1.42,3.17,3.17C55.72,112.04,54.3,113.47,52.55,113.47z
		 M57.39,105.33c-1.25-1.22-2.96-1.97-4.84-1.97c-1.88,0-3.59,0.75-4.84,1.97l-11.16-6.45c0.08-0.43,0.13-0.87,0.13-1.33
		c0-3.17-2.14-5.85-5.05-6.68V77.47c2.91-0.82,5.05-3.5,5.05-6.68c0-0.59-0.07-1.16-0.21-1.71l11.47-6.62
		c1.23,1.1,2.84,1.76,4.61,1.76c1.77,0,3.39-0.67,4.61-1.76l11.47,6.62c-0.14,0.55-0.21,1.12-0.21,1.71c0,3.17,2.14,5.85,5.05,6.68
		V90.9c-2.87,0.85-4.97,3.51-4.97,6.65c0,0.44,0.04,0.87,0.12,1.29L57.39,105.33z M75.45,100.72c-1.75,0-3.17-1.42-3.17-3.17
		c0-1.75,1.42-3.17,3.17-3.17c1.75,0,3.17,1.42,3.17,3.17C78.62,99.3,77.19,100.72,75.45,100.72z M98.25,113.47
		c-1.75,0-3.17-1.42-3.17-3.17c0-1.75,1.42-3.17,3.17-3.17c1.75,0,3.17,1.42,3.17,3.17C101.42,112.04,100,113.47,98.25,113.47z
		 M121.06,100.72c-1.75,0-3.17-1.42-3.17-3.17c0-1.75,1.42-3.17,3.17-3.17c1.75,0,3.17,1.42,3.17,3.17
		C124.23,99.3,122.81,100.72,121.06,100.72z"/>
</g>
</svg>
