<?xml version="1.0" encoding="utf-8"?>
<!-- Generator: Adobe Illustrator 27.9.0, SVG Export Plug-In . SVG Version: 6.00 Build 0)  -->
<svg version="1.1" id="Layer_1" xmlns="http://www.w3.org/2000/svg" xmlns:xlink="http://www.w3.org/1999/xlink" x="0px" y="0px"
	 viewBox="0 0 128 128" style="enable-background:new 0 0 128 128;" xml:space="preserve">
<g>
	<g>
		<g>
			<path d="M25.14,104V92.38L3.23,114.29h11.62C20.54,114.28,25.14,109.68,25.14,104z"/>
			<polygon points="93.05,0 85.57,0 32.66,57.14 40.15,57.14 			"/>
			<path d="M38.86,104V61.71h-9.14V104c-0.01,8.2-6.66,14.85-14.86,14.86H0V128h68.57v-9.14H53.71
				C45.51,118.85,38.87,112.2,38.86,104z"/>
			<path d="M124.77,57.14h-15.05c-0.14-0.01-0.27-0.04-0.4-0.08c-7.56-0.8-13.3-7.17-13.31-14.78V3.55L43.43,60.32V104
				c0.01,5.68,4.61,10.28,10.29,10.29h16.16L114.92,67L124.77,57.14z M54.19,106.65c-0.43,0.43-1.02,0.66-1.62,0.66
				c-0.61,0.01-1.19-0.23-1.62-0.66s-0.67-1.01-0.66-1.62c0-0.6,0.24-1.17,0.66-1.6c0.91-0.87,2.34-0.87,3.25,0
				c0.42,0.43,0.66,1,0.66,1.6C54.85,105.63,54.62,106.21,54.19,106.65z M63.37,97.03l-2.29,2.39c-0.87,0.91-2.32,0.95-3.23,0.08
				c-0.91-0.87-0.95-2.32-0.08-3.23l2.29-2.39c0.56-0.59,1.4-0.84,2.19-0.64c0.79,0.19,1.42,0.79,1.65,1.58
				C64.14,95.6,63.93,96.44,63.37,97.03z M72.51,87.46l-2.29,2.39c-0.87,0.91-2.32,0.95-3.23,0.08c-0.91-0.87-0.95-2.32-0.08-3.23
				l2.29-2.39c0.87-0.91,2.32-0.95,3.23-0.08C73.35,85.09,73.38,86.54,72.51,87.46z M81.65,77.88l-2.29,2.39
				c-0.87,0.91-2.32,0.95-3.23,0.08c-0.91-0.87-0.95-2.32-0.08-3.23l2.29-2.39c0.87-0.91,2.32-0.95,3.23-0.08
				C82.49,75.52,82.53,76.96,81.65,77.88z M90.8,68.3l-2.29,2.39c-0.56,0.59-1.4,0.84-2.19,0.64c-0.79-0.19-1.42-0.79-1.65-1.58
				c-0.23-0.78-0.02-1.63,0.54-2.22l2.29-2.39c0.87-0.91,2.32-0.95,3.23-0.08C91.63,65.94,91.67,67.39,90.8,68.3z M97.62,61.14
				c-0.43,0.44-1.01,0.69-1.62,0.69s-1.2-0.25-1.62-0.69c-0.43-0.42-0.67-1-0.66-1.6c0-0.61,0.24-1.19,0.66-1.62
				c0.92-0.85,2.33-0.85,3.25,0c0.42,0.44,0.66,1.02,0.66,1.62C98.29,60.14,98.05,60.72,97.62,61.14z"/>
			<polygon points="118.19,70.19 73.14,117.49 73.14,124.57 114.91,80.71 128,67.63 128,60.37 			"/>
		</g>
	</g>
</g>
</svg>
