<?xml version="1.0" encoding="utf-8"?>
<!-- Generator: Adobe Illustrator 27.9.0, SVG Export Plug-In . SVG Version: 6.00 Build 0)  -->
<svg version="1.1" id="Layer_1" xmlns="http://www.w3.org/2000/svg" xmlns:xlink="http://www.w3.org/1999/xlink" x="0px" y="0px"
	 viewBox="0 0 128 128" style="enable-background:new 0 0 128 128;" xml:space="preserve">
<g id="Page-1">
	<g id="_x30_28---Coloured-Pencil">
		<path id="Shape" d="M100.74,3.12c-4.17-4.16-10.92-4.16-15.09,0L9.41,79.36L8.38,80.4c-1.61,1.6-2.66,3.68-3,5.92l-5.28,34.19
			c-0.32,1.86,0.19,3.77,1.41,5.21C2.72,127.17,4.51,128,6.4,128c0.35,0,0.71-0.03,1.06-0.09l34.23-5.28c2.24-0.34,4.32-1.39,5.92-3
			l1.04-1.04l76.24-76.24c4.17-4.17,4.17-10.92,0-15.09L100.74,3.12z M84.01,10.8c2.6-1.25,5.71-0.76,7.8,1.23
			c2,2.1,2.5,5.23,1.24,7.85L26.02,86.9c-0.69-4.68-4.36-8.36-9.03-9.08L84.01,10.8z M105.17,31.87L38.1,98.93
			c-0.71-4.67-4.37-8.33-9.04-9.04l67.07-67.07c2.59-1.3,5.73-0.79,7.78,1.26S106.47,29.27,105.17,31.87L105.17,31.87z M6.76,123.7
			c-0.69,0.12-1.39-0.11-1.88-0.61s-0.7-1.21-0.57-1.89l1.45-9.46c2.53,0.65,4.83,1.97,6.67,3.82c1.86,1.84,3.18,4.14,3.83,6.68
			L6.76,123.7z M41.03,118.4l-20.53,3.18c-0.8-3.43-2.55-6.56-5.05-9.03c-2.47-2.5-5.6-4.25-9.03-5.05L9.6,86.97
			c0.2-1.35,0.83-2.59,1.79-3.56l0.78-0.78c2.6-1.25,5.71-0.76,7.8,1.23c2.04,2.18,2.5,5.4,1.15,8.06
			c-0.44,0.83-0.29,1.84,0.37,2.51s1.67,0.82,2.5,0.39c2.66-1.36,5.88-0.9,8.06,1.13c2.03,2.18,2.49,5.4,1.14,8.05
			c-0.44,0.83-0.29,1.84,0.37,2.51s1.68,0.82,2.5,0.38c2.66-1.36,5.88-0.9,8.06,1.13c1.99,2.1,2.48,5.21,1.22,7.81l-0.78,0.78
			C43.62,117.58,42.37,118.2,41.03,118.4L41.03,118.4z M47.15,105.01c-1.62-1.65-3.75-2.72-6.04-3.04l67.02-67.03
			c2.6-1.33,5.76-0.84,7.83,1.22c2.07,2.06,2.58,5.22,1.25,7.82l-67.03,67.03C49.86,108.73,48.79,106.62,47.15,105.01z
			 M122.03,39.13c-0.33-2.27-1.39-4.37-3.03-5.97c-2.35-2.37-5.67-3.51-8.98-3.08c0.41-3.31-0.73-6.63-3.09-8.99
			c-2.36-2.36-5.67-3.5-8.99-3.09c0.43-3.31-0.72-6.64-3.09-8.99c-1.6-1.64-3.7-2.7-5.97-3.03c2.52-2.33,6.43-2.27,8.86,0.15
			l24.12,24.13c2.44,2.43,2.51,6.35,0.16,8.86H122.03z"/>
	</g>
</g>
</svg>
