<?xml version="1.0" encoding="utf-8"?>
<!-- Generator: Adobe Illustrator 27.9.0, SVG Export Plug-In . SVG Version: 6.00 Build 0)  -->
<svg version="1.1" id="Layer_1" xmlns="http://www.w3.org/2000/svg" xmlns:xlink="http://www.w3.org/1999/xlink" x="0px" y="0px"
	 viewBox="0 0 128 128" style="enable-background:new 0 0 128 128;" xml:space="preserve">
<g>
	<g>
		<g>
			<path d="M116.75,37.75h-4v-4.9c0-5.71-4.64-10.35-10.35-10.35h-6.85L74.15,1.1c-0.67-0.67-1.6-1.08-2.59-1.1
				c-0.02,0-0.04,0-0.06,0H34c-2.07,0-3.75,1.68-3.75,3.75V22.5H25.6c-5.71,0-10.35,4.64-10.35,10.35v4.9h-4C5.05,37.75,0,42.8,0,49
				v45c0,6.2,5.05,11.25,11.25,11.25h19v19c0,2.07,1.68,3.75,3.75,3.75h60c2.07,0,3.75-1.68,3.75-3.75v-19h19
				c6.2,0,11.25-5.05,11.25-11.25V49C128,42.8,122.95,37.75,116.75,37.75z M97.75,30h4.65c1.57,0,2.85,1.28,2.85,2.85v4.9h-7.5V30z
				 M75.25,12.8l9.7,9.7h-9.7V12.8z M37.75,41.5v-34h30v18.75c0,2.07,1.68,3.75,3.75,3.75h15h3.75v11.5v3.75h-52.5V41.5z
				 M22.75,32.85c0-1.57,1.28-2.85,2.85-2.85h4.65v7.75h-7.5V32.85z M90.25,120.5h-52.5V82.75h52.5V120.5z M120.5,94
				c0,2.07-1.68,3.75-3.75,3.75h-19v-15h3.75c2.07,0,3.75-1.68,3.75-3.75s-1.68-3.75-3.75-3.75H94H34h-7.5
				c-2.07,0-3.75,1.68-3.75,3.75s1.68,3.75,3.75,3.75h3.75v15h-19c-2.07,0-3.75-1.68-3.75-3.75V49c0-2.07,1.68-3.75,3.75-3.75
				c3.9,0,15.08,0,19,0V49c0,2.07,1.68,3.75,3.75,3.75h60c2.07,0,3.75-1.68,3.75-3.75v-3.75c3.92,0,15.1,0,19,0
				c2.07,0,3.75,1.68,3.75,3.75V94z"/>
		</g>
	</g>
	<g>
		<g>
			<path d="M109,60.25h-7.5c-2.07,0-3.75,1.68-3.75,3.75s1.68,3.75,3.75,3.75h7.5c2.07,0,3.75-1.68,3.75-3.75
				S111.07,60.25,109,60.25z"/>
		</g>
	</g>
	<g>
		<g>
			<path d="M79,90.25H49c-2.07,0-3.75,1.68-3.75,3.75s1.68,3.75,3.75,3.75h30c2.07,0,3.75-1.68,3.75-3.75S81.07,90.25,79,90.25z"/>
		</g>
	</g>
	<g>
		<g>
			<path d="M79,105.25H49c-2.07,0-3.75,1.68-3.75,3.75s1.68,3.75,3.75,3.75h30c2.07,0,3.75-1.68,3.75-3.75S81.07,105.25,79,105.25z"
				/>
		</g>
	</g>
</g>
</svg>
