<?xml version="1.0" encoding="utf-8"?>
<!-- Generator: Adobe Illustrator 28.0.0, SVG Export Plug-In . SVG Version: 6.00 Build 0)  -->
<svg version="1.1" id="Layer_1" xmlns="http://www.w3.org/2000/svg" xmlns:xlink="http://www.w3.org/1999/xlink" x="0px" y="0px"
	 viewBox="0 0 128 128" style="enable-background:new 0 0 128 128;" xml:space="preserve">
<g id="ribVGc.tif">
	<g>
		<path d="M79.5,107c-0.5-1.6,0.9-4.4-1.5-4.6c-2.7-0.2-1.9,2.6-1.8,4.2c0.1,1.6-1.1,4.3,1.7,4.4C80.2,111,79,108.4,79.5,107z
			 M85.9,102.3c-2.4,0-1.6,2.7-1.8,4.4c0.3,1.6-0.8,4.2,1.7,4.4c2.7,0.2,2-2.4,2-4.1C87.9,105.2,88.6,102.3,85.9,102.3z M95.9,106.5
			c0.1-1.7,0.5-4.4-2-4.2c-2.4,0.2-1.6,2.8-1.8,4.6c0.3,1.5-0.7,4.3,2.1,4.1C96.7,110.8,95.8,108.2,95.9,106.5z M103.9,106.7
			c-0.2-1.8,0.5-4.4-2-4.4c-2.4,0.1-1.8,2.7-1.8,4.4c0.1,1.7-0.8,4.3,1.9,4.3C104.7,110.9,103.6,108.3,103.9,106.7z M111.9,106.6
			c-0.2-1.7,0.5-4.4-1.9-4.3c-2.7,0.1-1.9,3-1.9,4.8c0,1.6-0.6,4.3,2.1,4C112.8,110.8,111.6,108.2,111.9,106.6z M111.9,106.6
			c-0.2-1.7,0.5-4.4-1.9-4.3c-2.7,0.1-1.9,3-1.9,4.8c0,1.6-0.6,4.3,2.1,4C112.8,110.8,111.6,108.2,111.9,106.6z M103.9,106.7
			c-0.2-1.8,0.5-4.4-2-4.4c-2.4,0.1-1.8,2.7-1.8,4.4c0.1,1.7-0.8,4.3,1.9,4.3C104.7,110.9,103.6,108.3,103.9,106.7z M95.9,106.5
			c0.1-1.7,0.5-4.4-2-4.2c-2.4,0.2-1.6,2.8-1.8,4.6c0.3,1.5-0.7,4.3,2.1,4.1C96.7,110.8,95.8,108.2,95.9,106.5z M85.9,102.3
			c-2.4,0-1.6,2.7-1.8,4.4c0.3,1.6-0.8,4.2,1.7,4.4c2.7,0.2,2-2.4,2-4.1C87.9,105.2,88.6,102.3,85.9,102.3z M79.5,107
			c-0.5-1.6,0.9-4.4-1.5-4.6c-2.7-0.2-1.9,2.6-1.8,4.2c0.1,1.6-1.1,4.3,1.7,4.4C80.2,111,79,108.4,79.5,107z M45,85.6
			c0-0.5-0.7-1.4-1-1.4c-4.5-0.1-8.9-0.1-13.4,0.1c-0.4,0-1.2,1.3-1.2,1.9c0.2,2.9-0.9,5.9,0.7,8.7c4.7,0.1,9.4,0.1,14,0.2
			C46,92.1,44.7,88.8,45,85.6z M37.2,92c-1.7,0.1-4.5,1.5-4.4-2.5c0.2-4.6,3.7-1,4.7-2.6c2,0.7,4.6-1.1,4.6,2.6
			C42.2,93.9,39,91.8,37.2,92z M44.1,96.9c-4.4-0.1-8.8-0.1-13.2-0.1c-3,2-1.2,5.1-1.6,7.7c-0.3,1.9,0.1,4.1,2.6,3.8
			c4.4-0.5,9,1.8,13.1-1.4c0.1-0.1,0.1-0.3,0.1-0.5C44.6,103.2,46,99.9,44.1,96.9z M37.4,105.2c-1.7-0.7-4.5,1.4-4.6-2.6
			c0-4.3,3.1-2.4,4.8-2.5c1.6-0.1,4.4-1.6,4.5,2.4C42.2,106.9,39,104.3,37.4,105.2z M65,85.6c0-0.5-0.7-1.4-1.1-1.4
			c-4.5-0.1-8.9-0.1-13.4,0.1c-0.4,0-1.2,1.3-1.1,1.9c0.1,2.9-0.9,5.9,0.7,8.7c4.7,0.1,9.3,0.1,14,0.2C66,92.1,64.7,88.8,65,85.6z
			 M57.3,92.1c-2.1-0.2-4.8,1-4.4-2.8c0.4-4.3,3.5-1.8,5.3-2.1c1.6-0.3,4.1-1.1,4,2.4C62,94,58.7,91.2,57.3,92.1z M64.1,96.9
			c-4.4-0.1-8.8-0.1-13.2-0.1c-3,2-1.2,5.1-1.6,7.7c-0.3,1.9,0.1,4.1,2.6,3.8c4.4-0.5,9.1,1.8,13.1-1.4c0.1-0.1,0.1-0.3,0.1-0.5
			C64.6,103.2,66,99.9,64.1,96.9z M57.5,105.2c-2.2-0.4-4.9,1.1-4.7-2.8c0.2-4.3,3.3-2.1,5.1-2.3c1.7-0.2,4.4-1.3,4.3,2.6
			C62,107.2,58.5,103.8,57.5,105.2z M79.5,107c-0.5-1.6,0.9-4.4-1.5-4.6c-2.7-0.2-1.9,2.6-1.8,4.2c0.1,1.6-1.1,4.3,1.7,4.4
			C80.2,111,79,108.4,79.5,107z M85.9,102.3c-2.4,0-1.6,2.7-1.8,4.4c0.3,1.6-0.8,4.2,1.7,4.4c2.7,0.2,2-2.4,2-4.1
			C87.9,105.2,88.6,102.3,85.9,102.3z M95.9,106.5c0.1-1.7,0.5-4.4-2-4.2c-2.4,0.2-1.6,2.8-1.8,4.6c0.3,1.5-0.7,4.3,2.1,4.1
			C96.7,110.8,95.8,108.2,95.9,106.5z M103.9,106.7c-0.2-1.8,0.5-4.4-2-4.4c-2.4,0.1-1.8,2.7-1.8,4.4c0.1,1.7-0.8,4.3,1.9,4.3
			C104.7,110.9,103.6,108.3,103.9,106.7z M111.9,106.6c-0.2-1.7,0.5-4.4-1.9-4.3c-2.7,0.1-1.9,3-1.9,4.8c0,1.6-0.6,4.3,2.1,4
			C112.8,110.8,111.6,108.2,111.9,106.6z M111.9,106.6c-0.2-1.7,0.5-4.4-1.9-4.3c-2.7,0.1-1.9,3-1.9,4.8c0,1.6-0.6,4.3,2.1,4
			C112.8,110.8,111.6,108.2,111.9,106.6z M103.9,106.7c-0.2-1.8,0.5-4.4-2-4.4c-2.4,0.1-1.8,2.7-1.8,4.4c0.1,1.7-0.8,4.3,1.9,4.3
			C104.7,110.9,103.6,108.3,103.9,106.7z M95.9,106.5c0.1-1.7,0.5-4.4-2-4.2c-2.4,0.2-1.6,2.8-1.8,4.6c0.3,1.5-0.7,4.3,2.1,4.1
			C96.7,110.8,95.8,108.2,95.9,106.5z M85.9,102.3c-2.4,0-1.6,2.7-1.8,4.4c0.3,1.6-0.8,4.2,1.7,4.4c2.7,0.2,2-2.4,2-4.1
			C87.9,105.2,88.6,102.3,85.9,102.3z M79.5,107c-0.5-1.6,0.9-4.4-1.5-4.6c-2.7-0.2-1.9,2.6-1.8,4.2c0.1,1.6-1.1,4.3,1.7,4.4
			C80.2,111,79,108.4,79.5,107z M65,85.6c0-0.5-0.7-1.4-1.1-1.4c-4.5-0.1-8.9-0.1-13.4,0.1c-0.4,0-1.2,1.3-1.1,1.9
			c0.1,2.9-0.9,5.9,0.7,8.7c4.7,0.1,9.3,0.1,14,0.2C66,92.1,64.7,88.8,65,85.6z M57.3,92.1c-2.1-0.2-4.8,1-4.4-2.8
			c0.4-4.3,3.5-1.8,5.3-2.1c1.6-0.3,4.1-1.1,4,2.4C62,94,58.7,91.2,57.3,92.1z M64.1,96.9c-4.4-0.1-8.8-0.1-13.2-0.1
			c-3,2-1.2,5.1-1.6,7.7c-0.3,1.9,0.1,4.1,2.6,3.8c4.4-0.5,9.1,1.8,13.1-1.4c0.1-0.1,0.1-0.3,0.1-0.5C64.6,103.2,66,99.9,64.1,96.9z
			 M57.5,105.2c-2.2-0.4-4.9,1.1-4.7-2.8c0.2-4.3,3.3-2.1,5.1-2.3c1.7-0.2,4.4-1.3,4.3,2.6C62,107.2,58.5,103.8,57.5,105.2z
			 M45,85.6c0-0.5-0.7-1.4-1-1.4c-4.5-0.1-8.9-0.1-13.4,0.1c-0.4,0-1.2,1.3-1.2,1.9c0.2,2.9-0.9,5.9,0.7,8.7c4.7,0.1,9.4,0.1,14,0.2
			C46,92.1,44.7,88.8,45,85.6z M37.2,92c-1.7,0.1-4.5,1.5-4.4-2.5c0.2-4.6,3.7-1,4.7-2.6c2,0.7,4.6-1.1,4.6,2.6
			C42.2,93.9,39,91.8,37.2,92z M44.1,96.9c-4.4-0.1-8.8-0.1-13.2-0.1c-3,2-1.2,5.1-1.6,7.7c-0.3,1.9,0.1,4.1,2.6,3.8
			c4.4-0.5,9,1.8,13.1-1.4c0.1-0.1,0.1-0.3,0.1-0.5C44.6,103.2,46,99.9,44.1,96.9z M37.4,105.2c-1.7-0.7-4.5,1.4-4.6-2.6
			c0-4.3,3.1-2.4,4.8-2.5c1.6-0.1,4.4-1.6,4.5,2.4C42.2,106.9,39,104.3,37.4,105.2z M45,85.6c0-0.5-0.7-1.4-1-1.4
			c-4.5-0.1-8.9-0.1-13.4,0.1c-0.4,0-1.2,1.3-1.2,1.9c0.2,2.9-0.9,5.9,0.7,8.7c4.7,0.1,9.4,0.1,14,0.2C46,92.1,44.7,88.8,45,85.6z
			 M37.2,92c-1.7,0.1-4.5,1.5-4.4-2.5c0.2-4.6,3.7-1,4.7-2.6c2,0.7,4.6-1.1,4.6,2.6C42.2,93.9,39,91.8,37.2,92z M44.1,96.9
			c-4.4-0.1-8.8-0.1-13.2-0.1c-3,2-1.2,5.1-1.6,7.7c-0.3,1.9,0.1,4.1,2.6,3.8c4.4-0.5,9,1.8,13.1-1.4c0.1-0.1,0.1-0.3,0.1-0.5
			C44.6,103.2,46,99.9,44.1,96.9z M37.4,105.2c-1.7-0.7-4.5,1.4-4.6-2.6c0-4.3,3.1-2.4,4.8-2.5c1.6-0.1,4.4-1.6,4.5,2.4
			C42.2,106.9,39,104.3,37.4,105.2z M65,85.6c0-0.5-0.7-1.4-1.1-1.4c-4.5-0.1-8.9-0.1-13.4,0.1c-0.4,0-1.2,1.3-1.1,1.9
			c0.1,2.9-0.9,5.9,0.7,8.7c4.7,0.1,9.3,0.1,14,0.2C66,92.1,64.7,88.8,65,85.6z M57.3,92.1c-2.1-0.2-4.8,1-4.4-2.8
			c0.4-4.3,3.5-1.8,5.3-2.1c1.6-0.3,4.1-1.1,4,2.4C62,94,58.7,91.2,57.3,92.1z M64.1,96.9c-4.4-0.1-8.8-0.1-13.2-0.1
			c-3,2-1.2,5.1-1.6,7.7c-0.3,1.9,0.1,4.1,2.6,3.8c4.4-0.5,9.1,1.8,13.1-1.4c0.1-0.1,0.1-0.3,0.1-0.5C64.6,103.2,66,99.9,64.1,96.9z
			 M57.5,105.2c-2.2-0.4-4.9,1.1-4.7-2.8c0.2-4.3,3.3-2.1,5.1-2.3c1.7-0.2,4.4-1.3,4.3,2.6C62,107.2,58.5,103.8,57.5,105.2z
			 M79.5,107c-0.5-1.6,0.9-4.4-1.5-4.6c-2.7-0.2-1.9,2.6-1.8,4.2c0.1,1.6-1.1,4.3,1.7,4.4C80.2,111,79,108.4,79.5,107z M85.9,102.3
			c-2.4,0-1.6,2.7-1.8,4.4c0.3,1.6-0.8,4.2,1.7,4.4c2.7,0.2,2-2.4,2-4.1C87.9,105.2,88.6,102.3,85.9,102.3z M95.9,106.5
			c0.1-1.7,0.5-4.4-2-4.2c-2.4,0.2-1.6,2.8-1.8,4.6c0.3,1.5-0.7,4.3,2.1,4.1C96.7,110.8,95.8,108.2,95.9,106.5z M103.9,106.7
			c-0.2-1.8,0.5-4.4-2-4.4c-2.4,0.1-1.8,2.7-1.8,4.4c0.1,1.7-0.8,4.3,1.9,4.3C104.7,110.9,103.6,108.3,103.9,106.7z M111.9,106.6
			c-0.2-1.7,0.5-4.4-1.9-4.3c-2.7,0.1-1.9,3-1.9,4.8c0,1.6-0.6,4.3,2.1,4C112.8,110.8,111.6,108.2,111.9,106.6z M111.9,106.6
			c-0.2-1.7,0.5-4.4-1.9-4.3c-2.7,0.1-1.9,3-1.9,4.8c0,1.6-0.6,4.3,2.1,4C112.8,110.8,111.6,108.2,111.9,106.6z M103.9,106.7
			c-0.2-1.8,0.5-4.4-2-4.4c-2.4,0.1-1.8,2.7-1.8,4.4c0.1,1.7-0.8,4.3,1.9,4.3C104.7,110.9,103.6,108.3,103.9,106.7z M95.9,106.5
			c0.1-1.7,0.5-4.4-2-4.2c-2.4,0.2-1.6,2.8-1.8,4.6c0.3,1.5-0.7,4.3,2.1,4.1C96.7,110.8,95.8,108.2,95.9,106.5z M85.9,102.3
			c-2.4,0-1.6,2.7-1.8,4.4c0.3,1.6-0.8,4.2,1.7,4.4c2.7,0.2,2-2.4,2-4.1C87.9,105.2,88.6,102.3,85.9,102.3z M79.5,107
			c-0.5-1.6,0.9-4.4-1.5-4.6c-2.7-0.2-1.9,2.6-1.8,4.2c0.1,1.6-1.1,4.3,1.7,4.4C80.2,111,79,108.4,79.5,107z M65,85.6
			c0-0.5-0.7-1.4-1.1-1.4c-4.5-0.1-8.9-0.1-13.4,0.1c-0.4,0-1.2,1.3-1.1,1.9c0.1,2.9-0.9,5.9,0.7,8.7c4.7,0.1,9.3,0.1,14,0.2
			C66,92.1,64.7,88.8,65,85.6z M57.3,92.1c-2.1-0.2-4.8,1-4.4-2.8c0.4-4.3,3.5-1.8,5.3-2.1c1.6-0.3,4.1-1.1,4,2.4
			C62,94,58.7,91.2,57.3,92.1z M64.1,96.9c-4.4-0.1-8.8-0.1-13.2-0.1c-3,2-1.2,5.1-1.6,7.7c-0.3,1.9,0.1,4.1,2.6,3.8
			c4.4-0.5,9.1,1.8,13.1-1.4c0.1-0.1,0.1-0.3,0.1-0.5C64.6,103.2,66,99.9,64.1,96.9z M57.5,105.2c-2.2-0.4-4.9,1.1-4.7-2.8
			c0.2-4.3,3.3-2.1,5.1-2.3c1.7-0.2,4.4-1.3,4.3,2.6C62,107.2,58.5,103.8,57.5,105.2z M45,85.6c0-0.5-0.7-1.4-1-1.4
			c-4.5-0.1-8.9-0.1-13.4,0.1c-0.4,0-1.2,1.3-1.2,1.9c0.2,2.9-0.9,5.9,0.7,8.7c4.7,0.1,9.4,0.1,14,0.2C46,92.1,44.7,88.8,45,85.6z
			 M37.2,92c-1.7,0.1-4.5,1.5-4.4-2.5c0.2-4.6,3.7-1,4.7-2.6c2,0.7,4.6-1.1,4.6,2.6C42.2,93.9,39,91.8,37.2,92z M44.1,96.9
			c-4.4-0.1-8.8-0.1-13.2-0.1c-3,2-1.2,5.1-1.6,7.7c-0.3,1.9,0.1,4.1,2.6,3.8c4.4-0.5,9,1.8,13.1-1.4c0.1-0.1,0.1-0.3,0.1-0.5
			C44.6,103.2,46,99.9,44.1,96.9z M37.4,105.2c-1.7-0.7-4.5,1.4-4.6-2.6c0-4.3,3.1-2.4,4.8-2.5c1.6-0.1,4.4-1.6,4.5,2.4
			C42.2,106.9,39,104.3,37.4,105.2z M45,85.6c0-0.5-0.7-1.4-1-1.4c-4.5-0.1-8.9-0.1-13.4,0.1c-0.4,0-1.2,1.3-1.2,1.9
			c0.2,2.9-0.9,5.9,0.7,8.7c4.7,0.1,9.4,0.1,14,0.2C46,92.1,44.7,88.8,45,85.6z M37.2,92c-1.7,0.1-4.5,1.5-4.4-2.5
			c0.2-4.6,3.7-1,4.7-2.6c2,0.7,4.6-1.1,4.6,2.6C42.2,93.9,39,91.8,37.2,92z M44.1,96.9c-4.4-0.1-8.8-0.1-13.2-0.1
			c-3,2-1.2,5.1-1.6,7.7c-0.3,1.9,0.1,4.1,2.6,3.8c4.4-0.5,9,1.8,13.1-1.4c0.1-0.1,0.1-0.3,0.1-0.5C44.6,103.2,46,99.9,44.1,96.9z
			 M37.4,105.2c-1.7-0.7-4.5,1.4-4.6-2.6c0-4.3,3.1-2.4,4.8-2.5c1.6-0.1,4.4-1.6,4.5,2.4C42.2,106.9,39,104.3,37.4,105.2z M65,85.6
			c0-0.5-0.7-1.4-1.1-1.4c-4.5-0.1-8.9-0.1-13.4,0.1c-0.4,0-1.2,1.3-1.1,1.9c0.1,2.9-0.9,5.9,0.7,8.7c4.7,0.1,9.3,0.1,14,0.2
			C66,92.1,64.7,88.8,65,85.6z M57.3,92.1c-2.1-0.2-4.8,1-4.4-2.8c0.4-4.3,3.5-1.8,5.3-2.1c1.6-0.3,4.1-1.1,4,2.4
			C62,94,58.7,91.2,57.3,92.1z M64.1,96.9c-4.4-0.1-8.8-0.1-13.2-0.1c-3,2-1.2,5.1-1.6,7.7c-0.3,1.9,0.1,4.1,2.6,3.8
			c4.4-0.5,9.1,1.8,13.1-1.4c0.1-0.1,0.1-0.3,0.1-0.5C64.6,103.2,66,99.9,64.1,96.9z M57.5,105.2c-2.2-0.4-4.9,1.1-4.7-2.8
			c0.2-4.3,3.3-2.1,5.1-2.3c1.7-0.2,4.4-1.3,4.3,2.6C62,107.2,58.5,103.8,57.5,105.2z M79.5,107c-0.5-1.6,0.9-4.4-1.5-4.6
			c-2.7-0.2-1.9,2.6-1.8,4.2c0.1,1.6-1.1,4.3,1.7,4.4C80.2,111,79,108.4,79.5,107z M85.9,102.3c-2.4,0-1.6,2.7-1.8,4.4
			c0.3,1.6-0.8,4.2,1.7,4.4c2.7,0.2,2-2.4,2-4.1C87.9,105.2,88.6,102.3,85.9,102.3z M95.9,106.5c0.1-1.7,0.5-4.4-2-4.2
			c-2.4,0.2-1.6,2.8-1.8,4.6c0.3,1.5-0.7,4.3,2.1,4.1C96.7,110.8,95.8,108.2,95.9,106.5z M103.9,106.7c-0.2-1.8,0.5-4.4-2-4.4
			c-2.4,0.1-1.8,2.7-1.8,4.4c0.1,1.7-0.8,4.3,1.9,4.3C104.7,110.9,103.6,108.3,103.9,106.7z M111.9,106.6c-0.2-1.7,0.5-4.4-1.9-4.3
			c-2.7,0.1-1.9,3-1.9,4.8c0,1.6-0.6,4.3,2.1,4C112.8,110.8,111.6,108.2,111.9,106.6z M111.9,106.6c-0.2-1.7,0.5-4.4-1.9-4.3
			c-2.7,0.1-1.9,3-1.9,4.8c0,1.6-0.6,4.3,2.1,4C112.8,110.8,111.6,108.2,111.9,106.6z M103.9,106.7c-0.2-1.8,0.5-4.4-2-4.4
			c-2.4,0.1-1.8,2.7-1.8,4.4c0.1,1.7-0.8,4.3,1.9,4.3C104.7,110.9,103.6,108.3,103.9,106.7z M95.9,106.5c0.1-1.7,0.5-4.4-2-4.2
			c-2.4,0.2-1.6,2.8-1.8,4.6c0.3,1.5-0.7,4.3,2.1,4.1C96.7,110.8,95.8,108.2,95.9,106.5z M85.9,102.3c-2.4,0-1.6,2.7-1.8,4.4
			c0.3,1.6-0.8,4.2,1.7,4.4c2.7,0.2,2-2.4,2-4.1C87.9,105.2,88.6,102.3,85.9,102.3z M79.5,107c-0.5-1.6,0.9-4.4-1.5-4.6
			c-2.7-0.2-1.9,2.6-1.8,4.2c0.1,1.6-1.1,4.3,1.7,4.4C80.2,111,79,108.4,79.5,107z M65,85.6c0-0.5-0.7-1.4-1.1-1.4
			c-4.5-0.1-8.9-0.1-13.4,0.1c-0.4,0-1.2,1.3-1.1,1.9c0.1,2.9-0.9,5.9,0.7,8.7c4.7,0.1,9.3,0.1,14,0.2C66,92.1,64.7,88.8,65,85.6z
			 M57.3,92.1c-2.1-0.2-4.8,1-4.4-2.8c0.4-4.3,3.5-1.8,5.3-2.1c1.6-0.3,4.1-1.1,4,2.4C62,94,58.7,91.2,57.3,92.1z M64.1,96.9
			c-4.4-0.1-8.8-0.1-13.2-0.1c-3,2-1.2,5.1-1.6,7.7c-0.3,1.9,0.1,4.1,2.6,3.8c4.4-0.5,9.1,1.8,13.1-1.4c0.1-0.1,0.1-0.3,0.1-0.5
			C64.6,103.2,66,99.9,64.1,96.9z M57.5,105.2c-2.2-0.4-4.9,1.1-4.7-2.8c0.2-4.3,3.3-2.1,5.1-2.3c1.7-0.2,4.4-1.3,4.3,2.6
			C62,107.2,58.5,103.8,57.5,105.2z M45,85.6c0-0.5-0.7-1.4-1-1.4c-4.5-0.1-8.9-0.1-13.4,0.1c-0.4,0-1.2,1.3-1.2,1.9
			c0.2,2.9-0.9,5.9,0.7,8.7c4.7,0.1,9.4,0.1,14,0.2C46,92.1,44.7,88.8,45,85.6z M37.2,92c-1.7,0.1-4.5,1.5-4.4-2.5
			c0.2-4.6,3.7-1,4.7-2.6c2,0.7,4.6-1.1,4.6,2.6C42.2,93.9,39,91.8,37.2,92z M44.1,96.9c-4.4-0.1-8.8-0.1-13.2-0.1
			c-3,2-1.2,5.1-1.6,7.7c-0.3,1.9,0.1,4.1,2.6,3.8c4.4-0.5,9,1.8,13.1-1.4c0.1-0.1,0.1-0.3,0.1-0.5C44.6,103.2,46,99.9,44.1,96.9z
			 M37.4,105.2c-1.7-0.7-4.5,1.4-4.6-2.6c0-4.3,3.1-2.4,4.8-2.5c1.6-0.1,4.4-1.6,4.5,2.4C42.2,106.9,39,104.3,37.4,105.2z
			 M44.1,96.9c-4.4-0.1-8.8-0.1-13.2-0.1c-3,2-1.2,5.1-1.6,7.7c-0.3,1.9,0.1,4.1,2.6,3.8c4.4-0.5,9,1.8,13.1-1.4
			c0.1-0.1,0.1-0.3,0.1-0.5C44.6,103.2,46,99.9,44.1,96.9z M37.4,105.2c-1.7-0.7-4.5,1.4-4.6-2.6c0-4.3,3.1-2.4,4.8-2.5
			c1.6-0.1,4.4-1.6,4.5,2.4C42.2,106.9,39,104.3,37.4,105.2z M45,85.6c0-0.5-0.7-1.4-1-1.4c-4.5-0.1-8.9-0.1-13.4,0.1
			c-0.4,0-1.2,1.3-1.2,1.9c0.2,2.9-0.9,5.9,0.7,8.7c4.7,0.1,9.4,0.1,14,0.2C46,92.1,44.7,88.8,45,85.6z M37.2,92
			c-1.7,0.1-4.5,1.5-4.4-2.5c0.2-4.6,3.7-1,4.7-2.6c2,0.7,4.6-1.1,4.6,2.6C42.2,93.9,39,91.8,37.2,92z M65,85.6
			c0-0.5-0.7-1.4-1.1-1.4c-4.5-0.1-8.9-0.1-13.4,0.1c-0.4,0-1.2,1.3-1.1,1.9c0.1,2.9-0.9,5.9,0.7,8.7c4.7,0.1,9.3,0.1,14,0.2
			C66,92.1,64.7,88.8,65,85.6z M57.3,92.1c-2.1-0.2-4.8,1-4.4-2.8c0.4-4.3,3.5-1.8,5.3-2.1c1.6-0.3,4.1-1.1,4,2.4
			C62,94,58.7,91.2,57.3,92.1z M64.1,96.9c-4.4-0.1-8.8-0.1-13.2-0.1c-3,2-1.2,5.1-1.6,7.7c-0.3,1.9,0.1,4.1,2.6,3.8
			c4.4-0.5,9.1,1.8,13.1-1.4c0.1-0.1,0.1-0.3,0.1-0.5C64.6,103.2,66,99.9,64.1,96.9z M57.5,105.2c-2.2-0.4-4.9,1.1-4.7-2.8
			c0.2-4.3,3.3-2.1,5.1-2.3c1.7-0.2,4.4-1.3,4.3,2.6C62,107.2,58.5,103.8,57.5,105.2z M79.5,107c-0.5-1.6,0.9-4.4-1.5-4.6
			c-2.7-0.2-1.9,2.6-1.8,4.2c0.1,1.6-1.1,4.3,1.7,4.4C80.2,111,79,108.4,79.5,107z M85.9,102.3c-2.4,0-1.6,2.7-1.8,4.4
			c0.3,1.6-0.8,4.2,1.7,4.4c2.7,0.2,2-2.4,2-4.1C87.9,105.2,88.6,102.3,85.9,102.3z M95.9,106.5c0.1-1.7,0.5-4.4-2-4.2
			c-2.4,0.2-1.6,2.8-1.8,4.6c0.3,1.5-0.7,4.3,2.1,4.1C96.7,110.8,95.8,108.2,95.9,106.5z M103.9,106.7c-0.2-1.8,0.5-4.4-2-4.4
			c-2.4,0.1-1.8,2.7-1.8,4.4c0.1,1.7-0.8,4.3,1.9,4.3C104.7,110.9,103.6,108.3,103.9,106.7z M111.9,106.6c-0.2-1.7,0.5-4.4-1.9-4.3
			c-2.7,0.1-1.9,3-1.9,4.8c0,1.6-0.6,4.3,2.1,4C112.8,110.8,111.6,108.2,111.9,106.6z M111.9,106.6c-0.2-1.7,0.5-4.4-1.9-4.3
			c-2.7,0.1-1.9,3-1.9,4.8c0,1.6-0.6,4.3,2.1,4C112.8,110.8,111.6,108.2,111.9,106.6z M103.9,106.7c-0.2-1.8,0.5-4.4-2-4.4
			c-2.4,0.1-1.8,2.7-1.8,4.4c0.1,1.7-0.8,4.3,1.9,4.3C104.7,110.9,103.6,108.3,103.9,106.7z M95.9,106.5c0.1-1.7,0.5-4.4-2-4.2
			c-2.4,0.2-1.6,2.8-1.8,4.6c0.3,1.5-0.7,4.3,2.1,4.1C96.7,110.8,95.8,108.2,95.9,106.5z M85.9,102.3c-2.4,0-1.6,2.7-1.8,4.4
			c0.3,1.6-0.8,4.2,1.7,4.4c2.7,0.2,2-2.4,2-4.1C87.9,105.2,88.6,102.3,85.9,102.3z M79.5,107c-0.5-1.6,0.9-4.4-1.5-4.6
			c-2.7-0.2-1.9,2.6-1.8,4.2c0.1,1.6-1.1,4.3,1.7,4.4C80.2,111,79,108.4,79.5,107z M65,85.6c0-0.5-0.7-1.4-1.1-1.4
			c-4.5-0.1-8.9-0.1-13.4,0.1c-0.4,0-1.2,1.3-1.1,1.9c0.1,2.9-0.9,5.9,0.7,8.7c4.7,0.1,9.3,0.1,14,0.2C66,92.1,64.7,88.8,65,85.6z
			 M57.3,92.1c-2.1-0.2-4.8,1-4.4-2.8c0.4-4.3,3.5-1.8,5.3-2.1c1.6-0.3,4.1-1.1,4,2.4C62,94,58.7,91.2,57.3,92.1z M64.1,96.9
			c-4.4-0.1-8.8-0.1-13.2-0.1c-3,2-1.2,5.1-1.6,7.7c-0.3,1.9,0.1,4.1,2.6,3.8c4.4-0.5,9.1,1.8,13.1-1.4c0.1-0.1,0.1-0.3,0.1-0.5
			C64.6,103.2,66,99.9,64.1,96.9z M57.5,105.2c-2.2-0.4-4.9,1.1-4.7-2.8c0.2-4.3,3.3-2.1,5.1-2.3c1.7-0.2,4.4-1.3,4.3,2.6
			C62,107.2,58.5,103.8,57.5,105.2z M44.1,96.9c-4.4-0.1-8.8-0.1-13.2-0.1c-3,2-1.2,5.1-1.6,7.7c-0.3,1.9,0.1,4.1,2.6,3.8
			c4.4-0.5,9,1.8,13.1-1.4c0.1-0.1,0.1-0.3,0.1-0.5C44.6,103.2,46,99.9,44.1,96.9z M37.4,105.2c-1.7-0.7-4.5,1.4-4.6-2.6
			c0-4.3,3.1-2.4,4.8-2.5c1.6-0.1,4.4-1.6,4.5,2.4C42.2,106.9,39,104.3,37.4,105.2z M45,85.6c0-0.5-0.7-1.4-1-1.4
			c-4.5-0.1-8.9-0.1-13.4,0.1c-0.4,0-1.2,1.3-1.2,1.9c0.2,2.9-0.9,5.9,0.7,8.7c4.7,0.1,9.4,0.1,14,0.2C46,92.1,44.7,88.8,45,85.6z
			 M37.2,92c-1.7,0.1-4.5,1.5-4.4-2.5c0.2-4.6,3.7-1,4.7-2.6c2,0.7,4.6-1.1,4.6,2.6C42.2,93.9,39,91.8,37.2,92z M45,85.6
			c0-0.5-0.7-1.4-1-1.4c-4.5-0.1-8.9-0.1-13.4,0.1c-0.4,0-1.2,1.3-1.2,1.9c0.2,2.9-0.9,5.9,0.7,8.7c4.7,0.1,9.4,0.1,14,0.2
			C46,92.1,44.7,88.8,45,85.6z M37.2,92c-1.7,0.1-4.5,1.5-4.4-2.5c0.2-4.6,3.7-1,4.7-2.6c2,0.7,4.6-1.1,4.6,2.6
			C42.2,93.9,39,91.8,37.2,92z M44.1,96.9c-4.4-0.1-8.8-0.1-13.2-0.1c-3,2-1.2,5.1-1.6,7.7c-0.3,1.9,0.1,4.1,2.6,3.8
			c4.4-0.5,9,1.8,13.1-1.4c0.1-0.1,0.1-0.3,0.1-0.5C44.6,103.2,46,99.9,44.1,96.9z M37.4,105.2c-1.7-0.7-4.5,1.4-4.6-2.6
			c0-4.3,3.1-2.4,4.8-2.5c1.6-0.1,4.4-1.6,4.5,2.4C42.2,106.9,39,104.3,37.4,105.2z M65,85.6c0-0.5-0.7-1.4-1.1-1.4
			c-4.5-0.1-8.9-0.1-13.4,0.1c-0.4,0-1.2,1.3-1.1,1.9c0.1,2.9-0.9,5.9,0.7,8.7c4.7,0.1,9.3,0.1,14,0.2C66,92.1,64.7,88.8,65,85.6z
			 M57.3,92.1c-2.1-0.2-4.8,1-4.4-2.8c0.4-4.3,3.5-1.8,5.3-2.1c1.6-0.3,4.1-1.1,4,2.4C62,94,58.7,91.2,57.3,92.1z M64.1,96.9
			c-4.4-0.1-8.8-0.1-13.2-0.1c-3,2-1.2,5.1-1.6,7.7c-0.3,1.9,0.1,4.1,2.6,3.8c4.4-0.5,9.1,1.8,13.1-1.4c0.1-0.1,0.1-0.3,0.1-0.5
			C64.6,103.2,66,99.9,64.1,96.9z M57.5,105.2c-2.2-0.4-4.9,1.1-4.7-2.8c0.2-4.3,3.3-2.1,5.1-2.3c1.7-0.2,4.4-1.3,4.3,2.6
			C62,107.2,58.5,103.8,57.5,105.2z M79.5,107c-0.5-1.6,0.9-4.4-1.5-4.6c-2.7-0.2-1.9,2.6-1.8,4.2c0.1,1.6-1.1,4.3,1.7,4.4
			C80.2,111,79,108.4,79.5,107z M85.9,102.3c-2.4,0-1.6,2.7-1.8,4.4c0.3,1.6-0.8,4.2,1.7,4.4c2.7,0.2,2-2.4,2-4.1
			C87.9,105.2,88.6,102.3,85.9,102.3z M95.9,106.5c0.1-1.7,0.5-4.4-2-4.2c-2.4,0.2-1.6,2.8-1.8,4.6c0.3,1.5-0.7,4.3,2.1,4.1
			C96.7,110.8,95.8,108.2,95.9,106.5z M103.9,106.7c-0.2-1.8,0.5-4.4-2-4.4c-2.4,0.1-1.8,2.7-1.8,4.4c0.1,1.7-0.8,4.3,1.9,4.3
			C104.7,110.9,103.6,108.3,103.9,106.7z M111.9,106.6c-0.2-1.7,0.5-4.4-1.9-4.3c-2.7,0.1-1.9,3-1.9,4.8c0,1.6-0.6,4.3,2.1,4
			C112.8,110.8,111.6,108.2,111.9,106.6z M111.9,106.6c-0.2-1.7,0.5-4.4-1.9-4.3c-2.7,0.1-1.9,3-1.9,4.8c0,1.6-0.6,4.3,2.1,4
			C112.8,110.8,111.6,108.2,111.9,106.6z M103.9,106.7c-0.2-1.8,0.5-4.4-2-4.4c-2.4,0.1-1.8,2.7-1.8,4.4c0.1,1.7-0.8,4.3,1.9,4.3
			C104.7,110.9,103.6,108.3,103.9,106.7z M95.9,106.5c0.1-1.7,0.5-4.4-2-4.2c-2.4,0.2-1.6,2.8-1.8,4.6c0.3,1.5-0.7,4.3,2.1,4.1
			C96.7,110.8,95.8,108.2,95.9,106.5z M85.9,102.3c-2.4,0-1.6,2.7-1.8,4.4c0.3,1.6-0.8,4.2,1.7,4.4c2.7,0.2,2-2.4,2-4.1
			C87.9,105.2,88.6,102.3,85.9,102.3z M79.5,107c-0.5-1.6,0.9-4.4-1.5-4.6c-2.7-0.2-1.9,2.6-1.8,4.2c0.1,1.6-1.1,4.3,1.7,4.4
			C80.2,111,79,108.4,79.5,107z M64.1,96.9c-4.4-0.1-8.8-0.1-13.2-0.1c-3,2-1.2,5.1-1.6,7.7c-0.3,1.9,0.1,4.1,2.6,3.8
			c4.4-0.5,9.1,1.8,13.1-1.4c0.1-0.1,0.1-0.3,0.1-0.5C64.6,103.2,66,99.9,64.1,96.9z M57.5,105.2c-2.2-0.4-4.9,1.1-4.7-2.8
			c0.2-4.3,3.3-2.1,5.1-2.3c1.7-0.2,4.4-1.3,4.3,2.6C62,107.2,58.5,103.8,57.5,105.2z M65,85.6c0-0.5-0.7-1.4-1.1-1.4
			c-4.5-0.1-8.9-0.1-13.4,0.1c-0.4,0-1.2,1.3-1.1,1.9c0.1,2.9-0.9,5.9,0.7,8.7c4.7,0.1,9.3,0.1,14,0.2C66,92.1,64.7,88.8,65,85.6z
			 M57.3,92.1c-2.1-0.2-4.8,1-4.4-2.8c0.4-4.3,3.5-1.8,5.3-2.1c1.6-0.3,4.1-1.1,4,2.4C62,94,58.7,91.2,57.3,92.1z M44.1,96.9
			c-4.4-0.1-8.8-0.1-13.2-0.1c-3,2-1.2,5.1-1.6,7.7c-0.3,1.9,0.1,4.1,2.6,3.8c4.4-0.5,9,1.8,13.1-1.4c0.1-0.1,0.1-0.3,0.1-0.5
			C44.6,103.2,46,99.9,44.1,96.9z M37.4,105.2c-1.7-0.7-4.5,1.4-4.6-2.6c0-4.3,3.1-2.4,4.8-2.5c1.6-0.1,4.4-1.6,4.5,2.4
			C42.2,106.9,39,104.3,37.4,105.2z M45,85.6c0-0.5-0.7-1.4-1-1.4c-4.5-0.1-8.9-0.1-13.4,0.1c-0.4,0-1.2,1.3-1.2,1.9
			c0.2,2.9-0.9,5.9,0.7,8.7c4.7,0.1,9.4,0.1,14,0.2C46,92.1,44.7,88.8,45,85.6z M37.2,92c-1.7,0.1-4.5,1.5-4.4-2.5
			c0.2-4.6,3.7-1,4.7-2.6c2,0.7,4.6-1.1,4.6,2.6C42.2,93.9,39,91.8,37.2,92z M45,85.6c0-0.5-0.7-1.4-1-1.4
			c-4.5-0.1-8.9-0.1-13.4,0.1c-0.4,0-1.2,1.3-1.2,1.9c0.2,2.9-0.9,5.9,0.7,8.7c4.7,0.1,9.4,0.1,14,0.2C46,92.1,44.7,88.8,45,85.6z
			 M37.2,92c-1.7,0.1-4.5,1.5-4.4-2.5c0.2-4.6,3.7-1,4.7-2.6c2,0.7,4.6-1.1,4.6,2.6C42.2,93.9,39,91.8,37.2,92z M44.1,96.9
			c-4.4-0.1-8.8-0.1-13.2-0.1c-3,2-1.2,5.1-1.6,7.7c-0.3,1.9,0.1,4.1,2.6,3.8c4.4-0.5,9,1.8,13.1-1.4c0.1-0.1,0.1-0.3,0.1-0.5
			C44.6,103.2,46,99.9,44.1,96.9z M37.4,105.2c-1.7-0.7-4.5,1.4-4.6-2.6c0-4.3,3.1-2.4,4.8-2.5c1.6-0.1,4.4-1.6,4.5,2.4
			C42.2,106.9,39,104.3,37.4,105.2z M65,85.6c0-0.5-0.7-1.4-1.1-1.4c-4.5-0.1-8.9-0.1-13.4,0.1c-0.4,0-1.2,1.3-1.1,1.9
			c0.1,2.9-0.9,5.9,0.7,8.7c4.7,0.1,9.3,0.1,14,0.2C66,92.1,64.7,88.8,65,85.6z M57.3,92.1c-2.1-0.2-4.8,1-4.4-2.8
			c0.4-4.3,3.5-1.8,5.3-2.1c1.6-0.3,4.1-1.1,4,2.4C62,94,58.7,91.2,57.3,92.1z M64.1,96.9c-4.4-0.1-8.8-0.1-13.2-0.1
			c-3,2-1.2,5.1-1.6,7.7c-0.3,1.9,0.1,4.1,2.6,3.8c4.4-0.5,9.1,1.8,13.1-1.4c0.1-0.1,0.1-0.3,0.1-0.5C64.6,103.2,66,99.9,64.1,96.9z
			 M57.5,105.2c-2.2-0.4-4.9,1.1-4.7-2.8c0.2-4.3,3.3-2.1,5.1-2.3c1.7-0.2,4.4-1.3,4.3,2.6C62,107.2,58.5,103.8,57.5,105.2z
			 M79.5,107c-0.5-1.6,0.9-4.4-1.5-4.6c-2.7-0.2-1.9,2.6-1.8,4.2c0.1,1.6-1.1,4.3,1.7,4.4C80.2,111,79,108.4,79.5,107z M85.9,102.3
			c-2.4,0-1.6,2.7-1.8,4.4c0.3,1.6-0.8,4.2,1.7,4.4c2.7,0.2,2-2.4,2-4.1C87.9,105.2,88.6,102.3,85.9,102.3z M95.9,106.5
			c0.1-1.7,0.5-4.4-2-4.2c-2.4,0.2-1.6,2.8-1.8,4.6c0.3,1.5-0.7,4.3,2.1,4.1C96.7,110.8,95.8,108.2,95.9,106.5z M103.9,106.7
			c-0.2-1.8,0.5-4.4-2-4.4c-2.4,0.1-1.8,2.7-1.8,4.4c0.1,1.7-0.8,4.3,1.9,4.3C104.7,110.9,103.6,108.3,103.9,106.7z M111.9,106.6
			c-0.2-1.7,0.5-4.4-1.9-4.3c-2.7,0.1-1.9,3-1.9,4.8c0,1.6-0.6,4.3,2.1,4C112.8,110.8,111.6,108.2,111.9,106.6z M111.9,106.6
			c-0.2-1.7,0.5-4.4-1.9-4.3c-2.7,0.1-1.9,3-1.9,4.8c0,1.6-0.6,4.3,2.1,4C112.8,110.8,111.6,108.2,111.9,106.6z M103.9,106.7
			c-0.2-1.8,0.5-4.4-2-4.4c-2.4,0.1-1.8,2.7-1.8,4.4c0.1,1.7-0.8,4.3,1.9,4.3C104.7,110.9,103.6,108.3,103.9,106.7z M95.9,106.5
			c0.1-1.7,0.5-4.4-2-4.2c-2.4,0.2-1.6,2.8-1.8,4.6c0.3,1.5-0.7,4.3,2.1,4.1C96.7,110.8,95.8,108.2,95.9,106.5z M85.9,102.3
			c-2.4,0-1.6,2.7-1.8,4.4c0.3,1.6-0.8,4.2,1.7,4.4c2.7,0.2,2-2.4,2-4.1C87.9,105.2,88.6,102.3,85.9,102.3z M79.5,107
			c-0.5-1.6,0.9-4.4-1.5-4.6c-2.7-0.2-1.9,2.6-1.8,4.2c0.1,1.6-1.1,4.3,1.7,4.4C80.2,111,79,108.4,79.5,107z M64.1,96.9
			c-4.4-0.1-8.8-0.1-13.2-0.1c-3,2-1.2,5.1-1.6,7.7c-0.3,1.9,0.1,4.1,2.6,3.8c4.4-0.5,9.1,1.8,13.1-1.4c0.1-0.1,0.1-0.3,0.1-0.5
			C64.6,103.2,66,99.9,64.1,96.9z M57.5,105.2c-2.2-0.4-4.9,1.1-4.7-2.8c0.2-4.3,3.3-2.1,5.1-2.3c1.7-0.2,4.4-1.3,4.3,2.6
			C62,107.2,58.5,103.8,57.5,105.2z M65,85.6c0-0.5-0.7-1.4-1.1-1.4c-4.5-0.1-8.9-0.1-13.4,0.1c-0.4,0-1.2,1.3-1.1,1.9
			c0.1,2.9-0.9,5.9,0.7,8.7c4.7,0.1,9.3,0.1,14,0.2C66,92.1,64.7,88.8,65,85.6z M57.3,92.1c-2.1-0.2-4.8,1-4.4-2.8
			c0.4-4.3,3.5-1.8,5.3-2.1c1.6-0.3,4.1-1.1,4,2.4C62,94,58.7,91.2,57.3,92.1z M44.1,96.9c-4.4-0.1-8.8-0.1-13.2-0.1
			c-3,2-1.2,5.1-1.6,7.7c-0.3,1.9,0.1,4.1,2.6,3.8c4.4-0.5,9,1.8,13.1-1.4c0.1-0.1,0.1-0.3,0.1-0.5C44.6,103.2,46,99.9,44.1,96.9z
			 M37.4,105.2c-1.7-0.7-4.5,1.4-4.6-2.6c0-4.3,3.1-2.4,4.8-2.5c1.6-0.1,4.4-1.6,4.5,2.4C42.2,106.9,39,104.3,37.4,105.2z M45,85.6
			c0-0.5-0.7-1.4-1-1.4c-4.5-0.1-8.9-0.1-13.4,0.1c-0.4,0-1.2,1.3-1.2,1.9c0.2,2.9-0.9,5.9,0.7,8.7c4.7,0.1,9.4,0.1,14,0.2
			C46,92.1,44.7,88.8,45,85.6z M37.2,92c-1.7,0.1-4.5,1.5-4.4-2.5c0.2-4.6,3.7-1,4.7-2.6c2,0.7,4.6-1.1,4.6,2.6
			C42.2,93.9,39,91.8,37.2,92z M45,85.6c0-0.5-0.7-1.4-1-1.4c-4.5-0.1-8.9-0.1-13.4,0.1c-0.4,0-1.2,1.3-1.2,1.9
			c0.2,2.9-0.9,5.9,0.7,8.7c4.7,0.1,9.4,0.1,14,0.2C46,92.1,44.7,88.8,45,85.6z M37.2,92c-1.7,0.1-4.5,1.5-4.4-2.5
			c0.2-4.6,3.7-1,4.7-2.6c2,0.7,4.6-1.1,4.6,2.6C42.2,93.9,39,91.8,37.2,92z M44.1,96.9c-4.4-0.1-8.8-0.1-13.2-0.1
			c-3,2-1.2,5.1-1.6,7.7c-0.3,1.9,0.1,4.1,2.6,3.8c4.4-0.5,9,1.8,13.1-1.4c0.1-0.1,0.1-0.3,0.1-0.5C44.6,103.2,46,99.9,44.1,96.9z
			 M37.4,105.2c-1.7-0.7-4.5,1.4-4.6-2.6c0-4.3,3.1-2.4,4.8-2.5c1.6-0.1,4.4-1.6,4.5,2.4C42.2,106.9,39,104.3,37.4,105.2z M65,85.6
			c0-0.5-0.7-1.4-1.1-1.4c-4.5-0.1-8.9-0.1-13.4,0.1c-0.4,0-1.2,1.3-1.1,1.9c0.1,2.9-0.9,5.9,0.7,8.7c4.7,0.1,9.3,0.1,14,0.2
			C66,92.1,64.7,88.8,65,85.6z M57.3,92.1c-2.1-0.2-4.8,1-4.4-2.8c0.4-4.3,3.5-1.8,5.3-2.1c1.6-0.3,4.1-1.1,4,2.4
			C62,94,58.7,91.2,57.3,92.1z M64.1,96.9c-4.4-0.1-8.8-0.1-13.2-0.1c-3,2-1.2,5.1-1.6,7.7c-0.3,1.9,0.1,4.1,2.6,3.8
			c4.4-0.5,9.1,1.8,13.1-1.4c0.1-0.1,0.1-0.3,0.1-0.5C64.6,103.2,66,99.9,64.1,96.9z M57.5,105.2c-2.2-0.4-4.9,1.1-4.7-2.8
			c0.2-4.3,3.3-2.1,5.1-2.3c1.7-0.2,4.4-1.3,4.3,2.6C62,107.2,58.5,103.8,57.5,105.2z M79.5,107c-0.5-1.6,0.9-4.4-1.5-4.6
			c-2.7-0.2-1.9,2.6-1.8,4.2c0.1,1.6-1.1,4.3,1.7,4.4C80.2,111,79,108.4,79.5,107z M85.9,102.3c-2.4,0-1.6,2.7-1.8,4.4
			c0.3,1.6-0.8,4.2,1.7,4.4c2.7,0.2,2-2.4,2-4.1C87.9,105.2,88.6,102.3,85.9,102.3z M95.9,106.5c0.1-1.7,0.5-4.4-2-4.2
			c-2.4,0.2-1.6,2.8-1.8,4.6c0.3,1.5-0.7,4.3,2.1,4.1C96.7,110.8,95.8,108.2,95.9,106.5z M103.9,106.7c-0.2-1.8,0.5-4.4-2-4.4
			c-2.4,0.1-1.8,2.7-1.8,4.4c0.1,1.7-0.8,4.3,1.9,4.3C104.7,110.9,103.6,108.3,103.9,106.7z M111.9,106.6c-0.2-1.7,0.5-4.4-1.9-4.3
			c-2.7,0.1-1.9,3-1.9,4.8c0,1.6-0.6,4.3,2.1,4C112.8,110.8,111.6,108.2,111.9,106.6z M111.9,106.6c-0.2-1.7,0.5-4.4-1.9-4.3
			c-2.7,0.1-1.9,3-1.9,4.8c0,1.6-0.6,4.3,2.1,4C112.8,110.8,111.6,108.2,111.9,106.6z M101.9,102.3c-2.4,0.1-1.8,2.7-1.8,4.4
			c0.1,1.7-0.8,4.3,1.9,4.3c2.6-0.1,1.5-2.8,1.8-4.4C103.7,104.9,104.4,102.2,101.9,102.3z M93.9,102.3c-2.4,0.2-1.6,2.8-1.8,4.6
			c0.3,1.5-0.7,4.3,2.1,4.1c2.6-0.2,1.6-2.8,1.7-4.5C95.9,104.8,96.4,102.1,93.9,102.3z M85.9,102.3c-2.4,0-1.6,2.7-1.8,4.4
			c0.3,1.6-0.8,4.2,1.7,4.4c2.7,0.2,2-2.4,2-4.1C87.9,105.2,88.6,102.3,85.9,102.3z M78,102.4c-2.7-0.2-1.9,2.6-1.8,4.2
			c0.1,1.6-1.1,4.3,1.7,4.4c2.4,0,1.2-2.5,1.6-4C79,105.4,80.4,102.6,78,102.4z M64.1,96.9c-4.4-0.1-8.8-0.1-13.2-0.1
			c-3,2-1.2,5.1-1.6,7.7c-0.3,1.9,0.1,4.1,2.6,3.8c4.4-0.5,9.1,1.8,13.1-1.4c0.1-0.1,0.1-0.3,0.1-0.5C64.6,103.2,66,99.9,64.1,96.9z
			 M57.5,105.2c-2.2-0.4-4.9,1.1-4.7-2.8c0.2-4.3,3.3-2.1,5.1-2.3c1.7-0.2,4.4-1.3,4.3,2.6C62,107.2,58.5,103.8,57.5,105.2z
			 M50.1,95c4.7,0.1,9.3,0.1,14,0.2c1.9-3,0.6-6.4,0.8-9.5c0-0.5-0.7-1.4-1.1-1.4c-4.5-0.1-8.9-0.1-13.4,0.1c-0.4,0-1.2,1.3-1.1,1.9
			C49.5,89.1,48.4,92.2,50.1,95z M52.8,89.3c0.4-4.3,3.5-1.8,5.3-2.1c1.6-0.3,4.1-1.1,4,2.4c-0.1,4.5-3.4,1.6-4.9,2.5
			C55.2,91.9,52.5,93.1,52.8,89.3z M44.1,96.9c-4.4-0.1-8.8-0.1-13.2-0.1c-3,2-1.2,5.1-1.6,7.7c-0.3,1.9,0.1,4.1,2.6,3.8
			c4.4-0.5,9,1.8,13.1-1.4c0.1-0.1,0.1-0.3,0.1-0.5C44.6,103.2,46,99.9,44.1,96.9z M37.4,105.2c-1.7-0.7-4.5,1.4-4.6-2.6
			c0-4.3,3.1-2.4,4.8-2.5c1.6-0.1,4.4-1.6,4.5,2.4C42.2,106.9,39,104.3,37.4,105.2z M45,85.6c0-0.5-0.7-1.4-1-1.4
			c-4.5-0.1-8.9-0.1-13.4,0.1c-0.4,0-1.2,1.3-1.2,1.9c0.2,2.9-0.9,5.9,0.7,8.7c4.7,0.1,9.4,0.1,14,0.2C46,92.1,44.7,88.8,45,85.6z
			 M37.2,92c-1.7,0.1-4.5,1.5-4.4-2.5c0.2-4.6,3.7-1,4.7-2.6c2,0.7,4.6-1.1,4.6,2.6C42.2,93.9,39,91.8,37.2,92z M119,107
			c-0.6-4.4-2.1-8.7-3-13c-2.9-13.7-9.1-26.7-8.1-41.2c0.2-2.7-1.9-2.6-3.8-2.6c-6.8,0-13.7,0.1-20.5-0.1c-2.8-0.1-3.8,0.8-3.7,3.7
			c0.1,4.6,0.8,9.3-1.6,14c-2.2-6.7-1.5-13.2-1.5-19.6c0-2.9-0.8-4.2-4-4.1c-5,0.2-10,0.3-15,0c-3.3-0.2-4.4,1-4.2,4.2
			c0.5,8.3-0.6,16.6-2.4,24.7C51,74,51.9,76,49.8,76c-2.5,0.1-1.6-2-1.7-3.3c-0.5-7.8-0.5-15.6-1.4-23.4c-1.2-10.2,1.3-7.8-9-8.3
			c-3.4-0.2-4.6,0.8-4.7,4.4c-0.3,9.3-1.2,18.5-1.8,27.8c-0.1,1.4,0.3,3-2.1,3c-2.4,0-2.1-1.6-2.2-3c-0.6-9.8-1.3-19.6-1.8-29.3
			c-0.2-3.3-0.6-5.8-4.7-5.1c-3.5,0.6-8.9-2.6-9.1,4.7c-0.3,9.1-1,18.2-1.3,27.4c-0.1,3.8-1,6-5.3,5.3C1,75.4,0,77.1,0,80.8
			c0.2,13.5,0.2,26.9,0,40.4c-0.1,3.9,1.3,4.7,4.9,4.7c39.6-0.1,79.2-0.1,118.8-0.1c1.5,0,3,0.1,4.3-0.8v-11
			C122.1,115.4,119.8,112.5,119,107z M42.8,45.3c-2.2,1-4.3,1-7.7,0.3C38.4,44,40.6,44.4,42.8,45.3z M42.9,50.7h-8
			C38.4,49,40.7,49.2,42.9,50.7z M34.5,70.5c0.6-3.7,0.5-7.6,0.6-11.4c0-3.4,0.6-5.3,5-5.2c4.3,0.1,3.9,2.4,4,5
			c0.2,3.8,0.2,7.6,0.9,11.4c0.8,4.7-0.3,7-5.5,5.6C34,77.5,33.9,74.7,34.5,70.5z M15.1,42.7c2.2-1.2,4.5-0.9,7.5,0.2
			c-2.9,1.9-5.2,1.6-7.5,0.7C15,43.5,15,42.8,15.1,42.7z M21.9,48.9h-7C17.2,47,17.2,47,21.9,48.9z M13,71.4
			c0.6-5.5,0.9-10.9,1-16.4c0.1-2.9,1.8-2.8,3.6-2.6c1.8,0.2,4.6-1.3,4.7,2.5c0.2,4,0.6,8,0.8,10.8c0,2.1-0.2,3.2,0,4.1
			c1.3,5.2-0.8,6.6-5.9,6.4C13.4,76.1,12.6,75,13,71.4z M23.1,113.6c0,8.6,0,8.7-8.4,8.5c-1.4,0-4.1,1.1-4-1.4c0-2.6-2-6,1.5-7.9
			c3.2-1.7,2.3-2.3-0.3-3.7c-3.2-1.7-1.1-5.1-1.3-7.6c-0.1-2.6,2.4-1.6,3.8-1.7c8.7-0.3,8.7-0.2,8.7,8.2V113.6z M70.2,119.1
			c0,2.7-0.9,3.3-3.4,3.2c-6.3-0.2-12.7-0.1-19-0.1c-6.2,0-12.3-0.1-18.5,0.1c-2.7,0.1-3.3-0.8-3.3-3.4c0.2-6.3-0.1-12.7,0.1-19
			c0.1-3.1-1.1-4.1-4.1-3.9c-3.8,0.2-7.7,0.2-11.5,0C8,96,7.1,97,7.1,99.6c0.1,6.5,0.1,13,0,19.5c0,1.3,0.8,3.1-1.8,3.2
			c-2.8,0.2-2.2-1.8-2.2-3.3C3.1,107,3.2,95,3,83c0-2.7,0.5-3.8,3.5-3.7c19.9,0.9,39.9,0.1,59.8,0c3,0,4.1,0.6,4,3.8
			C70.1,95.1,70.1,107.1,70.2,119.1z M66.4,76.1c-3.9,0.3-7.9,0.1-12,0.1c1.2-8.9,3.3-17.4,2.6-26c-0.2-2.4,0.6-3.2,3-3
			c4.1,0.2,9.2-1.3,12.2,0.6c3,1.9,0.5,7.3,1.1,11.2c0.7,4.8,1.1,9.6,2.2,14.2c0.8,3.4,0.3,6.5-1.3,9.9
			C75.2,76.1,71.3,75.7,66.4,76.1z M78.4,81.2c2-8.3,5.3-16.4,4.6-25.2c-0.2-1.9,0.6-2.6,2.6-2.6c5.5,0.1,11,0,16.5,0
			c1.5,0,2.7,0.2,2.7,2.1c-0.2,16.2,6.8,30.9,9.8,46.4c0.7,3.9,3.5,9,2,11.3c-1.7,2.6-7.3,0.6-11.3,0.8c-3.2,0.2-6.3,0-9.5,0
			c-6.1,0-12.3-0.2-18.4,0.1c-2.9,0.1-3.4-0.9-3.6-3.6C72.9,100.3,76.1,90.8,78.4,81.2z M121.9,122.3c-14.9-0.1-29.9-0.1-44.8,0
			c-2.2,0-3.2-0.4-3.2-3c0-2.7,1.6-2.3,3.2-2.3c7.6,0,15.3,0,22.9,0c7.3,0,14.6,0,21.9,0c1.7,0,3.2-0.3,3.2,2.4
			C125.1,122,124.1,122.3,121.9,122.3z M110.3,111c2.5-0.3,1.3-2.9,1.6-4.4c-0.2-1.7,0.5-4.4-1.9-4.3c-2.7,0.1-1.9,3-1.9,4.8
			C108.2,108.7,107.6,111.3,110.3,111z M102.1,111c2.6-0.1,1.5-2.8,1.8-4.4c-0.2-1.8,0.5-4.4-2-4.4c-2.4,0.1-1.8,2.7-1.8,4.4
			C100.2,108.4,99.4,111.1,102.1,111z M94.2,111c2.6-0.2,1.6-2.8,1.7-4.5c0.1-1.7,0.5-4.4-2-4.2c-2.4,0.2-1.6,2.8-1.8,4.6
			C92.4,108.5,91.4,111.2,94.2,111z M85.8,111c2.7,0.2,2-2.4,2-4.1c0-1.8,0.8-4.6-1.9-4.7c-2.4,0-1.6,2.7-1.8,4.4
			C84.4,108.2,83.3,110.9,85.8,111z M77.8,111c2.4,0,1.2-2.5,1.6-4c-0.5-1.6,0.9-4.4-1.5-4.6c-2.7-0.2-1.9,2.6-1.8,4.2
			C76.2,108.2,75.1,110.9,77.8,111z M64.1,96.9c-4.4-0.1-8.8-0.1-13.2-0.1c-3,2-1.2,5.1-1.6,7.7c-0.3,1.9,0.1,4.1,2.6,3.8
			c4.4-0.5,9.1,1.8,13.1-1.4c0.1-0.1,0.1-0.3,0.1-0.5C64.6,103.2,66,99.9,64.1,96.9z M57.5,105.2c-2.2-0.4-4.9,1.1-4.7-2.8
			c0.2-4.3,3.3-2.1,5.1-2.3c1.7-0.2,4.4-1.3,4.3,2.6C62,107.2,58.5,103.8,57.5,105.2z M65,85.6c0-0.5-0.7-1.4-1.1-1.4
			c-4.5-0.1-8.9-0.1-13.4,0.1c-0.4,0-1.2,1.3-1.1,1.9c0.1,2.9-0.9,5.9,0.7,8.7c4.7,0.1,9.3,0.1,14,0.2C66,92.1,64.7,88.8,65,85.6z
			 M57.3,92.1c-2.1-0.2-4.8,1-4.4-2.8c0.4-4.3,3.5-1.8,5.3-2.1c1.6-0.3,4.1-1.1,4,2.4C62,94,58.7,91.2,57.3,92.1z M44.1,96.9
			c-4.4-0.1-8.8-0.1-13.2-0.1c-3,2-1.2,5.1-1.6,7.7c-0.3,1.9,0.1,4.1,2.6,3.8c4.4-0.5,9,1.8,13.1-1.4c0.1-0.1,0.1-0.3,0.1-0.5
			C44.6,103.2,46,99.9,44.1,96.9z M37.4,105.2c-1.7-0.7-4.5,1.4-4.6-2.6c0-4.3,3.1-2.4,4.8-2.5c1.6-0.1,4.4-1.6,4.5,2.4
			C42.2,106.9,39,104.3,37.4,105.2z M45,85.6c0-0.5-0.7-1.4-1-1.4c-4.5-0.1-8.9-0.1-13.4,0.1c-0.4,0-1.2,1.3-1.2,1.9
			c0.2,2.9-0.9,5.9,0.7,8.7c4.7,0.1,9.4,0.1,14,0.2C46,92.1,44.7,88.8,45,85.6z M37.2,92c-1.7,0.1-4.5,1.5-4.4-2.5
			c0.2-4.6,3.7-1,4.7-2.6c2,0.7,4.6-1.1,4.6,2.6C42.2,93.9,39,91.8,37.2,92z M45,85.6c0-0.5-0.7-1.4-1-1.4
			c-4.5-0.1-8.9-0.1-13.4,0.1c-0.4,0-1.2,1.3-1.2,1.9c0.2,2.9-0.9,5.9,0.7,8.7c4.7,0.1,9.4,0.1,14,0.2C46,92.1,44.7,88.8,45,85.6z
			 M37.2,92c-1.7,0.1-4.5,1.5-4.4-2.5c0.2-4.6,3.7-1,4.7-2.6c2,0.7,4.6-1.1,4.6,2.6C42.2,93.9,39,91.8,37.2,92z M44.1,96.9
			c-4.4-0.1-8.8-0.1-13.2-0.1c-3,2-1.2,5.1-1.6,7.7c-0.3,1.9,0.1,4.1,2.6,3.8c4.4-0.5,9,1.8,13.1-1.4c0.1-0.1,0.1-0.3,0.1-0.5
			C44.6,103.2,46,99.9,44.1,96.9z M37.4,105.2c-1.7-0.7-4.5,1.4-4.6-2.6c0-4.3,3.1-2.4,4.8-2.5c1.6-0.1,4.4-1.6,4.5,2.4
			C42.2,106.9,39,104.3,37.4,105.2z M65,85.6c0-0.5-0.7-1.4-1.1-1.4c-4.5-0.1-8.9-0.1-13.4,0.1c-0.4,0-1.2,1.3-1.1,1.9
			c0.1,2.9-0.9,5.9,0.7,8.7c4.7,0.1,9.3,0.1,14,0.2C66,92.1,64.7,88.8,65,85.6z M57.3,92.1c-2.1-0.2-4.8,1-4.4-2.8
			c0.4-4.3,3.5-1.8,5.3-2.1c1.6-0.3,4.1-1.1,4,2.4C62,94,58.7,91.2,57.3,92.1z M64.1,96.9c-4.4-0.1-8.8-0.1-13.2-0.1
			c-3,2-1.2,5.1-1.6,7.7c-0.3,1.9,0.1,4.1,2.6,3.8c4.4-0.5,9.1,1.8,13.1-1.4c0.1-0.1,0.1-0.3,0.1-0.5C64.6,103.2,66,99.9,64.1,96.9z
			 M57.5,105.2c-2.2-0.4-4.9,1.1-4.7-2.8c0.2-4.3,3.3-2.1,5.1-2.3c1.7-0.2,4.4-1.3,4.3,2.6C62,107.2,58.5,103.8,57.5,105.2z
			 M79.5,107c-0.5-1.6,0.9-4.4-1.5-4.6c-2.7-0.2-1.9,2.6-1.8,4.2c0.1,1.6-1.1,4.3,1.7,4.4C80.2,111,79,108.4,79.5,107z M85.9,102.3
			c-2.4,0-1.6,2.7-1.8,4.4c0.3,1.6-0.8,4.2,1.7,4.4c2.7,0.2,2-2.4,2-4.1C87.9,105.2,88.6,102.3,85.9,102.3z M95.9,106.5
			c0.1-1.7,0.5-4.4-2-4.2c-2.4,0.2-1.6,2.8-1.8,4.6c0.3,1.5-0.7,4.3,2.1,4.1C96.7,110.8,95.8,108.2,95.9,106.5z M103.9,106.7
			c-0.2-1.8,0.5-4.4-2-4.4c-2.4,0.1-1.8,2.7-1.8,4.4c0.1,1.7-0.8,4.3,1.9,4.3C104.7,110.9,103.6,108.3,103.9,106.7z M111.9,106.6
			c-0.2-1.7,0.5-4.4-1.9-4.3c-2.7,0.1-1.9,3-1.9,4.8c0,1.6-0.6,4.3,2.1,4C112.8,110.8,111.6,108.2,111.9,106.6z M111.9,106.6
			c-0.2-1.7,0.5-4.4-1.9-4.3c-2.7,0.1-1.9,3-1.9,4.8c0,1.6-0.6,4.3,2.1,4C112.8,110.8,111.6,108.2,111.9,106.6z M103.9,106.7
			c-0.2-1.8,0.5-4.4-2-4.4c-2.4,0.1-1.8,2.7-1.8,4.4c0.1,1.7-0.8,4.3,1.9,4.3C104.7,110.9,103.6,108.3,103.9,106.7z M95.9,106.5
			c0.1-1.7,0.5-4.4-2-4.2c-2.4,0.2-1.6,2.8-1.8,4.6c0.3,1.5-0.7,4.3,2.1,4.1C96.7,110.8,95.8,108.2,95.9,106.5z M85.9,102.3
			c-2.4,0-1.6,2.7-1.8,4.4c0.3,1.6-0.8,4.2,1.7,4.4c2.7,0.2,2-2.4,2-4.1C87.9,105.2,88.6,102.3,85.9,102.3z M79.5,107
			c-0.5-1.6,0.9-4.4-1.5-4.6c-2.7-0.2-1.9,2.6-1.8,4.2c0.1,1.6-1.1,4.3,1.7,4.4C80.2,111,79,108.4,79.5,107z M64.1,96.9
			c-4.4-0.1-8.8-0.1-13.2-0.1c-3,2-1.2,5.1-1.6,7.7c-0.3,1.9,0.1,4.1,2.6,3.8c4.4-0.5,9.1,1.8,13.1-1.4c0.1-0.1,0.1-0.3,0.1-0.5
			C64.6,103.2,66,99.9,64.1,96.9z M57.5,105.2c-2.2-0.4-4.9,1.1-4.7-2.8c0.2-4.3,3.3-2.1,5.1-2.3c1.7-0.2,4.4-1.3,4.3,2.6
			C62,107.2,58.5,103.8,57.5,105.2z M65,85.6c0-0.5-0.7-1.4-1.1-1.4c-4.5-0.1-8.9-0.1-13.4,0.1c-0.4,0-1.2,1.3-1.1,1.9
			c0.1,2.9-0.9,5.9,0.7,8.7c4.7,0.1,9.3,0.1,14,0.2C66,92.1,64.7,88.8,65,85.6z M57.3,92.1c-2.1-0.2-4.8,1-4.4-2.8
			c0.4-4.3,3.5-1.8,5.3-2.1c1.6-0.3,4.1-1.1,4,2.4C62,94,58.7,91.2,57.3,92.1z M44.1,96.9c-4.4-0.1-8.8-0.1-13.2-0.1
			c-3,2-1.2,5.1-1.6,7.7c-0.3,1.9,0.1,4.1,2.6,3.8c4.4-0.5,9,1.8,13.1-1.4c0.1-0.1,0.1-0.3,0.1-0.5C44.6,103.2,46,99.9,44.1,96.9z
			 M37.4,105.2c-1.7-0.7-4.5,1.4-4.6-2.6c0-4.3,3.1-2.4,4.8-2.5c1.6-0.1,4.4-1.6,4.5,2.4C42.2,106.9,39,104.3,37.4,105.2z M45,85.6
			c0-0.5-0.7-1.4-1-1.4c-4.5-0.1-8.9-0.1-13.4,0.1c-0.4,0-1.2,1.3-1.2,1.9c0.2,2.9-0.9,5.9,0.7,8.7c4.7,0.1,9.4,0.1,14,0.2
			C46,92.1,44.7,88.8,45,85.6z M37.2,92c-1.7,0.1-4.5,1.5-4.4-2.5c0.2-4.6,3.7-1,4.7-2.6c2,0.7,4.6-1.1,4.6,2.6
			C42.2,93.9,39,91.8,37.2,92z M45,85.6c0-0.5-0.7-1.4-1-1.4c-4.5-0.1-8.9-0.1-13.4,0.1c-0.4,0-1.2,1.3-1.2,1.9
			c0.2,2.9-0.9,5.9,0.7,8.7c4.7,0.1,9.4,0.1,14,0.2C46,92.1,44.7,88.8,45,85.6z M37.2,92c-1.7,0.1-4.5,1.5-4.4-2.5
			c0.2-4.6,3.7-1,4.7-2.6c2,0.7,4.6-1.1,4.6,2.6C42.2,93.9,39,91.8,37.2,92z M44.1,96.9c-4.4-0.1-8.8-0.1-13.2-0.1
			c-3,2-1.2,5.1-1.6,7.7c-0.3,1.9,0.1,4.1,2.6,3.8c4.4-0.5,9,1.8,13.1-1.4c0.1-0.1,0.1-0.3,0.1-0.5C44.6,103.2,46,99.9,44.1,96.9z
			 M37.4,105.2c-1.7-0.7-4.5,1.4-4.6-2.6c0-4.3,3.1-2.4,4.8-2.5c1.6-0.1,4.4-1.6,4.5,2.4C42.2,106.9,39,104.3,37.4,105.2z M65,85.6
			c0-0.5-0.7-1.4-1.1-1.4c-4.5-0.1-8.9-0.1-13.4,0.1c-0.4,0-1.2,1.3-1.1,1.9c0.1,2.9-0.9,5.9,0.7,8.7c4.7,0.1,9.3,0.1,14,0.2
			C66,92.1,64.7,88.8,65,85.6z M57.3,92.1c-2.1-0.2-4.8,1-4.4-2.8c0.4-4.3,3.5-1.8,5.3-2.1c1.6-0.3,4.1-1.1,4,2.4
			C62,94,58.7,91.2,57.3,92.1z M64.1,96.9c-4.4-0.1-8.8-0.1-13.2-0.1c-3,2-1.2,5.1-1.6,7.7c-0.3,1.9,0.1,4.1,2.6,3.8
			c4.4-0.5,9.1,1.8,13.1-1.4c0.1-0.1,0.1-0.3,0.1-0.5C64.6,103.2,66,99.9,64.1,96.9z M57.5,105.2c-2.2-0.4-4.9,1.1-4.7-2.8
			c0.2-4.3,3.3-2.1,5.1-2.3c1.7-0.2,4.4-1.3,4.3,2.6C62,107.2,58.5,103.8,57.5,105.2z M79.5,107c-0.5-1.6,0.9-4.4-1.5-4.6
			c-2.7-0.2-1.9,2.6-1.8,4.2c0.1,1.6-1.1,4.3,1.7,4.4C80.2,111,79,108.4,79.5,107z M85.9,102.3c-2.4,0-1.6,2.7-1.8,4.4
			c0.3,1.6-0.8,4.2,1.7,4.4c2.7,0.2,2-2.4,2-4.1C87.9,105.2,88.6,102.3,85.9,102.3z M95.9,106.5c0.1-1.7,0.5-4.4-2-4.2
			c-2.4,0.2-1.6,2.8-1.8,4.6c0.3,1.5-0.7,4.3,2.1,4.1C96.7,110.8,95.8,108.2,95.9,106.5z M103.9,106.7c-0.2-1.8,0.5-4.4-2-4.4
			c-2.4,0.1-1.8,2.7-1.8,4.4c0.1,1.7-0.8,4.3,1.9,4.3C104.7,110.9,103.6,108.3,103.9,106.7z M111.9,106.6c-0.2-1.7,0.5-4.4-1.9-4.3
			c-2.7,0.1-1.9,3-1.9,4.8c0,1.6-0.6,4.3,2.1,4C112.8,110.8,111.6,108.2,111.9,106.6z M111.9,106.6c-0.2-1.7,0.5-4.4-1.9-4.3
			c-2.7,0.1-1.9,3-1.9,4.8c0,1.6-0.6,4.3,2.1,4C112.8,110.8,111.6,108.2,111.9,106.6z M103.9,106.7c-0.2-1.8,0.5-4.4-2-4.4
			c-2.4,0.1-1.8,2.7-1.8,4.4c0.1,1.7-0.8,4.3,1.9,4.3C104.7,110.9,103.6,108.3,103.9,106.7z M95.9,106.5c0.1-1.7,0.5-4.4-2-4.2
			c-2.4,0.2-1.6,2.8-1.8,4.6c0.3,1.5-0.7,4.3,2.1,4.1C96.7,110.8,95.8,108.2,95.9,106.5z M85.9,102.3c-2.4,0-1.6,2.7-1.8,4.4
			c0.3,1.6-0.8,4.2,1.7,4.4c2.7,0.2,2-2.4,2-4.1C87.9,105.2,88.6,102.3,85.9,102.3z M79.5,107c-0.5-1.6,0.9-4.4-1.5-4.6
			c-2.7-0.2-1.9,2.6-1.8,4.2c0.1,1.6-1.1,4.3,1.7,4.4C80.2,111,79,108.4,79.5,107z M64.1,96.9c-4.4-0.1-8.8-0.1-13.2-0.1
			c-3,2-1.2,5.1-1.6,7.7c-0.3,1.9,0.1,4.1,2.6,3.8c4.4-0.5,9.1,1.8,13.1-1.4c0.1-0.1,0.1-0.3,0.1-0.5C64.6,103.2,66,99.9,64.1,96.9z
			 M57.5,105.2c-2.2-0.4-4.9,1.1-4.7-2.8c0.2-4.3,3.3-2.1,5.1-2.3c1.7-0.2,4.4-1.3,4.3,2.6C62,107.2,58.5,103.8,57.5,105.2z
			 M65,85.6c0-0.5-0.7-1.4-1.1-1.4c-4.5-0.1-8.9-0.1-13.4,0.1c-0.4,0-1.2,1.3-1.1,1.9c0.1,2.9-0.9,5.9,0.7,8.7
			c4.7,0.1,9.3,0.1,14,0.2C66,92.1,64.7,88.8,65,85.6z M57.3,92.1c-2.1-0.2-4.8,1-4.4-2.8c0.4-4.3,3.5-1.8,5.3-2.1
			c1.6-0.3,4.1-1.1,4,2.4C62,94,58.7,91.2,57.3,92.1z M44.1,96.9c-4.4-0.1-8.8-0.1-13.2-0.1c-3,2-1.2,5.1-1.6,7.7
			c-0.3,1.9,0.1,4.1,2.6,3.8c4.4-0.5,9,1.8,13.1-1.4c0.1-0.1,0.1-0.3,0.1-0.5C44.6,103.2,46,99.9,44.1,96.9z M37.4,105.2
			c-1.7-0.7-4.5,1.4-4.6-2.6c0-4.3,3.1-2.4,4.8-2.5c1.6-0.1,4.4-1.6,4.5,2.4C42.2,106.9,39,104.3,37.4,105.2z M45,85.6
			c0-0.5-0.7-1.4-1-1.4c-4.5-0.1-8.9-0.1-13.4,0.1c-0.4,0-1.2,1.3-1.2,1.9c0.2,2.9-0.9,5.9,0.7,8.7c4.7,0.1,9.4,0.1,14,0.2
			C46,92.1,44.7,88.8,45,85.6z M37.2,92c-1.7,0.1-4.5,1.5-4.4-2.5c0.2-4.6,3.7-1,4.7-2.6c2,0.7,4.6-1.1,4.6,2.6
			C42.2,93.9,39,91.8,37.2,92z M45,85.6c0-0.5-0.7-1.4-1-1.4c-4.5-0.1-8.9-0.1-13.4,0.1c-0.4,0-1.2,1.3-1.2,1.9
			c0.2,2.9-0.9,5.9,0.7,8.7c4.7,0.1,9.4,0.1,14,0.2C46,92.1,44.7,88.8,45,85.6z M37.2,92c-1.7,0.1-4.5,1.5-4.4-2.5
			c0.2-4.6,3.7-1,4.7-2.6c2,0.7,4.6-1.1,4.6,2.6C42.2,93.9,39,91.8,37.2,92z M44.1,96.9c-4.4-0.1-8.8-0.1-13.2-0.1
			c-3,2-1.2,5.1-1.6,7.7c-0.3,1.9,0.1,4.1,2.6,3.8c4.4-0.5,9,1.8,13.1-1.4c0.1-0.1,0.1-0.3,0.1-0.5C44.6,103.2,46,99.9,44.1,96.9z
			 M37.4,105.2c-1.7-0.7-4.5,1.4-4.6-2.6c0-4.3,3.1-2.4,4.8-2.5c1.6-0.1,4.4-1.6,4.5,2.4C42.2,106.9,39,104.3,37.4,105.2z M65,85.6
			c0-0.5-0.7-1.4-1.1-1.4c-4.5-0.1-8.9-0.1-13.4,0.1c-0.4,0-1.2,1.3-1.1,1.9c0.1,2.9-0.9,5.9,0.7,8.7c4.7,0.1,9.3,0.1,14,0.2
			C66,92.1,64.7,88.8,65,85.6z M57.3,92.1c-2.1-0.2-4.8,1-4.4-2.8c0.4-4.3,3.5-1.8,5.3-2.1c1.6-0.3,4.1-1.1,4,2.4
			C62,94,58.7,91.2,57.3,92.1z M64.1,96.9c-4.4-0.1-8.8-0.1-13.2-0.1c-3,2-1.2,5.1-1.6,7.7c-0.3,1.9,0.1,4.1,2.6,3.8
			c4.4-0.5,9.1,1.8,13.1-1.4c0.1-0.1,0.1-0.3,0.1-0.5C64.6,103.2,66,99.9,64.1,96.9z M57.5,105.2c-2.2-0.4-4.9,1.1-4.7-2.8
			c0.2-4.3,3.3-2.1,5.1-2.3c1.7-0.2,4.4-1.3,4.3,2.6C62,107.2,58.5,103.8,57.5,105.2z M79.5,107c-0.5-1.6,0.9-4.4-1.5-4.6
			c-2.7-0.2-1.9,2.6-1.8,4.2c0.1,1.6-1.1,4.3,1.7,4.4C80.2,111,79,108.4,79.5,107z M85.9,102.3c-2.4,0-1.6,2.7-1.8,4.4
			c0.3,1.6-0.8,4.2,1.7,4.4c2.7,0.2,2-2.4,2-4.1C87.9,105.2,88.6,102.3,85.9,102.3z M95.9,106.5c0.1-1.7,0.5-4.4-2-4.2
			c-2.4,0.2-1.6,2.8-1.8,4.6c0.3,1.5-0.7,4.3,2.1,4.1C96.7,110.8,95.8,108.2,95.9,106.5z M103.9,106.7c-0.2-1.8,0.5-4.4-2-4.4
			c-2.4,0.1-1.8,2.7-1.8,4.4c0.1,1.7-0.8,4.3,1.9,4.3C104.7,110.9,103.6,108.3,103.9,106.7z M111.9,106.6c-0.2-1.7,0.5-4.4-1.9-4.3
			c-2.7,0.1-1.9,3-1.9,4.8c0,1.6-0.6,4.3,2.1,4C112.8,110.8,111.6,108.2,111.9,106.6z M111.9,106.6c-0.2-1.7,0.5-4.4-1.9-4.3
			c-2.7,0.1-1.9,3-1.9,4.8c0,1.6-0.6,4.3,2.1,4C112.8,110.8,111.6,108.2,111.9,106.6z M103.9,106.7c-0.2-1.8,0.5-4.4-2-4.4
			c-2.4,0.1-1.8,2.7-1.8,4.4c0.1,1.7-0.8,4.3,1.9,4.3C104.7,110.9,103.6,108.3,103.9,106.7z M95.9,106.5c0.1-1.7,0.5-4.4-2-4.2
			c-2.4,0.2-1.6,2.8-1.8,4.6c0.3,1.5-0.7,4.3,2.1,4.1C96.7,110.8,95.8,108.2,95.9,106.5z M85.9,102.3c-2.4,0-1.6,2.7-1.8,4.4
			c0.3,1.6-0.8,4.2,1.7,4.4c2.7,0.2,2-2.4,2-4.1C87.9,105.2,88.6,102.3,85.9,102.3z M79.5,107c-0.5-1.6,0.9-4.4-1.5-4.6
			c-2.7-0.2-1.9,2.6-1.8,4.2c0.1,1.6-1.1,4.3,1.7,4.4C80.2,111,79,108.4,79.5,107z M65,85.6c0-0.5-0.7-1.4-1.1-1.4
			c-4.5-0.1-8.9-0.1-13.4,0.1c-0.4,0-1.2,1.3-1.1,1.9c0.1,2.9-0.9,5.9,0.7,8.7c4.7,0.1,9.3,0.1,14,0.2C66,92.1,64.7,88.8,65,85.6z
			 M57.3,92.1c-2.1-0.2-4.8,1-4.4-2.8c0.4-4.3,3.5-1.8,5.3-2.1c1.6-0.3,4.1-1.1,4,2.4C62,94,58.7,91.2,57.3,92.1z M64.1,96.9
			c-4.4-0.1-8.8-0.1-13.2-0.1c-3,2-1.2,5.1-1.6,7.7c-0.3,1.9,0.1,4.1,2.6,3.8c4.4-0.5,9.1,1.8,13.1-1.4c0.1-0.1,0.1-0.3,0.1-0.5
			C64.6,103.2,66,99.9,64.1,96.9z M57.5,105.2c-2.2-0.4-4.9,1.1-4.7-2.8c0.2-4.3,3.3-2.1,5.1-2.3c1.7-0.2,4.4-1.3,4.3,2.6
			C62,107.2,58.5,103.8,57.5,105.2z M44.1,96.9c-4.4-0.1-8.8-0.1-13.2-0.1c-3,2-1.2,5.1-1.6,7.7c-0.3,1.9,0.1,4.1,2.6,3.8
			c4.4-0.5,9,1.8,13.1-1.4c0.1-0.1,0.1-0.3,0.1-0.5C44.6,103.2,46,99.9,44.1,96.9z M37.4,105.2c-1.7-0.7-4.5,1.4-4.6-2.6
			c0-4.3,3.1-2.4,4.8-2.5c1.6-0.1,4.4-1.6,4.5,2.4C42.2,106.9,39,104.3,37.4,105.2z M45,85.6c0-0.5-0.7-1.4-1-1.4
			c-4.5-0.1-8.9-0.1-13.4,0.1c-0.4,0-1.2,1.3-1.2,1.9c0.2,2.9-0.9,5.9,0.7,8.7c4.7,0.1,9.4,0.1,14,0.2C46,92.1,44.7,88.8,45,85.6z
			 M37.2,92c-1.7,0.1-4.5,1.5-4.4-2.5c0.2-4.6,3.7-1,4.7-2.6c2,0.7,4.6-1.1,4.6,2.6C42.2,93.9,39,91.8,37.2,92z M44.1,96.9
			c-4.4-0.1-8.8-0.1-13.2-0.1c-3,2-1.2,5.1-1.6,7.7c-0.3,1.9,0.1,4.1,2.6,3.8c4.4-0.5,9,1.8,13.1-1.4c0.1-0.1,0.1-0.3,0.1-0.5
			C44.6,103.2,46,99.9,44.1,96.9z M37.4,105.2c-1.7-0.7-4.5,1.4-4.6-2.6c0-4.3,3.1-2.4,4.8-2.5c1.6-0.1,4.4-1.6,4.5,2.4
			C42.2,106.9,39,104.3,37.4,105.2z M45,85.6c0-0.5-0.7-1.4-1-1.4c-4.5-0.1-8.9-0.1-13.4,0.1c-0.4,0-1.2,1.3-1.2,1.9
			c0.2,2.9-0.9,5.9,0.7,8.7c4.7,0.1,9.4,0.1,14,0.2C46,92.1,44.7,88.8,45,85.6z M37.2,92c-1.7,0.1-4.5,1.5-4.4-2.5
			c0.2-4.6,3.7-1,4.7-2.6c2,0.7,4.6-1.1,4.6,2.6C42.2,93.9,39,91.8,37.2,92z M65,85.6c0-0.5-0.7-1.4-1.1-1.4
			c-4.5-0.1-8.9-0.1-13.4,0.1c-0.4,0-1.2,1.3-1.1,1.9c0.1,2.9-0.9,5.9,0.7,8.7c4.7,0.1,9.3,0.1,14,0.2C66,92.1,64.7,88.8,65,85.6z
			 M57.3,92.1c-2.1-0.2-4.8,1-4.4-2.8c0.4-4.3,3.5-1.8,5.3-2.1c1.6-0.3,4.1-1.1,4,2.4C62,94,58.7,91.2,57.3,92.1z M64.1,96.9
			c-4.4-0.1-8.8-0.1-13.2-0.1c-3,2-1.2,5.1-1.6,7.7c-0.3,1.9,0.1,4.1,2.6,3.8c4.4-0.5,9.1,1.8,13.1-1.4c0.1-0.1,0.1-0.3,0.1-0.5
			C64.6,103.2,66,99.9,64.1,96.9z M57.5,105.2c-2.2-0.4-4.9,1.1-4.7-2.8c0.2-4.3,3.3-2.1,5.1-2.3c1.7-0.2,4.4-1.3,4.3,2.6
			C62,107.2,58.5,103.8,57.5,105.2z M79.5,107c-0.5-1.6,0.9-4.4-1.5-4.6c-2.7-0.2-1.9,2.6-1.8,4.2c0.1,1.6-1.1,4.3,1.7,4.4
			C80.2,111,79,108.4,79.5,107z M85.9,102.3c-2.4,0-1.6,2.7-1.8,4.4c0.3,1.6-0.8,4.2,1.7,4.4c2.7,0.2,2-2.4,2-4.1
			C87.9,105.2,88.6,102.3,85.9,102.3z M95.9,106.5c0.1-1.7,0.5-4.4-2-4.2c-2.4,0.2-1.6,2.8-1.8,4.6c0.3,1.5-0.7,4.3,2.1,4.1
			C96.7,110.8,95.8,108.2,95.9,106.5z M103.9,106.7c-0.2-1.8,0.5-4.4-2-4.4c-2.4,0.1-1.8,2.7-1.8,4.4c0.1,1.7-0.8,4.3,1.9,4.3
			C104.7,110.9,103.6,108.3,103.9,106.7z M111.9,106.6c-0.2-1.7,0.5-4.4-1.9-4.3c-2.7,0.1-1.9,3-1.9,4.8c0,1.6-0.6,4.3,2.1,4
			C112.8,110.8,111.6,108.2,111.9,106.6z M111.9,106.6c-0.2-1.7,0.5-4.4-1.9-4.3c-2.7,0.1-1.9,3-1.9,4.8c0,1.6-0.6,4.3,2.1,4
			C112.8,110.8,111.6,108.2,111.9,106.6z M103.9,106.7c-0.2-1.8,0.5-4.4-2-4.4c-2.4,0.1-1.8,2.7-1.8,4.4c0.1,1.7-0.8,4.3,1.9,4.3
			C104.7,110.9,103.6,108.3,103.9,106.7z M95.9,106.5c0.1-1.7,0.5-4.4-2-4.2c-2.4,0.2-1.6,2.8-1.8,4.6c0.3,1.5-0.7,4.3,2.1,4.1
			C96.7,110.8,95.8,108.2,95.9,106.5z M85.9,102.3c-2.4,0-1.6,2.7-1.8,4.4c0.3,1.6-0.8,4.2,1.7,4.4c2.7,0.2,2-2.4,2-4.1
			C87.9,105.2,88.6,102.3,85.9,102.3z M79.5,107c-0.5-1.6,0.9-4.4-1.5-4.6c-2.7-0.2-1.9,2.6-1.8,4.2c0.1,1.6-1.1,4.3,1.7,4.4
			C80.2,111,79,108.4,79.5,107z M65,85.6c0-0.5-0.7-1.4-1.1-1.4c-4.5-0.1-8.9-0.1-13.4,0.1c-0.4,0-1.2,1.3-1.1,1.9
			c0.1,2.9-0.9,5.9,0.7,8.7c4.7,0.1,9.3,0.1,14,0.2C66,92.1,64.7,88.8,65,85.6z M57.3,92.1c-2.1-0.2-4.8,1-4.4-2.8
			c0.4-4.3,3.5-1.8,5.3-2.1c1.6-0.3,4.1-1.1,4,2.4C62,94,58.7,91.2,57.3,92.1z M64.1,96.9c-4.4-0.1-8.8-0.1-13.2-0.1
			c-3,2-1.2,5.1-1.6,7.7c-0.3,1.9,0.1,4.1,2.6,3.8c4.4-0.5,9.1,1.8,13.1-1.4c0.1-0.1,0.1-0.3,0.1-0.5C64.6,103.2,66,99.9,64.1,96.9z
			 M57.5,105.2c-2.2-0.4-4.9,1.1-4.7-2.8c0.2-4.3,3.3-2.1,5.1-2.3c1.7-0.2,4.4-1.3,4.3,2.6C62,107.2,58.5,103.8,57.5,105.2z
			 M45,85.6c0-0.5-0.7-1.4-1-1.4c-4.5-0.1-8.9-0.1-13.4,0.1c-0.4,0-1.2,1.3-1.2,1.9c0.2,2.9-0.9,5.9,0.7,8.7c4.7,0.1,9.4,0.1,14,0.2
			C46,92.1,44.7,88.8,45,85.6z M37.2,92c-1.7,0.1-4.5,1.5-4.4-2.5c0.2-4.6,3.7-1,4.7-2.6c2,0.7,4.6-1.1,4.6,2.6
			C42.2,93.9,39,91.8,37.2,92z M44.1,96.9c-4.4-0.1-8.8-0.1-13.2-0.1c-3,2-1.2,5.1-1.6,7.7c-0.3,1.9,0.1,4.1,2.6,3.8
			c4.4-0.5,9,1.8,13.1-1.4c0.1-0.1,0.1-0.3,0.1-0.5C44.6,103.2,46,99.9,44.1,96.9z M37.4,105.2c-1.7-0.7-4.5,1.4-4.6-2.6
			c0-4.3,3.1-2.4,4.8-2.5c1.6-0.1,4.4-1.6,4.5,2.4C42.2,106.9,39,104.3,37.4,105.2z M45,85.6c0-0.5-0.7-1.4-1-1.4
			c-4.5-0.1-8.9-0.1-13.4,0.1c-0.4,0-1.2,1.3-1.2,1.9c0.2,2.9-0.9,5.9,0.7,8.7c4.7,0.1,9.4,0.1,14,0.2C46,92.1,44.7,88.8,45,85.6z
			 M37.2,92c-1.7,0.1-4.5,1.5-4.4-2.5c0.2-4.6,3.7-1,4.7-2.6c2,0.7,4.6-1.1,4.6,2.6C42.2,93.9,39,91.8,37.2,92z M44.1,96.9
			c-4.4-0.1-8.8-0.1-13.2-0.1c-3,2-1.2,5.1-1.6,7.7c-0.3,1.9,0.1,4.1,2.6,3.8c4.4-0.5,9,1.8,13.1-1.4c0.1-0.1,0.1-0.3,0.1-0.5
			C44.6,103.2,46,99.9,44.1,96.9z M37.4,105.2c-1.7-0.7-4.5,1.4-4.6-2.6c0-4.3,3.1-2.4,4.8-2.5c1.6-0.1,4.4-1.6,4.5,2.4
			C42.2,106.9,39,104.3,37.4,105.2z M65,85.6c0-0.5-0.7-1.4-1.1-1.4c-4.5-0.1-8.9-0.1-13.4,0.1c-0.4,0-1.2,1.3-1.1,1.9
			c0.1,2.9-0.9,5.9,0.7,8.7c4.7,0.1,9.3,0.1,14,0.2C66,92.1,64.7,88.8,65,85.6z M57.3,92.1c-2.1-0.2-4.8,1-4.4-2.8
			c0.4-4.3,3.5-1.8,5.3-2.1c1.6-0.3,4.1-1.1,4,2.4C62,94,58.7,91.2,57.3,92.1z M64.1,96.9c-4.4-0.1-8.8-0.1-13.2-0.1
			c-3,2-1.2,5.1-1.6,7.7c-0.3,1.9,0.1,4.1,2.6,3.8c4.4-0.5,9.1,1.8,13.1-1.4c0.1-0.1,0.1-0.3,0.1-0.5C64.6,103.2,66,99.9,64.1,96.9z
			 M57.5,105.2c-2.2-0.4-4.9,1.1-4.7-2.8c0.2-4.3,3.3-2.1,5.1-2.3c1.7-0.2,4.4-1.3,4.3,2.6C62,107.2,58.5,103.8,57.5,105.2z
			 M79.5,107c-0.5-1.6,0.9-4.4-1.5-4.6c-2.7-0.2-1.9,2.6-1.8,4.2c0.1,1.6-1.1,4.3,1.7,4.4C80.2,111,79,108.4,79.5,107z M85.9,102.3
			c-2.4,0-1.6,2.7-1.8,4.4c0.3,1.6-0.8,4.2,1.7,4.4c2.7,0.2,2-2.4,2-4.1C87.9,105.2,88.6,102.3,85.9,102.3z M95.9,106.5
			c0.1-1.7,0.5-4.4-2-4.2c-2.4,0.2-1.6,2.8-1.8,4.6c0.3,1.5-0.7,4.3,2.1,4.1C96.7,110.8,95.8,108.2,95.9,106.5z M103.9,106.7
			c-0.2-1.8,0.5-4.4-2-4.4c-2.4,0.1-1.8,2.7-1.8,4.4c0.1,1.7-0.8,4.3,1.9,4.3C104.7,110.9,103.6,108.3,103.9,106.7z M111.9,106.6
			c-0.2-1.7,0.5-4.4-1.9-4.3c-2.7,0.1-1.9,3-1.9,4.8c0,1.6-0.6,4.3,2.1,4C112.8,110.8,111.6,108.2,111.9,106.6z M111.9,106.6
			c-0.2-1.7,0.5-4.4-1.9-4.3c-2.7,0.1-1.9,3-1.9,4.8c0,1.6-0.6,4.3,2.1,4C112.8,110.8,111.6,108.2,111.9,106.6z M103.9,106.7
			c-0.2-1.8,0.5-4.4-2-4.4c-2.4,0.1-1.8,2.7-1.8,4.4c0.1,1.7-0.8,4.3,1.9,4.3C104.7,110.9,103.6,108.3,103.9,106.7z M95.9,106.5
			c0.1-1.7,0.5-4.4-2-4.2c-2.4,0.2-1.6,2.8-1.8,4.6c0.3,1.5-0.7,4.3,2.1,4.1C96.7,110.8,95.8,108.2,95.9,106.5z M85.9,102.3
			c-2.4,0-1.6,2.7-1.8,4.4c0.3,1.6-0.8,4.2,1.7,4.4c2.7,0.2,2-2.4,2-4.1C87.9,105.2,88.6,102.3,85.9,102.3z M79.5,107
			c-0.5-1.6,0.9-4.4-1.5-4.6c-2.7-0.2-1.9,2.6-1.8,4.2c0.1,1.6-1.1,4.3,1.7,4.4C80.2,111,79,108.4,79.5,107z M65,85.6
			c0-0.5-0.7-1.4-1.1-1.4c-4.5-0.1-8.9-0.1-13.4,0.1c-0.4,0-1.2,1.3-1.1,1.9c0.1,2.9-0.9,5.9,0.7,8.7c4.7,0.1,9.3,0.1,14,0.2
			C66,92.1,64.7,88.8,65,85.6z M57.3,92.1c-2.1-0.2-4.8,1-4.4-2.8c0.4-4.3,3.5-1.8,5.3-2.1c1.6-0.3,4.1-1.1,4,2.4
			C62,94,58.7,91.2,57.3,92.1z M64.1,96.9c-4.4-0.1-8.8-0.1-13.2-0.1c-3,2-1.2,5.1-1.6,7.7c-0.3,1.9,0.1,4.1,2.6,3.8
			c4.4-0.5,9.1,1.8,13.1-1.4c0.1-0.1,0.1-0.3,0.1-0.5C64.6,103.2,66,99.9,64.1,96.9z M57.5,105.2c-2.2-0.4-4.9,1.1-4.7-2.8
			c0.2-4.3,3.3-2.1,5.1-2.3c1.7-0.2,4.4-1.3,4.3,2.6C62,107.2,58.5,103.8,57.5,105.2z M45,85.6c0-0.5-0.7-1.4-1-1.4
			c-4.5-0.1-8.9-0.1-13.4,0.1c-0.4,0-1.2,1.3-1.2,1.9c0.2,2.9-0.9,5.9,0.7,8.7c4.7,0.1,9.4,0.1,14,0.2C46,92.1,44.7,88.8,45,85.6z
			 M37.2,92c-1.7,0.1-4.5,1.5-4.4-2.5c0.2-4.6,3.7-1,4.7-2.6c2,0.7,4.6-1.1,4.6,2.6C42.2,93.9,39,91.8,37.2,92z M44.1,96.9
			c-4.4-0.1-8.8-0.1-13.2-0.1c-3,2-1.2,5.1-1.6,7.7c-0.3,1.9,0.1,4.1,2.6,3.8c4.4-0.5,9,1.8,13.1-1.4c0.1-0.1,0.1-0.3,0.1-0.5
			C44.6,103.2,46,99.9,44.1,96.9z M37.4,105.2c-1.7-0.7-4.5,1.4-4.6-2.6c0-4.3,3.1-2.4,4.8-2.5c1.6-0.1,4.4-1.6,4.5,2.4
			C42.2,106.9,39,104.3,37.4,105.2z M45,85.6c0-0.5-0.7-1.4-1-1.4c-4.5-0.1-8.9-0.1-13.4,0.1c-0.4,0-1.2,1.3-1.2,1.9
			c0.2,2.9-0.9,5.9,0.7,8.7c4.7,0.1,9.4,0.1,14,0.2C46,92.1,44.7,88.8,45,85.6z M37.2,92c-1.7,0.1-4.5,1.5-4.4-2.5
			c0.2-4.6,3.7-1,4.7-2.6c2,0.7,4.6-1.1,4.6,2.6C42.2,93.9,39,91.8,37.2,92z M44.1,96.9c-4.4-0.1-8.8-0.1-13.2-0.1
			c-3,2-1.2,5.1-1.6,7.7c-0.3,1.9,0.1,4.1,2.6,3.8c4.4-0.5,9,1.8,13.1-1.4c0.1-0.1,0.1-0.3,0.1-0.5C44.6,103.2,46,99.9,44.1,96.9z
			 M37.4,105.2c-1.7-0.7-4.5,1.4-4.6-2.6c0-4.3,3.1-2.4,4.8-2.5c1.6-0.1,4.4-1.6,4.5,2.4C42.2,106.9,39,104.3,37.4,105.2z M65,85.6
			c0-0.5-0.7-1.4-1.1-1.4c-4.5-0.1-8.9-0.1-13.4,0.1c-0.4,0-1.2,1.3-1.1,1.9c0.1,2.9-0.9,5.9,0.7,8.7c4.7,0.1,9.3,0.1,14,0.2
			C66,92.1,64.7,88.8,65,85.6z M57.3,92.1c-2.1-0.2-4.8,1-4.4-2.8c0.4-4.3,3.5-1.8,5.3-2.1c1.6-0.3,4.1-1.1,4,2.4
			C62,94,58.7,91.2,57.3,92.1z M64.1,96.9c-4.4-0.1-8.8-0.1-13.2-0.1c-3,2-1.2,5.1-1.6,7.7c-0.3,1.9,0.1,4.1,2.6,3.8
			c4.4-0.5,9.1,1.8,13.1-1.4c0.1-0.1,0.1-0.3,0.1-0.5C64.6,103.2,66,99.9,64.1,96.9z M57.5,105.2c-2.2-0.4-4.9,1.1-4.7-2.8
			c0.2-4.3,3.3-2.1,5.1-2.3c1.7-0.2,4.4-1.3,4.3,2.6C62,107.2,58.5,103.8,57.5,105.2z M79.5,107c-0.5-1.6,0.9-4.4-1.5-4.6
			c-2.7-0.2-1.9,2.6-1.8,4.2c0.1,1.6-1.1,4.3,1.7,4.4C80.2,111,79,108.4,79.5,107z M85.9,102.3c-2.4,0-1.6,2.7-1.8,4.4
			c0.3,1.6-0.8,4.2,1.7,4.4c2.7,0.2,2-2.4,2-4.1C87.9,105.2,88.6,102.3,85.9,102.3z M95.9,106.5c0.1-1.7,0.5-4.4-2-4.2
			c-2.4,0.2-1.6,2.8-1.8,4.6c0.3,1.5-0.7,4.3,2.1,4.1C96.7,110.8,95.8,108.2,95.9,106.5z M103.9,106.7c-0.2-1.8,0.5-4.4-2-4.4
			c-2.4,0.1-1.8,2.7-1.8,4.4c0.1,1.7-0.8,4.3,1.9,4.3C104.7,110.9,103.6,108.3,103.9,106.7z M111.9,106.6c-0.2-1.7,0.5-4.4-1.9-4.3
			c-2.7,0.1-1.9,3-1.9,4.8c0,1.6-0.6,4.3,2.1,4C112.8,110.8,111.6,108.2,111.9,106.6z M111.9,106.6c-0.2-1.7,0.5-4.4-1.9-4.3
			c-2.7,0.1-1.9,3-1.9,4.8c0,1.6-0.6,4.3,2.1,4C112.8,110.8,111.6,108.2,111.9,106.6z M103.9,106.7c-0.2-1.8,0.5-4.4-2-4.4
			c-2.4,0.1-1.8,2.7-1.8,4.4c0.1,1.7-0.8,4.3,1.9,4.3C104.7,110.9,103.6,108.3,103.9,106.7z M95.9,106.5c0.1-1.7,0.5-4.4-2-4.2
			c-2.4,0.2-1.6,2.8-1.8,4.6c0.3,1.5-0.7,4.3,2.1,4.1C96.7,110.8,95.8,108.2,95.9,106.5z M85.9,102.3c-2.4,0-1.6,2.7-1.8,4.4
			c0.3,1.6-0.8,4.2,1.7,4.4c2.7,0.2,2-2.4,2-4.1C87.9,105.2,88.6,102.3,85.9,102.3z M79.5,107c-0.5-1.6,0.9-4.4-1.5-4.6
			c-2.7-0.2-1.9,2.6-1.8,4.2c0.1,1.6-1.1,4.3,1.7,4.4C80.2,111,79,108.4,79.5,107z M65,85.6c0-0.5-0.7-1.4-1.1-1.4
			c-4.5-0.1-8.9-0.1-13.4,0.1c-0.4,0-1.2,1.3-1.1,1.9c0.1,2.9-0.9,5.9,0.7,8.7c4.7,0.1,9.3,0.1,14,0.2C66,92.1,64.7,88.8,65,85.6z
			 M57.3,92.1c-2.1-0.2-4.8,1-4.4-2.8c0.4-4.3,3.5-1.8,5.3-2.1c1.6-0.3,4.1-1.1,4,2.4C62,94,58.7,91.2,57.3,92.1z M64.1,96.9
			c-4.4-0.1-8.8-0.1-13.2-0.1c-3,2-1.2,5.1-1.6,7.7c-0.3,1.9,0.1,4.1,2.6,3.8c4.4-0.5,9.1,1.8,13.1-1.4c0.1-0.1,0.1-0.3,0.1-0.5
			C64.6,103.2,66,99.9,64.1,96.9z M57.5,105.2c-2.2-0.4-4.9,1.1-4.7-2.8c0.2-4.3,3.3-2.1,5.1-2.3c1.7-0.2,4.4-1.3,4.3,2.6
			C62,107.2,58.5,103.8,57.5,105.2z M45,85.6c0-0.5-0.7-1.4-1-1.4c-4.5-0.1-8.9-0.1-13.4,0.1c-0.4,0-1.2,1.3-1.2,1.9
			c0.2,2.9-0.9,5.9,0.7,8.7c4.7,0.1,9.4,0.1,14,0.2C46,92.1,44.7,88.8,45,85.6z M37.2,92c-1.7,0.1-4.5,1.5-4.4-2.5
			c0.2-4.6,3.7-1,4.7-2.6c2,0.7,4.6-1.1,4.6,2.6C42.2,93.9,39,91.8,37.2,92z M44.1,96.9c-4.4-0.1-8.8-0.1-13.2-0.1
			c-3,2-1.2,5.1-1.6,7.7c-0.3,1.9,0.1,4.1,2.6,3.8c4.4-0.5,9,1.8,13.1-1.4c0.1-0.1,0.1-0.3,0.1-0.5C44.6,103.2,46,99.9,44.1,96.9z
			 M37.4,105.2c-1.7-0.7-4.5,1.4-4.6-2.6c0-4.3,3.1-2.4,4.8-2.5c1.6-0.1,4.4-1.6,4.5,2.4C42.2,106.9,39,104.3,37.4,105.2z M79.5,107
			c-0.5-1.6,0.9-4.4-1.5-4.6c-2.7-0.2-1.9,2.6-1.8,4.2c0.1,1.6-1.1,4.3,1.7,4.4C80.2,111,79,108.4,79.5,107z M85.9,102.3
			c-2.4,0-1.6,2.7-1.8,4.4c0.3,1.6-0.8,4.2,1.7,4.4c2.7,0.2,2-2.4,2-4.1C87.9,105.2,88.6,102.3,85.9,102.3z M95.9,106.5
			c0.1-1.7,0.5-4.4-2-4.2c-2.4,0.2-1.6,2.8-1.8,4.6c0.3,1.5-0.7,4.3,2.1,4.1C96.7,110.8,95.8,108.2,95.9,106.5z M103.9,106.7
			c-0.2-1.8,0.5-4.4-2-4.4c-2.4,0.1-1.8,2.7-1.8,4.4c0.1,1.7-0.8,4.3,1.9,4.3C104.7,110.9,103.6,108.3,103.9,106.7z M111.9,106.6
			c-0.2-1.7,0.5-4.4-1.9-4.3c-2.7,0.1-1.9,3-1.9,4.8c0,1.6-0.6,4.3,2.1,4C112.8,110.8,111.6,108.2,111.9,106.6z M111.9,106.6
			c-0.2-1.7,0.5-4.4-1.9-4.3c-2.7,0.1-1.9,3-1.9,4.8c0,1.6-0.6,4.3,2.1,4C112.8,110.8,111.6,108.2,111.9,106.6z M103.9,106.7
			c-0.2-1.8,0.5-4.4-2-4.4c-2.4,0.1-1.8,2.7-1.8,4.4c0.1,1.7-0.8,4.3,1.9,4.3C104.7,110.9,103.6,108.3,103.9,106.7z M95.9,106.5
			c0.1-1.7,0.5-4.4-2-4.2c-2.4,0.2-1.6,2.8-1.8,4.6c0.3,1.5-0.7,4.3,2.1,4.1C96.7,110.8,95.8,108.2,95.9,106.5z M85.9,102.3
			c-2.4,0-1.6,2.7-1.8,4.4c0.3,1.6-0.8,4.2,1.7,4.4c2.7,0.2,2-2.4,2-4.1C87.9,105.2,88.6,102.3,85.9,102.3z M79.5,107
			c-0.5-1.6,0.9-4.4-1.5-4.6c-2.7-0.2-1.9,2.6-1.8,4.2c0.1,1.6-1.1,4.3,1.7,4.4C80.2,111,79,108.4,79.5,107z"/>
		<path d="M94.6,25.6c-5.2-2.3-7.3-6.3-7.8-11.7c-0.2-2-1.2-3.9-2.9-5.1c-3.2-2.3-6.6-4.5-9.9-6.7h-3c-2.8,1.8-5.2,3.5-9,3.6
			c-5.8,0.1-8.8,7.2-5.9,12.4c0.6,1,1.8,1.5,1.5,3.3c-1.5,7.5,4.1,12.9,8.4,16.3c4,3.2,11.3,4.5,17.4,2.9c1.9-0.5,3.1-0.7,4.9-0.1
			c4.1,1.3,8.1-0.8,9.7-4.7C99.6,32,98.3,27.3,94.6,25.6z M93.9,36.1c-1.6,1.6-3.8,2.1-5.4,0.9c-2.3-1.7-4-1.5-5.9,0.4
			c-0.9,0.9-2.9,1.2-3.2,0.7C76.1,32.8,68.3,39,67,34.6c-1.4-5-9.3-7.5-5.3-14.3c0.8-1.4-1.3-2-2.1-3c-1.4-1.8-2.3-3.6-0.9-5.9
			c1.4-2.2,3.4-3,5.5-2.2c2.4,1,3.4-0.1,4.9-1.6c2.4-2.4,5.3-2.7,7.6,0.4c0.8,1.1,1.5,1.9,3,2.3c3.1,0.8,4.1,3.1,3.5,6.3
			c-0.7,1.8-0.5,3.3,1.6,4.3c1.4,0.7,2.3,2,2.2,3.6c-0.2,3,1.3,3.6,3.9,3.5c2.2-0.1,3.6,1.4,4.2,3.5C95.7,33.3,95.2,34.8,93.9,36.1z
			"/>
		<path d="M79.5,107c-0.4,1.5,0.8,4.1-1.6,4c-2.8,0-1.6-2.8-1.7-4.4c-0.1-1.6-0.8-4.4,1.8-4.2C80.4,102.6,79,105.4,79.5,107z"/>
		<path d="M87.9,107c0,1.6,0.7,4.3-2,4.1c-2.6-0.2-1.4-2.8-1.7-4.4c0.2-1.7-0.6-4.4,1.8-4.4C88.6,102.3,87.9,105.2,87.9,107z"/>
		<path d="M95.9,106.5c-0.1,1.7,0.9,4.3-1.7,4.5c-2.8,0.2-1.8-2.5-2.1-4.1c0.2-1.8-0.6-4.5,1.8-4.6
			C96.4,102.1,95.9,104.8,95.9,106.5z"/>
		<path d="M103.9,106.7c-0.3,1.6,0.8,4.3-1.8,4.4c-2.7,0.1-1.9-2.6-1.9-4.3c0-1.7-0.7-4.4,1.8-4.4
			C104.4,102.2,103.7,104.9,103.9,106.7z"/>
		<path d="M110.3,111c-2.7,0.3-2.1-2.3-2.1-4c0-1.8-0.8-4.6,1.9-4.8c2.4-0.1,1.7,2.6,1.9,4.3C111.6,108.2,112.8,110.8,110.3,111z"/>
		<path d="M45,85.6c0-0.5-0.7-1.4-1-1.4c-4.5-0.1-8.9-0.1-13.4,0.1c-0.4,0-1.2,1.3-1.2,1.9c0.2,2.9-0.9,5.9,0.7,8.7
			c4.7,0.1,9.4,0.1,14,0.2C46,92.1,44.7,88.8,45,85.6z M37.2,92c-1.7,0.1-4.5,1.5-4.4-2.5c0.2-4.6,3.7-1,4.7-2.6
			c2,0.7,4.6-1.1,4.6,2.6C42.2,93.9,39,91.8,37.2,92z M44.1,96.9c-4.4-0.1-8.8-0.1-13.2-0.1c-3,2-1.2,5.1-1.6,7.7
			c-0.3,1.9,0.1,4.1,2.6,3.8c4.4-0.5,9,1.8,13.1-1.4c0.1-0.1,0.1-0.3,0.1-0.5C44.6,103.2,46,99.9,44.1,96.9z M37.4,105.2
			c-1.7-0.7-4.5,1.4-4.6-2.6c0-4.3,3.1-2.4,4.8-2.5c1.6-0.1,4.4-1.6,4.5,2.4C42.2,106.9,39,104.3,37.4,105.2z"/>
		<path d="M65,85.6c0-0.5-0.7-1.4-1.1-1.4c-4.5-0.1-8.9-0.1-13.4,0.1c-0.4,0-1.2,1.3-1.1,1.9c0.1,2.9-0.9,5.9,0.7,8.7
			c4.7,0.1,9.3,0.1,14,0.2C66,92.1,64.7,88.8,65,85.6z M57.3,92.1c-2.1-0.2-4.8,1-4.4-2.8c0.4-4.3,3.5-1.8,5.3-2.1
			c1.6-0.3,4.1-1.1,4,2.4C62,94,58.7,91.2,57.3,92.1z M64.1,96.9c-4.4-0.1-8.8-0.1-13.2-0.1c-3,2-1.2,5.1-1.6,7.7
			c-0.3,1.9,0.1,4.1,2.6,3.8c4.4-0.5,9.1,1.8,13.1-1.4c0.1-0.1,0.1-0.3,0.1-0.5C64.6,103.2,66,99.9,64.1,96.9z M57.5,105.2
			c-2.2-0.4-4.9,1.1-4.7-2.8c0.2-4.3,3.3-2.1,5.1-2.3c1.7-0.2,4.4-1.3,4.3,2.6C62,107.2,58.5,103.8,57.5,105.2z"/>
		<path d="M87.9,107c0,1.6,0.7,4.3-2,4.1c-2.6-0.2-1.4-2.8-1.7-4.4c0.2-1.7-0.6-4.4,1.8-4.4C88.6,102.3,87.9,105.2,87.9,107z"/>
		<path d="M94.2,111c-2.8,0.2-1.8-2.5-2.1-4.1c0.2-1.8-0.6-4.5,1.8-4.6c2.5-0.2,2.1,2.5,2,4.2C95.8,108.2,96.7,110.8,94.2,111z"/>
		<path d="M102.1,111c-2.7,0.1-1.9-2.6-1.9-4.3c0-1.7-0.7-4.4,1.8-4.4c2.5-0.1,1.8,2.6,2,4.4C103.6,108.3,104.7,110.9,102.1,111z"/>
		<path d="M110.3,111c-2.7,0.3-2.1-2.3-2.1-4c0-1.8-0.8-4.6,1.9-4.8c2.4-0.1,1.7,2.6,1.9,4.3C111.6,108.2,112.8,110.8,110.3,111z"/>
		<path d="M77.8,111c-2.8,0-1.6-2.8-1.7-4.4c-0.1-1.6-0.8-4.4,1.8-4.2c2.4,0.2,1,3,1.5,4.6C79,108.4,80.2,111,77.8,111z"/>
		<path d="M45,85.6c0-0.5-0.7-1.4-1-1.4c-4.5-0.1-8.9-0.1-13.4,0.1c-0.4,0-1.2,1.3-1.2,1.9c0.2,2.9-0.9,5.9,0.7,8.7
			c4.7,0.1,9.4,0.1,14,0.2C46,92.1,44.7,88.8,45,85.6z M37.2,92c-1.7,0.1-4.5,1.5-4.4-2.5c0.2-4.6,3.7-1,4.7-2.6
			c2,0.7,4.6-1.1,4.6,2.6C42.2,93.9,39,91.8,37.2,92z"/>
		<path d="M65,85.6c0-0.5-0.7-1.4-1.1-1.4c-4.5-0.1-8.9-0.1-13.4,0.1c-0.4,0-1.2,1.3-1.1,1.9c0.1,2.9-0.9,5.9,0.7,8.7
			c4.7,0.1,9.3,0.1,14,0.2C66,92.1,64.7,88.8,65,85.6z M57.3,92.1c-2.1-0.2-4.8,1-4.4-2.8c0.4-4.3,3.5-1.8,5.3-2.1
			c1.6-0.3,4.1-1.1,4,2.4C62,94,58.7,91.2,57.3,92.1z"/>
		<path d="M44.1,96.9c-4.4-0.1-8.8-0.1-13.2-0.1c-3,2-1.2,5.1-1.6,7.7c-0.3,1.9,0.1,4.1,2.6,3.8c4.4-0.5,9,1.8,13.1-1.4
			c0.1-0.1,0.1-0.3,0.1-0.5C44.6,103.2,46,99.9,44.1,96.9z M37.4,105.2c-1.7-0.7-4.5,1.4-4.6-2.6c0-4.3,3.1-2.4,4.8-2.5
			c1.6-0.1,4.4-1.6,4.5,2.4C42.2,106.9,39,104.3,37.4,105.2z"/>
		<path d="M64.1,96.9c-4.4-0.1-8.8-0.1-13.2-0.1c-3,2-1.2,5.1-1.6,7.7c-0.3,1.9,0.1,4.1,2.6,3.8c4.4-0.5,9.1,1.8,13.1-1.4
			c0.1-0.1,0.1-0.3,0.1-0.5C64.6,103.2,66,99.9,64.1,96.9z M57.5,105.2c-2.2-0.4-4.9,1.1-4.7-2.8c0.2-4.3,3.3-2.1,5.1-2.3
			c1.7-0.2,4.4-1.3,4.3,2.6C62,107.2,58.5,103.8,57.5,105.2z"/>
	</g>
</g>
</svg>
