<?xml version="1.0" encoding="utf-8"?>
<!-- Generator: Adobe Illustrator 28.0.0, SVG Export Plug-In . SVG Version: 6.00 Build 0)  -->
<svg version="1.1" id="Layer_1" xmlns="http://www.w3.org/2000/svg" xmlns:xlink="http://www.w3.org/1999/xlink" x="0px" y="0px"
	 viewBox="0 0 128 128" style="enable-background:new 0 0 128 128;" xml:space="preserve">
<g id="mPRjm7.tif_1_">
	<g>
		<path d="M126.9,52.6c-4-3.7-8.1-7.4-12.3-11c-2-1.7-4.9-0.5-5.2,2.2c-0.3,2.1-0.5,4.3-0.7,6.4c-0.1,1.1-0.4,2.1-1.4,2.9
			c-7.9,7.2-15.7,14.5-23.6,21.7c-0.8-0.2-0.1-0.9-0.5-1.3c-0.4-5.9-0.7-11.8-1.1-17.7c-0.5-6.8-1-13.6-1.4-20.4
			c-0.2-3.3-1.9-5.1-5.3-5.1c-3.7,0-7.5,0-11.2,0c-0.9,0-1.2-0.2-1.2-1.2c0.1-6.9,0-13.7,0-20.6c0-1-0.1-2-0.4-2.9
			c-1.2-3.8-5-6.1-8.8-5.5c-3.9,0.6-6.7,4-6.7,7.9c0,7,0,14.1,0,21.1c0,1-0.3,1.2-1.2,1.2c-4.2-0.1-8.4,0-12.6,0
			c-0.7,0-1.2-0.2-1.7-0.7c-1.3-1.6-2.6-3.1-4.1-4.6c-8.4-8.7-23-5.3-26.7,6.2C0.5,32,0.5,32.9,0,33.5v5.2c0.4,4.1,2.3,7.4,5,10.4
			c2.9,3.2,5.5,6.7,7.2,10.7c4.3,10.3,8.1,20.9,12.1,31.3c0.5,1.2,0.6,2.4,0.5,3.7c-0.4,3-0.5,6.1-0.7,9.1
			c-0.4,6.1-0.8,12.3-1.3,18.4c-0.2,2.9,1.1,4.9,3.8,5.5h56.5c3-1.6,3.6-2.7,3.3-6.2c-0.1-1.7-0.2-3.5-0.3-5.2c0-0.5,0.1-1,0.3-1.4
			c10.2-18.2,20.4-36.4,30.6-54.6c0.3-0.5,0.6-0.7,1.2-0.9c2.4-0.5,4.9-1,7.3-1.7C128.1,57.3,128.8,54.3,126.9,52.6z M62.9,39.9
			c0.3-1.5,0.1-3.2,0.1-4.7c0-0.7,0.1-1,0.9-1c3.9,0,7.7,0.1,11.6,0c1.1,0,1.5,0.4,1.5,1.5c0,1.5,0.1,3,0.3,4.5c0.1,0.8-0.2,1-1,0.9
			c-2.1,0-4.2,0-6.4,0c-2,0-4,0-6,0C63.1,41.1,62.6,41.1,62.9,39.9z M50.8,8.3c0-3.1,2.6-5.1,5.4-4.3c1.6,0.5,2.6,1.6,2.8,3.3
			c0.1,0.5,0.1,1.1,0.1,1.6c0,9.8,0,19.6,0,29.3c0,2.3-0.4,2.8-2.8,2.8c-1.1,0-2.2,0-3.4,0c-1.6,0-2.3-0.6-2.3-2.3
			c0-5.1,0-10.2,0-15.2C50.7,18.5,50.7,13.4,50.8,8.3z M32.7,40.3c0.1-1.8,0.2-3.6,0.3-5.4c0-0.5,0.2-0.7,0.8-0.7
			c4.2,0,8.4,0,12.6,0c0.6,0,0.7,0.3,0.6,0.8c0,1.3,0,2.7,0,4c0,0.7,0,1.3,0.3,2.1c-4.7,0-9.3,0-13.9,0
			C32.7,41.1,32.6,40.8,32.7,40.3z M30.9,66.8c0.3-3.4,0.5-6.7,0.6-10.1c0-1,0.4-1.3,1.4-1.3c8.5,0,16.9,0,25.4,0
			c1.5,0,2.3-0.6,2.4-1.6c0.2-1-0.4-1.9-1.4-2.1c-0.4-0.1-0.9-0.1-1.4-0.1c-8.2,0-16.5,0-24.7,0c-0.9,0-1.3-0.2-1.2-1.2
			c0.2-1.5,0.3-3.1,0.3-4.6c0-1,0.4-1.1,1.3-1.1c6.8,0,13.7,0,20.5,0c7.5,0,14.9,0,22.4,0c0.9,0,1.3,0.2,1.3,1.1
			c0,1.6,0.2,3.2,0.3,4.9c0.1,0.8-0.2,1-1,0.9c-3,0-6,0-9,0c-0.9,0-1.7,0.2-2.2,1.2c-0.6,1.3,0.4,2.7,2.1,2.7c3,0,6.1,0,9.1,0
			c0.8,0,1.2,0.1,1.3,1.1c0.2,3.6,0.4,7.1,0.7,10.7c0.1,1-0.5,0.7-1,0.7H54.8c-7.6,0-15.2,0-22.9,0C31,68.1,30.8,67.9,30.9,66.8z
			 M30.5,72.8c0-0.8,0.2-1.1,1-1.1c15.6,0,31.2,0,46.8,0c0.6,0,1.1,0,1.1,0.9c0.5,7.8,1,15.6,1.5,23.4c0.1,1-0.2,1.2-1.2,1.2
			c-11.8,0-23.7,0-35.5,0c-1.6,0-2.5,1-2.1,2.3c0.3,1,1,1.5,2,1.5c2.7,0,5.3,0,8,0c9.3,0,18.6,0,27.9,0c1.1,0,1.3,0.3,1.4,1.3
			c0.2,3.5,0.4,7.1,0.7,10.6c0,0.5,0,0.7-0.6,0.7c-0.5,0-0.9,0-1.4,0H55c-8.7,0-17.4,0-26.1,0c-1,0-1.1-0.2-1.1-1.2
			c0.3-3.4,0.5-6.8,0.7-10.2c0-0.9,0.2-1.3,1.2-1.2c1.8,0.1,3.6,0,5.4,0c1.3,0,2.2-0.8,2.2-1.9c0-1.1-0.9-1.8-2.2-1.8
			c-1.8,0-3.5,0-5.2,0c-0.6,0-0.9,0-0.8-0.8c0.4-6.1,0.8-12.1,1.2-18.2C30.3,76.5,30.4,74.7,30.5,72.8z M26.2,79.5
			c0,1.3-0.2,2.5-0.3,4.1c-1.2-3.2-2.3-6-3.4-8.9c-2.2-5.7-4.2-11.5-6.7-17.1c-1.8-3.9-4.3-7.5-7.2-10.7c-2.4-2.6-4.1-5.5-4.6-9.1
			c-1-7.4,4.8-14,12.3-13.8c3.6,0.1,6.6,1.5,9,4.2c0.9,1,1.6,2.1,2.6,2.9c1.6,1.3,1.7,2.9,1.5,4.7c-0.1,0.8-0.2,1.6-0.2,2.5
			c-2.2-2.5-4.3-5-6.4-7.4c-2.6-3-6.2-3.9-9.7-2.6C7.9,30.1,6,35.9,8.7,41c0.4,0.8,0.9,1.6,1.6,2.2c5.6,5.9,9.4,12.7,11.9,20.4
			c1.2,3.5,2.5,7,3.9,10.5C26.8,75.9,26.2,77.7,26.2,79.5z M25,60.4c-2.5-7.3-6.4-13.7-11.7-19.3c-1-1.1-1.7-2.3-1.9-3.8
			C11,35,11.9,33,13.8,32c1.9-1,4.1-0.6,5.6,1.1c2.7,3.1,5.3,6.3,8,9.4c0.8,0.9,1.1,1.8,1,3c-0.4,5.6-0.8,11.3-1.2,16.9
			c-0.1,1.1-0.1,2.2-0.2,3.2c-0.1,0-0.2,0-0.3,0C26.3,63.9,25.6,62.2,25,60.4z M81.3,124.3c-12.1,0-24.3,0-36.4,0H28.7
			c-1.5,0-1.6-0.1-1.5-1.6c0.1-1.4,0.3-2.8,0.3-4.2c0-0.9,0.3-1,1.1-1c8.8,0,17.6,0,26.5,0c8.8,0,17.6,0,26.3,0
			c0.9,0,1.2,0.2,1.2,1.2c0,1.4,0.1,2.8,0.3,4.2C82.9,124,82.4,124.3,81.3,124.3z M112.1,61.7c-8.5,15.3-17.1,30.5-25.6,45.8
			c-0.2,0.4-0.4,0.7-0.6,1.1c-0.1,0-0.2,0-0.3,0c-0.2-3.3-0.5-6.5-0.7-9.8c-0.4-5.9-0.8-11.8-1.2-17.7c0-0.6,0-1.1,0.5-1.5
			c8.4-7.7,16.8-15.4,25.1-23.2c0.6-0.6,1.1-0.8,1.8-0.1c0.8,0.9,2.1,1.5,2.4,2.4C113.8,59.6,112.7,60.7,112.1,61.7z M117.3,56
			c-0.5,0.1-0.8-0.1-1.1-0.4c-0.9-0.8-1.7-1.6-2.6-2.3c-1-0.8-1.3-1.6-1.1-2.9c0.3-1.6,0.4-3.3,0.7-5.2c3.5,3.1,6.9,6.1,10.5,9.3
			C121.3,55.1,119.3,55.6,117.3,56z"/>
		<path d="M83.7,74.8c-0.3,0.4-0.4,0.1-0.5-0.1c-0.1-0.4,0-0.8,0-1.2C83.6,73.8,83.2,74.5,83.7,74.8z"/>
	</g>
</g>
</svg>
