<?xml version="1.0" encoding="utf-8"?>
<!-- Generator: Adobe Illustrator 28.0.0, SVG Export Plug-In . SVG Version: 6.00 Build 0)  -->
<svg version="1.1" id="Layer_1" xmlns="http://www.w3.org/2000/svg" xmlns:xlink="http://www.w3.org/1999/xlink" x="0px" y="0px"
	 viewBox="0 0 128 128" style="enable-background:new 0 0 128 128;" xml:space="preserve">
<g id="oyJAbx.tif">
	<g>
		<path d="M8.6,15.3c-0.1-1,0.8-2,1.8-2c1,0,1.9,0.9,2,1.9c0,1-0.9,1.9-1.9,1.9C9.6,17.2,8.6,16.3,8.6,15.3z"/>
		<path d="M8.6,21c0.1-1,0.6-1.7,1.8-1.8c0.1,0,0.2,0,0.2,0h3v0c1.1,0,2.2,0,3.2,0c1.1,0.1,1.8,0.8,1.8,1.8c0,0.9-0.8,1.9-1.8,1.9
			c-2.2,0.1-4.4,0.1-6.6,0C9.3,22.9,8.4,21.9,8.6,21z"/>
		<path d="M115.5,70.4c-1,0-1.8,0.9-1.8,1.9c0,1,0.9,1.9,1.9,1.9c1.1,0,1.9-0.8,1.8-1.9C117.4,71.2,116.5,70.4,115.5,70.4z
			 M115.5,70.4c-1,0-1.8,0.9-1.8,1.9c0,1,0.9,1.9,1.9,1.9c1.1,0,1.9-0.8,1.8-1.9C117.4,71.2,116.5,70.4,115.5,70.4z M115.5,70.4
			c-1,0-1.8,0.9-1.8,1.9c0,1,0.9,1.9,1.9,1.9c1.1,0,1.9-0.8,1.8-1.9C117.4,71.2,116.5,70.4,115.5,70.4z M115.5,70.4
			c-1,0-1.8,0.9-1.8,1.9c0,1,0.9,1.9,1.9,1.9c1.1,0,1.9-0.8,1.8-1.9C117.4,71.2,116.5,70.4,115.5,70.4z M126.6,21.7
			c-1-0.3-2,0.2-2.5,1c-0.3,0.5-0.4,1-0.4,1.6c0,1-0.4,1.3-1.4,1.3c-6,0-12,0-18,0c-0.9,0-1.4-0.4-1.3-1.3c0-3.8,0-7.7,0-11.5
			c0-1,0.3-1.8,1-2.5c0.9-0.8,2-0.9,3.2-0.9c4.1,0,8.2,0,12.2,0c2.9,0,4.2,1.3,4.2,4.2c0,0.7,0,1.3,0.1,2c0.3,1.2,1.3,1.9,2.4,1.8
			c1.1-0.1,1.7-0.8,1.8-2.2c0-0.9,0-1.8,0-2.7c0-1.1-0.1-2.2-0.5-3.2c-1.2-2.5-3.1-3.8-5.8-4h-0.7c-0.2,0.1-0.4,0.1-0.6,0.1
			c-4.8,0-9.5,0-14.3,0c-0.2,0-0.4,0-0.6-0.1h-0.5c-1.9,0.2-3.7,0.9-4.8,2.5c-0.8,1.2-1.8,1.6-3.2,1.6c-22,0-44,0-66,0
			c-0.3,0-0.7,0-1,0c-0.7,0-1.3-0.2-1.7-0.9c-1.2-2-3-3.1-5.3-3.2h-0.7c-0.1,0.1-0.3,0.1-0.5,0.1c-4.9,0-9.9,0-14.8,0
			c-0.2,0-0.3,0-0.5-0.1H5.7C2.6,5.9,0.7,7.8,0,11v27.5c0.3,1.2,1.1,1.6,2.2,1.6c1.1,0,2.2,0,3.2,0c0.9,0,1.4,0.3,1.4,1.3
			c0,7.5,0,15.1,0,22.6c0,0.8-0.2,1.2-1.1,1.4c-1.3,0.3-1.9,1.2-1.9,2.5c-0.1,4.5-0.1,9.1,0,13.6c0,1.3,0.6,2.2,1.9,2.5
			c0.8,0.2,1.1,0.6,1.1,1.4v21.6c0,0.8-0.3,1.3-1.1,1.6c-2.9,1.1-4.2,3.3-4.4,6.2c-0.1,1.8-0.1,3.6,0,5.4c0.1,1.9,0.9,2.6,2.7,2.6
			c6.7,0,13.3,0,20,0c1.7,0,2.6-0.7,2.7-2.4c0.2-2,0.1-4.1-0.1-6.1c-0.3-3.5-3.2-6.3-7-6c-1.8,0.1-1.9,0-1.9-1.9
			c0-6.7,0-13.4,0-20.1c0-1.8,0-1.8,1.7-2.4c1-0.4,1.6-1.3,1.5-2.3c-0.1-1.1-0.8-1.8-1.9-2c-0.5-0.1-1-0.1-1.5-0.1
			c-2.6,0-5.2,0-7.9,0c-1.3,0-1.4-0.2-1.4-1.5c0-2.1,0-4.2,0-6.4c0-1.8,0.1-1.9,1.9-1.9c5.9,0,11.8,0,17.7,0c0.5,0,1,0,1.5,0
			c0.7,0,1,0.3,1,1c0,2.5,0,5.1,0,7.6c0,0.7-0.4,1-1.1,1.1c-0.7,0-1.5,0-2.2,0.1c-1.1,0.2-1.9,1-1.9,2.1c0,1.1,0.7,2,1.8,2.2
			c0.6,0.1,1.2,0.1,1.7,0.1c1.6,0,1.7,0.1,1.7,1.7c0,4.2,0,8.3,0,12.5c0,2.7,0.8,3.5,3.5,3.5c14.5,0,29,0,43.5,0c0.5,0,1,0,1.5-0.1
			c1.1-0.3,1.8-1.3,1.8-2.3c0-1.1-0.8-1.9-1.9-2.1c-0.6-0.1-1.2-0.1-1.9-0.1H37.5c-2.4,0-2.4,0-2.4-2.4c0-20,0-39.9,0-59.9
			c0-1,0-2.1,0-3.1c0-1.6,0.1-1.7,1.7-1.7c1.8,0,3.6,0,5.4,0c2.3,0,2.3,0,2.3,2.3V87c0,0.8,0,1.6,0.1,2.4c0.3,1.6,1.1,2.3,2.7,2.4
			c0.5,0,0.9,0,1.4,0h30.3c0.5,0,0.9,0,1.4,0c1.5-0.1,2.3-0.9,2.7-2.4c0.2-0.8,0.1-1.7,0.1-2.5V32.8c0-0.4,0-0.8,0-1.2
			c-0.1-1,0.4-1.4,1.4-1.4c1.9,0,3.7,0,5.6,0c2.4,0,2.4,0,2.4,2.4v62.2c0,0.4,0,0.8,0,1.2c0,0.9-0.4,1.4-1.3,1.3
			c-1.4,0-2.7-0.1-4.1,0c-1.4,0.1-2.3,1-2.3,2.2c0,1.1,0.9,2.2,2.2,2.3c2.6,0.1,5.2,0.1,7.7,0c1.2-0.1,1.9-0.8,2.2-2
			c0.1-0.6,0.1-1.2,0.1-1.9c0-4.1,0-8.2,0-12.2c0-1.4,0.2-1.5,1.5-1.5c3.1,0,6.2,0,9.4,0c1.8,0,1.8,0.1,1.8,1.8c0,6.6,0,13.2,0,19.7
			c0,2.8,0.2,2.6-2.6,2.6c-3.2,0-5.5,2-6.2,5.1c-0.4,2.3-0.4,4.6-0.2,7c0.1,1.7,1,2.4,2.7,2.4c6.6,0,13.2,0,19.9,0
			c2,0,2.8-0.7,2.8-2.8c0.1-1.7,0.1-3.3,0-5c-0.1-3-1.4-5.3-4.3-6.4c-0.9-0.3-1.2-0.9-1.2-1.8c0-7.1,0-14.1,0-21.2
			c0-0.8,0.2-1.4,1.1-1.6c1.2-0.3,1.8-1.2,1.8-2.4c0.1-4.6,0.1-9.2,0-13.7c0-1.2-0.6-2.1-1.8-2.4c-0.9-0.2-1.1-0.8-1.1-1.6
			c0-3.2,0-6.4,0-9.6c0-4.2,0-8.4,0-12.6c0-1.3,0.1-1.4,1.4-1.5c1.2,0,2.3,0.1,3.5-0.1c1.4-0.1,2-0.8,2-2.2c0-4.7,0-9.5,0-14.2
			C128,22.6,127.5,22,126.6,21.7z M29.2,13.8c0.1-0.5,0.5-0.3,0.8-0.3c2.5,0,4.9,0,7.4,0h26.7c11.2,0,22.3,0,33.5,0
			c0.5,0,1.3-0.4,1.2,0.7c0,0.5-0.1,0.7-0.6,0.7c-0.2,0-0.4,0-0.6,0c-22.3,0-44.7,0-67,0c-0.4,0-0.8,0.1-1.1-0.1
			C29,14.6,29.2,14.1,29.2,13.8z M3.7,13.1c0-2.5,1.5-4.1,4-4.1c4.5,0,9.1,0,13.6,0c2.5,0,3.9,1.4,3.9,4c0,4,0,8,0,12
			c0,0.8-0.2,1.1-1,1c-3.3-0.1-6.6,0-9.8,0c-3.2,0-6.5,0-9.7,0c-0.8,0-1-0.3-1-1C3.8,21,3.7,17.1,3.7,13.1z M12.3,83.7
			c0.7,0,1.2-0.1,1.2,1c-0.1,7.7-0.1,15.3,0,23c0,1.1-0.6,1-1.3,1c-0.8,0-1.3-0.1-1.2-1.1c0.1-3.8,0-7.7,0-11.5
			c0-3.8,0.1-7.6,0-11.4C11,83.5,11.6,83.7,12.3,83.7z M20.4,112.4c1.4,0,2.1,0.9,2.1,2.2c0,1.1,0,2.2,0,3.4c0,0.7-0.3,0.9-0.9,0.9
			c-2.5,0-5,0-7.5,0s-5,0-7.5,0c-0.7,0-1-0.2-1-1c0.1-1.1,0-2.2,0-3.4c0.1-1.3,0.8-2.1,2.1-2.1C12,112.4,16.2,112.4,20.4,112.4z
			 M13.5,52.7c0,4-0.1,8,0,12c0,1.1-0.5,1.1-1.2,1.1c-0.7,0-1.3,0.1-1.3-1c0.1-8,0.1-15.9,0-23.9c0-1.1,0.5-1.1,1.3-1.1
			c0.7,0,1.3-0.1,1.3,1C13.5,44.7,13.5,48.7,13.5,52.7z M17.4,53.2c-0.1-0.6,0-1.1,1.1-1.1c1.4,0,0.9,0.9,1,1.6
			c0.1,0.7,0.1,1.3-1,1.3C17.1,55,17.4,54.1,17.4,53.2z M17.4,40.4c0-1,0.6-0.7,1.1-0.7c0.5,0,1.1-0.2,1,0.7c-0.1,1.2,0,2.4,0,3.6
			c0,1.2-0.1,2.3,0,3.5c0.1,1-0.6,0.7-1.1,0.7c-0.5,0-1.1,0.2-1-0.7C17.4,45.2,17.4,42.8,17.4,40.4z M17.5,59.9
			c-0.3-1.2,0.2-1.3,0.9-1.2c0.3,0.1,0.8-0.3,0.8,0.4c0,0.5-1.2,1.7-1.5,1.6C17.1,60.5,17.5,60,17.5,59.9z M31,65
			c0,0.7-0.2,0.7-0.8,0.7c-2,0-4,0-6,0c-2,0-4,0-6,0c-0.3,0-0.8,0.2-0.8-0.4c0-0.5,0.3-0.6,0.7-0.7c2.8-0.7,4.4-2.4,5.1-5.2
			c0.1-0.5,0.3-0.7,0.8-0.7c2.1,0,4.2,0,6.4,0c0.5,0,0.7,0.1,0.7,0.7C31,61.2,31,63.1,31,65z M31,47.4c0,2.2,0,4.4,0,6.6
			c0,0.6-0.1,1-0.9,1c-2-0.1-4.1,0-6.1,0c-0.7,0-0.9-0.2-0.8-0.9c0,0,0-0.1,0-0.1c-0.2-1.6,0.1-2.7,1.8-3.7c2.9-1.7,4.1-4.7,4.2-8
			c0-0.5,0.1-1.1,0-1.6c-0.1-0.8,0.3-0.9,1-0.9c0.8,0,0.9,0.3,0.8,0.9C31,42.9,31,45.1,31,47.4z M23.2,40.3c0-0.7,0.4-0.7,0.8-0.6
			c0.4,0.1,1.2-0.4,1.3,0.4c0.1,2.4,0.3,4.8-2,6.7C23.2,44.5,23.2,42.4,23.2,40.3z M30,36c-4.2,0-8.5,0-12.7,0c-4.2,0-8.3,0-12.5,0
			c-0.9,0-1.1-0.2-1.1-1.1c0.1-1.5,0-2.9,0-4.4c0-0.6,0.2-0.8,0.8-0.8c8.6,0,17.1,0,25.7,0c0.6,0,0.8,0.2,0.8,0.8c0,1.5-0.1,3,0,4.5
			C31,35.8,30.8,36,30,36z M79,86.7c0,0.7-0.2,0.9-0.9,0.9c-9.4,0-18.8,0-28.2,0c-0.7,0-0.9-0.2-0.9-0.9c0-2.2,0.1-4.4,0-6.6
			c0-0.9,0.3-1,1.1-1c4.7,0,9.4,0,14.1,0c4.6,0,9.2,0,13.9,0c0.8,0,1.1,0.1,1.1,1C78.9,82.3,78.9,84.5,79,86.7z M77.9,75.2
			c-4.7,0-9.4,0-14.1,0c-4.6,0-9.2,0-13.9,0c-0.8,0-1.1-0.1-1.1-1c0.1-2.2,0.1-4.3,0-6.5c0-0.8,0.1-1.1,1-1.1c9.4,0,18.7,0,28.1,0
			c0.7,0,1,0.1,1,0.9c-0.1,2.2-0.1,4.4,0,6.6C79,75.1,78.7,75.2,77.9,75.2z M79,62c0,0.7-0.1,0.9-0.9,0.9c-9.4,0-18.9,0-28.3,0
			c-0.8,0-0.9-0.3-0.9-0.9c0-2.2,0.1-4.4,0-6.6c0-0.9,0.3-1,1.1-1c4.7,0,9.3,0,14,0s9.3,0,14,0c0.8,0,1.1,0.1,1.1,1
			C78.9,57.6,78.9,59.8,79,62z M77.9,50.6c-4.7,0-9.4,0-14.1,0c-4.6,0-9.2,0-13.8,0c-0.8,0-1.1-0.2-1.1-1c0.1-2.2,0-4.4,0-6.6
			c0-0.7,0.2-0.9,0.9-0.9c9.4,0,18.9,0,28.3,0c0.8,0,0.9,0.3,0.9,0.9c0,2.2-0.1,4.4,0,6.6C79,50.5,78.6,50.6,77.9,50.6z M79,37.3
			c0,0.8-0.3,0.9-1,0.9c-9.4,0-18.7,0-28.1,0c-0.7,0-1-0.1-1-0.9c0.1-2.2,0.1-4.4,0-6.6c0-0.9,0.3-1,1.1-1c4.7,0,9.4,0,14.1,0
			c4.6,0,9.2,0,13.9,0c0.8,0,1.1,0.1,1.1,1C78.9,32.9,78.9,35.1,79,37.3z M30.4,26c-0.4,0-1.1,0.3-1.2-0.3c-0.1-0.8-0.1-1.7,0.1-2.6
			c0.1-0.3,0.7-0.1,1-0.1c11.2,0,22.4,0,33.6,0c11.1,0,22.3,0,33.4,0c1.1,0,1.4,0.2,1.4,1.3C98.6,26,98.7,26,97,26
			C74.8,26,52.6,26,30.4,26z M108.3,79.9c-3.4,0-6.8,0-10.2,0c-0.9,0-1.2-0.1-1.2-1.1c0.1-2.8,0.1-5.6,0-8.4c0-0.8,0.2-1,1-1
			c7,0,14,0,21.1,0c0.7,0,1,0.1,1,0.9c0,2.9,0,5.7,0,8.6c0,0.7-0.2,0.9-0.9,0.9C115.4,79.9,111.8,79.9,108.3,79.9z M96.9,58.3
			c0-0.6,0.2-0.9,0.7-1.2c5.1-2.8,7.6-7.2,7.7-13c0-1.2,0-2.4,0-3.6c0-0.6,0.1-0.9,0.7-0.8c0,0,0.1,0,0.1,0c1.4,0,3.2-0.5,4,0.2
			c0.9,0.7,0.2,2.6,0.2,3.9c0,3,0,5.9,0,8.9c0,4,0,8,0,12c0,0.8-0.2,1.1-1,1c-3.9,0-7.7,0-11.6,0c-0.9,0-1-0.3-1-1
			C96.9,62.6,96.9,60.4,96.9,58.3z M101.5,43.3c0.2,4-1.1,7.2-4.6,9.8c0-4.5,0-8.7,0-12.9c0-0.4,0.1-0.6,0.5-0.5c0.1,0,0.2,0,0.2,0
			c1.2,0,2.8-0.4,3.6,0.2C102,40.5,101.4,42.2,101.5,43.3z M116.8,64.7c0,1.1-0.5,1.1-1.3,1.1c-0.7,0-1.3,0.1-1.3-1c0.1-4,0-8,0-12
			c0-4,0.1-8,0-12c0-1.1,0.5-1.1,1.2-1.1c0.7,0,1.3-0.1,1.3,1C116.8,48.7,116.8,56.7,116.8,64.7z M122.2,114.5c0.1,1.2,0,2.3,0,3.5
			c0,0.7-0.2,0.8-0.9,0.8c-2.5,0-5,0-7.5,0s-5,0-7.5,0c-0.8,0-1.1-0.1-1.1-1c0.1-1.1,0-2.2,0-3.2c0-1.4,0.8-2.2,2.1-2.2
			c4.2,0,8.4,0,12.6,0C121.4,112.4,122.1,113.2,122.2,114.5z M123.1,36c-4.2,0-8.4,0-12.6,0c-4.2,0-8.4,0-12.6,0c-0.8,0-1.1-0.2-1-1
			c0.1-1.4,0.1-2.7,0-4.1c-0.1-0.9,0.2-1.1,1.1-1.1c6.2,0,12.3,0,18.5,0c2.3,0,4.6,0,6.9,0c0.6,0,0.9,0.1,0.8,0.8
			c-0.1,1.5-0.1,2.9,0,4.4C124.2,35.7,124,36,123.1,36z M115.6,74.2c1.1,0,1.9-0.8,1.8-1.9c0-1.1-0.9-1.9-1.9-1.8
			c-1,0-1.8,0.9-1.8,1.9C113.6,73.3,114.5,74.2,115.6,74.2z M115.5,70.4c-1,0-1.8,0.9-1.8,1.9c0,1,0.9,1.9,1.9,1.9
			c1.1,0,1.9-0.8,1.8-1.9C117.4,71.2,116.5,70.4,115.5,70.4z M115.5,70.4c-1,0-1.8,0.9-1.8,1.9c0,1,0.9,1.9,1.9,1.9
			c1.1,0,1.9-0.8,1.8-1.9C117.4,71.2,116.5,70.4,115.5,70.4z M115.5,70.4c-1,0-1.8,0.9-1.8,1.9c0,1,0.9,1.9,1.9,1.9
			c1.1,0,1.9-0.8,1.8-1.9C117.4,71.2,116.5,70.4,115.5,70.4z M115.5,70.4c-1,0-1.8,0.9-1.8,1.9c0,1,0.9,1.9,1.9,1.9
			c1.1,0,1.9-0.8,1.8-1.9C117.4,71.2,116.5,70.4,115.5,70.4z"/>
		<path d="M22.2,5.3c-0.3,0.4-0.7,0.2-1,0.2c-4.6,0-9.1,0-13.7,0c-0.4,0-0.8,0.1-1-0.2C11.7,5.3,17,5.3,22.2,5.3z"/>
		<path d="M120.9,5.3c-0.3,0.4-0.7,0.2-1,0.2c-4.5,0-8.9,0-13.4,0c-0.4,0-0.8,0.1-1-0.2C110.6,5.3,115.7,5.3,120.9,5.3z"/>
		<path d="M8.6,15.3c-0.1-1,0.8-2,1.8-2c1,0,1.9,0.9,2,1.9c0,1-0.9,1.9-1.9,1.9C9.6,17.2,8.6,16.3,8.6,15.3z"/>
		<path d="M18.6,21.1c0,0.9-0.8,1.9-1.8,1.9c-2.2,0.1-4.4,0.1-6.6,0c-1,0-1.8-1-1.7-1.9c0.1-1,0.6-1.7,1.8-1.8c0.1,0,0.2,0,0.2,0h3
			v0c1.1,0,2.2,0,3.2,0C17.9,19.3,18.6,20.1,18.6,21.1z"/>
		<path d="M117.4,72.3c0,1.1-0.8,1.9-1.8,1.9c-1.1,0-1.9-0.9-1.9-1.9c0-1,0.8-1.8,1.8-1.9C116.5,70.4,117.4,71.2,117.4,72.3z"/>
		<path d="M98.6,19.1c-23.1,0-46.3,0-69.4,0c0-0.1,0-0.2,0-0.3c23.1,0,46.3,0,69.4,0C98.6,19,98.6,19,98.6,19.1z"/>
		<path d="M23.2,46.8c0-2.3,0-4.4,0-6.5c0-0.7,0.4-0.7,0.8-0.6c0.4,0.1,1.2-0.4,1.3,0.4C25.4,42.5,25.5,44.9,23.2,46.8z"/>
		<path d="M10.5,72.3c0-1.1,0.9-1.9,1.9-1.9c1,0,1.8,0.9,1.9,1.8c0,1-0.8,1.9-1.9,1.9C11.3,74.2,10.5,73.4,10.5,72.3z"/>
		<path d="M18.6,21.1c0,0.9-0.8,1.9-1.8,1.9c-2.2,0.1-4.4,0.1-6.6,0c-1,0-1.8-1-1.7-1.9c0.1-1,0.6-1.7,1.8-1.8c0.1,0,0.2,0,0.2,0h3
			v0c1.1,0,2.2,0,3.2,0C17.9,19.3,18.6,20.1,18.6,21.1z"/>
		<path d="M12.4,15.2c0,1-0.9,1.9-1.9,1.9c-0.9,0-1.9-0.8-1.9-1.8c-0.1-1,0.8-2,1.8-2C11.4,13.3,12.4,14.2,12.4,15.2z"/>
		<path d="M117.4,72.3c0,1.1-0.8,1.9-1.8,1.9c-1.1,0-1.9-0.9-1.9-1.9c0-1,0.8-1.8,1.8-1.9C116.5,70.4,117.4,71.2,117.4,72.3z"/>
	</g>
</g>
</svg>
