<?xml version="1.0" encoding="utf-8"?>
<!-- Generator: Adobe Illustrator 28.0.0, SVG Export Plug-In . SVG Version: 6.00 Build 0)  -->
<svg version="1.1" id="Layer_1" xmlns="http://www.w3.org/2000/svg" xmlns:xlink="http://www.w3.org/1999/xlink" x="0px" y="0px"
	 viewBox="0 0 128 128" style="enable-background:new 0 0 128 128;" xml:space="preserve">
<g id="yrEk3F.tif">
	<g>
		<path d="M90.1,62.3c0-1.6-0.6-2.3-2.2-2.3c-9.7,0-19.5,0-29.2,0c-1.6,0-2.2,0.6-2.2,2.3c0,3.6,0,7.2,0,10.9c0,1.8,0.6,2.4,2.4,2.4
			c8.7,0,17.5,0,26.2,0c1,0,1.4,0.1,1.4,1.3c-0.1,7.9,0,15.8,0,23.7c0,0.9-0.1,1.2-1.2,1.2c-7.9-0.1-15.9-0.1-23.8,0
			c-1.1,0-1.2-0.3-1.2-1.3c0-6.3,0-12.6,0-18.9c0-1.6-0.7-2.4-1.9-2.3c-1.2,0-1.8,0.8-1.8,2.3c0,7.2,0,14.4,0,21.6
			c0,1.7,0.6,2.3,2.3,2.3c9.6,0,19.3,0,28.9,0c1.8,0,2.4-0.6,2.4-2.5V82.8C90.1,76,90.1,69.2,90.1,62.3z M85.5,71.8
			c-4.1,0-8.2,0-12.2,0c-4,0-8.1,0-12.1,0c-0.8,0-1-0.2-1-1c0.1-2,0.1-4.1,0-6.1c0-0.7,0.2-0.9,0.9-0.9c8.2,0,16.3,0,24.5,0
			c0.7,0,0.9,0.2,0.9,0.9c0,2.1,0,4.2,0,6.2C86.4,71.7,86.2,71.8,85.5,71.8z M90.1,62.3c0-1.6-0.6-2.3-2.2-2.3c-9.7,0-19.5,0-29.2,0
			c-1.6,0-2.2,0.6-2.2,2.3c0,3.6,0,7.2,0,10.9c0,1.8,0.6,2.4,2.4,2.4c8.7,0,17.5,0,26.2,0c1,0,1.4,0.1,1.4,1.3
			c-0.1,7.9,0,15.8,0,23.7c0,0.9-0.1,1.2-1.2,1.2c-7.9-0.1-15.9-0.1-23.8,0c-1.1,0-1.2-0.3-1.2-1.3c0-6.3,0-12.6,0-18.9
			c0-1.6-0.7-2.4-1.9-2.3c-1.2,0-1.8,0.8-1.8,2.3c0,7.2,0,14.4,0,21.6c0,1.7,0.6,2.3,2.3,2.3c9.6,0,19.3,0,28.9,0
			c1.8,0,2.4-0.6,2.4-2.5V82.8C90.1,76,90.1,69.2,90.1,62.3z M85.5,71.8c-4.1,0-8.2,0-12.2,0c-4,0-8.1,0-12.1,0c-0.8,0-1-0.2-1-1
			c0.1-2,0.1-4.1,0-6.1c0-0.7,0.2-0.9,0.9-0.9c8.2,0,16.3,0,24.5,0c0.7,0,0.9,0.2,0.9,0.9c0,2.1,0,4.2,0,6.2
			C86.4,71.7,86.2,71.8,85.5,71.8z M90.1,62.3c0-1.6-0.6-2.3-2.2-2.3c-9.7,0-19.5,0-29.2,0c-1.6,0-2.2,0.6-2.2,2.3
			c0,3.6,0,7.2,0,10.9c0,1.8,0.6,2.4,2.4,2.4c8.7,0,17.5,0,26.2,0c1,0,1.4,0.1,1.4,1.3c-0.1,7.9,0,15.8,0,23.7
			c0,0.9-0.1,1.2-1.2,1.2c-7.9-0.1-15.9-0.1-23.8,0c-1.1,0-1.2-0.3-1.2-1.3c0-6.3,0-12.6,0-18.9c0-1.6-0.7-2.4-1.9-2.3
			c-1.2,0-1.8,0.8-1.8,2.3c0,7.2,0,14.4,0,21.6c0,1.7,0.6,2.3,2.3,2.3c9.6,0,19.3,0,28.9,0c1.8,0,2.4-0.6,2.4-2.5V82.8
			C90.1,76,90.1,69.2,90.1,62.3z M85.5,71.8c-4.1,0-8.2,0-12.2,0c-4,0-8.1,0-12.1,0c-0.8,0-1-0.2-1-1c0.1-2,0.1-4.1,0-6.1
			c0-0.7,0.2-0.9,0.9-0.9c8.2,0,16.3,0,24.5,0c0.7,0,0.9,0.2,0.9,0.9c0,2.1,0,4.2,0,6.2C86.4,71.7,86.2,71.8,85.5,71.8z M90.1,62.3
			c0-1.6-0.6-2.3-2.2-2.3c-9.7,0-19.5,0-29.2,0c-1.6,0-2.2,0.6-2.2,2.3c0,3.6,0,7.2,0,10.9c0,1.8,0.6,2.4,2.4,2.4
			c8.7,0,17.5,0,26.2,0c1,0,1.4,0.1,1.4,1.3c-0.1,7.9,0,15.8,0,23.7c0,0.9-0.1,1.2-1.2,1.2c-7.9-0.1-15.9-0.1-23.8,0
			c-1.1,0-1.2-0.3-1.2-1.3c0-6.3,0-12.6,0-18.9c0-1.6-0.7-2.4-1.9-2.3c-1.2,0-1.8,0.8-1.8,2.3c0,7.2,0,14.4,0,21.6
			c0,1.7,0.6,2.3,2.3,2.3c9.6,0,19.3,0,28.9,0c1.8,0,2.4-0.6,2.4-2.5V82.8C90.1,76,90.1,69.2,90.1,62.3z M85.5,71.8
			c-4.1,0-8.2,0-12.2,0c-4,0-8.1,0-12.1,0c-0.8,0-1-0.2-1-1c0.1-2,0.1-4.1,0-6.1c0-0.7,0.2-0.9,0.9-0.9c8.2,0,16.3,0,24.5,0
			c0.7,0,0.9,0.2,0.9,0.9c0,2.1,0,4.2,0,6.2C86.4,71.7,86.2,71.8,85.5,71.8z M73.3,15.1c-1.1,0-1.9,0.8-1.8,1.9
			c0,1.1,0.8,1.9,1.9,1.9c1.1,0,1.9-0.8,1.8-1.9C75.1,15.9,74.3,15.1,73.3,15.1z M90.1,62.3c0-1.6-0.6-2.3-2.2-2.3
			c-9.7,0-19.5,0-29.2,0c-1.6,0-2.2,0.6-2.2,2.3c0,3.6,0,7.2,0,10.9c0,1.8,0.6,2.4,2.4,2.4c8.7,0,17.5,0,26.2,0c1,0,1.4,0.1,1.4,1.3
			c-0.1,7.9,0,15.8,0,23.7c0,0.9-0.1,1.2-1.2,1.2c-7.9-0.1-15.9-0.1-23.8,0c-1.1,0-1.2-0.3-1.2-1.3c0-6.3,0-12.6,0-18.9
			c0-1.6-0.7-2.4-1.9-2.3c-1.2,0-1.8,0.8-1.8,2.3c0,7.2,0,14.4,0,21.6c0,1.7,0.6,2.3,2.3,2.3c9.6,0,19.3,0,28.9,0
			c1.8,0,2.4-0.6,2.4-2.5V82.8C90.1,76,90.1,69.2,90.1,62.3z M85.5,71.8c-4.1,0-8.2,0-12.2,0c-4,0-8.1,0-12.1,0c-0.8,0-1-0.2-1-1
			c0.1-2,0.1-4.1,0-6.1c0-0.7,0.2-0.9,0.9-0.9c8.2,0,16.3,0,24.5,0c0.7,0,0.9,0.2,0.9,0.9c0,2.1,0,4.2,0,6.2
			C86.4,71.7,86.2,71.8,85.5,71.8z M90.1,62.3c0-1.6-0.6-2.3-2.2-2.3c-9.7,0-19.5,0-29.2,0c-1.6,0-2.2,0.6-2.2,2.3
			c0,3.6,0,7.2,0,10.9c0,1.8,0.6,2.4,2.4,2.4c8.7,0,17.5,0,26.2,0c1,0,1.4,0.1,1.4,1.3c-0.1,7.9,0,15.8,0,23.7
			c0,0.9-0.1,1.2-1.2,1.2c-7.9-0.1-15.9-0.1-23.8,0c-1.1,0-1.2-0.3-1.2-1.3c0-6.3,0-12.6,0-18.9c0-1.6-0.7-2.4-1.9-2.3
			c-1.2,0-1.8,0.8-1.8,2.3c0,7.2,0,14.4,0,21.6c0,1.7,0.6,2.3,2.3,2.3c9.6,0,19.3,0,28.9,0c1.8,0,2.4-0.6,2.4-2.5V82.8
			C90.1,76,90.1,69.2,90.1,62.3z M85.5,71.8c-4.1,0-8.2,0-12.2,0c-4,0-8.1,0-12.1,0c-0.8,0-1-0.2-1-1c0.1-2,0.1-4.1,0-6.1
			c0-0.7,0.2-0.9,0.9-0.9c8.2,0,16.3,0,24.5,0c0.7,0,0.9,0.2,0.9,0.9c0,2.1,0,4.2,0,6.2C86.4,71.7,86.2,71.8,85.5,71.8z M73.3,15.1
			c-1.1,0-1.9,0.8-1.8,1.9c0,1.1,0.8,1.9,1.9,1.9c1.1,0,1.9-0.8,1.8-1.9C75.1,15.9,74.3,15.1,73.3,15.1z M99.4,14.7
			c-2.5,0-5,0-7.5,0c-1.3,0-1.4-0.2-1.4-1.4c0-1.4,0.1-1.6,1.5-1.6c2.5,0,5,0,7.5,0c4.7,0.1,10-3.8,9.5-9.8c-0.1-1.4-0.5-2-2-2
			C93.3,0,79.6,0,66,0c-1.4,0-2.7,0.4-3.8,1.3c-2.7,2.2-3.8,4.9-3,8.3c0.3,1.4,0.3,1.4-1.1,1.4c-5,0-10-0.1-15,0
			c-8.3,0.2-15,3.7-19.9,10.4c-2.5,3.4-4,7.1-4.3,11.4v6.2c0.2,3.9,1.9,7.4,3.6,10.8c3,5.9,5.9,11.9,8.9,17.7c1.5,2.8,2.1,5.8,2.1,9
			c0,13.4,0,26.9,0,40.3c0,0.5,0,1.1,0,1.6c0.1,1.3,0.9,2.2,2.2,2.3c2.5,0.1,5,0.1,7.5,0c1.3-0.1,2.1-0.9,2.2-2.2c0-0.4,0-0.8,0-1.2
			V74.6c0-0.8-0.1-1.5-0.1-2.2C45,68.6,43.7,65,42,61.6c-3.4-6.7-6.7-13.5-10.1-20.2c-1.1-2.2-1.6-4.6-1.2-7C31.8,27.5,37,23,44,23
			c4.8,0,9.6,0,14.5,0c1.2,0,2.5,0,3.7,0c0.9,0,1.3,0.3,1.3,1.2c0,1.5,0,2.9,0,4.4c0,0.8-0.3,1.1-1.1,1.2c-2.1,0.2-2.6,0.9-2.6,3
			c0,2.4,0,4.7,0,7.1c0,0.9-0.3,1.6-1.1,2.1c-1.5,1-2.8,2.4-4,3.7c-3.9,4.3-6.1,9.4-6.1,15.2c-0.1,19.2,0,38.4,0,57.6
			c0,5.1,2.9,8.6,7.9,9.6h33.4c1.2-0.3,2.5-0.4,3.6-1.1c3-2.1,4.5-4.9,4.5-8.4c0-19.2,0-38.4,0-57.5c0-0.6,0-1.2-0.1-1.7
			C97,52,93.5,46.3,87.8,42c-0.7-0.6-1.1-1.2-1.1-2.1c0-2.3,0-4.7,0-7c0-2.3-0.5-2.8-2.7-3.1c-0.7-0.1-0.9-0.4-1-1
			c-0.2-1.7,0.1-2,1.8-2c7,0,14,0,21,0c0.5,0,1.1,0,1.6-0.1c0.8-0.2,1.5-0.7,1.6-1.5c0.1-1.9,0.1-3.8-1-5.5
			C105.9,16.4,103.2,14.8,99.4,14.7z M40.3,116.8c-2.6-0.1-2.6,0-2.6-2.7v-10.6c0-4,0-8,0-12c0-0.8,0.2-1,1-1c2.7,0,2.7,0,2.7,2.8
			c0,7.4,0,14.9,0,22.3C41.5,116.6,41.3,116.8,40.3,116.8z M61.1,18.9c-2.9,0-5.7,0-8.6,0c-3,0-6,0-9,0c-12.5,0-20.8,13-15.4,24.3
			c3.4,7.1,6.9,14,10.5,21c1.9,3.8,2.9,7.8,2.9,12.1c0,3.2,0,6.3,0,9.5c0,0.8-0.2,1-1,1c-2.7,0-2.7,0-2.7-2.8c0-2.7,0-5.3,0-8
			c0.1-3.6-0.8-7-2.4-10.2C31.9,59,28.4,52.2,25,45.3c-6-12.2,0.5-26.2,13.6-29.6c1.6-0.4,3.3-0.6,4.9-0.6c6.5,0,13,0,19.5,0
			c0.8,0,1.1,0.1,0.9,1c-0.2,0.9,0.4,2.1-0.2,2.6C63.2,19.1,62,18.8,61.1,18.9z M67.7,24.6c3.7,2.4,7.4,2.4,11.2,0
			c0,1.7,0,3.2,0,4.7c0,0.6,0,0.9-0.8,0.9c-3.2,0-6.5,0-9.7,0c-0.6,0-0.8-0.2-0.8-0.8C67.7,27.8,67.7,26.3,67.7,24.6z M73.2,11.4
			c3-0.1,5.7,2.5,5.7,5.6c0,3-2.6,5.7-5.6,5.7c-3,0-5.5-2.5-5.6-5.5C67.6,14.1,70.2,11.4,73.2,11.4z M81.9,33.8
			c0.5,0,0.7,0.1,0.7,0.7c0,1.6,0,3.2,0,4.9c-6.2-2.4-12.4-2.5-18.7,0c0-1.7,0-3.3,0-4.9c0-0.6,0.2-0.7,0.7-0.7
			C70.4,33.8,76.2,33.8,81.9,33.8z M93.7,59.5c0.1,1.4,0.2,2.7,0.2,4.1v54c0,4.4-2.2,6.6-6.6,6.6c-9.4,0-18.8,0-28.2,0
			c-4.1,0-6.4-2.3-6.4-6.4c0-9.3,0-18.6,0-28c0-9.3,0-18.6,0-27.8c0-9.7,6.3-17.7,15.7-20.1C80.2,38.9,92.4,47.4,93.7,59.5z
			 M103.9,22.6c-6.8,0-13.6,0-20.4,0c-0.7,0-0.8-0.2-0.8-0.8c-0.1-2.3,0.3-4.6-0.2-6.8c-0.8-3.6-3.1-6-6.6-7c-3.5-1-6.7-0.2-9.2,2.5
			c-0.8,0.9-1.4,0.6-2.1,0.1c-1.2-0.9-1.7-2.5-1.3-3.9c0.4-1.5,1.7-2.6,3.3-2.8c0.2,0,0.5,0,0.7,0c12.1,0,24.3,0,36.4,0h0.9
			c-0.6,2.3-2.7,3.7-5.4,3.7c-3.5,0-7,0-10.5,0c-1.6,0-2.3,0.6-2.3,2.2c0,2.2,0,4.5,0,6.7c0,1.6,0.6,2.3,2.2,2.3c3.5,0,7,0,10.5,0
			c2.3,0,4.1,0.9,5.3,2.9C104.7,22.4,104.7,22.6,103.9,22.6z M56.4,62.3c0,3.6,0,7.2,0,10.9c0,1.8,0.6,2.4,2.4,2.4
			c8.7,0,17.5,0,26.2,0c1,0,1.4,0.1,1.4,1.3c-0.1,7.9,0,15.8,0,23.7c0,0.9-0.1,1.2-1.2,1.2c-7.9-0.1-15.9-0.1-23.8,0
			c-1.1,0-1.2-0.3-1.2-1.3c0-6.3,0-12.6,0-18.9c0-1.6-0.7-2.4-1.9-2.3c-1.2,0-1.8,0.8-1.8,2.3c0,7.2,0,14.4,0,21.6
			c0,1.7,0.6,2.3,2.3,2.3c9.6,0,19.3,0,28.9,0c1.8,0,2.4-0.6,2.4-2.5V82.8c0-6.8,0-13.7,0-20.5c0-1.6-0.6-2.3-2.2-2.3
			c-9.7,0-19.5,0-29.2,0C57.1,60.1,56.4,60.7,56.4,62.3z M60.2,70.8c0.1-2,0.1-4.1,0-6.1c0-0.7,0.2-0.9,0.9-0.9c8.2,0,16.3,0,24.5,0
			c0.7,0,0.9,0.2,0.9,0.9c0,2.1,0,4.2,0,6.2c0,0.7-0.2,0.9-0.9,0.9c-4.1,0-8.2,0-12.2,0c-4,0-8.1,0-12.1,0
			C60.4,71.8,60.1,71.6,60.2,70.8z M73.3,18.9c1.1,0,1.9-0.8,1.8-1.9c0-1.1-0.8-1.9-1.9-1.8c-1.1,0-1.9,0.8-1.8,1.9
			C71.4,18.1,72.2,18.9,73.3,18.9z M90.1,62.3c0-1.6-0.6-2.3-2.2-2.3c-9.7,0-19.5,0-29.2,0c-1.6,0-2.2,0.6-2.2,2.3
			c0,3.6,0,7.2,0,10.9c0,1.8,0.6,2.4,2.4,2.4c8.7,0,17.5,0,26.2,0c1,0,1.4,0.1,1.4,1.3c-0.1,7.9,0,15.8,0,23.7
			c0,0.9-0.1,1.2-1.2,1.2c-7.9-0.1-15.9-0.1-23.8,0c-1.1,0-1.2-0.3-1.2-1.3c0-6.3,0-12.6,0-18.9c0-1.6-0.7-2.4-1.9-2.3
			c-1.2,0-1.8,0.8-1.8,2.3c0,7.2,0,14.4,0,21.6c0,1.7,0.6,2.3,2.3,2.3c9.6,0,19.3,0,28.9,0c1.8,0,2.4-0.6,2.4-2.5V82.8
			C90.1,76,90.1,69.2,90.1,62.3z M85.5,71.8c-4.1,0-8.2,0-12.2,0c-4,0-8.1,0-12.1,0c-0.8,0-1-0.2-1-1c0.1-2,0.1-4.1,0-6.1
			c0-0.7,0.2-0.9,0.9-0.9c8.2,0,16.3,0,24.5,0c0.7,0,0.9,0.2,0.9,0.9c0,2.1,0,4.2,0,6.2C86.4,71.7,86.2,71.8,85.5,71.8z M90.1,62.3
			c0-1.6-0.6-2.3-2.2-2.3c-9.7,0-19.5,0-29.2,0c-1.6,0-2.2,0.6-2.2,2.3c0,3.6,0,7.2,0,10.9c0,1.8,0.6,2.4,2.4,2.4
			c8.7,0,17.5,0,26.2,0c1,0,1.4,0.1,1.4,1.3c-0.1,7.9,0,15.8,0,23.7c0,0.9-0.1,1.2-1.2,1.2c-7.9-0.1-15.9-0.1-23.8,0
			c-1.1,0-1.2-0.3-1.2-1.3c0-6.3,0-12.6,0-18.9c0-1.6-0.7-2.4-1.9-2.3c-1.2,0-1.8,0.8-1.8,2.3c0,7.2,0,14.4,0,21.6
			c0,1.7,0.6,2.3,2.3,2.3c9.6,0,19.3,0,28.9,0c1.8,0,2.4-0.6,2.4-2.5V82.8C90.1,76,90.1,69.2,90.1,62.3z M85.5,71.8
			c-4.1,0-8.2,0-12.2,0c-4,0-8.1,0-12.1,0c-0.8,0-1-0.2-1-1c0.1-2,0.1-4.1,0-6.1c0-0.7,0.2-0.9,0.9-0.9c8.2,0,16.3,0,24.5,0
			c0.7,0,0.9,0.2,0.9,0.9c0,2.1,0,4.2,0,6.2C86.4,71.7,86.2,71.8,85.5,71.8z M90.1,62.3c0-1.6-0.6-2.3-2.2-2.3c-9.7,0-19.5,0-29.2,0
			c-1.6,0-2.2,0.6-2.2,2.3c0,3.6,0,7.2,0,10.9c0,1.8,0.6,2.4,2.4,2.4c8.7,0,17.5,0,26.2,0c1,0,1.4,0.1,1.4,1.3
			c-0.1,7.9,0,15.8,0,23.7c0,0.9-0.1,1.2-1.2,1.2c-7.9-0.1-15.9-0.1-23.8,0c-1.1,0-1.2-0.3-1.2-1.3c0-6.3,0-12.6,0-18.9
			c0-1.6-0.7-2.4-1.9-2.3c-1.2,0-1.8,0.8-1.8,2.3c0,7.2,0,14.4,0,21.6c0,1.7,0.6,2.3,2.3,2.3c9.6,0,19.3,0,28.9,0
			c1.8,0,2.4-0.6,2.4-2.5V82.8C90.1,76,90.1,69.2,90.1,62.3z M85.5,71.8c-4.1,0-8.2,0-12.2,0c-4,0-8.1,0-12.1,0c-0.8,0-1-0.2-1-1
			c0.1-2,0.1-4.1,0-6.1c0-0.7,0.2-0.9,0.9-0.9c8.2,0,16.3,0,24.5,0c0.7,0,0.9,0.2,0.9,0.9c0,2.1,0,4.2,0,6.2
			C86.4,71.7,86.2,71.8,85.5,71.8z M90.1,62.3c0-1.6-0.6-2.3-2.2-2.3c-9.7,0-19.5,0-29.2,0c-1.6,0-2.2,0.6-2.2,2.3
			c0,3.6,0,7.2,0,10.9c0,1.8,0.6,2.4,2.4,2.4c8.7,0,17.5,0,26.2,0c1,0,1.4,0.1,1.4,1.3c-0.1,7.9,0,15.8,0,23.7
			c0,0.9-0.1,1.2-1.2,1.2c-7.9-0.1-15.9-0.1-23.8,0c-1.1,0-1.2-0.3-1.2-1.3c0-6.3,0-12.6,0-18.9c0-1.6-0.7-2.4-1.9-2.3
			c-1.2,0-1.8,0.8-1.8,2.3c0,7.2,0,14.4,0,21.6c0,1.7,0.6,2.3,2.3,2.3c9.6,0,19.3,0,28.9,0c1.8,0,2.4-0.6,2.4-2.5V82.8
			C90.1,76,90.1,69.2,90.1,62.3z M85.5,71.8c-4.1,0-8.2,0-12.2,0c-4,0-8.1,0-12.1,0c-0.8,0-1-0.2-1-1c0.1-2,0.1-4.1,0-6.1
			c0-0.7,0.2-0.9,0.9-0.9c8.2,0,16.3,0,24.5,0c0.7,0,0.9,0.2,0.9,0.9c0,2.1,0,4.2,0,6.2C86.4,71.7,86.2,71.8,85.5,71.8z"/>
		<path d="M90.1,62.3c0-1.6-0.6-2.3-2.2-2.3c-9.7,0-19.5,0-29.2,0c-1.6,0-2.2,0.6-2.2,2.3c0,3.6,0,7.2,0,10.9c0,1.8,0.6,2.4,2.4,2.4
			c8.7,0,17.5,0,26.2,0c1,0,1.4,0.1,1.4,1.3c-0.1,7.9,0,15.8,0,23.7c0,0.9-0.1,1.2-1.2,1.2c-7.9-0.1-15.9-0.1-23.8,0
			c-1.1,0-1.2-0.3-1.2-1.3c0-6.3,0-12.6,0-18.9c0-1.6-0.7-2.4-1.9-2.3c-1.2,0-1.8,0.8-1.8,2.3c0,7.2,0,14.4,0,21.6
			c0,1.7,0.6,2.3,2.3,2.3c9.6,0,19.3,0,28.9,0c1.8,0,2.4-0.6,2.4-2.5V82.8C90.1,76,90.1,69.2,90.1,62.3z M85.5,71.8
			c-4.1,0-8.2,0-12.2,0c-4,0-8.1,0-12.1,0c-0.8,0-1-0.2-1-1c0.1-2,0.1-4.1,0-6.1c0-0.7,0.2-0.9,0.9-0.9c8.2,0,16.3,0,24.5,0
			c0.7,0,0.9,0.2,0.9,0.9c0,2.1,0,4.2,0,6.2C86.4,71.7,86.2,71.8,85.5,71.8z"/>
		<path d="M75.2,17c0,1.1-0.8,1.9-1.8,1.9c-1.1,0-1.9-0.8-1.9-1.9c0-1.1,0.8-1.9,1.8-1.9C74.3,15.1,75.1,15.9,75.2,17z"/>
		<path d="M90.1,62.3c0-1.6-0.6-2.3-2.2-2.3c-9.7,0-19.5,0-29.2,0c-1.6,0-2.2,0.6-2.2,2.3c0,3.6,0,7.2,0,10.9c0,1.8,0.6,2.4,2.4,2.4
			c8.7,0,17.5,0,26.2,0c1,0,1.4,0.1,1.4,1.3c-0.1,7.9,0,15.8,0,23.7c0,0.9-0.1,1.2-1.2,1.2c-7.9-0.1-15.9-0.1-23.8,0
			c-1.1,0-1.2-0.3-1.2-1.3c0-6.3,0-12.6,0-18.9c0-1.6-0.7-2.4-1.9-2.3c-1.2,0-1.8,0.8-1.8,2.3c0,7.2,0,14.4,0,21.6
			c0,1.7,0.6,2.3,2.3,2.3c9.6,0,19.3,0,28.9,0c1.8,0,2.4-0.6,2.4-2.5V82.8C90.1,76,90.1,69.2,90.1,62.3z M85.5,71.8
			c-4.1,0-8.2,0-12.2,0c-4,0-8.1,0-12.1,0c-0.8,0-1-0.2-1-1c0.1-2,0.1-4.1,0-6.1c0-0.7,0.2-0.9,0.9-0.9c8.2,0,16.3,0,24.5,0
			c0.7,0,0.9,0.2,0.9,0.9c0,2.1,0,4.2,0,6.2C86.4,71.7,86.2,71.8,85.5,71.8z"/>
		<path d="M75.2,17c0,1.1-0.8,1.9-1.8,1.9c-1.1,0-1.9-0.8-1.9-1.9c0-1.1,0.8-1.9,1.8-1.9C74.3,15.1,75.1,15.9,75.2,17z"/>
	</g>
</g>
</svg>
