<?xml version="1.0" encoding="utf-8"?>
<!-- Generator: Adobe Illustrator 28.0.0, SVG Export Plug-In . SVG Version: 6.00 Build 0)  -->
<svg version="1.1" id="Layer_1" xmlns="http://www.w3.org/2000/svg" xmlns:xlink="http://www.w3.org/1999/xlink" x="0px" y="0px"
	 viewBox="0 0 128 128" style="enable-background:new 0 0 128 128;" xml:space="preserve">
<g id="pMrSfo.tif">
	<g>
		<path d="M67,14.2c0.1,1.7-1.3,3-3.4,3.1c-10.3,0.3-18.9,6.8-21.9,16.5c-0.6,2-1,4-1,6.1c0,2.4-1.2,3.8-3,3.8c-1.9,0-3-1.5-2.9-3.9
			c0.3-13.7,10.7-25.7,24.2-28c1.5-0.3,3.1-0.5,4.6-0.5C65.6,11.3,66.9,12.4,67,14.2z"/>
		<path d="M106.1,35.9C102.4,15.3,84.6,1.1,65.2,0.2C64.4,0,63.7,0.3,62.9,0h-0.3c-1.9,0.3-3.9,0.2-5.8,0.5
			c-9.2,1.8-17.2,6.1-23.6,12.9C25.6,21.6,21.1,31,21.1,42.3v0.3c0,1-0.1,2,0.1,3c0.1,3.5,0.7,7,1.6,10.4c2.5,8.7,7.2,16,14.1,21.9
			c3.5,3,6,6.7,6.7,11.3c0.6,3.9,1.5,7.9,1.3,11.9c-0.1,2.2,0,4.3,0,6.4c0,2.7,0.7,5.3,3,6.8c2,1.3,2.2,2.9,2.2,5
			c0,4.3,3.3,8,7.6,8.5c4.1,0.4,8.1,0.4,12.2,0c4.4-0.3,7.3-3.3,8-7.6c0.2-1,0.1-2.1,0.1-3.2c0-0.7,0.2-1.2,0.9-1.6
			c2.4-1.4,3.9-3.6,4.1-6.4c0.5-5.7-0.3-11.4,1-17c0.2-1,0.2-2.1,0.5-3.1c1.2-5,4.2-8.6,7.9-12C104.2,65.7,108.9,51.9,106.1,35.9z
			 M71.4,120.8c-0.6,0.8-1.5,1.1-2.5,1.1c-1.6,0-3.3,0-4.9,0c-1.6,0-3.2,0-4.8,0c-2.4,0-4.1-2.8-3.1-5c0.2-0.4,0.5-0.3,0.8-0.3h14.4
			c0.3,0,0.8-0.2,0.8,0.3C72,118.3,72.4,119.7,71.4,120.8z M77.2,107.6c0,2-1.2,3.1-3.2,3.1H54.2c-2.2,0-3.3-1.1-3.3-3.4
			c0-1.6,0-3.1,0-4.7c0-0.7,0.2-0.9,0.9-0.7c0.7,0.2,1.4,0.2,2,0.2h20.5c0.3,0,0.6,0,0.8,0c0.7,0,1.3-0.1,2-0.2
			c0,0.8,0.1,1.6,0.1,2.3V107.6z M87.7,73c-4.1,3.6-7.1,7.9-8.6,13.2c-0.6,2.1-1,4.2-1,6.5c0,2.4-1.1,3.4-3.5,3.4c-3.5,0-7,0-10.4,0
			c-3.6,0-7.2,0-10.8,0c-2,0-3.1-1.1-3.2-3.1c-0.2-8-3.4-14.6-9.4-19.8c-6.4-5.6-10.9-12.5-12.6-20.9C25,37,29.6,24.2,41.6,14.2
			c6.2-5.1,13.6-7.9,21.6-8.1c8-0.2,15.3,2.3,21.8,7c9,6.6,14.5,15.4,15.6,26.5C102.1,53,97.6,64.1,87.7,73z"/>
		<path d="M65.2,0.2c-0.7-0.1-1.5,0.3-2.2-0.2c0.7,0,1.5,0,2.2,0C65.2,0.1,65.2,0.1,65.2,0.2z"/>
		<path d="M67,14.2c0.1,1.7-1.3,3-3.4,3.1c-10.3,0.3-18.9,6.8-21.9,16.5c-0.6,2-1,4-1,6.1c0,2.4-1.2,3.8-3,3.8c-1.9,0-3-1.5-2.9-3.9
			c0.3-13.7,10.7-25.7,24.2-28c1.5-0.3,3.1-0.5,4.6-0.5C65.6,11.3,66.9,12.4,67,14.2z"/>
		<path d="M67,14.2c0.1,1.7-1.3,3-3.4,3.1c-10.3,0.3-18.9,6.8-21.9,16.5c-0.6,2-1,4-1,6.1c0,2.4-1.2,3.8-3,3.8c-1.9,0-3-1.5-2.9-3.9
			c0.3-13.7,10.7-25.7,24.2-28c1.5-0.3,3.1-0.5,4.6-0.5C65.6,11.3,66.9,12.4,67,14.2z"/>
	</g>
</g>
</svg>
