<?xml version="1.0" encoding="utf-8"?>
<!-- Generator: Adobe Illustrator 28.0.0, SVG Export Plug-In . SVG Version: 6.00 Build 0)  -->
<svg version="1.1" id="Layer_1" xmlns="http://www.w3.org/2000/svg" xmlns:xlink="http://www.w3.org/1999/xlink" x="0px" y="0px"
	 viewBox="0 0 128 128" style="enable-background:new 0 0 128 128;" xml:space="preserve">
<g>
	<g>
		<g>
			<path d="M118.5,18.3c1,1,2.3,1.5,3.5,1.5c1.3,0,2.6-0.5,3.5-1.5c3.2-3.2,3.2-8.3,0-11.5l-4.4-4.4c-1.5-1.5-3.6-2.4-5.8-2.4
				c-2.2,0-4.2,0.8-5.8,2.4c-2,2-2,5.1,0,7.1l3.1,3.1l-6.2,6.2l-0.9-0.9c-2-2-5.1-2-7.1,0l-1.8,1.8c-10.4-5.4-23.3-3.4-31.7,5.1
				l-59,59C2.2,87.7,0,92.9,0,98.4c0,5.5,2.2,10.7,6.1,14.6l8.9,8.9c4,4,9.3,6.1,14.6,6.1c5.3,0,10.6-2,14.6-6.1l59.2-59.2
				c8.4-8.4,10.3-21.1,4.9-31.5l1.8-1.8c2-2,2-5.1,0-7.1l-0.9-0.9l1.7-1.7l5.6,5.6l-0.3,0.2c-0.8,0.7-0.8,1.9-0.2,2.6
				c0.4,0.4,0.9,0.6,1.4,0.6c0.4,0,0.9-0.2,1.2-0.5l3.5-3.1c0.8-0.7,0.8-1.9,0.2-2.6c-0.7-0.8-1.9-0.8-2.6-0.2l-0.4,0.4l-5.8-5.8
				l1.9-1.9L118.5,18.3z M101,28.6l3.5,3.4c5.2,9.1,3.7,20.6-3.7,28l-5,5L76.9,46.2c-0.7-0.7-1.9-0.7-2.7,0c-0.7,0.7-0.7,1.9,0,2.7
				l18.9,18.9L47,113.9L28.1,95c-0.7-0.7-1.9-0.7-2.7,0c-0.7,0.7-0.7,1.9,0,2.7l18.9,18.9l-2.8,2.8c-6.6,6.6-17.4,6.6-24,0l-8.9-8.9
				c-3.2-3.2-5-7.5-5-12s1.8-8.8,5-12l2.8-2.8l8.7,8.7c0.7,0.7,1.9,0.7,2.7,0c0.7-0.7,0.7-1.9,0-2.7c0,0,0,0,0,0L14.1,81l46.2-46.2
				c10,10,8.5,8.5,8.7,8.7c0.7,0.7,1.8,0.7,2.5,0.1c0.9-0.7,0.9-2,0.1-2.8c0,0,0,0,0,0l-8.7-8.7l4.8-4.8c7.6-7.6,19.3-9.2,28.4-3.8
				c0,0,0,0,0,0c0.7,0.4,1.6,0.3,2.2-0.3c0,0,0,0,0,0l2.8-2.8c0.5-0.5,1.3-0.5,1.8,0l4.4,4.4c0.5,0.5,0.5,1.3,0,1.8l-1.5,1.5
				l-2.3-2.3c-0.7-0.7-1.9-0.7-2.7,0C100.3,26.7,100.3,27.9,101,28.6z M112.3,6.8c-0.5-0.5-0.5-1.3,0-1.8c0.8-0.8,1.9-1.3,3.1-1.3
				s2.3,0.5,3.1,1.3l4.4,4.4c1.7,1.7,1.7,4.5,0,6.2c-0.5,0.5-1.3,0.5-1.8,0L112.3,6.8z"/>
		</g>
	</g>
	<g>
		<path d="M39.6,72.3c-0.1-0.1-0.1-0.2-0.1-0.4c0-0.2,0-0.3,0.2-0.4c0,0,0.1-0.1,0.2-0.1l16.3-7.2c0.2-0.1,0.3-0.1,0.5-0.1
			c0.2,0,0.4,0.1,0.6,0.3l2,2c0.2,0.2,0.3,0.4,0.3,0.6c0,0.2,0,0.4-0.1,0.5l-7.6,16.2c0,0.1-0.1,0.1-0.1,0.2
			c-0.1,0.1-0.2,0.2-0.4,0.2c-0.1,0-0.3-0.1-0.4-0.2l-1.6-1.6C49.1,82,49,81.9,49,81.7c0-0.2,0-0.3,0.1-0.4l1.4-3.1l-5.4-5.5
			L42,74.1c-0.1,0-0.2,0.1-0.4,0.1c-0.2,0-0.3-0.1-0.5-0.3L39.6,72.3z M47.9,71.3l4.1,4.2l3.7-7.7L47.9,71.3z"/>
		<path d="M53.1,86.2C53,86,53,85.9,53,85.7c0-0.2,0.1-0.3,0.2-0.4l8.7-8.5c0.1-0.1,0.3-0.2,0.5-0.2c0.2,0,0.3,0.1,0.4,0.2l1.5,1.5
			c0.1,0.1,0.2,0.3,0.2,0.5c0,0.2-0.1,0.3-0.2,0.5l-0.8,0.7c0.7-0.1,1.3,0,2,0.2c0.7,0.2,1.3,0.7,1.8,1.3l0.7,0.8
			c0.1,0.1,0.2,0.3,0.2,0.5c0,0.2-0.1,0.3-0.2,0.4l-1.3,1.3c-0.1,0.1-0.3,0.2-0.4,0.2c-0.2,0-0.3-0.1-0.4-0.2l-1.4-1.4
			c-0.6-0.6-1.2-0.9-1.8-0.9c-0.6,0-1.3,0.3-1.9,0.9l-5.1,5c-0.1,0.1-0.3,0.2-0.4,0.2c-0.2,0-0.3-0.1-0.5-0.2L53.1,86.2z"/>
	</g>
</g>
</svg>
