<?xml version="1.0" encoding="utf-8"?>
<!-- Generator: Adobe Illustrator 28.0.0, SVG Export Plug-In . SVG Version: 6.00 Build 0)  -->
<svg version="1.1" id="Layer_1" xmlns="http://www.w3.org/2000/svg" xmlns:xlink="http://www.w3.org/1999/xlink" x="0px" y="0px"
	 viewBox="0 0 128 128" style="enable-background:new 0 0 128 128;" xml:space="preserve">
<g id="r060Ik.tif">
	<g>
		<path d="M99.7,117.9c-1.4-0.6-1.9-1.4-1.8-2.8c0.1-1.2,1-1.9,2.3-2.2c11.8-2.4,19.2-9.4,22.3-21c0.1-0.6,0.3-1.1,0.4-1.7
			c0.2-1.3,0.9-2.1,2.1-2.3c1.2-0.2,2.1,0.3,2.7,1.4c0.1,0.1,0.2,0.2,0.2,0.3c0,0.7,0,1.3,0,2c-0.9,7-4.3,12.8-9.2,17.7
			c-4.1,4.1-9.1,6.8-14.7,8.3c-1,0.3-2.1,0.4-3.2,0.4C100.5,118,100.1,118.1,99.7,117.9z"/>
		<path d="M101,118c0,0.1,0,0.1,0,0.2c-0.4,0-0.8,0-1.2,0c0-0.1,0-0.2,0-0.2C100.2,118,100.6,118,101,118z"/>
		<path d="M53.6,41.2c0,1.4-1.2,2.5-2.5,2.5c-1.3,0-2.5-1.3-2.5-2.6c0-1.4,1.2-2.5,2.6-2.5C52.5,38.7,53.6,39.8,53.6,41.2z"/>
		<path d="M103.3,82.6c-0.9-1-1.9-2-2.9-2.9c-0.4-0.4-0.4-0.6,0-1c2.1-2.5,2.2-4.2,0.5-7c-4.4-7.5-8.7-15-13.1-22.5
			c-0.3-0.5-0.6-0.9-0.9-1.3c-7.7-7.7-15.3-15.4-23.1-23c-4.3-4.2-10.3-4.9-15.6-2.4c-2.4,1.1-4.1,3.1-5.9,4.9
			c-0.5,0.5-0.8,0.6-1.3,0c-0.8-0.9-1.8-1.8-2.6-2.7c-4-4-8-8-12-12c-2.6-2.5-5.6-3.5-9.1-2.6c-4.4,1.1-7.2,4.7-7.2,9.4
			c0,8.9-0.1,17.8,0,26.7c0.1,4.8-3.1,8.1-7.4,8.4c-1.8,0.1-2.8,1.2-2.6,2.8c0.1,1.4,1.3,2.3,3.1,2.2C9.4,59.5,14.9,54,15,47.6
			c0-4.6,0-9.2,0-13.7c0,0,0,0,0,0c0-4.6,0-9.2,0-13.9c0-2.2,0.7-3.9,2.8-4.7c2-0.8,3.8-0.1,5.3,1.4c4.1,4.2,8.3,8.3,12.4,12.5
			c0.8,0.8,2.2,1.7,2.2,2.5c0,0.9-1.4,1.7-2.3,2.5c-6,6-6,14.3,0,20.3c7.3,7.3,14.7,14.7,22,22c0.5,0.5,1,0.9,1.6,1.2
			c7.7,4.5,15.3,9,23,13.4c2.4,1.4,4.5,1.2,6.6-0.7c0.5-0.5,0.8-0.3,1.1,0.1c1,1,1.9,2,2.9,2.9c2.1,2,4.9,2,7.1,0
			c1.2-1.1,2.4-2.3,3.5-3.5C105.4,87.7,105.3,84.8,103.3,82.6z M59.2,71c-5.7-5.7-11.4-11.4-17.3-17.3c0.9-0.8,1.8-1.6,2.6-2.5
			c1.4-1.4,1.5-2.8,0.4-3.9c-1.1-1.1-2.6-1-3.9,0.3c-0.9,0.9-1.7,1.8-2.5,2.6c-3.2-3.5-3.3-8.5-0.1-11.8c3.3-3.4,6.6-6.7,10-10
			c3-2.9,7.7-3.1,11-0.6c0.7,0.5,0.7,0.8,0.1,1.4c-0.8,0.7-1.4,1.4-2.1,2.1c-1.1,1.2-1.1,2.7-0.1,3.7c1,1,2.5,1,3.7-0.1
			c0.8-0.7,1.5-1.4,2.2-2.2c0.5-0.5,0.7-0.5,1.3,0c5.7,5.7,11.4,11.4,17.2,17.2c-2.9,2.9-5.7,5.6-8.4,8.4c-0.6,0.6-0.9,0.5-1.4-0.1
			c-1.7-1.7-3.3-3.4-5-5c-1.3-1.3-2.9-1.4-3.9-0.3c-1.1,1.1-0.9,2.5,0.4,3.8c1.7,1.7,3.4,3.4,5.1,5.1c0.4,0.4,0.6,0.7,0.1,1.3
			c-2.7,2.6-5.3,5.3-7.9,7.9C59.9,71.5,59.6,71.4,59.2,71z M85.5,86.4c-0.3,0.3-0.6,0.6-1.1,0.2c-6.7-4-13.4-7.9-20.2-11.8
			c-0.1,0-0.1-0.1-0.1-0.1C71,67.9,77.8,61,84.7,54.2c3.9,6.6,7.8,13.4,11.8,20.1c0.3,0.6,0.3,0.9-0.2,1.4
			C92.7,79.2,89.1,82.8,85.5,86.4z M99.3,86.7c-1,1-1.9,2.6-3.1,2.8c-1,0.2-1.9-1.6-2.9-2.5c-0.2-0.2-0.4-0.4-0.8-0.7
			c1.1-1,2.1-2,3.1-3c0.4-0.4,0.6-0.4,1,0c0.8,0.9,1.7,1.7,2.6,2.6C99.6,86.1,99.7,86.4,99.3,86.7z"/>
		<path d="M99.1,108.2c-1.5,0-2.5-0.9-2.7-2.2c-0.2-1.3,0.6-2.5,2-2.7c3.5-0.7,6.7-2.1,9.4-4.6c2.8-2.6,4.5-5.9,5.3-9.6
			c0.4-1.8,1.5-2.8,3-2.5c1.5,0.2,2.2,1.5,2,3.3c-1.3,8.7-8.7,16.4-17.6,18.1C99.9,108,99.5,108.3,99.1,108.2z"/>
		<path d="M53.6,41.2c0,1.4-1.2,2.5-2.5,2.5c-1.3,0-2.5-1.3-2.5-2.6c0-1.4,1.2-2.5,2.6-2.5C52.5,38.7,53.6,39.8,53.6,41.2z"/>
		<path d="M53.6,41.2c0,1.4-1.2,2.5-2.5,2.5c-1.3,0-2.5-1.3-2.5-2.6c0-1.4,1.2-2.5,2.6-2.5C52.5,38.7,53.6,39.8,53.6,41.2z"/>
	</g>
</g>
</svg>
