<?xml version="1.0" encoding="utf-8"?>
<!-- Generator: Adobe Illustrator 28.0.0, SVG Export Plug-In . SVG Version: 6.00 Build 0)  -->
<svg version="1.1" id="Layer_1" xmlns="http://www.w3.org/2000/svg" xmlns:xlink="http://www.w3.org/1999/xlink" x="0px" y="0px"
	 viewBox="0 0 128 128" style="enable-background:new 0 0 128 128;" xml:space="preserve">
<g id="lMa1TJ.tif">
	<g>
		<path d="M126.4,13.3c-1.8-1.4-3.8-2.5-5.9-3.4c-0.7-0.3-0.8-0.6-0.5-1.3c0.9-1.7,0.5-3.3-1.1-4.3c-2-1.2-4-2.1-6.4-1.9
			c0,0,0,0-0.1,0c-0.6-0.1-1.1,0.1-1.7-0.1h-0.5c-0.1,0.3-0.4,0.2-0.6,0.3c-4.6,1-7.8,3.5-9.4,7.9c-0.3,0.2-0.3-0.1-0.5-0.2
			c-0.5-1.6-1.5-2.4-3.3-2.4c-7.5-0.3-15.1-0.5-22.6-0.8c-3.1-0.1-4,0.8-4.1,3.9c0,0.5-0.1,0.6-0.6,0.7c-5.5,0.5-10.9,1.1-16.4,1.5
			c-5.9,0.4-10.1,3.1-12.5,8.6c-1.9,4.5-3.8,9-5.7,13.5c-0.2,0.6-0.5,0.8-1.2,0.8c-1.9-0.1-3.5,0.7-4.2,2.5c-1.8,4-3.4,8.1-5.1,12.1
			c-0.4,1,0.1,2,1,2.4c0.9,0.4,1.9,0.1,2.5-0.8c0.1-0.3,0.2-0.5,0.4-0.8c1.5-3.5,3-7,4.4-10.5c0.4-0.9,0.9-1.1,1.7-0.9
			c3,0.6,5.9,1.3,8.9,1.9c1.4,0.3,1.4,0.4,0.9,1.7c-2,4.8-4.1,9.7-6.1,14.5c-5.3,12.6-10.6,25.2-15.9,37.8c-0.4,1-0.9,1.3-1.9,1
			c-2.9-0.7-5.8-1.3-8.8-1.8c-1.1-0.2-1.3-0.6-0.9-1.7c4.8-11.3,9.6-22.7,14.3-34c0.6-1.4,0.2-2.5-0.8-2.9c-1.1-0.4-2.1,0.1-2.7,1.5
			c-0.9,2.2-1.8,4.4-2.7,6.5c-3.8,9.1-7.7,18.2-11.5,27.4c-0.9,2.1-0.9,4.1,0.8,5.7c0.5,0.5,0.3,0.8,0.1,1.2
			c-1.2,2.8-2.4,5.6-3.5,8.3c-0.9,2.1-0.6,4.1,0.8,5.9c0.4,0.5,0.4,0.8,0.1,1.4c-1.5,2.7-2.9,5.5-4.4,8.2c-0.7,1.4-0.5,2.5,0.6,3
			c1,0.5,2.1,0.1,2.8-1.3c1.5-2.8,3-5.6,4.5-8.3c0.2-0.4,0.3-0.8,0.9-0.8c2.8-0.1,4.6-1.6,5.6-4.2c1.3-3.2,2.6-6.3,4-9.4
			c0.2-0.4,0.2-0.9,1-0.8c2.7,0.3,4.2-0.7,5.2-3.2c2.6-6.3,5.3-12.5,7.9-18.8c0.3-0.7,0.6-1,1.3-1.2c3-0.9,5.9-1.9,8.9-2.7
			c1.7-0.5,2.7-1.5,3-3.3c1-5.2,2-10.4,3-15.6c0.3-1.5-0.6-3-2.1-3.5c-0.6-0.2-1.2-0.4-1.8-0.4c-0.8-0.1-1-0.3-0.6-1.1
			c0.9-2.1,1.8-4.3,2.7-6.4c0.8-1.9,0.4-3.8-1.1-5.1c-0.6-0.6-0.6-1-0.3-1.7c1.6-3.7,3.2-7.4,4.8-11.2c0.5-1.3,1.4-1.7,2.7-1.8
			c5.3-0.5,10.7-0.9,16-1.5c0.9-0.1,1.4,0,1.5,1.1c0.3,2.1,1.9,3.1,3.9,2.7c6.9-1.5,13.7-2.9,20.5-4.4c2-0.4,4.2-0.4,5.1-2.9
			c3.3,6.2,9.1,8.6,16,5.8c1.8-0.7,2.3-2.9,1.1-4.4c-0.3-0.4-0.8-0.7-0.9-1.3c2.4-0.5,4.7-0.8,7.1-0.4c1.9,0.3,3.2-0.2,4.1-1.8v-1.8
			C127.8,14.6,127.2,13.9,126.4,13.3z M15.1,100.4c-1.4,3.3-2.8,6.5-4.2,9.8c-0.3,0.7-0.9,1-1.7,1.1c-1.3,0-2.3-1.3-1.9-2.5
			c1.2-3.1,2.6-6.2,3.9-9.3c0.1-0.3,0.3-0.5,0.6-0.5c1,0.2,2,0.5,3,0.7C15.3,99.8,15.3,100.1,15.1,100.4z M45,57.3
			c-0.9,4.3-1.7,8.6-2.5,12.9c-0.1,0.5-0.3,0.8-0.8,0.9c-2.1,0.6-4.1,1.3-6.4,2c2.1-5,4.1-9.8,6.1-14.5c0.4-0.8,0.8-1.7,1.1-2.5
			c0.2-0.7,0.6-0.8,1.4-0.7C45.1,55.6,45.3,56,45,57.3z M69.7,19.3c-5.8,0.5-11.5,1-17.3,1.5c-2.3,0.2-4,1.4-5,3.6
			c-1.7,4-3.5,8-5.2,12.1c-0.3,0.8-0.6,1.2-1.6,0.9c-0.8-0.3-2.2-0.1-2.5-0.7c-0.3-0.5,0.5-1.6,0.8-2.5c1.5-3.5,3.1-6.9,4.4-10.4
			c1.8-4.6,5.2-6.7,10-7c5.3-0.4,10.5-0.9,15.8-1.4c0.7-0.1,1,0.1,1,0.8c0,0.8,0.1,1.6,0.1,2.2C70.6,19.2,70.2,19.3,69.7,19.3z
			 M96,18.4c-6.9,1.4-13.7,2.9-20.5,4.5c-0.7,0.2-0.9,0-1-0.7c-0.3-3.6-0.6-7.1-1-10.7c-0.1-1,0.5-0.6,0.9-0.6
			c3.4,0.1,6.8,0.3,10.2,0.4v0.3c3.5,0,6.9,0,10.4,0c0.9,0,1.2,0.3,1.2,1.2c0,1.5,0.3,3.1,0.4,4.6C96.8,18,96.7,18.2,96,18.4z
			 M113.6,16.3c-2.1,0.6-2.6,1.7-1.5,3.6c0.5,0.8,1,1.5,1.6,2.4c-4.4,0.9-7.5-0.3-9.4-3.6c-1.8-3.1-1.3-7.1,1.1-9.7
			c2.4-2.6,6.1-3.4,9-2c-0.8,0.5-1.7,1.1-2.5,1.6c-0.7,0.5-1,1.2-0.8,2.1c0.2,0.8,0.8,1.3,1.7,1.4c2.7,0.4,5.3,1.1,7.7,2.4
			c0.3,0.2,0.8,0.3,1,0.8C118.9,15.3,116.2,15.6,113.6,16.3z"/>
		<path d="M112.5,2.3c0,0.1,0,0.2,0,0.2c-0.6-0.1-1.2,0.3-1.8-0.2C111.3,2.3,111.9,2.3,112.5,2.3z"/>
		<path d="M100.2,10.5c0,0.2,0,0.5-0.3,0.4c-0.3-0.1-0.2-0.4-0.2-0.6C99.9,10.4,100.1,10.5,100.2,10.5z"/>
	</g>
</g>
</svg>
