<?xml version="1.0" encoding="utf-8"?>
<!-- Generator: Adobe Illustrator 28.0.0, SVG Export Plug-In . SVG Version: 6.00 Build 0)  -->
<svg version="1.1" id="Layer_1" xmlns="http://www.w3.org/2000/svg" xmlns:xlink="http://www.w3.org/1999/xlink" x="0px" y="0px"
	 viewBox="0 0 128 128" style="enable-background:new 0 0 128 128;" xml:space="preserve">
<g id="rhSirq.tif">
	<g>
		<path d="M128,97.5c-0.2-0.1-0.2-0.2-0.2-0.4c-0.3-2.7-1.1-5.2-2.3-7.6c-1.6-3.4-3.2-6.7-4.9-10.1c-1.2-2.4-2-4.7-1.9-7.4
			c0.1-2.8-2.2-5.2-5.1-5.3c-3.5-0.1-7,0-10.5,0c-1.5,0-2.8,0.7-3.8,1.9c-0.5,0.6-0.9,0.6-1.6,0.6c-3.9,0-7.8,0-11.7,0
			c-1.6,0-3,0.7-4,2c-0.4,0.5-0.7,0.5-1.3,0.5c-4.7,0-9.4-0.3-14.1,0c-2.2,0.1-4.3,0.1-6.6,0c-4.7-0.3-9.4-0.1-14.1,0
			c-0.5,0-0.8-0.1-1.2-0.5c-1.1-1.4-2.6-2.1-4.3-2.1c-3.9,0-7.7,0-11.6,0.1c-0.6,0-1-0.1-1.4-0.6c-1.1-1.3-2.5-2-4.1-2
			c-3.3,0-6.6-0.1-9.9,0c-2.8,0.1-5,2-5.4,4.8C8,72.4,8,73.3,8.1,74.3c0.2,2.3-0.4,4.3-1.4,6.3c-1.8,3.7-3.5,7.5-5.2,11.3
			C-0.3,96,0,100.4,0,104.8c0,1.3,0.6,2.2,1.8,2.7c2.8,1.2,5.6,2.3,8.5,3.2c8.6,2.7,17.5,4.4,26.5,5.5c7,0.9,14,1.5,21,1.7
			c0.2,0,0.4,0,0.5,0.2h1c0.1-0.2,0.3-0.1,0.5-0.1c0,0,0,0,0,0h0.4c0,0,0,0,0,0c0,0,0.1,0,0.1,0c0.1,0,0.3,0,0.4,0.1h1
			c0.6-0.2,1.2-0.2,1.8,0h0.7c0.6-0.2,1.2-0.2,1.7,0h1.3c0.1-0.2,0.3-0.1,0.5-0.1c0,0,0,0,0,0h0.4c0,0,0,0,0,0c0,0,0.1,0,0.1,0
			c0.2,0,0.3,0,0.4,0.1h0.5c0.2-0.2,0.4-0.1,0.6-0.1c6.7,0,13.3-0.4,19.9-1.3c8.5-1,16.9-2.5,25.1-4.8c3.8-1.1,7.6-2.4,11.3-4
			c0.9-0.4,1.7-0.9,1.9-2v-6.5c-0.2-0.5-0.2-1,0-1.5V97.5z M103,72.7c0-0.8,0.3-1,1-1c1.5,0,2.9,0,4.4,0c1.5,0,2.9,0,4.4,0
			c0.8,0,1,0.3,1,1c0,2,0,4.1,0,6.1c-0.1,2.8-2.6,5.1-5.4,5.1c-2.7,0-5.2-2.3-5.3-5C102.9,76.8,103,74.8,103,72.7z M85.7,75.2
			c0-0.9,0.4-1.1,1.1-1c1.7,0,3.3,0,5,0c1.7,0,3.3,0,5,0c0.6,0,1.1,0.2,1.1,0.9c-0.1,2.6,0.2,5.2-0.1,7.7c-0.4,3.2-3.1,5.3-6.3,5.2
			c-3-0.2-5.6-2.8-5.7-5.9C85.7,79.8,85.8,77.5,85.7,75.2z M67.1,76.7c2.1,0.1,4.2,0,6.2,0c2.1,0,4.2,0,6.2,0c0.6,0,1.1,0.1,1.1,0.8
			c-0.1,3.3,0.3,6.7-0.2,10c-0.6,3.7-4,6.2-7.8,6c-3.5-0.2-6.6-3.4-6.7-7c-0.1-2.9,0-5.7,0-8.6C66,77,66.2,76.7,67.1,76.7z
			 M47.3,76.7c4.2,0,8.3,0,12.5,0c0.8,0,1.2,0.2,1.1,1.1c0,3.1,0.1,6.2-0.1,9.2c-0.2,3.8-3.6,6.6-7.6,6.5c-3.6-0.1-6.8-3.2-6.9-6.8
			c-0.1-1.5,0-2.9,0-4.4h0c0-1.5,0-3,0-4.5C46.2,77,46.5,76.7,47.3,76.7z M30.1,74.2c1.7,0,3.3,0,5,0c1.7,0,3.3,0,5,0
			c0.8,0,1,0.3,1,1c0,2.4,0,4.8-0.1,7.2c-0.1,3-3,5.6-6.1,5.5c-3.1,0-5.8-2.6-5.9-5.6c-0.1-2.4,0-4.7,0-7.1
			C29,74.4,29.3,74.2,30.1,74.2z M13.1,72.6c0-0.7,0.3-0.9,1-0.9c1.5,0,3,0,4.5,0c1.4,0,2.7,0,4.1,0c0.8,0,1.2,0.2,1.1,1
			c0,2.1,0,4.2-0.1,6.2c-0.1,2.7-2.4,4.9-5.1,5c-2.6,0.1-5.1-1.9-5.4-4.5C12.9,77.2,13.2,74.9,13.1,72.6z M123,102.8
			c0,0.7-0.4,0.8-0.9,1c-5.4,2.2-11,3.8-16.6,5c-10.8,2.3-21.8,3.5-32.9,4.1c-9.2,0.5-18.4,0.1-27.6-0.8c-10.6-1-21.1-2.6-31.3-5.5
			c-2.7-0.8-5.4-1.7-8-2.8c-0.5-0.2-0.8-0.4-0.8-1c-0.1-4.3,0.6-8.4,2.7-12.2c0.9-1.7,1.6-3.5,2.5-5.4c1.2,1.3,2.5,2.5,4.1,3.1
			c3.4,1.4,6.8,1.2,9.9-0.8c0.7-0.4,0.9-0.3,1.3,0.3c3.5,5.6,10.2,7,15.8,3.5c0.5-0.3,0.7-0.3,1,0.2c4.4,8.5,14.6,9.8,20.9,2.7
			c0.1-0.1,0.2-0.2,0.3-0.2c6.3,7.6,17.6,5.9,21.5-3c7,4.7,14.3,1.4,17-3.9c5.5,3.9,11.9,2.2,15.3-2.5c0.4,0,0.4,0.4,0.5,0.6
			c1.3,2.8,2.7,5.6,3.9,8.5C122.8,96.4,123.1,99.5,123,102.8z"/>
		<path d="M128,22c-0.6-0.9-1.4-1.4-2.4-1.8c-4.8-2.1-9.9-3.6-15-4.9c-6.8-1.7-13.6-2.8-20.6-3.7c-4.9-0.6-9.8-1.1-14.8-1.3
			c-1.6-0.1-2.7,0.9-2.8,2.4c-0.1,1.5,1,2.5,2.6,2.6c9.3,0.7,18.6,1.6,27.8,3.5c6.5,1.3,13,3,19.2,5.5c0.4,0.2,0.9,0.1,0.9,0.8
			c-0.1,2.7,0.1,5.5-0.4,8.2c-0.8,4.9-4,8.7-6.3,13.2c-0.1-7.2-3.3-12.1-9.7-14.6c-5.8-2.2-10.8-0.4-15.1,3.9
			c-0.2-0.3-0.3-0.5-0.5-0.8c-5.8-9.9-19.2-10.8-26.3-1.8c-0.6,0.8-0.8,0.9-1.5,0c-5.5-7.2-15.4-8.3-22.5-2.7
			c-1.8,1.4-3.2,3.2-4.3,5.3c-4.7-4.6-10.1-6.2-16.1-3.6c-6,2.6-8.6,7.5-8.7,14.3c-1.7-2.9-3.2-5.4-4.6-8C5,34.4,4.9,30,5,25.6
			c0-0.8,0.2-1.1,1-1.4c9.5-3.8,19.5-5.7,29.6-7.2c5.8-0.8,11.7-1.3,17.5-1.7c1.6-0.1,2.5-1.2,2.4-2.7c-0.1-1.4-1.1-2.3-2.7-2.3
			c-1.7,0.1-3.3,0.1-5,0.3c-9.6,0.8-19.1,2.1-28.4,4.2c-6,1.4-11.8,3.1-17.5,5.6C0.6,21,0,21.8,0,23.3c0.1,2.2,0,4.5,0,6.7
			c0,3.4,0.7,6.7,2.2,9.8c2.2,4.6,5.1,8.9,7.6,13.4c0.7,1.3,1.6,2.5,2.1,3.8c1.2,3.1,2.9,4.3,6.2,4.4c5.2,0,10.3,0,15.5,0
			c0.6,0,1.3,0,1.9-0.2s0.8,0.1,1.1,0.4c1.5,1.8,3.4,2.7,5.8,2.7c5.5,0,11.1,0,16.6,0c1.6,0,3-0.4,4.3-1.3c0.5-0.3,0.8-0.4,1.3,0
			c1.3,1,2.8,1.3,4.4,1.3c5.5,0,10.9,0,16.4,0c2.4,0,4.4-0.9,6-2.7c0.2-0.2,0.3-0.5,0.8-0.4c6.2,0.5,12.4,0.2,18.6,0.2
			c2.4,0,4.1-1.4,5-3.7c0.3-0.7,0.6-1.4,1-2.1c2.5-4.3,5-8.5,7.5-12.8c1.2-2,2.1-4.2,2.8-6.5c0.3-1.1,0.3-2.4,0.8-3.4V32
			c-0.2-0.6-0.2-1.2,0-1.7V22z M34.9,55.1c0,0.9-0.4,1.1-1.3,1.1c-2.6,0-5.2,0-7.7,0c-2.6,0-5.2,0-7.7,0c-0.9,0-1.3-0.3-1.3-1.2
			c0-3.7-0.1-7.3,0.1-11c0.2-4.4,4.2-8,8.8-8.1c4.4-0.1,8.6,3.5,9,7.9C35.1,47.6,34.9,51.4,34.9,55.1z M61.5,56.7
			c0,1.6-1,2.5-2.6,2.5c-2.7,0-5.4,0-8.1,0c-2.7,0-5.3,0-8,0c-1.9,0-2.8-0.9-2.8-2.7c0-4.5,0-9.1,0-13.6C40,37,44.7,32.1,50.4,32
			c5.9-0.1,10.9,4.6,11,10.6C61.6,47.3,61.5,52,61.5,56.7z M88,56.5c0,1.9-0.9,2.7-2.8,2.7c-2.7,0-5.3,0-8,0c-2.6,0-5.2,0-7.9,0
			c-1.9,0-2.9-0.9-2.9-2.8c0-4.5-0.1-9.1,0-13.6c0.1-6.1,5.1-11,11-10.8C83,32.1,88,37,88,42.5C88,47.2,88,51.8,88,56.5z
			 M109.9,56.3c-2.6,0-5.2,0-7.7,0c-2.6,0-5.2,0-7.9,0c-0.8,0-1.2-0.3-1.2-1.1c0.1-3.7-0.2-7.4,0.1-11.1c0.4-4.5,4.6-8.1,9-8.1
			c4.5,0.1,8.5,3.8,8.8,8.3c0.2,3.6,0.1,7.2,0.1,10.9C111.2,56,110.7,56.3,109.9,56.3z"/>
		<path d="M128,32c-0.4-0.6-0.4-1.2,0-1.7C128,30.8,128,31.4,128,32z"/>
		<path d="M61.8,118.2c0.6-0.4,1.2-0.4,1.7,0C62.9,118.2,62.3,118.2,61.8,118.2z"/>
		<path d="M64.3,118.2c0.6-0.4,1.2-0.4,1.7,0C65.4,118.2,64.8,118.2,64.3,118.2z"/>
		<path d="M128,99.5c-0.4-0.5-0.4-1,0-1.5C128,98.5,128,99,128,99.5z"/>
		<path d="M59.3,118.2c0.1-0.3,0.3-0.2,0.5-0.2c0.1,0,0.1,0.1,0.1,0.1c0,0-0.1,0.1-0.1,0.1C59.6,118.2,59.4,118.2,59.3,118.2z"/>
		<path d="M59.8,118.2c0-0.1,0-0.1,0-0.2c0.2,0,0.3,0,0.5,0c0.1,0,0.1,0.1,0.1,0.1c0,0-0.1,0.1-0.1,0.1
			C60.1,118.2,59.9,118.2,59.8,118.2z"/>
		<path d="M60.3,118.2c0-0.1,0-0.1,0-0.2c0.2,0,0.4-0.1,0.5,0.2C60.6,118.2,60.4,118.2,60.3,118.2z"/>
		<path d="M67.3,118.2c0.1-0.3,0.3-0.3,0.5-0.2c0.1,0,0.1,0.1,0.1,0.1c0,0-0.1,0.1-0.1,0.1C67.6,118.2,67.4,118.2,67.3,118.2z"/>
		<path d="M67.8,118.2c0-0.1,0-0.1,0-0.2c0.2,0,0.3,0,0.5,0c0.1,0,0.1,0.1,0.1,0.1c0,0-0.1,0.1-0.1,0.1
			C68.1,118.2,67.9,118.2,67.8,118.2z"/>
		<path d="M68.3,118.2c0-0.1,0-0.1,0-0.2c0.2,0,0.4-0.1,0.5,0.2C68.6,118.2,68.4,118.2,68.3,118.2z"/>
		<path d="M66.5,12.3c0,1.4-1.1,2.6-2.5,2.6c-1.4,0-2.5-1.1-2.5-2.4c0-1.4,1.1-2.6,2.4-2.6C65.3,9.8,66.5,10.9,66.5,12.3z"/>
	</g>
</g>
</svg>
