<?xml version="1.0" encoding="utf-8"?>
<!-- Generator: Adobe Illustrator 28.0.0, SVG Export Plug-In . SVG Version: 6.00 Build 0)  -->
<svg version="1.1" id="Layer_1" xmlns="http://www.w3.org/2000/svg" xmlns:xlink="http://www.w3.org/1999/xlink" x="0px" y="0px"
	 viewBox="0 0 128 128" style="enable-background:new 0 0 128 128;" xml:space="preserve">
<g>
	<path d="M90.8,20.6H95v4.1h-4.1V20.6z"/>
	<path d="M127.4,15.1l-4.1-4.1c-0.4-0.4-0.9-0.6-1.5-0.6h-18.6V2.1c0-1.1-0.9-2.1-2.1-2.1H84.6c-1.1,0-2.1,0.9-2.1,2.1v8.3h-5.3
		l-3.5-3.5c-0.4-0.4-0.9-0.6-1.5-0.6H64c-1.1,0-2.1,0.9-2.1,2.1v20.6H51.6c-16.4,0-29.8,12.8-30.9,28.9h-6.3c-1.1,0-2.1,0.9-2.1,2.1
		V64c0,0.5,0.2,1.1,0.6,1.5l2.7,2.7L0.6,83.2c-0.2,0.2-0.3,0.4-0.4,0.7C0.1,84.1,0,84.4,0,84.6v24.8c0,0.3,0.1,0.5,0.2,0.8
		c0.1,0.2,0.3,0.5,0.4,0.7l16.5,16.5c0.4,0.4,0.9,0.6,1.5,0.6h28.9c0.5,0,1.1-0.2,1.5-0.6l16.5-16.5c0.2-0.2,0.3-0.4,0.4-0.7
		c0.1-0.2,0.2-0.5,0.2-0.8V84.6c0-0.3-0.1-0.5-0.2-0.8c-0.1-0.2-0.3-0.5-0.4-0.7L50.4,68.1l2.7-2.7c0.4-0.4,0.6-0.9,0.6-1.5v-4.1
		c0-1.1-0.9-2.1-2.1-2.1h-6.2c0-5.7,4.6-10.3,10.3-10.3h6.2v6.2c0,1.1,0.9,2.1,2.1,2.1h8.3c0.5,0,1.1-0.2,1.5-0.6l3.5-3.5h44.6
		c0.5,0,1.1-0.2,1.5-0.6l4.1-4.1c0.4-0.4,0.6-0.9,0.6-1.5V16.5C128,16,127.8,15.4,127.4,15.1z M46.6,70.2L59,82.6H7l12.4-12.4H46.6z
		 M61.9,107.4H4.1v-4.1h57.8V107.4z M4.1,99.1V95h57.8v4.1H4.1z M4.1,86.7h57.8v4.1H4.1V86.7z M46.6,123.9H19.4L7,111.5h52
		L46.6,123.9z M49.5,61.9v1.2l-2.9,2.9H19.4l-2.9-2.9v-1.2H49.5z M55.7,43.4c-8,0-14.5,6.5-14.5,14.5H24.9C25.9,44,37.5,33,51.6,33
		h10.3v10.3H55.7z M86.7,4.1h12.4v18.6c0,3.4-2.8,6.2-6.2,6.2s-6.2-2.8-6.2-6.2V4.1z M66.1,10.3h4.1v41.3h-4.1V10.3z M76.4,47.5
		c-0.5,0-1.1,0.2-1.5,0.6l-0.6,0.6V13.2l0.6,0.6c0.4,0.4,0.9,0.6,1.5,0.6h6.2v8.3c0,5.7,4.6,10.3,10.3,10.3
		c5.7,0,10.3-4.6,10.3-10.3v-8.3h12.4v33H76.4z M123.9,44.6l-2.9,2.9h-1.2v-33h1.2l2.9,2.9V44.6z"/>
	<path d="M12.4,49.5h4.1v4.1h-4.1V49.5z"/>
	<path d="M4.1,41.3h4.1v4.1H4.1V41.3z"/>
	<path d="M12.4,33h4.1v4.1h-4.1V33z"/>
	<path d="M20.6,24.8h4.1v4.1h-4.1V24.8z"/>
	<path d="M8.3,18.6h4.1v4.1H8.3V18.6z"/>
	<path d="M4.1,26.8h4.1V31H4.1V26.8z"/>
	<path d="M125.9,76.4H121l-5.6-11.2c-0.3-0.5-0.7-0.9-1.3-1.1c-0.6-0.1-1.2-0.1-1.7,0.3l-4.2,2.8L103,56.9c-0.7-1.4-3-1.4-3.7,0
		l-5.1,10.3l-4.2-2.8c-0.5-0.3-1.1-0.4-1.7-0.3c-0.6,0.2-1.1,0.5-1.3,1.1l-5.6,11.2h-4.9c-1.1,0-2.1,0.9-2.1,2.1v8.3
		c0,1.1,0.9,2.1,2.1,2.1h2.2c0.6,6.9,4.3,12.9,9.7,16.6l-13.6,19.4c-0.4,0.6-0.5,1.5-0.1,2.1c0.4,0.7,1.1,1.1,1.8,1.1h12.4
		c0.8,0,1.6-0.5,1.9-1.2l7.8-17.5c0.9,0.1,1.8,0.2,2.7,0.2c0.9,0,1.8-0.1,2.7-0.2l7.8,17.5c0.3,0.7,1.1,1.2,1.9,1.2h12.4
		c0.8,0,1.5-0.4,1.8-1.1c0.4-0.7,0.3-1.5-0.1-2.1l-13.6-19.4c5.4-3.7,9.1-9.7,9.7-16.6h2.2c1.1,0,2.1-0.9,2.1-2.1v-8.3
		C128,77.3,127.1,76.4,125.9,76.4z M89.6,69.1l4.2,2.8c0.5,0.3,1.1,0.4,1.7,0.3c0.6-0.2,1.1-0.5,1.3-1.1l4.3-8.7l4.3,8.7
		c0.3,0.5,0.7,0.9,1.3,1.1c0.6,0.2,1.2,0.1,1.7-0.3l4.2-2.8l3.7,7.3H85.9L89.6,69.1z M87.4,123.9h-7.1l11.5-16.5
		c0.8,0.4,1.6,0.7,2.5,1L87.4,123.9z M122,123.9h-7.1l-6.9-15.5c0.8-0.3,1.7-0.6,2.5-1L122,123.9z M101.2,105.3
		c-9.5,0-17.4-7.2-18.5-16.5h36.9C118.6,98.1,110.7,105.3,101.2,105.3z M123.9,84.6H78.5v-4.1h45.4V84.6z"/>
</g>
</svg>
