<?xml version="1.0" encoding="utf-8"?>
<!-- Generator: Adobe Illustrator 28.0.0, SVG Export Plug-In . SVG Version: 6.00 Build 0)  -->
<svg version="1.1" id="Layer_1" xmlns="http://www.w3.org/2000/svg" xmlns:xlink="http://www.w3.org/1999/xlink" x="0px" y="0px"
	 viewBox="0 0 128 128" style="enable-background:new 0 0 128 128;" xml:space="preserve">
<g>
	<path d="M109.6,28.4c0-0.4-0.2-0.9-0.5-1.2L87.1,0.5c-0.3-0.3-0.6-0.5-1-0.5H41.9c-0.4,0-0.7,0.2-1,0.5L18.8,27.3
		c-0.3,0.4-0.5,0.9-0.5,1.4v70.7c0,0.5,0.2,1,0.5,1.4l22.1,26.8c0.3,0.3,0.6,0.5,1,0.5h44.2c0.4,0,0.7-0.2,1-0.5l22.1-26.8
		c0.3-0.4,0.5-0.9,0.5-1.4V28.6C109.6,28.6,109.6,28.5,109.6,28.4L109.6,28.4z M35.3,44.9C34,43.3,32,46,33.4,47.7l7.1,8.6v65.6
		L21.2,98.5V32.9l6.6,8c1.4,1.6,3.3-1.1,1.9-2.8l-7.9-9.5L42.5,3.7h43.1l20.6,24.9L85.5,53.5H42.5L35.3,44.9z M106.8,98.5
		l-19.2,23.3v-9.1c0-2.4-2.9-2.4-2.9,0v11.5H43.3v-67h41.4v45.5c0,2.4,2.9,2.4,2.9,0V56.2l19.2-23.3V98.5z"/>
</g>
</svg>
