<?xml version="1.0" encoding="utf-8"?>
<!-- Generator: Adobe Illustrator 28.0.0, SVG Export Plug-In . SVG Version: 6.00 Build 0)  -->
<svg version="1.1" id="Layer_1" xmlns="http://www.w3.org/2000/svg" xmlns:xlink="http://www.w3.org/1999/xlink" x="0px" y="0px"
	 viewBox="0 0 128 128" style="enable-background:new 0 0 128 128;" xml:space="preserve">
<g id="uNYEew.tif">
	<g>
		<path d="M126.5,11c0-2.4-0.5-3-2.9-3c-0.8,0-0.9-0.3-0.9-0.9c0-1.3,0-2.7,0-4c0.1-1.2-0.2-2.3-1.3-3h-17c-1,0.8-1.3,1.9-1.2,3.2
			c0.1,1.1-0.1,2.2,0,3.2c0.1,1.2-0.2,1.6-1.5,1.6c-1.8-0.1-2.6,0.6-2.7,2.1c-0.1,2-0.1,4,0,6c0.1,1.5,0.8,2.1,2.3,2.2
			c0.3,0,0.7,0,1,0c0.7-0.1,0.9,0.2,0.9,0.9c0,1.5,0,3.1,0,4.6c0,1.5,0.8,2.4,2,2.4c1.3,0,2-0.8,2.1-2.4c0-1.5,0.1-2.9,0-4.4
			c0-0.9,0.2-1.2,1.2-1.2c3,0.1,6,0.1,9,0c0.9,0,1.3,0.2,1.3,1.2c0,9,0,18,0,27c0,2.8-0.5,5.6-1.5,8.3c-3,8-10.8,13.7-19.3,14
			c-5,0.1-10,0-15,0.1c-0.9,0-1-0.3-1-1.1c0-3.2,0.1-6.5,0-9.7c0-0.9,0.2-1.1,1.1-1.1c4.7,0,9.5,0,14.2,0c4.7,0,8.4-2.9,9.7-7.3
			c0.6-2.2,0.4-4.5,0.4-6.7c0-2.5,0-5,0-7.5c0-0.9-0.1-1.8-1-2.3c-1.5-0.9-3.1,0.1-3.1,2.2c0,3.5-0.2,7,0,10.5
			c0.3,5.1-3.3,7.4-7.2,7.2c-3.9-0.2-7.7,0-11.6,0c-0.8,0-1.9,0.2-2.4-0.2c-0.5-0.4-0.1-1.5-0.2-2.2c-0.1-1.6-0.8-2.3-2.4-2.3
			c-1.9,0-3.8,0-5.7,0c-1.4,0-2.2,0.7-2.3,2.1c-0.1,0.9,0.4,2.1-0.2,2.5c-0.6,0.4-1.7,0.1-2.7,0.2c-0.3,0-0.6,0-0.9,0
			c-0.6,0.1-0.8-0.2-0.7-0.8c0-4.2,0-8.3,0-12.5c0-0.3-0.1-0.6,0.3-0.7c0.8-0.3,1.8,0.1,2.1,0.9c1.4,3.1,4.9,4.9,8.1,4.2
			c3.5-0.8,5.9-3.8,5.9-7.2c0-3.4-2.6-6.5-5.8-7.1c-3.4-0.7-6.7,1.1-8.2,4.4C69.2,34.8,69,35,68.3,35c-2-0.1-4.1-0.1-6.1,0
			c-0.9,0-1.3-0.2-1.6-1c-1.3-3-4-4.5-7.5-4.2c-2.8,0.2-5.4,2.4-6.2,5.4c-0.8,2.8,0.3,5.9,2.8,7.7c3.8,2.8,9.1,1.4,11-3.1
			c0.5-1.1,1.3-0.7,1.9-0.7c0.9,0,0.4,0.8,0.4,1.2c0,3.7,0,7.4,0,11.1c0,1.7,0,1.7-1.7,1.7c-0.9,0-2,0.3-2.5-0.2
			c-0.6-0.4-0.1-1.6-0.2-2.4c-0.1-1.5-0.8-2.2-2.3-2.2c-2,0-3.9,0-5.9,0c-1.5,0-2.2,0.7-2.2,2.2c0,0.5-0.1,0.9,0,1.4
			c0.1,0.9-0.2,1.2-1.1,1.2c-5-0.1-10,0-15,0c-5.2,0-10,1.3-14.4,4.1C11.5,61.2,7.6,67,6.3,74.4c-0.8,4.4-0.3,8.9-0.4,13.3
			c0,0.2,0,0.3,0.1,0.5c0.3,1.1,1,1.6,2.1,1.5c1.1-0.1,1.8-0.7,1.8-1.8c0.1-1.3,0-2.7,0-4c0-3.2-0.2-6.4,0.5-9.6
			c2.1-9.9,10.9-17.2,21.1-17.3c5.3-0.1,10.6,0,15.9,0c0.8,0,1,0.2,1,1c0,3.2-0.1,6.4,0,9.6c0,1-0.2,1.3-1.3,1.3c-5-0.1-10,0-15,0
			c-2.5,0-4.8,0.5-6.8,2c-2.9,2.2-4,5.1-4,8.7c0,9.5,0,18.9,0,28.4c0,1-0.2,1.3-1.2,1.3c-3-0.1-5.9-0.1-8.9,0c-1,0-1.4-0.2-1.3-1.3
			c0.1-2.9,0-5.8,0-8.7c0-0.6,0.1-1.2-0.3-1.7c-0.5-0.9-1.3-1.2-2.2-0.9c-1.1,0.3-1.5,1.1-1.5,2.2c0,3-0.1,6,0,9
			c0,1.2-0.3,1.6-1.5,1.5c-1.1-0.1-2.3,0-2.6,1.5c-0.1,2.4-0.2,4.9,0,7.3c0.3,1.3,1.3,1.5,2.4,1.5c1.7,0,1.7,0,1.7,1.7
			c0,1.3,0,2.6,0,3.9c0,1.6,0.8,2.4,2.4,2.4c4.9,0,9.7,0,14.6,0c1.7,0,2.4-0.8,2.4-2.5c0-1.5,0.1-2.9,0-4.4
			c-0.1-0.9,0.2-1.2,1.2-1.2c1.8,0.1,2.6-0.7,2.6-2.5c0-1.7,0-3.5,0-5.2c0-1.8-0.7-2.6-2.5-2.5c-1.1,0-1.3-0.4-1.3-1.3
			c0-9.5,0.1-18.9,0-28.4c0-3.3,2.2-6.7,6.6-6.6c4.7,0.1,9.5,0,14.2,0c2.2,0,2.2,0,2.2,2.2c0,1.8,0.7,2.5,2.6,2.6c1.3,0,2.7,0,4,0
			c3.4,0,3.8-0.3,3.8-3.8c0-0.8,0.2-1,1.1-1c3.2,0,6.4,0,9.6,0c2.2,0,2.2,0,2.3,2.2c0,1.6,0.7,2.5,2.3,2.5c2,0.1,3.9,0.1,5.9,0
			c1.4,0,2.2-0.8,2.3-2.3c0-0.5,0.1-0.9,0-1.4c-0.1-0.9,0.2-1.1,1.1-1.1c4.4,0.1,8.7,0,13.1,0c3.9,0,7.7-0.6,11.2-2.3
			c10.1-4.9,15.2-13,15.3-24.2c0.1-9,0-17.9,0-26.9c0-0.9,0.1-1.3,1.2-1.3c1.8,0.1,2.5-0.7,2.6-2.5C126.5,14.1,126.5,12.5,126.5,11z
			 M76.3,33.7c1.7,0,3.2,1.6,3.2,3.3c0,1.7-1.6,3.2-3.3,3.2c-1.8,0-3.3-1.6-3.2-3.4C73,35.1,74.5,33.7,76.3,33.7z M53.9,40.2
			c-1.7,0-3.2-1.5-3.2-3.3c0-1.8,1.5-3.2,3.2-3.2c1.7,0,3.3,1.5,3.3,3.2C57.3,38.6,55.6,40.3,53.9,40.2z M18.2,123.5
			c-2.5,0-5,0-7.5,0c-0.7,0-0.9-0.2-0.9-0.9c-0.1-3.1-0.1-3.1,3.1-3.1h2.7c1.6,0,3.2,0,4.7,0c0.6,0,0.8,0.1,0.9,0.8
			C21.4,123.5,21.4,123.5,18.2,123.5z M23.8,115.5c-2.9-0.1-5.7,0-8.6,0c-2.8,0-5.7,0-8.5,0c-0.9,0-1.1-0.3-1.1-1.1
			c0-0.9,0.1-1.2,1.1-1.2c5.7,0.1,11.4,0.1,17.1,0c1,0,1.1,0.4,1.1,1.2C25,115.3,24.7,115.5,23.8,115.5z M53.3,73.6
			c-0.9,0-1.1-0.3-1.1-1.1c0.1-3.2,0-6.4,0-9.6c0-3.2,0.1-6.5,0-9.7c0-1,0.5-1,1.2-1c0.8,0,1.2,0,1.2,1c-0.1,6.4-0.1,12.9,0,19.3
			C54.6,73.6,54.1,73.6,53.3,73.6z M71.5,68c0,0.8-0.3,0.9-0.9,0.9c-1.8,0-3.7,0-5.5,0c-1.8,0-3.7,0-5.5,0c-0.7,0-1-0.1-1-0.9
			c0-3.4,0-6.7,0-10.1c0-0.7,0.2-0.8,0.9-0.8c3.7,0,7.5,0,11.2,0c0.6,0,0.9,0.1,0.9,0.8C71.5,61.2,71.5,64.6,71.5,68z M76.7,73.7
			c-0.9,0-1.2-0.2-1.2-1.2c0.1-3.2,0-6.3,0-9.5c0-3.2,0.1-6.5,0-9.7c0-1.1,0.5-1,1.3-1c0.8-0.1,1.1,0.2,1.1,1.1c0,6.4,0,12.8,0,19.2
			C77.9,73.5,77.6,73.6,76.7,73.7z M110.2,4c2.5,0,5.1,0,7.6,0c0.7,0,0.9,0.2,0.9,0.9c0,3.1,0.1,3.1-3,3.1H113c-1.6,0-3.2,0-4.7,0
			c-0.7,0-0.9-0.2-0.9-0.9C107.3,4,107.2,4,110.2,4z M121.3,14.3c-2.9-0.1-5.7,0-8.6,0c-2.9,0-5.7-0.1-8.6,0c-1,0-1-0.4-1-1.2
			c0-0.8,0-1.2,1-1.2c5.7,0.1,11.5,0.1,17.2,0c1.1,0,1.1,0.4,1.1,1.2C122.5,14.1,122.2,14.3,121.3,14.3z"/>
		<path d="M1.8,110.7c0,2.4,0,4.9,0,7.3c-0.1,0-0.1,0-0.2,0c0-2.4,0-4.8,0-7.2C1.6,110.7,1.7,110.6,1.8,110.7z"/>
		<path d="M65.1,84.5c-2.7,4-5.3,7.9-7.6,12c-1.9,3.4-3.8,6.9-5,10.7c-1.7,5.2-0.3,9.6,3.5,13.1c5.4,5.1,13.1,5.1,18.4-0.1
			c3.6-3.5,5.4-8.3,2.8-14.6c-1.3-3.2-2.8-6.2-4.5-9.1c-0.3-0.5-0.6-0.9-0.7-1.4c-0.3-1-0.1-1.9,0.9-2.5c1-0.5,2-0.4,2.5,0.5
			c2.9,4.9,6,9.8,6.9,15.6c1.1,7.1-1.8,12.8-7.8,16.6c-10.8,6.9-24.8,0.4-26.6-12.4c-0.5-3.9,0.7-7.4,2.3-10.8
			c3.5-7.8,8.1-14.9,13.1-21.9c1.2-1.6,2.6-1.7,3.8-0.1c1.4,1.9,2.7,3.8,3.9,5.8c0.7,1.1,0.5,2.2-0.4,2.9c-1,0.7-2.1,0.5-2.9-0.6
			C66.7,87,66,85.8,65.1,84.5z"/>
		<path d="M76.1,111c-0.2,5.7-4.8,10.4-10.8,10.6c-1.1,0-2.1-0.8-2.2-1.8c-0.1-1,0.6-1.9,1.7-2.1c1.3-0.3,2.6-0.4,3.8-1
			c2.8-1.6,4.1-5.4,3.1-7.8c-1.3-3-2.6-6-4.2-8.8c-0.3-0.6-0.7-1.2-1-1.9c-0.4-1,0-2.1,0.9-2.5c1-0.4,2-0.3,2.5,0.7
			c2.5,4.2,4.8,8.4,6.1,13.1C76.1,109.9,76,110.5,76.1,111z"/>
	</g>
</g>
</svg>
