<?xml version="1.0" encoding="utf-8"?>
<!-- Generator: Adobe Illustrator 28.0.0, SVG Export Plug-In . SVG Version: 6.00 Build 0)  -->
<svg version="1.1" id="Layer_1" xmlns="http://www.w3.org/2000/svg" xmlns:xlink="http://www.w3.org/1999/xlink" x="0px" y="0px"
	 viewBox="0 0 128 128" style="enable-background:new 0 0 128 128;" xml:space="preserve">
<g id="iy8vr5.tif">
	<g>
		<path d="M102.9,45.2l-0.1,0l-0.1,0c-0.5-0.5-0.5-1.1-0.5-1.7c0-13.4,0-26.8,0-40.2c0-0.6-0.1-1.2,0.5-1.7c0.1,0,0.2,0,0.2,0
			C102.9,16.2,102.9,30.7,102.9,45.2z"/>
		<path d="M77.8,68.9c-0.1,0.7-0.4,1.2-1.1,1.6c-1.5,0.8-3.1,1.6-4.8,2.1c-1.1,0.3-1.9-0.1-2.3-1.1c-0.4-1.1,0-1.9,1-2.3
			c1.6-0.7,3.2-1.4,4.8-2.1C76.5,66.6,77.9,67.6,77.8,68.9z"/>
		<path d="M93,42.6c0.3,0.8,0,1.7,0,2.7c-0.5,7-3.1,13.3-7.9,18.7c-0.6,0.6-1.2,1.2-2.1,1c-1.5-0.4-1.9-2-0.8-3.3
			c2.4-2.8,4.4-5.8,5.6-9.3c0.9-2.7,1.5-5.4,1.6-8.2c0-0.5,0.1-1.1,0.2-1.6c0.2-0.9,0.8-1.3,1.7-1.3C92.1,41.3,92.7,41.7,93,42.6z"
			/>
		<path d="M102.7,33.8c0-10.7,0-21.4,0-32.2c-0.2-1.3-1.1-1.6-2.3-1.6C76.1,0,51.7,0,27.3,0c-1.7,0-2.3,0.6-2.3,2.3
			c0,14.4,0,28.8,0,43.2c0,10,3.6,18.6,10.3,25.9C41,77.5,47.8,81.4,55.9,83c1,0.2,1.4,0.5,1.4,1.7c-0.1,9.6-0.1,19.2,0,28.8
			c0,1.1-0.1,1.5-1.4,1.5c-2.7-0.1-5.4,0-8,0c-1.9,0-3.5,0.6-5,1.7c-3.4,2.4-4,5.9-3.9,9.7c0,0.8,0.6,1.4,1.5,1.6c2.9,0,5.8,0,8.7,0
			c12.8,0,25.5,0,38.3,0c1.2-0.3,1.6-1.2,1.5-2.3c-0.1-1.4-0.3-2.7-0.7-4c-1.4-4.4-4.5-6.7-9.1-6.7c-2.3,0-4.7-0.1-7,0
			c-1.2,0.1-1.6-0.2-1.6-1.5c0.1-9.6,0.1-19.1,0-28.7c0-1.3,0.4-1.6,1.5-1.8c8.9-1.9,16.3-6.5,22.1-13.6c5.7-7,8.5-15.1,8.7-24.2
			C102.7,41.4,102.7,37.6,102.7,33.8z M79.3,118.7c2.6-0.1,4.9,1.5,5.6,5c0.2,0.8-0.4,0.6-0.8,0.6c-2.9,0-5.7,0-8.6,0
			c-3.9,0-7.8,0-11.7,0c-6.6,0-13.3,0-19.9,0c-1.3,0-1.3-0.5-1.1-1.5c0.7-2.6,2.7-4.1,5.4-4.1c3.3,0,6.6,0,9.9,0
			c2.3,0,2.8-0.5,2.8-2.8c0-10.2,0-20.4,0-30.6c0-1.3,0.4-1.6,1.6-1.5c1.1,0.1,2.2,0.1,3.3,0c0.8-0.1,1,0.2,1,1c0,5.8,0,11.6,0,17.4
			c0,4.6,0,9.2,0,13.9c0,2,0.6,2.6,2.6,2.6C72.7,118.7,76,118.8,79.3,118.7z M99,45.8C98.9,61.6,87.1,76,71.6,79.3
			c-19.6,4.2-38.2-8-42.2-27.7c-0.4-1.9-0.6-3.9-0.6-5.9c0-13.6,0-27.3,0-40.9c0-0.9,0.2-1.1,1.2-1.1c11.3,0,22.7,0,34,0
			c11.3,0,22.5,0,33.8,0c0.9,0,1.3,0.1,1.3,1.2C99,18.5,99,32.2,99,45.8z"/>
		<path d="M77.8,68.9c-0.1,0.7-0.4,1.2-1.1,1.6c-1.5,0.8-3.1,1.6-4.8,2.1c-1.1,0.3-1.9-0.1-2.3-1.1c-0.4-1.1,0-1.9,1-2.3
			c1.6-0.7,3.2-1.4,4.8-2.1C76.5,66.6,77.9,67.6,77.8,68.9z"/>
		<path d="M93,45.2c-0.5,7-3.1,13.3-7.9,18.7c-0.6,0.6-1.2,1.2-2.1,1c-1.5-0.4-1.9-2-0.8-3.3c2.4-2.8,4.4-5.8,5.6-9.3
			c0.9-2.7,1.5-5.4,1.6-8.2c0-0.5,0.1-1.1,0.2-1.6c0.2-0.9,0.8-1.3,1.7-1.3c0.9,0,1.5,0.4,1.8,1.3C93.2,43.4,93,44.2,93,45.2z"/>
		<path d="M93,45.2c-0.5,7-3.1,13.3-7.9,18.7c-0.6,0.6-1.2,1.2-2.1,1c-1.5-0.4-1.9-2-0.8-3.3c2.4-2.8,4.4-5.8,5.6-9.3
			c0.9-2.7,1.5-5.4,1.6-8.2c0-0.5,0.1-1.1,0.2-1.6c0.2-0.9,0.8-1.3,1.7-1.3c0.9,0,1.5,0.4,1.8,1.3C93.2,43.4,93,44.2,93,45.2z"/>
		<path d="M77.8,68.9c-0.1,0.7-0.4,1.2-1.1,1.6c-1.5,0.8-3.1,1.6-4.8,2.1c-1.1,0.3-1.9-0.1-2.3-1.1c-0.4-1.1,0-1.9,1-2.3
			c1.6-0.7,3.2-1.4,4.8-2.1C76.5,66.6,77.9,67.6,77.8,68.9z"/>
	</g>
</g>
</svg>
