<?xml version="1.0" encoding="utf-8"?>
<!-- Generator: Adobe Illustrator 28.0.0, SVG Export Plug-In . SVG Version: 6.00 Build 0)  -->
<svg version="1.1" id="Layer_1" xmlns="http://www.w3.org/2000/svg" xmlns:xlink="http://www.w3.org/1999/xlink" x="0px" y="0px"
	 viewBox="0 0 128 128" style="enable-background:new 0 0 128 128;" xml:space="preserve">
<g id="S1IRfc.tif">
	<g>
		<path d="M26,5.8c0.2,0,0.3,0,0.5,0c0.8,0.2,1.7,0.1,2.5,0.7c1.1,0.9,1.7,2,1.7,3.5c0,3.1,0,6.2,0,9.4c0,9.6,0,19.1,0,28.7
			c0,0.5-0.1,1,0.1,1.5c0.4,1.5,1.6,0.7,2.5,0.8c0.6,0.1,1.5,0.2,1.6-0.9c0-0.5,0-0.9,0-1.4c0-6.5,0-13.1,0-19.6
			c0-0.6,0-1.2,0.1-1.9c0.4-2.2,2.1-3.6,4.3-3.5c2.1,0.1,3.7,1.7,3.8,3.9c0.1,2.3,0,4.7,0,7c0,4.9,0,9.7,0,14.6
			c0,1.7,0.1,1.7,1.8,1.7c2.4,0,2.4,0,2.4-2.4c0-8.9,0-17.9,0-26.8c0-0.5,0-1.1,0-1.6c0.2-2.2,1.8-3.8,4-3.9
			c2.2-0.1,3.9,1.4,4.2,3.6c0.1,0.6,0.1,1.2,0.1,1.9c0,9,0,18.1,0,27.1c0,2.1,0,2.1,2.1,2.1c0.3,0,0.7,0,1,0c0.7,0,1-0.4,1.1-1.1
			c0-0.5,0-0.9,0-1.4c0-12.4,0-24.8,0-37.2c0-0.8,0-1.7,0.3-2.5c0.7-1.6,2-2.3,3.6-2.4c0.1,0,0.2,0,0.2,0c3.3,0.6,4.1,1.6,4.1,5
			c0,12.4,0,24.9,0,37.3c0,2.2,0,2.2,2.2,2.2c1.9,0,2,0,2-1.9c0-9.1,0-18.1,0-27.2c0-0.5,0-1.1,0-1.6c0.1-2.2,1.7-3.8,3.8-3.9
			c2.2-0.1,4,1.3,4.4,3.4c0.1,0.7,0.1,1.3,0.1,2c0,8.9,0,17.8,0,26.7c0,0.3,0,0.7,0,1c0,0.2,0,0.4,0,0.6c0.4,1.5,1.6,0.8,2.5,0.9
			c0.7,0.1,1.6,0.3,1.7-0.9c0-0.4,0-0.8,0-1.2c0-6.5,0-13.1,0-19.6c0-0.5,0-1,0-1.5c0.1-2.2,1.8-3.8,3.9-3.9
			c2.2-0.1,3.9,1.4,4.3,3.6c0.1,0.6,0.1,1.2,0.1,1.9c0,6.6,0,13.1,0,19.7c0,2,0,2,2,2c0.3,0,0.7,0,1,0c0.8,0,1.2-0.4,1.2-1.2
			c0-0.5,0-0.9,0-1.4c0-12.3,0-24.6,0-37c0-0.8-0.1-1.6,0.2-2.4c0.6-1.8,1.9-2.5,3.7-2.7c0.1,0,0.2,0,0.2,0c3.3,0.6,4.1,1.6,4.1,5
			c0,12.4,0,24.9,0,37.3c0,2.2,0,2.2,2.2,2.2c1.9,0,2-0.1,2-1.9c0-9.1,0-18.1,0-27.2c0-0.5,0-1.1,0-1.6c0.1-2.2,1.8-3.8,3.9-3.9
			c2.2-0.1,3.9,1.4,4.3,3.6c0.1,0.6,0.1,1.2,0.1,1.9c0,8.9,0,17.9,0,26.8c0,0.4,0,0.8,0,1.2c0,0.8,0.3,1.1,1.1,1.1
			c1.3,0,2.6,0,3.9,0c0.7,0,1.3,0,2,0.2c2.3,0.6,3.2,2.2,3,4.8c-0.2,2-1.6,3.2-3.8,3.3c-0.1,0-0.2,0-0.4,0c-1.7,0-1.7,0.1-1.7,1.8
			c0,1.2,0,2.3,0,3.5c-0.1,1.3-0.4,1.6-1.7,1.7c-0.5,0-1,0-1.5,0c-36.6,0-73.2,0-109.9,0c-3.1,0-3.1,0-3.1-3.1c0-0.9,0-1.8,0-2.7
			c0-0.8-0.4-1.2-1.1-1.1c-0.2,0-0.5,0-0.7,0c-2.4-0.1-3.4-0.9-3.9-3.1c0-0.7,0-1.3,0-2c0.7-2.2,1.9-3,4.2-3.1c1.4,0,2.7,0,4.1,0
			c1.4,0,1.5-0.1,1.5-1.5c0-3.7,0-7.5,0-11.2c0-5.6,0-11.1,0-16.7c0-0.7,0-1.3,0.1-2c0.4-2.1,2.1-3.3,4.3-3.2
			c2.1,0.1,3.7,1.7,3.8,3.7c0.1,0.6,0,1.2,0,1.7c0,8.9,0,17.9,0,26.8c0,0.4,0,0.7,0,1.1c0,0.2,0,0.4,0.1,0.6
			c0.8,1.2,1.9,0.5,2.9,0.6c0.6,0.1,1.1-0.2,1.2-0.9c0-0.5,0-1,0-1.5c0-12.3,0-24.6,0-36.9c0-0.8,0-1.7,0.2-2.5
			C23.1,6.8,24.3,6.1,26,5.8z"/>
		<path d="M0,117.2c1-2.1,2.6-3,4.9-2.7c1,0.1,1.4-0.1,1.4-1.3c-0.1-6.4,0-12.8-0.1-19.2c0-1,0.3-1.2,1.2-1.2c37.7,0,75.3,0,113,0
			c1,0,1.2,0.3,1.2,1.2c0,6.4,0,12.9,0,19.3c0,0.9,0.2,1.3,1.1,1.2c0.9-0.1,1.7-0.1,2.6,0.2c1.7,0.6,2.8,2.3,2.5,4.1
			c-0.2,1.7-1.6,3-3.3,3.2c-0.5,0-0.9,0.1-1.4,0.1c-13.9,0-27.8,0-41.7,0c-1,0-1.3-0.2-1.3-1.3c0.1-3.5,0-6.9,0-10.4
			c0-2.5-1.5-4.2-3.7-4.2c-2.2,0-3.8,1.7-3.8,4.2c0,3.5,0,7.1,0,10.6c0,0.8-0.2,1.1-1,1c-1.3-0.1-3,0.4-3.7-0.2
			c-0.8-0.7-0.2-2.4-0.2-3.7c0-2.6,0-5.2,0-7.7c0-2.5-1.5-4.2-3.8-4.2c-2.2,0-3.7,1.7-3.7,4.2c0,3.5,0,7.1,0,10.6c0,0.8-0.2,1.1-1,1
			c-1-0.1-2-0.1-3,0c-0.9,0.1-1-0.3-1-1c0-3.6,0-7.2,0-10.9c0-3.1-3.1-5-5.6-3.4c-1.3,0.8-1.8,2-1.8,3.5c0,3.6,0,7.2,0,10.9
			c0,0.7-0.1,1-0.9,1c-14.2,0-28.4,0-42.6,0c-2.1,0-3.4-1-4.2-2.8C0,118.5,0,117.9,0,117.2z"/>
		<path d="M0,73.7c0.8-1.8,2.3-2.6,4.3-2.5c2.4,0.1,4.8,0,7.2,0c0.7,0,1,0.1,1,0.9c0,4.4,0,8.8,0,13.2c0,0.7-0.2,1-1,1
			c-2.4-0.1-4.7-0.1-7.1,0c-2,0.1-3.5-0.6-4.5-2.4C0,80.6,0,77.2,0,73.7z"/>
		<path d="M19.2,78.8c0-2.2,0-4.4,0-6.6c0-0.7,0.2-0.9,0.9-0.9c3.6,0,7.2,0,10.7,0c0.7,0,0.9,0.2,0.9,0.9c0,4.4,0,8.9,0,13.3
			c0,0.7-0.2,0.9-0.9,0.9c-3.6,0-7.2,0-10.7,0c-0.7,0-0.9-0.2-0.9-0.9C19.3,83.3,19.2,81,19.2,78.8z"/>
		<path d="M38.4,78.8c0-2.2,0-4.4,0-6.6c0-0.7,0.1-0.9,0.9-0.9c3.6,0,7.2,0,10.7,0c0.7,0,0.9,0.1,0.9,0.9c0,4.4,0,8.9,0,13.3
			c0,0.7-0.1,0.9-0.9,0.9c-3.6,0-7.2,0-10.7,0c-0.8,0-0.9-0.3-0.9-1C38.5,83.2,38.4,81,38.4,78.8z"/>
		<path d="M57.7,78.9c0-2.2,0-4.4,0-6.6c0-0.7,0.1-1,0.9-1c3.6,0.1,7.2,0,10.7,0c0.7,0,0.9,0.3,0.9,0.9c0,4.4,0,8.9,0,13.3
			c0,0.7-0.3,0.9-0.9,0.9c-3.6,0-7.2,0-10.7,0c-0.8,0-0.9-0.3-0.9-0.9C57.7,83.3,57.7,81.1,57.7,78.9z"/>
		<path d="M89.4,78.9c0,2.2,0,4.4,0,6.6c0,0.7-0.2,0.9-0.9,0.9c-3.6,0-7.2,0-10.7,0c-0.7,0-0.9-0.2-0.9-0.9c0-4.4,0-8.9,0-13.3
			c0-0.7,0.2-0.9,0.9-0.9c3.6,0,7.2,0,10.7,0c0.7,0,0.9,0.2,0.9,0.9C89.4,74.4,89.4,76.7,89.4,78.9z"/>
		<path d="M96.1,78.8c0-2.2,0-4.4,0-6.6c0-0.7,0.2-0.9,0.9-0.9c3.6,0,7.2,0,10.7,0c0.7,0,0.9,0.2,0.9,0.9c0,4.4,0,8.9,0,13.3
			c0,0.7-0.2,0.9-0.9,0.9c-3.6,0-7.2,0-10.7,0c-0.7,0-0.9-0.2-0.9-0.9C96.1,83.3,96.1,81,96.1,78.8z"/>
		<path d="M115.3,78.8c0-2.2,0-4.3,0-6.5c0-0.8,0.3-1,1-1c2.6,0,5.2,0,7.9,0c2.3,0,3.6,1.4,3.6,3.7c0,2.6,0,5.2,0,7.7
			c0,2.2-1.2,3.6-3.2,3.6c-2.9,0.1-5.7,0-8.6,0.1c-0.7,0-0.7-0.4-0.7-0.9C115.3,83.3,115.3,81,115.3,78.8z"/>
	</g>
</g>
</svg>
