<?xml version="1.0" encoding="utf-8"?>
<!-- Generator: Adobe Illustrator 28.0.0, SVG Export Plug-In . SVG Version: 6.00 Build 0)  -->
<svg version="1.1" id="Layer_1" xmlns="http://www.w3.org/2000/svg" xmlns:xlink="http://www.w3.org/1999/xlink" x="0px" y="0px"
	 viewBox="0 0 128 128" style="enable-background:new 0 0 128 128;" xml:space="preserve">
<g id="_x35_GsjGg.tif">
	<g>
		<path d="M101.3,40c-1.7,0.1-3.3,0-5,0c-0.8,0-1.1-0.3-1.4-1c-2.2-4.5-5.8-7-10.8-7.1C70.7,32,57.4,32,44,32c-5.2,0-8.9,2.6-11,7.3
			c-0.2,0.5-0.5,0.7-1.1,0.7c-1.9,0-3.7,0-5.6,0c-1.5,0-2.2,0.7-2.2,2.2c0,16.5,0,33.1,0,49.6c0,1.5,0.7,2.2,2.2,2.2
			c1.8,0,3.6,0.1,5.4,0c0.8,0,1.1,0.3,1.4,1c2,4.2,5.4,6.6,10.1,7c0.9,0.1,0.9,0.4,0.9,1.1c0,5.2,0,10.3,0,15.5
			c0,5.3,4.2,9.5,9.5,9.5c7,0,14,0,21,0c0.5,0,1.1,0,1.6-0.1c4.8-1,7.9-4.7,7.9-9.6c0-5.1,0-10.2,0-15.2c0-0.5-0.2-1,0.7-1
			c4.8-0.3,8.2-2.8,10.2-7.2c0.3-0.6,0.6-0.8,1.3-0.8c1.7,0.1,3.3,0,5,0c1.2,0.1,2.1-0.3,2.7-1.3V41.2
			C103.3,40.3,102.5,39.9,101.3,40z M42.1,36.3c0.8-0.2,1.6-0.3,2.5-0.3c13,0,26,0,39,0c3,0,5.4,1.2,7.2,4H37.2
			C38.4,38,40,36.8,42.1,36.3z M44,94.7c0,0.5,0,1,0,1.5c0,2,0,2-1.9,1.6c-2.1-0.5-3.7-1.7-5-3.7c2.2,0,4.2,0,6.2,0
			C43.9,94,44.1,94.1,44,94.7z M80,118.2c0,3.2-2.3,5.6-5.5,5.7c-2.6,0.1-5.2,0-7.7,0c-0.9,0-0.7-0.5-0.7-1c0-7.5,0-15.1,0-22.6
			c0-1.4-0.6-2.2-1.7-2.4c-1.4-0.2-2.3,0.7-2.3,2.2c0,5.4,0,10.8,0,16.2c0,2.2,0,4.4,0,6.6c0,0.7-0.1,0.9-0.9,0.9c-2.5,0-5,0-7.5,0
			c-3.3-0.1-5.6-2.4-5.6-5.7c0-7.7,0-15.5,0-23.2c0-0.8,0.2-1,1-1c5,0,10,0,15,0c5,0,10,0,15,0c0.8,0,1,0.2,1,1
			C80,102.7,80,110.5,80,118.2z M84.5,98C84.1,98,84,97.9,84,97.4c0-1,0-1.9,0-2.9c0-0.6,0.3-0.6,0.7-0.6c2,0,4,0,6.2,0
			C89.3,96.5,87.2,97.6,84.5,98z M98.9,90c-23.3,0-46.6,0-69.9,0c-0.8,0-1-0.2-1-1c0-14.7,0-29.3,0-44c0-0.8,0.2-1,1-1
			c10.6,0,21.3,0,31.9,0c0.8,0,1,0.2,1,1c0,3.3,0,6.7,0,10c0,2.1,0,2.1-2,3.1c-0.3-1.2-0.4-2.5-0.8-3.6c-0.9-3.2-2.6-5.7-6.1-6.4
			c-2.7-0.5-5.3,0.2-7.6,1.8c-4.5,3-7.2,7.3-8.8,12.3c-2.3,6.9-1.8,13.6,2.6,19.7c3.4,4.7,8.7,5.5,13.3,2c4.7-3.7,7.6-8.5,7.5-14.7
			c0-1.7,0-3.4,0-5.1c0-0.7,0.2-1.1,0.8-1.4c1.1-0.7,2.1-1.9,3.2-1.9c1,0,2.1,1.2,3.1,1.8c0.7,0.4,0.9,0.9,0.9,1.7
			c0.1,2.8-0.3,5.6,0.2,8.3c1.1,5,3.7,9.1,8,11.8c4.4,2.9,9.3,1.9,12.5-2.5c3.9-5.5,4.8-11.6,3.1-18c-1.4-5.4-4.1-10.1-8.6-13.5
			c-1.8-1.4-3.9-2.3-6.3-2.4c-3.8-0.1-6.3,1.6-7.7,5.1c-0.5,1.4-0.9,2.8-1,4.2c0,0.7-0.2,0.8-0.9,0.4c-1-0.6-1.4-1.2-1.4-2.4
			c0.1-3.5,0.1-6.9,0-10.4c0-0.8,0.2-1,1-1c10.6,0,21.3,0,31.9,0c0.8,0,1,0.2,1,1c0,14.7,0,29.3,0,44C100,89.8,99.8,90,98.9,90z
			 M48.8,69.2c-0.9-0.6-2.1-0.4-2.8,0.6c-0.2,0.2-0.3,0.5-0.5,0.7c-1.2,1.6-2.8,2.3-4.7,2.4c-0.7,0-1.1-0.1-1.2-0.9
			c-0.5-4.3,0.5-8.3,2.5-12.1c0.6,0.4,1,1,1.4,1.6c0.8,1,1.8,1.3,2.8,0.6c1-0.6,1.2-1.7,0.6-2.8c-0.5-0.9-1.2-1.7-2-2.4
			c-0.4-0.3-0.5-0.5-0.1-1c1.7-1.8,3.5-3.3,6-3.8c1.8-0.4,3.2,0.3,4,2c1,2,1.2,4.2,1.3,6.4c0.1,3.2,0.2,6.4,0,9.6
			c-0.4,4.8-2.7,8.6-6.9,11.1c-2.3,1.4-4.5,0.8-6.3-1.3c-0.7-0.8-1.3-1.7-1.7-2.8c3.6-0.3,6.5-1.9,8.4-5.1
			C50,71,49.8,69.9,48.8,69.2z M81.8,62.1c1,0.7,2,0.4,2.8-0.6c0.4-0.5,0.7-1.1,1.4-1.6c2,3.8,3,7.8,2.5,12.1
			c-0.1,0.9-0.6,1-1.3,0.9c-2.1-0.2-3.8-1.1-4.9-2.9c-0.8-1.2-2-1.5-3-0.8c-1,0.7-1.2,1.8-0.5,2.9c1.9,3,4.6,4.5,8.2,4.9
			c-0.8,1.9-1.9,3.5-3.8,4.4c-1.4,0.7-2.7,0.6-4-0.2c-4.4-2.5-6.8-6.4-7.1-11.3c-0.3-3.9-0.2-7.9,0.2-11.9c0.2-1.5,0.4-3,1.2-4.3
			c0.9-1.6,2.1-2.1,3.9-1.7c2.5,0.5,4.3,2,6,3.8c0.4,0.4,0.3,0.6-0.1,1c-0.8,0.7-1.5,1.5-2,2.4C80.6,60.4,80.8,61.5,81.8,62.1z"/>
		<path d="M77.5,10.1C76.1,5,71.1,0.6,66.3,0.2C65.9,0,65.4,0.3,65,0h-2c-0.4,0.3-0.9,0-1.3,0.2c-0.2,0-0.3,0-0.5,0
			C54.5,1.4,49.6,7.9,50,15.2c0.4,6.5,6.3,12.5,12.8,12.8C72.9,28.5,80.1,19.7,77.5,10.1z M64,24c-5.4,0-10-4.6-10-10
			c0-5.5,4.6-10,10-10c5.4,0,9.9,4.5,9.9,9.9C74,19.4,69.4,24,64,24z"/>
		<path d="M63,0c-0.4,0.4-0.8,0.3-1.3,0.2c0-0.1,0-0.1,0.1-0.2c0,0,0-0.1,0-0.1C62.2,0,62.6,0,63,0z"/>
		<path d="M66.3,0.2c-0.4,0-0.9,0.1-1.3-0.2c0.4,0,0.8,0,1.2,0C66.3,0.1,66.3,0.2,66.3,0.2z"/>
	</g>
</g>
</svg>
