<?xml version="1.0" encoding="utf-8"?>
<!-- Generator: Adobe Illustrator 27.9.0, SVG Export Plug-In . SVG Version: 6.00 Build 0)  -->
<svg version="1.1" id="Layer_1" xmlns="http://www.w3.org/2000/svg" xmlns:xlink="http://www.w3.org/1999/xlink" x="0px" y="0px"
	 viewBox="0 0 128 128" style="enable-background:new 0 0 128 128;" xml:space="preserve">
<path d="M50.39,69.88c0.08-9.54-7.78-17.44-17.4-17.51c-9.42-0.06-17.41,7.71-17.49,17.01c-0.08,9.78,7.53,17.78,16.99,17.85
	C42.43,87.32,50.31,79.67,50.39,69.88z M20.07,74.39c-1.61-5.43-0.68-10.26,3.34-14.23c3.95-3.91,8.74-4.77,14.06-3.21
	C31.63,62.8,25.89,68.56,20.07,74.39z M25.12,79.75c-1.53,0-2.52-1.56-1.86-2.83c0.19-0.36,0.48-0.67,0.77-0.96
	c4.99-5,9.99-10,14.99-15c0.38-0.38,0.74-0.82,1.29-0.93c0.87-0.18,1.68-0.03,2.19,0.79c0.54,0.88,0.46,1.76-0.26,2.5
	c-1.36,1.41-2.75,2.78-4.13,4.16c-3.73,3.73-7.47,7.46-11.2,11.2C26.36,79.21,25.81,79.7,25.12,79.75z M28.34,82.68
	c5.83-5.82,11.6-11.57,17.46-17.41c1.58,5.29,0.73,10.05-3.11,13.99C38.71,83.35,33.84,84.32,28.34,82.68z M11.49,12.43
	c0.04,7.21,0.03,14.42,0.01,21.62c0,0.72,0.22,0.9,0.92,0.9c13.67-0.02,27.33-0.02,41,0c0.75,0,0.89-0.26,0.89-0.94
	c-0.02-7.21-0.04-14.42,0.01-21.62c0.01-1.05-0.56-0.88-1.17-0.88c-7.92,0-15.83,0-23.75,0c-1.61,0-2.55-0.94-2.24-2.23
	c0.27-1.17,1.08-1.55,2.22-1.54c7.37,0.02,14.75,0.01,22.12,0.01c1.42,0,2.83,0,4.25,0c1.73,0.01,2.4,0.66,2.42,2.42
	c0.02,2.5,0.01,5,0.01,7.5c0,6.08,0,12.17,0,18.25c0,2.23-0.59,2.82-2.8,2.82c-7.46,0-14.92,0-22.37,0c-7.54,0-15.08,0-22.63,0
	c-2.02,0-2.62-0.59-2.62-2.56c0-8.67,0-17.33,0-26c0-1.8,0.61-2.42,2.36-2.42c3.25-0.01,6.5-0.01,9.75,0c1.42,0,2.32,0.74,2.32,1.88
	c0,1.14-0.88,1.87-2.31,1.88c-2.46,0.01-4.92,0.03-7.37-0.01C11.79,11.49,11.49,11.6,11.49,12.43z M44.15,30.97
	c2.58,0.22,5.09-1.48,5.93-4.03c0.4-1.21,0.31-2.47,0.35-3.71c-0.05-0.87-0.04-1.75-0.14-2.62c-0.35-2.79-2.6-4.95-5.28-5.09
	c-2.93-0.16-5.39,1.64-6.04,4.5c-0.43,1.89-0.29,3.83-0.14,5.72C39.05,28.56,41.37,30.73,44.15,30.97z M42.67,21.14
	c0.07-1.12,0.98-1.88,1.99-1.84c1.04,0.05,1.81,0.84,1.87,1.96c0.03,0.67,0,1.33,0.01,2c0,0.62,0.02,1.25,0,1.87
	c-0.05,1.17-0.74,1.92-1.81,1.98c-1.12,0.07-1.99-0.64-2.05-1.86C42.58,23.89,42.58,22.51,42.67,21.14z M13.58,93.18
	c-3.22-0.03-5.81,2.51-5.83,5.71c-0.02,3.22,2.53,5.83,5.71,5.85c3.2,0.03,5.79-2.53,5.81-5.73C19.29,95.75,16.81,93.21,13.58,93.18
	z M13.47,100.92c-1.04-0.03-1.98-1.01-1.94-2.03c0.04-1.06,0.97-1.93,2.05-1.9c1.09,0.03,1.95,0.93,1.93,2.01
	C15.47,100.04,14.51,100.95,13.47,100.92z M28.56,45.03c1.11-0.16,2.05,0.78,2.07,1.79c-0.08,0.98-0.48,1.7-1.4,1.9
	c-1.91,0.42-3.74,1.04-5.55,1.77c-0.99,0.4-1.98-0.04-2.41-0.93c-0.43-0.89-0.13-1.98,0.82-2.46C24.13,46.07,26.3,45.36,28.56,45.03
	z M8.04,66.04c0.19-1.01,0.97-1.54,2-1.49c1.14,0.06,1.75,0.99,1.69,2.71c-0.24,1.47-0.25,3.2-0.04,4.94
	c0.13,1.12-0.62,1.98-1.63,2.13c-1.1,0.16-1.97-0.47-2.15-1.73C7.6,70.41,7.65,68.21,8.04,66.04z M43.62,47.01
	c0.95,0.47,1.33,1.27,1.05,2.27c-0.25,0.9-0.97,1.3-1.88,1.39c-0.27-0.07-0.58-0.11-0.83-0.23c-1.61-0.79-3.33-1.23-5.06-1.67
	c-1.3-0.33-1.9-1.23-1.62-2.35c0.25-1.01,1.28-1.61,2.46-1.35C39.77,45.5,41.75,46.1,43.62,47.01z M17.74,54.68
	c-1.34,1.59-2.56,3.24-3.7,4.98c-0.57,0.86-1.51,0.98-2.42,0.45c-0.89-0.52-1.18-1.44-0.78-2.26c1.05-2.17,2.5-4.1,4.28-5.75
	c0.26-0.24,0.63-0.42,0.92-0.35c0.84,0,1.39,0.34,1.76,0.95C18.18,53.36,18.22,54.11,17.74,54.68z M55.95,74.29
	c-1.05-0.09-1.67-0.68-1.71-1.76c-0.03-0.83-0.01-1.66-0.01-2.49c0.01-1.07,0.07-2.15-0.12-3.22c-0.2-1.12,0.54-2.12,1.59-2.3
	c0.99-0.17,1.96,0.47,2.16,1.6c0.38,2.22,0.42,4.46,0.09,6.69C57.78,73.82,57.02,74.38,55.95,74.29z M51.79,59.62
	c-1.09-1.72-2.3-3.34-3.63-4.88c-0.69-0.8-0.53-1.74,0.23-2.45c0.76-0.71,1.69-0.81,2.46-0.08c1.71,1.59,3.07,3.48,4.15,5.55
	c0.11,0.21,0.15,0.47,0.21,0.68c-0.14,0.87-0.48,1.55-1.33,1.82C53.06,60.51,52.25,60.36,51.79,59.62z M29,30.97
	c-1.11-0.09-1.87-0.92-1.81-1.97c0.06-1.13,0.7-1.77,1.82-1.81c1.33-0.05,2.66-0.05,3.98,0c1.11,0.04,1.76,0.67,1.81,1.81
	c0.05,1.06-0.69,1.88-1.81,1.97c-0.66,0.05-1.33,0.01-1.99,0.01C30.33,30.98,29.66,31.02,29,30.97z M50.3,82.41
	c0.55-1.06,1.18-2.1,1.87-3.07c0.5-0.7,1.25-0.92,2.1-0.6c0.84,0.32,1.23,0.93,1.24,2.13c-0.58,1.29-1.22,2.88-2.6,3.94
	c-0.66,0.51-1.53,0.36-2.18-0.24C50.09,83.97,49.9,83.18,50.3,82.41z M13.5,79.14c0.82,1.08,1.59,2.24,2.15,3.48
	c0.56,1.23-0.59,2.53-2.03,2.41c-0.34,0.01-0.71-0.12-0.96-0.4c-0.99-1.13-1.82-2.39-2.28-3.81c-0.27-0.84,0.22-1.55,0.96-1.97
	C12.11,78.41,12.98,78.46,13.5,79.14z M123.95,38.52c0.19,1.1,0.96,1.88,1.94,2c0.99,0.11,1.61-0.33,2.1-1.52v-6.75
	c-0.61-0.98-1.49-1.31-2.63-1.25c-1.37,0.07-2.75-0.01-4.12,0.03c-0.65,0.02-0.97-0.03-1.05-0.88c-0.38-3.92-3.77-6.9-7.71-6.89
	c-3.87,0.02-6.91,2.71-7.62,6.87c-0.13,0.75-0.35,0.91-1.06,0.91c-3.25-0.04-6.5-0.04-9.75,0c-0.69,0.01-1-0.09-1.07-0.91
	c-0.32-3.75-3.58-6.76-7.33-6.86c-4.06-0.11-7.4,2.72-7.91,6.77c-0.1,0.79-0.36,1.05-1.16,1c-1.21-0.07-2.42-0.02-3.62-0.02
	c-2.67,0-3.14,0.46-3.14,3.11v64.5c0,1.83-0.03,3.67,0.01,5.5c0.08,3.69,2.11,6.62,5.3,7.88c0.81,0.32,2.05-0.02,2.39,0.88
	c0.32,0.84,0.04,1.89,0.09,2.85c0.03,0.61-0.2,0.77-0.79,0.77c-6.08-0.02-12.17,0.03-18.25-0.04c-2.34-0.02-3.89-1.57-4.25-3.97
	c1,0,2,0,3,0c5.04-0.01,8.6-3.47,8.6-8.51c0.02-31.83,0.01-63.66,0.01-95.5c0-0.08,0-0.17,0-0.25C65.79,3.39,62.31,0,57.45,0
	C41,0,24.54,0,8.08,0.01c-4.51,0-8.08,3.57-8.08,8.07C0,40.2,0,72.32,0.01,104.44c0,3.76,2.6,7.01,6.28,7.81
	c2.51,0.55,5.06,0.15,7.6,0.23c1.34,0.04,2.16-0.71,2.18-1.85c0.02-1.18-0.74-1.89-2.11-1.91c-1.71-0.03-3.42,0-5.12-0.01
	c-3.33-0.01-5.07-1.75-5.07-5.08c0-31.58,0-63.16,0-94.74c0-3.41,1.73-5.14,5.13-5.14c16.04,0,32.08,0.03,48.12-0.03
	c2.6-0.01,5.1,1.55,5.09,5.08c-0.07,31.62-0.07,63.25,0,94.87c0.01,3.31-2.24,5.17-5.1,5.07c-2.75-0.1-2.72-0.02-2.77-2.79
	c-0.02-0.98,0.16-1.6,1.14-2.13c2.23-1.21,3.21-3.86,2.6-6.34c-0.58-2.36-2.75-4.12-5.24-4.27c-2.61-0.15-4.82,1.27-5.76,3.7
	c-0.9,2.34-0.35,5.17,1.78,6.44c1.68,1.01,1.92,2.23,1.73,3.85c-0.02,0.16-0.03,0.34,0,0.5c0.13,0.82-0.19,1.05-1.02,1.04
	c-3.96-0.04-7.92-0.02-11.87-0.02c-2.76,0-2.7,0-2.78-2.79c-0.03-1.04,0.26-1.59,1.19-2.12c2.2-1.26,3.16-3.82,2.54-6.22
	c-0.66-2.55-2.69-4.23-5.25-4.37c-2.53-0.14-4.81,1.3-5.73,3.6c-0.92,2.32-0.35,5.29,1.83,6.56c1.66,0.97,1.74,2.14,1.64,3.65
	c-0.02,0.25-0.03,0.5,0.01,0.75c0.11,0.75-0.16,1-0.95,0.98c-2.25-0.06-4.5-0.03-6.75-0.02c-1.43,0.01-2.3,0.74-2.3,1.87
	c0,1.16,0.88,1.89,2.3,1.9c2.29,0.01,4.58,0.03,6.87-0.01c0.64-0.01,0.87,0.14,0.84,0.82c-0.06,1.37-0.04,2.75-0.01,4.12
	c0.07,2.67,0.97,5.01,2.73,7.04c1.61,1.86,3.76,2.76,6,3.54H75c3.5-0.6,5.6-2.74,6.48-6.09c0.31-1.17,1.01-1.33,2.02-1.32
	c9.45,0.02,18.9,0.02,28.36,0.01c4.08,0,7.28-2.39,8.41-6.33c0.27-0.95,0.73-1.45,1.69-1.73c3.28-0.97,5.5-3,6.03-6.53V46.25
	c-0.76-1.26-1.69-1.65-2.76-1.13c-0.91,0.44-1.33,1.22-1.35,2.22c-0.03,1.71,0,3.41-0.02,5.12c-0.01,0.45,0.1,1.02-0.4,1.23
	c-0.78,0.33-1.66,0.34-2.44,0.03c-0.6-0.24-0.4-0.95-0.4-1.46c-0.02-5.08-0.01-10.16-0.01-15.24c0-1.85,0.15-1.95,2-1.9
	c0.91,0.03,1.27,0.41,1.25,1.29C123.86,37.11,123.83,37.82,123.95,38.52z M74.85,34.81c2.75,0.05,2.75,0,2.75,2.71v7.12
	c0,2.87-0.02,5.74,0.01,8.61c0.01,0.75-0.1,1.08-0.98,1.08c-2.92-0.02-2.92,0.03-2.92-2.86c0-5.16,0.03-10.32-0.03-15.48
	C73.68,35.05,73.91,34.8,74.85,34.81z M76.73,108.5c-1.53-0.4-2.92-2.09-2.99-3.75c-0.05-1.03,0.02-2.08-0.04-3.11
	c-0.04-0.7,0.27-0.8,0.88-0.81c3.03-0.09,3.03-0.1,3.03,2.9v0.99c0,1.04-0.05,2.08,0.02,3.11C77.67,108.62,77.31,108.65,76.73,108.5
	z M76.42,97.04c-2.71-0.07-2.71-0.02-2.71-2.7V77.49c0-6.07,0.02-12.15-0.02-18.22c-0.01-0.85,0.17-1.12,1.07-1.11
	c2.84,0.04,2.84,0,2.84,2.83c0,11.61-0.01,23.22,0.02,34.82C77.63,96.78,77.41,97.07,76.42,97.04z M32.99,100.92
	c-1.07,0.04-1.99-0.86-2-1.95c-0.01-1.12,0.84-1.98,1.95-1.98c1.1,0,1.99,0.91,1.97,1.99C34.88,100.02,34.02,100.89,32.99,100.92z
	 M50.42,98.89c0.02-1.06,0.84-1.88,1.9-1.9c1.12-0.02,1.96,0.82,1.97,1.95c0,1.12-0.86,2-1.95,1.99
	C51.24,100.91,50.39,100.01,50.42,98.89z M77.26,121.56c-0.86,1.87-2.38,2.69-4.4,2.69h-15.5c-5,0-10,0-15,0
	c-4.68-0.01-7.51-2.85-7.53-7.54c0-1.17,0.02-2.34-0.01-3.5c-0.02-0.54,0.16-0.72,0.71-0.72c4.79,0.02,9.58,0.02,14.37,0
	c0.52,0,0.56,0.21,0.63,0.65c0.67,4.3,3.94,7.1,8.26,7.11c5.87,0.01,11.75,0,17.62,0C77.74,120.25,77.82,120.35,77.26,121.56z
	 M116.5,53.25c0.01,0.75-0.1,1.08-0.98,1.08c-3.02-0.01-3.02,0.03-3.02-3.01c0-2.21,0.02-4.42,0-6.62
	c-0.02-2.31-1.03-4.09-3.07-5.18c-0.61-0.32-0.79-0.67-0.8-1.33c-0.02-3.34-0.04-3.34,3.24-3.34c1.25,0,2.5,0.04,3.75-0.02
	c0.73-0.03,0.9,0.24,0.89,0.93c-0.04,3-0.02,6-0.02,9C116.49,47.58,116.46,50.41,116.5,53.25z M108.81,29.85
	c0.35-1.52,2.1-2.78,3.72-2.78c1.66-0.01,3.25,1.16,3.73,2.76c0.11,0.35,0.15,0.72,0.24,1.19c-2.47,0-4.87,0.01-7.27-0.01
	C108.19,31,108.72,30.2,108.81,29.85z M106.6,42.65c1.11-0.06,2.05,0.65,2.08,1.85c0.08,3.07,0.03,6.15,0.05,9.22
	c0,0.43-0.17,0.61-0.58,0.58c-0.04,0-0.09,0-0.13,0c-3.27,0.26-3.27,0.26-3.27-2.97v-2.24c0-1.46-0.02-2.91,0-4.36
	C104.77,43.51,105.51,42.71,106.6,42.65z M107.47,62.07c-0.24-0.04-0.5-0.01-0.75-0.01c-1.98,0-1.98,0-1.98-2.03
	c0-1.85,0-1.85,1.91-1.85c2.07,0,2.07,0,2.07,2.09c0,0.17-0.02,0.34,0.01,0.5C108.9,61.79,108.54,62.26,107.47,62.07z M96.37,34.84
	h2.62c1.62,0,3.25,0.03,4.87-0.02c0.68-0.02,1.02,0.14,0.92,0.89c-0.05,0.41-0.06,0.84,0,1.25c0.19,1.37-0.14,2.28-1.5,3.06
	c-1.68,0.95-2.35,2.72-2.34,4.69c0.01,2.87-0.02,5.74,0.02,8.61c0.01,0.74-0.16,0.99-0.95,1c-3.02,0.03-3.02,0.06-3.02-3
	c0-2.17,0.02-4.33,0-6.49c-0.02-2.4-1.03-4.25-3.19-5.36c-0.59-0.3-0.72-0.65-0.73-1.25C93.01,34.84,93,34.84,96.37,34.84z
	 M91.06,42.65c1.18-0.07,2.05,0.66,2.08,1.98c0.07,3,0.02,6,0.04,8.99c0,0.58-0.26,0.66-0.75,0.69c-3.2,0.21-3.2,0.22-3.2-2.94
	v-2.37c0-1.42-0.02-2.83,0.01-4.25C89.25,43.49,89.95,42.71,91.06,42.65z M93.17,60.03c0,2.03,0,2.03-2.49,2.03
	c-1.46,0-1.46,0-1.46-2.53c0-1.35,0-1.37,2.51-1.35C93.42,58.2,93.14,57.92,93.17,60.03z M81.52,30.13
	c0.33-1.68,2.13-3.11,3.89-3.07c1.8,0.04,3.49,1.46,3.81,3.17c0.11,0.59-0.04,0.82-0.68,0.79c-1.08-0.05-2.15-0.01-3.23-0.01
	c-1.03,0-2.07-0.05-3.11,0.02C81.42,31.08,81.41,30.69,81.52,30.13z M82.45,34.82c1.99,0.07,3.99,0.05,5.98,0.01
	c0.66-0.01,0.91,0.19,0.84,0.84c-0.04,0.37-0.04,0.75,0,1.12c0.17,1.43-0.08,2.44-1.56,3.27c-1.77,0.99-2.34,2.91-2.32,4.94
	c0.02,2.7-0.03,5.4,0.02,8.11c0.02,0.87-0.11,1.23-1.12,1.21c-2.81-0.06-2.81,0-2.81-2.84c0-2.29,0-4.57,0-6.86
	c0-2.91,0.02-5.82-0.01-8.73C81.45,35.14,81.55,34.78,82.45,34.82z M111.62,116.48c-6.87,0.01-13.75,0-20.62,0
	c-2.87,0-5.75-0.02-8.62,0.01c-0.67,0.01-0.92-0.14-0.93-0.87c-0.06-3.13-0.09-3.13,3.02-3.13h31.87
	C116.08,115.01,114.34,116.48,111.62,116.48z M115.47,108.73c-5.54-0.04-11.07-0.02-16.6-0.02c-5.45,0-10.9-0.01-16.35,0.02
	c-0.77,0-1.09-0.14-1.06-1c0.07-2,0.05-4,0.01-5.99c-0.02-0.71,0.2-0.91,0.91-0.91c11.07,0.02,22.14,0.02,33.21,0
	c0.67,0,0.95,0.14,0.93,0.88c-0.05,2-0.06,4,0,5.99C116.53,108.53,116.28,108.74,115.47,108.73z M115.36,97.04
	c-10.96-0.04-21.91-0.03-32.87-0.01c-0.78,0-1.05-0.15-1.04-1c0.03-12.29,0.03-24.58,0-36.86c0-0.86,0.28-1,1.05-1
	c2.88,0.01,2.88-0.02,2.88,2.81c0,0.83-0.01,1.67,0,2.5c0.03,1.8,0.7,2.54,2.52,2.44c1.19-0.06,1.45,0.35,1.38,1.44
	c-0.09,1.41-0.04,2.83-0.02,4.25c0.03,1.21,0.82,2.07,1.87,2.09c1.05,0.03,1.87-0.81,1.91-2.03c0.04-1.58,0.06-3.17,0-4.75
	c-0.03-0.77,0.2-1.06,0.98-0.97c0.66,0.07,1.35,0.06,1.95-0.28c0.7-0.41,1.02-1.05,1.01-1.88c-0.02-1.58,0.02-3.16-0.02-4.75
	c-0.01-0.6,0.1-0.85,0.8-0.87c3.17-0.08,3.17-0.11,3.17,3.02c0,0.75,0,1.5,0,2.25c0.02,1.84,0.65,2.57,2.45,2.49
	c1.15-0.05,1.49,0.28,1.4,1.42c-0.11,1.37-0.04,2.75-0.02,4.12c0.02,1.3,0.79,2.2,1.87,2.24c1.06,0.04,1.92-0.84,1.96-2.14
	c0.05-1.54,0.05-3.08,0-4.62c-0.02-0.73,0.13-1,0.94-1c2.5,0,2.94-0.5,2.94-3.02c0-1.29,0.03-2.58-0.01-3.87
	c-0.02-0.61,0.1-0.85,0.8-0.87c3.2-0.08,3.2-0.11,3.2,3.09v16.37c0,6.08-0.02,12.17,0.02,18.25
	C116.51,96.79,116.31,97.04,115.36,97.04z M121.44,108.39c-0.77,0.31-1.33,0.41-1.22-0.77c0.09-0.95,0.02-1.91,0.02-2.87
	c0-0.91,0.06-1.83-0.02-2.74c-0.07-0.88,0.12-1.22,1.12-1.2c2.91,0.06,2.91,0.01,2.9,2.9C124.24,106.04,123.26,107.67,121.44,108.39
	z M121.31,58.16c2.94,0.04,2.94,0,2.94,2.96c0,11.57-0.01,23.14,0.02,34.7c0,0.96-0.21,1.25-1.21,1.22
	c-2.82-0.07-2.82-0.02-2.82-2.83V77.48c0-6.07,0.02-12.15-0.02-18.22C120.22,58.4,120.41,58.15,121.31,58.16z M89.23,87.19
	c0.03,0.98-0.88,1.94-1.87,1.98c-1.01,0.03-1.9-0.84-1.93-1.88c-0.03-1.04,0.81-1.94,1.83-1.97C88.24,85.29,89.2,86.2,89.23,87.19z
	 M104.73,91.07c0.04,1.03-0.8,1.9-1.85,1.93c-1.08,0.03-1.91-0.75-1.93-1.82c-0.03-1.08,0.75-1.91,1.82-1.93
	C103.82,89.23,104.7,90.04,104.73,91.07z M112.49,83.34c0.01,1.05-0.82,1.9-1.87,1.91c-1.06,0.02-1.88-0.79-1.89-1.86
	c-0.01-1.08,0.77-1.88,1.84-1.89C111.65,81.48,112.48,82.28,112.49,83.34z M100.82,79.51c-0.03,1.08-0.87,1.88-1.93,1.85
	c-1.01-0.03-1.89-0.95-1.86-1.95c0.04-0.99,0.98-1.9,1.97-1.87C100.01,77.57,100.84,78.48,100.82,79.51z"/>
</svg>
