<?xml version="1.0" encoding="utf-8"?>
<!-- Generator: Adobe Illustrator 27.9.0, SVG Export Plug-In . SVG Version: 6.00 Build 0)  -->
<svg version="1.1" id="Layer_1" xmlns="http://www.w3.org/2000/svg" xmlns:xlink="http://www.w3.org/1999/xlink" x="0px" y="0px"
	 viewBox="0 0 128 128" style="enable-background:new 0 0 128 128;" xml:space="preserve">
<g id="dPpxEI.tif">
	<g>
		<path d="M36.25,128c-0.88-0.76-1.05-1.73-1.04-2.85c0.04-5.45,0.03-10.9,0.01-16.35c0-1,0.38-1.73,1.33-2
			c0.92-0.26,1.71,0.02,2.23,0.91c0.21,0.35,0.21,0.71,0.21,1.08c0,5.7-0.02,11.4,0.02,17.1c0.01,1.02-0.51,1.61-1.26,2.11
			C37.25,128,36.75,128,36.25,128z"/>
		<path d="M83,128c-0.93-0.64-1.26-1.51-1.24-2.64c0.05-3.62,0.02-7.24,0.02-10.85c0-1.02,0.38-1.79,1.37-2.14
			c0.85-0.3,1.54,0.02,2.09,0.69c0.36,0.45,0.42,0.99,0.42,1.53c0,3.7-0.01,7.4,0.01,11.1c0.01,0.99-0.44,1.71-1.16,2.31
			C84,128,83.5,128,83,128z"/>
		<path d="M0,90.25c0.61-0.98,1.49-1.32,2.63-1.25c1.24,0.07,2.49-0.01,3.74,0.02c1.2,0.03,2.06,0.83,2.09,1.87
			c0.03,1.04-0.8,1.89-2.01,1.92c-1.49,0.05-2.99-0.02-4.49,0.03c-0.91,0.03-1.38-0.59-1.96-1.1C0,91.25,0,90.75,0,90.25z"/>
		<path d="M81.78,86.13c0-6.58,0-13.16,0-19.73c0-0.49-0.05-0.98,0.15-1.47c0.37-0.88,1.01-1.3,1.94-1.23
			c0.89,0.07,1.47,0.54,1.66,1.43c0.08,0.36,0.11,0.74,0.11,1.11c0.01,13.24,0,26.48,0,39.72c0,0.17,0.01,0.33,0,0.5
			c-0.1,1.37-0.8,2.1-1.98,2.08c-1.15-0.02-1.88-0.81-1.89-2.17c-0.02-3.29-0.01-6.58-0.01-9.87
			C81.78,93.04,81.78,89.58,81.78,86.13z"/>
		<path d="M83.5,36.09c-4.55,0.24-8.13,4.03-7.96,8.42c0.18,4.43,3.99,8.07,8.32,7.94c4.51-0.13,8.17-3.98,7.99-8.37
			C91.69,39.52,87.87,35.88,83.5,36.09z M83.78,48.55c-2.49,0.03-4.35-1.82-4.35-4.3c0-2.43,1.84-4.27,4.25-4.28
			c2.41-0.02,4.31,1.81,4.35,4.17C88.06,46.63,86.22,48.53,83.78,48.55z"/>
		<path d="M31.06,28.34c-1.42-1.2-2.51-2.65-3.37-4.3c-0.61-1.15-1.49-1.84-2.86-1.82c-1.33,0-2.19,0.69-2.76,1.81
			c-0.86,1.63-1.98,3.05-3.36,4.3c-1.57,1.41-1.6,3.26-0.06,4.67c1.42,1.31,2.57,2.81,3.52,4.49c1.29,2.32,4.11,2.33,5.4,0.03
			c0.97-1.73,2.11-3.29,3.61-4.57c0.67-0.58,0.94-1.36,1.05-2.25C32.15,29.79,31.81,28.96,31.06,28.34z M27.55,31.1
			c-1.04,0.96-1.85,2.12-2.67,3.36c-0.83-1.17-1.6-2.35-2.64-3.29c-0.37-0.35-0.42-0.59,0-0.97c1.02-0.93,1.81-2.06,2.64-3.29
			c0.83,1.26,1.65,2.38,2.64,3.32C27.87,30.54,27.93,30.75,27.55,31.1z"/>
		<path d="M110.25,96.56c-1.5-1.36-2.65-2.94-3.66-4.68c-1.26-2.17-4.04-2.2-5.27-0.03c-1.02,1.79-2.24,3.37-3.75,4.78
			c-1.29,1.21-1.28,3.1,0.03,4.33c1.5,1.41,2.76,2.96,3.72,4.79c0.51,0.99,1.41,1.49,2.8,1.52c0.94,0.05,1.87-0.5,2.43-1.5
			c0.99-1.81,2.21-3.4,3.72-4.79C111.66,99.71,111.64,97.82,110.25,96.56z M106.66,99.17c-1.04,0.97-1.85,2.13-2.73,3.4
			c-0.78-1.25-1.57-2.32-2.54-3.24c-0.43-0.42-0.46-0.67-0.02-1.09c0.99-0.89,1.74-2,2.54-3.23c0.89,1.23,1.73,2.44,2.81,3.45
			C107.03,98.75,106.91,98.94,106.66,99.17z"/>
		<path d="M37.14,83.78c-3.88-0.02-7.14,3.26-7.13,7.16c0.02,3.88,3.2,7.05,7.08,7.06c3.93,0,7.16-3.23,7.14-7.14
			C44.21,87.02,40.97,83.8,37.14,83.78z M37.17,94.2c-1.77,0.05-3.36-1.53-3.34-3.32c0.02-1.79,1.47-3.21,3.29-3.21
			c1.82,0,3.23,1.39,3.23,3.21C40.36,92.68,38.96,94.15,37.17,94.2z"/>
		<path d="M81.78,12.51c0-3.37-0.01-6.74,0-10.11c0-1.55,0.69-2.38,1.91-2.4c1.24-0.01,1.95,0.8,1.96,2.36
			c0.02,6.7,0.01,13.4,0,20.1c0,1.52-0.75,2.42-1.92,2.44c-1.2,0.01-1.95-0.94-1.95-2.52C81.78,19.08,81.78,15.79,81.78,12.51z"/>
		<path d="M68.62,31.14c-0.59-0.07-1.09-0.32-1.52-0.75c-4.84-4.86-9.7-9.71-14.54-14.57c-0.97-0.97-0.99-2.02-0.15-2.85
			c0.78-0.79,1.94-0.74,2.87,0.18c4.86,4.85,9.7,9.71,14.56,14.55c0.66,0.66,0.87,1.42,0.55,2.27
			C70.1,30.74,69.42,31.07,68.62,31.14z"/>
		<path d="M98.89,57.5c0.52-0.03,0.99,0.28,1.42,0.7c4.85,4.85,9.71,9.7,14.55,14.56c0.93,0.93,0.97,2.08,0.19,2.87
			c-0.82,0.84-1.89,0.83-2.86-0.13c-4.89-4.87-9.76-9.76-14.65-14.64c-0.66-0.66-0.84-1.46-0.46-2.28
			C97.39,57.9,97.98,57.49,98.89,57.5z"/>
		<path d="M115.5,46.23c-3.33,0-6.65,0.01-9.98,0c-1.49,0-2.39-0.75-2.38-1.94c0.01-1.17,0.83-1.87,2.3-1.88
			c6.78-0.01,13.55-0.01,20.33,0c1.48,0,2.25,0.7,2.24,1.91c-0.01,1.19-0.84,1.89-2.27,1.9C122.32,46.24,118.91,46.23,115.5,46.23z"
			/>
		<path d="M115.58,14.1c0.02,0.81-0.27,1.29-0.7,1.72c-4.86,4.86-9.71,9.73-14.58,14.58c-0.95,0.94-2.07,0.95-2.87,0.13
			c-0.78-0.81-0.71-1.91,0.25-2.87c4.82-4.84,9.66-9.66,14.48-14.51c0.7-0.71,1.47-0.93,2.37-0.56
			C115.24,12.9,115.56,13.52,115.58,14.1z"/>
		<path d="M26.49,103.32c0,0.84-0.35,1.3-0.77,1.72c-3.97,3.97-7.93,7.95-11.91,11.92c-1.01,1.01-2.14,1.08-2.96,0.26
			c-0.85-0.86-0.78-1.9,0.25-2.94c3.96-3.98,7.94-7.95,11.91-11.92c0.66-0.66,1.39-1.05,2.34-0.6
			C26.11,102.11,26.47,102.71,26.49,103.32z"/>
		<path d="M49.61,101.53c0.6,0.06,1.1,0.31,1.53,0.74c4.03,4.03,8.06,8.06,12.08,12.1c0.96,0.97,0.97,2.04,0.14,2.86
			c-0.8,0.78-1.92,0.74-2.87-0.2c-4.01-3.99-8-8-12-12c-0.64-0.64-0.94-1.37-0.61-2.25C48.17,102,48.81,101.65,49.61,101.53z"/>
		<path d="M26.49,78.45c-0.03,1.39-1.54,2.28-2.78,1.62c-0.29-0.15-0.54-0.38-0.78-0.61c-3.94-3.94-7.89-7.87-11.81-11.83
			c-1.15-1.15-1.12-2.42,0.03-3.18c0.89-0.59,1.74-0.43,2.48,0.3c4.09,4.08,8.18,8.17,12.26,12.26
			C26.27,77.4,26.52,77.87,26.49,78.45z"/>
		<path d="M35.23,64.46c0-2.83-0.01-5.66,0-8.48c0.01-1.34,0.73-2.18,1.83-2.21c1.16-0.03,1.92,0.85,1.93,2.24
			C39,61.63,39,67.24,39,72.85c0,1.41-0.74,2.28-1.9,2.27c-1.17-0.01-1.85-0.85-1.86-2.3C35.23,70.03,35.23,67.24,35.23,64.46z"/>
		<path d="M63.63,92.84c-2.75,0-5.5,0.01-8.25,0c-1.64-0.01-2.4-0.61-2.42-1.86c-0.02-1.27,0.83-1.95,2.47-1.95
			c5.54,0,11.08,0.01,16.62-0.01c1.1,0,1.87,0.45,2.15,1.51c0.22,0.85-0.14,1.54-0.88,2.03c-0.49,0.32-1.03,0.28-1.57,0.28
			C69.04,92.84,66.33,92.84,63.63,92.84z"/>
		<path d="M63.97,65.95c-0.07,0.67-0.34,1.16-0.77,1.59c-4,4-7.99,8.01-12,11.99c-0.99,0.99-2.15,1.02-2.95,0.16
			c-0.78-0.83-0.7-1.88,0.27-2.85c3.99-4.01,7.99-8,11.98-12.01c0.64-0.64,1.36-0.94,2.25-0.57C63.53,64.59,63.84,65.24,63.97,65.95
			z"/>
		<path d="M101.22,49.25c0.16,0.03,0.37,0.05,0.56,0.12c3.08,1.21,6.17,2.41,9.24,3.65c0.81,0.33,1.22,1.04,1.13,1.9
			c-0.09,0.85-0.6,1.41-1.45,1.68c-0.45,0.14-0.83,0.03-1.21-0.12c-2.97-1.16-5.94-2.32-8.9-3.5c-0.96-0.38-1.48-1.13-1.27-2.16
			C99.51,49.87,100.18,49.35,101.22,49.25z"/>
		<path d="M111.75,32.89c0.02,0.91-0.48,1.5-1.25,1.84c-2.92,1.28-5.84,2.56-8.77,3.8c-1.13,0.48-2.12,0.05-2.56-1.01
			c-0.41-0.97-0.04-1.98,1.05-2.47c2.95-1.32,5.91-2.6,8.89-3.84C110.44,30.65,111.72,31.52,111.75,32.89z"/>
		<path d="M73.35,72.75c-1.27,0.03-2.3-1.11-1.86-2.32c1.17-3.22,2.44-6.41,3.75-9.58c0.41-1,1.39-1.18,2.33-0.81
			c0.97,0.38,1.46,1.27,1.1,2.23c-1.18,3.18-2.45,6.33-3.73,9.47C74.68,72.4,74.07,72.72,73.35,72.75z"/>
		<path d="M66.07,39.31c-0.19-0.05-0.51-0.12-0.82-0.23c-2.85-1.11-5.71-2.21-8.55-3.35c-1.2-0.48-1.68-1.45-1.31-2.45
			c0.4-1.1,1.42-1.58,2.64-1.12c2.94,1.12,5.86,2.26,8.77,3.44c0.97,0.39,1.56,1.13,1.3,2.25C67.87,38.81,67.21,39.3,66.07,39.31z"
			/>
		<path d="M96.03,17.93c0.05,0.32-0.15,0.7-0.3,1.08c-1.06,2.69-2.12,5.39-3.2,8.08c-0.55,1.37-1.48,1.93-2.53,1.56
			c-1.17-0.41-1.56-1.48-1.02-2.88c1.1-2.86,2.2-5.71,3.34-8.55c0.39-0.98,1.13-1.54,2.25-1.29C95.55,16.15,96.03,16.81,96.03,17.93
			z"/>
		<path d="M91.16,59.61c0.81,0.05,1.46,0.38,1.79,1.14c1.31,2.99,2.63,5.99,3.9,9c0.41,0.97-0.04,2-0.92,2.42
			c-0.94,0.45-2.08,0.11-2.53-0.9c-1.35-3.02-2.67-6.05-3.94-9.11C88.95,60.96,89.88,59.65,91.16,59.61z"/>
		<path d="M78.15,27.02c-0.08,0.91-0.48,1.57-1.3,1.86c-0.84,0.3-1.71,0.12-2.09-0.64c-1.58-3.18-3.03-6.43-4.23-9.77
			c-0.33-0.93,0.23-1.72,1.15-2.08c0.93-0.37,1.86-0.11,2.26,0.77c1.43,3.12,2.75,6.29,4.11,9.44
			C78.1,26.74,78.12,26.91,78.15,27.02z"/>
		<path d="M66.37,49.92c1.18,0.03,1.81,0.59,2.01,1.53c0.21,0.98-0.27,1.7-1.15,2.1c-1.58,0.72-3.17,1.41-4.76,2.1
			c-1.29,0.56-2.57,1.13-3.87,1.66c-1.26,0.51-2.32,0.17-2.75-0.84c-0.45-1.05,0-2.09,1.2-2.63c2.83-1.26,5.68-2.48,8.52-3.71
			C65.86,50.01,66.2,49.96,66.37,49.92z"/>
		<path d="M32.75,76.38c0.05,1.16-0.45,1.77-1.25,2.04c-0.85,0.29-1.77,0.11-2.17-0.74c-1.24-2.65-2.43-5.33-3.51-8.05
			c-0.35-0.88,0.14-1.69,1.04-2.14c0.89-0.44,1.8-0.25,2.2,0.51c1.44,2.69,2.62,5.5,3.67,8.37C32.77,76.45,32.75,76.54,32.75,76.38z
			"/>
		<path d="M24.49,84.91c0.02,1.55-1.13,2.54-2.34,2.11c-2.68-0.95-5.33-2-7.96-3.09c-0.93-0.38-1.29-1.56-0.85-2.45
			c0.45-0.92,1.24-1.39,2.25-1.02c2.63,0.98,5.23,2.01,7.84,3.06C24.14,83.82,24.44,84.45,24.49,84.91z"/>
		<path d="M28.5,114.93c-1.29,0.02-2.31-1.29-1.87-2.49c0.96-2.59,1.98-5.16,3.04-7.72c0.43-1.04,1.39-1.4,2.34-1.04
			c1.08,0.41,1.53,1.3,1.18,2.29c-0.95,2.68-2.04,5.32-3.12,7.95C29.81,114.59,29.15,114.82,28.5,114.93z"/>
		<path d="M51.47,86.61c-1-0.06-1.62-0.52-1.88-1.34c-0.28-0.89-0.02-1.76,0.81-2.14c2.66-1.23,5.34-2.43,8.07-3.49
			c0.96-0.38,1.76,0.27,2.15,1.22c0.39,0.94-0.05,1.91-1.16,2.41c-2.37,1.07-4.75,2.11-7.14,3.14
			C52.02,86.53,51.68,86.56,51.47,86.61z"/>
		<path d="M47.73,68.97c-0.1,0.31-0.18,0.68-0.32,1.02c-0.89,2.27-1.77,4.53-2.68,6.79c-0.53,1.32-1.52,1.83-2.63,1.41
			c-1.01-0.39-1.43-1.48-0.95-2.72c0.93-2.43,1.88-4.84,2.85-7.25c0.39-0.98,1.19-1.39,2.2-1.18
			C47.17,67.24,47.62,67.97,47.73,68.97z"/>
		<path d="M24.73,97.28c-0.06,0.75-0.51,1.35-1.29,1.69c-2.38,1.04-4.76,2.09-7.16,3.1c-1.16,0.48-2.16,0.1-2.62-0.9
			c-0.46-0.98-0.06-2.05,1.06-2.56c2.45-1.1,4.9-2.17,7.39-3.19C23.4,94.9,24.73,95.83,24.73,97.28z"/>
		<path d="M48.5,112.64c-0.1,0.9-0.5,1.57-1.34,1.81c-0.85,0.25-1.76,0.13-2.16-0.75c-1.21-2.62-2.4-5.25-3.45-7.94
			c-0.38-0.97,0.05-1.89,1.14-2.29c1.02-0.38,1.87-0.03,2.29,0.89c1.18,2.54,2.26,5.13,3.38,7.71
			C48.44,112.27,48.46,112.48,48.5,112.64z"/>
		<path d="M59.02,101.52c-0.16-0.04-0.45-0.09-0.71-0.19c-2.39-0.93-4.78-1.86-7.16-2.83c-1.25-0.51-1.72-1.51-1.29-2.57
			c0.42-1.03,1.48-1.41,2.72-0.94c2.4,0.92,4.79,1.85,7.17,2.81c1.02,0.41,1.48,1.22,1.23,2.3
			C60.75,101.01,60.1,101.47,59.02,101.52z"/>
		<path d="M58.75,46.23c-1.12,0-2.24,0.02-3.37-0.01c-1.3-0.03-2.13-0.81-2.13-1.94c0.01-1.07,0.8-1.85,2.05-1.86
			c2.33-0.04,4.66-0.04,6.98,0c1.29,0.02,1.99,0.76,1.97,1.91c-0.01,1.11-0.78,1.85-2.02,1.89C61.08,46.26,59.92,46.23,58.75,46.23z
			"/>
		<path d="M44.48,42.42c1.04,0,2.08-0.04,3.12,0.01c1.22,0.06,1.9,0.75,1.91,1.85c0.01,1.13-0.74,1.92-1.97,1.94
			c-2.04,0.04-4.08,0.04-6.12,0c-1.22-0.02-2-0.83-1.98-1.94c0.01-1.1,0.69-1.8,1.91-1.85C42.4,42.38,43.44,42.42,44.48,42.42z"/>
		<path d="M16.67,89.02c0.91,0,1.83-0.04,2.74,0.01c1.14,0.06,1.86,0.85,1.85,1.92c0,1.05-0.64,1.81-1.76,1.85
			c-1.86,0.06-3.73,0.06-5.6-0.01c-1.09-0.04-1.77-0.86-1.76-1.87c0.01-0.97,0.76-1.77,1.79-1.89c0.08-0.01,0.17-0.01,0.25-0.01
			C15.01,89.02,15.84,89.02,16.67,89.02z"/>
	</g>
</g>
</svg>
