<?xml version="1.0" encoding="utf-8"?>
<!-- Generator: Adobe Illustrator 27.9.0, SVG Export Plug-In . SVG Version: 6.00 Build 0)  -->
<svg version="1.1" id="Layer_1" xmlns="http://www.w3.org/2000/svg" xmlns:xlink="http://www.w3.org/1999/xlink" x="0px" y="0px"
	 viewBox="0 0 128 128" style="enable-background:new 0 0 128 128;" xml:space="preserve">
<g id="YuPioZ.tif">
	<g>
		<path d="M59.73,105.5H17.25c-1.62,0-2.25,0.64-2.25,2.27v10.36c0,1.78,0.6,2.36,2.4,2.36h42.24c1.91,0,2.54-0.62,2.54-2.51
			c0.02-3.34,0.02-6.67,0-10C62.18,106.15,61.53,105.5,59.73,105.5z M57.18,116.77c-6.23-0.04-12.49-0.02-18.74-0.02
			c-6.2,0-12.41-0.02-18.61,0.02c-0.84,0-1.15-0.16-1.11-1.07c0.09-1.87,0.05-3.74,0.02-5.62c-0.02-0.62,0.11-0.85,0.8-0.85
			c12.67,0.04,25.32,0.04,37.99,0c0.71,0,0.8,0.29,0.78,0.89c-0.02,1.82-0.05,3.65,0.02,5.49
			C58.37,116.51,58.17,116.79,57.18,116.77z M110.57,105.5h-42.5c-1.42,0-2.22,0.62-2.24,1.94c-0.05,3.71-0.05,7.42,0,11.12
			c0.02,1.27,0.8,1.93,2.11,1.93c5.83,0.02,11.67,0,17.49,0c0.42,0,0.82,0,1.2-0.24c0.82-0.53,1.09-1.27,0.85-2.14
			c-0.27-0.96-0.96-1.38-1.96-1.36c-4.96,0-9.92-0.02-14.89,0.02c-0.76,0-0.98-0.16-0.96-0.96c0.05-1.82,0.07-3.65,0-5.49
			c-0.04-0.89,0.22-1.09,1.09-1.09c5.33,0.05,10.67,0.02,16,0.02c7.13,0,14.25,0.04,21.38-0.02c0.95,0,1.18,0.24,1.15,1.16
			c-0.09,1.78-0.07,3.58-0.02,5.36c0.04,0.85-0.24,1.02-1.02,1.02c-4.89-0.04-9.76-0.02-14.63-0.02c-1.45,0-2.31,0.69-2.34,1.84
			c-0.04,1.18,0.87,1.91,2.38,1.91h17c1.76,0,2.34-0.6,2.36-2.42v-10.12C112.99,106.08,112.42,105.5,110.57,105.5z M110.57,105.5
			h-42.5c-1.42,0-2.22,0.62-2.24,1.94c-0.05,3.71-0.05,7.42,0,11.12c0.02,1.27,0.8,1.93,2.11,1.93c5.83,0.02,11.67,0,17.49,0
			c0.42,0,0.82,0,1.2-0.24c0.82-0.53,1.09-1.27,0.85-2.14c-0.27-0.96-0.96-1.38-1.96-1.36c-4.96,0-9.92-0.02-14.89,0.02
			c-0.76,0-0.98-0.16-0.96-0.96c0.05-1.82,0.07-3.65,0-5.49c-0.04-0.89,0.22-1.09,1.09-1.09c5.33,0.05,10.67,0.02,16,0.02
			c7.13,0,14.25,0.04,21.38-0.02c0.95,0,1.18,0.24,1.15,1.16c-0.09,1.78-0.07,3.58-0.02,5.36c0.04,0.85-0.24,1.02-1.02,1.02
			c-4.89-0.04-9.76-0.02-14.63-0.02c-1.45,0-2.31,0.69-2.34,1.84c-0.04,1.18,0.87,1.91,2.38,1.91h17c1.76,0,2.34-0.6,2.36-2.42
			v-10.12C112.99,106.08,112.42,105.5,110.57,105.5z M59.73,105.5H17.25c-1.62,0-2.25,0.64-2.25,2.27v10.36
			c0,1.78,0.6,2.36,2.4,2.36h42.24c1.91,0,2.54-0.62,2.54-2.51c0.02-3.34,0.02-6.67,0-10C62.18,106.15,61.53,105.5,59.73,105.5z
			 M57.18,116.77c-6.23-0.04-12.49-0.02-18.74-0.02c-6.2,0-12.41-0.02-18.61,0.02c-0.84,0-1.15-0.16-1.11-1.07
			c0.09-1.87,0.05-3.74,0.02-5.62c-0.02-0.62,0.11-0.85,0.8-0.85c12.67,0.04,25.32,0.04,37.99,0c0.71,0,0.8,0.29,0.78,0.89
			c-0.02,1.82-0.05,3.65,0.02,5.49C58.37,116.51,58.17,116.79,57.18,116.77z M59.73,105.5H17.25c-1.62,0-2.25,0.64-2.25,2.27v10.36
			c0,1.78,0.6,2.36,2.4,2.36h42.24c1.91,0,2.54-0.62,2.54-2.51c0.02-3.34,0.02-6.67,0-10C62.18,106.15,61.53,105.5,59.73,105.5z
			 M57.18,116.77c-6.23-0.04-12.49-0.02-18.74-0.02c-6.2,0-12.41-0.02-18.61,0.02c-0.84,0-1.15-0.16-1.11-1.07
			c0.09-1.87,0.05-3.74,0.02-5.62c-0.02-0.62,0.11-0.85,0.8-0.85c12.67,0.04,25.32,0.04,37.99,0c0.71,0,0.8,0.29,0.78,0.89
			c-0.02,1.82-0.05,3.65,0.02,5.49C58.37,116.51,58.17,116.79,57.18,116.77z M59.75,79.25h-42.5c-1.62,0-2.25,0.64-2.25,2.25v10.38
			c0,1.78,0.6,2.36,2.4,2.36h16.89c1.55,0,2.44-0.67,2.45-1.85c0.02-1.18-0.89-1.89-2.4-1.89c-4.89,0-9.76-0.02-14.63,0.02
			c-0.75,0-1-0.13-0.98-0.95c0.07-1.84,0.07-3.67,0-5.49c-0.02-0.87,0.18-1.13,1.07-1.11c4.87,0.05,9.76,0.02,14.63,0.02
			c7.62,0,15.25,0.02,22.87-0.02c0.8,0,1.05,0.18,1.04,1.02c-0.07,1.84-0.07,3.67,0,5.51c0.02,0.82-0.22,1.02-1.04,1.02
			c-4.78-0.04-9.58-0.02-14.36-0.02c-1.69,0-2.51,0.64-2.49,1.91c0.02,1.22,0.82,1.84,2.42,1.84h16.87c1.76,0,2.45-0.64,2.45-2.36
			c0.02-3.42,0.02-6.83,0-10.25C62.18,79.89,61.49,79.25,59.75,79.25z M110.59,79.25H68.24c-1.71,0-2.42,0.64-2.42,2.27
			c-0.04,3.49-0.04,7,0,10.49c0,1.58,0.73,2.24,2.33,2.24h42.61c1.62,0,2.24-0.64,2.24-2.27C113,88.52,113,85.07,113,81.59
			C112.99,79.83,112.39,79.25,110.59,79.25z M108.22,90.52c-6.25-0.04-12.51-0.02-18.74-0.02c-6.22,0-12.41-0.04-18.63,0.02
			c-1.02,0.02-1.22-0.31-1.18-1.24c0.07-1.78,0.05-3.58,0-5.38c-0.02-0.65,0.11-0.93,0.87-0.93c12.61,0.04,25.23,0.04,37.84,0
			c0.75,0,0.89,0.25,0.87,0.93c-0.04,1.87-0.07,3.74,0.02,5.62C109.3,90.39,108.99,90.52,108.22,90.52z M110.57,105.5h-42.5
			c-1.42,0-2.22,0.62-2.24,1.94c-0.05,3.71-0.05,7.42,0,11.12c0.02,1.27,0.8,1.93,2.11,1.93c5.83,0.02,11.67,0,17.49,0
			c0.42,0,0.82,0,1.2-0.24c0.82-0.53,1.09-1.27,0.85-2.14c-0.27-0.96-0.96-1.38-1.96-1.36c-4.96,0-9.92-0.02-14.89,0.02
			c-0.76,0-0.98-0.16-0.96-0.96c0.05-1.82,0.07-3.65,0-5.49c-0.04-0.89,0.22-1.09,1.09-1.09c5.33,0.05,10.67,0.02,16,0.02
			c7.13,0,14.25,0.04,21.38-0.02c0.95,0,1.18,0.24,1.15,1.16c-0.09,1.78-0.07,3.58-0.02,5.36c0.04,0.85-0.24,1.02-1.02,1.02
			c-4.89-0.04-9.76-0.02-14.63-0.02c-1.45,0-2.31,0.69-2.34,1.84c-0.04,1.18,0.87,1.91,2.38,1.91h17c1.76,0,2.34-0.6,2.36-2.42
			v-10.12C112.99,106.08,112.42,105.5,110.57,105.5z M110.59,79.25H68.24c-1.71,0-2.42,0.64-2.42,2.27c-0.04,3.49-0.04,7,0,10.49
			c0,1.58,0.73,2.24,2.33,2.24h42.61c1.62,0,2.24-0.64,2.24-2.27C113,88.52,113,85.07,113,81.59
			C112.99,79.83,112.39,79.25,110.59,79.25z M108.22,90.52c-6.25-0.04-12.51-0.02-18.74-0.02c-6.22,0-12.41-0.04-18.63,0.02
			c-1.02,0.02-1.22-0.31-1.18-1.24c0.07-1.78,0.05-3.58,0-5.38c-0.02-0.65,0.11-0.93,0.87-0.93c12.61,0.04,25.23,0.04,37.84,0
			c0.75,0,0.89,0.25,0.87,0.93c-0.04,1.87-0.07,3.74,0.02,5.62C109.3,90.39,108.99,90.52,108.22,90.52z M59.75,79.25h-42.5
			c-1.62,0-2.25,0.64-2.25,2.25v10.38c0,1.78,0.6,2.36,2.4,2.36h16.89c1.55,0,2.44-0.67,2.45-1.85c0.02-1.18-0.89-1.89-2.4-1.89
			c-4.89,0-9.76-0.02-14.63,0.02c-0.75,0-1-0.13-0.98-0.95c0.07-1.84,0.07-3.67,0-5.49c-0.02-0.87,0.18-1.13,1.07-1.11
			c4.87,0.05,9.76,0.02,14.63,0.02c7.62,0,15.25,0.02,22.87-0.02c0.8,0,1.05,0.18,1.04,1.02c-0.07,1.84-0.07,3.67,0,5.51
			c0.02,0.82-0.22,1.02-1.04,1.02c-4.78-0.04-9.58-0.02-14.36-0.02c-1.69,0-2.51,0.64-2.49,1.91c0.02,1.22,0.82,1.84,2.42,1.84
			h16.87c1.76,0,2.45-0.64,2.45-2.36c0.02-3.42,0.02-6.83,0-10.25C62.18,79.89,61.49,79.25,59.75,79.25z M110.57,105.5h-42.5
			c-1.42,0-2.22,0.62-2.24,1.94c-0.05,3.71-0.05,7.42,0,11.12c0.02,1.27,0.8,1.93,2.11,1.93c5.83,0.02,11.67,0,17.49,0
			c0.42,0,0.82,0,1.2-0.24c0.82-0.53,1.09-1.27,0.85-2.14c-0.27-0.96-0.96-1.38-1.96-1.36c-4.96,0-9.92-0.02-14.89,0.02
			c-0.76,0-0.98-0.16-0.96-0.96c0.05-1.82,0.07-3.65,0-5.49c-0.04-0.89,0.22-1.09,1.09-1.09c5.33,0.05,10.67,0.02,16,0.02
			c7.13,0,14.25,0.04,21.38-0.02c0.95,0,1.18,0.24,1.15,1.16c-0.09,1.78-0.07,3.58-0.02,5.36c0.04,0.85-0.24,1.02-1.02,1.02
			c-4.89-0.04-9.76-0.02-14.63-0.02c-1.45,0-2.31,0.69-2.34,1.84c-0.04,1.18,0.87,1.91,2.38,1.91h17c1.76,0,2.34-0.6,2.36-2.42
			v-10.12C112.99,106.08,112.42,105.5,110.57,105.5z M59.73,105.5H17.25c-1.62,0-2.25,0.64-2.25,2.27v10.36
			c0,1.78,0.6,2.36,2.4,2.36h42.24c1.91,0,2.54-0.62,2.54-2.51c0.02-3.34,0.02-6.67,0-10C62.18,106.15,61.53,105.5,59.73,105.5z
			 M57.18,116.77c-6.23-0.04-12.49-0.02-18.74-0.02c-6.2,0-12.41-0.02-18.61,0.02c-0.84,0-1.15-0.16-1.11-1.07
			c0.09-1.87,0.05-3.74,0.02-5.62c-0.02-0.62,0.11-0.85,0.8-0.85c12.67,0.04,25.32,0.04,37.99,0c0.71,0,0.8,0.29,0.78,0.89
			c-0.02,1.82-0.05,3.65,0.02,5.49C58.37,116.51,58.17,116.79,57.18,116.77z M59.73,105.5H17.25c-1.62,0-2.25,0.64-2.25,2.27v10.36
			c0,1.78,0.6,2.36,2.4,2.36h42.24c1.91,0,2.54-0.62,2.54-2.51c0.02-3.34,0.02-6.67,0-10C62.18,106.15,61.53,105.5,59.73,105.5z
			 M57.18,116.77c-6.23-0.04-12.49-0.02-18.74-0.02c-6.2,0-12.41-0.02-18.61,0.02c-0.84,0-1.15-0.16-1.11-1.07
			c0.09-1.87,0.05-3.74,0.02-5.62c-0.02-0.62,0.11-0.85,0.8-0.85c12.67,0.04,25.32,0.04,37.99,0c0.71,0,0.8,0.29,0.78,0.89
			c-0.02,1.82-0.05,3.65,0.02,5.49C58.37,116.51,58.17,116.79,57.18,116.77z M59.75,79.25h-42.5c-1.62,0-2.25,0.64-2.25,2.25v10.38
			c0,1.78,0.6,2.36,2.4,2.36h16.89c1.55,0,2.44-0.67,2.45-1.85c0.02-1.18-0.89-1.89-2.4-1.89c-4.89,0-9.76-0.02-14.63,0.02
			c-0.75,0-1-0.13-0.98-0.95c0.07-1.84,0.07-3.67,0-5.49c-0.02-0.87,0.18-1.13,1.07-1.11c4.87,0.05,9.76,0.02,14.63,0.02
			c7.62,0,15.25,0.02,22.87-0.02c0.8,0,1.05,0.18,1.04,1.02c-0.07,1.84-0.07,3.67,0,5.51c0.02,0.82-0.22,1.02-1.04,1.02
			c-4.78-0.04-9.58-0.02-14.36-0.02c-1.69,0-2.51,0.64-2.49,1.91c0.02,1.22,0.82,1.84,2.42,1.84h16.87c1.76,0,2.45-0.64,2.45-2.36
			c0.02-3.42,0.02-6.83,0-10.25C62.18,79.89,61.49,79.25,59.75,79.25z M110.59,79.25H68.24c-1.71,0-2.42,0.64-2.42,2.27
			c-0.04,3.49-0.04,7,0,10.49c0,1.58,0.73,2.24,2.33,2.24h42.61c1.62,0,2.24-0.64,2.24-2.27C113,88.52,113,85.07,113,81.59
			C112.99,79.83,112.39,79.25,110.59,79.25z M108.22,90.52c-6.25-0.04-12.51-0.02-18.74-0.02c-6.22,0-12.41-0.04-18.63,0.02
			c-1.02,0.02-1.22-0.31-1.18-1.24c0.07-1.78,0.05-3.58,0-5.38c-0.02-0.65,0.11-0.93,0.87-0.93c12.61,0.04,25.23,0.04,37.84,0
			c0.75,0,0.89,0.25,0.87,0.93c-0.04,1.87-0.07,3.74,0.02,5.62C109.3,90.39,108.99,90.52,108.22,90.52z M110.57,105.5h-42.5
			c-1.42,0-2.22,0.62-2.24,1.94c-0.05,3.71-0.05,7.42,0,11.12c0.02,1.27,0.8,1.93,2.11,1.93c5.83,0.02,11.67,0,17.49,0
			c0.42,0,0.82,0,1.2-0.24c0.82-0.53,1.09-1.27,0.85-2.14c-0.27-0.96-0.96-1.38-1.96-1.36c-4.96,0-9.92-0.02-14.89,0.02
			c-0.76,0-0.98-0.16-0.96-0.96c0.05-1.82,0.07-3.65,0-5.49c-0.04-0.89,0.22-1.09,1.09-1.09c5.33,0.05,10.67,0.02,16,0.02
			c7.13,0,14.25,0.04,21.38-0.02c0.95,0,1.18,0.24,1.15,1.16c-0.09,1.78-0.07,3.58-0.02,5.36c0.04,0.85-0.24,1.02-1.02,1.02
			c-4.89-0.04-9.76-0.02-14.63-0.02c-1.45,0-2.31,0.69-2.34,1.84c-0.04,1.18,0.87,1.91,2.38,1.91h17c1.76,0,2.34-0.6,2.36-2.42
			v-10.12C112.99,106.08,112.42,105.5,110.57,105.5z M110.59,79.25H68.24c-1.71,0-2.42,0.64-2.42,2.27c-0.04,3.49-0.04,7,0,10.49
			c0,1.58,0.73,2.24,2.33,2.24h42.61c1.62,0,2.24-0.64,2.24-2.27C113,88.52,113,85.07,113,81.59
			C112.99,79.83,112.39,79.25,110.59,79.25z M108.22,90.52c-6.25-0.04-12.51-0.02-18.74-0.02c-6.22,0-12.41-0.04-18.63,0.02
			c-1.02,0.02-1.22-0.31-1.18-1.24c0.07-1.78,0.05-3.58,0-5.38c-0.02-0.65,0.11-0.93,0.87-0.93c12.61,0.04,25.23,0.04,37.84,0
			c0.75,0,0.89,0.25,0.87,0.93c-0.04,1.87-0.07,3.74,0.02,5.62C109.3,90.39,108.99,90.52,108.22,90.52z M59.75,79.25h-42.5
			c-1.62,0-2.25,0.64-2.25,2.25v10.38c0,1.78,0.6,2.36,2.4,2.36h16.89c1.55,0,2.44-0.67,2.45-1.85c0.02-1.18-0.89-1.89-2.4-1.89
			c-4.89,0-9.76-0.02-14.63,0.02c-0.75,0-1-0.13-0.98-0.95c0.07-1.84,0.07-3.67,0-5.49c-0.02-0.87,0.18-1.13,1.07-1.11
			c4.87,0.05,9.76,0.02,14.63,0.02c7.62,0,15.25,0.02,22.87-0.02c0.8,0,1.05,0.18,1.04,1.02c-0.07,1.84-0.07,3.67,0,5.51
			c0.02,0.82-0.22,1.02-1.04,1.02c-4.78-0.04-9.58-0.02-14.36-0.02c-1.69,0-2.51,0.64-2.49,1.91c0.02,1.22,0.82,1.84,2.42,1.84
			h16.87c1.76,0,2.45-0.64,2.45-2.36c0.02-3.42,0.02-6.83,0-10.25C62.18,79.89,61.49,79.25,59.75,79.25z M110.57,105.5h-42.5
			c-1.42,0-2.22,0.62-2.24,1.94c-0.05,3.71-0.05,7.42,0,11.12c0.02,1.27,0.8,1.93,2.11,1.93c5.83,0.02,11.67,0,17.49,0
			c0.42,0,0.82,0,1.2-0.24c0.82-0.53,1.09-1.27,0.85-2.14c-0.27-0.96-0.96-1.38-1.96-1.36c-4.96,0-9.92-0.02-14.89,0.02
			c-0.76,0-0.98-0.16-0.96-0.96c0.05-1.82,0.07-3.65,0-5.49c-0.04-0.89,0.22-1.09,1.09-1.09c5.33,0.05,10.67,0.02,16,0.02
			c7.13,0,14.25,0.04,21.38-0.02c0.95,0,1.18,0.24,1.15,1.16c-0.09,1.78-0.07,3.58-0.02,5.36c0.04,0.85-0.24,1.02-1.02,1.02
			c-4.89-0.04-9.76-0.02-14.63-0.02c-1.45,0-2.31,0.69-2.34,1.84c-0.04,1.18,0.87,1.91,2.38,1.91h17c1.76,0,2.34-0.6,2.36-2.42
			v-10.12C112.99,106.08,112.42,105.5,110.57,105.5z M59.73,105.5H17.25c-1.62,0-2.25,0.64-2.25,2.27v10.36
			c0,1.78,0.6,2.36,2.4,2.36h42.24c1.91,0,2.54-0.62,2.54-2.51c0.02-3.34,0.02-6.67,0-10C62.18,106.15,61.53,105.5,59.73,105.5z
			 M57.18,116.77c-6.23-0.04-12.49-0.02-18.74-0.02c-6.2,0-12.41-0.02-18.61,0.02c-0.84,0-1.15-0.16-1.11-1.07
			c0.09-1.87,0.05-3.74,0.02-5.62c-0.02-0.62,0.11-0.85,0.8-0.85c12.67,0.04,25.32,0.04,37.99,0c0.71,0,0.8,0.29,0.78,0.89
			c-0.02,1.82-0.05,3.65,0.02,5.49C58.37,116.51,58.17,116.79,57.18,116.77z M59.73,105.5H17.25c-1.62,0-2.25,0.64-2.25,2.27v10.36
			c0,1.78,0.6,2.36,2.4,2.36h42.24c1.91,0,2.54-0.62,2.54-2.51c0.02-3.34,0.02-6.67,0-10C62.18,106.15,61.53,105.5,59.73,105.5z
			 M57.18,116.77c-6.23-0.04-12.49-0.02-18.74-0.02c-6.2,0-12.41-0.02-18.61,0.02c-0.84,0-1.15-0.16-1.11-1.07
			c0.09-1.87,0.05-3.74,0.02-5.62c-0.02-0.62,0.11-0.85,0.8-0.85c12.67,0.04,25.32,0.04,37.99,0c0.71,0,0.8,0.29,0.78,0.89
			c-0.02,1.82-0.05,3.65,0.02,5.49C58.37,116.51,58.17,116.79,57.18,116.77z M59.75,79.25h-42.5c-1.62,0-2.25,0.64-2.25,2.25v10.38
			c0,1.78,0.6,2.36,2.4,2.36h16.89c1.55,0,2.44-0.67,2.45-1.85c0.02-1.18-0.89-1.89-2.4-1.89c-4.89,0-9.76-0.02-14.63,0.02
			c-0.75,0-1-0.13-0.98-0.95c0.07-1.84,0.07-3.67,0-5.49c-0.02-0.87,0.18-1.13,1.07-1.11c4.87,0.05,9.76,0.02,14.63,0.02
			c7.62,0,15.25,0.02,22.87-0.02c0.8,0,1.05,0.18,1.04,1.02c-0.07,1.84-0.07,3.67,0,5.51c0.02,0.82-0.22,1.02-1.04,1.02
			c-4.78-0.04-9.58-0.02-14.36-0.02c-1.69,0-2.51,0.64-2.49,1.91c0.02,1.22,0.82,1.84,2.42,1.84h16.87c1.76,0,2.45-0.64,2.45-2.36
			c0.02-3.42,0.02-6.83,0-10.25C62.18,79.89,61.49,79.25,59.75,79.25z M110.59,79.25H68.24c-1.71,0-2.42,0.64-2.42,2.27
			c-0.04,3.49-0.04,7,0,10.49c0,1.58,0.73,2.24,2.33,2.24h42.61c1.62,0,2.24-0.64,2.24-2.27C113,88.52,113,85.07,113,81.59
			C112.99,79.83,112.39,79.25,110.59,79.25z M108.22,90.52c-6.25-0.04-12.51-0.02-18.74-0.02c-6.22,0-12.41-0.04-18.63,0.02
			c-1.02,0.02-1.22-0.31-1.18-1.24c0.07-1.78,0.05-3.58,0-5.38c-0.02-0.65,0.11-0.93,0.87-0.93c12.61,0.04,25.23,0.04,37.84,0
			c0.75,0,0.89,0.25,0.87,0.93c-0.04,1.87-0.07,3.74,0.02,5.62C109.3,90.39,108.99,90.52,108.22,90.52z M110.57,105.5h-42.5
			c-1.42,0-2.22,0.62-2.24,1.94c-0.05,3.71-0.05,7.42,0,11.12c0.02,1.27,0.8,1.93,2.11,1.93c5.83,0.02,11.67,0,17.49,0
			c0.42,0,0.82,0,1.2-0.24c0.82-0.53,1.09-1.27,0.85-2.14c-0.27-0.96-0.96-1.38-1.96-1.36c-4.96,0-9.92-0.02-14.89,0.02
			c-0.76,0-0.98-0.16-0.96-0.96c0.05-1.82,0.07-3.65,0-5.49c-0.04-0.89,0.22-1.09,1.09-1.09c5.33,0.05,10.67,0.02,16,0.02
			c7.13,0,14.25,0.04,21.38-0.02c0.95,0,1.18,0.24,1.15,1.16c-0.09,1.78-0.07,3.58-0.02,5.36c0.04,0.85-0.24,1.02-1.02,1.02
			c-4.89-0.04-9.76-0.02-14.63-0.02c-1.45,0-2.31,0.69-2.34,1.84c-0.04,1.18,0.87,1.91,2.38,1.91h17c1.76,0,2.34-0.6,2.36-2.42
			v-10.12C112.99,106.08,112.42,105.5,110.57,105.5z M110.59,79.25H68.24c-1.71,0-2.42,0.64-2.42,2.27c-0.04,3.49-0.04,7,0,10.49
			c0,1.58,0.73,2.24,2.33,2.24h42.61c1.62,0,2.24-0.64,2.24-2.27C113,88.52,113,85.07,113,81.59
			C112.99,79.83,112.39,79.25,110.59,79.25z M108.22,90.52c-6.25-0.04-12.51-0.02-18.74-0.02c-6.22,0-12.41-0.04-18.63,0.02
			c-1.02,0.02-1.22-0.31-1.18-1.24c0.07-1.78,0.05-3.58,0-5.38c-0.02-0.65,0.11-0.93,0.87-0.93c12.61,0.04,25.23,0.04,37.84,0
			c0.75,0,0.89,0.25,0.87,0.93c-0.04,1.87-0.07,3.74,0.02,5.62C109.3,90.39,108.99,90.52,108.22,90.52z M59.75,79.25h-42.5
			c-1.62,0-2.25,0.64-2.25,2.25v10.38c0,1.78,0.6,2.36,2.4,2.36h16.89c1.55,0,2.44-0.67,2.45-1.85c0.02-1.18-0.89-1.89-2.4-1.89
			c-4.89,0-9.76-0.02-14.63,0.02c-0.75,0-1-0.13-0.98-0.95c0.07-1.84,0.07-3.67,0-5.49c-0.02-0.87,0.18-1.13,1.07-1.11
			c4.87,0.05,9.76,0.02,14.63,0.02c7.62,0,15.25,0.02,22.87-0.02c0.8,0,1.05,0.18,1.04,1.02c-0.07,1.84-0.07,3.67,0,5.51
			c0.02,0.82-0.22,1.02-1.04,1.02c-4.78-0.04-9.58-0.02-14.36-0.02c-1.69,0-2.51,0.64-2.49,1.91c0.02,1.22,0.82,1.84,2.42,1.84
			h16.87c1.76,0,2.45-0.64,2.45-2.36c0.02-3.42,0.02-6.83,0-10.25C62.18,79.89,61.49,79.25,59.75,79.25z M110.57,105.5h-42.5
			c-1.42,0-2.22,0.62-2.24,1.94c-0.05,3.71-0.05,7.42,0,11.12c0.02,1.27,0.8,1.93,2.11,1.93c5.83,0.02,11.67,0,17.49,0
			c0.42,0,0.82,0,1.2-0.24c0.82-0.53,1.09-1.27,0.85-2.14c-0.27-0.96-0.96-1.38-1.96-1.36c-4.96,0-9.92-0.02-14.89,0.02
			c-0.76,0-0.98-0.16-0.96-0.96c0.05-1.82,0.07-3.65,0-5.49c-0.04-0.89,0.22-1.09,1.09-1.09c5.33,0.05,10.67,0.02,16,0.02
			c7.13,0,14.25,0.04,21.38-0.02c0.95,0,1.18,0.24,1.15,1.16c-0.09,1.78-0.07,3.58-0.02,5.36c0.04,0.85-0.24,1.02-1.02,1.02
			c-4.89-0.04-9.76-0.02-14.63-0.02c-1.45,0-2.31,0.69-2.34,1.84c-0.04,1.18,0.87,1.91,2.38,1.91h17c1.76,0,2.34-0.6,2.36-2.42
			v-10.12C112.99,106.08,112.42,105.5,110.57,105.5z M59.73,105.5H17.25c-1.62,0-2.25,0.64-2.25,2.27v10.36
			c0,1.78,0.6,2.36,2.4,2.36h42.24c1.91,0,2.54-0.62,2.54-2.51c0.02-3.34,0.02-6.67,0-10C62.18,106.15,61.53,105.5,59.73,105.5z
			 M57.18,116.77c-6.23-0.04-12.49-0.02-18.74-0.02c-6.2,0-12.41-0.02-18.61,0.02c-0.84,0-1.15-0.16-1.11-1.07
			c0.09-1.87,0.05-3.74,0.02-5.62c-0.02-0.62,0.11-0.85,0.8-0.85c12.67,0.04,25.32,0.04,37.99,0c0.71,0,0.8,0.29,0.78,0.89
			c-0.02,1.82-0.05,3.65,0.02,5.49C58.37,116.51,58.17,116.79,57.18,116.77z M59.73,105.5H17.25c-1.62,0-2.25,0.64-2.25,2.27v10.36
			c0,1.78,0.6,2.36,2.4,2.36h42.24c1.91,0,2.54-0.62,2.54-2.51c0.02-3.34,0.02-6.67,0-10C62.18,106.15,61.53,105.5,59.73,105.5z
			 M57.18,116.77c-6.23-0.04-12.49-0.02-18.74-0.02c-6.2,0-12.41-0.02-18.61,0.02c-0.84,0-1.15-0.16-1.11-1.07
			c0.09-1.87,0.05-3.74,0.02-5.62c-0.02-0.62,0.11-0.85,0.8-0.85c12.67,0.04,25.32,0.04,37.99,0c0.71,0,0.8,0.29,0.78,0.89
			c-0.02,1.82-0.05,3.65,0.02,5.49C58.37,116.51,58.17,116.79,57.18,116.77z M59.75,79.25h-42.5c-1.62,0-2.25,0.64-2.25,2.25v10.38
			c0,1.78,0.6,2.36,2.4,2.36h16.89c1.55,0,2.44-0.67,2.45-1.85c0.02-1.18-0.89-1.89-2.4-1.89c-4.89,0-9.76-0.02-14.63,0.02
			c-0.75,0-1-0.13-0.98-0.95c0.07-1.84,0.07-3.67,0-5.49c-0.02-0.87,0.18-1.13,1.07-1.11c4.87,0.05,9.76,0.02,14.63,0.02
			c7.62,0,15.25,0.02,22.87-0.02c0.8,0,1.05,0.18,1.04,1.02c-0.07,1.84-0.07,3.67,0,5.51c0.02,0.82-0.22,1.02-1.04,1.02
			c-4.78-0.04-9.58-0.02-14.36-0.02c-1.69,0-2.51,0.64-2.49,1.91c0.02,1.22,0.82,1.84,2.42,1.84h16.87c1.76,0,2.45-0.64,2.45-2.36
			c0.02-3.42,0.02-6.83,0-10.25C62.18,79.89,61.49,79.25,59.75,79.25z M110.59,79.25H68.24c-1.71,0-2.42,0.64-2.42,2.27
			c-0.04,3.49-0.04,7,0,10.49c0,1.58,0.73,2.24,2.33,2.24h42.61c1.62,0,2.24-0.64,2.24-2.27C113,88.52,113,85.07,113,81.59
			C112.99,79.83,112.39,79.25,110.59,79.25z M108.22,90.52c-6.25-0.04-12.51-0.02-18.74-0.02c-6.22,0-12.41-0.04-18.63,0.02
			c-1.02,0.02-1.22-0.31-1.18-1.24c0.07-1.78,0.05-3.58,0-5.38c-0.02-0.65,0.11-0.93,0.87-0.93c12.61,0.04,25.23,0.04,37.84,0
			c0.75,0,0.89,0.25,0.87,0.93c-0.04,1.87-0.07,3.74,0.02,5.62C109.3,90.39,108.99,90.52,108.22,90.52z M110.57,105.5h-42.5
			c-1.42,0-2.22,0.62-2.24,1.94c-0.05,3.71-0.05,7.42,0,11.12c0.02,1.27,0.8,1.93,2.11,1.93c5.83,0.02,11.67,0,17.49,0
			c0.42,0,0.82,0,1.2-0.24c0.82-0.53,1.09-1.27,0.85-2.14c-0.27-0.96-0.96-1.38-1.96-1.36c-4.96,0-9.92-0.02-14.89,0.02
			c-0.76,0-0.98-0.16-0.96-0.96c0.05-1.82,0.07-3.65,0-5.49c-0.04-0.89,0.22-1.09,1.09-1.09c5.33,0.05,10.67,0.02,16,0.02
			c7.13,0,14.25,0.04,21.38-0.02c0.95,0,1.18,0.24,1.15,1.16c-0.09,1.78-0.07,3.58-0.02,5.36c0.04,0.85-0.24,1.02-1.02,1.02
			c-4.89-0.04-9.76-0.02-14.63-0.02c-1.45,0-2.31,0.69-2.34,1.84c-0.04,1.18,0.87,1.91,2.38,1.91h17c1.76,0,2.34-0.6,2.36-2.42
			v-10.12C112.99,106.08,112.42,105.5,110.57,105.5z M110.59,79.25H68.24c-1.71,0-2.42,0.64-2.42,2.27c-0.04,3.49-0.04,7,0,10.49
			c0,1.58,0.73,2.24,2.33,2.24h42.61c1.62,0,2.24-0.64,2.24-2.27C113,88.52,113,85.07,113,81.59
			C112.99,79.83,112.39,79.25,110.59,79.25z M108.22,90.52c-6.25-0.04-12.51-0.02-18.74-0.02c-6.22,0-12.41-0.04-18.63,0.02
			c-1.02,0.02-1.22-0.31-1.18-1.24c0.07-1.78,0.05-3.58,0-5.38c-0.02-0.65,0.11-0.93,0.87-0.93c12.61,0.04,25.23,0.04,37.84,0
			c0.75,0,0.89,0.25,0.87,0.93c-0.04,1.87-0.07,3.74,0.02,5.62C109.3,90.39,108.99,90.52,108.22,90.52z M59.75,79.25h-42.5
			c-1.62,0-2.25,0.64-2.25,2.25v10.38c0,1.78,0.6,2.36,2.4,2.36h16.89c1.55,0,2.44-0.67,2.45-1.85c0.02-1.18-0.89-1.89-2.4-1.89
			c-4.89,0-9.76-0.02-14.63,0.02c-0.75,0-1-0.13-0.98-0.95c0.07-1.84,0.07-3.67,0-5.49c-0.02-0.87,0.18-1.13,1.07-1.11
			c4.87,0.05,9.76,0.02,14.63,0.02c7.62,0,15.25,0.02,22.87-0.02c0.8,0,1.05,0.18,1.04,1.02c-0.07,1.84-0.07,3.67,0,5.51
			c0.02,0.82-0.22,1.02-1.04,1.02c-4.78-0.04-9.58-0.02-14.36-0.02c-1.69,0-2.51,0.64-2.49,1.91c0.02,1.22,0.82,1.84,2.42,1.84
			h16.87c1.76,0,2.45-0.64,2.45-2.36c0.02-3.42,0.02-6.83,0-10.25C62.18,79.89,61.49,79.25,59.75,79.25z M110.57,105.5h-42.5
			c-1.42,0-2.22,0.62-2.24,1.94c-0.05,3.71-0.05,7.42,0,11.12c0.02,1.27,0.8,1.93,2.11,1.93c5.83,0.02,11.67,0,17.49,0
			c0.42,0,0.82,0,1.2-0.24c0.82-0.53,1.09-1.27,0.85-2.14c-0.27-0.96-0.96-1.38-1.96-1.36c-4.96,0-9.92-0.02-14.89,0.02
			c-0.76,0-0.98-0.16-0.96-0.96c0.05-1.82,0.07-3.65,0-5.49c-0.04-0.89,0.22-1.09,1.09-1.09c5.33,0.05,10.67,0.02,16,0.02
			c7.13,0,14.25,0.04,21.38-0.02c0.95,0,1.18,0.24,1.15,1.16c-0.09,1.78-0.07,3.58-0.02,5.36c0.04,0.85-0.24,1.02-1.02,1.02
			c-4.89-0.04-9.76-0.02-14.63-0.02c-1.45,0-2.31,0.69-2.34,1.84c-0.04,1.18,0.87,1.91,2.38,1.91h17c1.76,0,2.34-0.6,2.36-2.42
			v-10.12C112.99,106.08,112.42,105.5,110.57,105.5z M59.73,105.5H17.25c-1.62,0-2.25,0.64-2.25,2.27v10.36
			c0,1.78,0.6,2.36,2.4,2.36h42.24c1.91,0,2.54-0.62,2.54-2.51c0.02-3.34,0.02-6.67,0-10C62.18,106.15,61.53,105.5,59.73,105.5z
			 M57.18,116.77c-6.23-0.04-12.49-0.02-18.74-0.02c-6.2,0-12.41-0.02-18.61,0.02c-0.84,0-1.15-0.16-1.11-1.07
			c0.09-1.87,0.05-3.74,0.02-5.62c-0.02-0.62,0.11-0.85,0.8-0.85c12.67,0.04,25.32,0.04,37.99,0c0.71,0,0.8,0.29,0.78,0.89
			c-0.02,1.82-0.05,3.65,0.02,5.49C58.37,116.51,58.17,116.79,57.18,116.77z M122.2,86.43c-1.07,0.02-1.38-0.33-1.36-1.35
			c0.04-3.58,0.02-7.16,0-10.74c0-2.18-0.76-2.93-2.94-2.94c-3.69-0.02-7.4,0-11.11,0H75.41c-1.47,0-1.54-0.09-1.56-1.56
			c-0.02-1.78,0-3.58,0-5.36c0-1.78,0-1.8,1.65-2.45c5.34-2.11,9.91-5.31,13.51-9.8c5.36-6.74,7.78-14.38,7.13-23.03
			C95.12,15.87,85.56,4.62,73,0.87C71.11,0.29,69.16,0.25,67.25,0h-6.76c-1.13,0.51-2.36,0.47-3.54,0.75
			c-17,3.78-28.1,21.16-24.08,38.03c2.71,11.42,9.71,19.21,20.79,23.25c0.71,0.25,0.93,0.58,0.91,1.31
			c-0.04,2.38-0.09,4.76,0.02,7.13c0.05,1.16-0.35,1.33-1.38,1.33c-14.41-0.04-28.83-0.04-43.22-0.04c-1.91,0-2.47,0.56-2.47,2.42
			c-0.02,3.29,0,6.6,0,9.89v2.94C3.24,85.99,0,88.54,0,92.72v14.12c0,4.4,3.07,6.87,7.51,5.93v12.63c0,2.11,0.49,2.6,2.65,2.6
			h107.73c2.11,0,2.6-0.51,2.6-2.67c0-3.84,0-7.65,0.02-11.49c0-0.35-0.15-0.73,0.13-1.07c1.51,0.4,2.96,0.33,4.36-0.38
			c1.53-0.78,2.31-2.16,3-3.64V90.99C127.29,88.07,125.22,86.38,122.2,86.43z M7.49,106.81c0,1.53-0.73,2.45-1.89,2.44
			s-1.84-0.95-1.85-2.49V93.01c0.02-1.56,0.69-2.47,1.85-2.51c1.15-0.02,1.89,0.91,1.89,2.44C7.51,97.55,7.51,102.17,7.49,106.81z
			 M36.08,28.68C37.84,13.56,50.97,3.02,65.42,3.82c16.01,0.87,26.81,14.27,26.67,28.34C91.92,46.33,81.3,56.04,73.83,57.95
			c0.6-1.67,1.62-3.02,2.85-4.27c2.51-2.56,5.25-4.89,7.33-7.85C94.25,31.3,85.61,10.65,68.13,7.8
			c-13.63-2.24-26.48,7.11-28.3,20.74c-1.04,7.73,1.2,14.54,6.6,20.25c1.74,1.84,3.58,3.58,5.36,5.4c1.05,1.07,1.91,2.25,2.27,3.84
			C43.39,54.4,34.46,42.62,36.08,28.68z M81.85,29.99c-5.94,0.02-11.89,0-17.85,0c-5.87,0-11.74,0.02-17.59,0
			c-2.22,0-2.91-0.87-2.42-3.04c1.87-8.14,9.23-14.61,17.65-15.5c10.58-1.13,20.1,5.62,22.41,15.87
			C84.45,29.08,83.7,29.99,81.85,29.99z M49.59,46.59c-3.4-3.38-5.38-7.43-6.03-12.16c-0.05-0.33-0.16-0.65-0.04-0.82H84.5
			c-0.13,2-0.62,3.98-1.38,5.91c-1.09,2.76-2.74,5.13-4.83,7.2c-1.65,1.64-3.31,3.29-4.94,4.96c-2.6,2.65-3.76,5.91-3.78,9.6
			c-0.02,3.11-0.05,6.23,0.02,9.36c0.02,0.98-0.27,1.15-1.18,1.13c-2.91-0.05-5.83-0.05-8.74,0c-0.93,0.02-1.24-0.16-1.25-1.18
			c0-3.78,0.24-7.58-0.15-11.36c-0.25-2.65-1.29-4.98-3.07-6.93C53.38,50.33,51.48,48.46,49.59,46.59z M116.77,123.13
			c0.02,0.93-0.22,1.15-1.15,1.15c-34.41-0.04-68.83-0.04-103.24,0c-0.93,0-1.16-0.22-1.15-1.15c0.04-6.76,0.04-13.51,0-20.25
			c-0.02-0.95,0.22-1.16,1.15-1.16c17.25,0.04,34.5,0.04,51.75,0.04c17.12,0,34.24,0,51.37-0.04c1.04,0,1.29,0.24,1.27,1.29
			C116.71,109.71,116.73,116.42,116.77,123.13z M116.77,96.88c0.02,0.93-0.22,1.14-1.15,1.14c-34.43-0.04-68.83-0.04-103.24,0
			c-0.93,0-1.16-0.22-1.15-1.16c0.04-6.74,0.04-13.49,0-20.25c-0.02-0.93,0.22-1.14,1.15-1.14c17.25,0.04,34.5,0.04,51.75,0.04
			c17.12,0,34.24,0,51.37-0.04c1.04,0,1.29,0.24,1.27,1.27C116.71,83.45,116.73,90.17,116.77,96.88z M124.24,99.88
			c0,2.27,0.02,4.56,0,6.85c0,1.56-0.67,2.47-1.84,2.51c-1.16,0.02-1.91-0.91-1.91-2.44V92.94c0-1.53,0.75-2.45,1.91-2.44
			c1.16,0.04,1.84,0.94,1.84,2.51C124.26,95.3,124.24,97.59,124.24,99.88z M110.57,105.5h-42.5c-1.42,0-2.22,0.62-2.24,1.94
			c-0.05,3.71-0.05,7.42,0,11.12c0.02,1.27,0.8,1.93,2.11,1.93c5.83,0.02,11.67,0,17.49,0c0.42,0,0.82,0,1.2-0.24
			c0.82-0.53,1.09-1.27,0.85-2.14c-0.27-0.96-0.96-1.38-1.96-1.36c-4.96,0-9.92-0.02-14.89,0.02c-0.76,0-0.98-0.16-0.96-0.96
			c0.05-1.82,0.07-3.65,0-5.49c-0.04-0.89,0.22-1.09,1.09-1.09c5.33,0.05,10.67,0.02,16,0.02c7.13,0,14.25,0.04,21.38-0.02
			c0.95,0,1.18,0.24,1.15,1.16c-0.09,1.78-0.07,3.58-0.02,5.36c0.04,0.85-0.24,1.02-1.02,1.02c-4.89-0.04-9.76-0.02-14.63-0.02
			c-1.45,0-2.31,0.69-2.34,1.84c-0.04,1.18,0.87,1.91,2.38,1.91h17c1.76,0,2.34-0.6,2.36-2.42v-10.12
			C112.99,106.08,112.42,105.5,110.57,105.5z M110.59,79.25H68.24c-1.71,0-2.42,0.64-2.42,2.27c-0.04,3.49-0.04,7,0,10.49
			c0,1.58,0.73,2.24,2.33,2.24h42.61c1.62,0,2.24-0.64,2.24-2.27C113,88.52,113,85.07,113,81.59
			C112.99,79.83,112.39,79.25,110.59,79.25z M108.22,90.52c-6.25-0.04-12.51-0.02-18.74-0.02c-6.22,0-12.41-0.04-18.63,0.02
			c-1.02,0.02-1.22-0.31-1.18-1.24c0.07-1.78,0.05-3.58,0-5.38c-0.02-0.65,0.11-0.93,0.87-0.93c12.61,0.04,25.23,0.04,37.84,0
			c0.75,0,0.89,0.25,0.87,0.93c-0.04,1.87-0.07,3.74,0.02,5.62C109.3,90.39,108.99,90.52,108.22,90.52z M59.75,79.25h-42.5
			c-1.62,0-2.25,0.64-2.25,2.25v10.38c0,1.78,0.6,2.36,2.4,2.36h16.89c1.55,0,2.44-0.67,2.45-1.85c0.02-1.18-0.89-1.89-2.4-1.89
			c-4.89,0-9.76-0.02-14.63,0.02c-0.75,0-1-0.13-0.98-0.95c0.07-1.84,0.07-3.67,0-5.49c-0.02-0.87,0.18-1.13,1.07-1.11
			c4.87,0.05,9.76,0.02,14.63,0.02c7.62,0,15.25,0.02,22.87-0.02c0.8,0,1.05,0.18,1.04,1.02c-0.07,1.84-0.07,3.67,0,5.51
			c0.02,0.82-0.22,1.02-1.04,1.02c-4.78-0.04-9.58-0.02-14.36-0.02c-1.69,0-2.51,0.64-2.49,1.91c0.02,1.22,0.82,1.84,2.42,1.84
			h16.87c1.76,0,2.45-0.64,2.45-2.36c0.02-3.42,0.02-6.83,0-10.25C62.18,79.89,61.49,79.25,59.75,79.25z M59.73,105.5H17.25
			c-1.62,0-2.25,0.64-2.25,2.27v10.36c0,1.78,0.6,2.36,2.4,2.36h42.24c1.91,0,2.54-0.62,2.54-2.51c0.02-3.34,0.02-6.67,0-10
			C62.18,106.15,61.53,105.5,59.73,105.5z M57.18,116.77c-6.23-0.04-12.49-0.02-18.74-0.02c-6.2,0-12.41-0.02-18.61,0.02
			c-0.84,0-1.15-0.16-1.11-1.07c0.09-1.87,0.05-3.74,0.02-5.62c-0.02-0.62,0.11-0.85,0.8-0.85c12.67,0.04,25.32,0.04,37.99,0
			c0.71,0,0.8,0.29,0.78,0.89c-0.02,1.82-0.05,3.65,0.02,5.49C58.37,116.51,58.17,116.79,57.18,116.77z M59.73,105.5H17.25
			c-1.62,0-2.25,0.64-2.25,2.27v10.36c0,1.78,0.6,2.36,2.4,2.36h42.24c1.91,0,2.54-0.62,2.54-2.51c0.02-3.34,0.02-6.67,0-10
			C62.18,106.15,61.53,105.5,59.73,105.5z M57.18,116.77c-6.23-0.04-12.49-0.02-18.74-0.02c-6.2,0-12.41-0.02-18.61,0.02
			c-0.84,0-1.15-0.16-1.11-1.07c0.09-1.87,0.05-3.74,0.02-5.62c-0.02-0.62,0.11-0.85,0.8-0.85c12.67,0.04,25.32,0.04,37.99,0
			c0.71,0,0.8,0.29,0.78,0.89c-0.02,1.82-0.05,3.65,0.02,5.49C58.37,116.51,58.17,116.79,57.18,116.77z M110.57,105.5h-42.5
			c-1.42,0-2.22,0.62-2.24,1.94c-0.05,3.71-0.05,7.42,0,11.12c0.02,1.27,0.8,1.93,2.11,1.93c5.83,0.02,11.67,0,17.49,0
			c0.42,0,0.82,0,1.2-0.24c0.82-0.53,1.09-1.27,0.85-2.14c-0.27-0.96-0.96-1.38-1.96-1.36c-4.96,0-9.92-0.02-14.89,0.02
			c-0.76,0-0.98-0.16-0.96-0.96c0.05-1.82,0.07-3.65,0-5.49c-0.04-0.89,0.22-1.09,1.09-1.09c5.33,0.05,10.67,0.02,16,0.02
			c7.13,0,14.25,0.04,21.38-0.02c0.95,0,1.18,0.24,1.15,1.16c-0.09,1.78-0.07,3.58-0.02,5.36c0.04,0.85-0.24,1.02-1.02,1.02
			c-4.89-0.04-9.76-0.02-14.63-0.02c-1.45,0-2.31,0.69-2.34,1.84c-0.04,1.18,0.87,1.91,2.38,1.91h17c1.76,0,2.34-0.6,2.36-2.42
			v-10.12C112.99,106.08,112.42,105.5,110.57,105.5z M59.75,79.25h-42.5c-1.62,0-2.25,0.64-2.25,2.25v10.38
			c0,1.78,0.6,2.36,2.4,2.36h16.89c1.55,0,2.44-0.67,2.45-1.85c0.02-1.18-0.89-1.89-2.4-1.89c-4.89,0-9.76-0.02-14.63,0.02
			c-0.75,0-1-0.13-0.98-0.95c0.07-1.84,0.07-3.67,0-5.49c-0.02-0.87,0.18-1.13,1.07-1.11c4.87,0.05,9.76,0.02,14.63,0.02
			c7.62,0,15.25,0.02,22.87-0.02c0.8,0,1.05,0.18,1.04,1.02c-0.07,1.84-0.07,3.67,0,5.51c0.02,0.82-0.22,1.02-1.04,1.02
			c-4.78-0.04-9.58-0.02-14.36-0.02c-1.69,0-2.51,0.64-2.49,1.91c0.02,1.22,0.82,1.84,2.42,1.84h16.87c1.76,0,2.45-0.64,2.45-2.36
			c0.02-3.42,0.02-6.83,0-10.25C62.18,79.89,61.49,79.25,59.75,79.25z M110.59,79.25H68.24c-1.71,0-2.42,0.64-2.42,2.27
			c-0.04,3.49-0.04,7,0,10.49c0,1.58,0.73,2.24,2.33,2.24h42.61c1.62,0,2.24-0.64,2.24-2.27C113,88.52,113,85.07,113,81.59
			C112.99,79.83,112.39,79.25,110.59,79.25z M108.22,90.52c-6.25-0.04-12.51-0.02-18.74-0.02c-6.22,0-12.41-0.04-18.63,0.02
			c-1.02,0.02-1.22-0.31-1.18-1.24c0.07-1.78,0.05-3.58,0-5.38c-0.02-0.65,0.11-0.93,0.87-0.93c12.61,0.04,25.23,0.04,37.84,0
			c0.75,0,0.89,0.25,0.87,0.93c-0.04,1.87-0.07,3.74,0.02,5.62C109.3,90.39,108.99,90.52,108.22,90.52z M110.57,105.5h-42.5
			c-1.42,0-2.22,0.62-2.24,1.94c-0.05,3.71-0.05,7.42,0,11.12c0.02,1.27,0.8,1.93,2.11,1.93c5.83,0.02,11.67,0,17.49,0
			c0.42,0,0.82,0,1.2-0.24c0.82-0.53,1.09-1.27,0.85-2.14c-0.27-0.96-0.96-1.38-1.96-1.36c-4.96,0-9.92-0.02-14.89,0.02
			c-0.76,0-0.98-0.16-0.96-0.96c0.05-1.82,0.07-3.65,0-5.49c-0.04-0.89,0.22-1.09,1.09-1.09c5.33,0.05,10.67,0.02,16,0.02
			c7.13,0,14.25,0.04,21.38-0.02c0.95,0,1.18,0.24,1.15,1.16c-0.09,1.78-0.07,3.58-0.02,5.36c0.04,0.85-0.24,1.02-1.02,1.02
			c-4.89-0.04-9.76-0.02-14.63-0.02c-1.45,0-2.31,0.69-2.34,1.84c-0.04,1.18,0.87,1.91,2.38,1.91h17c1.76,0,2.34-0.6,2.36-2.42
			v-10.12C112.99,106.08,112.42,105.5,110.57,105.5z M110.59,79.25H68.24c-1.71,0-2.42,0.64-2.42,2.27c-0.04,3.49-0.04,7,0,10.49
			c0,1.58,0.73,2.24,2.33,2.24h42.61c1.62,0,2.24-0.64,2.24-2.27C113,88.52,113,85.07,113,81.59
			C112.99,79.83,112.39,79.25,110.59,79.25z M108.22,90.52c-6.25-0.04-12.51-0.02-18.74-0.02c-6.22,0-12.41-0.04-18.63,0.02
			c-1.02,0.02-1.22-0.31-1.18-1.24c0.07-1.78,0.05-3.58,0-5.38c-0.02-0.65,0.11-0.93,0.87-0.93c12.61,0.04,25.23,0.04,37.84,0
			c0.75,0,0.89,0.25,0.87,0.93c-0.04,1.87-0.07,3.74,0.02,5.62C109.3,90.39,108.99,90.52,108.22,90.52z M59.75,79.25h-42.5
			c-1.62,0-2.25,0.64-2.25,2.25v10.38c0,1.78,0.6,2.36,2.4,2.36h16.89c1.55,0,2.44-0.67,2.45-1.85c0.02-1.18-0.89-1.89-2.4-1.89
			c-4.89,0-9.76-0.02-14.63,0.02c-0.75,0-1-0.13-0.98-0.95c0.07-1.84,0.07-3.67,0-5.49c-0.02-0.87,0.18-1.13,1.07-1.11
			c4.87,0.05,9.76,0.02,14.63,0.02c7.62,0,15.25,0.02,22.87-0.02c0.8,0,1.05,0.18,1.04,1.02c-0.07,1.84-0.07,3.67,0,5.51
			c0.02,0.82-0.22,1.02-1.04,1.02c-4.78-0.04-9.58-0.02-14.36-0.02c-1.69,0-2.51,0.64-2.49,1.91c0.02,1.22,0.82,1.84,2.42,1.84
			h16.87c1.76,0,2.45-0.64,2.45-2.36c0.02-3.42,0.02-6.83,0-10.25C62.18,79.89,61.49,79.25,59.75,79.25z M59.73,105.5H17.25
			c-1.62,0-2.25,0.64-2.25,2.27v10.36c0,1.78,0.6,2.36,2.4,2.36h42.24c1.91,0,2.54-0.62,2.54-2.51c0.02-3.34,0.02-6.67,0-10
			C62.18,106.15,61.53,105.5,59.73,105.5z M57.18,116.77c-6.23-0.04-12.49-0.02-18.74-0.02c-6.2,0-12.41-0.02-18.61,0.02
			c-0.84,0-1.15-0.16-1.11-1.07c0.09-1.87,0.05-3.74,0.02-5.62c-0.02-0.62,0.11-0.85,0.8-0.85c12.67,0.04,25.32,0.04,37.99,0
			c0.71,0,0.8,0.29,0.78,0.89c-0.02,1.82-0.05,3.65,0.02,5.49C58.37,116.51,58.17,116.79,57.18,116.77z M59.73,105.5H17.25
			c-1.62,0-2.25,0.64-2.25,2.27v10.36c0,1.78,0.6,2.36,2.4,2.36h42.24c1.91,0,2.54-0.62,2.54-2.51c0.02-3.34,0.02-6.67,0-10
			C62.18,106.15,61.53,105.5,59.73,105.5z M57.18,116.77c-6.23-0.04-12.49-0.02-18.74-0.02c-6.2,0-12.41-0.02-18.61,0.02
			c-0.84,0-1.15-0.16-1.11-1.07c0.09-1.87,0.05-3.74,0.02-5.62c-0.02-0.62,0.11-0.85,0.8-0.85c12.67,0.04,25.32,0.04,37.99,0
			c0.71,0,0.8,0.29,0.78,0.89c-0.02,1.82-0.05,3.65,0.02,5.49C58.37,116.51,58.17,116.79,57.18,116.77z M110.57,105.5h-42.5
			c-1.42,0-2.22,0.62-2.24,1.94c-0.05,3.71-0.05,7.42,0,11.12c0.02,1.27,0.8,1.93,2.11,1.93c5.83,0.02,11.67,0,17.49,0
			c0.42,0,0.82,0,1.2-0.24c0.82-0.53,1.09-1.27,0.85-2.14c-0.27-0.96-0.96-1.38-1.96-1.36c-4.96,0-9.92-0.02-14.89,0.02
			c-0.76,0-0.98-0.16-0.96-0.96c0.05-1.82,0.07-3.65,0-5.49c-0.04-0.89,0.22-1.09,1.09-1.09c5.33,0.05,10.67,0.02,16,0.02
			c7.13,0,14.25,0.04,21.38-0.02c0.95,0,1.18,0.24,1.15,1.16c-0.09,1.78-0.07,3.58-0.02,5.36c0.04,0.85-0.24,1.02-1.02,1.02
			c-4.89-0.04-9.76-0.02-14.63-0.02c-1.45,0-2.31,0.69-2.34,1.84c-0.04,1.18,0.87,1.91,2.38,1.91h17c1.76,0,2.34-0.6,2.36-2.42
			v-10.12C112.99,106.08,112.42,105.5,110.57,105.5z M59.75,79.25h-42.5c-1.62,0-2.25,0.64-2.25,2.25v10.38
			c0,1.78,0.6,2.36,2.4,2.36h16.89c1.55,0,2.44-0.67,2.45-1.85c0.02-1.18-0.89-1.89-2.4-1.89c-4.89,0-9.76-0.02-14.63,0.02
			c-0.75,0-1-0.13-0.98-0.95c0.07-1.84,0.07-3.67,0-5.49c-0.02-0.87,0.18-1.13,1.07-1.11c4.87,0.05,9.76,0.02,14.63,0.02
			c7.62,0,15.25,0.02,22.87-0.02c0.8,0,1.05,0.18,1.04,1.02c-0.07,1.84-0.07,3.67,0,5.51c0.02,0.82-0.22,1.02-1.04,1.02
			c-4.78-0.04-9.58-0.02-14.36-0.02c-1.69,0-2.51,0.64-2.49,1.91c0.02,1.22,0.82,1.84,2.42,1.84h16.87c1.76,0,2.45-0.64,2.45-2.36
			c0.02-3.42,0.02-6.83,0-10.25C62.18,79.89,61.49,79.25,59.75,79.25z M110.59,79.25H68.24c-1.71,0-2.42,0.64-2.42,2.27
			c-0.04,3.49-0.04,7,0,10.49c0,1.58,0.73,2.24,2.33,2.24h42.61c1.62,0,2.24-0.64,2.24-2.27C113,88.52,113,85.07,113,81.59
			C112.99,79.83,112.39,79.25,110.59,79.25z M108.22,90.52c-6.25-0.04-12.51-0.02-18.74-0.02c-6.22,0-12.41-0.04-18.63,0.02
			c-1.02,0.02-1.22-0.31-1.18-1.24c0.07-1.78,0.05-3.58,0-5.38c-0.02-0.65,0.11-0.93,0.87-0.93c12.61,0.04,25.23,0.04,37.84,0
			c0.75,0,0.89,0.25,0.87,0.93c-0.04,1.87-0.07,3.74,0.02,5.62C109.3,90.39,108.99,90.52,108.22,90.52z M110.57,105.5h-42.5
			c-1.42,0-2.22,0.62-2.24,1.94c-0.05,3.71-0.05,7.42,0,11.12c0.02,1.27,0.8,1.93,2.11,1.93c5.83,0.02,11.67,0,17.49,0
			c0.42,0,0.82,0,1.2-0.24c0.82-0.53,1.09-1.27,0.85-2.14c-0.27-0.96-0.96-1.38-1.96-1.36c-4.96,0-9.92-0.02-14.89,0.02
			c-0.76,0-0.98-0.16-0.96-0.96c0.05-1.82,0.07-3.65,0-5.49c-0.04-0.89,0.22-1.09,1.09-1.09c5.33,0.05,10.67,0.02,16,0.02
			c7.13,0,14.25,0.04,21.38-0.02c0.95,0,1.18,0.24,1.15,1.16c-0.09,1.78-0.07,3.58-0.02,5.36c0.04,0.85-0.24,1.02-1.02,1.02
			c-4.89-0.04-9.76-0.02-14.63-0.02c-1.45,0-2.31,0.69-2.34,1.84c-0.04,1.18,0.87,1.91,2.38,1.91h17c1.76,0,2.34-0.6,2.36-2.42
			v-10.12C112.99,106.08,112.42,105.5,110.57,105.5z M110.59,79.25H68.24c-1.71,0-2.42,0.64-2.42,2.27c-0.04,3.49-0.04,7,0,10.49
			c0,1.58,0.73,2.24,2.33,2.24h42.61c1.62,0,2.24-0.64,2.24-2.27C113,88.52,113,85.07,113,81.59
			C112.99,79.83,112.39,79.25,110.59,79.25z M108.22,90.52c-6.25-0.04-12.51-0.02-18.74-0.02c-6.22,0-12.41-0.04-18.63,0.02
			c-1.02,0.02-1.22-0.31-1.18-1.24c0.07-1.78,0.05-3.58,0-5.38c-0.02-0.65,0.11-0.93,0.87-0.93c12.61,0.04,25.23,0.04,37.84,0
			c0.75,0,0.89,0.25,0.87,0.93c-0.04,1.87-0.07,3.74,0.02,5.62C109.3,90.39,108.99,90.52,108.22,90.52z M59.75,79.25h-42.5
			c-1.62,0-2.25,0.64-2.25,2.25v10.38c0,1.78,0.6,2.36,2.4,2.36h16.89c1.55,0,2.44-0.67,2.45-1.85c0.02-1.18-0.89-1.89-2.4-1.89
			c-4.89,0-9.76-0.02-14.63,0.02c-0.75,0-1-0.13-0.98-0.95c0.07-1.84,0.07-3.67,0-5.49c-0.02-0.87,0.18-1.13,1.07-1.11
			c4.87,0.05,9.76,0.02,14.63,0.02c7.62,0,15.25,0.02,22.87-0.02c0.8,0,1.05,0.18,1.04,1.02c-0.07,1.84-0.07,3.67,0,5.51
			c0.02,0.82-0.22,1.02-1.04,1.02c-4.78-0.04-9.58-0.02-14.36-0.02c-1.69,0-2.51,0.64-2.49,1.91c0.02,1.22,0.82,1.84,2.42,1.84
			h16.87c1.76,0,2.45-0.64,2.45-2.36c0.02-3.42,0.02-6.83,0-10.25C62.18,79.89,61.49,79.25,59.75,79.25z M59.73,105.5H17.25
			c-1.62,0-2.25,0.64-2.25,2.27v10.36c0,1.78,0.6,2.36,2.4,2.36h42.24c1.91,0,2.54-0.62,2.54-2.51c0.02-3.34,0.02-6.67,0-10
			C62.18,106.15,61.53,105.5,59.73,105.5z M57.18,116.77c-6.23-0.04-12.49-0.02-18.74-0.02c-6.2,0-12.41-0.02-18.61,0.02
			c-0.84,0-1.15-0.16-1.11-1.07c0.09-1.87,0.05-3.74,0.02-5.62c-0.02-0.62,0.11-0.85,0.8-0.85c12.67,0.04,25.32,0.04,37.99,0
			c0.71,0,0.8,0.29,0.78,0.89c-0.02,1.82-0.05,3.65,0.02,5.49C58.37,116.51,58.17,116.79,57.18,116.77z M59.73,105.5H17.25
			c-1.62,0-2.25,0.64-2.25,2.27v10.36c0,1.78,0.6,2.36,2.4,2.36h42.24c1.91,0,2.54-0.62,2.54-2.51c0.02-3.34,0.02-6.67,0-10
			C62.18,106.15,61.53,105.5,59.73,105.5z M57.18,116.77c-6.23-0.04-12.49-0.02-18.74-0.02c-6.2,0-12.41-0.02-18.61,0.02
			c-0.84,0-1.15-0.16-1.11-1.07c0.09-1.87,0.05-3.74,0.02-5.62c-0.02-0.62,0.11-0.85,0.8-0.85c12.67,0.04,25.32,0.04,37.99,0
			c0.71,0,0.8,0.29,0.78,0.89c-0.02,1.82-0.05,3.65,0.02,5.49C58.37,116.51,58.17,116.79,57.18,116.77z M110.57,105.5h-42.5
			c-1.42,0-2.22,0.62-2.24,1.94c-0.05,3.71-0.05,7.42,0,11.12c0.02,1.27,0.8,1.93,2.11,1.93c5.83,0.02,11.67,0,17.49,0
			c0.42,0,0.82,0,1.2-0.24c0.82-0.53,1.09-1.27,0.85-2.14c-0.27-0.96-0.96-1.38-1.96-1.36c-4.96,0-9.92-0.02-14.89,0.02
			c-0.76,0-0.98-0.16-0.96-0.96c0.05-1.82,0.07-3.65,0-5.49c-0.04-0.89,0.22-1.09,1.09-1.09c5.33,0.05,10.67,0.02,16,0.02
			c7.13,0,14.25,0.04,21.38-0.02c0.95,0,1.18,0.24,1.15,1.16c-0.09,1.78-0.07,3.58-0.02,5.36c0.04,0.85-0.24,1.02-1.02,1.02
			c-4.89-0.04-9.76-0.02-14.63-0.02c-1.45,0-2.31,0.69-2.34,1.84c-0.04,1.18,0.87,1.91,2.38,1.91h17c1.76,0,2.34-0.6,2.36-2.42
			v-10.12C112.99,106.08,112.42,105.5,110.57,105.5z M59.75,79.25h-42.5c-1.62,0-2.25,0.64-2.25,2.25v10.38
			c0,1.78,0.6,2.36,2.4,2.36h16.89c1.55,0,2.44-0.67,2.45-1.85c0.02-1.18-0.89-1.89-2.4-1.89c-4.89,0-9.76-0.02-14.63,0.02
			c-0.75,0-1-0.13-0.98-0.95c0.07-1.84,0.07-3.67,0-5.49c-0.02-0.87,0.18-1.13,1.07-1.11c4.87,0.05,9.76,0.02,14.63,0.02
			c7.62,0,15.25,0.02,22.87-0.02c0.8,0,1.05,0.18,1.04,1.02c-0.07,1.84-0.07,3.67,0,5.51c0.02,0.82-0.22,1.02-1.04,1.02
			c-4.78-0.04-9.58-0.02-14.36-0.02c-1.69,0-2.51,0.64-2.49,1.91c0.02,1.22,0.82,1.84,2.42,1.84h16.87c1.76,0,2.45-0.64,2.45-2.36
			c0.02-3.42,0.02-6.83,0-10.25C62.18,79.89,61.49,79.25,59.75,79.25z M110.59,79.25H68.24c-1.71,0-2.42,0.64-2.42,2.27
			c-0.04,3.49-0.04,7,0,10.49c0,1.58,0.73,2.24,2.33,2.24h42.61c1.62,0,2.24-0.64,2.24-2.27C113,88.52,113,85.07,113,81.59
			C112.99,79.83,112.39,79.25,110.59,79.25z M108.22,90.52c-6.25-0.04-12.51-0.02-18.74-0.02c-6.22,0-12.41-0.04-18.63,0.02
			c-1.02,0.02-1.22-0.31-1.18-1.24c0.07-1.78,0.05-3.58,0-5.38c-0.02-0.65,0.11-0.93,0.87-0.93c12.61,0.04,25.23,0.04,37.84,0
			c0.75,0,0.89,0.25,0.87,0.93c-0.04,1.87-0.07,3.74,0.02,5.62C109.3,90.39,108.99,90.52,108.22,90.52z M110.57,105.5h-42.5
			c-1.42,0-2.22,0.62-2.24,1.94c-0.05,3.71-0.05,7.42,0,11.12c0.02,1.27,0.8,1.93,2.11,1.93c5.83,0.02,11.67,0,17.49,0
			c0.42,0,0.82,0,1.2-0.24c0.82-0.53,1.09-1.27,0.85-2.14c-0.27-0.96-0.96-1.38-1.96-1.36c-4.96,0-9.92-0.02-14.89,0.02
			c-0.76,0-0.98-0.16-0.96-0.96c0.05-1.82,0.07-3.65,0-5.49c-0.04-0.89,0.22-1.09,1.09-1.09c5.33,0.05,10.67,0.02,16,0.02
			c7.13,0,14.25,0.04,21.38-0.02c0.95,0,1.18,0.24,1.15,1.16c-0.09,1.78-0.07,3.58-0.02,5.36c0.04,0.85-0.24,1.02-1.02,1.02
			c-4.89-0.04-9.76-0.02-14.63-0.02c-1.45,0-2.31,0.69-2.34,1.84c-0.04,1.18,0.87,1.91,2.38,1.91h17c1.76,0,2.34-0.6,2.36-2.42
			v-10.12C112.99,106.08,112.42,105.5,110.57,105.5z M110.59,79.25H68.24c-1.71,0-2.42,0.64-2.42,2.27c-0.04,3.49-0.04,7,0,10.49
			c0,1.58,0.73,2.24,2.33,2.24h42.61c1.62,0,2.24-0.64,2.24-2.27C113,88.52,113,85.07,113,81.59
			C112.99,79.83,112.39,79.25,110.59,79.25z M108.22,90.52c-6.25-0.04-12.51-0.02-18.74-0.02c-6.22,0-12.41-0.04-18.63,0.02
			c-1.02,0.02-1.22-0.31-1.18-1.24c0.07-1.78,0.05-3.58,0-5.38c-0.02-0.65,0.11-0.93,0.87-0.93c12.61,0.04,25.23,0.04,37.84,0
			c0.75,0,0.89,0.25,0.87,0.93c-0.04,1.87-0.07,3.74,0.02,5.62C109.3,90.39,108.99,90.52,108.22,90.52z M59.75,79.25h-42.5
			c-1.62,0-2.25,0.64-2.25,2.25v10.38c0,1.78,0.6,2.36,2.4,2.36h16.89c1.55,0,2.44-0.67,2.45-1.85c0.02-1.18-0.89-1.89-2.4-1.89
			c-4.89,0-9.76-0.02-14.63,0.02c-0.75,0-1-0.13-0.98-0.95c0.07-1.84,0.07-3.67,0-5.49c-0.02-0.87,0.18-1.13,1.07-1.11
			c4.87,0.05,9.76,0.02,14.63,0.02c7.62,0,15.25,0.02,22.87-0.02c0.8,0,1.05,0.18,1.04,1.02c-0.07,1.84-0.07,3.67,0,5.51
			c0.02,0.82-0.22,1.02-1.04,1.02c-4.78-0.04-9.58-0.02-14.36-0.02c-1.69,0-2.51,0.64-2.49,1.91c0.02,1.22,0.82,1.84,2.42,1.84
			h16.87c1.76,0,2.45-0.64,2.45-2.36c0.02-3.42,0.02-6.83,0-10.25C62.18,79.89,61.49,79.25,59.75,79.25z M59.73,105.5H17.25
			c-1.62,0-2.25,0.64-2.25,2.27v10.36c0,1.78,0.6,2.36,2.4,2.36h42.24c1.91,0,2.54-0.62,2.54-2.51c0.02-3.34,0.02-6.67,0-10
			C62.18,106.15,61.53,105.5,59.73,105.5z M57.18,116.77c-6.23-0.04-12.49-0.02-18.74-0.02c-6.2,0-12.41-0.02-18.61,0.02
			c-0.84,0-1.15-0.16-1.11-1.07c0.09-1.87,0.05-3.74,0.02-5.62c-0.02-0.62,0.11-0.85,0.8-0.85c12.67,0.04,25.32,0.04,37.99,0
			c0.71,0,0.8,0.29,0.78,0.89c-0.02,1.82-0.05,3.65,0.02,5.49C58.37,116.51,58.17,116.79,57.18,116.77z M59.73,105.5H17.25
			c-1.62,0-2.25,0.64-2.25,2.27v10.36c0,1.78,0.6,2.36,2.4,2.36h42.24c1.91,0,2.54-0.62,2.54-2.51c0.02-3.34,0.02-6.67,0-10
			C62.18,106.15,61.53,105.5,59.73,105.5z M57.18,116.77c-6.23-0.04-12.49-0.02-18.74-0.02c-6.2,0-12.41-0.02-18.61,0.02
			c-0.84,0-1.15-0.16-1.11-1.07c0.09-1.87,0.05-3.74,0.02-5.62c-0.02-0.62,0.11-0.85,0.8-0.85c12.67,0.04,25.32,0.04,37.99,0
			c0.71,0,0.8,0.29,0.78,0.89c-0.02,1.82-0.05,3.65,0.02,5.49C58.37,116.51,58.17,116.79,57.18,116.77z M110.57,105.5h-42.5
			c-1.42,0-2.22,0.62-2.24,1.94c-0.05,3.71-0.05,7.42,0,11.12c0.02,1.27,0.8,1.93,2.11,1.93c5.83,0.02,11.67,0,17.49,0
			c0.42,0,0.82,0,1.2-0.24c0.82-0.53,1.09-1.27,0.85-2.14c-0.27-0.96-0.96-1.38-1.96-1.36c-4.96,0-9.92-0.02-14.89,0.02
			c-0.76,0-0.98-0.16-0.96-0.96c0.05-1.82,0.07-3.65,0-5.49c-0.04-0.89,0.22-1.09,1.09-1.09c5.33,0.05,10.67,0.02,16,0.02
			c7.13,0,14.25,0.04,21.38-0.02c0.95,0,1.18,0.24,1.15,1.16c-0.09,1.78-0.07,3.58-0.02,5.36c0.04,0.85-0.24,1.02-1.02,1.02
			c-4.89-0.04-9.76-0.02-14.63-0.02c-1.45,0-2.31,0.69-2.34,1.84c-0.04,1.18,0.87,1.91,2.38,1.91h17c1.76,0,2.34-0.6,2.36-2.42
			v-10.12C112.99,106.08,112.42,105.5,110.57,105.5z M110.57,105.5h-42.5c-1.42,0-2.22,0.62-2.24,1.94c-0.05,3.71-0.05,7.42,0,11.12
			c0.02,1.27,0.8,1.93,2.11,1.93c5.83,0.02,11.67,0,17.49,0c0.42,0,0.82,0,1.2-0.24c0.82-0.53,1.09-1.27,0.85-2.14
			c-0.27-0.96-0.96-1.38-1.96-1.36c-4.96,0-9.92-0.02-14.89,0.02c-0.76,0-0.98-0.16-0.96-0.96c0.05-1.82,0.07-3.65,0-5.49
			c-0.04-0.89,0.22-1.09,1.09-1.09c5.33,0.05,10.67,0.02,16,0.02c7.13,0,14.25,0.04,21.38-0.02c0.95,0,1.18,0.24,1.15,1.16
			c-0.09,1.78-0.07,3.58-0.02,5.36c0.04,0.85-0.24,1.02-1.02,1.02c-4.89-0.04-9.76-0.02-14.63-0.02c-1.45,0-2.31,0.69-2.34,1.84
			c-0.04,1.18,0.87,1.91,2.38,1.91h17c1.76,0,2.34-0.6,2.36-2.42v-10.12C112.99,106.08,112.42,105.5,110.57,105.5z M59.73,105.5
			H17.25c-1.62,0-2.25,0.64-2.25,2.27v10.36c0,1.78,0.6,2.36,2.4,2.36h42.24c1.91,0,2.54-0.62,2.54-2.51c0.02-3.34,0.02-6.67,0-10
			C62.18,106.15,61.53,105.5,59.73,105.5z M57.18,116.77c-6.23-0.04-12.49-0.02-18.74-0.02c-6.2,0-12.41-0.02-18.61,0.02
			c-0.84,0-1.15-0.16-1.11-1.07c0.09-1.87,0.05-3.74,0.02-5.62c-0.02-0.62,0.11-0.85,0.8-0.85c12.67,0.04,25.32,0.04,37.99,0
			c0.71,0,0.8,0.29,0.78,0.89c-0.02,1.82-0.05,3.65,0.02,5.49C58.37,116.51,58.17,116.79,57.18,116.77z M59.73,105.5H17.25
			c-1.62,0-2.25,0.64-2.25,2.27v10.36c0,1.78,0.6,2.36,2.4,2.36h42.24c1.91,0,2.54-0.62,2.54-2.51c0.02-3.34,0.02-6.67,0-10
			C62.18,106.15,61.53,105.5,59.73,105.5z M57.18,116.77c-6.23-0.04-12.49-0.02-18.74-0.02c-6.2,0-12.41-0.02-18.61,0.02
			c-0.84,0-1.15-0.16-1.11-1.07c0.09-1.87,0.05-3.74,0.02-5.62c-0.02-0.62,0.11-0.85,0.8-0.85c12.67,0.04,25.32,0.04,37.99,0
			c0.71,0,0.8,0.29,0.78,0.89c-0.02,1.82-0.05,3.65,0.02,5.49C58.37,116.51,58.17,116.79,57.18,116.77z M110.57,105.5h-42.5
			c-1.42,0-2.22,0.62-2.24,1.94c-0.05,3.71-0.05,7.42,0,11.12c0.02,1.27,0.8,1.93,2.11,1.93c5.83,0.02,11.67,0,17.49,0
			c0.42,0,0.82,0,1.2-0.24c0.82-0.53,1.09-1.27,0.85-2.14c-0.27-0.96-0.96-1.38-1.96-1.36c-4.96,0-9.92-0.02-14.89,0.02
			c-0.76,0-0.98-0.16-0.96-0.96c0.05-1.82,0.07-3.65,0-5.49c-0.04-0.89,0.22-1.09,1.09-1.09c5.33,0.05,10.67,0.02,16,0.02
			c7.13,0,14.25,0.04,21.38-0.02c0.95,0,1.18,0.24,1.15,1.16c-0.09,1.78-0.07,3.58-0.02,5.36c0.04,0.85-0.24,1.02-1.02,1.02
			c-4.89-0.04-9.76-0.02-14.63-0.02c-1.45,0-2.31,0.69-2.34,1.84c-0.04,1.18,0.87,1.91,2.38,1.91h17c1.76,0,2.34-0.6,2.36-2.42
			v-10.12C112.99,106.08,112.42,105.5,110.57,105.5z M110.57,105.5h-42.5c-1.42,0-2.22,0.62-2.24,1.94c-0.05,3.71-0.05,7.42,0,11.12
			c0.02,1.27,0.8,1.93,2.11,1.93c5.83,0.02,11.67,0,17.49,0c0.42,0,0.82,0,1.2-0.24c0.82-0.53,1.09-1.27,0.85-2.14
			c-0.27-0.96-0.96-1.38-1.96-1.36c-4.96,0-9.92-0.02-14.89,0.02c-0.76,0-0.98-0.16-0.96-0.96c0.05-1.82,0.07-3.65,0-5.49
			c-0.04-0.89,0.22-1.09,1.09-1.09c5.33,0.05,10.67,0.02,16,0.02c7.13,0,14.25,0.04,21.38-0.02c0.95,0,1.18,0.24,1.15,1.16
			c-0.09,1.78-0.07,3.58-0.02,5.36c0.04,0.85-0.24,1.02-1.02,1.02c-4.89-0.04-9.76-0.02-14.63-0.02c-1.45,0-2.31,0.69-2.34,1.84
			c-0.04,1.18,0.87,1.91,2.38,1.91h17c1.76,0,2.34-0.6,2.36-2.42v-10.12C112.99,106.08,112.42,105.5,110.57,105.5z M59.73,105.5
			H17.25c-1.62,0-2.25,0.64-2.25,2.27v10.36c0,1.78,0.6,2.36,2.4,2.36h42.24c1.91,0,2.54-0.62,2.54-2.51c0.02-3.34,0.02-6.67,0-10
			C62.18,106.15,61.53,105.5,59.73,105.5z M57.18,116.77c-6.23-0.04-12.49-0.02-18.74-0.02c-6.2,0-12.41-0.02-18.61,0.02
			c-0.84,0-1.15-0.16-1.11-1.07c0.09-1.87,0.05-3.74,0.02-5.62c-0.02-0.62,0.11-0.85,0.8-0.85c12.67,0.04,25.32,0.04,37.99,0
			c0.71,0,0.8,0.29,0.78,0.89c-0.02,1.82-0.05,3.65,0.02,5.49C58.37,116.51,58.17,116.79,57.18,116.77z"/>
		<path d="M110.59,79.25H68.24c-1.71,0-2.42,0.64-2.42,2.27c-0.04,3.49-0.04,7,0,10.49c0,1.58,0.73,2.24,2.33,2.24h42.61
			c1.62,0,2.24-0.64,2.24-2.27C113,88.52,113,85.07,113,81.59C112.99,79.83,112.39,79.25,110.59,79.25z M108.22,90.52
			c-6.25-0.04-12.51-0.02-18.74-0.02c-6.22,0-12.41-0.04-18.63,0.02c-1.02,0.02-1.22-0.31-1.18-1.24c0.07-1.78,0.05-3.58,0-5.38
			c-0.02-0.65,0.11-0.93,0.87-0.93c12.61,0.04,25.23,0.04,37.84,0c0.75,0,0.89,0.25,0.87,0.93c-0.04,1.87-0.07,3.74,0.02,5.62
			C109.3,90.39,108.99,90.52,108.22,90.52z M59.75,79.25h-42.5c-1.62,0-2.25,0.64-2.25,2.25v10.38c0,1.78,0.6,2.36,2.4,2.36h16.89
			c1.55,0,2.44-0.67,2.45-1.85c0.02-1.18-0.89-1.89-2.4-1.89c-4.89,0-9.76-0.02-14.63,0.02c-0.75,0-1-0.13-0.98-0.95
			c0.07-1.84,0.07-3.67,0-5.49c-0.02-0.87,0.18-1.13,1.07-1.11c4.87,0.05,9.76,0.02,14.63,0.02c7.62,0,15.25,0.02,22.87-0.02
			c0.8,0,1.05,0.18,1.04,1.02c-0.07,1.84-0.07,3.67,0,5.51c0.02,0.82-0.22,1.02-1.04,1.02c-4.78-0.04-9.58-0.02-14.36-0.02
			c-1.69,0-2.51,0.64-2.49,1.91c0.02,1.22,0.82,1.84,2.42,1.84h16.87c1.76,0,2.45-0.64,2.45-2.36c0.02-3.42,0.02-6.83,0-10.25
			C62.18,79.89,61.49,79.25,59.75,79.25z"/>
		<path d="M110.59,79.25H68.24c-1.71,0-2.42,0.64-2.42,2.27c-0.04,3.49-0.04,7,0,10.49c0,1.58,0.73,2.24,2.33,2.24h42.61
			c1.62,0,2.24-0.64,2.24-2.27C113,88.52,113,85.07,113,81.59C112.99,79.83,112.39,79.25,110.59,79.25z M108.22,90.52
			c-6.25-0.04-12.51-0.02-18.74-0.02c-6.22,0-12.41-0.04-18.63,0.02c-1.02,0.02-1.22-0.31-1.18-1.24c0.07-1.78,0.05-3.58,0-5.38
			c-0.02-0.65,0.11-0.93,0.87-0.93c12.61,0.04,25.23,0.04,37.84,0c0.75,0,0.89,0.25,0.87,0.93c-0.04,1.87-0.07,3.74,0.02,5.62
			C109.3,90.39,108.99,90.52,108.22,90.52z M59.75,79.25h-42.5c-1.62,0-2.25,0.64-2.25,2.25v10.38c0,1.78,0.6,2.36,2.4,2.36h16.89
			c1.55,0,2.44-0.67,2.45-1.85c0.02-1.18-0.89-1.89-2.4-1.89c-4.89,0-9.76-0.02-14.63,0.02c-0.75,0-1-0.13-0.98-0.95
			c0.07-1.84,0.07-3.67,0-5.49c-0.02-0.87,0.18-1.13,1.07-1.11c4.87,0.05,9.76,0.02,14.63,0.02c7.62,0,15.25,0.02,22.87-0.02
			c0.8,0,1.05,0.18,1.04,1.02c-0.07,1.84-0.07,3.67,0,5.51c0.02,0.82-0.22,1.02-1.04,1.02c-4.78-0.04-9.58-0.02-14.36-0.02
			c-1.69,0-2.51,0.64-2.49,1.91c0.02,1.22,0.82,1.84,2.42,1.84h16.87c1.76,0,2.45-0.64,2.45-2.36c0.02-3.42,0.02-6.83,0-10.25
			C62.18,79.89,61.49,79.25,59.75,79.25z"/>
		<path d="M59.73,105.5H17.25c-1.62,0-2.25,0.64-2.25,2.27v10.36c0,1.78,0.6,2.36,2.4,2.36h42.24c1.91,0,2.54-0.62,2.54-2.51
			c0.02-3.34,0.02-6.67,0-10C62.18,106.15,61.53,105.5,59.73,105.5z M57.18,116.77c-6.23-0.04-12.49-0.02-18.74-0.02
			c-6.2,0-12.41-0.02-18.61,0.02c-0.84,0-1.15-0.16-1.11-1.07c0.09-1.87,0.05-3.74,0.02-5.62c-0.02-0.62,0.11-0.85,0.8-0.85
			c12.67,0.04,25.32,0.04,37.99,0c0.71,0,0.8,0.29,0.78,0.89c-0.02,1.82-0.05,3.65,0.02,5.49
			C58.37,116.51,58.17,116.79,57.18,116.77z M110.57,105.5h-42.5c-1.42,0-2.22,0.62-2.24,1.94c-0.05,3.71-0.05,7.42,0,11.12
			c0.02,1.27,0.8,1.93,2.11,1.93c5.83,0.02,11.67,0,17.49,0c0.42,0,0.82,0,1.2-0.24c0.82-0.53,1.09-1.27,0.85-2.14
			c-0.27-0.96-0.96-1.38-1.96-1.36c-4.96,0-9.92-0.02-14.89,0.02c-0.76,0-0.98-0.16-0.96-0.96c0.05-1.82,0.07-3.65,0-5.49
			c-0.04-0.89,0.22-1.09,1.09-1.09c5.33,0.05,10.67,0.02,16,0.02c7.13,0,14.25,0.04,21.38-0.02c0.95,0,1.18,0.24,1.15,1.16
			c-0.09,1.78-0.07,3.58-0.02,5.36c0.04,0.85-0.24,1.02-1.02,1.02c-4.89-0.04-9.76-0.02-14.63-0.02c-1.45,0-2.31,0.69-2.34,1.84
			c-0.04,1.18,0.87,1.91,2.38,1.91h17c1.76,0,2.34-0.6,2.36-2.42v-10.12C112.99,106.08,112.42,105.5,110.57,105.5z"/>
		<path d="M110.59,79.25H68.24c-1.71,0-2.42,0.64-2.42,2.27c-0.04,3.49-0.04,7,0,10.49c0,1.58,0.73,2.24,2.33,2.24h42.61
			c1.62,0,2.24-0.64,2.24-2.27C113,88.52,113,85.07,113,81.59C112.99,79.83,112.39,79.25,110.59,79.25z M108.22,90.52
			c-6.25-0.04-12.51-0.02-18.74-0.02c-6.22,0-12.41-0.04-18.63,0.02c-1.02,0.02-1.22-0.31-1.18-1.24c0.07-1.78,0.05-3.58,0-5.38
			c-0.02-0.65,0.11-0.93,0.87-0.93c12.61,0.04,25.23,0.04,37.84,0c0.75,0,0.89,0.25,0.87,0.93c-0.04,1.87-0.07,3.74,0.02,5.62
			C109.3,90.39,108.99,90.52,108.22,90.52z"/>
		<path d="M62.18,81.63c0.02,3.42,0.02,6.83,0,10.25c0,1.73-0.69,2.36-2.45,2.36H42.86c-1.6,0-2.4-0.62-2.42-1.84
			c-0.02-1.27,0.8-1.91,2.49-1.91c4.78,0,9.58-0.02,14.36,0.02c0.82,0,1.05-0.2,1.04-1.02c-0.07-1.84-0.07-3.67,0-5.51
			c0.02-0.84-0.24-1.02-1.04-1.02c-7.62,0.04-15.25,0.02-22.87,0.02c-4.87,0-9.76,0.04-14.63-0.02c-0.89-0.02-1.09,0.24-1.07,1.11
			c0.07,1.82,0.07,3.65,0,5.49c-0.02,0.82,0.24,0.95,0.98,0.95c4.87-0.04,9.74-0.02,14.63-0.02c1.51,0,2.42,0.71,2.4,1.89
			c-0.02,1.18-0.91,1.85-2.45,1.85H17.4c-1.8,0-2.4-0.58-2.4-2.36V81.5c0-1.62,0.64-2.25,2.25-2.25h42.5
			C61.49,79.25,62.18,79.89,62.18,81.63z"/>
		<path d="M59.73,105.5H17.25c-1.62,0-2.25,0.64-2.25,2.27v10.36c0,1.78,0.6,2.36,2.4,2.36h42.24c1.91,0,2.54-0.62,2.54-2.51
			c0.02-3.34,0.02-6.67,0-10C62.18,106.15,61.53,105.5,59.73,105.5z M57.18,116.77c-6.23-0.04-12.49-0.02-18.74-0.02
			c-6.2,0-12.41-0.02-18.61,0.02c-0.84,0-1.15-0.16-1.11-1.07c0.09-1.87,0.05-3.74,0.02-5.62c-0.02-0.62,0.11-0.85,0.8-0.85
			c12.67,0.04,25.32,0.04,37.99,0c0.71,0,0.8,0.29,0.78,0.89c-0.02,1.82-0.05,3.65,0.02,5.49
			C58.37,116.51,58.17,116.79,57.18,116.77z"/>
		<path d="M113,107.95v10.12c-0.02,1.82-0.6,2.42-2.36,2.42h-17c-1.51,0-2.42-0.73-2.38-1.91c0.04-1.15,0.89-1.84,2.34-1.84
			c4.87,0,9.74-0.02,14.63,0.02c0.78,0,1.05-0.16,1.02-1.02c-0.05-1.78-0.07-3.58,0.02-5.36c0.04-0.93-0.2-1.16-1.15-1.16
			c-7.13,0.05-14.25,0.02-21.38,0.02c-5.33,0-10.67,0.04-16-0.02c-0.87,0-1.13,0.2-1.09,1.09c0.07,1.84,0.05,3.67,0,5.49
			c-0.02,0.8,0.2,0.96,0.96,0.96c4.96-0.04,9.92-0.02,14.89-0.02c1-0.02,1.69,0.4,1.96,1.36c0.24,0.87-0.04,1.62-0.85,2.14
			c-0.38,0.24-0.78,0.24-1.2,0.24c-5.82,0-11.65,0.02-17.49,0c-1.31,0-2.09-0.65-2.11-1.93c-0.05-3.71-0.05-7.42,0-11.12
			c0.02-1.33,0.82-1.94,2.24-1.94h42.5C112.42,105.5,112.99,106.08,113,107.95z"/>
	</g>
</g>
</svg>
