<?xml version="1.0" encoding="utf-8"?>
<!-- Generator: Adobe Illustrator 27.9.0, SVG Export Plug-In . SVG Version: 6.00 Build 0)  -->
<svg version="1.1" id="Layer_1" xmlns="http://www.w3.org/2000/svg" xmlns:xlink="http://www.w3.org/1999/xlink" x="0px" y="0px"
	 viewBox="0 0 128 128" style="enable-background:new 0 0 128 128;" xml:space="preserve">
<g id="_x39_kt9Jr.tif">
	<g>
		<path d="M110.49,103.14c-2.05-0.81-4.12-1.59-6.17-2.4c-8.12-3.24-16.26-6.43-24.41-9.63c-3.99-1.57-7.97-3.17-11.97-4.73
			c-0.72-0.28-1.37-0.58-1.37-1.54c0.01-2.21,0.01-4.42,0-6.63c0-0.64,0.23-1.02,0.92-1.08c1.68-0.15,2.82-1.11,3.68-2.49
			c1.46-2.33,2.77-4.75,4.29-7.05c1.2-1.81,1.89-3.7,1.61-5.87c-0.48-3.74,0.68-6.93,2.74-10.06c3.18-4.83,5.99-9.91,9-14.86
			c0.89-1.47,1.37-2.98,1.29-4.72c-0.1-2.16-0.03-4.33-0.02-6.5c0.01-1.69,0.03-1.71,1.77-1.72c1.29,0,2.58,0.02,3.87-0.01
			c2.95-0.07,4.84-1.96,4.85-4.88c0.02-4.79,0.01-9.58,0-14.38c-0.01-2.57-0.92-3.81-3.34-4.59H30.74
			c-2.39,1.13-3.15,3.04-3.06,5.64c0.16,4.54,0.03,9.09,0.06,13.63c0.02,2.43,1.83,4.21,4.28,4.24c1.79,0.03,3.58,0.05,5.37-0.01
			c0.77-0.03,0.97,0.2,0.96,0.97c-0.05,2.83,0.02,5.67-0.04,8.5c-0.03,1.18,0.28,2.18,0.88,3.17c2.83,4.69,5.44,9.52,8.5,14.06
			c2.64,3.91,4.18,7.93,3.5,12.67c-0.18,1.24,0.25,2.36,0.9,3.42c1.69,2.76,3.37,5.53,5.02,8.31c0.85,1.44,2.08,2.3,3.73,2.34
			c0.92,0.02,0.97,0.41,0.96,1.12c-0.03,2.29-0.07,4.59,0.01,6.88c0.03,0.96-0.32,1.34-1.19,1.68
			C46.21,92.25,31.8,97.93,17.39,103.6c-1.58,0.62-2.42,1.71-2.39,3.15c0.03,1.56,0.88,2.52,2.28,3.09
			c14.32,5.78,28.65,11.55,42.94,17.38c2.58,1.05,4.97,1.05,7.56-0.01c14.05-5.74,28.13-11.41,42.22-17.06
			c1.33-0.54,2.37-1.27,2.99-2.56v-1.75C112.7,104.43,111.78,103.65,110.49,103.14z M33.23,19.23c-1.08,0-1.28-0.31-1.27-1.31
			c0.06-4.21,0.05-8.42,0.01-12.63c-0.01-0.8,0.18-1.12,1.02-1.03c1.06,0.12,2.48-0.45,3.09,0.25c0.52,0.61,0.15,1.99,0.16,3.02
			c0.01,2.11,0.7,3.17,2.12,3.19c1.42,0.03,2.16-1.04,2.16-3.14c0-0.83,0.04-1.67-0.01-2.5c-0.05-0.68,0.22-0.86,0.86-0.83
			c1.08,0.06,2.47-0.35,3.15,0.19c0.71,0.56,0.21,2.02,0.23,3.09c0.04,2.09,0.73,3.16,2.15,3.19c1.43,0.03,2.19-1.06,2.19-3.13V7.47
			c0.01-3.31,0-3.28,3.34-3.22c0.77,0.01,0.89,0.29,0.86,0.95c-0.05,1.04-0.04,2.08-0.01,3.12c0.04,1.41,0.96,2.4,2.19,2.4
			c1.17,0,2.1-0.93,2.17-2.29c0.06-1.04,0.06-2.09,0.01-3.12c-0.04-0.77,0.12-1.17,1-1.05c1.02,0.13,2.39-0.44,2.98,0.23
			c0.5,0.57,0.15,1.9,0.17,2.9c0.01,0.38-0.02,0.75,0.01,1.13c0.12,1.26,1.01,2.17,2.13,2.21c1.16,0.04,2.16-0.91,2.24-2.22
			c0.07-1.08,0.06-2.17,0.01-3.25c-0.04-0.72,0.11-1,0.93-1c3.22-0.02,3.22-0.05,3.22,3.21c0,0.42-0.02,0.84,0.04,1.25
			c0.18,1.2,1.08,2.03,2.16,2.02c1.13-0.01,2.1-0.93,2.16-2.17c0.06-1.12,0.05-2.25,0-3.38c-0.03-0.68,0.13-0.92,0.87-0.93
			c3.33-0.05,3.32-0.08,3.33,3.24c0,0.42-0.01,0.84,0.04,1.25c0.13,1.18,1.07,2.02,2.16,1.99c1.09-0.04,2.04-0.93,2.1-2.08
			c0.06-1.17,0.06-2.34,0-3.5c-0.04-0.73,0.23-0.88,0.92-0.89c3.33-0.05,3.33-0.07,3.33,3.23c0,0.38-0.01,0.75,0.02,1.13
			c0.08,1.23,1.03,2.15,2.17,2.12c1.15-0.03,2.06-0.97,2.1-2.21c0.03-1.17,0.04-2.33-0.01-3.5c-0.02-0.62,0.2-0.74,0.78-0.76
			C96,4.12,96,4.1,96,7.55c0,3.5-0.04,7,0.02,10.51c0.02,0.94-0.22,1.17-1.16,1.17c-10.29-0.04-20.58-0.02-30.88-0.02
			C53.73,19.2,43.48,19.18,33.23,19.23z M54.17,52.71c-3.18-5.35-6.4-10.69-9.6-16.03c-0.04-0.06-0.02-0.16-0.05-0.39
			c2.2,0,4.38-0.01,6.56,0c1.09,0.01,1.85-0.48,2.15-1.52c0.28-0.98-0.02-1.81-0.86-2.41c-0.42-0.31-0.91-0.34-1.42-0.34
			c-2.42,0.01-4.83-0.02-7.25,0.02c-0.69,0.01-1.04-0.06-1.01-0.91c0.07-2.25,0.06-4.5,0.01-6.75c-0.02-0.74,0.25-0.87,0.92-0.87
			c13.59,0.02,27.17,0.02,40.75,0c0.67,0,0.93,0.13,0.92,0.87c-0.05,2.25-0.07,4.51,0.01,6.75c0.03,0.86-0.32,0.91-1.01,0.91
			c-7.38-0.02-14.75,0-22.13-0.03c-1.14,0-1.97,0.4-2.34,1.46c-0.53,1.5,0.56,2.81,2.33,2.81c6.63,0.01,13.25,0.01,19.88,0.01h1.62
			c-1.43,2.39-2.75,4.59-4.07,6.78c-1.88,3.13-3.76,6.26-5.62,9.41c-0.31,0.53-0.61,0.86-1.33,0.85c-5.75-0.04-11.5-0.03-17.25-0.02
			C54.84,53.32,54.48,53.24,54.17,52.71z M61.13,72.38c-1.39-0.67-1.85-2.74-2.78-4.17c-0.25-0.38-0.42-0.83-0.71-1.17
			c-2.13-2.49-2.42-5.42-2.18-8.53c0.05-0.64,0.19-0.84,0.85-0.83c2.58,0.04,5.16,0.02,7.75,0.02c2.5,0,5,0.03,7.5-0.02
			c0.77-0.02,1.08,0.19,0.95,0.96c-0.01,0.04-0.01,0.08,0,0.12c0.45,3.2-0.4,6.02-2.33,8.61c-1.04,1.39-1.84,2.96-2.7,4.47
			c-0.31,0.54-0.67,0.73-1.29,0.72C64.48,72.52,62.52,73.04,61.13,72.38z M40.67,114.68c-6.32-2.57-12.66-5.12-18.98-7.69
			c-0.15-0.06-0.27-0.18-0.44-0.31c13.48-5.3,26.91-10.58,40.54-15.94c0,4.78-0.01,9.41,0.01,14.03c0,0.52-0.25,0.71-0.67,0.91
			c-6.48,2.97-12.95,5.96-19.41,8.96C41.35,114.81,41.07,114.84,40.67,114.68z M98.84,110.03c-10.78,4.37-21.57,8.7-32.33,13.11
			c-1.73,0.71-3.28,0.73-5.01,0c-4.82-2.04-9.69-3.95-14.78-6.01c2.15-1.01,4.08-1.91,6.01-2.82c3.9-1.83,7.78-3.68,11.69-5.46
			c1.27-0.58,1.79-1.45,1.78-2.82c-0.03-5.04-0.01-10.08-0.01-15.3c13.58,5.34,27.03,10.64,40.68,16.01
			C104.09,107.88,101.47,108.97,98.84,110.03z"/>
		<path d="M96.26,64.55c-1.13-0.14-1.86-0.64-2.16-1.61c-0.31-0.99,0.05-1.82,0.89-2.38c0.4-0.27,0.9-0.41,1.36-0.6
			c5.23-2.21,7.08-6.8,4.78-12.04c-0.81-1.83-1.55-3.64-1.7-5.68c-0.45-6.12,3.6-11.82,9.56-13.35c1.22-0.31,2.37,0.23,2.75,1.31
			c0.42,1.18-0.09,2.31-1.38,2.8c-1.29,0.5-2.53,1.06-3.61,1.92c-2.84,2.28-3.68,5.73-2.33,9.59c0.67,1.91,1.59,3.73,1.85,5.78
			c0.71,5.7-1.77,10.43-6.9,13.03C98.34,63.84,97.28,64.3,96.26,64.55z"/>
		<path d="M95.81,51.85c0,0.86-0.33,1.54-1.12,1.93c-0.37,0.19-0.75,0.34-1.14,0.49c-5.01,1.98-6.96,6.32-5.08,11.39
			c0.66,1.78,1.54,3.46,1.88,5.38c1.09,6.25-3.42,13.05-9.61,14.33c-1.19,0.25-2.15-0.28-2.55-1.41c-0.37-1.03,0.05-2.07,1.1-2.61
			c0.4-0.21,0.84-0.35,1.26-0.53c4.92-2.18,6.73-6.59,4.71-11.59c-0.82-2.04-1.62-4.06-1.78-6.3c-0.45-6.22,3.39-10.62,8.28-12.61
			c0.6-0.25,1.2-0.56,1.89-0.55C94.89,49.78,95.78,50.62,95.81,51.85z"/>
	</g>
</g>
</svg>
