<?xml version="1.0" encoding="utf-8"?>
<!-- Generator: Adobe Illustrator 28.0.0, SVG Export Plug-In . SVG Version: 6.00 Build 0)  -->
<svg version="1.1" id="Layer_1" xmlns="http://www.w3.org/2000/svg" xmlns:xlink="http://www.w3.org/1999/xlink" x="0px" y="0px"
	 viewBox="0 0 128 128" style="enable-background:new 0 0 128 128;" xml:space="preserve">
<g id="bAo3dJ.tif">
	<g>
		<path d="M76,16.1c1.1,1.8,1,3.7,0.5,5.7c-2.1,9-3.9,18.1-6.1,27.1c-0.9,3.5,0.1,4.3,3.5,4.2c5-0.2,10,0,15-0.1c1.5,0,3.1,0,4,1.5
			c1,1.7,0,3.2-1.1,4.5c-13,16.8-26,33.7-39,50.5c-1.1,1.5-2.4,3.1-4.5,1.7c-2-1.3-1.2-3.2-0.6-4.9C51,96.1,54.4,85.7,58,74.9
			c-6.5,0-12.4,0-18.4,0c-1.7,0-3.5,0.2-4.5-1.5c-1-1.7,0.1-3.2,1-4.6C48.4,51.2,60.7,33.7,73,16.1C74,16.1,75,16.1,76,16.1z
			 M42.7,69.1c6.6,0,12,0,17.5,0c3.7,0,5.1,1.5,3.8,5.3c-2.1,5.9-3.9,11.9-5.8,17.8c0.2,0.1,0.4,0.2,0.7,0.4
			c8.4-10.9,16.9-21.9,26-33.7c-6.4,0-11.7,0-16.9,0c-3.6,0-5.2-1.3-4.2-5.2c1.6-6.4,2.8-13,4.2-19.4c-0.3-0.1-0.5-0.2-0.8-0.3
			C59.2,45.3,51.3,56.7,42.7,69.1z"/>
		<path d="M0,31.1c3.4-7.4,9.2-10.2,17.2-10c10.3,0.4,20.7,0.1,31,0.1c2.1,0,4.8-0.3,4.9,2.8c0.1,3.1-2.6,2.9-4.7,2.9
			c-11.2,0-22.3,0-33.5,0c-6.4,0-9.3,2.6-9.3,9c-0.1,17-0.1,33.9,0,50.9c0,6.2,3.1,9,9.4,9.1c6.2,0.1,12.3,0,18.5,0
			c1.8,0,3.5,0.2,3.7,2.4c0.2,2.6-1.7,3-3.6,3c-7.2,0-14.3,0-21.5-0.2c-6.1-0.2-9.2-4.6-12-9.2C0,71.6,0,51.4,0,31.1z"/>
		<path d="M128,61.7c0,4.8-0.1,9.6,0,14.4c0.1,5.1-2.1,8.4-7.3,9c-2.5,0.3-3.2,1.5-3.5,3.8c-1.3,8.1-5.6,12-13.7,12.3
			c-8.1,0.3-16.3,0.1-24.5,0.1c-2,0-4.3-0.1-4.2-3c0.2-2.5,2.3-2.4,4.1-2.4c7.5,0,15,0,22.5,0c7.4,0,10.7-2.9,10.4-10.1
			c-0.2-4.6,1.3-6.5,5.9-5.9c3.1,0.4,4.6-1.1,4.6-4.3c-0.1-9.5-0.1-18.9,0-28.4c0-3.2-1.2-4.7-4.4-4.3c-4.5,0.6-6.2-1.2-6.1-5.9
			c0.2-7.5-2.7-10-10.2-10.1c-4,0-8,0-12,0c-2.2,0-4.3-0.5-4.3-3c0-2.2,2-2.8,4-2.8c5,0,10-0.2,15,0.1c7,0.4,11.7,4.8,12.8,11.7
			c0.4,2.4,0.6,4,3.9,4.4c4.6,0.6,7.1,3.9,7,8.8C127.9,51.4,128,56.5,128,61.7z"/>
	</g>
</g>
</svg>
