<?xml version="1.0" encoding="utf-8"?>
<!-- Generator: Adobe Illustrator 28.0.0, SVG Export Plug-In . SVG Version: 6.00 Build 0)  -->
<svg version="1.1" id="Layer_1" xmlns="http://www.w3.org/2000/svg" xmlns:xlink="http://www.w3.org/1999/xlink" x="0px" y="0px"
	 viewBox="0 0 128 128" style="enable-background:new 0 0 128 128;" xml:space="preserve">
<g id="nwfiQw.tif">
	<g>
		<path d="M127.1,4.3c-7.7,19.8-20.3,36-35.9,50.1c-2.4,2.2-2.5,5-2.8,7.8c-0.7,6.2-1.5,12.4-2.1,18.7c-0.2,2.2-0.9,3.6-2.8,4.7
			c-6.2,3.7-6.8,3.5-9.5-3.2c-0.9-2.3-1.9-4.6-3-7.3C64,81.3,56.9,86.7,56,96.6c-0.1,0.9-0.6,1.7-0.7,2.6c-1.4,12-7,21.5-16.4,28.9
			c-0.4,0-0.7,0-1.1,0c-2.8-2.7-4.1-6.3-6-9.5c-1-1.8-1.6-1.9-3.9-1.3c-4.8,1.4-9,2.9-12.8,6.6c-2.5,2.5-4.4-1.4-5.8-3
			c-2.3-2.8-8.4-4.9-5.9-8.7c2.6-4.2,5.1-8,6.4-12.9c0.6-2.3,0.7-2.8-1.2-3.9c-10.2-6.4-10-6.4-1.5-15.1c2.7-2.8,5.7-4.7,9.5-5.5
			c4-0.8,7.9-2.5,11.9-3c10.3-1.1,16.9-7.6,23.1-15.3c-2.3-2.1-5.5-2.3-8-3.8c-1.8-1-5.5-1-4.3-4.2c1.1-2.9,1.4-7,5.8-7.6
			c5.9-0.7,11.7-1.8,17.6-2c5.4-0.1,9.4-2.1,13-6.1c12.6-13.8,27-25.1,44.7-31.6c2.1-0.8,4.3-2.4,6.5-0.2
			C127.1,2.1,127.1,3.2,127.1,4.3z M22.7,114.1c2.6,0.4,3.7-1.5,5.1-2.8c7.6-7.6,15.2-15.2,22.8-22.8c9-9,8.9-8.9-0.3-18
			c-2.4-2.3-3.6-2.3-5.9,0c-9.2,9.5-18.6,18.8-28,28.1c-2.1,2.1-4.8,4.4-2.9,7.2C15.8,109.3,18.6,112.7,22.7,114.1z M77.8,37.5
			c-1.1,1-2,1.8-2.9,2.7c-5.1,5.1-10.1,10.1-15.2,15.2c-9.6,9.6-9.5,9.5,0.3,18.8c2.1,1.9,3.2,1.9,5.1-0.1
			c5.6-5.8,11.3-11.4,17-17.1c7.6-7.6,7.6-7.6,0-15.2C80.8,40.3,79.4,39,77.8,37.5z M120.9,6.1c-10.3,4-18.7,9.1-26.5,15.3
			c-7.7,6.2-7.7,6.2-0.6,13.3c1.1,1.1,2.3,2.2,3.4,3.4c1.2,1.4,2.2,1.4,3.5,0C109.2,29,116.1,18.8,120.9,6.1z M32.6,76.1
			c-8.2,2.6-17.7,1-23.6,8.8c-0.9,1.2-4.1,2.5-1.9,4c2.6,1.7,5.7,6,9,3.3C22.1,87.4,27.1,81.5,32.6,76.1z M51.6,95.2
			c-0.3-0.2-0.7-0.4-1-0.6c-4.7,4.8-9.5,9.7-14.2,14.5c-2.4,2.5-1.3,9.5,1.8,11.2c0.8,0.4,1.4,0.3,1.9-0.2c2.6-2.9,6.3-4.8,7.4-9
			C48.9,105.8,50.2,100.5,51.6,95.2z M65,44.6c-0.4-0.4-0.7-0.8-1.1-1.2c-5.1,0.6-10.3,1.2-15.4,1.7c-1.8,0.2-3.4,0.5-3.3,2.5
			c0.1,1.9,10.7,5,12.3,3.7C59.9,49.1,62.4,46.9,65,44.6z M83.7,62.8c-9.5,6.9-10,8.3-6,16.8c0.5,1,0.4,2.7,2.3,2.4
			c1.5-0.2,1.8-1.3,2-2.7C82.5,73.9,83.1,68.5,83.7,62.8z M95.3,43.4c-0.2-0.4-0.2-0.8-0.5-1c-3.4-3.4-6.7-6.8-10.1-10.1
			c-0.8-0.8-1.6-0.2-2.3,0.4c-1,0.9-1,1.8-0.1,2.7c3.1,3.1,6.2,6.3,9.4,9.4C93.6,46.5,94.4,44.7,95.3,43.4z M16.3,115.7
			c-1.6-1.5-3.2-3.4-5.3-4.6c-1.1-0.6-2.6,1.3-2.2,2.2c1.1,2.2,2.7,4.3,5.2,4.9C15,118.5,15.9,117.4,16.3,115.7z"/>
		<path d="M25.1,105.8c-1.2-1-1.8-1.5-2.4-2c-1.1-1-0.6-1.8,0.2-2.7c7.6-7.6,15.2-15.2,22.7-22.8c1.3-1.3,2.3-1.4,3.6,0
			c1.5,1.6,0.4,2.5-0.7,3.6c-5.9,5.9-11.9,11.9-17.8,17.8C28.8,101.6,27,103.6,25.1,105.8z"/>
		<path d="M62.5,67.2c-0.7-0.6-1.4-1-2-1.7c-0.9-1.1-0.2-2,0.6-2.7c5.1-5.1,10.1-10.1,15.2-15.2c1.1-1.1,2-1.2,3.1,0
			c1,1.1,1.5,1.9,0.2,3.1C74.4,55.9,69.2,61.1,64,66.3C63.7,66.6,63.1,66.8,62.5,67.2z"/>
	</g>
</g>
</svg>
