<?xml version="1.0" encoding="utf-8"?>
<!-- Generator: Adobe Illustrator 28.0.0, SVG Export Plug-In . SVG Version: 6.00 Build 0)  -->
<svg version="1.1" id="Layer_1" xmlns="http://www.w3.org/2000/svg" xmlns:xlink="http://www.w3.org/1999/xlink" x="0px" y="0px"
	 viewBox="0 0 128 128" style="enable-background:new 0 0 128 128;" xml:space="preserve">
<g id="xXg7qn.tif">
	<g>
		<path d="M57.8,79.3c-4.1,5.2-8.3,10.4-12.3,15.8c-1.5,2-4.5,2.5-6.6,0.6c-6.8-6.1-11.3-13.4-13.1-22.4c-0.3-1.7-0.4-3.4-0.5-4.3
			c-0.2-3.5,1.6-5.4,4.3-5.4c5.4,0,10.9,0,16.3,0c0.8,0,1,0.3,1.1,1c1,6.3,4.6,10.7,10.3,13.3C58.3,78.2,58.5,78.4,57.8,79.3z"/>
		<path d="M77.2,62.1c0.1,6.8-5.5,12.6-12.3,12.9c-8.4,0.4-13.9-6.4-14.1-12.2c-0.2-8.7,6-13.8,12.5-14
			C71.3,48.6,77.1,54.2,77.2,62.1z"/>
		<path d="M81,34.6c-2.1,4.4-4.3,8.7-6.3,13.1c-0.4,0.9-0.7,0.6-1.3,0.2c-5.8-3.6-11.8-3.7-17.9-0.6c-0.8,0.4-1.5,1-2.2,1.5
			c-0.4,0.3-0.6,0.4-0.9-0.2c-2.4-4.8-4.8-9.6-7.2-14.4c-0.9-1.9,0.1-4,2.2-5c4.9-2.3,10.2-3.4,15.4-3.4c5.7,0.1,11.1,1.2,16.1,3.4
			C81.3,30.2,82.1,32.2,81,34.6z"/>
		<path d="M102.7,68.6c-0.6,11.1-5.5,20.2-13.8,27.4c-1.9,1.7-4.3,1.6-5.8-0.2c-4.5-5.7-9-11.4-13.5-17.3c6-2.5,9.8-6.7,11.3-13
			c0.5-2.1,0.5-2.1,2.7-2.1H98C101.1,63.5,102.9,65.4,102.7,68.6z"/>
		<path d="M128,61.7c-0.3-0.4-0.1-0.8-0.1-1.2c-0.1-2.4-0.2-4.8-0.6-7.2c-2.3-13.5-8.5-25-18-34.7c-3.2-3.2-6.7-6-10.6-8.5
			C90.7,4.9,82,1.6,72.5,0.4c-2.1-0.3-4.3-0.1-6.4-0.4h-0.2c-1.2,0.2-2.4,0.2-3.6,0h-0.8c-0.4,0.3-0.9,0.1-1.4,0.1
			c-1.9,0.1-3.8,0.1-5.6,0.4C39.9,2.9,27.6,9.4,17.4,20.1c-5.6,5.9-9.9,12.8-13,20.3C0.1,51.1-0.8,62.2,0.7,73.6
			c1.1,8.3,4,16.1,8.4,23.3c3.6,6,8.1,11.2,13.4,15.8c6.9,5.9,14.7,10.2,23.3,12.8c6.4,2,13,2.6,19.8,2.5c9.2-0.1,17.9-2.2,26.1-6.2
			c11.1-5.4,20-13.3,26.6-23.8c5-7.9,8.2-16.5,9.3-25.7c0.2-1.9,0.1-3.8,0.4-5.7v-1.3c-0.2-0.9-0.2-1.7,0-2.6V61.7z M64,115.7
			c-28.6-0.1-51.8-23.4-51.7-51.8c0.1-28.7,23.4-52,51.9-51.7c28.7,0.2,51.9,23.4,51.6,51.8C115.6,92.7,92.4,115.8,64,115.7z"/>
		<path d="M65.9,0c-1.2,0.4-2.4,0.4-3.6,0C63.5,0,64.7,0,65.9,0z"/>
		<path d="M128,65.3c-0.4-0.9-0.4-1.7,0-2.6C128,63.6,128,64.4,128,65.3z"/>
		<path d="M57.8,79.3c-4.1,5.2-8.3,10.4-12.3,15.8c-1.5,2-4.5,2.5-6.6,0.6c-6.8-6.1-11.3-13.4-13.1-22.4c-0.3-1.7-0.4-3.4-0.5-4.3
			c-0.2-3.5,1.6-5.4,4.3-5.4c5.4,0,10.9,0,16.3,0c0.8,0,1,0.3,1.1,1c1,6.3,4.6,10.7,10.3,13.3C58.3,78.2,58.5,78.4,57.8,79.3z"/>
		<path d="M77.2,62.1c0.1,6.8-5.5,12.6-12.3,12.9c-8.4,0.4-13.9-6.4-14.1-12.2c-0.2-8.7,6-13.8,12.5-14
			C71.3,48.6,77.1,54.2,77.2,62.1z"/>
		<path d="M81,34.6c-2.1,4.4-4.3,8.7-6.3,13.1c-0.4,0.9-0.7,0.6-1.3,0.2c-5.8-3.6-11.8-3.7-17.9-0.6c-0.8,0.4-1.5,1-2.2,1.5
			c-0.4,0.3-0.6,0.4-0.9-0.2c-2.4-4.8-4.8-9.6-7.2-14.4c-0.9-1.9,0.1-4,2.2-5c4.9-2.3,10.2-3.4,15.4-3.4c5.7,0.1,11.1,1.2,16.1,3.4
			C81.3,30.2,82.1,32.2,81,34.6z"/>
		<path d="M102.7,68.6c-0.6,11.1-5.5,20.2-13.8,27.4c-1.9,1.7-4.3,1.6-5.8-0.2c-4.5-5.7-9-11.4-13.5-17.3c6-2.5,9.8-6.7,11.3-13
			c0.5-2.1,0.5-2.1,2.7-2.1H98C101.1,63.5,102.9,65.4,102.7,68.6z"/>
		<path d="M102.7,68.6c-0.6,11.1-5.5,20.2-13.8,27.4c-1.9,1.7-4.3,1.6-5.8-0.2c-4.5-5.7-9-11.4-13.5-17.3c6-2.5,9.8-6.7,11.3-13
			c0.5-2.1,0.5-2.1,2.7-2.1H98C101.1,63.5,102.9,65.4,102.7,68.6z"/>
		<path d="M57.8,79.3c-4.1,5.2-8.3,10.4-12.3,15.8c-1.5,2-4.5,2.5-6.6,0.6c-6.8-6.1-11.3-13.4-13.1-22.4c-0.3-1.7-0.4-3.4-0.5-4.3
			c-0.2-3.5,1.6-5.4,4.3-5.4c5.4,0,10.9,0,16.3,0c0.8,0,1,0.3,1.1,1c1,6.3,4.6,10.7,10.3,13.3C58.3,78.2,58.5,78.4,57.8,79.3z"/>
		<path d="M81,34.6c-2.1,4.4-4.3,8.7-6.3,13.1c-0.4,0.9-0.7,0.6-1.3,0.2c-5.8-3.6-11.8-3.7-17.9-0.6c-0.8,0.4-1.5,1-2.2,1.5
			c-0.4,0.3-0.6,0.4-0.9-0.2c-2.4-4.8-4.8-9.6-7.2-14.4c-0.9-1.9,0.1-4,2.2-5c4.9-2.3,10.2-3.4,15.4-3.4c5.7,0.1,11.1,1.2,16.1,3.4
			C81.3,30.2,82.1,32.2,81,34.6z"/>
		<path d="M77.2,62.1c0.1,6.8-5.5,12.6-12.3,12.9c-8.4,0.4-13.9-6.4-14.1-12.2c-0.2-8.7,6-13.8,12.5-14
			C71.3,48.6,77.1,54.2,77.2,62.1z"/>
	</g>
</g>
</svg>
