<?xml version="1.0" encoding="utf-8"?>
<!-- Generator: Adobe Illustrator 28.0.0, SVG Export Plug-In . SVG Version: 6.00 Build 0)  -->
<svg version="1.1" id="Layer_1" xmlns="http://www.w3.org/2000/svg" xmlns:xlink="http://www.w3.org/1999/xlink" x="0px" y="0px"
	 viewBox="0 0 128 128" style="enable-background:new 0 0 128 128;" xml:space="preserve">
<g id="fg5aoM.tif">
	<g>
		<path d="M118.5,14.5c-1,0-1.2-0.4-0.9-1.3c1-4-0.4-7.2-4-9.3c-1.1-0.6-2.2-1.4-3.2-2.2c-1.9-1.5-4.1-1.9-6.5-1.5
			C100,1,97.6,4.4,98,8.4c0,0.5,0.2,1-0.6,1.2c-6.7,2-11.5,6.5-15.2,12.2c-3.5,5.4-5.7,11.3-7.1,17.5c-0.3,1.1-0.6,1.8-1.8,2
			c-1.8,0.3-3.6,0.9-5.4,1.4c-1.6,0.4-2.4,1.7-2,3.2c0.4,1.3,1.7,2.1,3.3,1.7c2.4-0.6,4.9-1.2,7.3-1.9c0.4-0.1,0.8-0.2,1.2-0.2
			c2.8,0.6,5.6,1.5,8.1,3.1c1.9,1.2,3.4,2.8,4,5.1c1.8,6.9-1,14.2-8.8,16.6c-6.7,2-13.2,1.2-19.7-1.1c-8.2-3-14.6-8.6-20.1-15.3
			c-1.4-1.7-2.8-3.5-4-5.5c0.5-0.1,0.8,0,1.1,0.1c2.4,0.7,4.9,1.2,7.5,1.3c1.6,0.1,2.6-0.9,2.7-2.3c0.1-1.4-0.9-2.5-2.5-2.7
			c-2.3-0.3-4.6-0.6-6.8-1.4c-5.2-1.6-9.9-4.2-14.7-6.7c-2.9-1.5-5.7-3.2-8.9-4c-3.3-0.8-6,0-7.6,2.5c-1.3,1.9-1.7,4-1.2,6.3
			c0.5,2.4,1.8,4.4,2.9,6.5c0.6,1.2,0.8,2.3,0.5,3.6c-0.6,3.6-0.6,7.2,1.7,10.3c1.4,1.9,2.3,3.7,2.6,6.2c0.4,3.7,2.6,6.5,5.6,8.6
			c1.7,1.1,2.6,2.6,2.9,4.6c0.2,1.5,0.6,2.9,1.1,4.3c3.5,8.1,9.3,13.4,18.4,14.5c0.8,0.1,1.3,0.4,1.7,1.1c0.8,1.6,1.9,3,3.3,4.2
			c0.4,0.4,0.6,0.8,0.5,1.4c-0.4,2.6-0.8,5.3-1.1,7.9c-0.1,0.8-0.5,1-1.1,1.2c-1.4,0.4-2.8,0.8-4.1,1.3c-1.4,0.5-2.2,1.8-1.8,3.1
			c0.4,1.4,1.8,2.1,3.3,1.7c1.2-0.3,2.3-0.7,3.5-1.1c0.6-0.2,0.8-0.2,1,0.5c0.3,1.3,0.8,2.6,1.2,3.9c0.4,1.2,1.1,1.8,2.4,1.8
			c1.4,0.1,2.8,0.2,4.2,0.4c1.8,0.3,3.3,0.2,4.4-2.1c0.1,1.5,0.9,1.9,1.6,2.5H63c1.4-0.2,2.8-0.6,4.2-1.1c1.7-0.7,3.4-0.6,5.1-0.4
			c2.7,0.2,5.4,0.5,8.1,0.6c1.8,0.1,3.1-1.1,3.3-2.6c0.2-1.5-1-2.8-2.8-3.1c-2.9-0.4-5.9-0.5-8.8-0.7c-0.9-0.1-1.5-0.3-1.8-1.2
			c-1.1-2.6-2.4-5.1-3.6-7.6c-0.5-0.9-0.3-1.5,0.5-2.1c4.9-3.3,9.7-6.6,14.5-10c0.8-0.6,1.7-1,2.7-1.3c3.7-1.2,7.2-2.7,10.4-4.8
			c6.4-4.1,11.1-9.7,14-16.8c2.9-7.2,3.4-14.8,2.9-22.5c-0.6-8.3-2.6-16.4-5.5-24.3c-0.8-2.3-0.8-2.3,1.6-2.7c3.2-0.6,6-2,7.1-5.2
			c0.7-2,1.4-2.9,3.7-2.5c1.6,0.2,2.3-0.5,2.8-2v-1.7C120.7,15.1,119.8,14.4,118.5,14.5z M64.6,122.1c-0.9,0.2-1.7,0.6-2.6,0.8
			c-1.1,0.3-2,0.8-2.4,2.4c-0.4-1.9-1.4-2.6-2.9-2.7c-0.1,0-0.2,0-0.4,0c-1.1-0.2-2.8,0.4-3.2-0.4c-0.8-1.6-1.6-3.4-1.4-5.3
			c0.2-2.5,0.6-4.9,1-7.5c2.4,1.2,4.9,2.1,7.5,2.6c0.4,0.1,0.6,0.3,0.8,0.7c1.3,2.8,2.6,5.6,4,8.4C65.4,121.7,65.3,121.9,64.6,122.1
			z M106.6,22.3c-1.6,0.3-3.2,0.2-4.7,0.2c-2.9,0-4,1.5-2.9,4.2c1.4,3.4,2.8,6.9,3.9,10.5c2.4,8,4,16.2,3.6,24.6
			c-0.4,9-2.9,17.1-9.5,23.5c-3.3,3.2-7.1,5.5-11.4,7.1c-3.1,1.2-6.3,2-8.9,4.3c0.9-2,1.6-4,2.2-6c0.5-1.6-0.2-3.1-1.5-3.5
			c-1.5-0.5-2.8,0.3-3.4,2.1c-2,6.7-5.7,12.3-11,16.8c-0.8,0.7-1.5,0.8-2.6,0.6c-4.7-1.2-8.7-3.4-11.4-7.6C47.5,97,47,94.4,46,92
			c-0.4-1-0.7-2-1-3.1c-0.6-1.4-2-2.1-3.3-1.6c-1.3,0.5-1.9,1.8-1.4,3.3c0.4,1.3,0.9,2.7,1.4,4.1c-1.2,0-2.2-0.4-3.2-0.9
			c-5.8-2.7-9.1-7.2-10.4-13.4c0-0.2,0-0.4-0.1-0.6c-0.3-0.8-0.2-1.1,0.8-1c2,0.2,4,0,5.9-0.6c1.7-0.4,2.6-1.7,2.2-3.2
			c-0.4-1.5-1.6-2.2-3.4-1.8c-3.3,0.9-6.6,0.6-9.8-0.6c-2.6-1-3.8-3.4-4.4-6.2c2.4,0.3,4.7,0.4,6.9,0.3c1.6-0.1,2.6-0.9,2.8-2.1
			c0.3-1.8-1-3.1-2.9-3c-2.4,0.2-4.8-0.1-7.2-0.3c-0.8-0.1-1.3-0.4-1.8-0.9c-2.2-2.1-2.3-4.8-2-7.6c1.7,0.6,3.4,1.3,5.2,1.6
			c0.6,0.1,1.2,0.2,1.7,0.2c1.5,0,2.6-1,2.6-2.4c0-1.3-1-2.4-2.4-2.6c-1-0.1-2-0.3-2.9-0.6c-4.7-1.1-6.6-4.7-7.7-8.8
			c-0.5-1.9,0.8-3,2.8-2.5c2.7,0.7,5.2,2.2,7.7,3.5c2.2,1.1,4.7,2,6.5,3.5c1.9,1.5,2.6,4.1,3.9,6.1c5.5,8.2,12,15.3,20.6,20.2
			c6.6,3.8,13.7,5.7,21.3,5.5c5.4-0.2,10.4-1.4,14.7-5c6.4-5.3,8.2-15.9,3.8-22.6c-2.5-3.9-6.4-5.9-10.6-7.3
			c-2.4-0.8-2.5-0.8-1.8-3.2c1.9-6.8,4.6-13.2,9.6-18.3c4.1-4.3,9-6.5,15-6.3c0.8,0,1.6,0.2,2.3,0.4c2.2,0.8,3.3,2.3,3.1,4.5
			C110.3,20.6,108.9,21.9,106.6,22.3z M112.6,11.5c-2.5-2.4-5.4-2.9-8.5-2.8c-1.1,0-1.3-0.4-1.2-1.3c0.2-1.9,2.4-2.9,4.2-1.8
			c1.5,1,3,2.1,4.5,3.1C112.6,9.2,112.9,10.2,112.6,11.5z"/>
		<path d="M57.1,49.6c-1.4,0-2.5-1.1-2.5-2.5c0-1.3,1.2-2.5,2.6-2.5c1.4,0,2.5,1.1,2.5,2.5C59.6,48.5,58.5,49.6,57.1,49.6z"/>
	</g>
</g>
</svg>
