<?xml version="1.0" encoding="utf-8"?>
<!-- Generator: Adobe Illustrator 28.0.0, SVG Export Plug-In . SVG Version: 6.00 Build 0)  -->
<svg version="1.1" id="Layer_1" xmlns="http://www.w3.org/2000/svg" xmlns:xlink="http://www.w3.org/1999/xlink" x="0px" y="0px"
	 viewBox="0 0 128 128" style="enable-background:new 0 0 128 128;" xml:space="preserve">
<g id="Y2mZK2.tif">
	<g>
		<path d="M84.7,51.6c-17,0-30.8,13.7-31,30.5c-0.2,17.2,13.8,31.3,30.7,31.3c17.2,0,31.2-13.7,31.2-30.7
			C115.6,65.4,101.9,51.6,84.7,51.6z M101.2,103.5c-5.7,4.3-12,6.4-19.1,5.6c-11.6-1.4-19.4-7.7-23-18.8c-2.8-8.7-1-16.9,4.4-24.3
			c0.6-0.8,1-1,1.6-0.1c0,0,0.1,0.1,0.1,0.1c1.5,1.1,2.1,2.2,1.2,4.3c-1.1,2.7-0.1,5.3,2.1,7.3c0.8,0.7,1,1.2,0.4,2.2
			c-1.2,1.9-1.1,3.9,0,5.8c0.4,0.8,0.3,1.1-0.2,1.7c-1,1.3-2.2,1.6-3.7,1.4c-0.8-0.1-1,0.2-1,1c0,3.2,0,3.1,3.1,3.2
			c1.4,0,2.5-0.3,3.4-1.4c0.3-0.4,0.8-0.8,1.2-1.2c0.5-0.7,1-0.8,1.5,0c0.6,0.7,1.2,1.3,1.9,1.9c0.5,0.5,0.4,0.7,0,1.2
			c-1,1.2-2.1,1.9-3.8,1.6c-0.8-0.1-1.1,0.1-1.1,1c0,3.1,0,3.1,3.1,3.2c1.4,0,2.5-0.3,3.4-1.4c0.5-0.6,1.1-1.1,1.8-1.9
			c0,1.9,0,3.4,0,4.9c0,0.9,0.3,1.6,1,2.3c1.1,1,2.1,2,3.1,3.1c0.5,0.6,0.9,0.7,1.4,0c0.7-0.8,2-1.4,2-2.3c0-0.8-1.3-1.5-2-2.2
			c-0.8-0.8-1.8-1.6-1.1-3c4.1,1.2,7.6,0.2,10.5-3c0.5-0.6,0.8-0.6,1.4,0c2.2,2.3,4.4,4.5,6.6,6.6C102,102.7,101.9,103,101.2,103.5z
			 M90.5,91.3c0.3,0.3,0.6,0.5,0.2,0.9c-1.3,1.4-2.8,2.6-4.8,2.5c-1.5,0-2.8-0.5-3.8-1.6c-3-3-6-5.9-8.9-8.9c-1.1-1.1-1.1-2.1,0-3.2
			c1-1,2-2,3-3c0.4-0.4,0.7-0.5,1.1,0C81.7,82.4,86.1,86.9,90.5,91.3z M80.2,74c1.1-1,2.1-2.1,3.2-3.2c1-0.9,2-1,2.9,0
			c3.1,3.1,6.2,6.2,9.3,9.3c1,1,1.3,2.3,1.4,3.2c0,2.5-1.3,3.9-2.7,5.2c-0.4,0.4-0.6,0.1-0.8-0.1c-4.5-4.5-8.9-8.9-13.4-13.4
			C79.7,74.6,79.8,74.3,80.2,74z M77,71.2c-0.3,0.4-0.6,0.1-0.8-0.1c-0.2-0.2-0.3-0.3-0.5-0.5c-0.7-0.7-1.5-1.4-2.4-2.2
			c1.7-0.4,3.9,0.6,4.3,1.8C77.9,70.8,77.3,70.9,77,71.2z M73.1,75.1c-0.4,0.4-0.7,0.4-1.1,0c-1-1-2.1-2-1.5-4
			c1,1.1,1.8,1.9,2.7,2.8C73.7,74.4,73.6,74.7,73.1,75.1z M106,98.7c-0.6,0.9-1,1.2-1.9,0.2c-2-2.2-4.1-4.2-6.3-6.3
			c-0.7-0.6-0.7-1,0-1.6c2.4-2.1,3.6-4.7,3.4-8c0-0.9-0.3-1.7-0.5-2.5c1.4-0.5,2.1,0.3,2.9,1.1c0.7,0.7,1.4,2.1,2.3,2
			c0.8,0,1.4-1.3,2.2-2c0.6-0.5,0.7-0.9,0-1.4c0,0-0.1-0.1-0.1-0.1c-2.5-3.4-5.6-5-10-3.7c0-0.2,0-0.3-0.1-0.5
			c0.6-0.6,1.2-1.2,1.8-1.7c1.1-0.9,1.4-1.9,1.4-3.3c-0.1-3.1,0-3.1-3.1-3.1c-0.8,0-1.2,0.2-1,1c0.3,1.7-0.4,2.9-1.7,3.9
			c-0.4,0.3-0.6,0.3-0.9,0c-0.9-0.9-1.8-1.8-2.8-2.7c0.3-0.3,0.5-0.6,0.8-0.8c2.5-1.7,2.9-4.1,2.6-6.9c-0.1-0.6-0.2-0.8-0.8-0.8
			c-0.1,0-0.2,0-0.3,0c-0.9,0-2.1-0.3-2.8,0.1c-0.8,0.5-0.2,1.7-0.3,2.6c-0.1,0.4-1.8,2.5-2.1,2.6c-0.3,0.1-0.5-0.2-0.7-0.3
			c-2.2-1.3-4.4-1.3-6.5,0.1c-0.7,0.4-1,0.2-1.4-0.2c-1-1.1-2.2-2-3.7-2.5c-1.9-0.6-3.7-0.4-5.5,0.5c-0.6,0.3-0.9,0.3-1.3-0.2
			c-0.2-0.3-0.5-0.5-0.7-0.7c-1.8-1.8-1.8-1.8,0.3-3.3c16-11.3,38.3-2,41.7,17.3C112.4,85.6,110.5,92.5,106,98.7z M84.7,51.6
			c-17,0-30.8,13.7-31,30.5c-0.2,17.2,13.8,31.3,30.7,31.3c17.2,0,31.2-13.7,31.2-30.7C115.6,65.4,101.9,51.6,84.7,51.6z
			 M101.2,103.5c-5.7,4.3-12,6.4-19.1,5.6c-11.6-1.4-19.4-7.7-23-18.8c-2.8-8.7-1-16.9,4.4-24.3c0.6-0.8,1-1,1.6-0.1
			c0,0,0.1,0.1,0.1,0.1c1.5,1.1,2.1,2.2,1.2,4.3c-1.1,2.7-0.1,5.3,2.1,7.3c0.8,0.7,1,1.2,0.4,2.2c-1.2,1.9-1.1,3.9,0,5.8
			c0.4,0.8,0.3,1.1-0.2,1.7c-1,1.3-2.2,1.6-3.7,1.4c-0.8-0.1-1,0.2-1,1c0,3.2,0,3.1,3.1,3.2c1.4,0,2.5-0.3,3.4-1.4
			c0.3-0.4,0.8-0.8,1.2-1.2c0.5-0.7,1-0.8,1.5,0c0.6,0.7,1.2,1.3,1.9,1.9c0.5,0.5,0.4,0.7,0,1.2c-1,1.2-2.1,1.9-3.8,1.6
			c-0.8-0.1-1.1,0.1-1.1,1c0,3.1,0,3.1,3.1,3.2c1.4,0,2.5-0.3,3.4-1.4c0.5-0.6,1.1-1.1,1.8-1.9c0,1.9,0,3.4,0,4.9
			c0,0.9,0.3,1.6,1,2.3c1.1,1,2.1,2,3.1,3.1c0.5,0.6,0.9,0.7,1.4,0c0.7-0.8,2-1.4,2-2.3c0-0.8-1.3-1.5-2-2.2c-0.8-0.8-1.8-1.6-1.1-3
			c4.1,1.2,7.6,0.2,10.5-3c0.5-0.6,0.8-0.6,1.4,0c2.2,2.3,4.4,4.5,6.6,6.6C102,102.7,101.9,103,101.2,103.5z M90.5,91.3
			c0.3,0.3,0.6,0.5,0.2,0.9c-1.3,1.4-2.8,2.6-4.8,2.5c-1.5,0-2.8-0.5-3.8-1.6c-3-3-6-5.9-8.9-8.9c-1.1-1.1-1.1-2.1,0-3.2
			c1-1,2-2,3-3c0.4-0.4,0.7-0.5,1.1,0C81.7,82.4,86.1,86.9,90.5,91.3z M80.2,74c1.1-1,2.1-2.1,3.2-3.2c1-0.9,2-1,2.9,0
			c3.1,3.1,6.2,6.2,9.3,9.3c1,1,1.3,2.3,1.4,3.2c0,2.5-1.3,3.9-2.7,5.2c-0.4,0.4-0.6,0.1-0.8-0.1c-4.5-4.5-8.9-8.9-13.4-13.4
			C79.7,74.6,79.8,74.3,80.2,74z M77,71.2c-0.3,0.4-0.6,0.1-0.8-0.1c-0.2-0.2-0.3-0.3-0.5-0.5c-0.7-0.7-1.5-1.4-2.4-2.2
			c1.7-0.4,3.9,0.6,4.3,1.8C77.9,70.8,77.3,70.9,77,71.2z M73.1,75.1c-0.4,0.4-0.7,0.4-1.1,0c-1-1-2.1-2-1.5-4
			c1,1.1,1.8,1.9,2.7,2.8C73.7,74.4,73.6,74.7,73.1,75.1z M106,98.7c-0.6,0.9-1,1.2-1.9,0.2c-2-2.2-4.1-4.2-6.3-6.3
			c-0.7-0.6-0.7-1,0-1.6c2.4-2.1,3.6-4.7,3.4-8c0-0.9-0.3-1.7-0.5-2.5c1.4-0.5,2.1,0.3,2.9,1.1c0.7,0.7,1.4,2.1,2.3,2
			c0.8,0,1.4-1.3,2.2-2c0.6-0.5,0.7-0.9,0-1.4c0,0-0.1-0.1-0.1-0.1c-2.5-3.4-5.6-5-10-3.7c0-0.2,0-0.3-0.1-0.5
			c0.6-0.6,1.2-1.2,1.8-1.7c1.1-0.9,1.4-1.9,1.4-3.3c-0.1-3.1,0-3.1-3.1-3.1c-0.8,0-1.2,0.2-1,1c0.3,1.7-0.4,2.9-1.7,3.9
			c-0.4,0.3-0.6,0.3-0.9,0c-0.9-0.9-1.8-1.8-2.8-2.7c0.3-0.3,0.5-0.6,0.8-0.8c2.5-1.7,2.9-4.1,2.6-6.9c-0.1-0.6-0.2-0.8-0.8-0.8
			c-0.1,0-0.2,0-0.3,0c-0.9,0-2.1-0.3-2.8,0.1c-0.8,0.5-0.2,1.7-0.3,2.6c-0.1,0.4-1.8,2.5-2.1,2.6c-0.3,0.1-0.5-0.2-0.7-0.3
			c-2.2-1.3-4.4-1.3-6.5,0.1c-0.7,0.4-1,0.2-1.4-0.2c-1-1.1-2.2-2-3.7-2.5c-1.9-0.6-3.7-0.4-5.5,0.5c-0.6,0.3-0.9,0.3-1.3-0.2
			c-0.2-0.3-0.5-0.5-0.7-0.7c-1.8-1.8-1.8-1.8,0.3-3.3c16-11.3,38.3-2,41.7,17.3C112.4,85.6,110.5,92.5,106,98.7z M84.7,51.6
			c-17,0-30.8,13.7-31,30.5c-0.2,17.2,13.8,31.3,30.7,31.3c17.2,0,31.2-13.7,31.2-30.7C115.6,65.4,101.9,51.6,84.7,51.6z
			 M101.2,103.5c-5.7,4.3-12,6.4-19.1,5.6c-11.6-1.4-19.4-7.7-23-18.8c-2.8-8.7-1-16.9,4.4-24.3c0.6-0.8,1-1,1.6-0.1
			c0,0,0.1,0.1,0.1,0.1c1.5,1.1,2.1,2.2,1.2,4.3c-1.1,2.7-0.1,5.3,2.1,7.3c0.8,0.7,1,1.2,0.4,2.2c-1.2,1.9-1.1,3.9,0,5.8
			c0.4,0.8,0.3,1.1-0.2,1.7c-1,1.3-2.2,1.6-3.7,1.4c-0.8-0.1-1,0.2-1,1c0,3.2,0,3.1,3.1,3.2c1.4,0,2.5-0.3,3.4-1.4
			c0.3-0.4,0.8-0.8,1.2-1.2c0.5-0.7,1-0.8,1.5,0c0.6,0.7,1.2,1.3,1.9,1.9c0.5,0.5,0.4,0.7,0,1.2c-1,1.2-2.1,1.9-3.8,1.6
			c-0.8-0.1-1.1,0.1-1.1,1c0,3.1,0,3.1,3.1,3.2c1.4,0,2.5-0.3,3.4-1.4c0.5-0.6,1.1-1.1,1.8-1.9c0,1.9,0,3.4,0,4.9
			c0,0.9,0.3,1.6,1,2.3c1.1,1,2.1,2,3.1,3.1c0.5,0.6,0.9,0.7,1.4,0c0.7-0.8,2-1.4,2-2.3c0-0.8-1.3-1.5-2-2.2c-0.8-0.8-1.8-1.6-1.1-3
			c4.1,1.2,7.6,0.2,10.5-3c0.5-0.6,0.8-0.6,1.4,0c2.2,2.3,4.4,4.5,6.6,6.6C102,102.7,101.9,103,101.2,103.5z M90.5,91.3
			c0.3,0.3,0.6,0.5,0.2,0.9c-1.3,1.4-2.8,2.6-4.8,2.5c-1.5,0-2.8-0.5-3.8-1.6c-3-3-6-5.9-8.9-8.9c-1.1-1.1-1.1-2.1,0-3.2
			c1-1,2-2,3-3c0.4-0.4,0.7-0.5,1.1,0C81.7,82.4,86.1,86.9,90.5,91.3z M80.2,74c1.1-1,2.1-2.1,3.2-3.2c1-0.9,2-1,2.9,0
			c3.1,3.1,6.2,6.2,9.3,9.3c1,1,1.3,2.3,1.4,3.2c0,2.5-1.3,3.9-2.7,5.2c-0.4,0.4-0.6,0.1-0.8-0.1c-4.5-4.5-8.9-8.9-13.4-13.4
			C79.7,74.6,79.8,74.3,80.2,74z M77,71.2c-0.3,0.4-0.6,0.1-0.8-0.1c-0.2-0.2-0.3-0.3-0.5-0.5c-0.7-0.7-1.5-1.4-2.4-2.2
			c1.7-0.4,3.9,0.6,4.3,1.8C77.9,70.8,77.3,70.9,77,71.2z M73.1,75.1c-0.4,0.4-0.7,0.4-1.1,0c-1-1-2.1-2-1.5-4
			c1,1.1,1.8,1.9,2.7,2.8C73.7,74.4,73.6,74.7,73.1,75.1z M106,98.7c-0.6,0.9-1,1.2-1.9,0.2c-2-2.2-4.1-4.2-6.3-6.3
			c-0.7-0.6-0.7-1,0-1.6c2.4-2.1,3.6-4.7,3.4-8c0-0.9-0.3-1.7-0.5-2.5c1.4-0.5,2.1,0.3,2.9,1.1c0.7,0.7,1.4,2.1,2.3,2
			c0.8,0,1.4-1.3,2.2-2c0.6-0.5,0.7-0.9,0-1.4c0,0-0.1-0.1-0.1-0.1c-2.5-3.4-5.6-5-10-3.7c0-0.2,0-0.3-0.1-0.5
			c0.6-0.6,1.2-1.2,1.8-1.7c1.1-0.9,1.4-1.9,1.4-3.3c-0.1-3.1,0-3.1-3.1-3.1c-0.8,0-1.2,0.2-1,1c0.3,1.7-0.4,2.9-1.7,3.9
			c-0.4,0.3-0.6,0.3-0.9,0c-0.9-0.9-1.8-1.8-2.8-2.7c0.3-0.3,0.5-0.6,0.8-0.8c2.5-1.7,2.9-4.1,2.6-6.9c-0.1-0.6-0.2-0.8-0.8-0.8
			c-0.1,0-0.2,0-0.3,0c-0.9,0-2.1-0.3-2.8,0.1c-0.8,0.5-0.2,1.7-0.3,2.6c-0.1,0.4-1.8,2.5-2.1,2.6c-0.3,0.1-0.5-0.2-0.7-0.3
			c-2.2-1.3-4.4-1.3-6.5,0.1c-0.7,0.4-1,0.2-1.4-0.2c-1-1.1-2.2-2-3.7-2.5c-1.9-0.6-3.7-0.4-5.5,0.5c-0.6,0.3-0.9,0.3-1.3-0.2
			c-0.2-0.3-0.5-0.5-0.7-0.7c-1.8-1.8-1.8-1.8,0.3-3.3c16-11.3,38.3-2,41.7,17.3C112.4,85.6,110.5,92.5,106,98.7z M84.7,51.6
			c-17,0-30.8,13.7-31,30.5c-0.2,17.2,13.8,31.3,30.7,31.3c17.2,0,31.2-13.7,31.2-30.7C115.6,65.4,101.9,51.6,84.7,51.6z
			 M101.2,103.5c-5.7,4.3-12,6.4-19.1,5.6c-11.6-1.4-19.4-7.7-23-18.8c-2.8-8.7-1-16.9,4.4-24.3c0.6-0.8,1-1,1.6-0.1
			c0,0,0.1,0.1,0.1,0.1c1.5,1.1,2.1,2.2,1.2,4.3c-1.1,2.7-0.1,5.3,2.1,7.3c0.8,0.7,1,1.2,0.4,2.2c-1.2,1.9-1.1,3.9,0,5.8
			c0.4,0.8,0.3,1.1-0.2,1.7c-1,1.3-2.2,1.6-3.7,1.4c-0.8-0.1-1,0.2-1,1c0,3.2,0,3.1,3.1,3.2c1.4,0,2.5-0.3,3.4-1.4
			c0.3-0.4,0.8-0.8,1.2-1.2c0.5-0.7,1-0.8,1.5,0c0.6,0.7,1.2,1.3,1.9,1.9c0.5,0.5,0.4,0.7,0,1.2c-1,1.2-2.1,1.9-3.8,1.6
			c-0.8-0.1-1.1,0.1-1.1,1c0,3.1,0,3.1,3.1,3.2c1.4,0,2.5-0.3,3.4-1.4c0.5-0.6,1.1-1.1,1.8-1.9c0,1.9,0,3.4,0,4.9
			c0,0.9,0.3,1.6,1,2.3c1.1,1,2.1,2,3.1,3.1c0.5,0.6,0.9,0.7,1.4,0c0.7-0.8,2-1.4,2-2.3c0-0.8-1.3-1.5-2-2.2c-0.8-0.8-1.8-1.6-1.1-3
			c4.1,1.2,7.6,0.2,10.5-3c0.5-0.6,0.8-0.6,1.4,0c2.2,2.3,4.4,4.5,6.6,6.6C102,102.7,101.9,103,101.2,103.5z M90.5,91.3
			c0.3,0.3,0.6,0.5,0.2,0.9c-1.3,1.4-2.8,2.6-4.8,2.5c-1.5,0-2.8-0.5-3.8-1.6c-3-3-6-5.9-8.9-8.9c-1.1-1.1-1.1-2.1,0-3.2
			c1-1,2-2,3-3c0.4-0.4,0.7-0.5,1.1,0C81.7,82.4,86.1,86.9,90.5,91.3z M80.2,74c1.1-1,2.1-2.1,3.2-3.2c1-0.9,2-1,2.9,0
			c3.1,3.1,6.2,6.2,9.3,9.3c1,1,1.3,2.3,1.4,3.2c0,2.5-1.3,3.9-2.7,5.2c-0.4,0.4-0.6,0.1-0.8-0.1c-4.5-4.5-8.9-8.9-13.4-13.4
			C79.7,74.6,79.8,74.3,80.2,74z M77,71.2c-0.3,0.4-0.6,0.1-0.8-0.1c-0.2-0.2-0.3-0.3-0.5-0.5c-0.7-0.7-1.5-1.4-2.4-2.2
			c1.7-0.4,3.9,0.6,4.3,1.8C77.9,70.8,77.3,70.9,77,71.2z M73.1,75.1c-0.4,0.4-0.7,0.4-1.1,0c-1-1-2.1-2-1.5-4
			c1,1.1,1.8,1.9,2.7,2.8C73.7,74.4,73.6,74.7,73.1,75.1z M106,98.7c-0.6,0.9-1,1.2-1.9,0.2c-2-2.2-4.1-4.2-6.3-6.3
			c-0.7-0.6-0.7-1,0-1.6c2.4-2.1,3.6-4.7,3.4-8c0-0.9-0.3-1.7-0.5-2.5c1.4-0.5,2.1,0.3,2.9,1.1c0.7,0.7,1.4,2.1,2.3,2
			c0.8,0,1.4-1.3,2.2-2c0.6-0.5,0.7-0.9,0-1.4c0,0-0.1-0.1-0.1-0.1c-2.5-3.4-5.6-5-10-3.7c0-0.2,0-0.3-0.1-0.5
			c0.6-0.6,1.2-1.2,1.8-1.7c1.1-0.9,1.4-1.9,1.4-3.3c-0.1-3.1,0-3.1-3.1-3.1c-0.8,0-1.2,0.2-1,1c0.3,1.7-0.4,2.9-1.7,3.9
			c-0.4,0.3-0.6,0.3-0.9,0c-0.9-0.9-1.8-1.8-2.8-2.7c0.3-0.3,0.5-0.6,0.8-0.8c2.5-1.7,2.9-4.1,2.6-6.9c-0.1-0.6-0.2-0.8-0.8-0.8
			c-0.1,0-0.2,0-0.3,0c-0.9,0-2.1-0.3-2.8,0.1c-0.8,0.5-0.2,1.7-0.3,2.6c-0.1,0.4-1.8,2.5-2.1,2.6c-0.3,0.1-0.5-0.2-0.7-0.3
			c-2.2-1.3-4.4-1.3-6.5,0.1c-0.7,0.4-1,0.2-1.4-0.2c-1-1.1-2.2-2-3.7-2.5c-1.9-0.6-3.7-0.4-5.5,0.5c-0.6,0.3-0.9,0.3-1.3-0.2
			c-0.2-0.3-0.5-0.5-0.7-0.7c-1.8-1.8-1.8-1.8,0.3-3.3c16-11.3,38.3-2,41.7,17.3C112.4,85.6,110.5,92.5,106,98.7z M84.7,51.6
			c-17,0-30.8,13.7-31,30.5c-0.2,17.2,13.8,31.3,30.7,31.3c17.2,0,31.2-13.7,31.2-30.7C115.6,65.4,101.9,51.6,84.7,51.6z
			 M101.2,103.5c-5.7,4.3-12,6.4-19.1,5.6c-11.6-1.4-19.4-7.7-23-18.8c-2.8-8.7-1-16.9,4.4-24.3c0.6-0.8,1-1,1.6-0.1
			c0,0,0.1,0.1,0.1,0.1c1.5,1.1,2.1,2.2,1.2,4.3c-1.1,2.7-0.1,5.3,2.1,7.3c0.8,0.7,1,1.2,0.4,2.2c-1.2,1.9-1.1,3.9,0,5.8
			c0.4,0.8,0.3,1.1-0.2,1.7c-1,1.3-2.2,1.6-3.7,1.4c-0.8-0.1-1,0.2-1,1c0,3.2,0,3.1,3.1,3.2c1.4,0,2.5-0.3,3.4-1.4
			c0.3-0.4,0.8-0.8,1.2-1.2c0.5-0.7,1-0.8,1.5,0c0.6,0.7,1.2,1.3,1.9,1.9c0.5,0.5,0.4,0.7,0,1.2c-1,1.2-2.1,1.9-3.8,1.6
			c-0.8-0.1-1.1,0.1-1.1,1c0,3.1,0,3.1,3.1,3.2c1.4,0,2.5-0.3,3.4-1.4c0.5-0.6,1.1-1.1,1.8-1.9c0,1.9,0,3.4,0,4.9
			c0,0.9,0.3,1.6,1,2.3c1.1,1,2.1,2,3.1,3.1c0.5,0.6,0.9,0.7,1.4,0c0.7-0.8,2-1.4,2-2.3c0-0.8-1.3-1.5-2-2.2c-0.8-0.8-1.8-1.6-1.1-3
			c4.1,1.2,7.6,0.2,10.5-3c0.5-0.6,0.8-0.6,1.4,0c2.2,2.3,4.4,4.5,6.6,6.6C102,102.7,101.9,103,101.2,103.5z M90.5,91.3
			c0.3,0.3,0.6,0.5,0.2,0.9c-1.3,1.4-2.8,2.6-4.8,2.5c-1.5,0-2.8-0.5-3.8-1.6c-3-3-6-5.9-8.9-8.9c-1.1-1.1-1.1-2.1,0-3.2
			c1-1,2-2,3-3c0.4-0.4,0.7-0.5,1.1,0C81.7,82.4,86.1,86.9,90.5,91.3z M80.2,74c1.1-1,2.1-2.1,3.2-3.2c1-0.9,2-1,2.9,0
			c3.1,3.1,6.2,6.2,9.3,9.3c1,1,1.3,2.3,1.4,3.2c0,2.5-1.3,3.9-2.7,5.2c-0.4,0.4-0.6,0.1-0.8-0.1c-4.5-4.5-8.9-8.9-13.4-13.4
			C79.7,74.6,79.8,74.3,80.2,74z M77,71.2c-0.3,0.4-0.6,0.1-0.8-0.1c-0.2-0.2-0.3-0.3-0.5-0.5c-0.7-0.7-1.5-1.4-2.4-2.2
			c1.7-0.4,3.9,0.6,4.3,1.8C77.9,70.8,77.3,70.9,77,71.2z M73.1,75.1c-0.4,0.4-0.7,0.4-1.1,0c-1-1-2.1-2-1.5-4
			c1,1.1,1.8,1.9,2.7,2.8C73.7,74.4,73.6,74.7,73.1,75.1z M106,98.7c-0.6,0.9-1,1.2-1.9,0.2c-2-2.2-4.1-4.2-6.3-6.3
			c-0.7-0.6-0.7-1,0-1.6c2.4-2.1,3.6-4.7,3.4-8c0-0.9-0.3-1.7-0.5-2.5c1.4-0.5,2.1,0.3,2.9,1.1c0.7,0.7,1.4,2.1,2.3,2
			c0.8,0,1.4-1.3,2.2-2c0.6-0.5,0.7-0.9,0-1.4c0,0-0.1-0.1-0.1-0.1c-2.5-3.4-5.6-5-10-3.7c0-0.2,0-0.3-0.1-0.5
			c0.6-0.6,1.2-1.2,1.8-1.7c1.1-0.9,1.4-1.9,1.4-3.3c-0.1-3.1,0-3.1-3.1-3.1c-0.8,0-1.2,0.2-1,1c0.3,1.7-0.4,2.9-1.7,3.9
			c-0.4,0.3-0.6,0.3-0.9,0c-0.9-0.9-1.8-1.8-2.8-2.7c0.3-0.3,0.5-0.6,0.8-0.8c2.5-1.7,2.9-4.1,2.6-6.9c-0.1-0.6-0.2-0.8-0.8-0.8
			c-0.1,0-0.2,0-0.3,0c-0.9,0-2.1-0.3-2.8,0.1c-0.8,0.5-0.2,1.7-0.3,2.6c-0.1,0.4-1.8,2.5-2.1,2.6c-0.3,0.1-0.5-0.2-0.7-0.3
			c-2.2-1.3-4.4-1.3-6.5,0.1c-0.7,0.4-1,0.2-1.4-0.2c-1-1.1-2.2-2-3.7-2.5c-1.9-0.6-3.7-0.4-5.5,0.5c-0.6,0.3-0.9,0.3-1.3-0.2
			c-0.2-0.3-0.5-0.5-0.7-0.7c-1.8-1.8-1.8-1.8,0.3-3.3c16-11.3,38.3-2,41.7,17.3C112.4,85.6,110.5,92.5,106,98.7z M84.7,51.6
			c-17,0-30.8,13.7-31,30.5c-0.2,17.2,13.8,31.3,30.7,31.3c17.2,0,31.2-13.7,31.2-30.7C115.6,65.4,101.9,51.6,84.7,51.6z
			 M101.2,103.5c-5.7,4.3-12,6.4-19.1,5.6c-11.6-1.4-19.4-7.7-23-18.8c-2.8-8.7-1-16.9,4.4-24.3c0.6-0.8,1-1,1.6-0.1
			c0,0,0.1,0.1,0.1,0.1c1.5,1.1,2.1,2.2,1.2,4.3c-1.1,2.7-0.1,5.3,2.1,7.3c0.8,0.7,1,1.2,0.4,2.2c-1.2,1.9-1.1,3.9,0,5.8
			c0.4,0.8,0.3,1.1-0.2,1.7c-1,1.3-2.2,1.6-3.7,1.4c-0.8-0.1-1,0.2-1,1c0,3.2,0,3.1,3.1,3.2c1.4,0,2.5-0.3,3.4-1.4
			c0.3-0.4,0.8-0.8,1.2-1.2c0.5-0.7,1-0.8,1.5,0c0.6,0.7,1.2,1.3,1.9,1.9c0.5,0.5,0.4,0.7,0,1.2c-1,1.2-2.1,1.9-3.8,1.6
			c-0.8-0.1-1.1,0.1-1.1,1c0,3.1,0,3.1,3.1,3.2c1.4,0,2.5-0.3,3.4-1.4c0.5-0.6,1.1-1.1,1.8-1.9c0,1.9,0,3.4,0,4.9
			c0,0.9,0.3,1.6,1,2.3c1.1,1,2.1,2,3.1,3.1c0.5,0.6,0.9,0.7,1.4,0c0.7-0.8,2-1.4,2-2.3c0-0.8-1.3-1.5-2-2.2c-0.8-0.8-1.8-1.6-1.1-3
			c4.1,1.2,7.6,0.2,10.5-3c0.5-0.6,0.8-0.6,1.4,0c2.2,2.3,4.4,4.5,6.6,6.6C102,102.7,101.9,103,101.2,103.5z M90.5,91.3
			c0.3,0.3,0.6,0.5,0.2,0.9c-1.3,1.4-2.8,2.6-4.8,2.5c-1.5,0-2.8-0.5-3.8-1.6c-3-3-6-5.9-8.9-8.9c-1.1-1.1-1.1-2.1,0-3.2
			c1-1,2-2,3-3c0.4-0.4,0.7-0.5,1.1,0C81.7,82.4,86.1,86.9,90.5,91.3z M80.2,74c1.1-1,2.1-2.1,3.2-3.2c1-0.9,2-1,2.9,0
			c3.1,3.1,6.2,6.2,9.3,9.3c1,1,1.3,2.3,1.4,3.2c0,2.5-1.3,3.9-2.7,5.2c-0.4,0.4-0.6,0.1-0.8-0.1c-4.5-4.5-8.9-8.9-13.4-13.4
			C79.7,74.6,79.8,74.3,80.2,74z M77,71.2c-0.3,0.4-0.6,0.1-0.8-0.1c-0.2-0.2-0.3-0.3-0.5-0.5c-0.7-0.7-1.5-1.4-2.4-2.2
			c1.7-0.4,3.9,0.6,4.3,1.8C77.9,70.8,77.3,70.9,77,71.2z M73.1,75.1c-0.4,0.4-0.7,0.4-1.1,0c-1-1-2.1-2-1.5-4
			c1,1.1,1.8,1.9,2.7,2.8C73.7,74.4,73.6,74.7,73.1,75.1z M106,98.7c-0.6,0.9-1,1.2-1.9,0.2c-2-2.2-4.1-4.2-6.3-6.3
			c-0.7-0.6-0.7-1,0-1.6c2.4-2.1,3.6-4.7,3.4-8c0-0.9-0.3-1.7-0.5-2.5c1.4-0.5,2.1,0.3,2.9,1.1c0.7,0.7,1.4,2.1,2.3,2
			c0.8,0,1.4-1.3,2.2-2c0.6-0.5,0.7-0.9,0-1.4c0,0-0.1-0.1-0.1-0.1c-2.5-3.4-5.6-5-10-3.7c0-0.2,0-0.3-0.1-0.5
			c0.6-0.6,1.2-1.2,1.8-1.7c1.1-0.9,1.4-1.9,1.4-3.3c-0.1-3.1,0-3.1-3.1-3.1c-0.8,0-1.2,0.2-1,1c0.3,1.7-0.4,2.9-1.7,3.9
			c-0.4,0.3-0.6,0.3-0.9,0c-0.9-0.9-1.8-1.8-2.8-2.7c0.3-0.3,0.5-0.6,0.8-0.8c2.5-1.7,2.9-4.1,2.6-6.9c-0.1-0.6-0.2-0.8-0.8-0.8
			c-0.1,0-0.2,0-0.3,0c-0.9,0-2.1-0.3-2.8,0.1c-0.8,0.5-0.2,1.7-0.3,2.6c-0.1,0.4-1.8,2.5-2.1,2.6c-0.3,0.1-0.5-0.2-0.7-0.3
			c-2.2-1.3-4.4-1.3-6.5,0.1c-0.7,0.4-1,0.2-1.4-0.2c-1-1.1-2.2-2-3.7-2.5c-1.9-0.6-3.7-0.4-5.5,0.5c-0.6,0.3-0.9,0.3-1.3-0.2
			c-0.2-0.3-0.5-0.5-0.7-0.7c-1.8-1.8-1.8-1.8,0.3-3.3c16-11.3,38.3-2,41.7,17.3C112.4,85.6,110.5,92.5,106,98.7z M84.7,51.6
			c-17,0-30.8,13.7-31,30.5c-0.2,17.2,13.8,31.3,30.7,31.3c17.2,0,31.2-13.7,31.2-30.7C115.6,65.4,101.9,51.6,84.7,51.6z
			 M101.2,103.5c-5.7,4.3-12,6.4-19.1,5.6c-11.6-1.4-19.4-7.7-23-18.8c-2.8-8.7-1-16.9,4.4-24.3c0.6-0.8,1-1,1.6-0.1
			c0,0,0.1,0.1,0.1,0.1c1.5,1.1,2.1,2.2,1.2,4.3c-1.1,2.7-0.1,5.3,2.1,7.3c0.8,0.7,1,1.2,0.4,2.2c-1.2,1.9-1.1,3.9,0,5.8
			c0.4,0.8,0.3,1.1-0.2,1.7c-1,1.3-2.2,1.6-3.7,1.4c-0.8-0.1-1,0.2-1,1c0,3.2,0,3.1,3.1,3.2c1.4,0,2.5-0.3,3.4-1.4
			c0.3-0.4,0.8-0.8,1.2-1.2c0.5-0.7,1-0.8,1.5,0c0.6,0.7,1.2,1.3,1.9,1.9c0.5,0.5,0.4,0.7,0,1.2c-1,1.2-2.1,1.9-3.8,1.6
			c-0.8-0.1-1.1,0.1-1.1,1c0,3.1,0,3.1,3.1,3.2c1.4,0,2.5-0.3,3.4-1.4c0.5-0.6,1.1-1.1,1.8-1.9c0,1.9,0,3.4,0,4.9
			c0,0.9,0.3,1.6,1,2.3c1.1,1,2.1,2,3.1,3.1c0.5,0.6,0.9,0.7,1.4,0c0.7-0.8,2-1.4,2-2.3c0-0.8-1.3-1.5-2-2.2c-0.8-0.8-1.8-1.6-1.1-3
			c4.1,1.2,7.6,0.2,10.5-3c0.5-0.6,0.8-0.6,1.4,0c2.2,2.3,4.4,4.5,6.6,6.6C102,102.7,101.9,103,101.2,103.5z M90.5,91.3
			c0.3,0.3,0.6,0.5,0.2,0.9c-1.3,1.4-2.8,2.6-4.8,2.5c-1.5,0-2.8-0.5-3.8-1.6c-3-3-6-5.9-8.9-8.9c-1.1-1.1-1.1-2.1,0-3.2
			c1-1,2-2,3-3c0.4-0.4,0.7-0.5,1.1,0C81.7,82.4,86.1,86.9,90.5,91.3z M80.2,74c1.1-1,2.1-2.1,3.2-3.2c1-0.9,2-1,2.9,0
			c3.1,3.1,6.2,6.2,9.3,9.3c1,1,1.3,2.3,1.4,3.2c0,2.5-1.3,3.9-2.7,5.2c-0.4,0.4-0.6,0.1-0.8-0.1c-4.5-4.5-8.9-8.9-13.4-13.4
			C79.7,74.6,79.8,74.3,80.2,74z M77,71.2c-0.3,0.4-0.6,0.1-0.8-0.1c-0.2-0.2-0.3-0.3-0.5-0.5c-0.7-0.7-1.5-1.4-2.4-2.2
			c1.7-0.4,3.9,0.6,4.3,1.8C77.9,70.8,77.3,70.9,77,71.2z M73.1,75.1c-0.4,0.4-0.7,0.4-1.1,0c-1-1-2.1-2-1.5-4
			c1,1.1,1.8,1.9,2.7,2.8C73.7,74.4,73.6,74.7,73.1,75.1z M106,98.7c-0.6,0.9-1,1.2-1.9,0.2c-2-2.2-4.1-4.2-6.3-6.3
			c-0.7-0.6-0.7-1,0-1.6c2.4-2.1,3.6-4.7,3.4-8c0-0.9-0.3-1.7-0.5-2.5c1.4-0.5,2.1,0.3,2.9,1.1c0.7,0.7,1.4,2.1,2.3,2
			c0.8,0,1.4-1.3,2.2-2c0.6-0.5,0.7-0.9,0-1.4c0,0-0.1-0.1-0.1-0.1c-2.5-3.4-5.6-5-10-3.7c0-0.2,0-0.3-0.1-0.5
			c0.6-0.6,1.2-1.2,1.8-1.7c1.1-0.9,1.4-1.9,1.4-3.3c-0.1-3.1,0-3.1-3.1-3.1c-0.8,0-1.2,0.2-1,1c0.3,1.7-0.4,2.9-1.7,3.9
			c-0.4,0.3-0.6,0.3-0.9,0c-0.9-0.9-1.8-1.8-2.8-2.7c0.3-0.3,0.5-0.6,0.8-0.8c2.5-1.7,2.9-4.1,2.6-6.9c-0.1-0.6-0.2-0.8-0.8-0.8
			c-0.1,0-0.2,0-0.3,0c-0.9,0-2.1-0.3-2.8,0.1c-0.8,0.5-0.2,1.7-0.3,2.6c-0.1,0.4-1.8,2.5-2.1,2.6c-0.3,0.1-0.5-0.2-0.7-0.3
			c-2.2-1.3-4.4-1.3-6.5,0.1c-0.7,0.4-1,0.2-1.4-0.2c-1-1.1-2.2-2-3.7-2.5c-1.9-0.6-3.7-0.4-5.5,0.5c-0.6,0.3-0.9,0.3-1.3-0.2
			c-0.2-0.3-0.5-0.5-0.7-0.7c-1.8-1.8-1.8-1.8,0.3-3.3c16-11.3,38.3-2,41.7,17.3C112.4,85.6,110.5,92.5,106,98.7z M84.7,51.6
			c-17,0-30.8,13.7-31,30.5c-0.2,17.2,13.8,31.3,30.7,31.3c17.2,0,31.2-13.7,31.2-30.7C115.6,65.4,101.9,51.6,84.7,51.6z
			 M101.2,103.5c-5.7,4.3-12,6.4-19.1,5.6c-11.6-1.4-19.4-7.7-23-18.8c-2.8-8.7-1-16.9,4.4-24.3c0.6-0.8,1-1,1.6-0.1
			c0,0,0.1,0.1,0.1,0.1c1.5,1.1,2.1,2.2,1.2,4.3c-1.1,2.7-0.1,5.3,2.1,7.3c0.8,0.7,1,1.2,0.4,2.2c-1.2,1.9-1.1,3.9,0,5.8
			c0.4,0.8,0.3,1.1-0.2,1.7c-1,1.3-2.2,1.6-3.7,1.4c-0.8-0.1-1,0.2-1,1c0,3.2,0,3.1,3.1,3.2c1.4,0,2.5-0.3,3.4-1.4
			c0.3-0.4,0.8-0.8,1.2-1.2c0.5-0.7,1-0.8,1.5,0c0.6,0.7,1.2,1.3,1.9,1.9c0.5,0.5,0.4,0.7,0,1.2c-1,1.2-2.1,1.9-3.8,1.6
			c-0.8-0.1-1.1,0.1-1.1,1c0,3.1,0,3.1,3.1,3.2c1.4,0,2.5-0.3,3.4-1.4c0.5-0.6,1.1-1.1,1.8-1.9c0,1.9,0,3.4,0,4.9
			c0,0.9,0.3,1.6,1,2.3c1.1,1,2.1,2,3.1,3.1c0.5,0.6,0.9,0.7,1.4,0c0.7-0.8,2-1.4,2-2.3c0-0.8-1.3-1.5-2-2.2c-0.8-0.8-1.8-1.6-1.1-3
			c4.1,1.2,7.6,0.2,10.5-3c0.5-0.6,0.8-0.6,1.4,0c2.2,2.3,4.4,4.5,6.6,6.6C102,102.7,101.9,103,101.2,103.5z M90.5,91.3
			c0.3,0.3,0.6,0.5,0.2,0.9c-1.3,1.4-2.8,2.6-4.8,2.5c-1.5,0-2.8-0.5-3.8-1.6c-3-3-6-5.9-8.9-8.9c-1.1-1.1-1.1-2.1,0-3.2
			c1-1,2-2,3-3c0.4-0.4,0.7-0.5,1.1,0C81.7,82.4,86.1,86.9,90.5,91.3z M80.2,74c1.1-1,2.1-2.1,3.2-3.2c1-0.9,2-1,2.9,0
			c3.1,3.1,6.2,6.2,9.3,9.3c1,1,1.3,2.3,1.4,3.2c0,2.5-1.3,3.9-2.7,5.2c-0.4,0.4-0.6,0.1-0.8-0.1c-4.5-4.5-8.9-8.9-13.4-13.4
			C79.7,74.6,79.8,74.3,80.2,74z M77,71.2c-0.3,0.4-0.6,0.1-0.8-0.1c-0.2-0.2-0.3-0.3-0.5-0.5c-0.7-0.7-1.5-1.4-2.4-2.2
			c1.7-0.4,3.9,0.6,4.3,1.8C77.9,70.8,77.3,70.9,77,71.2z M73.1,75.1c-0.4,0.4-0.7,0.4-1.1,0c-1-1-2.1-2-1.5-4
			c1,1.1,1.8,1.9,2.7,2.8C73.7,74.4,73.6,74.7,73.1,75.1z M106,98.7c-0.6,0.9-1,1.2-1.9,0.2c-2-2.2-4.1-4.2-6.3-6.3
			c-0.7-0.6-0.7-1,0-1.6c2.4-2.1,3.6-4.7,3.4-8c0-0.9-0.3-1.7-0.5-2.5c1.4-0.5,2.1,0.3,2.9,1.1c0.7,0.7,1.4,2.1,2.3,2
			c0.8,0,1.4-1.3,2.2-2c0.6-0.5,0.7-0.9,0-1.4c0,0-0.1-0.1-0.1-0.1c-2.5-3.4-5.6-5-10-3.7c0-0.2,0-0.3-0.1-0.5
			c0.6-0.6,1.2-1.2,1.8-1.7c1.1-0.9,1.4-1.9,1.4-3.3c-0.1-3.1,0-3.1-3.1-3.1c-0.8,0-1.2,0.2-1,1c0.3,1.7-0.4,2.9-1.7,3.9
			c-0.4,0.3-0.6,0.3-0.9,0c-0.9-0.9-1.8-1.8-2.8-2.7c0.3-0.3,0.5-0.6,0.8-0.8c2.5-1.7,2.9-4.1,2.6-6.9c-0.1-0.6-0.2-0.8-0.8-0.8
			c-0.1,0-0.2,0-0.3,0c-0.9,0-2.1-0.3-2.8,0.1c-0.8,0.5-0.2,1.7-0.3,2.6c-0.1,0.4-1.8,2.5-2.1,2.6c-0.3,0.1-0.5-0.2-0.7-0.3
			c-2.2-1.3-4.4-1.3-6.5,0.1c-0.7,0.4-1,0.2-1.4-0.2c-1-1.1-2.2-2-3.7-2.5c-1.9-0.6-3.7-0.4-5.5,0.5c-0.6,0.3-0.9,0.3-1.3-0.2
			c-0.2-0.3-0.5-0.5-0.7-0.7c-1.8-1.8-1.8-1.8,0.3-3.3c16-11.3,38.3-2,41.7,17.3C112.4,85.6,110.5,92.5,106,98.7z M117,37.2
			c-1.2,0-1.5-0.4-1.4-1.5c0.2-2.8-1-4.9-3.5-6.2c-0.6-0.3-0.6-0.6-0.6-1.1c0-1.9,0-3.8,0-5.7c0-3.5-2.7-6.2-6.2-6.2
			c-8.3,0-16.6,0-24.9,0c-3.4,0-6.1,2.7-6.1,6.1c0,1.5-0.1,3.1,0,4.6c0.1,1.2,0,2.2-1.4,2.7c-0.6,0.2-1,0.8-1.4,1.3
			c-1.1,1.4-1.5,3-1.3,4.7c0.1,1-0.3,1.2-1.2,1.2c-1.4-0.1-2.7-0.1-4.1,0c-0.8,0-0.9-0.2-0.9-0.9c0-1.6,0-3.2,0-4.8
			c0-1.9-0.7-2.7-2.5-2.5c-1.4,0.1-1.6-0.4-1.6-1.7c0-6.5-5.7-12.3-12.1-12.8c-8.7-0.6-14.8,6.4-14.7,13.8c0.2,13,0,25.9,0,38.9
			c0,5.1,0.1,10.1,0,15.2C33,91.1,24.7,97,16.6,94.1c-5.1-1.8-8.2-6.4-8.2-12.1c0-11.7,0-23.4,0-35c0-1.3,0.3-1.6,1.6-1.6
			c1.9,0.1,2.6-0.6,2.6-2.5c0-4.7,0-9.4,0-14c0-0.8,0.2-1.3,0.8-1.9c2.9-2.9,5.8-5.8,8.7-8.6c0.7-0.7,1.1-1.5,0.8-2.4
			c-0.2-0.7-0.8-1.1-1.3-1.6c-0.7-0.6-0.8-1-0.1-1.7c2.7-2.6,5.3-5.2,7.8-7.8c0.5-0.5,0.9-0.7,1.6-0.7c2.8,0,5.7,0,8.5,0
			c1.4,0,3.2,0.6,3.9-0.3c0.7-0.7,0.2-2.5,0.2-3.9H28.2c-0.8,0.2-1.4,0.7-1.9,1.2c-2.5,2.5-5.1,5-7.5,7.6c-0.7,0.8-1.3,0.9-2.1,0.1
			c-1.5-1.4-2.7-1.4-4.2,0c-3.9,3.8-7.7,7.7-11.6,11.6C0.3,21.1,0,21.7,0,22.5c0,7,0,14,0,21c0,1.4,0.7,2.2,2,2.2
			c2,0,1.8,0.6,1.8,2.1c0,11.6,0,23.3,0,34.9c0,4,1.4,7.4,3.8,10.5c4.5,5.6,12,7.6,18.8,5.2c6.8-2.4,11.2-8.8,11.2-16V29.3
			c0-0.6,0-1.1,0-1.7c0.3-4.7,3.9-8.4,8.5-8.6c4.4-0.2,8.5,3.2,9.1,7.8c0.2,1.5,0.1,1.6-1.4,1.8c-1.8,0.2-2.5,1-2.6,2.7
			c-0.1,1.4,0,2.7,0,4.1c0,0.9-0.3,1.3-1.2,1.5c-5.3,0.8-9.2,5.6-9.2,11.5c0.1,22.8,0.1,45.5,0.1,68.3c0,0.6,0,1.1,0,1.7
			c0.3,4.9,4.7,9.7,9.9,9.7c22.6-0.1,45.1,0,67.7,0c1.7,0,3.3-0.4,4.8-1.3c2.6-1.8,4.4-4,4.7-7.3V45.9C126,39.7,122.8,37.1,117,37.2
			z M7.4,41.3c-3.1,0-3.1,0-3.1-3.1v-5.9c0-2.6,0-5.2,0-7.7c0-0.7,0.2-1.1,0.7-1.6c3-3,6-5.9,8.9-8.9c0.6-0.6,0.9-0.7,1.5,0
			c0.5,0.7,1.2,1.3,1.8,1.8c0.6,0.5,0.5,0.9,0,1.4c-2.6,2.6-5.2,5.2-7.8,7.7c-0.7,0.7-1,1.4-1,2.4c0,4.3,0,8.6,0,12.9
			C8.4,41,8.2,41.3,7.4,41.3z M78.5,27.7c0.1-1.5,0-2.9,0-4.4c0-1.9,0.8-2.7,2.7-2.7c7.8,0,15.6,0,23.4,0c1.9,0,2.7,0.8,2.7,2.6
			c0,1.5-0.1,3,0,4.5c0,0.9-0.2,1.1-1.1,1.1c-4.4-0.1-8.8,0-13.3,0c-4.5,0-8.9,0-13.4,0C78.6,28.9,78.4,28.6,78.5,27.7z M74.3,36
			c0.1-2.3,0.7-3,3-3c10.3,0,20.7,0,31,0c2.5,0,3.1,0.7,3.1,3.1c0,0.9-0.2,1-1.1,1c-5.8,0-11.7,0-17.5,0c-5.8,0-11.6,0-17.4,0
			C74.6,37.1,74.3,37,74.3,36z M58,33c2,0,2,0,2,2c0,2.1,0,2.1-2.1,2.1c-2,0-2,0-2-2C55.8,33,55.8,33,58,33z M123.9,116.5
			c0,4.8-2.4,7.2-7.2,7.2c-21.3,0-42.7,0-64,0c-4.7,0-7.2-2.5-7.2-7.1V48.3c0-4.6,2.5-7.1,7-7.1c21.4,0,42.9,0,64.3,0
			c4.6,0,7,2.5,7,7.1V116.5z M84.7,51.6c-17,0-30.8,13.7-31,30.5c-0.2,17.2,13.8,31.3,30.7,31.3c17.2,0,31.2-13.7,31.2-30.7
			C115.6,65.4,101.9,51.6,84.7,51.6z M101.2,103.5c-5.7,4.3-12,6.4-19.1,5.6c-11.6-1.4-19.4-7.7-23-18.8c-2.8-8.7-1-16.9,4.4-24.3
			c0.6-0.8,1-1,1.6-0.1c0,0,0.1,0.1,0.1,0.1c1.5,1.1,2.1,2.2,1.2,4.3c-1.1,2.7-0.1,5.3,2.1,7.3c0.8,0.7,1,1.2,0.4,2.2
			c-1.2,1.9-1.1,3.9,0,5.8c0.4,0.8,0.3,1.1-0.2,1.7c-1,1.3-2.2,1.6-3.7,1.4c-0.8-0.1-1,0.2-1,1c0,3.2,0,3.1,3.1,3.2
			c1.4,0,2.5-0.3,3.4-1.4c0.3-0.4,0.8-0.8,1.2-1.2c0.5-0.7,1-0.8,1.5,0c0.6,0.7,1.2,1.3,1.9,1.9c0.5,0.5,0.4,0.7,0,1.2
			c-1,1.2-2.1,1.9-3.8,1.6c-0.8-0.1-1.1,0.1-1.1,1c0,3.1,0,3.1,3.1,3.2c1.4,0,2.5-0.3,3.4-1.4c0.5-0.6,1.1-1.1,1.8-1.9
			c0,1.9,0,3.4,0,4.9c0,0.9,0.3,1.6,1,2.3c1.1,1,2.1,2,3.1,3.1c0.5,0.6,0.9,0.7,1.4,0c0.7-0.8,2-1.4,2-2.3c0-0.8-1.3-1.5-2-2.2
			c-0.8-0.8-1.8-1.6-1.1-3c4.1,1.2,7.6,0.2,10.5-3c0.5-0.6,0.8-0.6,1.4,0c2.2,2.3,4.4,4.5,6.6,6.6C102,102.7,101.9,103,101.2,103.5z
			 M90.5,91.3c0.3,0.3,0.6,0.5,0.2,0.9c-1.3,1.4-2.8,2.6-4.8,2.5c-1.5,0-2.8-0.5-3.8-1.6c-3-3-6-5.9-8.9-8.9c-1.1-1.1-1.1-2.1,0-3.2
			c1-1,2-2,3-3c0.4-0.4,0.7-0.5,1.1,0C81.7,82.4,86.1,86.9,90.5,91.3z M80.2,74c1.1-1,2.1-2.1,3.2-3.2c1-0.9,2-1,2.9,0
			c3.1,3.1,6.2,6.2,9.3,9.3c1,1,1.3,2.3,1.4,3.2c0,2.5-1.3,3.9-2.7,5.2c-0.4,0.4-0.6,0.1-0.8-0.1c-4.5-4.5-8.9-8.9-13.4-13.4
			C79.7,74.6,79.8,74.3,80.2,74z M77,71.2c-0.3,0.4-0.6,0.1-0.8-0.1c-0.2-0.2-0.3-0.3-0.5-0.5c-0.7-0.7-1.5-1.4-2.4-2.2
			c1.7-0.4,3.9,0.6,4.3,1.8C77.9,70.8,77.3,70.9,77,71.2z M73.1,75.1c-0.4,0.4-0.7,0.4-1.1,0c-1-1-2.1-2-1.5-4
			c1,1.1,1.8,1.9,2.7,2.8C73.7,74.4,73.6,74.7,73.1,75.1z M106,98.7c-0.6,0.9-1,1.2-1.9,0.2c-2-2.2-4.1-4.2-6.3-6.3
			c-0.7-0.6-0.7-1,0-1.6c2.4-2.1,3.6-4.7,3.4-8c0-0.9-0.3-1.7-0.5-2.5c1.4-0.5,2.1,0.3,2.9,1.1c0.7,0.7,1.4,2.1,2.3,2
			c0.8,0,1.4-1.3,2.2-2c0.6-0.5,0.7-0.9,0-1.4c0,0-0.1-0.1-0.1-0.1c-2.5-3.4-5.6-5-10-3.7c0-0.2,0-0.3-0.1-0.5
			c0.6-0.6,1.2-1.2,1.8-1.7c1.1-0.9,1.4-1.9,1.4-3.3c-0.1-3.1,0-3.1-3.1-3.1c-0.8,0-1.2,0.2-1,1c0.3,1.7-0.4,2.9-1.7,3.9
			c-0.4,0.3-0.6,0.3-0.9,0c-0.9-0.9-1.8-1.8-2.8-2.7c0.3-0.3,0.5-0.6,0.8-0.8c2.5-1.7,2.9-4.1,2.6-6.9c-0.1-0.6-0.2-0.8-0.8-0.8
			c-0.1,0-0.2,0-0.3,0c-0.9,0-2.1-0.3-2.8,0.1c-0.8,0.5-0.2,1.7-0.3,2.6c-0.1,0.4-1.8,2.5-2.1,2.6c-0.3,0.1-0.5-0.2-0.7-0.3
			c-2.2-1.3-4.4-1.3-6.5,0.1c-0.7,0.4-1,0.2-1.4-0.2c-1-1.1-2.2-2-3.7-2.5c-1.9-0.6-3.7-0.4-5.5,0.5c-0.6,0.3-0.9,0.3-1.3-0.2
			c-0.2-0.3-0.5-0.5-0.7-0.7c-1.8-1.8-1.8-1.8,0.3-3.3c16-11.3,38.3-2,41.7,17.3C112.4,85.6,110.5,92.5,106,98.7z M84.7,51.6
			c-17,0-30.8,13.7-31,30.5c-0.2,17.2,13.8,31.3,30.7,31.3c17.2,0,31.2-13.7,31.2-30.7C115.6,65.4,101.9,51.6,84.7,51.6z
			 M101.2,103.5c-5.7,4.3-12,6.4-19.1,5.6c-11.6-1.4-19.4-7.7-23-18.8c-2.8-8.7-1-16.9,4.4-24.3c0.6-0.8,1-1,1.6-0.1
			c0,0,0.1,0.1,0.1,0.1c1.5,1.1,2.1,2.2,1.2,4.3c-1.1,2.7-0.1,5.3,2.1,7.3c0.8,0.7,1,1.2,0.4,2.2c-1.2,1.9-1.1,3.9,0,5.8
			c0.4,0.8,0.3,1.1-0.2,1.7c-1,1.3-2.2,1.6-3.7,1.4c-0.8-0.1-1,0.2-1,1c0,3.2,0,3.1,3.1,3.2c1.4,0,2.5-0.3,3.4-1.4
			c0.3-0.4,0.8-0.8,1.2-1.2c0.5-0.7,1-0.8,1.5,0c0.6,0.7,1.2,1.3,1.9,1.9c0.5,0.5,0.4,0.7,0,1.2c-1,1.2-2.1,1.9-3.8,1.6
			c-0.8-0.1-1.1,0.1-1.1,1c0,3.1,0,3.1,3.1,3.2c1.4,0,2.5-0.3,3.4-1.4c0.5-0.6,1.1-1.1,1.8-1.9c0,1.9,0,3.4,0,4.9
			c0,0.9,0.3,1.6,1,2.3c1.1,1,2.1,2,3.1,3.1c0.5,0.6,0.9,0.7,1.4,0c0.7-0.8,2-1.4,2-2.3c0-0.8-1.3-1.5-2-2.2c-0.8-0.8-1.8-1.6-1.1-3
			c4.1,1.2,7.6,0.2,10.5-3c0.5-0.6,0.8-0.6,1.4,0c2.2,2.3,4.4,4.5,6.6,6.6C102,102.7,101.9,103,101.2,103.5z M90.5,91.3
			c0.3,0.3,0.6,0.5,0.2,0.9c-1.3,1.4-2.8,2.6-4.8,2.5c-1.5,0-2.8-0.5-3.8-1.6c-3-3-6-5.9-8.9-8.9c-1.1-1.1-1.1-2.1,0-3.2
			c1-1,2-2,3-3c0.4-0.4,0.7-0.5,1.1,0C81.7,82.4,86.1,86.9,90.5,91.3z M80.2,74c1.1-1,2.1-2.1,3.2-3.2c1-0.9,2-1,2.9,0
			c3.1,3.1,6.2,6.2,9.3,9.3c1,1,1.3,2.3,1.4,3.2c0,2.5-1.3,3.9-2.7,5.2c-0.4,0.4-0.6,0.1-0.8-0.1c-4.5-4.5-8.9-8.9-13.4-13.4
			C79.7,74.6,79.8,74.3,80.2,74z M77,71.2c-0.3,0.4-0.6,0.1-0.8-0.1c-0.2-0.2-0.3-0.3-0.5-0.5c-0.7-0.7-1.5-1.4-2.4-2.2
			c1.7-0.4,3.9,0.6,4.3,1.8C77.9,70.8,77.3,70.9,77,71.2z M73.1,75.1c-0.4,0.4-0.7,0.4-1.1,0c-1-1-2.1-2-1.5-4
			c1,1.1,1.8,1.9,2.7,2.8C73.7,74.4,73.6,74.7,73.1,75.1z M106,98.7c-0.6,0.9-1,1.2-1.9,0.2c-2-2.2-4.1-4.2-6.3-6.3
			c-0.7-0.6-0.7-1,0-1.6c2.4-2.1,3.6-4.7,3.4-8c0-0.9-0.3-1.7-0.5-2.5c1.4-0.5,2.1,0.3,2.9,1.1c0.7,0.7,1.4,2.1,2.3,2
			c0.8,0,1.4-1.3,2.2-2c0.6-0.5,0.7-0.9,0-1.4c0,0-0.1-0.1-0.1-0.1c-2.5-3.4-5.6-5-10-3.7c0-0.2,0-0.3-0.1-0.5
			c0.6-0.6,1.2-1.2,1.8-1.7c1.1-0.9,1.4-1.9,1.4-3.3c-0.1-3.1,0-3.1-3.1-3.1c-0.8,0-1.2,0.2-1,1c0.3,1.7-0.4,2.9-1.7,3.9
			c-0.4,0.3-0.6,0.3-0.9,0c-0.9-0.9-1.8-1.8-2.8-2.7c0.3-0.3,0.5-0.6,0.8-0.8c2.5-1.7,2.9-4.1,2.6-6.9c-0.1-0.6-0.2-0.8-0.8-0.8
			c-0.1,0-0.2,0-0.3,0c-0.9,0-2.1-0.3-2.8,0.1c-0.8,0.5-0.2,1.7-0.3,2.6c-0.1,0.4-1.8,2.5-2.1,2.6c-0.3,0.1-0.5-0.2-0.7-0.3
			c-2.2-1.3-4.4-1.3-6.5,0.1c-0.7,0.4-1,0.2-1.4-0.2c-1-1.1-2.2-2-3.7-2.5c-1.9-0.6-3.7-0.4-5.5,0.5c-0.6,0.3-0.9,0.3-1.3-0.2
			c-0.2-0.3-0.5-0.5-0.7-0.7c-1.8-1.8-1.8-1.8,0.3-3.3c16-11.3,38.3-2,41.7,17.3C112.4,85.6,110.5,92.5,106,98.7z M84.7,51.6
			c-17,0-30.8,13.7-31,30.5c-0.2,17.2,13.8,31.3,30.7,31.3c17.2,0,31.2-13.7,31.2-30.7C115.6,65.4,101.9,51.6,84.7,51.6z
			 M101.2,103.5c-5.7,4.3-12,6.4-19.1,5.6c-11.6-1.4-19.4-7.7-23-18.8c-2.8-8.7-1-16.9,4.4-24.3c0.6-0.8,1-1,1.6-0.1
			c0,0,0.1,0.1,0.1,0.1c1.5,1.1,2.1,2.2,1.2,4.3c-1.1,2.7-0.1,5.3,2.1,7.3c0.8,0.7,1,1.2,0.4,2.2c-1.2,1.9-1.1,3.9,0,5.8
			c0.4,0.8,0.3,1.1-0.2,1.7c-1,1.3-2.2,1.6-3.7,1.4c-0.8-0.1-1,0.2-1,1c0,3.2,0,3.1,3.1,3.2c1.4,0,2.5-0.3,3.4-1.4
			c0.3-0.4,0.8-0.8,1.2-1.2c0.5-0.7,1-0.8,1.5,0c0.6,0.7,1.2,1.3,1.9,1.9c0.5,0.5,0.4,0.7,0,1.2c-1,1.2-2.1,1.9-3.8,1.6
			c-0.8-0.1-1.1,0.1-1.1,1c0,3.1,0,3.1,3.1,3.2c1.4,0,2.5-0.3,3.4-1.4c0.5-0.6,1.1-1.1,1.8-1.9c0,1.9,0,3.4,0,4.9
			c0,0.9,0.3,1.6,1,2.3c1.1,1,2.1,2,3.1,3.1c0.5,0.6,0.9,0.7,1.4,0c0.7-0.8,2-1.4,2-2.3c0-0.8-1.3-1.5-2-2.2c-0.8-0.8-1.8-1.6-1.1-3
			c4.1,1.2,7.6,0.2,10.5-3c0.5-0.6,0.8-0.6,1.4,0c2.2,2.3,4.4,4.5,6.6,6.6C102,102.7,101.9,103,101.2,103.5z M90.5,91.3
			c0.3,0.3,0.6,0.5,0.2,0.9c-1.3,1.4-2.8,2.6-4.8,2.5c-1.5,0-2.8-0.5-3.8-1.6c-3-3-6-5.9-8.9-8.9c-1.1-1.1-1.1-2.1,0-3.2
			c1-1,2-2,3-3c0.4-0.4,0.7-0.5,1.1,0C81.7,82.4,86.1,86.9,90.5,91.3z M80.2,74c1.1-1,2.1-2.1,3.2-3.2c1-0.9,2-1,2.9,0
			c3.1,3.1,6.2,6.2,9.3,9.3c1,1,1.3,2.3,1.4,3.2c0,2.5-1.3,3.9-2.7,5.2c-0.4,0.4-0.6,0.1-0.8-0.1c-4.5-4.5-8.9-8.9-13.4-13.4
			C79.7,74.6,79.8,74.3,80.2,74z M77,71.2c-0.3,0.4-0.6,0.1-0.8-0.1c-0.2-0.2-0.3-0.3-0.5-0.5c-0.7-0.7-1.5-1.4-2.4-2.2
			c1.7-0.4,3.9,0.6,4.3,1.8C77.9,70.8,77.3,70.9,77,71.2z M73.1,75.1c-0.4,0.4-0.7,0.4-1.1,0c-1-1-2.1-2-1.5-4
			c1,1.1,1.8,1.9,2.7,2.8C73.7,74.4,73.6,74.7,73.1,75.1z M106,98.7c-0.6,0.9-1,1.2-1.9,0.2c-2-2.2-4.1-4.2-6.3-6.3
			c-0.7-0.6-0.7-1,0-1.6c2.4-2.1,3.6-4.7,3.4-8c0-0.9-0.3-1.7-0.5-2.5c1.4-0.5,2.1,0.3,2.9,1.1c0.7,0.7,1.4,2.1,2.3,2
			c0.8,0,1.4-1.3,2.2-2c0.6-0.5,0.7-0.9,0-1.4c0,0-0.1-0.1-0.1-0.1c-2.5-3.4-5.6-5-10-3.7c0-0.2,0-0.3-0.1-0.5
			c0.6-0.6,1.2-1.2,1.8-1.7c1.1-0.9,1.4-1.9,1.4-3.3c-0.1-3.1,0-3.1-3.1-3.1c-0.8,0-1.2,0.2-1,1c0.3,1.7-0.4,2.9-1.7,3.9
			c-0.4,0.3-0.6,0.3-0.9,0c-0.9-0.9-1.8-1.8-2.8-2.7c0.3-0.3,0.5-0.6,0.8-0.8c2.5-1.7,2.9-4.1,2.6-6.9c-0.1-0.6-0.2-0.8-0.8-0.8
			c-0.1,0-0.2,0-0.3,0c-0.9,0-2.1-0.3-2.8,0.1c-0.8,0.5-0.2,1.7-0.3,2.6c-0.1,0.4-1.8,2.5-2.1,2.6c-0.3,0.1-0.5-0.2-0.7-0.3
			c-2.2-1.3-4.4-1.3-6.5,0.1c-0.7,0.4-1,0.2-1.4-0.2c-1-1.1-2.2-2-3.7-2.5c-1.9-0.6-3.7-0.4-5.5,0.5c-0.6,0.3-0.9,0.3-1.3-0.2
			c-0.2-0.3-0.5-0.5-0.7-0.7c-1.8-1.8-1.8-1.8,0.3-3.3c16-11.3,38.3-2,41.7,17.3C112.4,85.6,110.5,92.5,106,98.7z M84.7,51.6
			c-17,0-30.8,13.7-31,30.5c-0.2,17.2,13.8,31.3,30.7,31.3c17.2,0,31.2-13.7,31.2-30.7C115.6,65.4,101.9,51.6,84.7,51.6z
			 M101.2,103.5c-5.7,4.3-12,6.4-19.1,5.6c-11.6-1.4-19.4-7.7-23-18.8c-2.8-8.7-1-16.9,4.4-24.3c0.6-0.8,1-1,1.6-0.1
			c0,0,0.1,0.1,0.1,0.1c1.5,1.1,2.1,2.2,1.2,4.3c-1.1,2.7-0.1,5.3,2.1,7.3c0.8,0.7,1,1.2,0.4,2.2c-1.2,1.9-1.1,3.9,0,5.8
			c0.4,0.8,0.3,1.1-0.2,1.7c-1,1.3-2.2,1.6-3.7,1.4c-0.8-0.1-1,0.2-1,1c0,3.2,0,3.1,3.1,3.2c1.4,0,2.5-0.3,3.4-1.4
			c0.3-0.4,0.8-0.8,1.2-1.2c0.5-0.7,1-0.8,1.5,0c0.6,0.7,1.2,1.3,1.9,1.9c0.5,0.5,0.4,0.7,0,1.2c-1,1.2-2.1,1.9-3.8,1.6
			c-0.8-0.1-1.1,0.1-1.1,1c0,3.1,0,3.1,3.1,3.2c1.4,0,2.5-0.3,3.4-1.4c0.5-0.6,1.1-1.1,1.8-1.9c0,1.9,0,3.4,0,4.9
			c0,0.9,0.3,1.6,1,2.3c1.1,1,2.1,2,3.1,3.1c0.5,0.6,0.9,0.7,1.4,0c0.7-0.8,2-1.4,2-2.3c0-0.8-1.3-1.5-2-2.2c-0.8-0.8-1.8-1.6-1.1-3
			c4.1,1.2,7.6,0.2,10.5-3c0.5-0.6,0.8-0.6,1.4,0c2.2,2.3,4.4,4.5,6.6,6.6C102,102.7,101.9,103,101.2,103.5z M90.5,91.3
			c0.3,0.3,0.6,0.5,0.2,0.9c-1.3,1.4-2.8,2.6-4.8,2.5c-1.5,0-2.8-0.5-3.8-1.6c-3-3-6-5.9-8.9-8.9c-1.1-1.1-1.1-2.1,0-3.2
			c1-1,2-2,3-3c0.4-0.4,0.7-0.5,1.1,0C81.7,82.4,86.1,86.9,90.5,91.3z M80.2,74c1.1-1,2.1-2.1,3.2-3.2c1-0.9,2-1,2.9,0
			c3.1,3.1,6.2,6.2,9.3,9.3c1,1,1.3,2.3,1.4,3.2c0,2.5-1.3,3.9-2.7,5.2c-0.4,0.4-0.6,0.1-0.8-0.1c-4.5-4.5-8.9-8.9-13.4-13.4
			C79.7,74.6,79.8,74.3,80.2,74z M77,71.2c-0.3,0.4-0.6,0.1-0.8-0.1c-0.2-0.2-0.3-0.3-0.5-0.5c-0.7-0.7-1.5-1.4-2.4-2.2
			c1.7-0.4,3.9,0.6,4.3,1.8C77.9,70.8,77.3,70.9,77,71.2z M73.1,75.1c-0.4,0.4-0.7,0.4-1.1,0c-1-1-2.1-2-1.5-4
			c1,1.1,1.8,1.9,2.7,2.8C73.7,74.4,73.6,74.7,73.1,75.1z M106,98.7c-0.6,0.9-1,1.2-1.9,0.2c-2-2.2-4.1-4.2-6.3-6.3
			c-0.7-0.6-0.7-1,0-1.6c2.4-2.1,3.6-4.7,3.4-8c0-0.9-0.3-1.7-0.5-2.5c1.4-0.5,2.1,0.3,2.9,1.1c0.7,0.7,1.4,2.1,2.3,2
			c0.8,0,1.4-1.3,2.2-2c0.6-0.5,0.7-0.9,0-1.4c0,0-0.1-0.1-0.1-0.1c-2.5-3.4-5.6-5-10-3.7c0-0.2,0-0.3-0.1-0.5
			c0.6-0.6,1.2-1.2,1.8-1.7c1.1-0.9,1.4-1.9,1.4-3.3c-0.1-3.1,0-3.1-3.1-3.1c-0.8,0-1.2,0.2-1,1c0.3,1.7-0.4,2.9-1.7,3.9
			c-0.4,0.3-0.6,0.3-0.9,0c-0.9-0.9-1.8-1.8-2.8-2.7c0.3-0.3,0.5-0.6,0.8-0.8c2.5-1.7,2.9-4.1,2.6-6.9c-0.1-0.6-0.2-0.8-0.8-0.8
			c-0.1,0-0.2,0-0.3,0c-0.9,0-2.1-0.3-2.8,0.1c-0.8,0.5-0.2,1.7-0.3,2.6c-0.1,0.4-1.8,2.5-2.1,2.6c-0.3,0.1-0.5-0.2-0.7-0.3
			c-2.2-1.3-4.4-1.3-6.5,0.1c-0.7,0.4-1,0.2-1.4-0.2c-1-1.1-2.2-2-3.7-2.5c-1.9-0.6-3.7-0.4-5.5,0.5c-0.6,0.3-0.9,0.3-1.3-0.2
			c-0.2-0.3-0.5-0.5-0.7-0.7c-1.8-1.8-1.8-1.8,0.3-3.3c16-11.3,38.3-2,41.7,17.3C112.4,85.6,110.5,92.5,106,98.7z M84.7,51.6
			c-17,0-30.8,13.7-31,30.5c-0.2,17.2,13.8,31.3,30.7,31.3c17.2,0,31.2-13.7,31.2-30.7C115.6,65.4,101.9,51.6,84.7,51.6z
			 M101.2,103.5c-5.7,4.3-12,6.4-19.1,5.6c-11.6-1.4-19.4-7.7-23-18.8c-2.8-8.7-1-16.9,4.4-24.3c0.6-0.8,1-1,1.6-0.1
			c0,0,0.1,0.1,0.1,0.1c1.5,1.1,2.1,2.2,1.2,4.3c-1.1,2.7-0.1,5.3,2.1,7.3c0.8,0.7,1,1.2,0.4,2.2c-1.2,1.9-1.1,3.9,0,5.8
			c0.4,0.8,0.3,1.1-0.2,1.7c-1,1.3-2.2,1.6-3.7,1.4c-0.8-0.1-1,0.2-1,1c0,3.2,0,3.1,3.1,3.2c1.4,0,2.5-0.3,3.4-1.4
			c0.3-0.4,0.8-0.8,1.2-1.2c0.5-0.7,1-0.8,1.5,0c0.6,0.7,1.2,1.3,1.9,1.9c0.5,0.5,0.4,0.7,0,1.2c-1,1.2-2.1,1.9-3.8,1.6
			c-0.8-0.1-1.1,0.1-1.1,1c0,3.1,0,3.1,3.1,3.2c1.4,0,2.5-0.3,3.4-1.4c0.5-0.6,1.1-1.1,1.8-1.9c0,1.9,0,3.4,0,4.9
			c0,0.9,0.3,1.6,1,2.3c1.1,1,2.1,2,3.1,3.1c0.5,0.6,0.9,0.7,1.4,0c0.7-0.8,2-1.4,2-2.3c0-0.8-1.3-1.5-2-2.2c-0.8-0.8-1.8-1.6-1.1-3
			c4.1,1.2,7.6,0.2,10.5-3c0.5-0.6,0.8-0.6,1.4,0c2.2,2.3,4.4,4.5,6.6,6.6C102,102.7,101.9,103,101.2,103.5z M90.5,91.3
			c0.3,0.3,0.6,0.5,0.2,0.9c-1.3,1.4-2.8,2.6-4.8,2.5c-1.5,0-2.8-0.5-3.8-1.6c-3-3-6-5.9-8.9-8.9c-1.1-1.1-1.1-2.1,0-3.2
			c1-1,2-2,3-3c0.4-0.4,0.7-0.5,1.1,0C81.7,82.4,86.1,86.9,90.5,91.3z M80.2,74c1.1-1,2.1-2.1,3.2-3.2c1-0.9,2-1,2.9,0
			c3.1,3.1,6.2,6.2,9.3,9.3c1,1,1.3,2.3,1.4,3.2c0,2.5-1.3,3.9-2.7,5.2c-0.4,0.4-0.6,0.1-0.8-0.1c-4.5-4.5-8.9-8.9-13.4-13.4
			C79.7,74.6,79.8,74.3,80.2,74z M77,71.2c-0.3,0.4-0.6,0.1-0.8-0.1c-0.2-0.2-0.3-0.3-0.5-0.5c-0.7-0.7-1.5-1.4-2.4-2.2
			c1.7-0.4,3.9,0.6,4.3,1.8C77.9,70.8,77.3,70.9,77,71.2z M73.1,75.1c-0.4,0.4-0.7,0.4-1.1,0c-1-1-2.1-2-1.5-4
			c1,1.1,1.8,1.9,2.7,2.8C73.7,74.4,73.6,74.7,73.1,75.1z M106,98.7c-0.6,0.9-1,1.2-1.9,0.2c-2-2.2-4.1-4.2-6.3-6.3
			c-0.7-0.6-0.7-1,0-1.6c2.4-2.1,3.6-4.7,3.4-8c0-0.9-0.3-1.7-0.5-2.5c1.4-0.5,2.1,0.3,2.9,1.1c0.7,0.7,1.4,2.1,2.3,2
			c0.8,0,1.4-1.3,2.2-2c0.6-0.5,0.7-0.9,0-1.4c0,0-0.1-0.1-0.1-0.1c-2.5-3.4-5.6-5-10-3.7c0-0.2,0-0.3-0.1-0.5
			c0.6-0.6,1.2-1.2,1.8-1.7c1.1-0.9,1.4-1.9,1.4-3.3c-0.1-3.1,0-3.1-3.1-3.1c-0.8,0-1.2,0.2-1,1c0.3,1.7-0.4,2.9-1.7,3.9
			c-0.4,0.3-0.6,0.3-0.9,0c-0.9-0.9-1.8-1.8-2.8-2.7c0.3-0.3,0.5-0.6,0.8-0.8c2.5-1.7,2.9-4.1,2.6-6.9c-0.1-0.6-0.2-0.8-0.8-0.8
			c-0.1,0-0.2,0-0.3,0c-0.9,0-2.1-0.3-2.8,0.1c-0.8,0.5-0.2,1.7-0.3,2.6c-0.1,0.4-1.8,2.5-2.1,2.6c-0.3,0.1-0.5-0.2-0.7-0.3
			c-2.2-1.3-4.4-1.3-6.5,0.1c-0.7,0.4-1,0.2-1.4-0.2c-1-1.1-2.2-2-3.7-2.5c-1.9-0.6-3.7-0.4-5.5,0.5c-0.6,0.3-0.9,0.3-1.3-0.2
			c-0.2-0.3-0.5-0.5-0.7-0.7c-1.8-1.8-1.8-1.8,0.3-3.3c16-11.3,38.3-2,41.7,17.3C112.4,85.6,110.5,92.5,106,98.7z M84.7,51.6
			c-17,0-30.8,13.7-31,30.5c-0.2,17.2,13.8,31.3,30.7,31.3c17.2,0,31.2-13.7,31.2-30.7C115.6,65.4,101.9,51.6,84.7,51.6z
			 M101.2,103.5c-5.7,4.3-12,6.4-19.1,5.6c-11.6-1.4-19.4-7.7-23-18.8c-2.8-8.7-1-16.9,4.4-24.3c0.6-0.8,1-1,1.6-0.1
			c0,0,0.1,0.1,0.1,0.1c1.5,1.1,2.1,2.2,1.2,4.3c-1.1,2.7-0.1,5.3,2.1,7.3c0.8,0.7,1,1.2,0.4,2.2c-1.2,1.9-1.1,3.9,0,5.8
			c0.4,0.8,0.3,1.1-0.2,1.7c-1,1.3-2.2,1.6-3.7,1.4c-0.8-0.1-1,0.2-1,1c0,3.2,0,3.1,3.1,3.2c1.4,0,2.5-0.3,3.4-1.4
			c0.3-0.4,0.8-0.8,1.2-1.2c0.5-0.7,1-0.8,1.5,0c0.6,0.7,1.2,1.3,1.9,1.9c0.5,0.5,0.4,0.7,0,1.2c-1,1.2-2.1,1.9-3.8,1.6
			c-0.8-0.1-1.1,0.1-1.1,1c0,3.1,0,3.1,3.1,3.2c1.4,0,2.5-0.3,3.4-1.4c0.5-0.6,1.1-1.1,1.8-1.9c0,1.9,0,3.4,0,4.9
			c0,0.9,0.3,1.6,1,2.3c1.1,1,2.1,2,3.1,3.1c0.5,0.6,0.9,0.7,1.4,0c0.7-0.8,2-1.4,2-2.3c0-0.8-1.3-1.5-2-2.2c-0.8-0.8-1.8-1.6-1.1-3
			c4.1,1.2,7.6,0.2,10.5-3c0.5-0.6,0.8-0.6,1.4,0c2.2,2.3,4.4,4.5,6.6,6.6C102,102.7,101.9,103,101.2,103.5z M90.5,91.3
			c0.3,0.3,0.6,0.5,0.2,0.9c-1.3,1.4-2.8,2.6-4.8,2.5c-1.5,0-2.8-0.5-3.8-1.6c-3-3-6-5.9-8.9-8.9c-1.1-1.1-1.1-2.1,0-3.2
			c1-1,2-2,3-3c0.4-0.4,0.7-0.5,1.1,0C81.7,82.4,86.1,86.9,90.5,91.3z M80.2,74c1.1-1,2.1-2.1,3.2-3.2c1-0.9,2-1,2.9,0
			c3.1,3.1,6.2,6.2,9.3,9.3c1,1,1.3,2.3,1.4,3.2c0,2.5-1.3,3.9-2.7,5.2c-0.4,0.4-0.6,0.1-0.8-0.1c-4.5-4.5-8.9-8.9-13.4-13.4
			C79.7,74.6,79.8,74.3,80.2,74z M77,71.2c-0.3,0.4-0.6,0.1-0.8-0.1c-0.2-0.2-0.3-0.3-0.5-0.5c-0.7-0.7-1.5-1.4-2.4-2.2
			c1.7-0.4,3.9,0.6,4.3,1.8C77.9,70.8,77.3,70.9,77,71.2z M73.1,75.1c-0.4,0.4-0.7,0.4-1.1,0c-1-1-2.1-2-1.5-4
			c1,1.1,1.8,1.9,2.7,2.8C73.7,74.4,73.6,74.7,73.1,75.1z M106,98.7c-0.6,0.9-1,1.2-1.9,0.2c-2-2.2-4.1-4.2-6.3-6.3
			c-0.7-0.6-0.7-1,0-1.6c2.4-2.1,3.6-4.7,3.4-8c0-0.9-0.3-1.7-0.5-2.5c1.4-0.5,2.1,0.3,2.9,1.1c0.7,0.7,1.4,2.1,2.3,2
			c0.8,0,1.4-1.3,2.2-2c0.6-0.5,0.7-0.9,0-1.4c0,0-0.1-0.1-0.1-0.1c-2.5-3.4-5.6-5-10-3.7c0-0.2,0-0.3-0.1-0.5
			c0.6-0.6,1.2-1.2,1.8-1.7c1.1-0.9,1.4-1.9,1.4-3.3c-0.1-3.1,0-3.1-3.1-3.1c-0.8,0-1.2,0.2-1,1c0.3,1.7-0.4,2.9-1.7,3.9
			c-0.4,0.3-0.6,0.3-0.9,0c-0.9-0.9-1.8-1.8-2.8-2.7c0.3-0.3,0.5-0.6,0.8-0.8c2.5-1.7,2.9-4.1,2.6-6.9c-0.1-0.6-0.2-0.8-0.8-0.8
			c-0.1,0-0.2,0-0.3,0c-0.9,0-2.1-0.3-2.8,0.1c-0.8,0.5-0.2,1.7-0.3,2.6c-0.1,0.4-1.8,2.5-2.1,2.6c-0.3,0.1-0.5-0.2-0.7-0.3
			c-2.2-1.3-4.4-1.3-6.5,0.1c-0.7,0.4-1,0.2-1.4-0.2c-1-1.1-2.2-2-3.7-2.5c-1.9-0.6-3.7-0.4-5.5,0.5c-0.6,0.3-0.9,0.3-1.3-0.2
			c-0.2-0.3-0.5-0.5-0.7-0.7c-1.8-1.8-1.8-1.8,0.3-3.3c16-11.3,38.3-2,41.7,17.3C112.4,85.6,110.5,92.5,106,98.7z M84.7,51.6
			c-17,0-30.8,13.7-31,30.5c-0.2,17.2,13.8,31.3,30.7,31.3c17.2,0,31.2-13.7,31.2-30.7C115.6,65.4,101.9,51.6,84.7,51.6z
			 M101.2,103.5c-5.7,4.3-12,6.4-19.1,5.6c-11.6-1.4-19.4-7.7-23-18.8c-2.8-8.7-1-16.9,4.4-24.3c0.6-0.8,1-1,1.6-0.1
			c0,0,0.1,0.1,0.1,0.1c1.5,1.1,2.1,2.2,1.2,4.3c-1.1,2.7-0.1,5.3,2.1,7.3c0.8,0.7,1,1.2,0.4,2.2c-1.2,1.9-1.1,3.9,0,5.8
			c0.4,0.8,0.3,1.1-0.2,1.7c-1,1.3-2.2,1.6-3.7,1.4c-0.8-0.1-1,0.2-1,1c0,3.2,0,3.1,3.1,3.2c1.4,0,2.5-0.3,3.4-1.4
			c0.3-0.4,0.8-0.8,1.2-1.2c0.5-0.7,1-0.8,1.5,0c0.6,0.7,1.2,1.3,1.9,1.9c0.5,0.5,0.4,0.7,0,1.2c-1,1.2-2.1,1.9-3.8,1.6
			c-0.8-0.1-1.1,0.1-1.1,1c0,3.1,0,3.1,3.1,3.2c1.4,0,2.5-0.3,3.4-1.4c0.5-0.6,1.1-1.1,1.8-1.9c0,1.9,0,3.4,0,4.9
			c0,0.9,0.3,1.6,1,2.3c1.1,1,2.1,2,3.1,3.1c0.5,0.6,0.9,0.7,1.4,0c0.7-0.8,2-1.4,2-2.3c0-0.8-1.3-1.5-2-2.2c-0.8-0.8-1.8-1.6-1.1-3
			c4.1,1.2,7.6,0.2,10.5-3c0.5-0.6,0.8-0.6,1.4,0c2.2,2.3,4.4,4.5,6.6,6.6C102,102.7,101.9,103,101.2,103.5z M90.5,91.3
			c0.3,0.3,0.6,0.5,0.2,0.9c-1.3,1.4-2.8,2.6-4.8,2.5c-1.5,0-2.8-0.5-3.8-1.6c-3-3-6-5.9-8.9-8.9c-1.1-1.1-1.1-2.1,0-3.2
			c1-1,2-2,3-3c0.4-0.4,0.7-0.5,1.1,0C81.7,82.4,86.1,86.9,90.5,91.3z M80.2,74c1.1-1,2.1-2.1,3.2-3.2c1-0.9,2-1,2.9,0
			c3.1,3.1,6.2,6.2,9.3,9.3c1,1,1.3,2.3,1.4,3.2c0,2.5-1.3,3.9-2.7,5.2c-0.4,0.4-0.6,0.1-0.8-0.1c-4.5-4.5-8.9-8.9-13.4-13.4
			C79.7,74.6,79.8,74.3,80.2,74z M77,71.2c-0.3,0.4-0.6,0.1-0.8-0.1c-0.2-0.2-0.3-0.3-0.5-0.5c-0.7-0.7-1.5-1.4-2.4-2.2
			c1.7-0.4,3.9,0.6,4.3,1.8C77.9,70.8,77.3,70.9,77,71.2z M73.1,75.1c-0.4,0.4-0.7,0.4-1.1,0c-1-1-2.1-2-1.5-4
			c1,1.1,1.8,1.9,2.7,2.8C73.7,74.4,73.6,74.7,73.1,75.1z M106,98.7c-0.6,0.9-1,1.2-1.9,0.2c-2-2.2-4.1-4.2-6.3-6.3
			c-0.7-0.6-0.7-1,0-1.6c2.4-2.1,3.6-4.7,3.4-8c0-0.9-0.3-1.7-0.5-2.5c1.4-0.5,2.1,0.3,2.9,1.1c0.7,0.7,1.4,2.1,2.3,2
			c0.8,0,1.4-1.3,2.2-2c0.6-0.5,0.7-0.9,0-1.4c0,0-0.1-0.1-0.1-0.1c-2.5-3.4-5.6-5-10-3.7c0-0.2,0-0.3-0.1-0.5
			c0.6-0.6,1.2-1.2,1.8-1.7c1.1-0.9,1.4-1.9,1.4-3.3c-0.1-3.1,0-3.1-3.1-3.1c-0.8,0-1.2,0.2-1,1c0.3,1.7-0.4,2.9-1.7,3.9
			c-0.4,0.3-0.6,0.3-0.9,0c-0.9-0.9-1.8-1.8-2.8-2.7c0.3-0.3,0.5-0.6,0.8-0.8c2.5-1.7,2.9-4.1,2.6-6.9c-0.1-0.6-0.2-0.8-0.8-0.8
			c-0.1,0-0.2,0-0.3,0c-0.9,0-2.1-0.3-2.8,0.1c-0.8,0.5-0.2,1.7-0.3,2.6c-0.1,0.4-1.8,2.5-2.1,2.6c-0.3,0.1-0.5-0.2-0.7-0.3
			c-2.2-1.3-4.4-1.3-6.5,0.1c-0.7,0.4-1,0.2-1.4-0.2c-1-1.1-2.2-2-3.7-2.5c-1.9-0.6-3.7-0.4-5.5,0.5c-0.6,0.3-0.9,0.3-1.3-0.2
			c-0.2-0.3-0.5-0.5-0.7-0.7c-1.8-1.8-1.8-1.8,0.3-3.3c16-11.3,38.3-2,41.7,17.3C112.4,85.6,110.5,92.5,106,98.7z M84.7,51.6
			c-17,0-30.8,13.7-31,30.5c-0.2,17.2,13.8,31.3,30.7,31.3c17.2,0,31.2-13.7,31.2-30.7C115.6,65.4,101.9,51.6,84.7,51.6z
			 M101.2,103.5c-5.7,4.3-12,6.4-19.1,5.6c-11.6-1.4-19.4-7.7-23-18.8c-2.8-8.7-1-16.9,4.4-24.3c0.6-0.8,1-1,1.6-0.1
			c0,0,0.1,0.1,0.1,0.1c1.5,1.1,2.1,2.2,1.2,4.3c-1.1,2.7-0.1,5.3,2.1,7.3c0.8,0.7,1,1.2,0.4,2.2c-1.2,1.9-1.1,3.9,0,5.8
			c0.4,0.8,0.3,1.1-0.2,1.7c-1,1.3-2.2,1.6-3.7,1.4c-0.8-0.1-1,0.2-1,1c0,3.2,0,3.1,3.1,3.2c1.4,0,2.5-0.3,3.4-1.4
			c0.3-0.4,0.8-0.8,1.2-1.2c0.5-0.7,1-0.8,1.5,0c0.6,0.7,1.2,1.3,1.9,1.9c0.5,0.5,0.4,0.7,0,1.2c-1,1.2-2.1,1.9-3.8,1.6
			c-0.8-0.1-1.1,0.1-1.1,1c0,3.1,0,3.1,3.1,3.2c1.4,0,2.5-0.3,3.4-1.4c0.5-0.6,1.1-1.1,1.8-1.9c0,1.9,0,3.4,0,4.9
			c0,0.9,0.3,1.6,1,2.3c1.1,1,2.1,2,3.1,3.1c0.5,0.6,0.9,0.7,1.4,0c0.7-0.8,2-1.4,2-2.3c0-0.8-1.3-1.5-2-2.2c-0.8-0.8-1.8-1.6-1.1-3
			c4.1,1.2,7.6,0.2,10.5-3c0.5-0.6,0.8-0.6,1.4,0c2.2,2.3,4.4,4.5,6.6,6.6C102,102.7,101.9,103,101.2,103.5z M90.5,91.3
			c0.3,0.3,0.6,0.5,0.2,0.9c-1.3,1.4-2.8,2.6-4.8,2.5c-1.5,0-2.8-0.5-3.8-1.6c-3-3-6-5.9-8.9-8.9c-1.1-1.1-1.1-2.1,0-3.2
			c1-1,2-2,3-3c0.4-0.4,0.7-0.5,1.1,0C81.7,82.4,86.1,86.9,90.5,91.3z M80.2,74c1.1-1,2.1-2.1,3.2-3.2c1-0.9,2-1,2.9,0
			c3.1,3.1,6.2,6.2,9.3,9.3c1,1,1.3,2.3,1.4,3.2c0,2.5-1.3,3.9-2.7,5.2c-0.4,0.4-0.6,0.1-0.8-0.1c-4.5-4.5-8.9-8.9-13.4-13.4
			C79.7,74.6,79.8,74.3,80.2,74z M77,71.2c-0.3,0.4-0.6,0.1-0.8-0.1c-0.2-0.2-0.3-0.3-0.5-0.5c-0.7-0.7-1.5-1.4-2.4-2.2
			c1.7-0.4,3.9,0.6,4.3,1.8C77.9,70.8,77.3,70.9,77,71.2z M73.1,75.1c-0.4,0.4-0.7,0.4-1.1,0c-1-1-2.1-2-1.5-4
			c1,1.1,1.8,1.9,2.7,2.8C73.7,74.4,73.6,74.7,73.1,75.1z M106,98.7c-0.6,0.9-1,1.2-1.9,0.2c-2-2.2-4.1-4.2-6.3-6.3
			c-0.7-0.6-0.7-1,0-1.6c2.4-2.1,3.6-4.7,3.4-8c0-0.9-0.3-1.7-0.5-2.5c1.4-0.5,2.1,0.3,2.9,1.1c0.7,0.7,1.4,2.1,2.3,2
			c0.8,0,1.4-1.3,2.2-2c0.6-0.5,0.7-0.9,0-1.4c0,0-0.1-0.1-0.1-0.1c-2.5-3.4-5.6-5-10-3.7c0-0.2,0-0.3-0.1-0.5
			c0.6-0.6,1.2-1.2,1.8-1.7c1.1-0.9,1.4-1.9,1.4-3.3c-0.1-3.1,0-3.1-3.1-3.1c-0.8,0-1.2,0.2-1,1c0.3,1.7-0.4,2.9-1.7,3.9
			c-0.4,0.3-0.6,0.3-0.9,0c-0.9-0.9-1.8-1.8-2.8-2.7c0.3-0.3,0.5-0.6,0.8-0.8c2.5-1.7,2.9-4.1,2.6-6.9c-0.1-0.6-0.2-0.8-0.8-0.8
			c-0.1,0-0.2,0-0.3,0c-0.9,0-2.1-0.3-2.8,0.1c-0.8,0.5-0.2,1.7-0.3,2.6c-0.1,0.4-1.8,2.5-2.1,2.6c-0.3,0.1-0.5-0.2-0.7-0.3
			c-2.2-1.3-4.4-1.3-6.5,0.1c-0.7,0.4-1,0.2-1.4-0.2c-1-1.1-2.2-2-3.7-2.5c-1.9-0.6-3.7-0.4-5.5,0.5c-0.6,0.3-0.9,0.3-1.3-0.2
			c-0.2-0.3-0.5-0.5-0.7-0.7c-1.8-1.8-1.8-1.8,0.3-3.3c16-11.3,38.3-2,41.7,17.3C112.4,85.6,110.5,92.5,106,98.7z M84.7,51.6
			c-17,0-30.8,13.7-31,30.5c-0.2,17.2,13.8,31.3,30.7,31.3c17.2,0,31.2-13.7,31.2-30.7C115.6,65.4,101.9,51.6,84.7,51.6z
			 M101.2,103.5c-5.7,4.3-12,6.4-19.1,5.6c-11.6-1.4-19.4-7.7-23-18.8c-2.8-8.7-1-16.9,4.4-24.3c0.6-0.8,1-1,1.6-0.1
			c0,0,0.1,0.1,0.1,0.1c1.5,1.1,2.1,2.2,1.2,4.3c-1.1,2.7-0.1,5.3,2.1,7.3c0.8,0.7,1,1.2,0.4,2.2c-1.2,1.9-1.1,3.9,0,5.8
			c0.4,0.8,0.3,1.1-0.2,1.7c-1,1.3-2.2,1.6-3.7,1.4c-0.8-0.1-1,0.2-1,1c0,3.2,0,3.1,3.1,3.2c1.4,0,2.5-0.3,3.4-1.4
			c0.3-0.4,0.8-0.8,1.2-1.2c0.5-0.7,1-0.8,1.5,0c0.6,0.7,1.2,1.3,1.9,1.9c0.5,0.5,0.4,0.7,0,1.2c-1,1.2-2.1,1.9-3.8,1.6
			c-0.8-0.1-1.1,0.1-1.1,1c0,3.1,0,3.1,3.1,3.2c1.4,0,2.5-0.3,3.4-1.4c0.5-0.6,1.1-1.1,1.8-1.9c0,1.9,0,3.4,0,4.9
			c0,0.9,0.3,1.6,1,2.3c1.1,1,2.1,2,3.1,3.1c0.5,0.6,0.9,0.7,1.4,0c0.7-0.8,2-1.4,2-2.3c0-0.8-1.3-1.5-2-2.2c-0.8-0.8-1.8-1.6-1.1-3
			c4.1,1.2,7.6,0.2,10.5-3c0.5-0.6,0.8-0.6,1.4,0c2.2,2.3,4.4,4.5,6.6,6.6C102,102.7,101.9,103,101.2,103.5z M90.5,91.3
			c0.3,0.3,0.6,0.5,0.2,0.9c-1.3,1.4-2.8,2.6-4.8,2.5c-1.5,0-2.8-0.5-3.8-1.6c-3-3-6-5.9-8.9-8.9c-1.1-1.1-1.1-2.1,0-3.2
			c1-1,2-2,3-3c0.4-0.4,0.7-0.5,1.1,0C81.7,82.4,86.1,86.9,90.5,91.3z M80.2,74c1.1-1,2.1-2.1,3.2-3.2c1-0.9,2-1,2.9,0
			c3.1,3.1,6.2,6.2,9.3,9.3c1,1,1.3,2.3,1.4,3.2c0,2.5-1.3,3.9-2.7,5.2c-0.4,0.4-0.6,0.1-0.8-0.1c-4.5-4.5-8.9-8.9-13.4-13.4
			C79.7,74.6,79.8,74.3,80.2,74z M77,71.2c-0.3,0.4-0.6,0.1-0.8-0.1c-0.2-0.2-0.3-0.3-0.5-0.5c-0.7-0.7-1.5-1.4-2.4-2.2
			c1.7-0.4,3.9,0.6,4.3,1.8C77.9,70.8,77.3,70.9,77,71.2z M73.1,75.1c-0.4,0.4-0.7,0.4-1.1,0c-1-1-2.1-2-1.5-4
			c1,1.1,1.8,1.9,2.7,2.8C73.7,74.4,73.6,74.7,73.1,75.1z M106,98.7c-0.6,0.9-1,1.2-1.9,0.2c-2-2.2-4.1-4.2-6.3-6.3
			c-0.7-0.6-0.7-1,0-1.6c2.4-2.1,3.6-4.7,3.4-8c0-0.9-0.3-1.7-0.5-2.5c1.4-0.5,2.1,0.3,2.9,1.1c0.7,0.7,1.4,2.1,2.3,2
			c0.8,0,1.4-1.3,2.2-2c0.6-0.5,0.7-0.9,0-1.4c0,0-0.1-0.1-0.1-0.1c-2.5-3.4-5.6-5-10-3.7c0-0.2,0-0.3-0.1-0.5
			c0.6-0.6,1.2-1.2,1.8-1.7c1.1-0.9,1.4-1.9,1.4-3.3c-0.1-3.1,0-3.1-3.1-3.1c-0.8,0-1.2,0.2-1,1c0.3,1.7-0.4,2.9-1.7,3.9
			c-0.4,0.3-0.6,0.3-0.9,0c-0.9-0.9-1.8-1.8-2.8-2.7c0.3-0.3,0.5-0.6,0.8-0.8c2.5-1.7,2.9-4.1,2.6-6.9c-0.1-0.6-0.2-0.8-0.8-0.8
			c-0.1,0-0.2,0-0.3,0c-0.9,0-2.1-0.3-2.8,0.1c-0.8,0.5-0.2,1.7-0.3,2.6c-0.1,0.4-1.8,2.5-2.1,2.6c-0.3,0.1-0.5-0.2-0.7-0.3
			c-2.2-1.3-4.4-1.3-6.5,0.1c-0.7,0.4-1,0.2-1.4-0.2c-1-1.1-2.2-2-3.7-2.5c-1.9-0.6-3.7-0.4-5.5,0.5c-0.6,0.3-0.9,0.3-1.3-0.2
			c-0.2-0.3-0.5-0.5-0.7-0.7c-1.8-1.8-1.8-1.8,0.3-3.3c16-11.3,38.3-2,41.7,17.3C112.4,85.6,110.5,92.5,106,98.7z"/>
		<path d="M84.7,51.6c-17,0-30.8,13.7-31,30.5c-0.2,17.2,13.8,31.3,30.7,31.3c17.2,0,31.2-13.7,31.2-30.7
			C115.6,65.4,101.9,51.6,84.7,51.6z M101.2,103.5c-5.7,4.3-12,6.4-19.1,5.6c-11.6-1.4-19.4-7.7-23-18.8c-2.8-8.7-1-16.9,4.4-24.3
			c0.6-0.8,1-1,1.6-0.1c0,0,0.1,0.1,0.1,0.1c1.5,1.1,2.1,2.2,1.2,4.3c-1.1,2.7-0.1,5.3,2.1,7.3c0.8,0.7,1,1.2,0.4,2.2
			c-1.2,1.9-1.1,3.9,0,5.8c0.4,0.8,0.3,1.1-0.2,1.7c-1,1.3-2.2,1.6-3.7,1.4c-0.8-0.1-1,0.2-1,1c0,3.2,0,3.1,3.1,3.2
			c1.4,0,2.5-0.3,3.4-1.4c0.3-0.4,0.8-0.8,1.2-1.2c0.5-0.7,1-0.8,1.5,0c0.6,0.7,1.2,1.3,1.9,1.9c0.5,0.5,0.4,0.7,0,1.2
			c-1,1.2-2.1,1.9-3.8,1.6c-0.8-0.1-1.1,0.1-1.1,1c0,3.1,0,3.1,3.1,3.2c1.4,0,2.5-0.3,3.4-1.4c0.5-0.6,1.1-1.1,1.8-1.9
			c0,1.9,0,3.4,0,4.9c0,0.9,0.3,1.6,1,2.3c1.1,1,2.1,2,3.1,3.1c0.5,0.6,0.9,0.7,1.4,0c0.7-0.8,2-1.4,2-2.3c0-0.8-1.3-1.5-2-2.2
			c-0.8-0.8-1.8-1.6-1.1-3c4.1,1.2,7.6,0.2,10.5-3c0.5-0.6,0.8-0.6,1.4,0c2.2,2.3,4.4,4.5,6.6,6.6C102,102.7,101.9,103,101.2,103.5z
			 M90.5,91.3c0.3,0.3,0.6,0.5,0.2,0.9c-1.3,1.4-2.8,2.6-4.8,2.5c-1.5,0-2.8-0.5-3.8-1.6c-3-3-6-5.9-8.9-8.9c-1.1-1.1-1.1-2.1,0-3.2
			c1-1,2-2,3-3c0.4-0.4,0.7-0.5,1.1,0C81.7,82.4,86.1,86.9,90.5,91.3z M80.2,74c1.1-1,2.1-2.1,3.2-3.2c1-0.9,2-1,2.9,0
			c3.1,3.1,6.2,6.2,9.3,9.3c1,1,1.3,2.3,1.4,3.2c0,2.5-1.3,3.9-2.7,5.2c-0.4,0.4-0.6,0.1-0.8-0.1c-4.5-4.5-8.9-8.9-13.4-13.4
			C79.7,74.6,79.8,74.3,80.2,74z M77,71.2c-0.3,0.4-0.6,0.1-0.8-0.1c-0.2-0.2-0.3-0.3-0.5-0.5c-0.7-0.7-1.5-1.4-2.4-2.2
			c1.7-0.4,3.9,0.6,4.3,1.8C77.9,70.8,77.3,70.9,77,71.2z M73.1,75.1c-0.4,0.4-0.7,0.4-1.1,0c-1-1-2.1-2-1.5-4
			c1,1.1,1.8,1.9,2.7,2.8C73.7,74.4,73.6,74.7,73.1,75.1z M106,98.7c-0.6,0.9-1,1.2-1.9,0.2c-2-2.2-4.1-4.2-6.3-6.3
			c-0.7-0.6-0.7-1,0-1.6c2.4-2.1,3.6-4.7,3.4-8c0-0.9-0.3-1.7-0.5-2.5c1.4-0.5,2.1,0.3,2.9,1.1c0.7,0.7,1.4,2.1,2.3,2
			c0.8,0,1.4-1.3,2.2-2c0.6-0.5,0.7-0.9,0-1.4c0,0-0.1-0.1-0.1-0.1c-2.5-3.4-5.6-5-10-3.7c0-0.2,0-0.3-0.1-0.5
			c0.6-0.6,1.2-1.2,1.8-1.7c1.1-0.9,1.4-1.9,1.4-3.3c-0.1-3.1,0-3.1-3.1-3.1c-0.8,0-1.2,0.2-1,1c0.3,1.7-0.4,2.9-1.7,3.9
			c-0.4,0.3-0.6,0.3-0.9,0c-0.9-0.9-1.8-1.8-2.8-2.7c0.3-0.3,0.5-0.6,0.8-0.8c2.5-1.7,2.9-4.1,2.6-6.9c-0.1-0.6-0.2-0.8-0.8-0.8
			c-0.1,0-0.2,0-0.3,0c-0.9,0-2.1-0.3-2.8,0.1c-0.8,0.5-0.2,1.7-0.3,2.6c-0.1,0.4-1.8,2.5-2.1,2.6c-0.3,0.1-0.5-0.2-0.7-0.3
			c-2.2-1.3-4.4-1.3-6.5,0.1c-0.7,0.4-1,0.2-1.4-0.2c-1-1.1-2.2-2-3.7-2.5c-1.9-0.6-3.7-0.4-5.5,0.5c-0.6,0.3-0.9,0.3-1.3-0.2
			c-0.2-0.3-0.5-0.5-0.7-0.7c-1.8-1.8-1.8-1.8,0.3-3.3c16-11.3,38.3-2,41.7,17.3C112.4,85.6,110.5,92.5,106,98.7z"/>
		<path d="M84.7,51.6c-17,0-30.8,13.7-31,30.5c-0.2,17.2,13.8,31.3,30.7,31.3c17.2,0,31.2-13.7,31.2-30.7
			C115.6,65.4,101.9,51.6,84.7,51.6z M101.2,103.5c-5.7,4.3-12,6.4-19.1,5.6c-11.6-1.4-19.4-7.7-23-18.8c-2.8-8.7-1-16.9,4.4-24.3
			c0.6-0.8,1-1,1.6-0.1c0,0,0.1,0.1,0.1,0.1c1.5,1.1,2.1,2.2,1.2,4.3c-1.1,2.7-0.1,5.3,2.1,7.3c0.8,0.7,1,1.2,0.4,2.2
			c-1.2,1.9-1.1,3.9,0,5.8c0.4,0.8,0.3,1.1-0.2,1.7c-1,1.3-2.2,1.6-3.7,1.4c-0.8-0.1-1,0.2-1,1c0,3.2,0,3.1,3.1,3.2
			c1.4,0,2.5-0.3,3.4-1.4c0.3-0.4,0.8-0.8,1.2-1.2c0.5-0.7,1-0.8,1.5,0c0.6,0.7,1.2,1.3,1.9,1.9c0.5,0.5,0.4,0.7,0,1.2
			c-1,1.2-2.1,1.9-3.8,1.6c-0.8-0.1-1.1,0.1-1.1,1c0,3.1,0,3.1,3.1,3.2c1.4,0,2.5-0.3,3.4-1.4c0.5-0.6,1.1-1.1,1.8-1.9
			c0,1.9,0,3.4,0,4.9c0,0.9,0.3,1.6,1,2.3c1.1,1,2.1,2,3.1,3.1c0.5,0.6,0.9,0.7,1.4,0c0.7-0.8,2-1.4,2-2.3c0-0.8-1.3-1.5-2-2.2
			c-0.8-0.8-1.8-1.6-1.1-3c4.1,1.2,7.6,0.2,10.5-3c0.5-0.6,0.8-0.6,1.4,0c2.2,2.3,4.4,4.5,6.6,6.6C102,102.7,101.9,103,101.2,103.5z
			 M90.5,91.3c0.3,0.3,0.6,0.5,0.2,0.9c-1.3,1.4-2.8,2.6-4.8,2.5c-1.5,0-2.8-0.5-3.8-1.6c-3-3-6-5.9-8.9-8.9c-1.1-1.1-1.1-2.1,0-3.2
			c1-1,2-2,3-3c0.4-0.4,0.7-0.5,1.1,0C81.7,82.4,86.1,86.9,90.5,91.3z M80.2,74c1.1-1,2.1-2.1,3.2-3.2c1-0.9,2-1,2.9,0
			c3.1,3.1,6.2,6.2,9.3,9.3c1,1,1.3,2.3,1.4,3.2c0,2.5-1.3,3.9-2.7,5.2c-0.4,0.4-0.6,0.1-0.8-0.1c-4.5-4.5-8.9-8.9-13.4-13.4
			C79.7,74.6,79.8,74.3,80.2,74z M77,71.2c-0.3,0.4-0.6,0.1-0.8-0.1c-0.2-0.2-0.3-0.3-0.5-0.5c-0.7-0.7-1.5-1.4-2.4-2.2
			c1.7-0.4,3.9,0.6,4.3,1.8C77.9,70.8,77.3,70.9,77,71.2z M73.1,75.1c-0.4,0.4-0.7,0.4-1.1,0c-1-1-2.1-2-1.5-4
			c1,1.1,1.8,1.9,2.7,2.8C73.7,74.4,73.6,74.7,73.1,75.1z M106,98.7c-0.6,0.9-1,1.2-1.9,0.2c-2-2.2-4.1-4.2-6.3-6.3
			c-0.7-0.6-0.7-1,0-1.6c2.4-2.1,3.6-4.7,3.4-8c0-0.9-0.3-1.7-0.5-2.5c1.4-0.5,2.1,0.3,2.9,1.1c0.7,0.7,1.4,2.1,2.3,2
			c0.8,0,1.4-1.3,2.2-2c0.6-0.5,0.7-0.9,0-1.4c0,0-0.1-0.1-0.1-0.1c-2.5-3.4-5.6-5-10-3.7c0-0.2,0-0.3-0.1-0.5
			c0.6-0.6,1.2-1.2,1.8-1.7c1.1-0.9,1.4-1.9,1.4-3.3c-0.1-3.1,0-3.1-3.1-3.1c-0.8,0-1.2,0.2-1,1c0.3,1.7-0.4,2.9-1.7,3.9
			c-0.4,0.3-0.6,0.3-0.9,0c-0.9-0.9-1.8-1.8-2.8-2.7c0.3-0.3,0.5-0.6,0.8-0.8c2.5-1.7,2.9-4.1,2.6-6.9c-0.1-0.6-0.2-0.8-0.8-0.8
			c-0.1,0-0.2,0-0.3,0c-0.9,0-2.1-0.3-2.8,0.1c-0.8,0.5-0.2,1.7-0.3,2.6c-0.1,0.4-1.8,2.5-2.1,2.6c-0.3,0.1-0.5-0.2-0.7-0.3
			c-2.2-1.3-4.4-1.3-6.5,0.1c-0.7,0.4-1,0.2-1.4-0.2c-1-1.1-2.2-2-3.7-2.5c-1.9-0.6-3.7-0.4-5.5,0.5c-0.6,0.3-0.9,0.3-1.3-0.2
			c-0.2-0.3-0.5-0.5-0.7-0.7c-1.8-1.8-1.8-1.8,0.3-3.3c16-11.3,38.3-2,41.7,17.3C112.4,85.6,110.5,92.5,106,98.7z"/>
	</g>
</g>
</svg>
