<?xml version="1.0" encoding="utf-8"?>
<!-- Generator: Adobe Illustrator 28.0.0, SVG Export Plug-In . SVG Version: 6.00 Build 0)  -->
<svg version="1.1" id="Layer_1" xmlns="http://www.w3.org/2000/svg" xmlns:xlink="http://www.w3.org/1999/xlink" x="0px" y="0px"
	 viewBox="0 0 128 128" style="enable-background:new 0 0 128 128;" xml:space="preserve">
<g>
	<path d="M88.6,30.1c3.5-0.4,6.2-3.3,6.2-6.9V6.9c0-3.8-3.1-6.9-6.9-6.9H40.2c-3.8,0-6.9,3.1-6.9,6.9v16.3c0,3.8,3.1,6.9,6.9,6.9h1
		c-1.5,0.9-2.9,2-4.2,3.2c-5.1,4.5-8,10-8.2,15.1v0v70.2c0,4.6,4.5,9.3,9,9.3h53.6c2.2,0,4.2-1.1,5.8-3.1c1.3-1.8,2.1-3.9,2.1-6.2
		V48.5C99.2,41.4,94.3,34.2,88.6,30.1L88.6,30.1z M85.4,3.3h2.4c2,0,3.6,1.6,3.6,3.6v16.3c0,2-1.6,3.6-3.6,3.6h-2.4V3.3z M75.5,3.3
		h6.5v23.4h-6.5V3.3z M65.4,3.3h6.8v23.4h-6.8V3.3z M55.8,3.3H62v23.4h-6.2L55.8,3.3z M45.7,3.3h6.8v23.4h-6.8V3.3z M40.2,26.8
		c-2,0-3.6-1.6-3.6-3.6V6.9c0-2,1.6-3.6,3.6-3.6h2.1v23.4H40.2z M95.9,102H49.4V59.1h46.5V102z M95.9,55.8H47.7
		c-0.9,0-1.7,0.7-1.7,1.7l0,0v46.2c0,0.9,0.7,1.7,1.7,1.7h48.2v13.3c0,2.7-2,5.9-4.5,5.9H37.8c-2.6,0-5.7-3.2-5.7-5.9V48.5
		c0.1-4.2,2.7-8.8,7.1-12.7c3.8-3.4,8.5-5.7,11.6-5.7h29c5.9,0,16.1,9.1,16.1,18.4V55.8z"/>
	<path d="M58.8,87h8.5v8.5c0,1.2,1,2.2,2.2,2.2h7.1c1.2,0,2.2-1,2.2-2.2V87h8.5c1.2,0,2.2-1,2.2-2.2v-7.1c0-1.2-1-2.2-2.2-2.2h-8.5
		V67c0-1.2-1-2.2-2.2-2.2h-7.1c-1.2,0-2.2,1-2.2,2.2v8.5h-8.5c-1.2,0-2.2,1-2.2,2.2v7.1C56.6,86,57.6,87,58.8,87z M59.9,78.9h8.5
		c1.2,0,2.2-1,2.2-2.2v-8.5h4.8v8.5c0,1.2,1,2.2,2.2,2.2h8.5v4.8h-8.5c-1.2,0-2.2,1-2.2,2.2v8.5h-4.8v-8.5c0-1.2-1-2.2-2.2-2.2h-8.5
		L59.9,78.9z"/>
	<path d="M38.8,62.3c-0.9,0-1.7,0.7-1.7,1.7v40.3c0,0.9,0.7,1.7,1.7,1.7s1.7-0.7,1.7-1.7V64C40.5,63.1,39.8,62.3,38.8,62.3
		L38.8,62.3z"/>
	<path d="M38.7,60.2c0.9,0,1.7-0.7,1.7-1.7v-1.2c0-0.9-0.7-1.7-1.7-1.7c-0.9,0-1.7,0.7-1.7,1.7v1.2C37,59.4,37.7,60.2,38.7,60.2z"/>
</g>
</svg>
