<?xml version="1.0" encoding="utf-8"?>
<!-- Generator: Adobe Illustrator 27.9.0, SVG Export Plug-In . SVG Version: 6.00 Build 0)  -->
<svg version="1.1" id="Layer_1" xmlns="http://www.w3.org/2000/svg" xmlns:xlink="http://www.w3.org/1999/xlink" x="0px" y="0px"
	 viewBox="0 0 128 128" style="enable-background:new 0 0 128 128;" xml:space="preserve">
<path d="M125.57,2.61c-2.26-2.9-5.97-3.45-8.98-1.33c-1.12,0.79-2.2,1.64-3.3,2.47c-4.66,3.5-9.32,7-13.97,10.5
	c-1.47,1.11-1.63,2.14-0.57,3.61c0.37,0.51,0.73,1.02,1.14,1.49c0.43,0.48,0.41,0.78-0.15,1.17c-1.26,0.88-2.46,1.85-3.7,2.76
	c-1.65,1.22-2.68,2.87-2.97,4.88c-0.23,1.57-0.07,3.17,0.12,4.74c0.18,1.5-0.31,2.68-1.56,3.56c-1.12,0.79-2.25,1.58-3.29,2.48
	c-0.67,0.58-0.95,0.4-1.42-0.23c-2.84-3.85-5.73-7.67-8.61-11.5c-2.81-3.74-6.81-3.41-9.03,0.73
	c-5.51,10.28-11.03,20.56-16.52,30.85c-0.42,0.8-0.87,1.09-1.79,1.09c-16-0.03-31.99-0.01-47.99-0.05c-1.24,0-2.25,0.24-2.98,1.29
	c0,7.68,0,15.36,0,23.04c0.24,1.03,0.99,1.47,1.94,1.69c0.74,0.17,1.48,0.2,2.23,0.2c3.67,0,7.33-0.01,11,0.01
	c1.31,0.01,1.43,0.13,1.43,1.44c0.01,4.34,0.01,8.68,0,13.02c0,1.43-0.1,1.52-1.6,1.53c-3.67,0.01-7.33,0-11,0
	c-0.58,0-1.17,0-1.75,0.08c-1.11,0.16-1.99,0.6-2.26,1.81c0,7.68,0,15.36,0,23.04c0.24,0.43,0.43,0.91,1,1c34.91,0,69.83,0,104.74,0
	c0.75-0.74,1-1.63,0.99-2.7c-0.04-5.72,0-11.43-0.04-17.15c-0.01-0.94,0.18-1.26,1.2-1.24c4.37,0.06,8.75,0.03,13.12,0.02
	c1.95,0,2.72-0.78,2.72-2.72c0-6.72,0-13.44,0-20.16c0-2.19-0.69-2.87-2.93-2.87c-4.37,0-8.75-0.02-13.12,0.02
	c-0.73,0.01-1.03-0.12-0.99-0.94c0.07-1.54,0.02-3.09,0.02-4.63c0-4.38,0.01-8.76,0-13.15c0-1.82-0.78-2.6-2.56-2.62
	c-0.92-0.01-1.83-0.03-2.75,0.01c-0.55,0.02-0.74-0.15-0.68-0.7c0.15-1.5-0.49-2.73-1.38-3.89c-2.29-3.02-4.56-6.06-6.82-9.09
	c-0.77-1.03-2.19-2.16-2.09-3.11c0.12-1.08,1.83-1.74,2.93-2.46c3.13-2.05,4.52-4.85,4.12-8.6c-0.5-4.64-0.1-4.29,3.28-6.87
	c0.69-0.53,1.43-1.49,2.1-1.45c0.8,0.05,1.17,1.28,1.73,1.98c1.07,1.34,2.14,1.54,3.54,0.49c5.76-4.31,11.53-8.63,17.26-12.97
	c1.81-1.37,2.67-3.22,2.6-5.52C127.94,5.61,126.74,4.13,125.57,2.61z M38.45,65.09c0-0.61,0-0.98,0.82-0.97
	c3.45,0.05,6.91,0.02,10.52,0.02c-0.35,0.96-0.89,1.67-1.04,2.54c-0.66,3.73,2.46,6.7,6.23,5.91c4.05-0.86,8.1-1.75,12.15-2.64
	c0.75-0.17,1.17-0.2,1.14,0.85c-0.08,3.17-0.05,6.34-0.01,9.51c0.01,0.7-0.17,0.9-0.89,0.9c-9.33-0.02-18.66-0.03-27.98,0
	c-0.79,0-0.95-0.22-0.95-0.98C38.48,75.19,38.47,70.14,38.45,65.09z M85.29,101.57c0.01,0.87-0.29,1-1.06,1
	c-9.24-0.02-18.48-0.03-27.73,0c-0.8,0-1.04-0.18-1.04-1.01c0.04-5,0.04-10.01,0-15.01c-0.01-0.86,0.28-1,1.05-1
	c4.66,0.03,9.33,0.02,13.99,0.02c4.58,0,9.16,0.02,13.74-0.02c0.79-0.01,1.05,0.17,1.04,1.02C85.25,91.56,85.24,96.56,85.29,101.57z
	 M5.38,81.21c-0.96,0-1.17-0.27-1.14-1.18c0.07-2.17,0.04-4.34,0.01-6.51c-0.01-0.65,0.17-0.88,0.84-0.85
	c1.16,0.05,2.33,0.04,3.5-0.01c1.23-0.05,2.15-1.02,2.13-2.15c-0.02-1.14-0.97-2.07-2.2-2.1c-1.17-0.03-2.33-0.04-3.5,0
	c-0.6,0.02-0.75-0.17-0.78-0.77c-0.15-3.5-0.16-3.5,3.28-3.5c3.91,0,7.83,0,11.74,0c4.58,0,9.16,0.03,13.74-0.02
	c0.9-0.01,1.08,0.26,1.07,1.11c-0.04,4.96-0.04,9.93,0,14.89c0.01,0.88-0.23,1.09-1.09,1.09C23.79,81.18,14.59,81.17,5.38,81.21z
	 M34.08,122.88c0.01,0.84-0.17,1.12-1.07,1.12c-9.24-0.04-18.48-0.03-27.72,0c-0.8,0-1.05-0.18-1.04-1.02c0.04-5,0.05-10.01,0-15.01
	c-0.01-0.95,0.34-1.05,1.14-1.04c4.62,0.03,9.24,0.02,13.86,0.02c4.58,0,9.16,0.02,13.73-0.02c0.85-0.01,1.12,0.17,1.11,1.08
	C34.04,112.96,34.04,117.92,34.08,122.88z M22.62,102.57c-0.91,0.01-1.29-0.14-1.28-1.19c0.06-4.92,0.04-9.84,0.01-14.77
	c0-0.79,0.17-1.07,1.02-1.07c9.24,0.03,18.49,0.03,27.73,0c0.91,0,1.09,0.3,1.09,1.14c-0.04,4.92-0.04,9.84,0,14.77
	c0.01,0.86-0.21,1.13-1.1,1.12c-4.66-0.04-9.33-0.02-13.99-0.02C31.62,102.55,27.12,102.53,22.62,102.57z M68.27,122.98
	c0.01,0.84-0.24,1.02-1.04,1.02c-4.66-0.04-9.32-0.02-13.99-0.02c-4.54,0-9.07-0.02-13.61,0.02c-0.87,0.01-1.21-0.12-1.2-1.12
	c0.06-4.96,0.05-9.92,0-14.89c-0.01-0.91,0.26-1.07,1.11-1.07c9.2,0.03,18.4,0.03,27.6,0c0.82,0,1.14,0.11,1.13,1.05
	C68.22,112.97,68.22,117.98,68.27,122.98z M101.35,123.99c-4.66-0.03-9.32-0.02-13.98-0.02c-4.58,0-9.16-0.02-13.73,0.02
	c-0.84,0.01-1.13-0.16-1.13-1.08c0.05-5,0.04-10,0.01-15.01c0-0.75,0.15-0.99,0.95-0.99c9.32,0.03,18.64,0.02,27.96,0.01
	c0.67,0,0.93,0.13,0.92,0.87c-0.03,5.09-0.04,10.17,0,15.26C102.36,123.88,102.07,124,101.35,123.99z M104.49,85.56
	c4.62,0,9.25,0.02,13.87-0.02c0.86-0.01,1.12,0.22,1.11,1.11c-0.04,4.97-0.04,9.93,0,14.9c0.01,0.85-0.26,1.03-1.06,1.03
	c-9.25-0.03-18.49-0.03-27.74,0c-0.81,0-1.05-0.2-1.04-1.03c0.04-4.97,0.04-9.93,0-14.9c-0.01-0.88,0.25-1.11,1.11-1.1
	C95.32,85.58,99.91,85.56,104.49,85.56z M101.82,64.14c0.49-0.01,0.51,0.26,0.51,0.63c-0.01,5.25-0.02,10.51,0.01,15.76
	c0.01,0.87-0.54,0.66-0.99,0.66c-4.62,0.01-9.24,0-13.86,0c-4.58,0-9.16-0.02-13.73,0.02c-0.91,0.01-1.29-0.13-1.26-1.19
	c0.08-3.42,0.05-6.84,0.02-10.25c-0.01-0.7,0.17-1,0.92-1.15c6.89-1.43,13.75-3.05,20.67-4.32C96.6,63.84,99.24,64.18,101.82,64.14z
	 M94.7,56.3c0.47,0.63,0.94,1.27,1.42,1.9c0.51,0.68,0.45,1.06-0.49,1.25c-2.96,0.61-5.91,1.29-8.86,1.92
	c-10.78,2.29-21.56,4.56-32.34,6.85c-0.45,0.09-0.89,0.35-1.26-0.1c-0.43-0.52,0-0.93,0.23-1.35c6.41-11.96,12.84-23.91,19.23-35.88
	c1.36-2.55,1.29-2.36,2.92-0.17c2.58,3.48,5.16,6.95,7.8,10.38c0.6,0.78,0.68,1.16-0.21,1.79c-2.51,1.78-4.94,3.67-7.4,5.52
	c-1.33,1-1.65,2.22-0.88,3.3c0.82,1.14,2.08,1.2,3.49,0.15c2.76-2.06,5.52-4.14,8.33-6.25C89.36,49.18,92.03,52.74,94.7,56.3z
	 M122.27,10.14c-4.81,3.63-9.65,7.23-14.44,10.89c-0.71,0.54-1.04,0.45-1.51-0.24c-0.97-1.39-2.01-2.73-3.04-4.11
	c5.27-3.96,10.48-7.89,15.7-11.8c1.21-0.9,2.19-0.74,3.16,0.4c0.24,0.28,0.45,0.6,0.67,0.9C124.15,7.98,124.04,8.81,122.27,10.14z
	 M17.14,72.68c-1.37-0.04-2.22-0.9-2.21-2.16c0.01-1.25,0.89-2.1,2.26-2.11c2.78-0.02,5.56-0.02,8.34,0
	c1.33,0.01,2.23,0.93,2.21,2.17c-0.01,1.21-0.84,2.06-2.14,2.1c-1.41,0.04-2.82,0.01-4.23,0.01c0,0,0,0,0,0
	C19.96,72.69,18.55,72.72,17.14,72.68z"/>
</svg>
