<?xml version="1.0" encoding="utf-8"?>
<!-- Generator: Adobe Illustrator 27.9.0, SVG Export Plug-In . SVG Version: 6.00 Build 0)  -->
<svg version="1.1" id="Layer_1" xmlns="http://www.w3.org/2000/svg" xmlns:xlink="http://www.w3.org/1999/xlink" x="0px" y="0px"
	 viewBox="0 0 128 128" style="enable-background:new 0 0 128 128;" xml:space="preserve">
<path d="M110.53,59.52c0.07,3.04,0.07,6.08,0,9.12c-0.02,0.98,0.29,1.15,1.19,1.14c4.25-0.05,8.5-0.02,12.75-0.02
	c1.27,0,2.38,0.3,3.1,1.46c1.01,1.64,0.15,3.79-1.71,4.27c-0.57,0.15-1.14,0.21-1.72,0.21c-4.17-0.01-8.33,0.02-12.5-0.03
	c-0.89-0.01-1.17,0.25-1.09,1.11c0.06,0.7,0.02,1.42-0.05,2.12c-0.15,1.44-1.48,2.59-2.89,2.57c-1.44-0.02-2.69-1.18-2.84-2.64
	c-0.05-0.5-0.03-1-0.03-1.5c0-14.83,0-29.66-0.01-44.49c0-2.2-0.43-4.28-1.82-6.08c-1.87-2.42-4.41-3.48-7.38-3.48
	c-21-0.02-41.99-0.03-62.99,0c-5.52,0.01-9.24,3.73-9.25,9.25c-0.03,20.95-0.02,41.91,0,62.86c0.01,5.59,3.72,9.31,9.31,9.32
	c20.95,0.02,41.91,0.02,62.86,0c4.49,0,7.78-2.45,8.89-6.54c0.26-0.95,0.32-1.97,0.35-2.96c0.06-1.66-0.01-3.33,0.03-5
	c0.05-1.74,1.17-2.93,2.9-2.94c5.83-0.04,11.66-0.04,17.5,0c1.6,0.01,2.77,1.25,2.85,2.75c0.08,1.54-0.92,2.73-2.55,3
	c-0.49,0.08-0.99,0.12-1.49,0.12c-4.08,0.01-8.17,0.04-12.25-0.02c-0.94-0.01-1.22,0.24-1.17,1.18c0.22,3.62-0.43,7.05-2.61,10.04
	c-3.09,4.24-7.28,6.27-12.53,6.21c-2.27-0.03-2.27,0.01-2.27,2.29c0,3.75,0,7.5,0,11.25c0,0.75-0.01,1.5-0.32,2.2
	c-0.55,1.22-1.89,1.91-3.18,1.66c-1.32-0.26-2.3-1.38-2.36-2.83c-0.05-1.25-0.02-2.5-0.02-3.75c0-3.25-0.03-6.5,0.02-9.75
	c0.02-0.89-0.25-1.1-1.11-1.09c-3.12,0.05-6.25,0.05-9.37,0c-0.87-0.01-1.12,0.22-1.11,1.1c0.05,4.17,0.01,8.33,0.03,12.5
	c0,0.59-0.06,1.16-0.21,1.72c-0.31,1.2-1.37,2.07-2.61,2.14c-1.27,0.07-2.5-0.74-2.89-1.93c-0.2-0.6-0.24-1.21-0.24-1.84
	c0.01-4.21-0.01-8.41,0.02-12.62c0.01-0.79-0.16-1.07-1.02-1.06c-3.17,0.05-6.33,0.06-9.5,0c-0.94-0.02-1.06,0.33-1.06,1.15
	c0.04,4.25,0.02,8.5,0.02,12.75c0,0.89-0.11,1.73-0.7,2.46c-0.75,0.93-1.73,1.3-2.88,1.04c-1.08-0.24-1.85-0.91-2.15-2.02
	c-0.15-0.56-0.22-1.13-0.22-1.72c0.02-4.12-0.03-8.25,0.03-12.37c0.02-1.07-0.31-1.3-1.32-1.27c-3.08,0.07-6.17,0.06-9.25,0
	c-0.84-0.01-1.03,0.25-1.02,1.05c0.04,4.42,0.02,8.83,0.02,13.25c0,1.37-0.56,2.41-1.87,2.95c-1.16,0.48-2.22,0.2-3.11-0.64
	c-0.82-0.77-0.91-1.83-0.91-2.88c0-4.17-0.04-8.33,0.02-12.5c0.01-1-0.27-1.28-1.25-1.23c-3.62,0.21-7.04-0.46-10.02-2.65
	c-4.19-3.07-6.21-7.23-6.16-12.42c0.02-2.31-0.01-2.31-2.36-2.31c-3.71,0-7.42-0.04-11.12,0.02C2.18,93.18,0.79,92.67,0,90.99
	c0-0.58,0-1.17,0-1.75c0.66-1.75,1.48-2.34,3.5-2.37c3.91-0.05,7.83-0.01,11.74-0.02c1.84,0,1.87-0.04,1.87-1.89
	c0-2.37,0.01-4.75,0-7.12c0-1.63-0.08-1.71-1.67-1.72c-3.58-0.01-7.16,0-10.74,0c-0.71,0-1.41-0.01-2.11-0.16
	C1.22,75.66,0.21,75,0,73.49c0-0.5,0-1,0-1.5c0.5-1.91,1.35-2.57,3.63-2.61c3.78-0.06,7.57-0.01,11.35-0.02
	c0.37,0,0.75-0.01,1.12-0.01c0.66-0.01,0.99-0.32,1-0.99c0.02-2.91,0.01-5.82,0-8.73c0-0.98-0.67-1-1.37-1
	c-3.66-0.01-7.32,0-10.98,0c-0.58,0-1.17,0.01-1.74-0.05C1.15,58.35,0.46,57.76,0,55.99c0-0.5,0-1,0-1.5
	c0.21-1.51,1.22-2.17,2.59-2.47c0.7-0.15,1.4-0.16,2.11-0.16c3.58,0,7.16,0.01,10.74,0c1.59,0,1.67-0.09,1.67-1.72
	c0.01-2.5,0.01-5,0-7.49c-0.01-1.38-0.13-1.51-1.49-1.51c-3.91-0.02-7.83,0-11.74-0.01c-0.84,0-1.65-0.08-2.43-0.45
	C0.6,40.28,0.27,39.55,0,38.75c0-0.58,0-1.17,0-1.75c0.62-1.85,1.46-2.49,3.61-2.58c1.83-0.08,3.67-0.02,5.5-0.03
	c1.92-0.01,3.83,0,5.75,0c2.28,0,2.33,0,2.27-2.23c-0.07-2.53,0.48-4.88,1.69-7.08c2.82-5.09,7.11-7.8,12.96-7.92
	c2.82-0.06,2.6,0.23,2.61-2.66c0.01-3.25,0-6.5,0-9.75c0-0.54-0.01-1.08,0.06-1.62C34.67,1.57,35.24,0.29,37,0c0.58,0,1.17,0,1.75,0
	c1.75,0.66,2.34,1.48,2.37,3.5c0.05,3.91,0.01,7.83,0.02,11.74c0,1.84,0.04,1.87,1.89,1.87c2.37,0,4.75,0.01,7.12,0
	c1.63,0,1.71-0.08,1.72-1.67c0.01-3.58,0-7.16,0-10.74c0-0.71,0.01-1.41,0.16-2.11c0.3-1.37,0.96-2.38,2.47-2.59c0.5,0,1,0,1.5,0
	c1.91,0.5,2.57,1.35,2.61,3.63c0.06,3.78,0.01,7.57,0.02,11.35c0,0.37,0.01,0.75,0.01,1.12c0.01,0.66,0.32,0.99,0.99,1
	c2.91,0.02,5.82,0.01,8.73,0c0.98,0,1-0.67,1-1.37c0.01-3.66,0-7.32,0-10.98c0-0.58-0.01-1.16,0.05-1.74C69.64,1.15,70.23,0.46,72,0
	c0.5,0,1,0,1.5,0c1.51,0.21,2.17,1.22,2.47,2.59c0.15,0.7,0.16,1.4,0.16,2.11c0,3.58-0.01,7.16,0,10.74c0,1.59,0.09,1.67,1.72,1.67
	c2.5,0.01,5,0.01,7.5,0c1.38-0.01,1.51-0.13,1.51-1.49c0.02-3.91,0-7.83,0.01-11.74c0-0.84,0.08-1.65,0.45-2.43
	C87.71,0.6,88.44,0.27,89.25,0c0.58,0,1.17,0,1.75,0c1.68,0.79,2.19,2.18,2.16,3.95c-0.05,3.75-0.02,7.5-0.02,11.25
	c0,2.23,0,2.27,2.19,2.23c3.34-0.06,6.42,0.74,9.13,2.73c4.18,3.09,6.15,7.27,6.09,12.46c-0.03,2.22,0,2.22,2.2,2.22
	c3.79,0,7.58,0,11.37,0c0.75,0,1.5,0.03,2.19,0.35c1.23,0.59,1.89,1.91,1.62,3.2c-0.29,1.36-1.45,2.31-2.99,2.33
	c-3.62,0.03-7.25-0.01-10.87,0.02c-1.15,0.01-2.68-0.52-3.33,0.24c-0.56,0.65-0.18,2.14-0.19,3.25c-0.01,2.25,0.05,4.5-0.03,6.75
	c-0.04,1.01,0.2,1.34,1.27,1.32c4.12-0.07,8.25-0.02,12.37-0.03c0.76,0,1.5,0.06,2.18,0.38c1.08,0.5,1.76,1.68,1.62,2.85
	c-0.15,1.27-0.82,2.13-2.08,2.51c-0.53,0.16-1.06,0.2-1.6,0.2c-4.17-0.01-8.33,0.04-12.5-0.03
	C110.72,58.18,110.5,58.51,110.53,59.52z M32,34.94c1.51,0,2.94-1.44,2.94-2.94c0-1.51-1.44-2.94-2.94-2.94
	c-1.51,0-2.94,1.44-2.94,2.94C29.05,33.5,30.49,34.94,32,34.94z M96.02,29.05c-1.5-0.02-2.95,1.41-2.96,2.93
	c-0.02,1.5,1.41,2.95,2.93,2.96c1.5,0.02,2.95-1.41,2.96-2.93C98.96,30.52,97.53,29.07,96.02,29.05z M32,98.93
	c1.51,0,2.94-1.44,2.94-2.94c0-1.51-1.44-2.94-2.94-2.94c-1.51,0-2.94,1.44-2.94,2.94C29.05,97.49,30.49,98.93,32,98.93z
	 M95.94,98.93c1.49,0.05,2.95-1.36,3-2.89c0.05-1.49-1.36-2.95-2.89-3c-1.49-0.05-2.95,1.36-3,2.89
	C93,97.42,94.41,98.88,95.94,98.93z M87.24,83.86c0.01-13.25,0.01-26.49,0-39.74c0-2.2-1.19-3.36-3.41-3.37
	c-2.42-0.02-4.83,0.02-7.25-0.02c-0.7-0.01-0.9,0.17-0.9,0.89c0.03,7.33,0.03,14.66-0.01,21.99c0,0.79,0.35,1.06,0.95,1.36
	c3.31,1.63,5.28,5.25,4.78,8.7c-0.58,4.02-3.31,6.93-7.15,7.62c-4.17,0.75-8.44-1.69-9.75-5.58c-1.44-4.28,0.26-8.74,4.2-10.69
	c0.88-0.43,1.07-0.9,1.06-1.79c-0.03-8.16-0.02-16.33-0.02-24.49c0-2.77,1.08-3.91,3.81-3.88c3.95,0.04,7.91-0.18,11.86,0.14
	c3.77,0.3,7.35,3.82,7.54,7.58c0.37,7.16,0.02,14.32,0.15,20.07c0,7.91-0.01,14.41,0,20.91c0,3.17-0.99,5.86-3.59,7.82
	c-1.74,1.31-3.74,1.75-5.85,1.75c-5.33,0.02-10.67,0.01-16,0c-0.71,0-1.41-0.04-2.06-0.37c-1.22-0.61-1.86-1.95-1.57-3.23
	c0.31-1.36,1.46-2.27,3.03-2.29c3-0.03,6-0.01,9-0.01c2.58,0,5.17,0.01,7.75,0C86.05,87.22,87.24,86.07,87.24,83.86z M75.54,72.81
	c0.04-1.62-1.15-2.88-2.75-2.91c-1.59-0.03-2.86,1.19-2.88,2.78c-0.02,1.56,1.15,2.8,2.69,2.85C74.22,75.58,75.5,74.4,75.54,72.81z
	 M58.21,64.66c0.03,8.21,0.02,16.41,0.01,24.62c0,2.75-1.09,3.88-3.84,3.85c-3.95-0.04-7.91,0.18-11.86-0.14
	c-3.75-0.3-7.32-3.84-7.51-7.61c-0.37-7.16-0.02-14.32-0.15-20.07c0-7.91,0.01-14.41,0-20.91c0-3.8,1.46-6.75,4.89-8.59
	c1.36-0.72,2.84-0.94,4.33-0.95c5.46-0.03,10.92-0.02,16.37-0.01c0.66,0,1.33,0.06,1.93,0.38c1.2,0.63,1.83,1.97,1.53,3.25
	c-0.33,1.35-1.48,2.24-3.05,2.25c-3.62,0.02-7.25,0.01-10.87,0.01c-1.96,0-3.92-0.02-5.87,0c-2.15,0.02-3.37,1.17-3.37,3.29
	c-0.02,13.29-0.01,26.58,0,39.87c0,2.13,1.2,3.31,3.32,3.34c2.46,0.03,4.92-0.03,7.37,0.02c0.75,0.02,0.87-0.26,0.86-0.93
	c-0.02-7.33-0.02-14.66,0-22c0-0.61-0.16-0.93-0.75-1.23c-3.74-1.84-5.58-5.47-4.85-9.45c0.71-3.88,3.86-6.71,7.92-7.12
	c3.96-0.4,7.86,2.34,9.05,6.35c1.16,3.93-0.7,8.27-4.44,10.08C58.41,63.37,58.21,63.82,58.21,64.66z M58.09,55.28
	c0.01-1.61-1.22-2.83-2.84-2.83c-1.61,0.01-2.82,1.25-2.8,2.87c0.02,1.55,1.22,2.74,2.78,2.76C56.83,58.11,58.09,56.87,58.09,55.28z
	"/>
</svg>
