<?xml version="1.0" encoding="utf-8"?>
<!-- Generator: Adobe Illustrator 27.9.0, SVG Export Plug-In . SVG Version: 6.00 Build 0)  -->
<svg version="1.1" id="Layer_1" xmlns="http://www.w3.org/2000/svg" xmlns:xlink="http://www.w3.org/1999/xlink" x="0px" y="0px"
	 viewBox="0 0 128 128" style="enable-background:new 0 0 128 128;" xml:space="preserve">
<path d="M126.14,5.61c-1.3-1.3-2.59-2.59-3.89-3.89c-2.08-2.07-3.55-2.24-6.09-0.72c-5.8,3.48-11.6,6.97-17.4,10.45
	c-2.42,1.45-4.69,3.45-7.31,4.17c-2.68,0.74-5.7,0.26-8.57,0.22c-1.77-0.03-3.16,0.54-4.44,1.82
	C61.22,34.93,43.98,52.15,26.75,69.39c-0.53,0.53-1.05,1.07-1.54,1.64c-5.26,6.04-6.05,14.79-2.05,21.72
	c1.44,2.49,3.54,4.39,5.55,6.41c-0.14,0.17-0.26,0.35-0.41,0.49c-4.74,4.74-9.48,9.49-14.24,14.22c-1.67,1.66-3.93,1.7-5.45,0.18
	c-1.53-1.53-1.45-3.7,0.21-5.44c0.89-0.93,1.86-1.8,2.69-2.78c1.22-1.44,1.1-3.54-0.17-4.89c-1.28-1.36-3.45-1.7-4.86-0.52
	c-2.23,1.87-4.34,3.89-5.61,6.61c-0.34,0.73-0.27,1.62-0.88,2.24c0,1.42,0,2.83,0,4.25c0.23,1.31,0.62,2.55,1.27,3.73
	c2.12,3.85,6.98,6.24,11.27,5.67c2.96-0.39,5.34-1.73,7.4-3.79c4.39-4.39,8.78-8.78,13.17-13.17c1-0.99,1.04-1.01,1.98-0.05
	c5.62,5.75,11.58,11.15,17.18,16.92c1.22,1.26,2.49,2.46,3.7,3.72c0.71,0.73,1.49,1.3,2.52,1.46c0.67,0,1.33,0,2,0
	c0.62-0.39,1.3-0.68,1.84-1.22c6.39-6.4,7.12-16.58,1.74-23.82c-0.96-1.3-2.18-2.36-3.28-3.69c2.68,0.39,5.23,0.74,7.77,1.13
	c3.83,0.59,7.69,1.01,11.56,0.55c7.47-0.89,14.01-3.88,19.55-9.01c2.96-2.74,2.29-5.9-1.55-7.18C92.81,83,87.5,81.24,82.2,79.45
	c-0.39-0.13-0.92-0.1-1.24-0.71c0.3-0.25,0.64-0.49,0.93-0.78c9.46-9.45,18.9-18.93,28.39-28.35c1.32-1.31,1.91-2.72,1.86-4.55
	c-0.07-2.37,0.01-4.75-0.03-7.12c-0.02-0.91,0.19-1.68,0.66-2.46c4.74-7.85,9.46-15.72,14.18-23.59
	C128.54,9.24,128.36,7.83,126.14,5.61z M47.39,59.44c5.95-5.94,11.9-11.88,17.83-17.84c0.5-0.5,0.75-0.64,1.33-0.05
	c3.05,3.13,6.15,6.21,9.27,9.27c0.59,0.58,0.46,0.85-0.05,1.36c-6.64,6.61-13.26,13.23-19.86,19.87c-0.51,0.51-0.77,0.49-1.27-0.01
	c-3.27-3.32-6.58-6.6-10-10.01C45.58,61.15,46.51,60.32,47.39,59.44z M59.75,116.5c-0.14,0.6-0.38,1.18-0.57,1.75
	c-0.46,0.08-0.61-0.27-0.84-0.49c-8.84-8.71-17.68-17.41-26.49-26.13c-3.56-3.52-4.61-8.17-2.87-12.43
	c0.07-0.18,0.19-0.35,0.32-0.58c0.29,0.27,0.54,0.49,0.77,0.72c8.77,8.77,17.53,17.55,26.32,26.31
	C59.45,108.69,60.75,112.24,59.75,116.5z M89.44,89.84c0.03,0.01,0.04,0.06,0.13,0.21c-7,4.17-14.41,4.08-22.19,2.42
	c1.45-1.45,2.81-2.82,4.18-4.17c1.12-1.1,2.12-2.78,3.45-3.11c1.25-0.31,2.86,0.8,4.31,1.28C82.69,87.59,86.06,88.71,89.44,89.84z
	 M96.87,52.28C85.86,63.29,74.85,74.31,63.84,85.32c-2.59,2.59-5.2,5.16-7.76,7.79c-0.58,0.6-0.89,0.7-1.53,0.05
	C48,86.56,41.43,80,34.85,73.46c-0.53-0.53-0.72-0.84-0.06-1.44c1.38-1.26,2.69-2.61,3.98-3.97c0.49-0.52,0.74-0.5,1.23,0
	c3.95,4,7.94,7.96,11.91,11.94c2.43,2.43,4.3,2.44,6.71,0.03c8.45-8.45,16.9-16.9,25.36-25.35c0.88-0.88,1.61-1.8,1.56-3.06
	c0.06-1.28-0.48-2.21-1.32-3.04c-4.1-4.08-8.18-8.19-12.29-12.26c-0.56-0.55-0.63-0.85-0.02-1.41c1.34-1.24,2.63-2.55,3.89-3.88
	c0.5-0.53,0.78-0.63,1.36-0.04c6.6,6.65,13.22,13.28,19.88,19.87C97.79,51.57,97.31,51.85,96.87,52.28z M104.51,43.72
	c0,0.33,0.04,0.7-0.09,0.97c-0.6,1.28-1.45,1.41-2.45,0.41c-6.38-6.39-12.77-12.77-19.14-19.17c-0.31-0.32-1.08-0.63-0.74-1.1
	c0.42-0.58,0.84-1.38,1.79-1.36c1.08,0.02,2.16,0,3.75,0c2.32-0.75,4.12,0.69,5.93,2.64c3.26,3.5,6.72,6.82,10.13,10.17
	c0.62,0.61,0.86,1.21,0.83,2.06C104.47,40.14,104.52,41.93,104.51,43.72z M119.07,10.34c-2.77,4.57-5.51,9.17-8.26,13.75
	c-1.04,1.74-2.09,3.48-3.23,5.4c-2.92-2.93-5.77-5.79-8.63-8.63c-0.38-0.38-0.28-0.55,0.12-0.8c6.26-3.75,12.52-7.5,18.76-11.28
	c0.57-0.35,0.77,0.05,1.12,0.31C119.47,9.5,119.37,9.84,119.07,10.34z"/>
</svg>
