<?xml version="1.0" encoding="utf-8"?>
<!-- Generator: Adobe Illustrator 27.9.0, SVG Export Plug-In . SVG Version: 6.00 Build 0)  -->
<svg version="1.1" id="Layer_1" xmlns="http://www.w3.org/2000/svg" xmlns:xlink="http://www.w3.org/1999/xlink" x="0px" y="0px"
	 viewBox="0 0 128 128" style="enable-background:new 0 0 128 128;" xml:space="preserve">
<g>
	<path d="M128,18.2c-0.49,0.24-0.55,0.79-0.77,1.21c-16.06,31.74-32.12,63.49-48.14,95.26c-0.49,0.97-1,1.27-2.06,1.26
		c-20.14-0.04-40.28-0.04-60.42,0c-1.44,0-2.57-0.27-3.47-1.43c-0.42-0.55-0.94-1.01-1.55-1.65c0.59,0,1.03,0,1.47,0
		c20.64,0,41.28-0.01,61.92,0.03c1.44,0,2.24-0.47,2.9-1.79c16.42-32.76,32.88-65.5,49.35-98.24c0.22-0.43,0.29-0.97,0.78-1.22
		C128,13.82,128,16.01,128,18.2z"/>
	<path d="M45,109.81c3.8-7.55,7.49-14.91,11.19-22.26c0.64-1.27,1.29-2.53,1.9-3.81c0.24-0.5,0.51-0.75,1.12-0.75
		c4.49,0.03,8.98,0.02,13.47,0.02c0.21,0.45-0.13,0.73-0.28,1.04c-4.16,8.3-8.33,16.59-12.51,24.88c-0.21,0.43-0.3,0.9-1,0.9
		C54.32,109.8,49.75,109.81,45,109.81z"/>
	<path d="M27.44,109.81c1.45-2.88,2.81-5.56,4.15-8.24c2.93-5.83,5.87-11.64,8.75-17.49c0.41-0.84,0.88-1.11,1.79-1.1
		c4.27,0.05,8.54,0.02,12.82,0.02c0.05,0.53-0.25,0.86-0.43,1.22c-4.13,8.22-8.27,16.44-12.4,24.66c-0.24,0.48-0.37,0.95-1.11,0.94
		C36.57,109.79,32.12,109.81,27.44,109.81z"/>
	<path d="M65.49,128c-16.1,0-32.2,0-48.29,0c-1.43,0-1.73-0.41-1.2-1.79c0.44-1.16,1.3-1.82,2.53-1.95
		c0.37-0.04,0.75-0.01,1.12-0.01c31.36,0,62.73,0.01,94.09-0.03c1.11,0,1.48,0.23,1.43,1.42c-0.1,2.36-0.03,2.36-2.38,2.36
		C97.02,128,81.26,128,65.49,128z"/>
	<path d="M37.57,83.01c-0.54,1.08-0.99,1.97-1.43,2.86c-3.83,7.62-7.68,15.23-11.47,22.87c-0.42,0.86-0.89,1.1-1.79,1.09
		c-4.15-0.05-8.31-0.02-12.47-0.02c-0.15-0.51,0.2-0.82,0.37-1.17c4.12-8.22,8.26-16.43,12.36-24.65c0.37-0.73,0.76-1.01,1.6-1
		C28.93,83.04,33.13,83.01,37.57,83.01z"/>
	<path d="M98.97,31.19c-1.24,2.47-2.45,4.89-3.67,7.31c-2.68,5.35-5.38,10.69-8.04,16.04c-0.37,0.74-0.77,1.11-1.68,1.09
		c-4.36-0.06-8.73-0.03-13.11-0.03c-0.17-0.54,0.21-0.89,0.4-1.27c3.72-7.44,7.46-14.88,11.2-22.31c0.26-0.51,0.45-0.99,1.23-0.98
		c4.41,0.05,8.82,0.02,13.22,0.03C98.65,31.08,98.76,31.13,98.97,31.19z"/>
	<path d="M81.25,31.07c-1.44,2.86-2.77,5.5-4.1,8.14c-2.59,5.15-5.19,10.31-7.77,15.46c-0.24,0.49-0.4,0.95-1.13,0.94
		c-4.44-0.03-8.88-0.02-13.28-0.02c-0.23-0.4,0.04-0.63,0.16-0.87c3.82-7.62,7.65-15.23,11.47-22.85c0.23-0.46,0.41-0.83,1.06-0.83
		C72.11,31.09,76.55,31.07,81.25,31.07z"/>
	<path d="M37.64,55.61c-0.03-0.61,0.26-0.93,0.45-1.29c3.73-7.44,7.48-14.86,11.19-22.31c0.35-0.7,0.72-0.95,1.49-0.94
		c4.24,0.04,8.48,0.02,12.72,0.02c0.11,0.48-0.19,0.76-0.35,1.08c-3.75,7.48-7.53,14.95-11.26,22.44c-0.36,0.73-0.73,1.04-1.58,1.03
		C46.1,55.58,41.9,55.61,37.64,55.61z"/>
	<path d="M12.65,24.36c0.01-5.7,4.71-10.44,10.33-10.43c5.62,0.01,10.33,4.82,10.3,10.49c-0.03,5.71-4.75,10.46-10.35,10.43
		C17.29,34.83,12.63,30.07,12.65,24.36z"/>
	<path d="M88.61,83.01c-1.19,2.39-2.3,4.63-3.42,6.86c-3.19,6.35-6.38,12.7-9.58,19.05c-0.21,0.42-0.29,0.91-0.99,0.91
		c-3.89-0.03-7.78-0.02-11.84-0.02c1.45-2.89,2.84-5.64,4.22-8.38c2.93-5.82,5.87-11.64,8.76-17.48c0.35-0.7,0.73-0.96,1.51-0.95
		C80.97,83.04,84.67,83.01,88.61,83.01z"/>
	<path d="M111.18,6.57c0.05,0.52-0.26,0.85-0.44,1.21c-3.22,6.43-6.47,12.85-9.68,19.29c-0.36,0.73-0.74,1.03-1.59,1.02
		c-4.4-0.05-8.79-0.02-13.17-0.02c-0.11-0.51,0.18-0.81,0.35-1.13c3.24-6.47,6.51-12.92,9.73-19.39c0.36-0.73,0.76-1,1.59-0.99
		C102.37,6.6,106.77,6.57,111.18,6.57z"/>
	<path d="M60.01,79.94c1.76-3.5,3.49-6.93,5.21-10.35c1.69-3.36,3.4-6.71,5.06-10.09c0.31-0.63,0.61-0.95,1.38-0.95
		c4.16,0.04,8.31,0.04,12.47,0c0.98-0.01,1.01,0.23,0.6,1.03c-3.31,6.52-6.6,13.06-9.88,19.6c-0.26,0.52-0.48,0.88-1.17,0.87
		c-4.36-0.03-8.73-0.02-13.09-0.02C60.44,80.04,60.29,79.99,60.01,79.94z"/>
	<path d="M68.55,28.06c0.51-1.03,0.94-1.92,1.38-2.8c2.96-5.9,5.94-11.79,8.87-17.7c0.36-0.72,0.73-1.03,1.58-1.02
		c4.32,0.06,8.64,0.03,12.97,0.03c0.13,0.45-0.17,0.74-0.33,1.05c-3.25,6.5-6.53,13-9.77,19.51c-0.34,0.68-0.71,0.96-1.5,0.96
		C77.41,28.04,73.06,28.06,68.55,28.06z"/>
	<path d="M67.42,58.57c-1.45,2.9-2.8,5.62-4.17,8.34c-2.05,4.07-4.11,8.14-6.16,12.21c-0.22,0.43-0.31,0.93-0.99,0.93
		c-4.49-0.02-8.97-0.01-13.41-0.01c-0.21-0.43,0.06-0.66,0.18-0.9c3.28-6.54,6.57-13.07,9.85-19.61c0.27-0.53,0.46-0.99,1.24-0.99
		C58.35,58.59,62.76,58.57,67.42,58.57z"/>
	<path d="M90.27,55.61c-0.1-0.55,0.19-0.85,0.35-1.17c3.74-7.47,7.5-14.94,11.23-22.42c0.33-0.66,0.69-0.98,1.49-0.97
		c3.73,0.06,7.46,0.02,11.19,0.02c0.07,0.51-0.21,0.81-0.37,1.13c-3.73,7.44-7.48,14.87-11.19,22.32c-0.41,0.83-0.88,1.12-1.8,1.1
		C97.55,55.57,93.93,55.61,90.27,55.61z"/>
	<path d="M51.27,28.06c1.88-3.72,3.68-7.29,5.47-10.87c1.63-3.25,3.26-6.5,4.88-9.76c0.27-0.55,0.54-0.9,1.29-0.89
		c4.15,0.05,8.31,0.02,12.47,0.03c0.15,0,0.3,0.03,0.6,0.07c-0.82,1.61-1.59,3.14-2.35,4.66c-2.67,5.3-5.34,10.6-7.98,15.92
		c-0.29,0.58-0.57,0.88-1.28,0.87C60.07,28.04,55.79,28.06,51.27,28.06z"/>
	<path d="M49.88,58.57c-3.55,7.07-7,13.9-10.42,20.75c-0.3,0.59-0.66,0.74-1.27,0.73c-3.99-0.02-7.98-0.03-11.98,0
		c-0.82,0.01-1.04-0.12-0.61-0.95c3.33-6.56,6.63-13.14,9.93-19.71c0.21-0.41,0.34-0.84,0.94-0.83
		C40.88,58.57,45.27,58.57,49.88,58.57z"/>
	<path d="M127.04,6.57c-3.35,6.69-6.66,13.17-9.83,19.7c-0.68,1.4-1.45,1.89-2.99,1.83c-3.36-0.13-6.73-0.04-10.09-0.04
		c-0.23-0.46,0.12-0.74,0.27-1.05c3.27-6.54,6.57-13.06,9.84-19.6c0.26-0.51,0.46-0.87,1.15-0.87
		C119.22,6.59,123.04,6.57,127.04,6.57z"/>
	<path d="M77.75,80.04c2.52-5.03,4.96-9.87,7.39-14.72c0.99-1.98,2-3.95,2.96-5.94c0.29-0.59,0.63-0.85,1.33-0.84
		c3.49,0.05,6.98,0.05,10.48,0c0.99-0.01,0.88,0.3,0.54,0.98c-3.32,6.57-6.62,13.15-9.93,19.73c-0.24,0.47-0.45,0.81-1.08,0.81
		C85.62,80.02,81.8,80.04,77.75,80.04z"/>
	<path d="M118.28,43.86c0,9.61,0.02,18.93-0.01,28.25c-0.01,3-2.32,5.27-5.21,5.31c-2.98,0.04-5.34-2.14-5.47-5.2
		c-0.1-2.32-0.04-4.64-0.02-6.96c0-0.32,0.12-0.66,0.26-0.95c3.35-6.65,6.72-13.29,10.08-19.94
		C117.96,44.28,118.04,44.19,118.28,43.86z"/>
	<path d="M115.19,100.84c0,6.4-0.02,12.81,0.02,19.21c0.01,0.93-0.19,1.22-1.15,1.2c-2.59-0.06-2.59-0.01-2.59-2.6
		c0-12.3,0.01-24.6-0.02-36.9c0-1.02,0.18-1.49,1.26-1.3c0.32,0.06,0.66,0.02,1-0.01c1.49-0.13,1.49-0.14,1.49,1.44
		C115.19,88.2,115.19,94.52,115.19,100.84z"/>
	<path d="M11.83,10.08c-0.63,0.6-1.24,1.29-1.97,1.81c-0.52,0.37-0.73-0.34-1.02-0.6c-0.77-0.7-1.51-1.43-2.22-2.2
		C6.3,8.75,5.54,8.44,5.83,7.99c0.48-0.76,1.24-1.33,1.9-1.96c0.04-0.04,0.3,0.08,0.41,0.19c1.12,1.11,2.24,2.24,3.35,3.36
		C11.57,9.66,11.62,9.78,11.83,10.08z"/>
	<path d="M24.36,3.01c0,0.29,0,0.59,0,0.88c0,1.91,0,1.85-1.86,1.93c-0.96,0.04-1.29-0.22-1.23-1.22c0.08-1.21,0.02-2.44-0.05-3.65
		c-0.04-0.73,0.23-0.92,0.92-0.94C24.35-0.04,24.35-0.07,24.36,3.01z"/>
	<path d="M33.97,36.37c0.48-0.39,1.03-0.71,1.42-1.18c0.59-0.7,1.02-0.87,1.69-0.06c0.78,0.92,1.66,1.77,2.57,2.56
		c0.62,0.54,0.49,0.85-0.03,1.38c-1.51,1.52-1.48,1.54-3.01,0.02c-0.68-0.68-1.36-1.36-2.03-2.04
		C34.44,36.9,34.31,36.74,33.97,36.37z"/>
	<path d="M2.92,24.77c-0.21,0-0.41,0-0.62,0c-2.35,0-2.5-0.2-2.18-2.61c0.06-0.46,0.24-0.54,0.62-0.53c1.45,0.01,2.9,0.02,4.35,0
		c0.53-0.01,0.69,0.19,0.74,0.73c0.19,2.41,0.21,2.41-2.16,2.41C3.42,24.77,3.17,24.77,2.92,24.77z"/>
	<path d="M42.91,24.77c-0.25,0-0.5,0-0.75,0c-2.09,0-2.05,0-2.08-2.11c-0.01-0.82,0.2-1.1,1.03-1.05c1.24,0.07,2.49,0.06,3.74,0
		c0.77-0.03,0.98,0.22,0.98,1c-0.01,2.16,0.03,2.16-2.05,2.16C43.49,24.77,43.2,24.77,42.91,24.77z"/>
	<path d="M24.61,43.48c0,0.42-0.06,0.85,0.01,1.26c0.24,1.34-0.34,1.61-1.58,1.63c-1.19,0.02-1.6-0.25-1.49-1.49
		c0.11-1.12,0.03-2.27-0.02-3.4c-0.03-0.62,0.11-0.88,0.8-0.9c2.27-0.09,2.27-0.12,2.27,2.15C24.61,42.98,24.61,43.23,24.61,43.48z"
		/>
	<path d="M11.94,36.7c-1.19,1.15-2.4,2.29-3.57,3.47c-0.4,0.41-0.62,0.32-1-0.03c-1.75-1.6-1.76-1.59-0.15-3.23
		c0.18-0.18,0.35-0.36,0.53-0.53C9.81,34.3,9.81,34.3,11.94,36.7z"/>
	<path d="M35.98,12.17c-0.59-0.71-1.22-1.38-1.74-2.12c-0.37-0.52,0.27-0.7,0.51-0.96c0.85-0.92,1.79-1.75,2.61-2.69
		c0.54-0.63,0.82-0.48,1.32,0.03c1.5,1.55,1.52,1.53,0.04,3.03c-0.64,0.65-1.29,1.31-1.93,1.96C36.6,11.58,36.42,11.75,35.98,12.17z
		"/>
</g>
</svg>
