<?xml version="1.0" encoding="utf-8"?>
<!-- Generator: Adobe Illustrator 27.9.0, SVG Export Plug-In . SVG Version: 6.00 Build 0)  -->
<svg version="1.1" id="Layer_1" xmlns="http://www.w3.org/2000/svg" xmlns:xlink="http://www.w3.org/1999/xlink" x="0px" y="0px"
	 viewBox="0 0 128 128" style="enable-background:new 0 0 128 128;" xml:space="preserve">
<style type="text/css">
	.st0{fill:#3C3C3B;}
</style>
<g>
	<path class="st0" d="M121.56,88.22c-0.56-1.82-1.8-3.32-3.49-4.21s-3.62-1.07-5.45-0.51c-1.41,0.43-2.61,1.28-3.5,2.42L97.3,79.68
		c1.05-3.24-0.32-6.87-3.44-8.52c-0.87-0.46-1.8-0.73-2.75-0.81l-0.6-15.93c2.14-0.39,3.97-1.73,5.01-3.68
		c1.84-3.48,0.49-7.82-3-9.66c-3.22-1.7-7.15-0.66-9.18,2.27l-12.26-6.47c1.27-3.32-0.08-7.15-3.3-8.85
		c-0.79-0.42-1.64-0.67-2.51-0.77l0.11-13.21c0.12-0.03,0.23-0.04,0.35-0.08c1.82-0.56,3.32-1.8,4.21-3.49
		c1.84-3.49,0.5-7.82-2.98-9.66c-3.49-1.85-7.82-0.5-9.66,2.98c-1.84,3.48-0.5,7.82,2.98,9.66c0.8,0.42,1.66,0.68,2.54,0.78
		l-0.11,13.19c-0.13,0.03-0.25,0.04-0.38,0.08c-1.82,0.56-3.31,1.8-4.21,3.49c-0.81,1.53-1,3.25-0.63,4.9l-14.45,9.07
		c-0.6-0.74-1.35-1.36-2.2-1.81c-1.69-0.89-3.62-1.07-5.45-0.52c-1.83,0.56-3.33,1.8-4.22,3.49c-0.89,1.69-1.07,3.63-0.5,5.45
		c0.57,1.82,1.81,3.32,3.5,4.21c0.85,0.45,1.78,0.71,2.74,0.79l0.63,16.5c-1.86,0.52-3.43,1.73-4.35,3.48
		c-0.9,1.71-1.03,3.63-0.52,5.35l-11.61,7.93c-0.63-0.87-1.44-1.62-2.42-2.14c-1.69-0.89-3.62-1.07-5.45-0.51
		c-1.82,0.56-3.32,1.8-4.21,3.49c-1.84,3.49-0.5,7.82,2.98,9.66c1.06,0.56,2.2,0.83,3.32,0.83c2.57,0,5.05-1.39,6.33-3.81
		c0.85-1.61,1.03-3.44,0.56-5.19l11.66-7.96c0.61,0.8,1.38,1.5,2.33,2c1.05,0.55,2.19,0.84,3.35,0.84c0.7,0,1.41-0.1,2.1-0.32
		c1.55-0.47,2.84-1.46,3.75-2.77l12.26,6.47c-0.57,1.49-0.66,3.11-0.19,4.65c0.56,1.82,1.8,3.31,3.49,4.2
		c1.06,0.56,2.2,0.83,3.32,0.83c2.56,0,5.05-1.38,6.33-3.8v0c0.92-1.74,1.04-3.72,0.43-5.54l14-8.82c0.6,0.74,1.3,1.39,2.17,1.85
		c1.06,0.56,2.2,0.83,3.32,0.83c2.13,0,4.2-0.97,5.58-2.69l11.83,6.25c-0.44,1.38-0.46,2.85-0.02,4.26c0.56,1.82,1.8,3.32,3.49,4.21
		c1.06,0.56,2.2,0.83,3.33,0.83c2.57,0,5.05-1.39,6.33-3.81v0C121.94,91.98,122.12,90.04,121.56,88.22z M19.36,96.17
		c-1.18,2.24-3.97,3.1-6.2,1.92c-2.24-1.18-3.1-3.97-1.92-6.2c0.57-1.08,1.53-1.88,2.71-2.24c0.45-0.14,0.91-0.21,1.36-0.21
		c0.74,0,1.47,0.18,2.14,0.53c0.61,0.32,1.12,0.78,1.52,1.31l-0.09,0.06l0.68,1c0.04,0.11,0.1,0.21,0.14,0.32
		C20.05,93.85,19.94,95.09,19.36,96.17z M67.6,86.66c-1.69-0.89-3.62-1.08-5.44-0.51c-1.54,0.48-2.83,1.46-3.74,2.78l-12.26-6.47
		c0.57-1.49,0.66-3.11,0.18-4.66c-0.18-0.58-0.45-1.1-0.75-1.6l12.61-8.61c0.63,0.9,1.45,1.68,2.48,2.22
		c1.06,0.56,2.2,0.83,3.33,0.83c2.14,0,4.21-0.97,5.58-2.69l14.13,7.46c-0.52,1.69-0.4,3.52,0.35,5.13l-13.75,8.66
		C69.66,88.14,68.73,87.25,67.6,86.66z M43.83,52.82L43.83,52.82c1.05-1.99,1.08-4.37,0.13-6.39l14.12-8.87
		c0.66,1.31,1.7,2.39,3.04,3.1c0.48,0.25,0.98,0.44,1.48,0.58l-0.13,15.3c-1.97,0.44-3.75,1.68-4.77,3.6
		c-0.86,1.63-1,3.43-0.58,5.08l-13.24,9.04c-0.32-0.25-0.66-0.48-1.03-0.68c-1.11-0.59-2.37-0.86-3.61-0.81l-0.62-16.25
		C40.83,56.18,42.78,54.81,43.83,52.82z M82.36,49.52c0.56,1.82,1.8,3.31,3.49,4.21c0.92,0.48,1.93,0.75,2.96,0.81l0.59,15.89
		c-1.79,0.29-3.41,1.27-4.52,2.7l-14.09-7.44c1.05-3.24-0.33-6.88-3.44-8.53c-0.75-0.4-1.54-0.62-2.34-0.73l0.13-14.99
		c0.47-0.05,0.94-0.12,1.41-0.27c1.54-0.48,2.83-1.46,3.73-2.78l12.26,6.47C81.97,46.36,81.88,47.97,82.36,49.52z M64.02,58.89
		c0.72,0,1.45,0.17,2.13,0.53c2.24,1.18,3.1,3.97,1.92,6.2c-1.18,2.24-3.97,3.1-6.2,1.92c-1.08-0.57-1.88-1.53-2.24-2.71
		c-0.36-1.17-0.24-2.41,0.33-3.5C60.78,59.78,62.37,58.89,64.02,58.89z M89.19,42.82c0.72,0,1.45,0.17,2.13,0.53
		c2.25,1.19,3.11,3.97,1.93,6.21c-0.74,1.41-2.14,2.32-3.73,2.43c-0.88,0.05-1.71-0.12-2.48-0.52c-1.09-0.57-1.88-1.53-2.24-2.7
		c-0.36-1.17-0.24-2.41,0.33-3.5C85.95,43.71,87.54,42.82,89.19,42.82z M61.48,11.21c-2.24-1.18-3.1-3.97-1.92-6.2
		c0.82-1.56,2.42-2.45,4.07-2.45c0.72,0,1.45,0.17,2.13,0.53c1.08,0.57,1.88,1.53,2.24,2.71c0.36,1.17,0.24,2.41-0.33,3.5v0
		c-0.57,1.08-1.53,1.88-2.7,2.24c-0.17,0.05-0.34,0.07-0.5,0.1l-1.63-0.01l0,0.03C62.38,11.57,61.92,11.44,61.48,11.21z
		 M60.39,32.21c0.57-1.09,1.53-1.88,2.7-2.24c0.45-0.14,0.9-0.21,1.35-0.21c0.74,0,1.47,0.18,2.14,0.54
		c2.24,1.18,3.09,3.96,1.91,6.19v0c-0.57,1.08-1.53,1.88-2.7,2.24c-1.17,0.36-2.41,0.24-3.49-0.33c-1.09-0.58-1.89-1.53-2.25-2.7
		C59.69,34.54,59.81,33.3,60.39,32.21z M33.12,50.83c-0.37-1.17-0.25-2.41,0.32-3.5c0.82-1.55,2.41-2.44,4.06-2.44
		c0.73,0,1.46,0.17,2.15,0.53c0.72,0.38,1.3,0.92,1.73,1.6c0.89,1.42,0.95,3.13,0.18,4.6c-0.77,1.46-2.23,2.37-3.89,2.44
		c-0.83,0.02-1.59-0.15-2.3-0.53C34.28,52.97,33.48,52.01,33.12,50.83z M37.37,83.96c-2.24-1.18-3.09-3.96-1.91-6.2
		c0.66-1.25,1.83-2.11,3.22-2.36c0.28-0.05,0.57-0.08,0.85-0.08c0.73,0,1.46,0.18,2.12,0.53c2.25,1.18,3.11,3.97,1.93,6.21
		C42.4,84.29,39.62,85.14,37.37,83.96z M68.32,95.12c-1.18,2.23-3.96,3.09-6.2,1.91c-2.23-1.18-3.09-3.96-1.91-6.19
		c0.57-1.09,1.53-1.88,2.7-2.24c0.45-0.14,0.9-0.21,1.35-0.21c0.74,0,1.47,0.18,2.14,0.54c0.93,0.49,1.66,1.27,2.06,2.22
		C69.04,92.42,68.98,93.87,68.32,95.12z M88.39,81.54c-0.73-0.39-1.32-0.93-1.75-1.61c-0.86-1.38-0.93-3.14-0.16-4.59
		c0.76-1.45,2.25-2.39,3.87-2.45c0.05,0,0.11,0,0.16,0c0.75,0,1.48,0.18,2.16,0.54c2.05,1.08,2.92,3.5,2.15,5.62l-0.58,1.1
		C92.92,81.97,90.44,82.62,88.39,81.54z M118.79,92.47c-0.57,1.08-1.53,1.88-2.71,2.24c-1.17,0.36-2.41,0.25-3.5-0.33
		c-1.08-0.57-1.88-1.53-2.24-2.7c-0.36-1.17-0.24-2.41,0.33-3.5c0.57-1.08,1.53-1.88,2.71-2.24c0.45-0.14,0.91-0.21,1.36-0.21
		c0.74,0,1.47,0.18,2.14,0.53c1.08,0.57,1.88,1.53,2.24,2.7C119.48,90.15,119.36,91.39,118.79,92.47z"/>
	<path class="st0" d="M109.18,39.28c1.06,0.56,2.2,0.83,3.33,0.83c2.57,0,5.05-1.39,6.33-3.81v0c1.84-3.48,0.5-7.82-2.98-9.66
		c-1.69-0.89-3.62-1.07-5.45-0.51c-1.82,0.56-3.32,1.8-4.21,3.49C104.35,33.11,105.69,37.44,109.18,39.28z M108.45,30.82
		c0.57-1.08,1.53-1.88,2.7-2.24c0.45-0.14,0.91-0.21,1.36-0.21c0.74,0,1.47,0.18,2.14,0.53c2.24,1.18,3.1,3.97,1.92,6.2
		c-1.18,2.24-3.97,3.1-6.2,1.92c-1.08-0.57-1.88-1.53-2.24-2.71C107.76,33.14,107.88,31.9,108.45,30.82z"/>
	<path class="st0" d="M13.26,43.84c0.71,0,1.42-0.11,2.12-0.32c1.82-0.56,3.32-1.8,4.21-3.49c1.84-3.49,0.5-7.82-2.98-9.66
		c-3.48-1.84-7.82-0.5-9.66,2.98c-0.89,1.69-1.07,3.62-0.51,5.45c0.56,1.82,1.8,3.32,3.49,4.21C10.98,43.56,12.11,43.84,13.26,43.84
		z M8.88,38.04c-0.36-1.17-0.25-2.41,0.33-3.5c0.82-1.56,2.42-2.45,4.07-2.45c0.72,0,1.45,0.17,2.13,0.53
		c2.24,1.18,3.1,3.97,1.92,6.2c-0.57,1.08-1.53,1.88-2.71,2.24c-1.17,0.36-2.41,0.25-3.5-0.33C10.04,40.18,9.25,39.21,8.88,38.04z"
		/>
	<path class="st0" d="M69.44,114.53c-1.69-0.89-3.62-1.07-5.45-0.51c-1.82,0.56-3.32,1.8-4.21,3.49c-1.84,3.49-0.5,7.82,2.98,9.66
		c1.06,0.56,2.2,0.83,3.32,0.83c2.57,0,5.05-1.39,6.33-3.81v0c0.89-1.69,1.07-3.62,0.51-5.45
		C72.37,116.92,71.13,115.42,69.44,114.53z M70.17,123c-1.18,2.24-3.97,3.09-6.2,1.92c-1.08-0.57-1.88-1.53-2.24-2.71
		c-0.36-1.17-0.24-2.41,0.33-3.5c0.57-1.08,1.53-1.88,2.7-2.24c0.45-0.14,0.91-0.21,1.36-0.21c0.74,0,1.47,0.18,2.14,0.53
		c1.08,0.57,1.88,1.53,2.24,2.7C70.85,120.67,70.74,121.91,70.17,123z"/>
</g>
</svg>
