<?xml version="1.0" encoding="utf-8"?>
<!-- Generator: Adobe Illustrator 28.0.0, SVG Export Plug-In . SVG Version: 6.00 Build 0)  -->
<svg version="1.1" id="Layer_1" xmlns="http://www.w3.org/2000/svg" xmlns:xlink="http://www.w3.org/1999/xlink" x="0px" y="0px"
	 viewBox="0 0 128 128" style="enable-background:new 0 0 128 128;" xml:space="preserve">
<g id="bsmWkt.tif">
	<g>
		<path d="M58.9,127.9C48,123.2,44.1,114.7,45,103.2c0.5-5.5,1-11.2-5.1-14.8c-2-1.2-3.4-2.2-6.1-1.6c-6.2,1.4-11.1-4.2-9.6-10.3
			c1.3-5.3-0.3-7.5-5.5-7.6c-6.5-0.1-10.4-6.5-7.6-12.3c2.2-4.4,0.5-8.3-4.3-9.2c-3.3-0.6-5-3-6.8-5.3c0-2,0-4,0-6
			c1.3-1.7,4.1-3,3.7-5.3C2.8,24.8,1.3,19,0,13.1c0-4.3,0-8.7,0-13C3.3-0.3,3.2,2,3.4,4.2c0.5,8,1.1,15.9,3.3,23.6
			c0.5,2,1.1,2.9,3.3,3.4c6.2,1.5,8.2,7.4,4.9,12.9c-2.2,3.7-0.5,7.4,3.6,8c6.8,1,9.6,5.7,7.3,12.1c-1.3,3.6,1.2,6.7,5,6.3
			c5.6-0.6,10.9,3.6,9.6,8.5c-1.3,5.1,1.4,6.9,4.9,9.3c3.1-9.4,9.3-15.2,19.2-14.9c9.3,0.3,15.1,5.9,17.9,15c3.1-2.6,6.5-4,4.9-9.3
			c-1.4-4.9,3.9-9.4,9.4-8.8c4.2,0.4,6.5-2.5,5.1-6.4c-2.2-6,0.8-10.9,7.2-11.9c4.5-0.7,6.1-4.2,3.7-8.2c-3.3-5.5-1.1-11.1,5.2-12.7
			c2-0.5,2.6-1.3,3-3.1c1.5-6.1,2.7-12.3,3-18.7c0.1-2.2,0.3-4.3,0.5-6.5c0.1-1.1-0.1-2.6,1.6-2.7c2-0.1,1.7,1.7,1.7,2.9
			c0.1,8-1,15.9-2.9,23.7c-0.7,2.7-1.1,4.9,1.2,7.6c4,4.7,1.2,11.1-4.9,12.7c-5.1,1.3-6.8,4.8-4.5,9.6c2.8,5.8-1.4,12.1-7.9,12
			c-4.4,0-6.6,2.8-5.5,7c1.9,6.7-2.9,12.1-9.7,11c-4.1-0.7-10.7,4.6-10.8,8.8c-0.1,2.7-0.2,5.3,0,8c1,11.4-3.2,19.6-13.9,24.3
			C65.6,127.9,62.2,127.9,58.9,127.9z M69.1,100.8c0-2.7,0.1-5.3,0-8c-0.1-3.1-1.9-4.9-5-4.9c-3.1,0-5.1,1.5-5.2,4.7
			c-0.1,5.5-0.2,10.9,0,16.4c0.1,3.2,2.3,4.9,5.2,4.8c2.9-0.1,4.9-1.9,5-5.1C69.2,106.1,69.1,103.4,69.1,100.8z M62.2,117
			c-0.5-0.1-1-0.2-1.5-0.3c-3.1-0.5-4.7,2.1-5.4,4.1c-0.8,2.1,2.2,2.4,3.7,2.9c3.9,1.3,7.7,1,11.5-0.7c2.7-1.2,2.2-2.1,0.7-4.2
			C68.6,115.1,65.1,117.8,62.2,117z M64.1,76.8c-2.1-0.1-4,0.6-5.9,1.3c-3,1.1-4.3,2.4-1.1,5c1.4,1.1,10.9,2.4,12.2,1.2
			c1.3-1.2,3.5-2.1,3.1-4c-0.3-1.6-2.5-2-4.1-2.4C67,77.3,65.5,77.1,64.1,76.8z M48.7,93.6c1.1,1.6-2.2,5.3,2.8,5.5
			c5.2,0.3,2.9-3.4,3.5-5.7c0.3-1.3,0.4-2.6,0.9-3.8c1.5-3.3-1.3-4.8-3.1-5.7c-2.3-1.2-2.4,1.7-3.2,3.1
			C48.6,88.9,48.9,91.1,48.7,93.6z M79,91.9c-0.1-0.5-0.1-2.6-0.7-4.4c-0.5-1.6-0.7-4.7-3.3-3.6c-1.9,0.9-4.9,2.6-3,6.1
			c1.2,2.1,0.8,4.5,0.7,6.8c0,2.2,1.3,2.3,2.9,2.3c1.6-0.1,3.5,0.4,3.4-2.2C79,95.6,79,94.5,79,91.9z M48.8,109
			c0.1,1.6-0.1,3.8,1,5.8c0.7,1.3,0.8,4,3,2.9c1.6-0.9,4.6-2.2,3.3-5.2c-1-2.4-1.1-4.8-1-7.3c0.1-2.1-1.1-2.5-2.8-2.5
			c-1.6,0.1-3.5-0.3-3.4,2.3C48.8,106.1,48.8,107.2,48.8,109z M79.1,108.2c0-0.5,0-1,0-1.5c0.1-2.3,0.2-4.2-3.2-4.2
			c-3.5,0-3.1,2.1-3,4.3c0.1,1.9-0.2,3.6-0.9,5.3c-1.4,3.4,1.6,4.7,3.5,5.5c2,0.9,2.1-1.8,2.8-3.2C79.2,112.5,78.9,110.3,79.1,108.2
			z M13,39.6c0-3.2-1.8-5-4.5-5.2c-2.8-0.2-4.9,1.5-5,4.4c-0.2,3,1.5,5.2,4.7,5.2C11.1,44.1,12.6,42.2,13,39.6z M124.4,39.4
			c-0.3-3.3-2.1-5.1-4.9-5c-2.7,0.1-4.7,1.7-4.7,4.7c0,3.2,1.9,5,5,4.9C122.8,43.9,124.1,41.8,124.4,39.4z M37.1,78.5
			c-0.3-2.4-1.5-4.4-4.5-4.5c-3.3-0.1-5,1.7-5,4.8c0,2.9,1.7,4.7,4.7,4.6C35.1,83.4,36.8,81.8,37.1,78.5z M100.3,78.6
			c-0.2-2.4-1.4-4.5-4.4-4.6c-3.2-0.1-5,1.5-5.1,4.7c-0.1,3,1.8,4.6,4.6,4.7C98.3,83.5,100,81.9,100.3,78.6z M23.1,60.8
			c0-3-1.4-4.8-4.4-5c-2.9-0.2-4.8,1.2-5,4.2c-0.2,3.1,1.3,5,4.5,5.1C21.3,65.2,22.8,63.6,23.1,60.8z M114.1,60.4
			c-0.2-3-1.8-4.6-4.7-4.6c-2.9,0-4.6,1.6-4.6,4.6c0,3.2,1.7,4.9,4.9,4.8C112.6,65.1,113.9,63.2,114.1,60.4z"/>
	</g>
</g>
</svg>
