<?xml version="1.0" encoding="utf-8"?>
<!-- Generator: Adobe Illustrator 28.0.0, SVG Export Plug-In . SVG Version: 6.00 Build 0)  -->
<svg version="1.1" id="Layer_1" xmlns="http://www.w3.org/2000/svg" xmlns:xlink="http://www.w3.org/1999/xlink" x="0px" y="0px"
	 viewBox="0 0 128 128" style="enable-background:new 0 0 128 128;" xml:space="preserve">
<g id="wsyiZq.tif">
	<g>
		<path d="M107.4,81.1c-3.9-3.8-7.8-7.8-11.7-11.6c-4.1-4.1-5.3-4.1-9.4,0C78.8,77,71.3,84.5,63.7,92c-4.9,4.8-10.8,7.1-17.7,5.6
			c-7.6-1.6-12.8-6.1-15.1-13.7c-2.3-7.6-0.3-14.1,5.1-19.6c7.5-7.6,15.1-15.1,22.6-22.6c4-4,4-5.3-0.1-9.4
			c-3.9-3.9-7.8-7.7-11.6-11.7c-2.6-2.7-5-2.6-7.7,0.1c-5,5.1-10,10.3-15.2,15.2C13,46,3.3,56.8,0,72v16c0.8,19.1,20.7,38.8,40,40
			h15c9.7-2.4,18.9-5.9,26.2-13.1c8.8-8.7,17.4-17.4,26.2-26.1C110,86.1,110.1,83.7,107.4,81.1z M38.5,32.5c1.3-1.7,2.9-3.2,4.4-4.9
			c3.2,3.3,6.4,5.8,8.6,9c1,1.5-2,2.6-3,4.1c-1.2,1.7-2.3,1.2-3.5-0.2c-1.7-1.8-3.6-3.5-5.2-5.3C39.1,34.5,37.4,34,38.5,32.5z
			 M82.7,102.5c-7.5,7.7-15.2,14.8-26.3,16.9c-2.8,0.5-5.6,0.5-9.2,0.8c-16-0.6-28.6-8.2-35.6-23.5C4.6,81.7,6.6,67,17.3,54
			c4-4.9,8.8-9.1,13.2-13.7c1.4-1.5,2.2-1.2,3.6,0.1c7.9,6.9,8,6.9,0.7,14.2c-5.4,5.3-10.5,10.6-11.9,18.5
			c-2.1,11.8,3,23.2,13.5,29.1c10.3,5.8,22.7,4.5,31.5-3.4c3.5-3.1,6.7-6.5,9.9-9.8c1.6-1.7,2.6-2.3,4.7-0.3
			C89.5,95.6,89.5,95.4,82.7,102.5z M95.4,89.6c-1.5,1-1.8-0.9-2.7-1.4C92.4,88,92,87.8,92,87.5c-0.7-3.3-9.4-3.6-3.6-9.1
			c5.7-5.4,5.8,3.2,9.1,4c1.1,0.3,2,1.1,4,2.3C98.8,86.9,97.2,88.4,95.4,89.6z"/>
		<path d="M79.6,17.6c-2.5-2.2-4.5-3.7-6.2-5.5C71,9.5,71.6,7,74.7,5.7c4.7-2,9.5-3.8,14.4-5.4c2-0.7,4.1-0.1,4.8,2.3
			c0.7,2.2,0,4-2.2,4.9c-2.6,1.1-5.2,2-8,3.1c0.7,2.6,3.1,3.7,4.7,5.6c2.7,3.3,2.3,5.9-1.6,7.3c-4.5,1.6-9.1,3.1-13.7,4.4
			c-2.4,0.7-4.8,0.3-5.5-2.6c-0.7-2.6,1.1-4,3.2-4.8C73.3,19.4,75.9,18.7,79.6,17.6z"/>
		<path d="M115.5,45c2.6,1.9,4.8,3.2,6.5,5c3,3.1,2.5,5.7-1.5,7.2c-4.6,1.7-9.4,3.1-14.1,4.6c-2.5,0.8-4.4-0.3-5.2-2.6
			c-0.8-2.5,0.7-4.1,3-4.9c2.5-0.9,5-1.6,7.8-2.4c-0.9-2.5-3.1-3.7-4.6-5.5c-2.6-3-2.2-5.5,1.4-7c4.2-1.8,8.6-3.4,13-4.9
			c2.3-0.8,4.9-0.9,5.9,2c1,2.7-0.6,4.4-3.1,5.3C122.1,42.5,119.7,43.4,115.5,45z"/>
		<path d="M111.8,17.7c-2.3-2-3.9-3.1-5.2-4.6c-3.5-3.6-3-6.1,1.5-7.9c4.1-1.7,8.3-3.2,12.5-4.7c2.5-0.9,4.7-0.6,5.7,2.2
			c0.9,2.6-0.7,4.1-2.8,5c-2.4,1.1-4.9,1.9-7.7,2.9c1,2.7,3.4,4,5.1,5.9c2.5,3,2,5.6-1.7,7c-4.5,1.7-9.1,3-13.7,4.4
			c-2.2,0.6-4.5,0.5-5.4-2.1c-0.9-2.7,0.5-4.5,3-5.4C105.6,19.5,108.1,18.8,111.8,17.7z"/>
	</g>
</g>
</svg>
