<?xml version="1.0" encoding="utf-8"?>
<!-- Generator: Adobe Illustrator 28.0.0, SVG Export Plug-In . SVG Version: 6.00 Build 0)  -->
<svg version="1.1" id="Layer_1" xmlns="http://www.w3.org/2000/svg" xmlns:xlink="http://www.w3.org/1999/xlink" x="0px" y="0px"
	 viewBox="0 0 128 128" style="enable-background:new 0 0 128 128;" xml:space="preserve">
<g>
	<path d="M36.4,30.7c-0.2,1.8,0.2,3.5,1.2,5.1c0.9,1.5,2,3.4,4.1,2.2c1.9-1,1.1-2.8,0.1-4.1c-2-3-0.5-5.4,1.2-7.7
		c2.7-3.8,2.6-7.6,0.3-11.4c-0.8-1.3-1.8-2.4-3.4-1.7c-1.7,0.8-1.6,2.3-0.7,3.5c2.4,3.3,1.1,6-1,8.7C36.8,26.9,36.1,28.6,36.4,30.7z
		 M83.3,31c-0.2,1.8,0.4,3.4,1.3,5c0.8,1.4,1.8,3,3.7,2.1c2.1-0.9,1.5-2.6,0.5-4C86.6,31,88.3,28.5,90,26c2.7-4,2.4-8-0.3-11.8
		c-0.8-1.2-1.9-1.6-3.2-1c-1.1,0.6-1.5,1.9-0.8,2.7c3.1,4,1,7.3-1.3,10.5C83.3,27.7,83.2,29.3,83.3,31z"/>
	<path d="M128,81.1c-3.3,3.4-7.7,4.8-12.2,5.7c-3.8,0.8-5.2,2.5-5,6.5c0.3,7.6,0.1,15.3,0.1,22.9c0,8.2-3.5,11.8-11.5,11.8
		c-23.6,0-47.2,0-70.8,0c-7.7,0-11.4-3.7-11.4-11.4c0-8-0.1-16,0.1-24c0.1-3.1-0.6-5-4-5.6c-2.8-0.5-5.4-1.5-8.1-2.5
		C1,83-0.8,79.8,0.3,75.7c1.1-4.2,4.4-5.8,8.7-5.2c0.9,0.1,1.7,0.7,2.5,0.7c1.9,0,4,2.5,5.3,0.5c1.2-1.9-1.8-2.6-2.7-4
		c-2.5-3.7-1.2-8.7,3.3-9.9c2.4-0.6,4-1.9,5.7-3.4c8.2-7.7,17.8-12.9,28.9-14.9c3-0.6,3.7-1.3,2.8-4.4c-1.8-6.2-0.6-7.4,6-7.4
		c1.4,0,2.8,0,4.3,0c9.1,0,9.2,0,7.9,8.8c-0.3,2.1,0.5,2.5,2,2.8c12.5,2.1,23,8,31.8,16.9c0.2,0.3,0.5,0.5,0.8,0.7
		c8.1,5.1,8.1,5.1,3.8,13.3c-0.3,0.6-0.6,1.3,0,1.9c0.8,0.7,1.7,0.2,2.5-0.1c5.3-2.2,10.3-2.8,14.2,2.7C128,76.8,128,78.9,128,81.1z
		 M64.3,70.8c-12.6,0-25.2,0.1-37.8-0.1c-3.2,0-4.9,0.4-4.8,4.3c0.2,13.7,0,27.4,0.1,41c0,5.2,2.2,7.3,7.6,7.3
		c23.1,0.1,46.2,0.1,69.3,0c5.5,0,7.6-2.2,7.6-7.8c0.1-13.3-0.1-26.6,0.1-40c0.1-3.7-1-4.9-4.8-4.8C89.2,70.9,76.7,70.8,64.3,70.8z
		 M28.1,56.9c24.3,0,47.9,0,71.9,0C79.7,38.6,48.5,38.6,28.1,56.9z"/>
	<path d="M66.2,0c2.6,5.4,3.3,10.6-1.1,15.6c-1.7,1.9-0.7,4,0.4,5.9c0.8,1.3,1.2,2.8-0.3,3.7c-1.8,1.1-2.9-0.2-3.9-1.6
		c-1.8-2.7-2.7-6.3-1-8.5c3.9-5,3.1-9.8,1.6-15.1C63.3,0,64.7,0,66.2,0z"/>
	<path d="M36.4,30.7c-0.2-2.1,0.5-3.8,1.7-5.4c2-2.7,3.3-5.4,1-8.7c-0.9-1.2-1-2.8,0.7-3.5c1.7-0.7,2.7,0.4,3.4,1.7
		c2.3,3.8,2.4,7.7-0.3,11.4c-1.7,2.4-3.2,4.7-1.2,7.7c0.9,1.4,1.8,3.1-0.1,4.1c-2.1,1.2-3.1-0.7-4.1-2.2
		C36.6,34.2,36.2,32.5,36.4,30.7z"/>
	<path d="M83.3,31c-0.1-1.7,0-3.3,1-4.6c2.4-3.3,4.5-6.5,1.3-10.5c-0.6-0.8-0.3-2.1,0.8-2.7c1.3-0.7,2.4-0.2,3.2,1
		C92.4,18,92.7,22,90,26c-1.7,2.6-3.4,5-1.2,8.2c1,1.4,1.5,3.1-0.5,4c-1.9,0.9-2.9-0.8-3.7-2.1C83.6,34.5,83,32.8,83.3,31z"/>
	<path d="M102.8,102.9c0,2.5,0.1,5,0,7.4c-0.3,4.9-4.2,9.2-9,9.4c-4.6,0.3-9.2,0.1-13.8,0.1c-1.7,0-3.3-0.3-3.3-2.5
		c0-2.2,1.7-2.4,3.3-2.4c3.5,0,7.1,0,10.6,0c4.7-0.1,7.1-2.6,7.2-7.3c0-4.2,0-8.5,0-12.7c0-1.7,0.4-3.3,2.5-3.3
		c2.2,0.1,2.4,1.7,2.4,3.4C102.8,97.6,102.8,100.2,102.8,102.9z"/>
</g>
</svg>
