<?xml version="1.0" encoding="utf-8"?>
<!-- Generator: Adobe Illustrator 28.0.0, SVG Export Plug-In . SVG Version: 6.00 Build 0)  -->
<svg version="1.1" id="Layer_1" xmlns="http://www.w3.org/2000/svg" xmlns:xlink="http://www.w3.org/1999/xlink" x="0px" y="0px"
	 viewBox="0 0 128 128" style="enable-background:new 0 0 128 128;" xml:space="preserve">
<g>
	<path d="M36.8,18.2c0.1-1,1-1.6,2.1-1.6c1.1,0.2,1.7,0.9,1.7,1.9c0,1.1-0.7,1.8-1.8,1.8C37.4,20.3,36.6,19.6,36.8,18.2z"/>
	<path d="M43.5,59.9c-0.2,1.1-0.7,2-1.9,1.9c-1.4-0.1-2.1-1.1-1.9-2.3c0.1-1,1-1.6,2.2-1.5C43.1,58.1,43.5,58.8,43.5,59.9z"/>
	<path d="M73.4,60c-0.2,1.1-0.8,1.9-1.9,1.8c-1.3-0.1-2.1-1.2-1.8-2.4c0.2-1,1.1-1.6,2.2-1.4C73.2,58.1,73.5,58.9,73.4,60z"/>
	<path d="M56.7,46.5c-5,0-10,0-15,0c-3,0-4.6-1.1-4.5-4.5c0.2-4.7,0.1-9.3,0-14c-0.1-3,1.4-4.1,4.3-4.1c5.8,0.1,11.7,0,17.5,0
		c1.5,0,3.3-0.1,3.2,2.1C62,28.2,60.2,28,58.7,28c-4.8,0-9.7,0.1-14.5,0c-2.4-0.1-3,0.7-3.1,3.1c-0.4,11.3-0.5,11.3,10.8,11.3h16
		c1,0,2,0.1,3-0.1c2.3-0.4,1.4-2.4,1.3-3.6c-0.5-3.5,1.7-7.6-1.3-10.6c-0.9-0.8-3.5,0.3-3.5-2.3c0-1.5,1.2-1.8,2.5-1.8
		c2.2,0.1,5.5-0.8,6,2.1c0.9,6.1,0.9,12.3,0,18.4c-0.3,2.1-2.8,2-4.6,2C66.3,46.5,61.5,46.5,56.7,46.5z"/>
	<path d="M72.6,18.3c0.3-1.2,1.2-1.9,2.5-1.6c1.1,0.3,1.4,1.2,1.2,2.3c-0.3,1.2-1.1,1.6-2.2,1.3C73.2,20.1,72.4,19.3,72.6,18.3z"/>
	<path d="M121.1,44.1c-3.3-1.7-6.3-5.2-10.4-2.5c-4.6,3-8.4,6-7.7,12.9c0.6,6,2.3,12.8-3.1,18.2c-0.7,0.7-0.5,2.5-0.5,3.9
		c-0.1,3.3,0,6.6,0,9.8c-8.7-3-17.2-5.8-25.6-8.7c-1.4-0.5-3.1-0.7-3.4-2.5c-0.3-1.7,1.4-2,2.4-2.8c5.7-4.3,9.2-9.8,10.7-16.8
		c1.2-5.8,0.3-11.6,0.7-17.4c0.1-1.5-0.8-3.6,2-3.6c5.8-0.2,4.5-4.6,4.7-8c0.1-3.5,0.1-7-5-6.5c-0.6,0.1-1.6,0-1.5-0.8
		c0.2-4.2-3.5-6.9-3.5-11.2C80.9,2.3,78,0,72.2,0c-10.7,0-21.3,0-32,0c-5.9,0-7.8,2.5-8.8,8.4c-0.8,4.6,0.8,11.2-7.1,11.9
		c-1,0.1-1.8,1.5-1.8,2.8c-0.1,2.7-0.1,5.3,0,8c0.1,1.6,1,3.2,2.7,3.1c4.9-0.4,4.1,2.9,4.1,5.9c0,3.3,0,6.6,0,10
		C29.2,59.1,33,66.3,40,72c1.1,0.9,3.2,1.1,3,2.9c-0.3,2.2-2.6,2.4-4.2,3c-6.4,2.2-12.9,4.1-19.3,6.4C11.9,87,7.2,92.3,7,100.6
		c-0.2,9.1-0.6,18.3,0.3,27.4h3c2.5-1.4,2.4-3.8,2.4-6.1c0.1-6.8,0-13.6,0-20.5c0-3.5,1-6.5,3.8-8.8c0.9-0.7,1.8-1.8,3.1-1.3
		c1.3,0.5,1.1,1.9,1.2,3c0.2,3.2-0.3,6.3,0.6,9.4c0.4,1.4,1.2,2.5,2.7,2.6c1.8,0.1,2.7-1.1,3.2-2.6c0.5-1.6,0.5-3.3,0.5-4.9
		c0.1-3.1-0.2-6.2,0.5-9.2c0.6,1.3,0.5,2.7,0.6,4c0.4,5.9,3.4,9.5,9.3,9.7c12.5,0.5,25,0.5,37.4,0c5.4-0.2,8.4-3.7,9-9
		c0.3-2.3-0.2-4.6,0.3-7c0.8,2.3,0.9,4.5,0.9,6.6c0,9.2,0,18.3,0,27.5c0,2.3-0.2,4.7,1.5,6.7h3c2.2-1.1,2.1-3.1,2-5.2
		c0-0.3,0-0.6,0-0.9c0.2,2.7,1.3,4.8,4,6h17c1.9-0.9,3.9-1.5,5.2-3.5c3.7-6.1,2.8-15.8-2.5-20.7c-2.5-2.3-3.3-4.7-3.3-7.9
		c0.1-6,0-12,0-17.9c0-2.2,0.2-4.5-1.1-6.3c-4.7-6.5-2.4-13.6-2.8-20.7c7.6,2.1,12.1,0.3,12.5-4.4c0,0,0,0,0,0
		C121.3,45.8,121.3,45,121.1,44.1z M85.4,24c1.9-0.1,1.3,1.8,1.5,3c-0.3,1.2,0.7,3.3-1.7,3.2c-1.7-0.1-1.1-1.8-1-2.7
		C84.3,26.2,83.1,24.1,85.4,24z M27.8,30.2c-2,0-1.4-1.8-1.4-3c0.1-1.2-0.9-3.3,1.6-3.3c2.2,0,1,1.9,1.4,3
		C28.9,28.1,30.3,30.2,27.8,30.2z M71.4,80.9c-8.8,6-16.9,6.8-25.3,2.6c-1.1-0.6-3.8-1.6-2.6-2.6c1.7-1.4,2-5.2,5.2-4.3
		c5.4,1.4,10.7,1.4,16.1,0C67.9,75.7,67.7,80.3,71.4,80.9z M39.5,3.9C44.3,4,49.2,4,54,4h18c1.5,0,3.1-0.2,4,1.3
		c0.5,0.8,0.8,1.9,0.7,2.8C76.5,9.5,75.1,9,74.2,9c-6,0-12,0-18,0c-5.7,0-11.3,0.1-17,0c-1.2,0-3.4,1.1-3.4-1.4
		C35.8,5.4,37,3.9,39.5,3.9z M33.3,51c-0.2-10.3-0.1-20.7,0-31c0-5,1.9-6.9,6.9-7c5.5-0.1,11,0,16.5,0c5.7,0,11.3,0,17,0
		c3.8,0,6.5,1.8,6.5,5.4c0,12.3,1.4,24.7-0.8,36.9c-2,11.2-12.8,19.3-23.8,18.4C42.9,72.6,33.5,63.1,33.3,51z M68.6,98
		c-4-0.1-8,0-12,0c-5.7,0-11.3-0.1-17,0c-4.1,0.1-5.8-1.6-5.5-5.7c0.2-2,0-4,0-6c0.2-3.6,2.2-4.8,5.1-2.7c11.7,8.7,23.2,8.5,34.8,0
		c2.8-2.1,5.1-0.9,5.1,2.7C79.3,98.4,80.1,98.2,68.6,98z M103.4,75.6c0-1.4,0.2-2.9,2-2.8c1.8,0.1,1.8,1.6,1.8,3c0,4.3,0,8.7,0,13
		c0,3.8,0,7.7,0,11.5c0,1.2,0.5,2.8-1.7,2.8c-1.9,0.1-2.2-0.9-2.2-2.5C103.4,92.3,103.4,83.9,103.4,75.6z M92.2,120.7
		c0,0.2,0,0.4,0,0.6c-0.1-2.8,0-5.7,0-8.5C92.4,115.4,92.3,118,92.2,120.7z M95.8,102.3c-2,1.7-3,3.8-3.4,6
		c0.1-4.5,0.3-8.9,0.3-13.4c0-1.3-0.6-3.4,1.4-3.7c1.9-0.2,2.9,1.5,3.3,3.2C98.1,97.3,98.2,100.2,95.8,102.3z M114.9,115.4
		c0,8-1,8.8-11.5,8.7c-6.9,0-5.7,1.1-5.8-8.9c0-8.2,0-8.2,8-8.2C113.6,107,114.9,108.1,114.9,115.4z M113.9,47.1
		c-0.9,0-1.7-0.2-1.6-1.3c0.1-0.8,0.7-1.1,1.4-1c0.7,0.1,1.8,0,1.9,1C115.7,46.8,114.7,47,113.9,47.1z"/>
	<path d="M23.3,128c-2.1-5.1-0.6-10.4-0.9-15.6c-0.1-1,0.7-1.5,1.6-1.5c1.1-0.1,2.2,0.4,2.1,1.5c-0.2,5.2,1.2,10.5-0.8,15.6
		C24.6,128,23.9,128,23.3,128z"/>
	<path d="M36.8,18.2c0.1-1,1-1.6,2.1-1.6c1.1,0.2,1.7,0.9,1.7,1.9c0,1.1-0.7,1.8-1.8,1.8C37.4,20.3,36.6,19.6,36.8,18.2z"/>
	<path d="M43.5,59.9c-0.2,1.1-0.7,2-1.9,1.9c-1.4-0.1-2.1-1.1-1.9-2.3c0.1-1,1-1.6,2.2-1.5C43.1,58.1,43.5,58.8,43.5,59.9z"/>
	<path d="M73.4,60c-0.2,1.1-0.8,1.9-1.9,1.8c-1.3-0.1-2.1-1.2-1.8-2.4c0.2-1,1.1-1.6,2.2-1.4C73.2,58.1,73.5,58.9,73.4,60z"/>
	<path d="M75.8,44.5c-0.3,2.1-2.8,2-4.6,2c-4.8,0-9.7,0-14.5,0c-5,0-10,0-15,0c-3,0-4.6-1.1-4.5-4.5c0.2-4.7,0.1-9.3,0-14
		c-0.1-3,1.4-4.1,4.3-4.1c5.8,0.1,11.7,0,17.5,0c1.5,0,3.3-0.1,3.2,2.1C62,28.2,60.2,28,58.7,28c-4.8,0-9.7,0.1-14.5,0
		c-2.4-0.1-3,0.7-3.1,3.1c-0.4,11.3-0.5,11.3,10.8,11.3h16c1,0,2,0.1,3-0.1c2.3-0.4,1.4-2.4,1.3-3.6c-0.5-3.5,1.7-7.6-1.3-10.6
		c-0.9-0.8-3.5,0.3-3.5-2.3c0-1.5,1.2-1.8,2.5-1.8c2.2,0.1,5.5-0.8,6,2.1C76.7,32.2,76.7,38.4,75.8,44.5z"/>
	<path d="M72.6,18.3c0.3-1.2,1.2-1.9,2.5-1.6c1.1,0.3,1.4,1.2,1.2,2.3c-0.3,1.2-1.1,1.6-2.2,1.3C73.2,20.1,72.4,19.3,72.6,18.3z"/>
	<path d="M75.8,44.5c-0.3,2.1-2.8,2-4.6,2c-4.8,0-9.7,0-14.5,0c-5,0-10,0-15,0c-3,0-4.6-1.1-4.5-4.5c0.2-4.7,0.1-9.3,0-14
		c-0.1-3,1.4-4.1,4.3-4.1c5.8,0.1,11.7,0,17.5,0c1.5,0,3.3-0.1,3.2,2.1C62,28.2,60.2,28,58.7,28c-4.8,0-9.7,0.1-14.5,0
		c-2.4-0.1-3,0.7-3.1,3.1c-0.4,11.3-0.5,11.3,10.8,11.3h16c1,0,2,0.1,3-0.1c2.3-0.4,1.4-2.4,1.3-3.6c-0.5-3.5,1.7-7.6-1.3-10.6
		c-0.9-0.8-3.5,0.3-3.5-2.3c0-1.5,1.2-1.8,2.5-1.8c2.2,0.1,5.5-0.8,6,2.1C76.7,32.2,76.7,38.4,75.8,44.5z"/>
	<path d="M43.5,59.9c-0.2,1.1-0.7,2-1.9,1.9c-1.4-0.1-2.1-1.1-1.9-2.3c0.1-1,1-1.6,2.2-1.5C43.1,58.1,43.5,58.8,43.5,59.9z"/>
	<path d="M73.4,60c-0.2,1.1-0.8,1.9-1.9,1.8c-1.3-0.1-2.1-1.2-1.8-2.4c0.2-1,1.1-1.6,2.2-1.4C73.2,58.1,73.5,58.9,73.4,60z"/>
	<path d="M40.5,18.5c0,1.1-0.7,1.8-1.8,1.8c-1.3,0-2.1-0.8-2-2.1c0.1-1,1-1.6,2.1-1.6C39.9,16.8,40.6,17.5,40.5,18.5z"/>
	<path d="M76.4,19c-0.3,1.2-1.1,1.6-2.2,1.3c-1-0.2-1.8-0.9-1.6-2c0.3-1.2,1.2-1.9,2.5-1.6C76.3,17,76.6,17.9,76.4,19z"/>
</g>
</svg>
