<?xml version="1.0" encoding="utf-8"?>
<!-- Generator: Adobe Illustrator 28.0.0, SVG Export Plug-In . SVG Version: 6.00 Build 0)  -->
<svg version="1.1" id="Layer_1" xmlns="http://www.w3.org/2000/svg" xmlns:xlink="http://www.w3.org/1999/xlink" x="0px" y="0px"
	 viewBox="0 0 128 128" style="enable-background:new 0 0 128 128;" xml:space="preserve">
<g id="N150nt.tif">
	<g>
		<path d="M73.7,61.7c-2.6-2.7-5.3-5.3-8-8c-0.5-0.5-1.4-0.8-1.8-1c-1.2,0-2,0.3-2.3,1.2c-0.3,1-0.2,2,0.5,2.7
			c2.8,2.8,5.5,5.6,8.3,8.3c1.1,1,2.4,1.3,3.5,0.2C75.1,64.1,74.8,62.7,73.7,61.7z M73.7,61.7c-2.6-2.7-5.3-5.3-8-8
			c-0.5-0.5-1.4-0.8-1.8-1c-1.2,0-2,0.3-2.3,1.2c-0.3,1-0.2,2,0.5,2.7c2.8,2.8,5.5,5.6,8.3,8.3c1.1,1,2.4,1.3,3.5,0.2
			C75.1,64.1,74.8,62.7,73.7,61.7z M73.7,61.7c-2.6-2.7-5.3-5.3-8-8c-0.5-0.5-1.4-0.8-1.8-1c-1.2,0-2,0.3-2.3,1.2
			c-0.3,1-0.2,2,0.5,2.7c2.8,2.8,5.5,5.6,8.3,8.3c1.1,1,2.4,1.3,3.5,0.2C75.1,64.1,74.8,62.7,73.7,61.7z M73.7,61.7
			c-2.6-2.7-5.3-5.3-8-8c-0.5-0.5-1.4-0.8-1.8-1c-1.2,0-2,0.3-2.3,1.2c-0.3,1-0.2,2,0.5,2.7c2.8,2.8,5.5,5.6,8.3,8.3
			c1.1,1,2.4,1.3,3.5,0.2C75.1,64.1,74.8,62.7,73.7,61.7z M73.7,61.7c-2.6-2.7-5.3-5.3-8-8c-0.5-0.5-1.4-0.8-1.8-1
			c-1.2,0-2,0.3-2.3,1.2c-0.3,1-0.2,2,0.5,2.7c2.8,2.8,5.5,5.6,8.3,8.3c1.1,1,2.4,1.3,3.5,0.2C75.1,64.1,74.8,62.7,73.7,61.7z
			 M73.7,61.7c-2.6-2.7-5.3-5.3-8-8c-0.5-0.5-1.4-0.8-1.8-1c-1.2,0-2,0.3-2.3,1.2c-0.3,1-0.2,2,0.5,2.7c2.8,2.8,5.5,5.6,8.3,8.3
			c1.1,1,2.4,1.3,3.5,0.2C75.1,64.1,74.8,62.7,73.7,61.7z M73.7,61.7c-2.6-2.7-5.3-5.3-8-8c-0.5-0.5-1.4-0.8-1.8-1
			c-1.2,0-2,0.3-2.3,1.2c-0.3,1-0.2,2,0.5,2.7c2.8,2.8,5.5,5.6,8.3,8.3c1.1,1,2.4,1.3,3.5,0.2C75.1,64.1,74.8,62.7,73.7,61.7z
			 M73.7,61.7c-2.6-2.7-5.3-5.3-8-8c-0.5-0.5-1.4-0.8-1.8-1c-1.2,0-2,0.3-2.3,1.2c-0.3,1-0.2,2,0.5,2.7c2.8,2.8,5.5,5.6,8.3,8.3
			c1.1,1,2.4,1.3,3.5,0.2C75.1,64.1,74.8,62.7,73.7,61.7z M73.7,61.7c-2.6-2.7-5.3-5.3-8-8c-0.5-0.5-1.4-0.8-1.8-1
			c-1.2,0-2,0.3-2.3,1.2c-0.3,1-0.2,2,0.5,2.7c2.8,2.8,5.5,5.6,8.3,8.3c1.1,1,2.4,1.3,3.5,0.2C75.1,64.1,74.8,62.7,73.7,61.7z
			 M73.7,61.7c-2.6-2.7-5.3-5.3-8-8c-0.5-0.5-1.4-0.8-1.8-1c-1.2,0-2,0.3-2.3,1.2c-0.3,1-0.2,2,0.5,2.7c2.8,2.8,5.5,5.6,8.3,8.3
			c1.1,1,2.4,1.3,3.5,0.2C75.1,64.1,74.8,62.7,73.7,61.7z M73.7,61.7c-2.6-2.7-5.3-5.3-8-8c-0.5-0.5-1.4-0.8-1.8-1
			c-1.2,0-2,0.3-2.3,1.2c-0.3,1-0.2,2,0.5,2.7c2.8,2.8,5.5,5.6,8.3,8.3c1.1,1,2.4,1.3,3.5,0.2C75.1,64.1,74.8,62.7,73.7,61.7z
			 M73.7,61.7c-2.6-2.7-5.3-5.3-8-8c-0.5-0.5-1.4-0.8-1.8-1c-1.2,0-2,0.3-2.3,1.2c-0.3,1-0.2,2,0.5,2.7c2.8,2.8,5.5,5.6,8.3,8.3
			c1.1,1,2.4,1.3,3.5,0.2C75.1,64.1,74.8,62.7,73.7,61.7z M73.7,61.7c-2.6-2.7-5.3-5.3-8-8c-0.5-0.5-1.4-0.8-1.8-1
			c-1.2,0-2,0.3-2.3,1.2c-0.3,1-0.2,2,0.5,2.7c2.8,2.8,5.5,5.6,8.3,8.3c1.1,1,2.4,1.3,3.5,0.2C75.1,64.1,74.8,62.7,73.7,61.7z
			 M73.7,61.7c-2.6-2.7-5.3-5.3-8-8c-0.5-0.5-1.4-0.8-1.8-1c-1.2,0-2,0.3-2.3,1.2c-0.3,1-0.2,2,0.5,2.7c2.8,2.8,5.5,5.6,8.3,8.3
			c1.1,1,2.4,1.3,3.5,0.2C75.1,64.1,74.8,62.7,73.7,61.7z M73.7,61.7c-2.6-2.7-5.3-5.3-8-8c-0.5-0.5-1.4-0.8-1.8-1
			c-1.2,0-2,0.3-2.3,1.2c-0.3,1-0.2,2,0.5,2.7c2.8,2.8,5.5,5.6,8.3,8.3c1.1,1,2.4,1.3,3.5,0.2C75.1,64.1,74.8,62.7,73.7,61.7z
			 M73.7,61.7c-2.6-2.7-5.3-5.3-8-8c-0.5-0.5-1.4-0.8-1.8-1c-1.2,0-2,0.3-2.3,1.2c-0.3,1-0.2,2,0.5,2.7c2.8,2.8,5.5,5.6,8.3,8.3
			c1.1,1,2.4,1.3,3.5,0.2C75.1,64.1,74.8,62.7,73.7,61.7z M73.7,61.7c-2.6-2.7-5.3-5.3-8-8c-0.5-0.5-1.4-0.8-1.8-1
			c-1.2,0-2,0.3-2.3,1.2c-0.3,1-0.2,2,0.5,2.7c2.8,2.8,5.5,5.6,8.3,8.3c1.1,1,2.4,1.3,3.5,0.2C75.1,64.1,74.8,62.7,73.7,61.7z
			 M73.7,61.7c-2.6-2.7-5.3-5.3-8-8c-0.5-0.5-1.4-0.8-1.8-1c-1.2,0-2,0.3-2.3,1.2c-0.3,1-0.2,2,0.5,2.7c2.8,2.8,5.5,5.6,8.3,8.3
			c1.1,1,2.4,1.3,3.5,0.2C75.1,64.1,74.8,62.7,73.7,61.7z M73.7,61.7c-2.6-2.7-5.3-5.3-8-8c-0.5-0.5-1.4-0.8-1.8-1
			c-1.2,0-2,0.3-2.3,1.2c-0.3,1-0.2,2,0.5,2.7c2.8,2.8,5.5,5.6,8.3,8.3c1.1,1,2.4,1.3,3.5,0.2C75.1,64.1,74.8,62.7,73.7,61.7z
			 M73.7,61.7c-2.6-2.7-5.3-5.3-8-8c-0.5-0.5-1.4-0.8-1.8-1c-1.2,0-2,0.3-2.3,1.2c-0.3,1-0.2,2,0.5,2.7c2.8,2.8,5.5,5.6,8.3,8.3
			c1.1,1,2.4,1.3,3.5,0.2C75.1,64.1,74.8,62.7,73.7,61.7z M73.7,61.7c-2.6-2.7-5.3-5.3-8-8c-0.5-0.5-1.4-0.8-1.8-1
			c-1.2,0-2,0.3-2.3,1.2c-0.3,1-0.2,2,0.5,2.7c2.8,2.8,5.5,5.6,8.3,8.3c1.1,1,2.4,1.3,3.5,0.2C75.1,64.1,74.8,62.7,73.7,61.7z
			 M73.7,61.7c-2.6-2.7-5.3-5.3-8-8c-0.5-0.5-1.4-0.8-1.8-1c-1.2,0-2,0.3-2.3,1.2c-0.3,1-0.2,2,0.5,2.7c2.8,2.8,5.5,5.6,8.3,8.3
			c1.1,1,2.4,1.3,3.5,0.2C75.1,64.1,74.8,62.7,73.7,61.7z M73.7,61.7c-2.6-2.7-5.3-5.3-8-8c-0.5-0.5-1.4-0.8-1.8-1
			c-1.2,0-2,0.3-2.3,1.2c-0.3,1-0.2,2,0.5,2.7c2.8,2.8,5.5,5.6,8.3,8.3c1.1,1,2.4,1.3,3.5,0.2C75.1,64.1,74.8,62.7,73.7,61.7z
			 M73.7,61.7c-2.6-2.7-5.3-5.3-8-8c-0.5-0.5-1.4-0.8-1.8-1c-1.2,0-2,0.3-2.3,1.2c-0.3,1-0.2,2,0.5,2.7c2.8,2.8,5.5,5.6,8.3,8.3
			c1.1,1,2.4,1.3,3.5,0.2C75.1,64.1,74.8,62.7,73.7,61.7z M113,64.3c-3.8-3.5-6.6-3.5-10.4,0c-3.4,3.1-6.6,6.5-9.9,9.8
			c-3.8,3.8-4.2,3.6-7.8-0.1c-2.8-2.9-1.1-4.6,0.9-6.5c12.7-12.6,25.3-25.3,37.9-37.9c4-4,5.6-9,2.8-12.4
			c-5.3-6.4-10.4-13.3-18.3-17h-5c-2.5,0.8-4.6,2.3-6.5,4.3c-12.4,12.5-25,24.9-37.4,37.5c-2.7,2.8-4.5,2.2-6.9-0.2
			c-2.4-2.4-2.6-4.1,0-6.5c3.7-3.5,7.3-7.2,10.9-10.8c2.7-2.8,3.3-6.2,0.9-8.9c-5-5.6-9.8-11.6-16.6-15.3h-4
			c-1.9,1.1-3.6,2.3-5.1,3.9C27.1,15.6,15.5,27.2,3.9,38.7c-1.5,1.5-2.8,3.2-3.9,5.1v4c3.5,5.9,9,10,13.7,14.8
			c4.2,4.4,6.9,4.2,11.4,0c3.6-3.4,6.9-7.1,10.5-10.4c2.2-2.1,2.3-2,4.9,0.5c-4.3,1-7.4,3.5-10.4,6.5C22,67.5,13.7,75.7,5.3,83.9
			c-2.3,2.2-4.1,4.6-5.3,7.6v7c0.8,2.6,2.3,4.6,4.3,6.5c6.2,6,12.6,11.8,18.2,18.3c5.1,5.9,14.2,5.8,19.6,0
			c7.1-7.6,14.7-14.8,22-22.2c4.3-4.3,9.1-8.2,10.8-14.5c2.8,2.2,1.5,3.7,0,5.2c-3.4,3.4-6.8,6.7-10.2,10.2
			c-4.3,4.4-4.4,6.8-0.4,11.6c3.6,4.3,7.6,8.3,11.8,12.1c3.2,3,7,2.9,10.2-0.2c13.1-12.9,26.1-25.9,39-39c3.4-3.4,3.2-6.4-0.1-10
			C121.4,72.3,117.2,68.2,113,64.3z M108,67.5c2.3,1,3.7,3.1,5.6,5.3c-1.8,1.7-3.4,4.4-5.4,4.7c-2.3,0.4-3.7-2.7-5.2-4.5
			C102.5,72.3,107.2,67.2,108,67.5z M99.1,76.2c2.1,1.5,4,3.1,5.2,5.2c0.5,0.8-4.6,5.7-5.3,5.3c-2-1.4-4.8-2.9-4.7-5.2
			C94.4,79.3,97.2,77.8,99.1,76.2z M90.2,85.6c2.3-0.1,3.6,2.9,5.5,4.8c-1.4,2.1-3.1,4.8-5.1,4.9c-2.4,0.2-5-2.6-5.1-4.9
			C85.3,88.3,88.1,85.7,90.2,85.6z M103.1,6.6c1.2-1,2.5-3,4.1-1.5c5.1,4.8,10,9.9,15,14.9c0.3,0.3,0.3,0.9,0.5,1.3
			c-0.4,1.6-1.5,2.6-2.7,3.4c-1.1,0.8-1.8-0.4-2.4-1.1c-4.7-4.6-9.3-9.3-13.9-13.9C102.7,8.9,101.5,8,103.1,6.6z M52.4,49.9
			c0.2,0.2,0,0.6,0.1,0.9c-1,0.8-1.8,2.6-3.5,1c-2.1-2.1-4.2-4.2-6.3-6.3c-0.6-0.6-1.2-1.2-0.2-1.9c0.7-0.5,1.2-2.1,2.2-1.3
			C47.4,44.6,49.8,47.3,52.4,49.9z M45.7,33c-2.2-0.2-4-2.6-5-4.9c-0.4-0.9,4.5-5.3,5.4-5.1c0.7,0.1,4.9,4.8,4.8,5.6
			C49.2,30,48,33.2,45.7,33z M54.8,14.1c2.2,1.2,3.7,3.1,5.4,5.4c-1.8,1.6-3.5,4.3-5.4,4.5c-2.2,0.3-3.8-2.7-5.2-4.6
			C49,18.8,54,13.7,54.8,14.1z M45.6,5.4c2.5-0.1,3.7,3.2,6,4.9c-2.1,2-3.8,4.9-5.7,4.9c-2.3,0.1-5-2.7-5.1-5
			C40.8,8.1,43.5,5.5,45.6,5.4z M37.1,14.1c2,1.4,3.8,3.1,5.1,5.4c-1.9,1.6-3.2,4.8-5.5,4.6c-2.2-0.1-4-2.7-5.1-4.9
			C31.3,18.4,36.4,13.6,37.1,14.1z M27.5,23.3c2.5-0.4,5,2.6,5.3,4.8c0.3,2.3-3.1,3.4-4.4,5.5c-2.5-1.4-4.9-3.1-5.4-5.2
			C22.6,25.9,25.7,23.6,27.5,23.3z M14.2,36.6c0.3-1.9,2.9-4.9,5-4.6c2.1,0.3,5.1,2.8,4.7,5.3c-0.3,1.9-3.1,3.3-5,5.1
			C17.2,40.3,13.8,39.2,14.2,36.6z M10.3,50.8c-2.2,0.2-5-2.7-5.1-5c-0.1-2.1,2.9-3.6,5-5.6c1.8,1.8,4.5,3.4,4.8,5.3
			C15.4,48.1,12.3,50.7,10.3,50.8z M19.1,59.7c-2.3-0.2-5.2-2.8-4.9-5.2c0.2-1.9,2.8-4.9,5.1-4.6c1.9,0.3,3.5,3.1,5.4,5
			C22.7,56.8,21.3,59.8,19.1,59.7z M28.2,50.8c-2.3,0.3-3.8-2.8-5.3-4.6c-0.5-0.6,4.2-5.8,5.1-5.4c2.3,1,3.6,3.1,5.6,5.2
			C31.7,47.7,30.1,50.5,28.2,50.8z M37,41.8c-2.2,0.3-3.8-2.7-5.2-4.6c-0.5-0.7,4.2-5.7,5.1-5.3c2.2,1.1,3.7,3.1,5.4,5.3
			C40.5,38.9,38.9,41.6,37,41.8z M33.8,122.4c-2.1,0.9-3.8,0-5.3-1.5c-7.3-7.4-14.7-14.7-22-22c-0.5-0.5-1-0.9-1.3-1.5
			c-1.4-2.4-0.5-4.3,1.4-6.1c2.4-2.3,3.2,0.3,4.2,1.4c8.1,8,16.1,16.1,24.2,24.1c0.8,0.8,1.5,1.6,2.2,2.4
			C36.2,120.8,35.2,121.8,33.8,122.4z M55.2,101.6c-4.2,4-8.3,8-12.3,12.3c-2,2.1-3,1.5-4.7-0.2c-8.1-8.3-16.3-16.5-24.6-24.5
			c-2-2-2.1-3.1,0-5c4.1-3.8,8-7.9,12-11.9c0.7-0.7,1.4-1.3,2.4-2.2c0.8,0.7,1.5,1.4,2.2,2c8.3,8.3,16.6,16.7,25,24.9
			C57,98.7,57.1,99.8,55.2,101.6z M53.9,89.4c-6.7-6.7-13.3-13.4-20.1-20c-2.1-2.1-2.4-3.2-0.1-5.4c4.7-4.5,4.6-4.6,9.1-0.1
			c8.3,8.3,16.6,16.6,24.9,24.9C60.8,96.3,60.8,96.3,53.9,89.4z M44.1,57.7c6.7,0.8,11.1-3,15.5-7.5c11.9-12.2,24.1-24.1,36-36.3
			c2.5-2.5,3.7-2.4,6,0.1c3.6,4.1,7.5,8,11.6,11.6c2.6,2.3,2.6,3.6,0.1,6c-12.6,12.4-25,25.1-37.7,37.4c-4.1,4-6.5,8.2-6,14.2
			L44.1,57.7z M75.4,78.1c-1.5-1.8,0.6-2.4,1.5-3.6c0.7,0.6,1.3,1.1,1.8,1.6c1.9,1.8,3.7,3.8,5.6,5.5c1.1,1.1,1.1,1.8-0.1,2.7
			C83.5,85,83,85.9,82,84.8C79.8,82.5,77.5,80.4,75.4,78.1z M81.5,93.8c1.9,1.9,4.1,3.2,5,5.5c0.4,0.9-4.8,5.6-5.4,5.1
			c-1.8-1.6-4.9-3.1-4.6-5.3C76.8,97.2,79.6,95.6,81.5,93.8z M72.9,113.1c-2.5,0.2-5.1-2.7-5.2-4.9c-0.1-2.1,2.6-4.7,4.8-4.8
			c2.4-0.2,3.6,3,5.5,4.6C76.7,110.3,74.8,112.9,72.9,113.1z M81.7,122.8c-2.2-1.9-5.2-3.4-5.2-5.8c0-2,2.8-4.8,4.8-4.8
			c2.3,0,5.1,2.8,5.1,5C86.3,119,83.5,120.8,81.7,122.8z M90.3,113.1c-2.2-0.3-5.1-2.9-4.8-5.2c0.2-1.8,3.2-3.3,5.2-5
			c1.6,1.8,4.9,3.1,4.6,5.6C94.9,110.5,92.4,113.4,90.3,113.1z M99.5,104.2c-2.4,0.2-5.1-2.7-5.2-4.9c-0.1-2.1,2.9-3.6,5-5.5
			c1.7,1.8,4.5,3.4,4.8,5.4C104.4,101.4,101.5,104,99.5,104.2z M108.3,95.3c-2.4,0.2-5-2.7-5.1-4.9c-0.1-2.1,2.8-4.8,4.7-4.9
			c2.4-0.2,3.7,3.2,6.1,5C111.8,92.4,110.1,95.1,108.3,95.3z M117.1,86.4c-2.3-0.1-5.1-2.8-5-5.1c0.1-1.8,2.9-3.6,4.7-5.5
			c2.2,1.9,5.2,3.3,5.2,5.7C121.9,83.7,119.2,86.5,117.1,86.4z M74,65.1c1-1.1,0.7-2.4-0.3-3.5c-2.6-2.7-5.3-5.3-8-8
			c-0.5-0.5-1.4-0.8-1.8-1c-1.2,0-2,0.3-2.3,1.2c-0.3,1-0.2,2,0.5,2.7c2.8,2.8,5.5,5.6,8.3,8.3C71.6,66,73,66.2,74,65.1z M73.7,61.7
			c-2.6-2.7-5.3-5.3-8-8c-0.5-0.5-1.4-0.8-1.8-1c-1.2,0-2,0.3-2.3,1.2c-0.3,1-0.2,2,0.5,2.7c2.8,2.8,5.5,5.6,8.3,8.3
			c1.1,1,2.4,1.3,3.5,0.2C75.1,64.1,74.8,62.7,73.7,61.7z M73.7,61.7c-2.6-2.7-5.3-5.3-8-8c-0.5-0.5-1.4-0.8-1.8-1
			c-1.2,0-2,0.3-2.3,1.2c-0.3,1-0.2,2,0.5,2.7c2.8,2.8,5.5,5.6,8.3,8.3c1.1,1,2.4,1.3,3.5,0.2C75.1,64.1,74.8,62.7,73.7,61.7z
			 M73.7,61.7c-2.6-2.7-5.3-5.3-8-8c-0.5-0.5-1.4-0.8-1.8-1c-1.2,0-2,0.3-2.3,1.2c-0.3,1-0.2,2,0.5,2.7c2.8,2.8,5.5,5.6,8.3,8.3
			c1.1,1,2.4,1.3,3.5,0.2C75.1,64.1,74.8,62.7,73.7,61.7z M73.7,61.7c-2.6-2.7-5.3-5.3-8-8c-0.5-0.5-1.4-0.8-1.8-1
			c-1.2,0-2,0.3-2.3,1.2c-0.3,1-0.2,2,0.5,2.7c2.8,2.8,5.5,5.6,8.3,8.3c1.1,1,2.4,1.3,3.5,0.2C75.1,64.1,74.8,62.7,73.7,61.7z
			 M73.7,61.7c-2.6-2.7-5.3-5.3-8-8c-0.5-0.5-1.4-0.8-1.8-1c-1.2,0-2,0.3-2.3,1.2c-0.3,1-0.2,2,0.5,2.7c2.8,2.8,5.5,5.6,8.3,8.3
			c1.1,1,2.4,1.3,3.5,0.2C75.1,64.1,74.8,62.7,73.7,61.7z M73.7,61.7c-2.6-2.7-5.3-5.3-8-8c-0.5-0.5-1.4-0.8-1.8-1
			c-1.2,0-2,0.3-2.3,1.2c-0.3,1-0.2,2,0.5,2.7c2.8,2.8,5.5,5.6,8.3,8.3c1.1,1,2.4,1.3,3.5,0.2C75.1,64.1,74.8,62.7,73.7,61.7z
			 M73.7,61.7c-2.6-2.7-5.3-5.3-8-8c-0.5-0.5-1.4-0.8-1.8-1c-1.2,0-2,0.3-2.3,1.2c-0.3,1-0.2,2,0.5,2.7c2.8,2.8,5.5,5.6,8.3,8.3
			c1.1,1,2.4,1.3,3.5,0.2C75.1,64.1,74.8,62.7,73.7,61.7z M73.7,61.7c-2.6-2.7-5.3-5.3-8-8c-0.5-0.5-1.4-0.8-1.8-1
			c-1.2,0-2,0.3-2.3,1.2c-0.3,1-0.2,2,0.5,2.7c2.8,2.8,5.5,5.6,8.3,8.3c1.1,1,2.4,1.3,3.5,0.2C75.1,64.1,74.8,62.7,73.7,61.7z
			 M73.7,61.7c-2.6-2.7-5.3-5.3-8-8c-0.5-0.5-1.4-0.8-1.8-1c-1.2,0-2,0.3-2.3,1.2c-0.3,1-0.2,2,0.5,2.7c2.8,2.8,5.5,5.6,8.3,8.3
			c1.1,1,2.4,1.3,3.5,0.2C75.1,64.1,74.8,62.7,73.7,61.7z M73.7,61.7c-2.6-2.7-5.3-5.3-8-8c-0.5-0.5-1.4-0.8-1.8-1
			c-1.2,0-2,0.3-2.3,1.2c-0.3,1-0.2,2,0.5,2.7c2.8,2.8,5.5,5.6,8.3,8.3c1.1,1,2.4,1.3,3.5,0.2C75.1,64.1,74.8,62.7,73.7,61.7z
			 M73.7,61.7c-2.6-2.7-5.3-5.3-8-8c-0.5-0.5-1.4-0.8-1.8-1c-1.2,0-2,0.3-2.3,1.2c-0.3,1-0.2,2,0.5,2.7c2.8,2.8,5.5,5.6,8.3,8.3
			c1.1,1,2.4,1.3,3.5,0.2C75.1,64.1,74.8,62.7,73.7,61.7z M73.7,61.7c-2.6-2.7-5.3-5.3-8-8c-0.5-0.5-1.4-0.8-1.8-1
			c-1.2,0-2,0.3-2.3,1.2c-0.3,1-0.2,2,0.5,2.7c2.8,2.8,5.5,5.6,8.3,8.3c1.1,1,2.4,1.3,3.5,0.2C75.1,64.1,74.8,62.7,73.7,61.7z
			 M73.7,61.7c-2.6-2.7-5.3-5.3-8-8c-0.5-0.5-1.4-0.8-1.8-1c-1.2,0-2,0.3-2.3,1.2c-0.3,1-0.2,2,0.5,2.7c2.8,2.8,5.5,5.6,8.3,8.3
			c1.1,1,2.4,1.3,3.5,0.2C75.1,64.1,74.8,62.7,73.7,61.7z M73.7,61.7c-2.6-2.7-5.3-5.3-8-8c-0.5-0.5-1.4-0.8-1.8-1
			c-1.2,0-2,0.3-2.3,1.2c-0.3,1-0.2,2,0.5,2.7c2.8,2.8,5.5,5.6,8.3,8.3c1.1,1,2.4,1.3,3.5,0.2C75.1,64.1,74.8,62.7,73.7,61.7z
			 M73.7,61.7c-2.6-2.7-5.3-5.3-8-8c-0.5-0.5-1.4-0.8-1.8-1c-1.2,0-2,0.3-2.3,1.2c-0.3,1-0.2,2,0.5,2.7c2.8,2.8,5.5,5.6,8.3,8.3
			c1.1,1,2.4,1.3,3.5,0.2C75.1,64.1,74.8,62.7,73.7,61.7z M73.7,61.7c-2.6-2.7-5.3-5.3-8-8c-0.5-0.5-1.4-0.8-1.8-1
			c-1.2,0-2,0.3-2.3,1.2c-0.3,1-0.2,2,0.5,2.7c2.8,2.8,5.5,5.6,8.3,8.3c1.1,1,2.4,1.3,3.5,0.2C75.1,64.1,74.8,62.7,73.7,61.7z
			 M73.7,61.7c-2.6-2.7-5.3-5.3-8-8c-0.5-0.5-1.4-0.8-1.8-1c-1.2,0-2,0.3-2.3,1.2c-0.3,1-0.2,2,0.5,2.7c2.8,2.8,5.5,5.6,8.3,8.3
			c1.1,1,2.4,1.3,3.5,0.2C75.1,64.1,74.8,62.7,73.7,61.7z M73.7,61.7c-2.6-2.7-5.3-5.3-8-8c-0.5-0.5-1.4-0.8-1.8-1
			c-1.2,0-2,0.3-2.3,1.2c-0.3,1-0.2,2,0.5,2.7c2.8,2.8,5.5,5.6,8.3,8.3c1.1,1,2.4,1.3,3.5,0.2C75.1,64.1,74.8,62.7,73.7,61.7z
			 M73.7,61.7c-2.6-2.7-5.3-5.3-8-8c-0.5-0.5-1.4-0.8-1.8-1c-1.2,0-2,0.3-2.3,1.2c-0.3,1-0.2,2,0.5,2.7c2.8,2.8,5.5,5.6,8.3,8.3
			c1.1,1,2.4,1.3,3.5,0.2C75.1,64.1,74.8,62.7,73.7,61.7z M73.7,61.7c-2.6-2.7-5.3-5.3-8-8c-0.5-0.5-1.4-0.8-1.8-1
			c-1.2,0-2,0.3-2.3,1.2c-0.3,1-0.2,2,0.5,2.7c2.8,2.8,5.5,5.6,8.3,8.3c1.1,1,2.4,1.3,3.5,0.2C75.1,64.1,74.8,62.7,73.7,61.7z
			 M73.7,61.7c-2.6-2.7-5.3-5.3-8-8c-0.5-0.5-1.4-0.8-1.8-1c-1.2,0-2,0.3-2.3,1.2c-0.3,1-0.2,2,0.5,2.7c2.8,2.8,5.5,5.6,8.3,8.3
			c1.1,1,2.4,1.3,3.5,0.2C75.1,64.1,74.8,62.7,73.7,61.7z M73.7,61.7c-2.6-2.7-5.3-5.3-8-8c-0.5-0.5-1.4-0.8-1.8-1
			c-1.2,0-2,0.3-2.3,1.2c-0.3,1-0.2,2,0.5,2.7c2.8,2.8,5.5,5.6,8.3,8.3c1.1,1,2.4,1.3,3.5,0.2C75.1,64.1,74.8,62.7,73.7,61.7z
			 M73.7,61.7c-2.6-2.7-5.3-5.3-8-8c-0.5-0.5-1.4-0.8-1.8-1c-1.2,0-2,0.3-2.3,1.2c-0.3,1-0.2,2,0.5,2.7c2.8,2.8,5.5,5.6,8.3,8.3
			c1.1,1,2.4,1.3,3.5,0.2C75.1,64.1,74.8,62.7,73.7,61.7z M73.7,61.7c-2.6-2.7-5.3-5.3-8-8c-0.5-0.5-1.4-0.8-1.8-1
			c-1.2,0-2,0.3-2.3,1.2c-0.3,1-0.2,2,0.5,2.7c2.8,2.8,5.5,5.6,8.3,8.3c1.1,1,2.4,1.3,3.5,0.2C75.1,64.1,74.8,62.7,73.7,61.7z"/>
		<path d="M74,65.1c-1.1,1.1-2.4,0.8-3.5-0.2c-2.8-2.8-5.6-5.5-8.3-8.3c-0.8-0.8-0.9-1.7-0.5-2.7c0.3-0.9,1-1.1,2.3-1.2
			c0.4,0.2,1.2,0.5,1.8,1c2.7,2.6,5.4,5.3,8,8C74.8,62.7,75.1,64.1,74,65.1z"/>
		<path d="M74,65.1c-1.1,1.1-2.4,0.8-3.5-0.2c-2.8-2.8-5.6-5.5-8.3-8.3c-0.8-0.8-0.9-1.7-0.5-2.7c0.3-0.9,1-1.1,2.3-1.2
			c0.4,0.2,1.2,0.5,1.8,1c2.7,2.6,5.4,5.3,8,8C74.8,62.7,75.1,64.1,74,65.1z"/>
	</g>
</g>
</svg>
