<?xml version="1.0" encoding="utf-8"?>
<!-- Generator: Adobe Illustrator 28.0.0, SVG Export Plug-In . SVG Version: 6.00 Build 0)  -->
<svg version="1.1" id="Layer_1" xmlns="http://www.w3.org/2000/svg" xmlns:xlink="http://www.w3.org/1999/xlink" x="0px" y="0px"
	 viewBox="0 0 128 128" style="enable-background:new 0 0 128 128;" xml:space="preserve">
<g id="KyYgx6.tif">
	<g>
		<path d="M46.9,128c-3.1-2.9-6.7-5.4-9.2-8.8c-8.4-11.5-12.7-24.7-15.4-38.5c-0.2-1.2,0.9-2.8,1.3-4.1c0.8,1.2,2.2,2.3,2.5,3.6
			c2.8,12.6,6.9,24.6,13.8,35.5c3.7,5.8,8,9.2,15.4,8.4c6.7-0.7,13.6-0.3,20.4-0.1c4,0.1,6.9-1.4,9.3-4.7
			c10.6-14.3,15.5-30.6,17.7-48c0.5-3.9,0.7-7.8,1.1-12c-26.9,0-53.2,0-79.3,0c-2.3,4,2.4,8.9-2.6,13.2c-0.7-2.4-1.3-3.8-1.6-5.4
			c-0.6-4-0.4-7.7-3.3-11.4c-1.6-2-0.1-6.8,0.5-10.3c0.4-2.2,2.1-4.2,2.4-6.3c0.7-5.3,3.6-9.3,9.6-10.8c7.9-1.9,15.9-3.2,22.6-4.6
			c-0.4-4.8-2-9.9-1-14.5c1.6-7.4,10.1-11.3,16.9-8.6c1.2,0.5,2.1,2.1,3.1,3.1c-1.3,0.2-2.7,0.9-3.9,0.6c-5.7-1.1-10,0.5-12.2,5
			C53.2,13.5,54.5,21,58.5,23c2.8,1.4,7.9,2,9.9,0.4c2.8-2.3,3.7-6.9,5.3-10.6c0.6-1.4,0.8-3,1.2-4.5c0.9,1.5,2.8,3.2,2.6,4.6
			c-0.4,3.7-1.7,7.2-2.7,10.8c7,1.4,14.6,2.5,22.1,4.4c8.1,2,9.9,4.9,10.9,13.2c0.3,2,2.5,3.8,3.8,5.7c0,3,0,6,0,9
			c-3.1,1.8-4,4.5-4.2,8.1c-1.1,16.8-4.8,33.1-13,48c-3.4,6.2-6.7,12.6-13.7,15.8C69.5,128,58.2,128,46.9,128z M103.4,43.2
			c0.7-7-0.7-9.5-6.8-11.1c-21.9-5.9-43.9-5.7-65.8,0.1c-5.8,1.5-7.3,4.6-6.2,11C50.7,43.2,76.9,43.2,103.4,43.2z M20.3,54.7
			c29.3,0,58.2,0,87.2,0c0-2.4,0-4.3,0-6.6c-29.1,0-58,0-87.2,0C20.3,50.4,20.3,52.3,20.3,54.7z"/>
	</g>
</g>
</svg>
