<?xml version="1.0" encoding="utf-8"?>
<!-- Generator: Adobe Illustrator 28.0.0, SVG Export Plug-In . SVG Version: 6.00 Build 0)  -->
<svg version="1.1" id="Layer_1" xmlns="http://www.w3.org/2000/svg" xmlns:xlink="http://www.w3.org/1999/xlink" x="0px" y="0px"
	 viewBox="0 0 128 128" style="enable-background:new 0 0 128 128;" xml:space="preserve">
<g>
	<path d="M63.8,46.9c-18.8,0.1-34,15.3-33.9,33.9c0.1,19.4,15.1,34.4,34.4,34.4c18.6-0.1,33.8-15.4,33.8-33.9
		C98,61.9,82.9,46.7,63.8,46.9z M39.5,96.7c-0.6,0.5-0.7,0.1-1-0.4c-2.4-3.9-3.8-8.3-4.2-12.9c-1.1-12.5,6-24.5,17.5-29.7
		c11.4-5.1,25-2.5,33.7,6.6c0.9,0.9,0.8,1.3-0.2,2c-4.1,3-8.1,6-12.1,9c-0.3,0.2-0.5,0.7-1,0.4c-0.5-0.3-0.2-0.7-0.1-1.1
		c0.5-1.9,0.5-3.8-0.3-5.6c-0.3-0.7-0.1-0.9,0.4-1.3c1.1-0.7,2.1-1.3,3.1-2c1.3-0.9,1.7-2.1,1-3.2c-0.7-1.1-2-1.3-3.3-0.5
		c-1.3,0.8-2.5,1.6-3.8,2.5c-0.5,0.4-0.9,0.4-1.4,0.1c-2.6-1.3-5.3-1.3-7.9,0c-0.6,0.3-0.9,0.2-1.4-0.1c-1.2-0.8-2.4-1.6-3.6-2.4
		c-1.4-0.9-2.6-0.8-3.4,0.3c-0.7,1.1-0.4,2.4,1,3.3c1.1,0.7,2.1,1.4,3.2,2.1c0.4,0.3,0.6,0.5,0.3,1.1c-0.9,1.9-0.9,3.9-0.3,5.8
		c0.2,0.5,0.1,0.8-0.3,1.2c-1.1,0.9-1.8,2.1-2.1,3.6c-0.2,1.3-0.8,1.6-2,1c-1.1-0.5-2.1-1-3.1-1.5c-1.5-0.7-2.7-0.4-3.3,0.8
		c-0.6,1.2-0.1,2.3,1.4,3.1c1.1,0.6,2.2,1.1,3.3,1.7c0.8,0.5,1.7,0.5,2.7,0.4c0.6,0,0.9,0.1,0.9,0.8c0.1,3.4,0.2,3.4-3.3,3.4
		c-1.6,0-3.3,0-4.9,0c-1.6,0-2.5,0.9-2.5,2.2s0.9,2.2,2.5,2.2c1.1,0,2.2,0,3.4,0c0,0.1,0.1,0.2,0.1,0.2
		C45.6,92.1,42.5,94.4,39.5,96.7z M66.2,92c0-1-0.3-1.8-1.2-2.3c-0.8-0.4-1.5-0.3-2.2,0.2c-0.8,0.6-1,1.4-0.9,2.3c0,2.9,0,5.7,0,8.6
		c0,0.8-0.1,1.1-0.9,0.6c-1.8-1.1-3-2.6-3.1-4.8c-0.1-2.5-0.1-5.1-0.1-7.6c0-0.4,0.1-0.7,0.5-0.9c4-3,8-6,12.2-9.2v12.3
		c0,1.7,0,3.4,0,5.1c-0.1,2.2-1.2,3.8-3,5c-0.7,0.5-1.1,0.5-1.1-0.6C66.2,97.8,66.2,94.9,66.2,92z M58.3,75.3c0.9-0.8,1.4,0.3,2,0.6
		c1.9,0.9,3.9,1,6.2,0.5c-3,2.2-5.8,4.3-8.6,6.5c-0.3-1-0.1-1.9-0.1-2.8c0-0.8,0-1.7,0-2.5S57.5,75.9,58.3,75.3z M59.7,68.2
		c0-2.2,2-4.2,4.2-4.2c2.3,0,4.3,2,4.3,4.3c0,2.3-2,4.2-4.3,4.2C61.6,72.4,59.7,70.4,59.7,68.2z M73.3,109.3
		c-11.2,3.9-24.5,0.1-31.7-8.8c3.8-2.9,7.7-5.7,11.6-8.7c0.2,2.1-0.1,3.9,0.3,5.8c0.8,4.9,4.8,8.6,9.8,9c4.7,0.4,9.2-2.6,10.8-7.2
		c0.5-1.4,1.3-1.7,2.7-1.1c1,0.5,2,1,3,1.5c1.4,0.7,2.6,0.4,3.2-0.8c0.6-1.2,0.1-2.3-1.3-3c-1.2-0.6-2.4-1.2-3.7-1.8
		c-0.6-0.3-1.2-0.5-1.8-0.4c-1.4,0.2-1.6-0.4-1.6-1.6c0.1-2.5,0-2.5,2.5-2.5c1.8,0,3.6,0,5.4,0c1.8,0,2.8-0.8,2.8-2.2
		c0-1.4-1-2.2-2.8-2.2c-2.3,0-4.7,0-7,0c-0.7,0-1-0.2-0.9-0.9c0-0.2,0-0.5,0-0.7c0-0.8-0.2-1.7,0.1-2.3c0.4-0.6,1.4-0.1,2.1-0.3
		c2.1-0.6,3.9-1.6,5.6-2.8c0.9-0.6,0.9-1.6,0.3-2.6c-0.6-0.9-1.7-1.3-2.7-0.8c-1.1,0.5-2.1,1-3.1,1.6c-0.4,0.2-0.7,0.4-1.2,0.3
		c-0.4-0.1-0.9,0.3-1.1-0.2c-0.2-0.6,0.1-0.9,0.6-1.2c2.8-2.1,5.6-4.2,8.4-6.3c1.5-1.2,3.1-2.3,4.6-3.5c0.6-0.5,0.9-0.4,1.3,0.3
		c3.4,5.8,4.9,12.1,3.9,18.8C91.8,96.8,84.9,105.2,73.3,109.3z M103.5,32.8c-0.8-1-2.1-1.1-3.3-0.1c-1.7,1.3-3.4,2.7-5.1,4
		c-1.3,1.1-2.8,1.6-4.5,1.6H37.3c-1.7,0-3.1-0.6-4.4-1.6c-1.6-1.4-3.3-2.7-5-4c-1.3-1-2.6-1-3.4,0.1c-0.8,1-0.5,2.2,0.7,3.2
		c1.6,1.3,3.3,2.6,4.9,3.9c2.3,1.9,4.9,2.8,7.9,2.8c8.7,0,17.4,0,26.1,0c8.7,0,17.5,0,26.2,0c2.8,0,5.3-0.8,7.5-2.5
		c1.7-1.4,3.4-2.8,5.2-4.1C104.1,35,104.3,33.8,103.5,32.8z M104.8,21.6c-1.2-3.3-2.4-6.6-3.6-9.9c-0.8-2.2-2.2-3.2-4.5-3.2H75
		c-2.7,0-4.5,1.6-4.6,4.3c-0.1,3.5-0.1,7.1,0,10.6c0.1,2.7,1.9,4.3,4.6,4.3c4.2,0,8.5,0,12.7,0h12.7C104.1,27.7,106,25,104.8,21.6z
		 M99.6,23.5c-3.9-0.1-7.9,0-11.9,0c-4,0-8,0-12,0c-0.7,0-1.1-0.1-1.1-1c0.1-2.9,0-5.8,0-8.7c0-0.8,0.2-1,1-1c6.8,0,13.6,0,20.3,0
		c0.8,0,1.1,0.2,1.3,0.9c1,2.9,2,5.7,3.1,8.5C100.8,23.2,100.8,23.5,99.6,23.5z M104.8,21.6c-1.2-3.3-2.4-6.6-3.6-9.9
		c-0.8-2.2-2.2-3.2-4.5-3.2H75c-2.7,0-4.5,1.6-4.6,4.3c-0.1,3.5-0.1,7.1,0,10.6c0.1,2.7,1.9,4.3,4.6,4.3c4.2,0,8.5,0,12.7,0h12.7
		C104.1,27.7,106,25,104.8,21.6z M99.6,23.5c-3.9-0.1-7.9,0-11.9,0c-4,0-8,0-12,0c-0.7,0-1.1-0.1-1.1-1c0.1-2.9,0-5.8,0-8.7
		c0-0.8,0.2-1,1-1c6.8,0,13.6,0,20.3,0c0.8,0,1.1,0.2,1.3,0.9c1,2.9,2,5.7,3.1,8.5C100.8,23.2,100.8,23.5,99.6,23.5z M103.5,32.8
		c-0.8-1-2.1-1.1-3.3-0.1c-1.7,1.3-3.4,2.7-5.1,4c-1.3,1.1-2.8,1.6-4.5,1.6H37.3c-1.7,0-3.1-0.6-4.4-1.6c-1.6-1.4-3.3-2.7-5-4
		c-1.3-1-2.6-1-3.4,0.1c-0.8,1-0.5,2.2,0.7,3.2c1.6,1.3,3.3,2.6,4.9,3.9c2.3,1.9,4.9,2.8,7.9,2.8c8.7,0,17.4,0,26.1,0
		c8.7,0,17.5,0,26.2,0c2.8,0,5.3-0.8,7.5-2.5c1.7-1.4,3.4-2.8,5.2-4.1C104.1,35,104.3,33.8,103.5,32.8z M63.8,46.9
		c-18.8,0.1-34,15.3-33.9,33.9c0.1,19.4,15.1,34.4,34.4,34.4c18.6-0.1,33.8-15.4,33.8-33.9C98,61.9,82.9,46.7,63.8,46.9z M39.5,96.7
		c-0.6,0.5-0.7,0.1-1-0.4c-2.4-3.9-3.8-8.3-4.2-12.9c-1.1-12.5,6-24.5,17.5-29.7c11.4-5.1,25-2.5,33.7,6.6c0.9,0.9,0.8,1.3-0.2,2
		c-4.1,3-8.1,6-12.1,9c-0.3,0.2-0.5,0.7-1,0.4c-0.5-0.3-0.2-0.7-0.1-1.1c0.5-1.9,0.5-3.8-0.3-5.6c-0.3-0.7-0.1-0.9,0.4-1.3
		c1.1-0.7,2.1-1.3,3.1-2c1.3-0.9,1.7-2.1,1-3.2c-0.7-1.1-2-1.3-3.3-0.5c-1.3,0.8-2.5,1.6-3.8,2.5c-0.5,0.4-0.9,0.4-1.4,0.1
		c-2.6-1.3-5.3-1.3-7.9,0c-0.6,0.3-0.9,0.2-1.4-0.1c-1.2-0.8-2.4-1.6-3.6-2.4c-1.4-0.9-2.6-0.8-3.4,0.3c-0.7,1.1-0.4,2.4,1,3.3
		c1.1,0.7,2.1,1.4,3.2,2.1c0.4,0.3,0.6,0.5,0.3,1.1c-0.9,1.9-0.9,3.9-0.3,5.8c0.2,0.5,0.1,0.8-0.3,1.2c-1.1,0.9-1.8,2.1-2.1,3.6
		c-0.2,1.3-0.8,1.6-2,1c-1.1-0.5-2.1-1-3.1-1.5c-1.5-0.7-2.7-0.4-3.3,0.8c-0.6,1.2-0.1,2.3,1.4,3.1c1.1,0.6,2.2,1.1,3.3,1.7
		c0.8,0.5,1.7,0.5,2.7,0.4c0.6,0,0.9,0.1,0.9,0.8c0.1,3.4,0.2,3.4-3.3,3.4c-1.6,0-3.3,0-4.9,0c-1.6,0-2.5,0.9-2.5,2.2
		s0.9,2.2,2.5,2.2c1.1,0,2.2,0,3.4,0c0,0.1,0.1,0.2,0.1,0.2C45.6,92.1,42.5,94.4,39.5,96.7z M66.2,92c0-1-0.3-1.8-1.2-2.3
		c-0.8-0.4-1.5-0.3-2.2,0.2c-0.8,0.6-1,1.4-0.9,2.3c0,2.9,0,5.7,0,8.6c0,0.8-0.1,1.1-0.9,0.6c-1.8-1.1-3-2.6-3.1-4.8
		c-0.1-2.5-0.1-5.1-0.1-7.6c0-0.4,0.1-0.7,0.5-0.9c4-3,8-6,12.2-9.2v12.3c0,1.7,0,3.4,0,5.1c-0.1,2.2-1.2,3.8-3,5
		c-0.7,0.5-1.1,0.5-1.1-0.6C66.2,97.8,66.2,94.9,66.2,92z M58.3,75.3c0.9-0.8,1.4,0.3,2,0.6c1.9,0.9,3.9,1,6.2,0.5
		c-3,2.2-5.8,4.3-8.6,6.5c-0.3-1-0.1-1.9-0.1-2.8c0-0.8,0-1.7,0-2.5S57.5,75.9,58.3,75.3z M59.7,68.2c0-2.2,2-4.2,4.2-4.2
		c2.3,0,4.3,2,4.3,4.3c0,2.3-2,4.2-4.3,4.2C61.6,72.4,59.7,70.4,59.7,68.2z M73.3,109.3c-11.2,3.9-24.5,0.1-31.7-8.8
		c3.8-2.9,7.7-5.7,11.6-8.7c0.2,2.1-0.1,3.9,0.3,5.8c0.8,4.9,4.8,8.6,9.8,9c4.7,0.4,9.2-2.6,10.8-7.2c0.5-1.4,1.3-1.7,2.7-1.1
		c1,0.5,2,1,3,1.5c1.4,0.7,2.6,0.4,3.2-0.8c0.6-1.2,0.1-2.3-1.3-3c-1.2-0.6-2.4-1.2-3.7-1.8c-0.6-0.3-1.2-0.5-1.8-0.4
		c-1.4,0.2-1.6-0.4-1.6-1.6c0.1-2.5,0-2.5,2.5-2.5c1.8,0,3.6,0,5.4,0c1.8,0,2.8-0.8,2.8-2.2c0-1.4-1-2.2-2.8-2.2c-2.3,0-4.7,0-7,0
		c-0.7,0-1-0.2-0.9-0.9c0-0.2,0-0.5,0-0.7c0-0.8-0.2-1.7,0.1-2.3c0.4-0.6,1.4-0.1,2.1-0.3c2.1-0.6,3.9-1.6,5.6-2.8
		c0.9-0.6,0.9-1.6,0.3-2.6c-0.6-0.9-1.7-1.3-2.7-0.8c-1.1,0.5-2.1,1-3.1,1.6c-0.4,0.2-0.7,0.4-1.2,0.3c-0.4-0.1-0.9,0.3-1.1-0.2
		c-0.2-0.6,0.1-0.9,0.6-1.2c2.8-2.1,5.6-4.2,8.4-6.3c1.5-1.2,3.1-2.3,4.6-3.5c0.6-0.5,0.9-0.4,1.3,0.3c3.4,5.8,4.9,12.1,3.9,18.8
		C91.8,96.8,84.9,105.2,73.3,109.3z M63.8,46.9c-18.8,0.1-34,15.3-33.9,33.9c0.1,19.4,15.1,34.4,34.4,34.4
		c18.6-0.1,33.8-15.4,33.8-33.9C98,61.9,82.9,46.7,63.8,46.9z M39.5,96.7c-0.6,0.5-0.7,0.1-1-0.4c-2.4-3.9-3.8-8.3-4.2-12.9
		c-1.1-12.5,6-24.5,17.5-29.7c11.4-5.1,25-2.5,33.7,6.6c0.9,0.9,0.8,1.3-0.2,2c-4.1,3-8.1,6-12.1,9c-0.3,0.2-0.5,0.7-1,0.4
		c-0.5-0.3-0.2-0.7-0.1-1.1c0.5-1.9,0.5-3.8-0.3-5.6c-0.3-0.7-0.1-0.9,0.4-1.3c1.1-0.7,2.1-1.3,3.1-2c1.3-0.9,1.7-2.1,1-3.2
		c-0.7-1.1-2-1.3-3.3-0.5c-1.3,0.8-2.5,1.6-3.8,2.5c-0.5,0.4-0.9,0.4-1.4,0.1c-2.6-1.3-5.3-1.3-7.9,0c-0.6,0.3-0.9,0.2-1.4-0.1
		c-1.2-0.8-2.4-1.6-3.6-2.4c-1.4-0.9-2.6-0.8-3.4,0.3c-0.7,1.1-0.4,2.4,1,3.3c1.1,0.7,2.1,1.4,3.2,2.1c0.4,0.3,0.6,0.5,0.3,1.1
		c-0.9,1.9-0.9,3.9-0.3,5.8c0.2,0.5,0.1,0.8-0.3,1.2c-1.1,0.9-1.8,2.1-2.1,3.6c-0.2,1.3-0.8,1.6-2,1c-1.1-0.5-2.1-1-3.1-1.5
		c-1.5-0.7-2.7-0.4-3.3,0.8c-0.6,1.2-0.1,2.3,1.4,3.1c1.1,0.6,2.2,1.1,3.3,1.7c0.8,0.5,1.7,0.5,2.7,0.4c0.6,0,0.9,0.1,0.9,0.8
		c0.1,3.4,0.2,3.4-3.3,3.4c-1.6,0-3.3,0-4.9,0c-1.6,0-2.5,0.9-2.5,2.2s0.9,2.2,2.5,2.2c1.1,0,2.2,0,3.4,0c0,0.1,0.1,0.2,0.1,0.2
		C45.6,92.1,42.5,94.4,39.5,96.7z M66.2,92c0-1-0.3-1.8-1.2-2.3c-0.8-0.4-1.5-0.3-2.2,0.2c-0.8,0.6-1,1.4-0.9,2.3c0,2.9,0,5.7,0,8.6
		c0,0.8-0.1,1.1-0.9,0.6c-1.8-1.1-3-2.6-3.1-4.8c-0.1-2.5-0.1-5.1-0.1-7.6c0-0.4,0.1-0.7,0.5-0.9c4-3,8-6,12.2-9.2v12.3
		c0,1.7,0,3.4,0,5.1c-0.1,2.2-1.2,3.8-3,5c-0.7,0.5-1.1,0.5-1.1-0.6C66.2,97.8,66.2,94.9,66.2,92z M58.3,75.3c0.9-0.8,1.4,0.3,2,0.6
		c1.9,0.9,3.9,1,6.2,0.5c-3,2.2-5.8,4.3-8.6,6.5c-0.3-1-0.1-1.9-0.1-2.8c0-0.8,0-1.7,0-2.5S57.5,75.9,58.3,75.3z M59.7,68.2
		c0-2.2,2-4.2,4.2-4.2c2.3,0,4.3,2,4.3,4.3c0,2.3-2,4.2-4.3,4.2C61.6,72.4,59.7,70.4,59.7,68.2z M73.3,109.3
		c-11.2,3.9-24.5,0.1-31.7-8.8c3.8-2.9,7.7-5.7,11.6-8.7c0.2,2.1-0.1,3.9,0.3,5.8c0.8,4.9,4.8,8.6,9.8,9c4.7,0.4,9.2-2.6,10.8-7.2
		c0.5-1.4,1.3-1.7,2.7-1.1c1,0.5,2,1,3,1.5c1.4,0.7,2.6,0.4,3.2-0.8c0.6-1.2,0.1-2.3-1.3-3c-1.2-0.6-2.4-1.2-3.7-1.8
		c-0.6-0.3-1.2-0.5-1.8-0.4c-1.4,0.2-1.6-0.4-1.6-1.6c0.1-2.5,0-2.5,2.5-2.5c1.8,0,3.6,0,5.4,0c1.8,0,2.8-0.8,2.8-2.2
		c0-1.4-1-2.2-2.8-2.2c-2.3,0-4.7,0-7,0c-0.7,0-1-0.2-0.9-0.9c0-0.2,0-0.5,0-0.7c0-0.8-0.2-1.7,0.1-2.3c0.4-0.6,1.4-0.1,2.1-0.3
		c2.1-0.6,3.9-1.6,5.6-2.8c0.9-0.6,0.9-1.6,0.3-2.6c-0.6-0.9-1.7-1.3-2.7-0.8c-1.1,0.5-2.1,1-3.1,1.6c-0.4,0.2-0.7,0.4-1.2,0.3
		c-0.4-0.1-0.9,0.3-1.1-0.2c-0.2-0.6,0.1-0.9,0.6-1.2c2.8-2.1,5.6-4.2,8.4-6.3c1.5-1.2,3.1-2.3,4.6-3.5c0.6-0.5,0.9-0.4,1.3,0.3
		c3.4,5.8,4.9,12.1,3.9,18.8C91.8,96.8,84.9,105.2,73.3,109.3z M103.5,32.8c-0.8-1-2.1-1.1-3.3-0.1c-1.7,1.3-3.4,2.7-5.1,4
		c-1.3,1.1-2.8,1.6-4.5,1.6H37.3c-1.7,0-3.1-0.6-4.4-1.6c-1.6-1.4-3.3-2.7-5-4c-1.3-1-2.6-1-3.4,0.1c-0.8,1-0.5,2.2,0.7,3.2
		c1.6,1.3,3.3,2.6,4.9,3.9c2.3,1.9,4.9,2.8,7.9,2.8c8.7,0,17.4,0,26.1,0c8.7,0,17.5,0,26.2,0c2.8,0,5.3-0.8,7.5-2.5
		c1.7-1.4,3.4-2.8,5.2-4.1C104.1,35,104.3,33.8,103.5,32.8z M104.8,21.6c-1.2-3.3-2.4-6.6-3.6-9.9c-0.8-2.2-2.2-3.2-4.5-3.2H75
		c-2.7,0-4.5,1.6-4.6,4.3c-0.1,3.5-0.1,7.1,0,10.6c0.1,2.7,1.9,4.3,4.6,4.3c4.2,0,8.5,0,12.7,0h12.7C104.1,27.7,106,25,104.8,21.6z
		 M99.6,23.5c-3.9-0.1-7.9,0-11.9,0c-4,0-8,0-12,0c-0.7,0-1.1-0.1-1.1-1c0.1-2.9,0-5.8,0-8.7c0-0.8,0.2-1,1-1c6.8,0,13.6,0,20.3,0
		c0.8,0,1.1,0.2,1.3,0.9c1,2.9,2,5.7,3.1,8.5C100.8,23.2,100.8,23.5,99.6,23.5z M104.8,21.6c-1.2-3.3-2.4-6.6-3.6-9.9
		c-0.8-2.2-2.2-3.2-4.5-3.2H75c-2.7,0-4.5,1.6-4.6,4.3c-0.1,3.5-0.1,7.1,0,10.6c0.1,2.7,1.9,4.3,4.6,4.3c4.2,0,8.5,0,12.7,0h12.7
		C104.1,27.7,106,25,104.8,21.6z M99.6,23.5c-3.9-0.1-7.9,0-11.9,0c-4,0-8,0-12,0c-0.7,0-1.1-0.1-1.1-1c0.1-2.9,0-5.8,0-8.7
		c0-0.8,0.2-1,1-1c6.8,0,13.6,0,20.3,0c0.8,0,1.1,0.2,1.3,0.9c1,2.9,2,5.7,3.1,8.5C100.8,23.2,100.8,23.5,99.6,23.5z M103.5,32.8
		c-0.8-1-2.1-1.1-3.3-0.1c-1.7,1.3-3.4,2.7-5.1,4c-1.3,1.1-2.8,1.6-4.5,1.6H37.3c-1.7,0-3.1-0.6-4.4-1.6c-1.6-1.4-3.3-2.7-5-4
		c-1.3-1-2.6-1-3.4,0.1c-0.8,1-0.5,2.2,0.7,3.2c1.6,1.3,3.3,2.6,4.9,3.9c2.3,1.9,4.9,2.8,7.9,2.8c8.7,0,17.4,0,26.1,0
		c8.7,0,17.5,0,26.2,0c2.8,0,5.3-0.8,7.5-2.5c1.7-1.4,3.4-2.8,5.2-4.1C104.1,35,104.3,33.8,103.5,32.8z M63.8,46.9
		c-18.8,0.1-34,15.3-33.9,33.9c0.1,19.4,15.1,34.4,34.4,34.4c18.6-0.1,33.8-15.4,33.8-33.9C98,61.9,82.9,46.7,63.8,46.9z M39.5,96.7
		c-0.6,0.5-0.7,0.1-1-0.4c-2.4-3.9-3.8-8.3-4.2-12.9c-1.1-12.5,6-24.5,17.5-29.7c11.4-5.1,25-2.5,33.7,6.6c0.9,0.9,0.8,1.3-0.2,2
		c-4.1,3-8.1,6-12.1,9c-0.3,0.2-0.5,0.7-1,0.4c-0.5-0.3-0.2-0.7-0.1-1.1c0.5-1.9,0.5-3.8-0.3-5.6c-0.3-0.7-0.1-0.9,0.4-1.3
		c1.1-0.7,2.1-1.3,3.1-2c1.3-0.9,1.7-2.1,1-3.2c-0.7-1.1-2-1.3-3.3-0.5c-1.3,0.8-2.5,1.6-3.8,2.5c-0.5,0.4-0.9,0.4-1.4,0.1
		c-2.6-1.3-5.3-1.3-7.9,0c-0.6,0.3-0.9,0.2-1.4-0.1c-1.2-0.8-2.4-1.6-3.6-2.4c-1.4-0.9-2.6-0.8-3.4,0.3c-0.7,1.1-0.4,2.4,1,3.3
		c1.1,0.7,2.1,1.4,3.2,2.1c0.4,0.3,0.6,0.5,0.3,1.1c-0.9,1.9-0.9,3.9-0.3,5.8c0.2,0.5,0.1,0.8-0.3,1.2c-1.1,0.9-1.8,2.1-2.1,3.6
		c-0.2,1.3-0.8,1.6-2,1c-1.1-0.5-2.1-1-3.1-1.5c-1.5-0.7-2.7-0.4-3.3,0.8c-0.6,1.2-0.1,2.3,1.4,3.1c1.1,0.6,2.2,1.1,3.3,1.7
		c0.8,0.5,1.7,0.5,2.7,0.4c0.6,0,0.9,0.1,0.9,0.8c0.1,3.4,0.2,3.4-3.3,3.4c-1.6,0-3.3,0-4.9,0c-1.6,0-2.5,0.9-2.5,2.2
		s0.9,2.2,2.5,2.2c1.1,0,2.2,0,3.4,0c0,0.1,0.1,0.2,0.1,0.2C45.6,92.1,42.5,94.4,39.5,96.7z M66.2,92c0-1-0.3-1.8-1.2-2.3
		c-0.8-0.4-1.5-0.3-2.2,0.2c-0.8,0.6-1,1.4-0.9,2.3c0,2.9,0,5.7,0,8.6c0,0.8-0.1,1.1-0.9,0.6c-1.8-1.1-3-2.6-3.1-4.8
		c-0.1-2.5-0.1-5.1-0.1-7.6c0-0.4,0.1-0.7,0.5-0.9c4-3,8-6,12.2-9.2v12.3c0,1.7,0,3.4,0,5.1c-0.1,2.2-1.2,3.8-3,5
		c-0.7,0.5-1.1,0.5-1.1-0.6C66.2,97.8,66.2,94.9,66.2,92z M58.3,75.3c0.9-0.8,1.4,0.3,2,0.6c1.9,0.9,3.9,1,6.2,0.5
		c-3,2.2-5.8,4.3-8.6,6.5c-0.3-1-0.1-1.9-0.1-2.8c0-0.8,0-1.7,0-2.5S57.5,75.9,58.3,75.3z M59.7,68.2c0-2.2,2-4.2,4.2-4.2
		c2.3,0,4.3,2,4.3,4.3c0,2.3-2,4.2-4.3,4.2C61.6,72.4,59.7,70.4,59.7,68.2z M73.3,109.3c-11.2,3.9-24.5,0.1-31.7-8.8
		c3.8-2.9,7.7-5.7,11.6-8.7c0.2,2.1-0.1,3.9,0.3,5.8c0.8,4.9,4.8,8.6,9.8,9c4.7,0.4,9.2-2.6,10.8-7.2c0.5-1.4,1.3-1.7,2.7-1.1
		c1,0.5,2,1,3,1.5c1.4,0.7,2.6,0.4,3.2-0.8c0.6-1.2,0.1-2.3-1.3-3c-1.2-0.6-2.4-1.2-3.7-1.8c-0.6-0.3-1.2-0.5-1.8-0.4
		c-1.4,0.2-1.6-0.4-1.6-1.6c0.1-2.5,0-2.5,2.5-2.5c1.8,0,3.6,0,5.4,0c1.8,0,2.8-0.8,2.8-2.2c0-1.4-1-2.2-2.8-2.2c-2.3,0-4.7,0-7,0
		c-0.7,0-1-0.2-0.9-0.9c0-0.2,0-0.5,0-0.7c0-0.8-0.2-1.7,0.1-2.3c0.4-0.6,1.4-0.1,2.1-0.3c2.1-0.6,3.9-1.6,5.6-2.8
		c0.9-0.6,0.9-1.6,0.3-2.6c-0.6-0.9-1.7-1.3-2.7-0.8c-1.1,0.5-2.1,1-3.1,1.6c-0.4,0.2-0.7,0.4-1.2,0.3c-0.4-0.1-0.9,0.3-1.1-0.2
		c-0.2-0.6,0.1-0.9,0.6-1.2c2.8-2.1,5.6-4.2,8.4-6.3c1.5-1.2,3.1-2.3,4.6-3.5c0.6-0.5,0.9-0.4,1.3,0.3c3.4,5.8,4.9,12.1,3.9,18.8
		C91.8,96.8,84.9,105.2,73.3,109.3z M63.8,46.9c-18.8,0.1-34,15.3-33.9,33.9c0.1,19.4,15.1,34.4,34.4,34.4
		c18.6-0.1,33.8-15.4,33.8-33.9C98,61.9,82.9,46.7,63.8,46.9z M39.5,96.7c-0.6,0.5-0.7,0.1-1-0.4c-2.4-3.9-3.8-8.3-4.2-12.9
		c-1.1-12.5,6-24.5,17.5-29.7c11.4-5.1,25-2.5,33.7,6.6c0.9,0.9,0.8,1.3-0.2,2c-4.1,3-8.1,6-12.1,9c-0.3,0.2-0.5,0.7-1,0.4
		c-0.5-0.3-0.2-0.7-0.1-1.1c0.5-1.9,0.5-3.8-0.3-5.6c-0.3-0.7-0.1-0.9,0.4-1.3c1.1-0.7,2.1-1.3,3.1-2c1.3-0.9,1.7-2.1,1-3.2
		c-0.7-1.1-2-1.3-3.3-0.5c-1.3,0.8-2.5,1.6-3.8,2.5c-0.5,0.4-0.9,0.4-1.4,0.1c-2.6-1.3-5.3-1.3-7.9,0c-0.6,0.3-0.9,0.2-1.4-0.1
		c-1.2-0.8-2.4-1.6-3.6-2.4c-1.4-0.9-2.6-0.8-3.4,0.3c-0.7,1.1-0.4,2.4,1,3.3c1.1,0.7,2.1,1.4,3.2,2.1c0.4,0.3,0.6,0.5,0.3,1.1
		c-0.9,1.9-0.9,3.9-0.3,5.8c0.2,0.5,0.1,0.8-0.3,1.2c-1.1,0.9-1.8,2.1-2.1,3.6c-0.2,1.3-0.8,1.6-2,1c-1.1-0.5-2.1-1-3.1-1.5
		c-1.5-0.7-2.7-0.4-3.3,0.8c-0.6,1.2-0.1,2.3,1.4,3.1c1.1,0.6,2.2,1.1,3.3,1.7c0.8,0.5,1.7,0.5,2.7,0.4c0.6,0,0.9,0.1,0.9,0.8
		c0.1,3.4,0.2,3.4-3.3,3.4c-1.6,0-3.3,0-4.9,0c-1.6,0-2.5,0.9-2.5,2.2s0.9,2.2,2.5,2.2c1.1,0,2.2,0,3.4,0c0,0.1,0.1,0.2,0.1,0.2
		C45.6,92.1,42.5,94.4,39.5,96.7z M66.2,92c0-1-0.3-1.8-1.2-2.3c-0.8-0.4-1.5-0.3-2.2,0.2c-0.8,0.6-1,1.4-0.9,2.3c0,2.9,0,5.7,0,8.6
		c0,0.8-0.1,1.1-0.9,0.6c-1.8-1.1-3-2.6-3.1-4.8c-0.1-2.5-0.1-5.1-0.1-7.6c0-0.4,0.1-0.7,0.5-0.9c4-3,8-6,12.2-9.2v12.3
		c0,1.7,0,3.4,0,5.1c-0.1,2.2-1.2,3.8-3,5c-0.7,0.5-1.1,0.5-1.1-0.6C66.2,97.8,66.2,94.9,66.2,92z M58.3,75.3c0.9-0.8,1.4,0.3,2,0.6
		c1.9,0.9,3.9,1,6.2,0.5c-3,2.2-5.8,4.3-8.6,6.5c-0.3-1-0.1-1.9-0.1-2.8c0-0.8,0-1.7,0-2.5S57.5,75.9,58.3,75.3z M59.7,68.2
		c0-2.2,2-4.2,4.2-4.2c2.3,0,4.3,2,4.3,4.3c0,2.3-2,4.2-4.3,4.2C61.6,72.4,59.7,70.4,59.7,68.2z M73.3,109.3
		c-11.2,3.9-24.5,0.1-31.7-8.8c3.8-2.9,7.7-5.7,11.6-8.7c0.2,2.1-0.1,3.9,0.3,5.8c0.8,4.9,4.8,8.6,9.8,9c4.7,0.4,9.2-2.6,10.8-7.2
		c0.5-1.4,1.3-1.7,2.7-1.1c1,0.5,2,1,3,1.5c1.4,0.7,2.6,0.4,3.2-0.8c0.6-1.2,0.1-2.3-1.3-3c-1.2-0.6-2.4-1.2-3.7-1.8
		c-0.6-0.3-1.2-0.5-1.8-0.4c-1.4,0.2-1.6-0.4-1.6-1.6c0.1-2.5,0-2.5,2.5-2.5c1.8,0,3.6,0,5.4,0c1.8,0,2.8-0.8,2.8-2.2
		c0-1.4-1-2.2-2.8-2.2c-2.3,0-4.7,0-7,0c-0.7,0-1-0.2-0.9-0.9c0-0.2,0-0.5,0-0.7c0-0.8-0.2-1.7,0.1-2.3c0.4-0.6,1.4-0.1,2.1-0.3
		c2.1-0.6,3.9-1.6,5.6-2.8c0.9-0.6,0.9-1.6,0.3-2.6c-0.6-0.9-1.7-1.3-2.7-0.8c-1.1,0.5-2.1,1-3.1,1.6c-0.4,0.2-0.7,0.4-1.2,0.3
		c-0.4-0.1-0.9,0.3-1.1-0.2c-0.2-0.6,0.1-0.9,0.6-1.2c2.8-2.1,5.6-4.2,8.4-6.3c1.5-1.2,3.1-2.3,4.6-3.5c0.6-0.5,0.9-0.4,1.3,0.3
		c3.4,5.8,4.9,12.1,3.9,18.8C91.8,96.8,84.9,105.2,73.3,109.3z M103.5,32.8c-0.8-1-2.1-1.1-3.3-0.1c-1.7,1.3-3.4,2.7-5.1,4
		c-1.3,1.1-2.8,1.6-4.5,1.6H37.3c-1.7,0-3.1-0.6-4.4-1.6c-1.6-1.4-3.3-2.7-5-4c-1.3-1-2.6-1-3.4,0.1c-0.8,1-0.5,2.2,0.7,3.2
		c1.6,1.3,3.3,2.6,4.9,3.9c2.3,1.9,4.9,2.8,7.9,2.8c8.7,0,17.4,0,26.1,0c8.7,0,17.5,0,26.2,0c2.8,0,5.3-0.8,7.5-2.5
		c1.7-1.4,3.4-2.8,5.2-4.1C104.1,35,104.3,33.8,103.5,32.8z M104.8,21.6c-1.2-3.3-2.4-6.6-3.6-9.9c-0.8-2.2-2.2-3.2-4.5-3.2H75
		c-2.7,0-4.5,1.6-4.6,4.3c-0.1,3.5-0.1,7.1,0,10.6c0.1,2.7,1.9,4.3,4.6,4.3c4.2,0,8.5,0,12.7,0h12.7C104.1,27.7,106,25,104.8,21.6z
		 M99.6,23.5c-3.9-0.1-7.9,0-11.9,0c-4,0-8,0-12,0c-0.7,0-1.1-0.1-1.1-1c0.1-2.9,0-5.8,0-8.7c0-0.8,0.2-1,1-1c6.8,0,13.6,0,20.3,0
		c0.8,0,1.1,0.2,1.3,0.9c1,2.9,2,5.7,3.1,8.5C100.8,23.2,100.8,23.5,99.6,23.5z M104.8,21.6c-1.2-3.3-2.4-6.6-3.6-9.9
		c-0.8-2.2-2.2-3.2-4.5-3.2H75c-2.7,0-4.5,1.6-4.6,4.3c-0.1,3.5-0.1,7.1,0,10.6c0.1,2.7,1.9,4.3,4.6,4.3c4.2,0,8.5,0,12.7,0h12.7
		C104.1,27.7,106,25,104.8,21.6z M99.6,23.5c-3.9-0.1-7.9,0-11.9,0c-4,0-8,0-12,0c-0.7,0-1.1-0.1-1.1-1c0.1-2.9,0-5.8,0-8.7
		c0-0.8,0.2-1,1-1c6.8,0,13.6,0,20.3,0c0.8,0,1.1,0.2,1.3,0.9c1,2.9,2,5.7,3.1,8.5C100.8,23.2,100.8,23.5,99.6,23.5z M103.5,32.8
		c-0.8-1-2.1-1.1-3.3-0.1c-1.7,1.3-3.4,2.7-5.1,4c-1.3,1.1-2.8,1.6-4.5,1.6H37.3c-1.7,0-3.1-0.6-4.4-1.6c-1.6-1.4-3.3-2.7-5-4
		c-1.3-1-2.6-1-3.4,0.1c-0.8,1-0.5,2.2,0.7,3.2c1.6,1.3,3.3,2.6,4.9,3.9c2.3,1.9,4.9,2.8,7.9,2.8c8.7,0,17.4,0,26.1,0
		c8.7,0,17.5,0,26.2,0c2.8,0,5.3-0.8,7.5-2.5c1.7-1.4,3.4-2.8,5.2-4.1C104.1,35,104.3,33.8,103.5,32.8z M63.8,46.9
		c-18.8,0.1-34,15.3-33.9,33.9c0.1,19.4,15.1,34.4,34.4,34.4c18.6-0.1,33.8-15.4,33.8-33.9C98,61.9,82.9,46.7,63.8,46.9z M39.5,96.7
		c-0.6,0.5-0.7,0.1-1-0.4c-2.4-3.9-3.8-8.3-4.2-12.9c-1.1-12.5,6-24.5,17.5-29.7c11.4-5.1,25-2.5,33.7,6.6c0.9,0.9,0.8,1.3-0.2,2
		c-4.1,3-8.1,6-12.1,9c-0.3,0.2-0.5,0.7-1,0.4c-0.5-0.3-0.2-0.7-0.1-1.1c0.5-1.9,0.5-3.8-0.3-5.6c-0.3-0.7-0.1-0.9,0.4-1.3
		c1.1-0.7,2.1-1.3,3.1-2c1.3-0.9,1.7-2.1,1-3.2c-0.7-1.1-2-1.3-3.3-0.5c-1.3,0.8-2.5,1.6-3.8,2.5c-0.5,0.4-0.9,0.4-1.4,0.1
		c-2.6-1.3-5.3-1.3-7.9,0c-0.6,0.3-0.9,0.2-1.4-0.1c-1.2-0.8-2.4-1.6-3.6-2.4c-1.4-0.9-2.6-0.8-3.4,0.3c-0.7,1.1-0.4,2.4,1,3.3
		c1.1,0.7,2.1,1.4,3.2,2.1c0.4,0.3,0.6,0.5,0.3,1.1c-0.9,1.9-0.9,3.9-0.3,5.8c0.2,0.5,0.1,0.8-0.3,1.2c-1.1,0.9-1.8,2.1-2.1,3.6
		c-0.2,1.3-0.8,1.6-2,1c-1.1-0.5-2.1-1-3.1-1.5c-1.5-0.7-2.7-0.4-3.3,0.8c-0.6,1.2-0.1,2.3,1.4,3.1c1.1,0.6,2.2,1.1,3.3,1.7
		c0.8,0.5,1.7,0.5,2.7,0.4c0.6,0,0.9,0.1,0.9,0.8c0.1,3.4,0.2,3.4-3.3,3.4c-1.6,0-3.3,0-4.9,0c-1.6,0-2.5,0.9-2.5,2.2
		s0.9,2.2,2.5,2.2c1.1,0,2.2,0,3.4,0c0,0.1,0.1,0.2,0.1,0.2C45.6,92.1,42.5,94.4,39.5,96.7z M66.2,92c0-1-0.3-1.8-1.2-2.3
		c-0.8-0.4-1.5-0.3-2.2,0.2c-0.8,0.6-1,1.4-0.9,2.3c0,2.9,0,5.7,0,8.6c0,0.8-0.1,1.1-0.9,0.6c-1.8-1.1-3-2.6-3.1-4.8
		c-0.1-2.5-0.1-5.1-0.1-7.6c0-0.4,0.1-0.7,0.5-0.9c4-3,8-6,12.2-9.2v12.3c0,1.7,0,3.4,0,5.1c-0.1,2.2-1.2,3.8-3,5
		c-0.7,0.5-1.1,0.5-1.1-0.6C66.2,97.8,66.2,94.9,66.2,92z M58.3,75.3c0.9-0.8,1.4,0.3,2,0.6c1.9,0.9,3.9,1,6.2,0.5
		c-3,2.2-5.8,4.3-8.6,6.5c-0.3-1-0.1-1.9-0.1-2.8c0-0.8,0-1.7,0-2.5S57.5,75.9,58.3,75.3z M59.7,68.2c0-2.2,2-4.2,4.2-4.2
		c2.3,0,4.3,2,4.3,4.3c0,2.3-2,4.2-4.3,4.2C61.6,72.4,59.7,70.4,59.7,68.2z M73.3,109.3c-11.2,3.9-24.5,0.1-31.7-8.8
		c3.8-2.9,7.7-5.7,11.6-8.7c0.2,2.1-0.1,3.9,0.3,5.8c0.8,4.9,4.8,8.6,9.8,9c4.7,0.4,9.2-2.6,10.8-7.2c0.5-1.4,1.3-1.7,2.7-1.1
		c1,0.5,2,1,3,1.5c1.4,0.7,2.6,0.4,3.2-0.8c0.6-1.2,0.1-2.3-1.3-3c-1.2-0.6-2.4-1.2-3.7-1.8c-0.6-0.3-1.2-0.5-1.8-0.4
		c-1.4,0.2-1.6-0.4-1.6-1.6c0.1-2.5,0-2.5,2.5-2.5c1.8,0,3.6,0,5.4,0c1.8,0,2.8-0.8,2.8-2.2c0-1.4-1-2.2-2.8-2.2c-2.3,0-4.7,0-7,0
		c-0.7,0-1-0.2-0.9-0.9c0-0.2,0-0.5,0-0.7c0-0.8-0.2-1.7,0.1-2.3c0.4-0.6,1.4-0.1,2.1-0.3c2.1-0.6,3.9-1.6,5.6-2.8
		c0.9-0.6,0.9-1.6,0.3-2.6c-0.6-0.9-1.7-1.3-2.7-0.8c-1.1,0.5-2.1,1-3.1,1.6c-0.4,0.2-0.7,0.4-1.2,0.3c-0.4-0.1-0.9,0.3-1.1-0.2
		c-0.2-0.6,0.1-0.9,0.6-1.2c2.8-2.1,5.6-4.2,8.4-6.3c1.5-1.2,3.1-2.3,4.6-3.5c0.6-0.5,0.9-0.4,1.3,0.3c3.4,5.8,4.9,12.1,3.9,18.8
		C91.8,96.8,84.9,105.2,73.3,109.3z M63.8,46.9c-18.8,0.1-34,15.3-33.9,33.9c0.1,19.4,15.1,34.4,34.4,34.4
		c18.6-0.1,33.8-15.4,33.8-33.9C98,61.9,82.9,46.7,63.8,46.9z M39.5,96.7c-0.6,0.5-0.7,0.1-1-0.4c-2.4-3.9-3.8-8.3-4.2-12.9
		c-1.1-12.5,6-24.5,17.5-29.7c11.4-5.1,25-2.5,33.7,6.6c0.9,0.9,0.8,1.3-0.2,2c-4.1,3-8.1,6-12.1,9c-0.3,0.2-0.5,0.7-1,0.4
		c-0.5-0.3-0.2-0.7-0.1-1.1c0.5-1.9,0.5-3.8-0.3-5.6c-0.3-0.7-0.1-0.9,0.4-1.3c1.1-0.7,2.1-1.3,3.1-2c1.3-0.9,1.7-2.1,1-3.2
		c-0.7-1.1-2-1.3-3.3-0.5c-1.3,0.8-2.5,1.6-3.8,2.5c-0.5,0.4-0.9,0.4-1.4,0.1c-2.6-1.3-5.3-1.3-7.9,0c-0.6,0.3-0.9,0.2-1.4-0.1
		c-1.2-0.8-2.4-1.6-3.6-2.4c-1.4-0.9-2.6-0.8-3.4,0.3c-0.7,1.1-0.4,2.4,1,3.3c1.1,0.7,2.1,1.4,3.2,2.1c0.4,0.3,0.6,0.5,0.3,1.1
		c-0.9,1.9-0.9,3.9-0.3,5.8c0.2,0.5,0.1,0.8-0.3,1.2c-1.1,0.9-1.8,2.1-2.1,3.6c-0.2,1.3-0.8,1.6-2,1c-1.1-0.5-2.1-1-3.1-1.5
		c-1.5-0.7-2.7-0.4-3.3,0.8c-0.6,1.2-0.1,2.3,1.4,3.1c1.1,0.6,2.2,1.1,3.3,1.7c0.8,0.5,1.7,0.5,2.7,0.4c0.6,0,0.9,0.1,0.9,0.8
		c0.1,3.4,0.2,3.4-3.3,3.4c-1.6,0-3.3,0-4.9,0c-1.6,0-2.5,0.9-2.5,2.2s0.9,2.2,2.5,2.2c1.1,0,2.2,0,3.4,0c0,0.1,0.1,0.2,0.1,0.2
		C45.6,92.1,42.5,94.4,39.5,96.7z M66.2,92c0-1-0.3-1.8-1.2-2.3c-0.8-0.4-1.5-0.3-2.2,0.2c-0.8,0.6-1,1.4-0.9,2.3c0,2.9,0,5.7,0,8.6
		c0,0.8-0.1,1.1-0.9,0.6c-1.8-1.1-3-2.6-3.1-4.8c-0.1-2.5-0.1-5.1-0.1-7.6c0-0.4,0.1-0.7,0.5-0.9c4-3,8-6,12.2-9.2v12.3
		c0,1.7,0,3.4,0,5.1c-0.1,2.2-1.2,3.8-3,5c-0.7,0.5-1.1,0.5-1.1-0.6C66.2,97.8,66.2,94.9,66.2,92z M58.3,75.3c0.9-0.8,1.4,0.3,2,0.6
		c1.9,0.9,3.9,1,6.2,0.5c-3,2.2-5.8,4.3-8.6,6.5c-0.3-1-0.1-1.9-0.1-2.8c0-0.8,0-1.7,0-2.5S57.5,75.9,58.3,75.3z M59.7,68.2
		c0-2.2,2-4.2,4.2-4.2c2.3,0,4.3,2,4.3,4.3c0,2.3-2,4.2-4.3,4.2C61.6,72.4,59.7,70.4,59.7,68.2z M73.3,109.3
		c-11.2,3.9-24.5,0.1-31.7-8.8c3.8-2.9,7.7-5.7,11.6-8.7c0.2,2.1-0.1,3.9,0.3,5.8c0.8,4.9,4.8,8.6,9.8,9c4.7,0.4,9.2-2.6,10.8-7.2
		c0.5-1.4,1.3-1.7,2.7-1.1c1,0.5,2,1,3,1.5c1.4,0.7,2.6,0.4,3.2-0.8c0.6-1.2,0.1-2.3-1.3-3c-1.2-0.6-2.4-1.2-3.7-1.8
		c-0.6-0.3-1.2-0.5-1.8-0.4c-1.4,0.2-1.6-0.4-1.6-1.6c0.1-2.5,0-2.5,2.5-2.5c1.8,0,3.6,0,5.4,0c1.8,0,2.8-0.8,2.8-2.2
		c0-1.4-1-2.2-2.8-2.2c-2.3,0-4.7,0-7,0c-0.7,0-1-0.2-0.9-0.9c0-0.2,0-0.5,0-0.7c0-0.8-0.2-1.7,0.1-2.3c0.4-0.6,1.4-0.1,2.1-0.3
		c2.1-0.6,3.9-1.6,5.6-2.8c0.9-0.6,0.9-1.6,0.3-2.6c-0.6-0.9-1.7-1.3-2.7-0.8c-1.1,0.5-2.1,1-3.1,1.6c-0.4,0.2-0.7,0.4-1.2,0.3
		c-0.4-0.1-0.9,0.3-1.1-0.2c-0.2-0.6,0.1-0.9,0.6-1.2c2.8-2.1,5.6-4.2,8.4-6.3c1.5-1.2,3.1-2.3,4.6-3.5c0.6-0.5,0.9-0.4,1.3,0.3
		c3.4,5.8,4.9,12.1,3.9,18.8C91.8,96.8,84.9,105.2,73.3,109.3z M103.5,32.8c-0.8-1-2.1-1.1-3.3-0.1c-1.7,1.3-3.4,2.7-5.1,4
		c-1.3,1.1-2.8,1.6-4.5,1.6H37.3c-1.7,0-3.1-0.6-4.4-1.6c-1.6-1.4-3.3-2.7-5-4c-1.3-1-2.6-1-3.4,0.1c-0.8,1-0.5,2.2,0.7,3.2
		c1.6,1.3,3.3,2.6,4.9,3.9c2.3,1.9,4.9,2.8,7.9,2.8c8.7,0,17.4,0,26.1,0c8.7,0,17.5,0,26.2,0c2.8,0,5.3-0.8,7.5-2.5
		c1.7-1.4,3.4-2.8,5.2-4.1C104.1,35,104.3,33.8,103.5,32.8z M104.8,21.6c-1.2-3.3-2.4-6.6-3.6-9.9c-0.8-2.2-2.2-3.2-4.5-3.2H75
		c-2.7,0-4.5,1.6-4.6,4.3c-0.1,3.5-0.1,7.1,0,10.6c0.1,2.7,1.9,4.3,4.6,4.3c4.2,0,8.5,0,12.7,0h12.7C104.1,27.7,106,25,104.8,21.6z
		 M99.6,23.5c-3.9-0.1-7.9,0-11.9,0c-4,0-8,0-12,0c-0.7,0-1.1-0.1-1.1-1c0.1-2.9,0-5.8,0-8.7c0-0.8,0.2-1,1-1c6.8,0,13.6,0,20.3,0
		c0.8,0,1.1,0.2,1.3,0.9c1,2.9,2,5.7,3.1,8.5C100.8,23.2,100.8,23.5,99.6,23.5z M75,27.7c4.2,0,8.5,0,12.7,0h12.7
		c3.6,0,5.5-2.7,4.3-6.1c-1.2-3.3-2.4-6.6-3.6-9.9c-0.8-2.2-2.2-3.2-4.5-3.2H75c-2.7,0-4.5,1.6-4.6,4.3c-0.1,3.5-0.1,7.1,0,10.6
		C70.4,26.1,72.3,27.7,75,27.7z M74.7,13.7c0-0.8,0.2-1,1-1c6.8,0,13.6,0,20.3,0c0.8,0,1.1,0.2,1.3,0.9c1,2.9,2,5.7,3.1,8.5
		c0.4,0.9,0.3,1.3-0.8,1.2c-3.9-0.1-7.9,0-11.9,0c-4,0-8,0-12,0c-0.7,0-1.1-0.1-1.1-1C74.8,19.6,74.7,16.7,74.7,13.7z M100.2,32.6
		c-1.7,1.3-3.4,2.7-5.1,4c-1.3,1.1-2.8,1.6-4.5,1.6H37.3c-1.7,0-3.1-0.6-4.4-1.6c-1.6-1.4-3.3-2.7-5-4c-1.3-1-2.6-1-3.4,0.1
		c-0.8,1-0.5,2.2,0.7,3.2c1.6,1.3,3.3,2.6,4.9,3.9c2.3,1.9,4.9,2.8,7.9,2.8c8.7,0,17.4,0,26.1,0c8.7,0,17.5,0,26.2,0
		c2.8,0,5.3-0.8,7.5-2.5c1.7-1.4,3.4-2.8,5.2-4.1c1.2-1,1.4-2.2,0.6-3.2C102.7,31.7,101.4,31.7,100.2,32.6z M63.8,46.9
		c-18.8,0.1-34,15.3-33.9,33.9c0.1,19.4,15.1,34.4,34.4,34.4c18.6-0.1,33.8-15.4,33.8-33.9C98,61.9,82.9,46.7,63.8,46.9z M39.5,96.7
		c-0.6,0.5-0.7,0.1-1-0.4c-2.4-3.9-3.8-8.3-4.2-12.9c-1.1-12.5,6-24.5,17.5-29.7c11.4-5.1,25-2.5,33.7,6.6c0.9,0.9,0.8,1.3-0.2,2
		c-4.1,3-8.1,6-12.1,9c-0.3,0.2-0.5,0.7-1,0.4c-0.5-0.3-0.2-0.7-0.1-1.1c0.5-1.9,0.5-3.8-0.3-5.6c-0.3-0.7-0.1-0.9,0.4-1.3
		c1.1-0.7,2.1-1.3,3.1-2c1.3-0.9,1.7-2.1,1-3.2c-0.7-1.1-2-1.3-3.3-0.5c-1.3,0.8-2.5,1.6-3.8,2.5c-0.5,0.4-0.9,0.4-1.4,0.1
		c-2.6-1.3-5.3-1.3-7.9,0c-0.6,0.3-0.9,0.2-1.4-0.1c-1.2-0.8-2.4-1.6-3.6-2.4c-1.4-0.9-2.6-0.8-3.4,0.3c-0.7,1.1-0.4,2.4,1,3.3
		c1.1,0.7,2.1,1.4,3.2,2.1c0.4,0.3,0.6,0.5,0.3,1.1c-0.9,1.9-0.9,3.9-0.3,5.8c0.2,0.5,0.1,0.8-0.3,1.2c-1.1,0.9-1.8,2.1-2.1,3.6
		c-0.2,1.3-0.8,1.6-2,1c-1.1-0.5-2.1-1-3.1-1.5c-1.5-0.7-2.7-0.4-3.3,0.8c-0.6,1.2-0.1,2.3,1.4,3.1c1.1,0.6,2.2,1.1,3.3,1.7
		c0.8,0.5,1.7,0.5,2.7,0.4c0.6,0,0.9,0.1,0.9,0.8c0.1,3.4,0.2,3.4-3.3,3.4c-1.6,0-3.3,0-4.9,0c-1.6,0-2.5,0.9-2.5,2.2
		s0.9,2.2,2.5,2.2c1.1,0,2.2,0,3.4,0c0,0.1,0.1,0.2,0.1,0.2C45.6,92.1,42.5,94.4,39.5,96.7z M66.2,92c0-1-0.3-1.8-1.2-2.3
		c-0.8-0.4-1.5-0.3-2.2,0.2c-0.8,0.6-1,1.4-0.9,2.3c0,2.9,0,5.7,0,8.6c0,0.8-0.1,1.1-0.9,0.6c-1.8-1.1-3-2.6-3.1-4.8
		c-0.1-2.5-0.1-5.1-0.1-7.6c0-0.4,0.1-0.7,0.5-0.9c4-3,8-6,12.2-9.2v12.3c0,1.7,0,3.4,0,5.1c-0.1,2.2-1.2,3.8-3,5
		c-0.7,0.5-1.1,0.5-1.1-0.6C66.2,97.8,66.2,94.9,66.2,92z M58.3,75.3c0.9-0.8,1.4,0.3,2,0.6c1.9,0.9,3.9,1,6.2,0.5
		c-3,2.2-5.8,4.3-8.6,6.5c-0.3-1-0.1-1.9-0.1-2.8c0-0.8,0-1.7,0-2.5S57.5,75.9,58.3,75.3z M59.7,68.2c0-2.2,2-4.2,4.2-4.2
		c2.3,0,4.3,2,4.3,4.3c0,2.3-2,4.2-4.3,4.2C61.6,72.4,59.7,70.4,59.7,68.2z M89.6,65.8c3.4,5.8,4.9,12.1,3.9,18.8
		c-1.7,12.3-8.6,20.7-20.2,24.8c-11.2,3.9-24.5,0.1-31.7-8.8c3.8-2.9,7.7-5.7,11.6-8.7c0.2,2.1-0.1,3.9,0.3,5.8
		c0.8,4.9,4.8,8.6,9.8,9c4.7,0.4,9.2-2.6,10.8-7.2c0.5-1.4,1.3-1.7,2.7-1.1c1,0.5,2,1,3,1.5c1.4,0.7,2.6,0.4,3.2-0.8
		c0.6-1.2,0.1-2.3-1.3-3c-1.2-0.6-2.4-1.2-3.7-1.8c-0.6-0.3-1.2-0.5-1.8-0.4c-1.4,0.2-1.6-0.4-1.6-1.6c0.1-2.5,0-2.5,2.5-2.5
		c1.8,0,3.6,0,5.4,0c1.8,0,2.8-0.8,2.8-2.2c0-1.4-1-2.2-2.8-2.2c-2.3,0-4.7,0-7,0c-0.7,0-1-0.2-0.9-0.9c0-0.2,0-0.5,0-0.7
		c0-0.8-0.2-1.7,0.1-2.3c0.4-0.6,1.4-0.1,2.1-0.3c2.1-0.6,3.9-1.6,5.6-2.8c0.9-0.6,0.9-1.6,0.3-2.6c-0.6-0.9-1.7-1.3-2.7-0.8
		c-1.1,0.5-2.1,1-3.1,1.6c-0.4,0.2-0.7,0.4-1.2,0.3c-0.4-0.1-0.9,0.3-1.1-0.2c-0.2-0.6,0.1-0.9,0.6-1.2c2.8-2.1,5.6-4.2,8.4-6.3
		c1.5-1.2,3.1-2.3,4.6-3.5C88.9,65,89.2,65,89.6,65.8z M115.2,28.3c0-1.9-0.3-3.6-0.9-5.4c-1.9-5.2-3.9-10.4-5.6-15.6
		c-1.2-3.7-3.3-6.3-7.2-7.2H68.7c-0.9,0.3-1.9,0.2-2.7,0.7c-2.2,1.4-3.7,3.4-4.4,6c-0.3,1.3-0.3,2.6-0.3,4c0,1.5-0.7,2.5-1.9,3.3
		c-1,0.7-1.4,0.5-1.4-0.7c0-2,0-4.1,0-6.1c-0.1-4-2-6.4-5.6-7.1h-20c0,0.2-0.2,0.2-0.4,0.3c-3.1,1.3-4.4,3.2-4.4,6.5
		c0,2.6,0,5.3,0,7.9c0,1-0.2,1.8-1,2.5c-3.1,3-6,6-9,9c-3.4,3.3-5,7.2-5,11.9c0,20,0,40,0,60c0,2,0,3.9,0.2,5.9
		c0.7,7.7,3.2,14.7,7.5,21.1c1.3,1.9,3.1,2.9,5.4,2.8c1.2,0,2.3-0.1,3.5,0c3.9,0.4,7.1-0.6,9.6-3.8l0.2-0.2c0.9-0.8,2-0.8,2.9-0.1
		c0.7,0.6,1.4,1.3,2.1,2c1.4,1.3,3,2,4.9,2c2.2-0.1,4.5,0,6.7,0c1.9,0,3.4-0.6,4.7-1.9c0.6-0.6,1.2-1.2,1.8-1.8
		c1.3-1.3,2.3-1.3,3.6,0c0.5,0.5,1.1,1.1,1.6,1.6c1.4,1.3,3,2.1,4.9,2c2.2-0.1,4.5-0.1,6.7,0c1.9,0,3.5-0.6,4.8-1.9
		c0.7-0.7,1.3-1.4,2-2c1-0.8,2.1-0.8,3,0c0.7,0.6,1.2,1.2,1.9,1.9c1.4,1.4,3,2.1,5,2.1c2.1-0.1,4.2,0,6.3,0c2.4,0,4.3-1,5.6-3
		c4.8-7.4,7.5-15.5,7.5-24.3C115.2,76.5,115.2,52.4,115.2,28.3z M32,6.9c0-2.1,2-3.3,3.9-2.7c0.4,0.2,0.3,0.4,0.3,0.7
		c0,1.2,0,2.3,0,3.5c0,1.3,1,2.3,2.2,2.2c1.2,0,2.1-0.9,2.1-2.2c0-1.1,0.1-2.3,0-3.4c0-0.7,0.2-1,0.9-0.9c1.1,0.1,2.4-0.4,3.1,0.2
		c0.6,0.6,0.1,2,0.2,3c0,0.4,0,0.9,0,1.4c0.1,1.1,1.1,1.9,2.2,1.9c1.1,0,2-0.8,2.1-1.9c0.1-1.3,0.1-2.5,0.1-3.7
		c0-0.6,0.2-0.8,0.8-0.8c0.5,0.1,1,0,1.5,0c1.2,0.2,1.9,0.9,1.9,2.1c0,2.6,0,5.1,0,7.7c0,0.7-0.3,0.8-0.9,0.8c-3.3,0-6.5,0-9.7,0
		c-3.2,0-6.4,0-9.6,0c-0.8,0-1.1-0.2-1-1C32.1,11.6,32,9.2,32,6.9z M110.9,65.1c0,11.4,0,22.7,0,34.1c0,8.2-2.1,15.7-6.4,22.7
		c-0.8,1.3-1.8,1.9-3.3,1.8c-1-0.1-2.1-0.1-3.1,0c-2.4,0.3-4.2-0.4-5.7-2.3c-0.9-1.2-2.2-1.9-3.6-2.2c-2.2-0.5-4.3,0-5.7,1.6
		c-2,2.5-4.5,3.2-7.4,2.9c-0.2,0-0.4,0-0.6,0c-2.6,0.4-4.5-0.5-6.2-2.5c-2.8-3.1-6.8-3.1-9.5,0c-1.8,1.9-3.6,2.9-6.2,2.5
		c-0.3-0.1-0.7-0.1-1,0c-2.9,0.4-5-0.5-7-2.7c-2.5-2.8-6.5-2.8-9,0c-2,2.2-4.2,2.9-7.1,2.8c-4.8-0.3-4.1,0.7-6.7-4
		c-3.5-6.3-5.1-13.1-5.1-20.3c0-20.5,0-41,0-61.4c0-3.4,1.1-6.3,3.6-8.7c3.2-3.1,6.3-6.2,9.3-9.4c0.5-0.5,1-0.7,1.8-0.7
		c8.4,0,16.8,0,25.2,0c5.5,0,9.1-3.6,9.2-9.1V9c0-3,1.7-4.7,4.7-4.7c7.9,0,15.8,0,23.7,0c1.6,0,3.2,0,4.9,0c2.4,0,3.9,1,4.7,3.2
		c1.9,5.4,3.9,10.7,5.8,16.1c0.7,1.8,0.9,3.7,0.9,5.6V65.1z M101.2,11.7c-0.8-2.2-2.2-3.2-4.5-3.2H75c-2.7,0-4.5,1.6-4.6,4.3
		c-0.1,3.5-0.1,7.1,0,10.6c0.1,2.7,1.9,4.3,4.6,4.3c4.2,0,8.5,0,12.7,0h12.7c3.6,0,5.5-2.7,4.3-6.1C103.6,18.3,102.4,15,101.2,11.7z
		 M99.6,23.5c-3.9-0.1-7.9,0-11.9,0c-4,0-8,0-12,0c-0.7,0-1.1-0.1-1.1-1c0.1-2.9,0-5.8,0-8.7c0-0.8,0.2-1,1-1c6.8,0,13.6,0,20.3,0
		c0.8,0,1.1,0.2,1.3,0.9c1,2.9,2,5.7,3.1,8.5C100.8,23.2,100.8,23.5,99.6,23.5z M100.2,32.6c-1.7,1.3-3.4,2.7-5.1,4
		c-1.3,1.1-2.8,1.6-4.5,1.6H37.3c-1.7,0-3.1-0.6-4.4-1.6c-1.6-1.4-3.3-2.7-5-4c-1.3-1-2.6-1-3.4,0.1c-0.8,1-0.5,2.2,0.7,3.2
		c1.6,1.3,3.3,2.6,4.9,3.9c2.3,1.9,4.9,2.8,7.9,2.8c8.7,0,17.4,0,26.1,0c8.7,0,17.5,0,26.2,0c2.8,0,5.3-0.8,7.5-2.5
		c1.7-1.4,3.4-2.8,5.2-4.1c1.2-1,1.4-2.2,0.6-3.2C102.7,31.7,101.4,31.7,100.2,32.6z M63.8,46.9c-18.8,0.1-34,15.3-33.9,33.9
		c0.1,19.4,15.1,34.4,34.4,34.4c18.6-0.1,33.8-15.4,33.8-33.9C98,61.9,82.9,46.7,63.8,46.9z M39.5,96.7c-0.6,0.5-0.7,0.1-1-0.4
		c-2.4-3.9-3.8-8.3-4.2-12.9c-1.1-12.5,6-24.5,17.5-29.7c11.4-5.1,25-2.5,33.7,6.6c0.9,0.9,0.8,1.3-0.2,2c-4.1,3-8.1,6-12.1,9
		c-0.3,0.2-0.5,0.7-1,0.4c-0.5-0.3-0.2-0.7-0.1-1.1c0.5-1.9,0.5-3.8-0.3-5.6c-0.3-0.7-0.1-0.9,0.4-1.3c1.1-0.7,2.1-1.3,3.1-2
		c1.3-0.9,1.7-2.1,1-3.2c-0.7-1.1-2-1.3-3.3-0.5c-1.3,0.8-2.5,1.6-3.8,2.5c-0.5,0.4-0.9,0.4-1.4,0.1c-2.6-1.3-5.3-1.3-7.9,0
		c-0.6,0.3-0.9,0.2-1.4-0.1c-1.2-0.8-2.4-1.6-3.6-2.4c-1.4-0.9-2.6-0.8-3.4,0.3c-0.7,1.1-0.4,2.4,1,3.3c1.1,0.7,2.1,1.4,3.2,2.1
		c0.4,0.3,0.6,0.5,0.3,1.1c-0.9,1.9-0.9,3.9-0.3,5.8c0.2,0.5,0.1,0.8-0.3,1.2c-1.1,0.9-1.8,2.1-2.1,3.6c-0.2,1.3-0.8,1.6-2,1
		c-1.1-0.5-2.1-1-3.1-1.5c-1.5-0.7-2.7-0.4-3.3,0.8c-0.6,1.2-0.1,2.3,1.4,3.1c1.1,0.6,2.2,1.1,3.3,1.7c0.8,0.5,1.7,0.5,2.7,0.4
		c0.6,0,0.9,0.1,0.9,0.8c0.1,3.4,0.2,3.4-3.3,3.4c-1.6,0-3.3,0-4.9,0c-1.6,0-2.5,0.9-2.5,2.2s0.9,2.2,2.5,2.2c1.1,0,2.2,0,3.4,0
		c0,0.1,0.1,0.2,0.1,0.2C45.6,92.1,42.5,94.4,39.5,96.7z M66.2,92c0-1-0.3-1.8-1.2-2.3c-0.8-0.4-1.5-0.3-2.2,0.2
		c-0.8,0.6-1,1.4-0.9,2.3c0,2.9,0,5.7,0,8.6c0,0.8-0.1,1.1-0.9,0.6c-1.8-1.1-3-2.6-3.1-4.8c-0.1-2.5-0.1-5.1-0.1-7.6
		c0-0.4,0.1-0.7,0.5-0.9c4-3,8-6,12.2-9.2v12.3c0,1.7,0,3.4,0,5.1c-0.1,2.2-1.2,3.8-3,5c-0.7,0.5-1.1,0.5-1.1-0.6
		C66.2,97.8,66.2,94.9,66.2,92z M58.3,75.3c0.9-0.8,1.4,0.3,2,0.6c1.9,0.9,3.9,1,6.2,0.5c-3,2.2-5.8,4.3-8.6,6.5
		c-0.3-1-0.1-1.9-0.1-2.8c0-0.8,0-1.7,0-2.5S57.5,75.9,58.3,75.3z M59.7,68.2c0-2.2,2-4.2,4.2-4.2c2.3,0,4.3,2,4.3,4.3
		c0,2.3-2,4.2-4.3,4.2C61.6,72.4,59.7,70.4,59.7,68.2z M89.6,65.8c3.4,5.8,4.9,12.1,3.9,18.8c-1.7,12.3-8.6,20.7-20.2,24.8
		c-11.2,3.9-24.5,0.1-31.7-8.8c3.8-2.9,7.7-5.7,11.6-8.7c0.2,2.1-0.1,3.9,0.3,5.8c0.8,4.9,4.8,8.6,9.8,9c4.7,0.4,9.2-2.6,10.8-7.2
		c0.5-1.4,1.3-1.7,2.7-1.1c1,0.5,2,1,3,1.5c1.4,0.7,2.6,0.4,3.2-0.8c0.6-1.2,0.1-2.3-1.3-3c-1.2-0.6-2.4-1.2-3.7-1.8
		c-0.6-0.3-1.2-0.5-1.8-0.4c-1.4,0.2-1.6-0.4-1.6-1.6c0.1-2.5,0-2.5,2.5-2.5c1.8,0,3.6,0,5.4,0c1.8,0,2.8-0.8,2.8-2.2
		c0-1.4-1-2.2-2.8-2.2c-2.3,0-4.7,0-7,0c-0.7,0-1-0.2-0.9-0.9c0-0.2,0-0.5,0-0.7c0-0.8-0.2-1.7,0.1-2.3c0.4-0.6,1.4-0.1,2.1-0.3
		c2.1-0.6,3.9-1.6,5.6-2.8c0.9-0.6,0.9-1.6,0.3-2.6c-0.6-0.9-1.7-1.3-2.7-0.8c-1.1,0.5-2.1,1-3.1,1.6c-0.4,0.2-0.7,0.4-1.2,0.3
		c-0.4-0.1-0.9,0.3-1.1-0.2c-0.2-0.6,0.1-0.9,0.6-1.2c2.8-2.1,5.6-4.2,8.4-6.3c1.5-1.2,3.1-2.3,4.6-3.5C88.9,65,89.2,65,89.6,65.8z
		 M63.8,46.9c-18.8,0.1-34,15.3-33.9,33.9c0.1,19.4,15.1,34.4,34.4,34.4c18.6-0.1,33.8-15.4,33.8-33.9C98,61.9,82.9,46.7,63.8,46.9z
		 M39.5,96.7c-0.6,0.5-0.7,0.1-1-0.4c-2.4-3.9-3.8-8.3-4.2-12.9c-1.1-12.5,6-24.5,17.5-29.7c11.4-5.1,25-2.5,33.7,6.6
		c0.9,0.9,0.8,1.3-0.2,2c-4.1,3-8.1,6-12.1,9c-0.3,0.2-0.5,0.7-1,0.4c-0.5-0.3-0.2-0.7-0.1-1.1c0.5-1.9,0.5-3.8-0.3-5.6
		c-0.3-0.7-0.1-0.9,0.4-1.3c1.1-0.7,2.1-1.3,3.1-2c1.3-0.9,1.7-2.1,1-3.2c-0.7-1.1-2-1.3-3.3-0.5c-1.3,0.8-2.5,1.6-3.8,2.5
		c-0.5,0.4-0.9,0.4-1.4,0.1c-2.6-1.3-5.3-1.3-7.9,0c-0.6,0.3-0.9,0.2-1.4-0.1c-1.2-0.8-2.4-1.6-3.6-2.4c-1.4-0.9-2.6-0.8-3.4,0.3
		c-0.7,1.1-0.4,2.4,1,3.3c1.1,0.7,2.1,1.4,3.2,2.1c0.4,0.3,0.6,0.5,0.3,1.1c-0.9,1.9-0.9,3.9-0.3,5.8c0.2,0.5,0.1,0.8-0.3,1.2
		c-1.1,0.9-1.8,2.1-2.1,3.6c-0.2,1.3-0.8,1.6-2,1c-1.1-0.5-2.1-1-3.1-1.5c-1.5-0.7-2.7-0.4-3.3,0.8c-0.6,1.2-0.1,2.3,1.4,3.1
		c1.1,0.6,2.2,1.1,3.3,1.7c0.8,0.5,1.7,0.5,2.7,0.4c0.6,0,0.9,0.1,0.9,0.8c0.1,3.4,0.2,3.4-3.3,3.4c-1.6,0-3.3,0-4.9,0
		c-1.6,0-2.5,0.9-2.5,2.2s0.9,2.2,2.5,2.2c1.1,0,2.2,0,3.4,0c0,0.1,0.1,0.2,0.1,0.2C45.6,92.1,42.5,94.4,39.5,96.7z M66.2,92
		c0-1-0.3-1.8-1.2-2.3c-0.8-0.4-1.5-0.3-2.2,0.2c-0.8,0.6-1,1.4-0.9,2.3c0,2.9,0,5.7,0,8.6c0,0.8-0.1,1.1-0.9,0.6
		c-1.8-1.1-3-2.6-3.1-4.8c-0.1-2.5-0.1-5.1-0.1-7.6c0-0.4,0.1-0.7,0.5-0.9c4-3,8-6,12.2-9.2v12.3c0,1.7,0,3.4,0,5.1
		c-0.1,2.2-1.2,3.8-3,5c-0.7,0.5-1.1,0.5-1.1-0.6C66.2,97.8,66.2,94.9,66.2,92z M58.3,75.3c0.9-0.8,1.4,0.3,2,0.6
		c1.9,0.9,3.9,1,6.2,0.5c-3,2.2-5.8,4.3-8.6,6.5c-0.3-1-0.1-1.9-0.1-2.8c0-0.8,0-1.7,0-2.5S57.5,75.9,58.3,75.3z M59.7,68.2
		c0-2.2,2-4.2,4.2-4.2c2.3,0,4.3,2,4.3,4.3c0,2.3-2,4.2-4.3,4.2C61.6,72.4,59.7,70.4,59.7,68.2z M73.3,109.3
		c-11.2,3.9-24.5,0.1-31.7-8.8c3.8-2.9,7.7-5.7,11.6-8.7c0.2,2.1-0.1,3.9,0.3,5.8c0.8,4.9,4.8,8.6,9.8,9c4.7,0.4,9.2-2.6,10.8-7.2
		c0.5-1.4,1.3-1.7,2.7-1.1c1,0.5,2,1,3,1.5c1.4,0.7,2.6,0.4,3.2-0.8c0.6-1.2,0.1-2.3-1.3-3c-1.2-0.6-2.4-1.2-3.7-1.8
		c-0.6-0.3-1.2-0.5-1.8-0.4c-1.4,0.2-1.6-0.4-1.6-1.6c0.1-2.5,0-2.5,2.5-2.5c1.8,0,3.6,0,5.4,0c1.8,0,2.8-0.8,2.8-2.2
		c0-1.4-1-2.2-2.8-2.2c-2.3,0-4.7,0-7,0c-0.7,0-1-0.2-0.9-0.9c0-0.2,0-0.5,0-0.7c0-0.8-0.2-1.7,0.1-2.3c0.4-0.6,1.4-0.1,2.1-0.3
		c2.1-0.6,3.9-1.6,5.6-2.8c0.9-0.6,0.9-1.6,0.3-2.6c-0.6-0.9-1.7-1.3-2.7-0.8c-1.1,0.5-2.1,1-3.1,1.6c-0.4,0.2-0.7,0.4-1.2,0.3
		c-0.4-0.1-0.9,0.3-1.1-0.2c-0.2-0.6,0.1-0.9,0.6-1.2c2.8-2.1,5.6-4.2,8.4-6.3c1.5-1.2,3.1-2.3,4.6-3.5c0.6-0.5,0.9-0.4,1.3,0.3
		c3.4,5.8,4.9,12.1,3.9,18.8C91.8,96.8,84.9,105.2,73.3,109.3z M103.5,32.8c-0.8-1-2.1-1.1-3.3-0.1c-1.7,1.3-3.4,2.7-5.1,4
		c-1.3,1.1-2.8,1.6-4.5,1.6H37.3c-1.7,0-3.1-0.6-4.4-1.6c-1.6-1.4-3.3-2.7-5-4c-1.3-1-2.6-1-3.4,0.1c-0.8,1-0.5,2.2,0.7,3.2
		c1.6,1.3,3.3,2.6,4.9,3.9c2.3,1.9,4.9,2.8,7.9,2.8c8.7,0,17.4,0,26.1,0c8.7,0,17.5,0,26.2,0c2.8,0,5.3-0.8,7.5-2.5
		c1.7-1.4,3.4-2.8,5.2-4.1C104.1,35,104.3,33.8,103.5,32.8z M104.8,21.6c-1.2-3.3-2.4-6.6-3.6-9.9c-0.8-2.2-2.2-3.2-4.5-3.2H75
		c-2.7,0-4.5,1.6-4.6,4.3c-0.1,3.5-0.1,7.1,0,10.6c0.1,2.7,1.9,4.3,4.6,4.3c4.2,0,8.5,0,12.7,0h12.7C104.1,27.7,106,25,104.8,21.6z
		 M99.6,23.5c-3.9-0.1-7.9,0-11.9,0c-4,0-8,0-12,0c-0.7,0-1.1-0.1-1.1-1c0.1-2.9,0-5.8,0-8.7c0-0.8,0.2-1,1-1c6.8,0,13.6,0,20.3,0
		c0.8,0,1.1,0.2,1.3,0.9c1,2.9,2,5.7,3.1,8.5C100.8,23.2,100.8,23.5,99.6,23.5z M104.8,21.6c-1.2-3.3-2.4-6.6-3.6-9.9
		c-0.8-2.2-2.2-3.2-4.5-3.2H75c-2.7,0-4.5,1.6-4.6,4.3c-0.1,3.5-0.1,7.1,0,10.6c0.1,2.7,1.9,4.3,4.6,4.3c4.2,0,8.5,0,12.7,0h12.7
		C104.1,27.7,106,25,104.8,21.6z M99.6,23.5c-3.9-0.1-7.9,0-11.9,0c-4,0-8,0-12,0c-0.7,0-1.1-0.1-1.1-1c0.1-2.9,0-5.8,0-8.7
		c0-0.8,0.2-1,1-1c6.8,0,13.6,0,20.3,0c0.8,0,1.1,0.2,1.3,0.9c1,2.9,2,5.7,3.1,8.5C100.8,23.2,100.8,23.5,99.6,23.5z M103.5,32.8
		c-0.8-1-2.1-1.1-3.3-0.1c-1.7,1.3-3.4,2.7-5.1,4c-1.3,1.1-2.8,1.6-4.5,1.6H37.3c-1.7,0-3.1-0.6-4.4-1.6c-1.6-1.4-3.3-2.7-5-4
		c-1.3-1-2.6-1-3.4,0.1c-0.8,1-0.5,2.2,0.7,3.2c1.6,1.3,3.3,2.6,4.9,3.9c2.3,1.9,4.9,2.8,7.9,2.8c8.7,0,17.4,0,26.1,0
		c8.7,0,17.5,0,26.2,0c2.8,0,5.3-0.8,7.5-2.5c1.7-1.4,3.4-2.8,5.2-4.1C104.1,35,104.3,33.8,103.5,32.8z M63.8,46.9
		c-18.8,0.1-34,15.3-33.9,33.9c0.1,19.4,15.1,34.4,34.4,34.4c18.6-0.1,33.8-15.4,33.8-33.9C98,61.9,82.9,46.7,63.8,46.9z M39.5,96.7
		c-0.6,0.5-0.7,0.1-1-0.4c-2.4-3.9-3.8-8.3-4.2-12.9c-1.1-12.5,6-24.5,17.5-29.7c11.4-5.1,25-2.5,33.7,6.6c0.9,0.9,0.8,1.3-0.2,2
		c-4.1,3-8.1,6-12.1,9c-0.3,0.2-0.5,0.7-1,0.4c-0.5-0.3-0.2-0.7-0.1-1.1c0.5-1.9,0.5-3.8-0.3-5.6c-0.3-0.7-0.1-0.9,0.4-1.3
		c1.1-0.7,2.1-1.3,3.1-2c1.3-0.9,1.7-2.1,1-3.2c-0.7-1.1-2-1.3-3.3-0.5c-1.3,0.8-2.5,1.6-3.8,2.5c-0.5,0.4-0.9,0.4-1.4,0.1
		c-2.6-1.3-5.3-1.3-7.9,0c-0.6,0.3-0.9,0.2-1.4-0.1c-1.2-0.8-2.4-1.6-3.6-2.4c-1.4-0.9-2.6-0.8-3.4,0.3c-0.7,1.1-0.4,2.4,1,3.3
		c1.1,0.7,2.1,1.4,3.2,2.1c0.4,0.3,0.6,0.5,0.3,1.1c-0.9,1.9-0.9,3.9-0.3,5.8c0.2,0.5,0.1,0.8-0.3,1.2c-1.1,0.9-1.8,2.1-2.1,3.6
		c-0.2,1.3-0.8,1.6-2,1c-1.1-0.5-2.1-1-3.1-1.5c-1.5-0.7-2.7-0.4-3.3,0.8c-0.6,1.2-0.1,2.3,1.4,3.1c1.1,0.6,2.2,1.1,3.3,1.7
		c0.8,0.5,1.7,0.5,2.7,0.4c0.6,0,0.9,0.1,0.9,0.8c0.1,3.4,0.2,3.4-3.3,3.4c-1.6,0-3.3,0-4.9,0c-1.6,0-2.5,0.9-2.5,2.2
		s0.9,2.2,2.5,2.2c1.1,0,2.2,0,3.4,0c0,0.1,0.1,0.2,0.1,0.2C45.6,92.1,42.5,94.4,39.5,96.7z M66.2,92c0-1-0.3-1.8-1.2-2.3
		c-0.8-0.4-1.5-0.3-2.2,0.2c-0.8,0.6-1,1.4-0.9,2.3c0,2.9,0,5.7,0,8.6c0,0.8-0.1,1.1-0.9,0.6c-1.8-1.1-3-2.6-3.1-4.8
		c-0.1-2.5-0.1-5.1-0.1-7.6c0-0.4,0.1-0.7,0.5-0.9c4-3,8-6,12.2-9.2v12.3c0,1.7,0,3.4,0,5.1c-0.1,2.2-1.2,3.8-3,5
		c-0.7,0.5-1.1,0.5-1.1-0.6C66.2,97.8,66.2,94.9,66.2,92z M58.3,75.3c0.9-0.8,1.4,0.3,2,0.6c1.9,0.9,3.9,1,6.2,0.5
		c-3,2.2-5.8,4.3-8.6,6.5c-0.3-1-0.1-1.9-0.1-2.8c0-0.8,0-1.7,0-2.5S57.5,75.9,58.3,75.3z M59.7,68.2c0-2.2,2-4.2,4.2-4.2
		c2.3,0,4.3,2,4.3,4.3c0,2.3-2,4.2-4.3,4.2C61.6,72.4,59.7,70.4,59.7,68.2z M73.3,109.3c-11.2,3.9-24.5,0.1-31.7-8.8
		c3.8-2.9,7.7-5.7,11.6-8.7c0.2,2.1-0.1,3.9,0.3,5.8c0.8,4.9,4.8,8.6,9.8,9c4.7,0.4,9.2-2.6,10.8-7.2c0.5-1.4,1.3-1.7,2.7-1.1
		c1,0.5,2,1,3,1.5c1.4,0.7,2.6,0.4,3.2-0.8c0.6-1.2,0.1-2.3-1.3-3c-1.2-0.6-2.4-1.2-3.7-1.8c-0.6-0.3-1.2-0.5-1.8-0.4
		c-1.4,0.2-1.6-0.4-1.6-1.6c0.1-2.5,0-2.5,2.5-2.5c1.8,0,3.6,0,5.4,0c1.8,0,2.8-0.8,2.8-2.2c0-1.4-1-2.2-2.8-2.2c-2.3,0-4.7,0-7,0
		c-0.7,0-1-0.2-0.9-0.9c0-0.2,0-0.5,0-0.7c0-0.8-0.2-1.7,0.1-2.3c0.4-0.6,1.4-0.1,2.1-0.3c2.1-0.6,3.9-1.6,5.6-2.8
		c0.9-0.6,0.9-1.6,0.3-2.6c-0.6-0.9-1.7-1.3-2.7-0.8c-1.1,0.5-2.1,1-3.1,1.6c-0.4,0.2-0.7,0.4-1.2,0.3c-0.4-0.1-0.9,0.3-1.1-0.2
		c-0.2-0.6,0.1-0.9,0.6-1.2c2.8-2.1,5.6-4.2,8.4-6.3c1.5-1.2,3.1-2.3,4.6-3.5c0.6-0.5,0.9-0.4,1.3,0.3c3.4,5.8,4.9,12.1,3.9,18.8
		C91.8,96.8,84.9,105.2,73.3,109.3z M63.8,46.9c-18.8,0.1-34,15.3-33.9,33.9c0.1,19.4,15.1,34.4,34.4,34.4
		c18.6-0.1,33.8-15.4,33.8-33.9C98,61.9,82.9,46.7,63.8,46.9z M39.5,96.7c-0.6,0.5-0.7,0.1-1-0.4c-2.4-3.9-3.8-8.3-4.2-12.9
		c-1.1-12.5,6-24.5,17.5-29.7c11.4-5.1,25-2.5,33.7,6.6c0.9,0.9,0.8,1.3-0.2,2c-4.1,3-8.1,6-12.1,9c-0.3,0.2-0.5,0.7-1,0.4
		c-0.5-0.3-0.2-0.7-0.1-1.1c0.5-1.9,0.5-3.8-0.3-5.6c-0.3-0.7-0.1-0.9,0.4-1.3c1.1-0.7,2.1-1.3,3.1-2c1.3-0.9,1.7-2.1,1-3.2
		c-0.7-1.1-2-1.3-3.3-0.5c-1.3,0.8-2.5,1.6-3.8,2.5c-0.5,0.4-0.9,0.4-1.4,0.1c-2.6-1.3-5.3-1.3-7.9,0c-0.6,0.3-0.9,0.2-1.4-0.1
		c-1.2-0.8-2.4-1.6-3.6-2.4c-1.4-0.9-2.6-0.8-3.4,0.3c-0.7,1.1-0.4,2.4,1,3.3c1.1,0.7,2.1,1.4,3.2,2.1c0.4,0.3,0.6,0.5,0.3,1.1
		c-0.9,1.9-0.9,3.9-0.3,5.8c0.2,0.5,0.1,0.8-0.3,1.2c-1.1,0.9-1.8,2.1-2.1,3.6c-0.2,1.3-0.8,1.6-2,1c-1.1-0.5-2.1-1-3.1-1.5
		c-1.5-0.7-2.7-0.4-3.3,0.8c-0.6,1.2-0.1,2.3,1.4,3.1c1.1,0.6,2.2,1.1,3.3,1.7c0.8,0.5,1.7,0.5,2.7,0.4c0.6,0,0.9,0.1,0.9,0.8
		c0.1,3.4,0.2,3.4-3.3,3.4c-1.6,0-3.3,0-4.9,0c-1.6,0-2.5,0.9-2.5,2.2s0.9,2.2,2.5,2.2c1.1,0,2.2,0,3.4,0c0,0.1,0.1,0.2,0.1,0.2
		C45.6,92.1,42.5,94.4,39.5,96.7z M66.2,92c0-1-0.3-1.8-1.2-2.3c-0.8-0.4-1.5-0.3-2.2,0.2c-0.8,0.6-1,1.4-0.9,2.3c0,2.9,0,5.7,0,8.6
		c0,0.8-0.1,1.1-0.9,0.6c-1.8-1.1-3-2.6-3.1-4.8c-0.1-2.5-0.1-5.1-0.1-7.6c0-0.4,0.1-0.7,0.5-0.9c4-3,8-6,12.2-9.2v12.3
		c0,1.7,0,3.4,0,5.1c-0.1,2.2-1.2,3.8-3,5c-0.7,0.5-1.1,0.5-1.1-0.6C66.2,97.8,66.2,94.9,66.2,92z M58.3,75.3c0.9-0.8,1.4,0.3,2,0.6
		c1.9,0.9,3.9,1,6.2,0.5c-3,2.2-5.8,4.3-8.6,6.5c-0.3-1-0.1-1.9-0.1-2.8c0-0.8,0-1.7,0-2.5S57.5,75.9,58.3,75.3z M59.7,68.2
		c0-2.2,2-4.2,4.2-4.2c2.3,0,4.3,2,4.3,4.3c0,2.3-2,4.2-4.3,4.2C61.6,72.4,59.7,70.4,59.7,68.2z M73.3,109.3
		c-11.2,3.9-24.5,0.1-31.7-8.8c3.8-2.9,7.7-5.7,11.6-8.7c0.2,2.1-0.1,3.9,0.3,5.8c0.8,4.9,4.8,8.6,9.8,9c4.7,0.4,9.2-2.6,10.8-7.2
		c0.5-1.4,1.3-1.7,2.7-1.1c1,0.5,2,1,3,1.5c1.4,0.7,2.6,0.4,3.2-0.8c0.6-1.2,0.1-2.3-1.3-3c-1.2-0.6-2.4-1.2-3.7-1.8
		c-0.6-0.3-1.2-0.5-1.8-0.4c-1.4,0.2-1.6-0.4-1.6-1.6c0.1-2.5,0-2.5,2.5-2.5c1.8,0,3.6,0,5.4,0c1.8,0,2.8-0.8,2.8-2.2
		c0-1.4-1-2.2-2.8-2.2c-2.3,0-4.7,0-7,0c-0.7,0-1-0.2-0.9-0.9c0-0.2,0-0.5,0-0.7c0-0.8-0.2-1.7,0.1-2.3c0.4-0.6,1.4-0.1,2.1-0.3
		c2.1-0.6,3.9-1.6,5.6-2.8c0.9-0.6,0.9-1.6,0.3-2.6c-0.6-0.9-1.7-1.3-2.7-0.8c-1.1,0.5-2.1,1-3.1,1.6c-0.4,0.2-0.7,0.4-1.2,0.3
		c-0.4-0.1-0.9,0.3-1.1-0.2c-0.2-0.6,0.1-0.9,0.6-1.2c2.8-2.1,5.6-4.2,8.4-6.3c1.5-1.2,3.1-2.3,4.6-3.5c0.6-0.5,0.9-0.4,1.3,0.3
		c3.4,5.8,4.9,12.1,3.9,18.8C91.8,96.8,84.9,105.2,73.3,109.3z M103.5,32.8c-0.8-1-2.1-1.1-3.3-0.1c-1.7,1.3-3.4,2.7-5.1,4
		c-1.3,1.1-2.8,1.6-4.5,1.6H37.3c-1.7,0-3.1-0.6-4.4-1.6c-1.6-1.4-3.3-2.7-5-4c-1.3-1-2.6-1-3.4,0.1c-0.8,1-0.5,2.2,0.7,3.2
		c1.6,1.3,3.3,2.6,4.9,3.9c2.3,1.9,4.9,2.8,7.9,2.8c8.7,0,17.4,0,26.1,0c8.7,0,17.5,0,26.2,0c2.8,0,5.3-0.8,7.5-2.5
		c1.7-1.4,3.4-2.8,5.2-4.1C104.1,35,104.3,33.8,103.5,32.8z M104.8,21.6c-1.2-3.3-2.4-6.6-3.6-9.9c-0.8-2.2-2.2-3.2-4.5-3.2H75
		c-2.7,0-4.5,1.6-4.6,4.3c-0.1,3.5-0.1,7.1,0,10.6c0.1,2.7,1.9,4.3,4.6,4.3c4.2,0,8.5,0,12.7,0h12.7C104.1,27.7,106,25,104.8,21.6z
		 M99.6,23.5c-3.9-0.1-7.9,0-11.9,0c-4,0-8,0-12,0c-0.7,0-1.1-0.1-1.1-1c0.1-2.9,0-5.8,0-8.7c0-0.8,0.2-1,1-1c6.8,0,13.6,0,20.3,0
		c0.8,0,1.1,0.2,1.3,0.9c1,2.9,2,5.7,3.1,8.5C100.8,23.2,100.8,23.5,99.6,23.5z M104.8,21.6c-1.2-3.3-2.4-6.6-3.6-9.9
		c-0.8-2.2-2.2-3.2-4.5-3.2H75c-2.7,0-4.5,1.6-4.6,4.3c-0.1,3.5-0.1,7.1,0,10.6c0.1,2.7,1.9,4.3,4.6,4.3c4.2,0,8.5,0,12.7,0h12.7
		C104.1,27.7,106,25,104.8,21.6z M99.6,23.5c-3.9-0.1-7.9,0-11.9,0c-4,0-8,0-12,0c-0.7,0-1.1-0.1-1.1-1c0.1-2.9,0-5.8,0-8.7
		c0-0.8,0.2-1,1-1c6.8,0,13.6,0,20.3,0c0.8,0,1.1,0.2,1.3,0.9c1,2.9,2,5.7,3.1,8.5C100.8,23.2,100.8,23.5,99.6,23.5z M103.5,32.8
		c-0.8-1-2.1-1.1-3.3-0.1c-1.7,1.3-3.4,2.7-5.1,4c-1.3,1.1-2.8,1.6-4.5,1.6H37.3c-1.7,0-3.1-0.6-4.4-1.6c-1.6-1.4-3.3-2.7-5-4
		c-1.3-1-2.6-1-3.4,0.1c-0.8,1-0.5,2.2,0.7,3.2c1.6,1.3,3.3,2.6,4.9,3.9c2.3,1.9,4.9,2.8,7.9,2.8c8.7,0,17.4,0,26.1,0
		c8.7,0,17.5,0,26.2,0c2.8,0,5.3-0.8,7.5-2.5c1.7-1.4,3.4-2.8,5.2-4.1C104.1,35,104.3,33.8,103.5,32.8z M63.8,46.9
		c-18.8,0.1-34,15.3-33.9,33.9c0.1,19.4,15.1,34.4,34.4,34.4c18.6-0.1,33.8-15.4,33.8-33.9C98,61.9,82.9,46.7,63.8,46.9z M39.5,96.7
		c-0.6,0.5-0.7,0.1-1-0.4c-2.4-3.9-3.8-8.3-4.2-12.9c-1.1-12.5,6-24.5,17.5-29.7c11.4-5.1,25-2.5,33.7,6.6c0.9,0.9,0.8,1.3-0.2,2
		c-4.1,3-8.1,6-12.1,9c-0.3,0.2-0.5,0.7-1,0.4c-0.5-0.3-0.2-0.7-0.1-1.1c0.5-1.9,0.5-3.8-0.3-5.6c-0.3-0.7-0.1-0.9,0.4-1.3
		c1.1-0.7,2.1-1.3,3.1-2c1.3-0.9,1.7-2.1,1-3.2c-0.7-1.1-2-1.3-3.3-0.5c-1.3,0.8-2.5,1.6-3.8,2.5c-0.5,0.4-0.9,0.4-1.4,0.1
		c-2.6-1.3-5.3-1.3-7.9,0c-0.6,0.3-0.9,0.2-1.4-0.1c-1.2-0.8-2.4-1.6-3.6-2.4c-1.4-0.9-2.6-0.8-3.4,0.3c-0.7,1.1-0.4,2.4,1,3.3
		c1.1,0.7,2.1,1.4,3.2,2.1c0.4,0.3,0.6,0.5,0.3,1.1c-0.9,1.9-0.9,3.9-0.3,5.8c0.2,0.5,0.1,0.8-0.3,1.2c-1.1,0.9-1.8,2.1-2.1,3.6
		c-0.2,1.3-0.8,1.6-2,1c-1.1-0.5-2.1-1-3.1-1.5c-1.5-0.7-2.7-0.4-3.3,0.8c-0.6,1.2-0.1,2.3,1.4,3.1c1.1,0.6,2.2,1.1,3.3,1.7
		c0.8,0.5,1.7,0.5,2.7,0.4c0.6,0,0.9,0.1,0.9,0.8c0.1,3.4,0.2,3.4-3.3,3.4c-1.6,0-3.3,0-4.9,0c-1.6,0-2.5,0.9-2.5,2.2
		s0.9,2.2,2.5,2.2c1.1,0,2.2,0,3.4,0c0,0.1,0.1,0.2,0.1,0.2C45.6,92.1,42.5,94.4,39.5,96.7z M66.2,92c0-1-0.3-1.8-1.2-2.3
		c-0.8-0.4-1.5-0.3-2.2,0.2c-0.8,0.6-1,1.4-0.9,2.3c0,2.9,0,5.7,0,8.6c0,0.8-0.1,1.1-0.9,0.6c-1.8-1.1-3-2.6-3.1-4.8
		c-0.1-2.5-0.1-5.1-0.1-7.6c0-0.4,0.1-0.7,0.5-0.9c4-3,8-6,12.2-9.2v12.3c0,1.7,0,3.4,0,5.1c-0.1,2.2-1.2,3.8-3,5
		c-0.7,0.5-1.1,0.5-1.1-0.6C66.2,97.8,66.2,94.9,66.2,92z M58.3,75.3c0.9-0.8,1.4,0.3,2,0.6c1.9,0.9,3.9,1,6.2,0.5
		c-3,2.2-5.8,4.3-8.6,6.5c-0.3-1-0.1-1.9-0.1-2.8c0-0.8,0-1.7,0-2.5S57.5,75.9,58.3,75.3z M59.7,68.2c0-2.2,2-4.2,4.2-4.2
		c2.3,0,4.3,2,4.3,4.3c0,2.3-2,4.2-4.3,4.2C61.6,72.4,59.7,70.4,59.7,68.2z M73.3,109.3c-11.2,3.9-24.5,0.1-31.7-8.8
		c3.8-2.9,7.7-5.7,11.6-8.7c0.2,2.1-0.1,3.9,0.3,5.8c0.8,4.9,4.8,8.6,9.8,9c4.7,0.4,9.2-2.6,10.8-7.2c0.5-1.4,1.3-1.7,2.7-1.1
		c1,0.5,2,1,3,1.5c1.4,0.7,2.6,0.4,3.2-0.8c0.6-1.2,0.1-2.3-1.3-3c-1.2-0.6-2.4-1.2-3.7-1.8c-0.6-0.3-1.2-0.5-1.8-0.4
		c-1.4,0.2-1.6-0.4-1.6-1.6c0.1-2.5,0-2.5,2.5-2.5c1.8,0,3.6,0,5.4,0c1.8,0,2.8-0.8,2.8-2.2c0-1.4-1-2.2-2.8-2.2c-2.3,0-4.7,0-7,0
		c-0.7,0-1-0.2-0.9-0.9c0-0.2,0-0.5,0-0.7c0-0.8-0.2-1.7,0.1-2.3c0.4-0.6,1.4-0.1,2.1-0.3c2.1-0.6,3.9-1.6,5.6-2.8
		c0.9-0.6,0.9-1.6,0.3-2.6c-0.6-0.9-1.7-1.3-2.7-0.8c-1.1,0.5-2.1,1-3.1,1.6c-0.4,0.2-0.7,0.4-1.2,0.3c-0.4-0.1-0.9,0.3-1.1-0.2
		c-0.2-0.6,0.1-0.9,0.6-1.2c2.8-2.1,5.6-4.2,8.4-6.3c1.5-1.2,3.1-2.3,4.6-3.5c0.6-0.5,0.9-0.4,1.3,0.3c3.4,5.8,4.9,12.1,3.9,18.8
		C91.8,96.8,84.9,105.2,73.3,109.3z M63.8,46.9c-18.8,0.1-34,15.3-33.9,33.9c0.1,19.4,15.1,34.4,34.4,34.4
		c18.6-0.1,33.8-15.4,33.8-33.9C98,61.9,82.9,46.7,63.8,46.9z M39.5,96.7c-0.6,0.5-0.7,0.1-1-0.4c-2.4-3.9-3.8-8.3-4.2-12.9
		c-1.1-12.5,6-24.5,17.5-29.7c11.4-5.1,25-2.5,33.7,6.6c0.9,0.9,0.8,1.3-0.2,2c-4.1,3-8.1,6-12.1,9c-0.3,0.2-0.5,0.7-1,0.4
		c-0.5-0.3-0.2-0.7-0.1-1.1c0.5-1.9,0.5-3.8-0.3-5.6c-0.3-0.7-0.1-0.9,0.4-1.3c1.1-0.7,2.1-1.3,3.1-2c1.3-0.9,1.7-2.1,1-3.2
		c-0.7-1.1-2-1.3-3.3-0.5c-1.3,0.8-2.5,1.6-3.8,2.5c-0.5,0.4-0.9,0.4-1.4,0.1c-2.6-1.3-5.3-1.3-7.9,0c-0.6,0.3-0.9,0.2-1.4-0.1
		c-1.2-0.8-2.4-1.6-3.6-2.4c-1.4-0.9-2.6-0.8-3.4,0.3c-0.7,1.1-0.4,2.4,1,3.3c1.1,0.7,2.1,1.4,3.2,2.1c0.4,0.3,0.6,0.5,0.3,1.1
		c-0.9,1.9-0.9,3.9-0.3,5.8c0.2,0.5,0.1,0.8-0.3,1.2c-1.1,0.9-1.8,2.1-2.1,3.6c-0.2,1.3-0.8,1.6-2,1c-1.1-0.5-2.1-1-3.1-1.5
		c-1.5-0.7-2.7-0.4-3.3,0.8c-0.6,1.2-0.1,2.3,1.4,3.1c1.1,0.6,2.2,1.1,3.3,1.7c0.8,0.5,1.7,0.5,2.7,0.4c0.6,0,0.9,0.1,0.9,0.8
		c0.1,3.4,0.2,3.4-3.3,3.4c-1.6,0-3.3,0-4.9,0c-1.6,0-2.5,0.9-2.5,2.2s0.9,2.2,2.5,2.2c1.1,0,2.2,0,3.4,0c0,0.1,0.1,0.2,0.1,0.2
		C45.6,92.1,42.5,94.4,39.5,96.7z M66.2,92c0-1-0.3-1.8-1.2-2.3c-0.8-0.4-1.5-0.3-2.2,0.2c-0.8,0.6-1,1.4-0.9,2.3c0,2.9,0,5.7,0,8.6
		c0,0.8-0.1,1.1-0.9,0.6c-1.8-1.1-3-2.6-3.1-4.8c-0.1-2.5-0.1-5.1-0.1-7.6c0-0.4,0.1-0.7,0.5-0.9c4-3,8-6,12.2-9.2v12.3
		c0,1.7,0,3.4,0,5.1c-0.1,2.2-1.2,3.8-3,5c-0.7,0.5-1.1,0.5-1.1-0.6C66.2,97.8,66.2,94.9,66.2,92z M58.3,75.3c0.9-0.8,1.4,0.3,2,0.6
		c1.9,0.9,3.9,1,6.2,0.5c-3,2.2-5.8,4.3-8.6,6.5c-0.3-1-0.1-1.9-0.1-2.8c0-0.8,0-1.7,0-2.5S57.5,75.9,58.3,75.3z M59.7,68.2
		c0-2.2,2-4.2,4.2-4.2c2.3,0,4.3,2,4.3,4.3c0,2.3-2,4.2-4.3,4.2C61.6,72.4,59.7,70.4,59.7,68.2z M73.3,109.3
		c-11.2,3.9-24.5,0.1-31.7-8.8c3.8-2.9,7.7-5.7,11.6-8.7c0.2,2.1-0.1,3.9,0.3,5.8c0.8,4.9,4.8,8.6,9.8,9c4.7,0.4,9.2-2.6,10.8-7.2
		c0.5-1.4,1.3-1.7,2.7-1.1c1,0.5,2,1,3,1.5c1.4,0.7,2.6,0.4,3.2-0.8c0.6-1.2,0.1-2.3-1.3-3c-1.2-0.6-2.4-1.2-3.7-1.8
		c-0.6-0.3-1.2-0.5-1.8-0.4c-1.4,0.2-1.6-0.4-1.6-1.6c0.1-2.5,0-2.5,2.5-2.5c1.8,0,3.6,0,5.4,0c1.8,0,2.8-0.8,2.8-2.2
		c0-1.4-1-2.2-2.8-2.2c-2.3,0-4.7,0-7,0c-0.7,0-1-0.2-0.9-0.9c0-0.2,0-0.5,0-0.7c0-0.8-0.2-1.7,0.1-2.3c0.4-0.6,1.4-0.1,2.1-0.3
		c2.1-0.6,3.9-1.6,5.6-2.8c0.9-0.6,0.9-1.6,0.3-2.6c-0.6-0.9-1.7-1.3-2.7-0.8c-1.1,0.5-2.1,1-3.1,1.6c-0.4,0.2-0.7,0.4-1.2,0.3
		c-0.4-0.1-0.9,0.3-1.1-0.2c-0.2-0.6,0.1-0.9,0.6-1.2c2.8-2.1,5.6-4.2,8.4-6.3c1.5-1.2,3.1-2.3,4.6-3.5c0.6-0.5,0.9-0.4,1.3,0.3
		c3.4,5.8,4.9,12.1,3.9,18.8C91.8,96.8,84.9,105.2,73.3,109.3z M103.5,32.8c-0.8-1-2.1-1.1-3.3-0.1c-1.7,1.3-3.4,2.7-5.1,4
		c-1.3,1.1-2.8,1.6-4.5,1.6H37.3c-1.7,0-3.1-0.6-4.4-1.6c-1.6-1.4-3.3-2.7-5-4c-1.3-1-2.6-1-3.4,0.1c-0.8,1-0.5,2.2,0.7,3.2
		c1.6,1.3,3.3,2.6,4.9,3.9c2.3,1.9,4.9,2.8,7.9,2.8c8.7,0,17.4,0,26.1,0c8.7,0,17.5,0,26.2,0c2.8,0,5.3-0.8,7.5-2.5
		c1.7-1.4,3.4-2.8,5.2-4.1C104.1,35,104.3,33.8,103.5,32.8z M104.8,21.6c-1.2-3.3-2.4-6.6-3.6-9.9c-0.8-2.2-2.2-3.2-4.5-3.2H75
		c-2.7,0-4.5,1.6-4.6,4.3c-0.1,3.5-0.1,7.1,0,10.6c0.1,2.7,1.9,4.3,4.6,4.3c4.2,0,8.5,0,12.7,0h12.7C104.1,27.7,106,25,104.8,21.6z
		 M99.6,23.5c-3.9-0.1-7.9,0-11.9,0c-4,0-8,0-12,0c-0.7,0-1.1-0.1-1.1-1c0.1-2.9,0-5.8,0-8.7c0-0.8,0.2-1,1-1c6.8,0,13.6,0,20.3,0
		c0.8,0,1.1,0.2,1.3,0.9c1,2.9,2,5.7,3.1,8.5C100.8,23.2,100.8,23.5,99.6,23.5z M104.8,21.6c-1.2-3.3-2.4-6.6-3.6-9.9
		c-0.8-2.2-2.2-3.2-4.5-3.2H75c-2.7,0-4.5,1.6-4.6,4.3c-0.1,3.5-0.1,7.1,0,10.6c0.1,2.7,1.9,4.3,4.6,4.3c4.2,0,8.5,0,12.7,0h12.7
		C104.1,27.7,106,25,104.8,21.6z M99.6,23.5c-3.9-0.1-7.9,0-11.9,0c-4,0-8,0-12,0c-0.7,0-1.1-0.1-1.1-1c0.1-2.9,0-5.8,0-8.7
		c0-0.8,0.2-1,1-1c6.8,0,13.6,0,20.3,0c0.8,0,1.1,0.2,1.3,0.9c1,2.9,2,5.7,3.1,8.5C100.8,23.2,100.8,23.5,99.6,23.5z M103.5,32.8
		c-0.8-1-2.1-1.1-3.3-0.1c-1.7,1.3-3.4,2.7-5.1,4c-1.3,1.1-2.8,1.6-4.5,1.6H37.3c-1.7,0-3.1-0.6-4.4-1.6c-1.6-1.4-3.3-2.7-5-4
		c-1.3-1-2.6-1-3.4,0.1c-0.8,1-0.5,2.2,0.7,3.2c1.6,1.3,3.3,2.6,4.9,3.9c2.3,1.9,4.9,2.8,7.9,2.8c8.7,0,17.4,0,26.1,0
		c8.7,0,17.5,0,26.2,0c2.8,0,5.3-0.8,7.5-2.5c1.7-1.4,3.4-2.8,5.2-4.1C104.1,35,104.3,33.8,103.5,32.8z M63.8,46.9
		c-18.8,0.1-34,15.3-33.9,33.9c0.1,19.4,15.1,34.4,34.4,34.4c18.6-0.1,33.8-15.4,33.8-33.9C98,61.9,82.9,46.7,63.8,46.9z M39.5,96.7
		c-0.6,0.5-0.7,0.1-1-0.4c-2.4-3.9-3.8-8.3-4.2-12.9c-1.1-12.5,6-24.5,17.5-29.7c11.4-5.1,25-2.5,33.7,6.6c0.9,0.9,0.8,1.3-0.2,2
		c-4.1,3-8.1,6-12.1,9c-0.3,0.2-0.5,0.7-1,0.4c-0.5-0.3-0.2-0.7-0.1-1.1c0.5-1.9,0.5-3.8-0.3-5.6c-0.3-0.7-0.1-0.9,0.4-1.3
		c1.1-0.7,2.1-1.3,3.1-2c1.3-0.9,1.7-2.1,1-3.2c-0.7-1.1-2-1.3-3.3-0.5c-1.3,0.8-2.5,1.6-3.8,2.5c-0.5,0.4-0.9,0.4-1.4,0.1
		c-2.6-1.3-5.3-1.3-7.9,0c-0.6,0.3-0.9,0.2-1.4-0.1c-1.2-0.8-2.4-1.6-3.6-2.4c-1.4-0.9-2.6-0.8-3.4,0.3c-0.7,1.1-0.4,2.4,1,3.3
		c1.1,0.7,2.1,1.4,3.2,2.1c0.4,0.3,0.6,0.5,0.3,1.1c-0.9,1.9-0.9,3.9-0.3,5.8c0.2,0.5,0.1,0.8-0.3,1.2c-1.1,0.9-1.8,2.1-2.1,3.6
		c-0.2,1.3-0.8,1.6-2,1c-1.1-0.5-2.1-1-3.1-1.5c-1.5-0.7-2.7-0.4-3.3,0.8c-0.6,1.2-0.1,2.3,1.4,3.1c1.1,0.6,2.2,1.1,3.3,1.7
		c0.8,0.5,1.7,0.5,2.7,0.4c0.6,0,0.9,0.1,0.9,0.8c0.1,3.4,0.2,3.4-3.3,3.4c-1.6,0-3.3,0-4.9,0c-1.6,0-2.5,0.9-2.5,2.2
		s0.9,2.2,2.5,2.2c1.1,0,2.2,0,3.4,0c0,0.1,0.1,0.2,0.1,0.2C45.6,92.1,42.5,94.4,39.5,96.7z M66.2,92c0-1-0.3-1.8-1.2-2.3
		c-0.8-0.4-1.5-0.3-2.2,0.2c-0.8,0.6-1,1.4-0.9,2.3c0,2.9,0,5.7,0,8.6c0,0.8-0.1,1.1-0.9,0.6c-1.8-1.1-3-2.6-3.1-4.8
		c-0.1-2.5-0.1-5.1-0.1-7.6c0-0.4,0.1-0.7,0.5-0.9c4-3,8-6,12.2-9.2v12.3c0,1.7,0,3.4,0,5.1c-0.1,2.2-1.2,3.8-3,5
		c-0.7,0.5-1.1,0.5-1.1-0.6C66.2,97.8,66.2,94.9,66.2,92z M58.3,75.3c0.9-0.8,1.4,0.3,2,0.6c1.9,0.9,3.9,1,6.2,0.5
		c-3,2.2-5.8,4.3-8.6,6.5c-0.3-1-0.1-1.9-0.1-2.8c0-0.8,0-1.7,0-2.5S57.5,75.9,58.3,75.3z M59.7,68.2c0-2.2,2-4.2,4.2-4.2
		c2.3,0,4.3,2,4.3,4.3c0,2.3-2,4.2-4.3,4.2C61.6,72.4,59.7,70.4,59.7,68.2z M73.3,109.3c-11.2,3.9-24.5,0.1-31.7-8.8
		c3.8-2.9,7.7-5.7,11.6-8.7c0.2,2.1-0.1,3.9,0.3,5.8c0.8,4.9,4.8,8.6,9.8,9c4.7,0.4,9.2-2.6,10.8-7.2c0.5-1.4,1.3-1.7,2.7-1.1
		c1,0.5,2,1,3,1.5c1.4,0.7,2.6,0.4,3.2-0.8c0.6-1.2,0.1-2.3-1.3-3c-1.2-0.6-2.4-1.2-3.7-1.8c-0.6-0.3-1.2-0.5-1.8-0.4
		c-1.4,0.2-1.6-0.4-1.6-1.6c0.1-2.5,0-2.5,2.5-2.5c1.8,0,3.6,0,5.4,0c1.8,0,2.8-0.8,2.8-2.2c0-1.4-1-2.2-2.8-2.2c-2.3,0-4.7,0-7,0
		c-0.7,0-1-0.2-0.9-0.9c0-0.2,0-0.5,0-0.7c0-0.8-0.2-1.7,0.1-2.3c0.4-0.6,1.4-0.1,2.1-0.3c2.1-0.6,3.9-1.6,5.6-2.8
		c0.9-0.6,0.9-1.6,0.3-2.6c-0.6-0.9-1.7-1.3-2.7-0.8c-1.1,0.5-2.1,1-3.1,1.6c-0.4,0.2-0.7,0.4-1.2,0.3c-0.4-0.1-0.9,0.3-1.1-0.2
		c-0.2-0.6,0.1-0.9,0.6-1.2c2.8-2.1,5.6-4.2,8.4-6.3c1.5-1.2,3.1-2.3,4.6-3.5c0.6-0.5,0.9-0.4,1.3,0.3c3.4,5.8,4.9,12.1,3.9,18.8
		C91.8,96.8,84.9,105.2,73.3,109.3z"/>
	<path d="M63.8,46.9c-18.8,0.1-34,15.3-33.9,33.9c0.1,19.4,15.1,34.4,34.4,34.4c18.6-0.1,33.8-15.4,33.8-33.9
		C98,61.9,82.9,46.7,63.8,46.9z M39.5,96.7c-0.6,0.5-0.7,0.1-1-0.4c-2.4-3.9-3.8-8.3-4.2-12.9c-1.1-12.5,6-24.5,17.5-29.7
		c11.4-5.1,25-2.5,33.7,6.6c0.9,0.9,0.8,1.3-0.2,2c-4.1,3-8.1,6-12.1,9c-0.3,0.2-0.5,0.7-1,0.4c-0.5-0.3-0.2-0.7-0.1-1.1
		c0.5-1.9,0.5-3.8-0.3-5.6c-0.3-0.7-0.1-0.9,0.4-1.3c1.1-0.7,2.1-1.3,3.1-2c1.3-0.9,1.7-2.1,1-3.2c-0.7-1.1-2-1.3-3.3-0.5
		c-1.3,0.8-2.5,1.6-3.8,2.5c-0.5,0.4-0.9,0.4-1.4,0.1c-2.6-1.3-5.3-1.3-7.9,0c-0.6,0.3-0.9,0.2-1.4-0.1c-1.2-0.8-2.4-1.6-3.6-2.4
		c-1.4-0.9-2.6-0.8-3.4,0.3c-0.7,1.1-0.4,2.4,1,3.3c1.1,0.7,2.1,1.4,3.2,2.1c0.4,0.3,0.6,0.5,0.3,1.1c-0.9,1.9-0.9,3.9-0.3,5.8
		c0.2,0.5,0.1,0.8-0.3,1.2c-1.1,0.9-1.8,2.1-2.1,3.6c-0.2,1.3-0.8,1.6-2,1c-1.1-0.5-2.1-1-3.1-1.5c-1.5-0.7-2.7-0.4-3.3,0.8
		c-0.6,1.2-0.1,2.3,1.4,3.1c1.1,0.6,2.2,1.1,3.3,1.7c0.8,0.5,1.7,0.5,2.7,0.4c0.6,0,0.9,0.1,0.9,0.8c0.1,3.4,0.2,3.4-3.3,3.4
		c-1.6,0-3.3,0-4.9,0c-1.6,0-2.5,0.9-2.5,2.2s0.9,2.2,2.5,2.2c1.1,0,2.2,0,3.4,0c0,0.1,0.1,0.2,0.1,0.2
		C45.6,92.1,42.5,94.4,39.5,96.7z M66.2,92c0-1-0.3-1.8-1.2-2.3c-0.8-0.4-1.5-0.3-2.2,0.2c-0.8,0.6-1,1.4-0.9,2.3c0,2.9,0,5.7,0,8.6
		c0,0.8-0.1,1.1-0.9,0.6c-1.8-1.1-3-2.6-3.1-4.8c-0.1-2.5-0.1-5.1-0.1-7.6c0-0.4,0.1-0.7,0.5-0.9c4-3,8-6,12.2-9.2v12.3
		c0,1.7,0,3.4,0,5.1c-0.1,2.2-1.2,3.8-3,5c-0.7,0.5-1.1,0.5-1.1-0.6C66.2,97.8,66.2,94.9,66.2,92z M58.3,75.3c0.9-0.8,1.4,0.3,2,0.6
		c1.9,0.9,3.9,1,6.2,0.5c-3,2.2-5.8,4.3-8.6,6.5c-0.3-1-0.1-1.9-0.1-2.8c0-0.8,0-1.7,0-2.5S57.5,75.9,58.3,75.3z M59.7,68.2
		c0-2.2,2-4.2,4.2-4.2c2.3,0,4.3,2,4.3,4.3c0,2.3-2,4.2-4.3,4.2C61.6,72.4,59.7,70.4,59.7,68.2z M73.3,109.3
		c-11.2,3.9-24.5,0.1-31.7-8.8c3.8-2.9,7.7-5.7,11.6-8.7c0.2,2.1-0.1,3.9,0.3,5.8c0.8,4.9,4.8,8.6,9.8,9c4.7,0.4,9.2-2.6,10.8-7.2
		c0.5-1.4,1.3-1.7,2.7-1.1c1,0.5,2,1,3,1.5c1.4,0.7,2.6,0.4,3.2-0.8c0.6-1.2,0.1-2.3-1.3-3c-1.2-0.6-2.4-1.2-3.7-1.8
		c-0.6-0.3-1.2-0.5-1.8-0.4c-1.4,0.2-1.6-0.4-1.6-1.6c0.1-2.5,0-2.5,2.5-2.5c1.8,0,3.6,0,5.4,0c1.8,0,2.8-0.8,2.8-2.2
		c0-1.4-1-2.2-2.8-2.2c-2.3,0-4.7,0-7,0c-0.7,0-1-0.2-0.9-0.9c0-0.2,0-0.5,0-0.7c0-0.8-0.2-1.7,0.1-2.3c0.4-0.6,1.4-0.1,2.1-0.3
		c2.1-0.6,3.9-1.6,5.6-2.8c0.9-0.6,0.9-1.6,0.3-2.6c-0.6-0.9-1.7-1.3-2.7-0.8c-1.1,0.5-2.1,1-3.1,1.6c-0.4,0.2-0.7,0.4-1.2,0.3
		c-0.4-0.1-0.9,0.3-1.1-0.2c-0.2-0.6,0.1-0.9,0.6-1.2c2.8-2.1,5.6-4.2,8.4-6.3c1.5-1.2,3.1-2.3,4.6-3.5c0.6-0.5,0.9-0.4,1.3,0.3
		c3.4,5.8,4.9,12.1,3.9,18.8C91.8,96.8,84.9,105.2,73.3,109.3z"/>
	<path d="M102.9,36c-1.7,1.4-3.4,2.8-5.2,4.1c-2.2,1.8-4.7,2.6-7.5,2.5c-8.7,0-17.5,0-26.2,0c-8.7,0-17.4,0-26.1,0
		c-3,0-5.6-0.8-7.9-2.8c-1.6-1.3-3.3-2.6-4.9-3.9c-1.2-1-1.5-2.2-0.7-3.2c0.8-1.1,2.1-1.1,3.4-0.1c1.6,1.3,3.3,2.6,5,4
		c1.3,1.1,2.7,1.6,4.4,1.6h53.4c1.7,0,3.1-0.5,4.5-1.6c1.7-1.4,3.4-2.7,5.1-4c1.2-1,2.5-0.9,3.3,0.1C104.3,33.8,104.1,35,102.9,36z"
		/>
	<path d="M104.8,21.6c-1.2-3.3-2.4-6.6-3.6-9.9c-0.8-2.2-2.2-3.2-4.5-3.2H75c-2.7,0-4.5,1.6-4.6,4.3c-0.1,3.5-0.1,7.1,0,10.6
		c0.1,2.7,1.9,4.3,4.6,4.3c4.2,0,8.5,0,12.7,0h12.7C104.1,27.7,106,25,104.8,21.6z M99.6,23.5c-3.9-0.1-7.9,0-11.9,0c-4,0-8,0-12,0
		c-0.7,0-1.1-0.1-1.1-1c0.1-2.9,0-5.8,0-8.7c0-0.8,0.2-1,1-1c6.8,0,13.6,0,20.3,0c0.8,0,1.1,0.2,1.3,0.9c1,2.9,2,5.7,3.1,8.5
		C100.8,23.2,100.8,23.5,99.6,23.5z"/>
	<path d="M63.8,46.9c-18.8,0.1-34,15.3-33.9,33.9c0.1,19.4,15.1,34.4,34.4,34.4c18.6-0.1,33.8-15.4,33.8-33.9
		C98,61.9,82.9,46.7,63.8,46.9z M39.5,96.7c-0.6,0.5-0.7,0.1-1-0.4c-2.4-3.9-3.8-8.3-4.2-12.9c-1.1-12.5,6-24.5,17.5-29.7
		c11.4-5.1,25-2.5,33.7,6.6c0.9,0.9,0.8,1.3-0.2,2c-4.1,3-8.1,6-12.1,9c-0.3,0.2-0.5,0.7-1,0.4c-0.5-0.3-0.2-0.7-0.1-1.1
		c0.5-1.9,0.5-3.8-0.3-5.6c-0.3-0.7-0.1-0.9,0.4-1.3c1.1-0.7,2.1-1.3,3.1-2c1.3-0.9,1.7-2.1,1-3.2c-0.7-1.1-2-1.3-3.3-0.5
		c-1.3,0.8-2.5,1.6-3.8,2.5c-0.5,0.4-0.9,0.4-1.4,0.1c-2.6-1.3-5.3-1.3-7.9,0c-0.6,0.3-0.9,0.2-1.4-0.1c-1.2-0.8-2.4-1.6-3.6-2.4
		c-1.4-0.9-2.6-0.8-3.4,0.3c-0.7,1.1-0.4,2.4,1,3.3c1.1,0.7,2.1,1.4,3.2,2.1c0.4,0.3,0.6,0.5,0.3,1.1c-0.9,1.9-0.9,3.9-0.3,5.8
		c0.2,0.5,0.1,0.8-0.3,1.2c-1.1,0.9-1.8,2.1-2.1,3.6c-0.2,1.3-0.8,1.6-2,1c-1.1-0.5-2.1-1-3.1-1.5c-1.5-0.7-2.7-0.4-3.3,0.8
		c-0.6,1.2-0.1,2.3,1.4,3.1c1.1,0.6,2.2,1.1,3.3,1.7c0.8,0.5,1.7,0.5,2.7,0.4c0.6,0,0.9,0.1,0.9,0.8c0.1,3.4,0.2,3.4-3.3,3.4
		c-1.6,0-3.3,0-4.9,0c-1.6,0-2.5,0.9-2.5,2.2s0.9,2.2,2.5,2.2c1.1,0,2.2,0,3.4,0c0,0.1,0.1,0.2,0.1,0.2
		C45.6,92.1,42.5,94.4,39.5,96.7z M66.2,92c0-1-0.3-1.8-1.2-2.3c-0.8-0.4-1.5-0.3-2.2,0.2c-0.8,0.6-1,1.4-0.9,2.3c0,2.9,0,5.7,0,8.6
		c0,0.8-0.1,1.1-0.9,0.6c-1.8-1.1-3-2.6-3.1-4.8c-0.1-2.5-0.1-5.1-0.1-7.6c0-0.4,0.1-0.7,0.5-0.9c4-3,8-6,12.2-9.2v12.3
		c0,1.7,0,3.4,0,5.1c-0.1,2.2-1.2,3.8-3,5c-0.7,0.5-1.1,0.5-1.1-0.6C66.2,97.8,66.2,94.9,66.2,92z M58.3,75.3c0.9-0.8,1.4,0.3,2,0.6
		c1.9,0.9,3.9,1,6.2,0.5c-3,2.2-5.8,4.3-8.6,6.5c-0.3-1-0.1-1.9-0.1-2.8c0-0.8,0-1.7,0-2.5S57.5,75.9,58.3,75.3z M59.7,68.2
		c0-2.2,2-4.2,4.2-4.2c2.3,0,4.3,2,4.3,4.3c0,2.3-2,4.2-4.3,4.2C61.6,72.4,59.7,70.4,59.7,68.2z M73.3,109.3
		c-11.2,3.9-24.5,0.1-31.7-8.8c3.8-2.9,7.7-5.7,11.6-8.7c0.2,2.1-0.1,3.9,0.3,5.8c0.8,4.9,4.8,8.6,9.8,9c4.7,0.4,9.2-2.6,10.8-7.2
		c0.5-1.4,1.3-1.7,2.7-1.1c1,0.5,2,1,3,1.5c1.4,0.7,2.6,0.4,3.2-0.8c0.6-1.2,0.1-2.3-1.3-3c-1.2-0.6-2.4-1.2-3.7-1.8
		c-0.6-0.3-1.2-0.5-1.8-0.4c-1.4,0.2-1.6-0.4-1.6-1.6c0.1-2.5,0-2.5,2.5-2.5c1.8,0,3.6,0,5.4,0c1.8,0,2.8-0.8,2.8-2.2
		c0-1.4-1-2.2-2.8-2.2c-2.3,0-4.7,0-7,0c-0.7,0-1-0.2-0.9-0.9c0-0.2,0-0.5,0-0.7c0-0.8-0.2-1.7,0.1-2.3c0.4-0.6,1.4-0.1,2.1-0.3
		c2.1-0.6,3.9-1.6,5.6-2.8c0.9-0.6,0.9-1.6,0.3-2.6c-0.6-0.9-1.7-1.3-2.7-0.8c-1.1,0.5-2.1,1-3.1,1.6c-0.4,0.2-0.7,0.4-1.2,0.3
		c-0.4-0.1-0.9,0.3-1.1-0.2c-0.2-0.6,0.1-0.9,0.6-1.2c2.8-2.1,5.6-4.2,8.4-6.3c1.5-1.2,3.1-2.3,4.6-3.5c0.6-0.5,0.9-0.4,1.3,0.3
		c3.4,5.8,4.9,12.1,3.9,18.8C91.8,96.8,84.9,105.2,73.3,109.3z"/>
	<path d="M102.9,36c-1.7,1.4-3.4,2.8-5.2,4.1c-2.2,1.8-4.7,2.6-7.5,2.5c-8.7,0-17.5,0-26.2,0c-8.7,0-17.4,0-26.1,0
		c-3,0-5.6-0.8-7.9-2.8c-1.6-1.3-3.3-2.6-4.9-3.9c-1.2-1-1.5-2.2-0.7-3.2c0.8-1.1,2.1-1.1,3.4-0.1c1.6,1.3,3.3,2.6,5,4
		c1.3,1.1,2.7,1.6,4.4,1.6h53.4c1.7,0,3.1-0.5,4.5-1.6c1.7-1.4,3.4-2.7,5.1-4c1.2-1,2.5-0.9,3.3,0.1C104.3,33.8,104.1,35,102.9,36z"
		/>
	<path d="M104.8,21.6c-1.2-3.3-2.4-6.6-3.6-9.9c-0.8-2.2-2.2-3.2-4.5-3.2H75c-2.7,0-4.5,1.6-4.6,4.3c-0.1,3.5-0.1,7.1,0,10.6
		c0.1,2.7,1.9,4.3,4.6,4.3c4.2,0,8.5,0,12.7,0h12.7C104.1,27.7,106,25,104.8,21.6z M99.6,23.5c-3.9-0.1-7.9,0-11.9,0c-4,0-8,0-12,0
		c-0.7,0-1.1-0.1-1.1-1c0.1-2.9,0-5.8,0-8.7c0-0.8,0.2-1,1-1c6.8,0,13.6,0,20.3,0c0.8,0,1.1,0.2,1.3,0.9c1,2.9,2,5.7,3.1,8.5
		C100.8,23.2,100.8,23.5,99.6,23.5z"/>
</g>
</svg>
