<?xml version="1.0" encoding="utf-8"?>
<!-- Generator: Adobe Illustrator 28.0.0, SVG Export Plug-In . SVG Version: 6.00 Build 0)  -->
<svg version="1.1" id="Layer_1" xmlns="http://www.w3.org/2000/svg" xmlns:xlink="http://www.w3.org/1999/xlink" x="0px" y="0px"
	 viewBox="0 0 128 128" style="enable-background:new 0 0 128 128;" xml:space="preserve">
<g>
	<g>
		<path d="M65,55.1c-1.3,0-2.7-0.3-4-1.1c-1.5-0.9-2.6-2.2-3.3-3.7c-1-2.3-0.8-4.9,0.4-7.1c2.2-3.8,7-5.1,10.8-2.9
			c3.5,2,4.9,6.3,3.3,9.9c-0.1,0.3-0.2,0.6-0.4,0.9C70.4,53.7,67.8,55.1,65,55.1z M65.1,41.7c-1.9,0-3.8,1-4.8,2.8
			c-0.9,1.5-1,3.4-0.3,5c0.5,1.1,1.3,2,2.3,2.6c2.7,1.5,6.1,0.6,7.6-2c0.1-0.2,0.2-0.4,0.3-0.6l0,0c1.1-2.6,0.1-5.6-2.3-7
			C67,41.9,66,41.7,65.1,41.7z"/>
	</g>
	<g>
		<path d="M94.9,68c-1.4,0-2.7-0.4-3.9-1.1c-3.5-2-4.9-6.3-3.3-10c0.1-0.3,0.3-0.5,0.4-0.8c1-1.8,2.7-3.1,4.8-3.7
			c2-0.6,4.2-0.3,6,0.8c2.1,1.2,3.6,3.4,3.9,5.8c0.2,1.7-0.1,3.5-1,5l0,0c-1.1,1.8-2.8,3.1-4.8,3.7C96.3,67.9,95.6,68,94.9,68z
			 M94.9,54.5c-0.5,0-1,0.1-1.5,0.2c-1.4,0.4-2.6,1.3-3.4,2.6c-0.1,0.2-0.2,0.4-0.3,0.6c-1.1,2.6-0.1,5.6,2.3,7
			c1.3,0.8,2.8,0.9,4.2,0.6c1.4-0.4,2.6-1.3,3.4-2.6c0.6-1.1,0.9-2.3,0.7-3.5c-0.2-1.8-1.2-3.3-2.7-4.1
			C96.8,54.8,95.9,54.5,94.9,54.5z"/>
	</g>
	<g>
		<path d="M101.6,88.7c-1.4,0-2.7-0.4-4-1.1c-2.9-1.7-4.4-5-3.8-8.3c0.2-0.9,0.5-1.7,0.9-2.5c2.2-3.8,7-5.1,10.8-2.9
			c0.3,0.2,0.6,0.4,0.9,0.6c3.1,2.4,4,6.8,2,10.2c-1.1,1.8-2.8,3.1-4.8,3.7C103,88.6,102.3,88.7,101.6,88.7z M101.7,75.2
			c-1.9,0-3.8,1-4.8,2.8c-0.3,0.6-0.5,1.2-0.6,1.8c-0.4,2.3,0.6,4.7,2.7,5.8c1.3,0.7,2.8,0.9,4.2,0.6c1.4-0.4,2.6-1.3,3.4-2.6l0,0
			c1.4-2.4,0.8-5.5-1.4-7.2c-0.2-0.1-0.4-0.3-0.6-0.4C103.6,75.4,102.6,75.2,101.7,75.2z"/>
	</g>
	<g>
		<path d="M35.2,68c-1.4,0-2.7-0.4-3.9-1.1c-2.8-1.6-4.3-4.6-3.9-7.8c0.1-1,0.5-2.1,1-3c1-1.8,2.7-3.1,4.8-3.7c2-0.6,4.2-0.3,6,0.8
			c1.5,0.9,2.6,2.1,3.3,3.7c1,2.3,0.8,5-0.4,7.1c-1.1,1.8-2.8,3.1-4.8,3.7C36.6,67.9,35.9,68,35.2,68z M35.2,54.5
			c-0.5,0-1,0.1-1.5,0.2c-1.4,0.4-2.6,1.3-3.4,2.6c-0.4,0.6-0.6,1.4-0.7,2.1c-0.3,2.2,0.8,4.4,2.7,5.5c1.3,0.7,2.8,0.9,4.2,0.6
			c1.4-0.4,2.6-1.3,3.4-2.6l0,0c0.9-1.5,1-3.4,0.3-5c-0.5-1.1-1.3-2-2.3-2.6C37.1,54.8,36.2,54.5,35.2,54.5z"/>
	</g>
	<g>
		<path d="M7.9,64.7c-1.4,0-2.7-0.4-4-1.1c-3.8-2.2-5.1-7-2.9-10.8c2.2-3.8,7-5.1,10.8-2.9c2.7,1.6,4.3,4.7,3.9,7.8
			c-0.1,1.1-0.5,2.1-1,3c-0.3,0.5-0.7,1-1.2,1.6C12,63.9,10,64.7,7.9,64.7z M7.9,51.3c-1.9,0-3.8,1-4.8,2.8c-1.5,2.7-0.6,6.1,2,7.6
			c2.2,1.3,5,0.9,6.7-0.9c0.4-0.4,0.7-0.8,0.9-1.1c0.4-0.7,0.6-1.4,0.7-2.1l0,0c0.3-2.2-0.8-4.4-2.7-5.5C9.8,51.5,8.9,51.3,7.9,51.3
			z"/>
	</g>
	<g>
		<path d="M120.1,64.7c-1.4,0-2.7-0.4-4-1.1c-0.3-0.2-0.6-0.4-0.9-0.6c-1.7-1.3-2.8-3.2-3-5.3c-0.2-1.7,0.1-3.4,1-4.9
			c2.2-3.8,7-5.1,10.8-2.9c3.8,2.2,5.1,7,2.9,10.8c-1.1,1.8-2.8,3.1-4.8,3.7C121.5,64.6,120.8,64.7,120.1,64.7z M120.1,51.3
			c-1.9,0-3.8,1-4.8,2.8c-0.6,1.1-0.9,2.3-0.7,3.5c0.2,1.5,0.9,2.8,2.1,3.7c0.2,0.1,0.4,0.3,0.6,0.4c1.3,0.8,2.8,1,4.2,0.6
			c1.4-0.4,2.6-1.3,3.4-2.6l0,0c1.5-2.7,0.6-6.1-2-7.6C122,51.5,121.1,51.3,120.1,51.3z"/>
	</g>
	<g>
		<path d="M65,81.9c-1.4,0-2.7-0.4-3.9-1.1c-2-1.1-3.3-3.1-3.8-5.3c-0.4-1.8-0.1-3.8,0.9-5.5c1.1-1.8,2.8-3.1,4.8-3.7
			c2-0.5,4.2-0.3,6,0.8c2.9,1.7,4.4,5,3.8,8.3l0,0c-0.2,0.9-0.5,1.7-0.9,2.5c-1,1.8-2.7,3.1-4.8,3.7C66.4,81.8,65.7,81.9,65,81.9z
			 M65.1,68.4c-0.5,0-1,0.1-1.4,0.2c-1.4,0.4-2.6,1.3-3.4,2.6c-0.7,1.2-0.9,2.6-0.6,3.9c0.3,1.6,1.3,2.9,2.6,3.7
			c1.3,0.7,2.8,0.9,4.3,0.6c1.4-0.4,2.6-1.3,3.4-2.6c0.3-0.5,0.5-1.1,0.6-1.8c0,0,0,0,0,0c0.4-2.3-0.6-4.6-2.7-5.8
			C67,68.7,66,68.4,65.1,68.4z"/>
	</g>
	<g>
		<path d="M31.9,88.7c-1.3,0-2.7-0.3-3.9-1.1c-1.8-1.1-3.1-2.8-3.7-4.8c-0.5-2-0.3-4.2,0.8-6c0.3-0.5,0.7-1,1.2-1.6
			c2.5-2.5,6.5-3.1,9.6-1.3c1.9,1.1,3.3,2.9,3.7,5.1c0,0.1,0,0.1,0.1,0.2c0.4,1.9,0.1,3.9-0.9,5.5c0,0,0,0,0,0
			C37.3,87.2,34.6,88.7,31.9,88.7z M31.9,75.2c-1.4,0-2.9,0.6-3.9,1.6c-0.4,0.4-0.7,0.8-0.9,1.1c-0.8,1.3-1,2.8-0.6,4.3
			c0.4,1.4,1.3,2.6,2.6,3.4c2.7,1.5,6.1,0.6,7.6-2c0.6-1.1,0.9-2.4,0.7-3.7c0-0.1,0-0.1-0.1-0.2c-0.3-1.6-1.3-2.9-2.7-3.7
			C33.8,75.4,32.9,75.2,31.9,75.2z M37.7,84.1L37.7,84.1L37.7,84.1z"/>
	</g>
	<g>
		<path d="M95,80.7c-0.1,0-0.1,0-0.2,0l-23.4-4.3c-0.3-0.1-0.6-0.2-0.8-0.5c-0.2-0.3-0.2-0.6-0.2-0.9c0.4-2.3-0.6-4.6-2.7-5.8
			c-1.3-0.7-2.8-0.9-4.2-0.6c-1.4,0.4-2.6,1.3-3.4,2.6c-0.7,1.2-0.9,2.6-0.6,3.9c0.1,0.3,0,0.6-0.2,0.9c-0.2,0.3-0.4,0.4-0.7,0.5
			l-20,4c-0.6,0.1-1.3-0.3-1.4-0.9c-0.3-1.6-1.3-2.9-2.7-3.7c-2.2-1.3-5-0.9-6.7,0.9c-0.5,0.5-1.2,0.5-1.7,0L11.9,62.4
			c-0.5-0.4-0.5-1.2,0-1.6c0.4-0.4,0.7-0.8,0.9-1.1c0.4-0.7,0.6-1.4,0.7-2.1c0-0.3,0.2-0.6,0.4-0.8c0.2-0.2,0.6-0.3,0.9-0.2
			l13.9,1.7c0.3,0,0.6,0.2,0.8,0.4c0.2,0.2,0.3,0.6,0.2,0.9c-0.3,2.2,0.8,4.4,2.7,5.5c1.3,0.7,2.8,0.9,4.2,0.6
			c1.4-0.4,2.6-1.3,3.4-2.6c0.9-1.5,1-3.4,0.3-5c-0.3-0.6,0-1.3,0.6-1.5l17.5-7.5c0.3-0.1,0.6-0.1,0.9,0c0.3,0.1,0.5,0.3,0.6,0.6
			c0.5,1.1,1.3,2,2.3,2.6c1.3,0.7,2.8,0.9,4.2,0.6c1.4-0.4,2.6-1.3,3.4-2.6c0.1-0.2,0.2-0.4,0.3-0.6c0.1-0.3,0.3-0.5,0.6-0.7
			c0.3-0.1,0.6-0.1,0.9,0l17.5,7.5c0.3,0.1,0.5,0.4,0.6,0.6c0.1,0.3,0.1,0.6,0,0.9c-1.1,2.6-0.1,5.6,2.3,7c1.3,0.8,2.8,0.9,4.2,0.6
			c1.4-0.4,2.6-1.3,3.4-2.6c0.6-1.1,0.9-2.3,0.7-3.5c0-0.3,0-0.6,0.2-0.9c0.2-0.2,0.5-0.4,0.8-0.5l11.8-1.5c0.3,0,0.6,0,0.9,0.2
			c0.2,0.2,0.4,0.5,0.4,0.8c0.2,1.5,0.9,2.8,2.1,3.7c0.5,0.4,0.6,1.1,0.2,1.6l-10.2,13.2c-0.4,0.5-1.1,0.6-1.6,0.2
			c-0.2-0.1-0.4-0.3-0.6-0.4c-2.7-1.5-6.1-0.6-7.6,2c-0.3,0.6-0.5,1.2-0.6,1.8c-0.1,0.3-0.2,0.6-0.5,0.8
			C95.5,80.6,95.3,80.7,95,80.7z M73,74.3l21.2,3.9c0.2-0.5,0.4-0.9,0.6-1.4c2.2-3.8,6.9-5.1,10.7-3l8.9-11.5
			c-0.9-0.9-1.6-2.1-1.9-3.3l-9.7,1.3c0,1.3-0.4,2.6-1.1,3.8c-1.1,1.8-2.8,3.1-4.8,3.7c-2,0.5-4.2,0.3-6-0.8
			c-3.1-1.8-4.6-5.5-3.7-8.9l-15.5-6.7c-2.2,3.6-7,4.8-10.7,2.7c-1.1-0.7-2.1-1.6-2.8-2.7l-15.5,6.7c0.5,2,0.2,4.2-0.8,6
			c-1.1,1.8-2.8,3.1-4.8,3.7c-2,0.5-4.2,0.3-6-0.8c-2.4-1.4-3.9-3.9-4-6.6l-11.8-1.4c-0.2,0.7-0.4,1.3-0.8,1.9
			c-0.1,0.2-0.3,0.5-0.5,0.7l12.9,12.9c2.5-1.8,5.9-2.1,8.7-0.5c1.6,0.9,2.9,2.4,3.5,4.1l17.8-3.6c-0.1-1.5,0.3-3,1-4.4
			c1.1-1.8,2.8-3.1,4.8-3.7c2-0.5,4.2-0.3,6,0.8C71.6,68.6,73.1,71.4,73,74.3z"/>
	</g>
</g>
</svg>
