<?xml version="1.0" encoding="utf-8"?>
<!-- Generator: Adobe Illustrator 28.0.0, SVG Export Plug-In . SVG Version: 6.00 Build 0)  -->
<svg version="1.1" id="Layer_1" xmlns="http://www.w3.org/2000/svg" xmlns:xlink="http://www.w3.org/1999/xlink" x="0px" y="0px"
	 viewBox="0 0 128 128" style="enable-background:new 0 0 128 128;" xml:space="preserve">
<g id="Levw28.tif">
	<g>
		<path d="M48.4,68.7c-4.4,2.5-8.8,5-13.1,7.6c-0.7,0.4-0.9,0.1-1.1-0.4c-1.5-3.9-2.3-7.9-2.3-12c0-4.1,0.8-8.1,2.3-11.9
			c0.2-0.6,0.5-0.8,1.1-0.4c4.4,2.6,8.7,5.1,13.1,7.6c0.5,0.3,0.7,0.5,0.5,1.2c-0.7,2.4-0.7,4.8,0,7.2
			C49.1,68.2,48.8,68.4,48.4,68.7z"/>
		<path d="M60.3,94.8c0,0.7-0.1,1-0.9,0.8c-6.5-1-12.2-3.7-17.1-8.2c-1.3-1.1-2.4-2.4-3.5-3.7c-0.4-0.4-0.6-0.7,0.1-1.1
			c4.4-2.5,8.8-5,13.1-7.6c0.5-0.3,0.9-0.2,1.3,0.2c1.7,1.7,3.8,2.9,6.2,3.6c0.7,0.2,0.8,0.5,0.8,1.1c0,2.5,0,5,0,7.5
			C60.3,89.9,60.3,92.3,60.3,94.8z"/>
		<path d="M38.8,44.1c5.3-6.6,12.1-10.5,20.4-11.9c1-0.2,1.2,0.1,1.2,1.1c-0.1,2.4,0,4.7,0,7.1c0,2.5,0,5,0,7.5
			c0,0.6-0.2,0.9-0.8,1.1c-2.3,0.7-4.4,1.9-6.2,3.6c-0.4,0.4-0.8,0.5-1.3,0.2c-4.4-2.5-8.7-5.1-13.1-7.6
			C38.4,44.8,38.3,44.7,38.8,44.1z"/>
		<path d="M64.1,72.1c-4.6,0-8.3-3.7-8.2-8.3c0-4.5,3.8-8.2,8.3-8.1c4.5,0,8.2,3.7,8.2,8.3C72.3,68.5,68.6,72.1,64.1,72.1z"/>
		<path d="M67.8,48c0-5.3,0-10.5,0-16c8.8,1.2,15.9,5.2,21.5,12c0.5,0.7,0.4,0.8-0.3,1.2c-4.3,2.4-8.5,4.9-12.8,7.4
			c-0.6,0.3-1,0.4-1.5-0.1C73,50.8,71,49.7,68.7,49C68.2,48.8,67.8,48.7,67.8,48z"/>
		<path d="M89.4,83.6c-5.6,6.9-12.7,10.9-21.6,12.1c0-4.4,0.1-8.7,0-13c-0.1-2.4,0-4.2,2.9-4.7c1.5-0.3,2.9-1.5,4-2.6
			c0.5-0.5,0.8-0.6,1.5-0.2c4.3,2.5,8.7,5,13,7.5C89.6,82.9,89.9,83,89.4,83.6z"/>
		<path d="M79.7,59.1c4.4-2.5,8.8-5,13.1-7.6c0.7-0.4,0.9-0.2,1.1,0.4c1.5,3.9,2.3,7.9,2.3,12c0,4.1-0.8,8.1-2.3,11.9
			c-0.2,0.6-0.5,0.8-1.1,0.4c-4.4-2.6-8.7-5.1-13.1-7.6c-0.5-0.3-0.7-0.5-0.5-1.2c0.7-2.4,0.7-4.8,0-7.2
			C79,59.6,79.3,59.4,79.7,59.1z"/>
		<path d="M128,59.2c-0.1-0.1-0.1-0.3-0.1-0.5c-0.1-7.5-2.2-14.5-5.2-21.1c-4.8-10.6-12-19.4-21.6-26.1C92.1,5.3,82.5,1.2,71.6,0.2
			c-1-0.1-2.1,0.1-3.1-0.2h-1.7c-0.6,0.2-1.2,0.2-1.7,0h-2c-0.6,0.2-1.2,0.2-1.7,0h-2.3c-0.1,0.1-0.3,0.1-0.5,0.1
			C51.1,0.3,44,2.5,37.3,5.6c-8.6,4-15.9,9.6-22.1,16.8C11,27.3,7.5,32.7,5,38.7c-2.8,6.6-4.7,13.4-4.9,20.6
			C-0.1,66.2,0,73,1.7,79.6c3.4,12.9,10.1,23.8,20.2,32.6c6.2,5.4,13.2,9.4,20.8,12.3c9.2,3.4,18.8,3.9,28.4,3.2
			c6.7-0.5,13.2-2.4,19.3-5.3c10.6-4.9,19.3-12,26-21.5c5.1-7.2,8.6-15.1,10.5-23.8c0.6-2.7,0.8-5.5,1-8.3v-2.2
			c-0.2-0.6-0.2-1.2,0-1.7v-2c-0.2-0.6-0.2-1.2,0-1.7V59.2z M64.2,103.5c-21.5,0.2-39.6-17.2-39.8-39.4c-0.2-21,16.7-39.4,39.4-39.9
			c21.4,0.1,39.6,17.2,39.8,39.5C103.9,84.5,87.2,103.3,64.2,103.5z"/>
		<path d="M63.1,0c-0.6,0.4-1.2,0.4-1.7,0C61.9,0,62.5,0,63.1,0z"/>
		<path d="M66.8,0c-0.6,0.4-1.2,0.4-1.7,0C65.6,0,66.2,0,66.8,0z"/>
		<path d="M128,62.9c-0.4-0.6-0.4-1.2,0-1.7C128,61.7,128,62.3,128,62.9z"/>
		<path d="M128,66.6c-0.4-0.6-0.4-1.2,0-1.7C128,65.5,128,66.1,128,66.6z"/>
		<path d="M67.8,32.1c8.8,1.2,15.9,5.2,21.5,12c0.5,0.7,0.4,0.8-0.3,1.2c-4.3,2.4-8.5,4.9-12.8,7.4c-0.6,0.3-1,0.4-1.5-0.1
			C73,50.8,71,49.7,68.7,49c-0.5-0.2-0.9-0.3-0.9-0.9C67.8,42.8,67.8,37.5,67.8,32.1z M38.8,44.1c5.3-6.6,12.1-10.5,20.4-11.9
			c1-0.2,1.2,0.1,1.2,1.1c-0.1,2.4,0,4.7,0,7.1c0,2.5,0,5,0,7.5c0,0.6-0.2,0.9-0.8,1.1c-2.3,0.7-4.4,1.9-6.2,3.6
			c-0.4,0.4-0.8,0.5-1.3,0.2c-4.4-2.5-8.7-5.1-13.1-7.6C38.4,44.8,38.3,44.7,38.8,44.1z M35.2,76.3c-0.7,0.4-0.9,0.1-1.1-0.4
			c-1.5-3.9-2.3-7.9-2.3-12c0-4.1,0.8-8.1,2.3-11.9c0.2-0.6,0.5-0.8,1.1-0.4c4.4,2.6,8.7,5.1,13.1,7.6c0.5,0.3,0.7,0.5,0.5,1.2
			c-0.7,2.4-0.7,4.8,0,7.2c0.2,0.7-0.1,0.9-0.5,1.1C44,71.2,39.6,73.7,35.2,76.3z M59.4,95.6c-6.5-1-12.2-3.7-17.1-8.2
			c-1.3-1.1-2.4-2.4-3.5-3.7c-0.4-0.4-0.6-0.7,0.1-1.1c4.4-2.5,8.8-5,13.1-7.6c0.5-0.3,0.9-0.2,1.3,0.2c1.7,1.7,3.8,2.9,6.2,3.6
			c0.7,0.2,0.8,0.5,0.8,1.1c0,2.5,0,5,0,7.5c0,2.4,0,4.9,0,7.3C60.3,95.5,60.3,95.7,59.4,95.6z M64.1,72.1c-4.6,0-8.3-3.7-8.2-8.3
			c0-4.5,3.8-8.2,8.3-8.1c4.5,0,8.2,3.7,8.2,8.3C72.3,68.5,68.6,72.1,64.1,72.1z M89.4,83.6c-5.6,6.9-12.7,10.9-21.6,12.1
			c0-4.4,0.1-8.7,0-13c-0.1-2.4,0-4.2,2.9-4.7c1.5-0.3,2.9-1.5,4-2.6c0.5-0.5,0.8-0.6,1.5-0.2c4.3,2.5,8.7,5,13,7.5
			C89.6,82.9,89.9,83,89.4,83.6z M92.9,76.3c-4.4-2.6-8.7-5.1-13.1-7.6c-0.5-0.3-0.7-0.5-0.5-1.2c0.7-2.4,0.7-4.8,0-7.2
			c-0.2-0.7,0.1-0.9,0.5-1.1c4.4-2.5,8.8-5,13.1-7.6c0.7-0.4,0.9-0.2,1.1,0.4c1.5,3.9,2.3,7.9,2.3,12c0,4.1-0.8,8.1-2.3,11.9
			C93.7,76.5,93.5,76.6,92.9,76.3z"/>
		<path d="M48.4,68.7c-4.4,2.5-8.8,5-13.1,7.6c-0.7,0.4-0.9,0.1-1.1-0.4c-1.5-3.9-2.3-7.9-2.3-12c0-4.1,0.8-8.1,2.3-11.9
			c0.2-0.6,0.5-0.8,1.1-0.4c4.4,2.6,8.7,5.1,13.1,7.6c0.5,0.3,0.7,0.5,0.5,1.2c-0.7,2.4-0.7,4.8,0,7.2
			C49.1,68.2,48.8,68.4,48.4,68.7z"/>
		<path d="M60.3,94.8c0,0.7-0.1,1-0.9,0.8c-6.5-1-12.2-3.7-17.1-8.2c-1.3-1.1-2.4-2.4-3.5-3.7c-0.4-0.4-0.6-0.7,0.1-1.1
			c4.4-2.5,8.8-5,13.1-7.6c0.5-0.3,0.9-0.2,1.3,0.2c1.7,1.7,3.8,2.9,6.2,3.6c0.7,0.2,0.8,0.5,0.8,1.1c0,2.5,0,5,0,7.5
			C60.3,89.9,60.3,92.3,60.3,94.8z"/>
		<path d="M38.8,44.1c5.3-6.6,12.1-10.5,20.4-11.9c1-0.2,1.2,0.1,1.2,1.1c-0.1,2.4,0,4.7,0,7.1c0,2.5,0,5,0,7.5
			c0,0.6-0.2,0.9-0.8,1.1c-2.3,0.7-4.4,1.9-6.2,3.6c-0.4,0.4-0.8,0.5-1.3,0.2c-4.4-2.5-8.7-5.1-13.1-7.6
			C38.4,44.8,38.3,44.7,38.8,44.1z"/>
		<path d="M64.1,72.1c-4.6,0-8.3-3.7-8.2-8.3c0-4.5,3.8-8.2,8.3-8.1c4.5,0,8.2,3.7,8.2,8.3C72.3,68.5,68.6,72.1,64.1,72.1z"/>
		<path d="M67.8,48c0-5.3,0-10.5,0-16c8.8,1.2,15.9,5.2,21.5,12c0.5,0.7,0.4,0.8-0.3,1.2c-4.3,2.4-8.5,4.9-12.8,7.4
			c-0.6,0.3-1,0.4-1.5-0.1C73,50.8,71,49.7,68.7,49C68.2,48.8,67.8,48.7,67.8,48z"/>
		<path d="M89.4,83.6c-5.6,6.9-12.7,10.9-21.6,12.1c0-4.4,0.1-8.7,0-13c-0.1-2.4,0-4.2,2.9-4.7c1.5-0.3,2.9-1.5,4-2.6
			c0.5-0.5,0.8-0.6,1.5-0.2c4.3,2.5,8.7,5,13,7.5C89.6,82.9,89.9,83,89.4,83.6z"/>
		<path d="M96.3,64c0,4.1-0.8,8.1-2.3,11.9c-0.2,0.6-0.5,0.8-1.1,0.4c-4.4-2.6-8.7-5.1-13.1-7.6c-0.5-0.3-0.7-0.5-0.5-1.2
			c0.7-2.4,0.7-4.8,0-7.2c-0.2-0.7,0.1-0.9,0.5-1.1c4.4-2.5,8.8-5,13.1-7.6c0.7-0.4,0.9-0.2,1.1,0.4C95.5,55.8,96.3,59.8,96.3,64z"
			/>
		<path d="M48.4,68.7c-4.4,2.5-8.8,5-13.1,7.6c-0.7,0.4-0.9,0.1-1.1-0.4c-1.5-3.9-2.3-7.9-2.3-12c0-4.1,0.8-8.1,2.3-11.9
			c0.2-0.6,0.5-0.8,1.1-0.4c4.4,2.6,8.7,5.1,13.1,7.6c0.5,0.3,0.7,0.5,0.5,1.2c-0.7,2.4-0.7,4.8,0,7.2
			C49.1,68.2,48.8,68.4,48.4,68.7z"/>
		<path d="M96.3,64c0,4.1-0.8,8.1-2.3,11.9c-0.2,0.6-0.5,0.8-1.1,0.4c-4.4-2.6-8.7-5.1-13.1-7.6c-0.5-0.3-0.7-0.5-0.5-1.2
			c0.7-2.4,0.7-4.8,0-7.2c-0.2-0.7,0.1-0.9,0.5-1.1c4.4-2.5,8.8-5,13.1-7.6c0.7-0.4,0.9-0.2,1.1,0.4C95.5,55.8,96.3,59.8,96.3,64z"
			/>
		<path d="M60.3,47.9c0,0.6-0.2,0.9-0.8,1.1c-2.3,0.7-4.4,1.9-6.2,3.6c-0.4,0.4-0.8,0.5-1.3,0.2c-4.4-2.5-8.7-5.1-13.1-7.6
			c-0.5-0.3-0.6-0.5-0.2-1c5.3-6.6,12.1-10.5,20.4-11.9c1-0.2,1.2,0.1,1.2,1.1c-0.1,2.4,0,4.7,0,7.1C60.3,42.9,60.3,45.4,60.3,47.9z
			"/>
		<path d="M89,45.2c-4.3,2.4-8.5,4.9-12.8,7.4c-0.6,0.3-1,0.4-1.5-0.1C73,50.8,71,49.7,68.7,49c-0.5-0.2-0.9-0.3-0.9-0.9
			c0-5.3,0-10.5,0-16c8.8,1.2,15.9,5.2,21.5,12C89.8,44.7,89.6,44.9,89,45.2z"/>
		<path d="M59.4,95.6c-6.5-1-12.2-3.7-17.1-8.2c-1.3-1.1-2.4-2.4-3.5-3.7c-0.4-0.4-0.6-0.7,0.1-1.1c4.4-2.5,8.8-5,13.1-7.6
			c0.5-0.3,0.9-0.2,1.3,0.2c1.7,1.7,3.8,2.9,6.2,3.6c0.7,0.2,0.8,0.5,0.8,1.1c0,2.5,0,5,0,7.5c0,2.4,0,4.9,0,7.3
			C60.3,95.5,60.3,95.7,59.4,95.6z"/>
		<path d="M89.4,83.6c-5.6,6.9-12.7,10.9-21.6,12.1c0-4.4,0.1-8.7,0-13c-0.1-2.4,0-4.2,2.9-4.7c1.5-0.3,2.9-1.5,4-2.6
			c0.5-0.5,0.8-0.6,1.5-0.2c4.3,2.5,8.7,5,13,7.5C89.6,82.9,89.9,83,89.4,83.6z"/>
		<path d="M72.3,63.9c0,4.5-3.7,8.2-8.2,8.2c-4.6,0-8.3-3.7-8.2-8.3c0-4.5,3.8-8.2,8.3-8.1C68.6,55.7,72.3,59.4,72.3,63.9z"/>
	</g>
</g>
</svg>
