<?xml version="1.0" encoding="utf-8"?>
<!-- Generator: Adobe Illustrator 28.0.0, SVG Export Plug-In . SVG Version: 6.00 Build 0)  -->
<svg version="1.1" id="Layer_1" xmlns="http://www.w3.org/2000/svg" xmlns:xlink="http://www.w3.org/1999/xlink" x="0px" y="0px"
	 viewBox="0 0 128 128" style="enable-background:new 0 0 128 128;" xml:space="preserve">
<g id="s4FNPu.tif">
	<g>
		<path d="M128,14.5v-1.1c-1.7-2.8-3.1-2.9-5.5-0.5c-1.6,1.6-3.1,3.1-4.6,4.7c-0.7,0.7-1.1,0.7-1.7,0c-1.9-2-3.9-3.9-5.8-5.8
			c-0.7-0.7-0.7-1.1,0-1.7c1.8-1.7,3.5-3.4,5.2-5.2c1.4-1.4,1.5-2.9,0.4-4c-1.1-1.1-2.7-1-4,0.3c-1.8,1.8-3.5,3.5-5.3,5.3
			c-0.4,0.3-0.6,0.8-1.3,0.4c-4.2-2-6.1-1.6-9.4,1.7c-29.1,29-58.1,58.1-87.1,87.1c-0.4,0.4-0.9,0.9-1.3,1.3c-2,2.3-2.4,5.2-0.8,7.8
			c0.5,0.9,0.4,1.3-0.3,1.9c-1.7,1.6-3.4,3.3-5,5c-1.5,1.5-1.6,3-0.4,4.2c1.2,1.1,2.6,1,4-0.4c1.7-1.7,3.4-3.3,5-5.1
			c0.6-0.7,1.1-0.9,1.8-0.1c1.9,2,3.8,3.9,5.8,5.8c0.7,0.7,0.6,1.1-0.1,1.7c-1.6,1.5-3,3-4.5,4.5c-2.4,2.5-2.4,3.3,0,5.6h0.7
			c1.5-0.4,2.5-1.5,3.5-2.6c1.4-1.4,2.8-2.8,4.1-4.2c0.4-0.4,0.7-0.6,1.4-0.2c3.6,1.9,6,1.5,9-1.5C61,90.3,90.3,61,119.5,31.7
			c0.3-0.3,0.5-0.5,0.8-0.8c2.1-2.3,2.5-5.2,0.9-7.9c-0.6-0.9-0.3-1.3,0.3-1.9C123.7,18.9,125.9,16.7,128,14.5z M36.6,107.3
			c-3,3-6,5.9-8.9,8.9c-1,1-1.8,1-2.8,0c-4.4-4.5-8.9-8.9-13.3-13.3c-1.1-1.1-1-1.9,0.1-2.9c3-2.9,5.9-5.8,8.8-8.8
			c0.7-0.8,1.1-0.7,1.8,0c4.7,4.8,9.5,9.5,14.2,14.2c0.3,0.3,0.6,0.6,0.9,1C37.1,106.8,36.8,107.1,36.6,107.3z M101.7,42.3
			c-19.8,19.8-39.6,39.6-59.4,59.4c-0.3,0.3-0.7,0.6-1.1,1c-0.3-0.2-0.5-0.4-0.7-0.6c-4.9-4.9-9.7-9.8-14.7-14.6
			c-0.7-0.6-0.6-1.1,0-1.6c0.2-0.1,0.3-0.3,0.5-0.5C46,65.7,65.7,46,85.3,26.3c1.1-1.1,1.6-1.1,2.6,0c4.5,4.6,9.1,9.2,13.7,13.7
			C102.6,41,102.5,41.4,101.7,42.3z M116.1,27.8c-3,2.9-5.9,5.8-8.8,8.8c-0.7,0.8-1.1,0.7-1.8,0c-4.7-4.8-9.4-9.5-14.2-14.2
			c-0.6-0.6-1-1-0.1-1.8c3-2.9,6-5.9,8.9-8.9c0.4-0.4,0.7-0.8,1.4-0.8c0.6,0,1,0.4,1.4,0.8c4.4,4.4,8.9,8.9,13.3,13.3
			C117.3,26,117.2,26.8,116.1,27.8z"/>
	</g>
</g>
</svg>
