<?xml version="1.0" encoding="utf-8"?>
<!-- Generator: Adobe Illustrator 28.0.0, SVG Export Plug-In . SVG Version: 6.00 Build 0)  -->
<svg version="1.1" id="Layer_1" xmlns="http://www.w3.org/2000/svg" xmlns:xlink="http://www.w3.org/1999/xlink" x="0px" y="0px"
	 viewBox="0 0 128 128" style="enable-background:new 0 0 128 128;" xml:space="preserve">
<g id="_x37_ODxAR.tif">
	<g>
		<path d="M46.4,67.5c-0.4-0.2-0.9-0.4-1.2-0.6c-0.7-0.5-1.1-0.3-1.6,0.4c-1.6,2.5-5.2,2.9-7,0.6c-1.1-1.5-1.9-1.3-3.1-0.5
			c-0.2,0.2-0.5,0.3-0.8,0.4c-0.8,0.3-0.9,0.6-0.5,1.4c1.8,2.8,4.3,4.3,7.5,4.3c3.1-0.1,5.4-1.3,7.1-3.7
			C48.1,68.3,48,68.3,46.4,67.5z M74.9,67.4c-0.4-0.2-0.8-0.3-1.1-0.6c-0.7-0.4-1.1-0.4-1.6,0.4c-1.6,2.6-5.3,2.9-7,0.5
			c-1-1.4-1.7-1.3-2.9-0.5c-0.3,0.2-0.7,0.4-1.1,0.6c-0.7,0.2-0.6,0.6-0.3,1.1c1.7,2.8,4.2,4.3,6.6,4.4c3.8,0,6.3-1.2,8-3.5
			C76.6,68.3,76.6,68.3,74.9,67.4z M74.9,67.4c-0.4-0.2-0.8-0.3-1.1-0.6c-0.7-0.4-1.1-0.4-1.6,0.4c-1.6,2.6-5.3,2.9-7,0.5
			c-1-1.4-1.7-1.3-2.9-0.5c-0.3,0.2-0.7,0.4-1.1,0.6c-0.7,0.2-0.6,0.6-0.3,1.1c1.7,2.8,4.2,4.3,6.6,4.4c3.8,0,6.3-1.2,8-3.5
			C76.6,68.3,76.6,68.3,74.9,67.4z M46.4,67.5c-0.4-0.2-0.9-0.4-1.2-0.6c-0.7-0.5-1.1-0.3-1.6,0.4c-1.6,2.5-5.2,2.9-7,0.6
			c-1.1-1.5-1.9-1.3-3.1-0.5c-0.2,0.2-0.5,0.3-0.8,0.4c-0.8,0.3-0.9,0.6-0.5,1.4c1.8,2.8,4.3,4.3,7.5,4.3c3.1-0.1,5.4-1.3,7.1-3.7
			C48.1,68.3,48,68.3,46.4,67.5z M46.4,67.5c-0.4-0.2-0.9-0.4-1.2-0.6c-0.7-0.5-1.1-0.3-1.6,0.4c-1.6,2.5-5.2,2.9-7,0.6
			c-1.1-1.5-1.9-1.3-3.1-0.5c-0.2,0.2-0.5,0.3-0.8,0.4c-0.8,0.3-0.9,0.6-0.5,1.4c1.8,2.8,4.3,4.3,7.5,4.3c3.1-0.1,5.4-1.3,7.1-3.7
			C48.1,68.3,48,68.3,46.4,67.5z M74.9,67.4c-0.4-0.2-0.8-0.3-1.1-0.6c-0.7-0.4-1.1-0.4-1.6,0.4c-1.6,2.6-5.3,2.9-7,0.5
			c-1-1.4-1.7-1.3-2.9-0.5c-0.3,0.2-0.7,0.4-1.1,0.6c-0.7,0.2-0.6,0.6-0.3,1.1c1.7,2.8,4.2,4.3,6.6,4.4c3.8,0,6.3-1.2,8-3.5
			C76.6,68.3,76.6,68.3,74.9,67.4z M74.9,67.4c-0.4-0.2-0.8-0.3-1.1-0.6c-0.7-0.4-1.1-0.4-1.6,0.4c-1.6,2.6-5.3,2.9-7,0.5
			c-1-1.4-1.7-1.3-2.9-0.5c-0.3,0.2-0.7,0.4-1.1,0.6c-0.7,0.2-0.6,0.6-0.3,1.1c1.7,2.8,4.2,4.3,6.6,4.4c3.8,0,6.3-1.2,8-3.5
			C76.6,68.3,76.6,68.3,74.9,67.4z M46.4,67.5c-0.4-0.2-0.9-0.4-1.2-0.6c-0.7-0.5-1.1-0.3-1.6,0.4c-1.6,2.5-5.2,2.9-7,0.6
			c-1.1-1.5-1.9-1.3-3.1-0.5c-0.2,0.2-0.5,0.3-0.8,0.4c-0.8,0.3-0.9,0.6-0.5,1.4c1.8,2.8,4.3,4.3,7.5,4.3c3.1-0.1,5.4-1.3,7.1-3.7
			C48.1,68.3,48,68.3,46.4,67.5z M46.4,67.5c-0.4-0.2-0.9-0.4-1.2-0.6c-0.7-0.5-1.1-0.3-1.6,0.4c-1.6,2.5-5.2,2.9-7,0.6
			c-1.1-1.5-1.9-1.3-3.1-0.5c-0.2,0.2-0.5,0.3-0.8,0.4c-0.8,0.3-0.9,0.6-0.5,1.4c1.8,2.8,4.3,4.3,7.5,4.3c3.1-0.1,5.4-1.3,7.1-3.7
			C48.1,68.3,48,68.3,46.4,67.5z M74.9,67.4c-0.4-0.2-0.8-0.3-1.1-0.6c-0.7-0.4-1.1-0.4-1.6,0.4c-1.6,2.6-5.3,2.9-7,0.5
			c-1-1.4-1.7-1.3-2.9-0.5c-0.3,0.2-0.7,0.4-1.1,0.6c-0.7,0.2-0.6,0.6-0.3,1.1c1.7,2.8,4.2,4.3,6.6,4.4c3.8,0,6.3-1.2,8-3.5
			C76.6,68.3,76.6,68.3,74.9,67.4z M74.9,67.4c-0.4-0.2-0.8-0.3-1.1-0.6c-0.7-0.4-1.1-0.4-1.6,0.4c-1.6,2.6-5.3,2.9-7,0.5
			c-1-1.4-1.7-1.3-2.9-0.5c-0.3,0.2-0.7,0.4-1.1,0.6c-0.7,0.2-0.6,0.6-0.3,1.1c1.7,2.8,4.2,4.3,6.6,4.4c3.8,0,6.3-1.2,8-3.5
			C76.6,68.3,76.6,68.3,74.9,67.4z M46.4,67.5c-0.4-0.2-0.9-0.4-1.2-0.6c-0.7-0.5-1.1-0.3-1.6,0.4c-1.6,2.5-5.2,2.9-7,0.6
			c-1.1-1.5-1.9-1.3-3.1-0.5c-0.2,0.2-0.5,0.3-0.8,0.4c-0.8,0.3-0.9,0.6-0.5,1.4c1.8,2.8,4.3,4.3,7.5,4.3c3.1-0.1,5.4-1.3,7.1-3.7
			C48.1,68.3,48,68.3,46.4,67.5z M121.8,123.4c-7-7-14-14.1-21.1-21.1c-2.6-2.5-5.5-4.5-8.8-6c-2-0.9-4-1.6-6.1-2.1
			c-1.1-0.3-1.1-0.5-0.4-1.3c0.4-0.5,0.9-0.9,1.3-1.4c2.3-2.2,4.1-4.6,5.6-7.4c0.6-1.1,1.3-2,2.1-2.9c4.5-5.1,7.2-11,8.4-17.7
			c0.8-4.1,0.4-8.3,0.5-12.4c0-2.5-0.4-4.9-1.3-7.2c-0.7-1.7-0.8-3.5-1-5.2c-0.2-3.4-0.3-6.9-0.8-10.3C99.1,18.6,91,10,81.2,8.2
			c-1.3-0.2-2.3-0.7-3.4-1.4C73.7,4,69.2,2.1,64.4,0.8C62.3,0.3,60.1,0.3,58,0h-8.2c-1.7,0.3-3.4,0.2-5,0.6
			C39.6,1.9,34.7,3.9,30.2,7c-0.8,0.5-1.6,0.9-2.6,1.1c-9,1.9-15.2,7.1-18.5,15.8C7.4,28.4,7.6,33.3,7.2,38C7,40.2,7,42.4,6.1,44.4
			c-0.4,0.9-0.7,1.9-0.8,3C5,52.5,4.8,57.8,5.4,63c0.8,7,3.9,13.1,8.5,18.4c0.6,0.6,1.1,1.3,1.5,2c1.8,3.5,4.2,6.5,7.1,9.1
			c0.6,0.6,1.1,1.3,1.4,2.1c1.6,4,3.7,7.7,6.3,11c2.1,2.8,4.4,5.4,6.4,8.3c0.6,0.9,1,1.7,0.9,2.8c0,2.3,0,4.7,0,7c0,3.2,0,3.2,3.2,3
			c1.3-0.1,1.5-0.3,1.5-1.5c0-1.5,0-3.1,0-4.6c0-1.3,0-1.3,1.2-0.7c0.3,0.1,0.5,0.3,0.8,0.4c4.1,2.2,8.5,2.7,13.1,2.2
			c2.7-0.3,5.3-1.3,7.7-2.6c0.8-0.4,1.1-0.2,1.1,0.6c0,1.2,0,2.3,0,3.4c0,2.9,0,2.9,2.9,2.9c1.7,0,1.9-0.2,1.9-1.9
			c0-2.8,0-5.6,0-8.4c0-0.7,0-1.3,0.5-1.9c1.7-2.2,3.2-4.6,5-6.7c1-1.1,1.9-1.5,3.3-1.4c4.5,0.4,8.3,2.2,11.5,5.4
			c4.9,4.9,9.8,9.8,14.7,14.7c2,2,2,2,4-0.1c1.3-1.3,1.3-1.5,0-2.8c-5.3-5.3-10.6-10.7-16-15.9c-4.1-4-9.1-6.1-14.9-6.1
			c-7,0-13.9,0-20.9,0c-0.4,0-0.8,0-1.3,0c-1.3-0.1-2.2-0.7-2.1-1.7c0-1,0.9-1.6,2.2-1.7c0.4,0,0.8,0,1.3,0c6.6,0,13.3,0,19.9,0
			c7.9,0,14.7,2.7,20.3,8.4c6.6,6.7,13.3,13.4,20,20c0.3,0.3,0.7,0.7,1,1c0.5,0.5,1.1,0.5,1.6,0c0.8-0.8,1.7-1.4,2.2-2.5v-0.2
			C122.7,124.4,122.3,123.9,121.8,123.4z M97.2,68.1c-0.1,0-0.2,0-0.3,0c0.3-6-0.8-11.7-3.4-17.1c-0.2-0.5-0.2-0.7,0.3-0.9
			c1.6-0.6,3.1-1.6,4.6-3.1C99.4,54.3,99.5,61.2,97.2,68.1z M11.4,68.1c-0.1,0-0.2,0-0.3,0C9,61.8,9.1,55.3,9.6,48.8
			c0.1-0.8,0.2-1.7,0.6-2.5c1.7-3.4,1.4-7,1.7-10.6c0.3-2.8,0.1-5.6,0.9-8.3c2.3-8.3,7.7-13.4,16.1-15c1.3-0.3,2.5-0.8,3.5-1.6
			c5.2-3.6,11-5.8,17.2-6.5c9-1,17.4,0.9,25.1,5.8c1.9,1.2,3.8,2.1,6,2.6c9,2,15.2,9.8,15.5,19c0.1,3.2,0.4,6.4,0.6,9.7
			c0,0.6,0,1.1-0.4,1.6c-1.1,1.4-2.5,2.5-4.2,3.2c-0.7,0.3-1.2,0.3-1.7-0.5C85,38,77.5,33.1,68.2,31.2c-1.7-0.3-3.4-0.5-5-0.6
			c-0.6,0-0.9-0.2-0.9-0.9c-0.1-5.7-0.9-11.2-1.8-16.8c-0.1-0.9-0.5-1.2-1.3-1c-0.9,0.2-2.2,0.1-2.8,0.6c-0.6,0.6,0.1,1.8,0.3,2.8
			c0.7,4.7,1.3,9.5,1.4,14.3c0,0.8-0.2,1-0.9,0.9c-0.5,0-1-0.1-1.5,0c-2.2,0.5-3.2-0.7-3.9-2.5c-0.9-2.2-1.5-4.5-1.7-6.9
			c0-0.6-0.2-0.9-0.9-0.8c-0.3,0-0.7,0-1,0c-2.6,0-2.5,0-2.1,2.6c0.4,2.6,1.1,5.1,2.3,7.6c-11-0.3-20.1,3.6-27.7,11.4
			c-0.8-1.5-1.1-3-1.2-4.6c0-0.6-0.2-0.8-0.8-0.8c-0.5,0-1.1,0-1.7,0c-1.8,0-1.8,0-1.6,1.8c0.2,2.2,0.9,4.3,2,6.2
			c0.3,0.5,0.4,0.9,0,1.5C13,52.8,11,60.1,11.4,68.1z M20.7,83.6c-2.4-3.7-4-7.5-4.7-11.7c-2.6-13.5,4.1-27.2,16.4-33.6
			c4.6-2.4,9.6-3.5,14.8-3.6c4.6,0,9.2,0,13.8,0c15.6,0,28.3,10.2,31.4,25.5c1.6,8,0.1,15.6-4.1,22.6c-0.1,0.2-0.3,0.4-0.5,0.6
			c0,0-0.2,0-0.3,0c1.1-5,2.2-10,3.3-15c0.2-0.7,0.1-1.4-0.1-2.1C86,51.6,76.2,42.5,61.2,39.4c-19.1-3.9-38.7,8.4-43.6,27.1
			c-0.4,1.4,0.2,2.7,0.5,4c0.8,3.9,1.7,7.8,2.6,11.7C20.8,82.6,20.9,83.1,20.7,83.6z M72.5,93.5c-0.2,0.4-0.5,0.3-0.7,0.3
			c-1.5,0-3,0-4.5,0c-0.4,0-0.8,0-1.3,0c-2.1,0.1-3.9-0.2-5.7-1.8c-4.1-3.7-10.4-2.9-14.1,1.4c-3.5,4.1-3.1,10.3,1,14.1
			c4,3.7,10.2,3.6,14-0.3c0.9-0.9,1.7-1.2,2.9-1.1c1.9,0.1,3.9,0.1,5.9,0c1,0,1.1,0.3,0.7,1.1c-3.2,6.7-8.4,10.8-16,11.1
			c-7.5,0.2-13-3.5-16.6-10c-1.3-2.4-2.1-5-2.2-7.7c-0.1-3.1-0.2-6.2-0.1-9.3c0.1-2,1.6-3.4,3.7-3.5c2.4-0.1,4.3-1,5.9-2.7
			c1-1,2-2.1,3.1-3.1c3.2-3.1,8-3.1,11.2,0c1.1,1.1,2.2,2.2,3.2,3.2c1.6,1.6,3.4,2.4,5.6,2.5C71.5,87.8,73.5,90.9,72.5,93.5z
			 M50.1,100.5c0.2,2.5,1.5,4.1,3.8,5.1c-0.2,0.3-0.5,0.1-0.8,0.2h0c-3.1-0.5-5.4-3.5-5-6.5c0.4-3.1,3-5.7,6.3-5.4
			C51.6,95.2,49.9,97.3,50.1,100.5z M80.3,92.9c-0.2,0.8-0.7,1-1.5,1c-2.2-0.1-2.3,0-2.2-2.1c0.2-4-3.2-8.1-7.7-8.1
			c-1.2,0-2.1-0.5-2.9-1.3c-1.2-1.2-2.4-2.4-3.6-3.6c-4.7-4.4-11.8-4.4-16.4,0c-1.2,1.1-2.4,2.3-3.5,3.5c-0.9,0.9-1.9,1.3-3.2,1.4
			c-4.2,0.2-7.5,3.5-7.5,7.7c0,2.7,0,5.5,0,8.2c-3.5-5.1-5.4-10.7-6.7-16.6c-1-4.8-2.1-9.6-3.2-14.4c-0.2-0.8-0.2-1.6,0.1-2.4
			c4.6-12.8,13.5-20.7,27-22.9c16.6-2.7,32.2,7,37.4,23c0.2,0.6,0.3,1.1,0.2,1.7c-1.7,6.9-2.9,14-4.8,20.9
			C81.3,90.3,80.7,91.5,80.3,92.9z M74.9,67.4c-0.4-0.2-0.8-0.3-1.1-0.6c-0.7-0.4-1.1-0.4-1.6,0.4c-1.6,2.6-5.3,2.9-7,0.5
			c-1-1.4-1.7-1.3-2.9-0.5c-0.3,0.2-0.7,0.4-1.1,0.6c-0.7,0.2-0.6,0.6-0.3,1.1c1.7,2.8,4.2,4.3,6.6,4.4c3.8,0,6.3-1.2,8-3.5
			C76.6,68.3,76.6,68.3,74.9,67.4z M46.4,67.5c-0.4-0.2-0.9-0.4-1.2-0.6c-0.7-0.5-1.1-0.3-1.6,0.4c-1.6,2.5-5.2,2.9-7,0.6
			c-1.1-1.5-1.9-1.3-3.1-0.5c-0.2,0.2-0.5,0.3-0.8,0.4c-0.8,0.3-0.9,0.6-0.5,1.4c1.8,2.8,4.3,4.3,7.5,4.3c3.1-0.1,5.4-1.3,7.1-3.7
			C48.1,68.3,48,68.3,46.4,67.5z M46.4,67.5c-0.4-0.2-0.9-0.4-1.2-0.6c-0.7-0.5-1.1-0.3-1.6,0.4c-1.6,2.5-5.2,2.9-7,0.6
			c-1.1-1.5-1.9-1.3-3.1-0.5c-0.2,0.2-0.5,0.3-0.8,0.4c-0.8,0.3-0.9,0.6-0.5,1.4c1.8,2.8,4.3,4.3,7.5,4.3c3.1-0.1,5.4-1.3,7.1-3.7
			C48.1,68.3,48,68.3,46.4,67.5z M74.9,67.4c-0.4-0.2-0.8-0.3-1.1-0.6c-0.7-0.4-1.1-0.4-1.6,0.4c-1.6,2.6-5.3,2.9-7,0.5
			c-1-1.4-1.7-1.3-2.9-0.5c-0.3,0.2-0.7,0.4-1.1,0.6c-0.7,0.2-0.6,0.6-0.3,1.1c1.7,2.8,4.2,4.3,6.6,4.4c3.8,0,6.3-1.2,8-3.5
			C76.6,68.3,76.6,68.3,74.9,67.4z M74.9,67.4c-0.4-0.2-0.8-0.3-1.1-0.6c-0.7-0.4-1.1-0.4-1.6,0.4c-1.6,2.6-5.3,2.9-7,0.5
			c-1-1.4-1.7-1.3-2.9-0.5c-0.3,0.2-0.7,0.4-1.1,0.6c-0.7,0.2-0.6,0.6-0.3,1.1c1.7,2.8,4.2,4.3,6.6,4.4c3.8,0,6.3-1.2,8-3.5
			C76.6,68.3,76.6,68.3,74.9,67.4z M46.4,67.5c-0.4-0.2-0.9-0.4-1.2-0.6c-0.7-0.5-1.1-0.3-1.6,0.4c-1.6,2.5-5.2,2.9-7,0.6
			c-1.1-1.5-1.9-1.3-3.1-0.5c-0.2,0.2-0.5,0.3-0.8,0.4c-0.8,0.3-0.9,0.6-0.5,1.4c1.8,2.8,4.3,4.3,7.5,4.3c3.1-0.1,5.4-1.3,7.1-3.7
			C48.1,68.3,48,68.3,46.4,67.5z M46.4,67.5c-0.4-0.2-0.9-0.4-1.2-0.6c-0.7-0.5-1.1-0.3-1.6,0.4c-1.6,2.5-5.2,2.9-7,0.6
			c-1.1-1.5-1.9-1.3-3.1-0.5c-0.2,0.2-0.5,0.3-0.8,0.4c-0.8,0.3-0.9,0.6-0.5,1.4c1.8,2.8,4.3,4.3,7.5,4.3c3.1-0.1,5.4-1.3,7.1-3.7
			C48.1,68.3,48,68.3,46.4,67.5z M74.9,67.4c-0.4-0.2-0.8-0.3-1.1-0.6c-0.7-0.4-1.1-0.4-1.6,0.4c-1.6,2.6-5.3,2.9-7,0.5
			c-1-1.4-1.7-1.3-2.9-0.5c-0.3,0.2-0.7,0.4-1.1,0.6c-0.7,0.2-0.6,0.6-0.3,1.1c1.7,2.8,4.2,4.3,6.6,4.4c3.8,0,6.3-1.2,8-3.5
			C76.6,68.3,76.6,68.3,74.9,67.4z M74.9,67.4c-0.4-0.2-0.8-0.3-1.1-0.6c-0.7-0.4-1.1-0.4-1.6,0.4c-1.6,2.6-5.3,2.9-7,0.5
			c-1-1.4-1.7-1.3-2.9-0.5c-0.3,0.2-0.7,0.4-1.1,0.6c-0.7,0.2-0.6,0.6-0.3,1.1c1.7,2.8,4.2,4.3,6.6,4.4c3.8,0,6.3-1.2,8-3.5
			C76.6,68.3,76.6,68.3,74.9,67.4z M46.4,67.5c-0.4-0.2-0.9-0.4-1.2-0.6c-0.7-0.5-1.1-0.3-1.6,0.4c-1.6,2.5-5.2,2.9-7,0.6
			c-1.1-1.5-1.9-1.3-3.1-0.5c-0.2,0.2-0.5,0.3-0.8,0.4c-0.8,0.3-0.9,0.6-0.5,1.4c1.8,2.8,4.3,4.3,7.5,4.3c3.1-0.1,5.4-1.3,7.1-3.7
			C48.1,68.3,48,68.3,46.4,67.5z M46.4,67.5c-0.4-0.2-0.9-0.4-1.2-0.6c-0.7-0.5-1.1-0.3-1.6,0.4c-1.6,2.5-5.2,2.9-7,0.6
			c-1.1-1.5-1.9-1.3-3.1-0.5c-0.2,0.2-0.5,0.3-0.8,0.4c-0.8,0.3-0.9,0.6-0.5,1.4c1.8,2.8,4.3,4.3,7.5,4.3c3.1-0.1,5.4-1.3,7.1-3.7
			C48.1,68.3,48,68.3,46.4,67.5z M74.9,67.4c-0.4-0.2-0.8-0.3-1.1-0.6c-0.7-0.4-1.1-0.4-1.6,0.4c-1.6,2.6-5.3,2.9-7,0.5
			c-1-1.4-1.7-1.3-2.9-0.5c-0.3,0.2-0.7,0.4-1.1,0.6c-0.7,0.2-0.6,0.6-0.3,1.1c1.7,2.8,4.2,4.3,6.6,4.4c3.8,0,6.3-1.2,8-3.5
			C76.6,68.3,76.6,68.3,74.9,67.4z M74.9,67.4c-0.4-0.2-0.8-0.3-1.1-0.6c-0.7-0.4-1.1-0.4-1.6,0.4c-1.6,2.6-5.3,2.9-7,0.5
			c-1-1.4-1.7-1.3-2.9-0.5c-0.3,0.2-0.7,0.4-1.1,0.6c-0.7,0.2-0.6,0.6-0.3,1.1c1.7,2.8,4.2,4.3,6.6,4.4c3.8,0,6.3-1.2,8-3.5
			C76.6,68.3,76.6,68.3,74.9,67.4z M46.4,67.5c-0.4-0.2-0.9-0.4-1.2-0.6c-0.7-0.5-1.1-0.3-1.6,0.4c-1.6,2.5-5.2,2.9-7,0.6
			c-1.1-1.5-1.9-1.3-3.1-0.5c-0.2,0.2-0.5,0.3-0.8,0.4c-0.8,0.3-0.9,0.6-0.5,1.4c1.8,2.8,4.3,4.3,7.5,4.3c3.1-0.1,5.4-1.3,7.1-3.7
			C48.1,68.3,48,68.3,46.4,67.5z"/>
		<path d="M47,69.8c-1.7,2.4-4.1,3.6-7.1,3.7c-3.2-0.1-5.7-1.5-7.5-4.3c-0.5-0.7-0.3-1.1,0.5-1.4c0.3-0.1,0.5-0.2,0.8-0.4
			c1.2-0.8,2-1,3.1,0.5c1.7,2.3,5.4,1.9,7-0.6c0.5-0.8,0.8-0.9,1.6-0.4c0.4,0.3,0.8,0.4,1.2,0.6C48,68.3,48.1,68.3,47,69.8z"/>
		<path d="M75.5,69.9c-1.7,2.3-4.2,3.5-8,3.5c-2.4-0.1-4.9-1.6-6.6-4.4c-0.3-0.5-0.4-0.9,0.3-1.1c0.4-0.1,0.8-0.3,1.1-0.6
			c1.1-0.8,1.9-0.9,2.9,0.5c1.7,2.4,5.4,2,7-0.5c0.5-0.8,0.9-0.8,1.6-0.4c0.4,0.2,0.7,0.4,1.1,0.6C76.6,68.3,76.6,68.3,75.5,69.9z"
			/>
		<path d="M11.4,68.1c-0.1,0.1-0.2,0.1-0.3,0C11.2,68.1,11.3,68.1,11.4,68.1z"/>
		<path d="M97.2,68.1c-0.1,0.1-0.2,0.1-0.3,0C97.1,68.1,97.2,68.1,97.2,68.1z"/>
		<path d="M53.9,105.6c-0.1,0.6-0.5,0.2-0.8,0.2C53.3,105.7,53.7,105.9,53.9,105.6z"/>
		<path d="M54.5,105.8c-0.5,0.2-1,0.3-1.4,0c0.2-0.1,0.6,0,0.8-0.2C54.1,105.7,54.3,105.8,54.5,105.8z"/>
		<path d="M11.5,68.6c-0.3,0.1-0.4-0.3-0.4-0.6c0.1,0,0.2,0,0.3,0C11.6,68.2,11.7,68.6,11.5,68.6z"/>
		<path d="M97.2,68.1c0,0.3-0.1,0.6-0.4,0.6c-0.2-0.1-0.1-0.4,0.1-0.6C97.1,68.1,97.2,68.1,97.2,68.1z"/>
		<path d="M47,69.8c-1.7,2.4-4.1,3.6-7.1,3.7c-3.2-0.1-5.7-1.5-7.5-4.3c-0.5-0.7-0.3-1.1,0.5-1.4c0.3-0.1,0.5-0.2,0.8-0.4
			c1.2-0.8,2-1,3.1,0.5c1.7,2.3,5.4,1.9,7-0.6c0.5-0.8,0.8-0.9,1.6-0.4c0.4,0.3,0.8,0.4,1.2,0.6C48,68.3,48.1,68.3,47,69.8z"/>
		<path d="M75.5,69.9c-1.7,2.3-4.2,3.5-8,3.5c-2.4-0.1-4.9-1.6-6.6-4.4c-0.3-0.5-0.4-0.9,0.3-1.1c0.4-0.1,0.8-0.3,1.1-0.6
			c1.1-0.8,1.9-0.9,2.9,0.5c1.7,2.4,5.4,2,7-0.5c0.5-0.8,0.9-0.8,1.6-0.4c0.4,0.2,0.7,0.4,1.1,0.6C76.6,68.3,76.6,68.3,75.5,69.9z"
			/>
	</g>
</g>
</svg>
