<?xml version="1.0" encoding="utf-8"?>
<!-- Generator: Adobe Illustrator 28.0.0, SVG Export Plug-In . SVG Version: 6.00 Build 0)  -->
<svg version="1.1" id="Layer_1" xmlns="http://www.w3.org/2000/svg" xmlns:xlink="http://www.w3.org/1999/xlink" x="0px" y="0px"
	 viewBox="0 0 128 128" style="enable-background:new 0 0 128 128;" xml:space="preserve">
<g id="x5i3u7.tif">
	<g>
		<path d="M122.1,29.5c-19.3,0-38.7,0-58,0c-1.2,0-2.7,0.4-3.4-0.2c-0.8-0.7-0.1-2.3-0.3-3.5c-0.1-0.7,0.2-1.1,0.7-1.5
			c1.4-1,2-2.4,2-4.1c0-1.5,0-3,0-4.5c0-3.5-2-5.6-5.5-5.6c-2.3,0-4.6,0-6.9,0c-1.2,0-2.9,0.4-3.6-0.2c-0.8-0.7-0.3-2.4-0.2-3.7
			c0.1-3.1-1-5.2-4-6.3H20.3c-2.8,0.7-4.1,2.3-4.3,5.3c-0.1,1,0,1.9,0,2.9c0,1.7-0.1,1.7-1.7,1.7c-3.1,0-6.2,0-9.4,0
			c-2.7,0.1-4.5,1.8-4.7,4.3c0,0,0,0.1,0,0.1v0c0,0,0,0,0,0.1C0.1,16.6,0.3,18.8,0,21v0.5c0.2,0.9,0.3,1.9,1.2,2.6
			c1,0.8,1.2,1.9,1.2,3.1c0,7.9,0,15.8,0,23.7c0,0.7,0,1.5,0.2,2.2C3,54.5,4,55.4,5.4,55.4c1.4,0,2.4-0.8,2.8-2.2
			c0.2-0.8,0.2-1.6,0.2-2.4c0-7.5,0-15,0-22.5c0-0.5,0-0.9,0-1.4c0-0.7,0.3-1,1-1c0.4,0,0.8,0,1.3,0c14.1,0,28.2,0,42.2,0
			c2.2,0,2.2,0,2.2,2.2c0,17.6,0,35.2,0,52.9c0,6.5,0,13,0,19.5c0,1.5-0.1,1.6-1.6,1.6c-0.2,0-0.3,0-0.5,0H10.5c-0.4,0-0.7,0-1.1,0
			c-0.6,0-0.9-0.4-0.9-0.9c0-0.5,0-0.9,0-1.4c0-7.5,0-15.1,0-22.6c0-0.7,0-1.5-0.2-2.2c-0.4-1.5-1.6-2.4-3-2.4
			c-1.4,0.1-2.5,1.1-2.8,2.6c-0.1,0.6-0.1,1.2-0.1,1.9c0,8,0,16.1,0,24.1c0,0.8,0,1.7-0.7,2.3c-1,0.8-1.5,1.9-1.7,3.1v0.5
			c0.2,0.4,0.1,0.9,0.1,1.3c0.1,1.8-0.1,3.6,0.1,5.5c0.5,2.3,2.2,3.9,4.5,4c3.4,0.1,6.8,0.1,10.1,0c1.3,0,1.6,0.4,1.5,1.6
			c-0.1,1.1-0.1,2.2,0,3.4c0.1,3.2,2.2,5.3,5.4,5.3c6.7,0,13.3,0,20,0c3,0,5.2-2.2,5.2-5.2c0-1.3,0.1-2.7,0-4c0-0.8,0.2-1,1-1
			c3.5,0,7,0.1,10.5,0c2.7-0.1,4.7-2.3,4.7-5c0-1.8,0-3.5,0-5.2c0-1.4-0.4-2.7-1.5-3.4c-1.3-0.8-1.4-1.9-1.3-3.2
			c0-0.4,0.1-0.8,0-1.2c-0.2-1.1,0.3-1.3,1.3-1.3c20.1,0,40.2,0,60.4,0c3.8,0,5.8-2,5.8-5.9c0-19.1,0-38.2,0-57.2
			C128,31.6,126,29.5,122.1,29.5z M22.4,5c3.1,0,6.2,0,9.2,0c3,0,6.1,0,9.1,0c0.8,0,1.2,0.1,1.1,1.1c-0.1,1-0.1,2.1,0,3.1
			c0,0.7-0.1,1-0.9,1c-6.2,0-12.4,0-18.6,0c-0.6,0-0.9-0.2-0.9-0.8c0-1.2,0.1-2.3,0-3.5C21.4,5.1,21.7,5,22.4,5z M6.6,20.4
			c-1.2,0-1.6-0.4-1.5-1.5c0.1-1.2-0.5-2.8,0.3-3.4c0.7-0.6,2.2-0.2,3.4-0.2c7.6,0,15.2,0,22.9,0c8.5,0,17,0,25.5,0
			c0.9,0,1.2,0.2,1.2,1.2c-0.1,1-0.1,2.1,0,3.1c0,0.6-0.1,1-0.8,0.9c-0.2,0-0.4,0-0.6,0C40.1,20.4,23.3,20.4,6.6,20.4z M40.9,123
			c-3.1,0-6.2,0-9.2,0c-3.1,0-6.2,0-9.2,0c-0.7,0-1-0.1-0.9-0.9c0.1-1.2,0.1-2.3,0-3.5c0-0.7,0.2-0.8,0.9-0.8c6.2,0,12.4,0,18.6,0
			c0.7,0,1,0.2,0.9,0.9c-0.1,1.1-0.1,2.3,0,3.4C41.9,122.9,41.6,123,40.9,123z M58.2,111.7c0.1,0.9-0.3,1.1-1.1,1.1
			c-8.5,0-17,0-25.5,0c-8.4,0-16.9,0-25.3,0c-0.9,0-1.3-0.1-1.2-1.1c0.1-1.3-0.4-3,0.2-3.7c0.7-0.9,2.5-0.3,3.8-0.3
			c15.9,0,31.8,0,47.7,0c1.1,0,1.5,0.2,1.4,1.4C58.1,109.9,58.2,110.8,58.2,111.7z M114.4,35.4c0-0.6,0.2-0.8,0.8-0.8
			c1.2,0,2.4,0,3.6,0c1.1,0,2.2,0,3.2,0c0.6,0,0.9,0.1,0.9,0.8c0,1.9,0,3.9,0,5.9c0,0.6-0.2,0.8-0.8,0.8c-2.3,0-4.6,0-7,0
			c-0.6,0-0.7-0.3-0.7-0.8C114.4,39.3,114.4,37.4,114.4,35.4z M100.9,40.9c0.1-1.7,0.1-3.5,0-5.2c0-0.7,0.1-1,0.9-1
			c2.2,0.1,4.3,0,6.5,0c0.7,0,1,0.1,0.9,0.9c-0.1,1.9-0.1,3.8,0,5.7c0,0.8-0.3,0.9-0.9,0.9c-1.1,0-2.2,0-3.4,0c-0.9,0-1.8-0.1-2.7,0
			C101.3,42.2,100.9,42,100.9,40.9z M88.4,34.6c1.1,0.1,2.2,0,3.2,0c1.1,0,2.2,0,3.2,0c0.7,0,1,0.1,0.9,0.9c-0.1,1.9,0,3.8,0,5.7
			c0,0.6-0.1,0.9-0.8,0.9c-2.2,0-4.5,0-6.7,0c-0.7,0-0.8-0.3-0.8-0.9c0-1.9,0.1-3.8,0-5.7C87.5,34.7,87.8,34.6,88.4,34.6z M74,35.4
			c0-0.5,0.1-0.8,0.7-0.8c2.4,0,4.7,0,7.1,0c0.5,0,0.7,0.1,0.7,0.6c0,2,0,4.1,0,6.1c0,0.6-0.2,0.7-0.7,0.7c-1.2,0-2.3,0-3.5,0
			c-1.2,0-2.3,0-3.5,0c-0.5,0-0.7-0.2-0.7-0.7C74.1,39.4,74.1,37.4,74,35.4z M60.5,35.3c0-0.5,0.2-0.6,0.6-0.6c2.4,0,4.8,0,7.2,0
			c0.5,0,0.6,0.1,0.6,0.6c0,2,0,4.1,0,6.1c0,0.6-0.2,0.7-0.7,0.7c-1.2,0-2.4,0-3.6,0c-1.2,0-2.3,0-3.5,0c-0.5,0-0.7-0.2-0.7-0.7
			C60.5,39.4,60.5,37.3,60.5,35.3z M68.1,93.4c-1.1-0.1-2.2,0-3.4,0c-1.1,0-2.2,0-3.4,0c-0.6,0-0.9-0.1-0.9-0.8c0.1-2,0.1-3.9,0-5.9
			c0-0.7,0.3-0.8,0.9-0.8c2.3,0,4.6,0,6.9,0c0.7,0,0.8,0.2,0.8,0.9c0,1.9,0,3.8,0,5.7C69.1,93.3,68.8,93.4,68.1,93.4z M81.7,93.3
			c-2.3,0-4.6,0-6.8,0c-0.6,0-0.8-0.2-0.8-0.8c0-2,0-3.9,0-5.9c0-0.7,0.2-0.8,0.9-0.8c1.1,0,2.2,0,3.4,0c1.2,0,2.3,0,3.5,0
			c0.5,0,0.7,0.2,0.7,0.7c0,2,0,4,0,6C82.5,93.2,82.2,93.4,81.7,93.3z M94.9,93.4c-1.1,0-2.2,0-3.2,0c-1.1,0-2.2,0-3.2,0
			c-0.7,0-1-0.1-0.9-0.9c0.1-1.9,0-3.8,0-5.7c0-0.6,0.1-0.9,0.8-0.9c2.2,0,4.5,0,6.7,0c0.7,0,0.8,0.2,0.8,0.9c0,1.9-0.1,3.8,0,5.7
			C95.9,93.3,95.6,93.4,94.9,93.4z M109.3,87.4c-0.1,1.7-0.1,3.3,0,5c0,0.7-0.1,1-0.9,1c-2.2-0.1-4.3,0-6.5,0c-0.7,0-1-0.1-0.9-0.9
			c0.1-1.9,0.1-3.8,0-5.7c0-0.8,0.3-0.9,0.9-0.9c1.1,0.1,2.2,0,3.2,0c0.9,0,1.8,0.1,2.7,0C109.1,85.7,109.4,86.2,109.3,87.4z
			 M122,93.3c-1.2,0-2.3,0-3.5,0c-1.1,0-2.2,0-3.2,0c-0.6,0-0.9-0.1-0.9-0.8c0-1.9,0-3.9,0-5.9c0-0.6,0.2-0.8,0.8-0.8
			c2.3,0,4.6,0,7,0c0.6,0,0.8,0.2,0.8,0.8c0,1.9,0,3.9,0,5.9C122.9,93.3,122.6,93.4,122,93.3z M122.9,79.6c0,0.9-0.1,1.2-1.1,1.2
			c-20.1,0-40.1,0-60.2,0c-0.9,0-1.1-0.3-1.1-1.1c0-10.5,0-20.9,0-31.4c0-1,0.3-1.1,1.2-1.1c10,0,20.1,0,30.1,0c10,0,19.9,0,29.9,0
			c0.9,0,1.3,0.1,1.3,1.2C122.9,58.8,122.9,69.2,122.9,79.6z"/>
		<path d="M0,21v-6.7c0,0,0.1,0,0.1,0c0,0,0.1,0,0.1,0c0,2,0,4,0,6C0.3,20.5,0.3,20.8,0,21z"/>
		<path d="M0,107c0.5,0.6,0.2,1.3,0.2,2c0,1.6,0,3.2,0,4.8c-0.1,0-0.1-0.1-0.2,0C0,111.5,0,109.2,0,107z"/>
		<path d="M5.3,61.5c1.4,0,2.6,1.1,2.6,2.5c0,1.4-1.1,2.5-2.5,2.5c-1.4,0-2.6-1.1-2.6-2.5C2.8,62.7,4,61.5,5.3,61.5z"/>
	</g>
</g>
</svg>
