<?xml version="1.0" encoding="utf-8"?>
<!-- Generator: Adobe Illustrator 28.0.0, SVG Export Plug-In . SVG Version: 6.00 Build 0)  -->
<svg version="1.1" id="Layer_1" xmlns="http://www.w3.org/2000/svg" xmlns:xlink="http://www.w3.org/1999/xlink" x="0px" y="0px"
	 viewBox="0 0 128 128" style="enable-background:new 0 0 128 128;" xml:space="preserve">
<g>
	<g>
		<path d="M121.6,111.2V42.4c3.8-1,6.4-4.4,6.4-8.2c0-4.7-3.8-8.5-8.5-8.5c-1.5,0-3,0.4-4.3,1.2l-14-14c0.8-1.3,1.2-2.8,1.2-4.3
			c0-4.3-3.2-7.9-7.4-8.5s-8.3,2.2-9.3,6.3H16.8c-1-4-4.8-6.7-9-6.4C3.7,0.4,0.4,3.7,0,7.8s2.3,7.9,6.4,9v68.9
			c-4.2,1.1-6.9,5.1-6.3,9.3s4.2,7.4,8.5,7.4c1.5,0,3-0.4,4.3-1.2l14,14c-0.8,1.3-1.2,2.8-1.2,4.3c0,4.3,3.2,7.9,7.4,8.5
			s8.3-2.2,9.3-6.3h68.9c1,4,4.8,6.7,9,6.4c4.1-0.3,7.4-3.6,7.8-7.8C128.3,116.1,125.6,112.3,121.6,111.2z M116.4,31.1
			c1.2-1.2,3.1-1.6,4.6-0.9c1.6,0.7,2.6,2.2,2.6,3.9c0,1.9-1.3,3.6-3.2,4.1c-1.9,0.5-3.8-0.3-4.8-2
			C114.8,34.6,115.1,32.5,116.4,31.1z M112.1,29.8c-0.4,0.7-0.7,1.4-0.9,2.2H96V16.8c0.8-0.2,1.5-0.5,2.2-0.9L112.1,29.8z M89.7,7.4
			c0.5-1.9,2.2-3.2,4.1-3.2c1.7,0,3.3,1,3.9,2.6c0.7,1.6,0.3,3.4-0.9,4.6c-1.4,1.4-3.5,1.6-5.2,0.7S89.2,9.3,89.7,7.4z M96.9,96.9
			c-1.4,1.4-3.7,1.7-5.4,0.5c-1.7-1.1-2.4-3.3-1.6-5.2s2.8-3,4.8-2.6c2,0.4,3.4,2.1,3.4,4.2C98.1,95,97.7,96.1,96.9,96.9L96.9,96.9z
			 M31.1,31.1c1.4-1.4,3.7-1.7,5.4-0.5c1.7,1.1,2.4,3.3,1.6,5.2c-0.8,1.9-2.8,2.9-4.8,2.6s-3.4-2.2-3.4-4.2
			C29.9,33,30.3,31.9,31.1,31.1z M36.3,42.4c3-0.8,5.3-3.1,6.1-6.1h49.4v49.4c-3,0.8-5.3,3.1-6.1,6.1H36.3V42.4z M16.8,10.7h68.9
			c0.8,3,3.1,5.3,6.1,6.1V32H42.4c-1-3.8-4.4-6.4-8.2-6.4c-1.5,0-3,0.4-4.3,1.2l-14-14C16.3,12.2,16.6,11.4,16.8,10.7z M4.3,8.5
			c0-1.9,1.3-3.6,3.2-4.1c1.9-0.5,3.8,0.3,4.8,2c1,1.7,0.7,3.8-0.7,5.2c-1.2,1.2-3.1,1.6-4.6,0.9C5.3,11.8,4.3,10.3,4.3,8.5z
			 M11.6,96.9c-1.2,1.2-3.1,1.6-4.6,0.9c-1.6-0.7-2.6-2.2-2.6-3.9c0-1.9,1.3-3.6,3.2-4.1c1.9-0.5,3.8,0.3,4.8,2
			C13.2,93.4,12.9,95.5,11.6,96.9z M10.7,85.6V16.8c0.8-0.2,1.5-0.5,2.2-0.9l14,14c-0.8,1.3-1.2,2.8-1.2,4.3c0,3.9,2.6,7.3,6.4,8.2
			v49.4H16.8C16,88.7,13.7,86.4,10.7,85.6z M15.9,98.2c0.4-0.7,0.7-1.4,0.9-2.2H32v15.2c-0.8,0.2-1.5,0.5-2.2,0.9L15.9,98.2z
			 M38.3,120.6c-0.5,1.9-2.2,3.2-4.1,3.2c-1.7,0-3.3-1-3.9-2.6c-0.7-1.6-0.3-3.4,0.9-4.6c1.4-1.4,3.5-1.6,5.2-0.7
			C37.9,116.7,38.8,118.7,38.3,120.6z M111.2,117.3H42.4c-0.8-3-3.1-5.3-6.1-6.1V96h49.4c1,3.8,4.4,6.4,8.2,6.4c1.5,0,3-0.4,4.3-1.2
			l14,14C111.7,115.8,111.4,116.6,111.2,117.3z M101.2,98.2c0.8-1.3,1.2-2.8,1.2-4.3c0-3.9-2.6-7.3-6.4-8.2V36.3h15.2
			c0.8,3,3.1,5.3,6.1,6.1v68.9c-0.8,0.2-1.5,0.5-2.2,0.9L101.2,98.2z M120.6,123.6c-1.9,0.5-3.8-0.3-4.8-2s-0.7-3.8,0.7-5.2
			c1.2-1.2,3.1-1.6,4.6-0.9c1.6,0.7,2.6,2.2,2.6,3.9C123.7,121.4,122.4,123.1,120.6,123.6z"/>
	</g>
</g>
</svg>
