<?xml version="1.0" encoding="utf-8"?>
<!-- Generator: Adobe Illustrator 28.0.0, SVG Export Plug-In . SVG Version: 6.00 Build 0)  -->
<svg version="1.1" id="Layer_1" xmlns="http://www.w3.org/2000/svg" xmlns:xlink="http://www.w3.org/1999/xlink" x="0px" y="0px"
	 viewBox="0 0 128 128" style="enable-background:new 0 0 128 128;" xml:space="preserve">
<g id="xsFTIL.tif">
	<g>
		<path d="M22.2,56.4C20.8,63.8,21.4,71,23.8,78c0.6,1.8,0.4,2.8-0.7,3.2c-1.2,0.4-2-0.2-2.6-2.1c-1.7-4.9-2.6-10-2.5-15.6
			c-0.1-4.9,0.9-10,2.6-14.9c0.2-0.7,0.4-1.4,1.1-1.7c0.7-0.3,1.3-0.3,1.9,0.2c0.7,0.6,0.9,1.3,0.6,2.1C23.3,51.6,22.6,54,22.2,56.4
			z"/>
		<path d="M35.3,53.6c-2.4,6.9-2.4,13.8,0,20.7c0.4,1.3,0.1,2.3-0.8,2.6c-1.1,0.4-2-0.1-2.5-1.5c-1.3-3.7-2-7.5-2-11.4
			c0-4,0.6-7.9,2-11.6c0.5-1.3,1.3-1.7,2.4-1.4C35.3,51.4,35.7,52.4,35.3,53.6z"/>
		<path d="M46.6,70.5c0.3,1,0,1.8-1,2.2c-1,0.4-1.9,0-2.3-1.1c-1.8-5.1-1.8-10.2,0-15.3c0.3-0.8,0.9-1.1,1.7-1.2
			c1.2,0,2.1,1.2,1.6,2.4C45.1,61.9,45.1,66.2,46.6,70.5z"/>
		<path d="M64.1,54c-5.5-0.1-10.1,4.3-10.2,9.9c-0.1,5.6,4.3,10,9.9,10.2c5.6,0.1,10.1-4.3,10.2-9.8C74.1,58.6,69.8,54.1,64.1,54z
			 M63.9,70.5c-3.6,0-6.5-2.9-6.5-6.5c0-3.6,2.9-6.5,6.5-6.5c3.6,0,6.5,2.9,6.5,6.4C70.5,67.6,67.6,70.5,63.9,70.5z"/>
		<path d="M84.8,56.7c0.9,2.4,1.3,4.8,1.2,7.3c0.1,2.5-0.4,4.9-1.2,7.2c-0.5,1.4-1.3,1.9-2.4,1.6c-1.1-0.3-1.5-1.3-1-2.6
			c1.4-4.1,1.4-8.2,0-12.3c-0.4-1.3-0.1-2.2,0.9-2.6C83.5,54.9,84.3,55.4,84.8,56.7z"/>
		<path d="M96,52.4c1.4,3.8,2.1,7.7,2,11.7c0,3.9-0.7,7.8-2,11.5c-0.5,1.3-1.3,1.8-2.3,1.4c-1.1-0.4-1.4-1.3-1-2.5
			c2.4-7,2.5-14,0-20.9c-0.4-1.1,0-2.1,0.9-2.5C94.6,50.7,95.5,51.2,96,52.4z"/>
		<path d="M107.4,48.6c1.7,5,2.7,10.1,2.6,15c0.1,5.7-0.9,10.9-2.7,16c-0.3,0.7-0.6,1.4-1.4,1.6c-1.5,0.3-2.5-0.9-2-2.5
			c0.8-2.4,1.5-4.7,1.9-7.2c1.4-7.3,0.7-14.5-1.7-21.6c0-0.1-0.1-0.2-0.1-0.2c-0.5-1.5-0.2-2.6,0.9-2.9
			C106,46.5,106.9,47.1,107.4,48.6z"/>
		<path d="M127.2,53.1c-1-6.6-2.9-12.8-6.3-18.6c-2.2-3.8-5.9-4.8-9.8-2.8C99.5,37.7,88,43.6,76.5,49.6c-0.8,0.4-1.3,0.4-2-0.2
			c-6.2-4.6-14.9-4.6-21.2,0c-0.7,0.5-1.2,0.5-2,0.1c-11.5-6-23-11.9-34.6-17.8c-4-2.1-7.6-1-9.9,2.9c-3.4,5.8-5.3,12-6.3,18.6
			c-0.3,1.7-0.2,3.4-0.7,5.1v2.2c0.2,0.6,0.2,1.2,0,1.7v3.5c0.2,0.6,0.2,1.2,0,1.7v2.2c0.5,1.7,0.5,3.4,0.7,5.1
			c1,6.6,2.9,12.8,6.3,18.6c2.3,3.9,5.9,4.9,9.9,2.9c11.6-6,23.1-11.9,34.7-17.9c0.7-0.4,1.1-0.3,1.7,0.1c6.4,4.7,14.9,4.7,21.4,0
			c0.6-0.5,1-0.5,1.7-0.1c11.5,6,23,11.9,34.6,17.9c4.1,2.1,7.7,1.1,10-2.9c4-6.9,6-14.4,6.7-22.3C128.2,65.1,128.1,59.1,127.2,53.1
			z M119.2,89.1c-0.4,0.9-0.9,1.8-1.4,2.6c-1.2,2.1-2.8,2.6-5,1.5c-8.3-4.3-16.6-8.6-24.9-12.9c-3.8-1.9-7.5-3.8-11.3-5.8
			c-1.1-0.6-2-0.5-2.9,0.3c-5.9,5-13.3,5-19.3,0c-1.1-0.9-2-0.8-3.2-0.2c-11.9,6.2-23.8,12.3-35.8,18.5c-2.6,1.3-4,0.9-5.4-1.6
			C6.8,85.9,5.1,80,4.2,73.7c-0.9-6-0.9-11.9-0.2-17.9c0.8-6.9,2.6-13.5,6.2-19.5c1.3-2.1,2.8-2.6,5-1.5c12,6.2,23.9,12.4,35.9,18.5
			c1.8,0.9,2,0.9,3.5-0.4c5.3-4.6,13.3-4.6,18.6-0.1c1.7,1.4,1.7,1.4,3.7,0.4c11.7-6,23.4-12.1,35.1-18.1c0.6-0.3,1.2-0.7,1.9-0.9
			c1.5-0.4,2.8,0.3,3.7,1.8c2.8,4.6,4.4,9.6,5.5,14.8c0.9,4.3,1.2,8.6,1.3,12.9C124.3,72.7,123.1,81.2,119.2,89.1z"/>
		<path d="M86.7,18.3H86c-1.4,1-2.8,2-4.2,3c-3.8,2.7-6.4,6.3-7.6,10.7c-0.9,3-0.8,6.1-0.9,9.1c0,0.8,0.2,1.5,1,1.9
			c0.8,0.4,1.4,0.2,2.1-0.3c1.4-1,2.8-2,4.1-3c3.1-2.4,5.2-5.4,6.6-9c1.1-3.2,1.1-6.5,1.3-9.8C88.3,19.7,87.9,18.8,86.7,18.3z
			 M76.9,37.8c0.1-6,2.6-10.6,7.4-14C85.1,28.7,81.7,35.1,76.9,37.8z"/>
		<path d="M54.1,33c-1.6-7-6.5-11.2-12.3-14.6H41c-0.5,0.5-1.2,0.8-1.2,1.7c0,2.5,0,4.9,0.4,7.3c1.1,7.4,6,12,12,15.6
			c1.2,0.7,2.6-0.1,2.6-1.4C54.7,38.7,54.7,35.8,54.1,33z M50.9,37.7c-4.4-2-7.8-8.4-7.4-13.8C48,26.2,51.4,32.5,50.9,37.7z"/>
		<path d="M0,60.5c0.4,0.6,0.4,1.2,0,1.7C0,61.7,0,61.1,0,60.5z"/>
		<path d="M0,65.8c0.4,0.6,0.4,1.2,0,1.7C0,66.9,0,66.4,0,65.8z"/>
		<path d="M88.2,105.4c-0.1-1.4-0.1-3-0.3-4.5c-1.1-7.5-5.9-12.3-12.1-15.9c-1.1-0.7-2.5,0.1-2.5,1.4c-0.1,2.5,0,5,0.4,7.5
			c1.1,7.3,6,11.8,11.9,15.5c1.2,0.8,2.6-0.1,2.7-1.5C88.2,107.1,88.2,106.4,88.2,105.4z M84.5,104.1c-4.1-2-7.9-8.1-7.5-13.8
			C81.7,93.1,84.7,98.6,84.5,104.1z"/>
		<path d="M54.7,86.5c-0.1-1.4-1.4-2.2-2.6-1.5c-3.3,2.2-6.6,4.4-9,7.8c-3.2,4.6-3.6,9.9-3.5,15.2c0,1.3,1.5,2.1,2.6,1.3
			c2.7-1.8,5.5-3.6,7.6-6.2c3.5-4.2,4.7-9,4.7-14.3v-2.1C54.7,86.7,54.7,86.6,54.7,86.5z M43.6,104.2c-0.8-4.7,2.6-11.1,7.4-14
			C51,96.3,48.5,100.8,43.6,104.2z"/>
		<path d="M22.2,56.4C20.8,63.8,21.4,71,23.8,78c0.6,1.8,0.4,2.8-0.7,3.2c-1.2,0.4-2-0.2-2.6-2.1c-1.7-4.9-2.6-10-2.5-15.6
			c-0.1-4.9,0.9-10,2.6-14.9c0.2-0.7,0.4-1.4,1.1-1.7c0.7-0.3,1.3-0.3,1.9,0.2c0.7,0.6,0.9,1.3,0.6,2.1C23.3,51.6,22.6,54,22.2,56.4
			z"/>
		<path d="M35.3,53.6c-2.4,6.9-2.4,13.8,0,20.7c0.4,1.3,0.1,2.3-0.8,2.6c-1.1,0.4-2-0.1-2.5-1.5c-1.3-3.7-2-7.5-2-11.4
			c0-4,0.6-7.9,2-11.6c0.5-1.3,1.3-1.7,2.4-1.4C35.3,51.4,35.7,52.4,35.3,53.6z"/>
		<path d="M46.6,70.5c0.3,1,0,1.8-1,2.2c-1,0.4-1.9,0-2.3-1.1c-1.8-5.1-1.8-10.2,0-15.3c0.3-0.8,0.9-1.1,1.7-1.2
			c1.2,0,2.1,1.2,1.6,2.4C45.1,61.9,45.1,66.2,46.6,70.5z"/>
		<path d="M64.1,54c-5.5-0.1-10.1,4.3-10.2,9.9c-0.1,5.6,4.3,10,9.9,10.2c5.6,0.1,10.1-4.3,10.2-9.8C74.1,58.6,69.8,54.1,64.1,54z
			 M63.9,70.5c-3.6,0-6.5-2.9-6.5-6.5c0-3.6,2.9-6.5,6.5-6.5c3.6,0,6.5,2.9,6.5,6.4C70.5,67.6,67.6,70.5,63.9,70.5z"/>
		<path d="M84.8,56.7c0.9,2.4,1.3,4.8,1.2,7.3c0.1,2.5-0.4,4.9-1.2,7.2c-0.5,1.4-1.3,1.9-2.4,1.6c-1.1-0.3-1.5-1.3-1-2.6
			c1.4-4.1,1.4-8.2,0-12.3c-0.4-1.3-0.1-2.2,0.9-2.6C83.5,54.9,84.3,55.4,84.8,56.7z"/>
		<path d="M96,52.4c1.4,3.8,2.1,7.7,2,11.7c0,3.9-0.7,7.8-2,11.5c-0.5,1.3-1.3,1.8-2.3,1.4c-1.1-0.4-1.4-1.3-1-2.5
			c2.4-7,2.5-14,0-20.9c-0.4-1.1,0-2.1,0.9-2.5C94.6,50.7,95.5,51.2,96,52.4z"/>
		<path d="M110,63.7c0.1,5.7-0.9,10.9-2.7,16c-0.3,0.7-0.6,1.4-1.4,1.6c-1.5,0.3-2.5-0.9-2-2.5c0.8-2.4,1.5-4.7,1.9-7.2
			c1.4-7.3,0.7-14.5-1.7-21.6c0-0.1-0.1-0.2-0.1-0.2c-0.5-1.5-0.2-2.6,0.9-2.9c1.1-0.4,2,0.2,2.5,1.8
			C109.1,53.6,110.1,58.7,110,63.7z"/>
		<path d="M64.1,54c-5.5-0.1-10.1,4.3-10.2,9.9c-0.1,5.6,4.3,10,9.9,10.2c5.6,0.1,10.1-4.3,10.2-9.8C74.1,58.6,69.8,54.1,64.1,54z
			 M63.9,70.5c-3.6,0-6.5-2.9-6.5-6.5c0-3.6,2.9-6.5,6.5-6.5c3.6,0,6.5,2.9,6.5,6.4C70.5,67.6,67.6,70.5,63.9,70.5z"/>
		<path d="M23.8,78c0.6,1.8,0.4,2.8-0.7,3.2c-1.2,0.4-2-0.2-2.6-2.1c-1.7-4.9-2.6-10-2.5-15.6c-0.1-4.9,0.9-10,2.6-14.9
			c0.2-0.7,0.4-1.4,1.1-1.7c0.7-0.3,1.3-0.3,1.9,0.2c0.7,0.6,0.9,1.3,0.6,2.1c-0.8,2.3-1.5,4.7-1.9,7.2C20.8,63.8,21.4,71,23.8,78z"
			/>
		<path d="M110,63.7c0.1,5.7-0.9,10.9-2.7,16c-0.3,0.7-0.6,1.4-1.4,1.6c-1.5,0.3-2.5-0.9-2-2.5c0.8-2.4,1.5-4.7,1.9-7.2
			c1.4-7.3,0.7-14.5-1.7-21.6c0-0.1-0.1-0.2-0.1-0.2c-0.5-1.5-0.2-2.6,0.9-2.9c1.1-0.4,2,0.2,2.5,1.8
			C109.1,53.6,110.1,58.7,110,63.7z"/>
		<path d="M98,64.2c0,3.9-0.7,7.8-2,11.5c-0.5,1.3-1.3,1.8-2.3,1.4c-1.1-0.4-1.4-1.3-1-2.5c2.4-7,2.5-14,0-20.9
			c-0.4-1.1,0-2.1,0.9-2.5c1-0.4,1.9,0.1,2.4,1.3C97.4,56.2,98.1,60.1,98,64.2z"/>
		<path d="M35.3,74.4c0.4,1.3,0.1,2.3-0.8,2.6c-1.1,0.4-2-0.1-2.5-1.5c-1.3-3.7-2-7.5-2-11.4c0-4,0.6-7.9,2-11.6
			c0.5-1.3,1.3-1.7,2.4-1.4c1,0.3,1.4,1.3,0.9,2.6C32.9,60.6,32.9,67.4,35.3,74.4z"/>
		<path d="M86,64c0.1,2.5-0.4,4.9-1.2,7.2c-0.5,1.4-1.3,1.9-2.4,1.6c-1.1-0.3-1.5-1.3-1-2.6c1.4-4.1,1.4-8.2,0-12.3
			c-0.4-1.3-0.1-2.2,0.9-2.6c1.1-0.4,1.9,0.1,2.4,1.4C85.6,59.1,86.1,61.5,86,64z"/>
		<path d="M45.6,72.8c-1,0.4-1.9,0-2.3-1.1c-1.8-5.1-1.8-10.2,0-15.3c0.3-0.8,0.9-1.1,1.7-1.2c1.2,0,2.1,1.2,1.6,2.4
			c-1.5,4.3-1.5,8.7,0,13C47,71.5,46.6,72.4,45.6,72.8z"/>
	</g>
</g>
</svg>
