<?xml version="1.0" encoding="utf-8"?>
<!-- Generator: Adobe Illustrator 28.0.0, SVG Export Plug-In . SVG Version: 6.00 Build 0)  -->
<svg version="1.1" id="Layer_1" xmlns="http://www.w3.org/2000/svg" xmlns:xlink="http://www.w3.org/1999/xlink" x="0px" y="0px"
	 viewBox="0 0 128 128" style="enable-background:new 0 0 128 128;" xml:space="preserve">
<g id="xOuc8r.tif">
	<g>
		<path d="M126.7,121.3c-0.3-0.1-0.5-0.2-0.8-0.3c-22.1-8.6-44.2-17.1-66.3-25.7c-7.6-2.9-15.1-5.9-22.7-8.8c-0.5-0.2-1-0.2-1-1
			c-0.2-2.7-1.7-4.4-4.1-5.4c-2.1-0.8-4.1-1.7-6.2-2.5c-2.3-0.9-4.4-0.7-6.3,0.9c-0.7,0.6-0.9,0.2-1.1-0.3c-0.5-1.1-0.3-1.3,0.8-1.3
			c0.5,0,1.1,0,1.6-0.2c0.8-0.3,1.2-0.8,1.3-1.6c0.1-0.7-0.3-1.7,0.3-2.1c0.6-0.4,1.5-0.1,2.3-0.1c0.3,0,0.6,0,0.9,0
			c0.6-0.1,0.7,0.1,0.9,0.7c0.5,2.2,2,3.2,4.2,3.3c0.5,0,0.9,0,1.4,0c1-0.1,1.8,0.2,2.5,1c2.7,2.8,5.5,5.6,8.3,8.3
			c0.7,0.7,1.3,1.4,2,2c0.6,0.5,1.2,0.8,2,0.5c0.9-0.3,1.2-1,1.3-1.8c0-0.4,0-0.7,0-1.1c0-4.6,0.1-9.2,0-13.9c0-1.7,0.5-2.7,2.1-3.2
			c0.5,1.6,1.2,2.3,2.3,2.1c1.2-0.2,1.7-1,1.7-2.7c0-1.5,0-2.9,0-4.4c0-0.3-0.1-0.6,0.2-0.8c0.5-0.4,2.4,0.1,2.7,0.7
			c1.3,2.4,3.6,3.5,6.2,3.1c2.7-0.5,4.7-2.6,4.9-5.5c0.2-2.4-1.5-5-4-5.8c-2.6-0.9-5.5,0-6.8,2.4c-0.6,1-1.2,1.3-2.3,1.3
			c-0.7,0-0.9-0.3-0.9-1c0-1.6,0-3.2,0-4.7c0-1.1-0.4-2-1.7-2.3c-1.1-0.2-1.8,0.5-2.3,2.1c-1.6-0.5-2.1-1.5-2.1-3.3
			c0.1-4.7,0-9.5,0-14.2c0-1-0.1-2-1.2-2.5c-1.2-0.5-1.9,0.2-2.6,0.9c-2.8,2.8-5.7,5.6-8.5,8.5c-1.6,1.7-3.1,2.7-5.6,2.4
			c-1.6-0.2-3.2,0.7-3.6,2.3c-0.4,1.7-1.3,1.8-2.6,1.6c-0.4,0-0.8,0-1.1,0c-0.3,0-0.8,0.2-0.9-0.2c-0.1-0.4-0.2-0.9,0.2-1.3
			c0.6-0.6,1.1-1.1,1.7-1.7c1.4-1.3,2.1-2.9,2.1-4.9c0-1.6,0-3.3,0-4.9c0-0.9,0.2-1.4,1.2-1.3c0.9,0.1,1.9,0.1,2.9,0
			c1.2-0.1,1.9-0.8,1.9-1.8c0-1.1-0.7-1.9-2-1.9c-1,0-2-0.1-3,0c-0.9,0.1-1.1-0.3-1-1.1c0.1-1.3,0.1-2.7-1-3.6c-1-0.8-1-1.7-1-2.7
			c0-0.5,0-1.1,0-1.6c0-1-0.4-2.4,0.2-3c0.7-0.7,2.1-0.2,3.1-0.2c0.1,0,0.3,0,0.4,0c2.8,0,4.3-1.5,4.3-4.3c0-2.2,0-4.5,0-6.7
			c0-2.8-0.6-3.7-3.1-4.7h-18C8.6,3.8,7.7,5,7.6,7.3c0,2.5,0,5,0,7.5c0,2,1,3.4,2.9,4.1c0.9,0.3,1.1,0.8,1.1,1.7c0,1.9,0,3.8,0,5.7
			c0.1,2,0.9,2.8,2.8,2.8c2,0,3.9,0,5.9,0c0.5,0,1.2-0.1,1.2,0.7c0,0.8-0.6,0.7-1.2,0.7c-1.5,0-2.9-0.1-4.4,0.1
			c-1.5,0.2-2.4,1.1-2.3,2.3c0.1,1.2,1,2.1,2.5,2.1c1.4,0,2.8,0,4.2,0c0.8,0,1.2,0.4,1.2,1.2c0,1.5,0,3,0,4.5
			c-0.1,1.8-2.1,3.8-4,3.8c-1.7,0-3.5-0.1-5.2,0c-1.8,0.1-2.7,0.9-2.8,2.7c-0.1,1-0.5,1.3-1.4,1.3c-1.9,0-3.8,0-5.7,0
			c-1.1,0-2.1,0.3-2.5,1.6v1.5c0.4,1.2,1.5,1.5,2.6,1.5c1.2,0.1,2.4,0,3.8,0c-1.8,1.8-3.6,3.6-5.3,5.3c-0.5,0.5-0.8,1-1.1,1.6v1.5
			c0.3,0.8,0.8,1.4,1.4,2c1.6,1.6,3.2,3.2,4.9,4.9c-1.3,0.1-2.5,0-3.7,0.1C1.5,68.8,0.4,69,0,70.3v1.5C0.7,72.7,1.6,73,2.8,73
			c1.8-0.1,3.7,0,5.5,0c1.7,0,1.7,0,1.7,1.7c0,1.6,0.7,2.3,2.3,2.3c0.3,0,0.5,0,0.7,0c0.7-0.1,1,0.1,1,0.9c0.1,1.8,0.9,3.3,2.4,4.3
			c0.5,0.3,0.6,0.7,0.7,1.2c0.5,2.9,1,5.8,1.6,8.7c0.4,2.5,1.2,5,1.3,7.5c0.2,4.9,0.1,9.8,0.1,14.7c0,0.5,0.1,0.9-0.7,1
			c-0.9,0.2-1.4,1-1.3,2c0.2,1,0.8,1.6,1.8,1.6c4.1,0,8.2,0,12.2,0c0.9,0,1.5-0.6,1.7-1.4c0.2-0.9,0-1.8-0.9-2.1c-1-0.3-1-0.8-1-1.6
			c0-4.7,0-9.5,0-14.2c0-3-1.5-4.4-4.5-4.4c-1.2,0-2.3,0-3.5,0c-0.5,0-0.8,0-0.9-0.6c-0.3-1.8-0.7-3.7-1-5.6c2,0.8,3.8,1.5,5.7,2.3
			c2.2,0.9,4.3,0.5,6-1c0.6-0.5,1-0.5,1.6-0.2c27,10.4,54,20.9,80.9,31.3c3,1.1,5.9,2.3,8.9,3.4c1.2,0.4,2.2,0,2.6-1
			C128.3,122.8,127.8,121.8,126.7,121.3z M62,59c1.2,0,2,0.9,2,2.1c0,1.2-0.9,2-2.1,2c-1.2,0-2-0.9-2-2.1C60,59.8,60.8,59,62,59z
			 M47.9,56.7c1.4,0.6,2.4,1.3,2.1,3c-0.1,0.8-0.1,1.7,0,2.5c0.3,1.7-0.7,2.4-2.1,3V56.7z M35.8,71.2c0.2-7.4,0.1-14.9,0-22.3
			c0-0.8,0.2-1.4,0.8-2c2.4-2.4,4.8-4.8,7.3-7.3v42.9c-2.1-2.2-4-4.3-6-6.1C36.3,75,35.7,73.4,35.8,71.2z M31,48.9
			c1-0.1,1,0.4,1,1.2c0,7.3,0,14.7,0,22c0,0.9-0.3,1.1-1.1,1.1c-0.8,0-1.1-0.2-1.1-1.1c0.1-3.7,0-7.4,0-11.1c0-3.6,0-7.2,0-10.9
			C29.8,49,30.2,48.9,31,48.9z M21.8,54.1c0-0.8,0.1-1.3,1.1-1.1c1,0.1,2.4-0.4,3,0.2C26.3,53.7,26,55,26,56c0,1.7,0,3.3,0,5
			c0,2.4,0,4.7,0,7.1c0,0.8-0.2,1-1,1c-1-0.1-2.4,0.3-3-0.2c-0.7-0.5-0.2-2-0.2-3C21.8,62,21.8,58,21.8,54.1z M20,22.1
			c0,0.9,0.3,2.2-0.2,2.7c-0.5,0.6-1.9,0.1-2.8,0.2c-1,0.1-1.3-0.3-1.2-1.2c0.1-1.4,0-2.8,0-4.2c0-0.6,0.2-0.9,0.8-0.8
			c0.1,0,0.2,0,0.2,0c1,0.1,2.3-0.4,3,0.2C20.5,19.6,19.9,21,20,22.1z M19.9,15c-2.4,0-4.7,0-7.1,0c-0.8,0-1.1-0.2-1.1-1
			c0.1-2.1,0-4.2,0-6.2c0-0.7,0.1-1,0.9-1c4.8,0,9.7,0,14.5,0C27.8,6.8,28,7,28,7.6c0,2.2,0,4.4,0,6.6c0,0.7-0.2,0.8-0.9,0.8
			C24.8,15,22.3,15,19.9,15z M10,66.4c-1.5-1.5-2.8-3-4.3-4.3c-1-0.9-1-1.4,0-2.3c1.5-1.3,2.8-2.7,4.3-4.3V66.4z M16,48.9
			c2,0,2,0,2,2c0,2.2,0,2.2-2.2,2.2c-2,0-2,0-2-2C13.8,48.9,13.8,48.9,16,48.9z M13.8,57.9c0-0.8,0.2-1,1-0.9c0.7,0.1,1.5,0.1,2.2,0
			c0.8-0.1,1.1,0.1,1,1c-0.1,1,0,2.1,0,3.1c0,1.1,0,2.2,0,3.4c0,0.5-0.2,0.8-0.7,0.7c-0.1,0-0.2,0-0.3,0C16,65,14.6,65.5,14,64.8
			c-0.6-0.6-0.2-2-0.2-3C13.7,60.5,13.8,59.2,13.8,57.9z M15.8,73.1c-2,0-2,0-2-2.1c0-2,0-2,2.2-2c2,0,2,0,2,2
			C18,73.1,18,73.1,15.8,73.1z M24.7,99c3.3-0.1,3.3-0.1,3.3,3.2c0,4,0,8.1,0,12.1c0,0.7-0.1,1-0.9,1c-3.3,0-3.3,0.1-3.3-3.3v-5
			c0-2.4,0-4.7,0-7.1C23.8,99.2,24,99,24.7,99z M32,86.1c-0.1,1-0.7,1.5-1.6,1.8c-0.4,0.1-0.8,0-1.2-0.1c-2.3-0.9-4.7-1.8-7-2.8
			c-1-0.4-1.4-1.4-1.2-2.5c0.3-1,1-1.5,2.1-1.5c0.2,0,0.5,0.1,0.7,0.2c2.2,0.9,4.5,1.7,6.7,2.7C31.5,84.2,32.1,84.9,32,86.1z"/>
	</g>
</g>
</svg>
