<?xml version="1.0" encoding="utf-8"?>
<!-- Generator: Adobe Illustrator 28.0.0, SVG Export Plug-In . SVG Version: 6.00 Build 0)  -->
<svg version="1.1" id="Layer_1" xmlns="http://www.w3.org/2000/svg" xmlns:xlink="http://www.w3.org/1999/xlink" x="0px" y="0px"
	 viewBox="0 0 128 128" style="enable-background:new 0 0 128 128;" xml:space="preserve">
<g id="J2jRBH.tif">
	<g>
		<path d="M118.7,89.8c-4.2,0.2-7.7,3.7-7.7,8c0,2.4,0,4.7,0,7.1c0,3-1.7,4.7-4.7,4.7c-0.9,0-1.1-0.3-1.1-1.1c0-14.2,0-28.3,0-42.5
			c0-0.7,0.1-1.1,0.9-1.3c1.9-0.4,3.2-1.6,3.8-3.4c1.5-3.7-1.3-7.6-5.5-7.6c-7.2,0-14.5,0-21.7,0c-0.8,0-1.1-0.2-1-1
			c0.1-1.1,0-2.2,0-3.2c0-2.1-0.9-3.6-2.8-4.5c-1.6-0.8-3.3-1.6-4.9-2.3c-0.8-0.3-1-0.8-1-1.7c0-12.5,0-25.1,0-37.6
			c0-2.2-1.2-3.4-3.4-3.4c-2.5,0-5,0.1-7.5,0c-2.3-0.1-4,1.2-3.9,4c0.1,9.9,0,19.8,0,29.7v1.5c-1.2-0.6-2.2-1.1-3.2-1.5
			C54.2,33.4,54,32.9,54,32c0-9.5,0-18.9,0-28.4C54,1.2,52.8,0,50.3,0c-2.5,0-4.9,0-7.4,0c-2.6,0-3.7,1.1-3.7,3.7
			c0,5.8,0,11.6,0,17.4v5c-0.5-0.2-0.9-0.4-1.3-0.6C30,21.7,22,18,14.1,14c-3.8-1.9-7.2,1-7,4.4c0.2,4.1,0,8.2,0,12.4
			c0,0.3,0,0.6,0,0.9c0.2,1.1,0.7,1.8,1.9,1.8c1.1,0,1.7-0.7,1.9-1.7c0.1-0.4,0-0.7,0-1.1c0-3.9,0-7.8,0-11.7c0-2,0.1-2,1.8-1.2
			c20.6,9.8,41.1,19.7,61.7,29.4c2.7,1.3,4,2.6,3.4,5.6c-0.1,0.8-0.2,1.1-1.1,1.1c-4.3,0-8.7,0-13,0c-2.9,0-5.4,2-5.8,4.7
			c-0.5,2.9,1.2,5.5,4.2,6.3c0.7,0.2,0.9,0.5,0.9,1.2c0,7,0,14,0,21c0,0.8-0.1,1.1-1,1.1c-16.7,0-33.3,0-50,0
			c-0.9,0-1.2-0.3-1.2-1.2c0-2.8,0.1-5.6,0-8.4c0-1,0.2-1.2,1.2-1.2c10.1,0,20.2,0,30.4,0c0.4,0,0.8,0,1.1,0c1-0.2,1.6-0.8,1.6-1.9
			c0-1.1-0.6-1.7-1.7-1.9c-0.4-0.1-0.9-0.1-1.4-0.1c-10,0-20.1,0-30.1,0c-0.9,0-1.2-0.2-1.2-1.1c0.1-1.7,0.1-3.5,0-5.2
			c0-1,0.2-1.2,1.2-1.2c10,0,20.1,0,30.1,0c0.5,0,0.9,0,1.4,0c1-0.1,1.6-0.8,1.6-1.8c0.1-1.1-0.5-1.7-1.5-2c-0.4-0.1-0.7,0-1.1,0
			c-10.2,0-20.3,0-30.5,0c-0.9,0-1.2-0.2-1.2-1.1c0.1-1.7,0.1-3.5,0-5.2c-0.1-1,0.3-1.2,1.2-1.2c10.1,0,20.2,0,30.2,0
			c2,0,2.9-0.6,2.9-2c0-1.3-0.9-1.9-2.9-1.9c-10,0-20.1,0-30.1,0c-1,0-1.3-0.2-1.3-1.3c0.1-3.2,0.1-6.3,0-9.5c0-1.4-0.8-2.1-2-2.1
			c-1.2,0-1.9,0.8-1.9,2.2c0,0.2,0,0.5,0,0.7v45.9c0,3.7,1.6,5.3,5.3,5.3c16.5,0,33,0,49.5,0c1,0,1.3,0.2,1.2,1.2
			c0,7.6,0,15.2,0,22.7c0,0.8-0.2,1.1-1,1.3c-3.8,1-5.3,5.6-2.9,8.8c0.8,1.1,2,1.6,3.1,2.1h29.5c1.1-0.5,1.6-1.2,1.4-2.2
			c-0.2-1-0.9-1.7-2-1.9c-0.6-0.1-1.2-0.1-1.7-0.1h-24c-0.5,0-1.1,0-1.6,0c-0.8-0.1-1.5-0.5-1.5-1.4c0-0.9,0.7-1.3,1.5-1.3
			c0.2,0,0.5,0,0.7,0c13,0,26,0,38.9,0c0.5,0,1,0,1.5,0.1c0.5,0.1,0.9,0.5,0.9,1c0.1,0.6-0.2,1-0.7,1.2c-0.5,0.3-1.1,0.3-1.7,0.3
			c-1.7,0-3.5-0.1-5.2,0.1c-1.2,0.1-2,0.9-2.1,1.9c-0.1,1,0.3,1.6,1.5,2.1h8.2c1.4-0.2,2.5-0.7,3.4-1.9c2.5-3.2,1.2-7.8-2.6-9.3
			c-1.1-0.4-1.3-1-1.2-2.2c0.2-1,0.9-0.7,1.6-0.8c4.6-0.4,7.9-3.9,7.9-8.5c0-2.3-0.1-4.7,0-7c0.1-2.5,1.3-3.9,3.7-4.3
			c1.1-0.2,1.9-0.7,2.2-1.8v-0.7C120.5,90.5,119.9,89.8,118.7,89.8z M50.2,31.4c-2.4-1.1-4.6-2.2-6.8-3.2C43.1,28,43,27.8,43,27.4
			c0-1.3,0-2.7,0-4c0-0.6,0.2-0.7,0.7-0.7c2,0,3.9,0,5.9,0c0.6,0,0.7,0.2,0.7,0.7C50.2,26,50.2,28.6,50.2,31.4z M50.3,18
			c0,0.7-0.2,0.9-0.9,0.8c-1,0-1.9,0-3.1,0c-0.9-0.1-2.5,0.5-3.1-0.2C42.6,18,43,16.5,43,15.4c0-1.6,0-1.6,1.6-1.6
			c1.6,0,3.2,0,4.7,0c0.6,0,0.9,0.1,0.9,0.8C50.2,15.7,50.2,16.9,50.3,18z M49.4,9.9c-1,0-1.9,0-2.9,0c-0.8,0-1.7,0-2.5,0
			c-0.8,0.1-1.1-0.1-1.1-1c0.1-1.4,0-2.8,0-4.2c0-0.6,0-0.9,0.8-0.9c1.9,0.1,3.8,0,5.7,0c0.6,0,0.8,0.2,0.8,0.8c0,1.5,0,3,0,4.5
			C50.3,9.7,50,9.9,49.4,9.9z M64.5,3.8c1.3,0,2.6,0,3.9,0c0.6,0,0.9,0.1,0.9,0.8c-0.1,1.5,0,2.9,0,4.4c0,0.7-0.1,1-0.9,0.9
			c-1-0.1-1.9,0-3.1,0c-0.9-0.1-2.5,0.5-3.1-0.2C61.6,9,62,7.5,62,6.4C62,3.8,62,3.8,64.5,3.8z M69.2,40.4c-2.4-1.1-4.6-2.2-6.8-3.2
			C62,37,62,36.7,62,36.3c0-4.2,0-8.5,0-12.7c0-0.6,0.2-0.9,0.8-0.8c1.9,0,3.7,0,5.6,0c0.7,0,0.8,0.2,0.8,0.9
			C69.2,29.1,69.2,34.7,69.2,40.4z M69.3,17.4c0.2,1.3-0.4,1.6-1.6,1.5c-1.6-0.1-3.2,0-4.8,0c-0.6,0-0.9-0.1-0.9-0.8
			c0.1-1.2,0.1-2.4,0-3.6c0-0.6,0.2-0.8,0.8-0.7c0.9,0,1.9,0,2.9,0v0.1c1.2,0,2.7-0.5,3.4,0.1C69.8,14.6,69.1,16.2,69.3,17.4z
			 M68.8,72.2c10.5,0,20.9,0,31.4,0c1.6,0,1.2,0.9,1.3,1.7c0.1,1-0.1,1.4-1.3,1.4c-5.4-0.1-10.7,0-16.1,0c-5.2,0-10.5,0-15.7,0
			c-1,0-1.4-0.1-1.3-1.2C67,72.2,67,72.2,68.8,72.2z M66.9,67.2C67,65,67,65,69.2,65h15.1c5.3,0,10.6,0,16,0c0.9,0,1.2,0.1,1.2,1.1
			c-0.1,2.3,0,2.3-2.3,2.3c-10.3,0-20.6,0-30.9,0C67.2,68.4,66.9,68.2,66.9,67.2z M67,80c-0.1-0.7,0.1-0.9,0.9-0.9
			c10.9,0,21.8,0,32.7,0c0.6,0,0.9,0.1,0.9,0.8c0.1,2.3,0.1,2.3-2.2,2.3H84.2c-5.3,0-10.6,0-16,0c-0.9,0-1.4-0.2-1.2-1.2
			C67,80.6,67,80.3,67,80z M67,93.8c-0.1-0.8,0.2-1,1-1c2.6,0,5.2,0,7.7,0c8.1,0,16.2,0.1,24.4,0c1.6,0,1.3,0.8,1.4,1.7
			c0.1,1.2-0.4,1.4-1.5,1.4c-5.3-0.1-10.6,0-15.9,0c-5.3,0-10.6,0-15.9,0c-1,0-1.5-0.2-1.3-1.3C67,94.4,67,94.1,67,93.8z
			 M101.4,114.7c-0.1,2.1,0,2.1-2.2,2.1H84.1c-5.4,0-10.7,0-16.1,0c-0.9,0-1.1-0.2-1.1-1.1c0-2.2,0-2.2,2.3-2.2c10.3,0,20.6,0,31,0
			C101.2,113.5,101.5,113.7,101.4,114.7z M101.4,108.5c0.1,0.9-0.2,1.1-1.1,1.1c-5.4,0-10.8,0-16.2,0c-5.3,0-10.7,0-16,0
			c-1,0-1.3-0.3-1.1-1.2c0-0.2,0-0.5,0-0.7c-0.1-0.9,0.2-1.2,1.1-1.2c5.5,0.1,11,0,16.5,0c5.2,0,10.4,0,15.6,0c1,0,1.4,0.3,1.2,1.2
			C101.4,108,101.4,108.3,101.4,108.5z M101.2,102.6c-0.1,0.2-0.7,0.1-1,0.1c-5.4,0-10.7,0-16.1,0c-5.3,0-10.6,0-15.8,0
			c-1,0-1.4-0.1-1.3-1.2c0.1-1.8,0-1.8,1.8-1.8c10.5,0,21,0,31.4,0c0.4,0,1.1-0.3,1.1,0.3C101.5,100.9,101.6,101.8,101.2,102.6z
			 M101.2,88.9c-0.1,0.2-0.7,0.1-1.1,0.1c-5.4,0-10.7,0-16.1,0c-5.3,0-10.6,0-15.8,0c-1,0-1.4-0.1-1.3-1.2C67,86,67,86,68.8,86
			c10.5,0,21,0,31.4,0c0.4,0,1.1-0.3,1.1,0.3C101.5,87.2,101.6,88.1,101.2,88.9z M104.1,61.3c-13.3,0-26.6,0-39.8,0
			c-0.5,0-1,0-1.5-0.2c-0.7-0.3-1.1-1-1-1.7c0.1-0.8,0.5-1.4,1.4-1.6c0.5-0.1,1-0.1,1.5-0.1c6.5,0,13.1,0,19.6,0c6.5,0,13,0,19.5,0
			c0.5,0,0.9,0,1.4,0.1c0.8,0.1,1.3,0.7,1.4,1.5c0.1,0.8-0.3,1.4-1.1,1.8C105,61.2,104.6,61.3,104.1,61.3z"/>
	</g>
</g>
</svg>
