<?xml version="1.0" encoding="utf-8"?>
<!-- Generator: Adobe Illustrator 28.0.0, SVG Export Plug-In . SVG Version: 6.00 Build 0)  -->
<svg version="1.1" id="Layer_1" xmlns="http://www.w3.org/2000/svg" xmlns:xlink="http://www.w3.org/1999/xlink" x="0px" y="0px"
	 viewBox="0 0 128 128" style="enable-background:new 0 0 128 128;" xml:space="preserve">
<g id="zXOH8W.tif">
	<g>
		<path d="M128,9.1c-0.2-0.1-0.2-0.3-0.2-0.4c-1.1-6-7.1-9.8-13.1-8.3c-5.9,1.5-9.4,7.8-7.5,13.6c0.2,0.7,0.2,1.2-0.2,1.8
			c-2.6,4.4-5.1,8.7-7.6,13.1c-0.4,0.8-0.9,1.1-1.9,1.1c-18.7,0-37.5,0-56.2-0.1c-2.3,0-3.7,1.6-2.3,4c3.2,5.6,6.3,11.3,9.5,16.9
			c0.4,0.8,0.6,1.5,0.6,2.4c0,21.4,0,42.7,0,64.1c0,4.8,2.8,8.7,7.4,10.3c0.4,0.1,0.9,0,1.2,0.5h61.3c4.5-0.1,8.8-4.5,9.1-8.8v-88
			c-0.4-1.4-1.4-1.7-2.6-1.7c-3.2,0-6.4,0-9.6,0c-1.4,0-1.4-0.1-0.7-1.3c0.7-1.2,1.5-2.3,2.1-3.6c0.9-1.9,2.1-3.2,4.4-3.8
			c3-0.7,6.6-5,6.4-8.2c0,0,0-0.1,0-0.1c0-0.4-0.1-0.9,0.1-1.3V9.1z M100.8,35.1c0.4-0.7,0.8-1,1.6-1c1.2,0.1,2.4,0,3.7,0
			c-0.5,0.9-1,1.8-1.5,2.6c-9.1,15.7-18.2,31.4-27.2,47.1c-0.6,1.1-1.3,1.7-2.6,1.4c-0.9-0.2-1.9-0.2-2.9-0.3
			c4.2-7.2,8.2-14.3,12.3-21.3C89.8,54.2,95.3,44.7,100.8,35.1z M44.7,35.1c-0.1-0.3-0.3-0.5-0.5-0.9h52.1
			c-2.8,4.8-5.4,9.4-8.1,14.1c-6.7,11.6-13.4,23.2-20.1,34.8c-0.6,1-1.1,1.1-2,0.7c-3.9-1.5-7.9-2.6-12.1-2.7c-0.8,0-0.6-0.5-0.6-1
			c0-3.7,0-7.5,0-11.2c0-5.6,0-11.3,0-16.9c0-1-0.2-1.8-0.7-2.6C50,44.6,47.4,39.9,44.7,35.1z M116.3,123.7H88.6c-9.3,0-18.7,0-28,0
			c-4.6,0-7.3-2.6-7.3-7.2c0-10,0-19.9,0-29.9c0-0.9,0.1-1.3,1.2-1.2c3.5,0.3,6.8,1.5,10.1,2.5c8.3,2.5,16.5,2.3,24.7-0.6
			c7.8-2.8,15.5-2.8,23.3,0c3.4,1.2,6.8,2,10.3,2.2c0.6,0,0.8,0.2,0.8,0.8c0,2.3,0,4.5,0,6.8c0,0.7-0.2,1-0.9,1c-3.1,0-6.2,0-9.3,0
			c-1.7,0-2.6,0.8-2.5,2.2c0,1.3,0.9,2.1,2.5,2.1c3.1,0,6.2,0,9.3,0c0.7,0,1,0.2,1,0.9c-0.1,2.2-0.1,4.4,0,6.7c0,0.7-0.2,1-0.9,1
			c-3.1,0-6.2,0-9.3,0c-1.7,0-2.6,0.8-2.5,2.2c0,1.3,0.9,2.1,2.5,2.1c3.1,0,6.2,0,9.3,0c0.7,0,0.9,0.2,1,0.9
			C123.8,121,121.2,123.7,116.3,123.7z M122.6,34.1c0.9,0,1.2,0.1,1.2,1.1c-0.1,3.6-0.1,7.1,0,10.7c0,0.9-0.3,1.1-1.1,1.1
			c-3.1,0-6.1,0-9.2,0c-1.6,0-2.5,0.8-2.5,2.1c0,1.4,0.9,2.2,2.6,2.2c3.1,0,6.1,0,9.2,0c0.7,0,1.1,0.1,1.1,1c-0.1,2.2-0.1,4.4,0,6.7
			c0,0.8-0.3,0.9-1,0.9c-3.1,0-6.2,0-9.3,0c-1.6,0-2.5,0.7-2.5,2.1c0,1.4,0.9,2.2,2.5,2.2c3.1,0,6.1,0,9.2,0c0.9,0,1.1,0.3,1.1,1.1
			c-0.1,2.2-0.1,4.4,0,6.5c0,0.8-0.2,0.9-1,0.9c-3.1,0-6.2,0-9.3,0c-1.6,0-2.5,0.7-2.5,2.1c0,1.4,0.9,2.2,2.5,2.2c3.1,0,6.2,0,9.3,0
			c0.8,0,1,0.2,0.9,1c0,2.2,0,4.4,0,6.7c0,0.7-0.2,0.8-0.9,0.8c-3.6-0.2-7-1.4-10.4-2.5c-8.3-2.5-16.7-2.4-24.9,0.6
			c-1.2,0.5-2.5,0.8-3.8,1.1c-0.5,0.1-1,0.2-1.8,0.4c3.1-5.4,6.1-10.5,9-15.6c6.6-11.3,13.1-22.7,19.6-34c0.5-0.8,0.9-1.1,1.8-1.1
			C115.8,34.2,119.2,34.2,122.6,34.1z M118.9,16.8c-2.3,0.4-3.7,1.6-4.8,3.6c-1.5,2.9-3.3,5.7-4.9,8.6c-0.4,0.6-0.7,0.9-1.4,0.8
			c-1.2-0.1-2.5,0-3.9,0c1.4-2.4,2.7-4.7,4-6.9c1.1-1.8,2.1-3.7,3.2-5.5c0.9-1.4,1-2.9,0.4-4.4c-1-2.5-0.5-4.8,1.4-6.7
			c1.8-1.8,4-2.4,6.5-1.6c2.6,0.8,4,2.7,4.4,5.3C124.1,13,122,16.3,118.9,16.8z"/>
		<path d="M31.7,42.7c-9.7,0-19.5,0-29.2,0c-1.8,0-2.5,0.7-2.5,2.5c0,3.9,0,7.8,0,11.7c0,2.2,0.6,2.9,2.9,2.8
			c1.1-0.1,1.4,0.2,1.4,1.4c0,18,0,36.1,0,54.1c0,4.8,2.2,8.4,6.2,10.9c1.4,0.9,3,1.2,4.5,1.8h4c0.1-0.1,0.1-0.2,0.2-0.2
			c6.8-1.4,10.8-6.2,10.8-13.3c0-17.7,0-35.4,0-53.2c0-1.4,0.4-1.8,1.7-1.7c1.9,0.1,2.6-0.7,2.6-2.5c0-4,0-8,0-12
			C34.1,43.4,33.4,42.7,31.7,42.7z M25.6,114.9c0,4.3-2.8,7.8-6.9,8.6c-5.2,1-10-2.7-10.1-8c-0.1-9.8,0-19.5-0.1-29.3
			c0-0.6,0.2-0.8,0.8-0.8c5.2,0,10.3,0,15.5,0c1,0,0.8,0.5,0.8,1.1c0,4.8,0,9.6,0,14.4C25.6,105.5,25.6,110.2,25.6,114.9z
			 M25.6,80.1c0,0.8-0.2,1-1,1c-5.1,0-10.1,0-15.2,0c-0.8,0-1-0.2-1-1c0-3.2,0-6.5,0-9.7c0-3.2,0-6.5,0-9.7c0-0.8,0.2-1,1-1
			c5.1,0,10.1,0,15.2,0c0.8,0,1,0.2,1,1C25.6,67.2,25.6,73.7,25.6,80.1z M29,55.5c-4,0-8,0-12,0c-3.9,0-7.7,0-11.6,0
			c-0.8,0-1.1-0.2-1.1-1.1c0.1-2.2,0-4.4,0-6.7c0-0.6,0.1-0.8,0.8-0.8c8,0,16,0,24,0c0.6,0,0.8,0.1,0.8,0.8c0,2.3-0.1,4.6,0,6.9
			C29.9,55.5,29.6,55.5,29,55.5z"/>
		<path d="M128,12.6l-0.1,0l-0.1,0c0-0.5-0.2-1,0.2-1.4C128,11.7,128,12.1,128,12.6z"/>
	</g>
</g>
</svg>
