<?xml version="1.0" encoding="utf-8"?>
<!-- Generator: Adobe Illustrator 28.0.0, SVG Export Plug-In . SVG Version: 6.00 Build 0)  -->
<svg version="1.1" id="Layer_1" xmlns="http://www.w3.org/2000/svg" xmlns:xlink="http://www.w3.org/1999/xlink" x="0px" y="0px"
	 viewBox="0 0 128 128" style="enable-background:new 0 0 128 128;" xml:space="preserve">
<g id="tIylUr.tif">
	<g>
		<path d="M0,63.8c0.3-0.3,0.6-0.5,0.9-0.8C21.7,42.2,42.4,21.4,63.2,0.7c0.9-0.9,0.9-0.9,1.8,0c20.8,20.8,41.6,41.6,62.3,62.3
			c0.9,0.9,0.9,0.9,0,1.8c-20.7,20.7-41.4,41.4-62,62c-0.4,0.4-0.7,0.8-1.1,1.1c-0.1,0-0.2,0-0.3,0c-0.2-0.3-0.5-0.5-0.7-0.8
			C42.4,106.4,21.6,85.6,0.8,64.8c-0.2-0.2-0.5-0.5-0.8-0.7C0,64,0,63.9,0,63.8z M117.7,64c-0.1-0.4-0.4-0.6-0.7-0.8
			C99.7,45.8,82.2,28.4,64.8,10.9c-0.8-0.8-0.8-0.8-1.6,0C45.9,28.3,28.5,45.7,11.1,63.1c-0.8,0.8-0.8,0.8,0,1.6
			c17.4,17.4,34.8,34.8,52.2,52.2c0.8,0.8,0.8,0.8,1.6,0c17.4-17.4,34.8-34.8,52.2-52.2c0.2-0.2,0.3-0.3,0.5-0.5
			C117.6,64.2,117.7,64,117.7,64z"/>
		<path d="M40,71.7c-5.6,0-11.2,0-16.7,0c-0.8,0-1.1-0.2-1.1-1c0.1-1.6,0-3.2,0-4.8c0-0.6,0.2-0.8,0.8-0.8c4.3,0,8.6,0,12.9,0
			c0.3,0,0.6,0,0.9,0.4c0.8,1.1,2.1,1.4,3.4,1.4c1.6,0,3.1-0.3,4.3-1.5c0.3-0.3,0.6-0.3,0.9-0.3c3.9,0,7.7,0,11.6,0
			c0.7,0,0.8,0.2,0.8,0.9c0,1.6,0,3.2,0,4.8c0,0.8-0.3,1-1.1,1C51.1,71.7,45.5,71.7,40,71.7z"/>
		<path d="M88.3,62.6c0.7,0.1,1.3,0.3,1.9,0.4c0,0.4-0.3,0.3-0.4,0.3c-0.9,0.2-1.8,0.4-2.7,0.6c-0.9,0.2-1.1,0.6-0.5,1.3
			c0.7,1,1.8,1.2,2.8,1.5c0.7,0.2,0.9,0.5,0.6,1.2c-0.1,0.3-0.3,0.4-0.5,0.4c-1.6-0.3-3.1-0.7-4.1-2c-0.3-0.4-0.6-0.9-0.6-1.5
			c0-0.6-0.4-0.7-0.9-0.7c-2.4,0-4.8,0-7.2,0c-0.4,0-1.1-0.1-1.1,0.4c0,0.6,0.7,0.4,1.1,0.4c1.6,0,3.2,0,4.8,0
			c0.6,0,0.8,0.2,0.8,0.8c0,0.6-0.3,0.8-0.9,0.8c-2.4,0-4.8,0-7.3,0c-0.2,0-0.5,0-0.7,0c-0.3,0-0.7,0.1-0.7,0.5
			c0,0.5,0.4,0.6,0.7,0.6c0.6,0,1.2,0,1.8,0c2.1,0,4.1,0,6.2,0c0.6,0,0.8,0.2,0.8,0.8c0,0.6-0.3,0.8-0.9,0.8c-1.8,0-3.5,0-5.3,0
			c-0.3,0-0.7-0.1-0.7,0.3c0,0.3,0.4,0.4,0.7,0.4c2,0,4.1,0.1,6.1,0c0.9,0,1.5,0.4,2.1,1c0.1,0.1,0.3,0.2,0.2,0.4
			c-0.1,0.2-0.3,0.1-0.4,0.1c-1.4,0-2.9,0-4.3,0c-0.5,0-0.9,0.1-1.4,0.2c-0.1,0-0.3,0.1-0.3,0.2c-0.1,0.2,0.1,0.3,0.3,0.3
			c0.2,0.1,0.5,0.1,0.7,0.2c3.7,0.1,7.3,0.4,11,0c1.1-0.1,2.2-0.4,3.2-0.9c1.2-0.6,2.5-0.9,3.8-1c0.5,0,0.8,0.1,0.8,0.7
			c0,0.6-0.1,0.9-0.8,0.9c-1.2,0-2.3,0.3-3.3,0.8c-1.7,0.8-3.5,1-5.4,1.1c-3.1,0.1-6.3,0-9.4-0.2c-1.3-0.1-2.6-0.4-2.8-2
			c-0.1-0.3-0.3-0.3-0.5-0.4c-1.1-0.2-1.9-0.7-2.1-1.9c0-0.3-0.2-0.4-0.4-0.4c-0.1,0-0.3,0-0.4,0C71.7,68.9,71,68,71,67
			c0.1-1,0.9-1.9,2-1.9c0.6,0,0.9-0.2,0.9-0.8c0.1-0.8,0.7-1.2,1.5-1.5c0.7-0.2,1.5-0.2,2.2-0.2c0.5,0,0.7-0.1,0.6-0.6
			c-0.1-1,0.3-1.4,1.2-1.5c1-0.1,2,0,3-0.4c0.3-0.1,0.5,0,0.7,0.2c1.9,1.4,3.8,1.5,5.8,0.3c0.3-0.2,0.6-0.2,0.9-0.1
			c0.5,0.2,1,0.4,1.5,0.7c1.7,1.3,3.6,1.7,5.8,1.6c0.6,0,0.9,0.1,0.9,0.8c0,0.6-0.2,0.8-0.8,0.7c-1.1,0-2.2-0.1-3.3-0.2
			c-1.2-0.1-2.2-0.9-3.2-1.6C89.9,62,89.2,61.9,88.3,62.6z M84.2,62.6c-1.3-1-2.7-1-4.2-0.6C81.4,63,82.8,62.4,84.2,62.6z"/>
		<path d="M86.2,57.4c0.1-1.1,0.5-2,0.8-3c0.2-0.7,0.2-1.2-0.3-1.8c-0.7-0.9-0.6-2-0.2-3.1c0.3-0.9,0.2-1.1-0.8-1.3
			c-1.4-0.2-2.7-0.5-4.1-0.7c-4.6-0.8-9.3-1.5-13.9-2.3c-1.5-0.3-2.7-1-3.3-2.5c-0.6-1.6,0.4-3.5,2.2-4.1c1.3-0.5,2.6-0.2,3.9,0
			c5.2,0.9,10.4,1.9,15.6,2.8c1,0.2,2,0.2,2.7-0.8c0.1-0.2,0.3-0.4,0.5-0.3c0.2,0.1,0.1,0.4,0.1,0.6c-0.3,2-0.6,3.9-0.9,5.9
			c-0.1,0.9-0.1,1.7,0.3,2.5c0.6,1.1,0.5,2.3-0.3,3.3c-0.3,0.4-0.3,0.7-0.2,1.1c0.2,0.8,0.4,1.5,0.7,2.3c0.3,0.8,0.2,1.6-0.1,2.4
			c-0.3,0.7-0.7,1.2-1.5,1.1c-0.8,0-1.1-0.6-1.3-1.3C86.2,58,86.2,57.7,86.2,57.4z M86.6,45.1c1,0.2,0.8-0.6,1-1.2
			c0.2-0.8-0.3-0.9-0.9-1C81.5,42,76.2,41.1,71,40.2c-1.2-0.2-2.3-0.6-3.5-0.2c-0.9,0.3-1.5,0.9-1.5,1.6c-0.1,1.1,0.6,1.7,1.9,1.9
			c2.8,0.3,5.6,0.5,8.4,0.7C79.7,44.5,83.1,44.8,86.6,45.1z"/>
		<path d="M63.2,42c0,1.4-1.1,2.8-2.7,3.3c-1.3,0.4-2.8,0.6-4.2,0.8c-4.5,0.8-8.9,1.5-13.4,2.3c-1.2,0.2-1.3,0.5-0.9,1.6
			c0.3,0.9,0.5,1.8,0.2,2.8c-0.1,0.4-0.4,0.8-0.8,1c-0.5,0.2-0.5,0.5-0.4,0.9c0.2,1.2,0.5,2.4,0.8,3.6c0.2,0.8,0.1,1.6-0.3,2.4
			c-0.3,0.5-0.7,0.8-1.3,0.8c-0.6,0-1-0.4-1.2-0.9c-0.3-0.9-0.4-1.7-0.1-2.6c0.4-1.1,0.7-2.2,0.9-3.3c0.1-0.4,0.1-0.8-0.2-1.2
			c-0.6-0.8-0.8-1.7-0.3-2.5c1.1-1.9,0.8-3.8,0.4-5.8c-0.3-1.4-0.5-2.7-0.7-4.1c0-0.2-0.1-0.5,0.1-0.6c0.2-0.1,0.4,0.1,0.5,0.3
			c0.8,1.1,1.8,1.2,3.1,1c5-0.9,10.1-1.8,15.2-2.7c1.3-0.2,2.5-0.2,3.6,0.5C62.6,40,63.1,40.9,63.2,42z M61.6,42
			c0-0.4-0.2-0.8-0.6-1.1c-0.7-0.5-1.5-0.5-2.3-0.4c-1.2,0.2-2.3,0.4-3.5,0.6c-4.4,0.8-8.9,1.5-13.3,2.3c-0.3,0-0.7,0-0.7,0.3
			c-0.1,0.6,0,1.2,0.3,1.7c0.2,0.4,0.7,0.2,1.1,0.2c3.2-0.3,6.3-0.6,9.5-0.9c2.5-0.2,5-0.4,7.5-0.7C60.9,43.8,61.6,43.1,61.6,42z"/>
		<path d="M45.2,59.7c0.8-0.1,1-0.6,0.9-1.2c-0.2-1.4,0.4-2.4,1.3-3.3c0.3-0.3,0.6-0.5,0.9-0.1c0.3,0.3,0.8,0.6,0.2,1.1
			c-0.8,0.7-1,1.5-0.9,2.6c0.1,0.9-0.2,1.6-1.1,2C46,61,45.8,61.4,45.8,62c-0.1,1-0.5,1.7-1.3,2.2c-0.3,0.2-0.7,0.5-1.1,0
			c-0.2-0.3-0.3,0.1-0.4,0.1c-0.2,0.2-0.5,0.5-0.7,0.1c-0.2-0.3-0.8-0.7-0.3-1.2c0.6-0.6,0.8-1.2,0.6-2.1c-0.2-0.8,0.2-1.5,0.9-2
			c0.5-0.4,0.7-0.8,0.4-1.4c-0.1-0.2-0.1-0.4-0.1-0.6c0-0.4-0.2-0.9,0.3-0.9c0.5,0,1.1-0.1,1.2,0.7C45.3,57.9,45.8,58.7,45.2,59.7z"
			/>
		<path d="M34.5,59.6c0.2-0.5,0.4-1.1,0.4-1.7c0.1-0.8,0.7-0.6,1.2-0.6c0.6,0,0.3,0.5,0.3,0.8c0,0.2,0,0.3-0.1,0.5
			c-0.4,0.8-0.2,1.3,0.6,1.7c0.6,0.4,0.8,1.1,0.7,1.8c-0.2,0.8,0,1.5,0.5,2c0.4,0.5,0.3,0.8-0.1,1.1c-0.4,0.4-0.7,0.3-1.1-0.1
			c-0.3-0.3-0.8-0.5-1.2-0.8c-0.8-0.6-1.5-1.3-1.4-2.5c0-0.4-0.2-0.6-0.5-0.8c-1.1-0.5-1.5-1.4-1.3-2.5c0.2-0.9-0.3-1.4-0.9-2
			c-0.3-0.3-0.6-0.6,0-1.1c0.4-0.4,0.7-0.5,1.2,0c0.9,1,1.5,2,1.3,3.4C34.2,59.2,34.1,59.5,34.5,59.6z"/>
		<path d="M92.3,57.2c0-0.2,0-0.4,0.2-0.5c0.8-0.5,0.9-1.3,1-2.1c0.1-0.7,0.5-1.3,1.1-1.6c0.6-0.3,0.7-0.6,0.6-1.2
			c-0.2-1.2,0.4-2.6,1.5-3.3c0.5-0.3,0.7,0.2,1,0.4c0.3,0.2,0.3,0.5,0,0.7c-0.8,0.7-1.1,1.5-0.9,2.7c0.2,0.8-0.3,1.6-1.1,1.9
			c-0.5,0.2-0.7,0.6-0.7,1.1c-0.1,1-0.6,1.8-1.4,2.4c-0.3,0.2-0.6,0.5-0.9,0.3C92.3,57.9,92.4,57.4,92.3,57.2z"/>
		<path d="M78.6,52.9c0.1-0.6-0.2-1.3-0.8-1.9c-0.4-0.4-0.4-0.6,0-1c0.4-0.3,0.7-0.6,1.1,0c0.7,0.9,1.3,1.9,1.1,3
			c-0.1,0.6,0.1,1,0.7,1.3c0.8,0.4,1.1,1.1,1.1,1.9c0,0.5,0.2,0.9,0.5,1.3c0.1,0.1,0.2,0.2,0.3,0.3c0.2,0.5,0.2,1-0.1,1.3
			c-0.3,0.4-0.7,0-1-0.3c-0.7-0.7-1.3-1.4-1.3-2.5c0-0.3-0.1-0.6-0.4-0.7C78.8,55.1,78.5,54.2,78.6,52.9z"/>
		<path d="M93.8,51.5c-0.1,0.6-0.2,1.2-0.8,1.6c-0.5,0.3-0.6,0.8-0.6,1.3c0,1.2-0.3,2.2-1.2,3c-0.4,0.4-0.7,0.2-1-0.1
			c-0.3-0.3-0.6-0.6-0.1-1c0.6-0.5,0.8-1.2,0.7-2.1c-0.1-0.8,0.1-1.6,0.9-2.1c0.5-0.3,0.5-0.7,0.3-1.1c-0.1-0.2-0.2-0.4-0.2-0.6
			c-0.1-0.4-0.3-0.9,0.3-1c0.5-0.1,1.1-0.1,1.3,0.7C93.6,50.5,93.8,51,93.8,51.5z"/>
		<path d="M82.3,55.3c0.2-0.5-0.1-1-0.7-1.3c-0.7-0.5-0.9-1.2-0.7-2.1c0.1-0.3,0.2-0.7,0.3-1c0.1-0.7,0.7-0.6,1.2-0.6
			c0.6,0,0.4,0.5,0.4,0.8c0,0.2,0,0.3-0.1,0.5c-0.4,0.7-0.1,1.2,0.5,1.6c0.7,0.4,0.9,1.2,0.8,1.9c-0.1,0.7,0,1.3,0.6,1.8
			c0.5,0.4,0.2,0.7-0.1,1.1c-0.4,0.4-0.6,0.4-1,0C82.7,57.3,82.2,56.5,82.3,55.3z"/>
	</g>
</g>
</svg>
