<?xml version="1.0" encoding="utf-8"?>
<!-- Generator: Adobe Illustrator 28.0.0, SVG Export Plug-In . SVG Version: 6.00 Build 0)  -->
<svg version="1.1" id="Layer_1" xmlns="http://www.w3.org/2000/svg" xmlns:xlink="http://www.w3.org/1999/xlink" x="0px" y="0px"
	 viewBox="0 0 128 128" style="enable-background:new 0 0 128 128;" xml:space="preserve">
<g id="AMLp2w.tif">
	<g>
		<path d="M99.6,22.7c-1.3,0-2.6,1.2-2.5,2.6c0,1.4,1.1,2.5,2.6,2.5c1.4,0,2.5-1.1,2.5-2.5C102.1,23.9,101,22.7,99.6,22.7z
			 M99.6,22.7c-1.3,0-2.6,1.2-2.5,2.6c0,1.4,1.1,2.5,2.6,2.5c1.4,0,2.5-1.1,2.5-2.5C102.1,23.9,101,22.7,99.6,22.7z M56.3,80.5
			c3.9-3.6,5.4-8,4.7-13.5c-0.3-2.6-1.9-3.6-4.2-2.4c-1.6,0.8-3.2,1.1-4.9,1.3c-2.7,0.3-5.5,0.1-8.2,0.4c-8.2,1.1-13.4,7.9-12.1,16
			c1.1,6.8,8,12,14.9,11.3c6.1-0.6,9.5-4.5,12.2-9.4c0.1-0.2,0.1-0.6,0.2-0.9C58.9,81.5,57.8,80.8,56.3,80.5z M50.4,77.7
			c-1.2,0.3-2.3,0.7-2.6,2c-0.3,1.3,0.3,2.3,1.4,3.1c0.8,0.6,1.6,1.2,2.5,1.6c0.6,0.3,0.6,0.4,0.2,0.9c-2.3,2.8-5.3,3.9-8.8,3
			c-3.6-0.9-5.9-3.3-6.6-6.9c-1-5.2,2.5-9.6,7.8-10.2c2.9-0.3,5.9,0.1,8.8-0.4c0.9-0.2,1.8-0.3,2.8-0.4C56.1,73.7,53.7,77,50.4,77.7
			z M99.6,22.7c-1.3,0-2.6,1.2-2.5,2.6c0,1.4,1.1,2.5,2.6,2.5c1.4,0,2.5-1.1,2.5-2.5C102.1,23.9,101,22.7,99.6,22.7z M99.6,22.7
			c-1.3,0-2.6,1.2-2.5,2.6c0,1.4,1.1,2.5,2.6,2.5c1.4,0,2.5-1.1,2.5-2.5C102.1,23.9,101,22.7,99.6,22.7z M56.3,80.5
			c3.9-3.6,5.4-8,4.7-13.5c-0.3-2.6-1.9-3.6-4.2-2.4c-1.6,0.8-3.2,1.1-4.9,1.3c-2.7,0.3-5.5,0.1-8.2,0.4c-8.2,1.1-13.4,7.9-12.1,16
			c1.1,6.8,8,12,14.9,11.3c6.1-0.6,9.5-4.5,12.2-9.4c0.1-0.2,0.1-0.6,0.2-0.9C58.9,81.5,57.8,80.8,56.3,80.5z M50.4,77.7
			c-1.2,0.3-2.3,0.7-2.6,2c-0.3,1.3,0.3,2.3,1.4,3.1c0.8,0.6,1.6,1.2,2.5,1.6c0.6,0.3,0.6,0.4,0.2,0.9c-2.3,2.8-5.3,3.9-8.8,3
			c-3.6-0.9-5.9-3.3-6.6-6.9c-1-5.2,2.5-9.6,7.8-10.2c2.9-0.3,5.9,0.1,8.8-0.4c0.9-0.2,1.8-0.3,2.8-0.4C56.1,73.7,53.7,77,50.4,77.7
			z M126.4,39.6c-4-4-8.1-8.1-12.1-12.1c-0.6-0.6-0.9-1.2-0.8-2.1c0.2-10.4-11-17.3-20.2-12.4c-1.3,0.7-1.9,0.5-2.8-0.5
			c-5-5.6-11.2-8.8-18.8-9.4c-7.5-0.5-14.2,1.3-19.9,6.2c-3.6,3.1-6.9,6.6-10.2,10.1c-0.9,0.9-1.4,1.1-2.2,0
			c-0.2-0.3-0.6-0.6-0.9-0.9c-1.1-0.8-2.5-0.7-3.4,0.2c-0.9,1-1,2.3-0.1,3.4c0.5,0.7,1.8,1.2,1.6,2c-0.1,0.7-1.2,1.3-1.8,2
			c-1.4,1.4-1.4,1.4-2.8,0c-1.4-1.4-2.6-1.4-4-0.2C21,31.7,14.2,37.4,7.3,43.1c-1.8,1.5-1.9,2.9-0.1,4.6c3.2,3.2,6.4,6.4,9.6,9.6
			c1.7,1.7,3.1,1.7,4.7-0.2c5.3-6.4,10.6-12.7,15.9-19.1c2.7-3.2,2.7-3.3-0.1-6.4c-0.4-0.4-0.3-0.6,0-1c0.9-0.8,1.7-1.7,2.6-2.6
			c0.3-0.3,0.5-0.4,0.9,0c2.6,2.7,5.3,5.3,8,7.9c0.4,0.4,0.4,0.6,0,1c-0.7,0.6-1.3,1.3-2,1.9C33.9,51.9,21,64.8,8.2,77.7
			c-0.7,0.7-1.1,0.8-1.8,0c-0.7-0.8-1.7-1-2.7-0.5c-1.7,0.8-2,2.7-0.7,4.2c0.3,0.4,0.9,0.6,0.3,1.3c-4.6,5.7-4.3,12.5,0.9,17.6
			c6.8,6.8,13.7,13.7,20.5,20.5c1.6,1.6,3.5,2.8,5.6,3.5c0.7,0.2,1.5,0.1,2.1,0.6h0.5c0.6-0.2,1.2-0.2,1.8,0H35
			c0.1-0.3,0.3-0.2,0.5-0.2c2.5-0.3,4.6-1.3,6.5-2.9c0.6-0.5,0.8-0.5,1.4,0c1.2,1.2,2.7,1.3,3.8,0.2c1.1-1,1-2.5-0.2-3.7
			c-0.6-0.6-0.5-0.9,0.1-1.4c13.5-13.5,27-26.9,40.4-40.4c0.6-0.6,0.9-0.7,1.6,0c1.5,1.5,3.8,0.9,4.3-1.1c0.3-1.2-0.3-2.1-1.2-2.8
			c-0.6-0.5-0.7-0.9-0.2-1.6c6.1-9.9,5.4-22-1.6-31.4c-0.3-0.4-0.9-0.8-0.2-1.2c0.7-0.4,0.8-2,2.3-1.1c2.2,1.4,4.6,2,7.1,1.9
			c1,0,1.2,0.4,1.4,1.1c0.9,3.4,1.8,6.8,2.7,10.2c0.5,1.8,1.7,2.6,3.1,2.2c1.6-0.5,2.2-1.7,1.7-3.6c-0.9-3.4-1.8-6.8-2.7-10.2
			c-0.1-0.5-0.5-1,0.3-1.3c2.3-1.2,4.1-3,5.5-5.3c0.3,0.3,0.7,0.6,0.9,0.9c3.5,3.5,7,7,10.5,10.5c1.9,1.9,3.2,1.8,4.9-0.3v-1.7
			C127.5,40.8,127,40.2,126.4,39.6z M32.8,35.8c-4,4.7-7.9,9.5-11.9,14.2c-0.6,0.7-1.1,2.1-2,2c-0.7,0-1.4-1.2-2-1.9
			c-1.5-1.5-3.1-3-4.7-4.6c5.7-4.7,11.3-9.4,16.9-14.1c0.5-0.4,0.7-0.4,1.1,0.1c0.8,0.9,1.7,1.8,2.6,2.5
			C33.4,34.7,33.3,35.1,32.8,35.8z M44.7,24.8c-0.5-0.5-0.7-0.7-0.1-1.3c3.2-3.1,6.3-6.4,9.6-9.5c4.3-4.1,9.4-5.8,15.3-5.9
			c6.4,0,12,2.3,16.4,7c0.7,0.7,1.7,1.3,2,2.2c0.3,0.9-0.7,1.7-1.1,2.6c-1.6,4.2-1.5,8.4,0.9,12.3c0.9,1.5-0.5,1.6-1,2.3
			c-0.5,0.8-1,0.2-1.4-0.2c-9-6.9-21.4-7.6-31.1-1.7c-0.9,0.6-1.4,0.4-2-0.3C49.7,29.9,47.2,27.3,44.7,24.8z M38.2,118.4
			c-1.3,0.9-2.7,1.4-4.3,1.3c-2.1,0-3.8-0.6-5.3-2.1c-7.2-7.2-14.4-14.3-21.5-21.6c-2.6-2.6-2.8-6.7-0.6-9.6
			c0.5-0.7,0.8-0.8,1.5-0.1c6.3,6.4,12.6,12.7,19,19c3.8,3.8,7.6,7.6,11.4,11.4C39.2,117.6,39,117.9,38.2,118.4z M84,72.8
			c-13.5,13.5-27,26.9-40.5,40.4c-0.5,0.5-0.7,0.9-1.4,0.1c-10.2-10.3-20.5-20.5-30.7-30.8c-0.2-0.2-0.3-0.4-0.5-0.6
			c8.9-8.9,17.8-17.8,26.7-26.7c4.8-4.8,9.7-9.6,14.5-14.5c0.6-0.6,0.9-0.7,1.5,0C63.7,51,73.9,61.2,84,71.3
			C84.7,72,84.6,72.3,84,72.8z M87.9,67.9C77.6,57.6,67.3,47.3,57,37c7-4.7,18.5-4.7,26.7,2.6C91.6,46.7,93.4,58.8,87.9,67.9z
			 M99.7,34c-4.9,0-8.8-3.7-8.9-8.7c-0.1-4.8,3.9-8.8,8.8-8.8c4.8,0,8.7,3.9,8.7,8.7C108.3,30.1,104.5,34,99.7,34z M99.6,22.7
			c-1.3,0-2.6,1.2-2.5,2.6c0,1.4,1.1,2.5,2.6,2.5c1.4,0,2.5-1.1,2.5-2.5C102.1,23.9,101,22.7,99.6,22.7z M61,66.9
			c-0.3-2.6-1.9-3.6-4.2-2.4c-1.6,0.8-3.2,1.1-4.9,1.3c-2.7,0.3-5.5,0.1-8.2,0.4c-8.2,1.1-13.4,7.9-12.1,16c1.1,6.8,8,12,14.9,11.3
			c6.1-0.6,9.5-4.5,12.2-9.4c0.1-0.2,0.1-0.6,0.2-0.9c0.1-1.7-1-2.4-2.5-2.8C60.3,76.9,61.7,72.5,61,66.9z M50.4,77.7
			c-1.2,0.3-2.3,0.7-2.6,2c-0.3,1.3,0.3,2.3,1.4,3.1c0.8,0.6,1.6,1.2,2.5,1.6c0.6,0.3,0.6,0.4,0.2,0.9c-2.3,2.8-5.3,3.9-8.8,3
			c-3.6-0.9-5.9-3.3-6.6-6.9c-1-5.2,2.5-9.6,7.8-10.2c2.9-0.3,5.9,0.1,8.8-0.4c0.9-0.2,1.8-0.3,2.8-0.4C56.1,73.7,53.7,77,50.4,77.7
			z M56.3,80.5c3.9-3.6,5.4-8,4.7-13.5c-0.3-2.6-1.9-3.6-4.2-2.4c-1.6,0.8-3.2,1.1-4.9,1.3c-2.7,0.3-5.5,0.1-8.2,0.4
			c-8.2,1.1-13.4,7.9-12.1,16c1.1,6.8,8,12,14.9,11.3c6.1-0.6,9.5-4.5,12.2-9.4c0.1-0.2,0.1-0.6,0.2-0.9
			C58.9,81.5,57.8,80.8,56.3,80.5z M50.4,77.7c-1.2,0.3-2.3,0.7-2.6,2c-0.3,1.3,0.3,2.3,1.4,3.1c0.8,0.6,1.6,1.2,2.5,1.6
			c0.6,0.3,0.6,0.4,0.2,0.9c-2.3,2.8-5.3,3.9-8.8,3c-3.6-0.9-5.9-3.3-6.6-6.9c-1-5.2,2.5-9.6,7.8-10.2c2.9-0.3,5.9,0.1,8.8-0.4
			c0.9-0.2,1.8-0.3,2.8-0.4C56.1,73.7,53.7,77,50.4,77.7z M99.6,22.7c-1.3,0-2.6,1.2-2.5,2.6c0,1.4,1.1,2.5,2.6,2.5
			c1.4,0,2.5-1.1,2.5-2.5C102.1,23.9,101,22.7,99.6,22.7z M99.6,22.7c-1.3,0-2.6,1.2-2.5,2.6c0,1.4,1.1,2.5,2.6,2.5
			c1.4,0,2.5-1.1,2.5-2.5C102.1,23.9,101,22.7,99.6,22.7z M56.3,80.5c3.9-3.6,5.4-8,4.7-13.5c-0.3-2.6-1.9-3.6-4.2-2.4
			c-1.6,0.8-3.2,1.1-4.9,1.3c-2.7,0.3-5.5,0.1-8.2,0.4c-8.2,1.1-13.4,7.9-12.1,16c1.1,6.8,8,12,14.9,11.3c6.1-0.6,9.5-4.5,12.2-9.4
			c0.1-0.2,0.1-0.6,0.2-0.9C58.9,81.5,57.8,80.8,56.3,80.5z M50.4,77.7c-1.2,0.3-2.3,0.7-2.6,2c-0.3,1.3,0.3,2.3,1.4,3.1
			c0.8,0.6,1.6,1.2,2.5,1.6c0.6,0.3,0.6,0.4,0.2,0.9c-2.3,2.8-5.3,3.9-8.8,3c-3.6-0.9-5.9-3.3-6.6-6.9c-1-5.2,2.5-9.6,7.8-10.2
			c2.9-0.3,5.9,0.1,8.8-0.4c0.9-0.2,1.8-0.3,2.8-0.4C56.1,73.7,53.7,77,50.4,77.7z M99.6,22.7c-1.3,0-2.6,1.2-2.5,2.6
			c0,1.4,1.1,2.5,2.6,2.5c1.4,0,2.5-1.1,2.5-2.5C102.1,23.9,101,22.7,99.6,22.7z M99.6,22.7c-1.3,0-2.6,1.2-2.5,2.6
			c0,1.4,1.1,2.5,2.6,2.5c1.4,0,2.5-1.1,2.5-2.5C102.1,23.9,101,22.7,99.6,22.7z"/>
		<path d="M32.8,124.9c0.6-0.4,1.2-0.4,1.7,0C34,124.9,33.4,124.9,32.8,124.9z"/>
		<path d="M56.3,80.5c3.9-3.6,5.4-8,4.7-13.5c-0.3-2.6-1.9-3.6-4.2-2.4c-1.6,0.8-3.2,1.1-4.9,1.3c-2.7,0.3-5.5,0.1-8.2,0.4
			c-8.2,1.1-13.4,7.9-12.1,16c1.1,6.8,8,12,14.9,11.3c6.1-0.6,9.5-4.5,12.2-9.4c0.1-0.2,0.1-0.6,0.2-0.9
			C58.9,81.5,57.8,80.8,56.3,80.5z M50.4,77.7c-1.2,0.3-2.3,0.7-2.6,2c-0.3,1.3,0.3,2.3,1.4,3.1c0.8,0.6,1.6,1.2,2.5,1.6
			c0.6,0.3,0.6,0.4,0.2,0.9c-2.3,2.8-5.3,3.9-8.8,3c-3.6-0.9-5.9-3.3-6.6-6.9c-1-5.2,2.5-9.6,7.8-10.2c2.9-0.3,5.9,0.1,8.8-0.4
			c0.9-0.2,1.8-0.3,2.8-0.4C56.1,73.7,53.7,77,50.4,77.7z"/>
		<path d="M102.1,25.3c0,1.4-1.1,2.5-2.5,2.5c-1.4,0-2.5-1.1-2.6-2.5c0-1.3,1.2-2.5,2.5-2.6C101,22.7,102.1,23.9,102.1,25.3z"/>
		<path d="M56.3,80.5c3.9-3.6,5.4-8,4.7-13.5c-0.3-2.6-1.9-3.6-4.2-2.4c-1.6,0.8-3.2,1.1-4.9,1.3c-2.7,0.3-5.5,0.1-8.2,0.4
			c-8.2,1.1-13.4,7.9-12.1,16c1.1,6.8,8,12,14.9,11.3c6.1-0.6,9.5-4.5,12.2-9.4c0.1-0.2,0.1-0.6,0.2-0.9
			C58.9,81.5,57.8,80.8,56.3,80.5z M50.4,77.7c-1.2,0.3-2.3,0.7-2.6,2c-0.3,1.3,0.3,2.3,1.4,3.1c0.8,0.6,1.6,1.2,2.5,1.6
			c0.6,0.3,0.6,0.4,0.2,0.9c-2.3,2.8-5.3,3.9-8.8,3c-3.6-0.9-5.9-3.3-6.6-6.9c-1-5.2,2.5-9.6,7.8-10.2c2.9-0.3,5.9,0.1,8.8-0.4
			c0.9-0.2,1.8-0.3,2.8-0.4C56.1,73.7,53.7,77,50.4,77.7z"/>
		<path d="M102.1,25.3c0,1.4-1.1,2.5-2.5,2.5c-1.4,0-2.5-1.1-2.6-2.5c0-1.3,1.2-2.5,2.5-2.6C101,22.7,102.1,23.9,102.1,25.3z"/>
	</g>
</g>
</svg>
