<?xml version="1.0" encoding="utf-8"?>
<!-- Generator: Adobe Illustrator 28.0.0, SVG Export Plug-In . SVG Version: 6.00 Build 0)  -->
<svg version="1.1" id="Layer_1" xmlns="http://www.w3.org/2000/svg" xmlns:xlink="http://www.w3.org/1999/xlink" x="0px" y="0px"
	 viewBox="0 0 128 128" style="enable-background:new 0 0 128 128;" xml:space="preserve">
<path d="M64.2,0c0,0.4,0.4,0.5,0.6,0.7c20.8,20.8,41.7,41.7,62.5,62.5c0.6,0.6,0.6,0.9,0,1.5c-20.9,20.8-41.7,41.7-62.5,62.6
	c-0.6,0.6-0.8,0.6-1.4,0C42.5,106.4,21.6,85.6,0.8,64.7c-0.6-0.6-0.6-0.9,0-1.5C21.6,42.4,42.4,21.6,63.3,0.7
	c0.2-0.2,0.6-0.4,0.6-0.7C63.9,0,64.1,0,64.2,0z M117.7,64c-0.2-0.2-0.4-0.4-0.6-0.6c-17.5-17.5-35-35-52.5-52.6
	c-0.5-0.5-0.7-0.5-1.2,0c-17.5,17.5-35,35-52.5,52.5c-0.6,0.6-0.5,0.8,0,1.4c17.5,17.5,35,34.9,52.4,52.4c0.6,0.6,0.8,0.5,1.4,0
	c17.5-17.5,34.9-35,52.4-52.5c0.1-0.1,0.3-0.3,0.4-0.4C117.6,64.2,117.6,64.1,117.7,64z"/>
<path d="M49.6,57.4c-1.1-1.4-1.5-3-1.2-4.7c0.4-2.1,0.1-3.9-1.3-5.7c-1.1-1.3-1.6-3-1.8-4.7c-0.1-1.1,0.1-2,0.8-2.9
	c0.5-0.6,1-1.2,1.6-1.8c2-1.8,3.9-3.7,5.9-5.5c5.9-5.4,14.8-5.6,21-0.5c2.4,2,4.8,4.1,7.1,6.3c2.3,2.2,2.9,3.3,1.5,7.1
	c-0.6,1.5-1.5,2.8-2.4,4.1c-0.3,0.4-0.3,0.7-0.2,1.1c0.2,1.1,0.4,2.3,0.4,3.5c0,1.4-0.4,2.7-1.4,3.8c-0.1,0.1-0.4,0.2-0.3,0.5
	c0.2,0.1,0.4,0,0.5-0.1c0.7-0.3,1.5-0.7,2.2-1c2.2-0.8,3.7-2.3,4.9-4.2c0.8-1.3,2.1-2.1,3.6-2.4c2.1-0.4,3.5,0.6,3.8,2.7
	c0.1,0.6,0.3,1.1,0.8,1.5c0.7,0.6,1.2,1.4,1.3,2.4c0.1,0.8,0.1,1.7,0,2.5c-0.3,1.9-1.7,2.8-3.5,2.4c-0.9-0.2-1.6-0.6-2.4-1
	c-1.2-0.6-2.3-0.5-3.4,0c-3.5,1.8-7.1,3.6-10.6,5.4c-0.2,0.1-0.6,0.2-0.5,0.5c0,0.3,0.3,0.3,0.5,0.4c3.1,1.5,6.1,2.9,9.2,4.4
	c0.8,0.4,1.6,0.3,2.5,0c1.2-0.4,2.4-0.9,3.7-0.9c1.4,0,2.7,0.4,3.8,1.4c1.5,1.3,1.4,3.4-0.3,4.5c-0.7,0.4-1.4,0.8-2.1,1.1
	c-0.5,0.2-0.7,0.5-0.8,1c-0.1,0.5-0.2,1.1-0.3,1.6c-0.4,2-2.4,3.2-4.4,2.6c-1.7-0.5-2.9-1.6-3.2-3.5c-0.3-1.5-1.1-2.6-2.5-3.3
	c-3.1-1.5-6.2-3-9.2-4.5c-0.3-0.2-0.6-0.1-0.9,0.1c-1.6,1.1-3.3,1.9-5,2.6c-1.1,0.5-2.2,0.5-3.3,0.1c-2-0.6-3.9-1.3-5.6-2.5
	c-0.3-0.2-0.5-0.2-0.8,0c-3,1.4-5.9,2.8-8.9,4.2c-1.5,0.7-2.1,2-2.5,3.5c-0.5,2.3-3,3.9-5.1,3.2c-1.3-0.4-2.3-1.3-2.4-2.7
	c-0.1-1.6-0.7-2.7-2.3-3.1c-0.8-0.3-1.6-0.8-2-1.7c-0.5-1.1-0.1-2.4,0.9-3.2c1.7-1.4,3.6-1.6,5.6-1.1c0.1,0,0.2,0.1,0.2,0.1
	c3.7,1.2,2.8,1.1,6.2-0.5c2.1-1,4.2-2,6.2-3c0.2-0.1,0.8-0.1,0.6-0.6c-0.1-0.4-0.1-0.9-0.6-1.2c-2.4-1.2-4.7-2.4-7-3.6
	c-0.9-0.5-1.8-0.9-2.8-1.4c-1.1-0.5-2.2-0.6-3.4,0c-0.8,0.4-1.6,0.8-2.6,1c-1.8,0.4-3.3-0.7-3.4-2.5c-0.1-1.1-0.4-2.3,0.2-3.3
	c0.9-1.5,1.8-2.9,2.4-4.5c0.5-1.3,2-1.6,3.7-1.1c1.1,0.3,2,0.9,2.7,1.8c0.1,0.1,0.2,0.2,0.3,0.4c1.4,2.5,3.7,3.9,6.3,4.9
	c0.1,0.1,0.2,0.1,0.3,0C49.8,57.5,49.7,57.4,49.6,57.4z M81.1,44.6c1.2-1.7,1.1-3.4-0.3-4.8c-2.1-2.1-4.5-4-6.7-6.1
	c-3.1-2.9-6.8-4.1-11.1-3.6c-3.1,0.4-5.9,1.3-8.2,3.5c-1.9,1.8-3.8,3.5-5.6,5.3c-0.6,0.5-1.1,1.1-1.6,1.8c-0.2,0.3-0.4,0.6-0.4,1
	c0,1.4,0.5,2.6,1.2,3.8c-0.3-2.5,0.4-4.6,2.3-6.2c0.5-0.4,0.9-0.8,1.5-0.2c0.6,0.6,0.6,0.9-0.1,1.5c-1.6,1.4-2.1,3.2-1.5,5.2
	c0.6,2.1,0.6,4.2,0.3,6.4c-0.6,3.4-0.1,4.3,2.7,5.9c1.2,0.7,2.4,1.5,3.6,2.1c1.6,0.9,2.5,2.1,2.2,4c-0.1,0.5,0.1,0.9,0.6,1.2
	c2.7,2.1,6.2,2.3,9.1,0.5c0.9-0.5,1.4-1.1,1.3-2.2c-0.2-1.5,0.5-2.6,1.8-3.3c1.4-0.8,2.7-1.7,4.1-2.5c2.3-1.2,3.2-3,2.8-5.6
	c0-0.2,0-0.4-0.1-0.6c-0.5-1.9-0.5-3.8,0.1-5.7c0.1-0.2,0.1-0.4,0.1-0.6c0.4-1.7,0.1-3.2-1.2-4.4c-0.8-0.7-0.7-0.8,0-1.5
	c0.1-0.1,0.1-0.1,0.2-0.2c0.3-0.4,0.5-0.3,0.8,0c1.3,1.4,2.4,2.9,2.2,5C81,44.4,81.1,44.5,81.1,44.6c-0.1,0-0.1,0.1-0.1,0.1
	c0,0,0,0.1,0.1,0.1C81.1,44.7,81.1,44.6,81.1,44.6z M55.2,61.2c0,1.3,0.1,2.5,0,3.7c-0.1,1.2,0.4,2.3,1.1,3.2
	c1.2,1.6,2.8,2.6,4.6,3.5c2.7,1.3,5.2,1.5,7.9-0.1c1.6-1,3.2-2,4.4-3.6c0.4-0.6,0.8-1.2,0.9-1.9c0.1-1.5,0-3,0-4.6
	c-1.3,0.5-2.2,1.2-1.9,2.7c0.2,1.3-0.6,2.2-1.6,2.9c-3.5,2.4-7.1,2.5-10.7,0.5c-1.6-0.9-2.7-2-2.3-4c0.1-0.4,0-0.8-0.4-1.1
	C56.4,62,55.9,61.6,55.2,61.2z M73.7,70.2c2.8,1.4,5.6,2.7,8.3,4c2.3,1,3.8,2.6,4.2,5.2c0.2,1.4,2,2.2,3.2,1.6
	c0.6-0.4,0.7-1,0.8-1.6c0.3-1.5,0.6-3,0.9-4.5c0.1-0.6,0.5-1,1.1-0.8c0.6,0.1,0.9,0.6,0.8,1.2c0,0.1-0.1,0.3-0.1,0.4
	c0.4,0,0.7-0.2,0.9-0.4c0.9-0.5,1-1.2,0.1-1.8c-0.9-0.6-1.9-0.9-3-0.7c-0.9,0.1-1.8,0.5-2.6,0.8c-1.2,0.4-2.4,0.4-3.6-0.1
	c-2.8-1.3-5.6-2.7-8.4-4C74.8,68.7,74.8,68.7,73.7,70.2z M37,75.6c0-0.1,0-0.2,0-0.2c-0.1-0.9,0.1-1.4,0.7-1.5
	c0.8-0.1,1,0.4,1.1,1.1c0.3,1.6,0.6,3.2,1,4.8c0.2,1,0.9,1.5,1.9,1.3c0.9-0.1,1.9-1,2-1.9c0.4-2.4,1.7-4,3.9-5
	c2.7-1.2,5.4-2.5,8.1-3.8c-0.1-0.4-0.5-0.6-0.7-0.9c-0.3-0.6-0.7-0.6-1.2-0.3c-2.8,1.4-5.7,2.7-8.6,4.1c-0.6,0.3-1.1,0.4-1.7,0.4
	c-1.3,0.1-2.4-0.5-3.5-0.9c-1.4-0.4-2.7-0.4-4,0.5c-0.8,0.6-0.8,1.2,0.1,1.8C36.4,75.3,36.7,75.5,37,75.6z M94.4,57.4
	c-0.4,0.7-0.8,1-1.4,0.8c-0.6-0.2-0.6-0.8-0.6-1.3c0-1,0-2.1,0-3.1c-0.1-1.4-0.8-1.8-2.2-1.4c-0.7,0.2-1.2,0.7-1.7,1.2
	c-0.2,0.3-0.4,0.5-0.6,0.8c-1.2,1.8-2.7,3.2-4.8,4.1c-1.9,0.8-3.8,1.9-5.8,2.6c-1.3,0.5-1.8,1.2-1.6,2.6c0.1,0.7,0.2,0.8,0.8,0.5
	c3-1.6,6-3.1,9-4.6c1.9-1,3.8-1.1,5.7,0c0.5,0.3,1,0.5,1.6,0.7c0.9,0.3,1.3-0.1,1.4-1C94.4,58.6,94.4,58.1,94.4,57.4z M35.6,57.3
	c0,0.6,0,1,0,1.5c0,0.1,0,0.2,0,0.2c0.1,1,0.5,1.3,1.4,1c0.6-0.2,1.2-0.4,1.7-0.7c1.8-1,3.6-0.9,5.4,0.1c2.5,1.3,5,2.5,7.5,3.8
	c1.7,0.9,1.7,0.8,1.7-1c0-0.6-0.2-0.8-0.7-1c-2.2-1-4.3-2-6.5-3c-1.4-0.6-2.6-1.6-3.5-2.9c-0.4-0.5-0.8-1.1-1.2-1.6
	c-0.6-0.8-1.3-1.3-2.3-1.4c-1-0.1-1.3,0.1-1.5,1.1c-0.3,1.2-0.1,2.3-0.1,3.5c0,0.5,0,1.1-0.6,1.3C36.3,58.3,35.9,58,35.6,57.3z
	 M79,58.2c0-0.1,0-0.1-0.1-0.1c-0.1,0-0.2,0-0.2,0.1c-0.1,0.1,0,0.1,0.1,0.1C78.9,58.3,79,58.3,79,58.2z"/>
<path d="M81.1,44.6c0,0.1,0,0.2-0.1,0.2c0,0-0.1-0.1-0.1-0.1C81,44.6,81,44.5,81.1,44.6C81.1,44.6,81.1,44.6,81.1,44.6z"/>
<path d="M49.6,57.4c0.1,0.1,0.2,0.1,0.1,0.2c-0.1,0.1-0.2,0.1-0.3,0C49.5,57.5,49.5,57.4,49.6,57.4z"/>
<path d="M79,58.2c-0.1,0-0.1,0.1-0.2,0c0,0-0.2,0-0.1-0.1c0,0,0.1-0.1,0.2-0.1C79,58.1,79,58.2,79,58.2z"/>
<path d="M56.8,55.7c-1,0-1.8-0.3-2.5-1c-1-0.9-1.6-2.1-1.9-3.5c-0.2-1.2,0.4-1.9,1.6-1.9c1.8,0,3.5,0,5.3,0c0.1,0,0.3,0,0.4,0
	c1.9,0.2,2.5,1.3,1.5,3c-0.5,0.9-1.1,1.7-1.8,2.4C58.6,55.4,57.8,55.7,56.8,55.7z"/>
<path d="M72.5,49.3c1,0,1.9,0,2.9,0c0.8,0,1.3,0.5,1.4,1.2c0.3,2.4-2.3,5.3-4.7,5.2c-0.6,0-1.1-0.2-1.5-0.5c-1.4-1-2.3-2.3-3-3.9
	c-0.2-0.6,0-1.1,0.5-1.4c0.6-0.4,1.3-0.6,2.1-0.6C70.9,49.3,71.7,49.3,72.5,49.3z"/>
<path d="M67.2,63.4c-0.4,0-0.8-0.1-1.1-0.3c-0.6-0.4-1.3-0.4-1.9,0c-0.2,0.1-0.4,0.2-0.7,0.2c-0.7,0-1.5,0.1-1.9-0.6
	c-0.4-0.7-0.1-1.4,0.3-2c0.5-0.6,0.6-1.4,0.9-2.1c0.2-0.7,0.5-1.3,1-1.8c0.9-0.9,2-0.9,2.8,0.1c0.6,0.7,0.9,1.6,1.2,2.5
	c0.2,0.5,0.4,1.1,0.7,1.5c0.4,0.5,0.6,1,0.3,1.6C68.3,63.2,67.8,63.4,67.2,63.4z"/>
</svg>
