<?xml version="1.0" encoding="utf-8"?>
<!-- Generator: Adobe Illustrator 28.0.0, SVG Export Plug-In . SVG Version: 6.00 Build 0)  -->
<svg version="1.1" id="Layer_1" xmlns="http://www.w3.org/2000/svg" xmlns:xlink="http://www.w3.org/1999/xlink" x="0px" y="0px"
	 viewBox="0 0 128 128" style="enable-background:new 0 0 128 128;" xml:space="preserve">
<g id="l1OJmq.tif">
	<g>
		<path d="M128,51.8c0.1-5-3.8-10-9.9-9.8c-5.6,0.2-11.2,0-16.9,0.1c-1.1,0-1.4-0.3-1.4-1.4c0-9.9,0-19.7,0-29.6
			c0-2.6-1.5-4.3-4-4.8c-0.5-0.2-1-0.1-1.5-0.1c-20.6,0-41.2,0-61.9,0c0,0-0.1,0-0.1,0c-2.7,0.1-4.3,1.6-4.4,4.4c0,0.5,0,0.9,0,1.4
			c0,8.9,0,17.9,0,26.8c0,3.1,0.2,2.9-2.9,2.9c-5.2,0-10.3,0.2-15.5-0.1c-4.3-0.2-9.3,2.9-9.7,7.9v49.2c0.1,0.2,0.2,0.4,0.2,0.6
			c1,4,4.4,6.9,8.5,6.9c5.2,0.1,10.3,0,15.5,0.1c0.7,0,0.8-0.3,0.8-0.9c0-2.8,0-5.6,0-8.4c0-2.8,1.5-4.3,4.3-4.3H98
			c3.1,0,4.9,1.8,4.9,5c0,2.5,0,5.1,0,7.6c0,0.9,0.3,1,1,1c4.8,0,9.7,0,14.5,0c5.7,0,9.5-3.9,9.5-9.6
			C127.9,81.7,127.8,66.8,128,51.8z M95.6,39.4c0,0.9-0.2,1.2-1.2,1.2c-10.1,0-20.2,0-30.4,0c-10,0-20.1,0-30.1,0
			c-0.9,0-1.2-0.2-1.2-1.2c0-9.2,0-18.4,0-27.6c0-0.9,0.2-1.2,1.2-1.2c20.2,0,40.3,0,60.5,0c0.9,0,1.2,0.2,1.2,1.2
			C95.5,20.9,95.5,30.2,95.6,39.4z M123.6,96.5c0,3.5-2,5.5-5.5,5.5c-3.3,0-6.7,0-10,0c-0.8,0-0.9-0.2-1-1c0-2,0.3-4.1-0.2-6.1
			c-0.9-3.6-3.9-6.2-7.6-6.5c-0.6,0-1.2-0.1-1.7-0.1c-22.6,0-45.2,0-67.8,0c-4.3,0-7.3,1.9-8.5,5.4c-0.3,0.8-0.5,1.6-0.5,2.4
			c0,1.7,0,3.3,0,5c0,0.5,0,0.9-0.7,0.8c-3.7,0-7.4,0.1-11.1-0.1c-2.8-0.1-4.6-2.3-4.6-5.3c0-5.2,0-10.5,0-15.7c0-9.6,0-19.2,0-28.9
			c0-3.9,1.9-5.8,5.8-5.8H64c18,0,36.1,0,54.1,0c3.6,0,5.6,1.9,5.6,5.5C123.6,66.7,123.6,81.6,123.6,96.5z M116.7,51.3
			c-1.9,0-3.8,0-5.7,0c-2,0-3.9,0-5.9,0c-2.1,0-3.2,1.1-3.2,3.3c0,2.6,1,3.9,3.1,3.9c3.9,0,7.9,0,11.8,0c1.9,0,3-1.2,3-3.1
			c0-0.3,0-0.6,0-0.9C119.9,52.4,118.9,51.3,116.7,51.3z"/>
		<path d="M105.9,110.4c-4.5-4.5-9-9-13.5-13.5c-0.9-0.9-2-1.4-3.4-1.4c-16.7,0-33.4,0-50.1,0c-1.4,0-2.6,0.5-3.6,1.5
			c-4.5,4.5-8.9,8.9-13.4,13.4c-0.5,0.5-0.9,1-1,1.7c-0.5,2.2,0.9,4,3.3,4c5.1,0,10.2,0,15.2,0h24.2v0.1h0.8c12.8,0,25.6,0,38.3,0
			c0.3,0,0.7,0,1,0c1.4-0.1,2.5-0.7,3-2.1C107.3,112.7,107,111.4,105.9,110.4z M27.1,111.7c-0.2-0.4,0.2-0.5,0.4-0.6
			c3.5-3.6,7.1-7.1,10.7-10.7c0.4-0.5,0.9-0.6,1.5-0.6c16.2,0,32.4,0,48.6,0c0.6,0,1,0.1,1.4,0.5c3.7,3.7,7.3,7.4,11,11.1
			c0.1,0.1,0.1,0.2,0.2,0.3H27.1z"/>
		<path d="M64,117.5c13.2,0,26.3,0,39.5,0c1.6,0,2.5,0.7,2.5,2.1c0,1.2-0.7,2.1-1.9,2.2c-0.4,0-0.8,0-1.2,0c-12.7,0-25.4,0-38.1,0
			c-13.4,0-26.7,0-40.1,0c-1.8,0-2.7-0.7-2.7-2.2c0-1.1,0.8-1.9,1.9-2.1c0.2,0,0.4,0,0.6,0C37.7,117.5,50.8,117.5,64,117.5
			C64,117.5,64,117.5,64,117.5z"/>
		<path d="M119.9,54.5c0,0.3,0,0.6,0,0.9c0,1.8-1.2,3.1-3,3.1c-3.9,0-7.9,0-11.8,0c-2.1,0-3.1-1.3-3.1-3.9c0-2.1,1.1-3.3,3.2-3.3
			c2,0,3.9,0,5.9,0c1.9,0,3.8,0,5.7,0C118.9,51.3,119.9,52.4,119.9,54.5z"/>
		<path d="M119.9,54.5c0,0.3,0,0.6,0,0.9c0,1.8-1.2,3.1-3,3.1c-3.9,0-7.9,0-11.8,0c-2.1,0-3.1-1.3-3.1-3.9c0-2.1,1.1-3.3,3.2-3.3
			c2,0,3.9,0,5.9,0c1.9,0,3.8,0,5.7,0C118.9,51.3,119.9,52.4,119.9,54.5z"/>
	</g>
</g>
</svg>
