<?xml version="1.0" encoding="utf-8"?>
<!-- Generator: Adobe Illustrator 28.0.0, SVG Export Plug-In . SVG Version: 6.00 Build 0)  -->
<svg version="1.1" id="Layer_1" xmlns="http://www.w3.org/2000/svg" xmlns:xlink="http://www.w3.org/1999/xlink" x="0px" y="0px"
	 viewBox="0 0 128 128" style="enable-background:new 0 0 128 128;" xml:space="preserve">
<g id="hR0Mqk.tif">
	<g>
		<path d="M127.2,78.8c-1.7-7.4-4.8-14.3-8.4-20.9c-9.9-18.2-22.1-34.7-35-50.8c-0.8-0.9-1-0.5-1.5,0.1c-7,8.7-13.6,17.6-19.9,26.7
			C55,44.7,48,55.7,42.7,67.7c-2,4.5-3.7,9-4.2,13.9c-0.7,7.6,0.9,14.8,4.4,21.6c10.5,20.5,35,29.9,56.7,21.4
			c15.1-5.9,24.4-16.9,27.6-33c0.3-1.6,0.2-3.3,0.8-4.9v-3.9C127.4,81.6,127.5,80.2,127.2,78.8z M114.9,89.1
			c-0.9,5.7-3.2,10.6-7.7,14.2c-4.5,3.7-9.7,5.5-15.7,4.5c-0.4-0.1-1-0.1-1.1-0.5c-0.2-0.4,0.4-0.6,0.6-0.9c3-3.2,6.6-5.9,9.2-9.6
			c4.2-5.9,6.4-12.6,7.1-19.8c0.2-1.9,0.3-3.8,0.2-5.7c0.2-0.4-0.1-0.9,0.3-1.3c3.9,2.3,5.4,6.2,6.9,10.1
			C116,83.2,115.3,86.1,114.9,89.1z"/>
		<path d="M0,58c0-4.5,1.3-8.6,3-12.7c4.4-10.5,10.6-20,17-29.4c3.5-5.1,7.3-10.1,11.1-15c0.6-0.8,0.9-1,1.7-0.1
			C39,9,45,17.4,50.5,26.2c0.6,0.9,0.6,1.5,0,2.4c-6.9,10-13.1,20.3-18.1,31.3c-2.8,6.2-5.2,12.6-6.3,19.3c-0.4,2.8-0.5,5.6-0.4,8.4
			c0,1.1-0.4,1.2-1.3,1C11.7,85.2,4,77,0.8,64.5C0.2,62.4,0,60.2,0,58z"/>
		<path d="M107.6,71.3c-0.1-0.2-0.1-0.5-0.2-0.8c0-0.2,0.1-0.4,0.5-0.5C107.5,70.4,107.8,71,107.6,71.3z"/>
		<path d="M107.6,71.3c-0.1-0.2-0.1-0.5-0.2-0.8c-0.1-0.2-0.1-0.3-0.1-0.5c0.1-0.5,0.3-0.2,0.6,0C107.5,70.4,107.8,71,107.6,71.3z"
			/>
	</g>
</g>
</svg>
