<?xml version="1.0" encoding="utf-8"?>
<!-- Generator: Adobe Illustrator 28.0.0, SVG Export Plug-In . SVG Version: 6.00 Build 0)  -->
<svg version="1.1" id="Layer_1" xmlns="http://www.w3.org/2000/svg" xmlns:xlink="http://www.w3.org/1999/xlink" x="0px" y="0px"
	 viewBox="0 0 128 128" style="enable-background:new 0 0 128 128;" xml:space="preserve">
<g id="uLilCZ.tif">
	<g>
		<path d="M60,83.5c-1.1-0.3-1.4-0.7-1.4-1.8c0-9.6,0-19.2,0-28.8c0-9.6,0-19.2,0-28.8c0-1.4-0.4-1.7-1.7-1.6
			c-1.1,0.1-2.3,0.1-3.5,0c-1.5-0.2-2,0.3-2,1.9c0.1,19.1,0,38.1,0.1,57.2c0,1.2-0.4,1.7-1.5,2C43,85.7,38,91.9,37.6,99
			c-0.8,12.4,10.3,20.5,20.3,18.8c8.2-1.4,14.7-8.7,14.8-17C72.8,92.7,67.8,85.8,60,83.5z M53.6,92.7c-1.5,0.5-2.9,1.1-4,2.2
			c-1.3,1.4-2,3.1-2.1,5c-0.1,2.4-1.5,3.8-3.6,3.7c-2-0.1-3.3-1.6-3.3-3.8c0-6.3,5-12.4,11-13.7c0.3-0.1,0.7-0.1,0.9-0.1
			c1.8,0,3.2,1.1,3.5,2.7C56.3,90.6,55.4,92.1,53.6,92.7z"/>
		<path d="M70.4,77.4c-1-0.6-1.3-1.3-1.3-2.4c0-20,0-39.9,0-59.9c0-1.3-0.1-2.5-0.3-3.7C67.6,4.1,60-1.2,52.8,0.2
			c-7.2,1.4-11.7,6.9-11.7,14.3c0,20.2,0,40.4,0,60.7c0,0.9-0.1,1.5-1,2.1c-12.4,7.9-16.4,24.5-8.7,37.2
			c4.6,7.6,11.3,12.1,20.2,13.3c0.5,0.3,1.1-0.1,1.5,0.3h0.6c0.8-0.3,1.6-0.3,2.4,0h0.6c0.6-0.4,1.3,0.1,1.8-0.3
			c0.7-0.1,1.4-0.2,2.1-0.3c10.9-2.1,19.4-10.9,21.6-22.2C84.3,94.7,79.5,83.3,70.4,77.4z M59.6,122c-12.4,2.4-24-5.4-26.3-17.9
			c-1.7-9.2,3-18.8,11.6-23.3c1.4-0.7,1.7-1.5,1.7-3c0-21,0-41.9,0-62.9c0-4.6,2.2-7.8,6-9c5-1.6,10.4,1.9,10.8,7.2
			c0.2,2.9,0.1,5.7,0.1,8.6c0,8.2,0,16.4,0,24.6c0,10.6,0,21.1,0,31.7c0,1.5,0.5,2.2,1.7,2.8C73,85,76.9,91.5,77.2,100.2
			C77.5,110.5,69.7,120,59.6,122z"/>
		<path d="M100.5,69.4c-6.6,0-13.1-0.1-19.7,0c-1.1,0-1.5-0.3-1.4-1.4c0.2-1.4-0.6-3.2,0.3-4c0.8-0.7,2.6-0.2,3.9-0.2
			c5.6,0,11.2,0,16.9-0.1C100.5,65.6,100.5,67.5,100.5,69.4z"/>
		<path d="M100.5,21.8c-6.7,0-13.3,0-20,0c-1,0-1.2-0.3-1.1-1.2c0.1-1.4-0.4-3.2,0.3-4c0.7-0.8,2.6-0.2,4-0.2c5.6,0,11.2,0,16.8,0
			C100.5,18.1,100.5,19.9,100.5,21.8z"/>
		<path d="M100.5,45.6c-6.6,0-13.1,0-19.7,0c-1.1,0-1.5-0.2-1.4-1.4c0.1-1.3-0.4-3.1,0.3-3.9c0.7-0.8,2.5-0.2,3.9-0.2
			c5.1,0,10.2,0,15.3,0c0.5,0,1.1,0.1,1.6,0.1C100.5,42,100.5,43.8,100.5,45.6z"/>
		<path d="M53.8,128c0.8-0.5,1.6-0.5,2.4,0C55.4,128,54.6,128,53.8,128z"/>
		<path d="M56.8,128c0.6-0.5,1.2-0.3,1.8-0.3c0,0.1-0.1,0.1-0.1,0.2c0,0,0,0.1,0,0.1C58,128,57.4,128,56.8,128z"/>
		<path d="M51.6,127.7c0.5-0.1,1.1-0.2,1.5,0.3c-0.5,0-1,0-1.5,0C51.7,127.9,51.7,127.8,51.6,127.7z"/>
		<path d="M85.3,33.8c-1.7,0-3.3,0-5,0c-0.6,0-1-0.1-1-0.9c0.1-1.3,0-2.6,0-3.9c0-0.7,0.2-0.9,0.9-0.9c3.5,0,7,0,10.5,0
			c0.7,0,1,0.2,0.9,0.9c0,0,0,0.1,0,0.2c-0.1,1.4,0.6,3.3-0.2,4.2c-0.8,0.9-2.6,0.2-4,0.3C86.7,33.8,86,33.8,85.3,33.8z"/>
		<path d="M85.6,57.4c-1.8,0-3.5,0-5.3,0c-0.7,0-1-0.2-0.9-0.9c0.1-1.3,0.1-2.5,0-3.8c0-0.7,0.2-0.8,0.9-0.8c3.5,0,7,0,10.5,0
			c0.7,0,1,0.2,1,0.9c-0.1,1.2-0.1,2.4,0,3.6c0,0.8-0.3,1-1,1C89,57.4,87.3,57.4,85.6,57.4z"/>
		<path d="M60,83.5c-1.1-0.3-1.4-0.7-1.4-1.8c0-9.6,0-19.2,0-28.8c0-9.6,0-19.2,0-28.8c0-1.4-0.4-1.7-1.7-1.6
			c-1.1,0.1-2.3,0.1-3.5,0c-1.5-0.2-2,0.3-2,1.9c0.1,19.1,0,38.1,0.1,57.2c0,1.2-0.4,1.7-1.5,2C43,85.7,38,91.9,37.6,99
			c-0.8,12.4,10.3,20.5,20.3,18.8c8.2-1.4,14.7-8.7,14.8-17C72.8,92.7,67.8,85.8,60,83.5z M53.6,92.7c-1.5,0.5-2.9,1.1-4,2.2
			c-1.3,1.4-2,3.1-2.1,5c-0.1,2.4-1.5,3.8-3.6,3.7c-2-0.1-3.3-1.6-3.3-3.8c0-6.3,5-12.4,11-13.7c0.3-0.1,0.7-0.1,0.9-0.1
			c1.8,0,3.2,1.1,3.5,2.7C56.3,90.6,55.4,92.1,53.6,92.7z"/>
		<path d="M60,83.5c-1.1-0.3-1.4-0.7-1.4-1.8c0-9.6,0-19.2,0-28.8c0-9.6,0-19.2,0-28.8c0-1.4-0.4-1.7-1.7-1.6
			c-1.1,0.1-2.3,0.1-3.5,0c-1.5-0.2-2,0.3-2,1.9c0.1,19.1,0,38.1,0.1,57.2c0,1.2-0.4,1.7-1.5,2C43,85.7,38,91.9,37.6,99
			c-0.8,12.4,10.3,20.5,20.3,18.8c8.2-1.4,14.7-8.7,14.8-17C72.8,92.7,67.8,85.8,60,83.5z M53.6,92.7c-1.5,0.5-2.9,1.1-4,2.2
			c-1.3,1.4-2,3.1-2.1,5c-0.1,2.4-1.5,3.8-3.6,3.7c-2-0.1-3.3-1.6-3.3-3.8c0-6.3,5-12.4,11-13.7c0.3-0.1,0.7-0.1,0.9-0.1
			c1.8,0,3.2,1.1,3.5,2.7C56.3,90.6,55.4,92.1,53.6,92.7z"/>
	</g>
</g>
</svg>
