<?xml version="1.0" encoding="utf-8"?>
<!-- Generator: Adobe Illustrator 28.0.0, SVG Export Plug-In . SVG Version: 6.00 Build 0)  -->
<svg version="1.1" id="Layer_1" xmlns="http://www.w3.org/2000/svg" xmlns:xlink="http://www.w3.org/1999/xlink" x="0px" y="0px"
	 viewBox="0 0 128 128" style="enable-background:new 0 0 128 128;" xml:space="preserve">
<g>
	<path d="M64.3,73.9c-0.5,0-1,0-1.5-0.2c-2-0.4-3.7-1.6-4.9-3.3c-1.1-1.7-1.5-3.7-1.1-5.8c0.8-4.1,4.9-6.8,9-6c4.1,0.8,6.8,4.9,6,9
		v0C71.1,71.4,67.9,73.9,64.3,73.9z M64.3,62.2c-1.9,0-3.6,1.3-4,3.3c-0.2,1.1,0,2.2,0.6,3.1c0.6,0.9,1.5,1.5,2.6,1.7
		c2.2,0.5,4.4-1,4.8-3.2c0.4-2.2-1-4.4-3.2-4.8C64.8,62.2,64.6,62.2,64.3,62.2z"/>
	<path d="M116.7,36.9c-0.5,0-1-0.1-1.6-0.2c-3.5-0.7-6.1-3.9-6.1-7.5c0-0.5,0.1-1,0.2-1.6c0.4-2,1.6-3.7,3.3-4.8
		c1.7-1.1,3.7-1.5,5.7-1.1c4.1,0.8,6.8,4.9,6,9l0,0c-0.6,3.1-3.2,5.5-6.3,6C117.4,36.9,117.1,36.9,116.7,36.9z M116.6,25.2
		c-0.8,0-1.6,0.2-2.2,0.7c-0.9,0.6-1.5,1.5-1.8,2.6c-0.1,0.3-0.1,0.5-0.1,0.8c0,1.9,1.4,3.6,3.3,4c0.5,0.1,1,0.1,1.5,0
		c1.7-0.3,3-1.5,3.3-3.2l0,0c0.4-2.2-1-4.4-3.2-4.8C117.2,25.2,116.9,25.2,116.6,25.2z"/>
	<path d="M10.9,15.9c-0.5,0-1-0.1-1.6-0.2c-2-0.4-3.7-1.6-4.8-3.3c-1.1-1.7-1.5-3.7-1.1-5.7S5,3,6.7,1.9c1.7-1.1,3.7-1.5,5.7-1.1
		c3.2,0.6,5.7,3.4,6.1,6.7c0.1,0.8,0,1.6-0.1,2.3c-0.2,1-0.6,2-1.2,2.8C15.9,14.6,13.5,15.9,10.9,15.9z M10.9,4.2
		c-0.8,0-1.6,0.2-2.2,0.7C7.8,5.5,7.2,6.4,7,7.5c-0.2,1.1,0,2.2,0.6,3.1c0.6,0.9,1.5,1.5,2.6,1.7c0.3,0.1,0.6,0.1,0.8,0.1
		c1.3,0,2.6-0.7,3.4-1.8c0.3-0.4,0.5-0.9,0.6-1.4l0,0C15,8.7,15.1,8.3,15,7.9c-0.2-1.8-1.5-3.2-3.2-3.6C11.5,4.2,11.2,4.2,10.9,4.2z
		"/>
	<path d="M88.5,15.3c-0.5,0-1-0.1-1.6-0.2c-0.4-0.1-0.8-0.2-1.2-0.3c-2.9-1.1-4.9-4-4.9-7.2c0-0.5,0.1-1,0.2-1.6
		c0.4-2,1.6-3.7,3.3-4.8C86,0.1,88-0.3,90,0.2c2,0.4,3.7,1.6,4.8,3.3C96,5.1,96.4,7.2,96,9.2c-0.2,1-0.6,1.9-1.1,2.7
		C93.4,14.1,91,15.3,88.5,15.3z M88.5,3.6c-0.8,0-1.6,0.2-2.2,0.7c-0.9,0.6-1.5,1.5-1.7,2.6c-0.1,0.3-0.1,0.6-0.1,0.8
		c0,1.7,1.1,3.2,2.6,3.8c0.2,0.1,0.4,0.1,0.6,0.2c1.6,0.3,3.3-0.4,4.2-1.7c0.3-0.4,0.5-0.9,0.6-1.4l0,0c0.2-1.1,0-2.2-0.6-3.1
		c-0.6-0.9-1.5-1.5-2.6-1.7C89,3.6,88.8,3.6,88.5,3.6z"/>
	<path d="M117.2,128c-0.5,0-1-0.1-1.5-0.2c-3-0.6-5.4-3-6-6.1c-0.2-1-0.2-2,0-2.9c0.3-1.3,0.8-2.4,1.6-3.3c1.5-1.9,3.9-3,6.5-2.8
		c0.4,0,0.7,0.1,1.1,0.2c4,0.8,6.7,4.9,5.9,9l0,0C123.9,125.5,120.7,128,117.2,128z M117.2,116.3c-1.2,0-2.4,0.6-3.2,1.5
		c-0.4,0.5-0.7,1.1-0.8,1.7c-0.1,0.5-0.1,1.1,0,1.6c0.3,1.6,1.6,2.9,3.2,3.2c2.2,0.4,4.4-1,4.8-3.2c0.4-2.2-1-4.4-3.2-4.8
		c-0.2-0.1-0.4-0.1-0.6-0.1C117.3,116.3,117.2,116.3,117.2,116.3z"/>
	<path d="M40.7,128c-0.5,0-1,0-1.5-0.2c-2-0.4-3.7-1.6-4.9-3.3c-1.1-1.7-1.5-3.7-1.1-5.7c0.1-0.7,0.4-1.4,0.7-2.1
		c1.6-3,5-4.6,8.3-3.9l0.4,0.1c3.8,0.9,6.3,4.7,5.6,8.6l-0.1,0.4C47.4,125.5,44.2,128,40.7,128z M40.7,116.2c-1.4,0-2.8,0.8-3.6,2.2
		c-0.2,0.4-0.3,0.7-0.4,1.1c-0.2,1.1,0,2.2,0.6,3.1c0.6,0.9,1.5,1.5,2.6,1.7c1.1,0.2,2.2,0,3.1-0.6c0.9-0.6,1.5-1.4,1.7-2.4l0.1-0.3
		c0.4-2.1-1-4.1-3.1-4.6l-0.3-0.1C41.1,116.3,40.9,116.2,40.7,116.2z"/>
	<path d="M89,107c-0.6,0-1.1-0.1-1.7-0.2c-3.3-0.7-5.9-3.3-6.4-6.6c-0.2-1-0.2-2.1,0-3.1c0.5-2.5,2.2-4.7,4.5-5.8
		c1.6-0.8,3.4-1,5.2-0.7c4.5,0.9,7.3,5.3,6.4,9.7l0,0c0,0,0,0,0,0l0,0c-0.4,1.9-1.4,3.6-2.9,4.8C92.7,106.4,90.9,107,89,107z
		 M89,95.3c-0.5,0-1.1,0.1-1.5,0.4c-1,0.5-1.7,1.3-1.9,2.4c-0.1,0.5-0.1,0.9,0,1.4c0.2,1.4,1.3,2.5,2.7,2.8c1,0.2,2.1,0,2.9-0.7
		c0.6-0.5,1.1-1.2,1.2-2c0,0,0,0,0,0c0.4-1.9-0.8-3.7-2.7-4.1C89.5,95.3,89.2,95.3,89,95.3z"/>
	<g>
		<path d="M111.4,123.8H46.5c-0.7,0-1.4-0.3-1.8-0.9c-0.5-0.5-0.6-1.3-0.5-2c0.3-1.8-0.8-3.6-2.6-4c-1.1-0.3-1.8-1.2-1.8-2.3V34.8
			c0-1,0.7-1.9,1.6-2.3c1.2-0.4,2.1-1.4,2.3-2.6c0.1-0.3,0.1-0.5,0.1-0.7c0-1.3,1.1-2.4,2.4-2.4h64.7c1.3,0,2.4,1.1,2.4,2.4
			c0,1.7,1.2,3.1,2.8,3.4c0.4,0.1,0.8,0.1,1.3,0c0.7-0.1,1.4,0.1,1.9,0.6c0.5,0.5,0.8,1.1,0.8,1.8v79.5c0,0.7-0.3,1.3-0.8,1.7
			c-0.5,0.4-1.1,0.7-1.8,0.6c-1.1-0.1-2.3,0.4-3,1.3c-0.4,0.5-0.6,0.9-0.7,1.5c-0.1,0.5-0.1,0.9,0,1.4c0.1,0.7-0.1,1.4-0.5,1.9
			C112.8,123.5,112.1,123.8,111.4,123.8z M48.9,119.1H109c0-0.1,0-0.2,0.1-0.3c0.3-1.3,0.9-2.6,1.7-3.6c1.1-1.4,2.7-2.4,4.4-2.8v-75
			c-0.1,0-0.1,0-0.2,0c-3-0.6-5.4-2.9-6.2-5.7H48.1c-0.6,2-1.9,3.7-3.7,4.7V113C46.8,114.2,48.5,116.5,48.9,119.1z"/>
	</g>
	<g>
		<path d="M83.2,102.2H17.3c-0.7,0-1.3-0.3-1.7-0.8c-0.4-0.5-0.7-1.1-0.6-1.8c0.1-1.8-1.1-3.3-2.8-3.7c-0.3-0.1-0.7-0.1-1-0.1
			c-0.7,0.1-1.3-0.2-1.8-0.6s-0.8-1.1-0.8-1.7V14.1c0-1.3,1.1-2.4,2.4-2.4c1.1,0,2.3-0.6,2.9-1.6c0.3-0.4,0.5-0.8,0.5-1.2
			c0,0,0,0,0,0c0.1-0.3,0.1-0.7,0-1c-0.1-0.7,0.1-1.3,0.6-1.9c0.5-0.5,1.1-0.8,1.8-0.8h65.8c1.3,0,2.4,1.1,2.4,2.4
			c0,1.5,0.9,2.8,2.2,3.3c0.9,0.3,1.6,1.2,1.6,2.2v80.3c0,0.9-0.5,1.8-1.4,2.2c-1,0.5-1.6,1.3-1.9,2.4c-0.1,0.5-0.1,0.9,0,1.4
			c0.1,0.7-0.1,1.4-0.5,2C84.6,101.9,83.9,102.2,83.2,102.2z M19.5,97.5h61.4c0-0.1,0-0.2,0.1-0.3c0.4-2,1.5-3.8,3.1-5V14.6
			c-1.7-1.1-2.9-2.7-3.5-4.6H19c-0.2,1-0.7,2-1.3,2.9c-1,1.5-2.6,2.7-4.4,3.3v75.2C16.4,92.1,18.7,94.5,19.5,97.5z"/>
	</g>
	<path d="M11.5,107.6c-0.6,0-1.1-0.1-1.7-0.2c-2.2-0.4-4-1.7-5.2-3.5c-1.2-1.8-1.6-4-1.2-6.2c0.7-3.5,3.7-6.3,7.4-6.6
		c0.8-0.1,1.5,0,2.3,0.1c4.1,0.8,6.9,4.6,6.6,8.7c0,0,0,0,0,0c0,0.3-0.1,0.6-0.1,0.9c-0.4,1.9-1.4,3.6-2.9,4.8
		C15.2,107,13.3,107.6,11.5,107.6z M11.4,95.9c-0.1,0-0.2,0-0.2,0C9.6,96,8.3,97.2,8,98.7c-0.2,0.9,0,1.9,0.5,2.6
		c0.5,0.8,1.3,1.3,2.2,1.5c1,0.2,2.1-0.1,2.9-0.7c0.6-0.5,1-1.2,1.2-2c0-0.1,0.1-0.3,0.1-0.4c0.1-1.7-1.1-3.3-2.8-3.7
		C11.9,95.9,11.6,95.9,11.4,95.9z M17.3,99.9L17.3,99.9L17.3,99.9z"/>
	<path d="M40.2,37.5c-0.6,0-1.1-0.1-1.6-0.2c-4.5-0.9-7.3-5.3-6.4-9.7c0.3-1.6,1.1-3,2.2-4.2c2-2,4.8-2.8,7.5-2.2
		c3.8,0.8,6.6,4.2,6.6,8.1c0,0.6-0.1,1.2-0.2,1.7c-0.6,2.9-2.6,5.2-5.5,6.1C42,37.3,41.1,37.5,40.2,37.5z M40.2,25.8
		c-0.9,0-1.8,0.4-2.5,1c-0.5,0.5-0.8,1.1-0.9,1.8c-0.4,1.9,0.8,3.7,2.7,4.1c0.6,0.1,1.2,0.1,1.8-0.1c1.2-0.4,2-1.4,2.3-2.6
		c0.1-0.3,0.1-0.5,0.1-0.7c0-1.6-1.2-3.1-2.8-3.4C40.7,25.8,40.5,25.8,40.2,25.8z"/>
	<path d="M34.9,26.7c-0.5,0-0.9-0.1-1.3-0.4l-19-12.8c-1.1-0.7-1.4-2.2-0.7-3.3c0.7-1.1,2.2-1.4,3.3-0.7l19,12.8
		c1.1,0.7,1.4,2.2,0.7,3.3C36.4,26.3,35.6,26.7,34.9,26.7z"/>
	<path d="M112.7,26.3c-0.5,0-0.9-0.1-1.3-0.4L93,13.6c-1.1-0.7-1.4-2.2-0.7-3.3c0.7-1.1,2.2-1.4,3.3-0.7L114,21.9
		c1.1,0.7,1.4,2.2,0.7,3.3C114.2,25.9,113.5,26.3,112.7,26.3z"/>
	<path d="M34.9,119.5c-0.5,0-1-0.2-1.5-0.5l-17.5-13.7c-1-0.8-1.2-2.3-0.4-3.3c0.8-1,2.3-1.2,3.3-0.4l17.5,13.7
		c1,0.8,1.2,2.3,0.4,3.3C36.3,119.2,35.6,119.5,34.9,119.5z"/>
	<path d="M111.8,118.5c-0.5,0-1-0.1-1.4-0.4l-18.6-13.4c-1.1-0.8-1.3-2.3-0.5-3.3c0.8-1.1,2.3-1.3,3.3-0.5l18.6,13.4
		c1.1,0.8,1.3,2.3,0.5,3.3C113.3,118.2,112.6,118.5,111.8,118.5z"/>
</g>
</svg>
