<?xml version="1.0" encoding="utf-8"?>
<!-- Generator: Adobe Illustrator 28.0.0, SVG Export Plug-In . SVG Version: 6.00 Build 0)  -->
<svg version="1.1" id="Layer_1" xmlns="http://www.w3.org/2000/svg" xmlns:xlink="http://www.w3.org/1999/xlink" x="0px" y="0px"
	 viewBox="0 0 128 128" style="enable-background:new 0 0 128 128;" xml:space="preserve">
<g id="HXPfJe.tif">
	<g>
		<path d="M126.1,100.1c-10.3-10.3-20.5-20.6-30.8-30.8c-0.4-0.4-0.7-0.7-1.1-1c-1.5-1.1-3.4-1.1-4.9,0c-0.8,0.5-1.2,1.9-2.1,1.6
			c-0.8-0.2-1.4-1.3-2.1-1.9c-0.1-0.1-0.2-0.2-0.3-0.3c-0.7-0.5-0.6-0.8,0-1.4c4.7-4.7,9.4-9.5,14.2-14.1c3.3-3.1,3.4-5.4,0-8.4
			c-1.7-1.5-1.6-1.6-0.1-3.3c0.2-0.2,0.4-0.4,0.6-0.7c2.2-2.6,2.4-6.6,0.5-9.5c-1.9-2.9-5.6-4.3-8.9-3.4c-1.9,0.5-3.3,1.7-4.6,3.1
			c-0.4,0.5-0.7,0.5-1.2,0c-0.6-0.7-1.2-1.2-1.8-1.9c-2.4-2.4-4.4-2.4-6.8,0C71.5,33.4,66.3,38.5,61,43.8c-0.8-0.8-1.5-1.6-2.3-2.3
			c-0.9-0.7-0.7-1.1,0-1.8c2.5-2.4,2.5-4.5,0.1-6.9C48.5,22.5,38.2,12.2,27.9,1.8c-2.5-2.5-4.4-2.5-6.9,0c-6.3,6.3-12.7,12.7-19,19
			c-0.8,0.8-1.5,1.6-2,2.7v2c0.2,1,0.7,1.8,1.4,2.5c10.3,10.3,20.7,20.7,31,31c0.3,0.3,0.6,0.7,1,0.9c1.6,1.3,3.9,1.3,5.3,0
			c1.9-1.6,1.8-1.6,3.6,0.2c0.8,0.7,0.7,1.2,0,1.9c-2.1,2-4.2,4.1-6.2,6.2c-1.8,1.8-1.8,4.3,0,6.2c0.7,0.8,1.5,1.5,2.2,2.2
			c2,2,2,2,0,3.9c-1.2,1.2-1.2,1.2-2.7,0.3c-3.3-2-6.9-3.3-10.7-4.1c-3.8-0.8-7.6-0.8-11.4-0.3c-2.3,0.3-4.6,0.9-6.7,1.8
			C5,79.1,4.6,80.8,6,82.3c0.3,0.3,0.6,0.6,0.9,0.9c5.5,5.5,11,11,16.5,16.5c0.7,0.7,0.8,1.2,0,1.9c-2.9,2.8-5.8,5.8-8.7,8.6
			c-0.5,0.5-1.1,0.8-1.9,0.8c-1.3,0-2.5,0.5-3.4,1.6c-1.2,1.5-1.3,3.5-0.3,5c1,1.6,2.9,2.3,4.7,1.9c1.8-0.5,3.2-2.2,3.2-4.2
			c0-0.9,0.3-1.6,1-2.2c2.8-2.7,5.5-5.5,8.2-8.2c1.2-1.2,1.2-1.2,2.4,0c5.5,5.5,11,11,16.5,16.5c0.4,0.4,0.7,0.7,1.1,1
			c1,0.8,2.2,0.6,3-0.4c0.4-0.4,0.5-0.9,0.7-1.4c1.5-4.1,2.1-8.3,1.9-12.6c-0.2-5.1-1.5-9.9-4-14.4c-1.8-3.3-2.1-2.1,0.8-5.1
			c0.5-0.5,0.9-0.6,1.5,0c1.1,1.1,2.2,2.2,3.3,3.3c2,2,4.5,2,6.5,0c1.7-1.7,3.4-3.4,5.1-5.1c2.1-2.1,1.5-2.1,3.8,0
			c0.7,0.7,0.7,1.2,0,1.9c-0.7,0.6-1.3,1.2-1.6,2.2c-0.5,1.9,0.2,3.4,1.6,4.7c10.5,10.4,20.9,20.9,31.3,31.4
			c0.7,0.7,1.4,1.1,2.3,1.3h2.2c0.9-0.6,1.8-1.3,2.5-2.1c6.3-6.3,12.6-12.6,18.9-18.9C128.6,104.5,128.6,102.6,126.1,100.1z
			 M109.9,89.2c1.6,1.7,3.3,3.4,5,5c0.2,0.2,0.3,0.4,0.5,0.6c-0.2,0.2-0.4,0.4-0.5,0.6c-2.6,2.6-5.2,5.2-7.8,7.9
			c-0.4,0.4-0.7,0.6-1.2,0c-1.6-1.7-3.3-3.3-4.9-4.9c-0.4-0.4-0.6-0.7-0.1-1.2c2.7-2.6,5.3-5.3,7.9-7.9
			C109.2,88.8,109.4,88.7,109.9,89.2z M100.9,80.3c1.8,1.8,3.6,3.6,5.4,5.4c0.1,0.1,0.2,0.2,0.3,0.3c-0.2,0.2-0.3,0.4-0.5,0.6
			c-2.7,2.7-5.3,5.3-8,8c-0.4,0.4-0.6,0.4-1,0c-1.7-1.7-3.4-3.4-5.1-5.1c-0.4-0.4-0.4-0.6,0-1c2.7-2.7,5.4-5.4,8.1-8.1
			C100.4,80.1,100.6,79.9,100.9,80.3z M91.2,71.7c0.3-0.3,0.6-0.7,1.1-0.2c1.7,1.8,3.5,3.5,5.2,5.2c0.1,0.1,0.2,0.2,0.4,0.4
			c-0.2,0.2-0.3,0.4-0.5,0.6c-2.6,2.6-5.3,5.3-7.9,7.9c-0.5,0.5-0.7,0.4-1.1-0.1c-1.6-1.7-3.3-3.3-4.9-4.9c-0.5-0.4-0.5-0.7,0-1.2
			C85.9,77,88.5,74.4,91.2,71.7z M89.2,32.7c1.2-1.1,2.3-2.3,3.9-2.2c3.5,0,5.5,3.6,3.8,6.5c-0.1,0.1-0.2,0.3-0.3,0.4
			c-1.7,2.2-1.7,2.3-3.7,0.3c-1.3-1.3-2.5-2.6-3.8-3.8C88.7,33.4,88.7,33.2,89.2,32.7z M58.6,51.6c0.6-0.5,1.2-1.1,1.8-1.8
			c0.5-0.6,0.8-0.5,1.4,0c3.1,3.1,6.2,6.3,9.4,9.4c1.3,1.2,2.8,1.1,3.4-0.3c0.5-1,0-1.8-0.7-2.4c-3.1-3.1-6.1-6.1-9.2-9.2
			c-0.6-0.6-0.8-1-0.1-1.7c4.9-4.8,9.8-9.7,14.7-14.7c0.7-0.7,1-0.7,1.7,0c5.4,5.4,10.8,10.8,16.1,16.2c0.5,0.5,0.9,0.8,0.2,1.5
			C92,53.8,86.8,59,81.4,64.4c-0.5-0.6-0.8-1.2-1.4-1.6c-0.9-0.8-2-0.8-2.8-0.1c-0.7,0.8-0.7,1.8,0.1,2.7c0.4,0.6,1.5,0.9,1.3,1.6
			c-0.2,0.6-1,1.1-1.5,1.6c-1.4,1.4-1.4,1.4-2.8,0c-5.2-5.2-10.4-10.4-15.6-15.6C58,52.5,57.9,52.1,58.6,51.6z M57.8,46
			c0.1,0.1,0.3,0.3,0.5,0.5c-0.2,0.2-0.3,0.4-0.5,0.6c-0.8,0.8-1.7,1.6-2.5,2.5c-1.4,1.5-1.6,3.4-0.4,5.1c0.4,0.5,0.4,0.8-0.1,1.2
			c-0.2,0.2-0.4,0.4-0.6,0.6c-1,1-1.8,2.4-3.6,1c-1-0.8-2.5-0.3-3.6,0.5c-0.5,0.4-0.7,0.3-1.1-0.1c-0.8-0.9-2.2-1.7-2.3-2.6
			c-0.1-0.9,1.4-1.7,2.2-2.5c2.9-2.9,5.8-5.8,8.7-8.8c0.6-0.6,0.9-0.6,1.4,0C56.5,44.7,57.2,45.3,57.8,46z M51.3,30.6
			c1.7,1.7,3.4,3.4,5.1,5.1c0.1,0.1,0.3,0.3,0.4,0.5c-0.2,0.2-0.3,0.4-0.5,0.6c-2.6,2.6-5.3,5.3-7.9,7.9c-0.4,0.4-0.7,0.4-1.1,0
			c-1.7-1.7-3.3-3.4-5-5c-0.5-0.5-0.4-0.7,0.1-1.1c2.6-2.6,5.2-5.2,7.8-7.8C50.5,30.4,50.8,30.1,51.3,30.6z M42.5,21.8
			c1.7,1.7,3.5,3.5,5.2,5.2c0.1,0.1,0.2,0.2,0.4,0.4c-0.2,0.2-0.3,0.4-0.5,0.6c-2.6,2.6-5.3,5.3-7.9,7.9c-0.4,0.4-0.7,0.4-1.1,0
			c-1.7-1.7-3.4-3.4-5.1-5.1c-0.3-0.3-0.4-0.5,0-0.9c2.7-2.7,5.5-5.4,8.2-8.2C42,21.4,42.2,21.5,42.5,21.8z M33.6,13
			c1.7,1.8,3.5,3.5,5.3,5.3c0.1,0.1,0.2,0.2,0.3,0.4c-0.2,0.2-0.3,0.3-0.4,0.5c-2.7,2.7-5.4,5.3-8,8c-0.4,0.4-0.7,0.4-1.1,0
			c-1.7-1.7-3.3-3.4-5-5c-0.4-0.4-0.4-0.7,0-1.1c2.7-2.7,5.4-5.3,8-8C33,12.7,33.3,12.6,33.6,13z M15.9,12.3
			c2.7-2.7,5.4-5.4,8.1-8.1c0.1-0.1,0.3-0.3,0.4-0.4C24.7,4,24.9,4.2,25,4.4C26.7,6,28.3,7.7,30,9.3c0.5,0.5,0.4,0.7,0,1.2
			c-2.6,2.6-5.3,5.2-7.8,7.8c-0.4,0.4-0.7,0.5-1.2,0c-1.6-1.7-3.3-3.4-5-5C15.6,13,15.4,12.8,15.9,12.3z M9.3,30.1
			c-1.6-1.7-3.3-3.4-5-5c-0.5-0.5-0.5-0.7,0-1.2c2.6-2.6,5.2-5.2,7.9-7.8c0.3-0.3,0.6-0.7,1.1-0.1c1.7,1.8,3.5,3.5,5.2,5.2
			c0.1,0.1,0.2,0.2,0.3,0.3c0,0.3-0.3,0.5-0.4,0.6c-2.6,2.7-5.3,5.3-7.9,8C10,30.5,9.8,30.6,9.3,30.1z M18,38.8
			c-1.6-1.7-3.3-3.3-4.9-4.9c-0.5-0.5-0.4-0.7,0-1.2c2.6-2.6,5.2-5.2,7.9-7.9c0.3-0.3,0.5-0.7,1-0.2c1.7,1.8,3.5,3.5,5.3,5.3
			c0.1,0.1,0.2,0.3,0.3,0.4c-0.2,0.2-0.4,0.4-0.5,0.6c-2.6,2.6-5.3,5.2-7.8,7.9C18.7,39.3,18.5,39.3,18,38.8z M26.8,47.6
			c-1.7-1.7-3.3-3.4-5-5c-0.5-0.4-0.4-0.7,0-1.1c2.7-2.7,5.4-5.3,8-8c0.3-0.3,0.5-0.5,0.9-0.1c1.7,1.8,3.5,3.5,5.3,5.3
			c0.1,0.1,0.2,0.3,0.3,0.4c-0.2,0.2-0.3,0.4-0.5,0.6c-2.6,2.6-5.3,5.3-7.9,7.9C27.5,48.1,27.2,48.1,26.8,47.6z M36.8,56.3
			c-0.6,0.6-0.9,0.5-1.4,0c-1.6-1.6-3.1-3.2-4.8-4.8c-0.5-0.5-0.6-0.7,0-1.3c2.6-2.6,5.2-5.2,7.8-7.8c0.4-0.4,0.7-0.5,1.1,0
			c1.6,1.7,3.3,3.4,5,5c0.2,0.2,0.3,0.4,0.5,0.5c-0.2,0.2-0.4,0.4-0.6,0.6C42,51.1,39.4,53.7,36.8,56.3z M46.8,117
			C34.9,105,23,93.1,11.1,81.2c10.4-2.4,19.9-0.3,27.8,7.4C46.9,96.4,49.2,106.1,46.8,117z M46.1,85C46.1,85.1,46.1,85.1,46.1,85
			c-1.1,0.8-1.7,2.6-2.9,2.3c-1.1-0.3-1.9-1.8-3-2.9c0.9-0.9,1.9-1.8,2.9-2.7c0.4-0.4,0.6-0.2,0.9,0.1c0.7,0.7,1.4,1.5,2.2,2.2
			C46.6,84.4,46.5,84.7,46.1,85z M66.5,79.3c-3.1,3.1-6.2,6.1-9.3,9.3c-0.5,0.5-0.8,0.4-1.3,0C50.5,83,45,77.5,39.5,72
			c-0.4-0.4-0.6-0.7-0.1-1.3c3.1-3.1,6.2-6.2,9.3-9.3c0.2-0.2,0.4-0.3,0.5-0.5c0.4,0,0.6,0.3,0.8,0.5c5.5,5.5,11,11,16.5,16.5
			C66.9,78.5,67.1,78.8,66.5,79.3z M69.4,70.6c-0.8,0.8-1.6,1.7-2.3,2.5c-4.1-4.1-8.1-8.1-12-12c1-1,2-2.1,3.1-3.1
			c1,0.9,1.9,1.8,2.9,2.8c2.8,2.8,5.6,5.6,8.4,8.4C69.9,69.7,70,70,69.4,70.6z M70.6,80c0.8-1,0.4-2.5-0.5-3.6
			c-0.5-0.6-0.3-0.9,0.1-1.3c0.3-0.2,0.6-0.5,0.8-0.8c0.9-1.1,1.7-1.8,3.3-0.8c1.3,0.8,2.8,0.4,4-0.7c0.9-0.9,1.8-1.7,2.7-2.6
			c0.4-0.4,0.7-0.4,1.1,0c0.7,0.7,1.4,1.4,2.1,2.1c0.1,0.1,0.3,0.3,0.5,0.5c-0.2,0.2-0.3,0.4-0.5,0.5c-3.6,3.6-7.2,7.2-10.8,10.9
			c-0.4,0.4-0.7,0.4-1.1,0c-0.2-0.3-0.5-0.5-0.8-0.8C70.5,82.5,69.2,81.8,70.6,80z M77.6,97.5c-0.4,0.4-0.7,0.3-1-0.1
			c-1.7-1.7-3.3-3.4-5-5c-0.4-0.4-0.5-0.7,0-1.1c2.7-2.7,5.4-5.3,8-8c0.4-0.4,0.6-0.3,1,0c1.8,1.9,3.7,3.7,5.7,5.6
			C83.3,91.8,80.4,94.6,77.6,97.5z M85.3,106.1c-1.6-1.6-3.2-3.3-4.8-4.9c-0.4-0.4-0.6-0.7-0.1-1.2c2.7-2.6,5.3-5.3,7.9-7.9
			c0.2-0.2,0.4-0.3,0.6-0.5c0.2,0.2,0.4,0.4,0.6,0.5c1.6,1.6,3.3,3.3,5,4.9c0.5,0.5,0.4,0.7,0,1.1c-2.6,2.6-5.2,5.2-7.8,7.8
			C86,106.6,85.7,106.6,85.3,106.1z M94.1,115c-1.6-1.7-3.3-3.4-5-5c-0.4-0.4-0.4-0.6,0-1.1c2.7-2.6,5.3-5.3,7.9-7.9
			c0.3-0.3,0.5-0.7,1-0.2c1.7,1.8,3.5,3.5,5.3,5.3c0.1,0.1,0.2,0.2,0.3,0.4c-0.2,0.2-0.4,0.4-0.5,0.6c-2.6,2.6-5.2,5.2-7.8,7.9
			C94.9,115.3,94.6,115.5,94.1,115z M112.1,115.7c-2.7,2.7-5.4,5.4-8.1,8.1c-0.1,0.1-0.3,0.3-0.5,0.4c-0.2-0.2-0.4-0.3-0.6-0.5
			c-1.6-1.6-3.3-3.3-4.9-4.9c-0.5-0.4-0.5-0.7,0-1.2c2.6-2.6,5.2-5.2,7.8-7.8c0.4-0.4,0.6-0.6,1.2-0.1c1.6,1.7,3.3,3.4,5,5
			C112.3,115,112.6,115.2,112.1,115.7z M123.7,104.1c-2.7,2.7-5.4,5.3-8,8c-0.1,0.1-0.3,0.3-0.5,0.4c-0.2-0.2-0.3-0.3-0.5-0.4
			c-1.7-1.7-3.4-3.4-5.1-5.1c-0.5-0.5-0.3-0.7,0.1-1.1c2.7-2.6,5.3-5.3,7.9-7.9c0.4-0.4,0.6-0.5,1.1,0c1.6,1.7,3.3,3.4,5,5
			C124,103.4,124.2,103.6,123.7,104.1z"/>
	</g>
</g>
</svg>
