<?xml version="1.0" encoding="utf-8"?>
<!-- Generator: Adobe Illustrator 28.0.0, SVG Export Plug-In . SVG Version: 6.00 Build 0)  -->
<svg version="1.1" id="Layer_1" xmlns="http://www.w3.org/2000/svg" xmlns:xlink="http://www.w3.org/1999/xlink" x="0px" y="0px"
	 viewBox="0 0 128 128" style="enable-background:new 0 0 128 128;" xml:space="preserve">
<g>
	<path d="M53.4,44.2c0-1.3,1.2-2.5,2.5-2.5c1.4,0,2.6,1.1,2.6,2.5c0,1.4-1.2,2.5-2.5,2.5C54.6,46.7,53.4,45.6,53.4,44.2z"/>
	<path d="M64.2,91.5c-3.7,0-7.5,0-11.2,0c-1.3,0-2.3-1.7-1.6-2.8c1.9-3.3,3.9-6.7,5.8-10c1-1.8,0.7-3.2-1.2-4.1
		c-7.1-3.6-14.1-3.7-21.2,0c-2,1-2.3,2.3-1.2,4.3c1.9,3.3,3.8,6.5,5.6,9.8c0.7,1.3-0.2,2.9-1.7,2.9h-5.6c-1.9,0-3.8,0-5.7,0
		c-2.1,0-3.1,1-3,3c0.3,8,3.9,14.1,10.5,18.4c1.9,1.2,3.2,0.9,4.3-1.1c1.9-3.3,3.8-6.6,5.7-9.9c0.7-1.2,2.6-1.2,3.3,0
		c1.9,3.4,3.9,6.8,5.8,10.1c0.9,1.6,2.3,2,3.8,1.1c6.8-4.2,10.5-10.3,10.9-18.3C67.7,92.4,66.7,91.5,64.2,91.5z M39.3,78.7
		c-0.4-0.7,0-0.8,0.5-1c1.8-0.5,3.6-0.9,5.5-0.8c2-0.1,3.8,0.3,5.6,0.9c0.5,0.2,0.8,0.3,0.4,0.9c-1.5,2.6-3,5.1-4.5,7.7
		c-0.5,0.8-2.5,0.8-3-0.1C42.3,83.8,40.9,81.2,39.3,78.7z M39.3,99.3c-1.4,2.5-2.9,4.9-4.3,7.4c-0.4,0.6-0.6,0.7-1.2,0.2
		c-2.9-2.6-4.6-5.8-5.5-9.5c-0.2-0.7,0.1-0.9,0.7-0.8c1.4,0,2.9,0,4.4,0c1.4,0,2.8,0,4.2,0C38.9,96.6,39.9,98.3,39.3,99.3z
		 M45.3,96.2c-1.2,0-2.1-1-2.1-2.2c0-1.1,1-2.1,2.2-2.1c1.2,0,2.1,1,2.1,2.2C47.4,95.3,46.5,96.2,45.3,96.2z M62.3,97.2
		c-0.2,0.7-0.4,1.6-0.7,2.4c-1,2.9-2.7,5.4-5,7.5c-0.4,0.4-0.7,0.4-1-0.1c-1.4-2.6-2.9-5.1-4.4-7.7c-0.5-0.8,0.6-2.6,1.5-2.6
		c3,0,5.9,0,8.9,0C61.9,96.6,62.3,96.4,62.3,97.2z"/>
	<path d="M127.5,123.7c-2.2-4.2-4.2-8.4-6-12.8c-7.2-17.7-10.6-36.1-10.5-55.2c0-2.6-0.8-3.4-3.4-3.4H78.9c-2.6,0-3.4,0.8-3.5,3.4
		c0,4-0.1,8.1-0.4,12.1c-0.3,4.1-0.8,8.1-1.3,12.1c-0.1,0.1-0.1,0.5-0.4,0.2c0-0.2,0-0.3-0.1-0.5c-2.4-9.6-3.9-19.4-4.7-29.3
		c-0.5-6-0.6-12-0.5-18c0-2-0.9-2.9-2.9-2.9c-4.2,0-8.4,0-12.6,0c-7.9,0-15.9,0-23.8,0c-0.9,0-1.2-0.2-1.1-1.2c0.1-1.6,0-3.2,0-4.9
		c0.1-4.4,3.5-8.4,7.8-9c1.7-0.2,2.7-1,3.1-2.6C39.6,8,42.8,5.5,46.9,5c3.4-0.4,7.2,1.7,9,4.9c1.4,2.5,3.1,2.6,4.9,0.5
		c1.8-2.2,4.2-3.1,7-2.4c2.1,0.5,3.7,1.9,4.5,3.9c0.6,1.3,1.5,1.9,2.9,1.8c1.2-0.1,2.3,0,3.5,0c2.2,0.1,3.9,1.8,3.8,3.8
		c0,2.1-1.7,3.7-3.9,3.7c-1.9,0-3.7,0-5.6,0c-1.7,0-2.8,1-2.9,2.5c0,1.4,1.1,2.5,2.8,2.5c2.1,0,4.2,0,6.2,0c4.3-0.2,7.7-3.3,8.3-7.5
		c0.6-4.2-2-8.3-6.1-9.6c-1.4-0.4-2.8-0.4-4.2-0.4c-0.6,0-0.9-0.2-1.3-0.7c-3.8-5.6-10.8-7-16.5-3.2c-0.5,0.3-0.8,0.4-1.2-0.1
		c-1.1-1.3-2.4-2.2-3.9-3.1c-1.5-0.8-3.1-1.2-4.7-1.7h-4.2c-0.4,0.3-0.9,0.1-1.3,0.2c-4.5,0.9-7.4,3.7-9.6,7.5
		c-0.6,1.1-1.3,1.8-2.5,2.2c-5.6,2-9.6,7.4-9.7,12.9c-0.1,6.5,0.1,13.1-0.2,19.6c-0.2,5.2-0.5,10.4-1.2,15.5
		c-1.3,10.4-3.3,20.7-6.3,30.8c-3.5,11.8-8,23.1-13.8,33.9c-0.4,0.8-0.7,1.7-0.7,2.6c0,2,0.7,2.7,2.7,2.7c40.9,0,81.8,0,122.7,0
		c1.3,0,2.2-0.4,2.6-1.6v-2C127.6,124.3,127.6,124,127.5,123.7z M80.7,57.6c0.6-0.6,1.9-0.2,2.8-0.2c3.2,0,6.5,0,9.7,0
		c3.9,0,7.8,0,11.7,0c0.8,0,1.2,0.1,1,1c-0.1,1,0.4,2.4-0.2,3c-0.5,0.5-1.9,0.2-2.9,0.2c-7.1,0-14.2,0-21.3,0c-1,0-1.2-0.3-1.1-1.2
		C80.6,59.4,80.2,58.2,80.7,57.6z M7,122.8c-0.3-0.4,0.1-0.6,0.2-0.9c6.6-13,11.5-26.6,15-40.8c1.9-7.8,3.3-15.6,4.2-23.6
		c0.3-3.2,0.6-6.5,0.9-9.7c0.1-0.9,0.3-1.2,1.3-1.2c5.7,0,11.4,0,17.1,0c1.4,0,2.4-0.9,2.6-2.2c0.2-1.1-0.5-2.2-1.6-2.7
		c-0.4-0.2-0.9-0.1-1.3-0.1c-5.5,0-11,0-16.5,0c-1.1,0-1.3-0.3-1.2-1.3c0.1-1.7,0.1-3.3,0-5c0-0.7,0.1-1,0.9-1c11.2,0,22.4,0,33.6,0
		c0.9,0,1,0.4,1,1.1c-0.1,6.3,0.2,12.6,0.8,18.9c1.2,12.2,3.5,24.3,7,36c3.2,10.8,7.4,21.3,12.4,31.3c0.1,0.3,0.3,0.6,0.5,1H7z
		 M118.1,122.9c-9.2,0-18.3,0-27.5,0c-0.8,0-1.2-0.2-1.5-0.9c-4.9-9.5-9-19.3-12.2-29.5c-0.2-0.5-0.2-1-0.1-1.6
		c1.8-7.7,2.9-15.5,3.5-23.4c0.1-0.8,0.3-0.9,1-0.9c8,0,16.1,0,24.1,0c0.6,0,0.9,0,1,0.8c1.3,19.3,6.2,37.6,14.8,54.9
		c0.1,0.1,0.1,0.2,0.2,0.5H118.1z"/>
	<path d="M83,42.3c0.1-1.7,0.6-3.3,1.8-4.6c1.1-1.2,1.1-1.9,0.2-3.2c-0.9-1.3-0.8-2.8,0.3-3.6c1.2-0.9,2.6-0.7,3.6,0.5
		c2.3,2.6,2.4,6.4,0.1,9.1C87.8,42,87.8,42.4,89,44c0.8,1.2,0.6,2.6-0.5,3.4c-1,0.8-2.4,0.7-3.4-0.2C83.7,45.9,83.1,44.2,83,42.3z"
		/>
	<path d="M95.8,42.3c0-1.7,0.7-3.3,1.8-4.6c1-1.2,1.1-1.9,0.1-3.2c-0.9-1.3-0.8-2.6,0.3-3.6c1.1-1,2.6-0.8,3.7,0.4
		c2.4,2.5,2.4,6.5,0.2,9.2c-1.3,1.6-1.3,1.8-0.2,3.6c0.7,1.1,0.6,2.5-0.4,3.4c-1,0.8-2.5,0.8-3.4-0.1C96.5,46,95.8,44.3,95.8,42.3z"
		/>
	<path d="M73.8,79.9c0,0.3,0.1,0.6-0.2,0.7c-0.2,0-0.3-0.2-0.2-0.4C73.5,80.1,73.6,80,73.8,79.9z"/>
	<path d="M53.4,44.2c0-1.3,1.2-2.5,2.5-2.5c1.4,0,2.6,1.1,2.6,2.5c0,1.4-1.2,2.5-2.5,2.5C54.6,46.7,53.4,45.6,53.4,44.2z"/>
	<path d="M64.2,91.5c-3.7,0-7.5,0-11.2,0c-1.3,0-2.3-1.7-1.6-2.8c1.9-3.3,3.9-6.7,5.8-10c1-1.8,0.7-3.2-1.2-4.1
		c-7.1-3.6-14.1-3.7-21.2,0c-2,1-2.3,2.3-1.2,4.3c1.9,3.3,3.8,6.5,5.6,9.8c0.7,1.3-0.2,2.9-1.7,2.9h-5.6c-1.9,0-3.8,0-5.7,0
		c-2.1,0-3.1,1-3,3c0.3,8,3.9,14.1,10.5,18.4c1.9,1.2,3.2,0.9,4.3-1.1c1.9-3.3,3.8-6.6,5.7-9.9c0.7-1.2,2.6-1.2,3.3,0
		c1.9,3.4,3.9,6.8,5.8,10.1c0.9,1.6,2.3,2,3.8,1.1c6.8-4.2,10.5-10.3,10.9-18.3C67.7,92.4,66.7,91.5,64.2,91.5z M39.3,78.7
		c-0.4-0.7,0-0.8,0.5-1c1.8-0.5,3.6-0.9,5.5-0.8c2-0.1,3.8,0.3,5.6,0.9c0.5,0.2,0.8,0.3,0.4,0.9c-1.5,2.6-3,5.1-4.5,7.7
		c-0.5,0.8-2.5,0.8-3-0.1C42.3,83.8,40.9,81.2,39.3,78.7z M39.3,99.3c-1.4,2.5-2.9,4.9-4.3,7.4c-0.4,0.6-0.6,0.7-1.2,0.2
		c-2.9-2.6-4.6-5.8-5.5-9.5c-0.2-0.7,0.1-0.9,0.7-0.8c1.4,0,2.9,0,4.4,0c1.4,0,2.8,0,4.2,0C38.9,96.6,39.9,98.3,39.3,99.3z
		 M45.3,96.2c-1.2,0-2.1-1-2.1-2.2c0-1.1,1-2.1,2.2-2.1c1.2,0,2.1,1,2.1,2.2C47.4,95.3,46.5,96.2,45.3,96.2z M62.3,97.2
		c-0.2,0.7-0.4,1.6-0.7,2.4c-1,2.9-2.7,5.4-5,7.5c-0.4,0.4-0.7,0.4-1-0.1c-1.4-2.6-2.9-5.1-4.4-7.7c-0.5-0.8,0.6-2.6,1.5-2.6
		c3,0,5.9,0,8.9,0C61.9,96.6,62.3,96.4,62.3,97.2z"/>
	<path d="M64.2,91.5c-3.7,0-7.5,0-11.2,0c-1.3,0-2.3-1.7-1.6-2.8c1.9-3.3,3.9-6.7,5.8-10c1-1.8,0.7-3.2-1.2-4.1
		c-7.1-3.6-14.1-3.7-21.2,0c-2,1-2.3,2.3-1.2,4.3c1.9,3.3,3.8,6.5,5.6,9.8c0.7,1.3-0.2,2.9-1.7,2.9h-5.6c-1.9,0-3.8,0-5.7,0
		c-2.1,0-3.1,1-3,3c0.3,8,3.9,14.1,10.5,18.4c1.9,1.2,3.2,0.9,4.3-1.1c1.9-3.3,3.8-6.6,5.7-9.9c0.7-1.2,2.6-1.2,3.3,0
		c1.9,3.4,3.9,6.8,5.8,10.1c0.9,1.6,2.3,2,3.8,1.1c6.8-4.2,10.5-10.3,10.9-18.3C67.7,92.4,66.7,91.5,64.2,91.5z M39.3,78.7
		c-0.4-0.7,0-0.8,0.5-1c1.8-0.5,3.6-0.9,5.5-0.8c2-0.1,3.8,0.3,5.6,0.9c0.5,0.2,0.8,0.3,0.4,0.9c-1.5,2.6-3,5.1-4.5,7.7
		c-0.5,0.8-2.5,0.8-3-0.1C42.3,83.8,40.9,81.2,39.3,78.7z M39.3,99.3c-1.4,2.5-2.9,4.9-4.3,7.4c-0.4,0.6-0.6,0.7-1.2,0.2
		c-2.9-2.6-4.6-5.8-5.5-9.5c-0.2-0.7,0.1-0.9,0.7-0.8c1.4,0,2.9,0,4.4,0c1.4,0,2.8,0,4.2,0C38.9,96.6,39.9,98.3,39.3,99.3z
		 M45.3,96.2c-1.2,0-2.1-1-2.1-2.2c0-1.1,1-2.1,2.2-2.1c1.2,0,2.1,1,2.1,2.2C47.4,95.3,46.5,96.2,45.3,96.2z M62.3,97.2
		c-0.2,0.7-0.4,1.6-0.7,2.4c-1,2.9-2.7,5.4-5,7.5c-0.4,0.4-0.7,0.4-1-0.1c-1.4-2.6-2.9-5.1-4.4-7.7c-0.5-0.8,0.6-2.6,1.5-2.6
		c3,0,5.9,0,8.9,0C61.9,96.6,62.3,96.4,62.3,97.2z"/>
	<path d="M58.5,44.2c0,1.4-1.2,2.5-2.5,2.5c-1.4,0-2.6-1.1-2.6-2.5c0-1.3,1.2-2.5,2.5-2.5C57.3,41.7,58.5,42.8,58.5,44.2z"/>
</g>
</svg>
