<?xml version="1.0" encoding="utf-8"?>
<!-- Generator: Adobe Illustrator 28.0.0, SVG Export Plug-In . SVG Version: 6.00 Build 0)  -->
<svg version="1.1" id="Layer_1" xmlns="http://www.w3.org/2000/svg" xmlns:xlink="http://www.w3.org/1999/xlink" x="0px" y="0px"
	 viewBox="0 0 128 128" style="enable-background:new 0 0 128 128;" xml:space="preserve">
<g id="WdI9hM.tif">
	<g>
		<path d="M40.1,52c0,1.3,0.5,3-0.2,3.7c-0.7,0.8-2.5,0.2-3.8,0.3c-1.3,0.1-3-0.5-3.7,0.2c-0.8,0.7-0.2,2.5-0.3,3.8
			c-0.1,1.3,0.5,3-0.2,3.7c-0.7,0.8-2.5,0.2-3.8,0.2c-1.3,0-3,0.5-3.7-0.2c-0.8-0.7-0.2-2.5-0.3-3.8c-0.1-1.3,0.5-3-0.2-3.7
			c-0.7-0.8-2.5-0.2-3.8-0.3c-1.3-0.1-3,0.5-3.7-0.2c-0.8-0.7-0.2-2.5-0.3-3.8c0-1.3-0.5-3,0.2-3.7c0.7-0.8,2.5-0.2,3.8-0.3
			c1.3-0.1,3,0.5,3.7-0.2c0.8-0.7,0.2-2.5,0.3-3.8c0.1-1.3-0.5-3,0.2-3.7c0.7-0.8,2.5-0.2,3.8-0.2c1.3,0,3-0.5,3.7,0.1
			c0.8,0.7,0.2,2.5,0.3,3.8c0.1,1.3-0.5,3,0.2,3.7c0.7,0.8,2.5,0.2,3.8,0.3c1.3,0.1,3-0.5,3.7,0.2C40.6,48.9,40,50.7,40.1,52z"/>
		<path d="M112,48.8c0,2.1,0,4.2,0,6.2c0,0.7-0.2,0.9-0.9,0.9c-3.7,0-7.5,0-11.2,0c-3.6,0-7.2,0-10.9,0c-0.8,0-1-0.2-1-1
			c0.1-2,0.1-4.1,0-6.1c0-0.7,0.2-0.9,0.9-0.9c7.4,0,14.8,0,22.2,0C111.8,48,112,48.1,112,48.8z"/>
		<path d="M123.7,23.7c-3.3,0-6.6,0-10,0c-0.9,0-1.4-0.3-1.3-1.3c0-0.7,0-1.3,0-2c0-2.4-0.9-3.6-3.1-4.3H90.8
			c-2.2,0.7-3.1,1.9-3.1,4.3c0,0.6,0,1.2,0,1.7c0,1.4-0.1,1.5-1.5,1.5c-0.4,0-0.8,0-1.2,0c-13.7,0-27.4,0-41.2,0
			c-3.8,0-3.2,0.4-3.3-3.3c0-2.4-0.9-3.6-3.1-4.3H18.9c-2.2,0.8-3.1,1.9-3.1,4.3c0,0.5,0,1.1,0,1.6c0,1.5-0.1,1.6-1.7,1.6
			c-3.2,0-6.5,0-9.7,0C1.5,23.7,0,25.3,0,28v79.8c0,2.8,1.3,4.1,4.1,4.1H124c2.4,0,3.3-0.6,4-2.9V26.8
			C127.3,24.6,126,23.7,123.7,23.7z M120,102.6c0,1-0.2,1.3-1.3,1.3c-36.5,0-72.9,0-109.4,0c-1,0-1.3-0.2-1.3-1.3
			c0-23.1,0-46.2,0-69.4c0-1,0.2-1.3,1.3-1.3c18.2,0,36.5,0,54.7,0s36.5,0,54.7,0c1,0,1.3,0.2,1.3,1.3C120,56.4,120,79.5,120,102.6z
			"/>
		<path d="M40.1,52c0,1.3,0.5,3-0.2,3.7c-0.7,0.8-2.5,0.2-3.8,0.3c-1.3,0.1-3-0.5-3.7,0.2c-0.8,0.7-0.2,2.5-0.3,3.8
			c-0.1,1.3,0.5,3-0.2,3.7c-0.7,0.8-2.5,0.2-3.8,0.2c-1.3,0-3,0.5-3.7-0.2c-0.8-0.7-0.2-2.5-0.3-3.8c-0.1-1.3,0.5-3-0.2-3.7
			c-0.7-0.8-2.5-0.2-3.8-0.3c-1.3-0.1-3,0.5-3.7-0.2c-0.8-0.7-0.2-2.5-0.3-3.8c0-1.3-0.5-3,0.2-3.7c0.7-0.8,2.5-0.2,3.8-0.3
			c1.3-0.1,3,0.5,3.7-0.2c0.8-0.7,0.2-2.5,0.3-3.8c0.1-1.3-0.5-3,0.2-3.7c0.7-0.8,2.5-0.2,3.8-0.2c1.3,0,3-0.5,3.7,0.1
			c0.8,0.7,0.2,2.5,0.3,3.8c0.1,1.3-0.5,3,0.2,3.7c0.7,0.8,2.5,0.2,3.8,0.3c1.3,0.1,3-0.5,3.7,0.2C40.6,48.9,40,50.7,40.1,52z"/>
		<path d="M112,55.1c0,0.7-0.2,0.9-0.9,0.9c-3.7,0-7.5,0-11.2,0c-3.6,0-7.2,0-10.9,0c-0.8,0-1-0.2-1-1c0.1-2,0.1-4.1,0-6.1
			c0-0.7,0.2-0.9,0.9-0.9c7.4,0,14.8,0,22.2,0c0.7,0,0.9,0.2,0.9,0.9C112,50.9,112,53,112,55.1z"/>
		<path d="M40.1,52c0,1.3,0.5,3-0.2,3.7c-0.7,0.8-2.5,0.2-3.8,0.3c-1.3,0.1-3-0.5-3.7,0.2c-0.8,0.7-0.2,2.5-0.3,3.8
			c-0.1,1.3,0.5,3-0.2,3.7c-0.7,0.8-2.5,0.2-3.8,0.2c-1.3,0-3,0.5-3.7-0.2c-0.8-0.7-0.2-2.5-0.3-3.8c-0.1-1.3,0.5-3-0.2-3.7
			c-0.7-0.8-2.5-0.2-3.8-0.3c-1.3-0.1-3,0.5-3.7-0.2c-0.8-0.7-0.2-2.5-0.3-3.8c0-1.3-0.5-3,0.2-3.7c0.7-0.8,2.5-0.2,3.8-0.3
			c1.3-0.1,3,0.5,3.7-0.2c0.8-0.7,0.2-2.5,0.3-3.8c0.1-1.3-0.5-3,0.2-3.7c0.7-0.8,2.5-0.2,3.8-0.2c1.3,0,3-0.5,3.7,0.1
			c0.8,0.7,0.2,2.5,0.3,3.8c0.1,1.3-0.5,3,0.2,3.7c0.7,0.8,2.5,0.2,3.8,0.3c1.3,0.1,3-0.5,3.7,0.2C40.6,48.9,40,50.7,40.1,52z"/>
		<path d="M112,55.1c0,0.7-0.2,0.9-0.9,0.9c-3.7,0-7.5,0-11.2,0c-3.6,0-7.2,0-10.9,0c-0.8,0-1-0.2-1-1c0.1-2,0.1-4.1,0-6.1
			c0-0.7,0.2-0.9,0.9-0.9c7.4,0,14.8,0,22.2,0c0.7,0,0.9,0.2,0.9,0.9C112,50.9,112,53,112,55.1z"/>
	</g>
</g>
</svg>
