<?xml version="1.0" encoding="utf-8"?>
<!-- Generator: Adobe Illustrator 28.0.0, SVG Export Plug-In . SVG Version: 6.00 Build 0)  -->
<svg version="1.1" id="Layer_1" xmlns="http://www.w3.org/2000/svg" xmlns:xlink="http://www.w3.org/1999/xlink" x="0px" y="0px"
	 viewBox="0 0 128 128" style="enable-background:new 0 0 128 128;" xml:space="preserve">
<g id="Oqw3IW.tif">
	<g>
		<path d="M13.3,77.4c0-0.5-0.1-1.1,0-1.6c0.1-1,0.6-1.8,1.8-1.8c1.1-0.1,1.9,0.6,2,1.7c0.1,1.1,0.1,2.3,0,3.5
			c-0.1,1.2-0.9,1.8-2,1.8c-1.1,0-1.8-0.7-1.9-1.9C13.2,78.5,13.3,78,13.3,77.4z"/>
		<path d="M13.3,90.8c-0.1-0.5,0-1.1,0-1.6c0-0.5,0-1.1,0-1.6c0.1-1.2,0.8-1.9,1.9-1.9c1.1,0,1.9,0.7,2,1.8c0.1,1.1,0.1,2.3,0,3.5
			c-0.1,1.2-0.9,1.8-2,1.7C13.9,92.6,13.4,91.9,13.3,90.8z"/>
		<path d="M20.6,77.5c0-0.6-0.1-1.3,0-1.9c0.2-1,0.8-1.6,1.8-1.6c1.1,0,1.8,0.6,1.9,1.6c0.1,1.3,0.1,2.6,0,3.8
			c-0.1,1-0.8,1.6-1.9,1.6c-1.1,0-1.7-0.7-1.8-1.7C20.5,78.7,20.6,78.1,20.6,77.5z"/>
		<path d="M20.6,91c-0.1-1.2-0.1-2.4,0-3.6c0.1-1.1,0.7-1.7,1.9-1.7c1.1,0,1.7,0.7,1.9,1.7c0.1,0.6,0,1.2,0,1.9h0
			c0,0.5,0.1,1.1,0,1.6c-0.2,1-0.7,1.8-1.9,1.8C21.4,92.7,20.7,92.1,20.6,91z"/>
		<path d="M31.6,87.3c0.1,1.2,0.1,2.5,0,3.7c-0.1,1.1-1,1.7-2,1.6C28.5,92.6,28,92,27.9,91c-0.1-0.6,0-1.2,0-1.9c0-0.5,0-1.1,0-1.6
			c0.1-1,0.7-1.7,1.7-1.8C30.6,85.6,31.5,86.3,31.6,87.3z"/>
		<path d="M27.9,79.3c-0.1-1.2-0.1-2.4,0-3.6c0.1-1,0.7-1.7,1.8-1.7c1,0,1.8,0.6,2,1.7c0.1,0.6,0,1.2,0,1.9c0,0,0,0,0,0
			c0,0.6,0.1,1.2,0,1.7c-0.1,1.1-0.9,1.7-1.9,1.7C28.6,80.9,28,80.3,27.9,79.3z"/>
		<path d="M125.8,87.5c0.9-0.6,1.7-1.4,1.9-2.5c0.5-2.7,0.5-5.3-2.1-7.1c-0.7-0.5-1-1.2-1-2c0-2,0.1-4.1,0-6.1
			c-0.1-1.9-1.1-3.1-2.4-3.1c-1.3,0-2.3,1.3-2.3,3.2c0,1.9,0,3.7,0,5.6c0,0.9-0.3,1.3-1.2,1.3c-5.2,0-10.5,0-15.7,0
			c-0.9,0-1.3-0.4-1.3-1.3c0-1.6,0-3.2,0-4.9V54.2c0-0.8,0-1.6,1.2-1.6c5.3,0,10.6,0,15.8,0c0.9,0,1.2,0.4,1.2,1.2
			c0,1.2,0,2.4,0,3.6c0,1-0.1,2.1,0.1,3.1c0.2,1.2,1.1,2,2.2,2c1.1,0,2-0.7,2.3-1.9c0.2-0.6,0.2-1.2,0.2-1.7c0-1.9,0-3.7,0-5.6
			c0-0.8,0.2-1.5,0.9-1.9c3.1-1.8,3.3-7.7,0-9.7c-0.7-0.5-1.2-1.1-1.4-2c-1.4-5.1-4.7-8.5-9.8-10.1c-0.9-0.3-1.2-0.7-1.2-1.6
			c0-1.4-0.1-2.8-0.2-4.2c-0.4-5.5-5.7-12.4-13.4-11.9c0,0,0,0-0.1,0h-7.3c-0.1,0-0.2,0-0.3,0c0,0-0.1,0-0.1,0
			c-2.3-0.1-4.5,0.3-6.5,1.5c-1.5,0.9-3,2-4,3.5c-0.5,0.6-0.8,0.8-1.4,0.1c-2.7-3.4-6.2-5.2-10.6-5.1c0,0-0.1,0-0.1,0
			c-0.1,0-0.2,0-0.3,0h-7.4c-1.5,0-3,0-4.5,0.5c-4.9,2-7.9,5.5-8.9,10.7c-0.3,1.5-0.3,3.1-0.2,4.6c0.1,1.2-0.4,1.6-1.5,2
			c-4.7,1.5-7.9,4.6-9.3,9.3c-0.4,1.2-0.9,2.1-1.9,2.9c-2.8,2.2-3.2,6.3-0.6,8.5c1.7,1.4,2,3,1.9,4.9c0,0.5,0,1.1,0,1.6
			c0,1.8,0,1.8-1.8,1.8c-3.3,0-6.7-0.1-10,0c-1.5,0-2.4,1.1-2.4,2.4c0.1,1.2,1,2,2.4,2.1c0.5,0,0.9,0,1.4,0c3,0,6,0,9,0
			c1.3,0,1.4,0.2,1.4,1.5c0,1.1-0.2,1.3-1.6,1.3c-7.8,0-15.6,0-23.3,0c-2.1,0-4.2,0-6.2,0c-0.9,0-1.3-0.3-1.3-1.2
			c0-1.3,0.2-1.5,1.5-1.5c3,0,6.1,0,9.1,0c0.4,0,0.8,0,1.2,0c1.4-0.1,2.3-1,2.3-2.1c0-1.2-0.9-2.2-2.2-2.3c-4.7-0.1-9.5-0.1-14.2,0
			c-1,0-1.6,0.6-1.8,1.6v8.7c0.2,0.9,0.9,1.3,1.8,1.5c0.7,0.2,1.4,0.1,2.1,0.1c1.6,0,1.7,0.1,1.7,1.7c0,6.2,0,12.5,0,18.7
			c0,1.2,0,2.3,0,3.5c0,1-0.4,1.3-1.3,1.3c-0.7,0-1.3,0-2,0c-1.1,0-1.9,0.3-2.3,1.4v17.5c0.4,1,1.1,1.3,2.2,1.3
			c41.1,0,82.3,0,123.4,0c1.8,0,2.3-0.5,2.3-2.3c0-5.1,0-10.1,0-15.2c0-1.8-0.4-2.3-2.2-2.6c-0.8-0.1-1.1-0.5-1.1-1.2
			c0-1.7,0-3.4,0-5.1C124.7,88.8,124.9,88.1,125.8,87.5z M110.8,33.4c4.2,0,7.8,2.6,9.2,6.6c0.3,0.8,0.2,1.1-0.7,1.1
			c-2.8-0.1-5.6,0-8.4,0c-2.8,0-5.6,0-8.4,0c-0.9,0-1-0.2-0.7-1.1C103,36.1,106.6,33.5,110.8,33.4z M101.2,16
			c4.3,0.8,7.5,4.5,7.7,8.9c0,1.3,0,2.7,0,4c0,0.5,0,0.8-0.7,1c-5.5,1.4-9,4.8-10.4,10.3c-0.2,0.6-0.4,0.9-1,0.8
			c-0.9-0.1-1.9,0.2-2.6-0.1c-0.7-0.4-0.5-1.5-0.8-2.3c-1.8-4.6-5.1-7.6-9.9-8.7c-0.7-0.2-0.9-0.3-0.8-1c0.1-1.9-0.2-3.9,0.3-5.8
			c1.1-4.2,4.7-7.1,9-7.2c1.3,0,2.6,0,4.2,0C97.6,15.9,99.4,15.7,101.2,16z M88.9,41.1c-2.8,0-5.6,0-8.4,0c-2.8,0-5.6,0-8.4,0
			c-0.9,0-1-0.2-0.7-1c1.2-3.9,5-6.6,9.1-6.6c4.2,0,7.8,2.7,9.1,6.6C90,41,89.7,41.1,88.9,41.1z M52.3,28.7c0.1-1.9-0.2-3.8,0.3-5.7
			c1.1-4.1,4.7-7,8.9-7.2c1.3,0,2.7,0,4.3,0c1.5,0.1,3.4-0.1,5.3,0.2c4,0.8,7.4,4.6,7.5,8.7c0,1.4,0,2.8,0,4.2
			c0,0.6-0.2,0.8-0.8,0.9c-5.5,1.4-9,4.8-10.3,10.3c-0.2,0.7-0.3,1-1.1,0.9c-0.9-0.1-1.9,0.2-2.6-0.1c-0.7-0.3-0.5-1.5-0.8-2.2
			c-1.8-4.6-5-7.6-9.8-8.8C52.4,29.7,52.3,29.4,52.3,28.7z M41.3,40.1c1.1-3.9,5-6.7,9.2-6.7c4.2,0,8.1,2.9,9.1,6.8
			c0.2,0.7,0,0.8-0.7,0.8c-2.9,0-5.7,0-8.6,0c-2.8,0-5.6,0-8.4,0C41.1,41.1,41.1,40.8,41.3,40.1z M38.5,45c0.4-0.1,0.8-0.1,1.2-0.1
			c27.2,0,54.5,0,81.7,0c0.3,0,0.7,0,1,0c1,0.1,1.6,0.8,1.6,1.8c-0.1,1-0.6,1.6-1.7,1.6c-0.4,0-0.7,0-1.1,0H40c-0.4,0-0.8,0-1.2,0
			c-0.9-0.1-1.4-0.7-1.5-1.6C37.1,45.8,37.6,45.2,38.5,45z M94,69.5c0-1.5-0.8-2.4-1.9-2.4c-1.2,0-1.9,0.9-1.9,2.4c0,2.3,0,4.7,0,7
			c0,0.7-0.2,0.8-0.8,0.8c-5.8,0-11.6,0-17.3,0c-0.7,0-0.9-0.1-0.9-0.9c0-7.8,0-15.5,0-23.3c0-0.8,0.3-0.9,1-0.9
			c5.7,0,11.4,0,17.1,0c0.9,0,1,0.3,1,1.1c0,2.2,0,4.4,0,6.6c0,1.6,0.7,2.5,1.9,2.6c1.3,0,2-0.9,2-2.6c0-2.2,0-4.4,0-6.6
			c0-0.7,0.1-1,0.9-1c2.5,0,2.5,0,2.5,2.5v10.1c0,3.9,0,7.7,0,11.6c0,0.7-0.2,1-0.9,1c-2.5,0-2.5,0-2.5-2.4C94,73,94,71.2,94,69.5z
			 M63.8,69.5c0-1.5-0.7-2.4-1.9-2.5c-1.2,0-2,0.9-2,2.5c0,2.2,0,4.5,0,6.7c0,0.7-0.1,1-0.9,1c-5.7,0-11.5,0-17.2,0
			c-0.8,0-1-0.2-1-1c0-3.9,0-7.7,0-11.6c0-3.8,0-7.7,0-11.5c0-0.9,0.2-1.1,1.1-1.1c5.7,0,11.3,0,17,0c0.8,0,1.1,0.2,1,1
			c-0.1,2.3,0,4.7,0,7c0,1.7,1.3,2.7,2.7,2.1c0.9-0.4,1.2-1.2,1.2-2.2c0-2.3,0-4.6,0-6.9c0-0.8,0.2-1,1-1c2.4,0,2.4,0,2.4,2.3
			c0,7.2,0,14.5,0,21.7c0,1-0.3,1.2-1.2,1.1c-2.2-0.1-2.2,0-2.2-2.3C63.8,73.1,63.8,71.3,63.8,69.5z M39.2,81.1c0.3,0,0.6,0,0.9,0
			c27,0,54,0,81,0c0.5,0,1.1,0,1.6,0.1c0.9,0.2,1.4,0.9,1.3,1.7c0,0.8-0.5,1.5-1.5,1.6c-0.5,0.1-0.9,0-1.4,0c-13.5,0-27,0-40.5,0
			H40.2c-0.3,0-0.6,0-0.9,0c-1.4,0-2.2-0.7-2.1-1.7C37.2,81.8,38,81.1,39.2,81.1z M120.4,95.4c0,0.7-0.1,0.9-0.9,0.9
			c-5.8,0-11.5,0-17.3,0c-0.7,0-0.9-0.2-0.9-0.9c0-2,0.1-4.1,0-6.1c0-0.8,0.2-1,1-1c2.9,0.1,5.7,0,8.6,0s5.7,0,8.6,0
			c0.8,0,1,0.2,1,1C120.3,91.4,120.3,93.4,120.4,95.4z M94,89.2c0-0.7,0.2-0.8,0.8-0.8c2.6-0.1,2.6-0.1,2.6,2.5c0,1.6,0,3.2,0,4.7
			c0,0.6-0.2,0.8-0.8,0.8C94,96.5,94,96.5,94,93.9v-1.6C94,91.3,94.1,90.2,94,89.2z M90.2,95.3c0,0.8-0.1,1.1-1,1.1
			c-5.7,0-11.4,0-17.1,0c-0.8,0-1.1-0.2-1-1c0.1-1.9,0.1-3.9,0-5.9c0-0.9,0.2-1.1,1.1-1.1c2.8,0.1,5.6,0,8.5,0c2.9,0,5.7,0,8.6,0
			c0.8,0,1,0.2,1,1C90.1,91.3,90.1,93.3,90.2,95.3z M63.8,89.1c0-0.5,0.2-0.7,0.7-0.7c2.7-0.2,2.7-0.2,2.7,2.4v1.6
			c0,0.6,0,1.2,0,1.7c0,0.7,0.3,1.7-0.2,2c-0.8,0.5-1.9,0.2-2.8,0.1c-0.5,0-0.4-0.4-0.4-0.8C63.8,93.4,63.8,91.2,63.8,89.1z
			 M60,95.4c0,0.7-0.2,0.9-0.9,0.9c-5.8,0-11.5,0-17.3,0c-0.7,0-0.9-0.3-0.9-0.9c0-2.1,0-4.2,0-6.2c0-0.7,0.2-0.8,0.8-0.8
			c2.9,0,5.8,0,8.7,0c2.9,0,5.7,0,8.6,0c0.8,0,1,0.2,1,1C59.9,91.4,59.9,93.4,60,95.4z M11,70.3c8.3,0,16.5,0,24.8,0
			c0.9,0,1.2,0.2,1.2,1.2c-0.1,1-0.1,2.1,0,3.1c0.1,1.7-0.1,3-1.8,4.2c-3,2.2-2.3,6.8,0.9,8.7c0.6,0.4,0.9,0.7,0.8,1.4
			c-0.1,2.1-0.1,4.2,0,6.2c0,1-0.3,1.1-1.2,1.1c-4.2,0-8.3,0-12.5,0c-4.1,0-8.2,0-12.3,0c-1,0-1.2-0.3-1.2-1.2c0-7.9,0-15.8,0-23.7
			C9.8,70.5,10.1,70.3,11,70.3z M122.8,112.2c-19.7,0-39.3,0-59,0c-19.6,0-39.2,0-58.8,0c-1,0-1.3-0.2-1.3-1.3
			c0.1-3.2,0.1-6.3,0-9.5c0-1.2,0.4-1.3,1.4-1.3c28.7,0,57.3,0,86,0c10.6,0,21.2,0,31.8,0c0.9,0,1.3,0.2,1.2,1.2
			c-0.1,3.2-0.1,6.4,0,9.6C124.1,112,123.8,112.2,122.8,112.2z"/>
		<path d="M91.8,12.1c-4.8,0.2-8.5,2.3-11.2,6.4c-2.7-4-6.4-6.2-11.2-6.4c-0.1,0-0.1-0.1-0.1-0.1c0,0,0.1-0.1,0.1-0.1
			c7.5,0,15,0,22.5,0C91.9,11.9,92,11.9,91.8,12.1C91.9,12,91.9,12.1,91.8,12.1z"/>
		<path d="M69.4,11.8c0,0.1,0,0.1,0,0.2c-2.6,0-5.2,0-7.7,0c0-0.1,0-0.1,0-0.2C64.2,11.8,66.8,11.8,69.4,11.8z"/>
		<path d="M91.8,12.1c0-0.1,0-0.1,0-0.2c2.6,0,5.2,0,7.7,0c0,0.1,0,0.1,0,0.2C97,12.1,94.4,12.1,91.8,12.1z"/>
		<path d="M17.1,75.7c0.1,1.1,0.1,2.3,0,3.5c-0.1,1.2-0.9,1.8-2,1.8c-1.1,0-1.8-0.7-1.9-1.9c0-0.5,0-1.1,0-1.6c0-0.5-0.1-1.1,0-1.6
			c0.1-1,0.6-1.8,1.8-1.8C16.2,73.9,17,74.5,17.1,75.7z"/>
		<path d="M17.1,87.5c0.1,1.1,0.1,2.3,0,3.5c-0.1,1.2-0.9,1.8-2,1.7c-1.2-0.1-1.7-0.8-1.8-1.9c-0.1-0.5,0-1.1,0-1.6
			c0-0.5,0-1.1,0-1.6c0.1-1.2,0.8-1.9,1.9-1.9C16.2,85.7,17,86.4,17.1,87.5z"/>
		<path d="M24.3,75.6c0.1,1.3,0.1,2.6,0,3.8c-0.1,1-0.8,1.6-1.9,1.6c-1.1,0-1.7-0.7-1.8-1.7c-0.1-0.6,0-1.2,0-1.9
			c0-0.6-0.1-1.3,0-1.9c0.2-1,0.8-1.6,1.8-1.6C23.5,74,24.2,74.6,24.3,75.6z"/>
		<path d="M24.4,89.3c0,0.5,0.1,1.1,0,1.6c-0.2,1-0.7,1.8-1.9,1.8c-1.1,0-1.8-0.6-1.9-1.7c-0.1-1.2-0.1-2.4,0-3.6
			c0.1-1.1,0.7-1.7,1.9-1.7c1.1,0,1.7,0.7,1.9,1.7C24.5,88.1,24.4,88.7,24.4,89.3L24.4,89.3z"/>
		<path d="M31.6,91.1c-0.1,1.1-1,1.7-2,1.6C28.5,92.6,28,92,27.9,91c-0.1-0.6,0-1.2,0-1.9c0-0.5,0-1.1,0-1.6c0.1-1,0.7-1.7,1.7-1.8
			c1-0.1,1.9,0.6,2,1.6C31.7,88.6,31.7,89.8,31.6,91.1z"/>
		<path d="M27.9,79.3c-0.1-1.2-0.1-2.4,0-3.6c0.1-1,0.7-1.7,1.8-1.7c1,0,1.8,0.6,2,1.7c0.1,0.6,0,1.2,0,1.9c0,0,0,0,0,0
			c0,0.6,0.1,1.2,0,1.7c-0.1,1.1-0.9,1.7-1.9,1.7C28.6,80.9,28,80.3,27.9,79.3z"/>
		<path d="M24.3,79.4c-0.1,1-0.8,1.6-1.9,1.6c-1.1,0-1.7-0.7-1.8-1.7c-0.1-0.6,0-1.2,0-1.9c0-0.6-0.1-1.3,0-1.9
			c0.2-1,0.8-1.6,1.8-1.6c1.1,0,1.8,0.6,1.9,1.6C24.5,76.8,24.5,78.1,24.3,79.4z"/>
		<path d="M24.4,90.9c-0.2,1-0.7,1.8-1.9,1.8c-1.1,0-1.8-0.6-1.9-1.7c-0.1-1.2-0.1-2.4,0-3.6c0.1-1.1,0.7-1.7,1.9-1.7
			c1.1,0,1.7,0.7,1.9,1.7c0.1,0.6,0,1.2,0,1.9h0C24.4,89.8,24.5,90.4,24.4,90.9z"/>
		<path d="M17.1,79.2c-0.1,1.2-0.9,1.8-2,1.8c-1.1,0-1.8-0.7-1.9-1.9c0-0.5,0-1.1,0-1.6c0-0.5-0.1-1.1,0-1.6c0.1-1,0.6-1.8,1.8-1.8
			c1.1-0.1,1.9,0.6,2,1.7C17.2,76.9,17.2,78,17.1,79.2z"/>
		<path d="M17.1,91c-0.1,1.2-0.9,1.8-2,1.7c-1.2-0.1-1.7-0.8-1.8-1.9c-0.1-0.5,0-1.1,0-1.6c0-0.5,0-1.1,0-1.6
			c0.1-1.2,0.8-1.9,1.9-1.9c1.1,0,1.9,0.7,2,1.8C17.2,88.7,17.2,89.8,17.1,91z"/>
		<path d="M31.7,79.3c-0.1,1.1-0.9,1.7-1.9,1.7c-1.1,0-1.7-0.6-1.8-1.7c-0.1-1.2-0.1-2.4,0-3.6c0.1-1,0.7-1.7,1.8-1.7
			c1,0,1.8,0.6,2,1.7c0.1,0.6,0,1.2,0,1.9c0,0,0,0,0,0C31.7,78.1,31.7,78.7,31.7,79.3z"/>
		<path d="M31.6,91.1c-0.1,1.1-1,1.7-2,1.6C28.5,92.6,28,92,27.9,91c-0.1-0.6,0-1.2,0-1.9c0-0.5,0-1.1,0-1.6c0.1-1,0.7-1.7,1.7-1.8
			c1-0.1,1.9,0.6,2,1.6C31.7,88.6,31.7,89.8,31.6,91.1z"/>
	</g>
</g>
</svg>
