<?xml version="1.0" encoding="utf-8"?>
<!-- Generator: Adobe Illustrator 27.9.0, SVG Export Plug-In . SVG Version: 6.00 Build 0)  -->
<svg version="1.1" id="Layer_1" xmlns="http://www.w3.org/2000/svg" xmlns:xlink="http://www.w3.org/1999/xlink" x="0px" y="0px"
	 viewBox="0 0 128 128" style="enable-background:new 0 0 128 128;" xml:space="preserve">
<g id="Layer_6">
	<path d="M89.78,18.48h-0.86v-6.59C88.92,5.32,83.6,0,77.03,0C77,0,76.97,0,76.94,0H51.27C44.7-0.05,39.34,5.24,39.29,11.81
		c0,0.03,0,0.06,0,0.09v6.59h-0.86c-7.61-0.09-13.85,6-13.95,13.6c0,0.04,0,0.09,0,0.13v82.05c0.02,7.61,6.21,13.76,13.82,13.73
		c0.04,0,0.09,0,0.13,0h51.34c7.57-0.02,13.71-6.16,13.73-13.73V32.21C103.48,24.64,97.35,18.5,89.78,18.48z M47.85,11.89
		c-0.03-1.82,1.43-3.31,3.25-3.34c0.06,0,0.12,0,0.17,0h25.67c1.82,0,3.29,1.47,3.29,3.29v0v6.63H47.85V11.89z M95.17,114.27
		c0,2.86-2.31,5.18-5.17,5.18c-0.07,0-0.15,0-0.22,0H38.44c-2.86,0-5.18-2.32-5.18-5.18V32.21c0-2.86,2.32-5.18,5.18-5.18h51.34
		c2.86,0,5.18,2.32,5.18,5.18L95.17,114.27z"/>
	<path d="M85.71,66.4l-13.56-1.37l7.91-16.56c1.03-2.13,0.14-4.69-1.98-5.72c-1.61-0.78-3.53-0.48-4.82,0.75L39.98,74.65
		c-1.73,1.61-1.82,4.32-0.21,6.05c0.77,0.82,1.82,1.31,2.95,1.35l12.83,0.21l-7.4,15.79c-1,2.14-0.08,4.69,2.06,5.69
		c1.53,0.71,3.33,0.46,4.61-0.64l33.28-29.18c1.78-1.55,1.97-4.25,0.42-6.04c-0.72-0.83-1.73-1.35-2.82-1.45L85.71,66.4z
		 M64.71,82.99L66.12,80c1.02-2.13,0.11-4.69-2.02-5.7c-0.56-0.27-1.17-0.41-1.79-0.42H53.5l8.98-8.56l-0.73,1.54
		c-1.03,2.13-0.14,4.69,1.99,5.71c0.45,0.22,0.93,0.35,1.43,0.4l9.84,0.98L64.71,82.99z"/>
</g>
</svg>
