<?xml version="1.0" encoding="utf-8"?>
<!-- Generator: Adobe Illustrator 27.9.0, SVG Export Plug-In . SVG Version: 6.00 Build 0)  -->
<svg version="1.1" id="Layer_1" xmlns="http://www.w3.org/2000/svg" xmlns:xlink="http://www.w3.org/1999/xlink" x="0px" y="0px"
	 viewBox="0 0 128 128" style="enable-background:new 0 0 128 128;" xml:space="preserve">
<g>
	<path d="M101.19,109.42h10.43c2.14,0,3.88-1.87,3.88-4.18V94.03c0-2.3-1.74-4.18-3.88-4.18h-10.43c-2.14,0-3.88,1.87-3.88,4.18
		v11.22C97.3,107.55,99.05,109.42,101.19,109.42L101.19,109.42z M102.3,95.23h8.19v8.82h-8.19V95.23z"/>
	<path d="M58.43,99.25c0.44,0,0.87-0.12,1.25-0.36c6.93-4.3,11.23-12.33,11.23-20.94c0-1.48-1.12-2.69-2.5-2.69H52.76l7.83-14.59
		c0.69-1.29,0.28-2.93-0.92-3.67c-3.41-2.12-7.3-3.24-11.24-3.24c-3.95,0-7.84,1.12-11.25,3.24c-1.2,0.74-1.6,2.39-0.91,3.67
		l7.83,14.59H28.45c-1.38,0-2.5,1.2-2.5,2.69c0,8.61,4.3,16.63,11.23,20.94c0.38,0.24,0.82,0.36,1.25,0.36
		c0.22,0,0.43-0.03,0.65-0.09c0.64-0.18,1.19-0.63,1.52-1.25l7.83-14.58l7.83,14.58c0.33,0.62,0.88,1.07,1.52,1.25
		C57.99,99.22,58.21,99.25,58.43,99.25L58.43,99.25z M37.61,92.71c-3.51-2.98-5.84-7.32-6.48-12.08H44.1L37.61,92.71z M41.94,60.47
		c2.06-0.88,4.26-1.34,6.49-1.34c2.23,0,4.43,0.46,6.49,1.34l-6.49,12.09L41.94,60.47z M52.76,80.63h12.97
		c-0.64,4.76-2.97,9.1-6.48,12.08L52.76,80.63z"/>
	<path d="M125.5,76.4h-6.59v-43.6V18.77V7.04c0-3.88-2.94-7.04-6.55-7.04h-10.5c-3.61,0-6.55,3.16-6.55,7.04v11.72v14.04v43.6H80.09
		c-3-11.94-4.8-24.65-5.38-41.96c2.28-1.07,3.88-3.52,3.88-6.37v-3.86c0-3.83-2.89-6.94-6.45-6.94H24.72
		c-3.55,0-6.45,3.11-6.45,6.94v3.86c0,2.85,1.6,5.3,3.88,6.37c-1.17,34.97-7.32,51.18-18.29,80.12c-1.18,3.11-2.4,6.33-3.68,9.74
		c-0.31,0.83-0.22,1.77,0.25,2.51S1.67,128,2.5,128h91.86h31.14c1.38,0,2.5-1.2,2.5-2.69V79.09C128,77.61,126.88,76.4,125.5,76.4
		L125.5,76.4z M100.31,7.04c0-0.9,0.71-1.66,1.55-1.66h10.5c0.84,0,1.55,0.76,1.55,1.66v9.04h-13.59L100.31,7.04L100.31,7.04z
		 M100.31,21.45h13.59v8.66h-13.59V21.45z M100.31,35.5h13.59V76.4h-13.59V35.5z M23.27,24.22c0-0.85,0.66-1.56,1.45-1.56h47.43
		c0.8,0,1.45,0.7,1.45,1.56v3.86c0,0.86-0.65,1.56-1.45,1.56H24.72c-0.78,0-1.45-0.72-1.45-1.56L23.27,24.22L23.27,24.22z
		 M6.21,122.62c0.78-2.06,1.54-4.07,2.28-6.03c0.44-1.16,0.87-2.3,1.3-3.42H37.2c1.38,0,2.5-1.2,2.5-2.69c0-1.48-1.12-2.69-2.5-2.69
		H11.81c8.82-23.6,14.21-40.91,15.32-72.78h42.59c1.12,31.87,6.51,49.19,15.32,72.78H59.65c-1.38,0-2.5,1.2-2.5,2.69
		c0,1.48,1.12,2.69,2.5,2.69h27.43c0.43,1.13,0.86,2.28,1.31,3.45c0.74,1.95,1.49,3.94,2.27,6H6.21z M123,122.62H96.05
		c-1.05-2.78-2.05-5.44-3.03-8.03c-4.72-12.46-8.55-22.56-11.48-32.81H123V122.62z"/>
	<path d="M48.42,107.8c-1.38,0-2.5,1.2-2.5,2.69s1.12,2.69,2.5,2.69h0.01c1.38,0,2.49-1.2,2.49-2.69S49.8,107.8,48.42,107.8z"/>
</g>
</svg>
