<?xml version="1.0" encoding="utf-8"?>
<!-- Generator: Adobe Illustrator 27.9.0, SVG Export Plug-In . SVG Version: 6.00 Build 0)  -->
<svg version="1.1" id="Layer_1" xmlns="http://www.w3.org/2000/svg" xmlns:xlink="http://www.w3.org/1999/xlink" x="0px" y="0px"
	 viewBox="0 0 128 128" style="enable-background:new 0 0 128 128;" xml:space="preserve">
<g>
	<path d="M64.04,26.14C43.19,26.07,26.12,43.11,26.2,63.98c0.07,20.94,16.95,37.8,37.82,37.76c20.88-0.02,37.74-16.9,37.76-37.78
		S84.97,26.23,64.04,26.14z M70.42,95.21c-1.1,0.21-2.47,0.88-3.24,0.34c-0.69-0.51-0.19-2.02-0.21-3.09
		c-0.04-2.79-0.02-5.58-0.02-8.36c0-3.46,0.02-6.9,0-10.37c-0.02-0.73,0.07-1.05,0.95-1.09c8.42-0.34,15.57-7.22,16.35-15.62
		c0.13-1.46,0.17-2.92,0.13-4.36c-0.06-2.1-1.18-3.14-3.27-3.26c-5.33-0.3-10.24,0.77-14.3,4.49c-0.84,0.77-1.63,1.57-2.26,2.49
		c-0.41,0.58-0.58,0.75-1.1,0.06c-2.83-3.74-6.55-6.04-11.19-6.81c-2.06-0.34-4.15-0.3-6.21-0.15c-1.29,0.09-2.28,1.16-2.41,2.62
		c-0.92,9.99,4.34,17.46,12.71,19.93c1.27,0.37,2.58,0.64,3.91,0.64c0.58,0,0.79,0.13,0.79,0.75c-0.02,7.17-0.04,14.33,0,21.48
		c0.02,1.01-0.54,0.82-1.09,0.75c-5.78-0.8-11.04-2.92-15.62-6.55C37.54,83.7,33.46,76.7,32.34,68.13
		c-2.21-16.82,8.91-32.04,25-35.4c17.7-3.72,34.73,7.6,38.04,25.41C98.67,75.71,86.96,91.9,70.42,95.21z M66.97,65.72
		c0.32-5.37,5.52-10.37,10.87-10.46c0.94-0.02,0.65,0.6,0.6,0.97c-0.51,4.1-2.49,7.24-6.14,9.24c-1.37,0.73-2.83,1.18-4.53,1.27
		C66.95,67.01,66.94,66.43,66.97,65.72z M59.88,66.73c-4.81-0.41-9.81-4.28-10.39-10.67c-0.06-0.62,0.09-0.86,0.8-0.79
		c5.54,0.49,9.97,4.68,10.68,10.12C61.15,66.75,61.12,66.78,59.88,66.73z M64.04,26.14C43.19,26.07,26.12,43.11,26.2,63.98
		c0.07,20.94,16.95,37.8,37.82,37.76c20.88-0.02,37.74-16.9,37.76-37.78S84.97,26.23,64.04,26.14z M70.42,95.21
		c-1.1,0.21-2.47,0.88-3.24,0.34c-0.69-0.51-0.19-2.02-0.21-3.09c-0.04-2.79-0.02-5.58-0.02-8.36c0-3.46,0.02-6.9,0-10.37
		c-0.02-0.73,0.07-1.05,0.95-1.09c8.42-0.34,15.57-7.22,16.35-15.62c0.13-1.46,0.17-2.92,0.13-4.36c-0.06-2.1-1.18-3.14-3.27-3.26
		c-5.33-0.3-10.24,0.77-14.3,4.49c-0.84,0.77-1.63,1.57-2.26,2.49c-0.41,0.58-0.58,0.75-1.1,0.06c-2.83-3.74-6.55-6.04-11.19-6.81
		c-2.06-0.34-4.15-0.3-6.21-0.15c-1.29,0.09-2.28,1.16-2.41,2.62c-0.92,9.99,4.34,17.46,12.71,19.93c1.27,0.37,2.58,0.64,3.91,0.64
		c0.58,0,0.79,0.13,0.79,0.75c-0.02,7.17-0.04,14.33,0,21.48c0.02,1.01-0.54,0.82-1.09,0.75c-5.78-0.8-11.04-2.92-15.62-6.55
		C37.54,83.7,33.46,76.7,32.34,68.13c-2.21-16.82,8.91-32.04,25-35.4c17.7-3.72,34.73,7.6,38.04,25.41
		C98.67,75.71,86.96,91.9,70.42,95.21z M66.97,65.72c0.32-5.37,5.52-10.37,10.87-10.46c0.94-0.02,0.65,0.6,0.6,0.97
		c-0.51,4.1-2.49,7.24-6.14,9.24c-1.37,0.73-2.83,1.18-4.53,1.27C66.95,67.01,66.94,66.43,66.97,65.72z M59.88,66.73
		c-4.81-0.41-9.81-4.28-10.39-10.67c-0.06-0.62,0.09-0.86,0.8-0.79c5.54,0.49,9.97,4.68,10.68,10.12
		C61.15,66.75,61.12,66.78,59.88,66.73z M64.04,26.14C43.19,26.07,26.12,43.11,26.2,63.98c0.07,20.94,16.95,37.8,37.82,37.76
		c20.88-0.02,37.74-16.9,37.76-37.78S84.97,26.23,64.04,26.14z M70.42,95.21c-1.1,0.21-2.47,0.88-3.24,0.34
		c-0.69-0.51-0.19-2.02-0.21-3.09c-0.04-2.79-0.02-5.58-0.02-8.36c0-3.46,0.02-6.9,0-10.37c-0.02-0.73,0.07-1.05,0.95-1.09
		c8.42-0.34,15.57-7.22,16.35-15.62c0.13-1.46,0.17-2.92,0.13-4.36c-0.06-2.1-1.18-3.14-3.27-3.26c-5.33-0.3-10.24,0.77-14.3,4.49
		c-0.84,0.77-1.63,1.57-2.26,2.49c-0.41,0.58-0.58,0.75-1.1,0.06c-2.83-3.74-6.55-6.04-11.19-6.81c-2.06-0.34-4.15-0.3-6.21-0.15
		c-1.29,0.09-2.28,1.16-2.41,2.62c-0.92,9.99,4.34,17.46,12.71,19.93c1.27,0.37,2.58,0.64,3.91,0.64c0.58,0,0.79,0.13,0.79,0.75
		c-0.02,7.17-0.04,14.33,0,21.48c0.02,1.01-0.54,0.82-1.09,0.75c-5.78-0.8-11.04-2.92-15.62-6.55C37.54,83.7,33.46,76.7,32.34,68.13
		c-2.21-16.82,8.91-32.04,25-35.4c17.7-3.72,34.73,7.6,38.04,25.41C98.67,75.71,86.96,91.9,70.42,95.21z M66.97,65.72
		c0.32-5.37,5.52-10.37,10.87-10.46c0.94-0.02,0.65,0.6,0.6,0.97c-0.51,4.1-2.49,7.24-6.14,9.24c-1.37,0.73-2.83,1.18-4.53,1.27
		C66.95,67.01,66.94,66.43,66.97,65.72z M59.88,66.73c-4.81-0.41-9.81-4.28-10.39-10.67c-0.06-0.62,0.09-0.86,0.8-0.79
		c5.54,0.49,9.97,4.68,10.68,10.12C61.15,66.75,61.12,66.78,59.88,66.73z M64.04,26.14C43.19,26.07,26.12,43.11,26.2,63.98
		c0.07,20.94,16.95,37.8,37.82,37.76c20.88-0.02,37.74-16.9,37.76-37.78S84.97,26.23,64.04,26.14z M70.42,95.21
		c-1.1,0.21-2.47,0.88-3.24,0.34c-0.69-0.51-0.19-2.02-0.21-3.09c-0.04-2.79-0.02-5.58-0.02-8.36c0-3.46,0.02-6.9,0-10.37
		c-0.02-0.73,0.07-1.05,0.95-1.09c8.42-0.34,15.57-7.22,16.35-15.62c0.13-1.46,0.17-2.92,0.13-4.36c-0.06-2.1-1.18-3.14-3.27-3.26
		c-5.33-0.3-10.24,0.77-14.3,4.49c-0.84,0.77-1.63,1.57-2.26,2.49c-0.41,0.58-0.58,0.75-1.1,0.06c-2.83-3.74-6.55-6.04-11.19-6.81
		c-2.06-0.34-4.15-0.3-6.21-0.15c-1.29,0.09-2.28,1.16-2.41,2.62c-0.92,9.99,4.34,17.46,12.71,19.93c1.27,0.37,2.58,0.64,3.91,0.64
		c0.58,0,0.79,0.13,0.79,0.75c-0.02,7.17-0.04,14.33,0,21.48c0.02,1.01-0.54,0.82-1.09,0.75c-5.78-0.8-11.04-2.92-15.62-6.55
		C37.54,83.7,33.46,76.7,32.34,68.13c-2.21-16.82,8.91-32.04,25-35.4c17.7-3.72,34.73,7.6,38.04,25.41
		C98.67,75.71,86.96,91.9,70.42,95.21z M66.97,65.72c0.32-5.37,5.52-10.37,10.87-10.46c0.94-0.02,0.65,0.6,0.6,0.97
		c-0.51,4.1-2.49,7.24-6.14,9.24c-1.37,0.73-2.83,1.18-4.53,1.27C66.95,67.01,66.94,66.43,66.97,65.72z M59.88,66.73
		c-4.81-0.41-9.81-4.28-10.39-10.67c-0.06-0.62,0.09-0.86,0.8-0.79c5.54,0.49,9.97,4.68,10.68,10.12
		C61.15,66.75,61.12,66.78,59.88,66.73z M121.95,123.05c-1.48-2.96-2.94-5.89-4.42-8.83c-0.49-0.95-0.71-1.93-0.71-2.99V16.6
		c0-1.03,0.22-1.96,0.67-2.88c1.53-3.01,3.05-6.03,4.53-9.06c1.05-2.17,0.37-3.82-1.83-4.66H7.81c-0.86,0.28-1.61,0.67-2,1.55
		c-0.47,1.09-0.37,2.1,0.15,3.12c1.5,2.98,2.96,5.95,4.47,8.93c0.51,0.99,0.73,2,0.73,3.13v94.38c0,1.14-0.22,2.21-0.75,3.24
		c-1.5,2.92-2.96,5.88-4.42,8.81c-0.45,0.88-0.67,1.78-0.34,2.77c0.51,1.5,1.44,2.06,3.41,2.06h109.86c0.22,0,0.43,0.02,0.64,0
		c1.52-0.06,2.56-0.94,2.88-2.43C122.64,124.64,122.34,123.84,121.95,123.05z M13.55,122.02c0.94-1.87,1.83-3.67,2.73-5.45
		c0.11-0.24,0.32-0.24,0.52-0.24c0.28-0.02,0.58-0.02,0.86-0.02c30.88,0,61.73,0.02,92.61-0.02c1.03,0,1.55,0.3,1.95,1.22
		c0.64,1.48,1.42,2.9,2.21,4.51H13.55z M17.5,109.17c0.04-30.13,0.04-60.25,0-90.4c0-1.12,0.3-1.31,1.37-1.31
		c30.09,0.02,60.18,0.02,90.27,0c1.05,0,1.35,0.19,1.35,1.33c-0.04,30.09-0.04,60.18,0,90.27c0,1.16-0.32,1.38-1.42,1.38
		c-15.06-0.04-30.13-0.04-45.19-0.04c-15.03,0-30.05,0-45.08,0.04C17.78,110.44,17.5,110.23,17.5,109.17z M111.71,11.3
		c-0.15,0.3-0.41,0.24-0.64,0.26h-0.75c-30.88,0-61.73,0-92.61,0.02c-1.01,0-1.55-0.28-1.96-1.22c-0.64-1.48-1.4-2.88-2.21-4.49
		h100.88C113.49,7.73,112.61,9.52,111.71,11.3z M64.02,101.74c20.88-0.02,37.74-16.9,37.76-37.78s-16.8-37.72-37.74-37.82
		C43.19,26.07,26.12,43.11,26.2,63.98C26.27,84.92,43.15,101.78,64.02,101.74z M57.34,32.73c17.7-3.72,34.73,7.6,38.04,25.41
		c3.29,17.57-8.42,33.76-24.96,37.07c-1.1,0.21-2.47,0.88-3.24,0.34c-0.69-0.51-0.19-2.02-0.21-3.09c-0.04-2.79-0.02-5.58-0.02-8.36
		c0-3.46,0.02-6.9,0-10.37c-0.02-0.73,0.07-1.05,0.95-1.09c8.42-0.34,15.57-7.22,16.35-15.62c0.13-1.46,0.17-2.92,0.13-4.36
		c-0.06-2.1-1.18-3.14-3.27-3.26c-5.33-0.3-10.24,0.77-14.3,4.49c-0.84,0.77-1.63,1.57-2.26,2.49c-0.41,0.58-0.58,0.75-1.1,0.06
		c-2.83-3.74-6.55-6.04-11.19-6.81c-2.06-0.34-4.15-0.3-6.21-0.15c-1.29,0.09-2.28,1.16-2.41,2.62
		c-0.92,9.99,4.34,17.46,12.71,19.93c1.27,0.37,2.58,0.64,3.91,0.64c0.58,0,0.79,0.13,0.79,0.75c-0.02,7.17-0.04,14.33,0,21.48
		c0.02,1.01-0.54,0.82-1.09,0.75c-5.78-0.8-11.04-2.92-15.62-6.55C37.54,83.7,33.46,76.7,32.34,68.13
		C30.13,51.31,41.24,36.1,57.34,32.73z M66.97,65.72c0.32-5.37,5.52-10.37,10.87-10.46c0.94-0.02,0.65,0.6,0.6,0.97
		c-0.51,4.1-2.49,7.24-6.14,9.24c-1.37,0.73-2.83,1.18-4.53,1.27C66.95,67.01,66.94,66.43,66.97,65.72z M59.88,66.73
		c-4.81-0.41-9.81-4.28-10.39-10.67c-0.06-0.62,0.09-0.86,0.8-0.79c5.54,0.49,9.97,4.68,10.68,10.12
		C61.15,66.75,61.12,66.78,59.88,66.73z M64.04,26.14C43.19,26.07,26.12,43.11,26.2,63.98c0.07,20.94,16.95,37.8,37.82,37.76
		c20.88-0.02,37.74-16.9,37.76-37.78S84.97,26.23,64.04,26.14z M70.42,95.21c-1.1,0.21-2.47,0.88-3.24,0.34
		c-0.69-0.51-0.19-2.02-0.21-3.09c-0.04-2.79-0.02-5.58-0.02-8.36c0-3.46,0.02-6.9,0-10.37c-0.02-0.73,0.07-1.05,0.95-1.09
		c8.42-0.34,15.57-7.22,16.35-15.62c0.13-1.46,0.17-2.92,0.13-4.36c-0.06-2.1-1.18-3.14-3.27-3.26c-5.33-0.3-10.24,0.77-14.3,4.49
		c-0.84,0.77-1.63,1.57-2.26,2.49c-0.41,0.58-0.58,0.75-1.1,0.06c-2.83-3.74-6.55-6.04-11.19-6.81c-2.06-0.34-4.15-0.3-6.21-0.15
		c-1.29,0.09-2.28,1.16-2.41,2.62c-0.92,9.99,4.34,17.46,12.71,19.93c1.27,0.37,2.58,0.64,3.91,0.64c0.58,0,0.79,0.13,0.79,0.75
		c-0.02,7.17-0.04,14.33,0,21.48c0.02,1.01-0.54,0.82-1.09,0.75c-5.78-0.8-11.04-2.92-15.62-6.55C37.54,83.7,33.46,76.7,32.34,68.13
		c-2.21-16.82,8.91-32.04,25-35.4c17.7-3.72,34.73,7.6,38.04,25.41C98.67,75.71,86.96,91.9,70.42,95.21z M66.97,65.72
		c0.32-5.37,5.52-10.37,10.87-10.46c0.94-0.02,0.65,0.6,0.6,0.97c-0.51,4.1-2.49,7.24-6.14,9.24c-1.37,0.73-2.83,1.18-4.53,1.27
		C66.95,67.01,66.94,66.43,66.97,65.72z M59.88,66.73c-4.81-0.41-9.81-4.28-10.39-10.67c-0.06-0.62,0.09-0.86,0.8-0.79
		c5.54,0.49,9.97,4.68,10.68,10.12C61.15,66.75,61.12,66.78,59.88,66.73z M64.04,26.14C43.19,26.07,26.12,43.11,26.2,63.98
		c0.07,20.94,16.95,37.8,37.82,37.76c20.88-0.02,37.74-16.9,37.76-37.78S84.97,26.23,64.04,26.14z M70.42,95.21
		c-1.1,0.21-2.47,0.88-3.24,0.34c-0.69-0.51-0.19-2.02-0.21-3.09c-0.04-2.79-0.02-5.58-0.02-8.36c0-3.46,0.02-6.9,0-10.37
		c-0.02-0.73,0.07-1.05,0.95-1.09c8.42-0.34,15.57-7.22,16.35-15.62c0.13-1.46,0.17-2.92,0.13-4.36c-0.06-2.1-1.18-3.14-3.27-3.26
		c-5.33-0.3-10.24,0.77-14.3,4.49c-0.84,0.77-1.63,1.57-2.26,2.49c-0.41,0.58-0.58,0.75-1.1,0.06c-2.83-3.74-6.55-6.04-11.19-6.81
		c-2.06-0.34-4.15-0.3-6.21-0.15c-1.29,0.09-2.28,1.16-2.41,2.62c-0.92,9.99,4.34,17.46,12.71,19.93c1.27,0.37,2.58,0.64,3.91,0.64
		c0.58,0,0.79,0.13,0.79,0.75c-0.02,7.17-0.04,14.33,0,21.48c0.02,1.01-0.54,0.82-1.09,0.75c-5.78-0.8-11.04-2.92-15.62-6.55
		C37.54,83.7,33.46,76.7,32.34,68.13c-2.21-16.82,8.91-32.04,25-35.4c17.7-3.72,34.73,7.6,38.04,25.41
		C98.67,75.71,86.96,91.9,70.42,95.21z M66.97,65.72c0.32-5.37,5.52-10.37,10.87-10.46c0.94-0.02,0.65,0.6,0.6,0.97
		c-0.51,4.1-2.49,7.24-6.14,9.24c-1.37,0.73-2.83,1.18-4.53,1.27C66.95,67.01,66.94,66.43,66.97,65.72z M59.88,66.73
		c-4.81-0.41-9.81-4.28-10.39-10.67c-0.06-0.62,0.09-0.86,0.8-0.79c5.54,0.49,9.97,4.68,10.68,10.12
		C61.15,66.75,61.12,66.78,59.88,66.73z M64.04,26.14C43.19,26.07,26.12,43.11,26.2,63.98c0.07,20.94,16.95,37.8,37.82,37.76
		c20.88-0.02,37.74-16.9,37.76-37.78S84.97,26.23,64.04,26.14z M70.42,95.21c-1.1,0.21-2.47,0.88-3.24,0.34
		c-0.69-0.51-0.19-2.02-0.21-3.09c-0.04-2.79-0.02-5.58-0.02-8.36c0-3.46,0.02-6.9,0-10.37c-0.02-0.73,0.07-1.05,0.95-1.09
		c8.42-0.34,15.57-7.22,16.35-15.62c0.13-1.46,0.17-2.92,0.13-4.36c-0.06-2.1-1.18-3.14-3.27-3.26c-5.33-0.3-10.24,0.77-14.3,4.49
		c-0.84,0.77-1.63,1.57-2.26,2.49c-0.41,0.58-0.58,0.75-1.1,0.06c-2.83-3.74-6.55-6.04-11.19-6.81c-2.06-0.34-4.15-0.3-6.21-0.15
		c-1.29,0.09-2.28,1.16-2.41,2.62c-0.92,9.99,4.34,17.46,12.71,19.93c1.27,0.37,2.58,0.64,3.91,0.64c0.58,0,0.79,0.13,0.79,0.75
		c-0.02,7.17-0.04,14.33,0,21.48c0.02,1.01-0.54,0.82-1.09,0.75c-5.78-0.8-11.04-2.92-15.62-6.55C37.54,83.7,33.46,76.7,32.34,68.13
		c-2.21-16.82,8.91-32.04,25-35.4c17.7-3.72,34.73,7.6,38.04,25.41C98.67,75.71,86.96,91.9,70.42,95.21z M66.97,65.72
		c0.32-5.37,5.52-10.37,10.87-10.46c0.94-0.02,0.65,0.6,0.6,0.97c-0.51,4.1-2.49,7.24-6.14,9.24c-1.37,0.73-2.83,1.18-4.53,1.27
		C66.95,67.01,66.94,66.43,66.97,65.72z M59.88,66.73c-4.81-0.41-9.81-4.28-10.39-10.67c-0.06-0.62,0.09-0.86,0.8-0.79
		c5.54,0.49,9.97,4.68,10.68,10.12C61.15,66.75,61.12,66.78,59.88,66.73z M64.04,26.14C43.19,26.07,26.12,43.11,26.2,63.98
		c0.07,20.94,16.95,37.8,37.82,37.76c20.88-0.02,37.74-16.9,37.76-37.78S84.97,26.23,64.04,26.14z M70.42,95.21
		c-1.1,0.21-2.47,0.88-3.24,0.34c-0.69-0.51-0.19-2.02-0.21-3.09c-0.04-2.79-0.02-5.58-0.02-8.36c0-3.46,0.02-6.9,0-10.37
		c-0.02-0.73,0.07-1.05,0.95-1.09c8.42-0.34,15.57-7.22,16.35-15.62c0.13-1.46,0.17-2.92,0.13-4.36c-0.06-2.1-1.18-3.14-3.27-3.26
		c-5.33-0.3-10.24,0.77-14.3,4.49c-0.84,0.77-1.63,1.57-2.26,2.49c-0.41,0.58-0.58,0.75-1.1,0.06c-2.83-3.74-6.55-6.04-11.19-6.81
		c-2.06-0.34-4.15-0.3-6.21-0.15c-1.29,0.09-2.28,1.16-2.41,2.62c-0.92,9.99,4.34,17.46,12.71,19.93c1.27,0.37,2.58,0.64,3.91,0.64
		c0.58,0,0.79,0.13,0.79,0.75c-0.02,7.17-0.04,14.33,0,21.48c0.02,1.01-0.54,0.82-1.09,0.75c-5.78-0.8-11.04-2.92-15.62-6.55
		C37.54,83.7,33.46,76.7,32.34,68.13c-2.21-16.82,8.91-32.04,25-35.4c17.7-3.72,34.73,7.6,38.04,25.41
		C98.67,75.71,86.96,91.9,70.42,95.21z M66.97,65.72c0.32-5.37,5.52-10.37,10.87-10.46c0.94-0.02,0.65,0.6,0.6,0.97
		c-0.51,4.1-2.49,7.24-6.14,9.24c-1.37,0.73-2.83,1.18-4.53,1.27C66.95,67.01,66.94,66.43,66.97,65.72z M59.88,66.73
		c-4.81-0.41-9.81-4.28-10.39-10.67c-0.06-0.62,0.09-0.86,0.8-0.79c5.54,0.49,9.97,4.68,10.68,10.12
		C61.15,66.75,61.12,66.78,59.88,66.73z"/>
	<path d="M64.04,26.14C43.19,26.07,26.12,43.11,26.2,63.98c0.07,20.94,16.95,37.8,37.82,37.76c20.88-0.02,37.74-16.9,37.76-37.78
		S84.97,26.23,64.04,26.14z M70.42,95.21c-1.1,0.21-2.47,0.88-3.24,0.34c-0.69-0.51-0.19-2.02-0.21-3.09
		c-0.04-2.79-0.02-5.58-0.02-8.36c0-3.46,0.02-6.9,0-10.37c-0.02-0.73,0.07-1.05,0.95-1.09c8.42-0.34,15.57-7.22,16.35-15.62
		c0.13-1.46,0.17-2.92,0.13-4.36c-0.06-2.1-1.18-3.14-3.27-3.26c-5.33-0.3-10.24,0.77-14.3,4.49c-0.84,0.77-1.63,1.57-2.26,2.49
		c-0.41,0.58-0.58,0.75-1.1,0.06c-2.83-3.74-6.55-6.04-11.19-6.81c-2.06-0.34-4.15-0.3-6.21-0.15c-1.29,0.09-2.28,1.16-2.41,2.62
		c-0.92,9.99,4.34,17.46,12.71,19.93c1.27,0.37,2.58,0.64,3.91,0.64c0.58,0,0.79,0.13,0.79,0.75c-0.02,7.17-0.04,14.33,0,21.48
		c0.02,1.01-0.54,0.82-1.09,0.75c-5.78-0.8-11.04-2.92-15.62-6.55C37.54,83.7,33.46,76.7,32.34,68.13
		c-2.21-16.82,8.91-32.04,25-35.4c17.7-3.72,34.73,7.6,38.04,25.41C98.67,75.71,86.96,91.9,70.42,95.21z M66.97,65.72
		c0.32-5.37,5.52-10.37,10.87-10.46c0.94-0.02,0.65,0.6,0.6,0.97c-0.51,4.1-2.49,7.24-6.14,9.24c-1.37,0.73-2.83,1.18-4.53,1.27
		C66.95,67.01,66.94,66.43,66.97,65.72z M59.88,66.73c-4.81-0.41-9.81-4.28-10.39-10.67c-0.06-0.62,0.09-0.86,0.8-0.79
		c5.54,0.49,9.97,4.68,10.68,10.12C61.15,66.75,61.12,66.78,59.88,66.73z"/>
	<path d="M64.04,26.14C43.19,26.07,26.12,43.11,26.2,63.98c0.07,20.94,16.95,37.8,37.82,37.76c20.88-0.02,37.74-16.9,37.76-37.78
		S84.97,26.23,64.04,26.14z M70.42,95.21c-1.1,0.21-2.47,0.88-3.24,0.34c-0.69-0.51-0.19-2.02-0.21-3.09
		c-0.04-2.79-0.02-5.58-0.02-8.36c0-3.46,0.02-6.9,0-10.37c-0.02-0.73,0.07-1.05,0.95-1.09c8.42-0.34,15.57-7.22,16.35-15.62
		c0.13-1.46,0.17-2.92,0.13-4.36c-0.06-2.1-1.18-3.14-3.27-3.26c-5.33-0.3-10.24,0.77-14.3,4.49c-0.84,0.77-1.63,1.57-2.26,2.49
		c-0.41,0.58-0.58,0.75-1.1,0.06c-2.83-3.74-6.55-6.04-11.19-6.81c-2.06-0.34-4.15-0.3-6.21-0.15c-1.29,0.09-2.28,1.16-2.41,2.62
		c-0.92,9.99,4.34,17.46,12.71,19.93c1.27,0.37,2.58,0.64,3.91,0.64c0.58,0,0.79,0.13,0.79,0.75c-0.02,7.17-0.04,14.33,0,21.48
		c0.02,1.01-0.54,0.82-1.09,0.75c-5.78-0.8-11.04-2.92-15.62-6.55C37.54,83.7,33.46,76.7,32.34,68.13
		c-2.21-16.82,8.91-32.04,25-35.4c17.7-3.72,34.73,7.6,38.04,25.41C98.67,75.71,86.96,91.9,70.42,95.21z M66.97,65.72
		c0.32-5.37,5.52-10.37,10.87-10.46c0.94-0.02,0.65,0.6,0.6,0.97c-0.51,4.1-2.49,7.24-6.14,9.24c-1.37,0.73-2.83,1.18-4.53,1.27
		C66.95,67.01,66.94,66.43,66.97,65.72z M59.88,66.73c-4.81-0.41-9.81-4.28-10.39-10.67c-0.06-0.62,0.09-0.86,0.8-0.79
		c5.54,0.49,9.97,4.68,10.68,10.12C61.15,66.75,61.12,66.78,59.88,66.73z"/>
</g>
</svg>
