<?xml version="1.0" encoding="utf-8"?>
<!-- Generator: Adobe Illustrator 27.9.0, SVG Export Plug-In . SVG Version: 6.00 Build 0)  -->
<svg version="1.1" id="Layer_1" xmlns="http://www.w3.org/2000/svg" xmlns:xlink="http://www.w3.org/1999/xlink" x="0px" y="0px"
	 viewBox="0 0 128 128" style="enable-background:new 0 0 128 128;" xml:space="preserve">
<g>
	<g>
		<path d="M56.87,85.68h27.62c2.12,0,3.69-1.98,3.2-4.05L81.4,55.17c-0.35-1.48-1.68-2.53-3.2-2.53H63.81c-1.5,0-2.8,1.01-3.18,2.46
			l-6.94,26.46C53.14,83.64,54.71,85.68,56.87,85.68z"/>
		<path d="M22.43,105.75c-5.35,5.11-8.07,12.59-8.07,22.25h8.07c0-7.32,1.85-12.82,5.5-16.34c4.13-3.98,13.67-4.44,16.26-4.48h14.65
			v6.62c0,0-14.9,1.04-20.8,14.21h32.58h32.58c-5.89-13.17-20.8-14.21-20.8-14.21v-6.62h10.22V99.1H82.41v-3.93
			c0-1.82-1.47-3.29-3.29-3.29h-8.49h-8.49c-1.82,0-3.29,1.47-3.29,3.29v3.93H39.72C38.48,99.07,29.44,99.06,22.43,105.75z
			 M44.85,107.17l-0.4,0C44.68,107.16,44.82,107.17,44.85,107.17z"/>
		<path d="M103.09,113.01l8.14-2.25c1.43-0.39,2.41-1.69,2.41-3.17v-8.91c0-1.48-0.99-2.78-2.41-3.17l-8.14-2.25
			c-2.1-0.58-4.17,1-4.17,3.17v13.42C98.92,112.02,100.99,113.6,103.09,113.01z"/>
		<path d="M54.65,38.71c1.14,4.4,5.03,7.45,9.46,7.45h12.57c4.13,0,7.81-2.65,9.21-6.63c1.88-5.31,2.57-13.57-3.76-23.82
			C75.37,4.78,64.49,1.15,56.72,0.01c-1.24-0.18-1.78,1.56-0.66,2.14c9.53,5.01,12.71,15.69,13.75,20.05c1.04,4.4-5.31,5.7-5.34,0
			c-0.02-3.14-2.21-5.7-4.58-7.56c-0.91-0.71-2.13,0.28-1.69,1.36c0.96,2.39,1.02,5.7-1.7,9.96C53.62,30.48,53.7,35.06,54.65,38.71z
			"/>
	</g>
</g>
</svg>
