<?xml version="1.0" encoding="utf-8"?>
<!-- Generator: Adobe Illustrator 27.9.0, SVG Export Plug-In . SVG Version: 6.00 Build 0)  -->
<svg version="1.1" id="Layer_1" xmlns="http://www.w3.org/2000/svg" xmlns:xlink="http://www.w3.org/1999/xlink" x="0px" y="0px"
	 viewBox="0 0 128 128" style="enable-background:new 0 0 128 128;" xml:space="preserve">
<g>
	<path d="M88.56,30.1c3.5-0.39,6.16-3.35,6.16-6.88V6.92C94.72,3.1,91.62,0,87.8,0H40.2c-3.82,0.01-6.91,3.1-6.92,6.92v16.31
		c0,3.82,3.1,6.91,6.92,6.92h0.98c-1.5,0.94-2.92,2-4.24,3.18c-5.06,4.5-8.03,10.01-8.17,15.13v0.05v70.22
		c0,4.6,4.55,9.29,9.01,9.29h53.58c2.19,0,4.24-1.11,5.77-3.13c1.34-1.77,2.08-3.93,2.11-6.15V48.49
		C99.23,41.36,94.27,34.15,88.56,30.1L88.56,30.1z M85.41,3.35h2.39c1.97,0,3.57,1.6,3.57,3.57v16.31c0,1.97-1.6,3.57-3.57,3.57
		h-2.39V3.35z M75.54,3.35h6.52V26.8h-6.52V3.35z M65.39,3.35h6.8V26.8h-6.8V3.35z M55.8,3.35h6.24V26.8H55.8L55.8,3.35z
		 M45.65,3.35h6.8V26.8h-6.8V3.35z M40.2,26.8c-1.97,0-3.57-1.6-3.57-3.57V6.92c0-1.97,1.6-3.57,3.57-3.57h2.11V26.8H40.2z
		 M95.88,102.03H49.41v-42.9h46.48V102.03z M95.88,55.78H47.73c-0.92,0-1.67,0.75-1.67,1.67l0,0v46.25c0,0.92,0.75,1.67,1.67,1.67
		h48.15v13.34c0,2.69-2.02,5.94-4.53,5.94H37.77c-2.59,0-5.66-3.22-5.66-5.94v-70.2c0.12-4.19,2.69-8.82,7.05-12.7
		c3.82-3.39,8.48-5.68,11.61-5.68h29.04c5.9,0,16.07,9.07,16.07,18.35V55.78z"/>
	<path d="M58.82,87.05h8.48v8.48c0,1.24,1,2.24,2.24,2.24h7.05c1.24,0,2.24-1,2.24-2.24v-8.48h8.48c1.24,0,2.24-1,2.24-2.24v-7.05
		c0-1.24-1-2.24-2.24-2.24h-8.48v-8.48c0-1.24-1-2.24-2.24-2.24h-7.05c-1.24,0-2.24,1-2.24,2.24v8.48h-8.48
		c-1.23,0-2.24,1-2.24,2.24v7.05C56.59,86.04,57.59,87.04,58.82,87.05z M59.93,78.87h8.48c1.24,0,2.24-1,2.24-2.24v-8.48h4.83v8.48
		c0,1.23,1,2.24,2.24,2.24h8.48v4.83h-8.48c-1.24,0-2.24,1-2.24,2.24v8.48h-4.83v-8.48c0-1.24-1-2.24-2.24-2.24h-8.48L59.93,78.87z"
		/>
	<path d="M38.83,62.34c-0.92,0-1.67,0.75-1.67,1.67v40.26c0,0.92,0.75,1.67,1.67,1.67s1.67-0.75,1.67-1.67V64.02
		C40.5,63.09,39.76,62.34,38.83,62.34L38.83,62.34z"/>
	<path d="M38.66,60.17c0.92,0,1.67-0.75,1.67-1.67v-1.2c0-0.92-0.75-1.67-1.67-1.67c-0.92,0-1.67,0.75-1.67,1.67v1.2
		C36.99,59.42,37.74,60.17,38.66,60.17z"/>
</g>
</svg>
