<?xml version="1.0" encoding="utf-8"?>
<!-- Generator: Adobe Illustrator 28.0.0, SVG Export Plug-In . SVG Version: 6.00 Build 0)  -->
<svg version="1.1" id="Layer_1" xmlns="http://www.w3.org/2000/svg" xmlns:xlink="http://www.w3.org/1999/xlink" x="0px" y="0px"
	 viewBox="0 0 128 128" style="enable-background:new 0 0 128 128;" xml:space="preserve">
<g id="jUkQK2.tif">
	<g>
		<path d="M88.6,128c-10,0-20,0-30,0c-1.1-3.6,0-5.2,4-5.1c5.5,0.2,11-0.4,16.4,0.2c5.5,0.5,7.5-1.9,7.9-7.1c-25,0-50,0-74.9,0
			c0.2,5.6,2.9,7.5,8.3,7c5.4-0.4,10.9-0.1,16.4-0.1c3.9,0,4.7,1.8,2.9,5c-9.7,0-19.3,0-29,0c-3-7.8-8.7-15.2-1.9-23.9
			c7.6-9.7,7.1-19-1.8-27.8C5,74.2,5,71.8,6.3,69c2.6-5.6,5-11.2,7.1-17c0.6-1.8,0.8-4.5-0.1-5.9c-4.2-6.3-4.1-12.2-0.8-19
			c2-4.1,4-5.7,8.5-5.5c9.1,0.3,18.2,0.1,27.9,0.1C45.7,14.1,44.9,7.4,52,2.5c4.7-3.3,11.8-3.3,16.4,0.1c7,5.1,6.3,11.7,2.7,19.2
			c6.6,0,12.6-0.3,18.5,0.2c1.8,0.1,4.2,1.8,5,3.4c2.9,6,6.5,12.1,3.5,17.7c6.1,4.4,12.3,7.5,16.7,12.3c3.6,3.9,5.2,9.8,7.7,14.7
			c0,3.3,0,6.7,0,10c-0.4,1-0.9,2-1.2,3.1c-3.5,10.9-10.6,18.1-21.6,21.4c-2,0.6-4.1,0.9-4.8,1.1c-1.4,5.9-2.5,10.7-3.8,15.5
			C90.6,123.5,89.5,125.7,88.6,128z M64.1,61.4c-3.8-3.1-6.4-3-8.4,1c-1,1.9-2.2,3.8-3.8,5.3c-1.1,1-2.9,1.2-4.4,1.8
			c0.1-1.6-0.3-3.5,0.4-4.8c1.4-2.8,3.4-5.2,5.4-8c-1.6-0.7-2.8-1.1-3.9-1.8c-5-3-9.4-3.1-13.4,1.8c-4.7,5.8-10.5,6.9-17.2,3.7
			c-0.8-0.4-1.9-0.2-2.7-0.3c-6.3,12.3-6.3,12.5,3.3,24.8c2.5-2.9,4.9-6,7.6-8.6c0.7-0.7,2.5-0.3,3.8-0.4c0,1.2,0.5,2.7-0.1,3.5
			c-2.1,3-5,5.5-6.8,8.6c-4.2,7-8,14.3-12.4,22c26.5,0,51.7,0,76.9,0c0.7-3.4-0.9-4.2-3.7-5.4c-5.4-2.3-10.7-5.3-15.2-9
			c-2.8-2.3-4.6-3.2-7.8-0.8c1.7,2,3.6,3.9,5,6.1c0.6,1,0.1,2.6,0.1,3.9c-1.3-0.2-2.9,0-3.9-0.7c-1.3-0.9-2.3-2.4-3.3-3.7
			c-2.3-3.4-5-4.5-8.8-2.5c-2.6,1.4-4.7,0.8-6.6-1.3c-1-1.1-2.2-1.9-3.4-2.8c-2.4,1.8-4.4,3.6-6.7,4.8c-1.3,0.7-3.1,0.2-4.7,0.2
			c0.6-1.5,0.8-3.3,1.9-4.4c1.5-1.7,3.6-2.8,4.4-3.5c0-2.9,0-4.8,0-6.7c1.8,0.7,3.9,1.1,5.5,2.2c2,1.4,3.6,3.5,5.5,5
			c0.9,0.7,2.4,1.4,3.4,1.1c4.6-1.4,9-3.1,13.8-4.7C60,78.8,60.3,70.1,64.1,61.4z M91.6,100.2c14.1,0,25.4-11,25.6-25.1
			c0.2-14.1-11.4-25.8-25.6-25.7c-14,0.1-25.2,11.3-25.2,25.5C66.4,89.1,77.4,100.2,91.6,100.2z M57.8,52.6c0.9,0.4,2.7,0.8,4.2,1.7
			c3.5,2.1,6,1.5,8.8-1.6c4.9-5.3,11.5-7.8,18.7-8.4c3.5-0.3,3.6-1.9,2.9-4.4c-25.4,0-50.5,0-76.2,0c2.3,5.1,6,9.4,2.1,14.3
			c5.7,3.7,10.3,3,14.5-1.7c1.4-1.6,3.4-2.7,5-4.2c2-2,4.1-2.7,6.7-1.1c3.5,2.2,6.6,1.7,10.2-0.3c2.2-1.2,4.9-5,7.4-1
			C62.7,46.8,59.6,49.9,57.8,52.6z M92.1,34c-0.4-5.7-3.2-7.3-8.5-7.2C63.8,27.2,44,27,24.3,27c-6.8,0-6.9,0.1-7.7,7
			C41.6,34,66.7,34,92.1,34z M59.3,21.7c5.3,0,9.4-4,9.4-9.1c0-4-3.9-7.4-8.5-7.5c-4.5,0-8.5,3.4-8.6,7.3
			C51.5,17.6,54.9,21.7,59.3,21.7z"/>
		<path d="M107.1,79.6c0.7,1.8,2.4,4,1.9,5.4c-0.5,1.3-3.2,2.5-5,2.6c-10.2,0.5-10.4,0.4-9.9-9.9c0.1-1.8,1.6-3.5,2.5-5.2
			c1.3,1.5,2.5,2.9,3.5,4.1c1.4-3.4,1-4.9-2.1-8.5c-0.9-1.1-1-2.9-1.5-4.4c1.7,0.3,4,0,5.1,1c5.2,4.7,5.9,10.5,2.9,16.8
			C105.5,80.7,106.3,80.1,107.1,79.6z"/>
		<path d="M83.1,72.3c-1.3,4.2-0.2,7.2,2.7,10c0.9,0.8,0.7,2.7,1,4.1c-1.5-0.1-3.3,0.3-4.4-0.4c-5.1-3.3-6.3-9.3-4-16.8
			c-1.5-1.7-2.8-3.2-4-4.7c1.9-0.8,3.8-1.8,5.9-2.3c1.6-0.4,3.3,0,4.9-0.1c2.9,0,4.3,1.3,4.3,4.2c0,2.2,0.3,4.4-0.1,6.4
			c-0.3,1.6-1.4,3-2.2,4.4c-1.1-1.2-2.1-2.4-3.2-3.6C83.7,73.4,83.5,73,83.1,72.3z"/>
	</g>
</g>
</svg>
