<?xml version="1.0" encoding="utf-8"?>
<!-- Generator: Adobe Illustrator 28.0.0, SVG Export Plug-In . SVG Version: 6.00 Build 0)  -->
<svg version="1.1" id="Layer_1" xmlns="http://www.w3.org/2000/svg" xmlns:xlink="http://www.w3.org/1999/xlink" x="0px" y="0px"
	 viewBox="0 0 128 128" style="enable-background:new 0 0 128 128;" xml:space="preserve">
<g id="Jhx7Im.tif">
	<g>
		<path d="M96,0c1.3,2.7,2.5,5.4,4,8.6c8.6,1.5,10.7,4,10.7,13.8c0,11,0.1,22-0.1,32.9c0,1.8-0.8,3.6-1.2,5.4
			c-0.8-0.1-1.5-0.2-2.3-0.2c0-11.1,0-22.2,0-33.5c-12.5,0-23.9,0-36,0c0,1.6,0,3.2,0,4.8c0,27.8,0,55.6,0,83.4
			c0,7.2,1.5,8.7,8.7,8.8c6.1,0,12.3,0,18.4,0c6.8,0,8.4-1.5,8.4-8.6c0-15.1,0-30.3,0-45.4c0-1.9,0.4-3.7,0.6-5.6
			c0.5-0.1,1.1-0.2,1.6-0.3c0.6,1.4,1.6,2.8,1.6,4.2c0.1,16.5,0.2,33,0,49.4c-0.1,6.8-4,10.2-10.8,10.2c-7.3,0-14.6,0-21.9,0
			c-6.8,0-10.7-3.6-10.7-10.3c-0.1-32.8-0.1-65.6,0-98.3c0-6.8,3.4-9.7,11-10.5C79.2,5.8,80.1,2.9,81,0C86,0,91,0,96,0z M71.5,22.2
			c11.8,0,23.3,0,34.7,0c0.9-7.3-0.8-9.3-7.4-9.4c-6.5,0-12.9,0-19.4,0C72.4,12.9,70.8,14.7,71.5,22.2z M83.3,8.6
			c3.9,0,7.4,0,11.3,0c-0.1-1.7-0.2-3.1-0.3-4.3c-4,0-7.5,0-11.3,0C83.2,6,83.2,7.2,83.3,8.6z"/>
		<path d="M47.2,0c0.9,2.8,1.7,5.5,2.7,8.5c9.4,1.8,11.2,4,11.2,14.3c0,20.6,0,41.3,0,61.9c0,1.3,0.2,2.7-0.2,4
			c-0.2,0.8-1.2,1.3-1.9,1.9c-0.6-0.7-1.5-1.3-1.7-2c-0.3-1.3-0.1-2.6-0.1-4c0-19,0-37.9,0-57.3c-11.7,0-23.2,0-35.6,0
			c0,7.8,0,15.7,0,23.6c0,3.4-0.9,5.2-4.2,2.1c0-12.3,0-24.6,0-37c2.6-4.6,6-8,10.8-7.3c1.6-3.4,2.8-6,4.1-8.7C37.2,0,42.2,0,47.2,0
			z M56.7,22.4c0.5-7.6-1.1-9.5-7.7-9.5c-6.8,0-13.6-0.1-20.4,0c-6.2,0.1-8.2,3.1-6.3,9.5C33.8,22.4,45.1,22.4,56.7,22.4z M34,8.6
			c3.8,0,7.3,0,10.9,0c1.1-7.4-4.3-4-7.1-4.6C34.7,3.4,32.5,4.3,34,8.6z"/>
		<path d="M17.3,59.9c0.9-0.5,1.9-1,2.8-1.5c0.5,1.5,1.3,3,1.3,4.4c0.1,16.9,0.1,33.9,0.1,50.8c0,1.3-0.1,2.7,0,4
			c0.3,4.1,2.3,6.3,6.7,6.3c7.3-0.1,14.6,0,21.9,0c4.9,0,6.9-2,7-7c0.1-6.3-0.1-12.6,0.1-18.9c0-1.2,1.1-2.4,1.6-3.6
			c0.7,1.3,2.1,2.5,2.1,3.8c0.2,6.6,0.2,13.3,0,19.9c-0.2,6.1-4,9.7-10.2,9.8c-6.8,0.1-13.6-0.3-20.4,0.1c-6.6,0.5-10.8-2-13.1-8.1
			C17.3,99.9,17.3,79.9,17.3,59.9z"/>
		<path d="M41.6,38.6c2,1.4,3.3,2.3,4.6,3.2c-1.5,1-3,2-4.3,2.9c-0.8,1.3-1.7,2.7-2.5,4.1c-0.7-1.3-1.4-2.6-2.2-3.8
			c-0.3-0.5-0.9-0.8-1.4-1.1c-1.2-0.8-2.3-1.7-3.5-2.5c1.3-0.7,2.6-1.5,4-2.2c1-1.3,2.1-2.9,3.2-4.4C40.3,36.2,41.1,37.6,41.6,38.6z
			"/>
		<path d="M86.9,45.1c-1.9-1.3-3.4-2.3-4.9-3.3c1.3-0.9,2.6-1.8,4.4-3c0.7-0.9,1.7-2.5,2.8-4c0.8,1.4,1.7,2.9,2.8,4.8
			c0.6,0.1,1.9,0.2,3.1,0.7c0.5,0.2,0.5,1.4,0.7,2.1c-3.3,0.9-5.1,3.5-6.5,6.4c-0.7-0.3-1.7-0.5-2-1.1
			C86.9,46.7,86.9,45.5,86.9,45.1z"/>
		<path d="M39.4,107.8c2.5,1.2,4.6,2.2,6.7,3.2c-2.1,0.6-4.3,1.2-6.4,1.8c-0.2,0-0.3,0-0.5,0c-2.3-0.6-4.6-1.2-6.9-1.8
			C34.6,110,36.8,109,39.4,107.8z"/>
		<path d="M88.9,113.9c-2.6-1.2-4.8-2.1-6.9-3.1c2.3-0.6,4.6-1.8,6.9-1.8c2.3,0,4.7,1.1,7,1.6C93.6,111.7,91.4,112.7,88.9,113.9z"/>
	</g>
</g>
</svg>
