<?xml version="1.0" encoding="utf-8"?>
<!-- Generator: Adobe Illustrator 28.0.0, SVG Export Plug-In . SVG Version: 6.00 Build 0)  -->
<svg version="1.1" id="Layer_1" xmlns="http://www.w3.org/2000/svg" xmlns:xlink="http://www.w3.org/1999/xlink" x="0px" y="0px"
	 viewBox="0 0 128 128" style="enable-background:new 0 0 128 128;" xml:space="preserve">
<g id="sZL4GZ.tif">
	<g>
		<path d="M0.1,117.3c2-1.7,4-3.4,6.4-5.5c-5.5-4.6-2.8-8.1,0.9-11.7C38.6,69,69.8,37.8,100.9,6.6c3.6-3.6,6.9-5.8,11.3-1
			c2-1.9,3.7-3.8,5.7-5.2c0.7-0.5,2.2-0.1,3.3-0.1c-0.1,1.1,0.2,2.6-0.3,3.2c-1.5,1.7-3.4,3.1-5.5,4.9c1.4,1.6,2.4,2.8,3.7,4.2
			c1.5-1.4,2.6-2.8,4.1-3.7c1.4-0.9,3.2-1.3,4.8-1.9c-0.5,1.6-0.7,3.4-1.6,4.8c-0.8,1.3-2.4,2.1-4.1,3.4c5.7,5.7,2.1,9.3-1.8,13.2
			C89.6,59,58.8,89.8,28.1,120.7c-3.6,3.6-7.1,6.5-11.7,1c-2.1,2.4-3.8,4.4-5.6,6.4c-1.1,0-2.1,0-3.2,0c-2.2-5.2,4.1-5.8,5-9.6
			c-0.8-1.1-1.6-2.3-2.2-3c-4.5,1.1-5.1,7.4-10.4,5.2C0.1,119.4,0.1,118.4,0.1,117.3z M31.3,108.8c26.1-26,52.3-52.3,77.7-77.6
			c-3.7-4.2-7.9-9-11.6-13.2C71,44.4,44.8,70.5,18.9,96.4C23.1,100.6,27.6,105.1,31.3,108.8z M107.4,8c-2.4,2-4.6,3.9-5.7,4.8
			c4.5,5.1,8.7,9.8,12.4,14c2.5-1.8,4.7-3.5,7.3-5.4C116.1,16.4,111.7,12.1,107.4,8z M21.1,119.1c2.5-1.8,4.8-3.6,7-5.2
			c-4.7-4.8-9.1-9.3-13.1-13.4c-2.4,1.9-4.7,3.8-7.2,5.8C12.7,111,17.2,115.2,21.1,119.1z"/>
	</g>
</g>
</svg>
