<?xml version="1.0" encoding="utf-8"?>
<!-- Generator: Adobe Illustrator 28.0.0, SVG Export Plug-In . SVG Version: 6.00 Build 0)  -->
<svg version="1.1" id="Layer_1" xmlns="http://www.w3.org/2000/svg" xmlns:xlink="http://www.w3.org/1999/xlink" x="0px" y="0px"
	 viewBox="0 0 128 128" style="enable-background:new 0 0 128 128;" xml:space="preserve">
<g id="j0BAEN.tif">
	<g>
		<path d="M124.5,86c1.3,0.6,2.4,0.1,3.5-1.6V6c-0.4-3.1-2.9-5.6-6-6H41.1c-2.8,0.3-4.9,1.9-5.7,4.5c-0.6,2.3-1.8,2.5-3.9,2.7
			C17.1,8.3,6,20.5,6,34.9c0,3.2,0,6.3,0,9.5c0,1-0.4,1.5-1.4,1.4c-0.7,0-1.5-0.1-2.2,0C0.9,46,0,46.9,0,48.3c0,7.7,0,15.5,0,23.2
			c0,1,0.5,1.7,1.3,2.1c0.7,0.4,1.4,0.4,2.2,0.4c6.8,0,13.7,0,20.5,0c3.1,0,4-1,4-4c0-6.5,0-13.1,0-19.6c0-0.6,0-1.3,0-1.9
			c-0.2-1.5-1.2-2.5-2.7-2.7c-0.5-0.1-1.1,0-1.6,0c-1.9,0-1.9-0.1-1.9-1.9c0-2.9,0-5.7,0-8.6c0-6.3,4.1-11.1,10.3-12.3
			c2.5-0.5,2.7-0.3,2.7,2.2v98.1c0,0.6,0,1.3,0,1.9c0.2,1.9,1,2.8,3,2.8c29.2,0,58.4,0,87.7,0c1.7,0,2.1-0.3,2.6-1.9v-21
			c-0.9-1-1.8-1.9-3.3-1.4c-1.6,0.6-1.7,1.9-1.7,3.4c0,4.9,0,9.7,0,14.6c0,0.8-0.1,1.1-1,1.1c-27,0-53.9,0-80.9,0c-0.8,0-1-0.2-1-1
			c0-30.3,0-60.6,0-90.9c0-0.8,0.2-1,1-1c27,0,53.9,0,80.9,0c0.9,0,1,0.3,1,1.1c0,4.3,0,8.7,0,13c0,13.1,0,26.1,0,39.2
			C123,84.5,123.4,85.5,124.5,86z M22.6,52.1c0,2.6,0,5.2,0,7.9c0,2.6,0,5.2,0,7.9c0,0.7-0.2,0.9-0.9,0.9c-5.2,0-10.5,0-15.7,0
			c-0.7,0-0.9-0.2-0.9-0.9c0-5.2,0-10.5,0-15.7c0-0.7,0.2-0.9,0.9-0.9c5.2,0,10.5,0,15.7,0C22.4,51.2,22.6,51.4,22.6,52.1z M35,17
			c-0.6,1.1-2.1,0.3-3.3,0.5c-8.2,1.3-14.3,7.2-15.3,15.4c-0.3,2.7-0.1,5.5-0.1,8.2c0,1.4,0,2.8,0,4.2c0,0.7-0.2,0.8-0.8,0.8
			c-1.1,0-2.2-0.1-3.4,0c-0.7,0-0.8-0.2-0.8-0.8c0-1.9,0-3.8,0-5.7c-0.1-4-0.1-8,1.2-11.9c3.1-9.1,12-15.4,21.6-15.2
			c0.7,0,0.9,0.2,0.9,0.9C35,14.6,35.5,16,35,17z M121.9,25c-13.4,0-26.9,0-40.3,0c-13.4,0-26.8,0-40.2,0c-1,0-1.3-0.2-1.3-1.3
			c0.1-5.2,0-10.3,0-15.5C40.1,5.9,41,5,43.3,5c25.5,0,50.9,0,76.4,0c2.3,0,3.2,0.9,3.2,3.2c0,5.2,0,10.4,0,15.6
			C123,24.8,122.8,25,121.9,25z"/>
		<path d="M128,95.7c-0.5,0.9-1,1.6-2.1,1.7c-1.2,0.2-2.4-0.5-2.8-1.6c-0.4-1.1,0.1-2.4,1.1-3c1.1-0.6,2.4-0.4,3.3,0.6
			c0.2,0.2,0.1,0.6,0.5,0.6C128,94.5,128,95.1,128,95.7z"/>
		<path d="M68.4,57.3c0-3.6,0-7.2,0-10.7c0-1.9,1.3-3.1,2.9-2.9c1.3,0.2,2.2,1.3,2.2,3c0,3.9,0,7.8,0,11.7c0,2.2,0,4.5,0,6.7
			c0,0.9,0.3,1,1,1c2.5,0,5,0,7.5,0c1.5,0,2.7,1.1,2.7,2.5c0,1.4-1.1,2.5-2.7,2.5c-3.5,0-6.9,0-10.4,0c-2.5,0-3.3-0.8-3.3-3.4
			C68.4,64.3,68.4,60.8,68.4,57.3z"/>
		<path d="M91.2,87.4c-2.9,0-5.9,0-8.8,0c-1.6,0-2.7-1.1-2.7-2.5c0-1.4,1.2-2.5,2.8-2.5c5.9,0,11.9,0,17.8,0c1.6,0,2.7,1,2.7,2.4
			c0,1.4-1.2,2.5-2.8,2.5C97.2,87.4,94.2,87.4,91.2,87.4z"/>
		<path d="M71.8,92.4c2.9,0,5.9,0,8.8,0c1.6,0,2.8,1.1,2.8,2.5c0,1.4-1.2,2.5-2.8,2.5c-5.9,0-11.8,0-17.7,0c-1.6,0-2.8-1.1-2.8-2.5
			c0-1.4,1.2-2.5,2.8-2.5C65.9,92.4,68.8,92.4,71.8,92.4z"/>
		<path d="M91.3,107.4c-2.9,0-5.9,0-8.8,0c-1.6,0-2.8-1.1-2.8-2.5c0-1.4,1.2-2.5,2.8-2.5c5.9,0,11.8,0,17.7,0c1.6,0,2.8,1,2.8,2.5
			c0,1.4-1.2,2.5-2.8,2.5C97.2,107.4,94.2,107.4,91.3,107.4z"/>
		<path d="M94.7,63.1c0,1.7,0,3.5,0,5.2c0,1.8-1,2.9-2.6,2.9c-1.5,0-2.5-1.1-2.6-2.9c0-3.5,0-7,0-10.5c0-1.8,1-2.9,2.6-2.9
			c1.5,0,2.5,1.1,2.6,2.9C94.7,59.6,94.7,61.3,94.7,63.1z"/>
		<path d="M66.8,82.4c1.4,0,2.7,0,4.1,0c1.4,0,2.6,1.1,2.6,2.5c0,1.4-1.1,2.5-2.6,2.5c-2.7,0-5.5,0-8.2,0c-1.4,0-2.6-1.1-2.6-2.5
			c0-1.3,1.1-2.4,2.6-2.5c0,0,0.1,0,0.1,0C64.2,82.4,65.5,82.4,66.8,82.4z"/>
		<path d="M96.3,92.4c1.4,0,2.7,0,4.1,0c1.4,0,2.6,1.1,2.6,2.5c0,1.4-1.1,2.5-2.6,2.5c-2.7,0-5.5,0-8.2,0c-1.4,0-2.6-1.1-2.6-2.5
			c0-1.3,1.1-2.5,2.6-2.5c0,0,0.1,0,0.1,0C93.6,92.4,94.9,92.4,96.3,92.4z"/>
		<path d="M66.8,107.4c-1.4,0-2.7,0-4.1,0c-1.4,0-2.5-1.2-2.5-2.5c0-1.3,1.1-2.4,2.5-2.4c2.8,0,5.6,0,8.3,0c1.4,0,2.6,1.2,2.5,2.5
			c0,1.3-1.1,2.4-2.5,2.5c0,0-0.1,0-0.1,0C69.5,107.4,68.1,107.4,66.8,107.4z"/>
		<path d="M92.1,48.7c-1.4,0-2.5-1.2-2.5-2.5c0-1.4,1.2-2.5,2.6-2.4c1.4,0,2.5,1.2,2.5,2.5C94.7,47.6,93.5,48.7,92.1,48.7z"/>
	</g>
</g>
</svg>
