<?xml version="1.0" encoding="utf-8"?>
<!-- Generator: Adobe Illustrator 28.0.0, SVG Export Plug-In . SVG Version: 6.00 Build 0)  -->
<svg version="1.1" id="Layer_1" xmlns="http://www.w3.org/2000/svg" xmlns:xlink="http://www.w3.org/1999/xlink" x="0px" y="0px"
	 viewBox="0 0 128 128" style="enable-background:new 0 0 128 128;" xml:space="preserve">
<g id="ODVKoz.tif">
	<g>
		<path d="M83.3,68.7c-8.5,0-15.3,6.8-15.3,15.3c0,8.4,6.8,15.2,15.2,15.2c8.5,0,15.3-6.8,15.3-15.2C98.5,75.5,91.7,68.7,83.3,68.7z
			 M92,77.8c0.5-0.6,0.7-0.3,1.1,0.2c0.7,1.2,1.2,2.4,1.5,4c-1.7,0-3.3,0-5,0c-0.3,0-0.7,0-0.8-0.4c-0.1-0.4,0.1-0.6,0.3-0.9
			C90,79.7,91,78.8,92,77.8z M85.8,72.8c1.4,0.4,2.7,0.9,4,1.8c-1.2,1.2-2.3,2.3-3.4,3.4c-0.2,0.2-0.4,0.6-0.9,0.4
			c-0.4-0.2-0.4-0.5-0.4-0.8c0-1.4,0-2.8,0-4.2C85,72.7,85.3,72.6,85.8,72.8z M77.2,74.2c1.3-0.7,2.6-1.3,4.1-1.5c0,1.7,0,3.4,0,5
			c0,0.3,0,0.6-0.4,0.7c-0.4,0.2-0.6-0.1-0.9-0.3c-1-1-2-2-3-3C76.6,74.7,76.7,74.5,77.2,74.2z M72.1,81.3c0.4-1.4,0.9-2.7,1.8-4
			c1.2,1.2,2.3,2.4,3.5,3.5c0.2,0.2,0.5,0.5,0.3,0.9c-0.2,0.3-0.4,0.4-0.7,0.4c-1.5,0-2.9,0-4.4,0C71.9,82.1,72,81.8,72.1,81.3z
			 M74.4,90.2c-0.4,0.4-0.6,0.3-0.8-0.1c-0.8-1.2-1.3-2.6-1.6-4.1c1.8,0,3.4,0,5,0c0.3,0,0.6-0.1,0.7,0.3c0.2,0.4,0,0.6-0.2,0.9
			C76.5,88.1,75.4,89.1,74.4,90.2z M80.7,95.1c-1.4-0.4-2.7-0.9-4.1-1.8c1.2-1.2,2.4-2.3,3.6-3.5c0.2-0.2,0.5-0.5,0.9-0.3
			c0.4,0.2,0.4,0.5,0.4,0.8c0,1.4,0,2.8,0,4.2C81.5,95.1,81.3,95.2,80.7,95.1z M83.1,86.1C82,86,81,85,81.1,83.9
			c0-1.1,1.2-2.2,2.3-2.1c1.1,0.1,2.1,1.2,2.1,2.2C85.4,85.2,84.3,86.1,83.1,86.1z M89.3,93.6c-1.2,0.7-2.5,1.2-4.1,1.6
			c0-1.7,0-3.3,0-4.9c0-0.3-0.1-0.7,0.4-0.8c0.4-0.1,0.6,0.1,0.9,0.3c1,1,2,2,3,3C89.9,93.2,89.7,93.4,89.3,93.6z M94.4,86.5
			c-0.4,1.4-0.9,2.7-1.8,4c-1.2-1.2-2.3-2.4-3.5-3.5c-0.2-0.2-0.5-0.4-0.3-0.8c0.2-0.4,0.4-0.4,0.8-0.4c1.4,0,2.8,0,4.2,0
			C94.6,85.7,94.5,86,94.4,86.5z M83.3,68.7c-8.5,0-15.3,6.8-15.3,15.3c0,8.4,6.8,15.2,15.2,15.2c8.5,0,15.3-6.8,15.3-15.2
			C98.5,75.5,91.7,68.7,83.3,68.7z M92,77.8c0.5-0.6,0.7-0.3,1.1,0.2c0.7,1.2,1.2,2.4,1.5,4c-1.7,0-3.3,0-5,0c-0.3,0-0.7,0-0.8-0.4
			c-0.1-0.4,0.1-0.6,0.3-0.9C90,79.7,91,78.8,92,77.8z M85.8,72.8c1.4,0.4,2.7,0.9,4,1.8c-1.2,1.2-2.3,2.3-3.4,3.4
			c-0.2,0.2-0.4,0.6-0.9,0.4c-0.4-0.2-0.4-0.5-0.4-0.8c0-1.4,0-2.8,0-4.2C85,72.7,85.3,72.6,85.8,72.8z M77.2,74.2
			c1.3-0.7,2.6-1.3,4.1-1.5c0,1.7,0,3.4,0,5c0,0.3,0,0.6-0.4,0.7c-0.4,0.2-0.6-0.1-0.9-0.3c-1-1-2-2-3-3
			C76.6,74.7,76.7,74.5,77.2,74.2z M72.1,81.3c0.4-1.4,0.9-2.7,1.8-4c1.2,1.2,2.3,2.4,3.5,3.5c0.2,0.2,0.5,0.5,0.3,0.9
			c-0.2,0.3-0.4,0.4-0.7,0.4c-1.5,0-2.9,0-4.4,0C71.9,82.1,72,81.8,72.1,81.3z M74.4,90.2c-0.4,0.4-0.6,0.3-0.8-0.1
			c-0.8-1.2-1.3-2.6-1.6-4.1c1.8,0,3.4,0,5,0c0.3,0,0.6-0.1,0.7,0.3c0.2,0.4,0,0.6-0.2,0.9C76.5,88.1,75.4,89.1,74.4,90.2z
			 M80.7,95.1c-1.4-0.4-2.7-0.9-4.1-1.8c1.2-1.2,2.4-2.3,3.6-3.5c0.2-0.2,0.5-0.5,0.9-0.3c0.4,0.2,0.4,0.5,0.4,0.8
			c0,1.4,0,2.8,0,4.2C81.5,95.1,81.3,95.2,80.7,95.1z M83.1,86.1C82,86,81,85,81.1,83.9c0-1.1,1.2-2.2,2.3-2.1
			c1.1,0.1,2.1,1.2,2.1,2.2C85.4,85.2,84.3,86.1,83.1,86.1z M89.3,93.6c-1.2,0.7-2.5,1.2-4.1,1.6c0-1.7,0-3.3,0-4.9
			c0-0.3-0.1-0.7,0.4-0.8c0.4-0.1,0.6,0.1,0.9,0.3c1,1,2,2,3,3C89.9,93.2,89.7,93.4,89.3,93.6z M94.4,86.5c-0.4,1.4-0.9,2.7-1.8,4
			c-1.2-1.2-2.3-2.4-3.5-3.5c-0.2-0.2-0.5-0.4-0.3-0.8c0.2-0.4,0.4-0.4,0.8-0.4c1.4,0,2.8,0,4.2,0C94.6,85.7,94.5,86,94.4,86.5z
			 M83.3,68.7c-8.5,0-15.3,6.8-15.3,15.3c0,8.4,6.8,15.2,15.2,15.2c8.5,0,15.3-6.8,15.3-15.2C98.5,75.5,91.7,68.7,83.3,68.7z
			 M92,77.8c0.5-0.6,0.7-0.3,1.1,0.2c0.7,1.2,1.2,2.4,1.5,4c-1.7,0-3.3,0-5,0c-0.3,0-0.7,0-0.8-0.4c-0.1-0.4,0.1-0.6,0.3-0.9
			C90,79.7,91,78.8,92,77.8z M85.8,72.8c1.4,0.4,2.7,0.9,4,1.8c-1.2,1.2-2.3,2.3-3.4,3.4c-0.2,0.2-0.4,0.6-0.9,0.4
			c-0.4-0.2-0.4-0.5-0.4-0.8c0-1.4,0-2.8,0-4.2C85,72.7,85.3,72.6,85.8,72.8z M77.2,74.2c1.3-0.7,2.6-1.3,4.1-1.5c0,1.7,0,3.4,0,5
			c0,0.3,0,0.6-0.4,0.7c-0.4,0.2-0.6-0.1-0.9-0.3c-1-1-2-2-3-3C76.6,74.7,76.7,74.5,77.2,74.2z M72.1,81.3c0.4-1.4,0.9-2.7,1.8-4
			c1.2,1.2,2.3,2.4,3.5,3.5c0.2,0.2,0.5,0.5,0.3,0.9c-0.2,0.3-0.4,0.4-0.7,0.4c-1.5,0-2.9,0-4.4,0C71.9,82.1,72,81.8,72.1,81.3z
			 M74.4,90.2c-0.4,0.4-0.6,0.3-0.8-0.1c-0.8-1.2-1.3-2.6-1.6-4.1c1.8,0,3.4,0,5,0c0.3,0,0.6-0.1,0.7,0.3c0.2,0.4,0,0.6-0.2,0.9
			C76.5,88.1,75.4,89.1,74.4,90.2z M80.7,95.1c-1.4-0.4-2.7-0.9-4.1-1.8c1.2-1.2,2.4-2.3,3.6-3.5c0.2-0.2,0.5-0.5,0.9-0.3
			c0.4,0.2,0.4,0.5,0.4,0.8c0,1.4,0,2.8,0,4.2C81.5,95.1,81.3,95.2,80.7,95.1z M83.1,86.1C82,86,81,85,81.1,83.9
			c0-1.1,1.2-2.2,2.3-2.1c1.1,0.1,2.1,1.2,2.1,2.2C85.4,85.2,84.3,86.1,83.1,86.1z M89.3,93.6c-1.2,0.7-2.5,1.2-4.1,1.6
			c0-1.7,0-3.3,0-4.9c0-0.3-0.1-0.7,0.4-0.8c0.4-0.1,0.6,0.1,0.9,0.3c1,1,2,2,3,3C89.9,93.2,89.7,93.4,89.3,93.6z M94.4,86.5
			c-0.4,1.4-0.9,2.7-1.8,4c-1.2-1.2-2.3-2.4-3.5-3.5c-0.2-0.2-0.5-0.4-0.3-0.8c0.2-0.4,0.4-0.4,0.8-0.4c1.4,0,2.8,0,4.2,0
			C94.6,85.7,94.5,86,94.4,86.5z M83.3,68.7c-8.5,0-15.3,6.8-15.3,15.3c0,8.4,6.8,15.2,15.2,15.2c8.5,0,15.3-6.8,15.3-15.2
			C98.5,75.5,91.7,68.7,83.3,68.7z M92,77.8c0.5-0.6,0.7-0.3,1.1,0.2c0.7,1.2,1.2,2.4,1.5,4c-1.7,0-3.3,0-5,0c-0.3,0-0.7,0-0.8-0.4
			c-0.1-0.4,0.1-0.6,0.3-0.9C90,79.7,91,78.8,92,77.8z M85.8,72.8c1.4,0.4,2.7,0.9,4,1.8c-1.2,1.2-2.3,2.3-3.4,3.4
			c-0.2,0.2-0.4,0.6-0.9,0.4c-0.4-0.2-0.4-0.5-0.4-0.8c0-1.4,0-2.8,0-4.2C85,72.7,85.3,72.6,85.8,72.8z M77.2,74.2
			c1.3-0.7,2.6-1.3,4.1-1.5c0,1.7,0,3.4,0,5c0,0.3,0,0.6-0.4,0.7c-0.4,0.2-0.6-0.1-0.9-0.3c-1-1-2-2-3-3
			C76.6,74.7,76.7,74.5,77.2,74.2z M72.1,81.3c0.4-1.4,0.9-2.7,1.8-4c1.2,1.2,2.3,2.4,3.5,3.5c0.2,0.2,0.5,0.5,0.3,0.9
			c-0.2,0.3-0.4,0.4-0.7,0.4c-1.5,0-2.9,0-4.4,0C71.9,82.1,72,81.8,72.1,81.3z M74.4,90.2c-0.4,0.4-0.6,0.3-0.8-0.1
			c-0.8-1.2-1.3-2.6-1.6-4.1c1.8,0,3.4,0,5,0c0.3,0,0.6-0.1,0.7,0.3c0.2,0.4,0,0.6-0.2,0.9C76.5,88.1,75.4,89.1,74.4,90.2z
			 M80.7,95.1c-1.4-0.4-2.7-0.9-4.1-1.8c1.2-1.2,2.4-2.3,3.6-3.5c0.2-0.2,0.5-0.5,0.9-0.3c0.4,0.2,0.4,0.5,0.4,0.8
			c0,1.4,0,2.8,0,4.2C81.5,95.1,81.3,95.2,80.7,95.1z M83.1,86.1C82,86,81,85,81.1,83.9c0-1.1,1.2-2.2,2.3-2.1
			c1.1,0.1,2.1,1.2,2.1,2.2C85.4,85.2,84.3,86.1,83.1,86.1z M89.3,93.6c-1.2,0.7-2.5,1.2-4.1,1.6c0-1.7,0-3.3,0-4.9
			c0-0.3-0.1-0.7,0.4-0.8c0.4-0.1,0.6,0.1,0.9,0.3c1,1,2,2,3,3C89.9,93.2,89.7,93.4,89.3,93.6z M94.4,86.5c-0.4,1.4-0.9,2.7-1.8,4
			c-1.2-1.2-2.3-2.4-3.5-3.5c-0.2-0.2-0.5-0.4-0.3-0.8c0.2-0.4,0.4-0.4,0.8-0.4c1.4,0,2.8,0,4.2,0C94.6,85.7,94.5,86,94.4,86.5z
			 M83.3,68.7c-8.5,0-15.3,6.8-15.3,15.3c0,8.4,6.8,15.2,15.2,15.2c8.5,0,15.3-6.8,15.3-15.2C98.5,75.5,91.7,68.7,83.3,68.7z
			 M92,77.8c0.5-0.6,0.7-0.3,1.1,0.2c0.7,1.2,1.2,2.4,1.5,4c-1.7,0-3.3,0-5,0c-0.3,0-0.7,0-0.8-0.4c-0.1-0.4,0.1-0.6,0.3-0.9
			C90,79.7,91,78.8,92,77.8z M85.8,72.8c1.4,0.4,2.7,0.9,4,1.8c-1.2,1.2-2.3,2.3-3.4,3.4c-0.2,0.2-0.4,0.6-0.9,0.4
			c-0.4-0.2-0.4-0.5-0.4-0.8c0-1.4,0-2.8,0-4.2C85,72.7,85.3,72.6,85.8,72.8z M77.2,74.2c1.3-0.7,2.6-1.3,4.1-1.5c0,1.7,0,3.4,0,5
			c0,0.3,0,0.6-0.4,0.7c-0.4,0.2-0.6-0.1-0.9-0.3c-1-1-2-2-3-3C76.6,74.7,76.7,74.5,77.2,74.2z M72.1,81.3c0.4-1.4,0.9-2.7,1.8-4
			c1.2,1.2,2.3,2.4,3.5,3.5c0.2,0.2,0.5,0.5,0.3,0.9c-0.2,0.3-0.4,0.4-0.7,0.4c-1.5,0-2.9,0-4.4,0C71.9,82.1,72,81.8,72.1,81.3z
			 M74.4,90.2c-0.4,0.4-0.6,0.3-0.8-0.1c-0.8-1.2-1.3-2.6-1.6-4.1c1.8,0,3.4,0,5,0c0.3,0,0.6-0.1,0.7,0.3c0.2,0.4,0,0.6-0.2,0.9
			C76.5,88.1,75.4,89.1,74.4,90.2z M80.7,95.1c-1.4-0.4-2.7-0.9-4.1-1.8c1.2-1.2,2.4-2.3,3.6-3.5c0.2-0.2,0.5-0.5,0.9-0.3
			c0.4,0.2,0.4,0.5,0.4,0.8c0,1.4,0,2.8,0,4.2C81.5,95.1,81.3,95.2,80.7,95.1z M83.1,86.1C82,86,81,85,81.1,83.9
			c0-1.1,1.2-2.2,2.3-2.1c1.1,0.1,2.1,1.2,2.1,2.2C85.4,85.2,84.3,86.1,83.1,86.1z M89.3,93.6c-1.2,0.7-2.5,1.2-4.1,1.6
			c0-1.7,0-3.3,0-4.9c0-0.3-0.1-0.7,0.4-0.8c0.4-0.1,0.6,0.1,0.9,0.3c1,1,2,2,3,3C89.9,93.2,89.7,93.4,89.3,93.6z M94.4,86.5
			c-0.4,1.4-0.9,2.7-1.8,4c-1.2-1.2-2.3-2.4-3.5-3.5c-0.2-0.2-0.5-0.4-0.3-0.8c0.2-0.4,0.4-0.4,0.8-0.4c1.4,0,2.8,0,4.2,0
			C94.6,85.7,94.5,86,94.4,86.5z M83.3,68.7c-8.5,0-15.3,6.8-15.3,15.3c0,8.4,6.8,15.2,15.2,15.2c8.5,0,15.3-6.8,15.3-15.2
			C98.5,75.5,91.7,68.7,83.3,68.7z M92,77.8c0.5-0.6,0.7-0.3,1.1,0.2c0.7,1.2,1.2,2.4,1.5,4c-1.7,0-3.3,0-5,0c-0.3,0-0.7,0-0.8-0.4
			c-0.1-0.4,0.1-0.6,0.3-0.9C90,79.7,91,78.8,92,77.8z M85.8,72.8c1.4,0.4,2.7,0.9,4,1.8c-1.2,1.2-2.3,2.3-3.4,3.4
			c-0.2,0.2-0.4,0.6-0.9,0.4c-0.4-0.2-0.4-0.5-0.4-0.8c0-1.4,0-2.8,0-4.2C85,72.7,85.3,72.6,85.8,72.8z M77.2,74.2
			c1.3-0.7,2.6-1.3,4.1-1.5c0,1.7,0,3.4,0,5c0,0.3,0,0.6-0.4,0.7c-0.4,0.2-0.6-0.1-0.9-0.3c-1-1-2-2-3-3
			C76.6,74.7,76.7,74.5,77.2,74.2z M72.1,81.3c0.4-1.4,0.9-2.7,1.8-4c1.2,1.2,2.3,2.4,3.5,3.5c0.2,0.2,0.5,0.5,0.3,0.9
			c-0.2,0.3-0.4,0.4-0.7,0.4c-1.5,0-2.9,0-4.4,0C71.9,82.1,72,81.8,72.1,81.3z M74.4,90.2c-0.4,0.4-0.6,0.3-0.8-0.1
			c-0.8-1.2-1.3-2.6-1.6-4.1c1.8,0,3.4,0,5,0c0.3,0,0.6-0.1,0.7,0.3c0.2,0.4,0,0.6-0.2,0.9C76.5,88.1,75.4,89.1,74.4,90.2z
			 M80.7,95.1c-1.4-0.4-2.7-0.9-4.1-1.8c1.2-1.2,2.4-2.3,3.6-3.5c0.2-0.2,0.5-0.5,0.9-0.3c0.4,0.2,0.4,0.5,0.4,0.8
			c0,1.4,0,2.8,0,4.2C81.5,95.1,81.3,95.2,80.7,95.1z M83.1,86.1C82,86,81,85,81.1,83.9c0-1.1,1.2-2.2,2.3-2.1
			c1.1,0.1,2.1,1.2,2.1,2.2C85.4,85.2,84.3,86.1,83.1,86.1z M89.3,93.6c-1.2,0.7-2.5,1.2-4.1,1.6c0-1.7,0-3.3,0-4.9
			c0-0.3-0.1-0.7,0.4-0.8c0.4-0.1,0.6,0.1,0.9,0.3c1,1,2,2,3,3C89.9,93.2,89.7,93.4,89.3,93.6z M94.4,86.5c-0.4,1.4-0.9,2.7-1.8,4
			c-1.2-1.2-2.3-2.4-3.5-3.5c-0.2-0.2-0.5-0.4-0.3-0.8c0.2-0.4,0.4-0.4,0.8-0.4c1.4,0,2.8,0,4.2,0C94.6,85.7,94.5,86,94.4,86.5z
			 M83.3,68.7c-8.5,0-15.3,6.8-15.3,15.3c0,8.4,6.8,15.2,15.2,15.2c8.5,0,15.3-6.8,15.3-15.2C98.5,75.5,91.7,68.7,83.3,68.7z
			 M92,77.8c0.5-0.6,0.7-0.3,1.1,0.2c0.7,1.2,1.2,2.4,1.5,4c-1.7,0-3.3,0-5,0c-0.3,0-0.7,0-0.8-0.4c-0.1-0.4,0.1-0.6,0.3-0.9
			C90,79.7,91,78.8,92,77.8z M85.8,72.8c1.4,0.4,2.7,0.9,4,1.8c-1.2,1.2-2.3,2.3-3.4,3.4c-0.2,0.2-0.4,0.6-0.9,0.4
			c-0.4-0.2-0.4-0.5-0.4-0.8c0-1.4,0-2.8,0-4.2C85,72.7,85.3,72.6,85.8,72.8z M77.2,74.2c1.3-0.7,2.6-1.3,4.1-1.5c0,1.7,0,3.4,0,5
			c0,0.3,0,0.6-0.4,0.7c-0.4,0.2-0.6-0.1-0.9-0.3c-1-1-2-2-3-3C76.6,74.7,76.7,74.5,77.2,74.2z M72.1,81.3c0.4-1.4,0.9-2.7,1.8-4
			c1.2,1.2,2.3,2.4,3.5,3.5c0.2,0.2,0.5,0.5,0.3,0.9c-0.2,0.3-0.4,0.4-0.7,0.4c-1.5,0-2.9,0-4.4,0C71.9,82.1,72,81.8,72.1,81.3z
			 M74.4,90.2c-0.4,0.4-0.6,0.3-0.8-0.1c-0.8-1.2-1.3-2.6-1.6-4.1c1.8,0,3.4,0,5,0c0.3,0,0.6-0.1,0.7,0.3c0.2,0.4,0,0.6-0.2,0.9
			C76.5,88.1,75.4,89.1,74.4,90.2z M80.7,95.1c-1.4-0.4-2.7-0.9-4.1-1.8c1.2-1.2,2.4-2.3,3.6-3.5c0.2-0.2,0.5-0.5,0.9-0.3
			c0.4,0.2,0.4,0.5,0.4,0.8c0,1.4,0,2.8,0,4.2C81.5,95.1,81.3,95.2,80.7,95.1z M83.1,86.1C82,86,81,85,81.1,83.9
			c0-1.1,1.2-2.2,2.3-2.1c1.1,0.1,2.1,1.2,2.1,2.2C85.4,85.2,84.3,86.1,83.1,86.1z M89.3,93.6c-1.2,0.7-2.5,1.2-4.1,1.6
			c0-1.7,0-3.3,0-4.9c0-0.3-0.1-0.7,0.4-0.8c0.4-0.1,0.6,0.1,0.9,0.3c1,1,2,2,3,3C89.9,93.2,89.7,93.4,89.3,93.6z M94.4,86.5
			c-0.4,1.4-0.9,2.7-1.8,4c-1.2-1.2-2.3-2.4-3.5-3.5c-0.2-0.2-0.5-0.4-0.3-0.8c0.2-0.4,0.4-0.4,0.8-0.4c1.4,0,2.8,0,4.2,0
			C94.6,85.7,94.5,86,94.4,86.5z M83.3,68.7c-8.5,0-15.3,6.8-15.3,15.3c0,8.4,6.8,15.2,15.2,15.2c8.5,0,15.3-6.8,15.3-15.2
			C98.5,75.5,91.7,68.7,83.3,68.7z M92,77.8c0.5-0.6,0.7-0.3,1.1,0.2c0.7,1.2,1.2,2.4,1.5,4c-1.7,0-3.3,0-5,0c-0.3,0-0.7,0-0.8-0.4
			c-0.1-0.4,0.1-0.6,0.3-0.9C90,79.7,91,78.8,92,77.8z M85.8,72.8c1.4,0.4,2.7,0.9,4,1.8c-1.2,1.2-2.3,2.3-3.4,3.4
			c-0.2,0.2-0.4,0.6-0.9,0.4c-0.4-0.2-0.4-0.5-0.4-0.8c0-1.4,0-2.8,0-4.2C85,72.7,85.3,72.6,85.8,72.8z M77.2,74.2
			c1.3-0.7,2.6-1.3,4.1-1.5c0,1.7,0,3.4,0,5c0,0.3,0,0.6-0.4,0.7c-0.4,0.2-0.6-0.1-0.9-0.3c-1-1-2-2-3-3
			C76.6,74.7,76.7,74.5,77.2,74.2z M72.1,81.3c0.4-1.4,0.9-2.7,1.8-4c1.2,1.2,2.3,2.4,3.5,3.5c0.2,0.2,0.5,0.5,0.3,0.9
			c-0.2,0.3-0.4,0.4-0.7,0.4c-1.5,0-2.9,0-4.4,0C71.9,82.1,72,81.8,72.1,81.3z M74.4,90.2c-0.4,0.4-0.6,0.3-0.8-0.1
			c-0.8-1.2-1.3-2.6-1.6-4.1c1.8,0,3.4,0,5,0c0.3,0,0.6-0.1,0.7,0.3c0.2,0.4,0,0.6-0.2,0.9C76.5,88.1,75.4,89.1,74.4,90.2z
			 M80.7,95.1c-1.4-0.4-2.7-0.9-4.1-1.8c1.2-1.2,2.4-2.3,3.6-3.5c0.2-0.2,0.5-0.5,0.9-0.3c0.4,0.2,0.4,0.5,0.4,0.8
			c0,1.4,0,2.8,0,4.2C81.5,95.1,81.3,95.2,80.7,95.1z M83.1,86.1C82,86,81,85,81.1,83.9c0-1.1,1.2-2.2,2.3-2.1
			c1.1,0.1,2.1,1.2,2.1,2.2C85.4,85.2,84.3,86.1,83.1,86.1z M89.3,93.6c-1.2,0.7-2.5,1.2-4.1,1.6c0-1.7,0-3.3,0-4.9
			c0-0.3-0.1-0.7,0.4-0.8c0.4-0.1,0.6,0.1,0.9,0.3c1,1,2,2,3,3C89.9,93.2,89.7,93.4,89.3,93.6z M94.4,86.5c-0.4,1.4-0.9,2.7-1.8,4
			c-1.2-1.2-2.3-2.4-3.5-3.5c-0.2-0.2-0.5-0.4-0.3-0.8c0.2-0.4,0.4-0.4,0.8-0.4c1.4,0,2.8,0,4.2,0C94.6,85.7,94.5,86,94.4,86.5z
			 M83.3,68.7c-8.5,0-15.3,6.8-15.3,15.3c0,8.4,6.8,15.2,15.2,15.2c8.5,0,15.3-6.8,15.3-15.2C98.5,75.5,91.7,68.7,83.3,68.7z
			 M92,77.8c0.5-0.6,0.7-0.3,1.1,0.2c0.7,1.2,1.2,2.4,1.5,4c-1.7,0-3.3,0-5,0c-0.3,0-0.7,0-0.8-0.4c-0.1-0.4,0.1-0.6,0.3-0.9
			C90,79.7,91,78.8,92,77.8z M85.8,72.8c1.4,0.4,2.7,0.9,4,1.8c-1.2,1.2-2.3,2.3-3.4,3.4c-0.2,0.2-0.4,0.6-0.9,0.4
			c-0.4-0.2-0.4-0.5-0.4-0.8c0-1.4,0-2.8,0-4.2C85,72.7,85.3,72.6,85.8,72.8z M77.2,74.2c1.3-0.7,2.6-1.3,4.1-1.5c0,1.7,0,3.4,0,5
			c0,0.3,0,0.6-0.4,0.7c-0.4,0.2-0.6-0.1-0.9-0.3c-1-1-2-2-3-3C76.6,74.7,76.7,74.5,77.2,74.2z M72.1,81.3c0.4-1.4,0.9-2.7,1.8-4
			c1.2,1.2,2.3,2.4,3.5,3.5c0.2,0.2,0.5,0.5,0.3,0.9c-0.2,0.3-0.4,0.4-0.7,0.4c-1.5,0-2.9,0-4.4,0C71.9,82.1,72,81.8,72.1,81.3z
			 M74.4,90.2c-0.4,0.4-0.6,0.3-0.8-0.1c-0.8-1.2-1.3-2.6-1.6-4.1c1.8,0,3.4,0,5,0c0.3,0,0.6-0.1,0.7,0.3c0.2,0.4,0,0.6-0.2,0.9
			C76.5,88.1,75.4,89.1,74.4,90.2z M80.7,95.1c-1.4-0.4-2.7-0.9-4.1-1.8c1.2-1.2,2.4-2.3,3.6-3.5c0.2-0.2,0.5-0.5,0.9-0.3
			c0.4,0.2,0.4,0.5,0.4,0.8c0,1.4,0,2.8,0,4.2C81.5,95.1,81.3,95.2,80.7,95.1z M83.1,86.1C82,86,81,85,81.1,83.9
			c0-1.1,1.2-2.2,2.3-2.1c1.1,0.1,2.1,1.2,2.1,2.2C85.4,85.2,84.3,86.1,83.1,86.1z M89.3,93.6c-1.2,0.7-2.5,1.2-4.1,1.6
			c0-1.7,0-3.3,0-4.9c0-0.3-0.1-0.7,0.4-0.8c0.4-0.1,0.6,0.1,0.9,0.3c1,1,2,2,3,3C89.9,93.2,89.7,93.4,89.3,93.6z M94.4,86.5
			c-0.4,1.4-0.9,2.7-1.8,4c-1.2-1.2-2.3-2.4-3.5-3.5c-0.2-0.2-0.5-0.4-0.3-0.8c0.2-0.4,0.4-0.4,0.8-0.4c1.4,0,2.8,0,4.2,0
			C94.6,85.7,94.5,86,94.4,86.5z M83.3,68.7c-8.5,0-15.3,6.8-15.3,15.3c0,8.4,6.8,15.2,15.2,15.2c8.5,0,15.3-6.8,15.3-15.2
			C98.5,75.5,91.7,68.7,83.3,68.7z M92,77.8c0.5-0.6,0.7-0.3,1.1,0.2c0.7,1.2,1.2,2.4,1.5,4c-1.7,0-3.3,0-5,0c-0.3,0-0.7,0-0.8-0.4
			c-0.1-0.4,0.1-0.6,0.3-0.9C90,79.7,91,78.8,92,77.8z M85.8,72.8c1.4,0.4,2.7,0.9,4,1.8c-1.2,1.2-2.3,2.3-3.4,3.4
			c-0.2,0.2-0.4,0.6-0.9,0.4c-0.4-0.2-0.4-0.5-0.4-0.8c0-1.4,0-2.8,0-4.2C85,72.7,85.3,72.6,85.8,72.8z M77.2,74.2
			c1.3-0.7,2.6-1.3,4.1-1.5c0,1.7,0,3.4,0,5c0,0.3,0,0.6-0.4,0.7c-0.4,0.2-0.6-0.1-0.9-0.3c-1-1-2-2-3-3
			C76.6,74.7,76.7,74.5,77.2,74.2z M72.1,81.3c0.4-1.4,0.9-2.7,1.8-4c1.2,1.2,2.3,2.4,3.5,3.5c0.2,0.2,0.5,0.5,0.3,0.9
			c-0.2,0.3-0.4,0.4-0.7,0.4c-1.5,0-2.9,0-4.4,0C71.9,82.1,72,81.8,72.1,81.3z M74.4,90.2c-0.4,0.4-0.6,0.3-0.8-0.1
			c-0.8-1.2-1.3-2.6-1.6-4.1c1.8,0,3.4,0,5,0c0.3,0,0.6-0.1,0.7,0.3c0.2,0.4,0,0.6-0.2,0.9C76.5,88.1,75.4,89.1,74.4,90.2z
			 M80.7,95.1c-1.4-0.4-2.7-0.9-4.1-1.8c1.2-1.2,2.4-2.3,3.6-3.5c0.2-0.2,0.5-0.5,0.9-0.3c0.4,0.2,0.4,0.5,0.4,0.8
			c0,1.4,0,2.8,0,4.2C81.5,95.1,81.3,95.2,80.7,95.1z M83.1,86.1C82,86,81,85,81.1,83.9c0-1.1,1.2-2.2,2.3-2.1
			c1.1,0.1,2.1,1.2,2.1,2.2C85.4,85.2,84.3,86.1,83.1,86.1z M89.3,93.6c-1.2,0.7-2.5,1.2-4.1,1.6c0-1.7,0-3.3,0-4.9
			c0-0.3-0.1-0.7,0.4-0.8c0.4-0.1,0.6,0.1,0.9,0.3c1,1,2,2,3,3C89.9,93.2,89.7,93.4,89.3,93.6z M94.4,86.5c-0.4,1.4-0.9,2.7-1.8,4
			c-1.2-1.2-2.3-2.4-3.5-3.5c-0.2-0.2-0.5-0.4-0.3-0.8c0.2-0.4,0.4-0.4,0.8-0.4c1.4,0,2.8,0,4.2,0C94.6,85.7,94.5,86,94.4,86.5z
			 M83.3,68.7c-8.5,0-15.3,6.8-15.3,15.3c0,8.4,6.8,15.2,15.2,15.2c8.5,0,15.3-6.8,15.3-15.2C98.5,75.5,91.7,68.7,83.3,68.7z
			 M92,77.8c0.5-0.6,0.7-0.3,1.1,0.2c0.7,1.2,1.2,2.4,1.5,4c-1.7,0-3.3,0-5,0c-0.3,0-0.7,0-0.8-0.4c-0.1-0.4,0.1-0.6,0.3-0.9
			C90,79.7,91,78.8,92,77.8z M85.8,72.8c1.4,0.4,2.7,0.9,4,1.8c-1.2,1.2-2.3,2.3-3.4,3.4c-0.2,0.2-0.4,0.6-0.9,0.4
			c-0.4-0.2-0.4-0.5-0.4-0.8c0-1.4,0-2.8,0-4.2C85,72.7,85.3,72.6,85.8,72.8z M77.2,74.2c1.3-0.7,2.6-1.3,4.1-1.5c0,1.7,0,3.4,0,5
			c0,0.3,0,0.6-0.4,0.7c-0.4,0.2-0.6-0.1-0.9-0.3c-1-1-2-2-3-3C76.6,74.7,76.7,74.5,77.2,74.2z M72.1,81.3c0.4-1.4,0.9-2.7,1.8-4
			c1.2,1.2,2.3,2.4,3.5,3.5c0.2,0.2,0.5,0.5,0.3,0.9c-0.2,0.3-0.4,0.4-0.7,0.4c-1.5,0-2.9,0-4.4,0C71.9,82.1,72,81.8,72.1,81.3z
			 M74.4,90.2c-0.4,0.4-0.6,0.3-0.8-0.1c-0.8-1.2-1.3-2.6-1.6-4.1c1.8,0,3.4,0,5,0c0.3,0,0.6-0.1,0.7,0.3c0.2,0.4,0,0.6-0.2,0.9
			C76.5,88.1,75.4,89.1,74.4,90.2z M80.7,95.1c-1.4-0.4-2.7-0.9-4.1-1.8c1.2-1.2,2.4-2.3,3.6-3.5c0.2-0.2,0.5-0.5,0.9-0.3
			c0.4,0.2,0.4,0.5,0.4,0.8c0,1.4,0,2.8,0,4.2C81.5,95.1,81.3,95.2,80.7,95.1z M83.1,86.1C82,86,81,85,81.1,83.9
			c0-1.1,1.2-2.2,2.3-2.1c1.1,0.1,2.1,1.2,2.1,2.2C85.4,85.2,84.3,86.1,83.1,86.1z M89.3,93.6c-1.2,0.7-2.5,1.2-4.1,1.6
			c0-1.7,0-3.3,0-4.9c0-0.3-0.1-0.7,0.4-0.8c0.4-0.1,0.6,0.1,0.9,0.3c1,1,2,2,3,3C89.9,93.2,89.7,93.4,89.3,93.6z M94.4,86.5
			c-0.4,1.4-0.9,2.7-1.8,4c-1.2-1.2-2.3-2.4-3.5-3.5c-0.2-0.2-0.5-0.4-0.3-0.8c0.2-0.4,0.4-0.4,0.8-0.4c1.4,0,2.8,0,4.2,0
			C94.6,85.7,94.5,86,94.4,86.5z M83.3,68.7c-8.5,0-15.3,6.8-15.3,15.3c0,8.4,6.8,15.2,15.2,15.2c8.5,0,15.3-6.8,15.3-15.2
			C98.5,75.5,91.7,68.7,83.3,68.7z M92,77.8c0.5-0.6,0.7-0.3,1.1,0.2c0.7,1.2,1.2,2.4,1.5,4c-1.7,0-3.3,0-5,0c-0.3,0-0.7,0-0.8-0.4
			c-0.1-0.4,0.1-0.6,0.3-0.9C90,79.7,91,78.8,92,77.8z M85.8,72.8c1.4,0.4,2.7,0.9,4,1.8c-1.2,1.2-2.3,2.3-3.4,3.4
			c-0.2,0.2-0.4,0.6-0.9,0.4c-0.4-0.2-0.4-0.5-0.4-0.8c0-1.4,0-2.8,0-4.2C85,72.7,85.3,72.6,85.8,72.8z M77.2,74.2
			c1.3-0.7,2.6-1.3,4.1-1.5c0,1.7,0,3.4,0,5c0,0.3,0,0.6-0.4,0.7c-0.4,0.2-0.6-0.1-0.9-0.3c-1-1-2-2-3-3
			C76.6,74.7,76.7,74.5,77.2,74.2z M72.1,81.3c0.4-1.4,0.9-2.7,1.8-4c1.2,1.2,2.3,2.4,3.5,3.5c0.2,0.2,0.5,0.5,0.3,0.9
			c-0.2,0.3-0.4,0.4-0.7,0.4c-1.5,0-2.9,0-4.4,0C71.9,82.1,72,81.8,72.1,81.3z M74.4,90.2c-0.4,0.4-0.6,0.3-0.8-0.1
			c-0.8-1.2-1.3-2.6-1.6-4.1c1.8,0,3.4,0,5,0c0.3,0,0.6-0.1,0.7,0.3c0.2,0.4,0,0.6-0.2,0.9C76.5,88.1,75.4,89.1,74.4,90.2z
			 M80.7,95.1c-1.4-0.4-2.7-0.9-4.1-1.8c1.2-1.2,2.4-2.3,3.6-3.5c0.2-0.2,0.5-0.5,0.9-0.3c0.4,0.2,0.4,0.5,0.4,0.8
			c0,1.4,0,2.8,0,4.2C81.5,95.1,81.3,95.2,80.7,95.1z M83.1,86.1C82,86,81,85,81.1,83.9c0-1.1,1.2-2.2,2.3-2.1
			c1.1,0.1,2.1,1.2,2.1,2.2C85.4,85.2,84.3,86.1,83.1,86.1z M89.3,93.6c-1.2,0.7-2.5,1.2-4.1,1.6c0-1.7,0-3.3,0-4.9
			c0-0.3-0.1-0.7,0.4-0.8c0.4-0.1,0.6,0.1,0.9,0.3c1,1,2,2,3,3C89.9,93.2,89.7,93.4,89.3,93.6z M94.4,86.5c-0.4,1.4-0.9,2.7-1.8,4
			c-1.2-1.2-2.3-2.4-3.5-3.5c-0.2-0.2-0.5-0.4-0.3-0.8c0.2-0.4,0.4-0.4,0.8-0.4c1.4,0,2.8,0,4.2,0C94.6,85.7,94.5,86,94.4,86.5z
			 M83.3,68.7c-8.5,0-15.3,6.8-15.3,15.3c0,8.4,6.8,15.2,15.2,15.2c8.5,0,15.3-6.8,15.3-15.2C98.5,75.5,91.7,68.7,83.3,68.7z
			 M92,77.8c0.5-0.6,0.7-0.3,1.1,0.2c0.7,1.2,1.2,2.4,1.5,4c-1.7,0-3.3,0-5,0c-0.3,0-0.7,0-0.8-0.4c-0.1-0.4,0.1-0.6,0.3-0.9
			C90,79.7,91,78.8,92,77.8z M85.8,72.8c1.4,0.4,2.7,0.9,4,1.8c-1.2,1.2-2.3,2.3-3.4,3.4c-0.2,0.2-0.4,0.6-0.9,0.4
			c-0.4-0.2-0.4-0.5-0.4-0.8c0-1.4,0-2.8,0-4.2C85,72.7,85.3,72.6,85.8,72.8z M77.2,74.2c1.3-0.7,2.6-1.3,4.1-1.5c0,1.7,0,3.4,0,5
			c0,0.3,0,0.6-0.4,0.7c-0.4,0.2-0.6-0.1-0.9-0.3c-1-1-2-2-3-3C76.6,74.7,76.7,74.5,77.2,74.2z M72.1,81.3c0.4-1.4,0.9-2.7,1.8-4
			c1.2,1.2,2.3,2.4,3.5,3.5c0.2,0.2,0.5,0.5,0.3,0.9c-0.2,0.3-0.4,0.4-0.7,0.4c-1.5,0-2.9,0-4.4,0C71.9,82.1,72,81.8,72.1,81.3z
			 M74.4,90.2c-0.4,0.4-0.6,0.3-0.8-0.1c-0.8-1.2-1.3-2.6-1.6-4.1c1.8,0,3.4,0,5,0c0.3,0,0.6-0.1,0.7,0.3c0.2,0.4,0,0.6-0.2,0.9
			C76.5,88.1,75.4,89.1,74.4,90.2z M80.7,95.1c-1.4-0.4-2.7-0.9-4.1-1.8c1.2-1.2,2.4-2.3,3.6-3.5c0.2-0.2,0.5-0.5,0.9-0.3
			c0.4,0.2,0.4,0.5,0.4,0.8c0,1.4,0,2.8,0,4.2C81.5,95.1,81.3,95.2,80.7,95.1z M83.1,86.1C82,86,81,85,81.1,83.9
			c0-1.1,1.2-2.2,2.3-2.1c1.1,0.1,2.1,1.2,2.1,2.2C85.4,85.2,84.3,86.1,83.1,86.1z M89.3,93.6c-1.2,0.7-2.5,1.2-4.1,1.6
			c0-1.7,0-3.3,0-4.9c0-0.3-0.1-0.7,0.4-0.8c0.4-0.1,0.6,0.1,0.9,0.3c1,1,2,2,3,3C89.9,93.2,89.7,93.4,89.3,93.6z M94.4,86.5
			c-0.4,1.4-0.9,2.7-1.8,4c-1.2-1.2-2.3-2.4-3.5-3.5c-0.2-0.2-0.5-0.4-0.3-0.8c0.2-0.4,0.4-0.4,0.8-0.4c1.4,0,2.8,0,4.2,0
			C94.6,85.7,94.5,86,94.4,86.5z M83.3,68.7c-8.5,0-15.3,6.8-15.3,15.3c0,8.4,6.8,15.2,15.2,15.2c8.5,0,15.3-6.8,15.3-15.2
			C98.5,75.5,91.7,68.7,83.3,68.7z M92,77.8c0.5-0.6,0.7-0.3,1.1,0.2c0.7,1.2,1.2,2.4,1.5,4c-1.7,0-3.3,0-5,0c-0.3,0-0.7,0-0.8-0.4
			c-0.1-0.4,0.1-0.6,0.3-0.9C90,79.7,91,78.8,92,77.8z M85.8,72.8c1.4,0.4,2.7,0.9,4,1.8c-1.2,1.2-2.3,2.3-3.4,3.4
			c-0.2,0.2-0.4,0.6-0.9,0.4c-0.4-0.2-0.4-0.5-0.4-0.8c0-1.4,0-2.8,0-4.2C85,72.7,85.3,72.6,85.8,72.8z M77.2,74.2
			c1.3-0.7,2.6-1.3,4.1-1.5c0,1.7,0,3.4,0,5c0,0.3,0,0.6-0.4,0.7c-0.4,0.2-0.6-0.1-0.9-0.3c-1-1-2-2-3-3
			C76.6,74.7,76.7,74.5,77.2,74.2z M72.1,81.3c0.4-1.4,0.9-2.7,1.8-4c1.2,1.2,2.3,2.4,3.5,3.5c0.2,0.2,0.5,0.5,0.3,0.9
			c-0.2,0.3-0.4,0.4-0.7,0.4c-1.5,0-2.9,0-4.4,0C71.9,82.1,72,81.8,72.1,81.3z M74.4,90.2c-0.4,0.4-0.6,0.3-0.8-0.1
			c-0.8-1.2-1.3-2.6-1.6-4.1c1.8,0,3.4,0,5,0c0.3,0,0.6-0.1,0.7,0.3c0.2,0.4,0,0.6-0.2,0.9C76.5,88.1,75.4,89.1,74.4,90.2z
			 M80.7,95.1c-1.4-0.4-2.7-0.9-4.1-1.8c1.2-1.2,2.4-2.3,3.6-3.5c0.2-0.2,0.5-0.5,0.9-0.3c0.4,0.2,0.4,0.5,0.4,0.8
			c0,1.4,0,2.8,0,4.2C81.5,95.1,81.3,95.2,80.7,95.1z M83.1,86.1C82,86,81,85,81.1,83.9c0-1.1,1.2-2.2,2.3-2.1
			c1.1,0.1,2.1,1.2,2.1,2.2C85.4,85.2,84.3,86.1,83.1,86.1z M89.3,93.6c-1.2,0.7-2.5,1.2-4.1,1.6c0-1.7,0-3.3,0-4.9
			c0-0.3-0.1-0.7,0.4-0.8c0.4-0.1,0.6,0.1,0.9,0.3c1,1,2,2,3,3C89.9,93.2,89.7,93.4,89.3,93.6z M94.4,86.5c-0.4,1.4-0.9,2.7-1.8,4
			c-1.2-1.2-2.3-2.4-3.5-3.5c-0.2-0.2-0.5-0.4-0.3-0.8c0.2-0.4,0.4-0.4,0.8-0.4c1.4,0,2.8,0,4.2,0C94.6,85.7,94.5,86,94.4,86.5z
			 M83.3,68.7c-8.5,0-15.3,6.8-15.3,15.3c0,8.4,6.8,15.2,15.2,15.2c8.5,0,15.3-6.8,15.3-15.2C98.5,75.5,91.7,68.7,83.3,68.7z
			 M92,77.8c0.5-0.6,0.7-0.3,1.1,0.2c0.7,1.2,1.2,2.4,1.5,4c-1.7,0-3.3,0-5,0c-0.3,0-0.7,0-0.8-0.4c-0.1-0.4,0.1-0.6,0.3-0.9
			C90,79.7,91,78.8,92,77.8z M85.8,72.8c1.4,0.4,2.7,0.9,4,1.8c-1.2,1.2-2.3,2.3-3.4,3.4c-0.2,0.2-0.4,0.6-0.9,0.4
			c-0.4-0.2-0.4-0.5-0.4-0.8c0-1.4,0-2.8,0-4.2C85,72.7,85.3,72.6,85.8,72.8z M77.2,74.2c1.3-0.7,2.6-1.3,4.1-1.5c0,1.7,0,3.4,0,5
			c0,0.3,0,0.6-0.4,0.7c-0.4,0.2-0.6-0.1-0.9-0.3c-1-1-2-2-3-3C76.6,74.7,76.7,74.5,77.2,74.2z M72.1,81.3c0.4-1.4,0.9-2.7,1.8-4
			c1.2,1.2,2.3,2.4,3.5,3.5c0.2,0.2,0.5,0.5,0.3,0.9c-0.2,0.3-0.4,0.4-0.7,0.4c-1.5,0-2.9,0-4.4,0C71.9,82.1,72,81.8,72.1,81.3z
			 M74.4,90.2c-0.4,0.4-0.6,0.3-0.8-0.1c-0.8-1.2-1.3-2.6-1.6-4.1c1.8,0,3.4,0,5,0c0.3,0,0.6-0.1,0.7,0.3c0.2,0.4,0,0.6-0.2,0.9
			C76.5,88.1,75.4,89.1,74.4,90.2z M80.7,95.1c-1.4-0.4-2.7-0.9-4.1-1.8c1.2-1.2,2.4-2.3,3.6-3.5c0.2-0.2,0.5-0.5,0.9-0.3
			c0.4,0.2,0.4,0.5,0.4,0.8c0,1.4,0,2.8,0,4.2C81.5,95.1,81.3,95.2,80.7,95.1z M83.1,86.1C82,86,81,85,81.1,83.9
			c0-1.1,1.2-2.2,2.3-2.1c1.1,0.1,2.1,1.2,2.1,2.2C85.4,85.2,84.3,86.1,83.1,86.1z M89.3,93.6c-1.2,0.7-2.5,1.2-4.1,1.6
			c0-1.7,0-3.3,0-4.9c0-0.3-0.1-0.7,0.4-0.8c0.4-0.1,0.6,0.1,0.9,0.3c1,1,2,2,3,3C89.9,93.2,89.7,93.4,89.3,93.6z M94.4,86.5
			c-0.4,1.4-0.9,2.7-1.8,4c-1.2-1.2-2.3-2.4-3.5-3.5c-0.2-0.2-0.5-0.4-0.3-0.8c0.2-0.4,0.4-0.4,0.8-0.4c1.4,0,2.8,0,4.2,0
			C94.6,85.7,94.5,86,94.4,86.5z M83.3,68.7c-8.5,0-15.3,6.8-15.3,15.3c0,8.4,6.8,15.2,15.2,15.2c8.5,0,15.3-6.8,15.3-15.2
			C98.5,75.5,91.7,68.7,83.3,68.7z M92,77.8c0.5-0.6,0.7-0.3,1.1,0.2c0.7,1.2,1.2,2.4,1.5,4c-1.7,0-3.3,0-5,0c-0.3,0-0.7,0-0.8-0.4
			c-0.1-0.4,0.1-0.6,0.3-0.9C90,79.7,91,78.8,92,77.8z M85.8,72.8c1.4,0.4,2.7,0.9,4,1.8c-1.2,1.2-2.3,2.3-3.4,3.4
			c-0.2,0.2-0.4,0.6-0.9,0.4c-0.4-0.2-0.4-0.5-0.4-0.8c0-1.4,0-2.8,0-4.2C85,72.7,85.3,72.6,85.8,72.8z M77.2,74.2
			c1.3-0.7,2.6-1.3,4.1-1.5c0,1.7,0,3.4,0,5c0,0.3,0,0.6-0.4,0.7c-0.4,0.2-0.6-0.1-0.9-0.3c-1-1-2-2-3-3
			C76.6,74.7,76.7,74.5,77.2,74.2z M72.1,81.3c0.4-1.4,0.9-2.7,1.8-4c1.2,1.2,2.3,2.4,3.5,3.5c0.2,0.2,0.5,0.5,0.3,0.9
			c-0.2,0.3-0.4,0.4-0.7,0.4c-1.5,0-2.9,0-4.4,0C71.9,82.1,72,81.8,72.1,81.3z M74.4,90.2c-0.4,0.4-0.6,0.3-0.8-0.1
			c-0.8-1.2-1.3-2.6-1.6-4.1c1.8,0,3.4,0,5,0c0.3,0,0.6-0.1,0.7,0.3c0.2,0.4,0,0.6-0.2,0.9C76.5,88.1,75.4,89.1,74.4,90.2z
			 M80.7,95.1c-1.4-0.4-2.7-0.9-4.1-1.8c1.2-1.2,2.4-2.3,3.6-3.5c0.2-0.2,0.5-0.5,0.9-0.3c0.4,0.2,0.4,0.5,0.4,0.8
			c0,1.4,0,2.8,0,4.2C81.5,95.1,81.3,95.2,80.7,95.1z M83.1,86.1C82,86,81,85,81.1,83.9c0-1.1,1.2-2.2,2.3-2.1
			c1.1,0.1,2.1,1.2,2.1,2.2C85.4,85.2,84.3,86.1,83.1,86.1z M89.3,93.6c-1.2,0.7-2.5,1.2-4.1,1.6c0-1.7,0-3.3,0-4.9
			c0-0.3-0.1-0.7,0.4-0.8c0.4-0.1,0.6,0.1,0.9,0.3c1,1,2,2,3,3C89.9,93.2,89.7,93.4,89.3,93.6z M94.4,86.5c-0.4,1.4-0.9,2.7-1.8,4
			c-1.2-1.2-2.3-2.4-3.5-3.5c-0.2-0.2-0.5-0.4-0.3-0.8c0.2-0.4,0.4-0.4,0.8-0.4c1.4,0,2.8,0,4.2,0C94.6,85.7,94.5,86,94.4,86.5z
			 M128,34.8c0-0.9-0.5-1.5-1.3-1.8c-0.9-0.3-1.6,0-2.2,0.8c-0.2,0.3-0.4,0.6-0.6,1c-2,3.6-4,7.2-5.9,10.8c-0.5,0.9-1,1.1-1.9,1.1
			c-15.7,0-31.5,0-47.2,0c-0.5,0-1.1,0-1.6,0.1c-1,0.2-1.6,0.9-1.5,1.9c0.1,1.2,0.9,1.8,2.6,1.8c16.4,0,32.7,0,49.1,0
			c1.6,0,2.5-0.6,3.2-1.9c1-2,2.2-4,3.3-6c0.2,3.7,0.2,7.4,0.2,11c0,1.1-0.6,1.7-1.7,1.8c-1.5,0.1-2.9,0.2-4.4,0.2
			c-7.1,0.4-14.1,0.8-21.2,1.2c-5.4,0.3-10.8,0.6-16.2,0.8c-7.2,0.4-14.5,0.8-21.7,1.2C53.5,59,48,59.3,42.5,59.6
			c-3.8,0.2-7.6,0.4-11.4,0.6c-0.8,0.1-1.2-0.1-1.2-1c0.1-1.2-0.2-2.3-0.4-3.5c-0.3-1.8-0.9-3.5-1.4-5.3h26c0.4,0,0.8,0,1.2,0
			c1.1-0.2,1.8-0.8,1.8-1.9c0-1-0.7-1.7-1.8-1.8c-0.4,0-0.8,0-1.2,0c-8.9,0-17.7,0-26.6,0c-0.5,0-1,0.2-1.4-0.4
			c-1-1.8-2.3-3.5-3.8-5.3h1.5c7.8,0,15.6,0,23.4,0c2.3,0,4.1-1.5,4.2-3.6c0.1-2.3-1.2-3.9-3.6-4.2c-2.7-0.3-5.5-0.5-8.2-0.8
			c-4.9-0.5-9.8-0.9-14.7-1.4c-4.3-0.4-8.5-0.8-12.8-1.2c-0.4,0-0.6-0.2-0.7-0.6c-0.6-4-1.3-8-2-12c-0.4-2.5-0.8-4.9-1.3-7.4
			C7.7,7.3,6,6,3.8,5.2h-2c0,0,0,0,0,0C0.8,5.4,0.2,6,0,7v27.5c0.3,0.5,0.1,1,0.1,1.5c0,16.8,0,33.6,0,50.4v0.1c0,0.8,0,1.6,0,2.5
			c-0.1,2.1,0.2,4.1-0.1,6.2v0.3c0.3,1.6,1.2,2.7,2.7,3.2c1,0.3,1.3,0.9,1.2,1.8c-0.1,0.4,0,0.9,0,1.4c0,0.7-0.2,1.2-0.9,1.5
			c-1.7,0.8-2.8,2.2-3,4.1v0.5c0.2,2.2,0.2,4.5,0,6.7v0.5c0.4,0.1,0.3,0.5,0.4,0.7c1.2,2.7,3.8,4,6.9,3.5c2.8-0.5,4.6-2.6,4.7-5.5
			c0.1-1.8,0-3.7,0-5.5c0-1.7-0.7-3.3-2.2-4.1c-1.6-0.8-1.7-2-1.6-3.4c0-0.5,0-0.9,0-1.4c0-0.6,0.1-0.8,0.7-0.8
			c2.5-0.2,4-1.9,4.1-4.3c0-1.7,0-3.4,0-5.1c0-0.4,0-0.8,0.5-1c2.8-1.4,5.3-3.3,7.6-5.5c0.4,0.7,0.9,1.1,1.4,1.5
			c6.3,5.6,12.6,11.2,19,16.8c1.1,1,1.6,1.9,1.2,3.4c-0.6-0.3-1.2-0.3-1.8-0.3c-4.1-0.5-7.2,2.3-7.3,6.4c0,1.9,0,3.8,0,5.7
			c0,0.7,0.1,1.5,0.3,2.2c1.4,4.7,7.3,5.2,10.3,3.1c0.3-0.2,0.6-0.6,1.1-0.2c1.5,1.3,3.3,1.4,5.2,1.3c2.7-0.1,5.2-2.3,5.6-5
			c0.4-2.6,0.2-5.2,0.1-7.7c0-0.9-0.2-1.7-0.6-2.5c-1.4-2.8-4.5-4-8-3.2c-0.7,0.2-0.9,0.1-0.9-0.6c0-6.6,0-13.2,0-19.7
			c0-0.5,0-0.7,0.6-0.8c3-0.5,4.2-2,4.2-5c0-4.7,0-9.5,0-14.2c0-0.5-0.2-0.9,0.7-1c4.3-0.2,8.6-0.4,12.8-0.7c0.7-0.1,1,0.2,1.2,0.9
			c0.5,1.5,1.1,3,1.7,4.4c0.4,0.9,0.2,1.4-0.4,2.1c-5.1,5.7-6.8,12.3-5,19.7c3.5,14.4,20.7,20.8,32.8,12.4
			c10.8-7.5,12.5-22.6,3.4-32.2c-0.6-0.6-0.7-1.1-0.4-1.9c0.8-1.9,1.5-3.9,2.1-5.8c0.3-1,0.8-1.3,1.7-1.3c6.8-0.3,13.6-0.7,20.5-1
			c2.9-0.2,5.3-2.2,5.3-4.9C128,47.8,128,41.3,128,34.8z M46.8,110.1c0.1-1.6,1.2-2.3,3.1-2.2c1.5,0.1,2.3,0.9,2.4,2.4
			c0,1,0,2.1,0,3.1c0,1,0,2,0,3c0,1.5-0.9,2.4-2.6,2.4c-1.7,0.1-2.9-0.7-2.9-2.2C46.7,114.5,46.7,112.3,46.8,110.1z M47.3,37
			c0,0.1,0,0.1,0,0.2H35.2c-5.2,0-10.4,0-15.6,0c-0.7,0-1.4-0.2-1.9-0.6c-1.3-1-2.8-1.9-4.2-2.8C24.7,34.8,36,35.9,47.3,37z
			 M3.8,28.4c0-6.2,0-12.4,0-18.7C4.4,10,4.5,10.5,4.5,11c1.1,6.3,2.2,12.6,3.2,18.9c0.3,1.9,0.3,1.9-1.6,1.4
			c-0.8-0.2-1.9-0.1-2.2-0.5C3.5,30.2,3.8,29.2,3.8,28.4z M8.3,108.8c0,0.8,0,1.7,0,2.5c0,0.8,0,1.6,0,2.4c0,1.3-0.6,1.9-1.9,2
			c-1.5,0.1-2.4-0.4-2.4-1.7c-0.1-1.8-0.1-3.7,0-5.5c0.1-1.3,0.9-1.7,2.6-1.5C7.7,107,8.2,107.7,8.3,108.8z M7.9,95
			c-0.5,0-0.9,0-1.4,0H6.3c-2.7,0-2.5,0.3-2.5-2.6c0-0.8,0.2-1.1,1-1.2C6,91,7.2,90.6,8.4,90.3c0.6-0.2,0.9-0.1,0.9,0.6
			c-0.1,0.9-0.1,1.8,0,2.7C9.3,94.7,8.9,95.1,7.9,95z M4.7,87.3c-0.8,0.1-0.9,0-0.9-0.7c0-9.7,0-19.4,0-29.4C4.7,58,5,58.9,5.3,59.7
			C5.9,62.1,7,62.9,9.4,63c2.4,0,4.7,0,7.1,0c2.6,0,4.1-1.7,3.7-4.3C19.1,49.8,13.3,43.2,4.7,41c-0.6-0.2-1-0.4-0.9-1.2
			c0.1-1.2,0.1-2.5,0-3.7c-0.1-1.1,0.3-1.3,1.3-1.1c6,1.4,11.1,4.4,15,9.2c4.3,5.3,6.4,11.4,6.1,18.2C25.8,74.3,16.3,85.2,4.7,87.3z
			 M4,44.6c6.9,2.3,11.1,6.8,12.5,13.8c0.1,0.6,0,0.8-0.6,0.8c-2,0-4.1,0-6.1,0c-0.5,0-0.6-0.2-0.8-0.6c-0.7-2.5-2.2-4.4-4.4-5.8
			c-0.4-0.2-0.5-0.5-0.5-0.9C4,49.5,4,47.2,4,44.6z M42.7,97.1c-1.6-1.4-3-2.7-4.6-4.1c1.5-0.9,3-1.7,4.6-2.5V97.1z M41,87.1
			c-1.8,0.8-3.5,1.9-5.2,2.9c-0.5,0.3-0.8,0.3-1.3-0.1c-3.5-3.2-7.1-6.3-10.7-9.4c-0.5-0.4-0.1-0.6,0-0.9c3-3.9,4.8-8.3,5.8-13.1
			c0.5-2.5,0.5-2.5,3.2-2.5c1.3,0,2.6-0.1,3.9-0.2c0.9-0.1,1.3,0.1,1.3,1.1c-0.1,2.3,0,4.7,0,7c0,2.2,0,4.5,0,6.7
			c0,2.6,1.5,4.3,4.1,4.6c0.6,0.1,0.7,0.2,0.8,0.8C43,85.5,42.6,86.5,41,87.1z M42.8,117.2c-0.2,1.3-1.5,1.9-3,1.7
			c-1.4-0.2-2.2-0.9-2.3-2.3c-0.1-1.1,0-2.2,0-3.2c0,0,0,0,0,0c0-1.1,0-2.2,0-3.4c0.1-1.2,0.8-2,2-2.1c1.9-0.2,3.1,0.3,3.3,1.6
			C43.2,112.1,43.2,114.7,42.8,117.2z M46.4,79.5c-1.2,0-2.4,0-3.6,0c-0.7,0-1.1-0.3-1.1-1.1c0-4.7,0-9.3,0-14
			c0-0.7,0.2-0.9,0.9-0.9c1.4,0,2.7-0.1,4.1-0.2c0.7-0.1,0.8,0.2,0.8,0.8c0,2.4,0,4.8,0,7.2c0,2.3,0,4.7,0,7
			C47.6,79.1,47.2,79.5,46.4,79.5z M95.2,60.7c0.4,0.2,1-0.2,1.3,0.3c-0.5,1.6-1.1,3.2-1.7,4.9c-1.3-0.4-2.4-1.2-3.6-1.7
			c-6.5-2.5-12.7-2.1-18.8,1.4c-0.9,0.5-1.2,0.4-1.5-0.6c-0.3-1-0.7-1.9-1.1-3C78.4,61.5,86.8,61.1,95.2,60.7z M100.8,84
			c0,9.8-7.9,17.6-17.8,17.5c-9.7-0.1-17.4-8-17.3-17.7c0.1-9.7,7.9-17.5,17.6-17.4C93.1,66.4,100.8,74.2,100.8,84z M83.3,68.7
			c-8.5,0-15.3,6.8-15.3,15.3c0,8.4,6.8,15.2,15.2,15.2c8.5,0,15.3-6.8,15.3-15.2C98.5,75.5,91.7,68.7,83.3,68.7z M85.8,72.8
			c1.4,0.4,2.7,0.9,4,1.8c-1.2,1.2-2.3,2.3-3.4,3.4c-0.2,0.2-0.4,0.6-0.9,0.4c-0.4-0.2-0.4-0.5-0.4-0.8c0-1.4,0-2.8,0-4.2
			C85,72.7,85.3,72.6,85.8,72.8z M77.2,74.2c1.3-0.7,2.6-1.3,4.1-1.5c0,1.7,0,3.4,0,5c0,0.3,0,0.6-0.4,0.7c-0.4,0.2-0.6-0.1-0.9-0.3
			c-1-1-2-2-3-3C76.6,74.7,76.7,74.5,77.2,74.2z M72.1,81.3c0.4-1.4,0.9-2.7,1.8-4c1.2,1.2,2.3,2.4,3.5,3.5c0.2,0.2,0.5,0.5,0.3,0.9
			c-0.2,0.3-0.4,0.4-0.7,0.4c-1.5,0-2.9,0-4.4,0C71.9,82.1,72,81.8,72.1,81.3z M74.4,90.2c-0.4,0.4-0.6,0.3-0.8-0.1
			c-0.8-1.2-1.3-2.6-1.6-4.1c1.8,0,3.4,0,5,0c0.3,0,0.6-0.1,0.7,0.3c0.2,0.4,0,0.6-0.2,0.9C76.5,88.1,75.4,89.1,74.4,90.2z
			 M80.7,95.1c-1.4-0.4-2.7-0.9-4.1-1.8c1.2-1.2,2.4-2.3,3.6-3.5c0.2-0.2,0.5-0.5,0.9-0.3c0.4,0.2,0.4,0.5,0.4,0.8
			c0,1.4,0,2.8,0,4.2C81.5,95.1,81.3,95.2,80.7,95.1z M83.1,86.1C82,86,81,85,81.1,83.9c0-1.1,1.2-2.2,2.3-2.1
			c1.1,0.1,2.1,1.2,2.1,2.2C85.4,85.2,84.3,86.1,83.1,86.1z M89.3,93.6c-1.2,0.7-2.5,1.2-4.1,1.6c0-1.7,0-3.3,0-4.9
			c0-0.3-0.1-0.7,0.4-0.8c0.4-0.1,0.6,0.1,0.9,0.3c1,1,2,2,3,3C89.9,93.2,89.7,93.4,89.3,93.6z M94.4,86.5c-0.4,1.4-0.9,2.7-1.8,4
			c-1.2-1.2-2.3-2.4-3.5-3.5c-0.2-0.2-0.5-0.4-0.3-0.8c0.2-0.4,0.4-0.4,0.8-0.4c1.4,0,2.8,0,4.2,0C94.6,85.7,94.5,86,94.4,86.5z
			 M89.6,82c-0.3,0-0.7,0-0.8-0.4c-0.1-0.4,0.1-0.6,0.3-0.9c1-1,2-1.9,2.9-2.9c0.5-0.6,0.7-0.3,1.1,0.2c0.7,1.2,1.2,2.4,1.5,4
			C92.8,82,91.2,82,89.6,82z M83.3,68.7c-8.5,0-15.3,6.8-15.3,15.3c0,8.4,6.8,15.2,15.2,15.2c8.5,0,15.3-6.8,15.3-15.2
			C98.5,75.5,91.7,68.7,83.3,68.7z M92,77.8c0.5-0.6,0.7-0.3,1.1,0.2c0.7,1.2,1.2,2.4,1.5,4c-1.7,0-3.3,0-5,0c-0.3,0-0.7,0-0.8-0.4
			c-0.1-0.4,0.1-0.6,0.3-0.9C90,79.7,91,78.8,92,77.8z M85.8,72.8c1.4,0.4,2.7,0.9,4,1.8c-1.2,1.2-2.3,2.3-3.4,3.4
			c-0.2,0.2-0.4,0.6-0.9,0.4c-0.4-0.2-0.4-0.5-0.4-0.8c0-1.4,0-2.8,0-4.2C85,72.7,85.3,72.6,85.8,72.8z M77.2,74.2
			c1.3-0.7,2.6-1.3,4.1-1.5c0,1.7,0,3.4,0,5c0,0.3,0,0.6-0.4,0.7c-0.4,0.2-0.6-0.1-0.9-0.3c-1-1-2-2-3-3
			C76.6,74.7,76.7,74.5,77.2,74.2z M72.1,81.3c0.4-1.4,0.9-2.7,1.8-4c1.2,1.2,2.3,2.4,3.5,3.5c0.2,0.2,0.5,0.5,0.3,0.9
			c-0.2,0.3-0.4,0.4-0.7,0.4c-1.5,0-2.9,0-4.4,0C71.9,82.1,72,81.8,72.1,81.3z M74.4,90.2c-0.4,0.4-0.6,0.3-0.8-0.1
			c-0.8-1.2-1.3-2.6-1.6-4.1c1.8,0,3.4,0,5,0c0.3,0,0.6-0.1,0.7,0.3c0.2,0.4,0,0.6-0.2,0.9C76.5,88.1,75.4,89.1,74.4,90.2z
			 M80.7,95.1c-1.4-0.4-2.7-0.9-4.1-1.8c1.2-1.2,2.4-2.3,3.6-3.5c0.2-0.2,0.5-0.5,0.9-0.3c0.4,0.2,0.4,0.5,0.4,0.8
			c0,1.4,0,2.8,0,4.2C81.5,95.1,81.3,95.2,80.7,95.1z M83.1,86.1C82,86,81,85,81.1,83.9c0-1.1,1.2-2.2,2.3-2.1
			c1.1,0.1,2.1,1.2,2.1,2.2C85.4,85.2,84.3,86.1,83.1,86.1z M89.3,93.6c-1.2,0.7-2.5,1.2-4.1,1.6c0-1.7,0-3.3,0-4.9
			c0-0.3-0.1-0.7,0.4-0.8c0.4-0.1,0.6,0.1,0.9,0.3c1,1,2,2,3,3C89.9,93.2,89.7,93.4,89.3,93.6z M94.4,86.5c-0.4,1.4-0.9,2.7-1.8,4
			c-1.2-1.2-2.3-2.4-3.5-3.5c-0.2-0.2-0.5-0.4-0.3-0.8c0.2-0.4,0.4-0.4,0.8-0.4c1.4,0,2.8,0,4.2,0C94.6,85.7,94.5,86,94.4,86.5z
			 M83.3,68.7c-8.5,0-15.3,6.8-15.3,15.3c0,8.4,6.8,15.2,15.2,15.2c8.5,0,15.3-6.8,15.3-15.2C98.5,75.5,91.7,68.7,83.3,68.7z
			 M92,77.8c0.5-0.6,0.7-0.3,1.1,0.2c0.7,1.2,1.2,2.4,1.5,4c-1.7,0-3.3,0-5,0c-0.3,0-0.7,0-0.8-0.4c-0.1-0.4,0.1-0.6,0.3-0.9
			C90,79.7,91,78.8,92,77.8z M85.8,72.8c1.4,0.4,2.7,0.9,4,1.8c-1.2,1.2-2.3,2.3-3.4,3.4c-0.2,0.2-0.4,0.6-0.9,0.4
			c-0.4-0.2-0.4-0.5-0.4-0.8c0-1.4,0-2.8,0-4.2C85,72.7,85.3,72.6,85.8,72.8z M77.2,74.2c1.3-0.7,2.6-1.3,4.1-1.5c0,1.7,0,3.4,0,5
			c0,0.3,0,0.6-0.4,0.7c-0.4,0.2-0.6-0.1-0.9-0.3c-1-1-2-2-3-3C76.6,74.7,76.7,74.5,77.2,74.2z M72.1,81.3c0.4-1.4,0.9-2.7,1.8-4
			c1.2,1.2,2.3,2.4,3.5,3.5c0.2,0.2,0.5,0.5,0.3,0.9c-0.2,0.3-0.4,0.4-0.7,0.4c-1.5,0-2.9,0-4.4,0C71.9,82.1,72,81.8,72.1,81.3z
			 M74.4,90.2c-0.4,0.4-0.6,0.3-0.8-0.1c-0.8-1.2-1.3-2.6-1.6-4.1c1.8,0,3.4,0,5,0c0.3,0,0.6-0.1,0.7,0.3c0.2,0.4,0,0.6-0.2,0.9
			C76.5,88.1,75.4,89.1,74.4,90.2z M80.7,95.1c-1.4-0.4-2.7-0.9-4.1-1.8c1.2-1.2,2.4-2.3,3.6-3.5c0.2-0.2,0.5-0.5,0.9-0.3
			c0.4,0.2,0.4,0.5,0.4,0.8c0,1.4,0,2.8,0,4.2C81.5,95.1,81.3,95.2,80.7,95.1z M83.1,86.1C82,86,81,85,81.1,83.9
			c0-1.1,1.2-2.2,2.3-2.1c1.1,0.1,2.1,1.2,2.1,2.2C85.4,85.2,84.3,86.1,83.1,86.1z M89.3,93.6c-1.2,0.7-2.5,1.2-4.1,1.6
			c0-1.7,0-3.3,0-4.9c0-0.3-0.1-0.7,0.4-0.8c0.4-0.1,0.6,0.1,0.9,0.3c1,1,2,2,3,3C89.9,93.2,89.7,93.4,89.3,93.6z M94.4,86.5
			c-0.4,1.4-0.9,2.7-1.8,4c-1.2-1.2-2.3-2.4-3.5-3.5c-0.2-0.2-0.5-0.4-0.3-0.8c0.2-0.4,0.4-0.4,0.8-0.4c1.4,0,2.8,0,4.2,0
			C94.6,85.7,94.5,86,94.4,86.5z M83.3,68.7c-8.5,0-15.3,6.8-15.3,15.3c0,8.4,6.8,15.2,15.2,15.2c8.5,0,15.3-6.8,15.3-15.2
			C98.5,75.5,91.7,68.7,83.3,68.7z M92,77.8c0.5-0.6,0.7-0.3,1.1,0.2c0.7,1.2,1.2,2.4,1.5,4c-1.7,0-3.3,0-5,0c-0.3,0-0.7,0-0.8-0.4
			c-0.1-0.4,0.1-0.6,0.3-0.9C90,79.7,91,78.8,92,77.8z M85.8,72.8c1.4,0.4,2.7,0.9,4,1.8c-1.2,1.2-2.3,2.3-3.4,3.4
			c-0.2,0.2-0.4,0.6-0.9,0.4c-0.4-0.2-0.4-0.5-0.4-0.8c0-1.4,0-2.8,0-4.2C85,72.7,85.3,72.6,85.8,72.8z M77.2,74.2
			c1.3-0.7,2.6-1.3,4.1-1.5c0,1.7,0,3.4,0,5c0,0.3,0,0.6-0.4,0.7c-0.4,0.2-0.6-0.1-0.9-0.3c-1-1-2-2-3-3
			C76.6,74.7,76.7,74.5,77.2,74.2z M72.1,81.3c0.4-1.4,0.9-2.7,1.8-4c1.2,1.2,2.3,2.4,3.5,3.5c0.2,0.2,0.5,0.5,0.3,0.9
			c-0.2,0.3-0.4,0.4-0.7,0.4c-1.5,0-2.9,0-4.4,0C71.9,82.1,72,81.8,72.1,81.3z M74.4,90.2c-0.4,0.4-0.6,0.3-0.8-0.1
			c-0.8-1.2-1.3-2.6-1.6-4.1c1.8,0,3.4,0,5,0c0.3,0,0.6-0.1,0.7,0.3c0.2,0.4,0,0.6-0.2,0.9C76.5,88.1,75.4,89.1,74.4,90.2z
			 M80.7,95.1c-1.4-0.4-2.7-0.9-4.1-1.8c1.2-1.2,2.4-2.3,3.6-3.5c0.2-0.2,0.5-0.5,0.9-0.3c0.4,0.2,0.4,0.5,0.4,0.8
			c0,1.4,0,2.8,0,4.2C81.5,95.1,81.3,95.2,80.7,95.1z M83.1,86.1C82,86,81,85,81.1,83.9c0-1.1,1.2-2.2,2.3-2.1
			c1.1,0.1,2.1,1.2,2.1,2.2C85.4,85.2,84.3,86.1,83.1,86.1z M89.3,93.6c-1.2,0.7-2.5,1.2-4.1,1.6c0-1.7,0-3.3,0-4.9
			c0-0.3-0.1-0.7,0.4-0.8c0.4-0.1,0.6,0.1,0.9,0.3c1,1,2,2,3,3C89.9,93.2,89.7,93.4,89.3,93.6z M94.4,86.5c-0.4,1.4-0.9,2.7-1.8,4
			c-1.2-1.2-2.3-2.4-3.5-3.5c-0.2-0.2-0.5-0.4-0.3-0.8c0.2-0.4,0.4-0.4,0.8-0.4c1.4,0,2.8,0,4.2,0C94.6,85.7,94.5,86,94.4,86.5z
			 M83.3,68.7c-8.5,0-15.3,6.8-15.3,15.3c0,8.4,6.8,15.2,15.2,15.2c8.5,0,15.3-6.8,15.3-15.2C98.5,75.5,91.7,68.7,83.3,68.7z
			 M92,77.8c0.5-0.6,0.7-0.3,1.1,0.2c0.7,1.2,1.2,2.4,1.5,4c-1.7,0-3.3,0-5,0c-0.3,0-0.7,0-0.8-0.4c-0.1-0.4,0.1-0.6,0.3-0.9
			C90,79.7,91,78.8,92,77.8z M85.8,72.8c1.4,0.4,2.7,0.9,4,1.8c-1.2,1.2-2.3,2.3-3.4,3.4c-0.2,0.2-0.4,0.6-0.9,0.4
			c-0.4-0.2-0.4-0.5-0.4-0.8c0-1.4,0-2.8,0-4.2C85,72.7,85.3,72.6,85.8,72.8z M77.2,74.2c1.3-0.7,2.6-1.3,4.1-1.5c0,1.7,0,3.4,0,5
			c0,0.3,0,0.6-0.4,0.7c-0.4,0.2-0.6-0.1-0.9-0.3c-1-1-2-2-3-3C76.6,74.7,76.7,74.5,77.2,74.2z M72.1,81.3c0.4-1.4,0.9-2.7,1.8-4
			c1.2,1.2,2.3,2.4,3.5,3.5c0.2,0.2,0.5,0.5,0.3,0.9c-0.2,0.3-0.4,0.4-0.7,0.4c-1.5,0-2.9,0-4.4,0C71.9,82.1,72,81.8,72.1,81.3z
			 M74.4,90.2c-0.4,0.4-0.6,0.3-0.8-0.1c-0.8-1.2-1.3-2.6-1.6-4.1c1.8,0,3.4,0,5,0c0.3,0,0.6-0.1,0.7,0.3c0.2,0.4,0,0.6-0.2,0.9
			C76.5,88.1,75.4,89.1,74.4,90.2z M80.7,95.1c-1.4-0.4-2.7-0.9-4.1-1.8c1.2-1.2,2.4-2.3,3.6-3.5c0.2-0.2,0.5-0.5,0.9-0.3
			c0.4,0.2,0.4,0.5,0.4,0.8c0,1.4,0,2.8,0,4.2C81.5,95.1,81.3,95.2,80.7,95.1z M83.1,86.1C82,86,81,85,81.1,83.9
			c0-1.1,1.2-2.2,2.3-2.1c1.1,0.1,2.1,1.2,2.1,2.2C85.4,85.2,84.3,86.1,83.1,86.1z M89.3,93.6c-1.2,0.7-2.5,1.2-4.1,1.6
			c0-1.7,0-3.3,0-4.9c0-0.3-0.1-0.7,0.4-0.8c0.4-0.1,0.6,0.1,0.9,0.3c1,1,2,2,3,3C89.9,93.2,89.7,93.4,89.3,93.6z M94.4,86.5
			c-0.4,1.4-0.9,2.7-1.8,4c-1.2-1.2-2.3-2.4-3.5-3.5c-0.2-0.2-0.5-0.4-0.3-0.8c0.2-0.4,0.4-0.4,0.8-0.4c1.4,0,2.8,0,4.2,0
			C94.6,85.7,94.5,86,94.4,86.5z M83.3,68.7c-8.5,0-15.3,6.8-15.3,15.3c0,8.4,6.8,15.2,15.2,15.2c8.5,0,15.3-6.8,15.3-15.2
			C98.5,75.5,91.7,68.7,83.3,68.7z M92,77.8c0.5-0.6,0.7-0.3,1.1,0.2c0.7,1.2,1.2,2.4,1.5,4c-1.7,0-3.3,0-5,0c-0.3,0-0.7,0-0.8-0.4
			c-0.1-0.4,0.1-0.6,0.3-0.9C90,79.7,91,78.8,92,77.8z M85.8,72.8c1.4,0.4,2.7,0.9,4,1.8c-1.2,1.2-2.3,2.3-3.4,3.4
			c-0.2,0.2-0.4,0.6-0.9,0.4c-0.4-0.2-0.4-0.5-0.4-0.8c0-1.4,0-2.8,0-4.2C85,72.7,85.3,72.6,85.8,72.8z M77.2,74.2
			c1.3-0.7,2.6-1.3,4.1-1.5c0,1.7,0,3.4,0,5c0,0.3,0,0.6-0.4,0.7c-0.4,0.2-0.6-0.1-0.9-0.3c-1-1-2-2-3-3
			C76.6,74.7,76.7,74.5,77.2,74.2z M72.1,81.3c0.4-1.4,0.9-2.7,1.8-4c1.2,1.2,2.3,2.4,3.5,3.5c0.2,0.2,0.5,0.5,0.3,0.9
			c-0.2,0.3-0.4,0.4-0.7,0.4c-1.5,0-2.9,0-4.4,0C71.9,82.1,72,81.8,72.1,81.3z M74.4,90.2c-0.4,0.4-0.6,0.3-0.8-0.1
			c-0.8-1.2-1.3-2.6-1.6-4.1c1.8,0,3.4,0,5,0c0.3,0,0.6-0.1,0.7,0.3c0.2,0.4,0,0.6-0.2,0.9C76.5,88.1,75.4,89.1,74.4,90.2z
			 M80.7,95.1c-1.4-0.4-2.7-0.9-4.1-1.8c1.2-1.2,2.4-2.3,3.6-3.5c0.2-0.2,0.5-0.5,0.9-0.3c0.4,0.2,0.4,0.5,0.4,0.8
			c0,1.4,0,2.8,0,4.2C81.5,95.1,81.3,95.2,80.7,95.1z M83.1,86.1C82,86,81,85,81.1,83.9c0-1.1,1.2-2.2,2.3-2.1
			c1.1,0.1,2.1,1.2,2.1,2.2C85.4,85.2,84.3,86.1,83.1,86.1z M89.3,93.6c-1.2,0.7-2.5,1.2-4.1,1.6c0-1.7,0-3.3,0-4.9
			c0-0.3-0.1-0.7,0.4-0.8c0.4-0.1,0.6,0.1,0.9,0.3c1,1,2,2,3,3C89.9,93.2,89.7,93.4,89.3,93.6z M94.4,86.5c-0.4,1.4-0.9,2.7-1.8,4
			c-1.2-1.2-2.3-2.4-3.5-3.5c-0.2-0.2-0.5-0.4-0.3-0.8c0.2-0.4,0.4-0.4,0.8-0.4c1.4,0,2.8,0,4.2,0C94.6,85.7,94.5,86,94.4,86.5z
			 M83.3,68.7c-8.5,0-15.3,6.8-15.3,15.3c0,8.4,6.8,15.2,15.2,15.2c8.5,0,15.3-6.8,15.3-15.2C98.5,75.5,91.7,68.7,83.3,68.7z
			 M92,77.8c0.5-0.6,0.7-0.3,1.1,0.2c0.7,1.2,1.2,2.4,1.5,4c-1.7,0-3.3,0-5,0c-0.3,0-0.7,0-0.8-0.4c-0.1-0.4,0.1-0.6,0.3-0.9
			C90,79.7,91,78.8,92,77.8z M85.8,72.8c1.4,0.4,2.7,0.9,4,1.8c-1.2,1.2-2.3,2.3-3.4,3.4c-0.2,0.2-0.4,0.6-0.9,0.4
			c-0.4-0.2-0.4-0.5-0.4-0.8c0-1.4,0-2.8,0-4.2C85,72.7,85.3,72.6,85.8,72.8z M77.2,74.2c1.3-0.7,2.6-1.3,4.1-1.5c0,1.7,0,3.4,0,5
			c0,0.3,0,0.6-0.4,0.7c-0.4,0.2-0.6-0.1-0.9-0.3c-1-1-2-2-3-3C76.6,74.7,76.7,74.5,77.2,74.2z M72.1,81.3c0.4-1.4,0.9-2.7,1.8-4
			c1.2,1.2,2.3,2.4,3.5,3.5c0.2,0.2,0.5,0.5,0.3,0.9c-0.2,0.3-0.4,0.4-0.7,0.4c-1.5,0-2.9,0-4.4,0C71.9,82.1,72,81.8,72.1,81.3z
			 M74.4,90.2c-0.4,0.4-0.6,0.3-0.8-0.1c-0.8-1.2-1.3-2.6-1.6-4.1c1.8,0,3.4,0,5,0c0.3,0,0.6-0.1,0.7,0.3c0.2,0.4,0,0.6-0.2,0.9
			C76.5,88.1,75.4,89.1,74.4,90.2z M80.7,95.1c-1.4-0.4-2.7-0.9-4.1-1.8c1.2-1.2,2.4-2.3,3.6-3.5c0.2-0.2,0.5-0.5,0.9-0.3
			c0.4,0.2,0.4,0.5,0.4,0.8c0,1.4,0,2.8,0,4.2C81.5,95.1,81.3,95.2,80.7,95.1z M83.1,86.1C82,86,81,85,81.1,83.9
			c0-1.1,1.2-2.2,2.3-2.1c1.1,0.1,2.1,1.2,2.1,2.2C85.4,85.2,84.3,86.1,83.1,86.1z M89.3,93.6c-1.2,0.7-2.5,1.2-4.1,1.6
			c0-1.7,0-3.3,0-4.9c0-0.3-0.1-0.7,0.4-0.8c0.4-0.1,0.6,0.1,0.9,0.3c1,1,2,2,3,3C89.9,93.2,89.7,93.4,89.3,93.6z M94.4,86.5
			c-0.4,1.4-0.9,2.7-1.8,4c-1.2-1.2-2.3-2.4-3.5-3.5c-0.2-0.2-0.5-0.4-0.3-0.8c0.2-0.4,0.4-0.4,0.8-0.4c1.4,0,2.8,0,4.2,0
			C94.6,85.7,94.5,86,94.4,86.5z M83.3,68.7c-8.5,0-15.3,6.8-15.3,15.3c0,8.4,6.8,15.2,15.2,15.2c8.5,0,15.3-6.8,15.3-15.2
			C98.5,75.5,91.7,68.7,83.3,68.7z M92,77.8c0.5-0.6,0.7-0.3,1.1,0.2c0.7,1.2,1.2,2.4,1.5,4c-1.7,0-3.3,0-5,0c-0.3,0-0.7,0-0.8-0.4
			c-0.1-0.4,0.1-0.6,0.3-0.9C90,79.7,91,78.8,92,77.8z M85.8,72.8c1.4,0.4,2.7,0.9,4,1.8c-1.2,1.2-2.3,2.3-3.4,3.4
			c-0.2,0.2-0.4,0.6-0.9,0.4c-0.4-0.2-0.4-0.5-0.4-0.8c0-1.4,0-2.8,0-4.2C85,72.7,85.3,72.6,85.8,72.8z M77.2,74.2
			c1.3-0.7,2.6-1.3,4.1-1.5c0,1.7,0,3.4,0,5c0,0.3,0,0.6-0.4,0.7c-0.4,0.2-0.6-0.1-0.9-0.3c-1-1-2-2-3-3
			C76.6,74.7,76.7,74.5,77.2,74.2z M72.1,81.3c0.4-1.4,0.9-2.7,1.8-4c1.2,1.2,2.3,2.4,3.5,3.5c0.2,0.2,0.5,0.5,0.3,0.9
			c-0.2,0.3-0.4,0.4-0.7,0.4c-1.5,0-2.9,0-4.4,0C71.9,82.1,72,81.8,72.1,81.3z M74.4,90.2c-0.4,0.4-0.6,0.3-0.8-0.1
			c-0.8-1.2-1.3-2.6-1.6-4.1c1.8,0,3.4,0,5,0c0.3,0,0.6-0.1,0.7,0.3c0.2,0.4,0,0.6-0.2,0.9C76.5,88.1,75.4,89.1,74.4,90.2z
			 M80.7,95.1c-1.4-0.4-2.7-0.9-4.1-1.8c1.2-1.2,2.4-2.3,3.6-3.5c0.2-0.2,0.5-0.5,0.9-0.3c0.4,0.2,0.4,0.5,0.4,0.8
			c0,1.4,0,2.8,0,4.2C81.5,95.1,81.3,95.2,80.7,95.1z M83.1,86.1C82,86,81,85,81.1,83.9c0-1.1,1.2-2.2,2.3-2.1
			c1.1,0.1,2.1,1.2,2.1,2.2C85.4,85.2,84.3,86.1,83.1,86.1z M89.3,93.6c-1.2,0.7-2.5,1.2-4.1,1.6c0-1.7,0-3.3,0-4.9
			c0-0.3-0.1-0.7,0.4-0.8c0.4-0.1,0.6,0.1,0.9,0.3c1,1,2,2,3,3C89.9,93.2,89.7,93.4,89.3,93.6z M94.4,86.5c-0.4,1.4-0.9,2.7-1.8,4
			c-1.2-1.2-2.3-2.4-3.5-3.5c-0.2-0.2-0.5-0.4-0.3-0.8c0.2-0.4,0.4-0.4,0.8-0.4c1.4,0,2.8,0,4.2,0C94.6,85.7,94.5,86,94.4,86.5z
			 M83.3,68.7c-8.5,0-15.3,6.8-15.3,15.3c0,8.4,6.8,15.2,15.2,15.2c8.5,0,15.3-6.8,15.3-15.2C98.5,75.5,91.7,68.7,83.3,68.7z
			 M92,77.8c0.5-0.6,0.7-0.3,1.1,0.2c0.7,1.2,1.2,2.4,1.5,4c-1.7,0-3.3,0-5,0c-0.3,0-0.7,0-0.8-0.4c-0.1-0.4,0.1-0.6,0.3-0.9
			C90,79.7,91,78.8,92,77.8z M85.8,72.8c1.4,0.4,2.7,0.9,4,1.8c-1.2,1.2-2.3,2.3-3.4,3.4c-0.2,0.2-0.4,0.6-0.9,0.4
			c-0.4-0.2-0.4-0.5-0.4-0.8c0-1.4,0-2.8,0-4.2C85,72.7,85.3,72.6,85.8,72.8z M77.2,74.2c1.3-0.7,2.6-1.3,4.1-1.5c0,1.7,0,3.4,0,5
			c0,0.3,0,0.6-0.4,0.7c-0.4,0.2-0.6-0.1-0.9-0.3c-1-1-2-2-3-3C76.6,74.7,76.7,74.5,77.2,74.2z M72.1,81.3c0.4-1.4,0.9-2.7,1.8-4
			c1.2,1.2,2.3,2.4,3.5,3.5c0.2,0.2,0.5,0.5,0.3,0.9c-0.2,0.3-0.4,0.4-0.7,0.4c-1.5,0-2.9,0-4.4,0C71.9,82.1,72,81.8,72.1,81.3z
			 M74.4,90.2c-0.4,0.4-0.6,0.3-0.8-0.1c-0.8-1.2-1.3-2.6-1.6-4.1c1.8,0,3.4,0,5,0c0.3,0,0.6-0.1,0.7,0.3c0.2,0.4,0,0.6-0.2,0.9
			C76.5,88.1,75.4,89.1,74.4,90.2z M80.7,95.1c-1.4-0.4-2.7-0.9-4.1-1.8c1.2-1.2,2.4-2.3,3.6-3.5c0.2-0.2,0.5-0.5,0.9-0.3
			c0.4,0.2,0.4,0.5,0.4,0.8c0,1.4,0,2.8,0,4.2C81.5,95.1,81.3,95.2,80.7,95.1z M83.1,86.1C82,86,81,85,81.1,83.9
			c0-1.1,1.2-2.2,2.3-2.1c1.1,0.1,2.1,1.2,2.1,2.2C85.4,85.2,84.3,86.1,83.1,86.1z M89.3,93.6c-1.2,0.7-2.5,1.2-4.1,1.6
			c0-1.7,0-3.3,0-4.9c0-0.3-0.1-0.7,0.4-0.8c0.4-0.1,0.6,0.1,0.9,0.3c1,1,2,2,3,3C89.9,93.2,89.7,93.4,89.3,93.6z M94.4,86.5
			c-0.4,1.4-0.9,2.7-1.8,4c-1.2-1.2-2.3-2.4-3.5-3.5c-0.2-0.2-0.5-0.4-0.3-0.8c0.2-0.4,0.4-0.4,0.8-0.4c1.4,0,2.8,0,4.2,0
			C94.6,85.7,94.5,86,94.4,86.5z M83.3,68.7c-8.5,0-15.3,6.8-15.3,15.3c0,8.4,6.8,15.2,15.2,15.2c8.5,0,15.3-6.8,15.3-15.2
			C98.5,75.5,91.7,68.7,83.3,68.7z M92,77.8c0.5-0.6,0.7-0.3,1.1,0.2c0.7,1.2,1.2,2.4,1.5,4c-1.7,0-3.3,0-5,0c-0.3,0-0.7,0-0.8-0.4
			c-0.1-0.4,0.1-0.6,0.3-0.9C90,79.7,91,78.8,92,77.8z M85.8,72.8c1.4,0.4,2.7,0.9,4,1.8c-1.2,1.2-2.3,2.3-3.4,3.4
			c-0.2,0.2-0.4,0.6-0.9,0.4c-0.4-0.2-0.4-0.5-0.4-0.8c0-1.4,0-2.8,0-4.2C85,72.7,85.3,72.6,85.8,72.8z M77.2,74.2
			c1.3-0.7,2.6-1.3,4.1-1.5c0,1.7,0,3.4,0,5c0,0.3,0,0.6-0.4,0.7c-0.4,0.2-0.6-0.1-0.9-0.3c-1-1-2-2-3-3
			C76.6,74.7,76.7,74.5,77.2,74.2z M72.1,81.3c0.4-1.4,0.9-2.7,1.8-4c1.2,1.2,2.3,2.4,3.5,3.5c0.2,0.2,0.5,0.5,0.3,0.9
			c-0.2,0.3-0.4,0.4-0.7,0.4c-1.5,0-2.9,0-4.4,0C71.9,82.1,72,81.8,72.1,81.3z M74.4,90.2c-0.4,0.4-0.6,0.3-0.8-0.1
			c-0.8-1.2-1.3-2.6-1.6-4.1c1.8,0,3.4,0,5,0c0.3,0,0.6-0.1,0.7,0.3c0.2,0.4,0,0.6-0.2,0.9C76.5,88.1,75.4,89.1,74.4,90.2z
			 M80.7,95.1c-1.4-0.4-2.7-0.9-4.1-1.8c1.2-1.2,2.4-2.3,3.6-3.5c0.2-0.2,0.5-0.5,0.9-0.3c0.4,0.2,0.4,0.5,0.4,0.8
			c0,1.4,0,2.8,0,4.2C81.5,95.1,81.3,95.2,80.7,95.1z M83.1,86.1C82,86,81,85,81.1,83.9c0-1.1,1.2-2.2,2.3-2.1
			c1.1,0.1,2.1,1.2,2.1,2.2C85.4,85.2,84.3,86.1,83.1,86.1z M89.3,93.6c-1.2,0.7-2.5,1.2-4.1,1.6c0-1.7,0-3.3,0-4.9
			c0-0.3-0.1-0.7,0.4-0.8c0.4-0.1,0.6,0.1,0.9,0.3c1,1,2,2,3,3C89.9,93.2,89.7,93.4,89.3,93.6z M94.4,86.5c-0.4,1.4-0.9,2.7-1.8,4
			c-1.2-1.2-2.3-2.4-3.5-3.5c-0.2-0.2-0.5-0.4-0.3-0.8c0.2-0.4,0.4-0.4,0.8-0.4c1.4,0,2.8,0,4.2,0C94.6,85.7,94.5,86,94.4,86.5z
			 M83.3,68.7c-8.5,0-15.3,6.8-15.3,15.3c0,8.4,6.8,15.2,15.2,15.2c8.5,0,15.3-6.8,15.3-15.2C98.5,75.5,91.7,68.7,83.3,68.7z
			 M92,77.8c0.5-0.6,0.7-0.3,1.1,0.2c0.7,1.2,1.2,2.4,1.5,4c-1.7,0-3.3,0-5,0c-0.3,0-0.7,0-0.8-0.4c-0.1-0.4,0.1-0.6,0.3-0.9
			C90,79.7,91,78.8,92,77.8z M85.8,72.8c1.4,0.4,2.7,0.9,4,1.8c-1.2,1.2-2.3,2.3-3.4,3.4c-0.2,0.2-0.4,0.6-0.9,0.4
			c-0.4-0.2-0.4-0.5-0.4-0.8c0-1.4,0-2.8,0-4.2C85,72.7,85.3,72.6,85.8,72.8z M77.2,74.2c1.3-0.7,2.6-1.3,4.1-1.5c0,1.7,0,3.4,0,5
			c0,0.3,0,0.6-0.4,0.7c-0.4,0.2-0.6-0.1-0.9-0.3c-1-1-2-2-3-3C76.6,74.7,76.7,74.5,77.2,74.2z M72.1,81.3c0.4-1.4,0.9-2.7,1.8-4
			c1.2,1.2,2.3,2.4,3.5,3.5c0.2,0.2,0.5,0.5,0.3,0.9c-0.2,0.3-0.4,0.4-0.7,0.4c-1.5,0-2.9,0-4.4,0C71.9,82.1,72,81.8,72.1,81.3z
			 M74.4,90.2c-0.4,0.4-0.6,0.3-0.8-0.1c-0.8-1.2-1.3-2.6-1.6-4.1c1.8,0,3.4,0,5,0c0.3,0,0.6-0.1,0.7,0.3c0.2,0.4,0,0.6-0.2,0.9
			C76.5,88.1,75.4,89.1,74.4,90.2z M80.7,95.1c-1.4-0.4-2.7-0.9-4.1-1.8c1.2-1.2,2.4-2.3,3.6-3.5c0.2-0.2,0.5-0.5,0.9-0.3
			c0.4,0.2,0.4,0.5,0.4,0.8c0,1.4,0,2.8,0,4.2C81.5,95.1,81.3,95.2,80.7,95.1z M83.1,86.1C82,86,81,85,81.1,83.9
			c0-1.1,1.2-2.2,2.3-2.1c1.1,0.1,2.1,1.2,2.1,2.2C85.4,85.2,84.3,86.1,83.1,86.1z M89.3,93.6c-1.2,0.7-2.5,1.2-4.1,1.6
			c0-1.7,0-3.3,0-4.9c0-0.3-0.1-0.7,0.4-0.8c0.4-0.1,0.6,0.1,0.9,0.3c1,1,2,2,3,3C89.9,93.2,89.7,93.4,89.3,93.6z M94.4,86.5
			c-0.4,1.4-0.9,2.7-1.8,4c-1.2-1.2-2.3-2.4-3.5-3.5c-0.2-0.2-0.5-0.4-0.3-0.8c0.2-0.4,0.4-0.4,0.8-0.4c1.4,0,2.8,0,4.2,0
			C94.6,85.7,94.5,86,94.4,86.5z M83.3,68.7c-8.5,0-15.3,6.8-15.3,15.3c0,8.4,6.8,15.2,15.2,15.2c8.5,0,15.3-6.8,15.3-15.2
			C98.5,75.5,91.7,68.7,83.3,68.7z M92,77.8c0.5-0.6,0.7-0.3,1.1,0.2c0.7,1.2,1.2,2.4,1.5,4c-1.7,0-3.3,0-5,0c-0.3,0-0.7,0-0.8-0.4
			c-0.1-0.4,0.1-0.6,0.3-0.9C90,79.7,91,78.8,92,77.8z M85.8,72.8c1.4,0.4,2.7,0.9,4,1.8c-1.2,1.2-2.3,2.3-3.4,3.4
			c-0.2,0.2-0.4,0.6-0.9,0.4c-0.4-0.2-0.4-0.5-0.4-0.8c0-1.4,0-2.8,0-4.2C85,72.7,85.3,72.6,85.8,72.8z M77.2,74.2
			c1.3-0.7,2.6-1.3,4.1-1.5c0,1.7,0,3.4,0,5c0,0.3,0,0.6-0.4,0.7c-0.4,0.2-0.6-0.1-0.9-0.3c-1-1-2-2-3-3
			C76.6,74.7,76.7,74.5,77.2,74.2z M72.1,81.3c0.4-1.4,0.9-2.7,1.8-4c1.2,1.2,2.3,2.4,3.5,3.5c0.2,0.2,0.5,0.5,0.3,0.9
			c-0.2,0.3-0.4,0.4-0.7,0.4c-1.5,0-2.9,0-4.4,0C71.9,82.1,72,81.8,72.1,81.3z M74.4,90.2c-0.4,0.4-0.6,0.3-0.8-0.1
			c-0.8-1.2-1.3-2.6-1.6-4.1c1.8,0,3.4,0,5,0c0.3,0,0.6-0.1,0.7,0.3c0.2,0.4,0,0.6-0.2,0.9C76.5,88.1,75.4,89.1,74.4,90.2z
			 M80.7,95.1c-1.4-0.4-2.7-0.9-4.1-1.8c1.2-1.2,2.4-2.3,3.6-3.5c0.2-0.2,0.5-0.5,0.9-0.3c0.4,0.2,0.4,0.5,0.4,0.8
			c0,1.4,0,2.8,0,4.2C81.5,95.1,81.3,95.2,80.7,95.1z M83.1,86.1C82,86,81,85,81.1,83.9c0-1.1,1.2-2.2,2.3-2.1
			c1.1,0.1,2.1,1.2,2.1,2.2C85.4,85.2,84.3,86.1,83.1,86.1z M89.3,93.6c-1.2,0.7-2.5,1.2-4.1,1.6c0-1.7,0-3.3,0-4.9
			c0-0.3-0.1-0.7,0.4-0.8c0.4-0.1,0.6,0.1,0.9,0.3c1,1,2,2,3,3C89.9,93.2,89.7,93.4,89.3,93.6z M94.4,86.5c-0.4,1.4-0.9,2.7-1.8,4
			c-1.2-1.2-2.3-2.4-3.5-3.5c-0.2-0.2-0.5-0.4-0.3-0.8c0.2-0.4,0.4-0.4,0.8-0.4c1.4,0,2.8,0,4.2,0C94.6,85.7,94.5,86,94.4,86.5z
			 M83.3,68.7c-8.5,0-15.3,6.8-15.3,15.3c0,8.4,6.8,15.2,15.2,15.2c8.5,0,15.3-6.8,15.3-15.2C98.5,75.5,91.7,68.7,83.3,68.7z
			 M92,77.8c0.5-0.6,0.7-0.3,1.1,0.2c0.7,1.2,1.2,2.4,1.5,4c-1.7,0-3.3,0-5,0c-0.3,0-0.7,0-0.8-0.4c-0.1-0.4,0.1-0.6,0.3-0.9
			C90,79.7,91,78.8,92,77.8z M85.8,72.8c1.4,0.4,2.7,0.9,4,1.8c-1.2,1.2-2.3,2.3-3.4,3.4c-0.2,0.2-0.4,0.6-0.9,0.4
			c-0.4-0.2-0.4-0.5-0.4-0.8c0-1.4,0-2.8,0-4.2C85,72.7,85.3,72.6,85.8,72.8z M77.2,74.2c1.3-0.7,2.6-1.3,4.1-1.5c0,1.7,0,3.4,0,5
			c0,0.3,0,0.6-0.4,0.7c-0.4,0.2-0.6-0.1-0.9-0.3c-1-1-2-2-3-3C76.6,74.7,76.7,74.5,77.2,74.2z M72.1,81.3c0.4-1.4,0.9-2.7,1.8-4
			c1.2,1.2,2.3,2.4,3.5,3.5c0.2,0.2,0.5,0.5,0.3,0.9c-0.2,0.3-0.4,0.4-0.7,0.4c-1.5,0-2.9,0-4.4,0C71.9,82.1,72,81.8,72.1,81.3z
			 M74.4,90.2c-0.4,0.4-0.6,0.3-0.8-0.1c-0.8-1.2-1.3-2.6-1.6-4.1c1.8,0,3.4,0,5,0c0.3,0,0.6-0.1,0.7,0.3c0.2,0.4,0,0.6-0.2,0.9
			C76.5,88.1,75.4,89.1,74.4,90.2z M80.7,95.1c-1.4-0.4-2.7-0.9-4.1-1.8c1.2-1.2,2.4-2.3,3.6-3.5c0.2-0.2,0.5-0.5,0.9-0.3
			c0.4,0.2,0.4,0.5,0.4,0.8c0,1.4,0,2.8,0,4.2C81.5,95.1,81.3,95.2,80.7,95.1z M83.1,86.1C82,86,81,85,81.1,83.9
			c0-1.1,1.2-2.2,2.3-2.1c1.1,0.1,2.1,1.2,2.1,2.2C85.4,85.2,84.3,86.1,83.1,86.1z M89.3,93.6c-1.2,0.7-2.5,1.2-4.1,1.6
			c0-1.7,0-3.3,0-4.9c0-0.3-0.1-0.7,0.4-0.8c0.4-0.1,0.6,0.1,0.9,0.3c1,1,2,2,3,3C89.9,93.2,89.7,93.4,89.3,93.6z M94.4,86.5
			c-0.4,1.4-0.9,2.7-1.8,4c-1.2-1.2-2.3-2.4-3.5-3.5c-0.2-0.2-0.5-0.4-0.3-0.8c0.2-0.4,0.4-0.4,0.8-0.4c1.4,0,2.8,0,4.2,0
			C94.6,85.7,94.5,86,94.4,86.5z M83.3,68.7c-8.5,0-15.3,6.8-15.3,15.3c0,8.4,6.8,15.2,15.2,15.2c8.5,0,15.3-6.8,15.3-15.2
			C98.5,75.5,91.7,68.7,83.3,68.7z M92,77.8c0.5-0.6,0.7-0.3,1.1,0.2c0.7,1.2,1.2,2.4,1.5,4c-1.7,0-3.3,0-5,0c-0.3,0-0.7,0-0.8-0.4
			c-0.1-0.4,0.1-0.6,0.3-0.9C90,79.7,91,78.8,92,77.8z M85.8,72.8c1.4,0.4,2.7,0.9,4,1.8c-1.2,1.2-2.3,2.3-3.4,3.4
			c-0.2,0.2-0.4,0.6-0.9,0.4c-0.4-0.2-0.4-0.5-0.4-0.8c0-1.4,0-2.8,0-4.2C85,72.7,85.3,72.6,85.8,72.8z M77.2,74.2
			c1.3-0.7,2.6-1.3,4.1-1.5c0,1.7,0,3.4,0,5c0,0.3,0,0.6-0.4,0.7c-0.4,0.2-0.6-0.1-0.9-0.3c-1-1-2-2-3-3
			C76.6,74.7,76.7,74.5,77.2,74.2z M72.1,81.3c0.4-1.4,0.9-2.7,1.8-4c1.2,1.2,2.3,2.4,3.5,3.5c0.2,0.2,0.5,0.5,0.3,0.9
			c-0.2,0.3-0.4,0.4-0.7,0.4c-1.5,0-2.9,0-4.4,0C71.9,82.1,72,81.8,72.1,81.3z M74.4,90.2c-0.4,0.4-0.6,0.3-0.8-0.1
			c-0.8-1.2-1.3-2.6-1.6-4.1c1.8,0,3.4,0,5,0c0.3,0,0.6-0.1,0.7,0.3c0.2,0.4,0,0.6-0.2,0.9C76.5,88.1,75.4,89.1,74.4,90.2z
			 M80.7,95.1c-1.4-0.4-2.7-0.9-4.1-1.8c1.2-1.2,2.4-2.3,3.6-3.5c0.2-0.2,0.5-0.5,0.9-0.3c0.4,0.2,0.4,0.5,0.4,0.8
			c0,1.4,0,2.8,0,4.2C81.5,95.1,81.3,95.2,80.7,95.1z M83.1,86.1C82,86,81,85,81.1,83.9c0-1.1,1.2-2.2,2.3-2.1
			c1.1,0.1,2.1,1.2,2.1,2.2C85.4,85.2,84.3,86.1,83.1,86.1z M89.3,93.6c-1.2,0.7-2.5,1.2-4.1,1.6c0-1.7,0-3.3,0-4.9
			c0-0.3-0.1-0.7,0.4-0.8c0.4-0.1,0.6,0.1,0.9,0.3c1,1,2,2,3,3C89.9,93.2,89.7,93.4,89.3,93.6z M94.4,86.5c-0.4,1.4-0.9,2.7-1.8,4
			c-1.2-1.2-2.3-2.4-3.5-3.5c-0.2-0.2-0.5-0.4-0.3-0.8c0.2-0.4,0.4-0.4,0.8-0.4c1.4,0,2.8,0,4.2,0C94.6,85.7,94.5,86,94.4,86.5z
			 M83.3,68.7c-8.5,0-15.3,6.8-15.3,15.3c0,8.4,6.8,15.2,15.2,15.2c8.5,0,15.3-6.8,15.3-15.2C98.5,75.5,91.7,68.7,83.3,68.7z
			 M92,77.8c0.5-0.6,0.7-0.3,1.1,0.2c0.7,1.2,1.2,2.4,1.5,4c-1.7,0-3.3,0-5,0c-0.3,0-0.7,0-0.8-0.4c-0.1-0.4,0.1-0.6,0.3-0.9
			C90,79.7,91,78.8,92,77.8z M85.8,72.8c1.4,0.4,2.7,0.9,4,1.8c-1.2,1.2-2.3,2.3-3.4,3.4c-0.2,0.2-0.4,0.6-0.9,0.4
			c-0.4-0.2-0.4-0.5-0.4-0.8c0-1.4,0-2.8,0-4.2C85,72.7,85.3,72.6,85.8,72.8z M77.2,74.2c1.3-0.7,2.6-1.3,4.1-1.5c0,1.7,0,3.4,0,5
			c0,0.3,0,0.6-0.4,0.7c-0.4,0.2-0.6-0.1-0.9-0.3c-1-1-2-2-3-3C76.6,74.7,76.7,74.5,77.2,74.2z M72.1,81.3c0.4-1.4,0.9-2.7,1.8-4
			c1.2,1.2,2.3,2.4,3.5,3.5c0.2,0.2,0.5,0.5,0.3,0.9c-0.2,0.3-0.4,0.4-0.7,0.4c-1.5,0-2.9,0-4.4,0C71.9,82.1,72,81.8,72.1,81.3z
			 M74.4,90.2c-0.4,0.4-0.6,0.3-0.8-0.1c-0.8-1.2-1.3-2.6-1.6-4.1c1.8,0,3.4,0,5,0c0.3,0,0.6-0.1,0.7,0.3c0.2,0.4,0,0.6-0.2,0.9
			C76.5,88.1,75.4,89.1,74.4,90.2z M80.7,95.1c-1.4-0.4-2.7-0.9-4.1-1.8c1.2-1.2,2.4-2.3,3.6-3.5c0.2-0.2,0.5-0.5,0.9-0.3
			c0.4,0.2,0.4,0.5,0.4,0.8c0,1.4,0,2.8,0,4.2C81.5,95.1,81.3,95.2,80.7,95.1z M83.1,86.1C82,86,81,85,81.1,83.9
			c0-1.1,1.2-2.2,2.3-2.1c1.1,0.1,2.1,1.2,2.1,2.2C85.4,85.2,84.3,86.1,83.1,86.1z M89.3,93.6c-1.2,0.7-2.5,1.2-4.1,1.6
			c0-1.7,0-3.3,0-4.9c0-0.3-0.1-0.7,0.4-0.8c0.4-0.1,0.6,0.1,0.9,0.3c1,1,2,2,3,3C89.9,93.2,89.7,93.4,89.3,93.6z M94.4,86.5
			c-0.4,1.4-0.9,2.7-1.8,4c-1.2-1.2-2.3-2.4-3.5-3.5c-0.2-0.2-0.5-0.4-0.3-0.8c0.2-0.4,0.4-0.4,0.8-0.4c1.4,0,2.8,0,4.2,0
			C94.6,85.7,94.5,86,94.4,86.5z"/>
		<path d="M0,34.5c0.4,0.4,0.2,0.9,0.2,1.4c0,16.9,0,33.7,0,50.6c-0.1,0.1-0.2,0.1-0.2,0C0,69.1,0,51.8,0,34.5z"/>
		<path d="M0,86.5c0.1,0,0.2,0,0.2,0c0,2.5,0,5,0,7.5c0,0.4,0.2,0.9-0.2,1.3C0,92.3,0,89.4,0,86.5z"/>
		<path d="M0,107.9c0.6,1.6,0.1,3.2,0.2,4.9c0,0.6,0.3,1.3-0.2,1.9C0,112.4,0,110.2,0,107.9z"/>
		<path d="M1.8,5.2C1,5.7,0.4,6.3,0,7C0,5.2,0,5.2,1.8,5.2z"/>
		<path d="M83.3,68.7c-8.5,0-15.3,6.8-15.3,15.3c0,8.4,6.8,15.2,15.2,15.2c8.5,0,15.3-6.8,15.3-15.2C98.5,75.5,91.7,68.7,83.3,68.7z
			 M92,77.8c0.5-0.6,0.7-0.3,1.1,0.2c0.7,1.2,1.2,2.4,1.5,4c-1.7,0-3.3,0-5,0c-0.3,0-0.7,0-0.8-0.4c-0.1-0.4,0.1-0.6,0.3-0.9
			C90,79.7,91,78.8,92,77.8z M85.8,72.8c1.4,0.4,2.7,0.9,4,1.8c-1.2,1.2-2.3,2.3-3.4,3.4c-0.2,0.2-0.4,0.6-0.9,0.4
			c-0.4-0.2-0.4-0.5-0.4-0.8c0-1.4,0-2.8,0-4.2C85,72.7,85.3,72.6,85.8,72.8z M77.2,74.2c1.3-0.7,2.6-1.3,4.1-1.5c0,1.7,0,3.4,0,5
			c0,0.3,0,0.6-0.4,0.7c-0.4,0.2-0.6-0.1-0.9-0.3c-1-1-2-2-3-3C76.6,74.7,76.7,74.5,77.2,74.2z M72.1,81.3c0.4-1.4,0.9-2.7,1.8-4
			c1.2,1.2,2.3,2.4,3.5,3.5c0.2,0.2,0.5,0.5,0.3,0.9c-0.2,0.3-0.4,0.4-0.7,0.4c-1.5,0-2.9,0-4.4,0C71.9,82.1,72,81.8,72.1,81.3z
			 M74.4,90.2c-0.4,0.4-0.6,0.3-0.8-0.1c-0.8-1.2-1.3-2.6-1.6-4.1c1.8,0,3.4,0,5,0c0.3,0,0.6-0.1,0.7,0.3c0.2,0.4,0,0.6-0.2,0.9
			C76.5,88.1,75.4,89.1,74.4,90.2z M80.7,95.1c-1.4-0.4-2.7-0.9-4.1-1.8c1.2-1.2,2.4-2.3,3.6-3.5c0.2-0.2,0.5-0.5,0.9-0.3
			c0.4,0.2,0.4,0.5,0.4,0.8c0,1.4,0,2.8,0,4.2C81.5,95.1,81.3,95.2,80.7,95.1z M83.1,86.1C82,86,81,85,81.1,83.9
			c0-1.1,1.2-2.2,2.3-2.1c1.1,0.1,2.1,1.2,2.1,2.2C85.4,85.2,84.3,86.1,83.1,86.1z M89.3,93.6c-1.2,0.7-2.5,1.2-4.1,1.6
			c0-1.7,0-3.3,0-4.9c0-0.3-0.1-0.7,0.4-0.8c0.4-0.1,0.6,0.1,0.9,0.3c1,1,2,2,3,3C89.9,93.2,89.7,93.4,89.3,93.6z M94.4,86.5
			c-0.4,1.4-0.9,2.7-1.8,4c-1.2-1.2-2.3-2.4-3.5-3.5c-0.2-0.2-0.5-0.4-0.3-0.8c0.2-0.4,0.4-0.4,0.8-0.4c1.4,0,2.8,0,4.2,0
			C94.6,85.7,94.5,86,94.4,86.5z"/>
		<path d="M96.5,61c-0.3-0.5-0.9-0.1-1.3-0.3C95.7,60.7,96.3,60.3,96.5,61z"/>
		<path d="M96.5,61c-0.3-0.5-0.9-0.1-1.3-0.3c0.4-0.1,0.8-0.2,1.2-0.2C96.8,60.5,96.8,60.7,96.5,61z"/>
		<path d="M83.3,68.7c-8.5,0-15.3,6.8-15.3,15.3c0,8.4,6.8,15.2,15.2,15.2c8.5,0,15.3-6.8,15.3-15.2C98.5,75.5,91.7,68.7,83.3,68.7z
			 M92,77.8c0.5-0.6,0.7-0.3,1.1,0.2c0.7,1.2,1.2,2.4,1.5,4c-1.7,0-3.3,0-5,0c-0.3,0-0.7,0-0.8-0.4c-0.1-0.4,0.1-0.6,0.3-0.9
			C90,79.7,91,78.8,92,77.8z M85.8,72.8c1.4,0.4,2.7,0.9,4,1.8c-1.2,1.2-2.3,2.3-3.4,3.4c-0.2,0.2-0.4,0.6-0.9,0.4
			c-0.4-0.2-0.4-0.5-0.4-0.8c0-1.4,0-2.8,0-4.2C85,72.7,85.3,72.6,85.8,72.8z M77.2,74.2c1.3-0.7,2.6-1.3,4.1-1.5c0,1.7,0,3.4,0,5
			c0,0.3,0,0.6-0.4,0.7c-0.4,0.2-0.6-0.1-0.9-0.3c-1-1-2-2-3-3C76.6,74.7,76.7,74.5,77.2,74.2z M72.1,81.3c0.4-1.4,0.9-2.7,1.8-4
			c1.2,1.2,2.3,2.4,3.5,3.5c0.2,0.2,0.5,0.5,0.3,0.9c-0.2,0.3-0.4,0.4-0.7,0.4c-1.5,0-2.9,0-4.4,0C71.9,82.1,72,81.8,72.1,81.3z
			 M74.4,90.2c-0.4,0.4-0.6,0.3-0.8-0.1c-0.8-1.2-1.3-2.6-1.6-4.1c1.8,0,3.4,0,5,0c0.3,0,0.6-0.1,0.7,0.3c0.2,0.4,0,0.6-0.2,0.9
			C76.5,88.1,75.4,89.1,74.4,90.2z M80.7,95.1c-1.4-0.4-2.7-0.9-4.1-1.8c1.2-1.2,2.4-2.3,3.6-3.5c0.2-0.2,0.5-0.5,0.9-0.3
			c0.4,0.2,0.4,0.5,0.4,0.8c0,1.4,0,2.8,0,4.2C81.5,95.1,81.3,95.2,80.7,95.1z M83.1,86.1C82,86,81,85,81.1,83.9
			c0-1.1,1.2-2.2,2.3-2.1c1.1,0.1,2.1,1.2,2.1,2.2C85.4,85.2,84.3,86.1,83.1,86.1z M89.3,93.6c-1.2,0.7-2.5,1.2-4.1,1.6
			c0-1.7,0-3.3,0-4.9c0-0.3-0.1-0.7,0.4-0.8c0.4-0.1,0.6,0.1,0.9,0.3c1,1,2,2,3,3C89.9,93.2,89.7,93.4,89.3,93.6z M94.4,86.5
			c-0.4,1.4-0.9,2.7-1.8,4c-1.2-1.2-2.3-2.4-3.5-3.5c-0.2-0.2-0.5-0.4-0.3-0.8c0.2-0.4,0.4-0.4,0.8-0.4c1.4,0,2.8,0,4.2,0
			C94.6,85.7,94.5,86,94.4,86.5z"/>
	</g>
</g>
</svg>
