<?xml version="1.0" encoding="utf-8"?>
<!-- Generator: Adobe Illustrator 28.0.0, SVG Export Plug-In . SVG Version: 6.00 Build 0)  -->
<svg version="1.1" id="Layer_1" xmlns="http://www.w3.org/2000/svg" xmlns:xlink="http://www.w3.org/1999/xlink" x="0px" y="0px"
	 viewBox="0 0 128 128" style="enable-background:new 0 0 128 128;" xml:space="preserve">
<g id="pkouuo.tif">
	<g>
		<path d="M54.3,23.1c0-0.6,0-1.2,0-1.9c0.1-1.1,0.8-1.8,1.8-1.8c1,0,1.9,0.7,1.9,1.7c0.1,1.3,0.1,2.6,0,3.9c-0.1,1-1,1.7-2,1.7
			C55,26.6,54.4,26,54.3,25C54.2,24.4,54.3,23.7,54.3,23.1C54.3,23.1,54.3,23.1,54.3,23.1z"/>
		<path d="M63.3,24.9c0-1.2,0-2.4,0-3.6c0-1.1,0.8-1.8,1.8-1.8c1,0,1.8,0.7,1.9,1.7c0,0.7,0,1.3,0,2c0,0.5,0,1.1,0,1.6
			c0,1.1-0.8,1.9-1.8,1.9C64.1,26.7,63.4,26,63.3,24.9z"/>
		<path d="M72.3,25c-0.1-1.3-0.1-2.6,0-3.9c0.1-1,0.9-1.7,1.9-1.7c1.1,0.1,1.7,0.6,1.8,1.7c0.1,0.6,0,1.2,0,1.9h0c0,0.6,0,1.2,0,1.9
			c-0.1,1.1-0.8,1.8-1.8,1.8C73.3,26.7,72.4,26,72.3,25z"/>
		<path d="M63.4,110.4c0-1.1-0.6-1.7-1.7-1.8c-1-0.1-1.9,0-2.9,0v0c-0.8,0-1.7,0-2.5,0c-0.1,0-0.2,0-0.2,0c-1.1,0.1-1.7,0.7-1.8,1.7
			c-0.1,1,0.6,2,1.6,2c2,0.1,3.9,0.1,5.9,0C62.8,112.2,63.4,111.5,63.4,110.4z M74.1,108.6c-1.8,0-3.6,0-5.3,0
			c-1.1,0-1.9,0.8-1.9,1.9c0,1,0.8,1.8,1.9,1.9c0.9,0,1.7,0,2.6,0c0.9,0,1.7,0,2.6,0c1.2,0,2-0.9,2-1.9
			C76,109.4,75.2,108.6,74.1,108.6z M86.7,108.6c-1.8-0.1-3.6-0.1-5.5,0c-1.1,0-1.9,0.9-1.9,1.9c0,1,0.8,1.8,1.9,1.9
			c0.9,0,1.8,0,2.7,0h2.5c0.1,0,0.2,0,0.2,0c1-0.1,1.8-0.9,1.8-1.9C88.5,109.5,87.8,108.6,86.7,108.6z M96.8,112.3L96.8,112.3
			c0-0.7,0-1.3,0-2c-0.1-1.1-0.8-1.8-1.9-1.7c-1.1,0-1.8,0.6-1.8,1.7c-0.1,1.3-0.1,2.7,0,4c0.1,1,0.8,1.6,1.9,1.6
			c1.1,0,1.7-0.6,1.8-1.7C96.8,113.6,96.8,113,96.8,112.3z M103.2,110.4c-0.1-1.1-0.7-1.8-1.9-1.8c-1.1,0-1.8,0.6-1.9,1.7
			c-0.1,1.3-0.1,2.6,0,3.8c0.1,1.1,0.8,1.7,1.9,1.7c1.1,0,1.7-0.7,1.9-1.8c0.1-0.6,0-1.2,0-1.7C103.2,111.7,103.3,111,103.2,110.4z
			 M109.5,112.3C109.5,112.3,109.5,112.3,109.5,112.3c0-0.7,0-1.3,0-2c-0.1-1.1-0.7-1.6-1.8-1.7c-1.1,0-1.8,0.6-1.9,1.5
			c-0.1,1.3-0.1,2.7,0,4.1c0.1,1,1,1.7,2,1.6c1-0.1,1.7-0.7,1.7-1.7C109.6,113.5,109.5,112.9,109.5,112.3z M109.5,112.3
			C109.5,112.3,109.5,112.3,109.5,112.3c0-0.7,0-1.3,0-2c-0.1-1.1-0.7-1.6-1.8-1.7c-1.1,0-1.8,0.6-1.9,1.5c-0.1,1.3-0.1,2.7,0,4.1
			c0.1,1,1,1.7,2,1.6c1-0.1,1.7-0.7,1.7-1.7C109.6,113.5,109.5,112.9,109.5,112.3z M103.2,110.4c-0.1-1.1-0.7-1.8-1.9-1.8
			c-1.1,0-1.8,0.6-1.9,1.7c-0.1,1.3-0.1,2.6,0,3.8c0.1,1.1,0.8,1.7,1.9,1.7c1.1,0,1.7-0.7,1.9-1.8c0.1-0.6,0-1.2,0-1.7
			C103.2,111.7,103.3,111,103.2,110.4z M96.8,112.3c0-0.7,0-1.3,0-2c-0.1-1.1-0.8-1.8-1.9-1.7c-1.1,0-1.8,0.6-1.8,1.7
			c-0.1,1.3-0.1,2.7,0,4c0.1,1,0.8,1.6,1.9,1.6c1.1,0,1.7-0.6,1.8-1.7C96.8,113.6,96.8,113,96.8,112.3L96.8,112.3z M86.7,108.6
			c-1.8-0.1-3.6-0.1-5.5,0c-1.1,0-1.9,0.9-1.9,1.9c0,1,0.8,1.8,1.9,1.9c0.9,0,1.8,0,2.7,0h2.5c0.1,0,0.2,0,0.2,0
			c1-0.1,1.8-0.9,1.8-1.9C88.5,109.5,87.8,108.6,86.7,108.6z M74.1,108.6c-1.8,0-3.6,0-5.3,0c-1.1,0-1.9,0.8-1.9,1.9
			c0,1,0.8,1.8,1.9,1.9c0.9,0,1.7,0,2.6,0c0.9,0,1.7,0,2.6,0c1.2,0,2-0.9,2-1.9C76,109.4,75.2,108.6,74.1,108.6z M61.7,108.6
			c-1-0.1-1.9,0-2.9,0v0c-0.8,0-1.7,0-2.5,0c-0.1,0-0.2,0-0.2,0c-1.1,0.1-1.7,0.7-1.8,1.7c-0.1,1,0.6,2,1.6,2c2,0.1,3.9,0.1,5.9,0
			c1-0.1,1.6-0.8,1.6-1.9C63.3,109.3,62.7,108.7,61.7,108.6z M125.7,123.7c-2.2,0-4.4,0-6.6,0c-2,0-2,0-2-2c0-6.2,0-12.4,0-18.6
			c0-2.1,0-2.1,2-2.5c0.2,0,0.4-0.1,0.6-0.1c3.7-0.9,6-4.1,5.6-7.9c-0.4-3.3-3.6-6.4-7.2-6.1c-0.8,0.1-1.6,0-2.4,0
			c-0.7,0-1-0.3-1.1-1c-0.6-4.7-3.5-7.2-8.3-7.2c-4,0-7.9,0-11.9,0c-0.5,0-1.1,0-1.6,0.1c-1.1,0.3-1.8,1-1.9,2.1
			c-0.1,1,0.5,1.9,1.6,2.3c0.7,0.3,1.5,0.3,2.2,0.3c4,0,7.9,0,11.9,0c1,0,2,0.2,2.7,1c0.5,0.6,0.9,1.3,0.6,2.1
			c-0.3,0.7-1.1,0.4-1.7,0.5c-0.2,0-0.4,0-0.6,0H71.8c-1.8,0-1.8,0-1.3-1.7C71.1,83,71.1,83,73,83c3.9,0,7.8,0,11.7,0
			c2,0,3.1-0.9,3.1-2.4c0-1.5-1.1-2.3-3.2-2.3c-4.2,0-8.4,0-12.6,0c-1.2,0-1.9-0.3-2.6-1.4c-1.9-3.1-4.7-4.6-8.3-4.7
			c-0.7,0-1.2-0.2-1.5-0.8c-0.5-0.9-1.3-1.2-2.3-1.2c-0.6,0-1.3,0-1.9,0c-4-0.3-6.6,2.7-6.5,6.5c0.1,2.8,0,5.7,0,8.5
			c0,0.5,0.1,1.1-0.6,1.1c-0.6,0-0.6-0.6-0.6-1c-0.3-1.8-0.4-3.6-0.6-5.3c-0.6-5.3-1.2-10.6-1.7-15.9c-0.1-0.7,0.1-1.1,0.7-1.4
			c2.3-0.9,3.1-2.8,3.1-5.1c0-2.3,0-4.6,0-6.9c0-3.6-1.3-5.1-4.9-5.5c-0.7-0.1-1.1-0.4-1.1-1.1c-0.2-1.8-0.5-3.6-0.5-5.5
			c-0.1-2.5,1-3.7,3.6-3.7c1.4,0,2.7,0,4.1,0c6.9,0,13.7,0,20.6,0c2,0,2,0,2,2c0,1.5,0,3,0,4.5c0.1,2.1,1.5,3.9,3.5,3.8
			c2.1,0,3,1,3.5,2.7c0.3,0.9,0.8,1.8,1.3,2.7c0.3,0.6,0.7,1.2,1.3,1.5c1,0.6,1,1.3,0.8,2.3c-1.2,4.3-2.2,8.6-3.4,12.9
			c-0.4,1.4-0.8,2.9-1.1,4.4c-0.2,1.2,0.4,2.2,1.5,2.6c1,0.3,2-0.1,2.6-1.1c0.2-0.4,0.4-0.8,0.5-1.3c1.4-5.5,2.9-10.9,4.3-16.4
			c0.6-2.2,0.6-2.2,2.8-2.2c1.7,0,1.8,0.1,2.3,1.8c1.4,5.4,2.9,10.9,4.3,16.3c0.2,0.6,0.3,1.3,0.7,1.9c0.5,0.9,1.5,1.3,2.4,1.1
			c0.9-0.2,1.6-1.1,1.7-2.2c0-0.8-0.2-1.6-0.5-2.4c-1.4-5.2-2.7-10.5-4.1-15.7c-0.2-0.7-0.1-1.3,0.6-1.7c1-0.6,1.6-1.6,2-2.6
			c0.4-1,0.9-2,1.3-3c0.4-1.1,1-1.4,2.2-1.5c2.9-0.1,4.5-1.8,4.5-4.7c0-1.5,0-2.9,0-4.4c0-0.9,0.3-1.3,1.3-1.4
			c4.9-0.4,7.9-3.7,8-8.6c0-3,0-5.9,0-8.9c0-1.1,0.1-1.9,1.4-2.3c0.9-0.2,1.3-1,1.3-1.9c0-0.9-0.4-1.8-1.3-2
			c-1.4-0.3-1.4-1.2-1.4-2.3c0-0.5,0-0.9,0-1.4c-0.2-4-2.5-6.8-6.3-7.7H98.5c-1.2,0.5-1.6,1.1-1.5,2.1c0.1,1,0.9,1.7,2,1.9
			c0.5,0.1,1,0.1,1.5,0.1c2.5,0,5,0,7.5,0c3.2,0,4.3,1.2,4.3,4.4c0,2.6,0.2,2.5-2.5,2.5c-32.3,0-64.7,0-97,0c-0.3,0-0.7,0-1,0
			c-0.9,0.1-1.3-0.3-1.4-1.3c-0.2-4,1-5.7,5.3-5.7c24.7,0.1,49.3,0,74,0c0.7,0,1.4,0,2.1-0.1c1.1-0.2,1.7-0.9,1.9-1.9
			c0.2-1-0.3-1.7-1.4-2.2H12.4C9.1,0.4,7.2,2.4,6.2,5.4C5.8,6.7,6,8.1,6,9.4c0,1-0.1,1.6-1.3,1.8c-1.2,0.2-1.9,1.1-1.9,2.2
			s0.7,2,1.9,2.2C5.8,15.7,6,16.2,6,17.2c0,8.9,0,17.7,0,26.6c0,1-0.3,1.6-1.1,2.2c-1.2,0.8-2.1,1.9-2.1,3.5c-0.1,3.1-0.1,6.2,0,9.4
			c0,1.4,0.6,2.6,1.7,3.3C5.8,62.9,6,63.9,6,65.2c0,18.7,0,37.4,0,56.2c0,0.3,0,0.7,0,1c0.1,1-0.4,1.3-1.3,1.3c-1,0-2-0.1-3,0.1
			c-1.2,0.2-1.7,1.1-1.6,2.5c0.1,1.1,0.6,1.6,1.9,1.6c0.3,0,0.7,0,1,0h122.3c0.3,0,0.6,0,0.9,0c0.9,0.1,1.5-0.3,1.9-1.1v-1.7
			C127.6,124.1,126.8,123.7,125.7,123.7z M95.8,48.8c-0.3,0.6-0.8,0.7-1.4,0.7c-2.7,0-5.5,0-8.2,0c-0.8,0-1.3-0.3-1.6-1.1
			c-0.4-1-0.9-2-1.3-3.1h14.1C96.8,46.5,96.3,47.6,95.8,48.8z M103.6,35.7c-0.1,1.5-0.1,3.1,0,4.6c0,0.7-0.1,1-0.9,1
			c-8.3,0-16.5,0-24.8,0c-0.6,0-0.9-0.1-0.9-0.8c0.1-1.7,0.1-3.3,0-5c0-0.8,0.3-0.9,0.9-0.9c4.2,0,8.3,0,12.5,0c4,0,8.1,0,12.1,0
			C103.3,34.7,103.7,34.8,103.6,35.7z M11.3,15.2c10.9,0,21.9,0,32.8,0c22.5,0,44.9,0,67.4,0c1.2,0,1.4,0.3,1.4,1.4
			c-0.1,3.2,0,6.5,0,9.7c0,3.1-1.4,4.5-4.6,4.5c-10.5,0-21,0-31.4,0c-10.2,0-20.4,0-30.6,0c-5.3,0-8.4,3.5-7.7,8.8
			c0.2,1.7,0.4,3.4,0.6,5.1c0.1,0.6,0,0.9-0.8,0.9c-9.1,0-18.2,0-27.3,0c-0.7,0-0.9-0.3-0.9-0.9c0-9.5,0-19.1,0-28.6
			C10.1,15.2,10.5,15.2,11.3,15.2z M47,124.1c-0.2,0-0.4,0-0.6,0c-11.6,0-23.3,0-34.9,0c-1.2,0-1.3-0.3-1.3-1.4c0-9.8,0-19.6,0-29.5
			c0-9.8,0-19.6,0-29.5c0-1,0.2-1.3,1.2-1.2c1.5,0.1,2.9,0,4.4,0c1.5,0,2.4-0.8,2.4-1.9c0-1.1-0.9-1.8-2.3-1.9c-2.5,0-5.1,0-7.6,0
			c-0.9,0-1.3-0.2-1.3-1.2c0.1-2.4,0.1-4.8,0-7.2c0-0.7,0.1-1,0.9-1c12.1,0,24.1,0,36.2,0c0.7,0,0.9,0.2,0.9,0.9
			c0,2.4-0.1,4.8,0,7.2c0,1-0.2,1.3-1.3,1.3c-6.3-0.1-12.6,0-19,0c-0.4,0-0.7,0-1.1,0c-1.1,0.1-1.7,0.7-1.8,1.7
			c-0.1,1,0.7,1.9,1.7,2c0.5,0.1,1.1,0,1.6,0c5,0,10,0,15,0c0.8,0,1,0.2,1.1,1c0.6,5.9,1.3,11.9,1.9,17.8c0.5,5,1,10.1,1.6,15.1
			c0.6,5.8,1.3,11.6,1.9,17.5c0.3,3.1,0.7,6.3,1,9.4C47.6,124,47.5,124.2,47,124.1z M60.5,76.5c2.3-0.4,5,1.2,5.9,3.6
			c0.9,2.3,0,5.3-1.9,6.5c-0.8,0.5-1.6,0.1-2.3,0.2c-2.6,0-2.6,0-2.6-2.5c0-2.2,0-4.5,0-6.7C59.6,76.9,59.8,76.6,60.5,76.5z
			 M53.2,76.3c0-0.6,0.1-1.2,0.7-1.6c0.5-0.4,1.2-0.4,1.7-0.2c0.5,0.2,0.2,0.8,0.2,1.2c0,1.7,0,3.3,0,5c0,1.8-0.1,3.6,0,5.4
			c0,1.1-0.7,0.9-1.2,0.8c-0.6-0.1-1.5,0.5-1.5-0.8C53.2,82.8,53.2,79.5,53.2,76.3z M48.3,95.1c0-1.1-0.1-2.2-0.4-3.2
			c-0.3-1.2,0.2-1.3,1.2-1.3c10.4,0,20.9,0,31.3,0h3.1c11.5,0,23,0,34.4,0c2.5,0,4,2.1,3,4.2c-0.4,0.9-1.1,1.5-2.2,1.6
			c-0.5,0.1-1.1,0.1-1.6,0.1c-22.4,0-44.8,0-67.2,0C48.8,96.5,48.2,96.4,48.3,95.1z M112.9,122.9c0,0.9-0.1,1.3-1.2,1.3
			c-19.7,0-39.4,0-59.2,0c-1,0-1.2-0.3-1.3-1.2c-0.7-6.6-1.4-13.2-2.1-19.8c-0.1-0.9-0.2-1.7-0.2-2.6c0.4-0.2,0.9-0.1,1.3-0.1
			c20.4,0,40.9,0,61.3,0c1,0,1.4,0.2,1.4,1.3C112.8,108.7,112.8,115.8,112.9,122.9z M109.5,112.3c0-0.7,0-1.3,0-2
			c-0.1-1.1-0.7-1.6-1.8-1.7c-1.1,0-1.8,0.6-1.9,1.5c-0.1,1.3-0.1,2.7,0,4.1c0.1,1,1,1.7,2,1.6c1-0.1,1.7-0.7,1.7-1.7
			C109.6,113.5,109.5,112.9,109.5,112.3C109.5,112.3,109.5,112.3,109.5,112.3z M103.2,110.4c-0.1-1.1-0.7-1.8-1.9-1.8
			c-1.1,0-1.8,0.6-1.9,1.7c-0.1,1.3-0.1,2.6,0,3.8c0.1,1.1,0.8,1.7,1.9,1.7c1.1,0,1.7-0.7,1.9-1.8c0.1-0.6,0-1.2,0-1.7
			C103.2,111.7,103.3,111,103.2,110.4z M96.8,112.3c0-0.7,0-1.3,0-2c-0.1-1.1-0.8-1.8-1.9-1.7c-1.1,0-1.8,0.6-1.8,1.7
			c-0.1,1.3-0.1,2.7,0,4c0.1,1,0.8,1.6,1.9,1.6c1.1,0,1.7-0.6,1.8-1.7C96.8,113.6,96.8,113,96.8,112.3L96.8,112.3z M86.7,108.6
			c-1.8-0.1-3.6-0.1-5.5,0c-1.1,0-1.9,0.9-1.9,1.9c0,1,0.8,1.8,1.9,1.9c0.9,0,1.8,0,2.7,0h2.5c0.1,0,0.2,0,0.2,0
			c1-0.1,1.8-0.9,1.8-1.9C88.5,109.5,87.8,108.6,86.7,108.6z M74.1,108.6c-1.8,0-3.6,0-5.3,0c-1.1,0-1.9,0.8-1.9,1.9
			c0,1,0.8,1.8,1.9,1.9c0.9,0,1.7,0,2.6,0c0.9,0,1.7,0,2.6,0c1.2,0,2-0.9,2-1.9C76,109.4,75.2,108.6,74.1,108.6z M61.7,108.6
			c-1-0.1-1.9,0-2.9,0v0c-0.8,0-1.7,0-2.5,0c-0.1,0-0.2,0-0.2,0c-1.1,0.1-1.7,0.7-1.8,1.7c-0.1,1,0.6,2,1.6,2c2,0.1,3.9,0.1,5.9,0
			c1-0.1,1.6-0.8,1.6-1.9C63.3,109.3,62.7,108.7,61.7,108.6z"/>
		<path d="M58,21.2c0.1,1.3,0.1,2.6,0,3.9c-0.1,1-1,1.7-2,1.7C55,26.6,54.4,26,54.3,25c-0.1-0.6,0-1.2,0-1.9c0,0,0,0,0,0
			c0-0.6,0-1.2,0-1.9c0.1-1.1,0.8-1.8,1.8-1.8C57.2,19.5,58,20.1,58,21.2z"/>
		<path d="M67.1,23.2c0,0.5,0,1.1,0,1.6c0,1.1-0.8,1.9-1.8,1.9c-1.1,0-1.9-0.7-1.9-1.9c0-1.2,0-2.4,0-3.6c0-1.1,0.8-1.8,1.8-1.8
			c1,0,1.8,0.7,1.9,1.7C67.1,21.9,67.1,22.5,67.1,23.2z"/>
		<path d="M76.1,24.9c-0.1,1.1-0.8,1.8-1.8,1.8c-1,0-1.9-0.7-1.9-1.7c-0.1-1.3-0.1-2.6,0-3.9c0.1-1,0.9-1.7,1.9-1.7
			c1.1,0.1,1.7,0.6,1.8,1.7c0.1,0.6,0,1.2,0,1.9h0C76.1,23.7,76.1,24.3,76.1,24.9z"/>
		<path d="M63.4,110.4c0,1.1-0.6,1.8-1.6,1.9c-1.9,0.1-3.9,0.1-5.9,0c-1,0-1.7-1-1.6-2c0.1-1.1,0.7-1.6,1.8-1.7c0.1,0,0.2,0,0.2,0
			c0.8,0,1.7,0,2.5,0v0c1,0,1.9,0,2.9,0C62.7,108.7,63.3,109.3,63.4,110.4z"/>
		<path d="M76,110.5c0,1.1-0.9,1.9-2,1.9c-0.9,0-1.7,0-2.6,0c-0.9,0-1.7,0-2.6,0c-1.1-0.1-1.9-0.9-1.9-1.9c0-1,0.7-1.8,1.9-1.9
			c1.8,0,3.6,0,5.3,0C75.2,108.6,76,109.4,76,110.5z"/>
		<path d="M88.5,110.4c0,1-0.7,1.8-1.8,1.9c-0.1,0-0.2,0-0.2,0H84c-0.9,0-1.8,0-2.7,0c-1.1,0-1.9-0.9-1.9-1.9c0-1,0.8-1.8,1.9-1.9
			c1.8,0,3.6,0,5.5,0C87.8,108.6,88.5,109.5,88.5,110.4z"/>
		<path d="M96.8,112.3c0,0.6,0.1,1.3,0,1.9c-0.1,1.1-0.8,1.6-1.8,1.7c-1.1,0-1.8-0.6-1.9-1.6c-0.1-1.3-0.1-2.7,0-4
			c0.1-1,0.8-1.6,1.8-1.7c1,0,1.8,0.7,1.9,1.7C96.8,111,96.8,111.7,96.8,112.3L96.8,112.3z"/>
		<path d="M103.2,112.4c0,0.6,0.1,1.2,0,1.7c-0.2,1-0.7,1.8-1.9,1.8c-1.1,0-1.8-0.7-1.9-1.7c-0.1-1.3-0.1-2.6,0-3.8
			c0.1-1.1,0.8-1.7,1.9-1.7c1.2,0,1.7,0.7,1.9,1.8C103.3,111,103.2,111.7,103.2,112.4z"/>
		<path d="M109.5,114.1c-0.1,1.1-0.7,1.6-1.7,1.7c-1,0.1-1.9-0.6-2-1.6c-0.1-1.4-0.1-2.7,0-4.1c0.1-1,0.8-1.6,1.9-1.5
			c1.1,0.1,1.7,0.6,1.8,1.7c0.1,0.7,0,1.3,0,2c0,0,0,0,0,0C109.5,112.9,109.6,113.5,109.5,114.1z"/>
		<path d="M67.1,23.2c0,0.5,0,1.1,0,1.6c0,1.1-0.8,1.9-1.8,1.9c-1.1,0-1.9-0.7-1.9-1.9c0-1.2,0-2.4,0-3.6c0-1.1,0.8-1.8,1.8-1.8
			c1,0,1.8,0.7,1.9,1.7C67.1,21.9,67.1,22.5,67.1,23.2z"/>
		<path d="M76.1,24.9c-0.1,1.1-0.8,1.8-1.8,1.8c-1,0-1.9-0.7-1.9-1.7c-0.1-1.3-0.1-2.6,0-3.9c0.1-1,0.9-1.7,1.9-1.7
			c1.1,0.1,1.7,0.6,1.8,1.7c0.1,0.6,0,1.2,0,1.9h0C76.1,23.7,76.1,24.3,76.1,24.9z"/>
		<path d="M58,25.1c-0.1,1-1,1.7-2,1.7C55,26.6,54.4,26,54.3,25c-0.1-0.6,0-1.2,0-1.9c0,0,0,0,0,0c0-0.6,0-1.2,0-1.9
			c0.1-1.1,0.8-1.8,1.8-1.8c1,0,1.9,0.7,1.9,1.7C58.1,22.5,58.1,23.8,58,25.1z"/>
		<path d="M76,110.5c0,1.1-0.9,1.9-2,1.9c-0.9,0-1.7,0-2.6,0c-0.9,0-1.7,0-2.6,0c-1.1-0.1-1.9-0.9-1.9-1.9c0-1,0.7-1.8,1.9-1.9
			c1.8,0,3.6,0,5.3,0C75.2,108.6,76,109.4,76,110.5z"/>
		<path d="M88.5,110.4c0,1-0.7,1.8-1.8,1.9c-0.1,0-0.2,0-0.2,0H84c-0.9,0-1.8,0-2.7,0c-1.1,0-1.9-0.9-1.9-1.9c0-1,0.8-1.8,1.9-1.9
			c1.8,0,3.6,0,5.5,0C87.8,108.6,88.5,109.5,88.5,110.4z"/>
		<path d="M61.8,112.3c-1.9,0.1-3.9,0.1-5.9,0c-1,0-1.7-1-1.6-2c0.1-1.1,0.7-1.6,1.8-1.7c0.1,0,0.2,0,0.2,0c0.8,0,1.7,0,2.5,0v0
			c1,0,1.9,0,2.9,0c1.1,0.1,1.6,0.7,1.7,1.8C63.4,111.5,62.8,112.2,61.8,112.3z"/>
		<path d="M103.2,112.4c0,0.6,0.1,1.2,0,1.7c-0.2,1-0.7,1.8-1.9,1.8c-1.1,0-1.8-0.7-1.9-1.7c-0.1-1.3-0.1-2.6,0-3.8
			c0.1-1.1,0.8-1.7,1.9-1.7c1.2,0,1.7,0.7,1.9,1.8C103.3,111,103.2,111.7,103.2,112.4z"/>
		<path d="M109.5,114.1c-0.1,1.1-0.7,1.6-1.7,1.7c-1,0.1-1.9-0.6-2-1.6c-0.1-1.4-0.1-2.7,0-4.1c0.1-1,0.8-1.6,1.9-1.5
			c1.1,0.1,1.7,0.6,1.8,1.7c0.1,0.7,0,1.3,0,2c0,0,0,0,0,0C109.5,112.9,109.6,113.5,109.5,114.1z"/>
		<path d="M96.8,114.2c-0.1,1.1-0.8,1.6-1.8,1.7c-1.1,0-1.8-0.6-1.9-1.6c-0.1-1.3-0.1-2.7,0-4c0.1-1,0.8-1.6,1.8-1.7
			c1,0,1.8,0.7,1.9,1.7c0,0.7,0,1.3,0,2h0C96.8,113,96.8,113.6,96.8,114.2z"/>
	</g>
</g>
</svg>
