<?xml version="1.0" encoding="utf-8"?>
<!-- Generator: Adobe Illustrator 28.0.0, SVG Export Plug-In . SVG Version: 6.00 Build 0)  -->
<svg version="1.1" id="Layer_1" xmlns="http://www.w3.org/2000/svg" xmlns:xlink="http://www.w3.org/1999/xlink" x="0px" y="0px"
	 viewBox="0 0 128 128" style="enable-background:new 0 0 128 128;" xml:space="preserve">
<g id="tFb9aJ.tif">
	<g>
		<path d="M7,80.9c-1.2-0.4-2.5,0-2.9,0.7c-0.5,1.1,0.3,1.9,1.9,1.9c0.9,0,1.8,0,2-1.2C8.1,81.6,7.8,81.1,7,80.9z M12.5,89
			c-1,0-1.9,0.2-1.8,1.4c0,1.3,1,1.3,2,1.3c1,0,2-0.1,1.9-1.3C14.6,89.1,13.6,89,12.5,89z M22.9,85.1c-0.3,0-0.6,0-0.9,0
			c-0.8,0-1.2,0.6-1.2,1.2c0,0.8,0.4,1.3,1.2,1.4c0.3,0,0.6,0,0.9,0c1,0.1,1.8-0.2,1.8-1.3C24.8,85.3,23.9,85,22.9,85.1z M29.5,93.3
			c-1,0-2,0-2.1,1.4c0,1.3,0.9,1.4,1.5,1.4c1.8,0,2.5-0.4,2.4-1.4C31.3,93.4,30.4,93.3,29.5,93.3z M36.4,81.9
			c-0.9-0.5-1.9-0.5-2.9,0c-0.5,0.2-0.7,0.8-0.6,1.3c0.3,1.1,1.1,1.2,2,1.1c0.8,0,1.6,0,1.9-0.9C37.1,82.8,37,82.2,36.4,81.9z
			 M41.5,89.8c-1,0-1.8,0.2-1.8,1.4c0,1.4,1.1,1.3,1.8,1.3c1.3,0,2.2-0.1,2.2-1.4C43.5,89.8,42.5,89.8,41.5,89.8z M50.1,79.8
			c-0.9-0.6-2-0.6-3-0.1c-0.5,0.3-0.7,0.9-0.5,1.5c0.3,1,1.2,1,1.9,1c0.8,0,1.6,0,1.9-0.8C50.7,80.8,50.6,80.2,50.1,79.8z
			 M57.5,87.9c-0.9-0.2-1.8-0.3-2.7,0.1c-0.5,0.3-0.6,0.8-0.5,1.4c0,0.4,0.2,0.6,0.5,0.9c0.4,0.3,0.9,0.2,1.3,0.2
			c1.1,0,2,0.1,2.1-1.3C58.3,88.5,58,88,57.5,87.9z M113,91.1c-0.7,0-1.8,0-1.8,1.4c0,1.3,1,1.4,1.9,1.4c0.9,0,1.9,0,2-1.3
			C115.2,91.3,114.3,91.1,113,91.1z M119.1,84c-0.9-0.4-1.9-0.4-2.8-0.1c-0.5,0.2-0.8,0.7-0.7,1.3c0.2,1.1,1,1.3,2,1.2
			c0.9,0.1,1.8,0.1,2-1.1C119.8,84.8,119.6,84.2,119.1,84z M119.1,84c-0.9-0.4-1.9-0.4-2.8-0.1c-0.5,0.2-0.8,0.7-0.7,1.3
			c0.2,1.1,1,1.3,2,1.2c0.9,0.1,1.8,0.1,2-1.1C119.8,84.8,119.6,84.2,119.1,84z M113,91.1c-0.7,0-1.8,0-1.8,1.4c0,1.3,1,1.4,1.9,1.4
			c0.9,0,1.9,0,2-1.3C115.2,91.3,114.3,91.1,113,91.1z M57.5,87.9c-0.9-0.2-1.8-0.3-2.7,0.1c-0.5,0.3-0.6,0.8-0.5,1.4
			c0,0.4,0.2,0.6,0.5,0.9c0.4,0.3,0.9,0.2,1.3,0.2c1.1,0,2,0.1,2.1-1.3C58.3,88.5,58,88,57.5,87.9z M50.1,79.8c-0.9-0.6-2-0.6-3-0.1
			c-0.5,0.3-0.7,0.9-0.5,1.5c0.3,1,1.2,1,1.9,1c0.8,0,1.6,0,1.9-0.8C50.7,80.8,50.6,80.2,50.1,79.8z M41.5,89.8
			c-1,0-1.8,0.2-1.8,1.4c0,1.4,1.1,1.3,1.8,1.3c1.3,0,2.2-0.1,2.2-1.4C43.5,89.8,42.5,89.8,41.5,89.8z M36.4,81.9
			c-0.9-0.5-1.9-0.5-2.9,0c-0.5,0.2-0.7,0.8-0.6,1.3c0.3,1.1,1.1,1.2,2,1.1c0.8,0,1.6,0,1.9-0.9C37.1,82.8,37,82.2,36.4,81.9z
			 M29.5,93.3c-1,0-2,0-2.1,1.4c0,1.3,0.9,1.4,1.5,1.4c1.8,0,2.5-0.4,2.4-1.4C31.3,93.4,30.4,93.3,29.5,93.3z M22.9,85.1
			c-0.3,0-0.6,0-0.9,0c-0.8,0-1.2,0.6-1.2,1.2c0,0.8,0.4,1.3,1.2,1.4c0.3,0,0.6,0,0.9,0c1,0.1,1.8-0.2,1.8-1.3
			C24.8,85.3,23.9,85,22.9,85.1z M12.5,89c-1,0-1.9,0.2-1.8,1.4c0,1.3,1,1.3,2,1.3c1,0,2-0.1,1.9-1.3C14.6,89.1,13.6,89,12.5,89z
			 M7,80.9c-1.2-0.4-2.5,0-2.9,0.7c-0.5,1.1,0.3,1.9,1.9,1.9c0.9,0,1.8,0,2-1.2C8.1,81.6,7.8,81.1,7,80.9z M7,80.9
			c-1.2-0.4-2.5,0-2.9,0.7c-0.5,1.1,0.3,1.9,1.9,1.9c0.9,0,1.8,0,2-1.2C8.1,81.6,7.8,81.1,7,80.9z M12.5,89c-1,0-1.9,0.2-1.8,1.4
			c0,1.3,1,1.3,2,1.3c1,0,2-0.1,1.9-1.3C14.6,89.1,13.6,89,12.5,89z M22.9,85.1c-0.3,0-0.6,0-0.9,0c-0.8,0-1.2,0.6-1.2,1.2
			c0,0.8,0.4,1.3,1.2,1.4c0.3,0,0.6,0,0.9,0c1,0.1,1.8-0.2,1.8-1.3C24.8,85.3,23.9,85,22.9,85.1z M29.5,93.3c-1,0-2,0-2.1,1.4
			c0,1.3,0.9,1.4,1.5,1.4c1.8,0,2.5-0.4,2.4-1.4C31.3,93.4,30.4,93.3,29.5,93.3z M36.4,81.9c-0.9-0.5-1.9-0.5-2.9,0
			c-0.5,0.2-0.7,0.8-0.6,1.3c0.3,1.1,1.1,1.2,2,1.1c0.8,0,1.6,0,1.9-0.9C37.1,82.8,37,82.2,36.4,81.9z M41.5,89.8
			c-1,0-1.8,0.2-1.8,1.4c0,1.4,1.1,1.3,1.8,1.3c1.3,0,2.2-0.1,2.2-1.4C43.5,89.8,42.5,89.8,41.5,89.8z M50.1,79.8
			c-0.9-0.6-2-0.6-3-0.1c-0.5,0.3-0.7,0.9-0.5,1.5c0.3,1,1.2,1,1.9,1c0.8,0,1.6,0,1.9-0.8C50.7,80.8,50.6,80.2,50.1,79.8z
			 M57.5,87.9c-0.9-0.2-1.8-0.3-2.7,0.1c-0.5,0.3-0.6,0.8-0.5,1.4c0,0.4,0.2,0.6,0.5,0.9c0.4,0.3,0.9,0.2,1.3,0.2
			c1.1,0,2,0.1,2.1-1.3C58.3,88.5,58,88,57.5,87.9z M113,91.1c-0.7,0-1.8,0-1.8,1.4c0,1.3,1,1.4,1.9,1.4c0.9,0,1.9,0,2-1.3
			C115.2,91.3,114.3,91.1,113,91.1z M119.1,84c-0.9-0.4-1.9-0.4-2.8-0.1c-0.5,0.2-0.8,0.7-0.7,1.3c0.2,1.1,1,1.3,2,1.2
			c0.9,0.1,1.8,0.1,2-1.1C119.8,84.8,119.6,84.2,119.1,84z M119.1,84c-0.9-0.4-1.9-0.4-2.8-0.1c-0.5,0.2-0.8,0.7-0.7,1.3
			c0.2,1.1,1,1.3,2,1.2c0.9,0.1,1.8,0.1,2-1.1C119.8,84.8,119.6,84.2,119.1,84z M113,91.1c-0.7,0-1.8,0-1.8,1.4c0,1.3,1,1.4,1.9,1.4
			c0.9,0,1.9,0,2-1.3C115.2,91.3,114.3,91.1,113,91.1z M57.5,87.9c-0.9-0.2-1.8-0.3-2.7,0.1c-0.5,0.3-0.6,0.8-0.5,1.4
			c0,0.4,0.2,0.6,0.5,0.9c0.4,0.3,0.9,0.2,1.3,0.2c1.1,0,2,0.1,2.1-1.3C58.3,88.5,58,88,57.5,87.9z M50.1,79.8c-0.9-0.6-2-0.6-3-0.1
			c-0.5,0.3-0.7,0.9-0.5,1.5c0.3,1,1.2,1,1.9,1c0.8,0,1.6,0,1.9-0.8C50.7,80.8,50.6,80.2,50.1,79.8z M41.5,89.8
			c-1,0-1.8,0.2-1.8,1.4c0,1.4,1.1,1.3,1.8,1.3c1.3,0,2.2-0.1,2.2-1.4C43.5,89.8,42.5,89.8,41.5,89.8z M36.4,81.9
			c-0.9-0.5-1.9-0.5-2.9,0c-0.5,0.2-0.7,0.8-0.6,1.3c0.3,1.1,1.1,1.2,2,1.1c0.8,0,1.6,0,1.9-0.9C37.1,82.8,37,82.2,36.4,81.9z
			 M29.5,93.3c-1,0-2,0-2.1,1.4c0,1.3,0.9,1.4,1.5,1.4c1.8,0,2.5-0.4,2.4-1.4C31.3,93.4,30.4,93.3,29.5,93.3z M22.9,85.1
			c-0.3,0-0.6,0-0.9,0c-0.8,0-1.2,0.6-1.2,1.2c0,0.8,0.4,1.3,1.2,1.4c0.3,0,0.6,0,0.9,0c1,0.1,1.8-0.2,1.8-1.3
			C24.8,85.3,23.9,85,22.9,85.1z M12.5,89c-1,0-1.9,0.2-1.8,1.4c0,1.3,1,1.3,2,1.3c1,0,2-0.1,1.9-1.3C14.6,89.1,13.6,89,12.5,89z
			 M7,80.9c-1.2-0.4-2.5,0-2.9,0.7c-0.5,1.1,0.3,1.9,1.9,1.9c0.9,0,1.8,0,2-1.2C8.1,81.6,7.8,81.1,7,80.9z M7,80.9
			c-1.2-0.4-2.5,0-2.9,0.7c-0.5,1.1,0.3,1.9,1.9,1.9c0.9,0,1.8,0,2-1.2C8.1,81.6,7.8,81.1,7,80.9z M12.5,89c-1,0-1.9,0.2-1.8,1.4
			c0,1.3,1,1.3,2,1.3c1,0,2-0.1,1.9-1.3C14.6,89.1,13.6,89,12.5,89z M22.9,85.1c-0.3,0-0.6,0-0.9,0c-0.8,0-1.2,0.6-1.2,1.2
			c0,0.8,0.4,1.3,1.2,1.4c0.3,0,0.6,0,0.9,0c1,0.1,1.8-0.2,1.8-1.3C24.8,85.3,23.9,85,22.9,85.1z M29.5,93.3c-1,0-2,0-2.1,1.4
			c0,1.3,0.9,1.4,1.5,1.4c1.8,0,2.5-0.4,2.4-1.4C31.3,93.4,30.4,93.3,29.5,93.3z M36.4,81.9c-0.9-0.5-1.9-0.5-2.9,0
			c-0.5,0.2-0.7,0.8-0.6,1.3c0.3,1.1,1.1,1.2,2,1.1c0.8,0,1.6,0,1.9-0.9C37.1,82.8,37,82.2,36.4,81.9z M41.5,89.8
			c-1,0-1.8,0.2-1.8,1.4c0,1.4,1.1,1.3,1.8,1.3c1.3,0,2.2-0.1,2.2-1.4C43.5,89.8,42.5,89.8,41.5,89.8z M50.1,79.8
			c-0.9-0.6-2-0.6-3-0.1c-0.5,0.3-0.7,0.9-0.5,1.5c0.3,1,1.2,1,1.9,1c0.8,0,1.6,0,1.9-0.8C50.7,80.8,50.6,80.2,50.1,79.8z
			 M57.5,87.9c-0.9-0.2-1.8-0.3-2.7,0.1c-0.5,0.3-0.6,0.8-0.5,1.4c0,0.4,0.2,0.6,0.5,0.9c0.4,0.3,0.9,0.2,1.3,0.2
			c1.1,0,2,0.1,2.1-1.3C58.3,88.5,58,88,57.5,87.9z M113,91.1c-0.7,0-1.8,0-1.8,1.4c0,1.3,1,1.4,1.9,1.4c0.9,0,1.9,0,2-1.3
			C115.2,91.3,114.3,91.1,113,91.1z M119.1,84c-0.9-0.4-1.9-0.4-2.8-0.1c-0.5,0.2-0.8,0.7-0.7,1.3c0.2,1.1,1,1.3,2,1.2
			c0.9,0.1,1.8,0.1,2-1.1C119.8,84.8,119.6,84.2,119.1,84z M119.1,84c-0.9-0.4-1.9-0.4-2.8-0.1c-0.5,0.2-0.8,0.7-0.7,1.3
			c0.2,1.1,1,1.3,2,1.2c0.9,0.1,1.8,0.1,2-1.1C119.8,84.8,119.6,84.2,119.1,84z M113,91.1c-0.7,0-1.8,0-1.8,1.4c0,1.3,1,1.4,1.9,1.4
			c0.9,0,1.9,0,2-1.3C115.2,91.3,114.3,91.1,113,91.1z M57.5,87.9c-0.9-0.2-1.8-0.3-2.7,0.1c-0.5,0.3-0.6,0.8-0.5,1.4
			c0,0.4,0.2,0.6,0.5,0.9c0.4,0.3,0.9,0.2,1.3,0.2c1.1,0,2,0.1,2.1-1.3C58.3,88.5,58,88,57.5,87.9z M50.1,79.8c-0.9-0.6-2-0.6-3-0.1
			c-0.5,0.3-0.7,0.9-0.5,1.5c0.3,1,1.2,1,1.9,1c0.8,0,1.6,0,1.9-0.8C50.7,80.8,50.6,80.2,50.1,79.8z M41.5,89.8
			c-1,0-1.8,0.2-1.8,1.4c0,1.4,1.1,1.3,1.8,1.3c1.3,0,2.2-0.1,2.2-1.4C43.5,89.8,42.5,89.8,41.5,89.8z M36.4,81.9
			c-0.9-0.5-1.9-0.5-2.9,0c-0.5,0.2-0.7,0.8-0.6,1.3c0.3,1.1,1.1,1.2,2,1.1c0.8,0,1.6,0,1.9-0.9C37.1,82.8,37,82.2,36.4,81.9z
			 M29.5,93.3c-1,0-2,0-2.1,1.4c0,1.3,0.9,1.4,1.5,1.4c1.8,0,2.5-0.4,2.4-1.4C31.3,93.4,30.4,93.3,29.5,93.3z M22.9,85.1
			c-0.3,0-0.6,0-0.9,0c-0.8,0-1.2,0.6-1.2,1.2c0,0.8,0.4,1.3,1.2,1.4c0.3,0,0.6,0,0.9,0c1,0.1,1.8-0.2,1.8-1.3
			C24.8,85.3,23.9,85,22.9,85.1z M12.5,89c-1,0-1.9,0.2-1.8,1.4c0,1.3,1,1.3,2,1.3c1,0,2-0.1,1.9-1.3C14.6,89.1,13.6,89,12.5,89z
			 M7,80.9c-1.2-0.4-2.5,0-2.9,0.7c-0.5,1.1,0.3,1.9,1.9,1.9c0.9,0,1.8,0,2-1.2C8.1,81.6,7.8,81.1,7,80.9z M7,80.9
			c-1.2-0.4-2.5,0-2.9,0.7c-0.5,1.1,0.3,1.9,1.9,1.9c0.9,0,1.8,0,2-1.2C8.1,81.6,7.8,81.1,7,80.9z M12.5,89c-1,0-1.9,0.2-1.8,1.4
			c0,1.3,1,1.3,2,1.3c1,0,2-0.1,1.9-1.3C14.6,89.1,13.6,89,12.5,89z M22.9,85.1c-0.3,0-0.6,0-0.9,0c-0.8,0-1.2,0.6-1.2,1.2
			c0,0.8,0.4,1.3,1.2,1.4c0.3,0,0.6,0,0.9,0c1,0.1,1.8-0.2,1.8-1.3C24.8,85.3,23.9,85,22.9,85.1z M29.5,93.3c-1,0-2,0-2.1,1.4
			c0,1.3,0.9,1.4,1.5,1.4c1.8,0,2.5-0.4,2.4-1.4C31.3,93.4,30.4,93.3,29.5,93.3z M36.4,81.9c-0.9-0.5-1.9-0.5-2.9,0
			c-0.5,0.2-0.7,0.8-0.6,1.3c0.3,1.1,1.1,1.2,2,1.1c0.8,0,1.6,0,1.9-0.9C37.1,82.8,37,82.2,36.4,81.9z M41.5,89.8
			c-1,0-1.8,0.2-1.8,1.4c0,1.4,1.1,1.3,1.8,1.3c1.3,0,2.2-0.1,2.2-1.4C43.5,89.8,42.5,89.8,41.5,89.8z M50.1,79.8
			c-0.9-0.6-2-0.6-3-0.1c-0.5,0.3-0.7,0.9-0.5,1.5c0.3,1,1.2,1,1.9,1c0.8,0,1.6,0,1.9-0.8C50.7,80.8,50.6,80.2,50.1,79.8z
			 M57.5,87.9c-0.9-0.2-1.8-0.3-2.7,0.1c-0.5,0.3-0.6,0.8-0.5,1.4c0,0.4,0.2,0.6,0.5,0.9c0.4,0.3,0.9,0.2,1.3,0.2
			c1.1,0,2,0.1,2.1-1.3C58.3,88.5,58,88,57.5,87.9z M113,91.1c-0.7,0-1.8,0-1.8,1.4c0,1.3,1,1.4,1.9,1.4c0.9,0,1.9,0,2-1.3
			C115.2,91.3,114.3,91.1,113,91.1z M119.1,84c-0.9-0.4-1.9-0.4-2.8-0.1c-0.5,0.2-0.8,0.7-0.7,1.3c0.2,1.1,1,1.3,2,1.2
			c0.9,0.1,1.8,0.1,2-1.1C119.8,84.8,119.6,84.2,119.1,84z M119.1,84c-0.9-0.4-1.9-0.4-2.8-0.1c-0.5,0.2-0.8,0.7-0.7,1.3
			c0.2,1.1,1,1.3,2,1.2c0.9,0.1,1.8,0.1,2-1.1C119.8,84.8,119.6,84.2,119.1,84z M113,91.1c-0.7,0-1.8,0-1.8,1.4c0,1.3,1,1.4,1.9,1.4
			c0.9,0,1.9,0,2-1.3C115.2,91.3,114.3,91.1,113,91.1z M57.5,87.9c-0.9-0.2-1.8-0.3-2.7,0.1c-0.5,0.3-0.6,0.8-0.5,1.4
			c0,0.4,0.2,0.6,0.5,0.9c0.4,0.3,0.9,0.2,1.3,0.2c1.1,0,2,0.1,2.1-1.3C58.3,88.5,58,88,57.5,87.9z M50.1,79.8c-0.9-0.6-2-0.6-3-0.1
			c-0.5,0.3-0.7,0.9-0.5,1.5c0.3,1,1.2,1,1.9,1c0.8,0,1.6,0,1.9-0.8C50.7,80.8,50.6,80.2,50.1,79.8z M41.5,89.8
			c-1,0-1.8,0.2-1.8,1.4c0,1.4,1.1,1.3,1.8,1.3c1.3,0,2.2-0.1,2.2-1.4C43.5,89.8,42.5,89.8,41.5,89.8z M36.4,81.9
			c-0.9-0.5-1.9-0.5-2.9,0c-0.5,0.2-0.7,0.8-0.6,1.3c0.3,1.1,1.1,1.2,2,1.1c0.8,0,1.6,0,1.9-0.9C37.1,82.8,37,82.2,36.4,81.9z
			 M29.5,93.3c-1,0-2,0-2.1,1.4c0,1.3,0.9,1.4,1.5,1.4c1.8,0,2.5-0.4,2.4-1.4C31.3,93.4,30.4,93.3,29.5,93.3z M22.9,85.1
			c-0.3,0-0.6,0-0.9,0c-0.8,0-1.2,0.6-1.2,1.2c0,0.8,0.4,1.3,1.2,1.4c0.3,0,0.6,0,0.9,0c1,0.1,1.8-0.2,1.8-1.3
			C24.8,85.3,23.9,85,22.9,85.1z M12.5,89c-1,0-1.9,0.2-1.8,1.4c0,1.3,1,1.3,2,1.3c1,0,2-0.1,1.9-1.3C14.6,89.1,13.6,89,12.5,89z
			 M7,80.9c-1.2-0.4-2.5,0-2.9,0.7c-0.5,1.1,0.3,1.9,1.9,1.9c0.9,0,1.8,0,2-1.2C8.1,81.6,7.8,81.1,7,80.9z M7,80.9
			c-1.2-0.4-2.5,0-2.9,0.7c-0.5,1.1,0.3,1.9,1.9,1.9c0.9,0,1.8,0,2-1.2C8.1,81.6,7.8,81.1,7,80.9z M12.5,89c-1,0-1.9,0.2-1.8,1.4
			c0,1.3,1,1.3,2,1.3c1,0,2-0.1,1.9-1.3C14.6,89.1,13.6,89,12.5,89z M22.9,85.1c-0.3,0-0.6,0-0.9,0c-0.8,0-1.2,0.6-1.2,1.2
			c0,0.8,0.4,1.3,1.2,1.4c0.3,0,0.6,0,0.9,0c1,0.1,1.8-0.2,1.8-1.3C24.8,85.3,23.9,85,22.9,85.1z M29.5,93.3c-1,0-2,0-2.1,1.4
			c0,1.3,0.9,1.4,1.5,1.4c1.8,0,2.5-0.4,2.4-1.4C31.3,93.4,30.4,93.3,29.5,93.3z M36.4,81.9c-0.9-0.5-1.9-0.5-2.9,0
			c-0.5,0.2-0.7,0.8-0.6,1.3c0.3,1.1,1.1,1.2,2,1.1c0.8,0,1.6,0,1.9-0.9C37.1,82.8,37,82.2,36.4,81.9z M41.5,89.8
			c-1,0-1.8,0.2-1.8,1.4c0,1.4,1.1,1.3,1.8,1.3c1.3,0,2.2-0.1,2.2-1.4C43.5,89.8,42.5,89.8,41.5,89.8z M50.1,79.8
			c-0.9-0.6-2-0.6-3-0.1c-0.5,0.3-0.7,0.9-0.5,1.5c0.3,1,1.2,1,1.9,1c0.8,0,1.6,0,1.9-0.8C50.7,80.8,50.6,80.2,50.1,79.8z
			 M57.5,87.9c-0.9-0.2-1.8-0.3-2.7,0.1c-0.5,0.3-0.6,0.8-0.5,1.4c0,0.4,0.2,0.6,0.5,0.9c0.4,0.3,0.9,0.2,1.3,0.2
			c1.1,0,2,0.1,2.1-1.3C58.3,88.5,58,88,57.5,87.9z M113,91.1c-0.7,0-1.8,0-1.8,1.4c0,1.3,1,1.4,1.9,1.4c0.9,0,1.9,0,2-1.3
			C115.2,91.3,114.3,91.1,113,91.1z M119.1,84c-0.9-0.4-1.9-0.4-2.8-0.1c-0.5,0.2-0.8,0.7-0.7,1.3c0.2,1.1,1,1.3,2,1.2
			c0.9,0.1,1.8,0.1,2-1.1C119.8,84.8,119.6,84.2,119.1,84z M119.1,84c-0.9-0.4-1.9-0.4-2.8-0.1c-0.5,0.2-0.8,0.7-0.7,1.3
			c0.2,1.1,1,1.3,2,1.2c0.9,0.1,1.8,0.1,2-1.1C119.8,84.8,119.6,84.2,119.1,84z M113,91.1c-0.7,0-1.8,0-1.8,1.4c0,1.3,1,1.4,1.9,1.4
			c0.9,0,1.9,0,2-1.3C115.2,91.3,114.3,91.1,113,91.1z M57.5,87.9c-0.9-0.2-1.8-0.3-2.7,0.1c-0.5,0.3-0.6,0.8-0.5,1.4
			c0,0.4,0.2,0.6,0.5,0.9c0.4,0.3,0.9,0.2,1.3,0.2c1.1,0,2,0.1,2.1-1.3C58.3,88.5,58,88,57.5,87.9z M50.1,79.8c-0.9-0.6-2-0.6-3-0.1
			c-0.5,0.3-0.7,0.9-0.5,1.5c0.3,1,1.2,1,1.9,1c0.8,0,1.6,0,1.9-0.8C50.7,80.8,50.6,80.2,50.1,79.8z M41.5,89.8
			c-1,0-1.8,0.2-1.8,1.4c0,1.4,1.1,1.3,1.8,1.3c1.3,0,2.2-0.1,2.2-1.4C43.5,89.8,42.5,89.8,41.5,89.8z M36.4,81.9
			c-0.9-0.5-1.9-0.5-2.9,0c-0.5,0.2-0.7,0.8-0.6,1.3c0.3,1.1,1.1,1.2,2,1.1c0.8,0,1.6,0,1.9-0.9C37.1,82.8,37,82.2,36.4,81.9z
			 M29.5,93.3c-1,0-2,0-2.1,1.4c0,1.3,0.9,1.4,1.5,1.4c1.8,0,2.5-0.4,2.4-1.4C31.3,93.4,30.4,93.3,29.5,93.3z M22.9,85.1
			c-0.3,0-0.6,0-0.9,0c-0.8,0-1.2,0.6-1.2,1.2c0,0.8,0.4,1.3,1.2,1.4c0.3,0,0.6,0,0.9,0c1,0.1,1.8-0.2,1.8-1.3
			C24.8,85.3,23.9,85,22.9,85.1z M12.5,89c-1,0-1.9,0.2-1.8,1.4c0,1.3,1,1.3,2,1.3c1,0,2-0.1,1.9-1.3C14.6,89.1,13.6,89,12.5,89z
			 M7,80.9c-1.2-0.4-2.5,0-2.9,0.7c-0.5,1.1,0.3,1.9,1.9,1.9c0.9,0,1.8,0,2-1.2C8.1,81.6,7.8,81.1,7,80.9z M7,80.9
			c-1.2-0.4-2.5,0-2.9,0.7c-0.5,1.1,0.3,1.9,1.9,1.9c0.9,0,1.8,0,2-1.2C8.1,81.6,7.8,81.1,7,80.9z M12.5,89c-1,0-1.9,0.2-1.8,1.4
			c0,1.3,1,1.3,2,1.3c1,0,2-0.1,1.9-1.3C14.6,89.1,13.6,89,12.5,89z M22.9,85.1c-0.3,0-0.6,0-0.9,0c-0.8,0-1.2,0.6-1.2,1.2
			c0,0.8,0.4,1.3,1.2,1.4c0.3,0,0.6,0,0.9,0c1,0.1,1.8-0.2,1.8-1.3C24.8,85.3,23.9,85,22.9,85.1z M29.5,93.3c-1,0-2,0-2.1,1.4
			c0,1.3,0.9,1.4,1.5,1.4c1.8,0,2.5-0.4,2.4-1.4C31.3,93.4,30.4,93.3,29.5,93.3z M36.4,81.9c-0.9-0.5-1.9-0.5-2.9,0
			c-0.5,0.2-0.7,0.8-0.6,1.3c0.3,1.1,1.1,1.2,2,1.1c0.8,0,1.6,0,1.9-0.9C37.1,82.8,37,82.2,36.4,81.9z M41.5,89.8
			c-1,0-1.8,0.2-1.8,1.4c0,1.4,1.1,1.3,1.8,1.3c1.3,0,2.2-0.1,2.2-1.4C43.5,89.8,42.5,89.8,41.5,89.8z M50.1,79.8
			c-0.9-0.6-2-0.6-3-0.1c-0.5,0.3-0.7,0.9-0.5,1.5c0.3,1,1.2,1,1.9,1c0.8,0,1.6,0,1.9-0.8C50.7,80.8,50.6,80.2,50.1,79.8z
			 M57.5,87.9c-0.9-0.2-1.8-0.3-2.7,0.1c-0.5,0.3-0.6,0.8-0.5,1.4c0,0.4,0.2,0.6,0.5,0.9c0.4,0.3,0.9,0.2,1.3,0.2
			c1.1,0,2,0.1,2.1-1.3C58.3,88.5,58,88,57.5,87.9z M113,91.1c-0.7,0-1.8,0-1.8,1.4c0,1.3,1,1.4,1.9,1.4c0.9,0,1.9,0,2-1.3
			C115.2,91.3,114.3,91.1,113,91.1z M119.1,84c-0.9-0.4-1.9-0.4-2.8-0.1c-0.5,0.2-0.8,0.7-0.7,1.3c0.2,1.1,1,1.3,2,1.2
			c0.9,0.1,1.8,0.1,2-1.1C119.8,84.8,119.6,84.2,119.1,84z M119.1,84c-0.9-0.4-1.9-0.4-2.8-0.1c-0.5,0.2-0.8,0.7-0.7,1.3
			c0.2,1.1,1,1.3,2,1.2c0.9,0.1,1.8,0.1,2-1.1C119.8,84.8,119.6,84.2,119.1,84z M113,91.1c-0.7,0-1.8,0-1.8,1.4c0,1.3,1,1.4,1.9,1.4
			c0.9,0,1.9,0,2-1.3C115.2,91.3,114.3,91.1,113,91.1z M57.5,87.9c-0.9-0.2-1.8-0.3-2.7,0.1c-0.5,0.3-0.6,0.8-0.5,1.4
			c0,0.4,0.2,0.6,0.5,0.9c0.4,0.3,0.9,0.2,1.3,0.2c1.1,0,2,0.1,2.1-1.3C58.3,88.5,58,88,57.5,87.9z M50.1,79.8c-0.9-0.6-2-0.6-3-0.1
			c-0.5,0.3-0.7,0.9-0.5,1.5c0.3,1,1.2,1,1.9,1c0.8,0,1.6,0,1.9-0.8C50.7,80.8,50.6,80.2,50.1,79.8z M41.5,89.8
			c-1,0-1.8,0.2-1.8,1.4c0,1.4,1.1,1.3,1.8,1.3c1.3,0,2.2-0.1,2.2-1.4C43.5,89.8,42.5,89.8,41.5,89.8z M36.4,81.9
			c-0.9-0.5-1.9-0.5-2.9,0c-0.5,0.2-0.7,0.8-0.6,1.3c0.3,1.1,1.1,1.2,2,1.1c0.8,0,1.6,0,1.9-0.9C37.1,82.8,37,82.2,36.4,81.9z
			 M29.5,93.3c-1,0-2,0-2.1,1.4c0,1.3,0.9,1.4,1.5,1.4c1.8,0,2.5-0.4,2.4-1.4C31.3,93.4,30.4,93.3,29.5,93.3z M22.9,85.1
			c-0.3,0-0.6,0-0.9,0c-0.8,0-1.2,0.6-1.2,1.2c0,0.8,0.4,1.3,1.2,1.4c0.3,0,0.6,0,0.9,0c1,0.1,1.8-0.2,1.8-1.3
			C24.8,85.3,23.9,85,22.9,85.1z M12.5,89c-1,0-1.9,0.2-1.8,1.4c0,1.3,1,1.3,2,1.3c1,0,2-0.1,1.9-1.3C14.6,89.1,13.6,89,12.5,89z
			 M7,80.9c-1.2-0.4-2.5,0-2.9,0.7c-0.5,1.1,0.3,1.9,1.9,1.9c0.9,0,1.8,0,2-1.2C8.1,81.6,7.8,81.1,7,80.9z M7,80.9
			c-1.2-0.4-2.5,0-2.9,0.7c-0.5,1.1,0.3,1.9,1.9,1.9c0.9,0,1.8,0,2-1.2C8.1,81.6,7.8,81.1,7,80.9z M12.5,89c-1,0-1.9,0.2-1.8,1.4
			c0,1.3,1,1.3,2,1.3c1,0,2-0.1,1.9-1.3C14.6,89.1,13.6,89,12.5,89z M22.9,85.1c-0.3,0-0.6,0-0.9,0c-0.8,0-1.2,0.6-1.2,1.2
			c0,0.8,0.4,1.3,1.2,1.4c0.3,0,0.6,0,0.9,0c1,0.1,1.8-0.2,1.8-1.3C24.8,85.3,23.9,85,22.9,85.1z M29.5,93.3c-1,0-2,0-2.1,1.4
			c0,1.3,0.9,1.4,1.5,1.4c1.8,0,2.5-0.4,2.4-1.4C31.3,93.4,30.4,93.3,29.5,93.3z M36.4,81.9c-0.9-0.5-1.9-0.5-2.9,0
			c-0.5,0.2-0.7,0.8-0.6,1.3c0.3,1.1,1.1,1.2,2,1.1c0.8,0,1.6,0,1.9-0.9C37.1,82.8,37,82.2,36.4,81.9z M41.5,89.8
			c-1,0-1.8,0.2-1.8,1.4c0,1.4,1.1,1.3,1.8,1.3c1.3,0,2.2-0.1,2.2-1.4C43.5,89.8,42.5,89.8,41.5,89.8z M50.1,79.8
			c-0.9-0.6-2-0.6-3-0.1c-0.5,0.3-0.7,0.9-0.5,1.5c0.3,1,1.2,1,1.9,1c0.8,0,1.6,0,1.9-0.8C50.7,80.8,50.6,80.2,50.1,79.8z
			 M57.5,87.9c-0.9-0.2-1.8-0.3-2.7,0.1c-0.5,0.3-0.6,0.8-0.5,1.4c0,0.4,0.2,0.6,0.5,0.9c0.4,0.3,0.9,0.2,1.3,0.2
			c1.1,0,2,0.1,2.1-1.3C58.3,88.5,58,88,57.5,87.9z M113,91.1c-0.7,0-1.8,0-1.8,1.4c0,1.3,1,1.4,1.9,1.4c0.9,0,1.9,0,2-1.3
			C115.2,91.3,114.3,91.1,113,91.1z M119.1,84c-0.9-0.4-1.9-0.4-2.8-0.1c-0.5,0.2-0.8,0.7-0.7,1.3c0.2,1.1,1,1.3,2,1.2
			c0.9,0.1,1.8,0.1,2-1.1C119.8,84.8,119.6,84.2,119.1,84z M119.1,84c-0.9-0.4-1.9-0.4-2.8-0.1c-0.5,0.2-0.8,0.7-0.7,1.3
			c0.2,1.1,1,1.3,2,1.2c0.9,0.1,1.8,0.1,2-1.1C119.8,84.8,119.6,84.2,119.1,84z M113,91.1c-0.7,0-1.8,0-1.8,1.4c0,1.3,1,1.4,1.9,1.4
			c0.9,0,1.9,0,2-1.3C115.2,91.3,114.3,91.1,113,91.1z M57.5,87.9c-0.9-0.2-1.8-0.3-2.7,0.1c-0.5,0.3-0.6,0.8-0.5,1.4
			c0,0.4,0.2,0.6,0.5,0.9c0.4,0.3,0.9,0.2,1.3,0.2c1.1,0,2,0.1,2.1-1.3C58.3,88.5,58,88,57.5,87.9z M50.1,79.8c-0.9-0.6-2-0.6-3-0.1
			c-0.5,0.3-0.7,0.9-0.5,1.5c0.3,1,1.2,1,1.9,1c0.8,0,1.6,0,1.9-0.8C50.7,80.8,50.6,80.2,50.1,79.8z M41.5,89.8
			c-1,0-1.8,0.2-1.8,1.4c0,1.4,1.1,1.3,1.8,1.3c1.3,0,2.2-0.1,2.2-1.4C43.5,89.8,42.5,89.8,41.5,89.8z M36.4,81.9
			c-0.9-0.5-1.9-0.5-2.9,0c-0.5,0.2-0.7,0.8-0.6,1.3c0.3,1.1,1.1,1.2,2,1.1c0.8,0,1.6,0,1.9-0.9C37.1,82.8,37,82.2,36.4,81.9z
			 M29.5,93.3c-1,0-2,0-2.1,1.4c0,1.3,0.9,1.4,1.5,1.4c1.8,0,2.5-0.4,2.4-1.4C31.3,93.4,30.4,93.3,29.5,93.3z M22.9,85.1
			c-0.3,0-0.6,0-0.9,0c-0.8,0-1.2,0.6-1.2,1.2c0,0.8,0.4,1.3,1.2,1.4c0.3,0,0.6,0,0.9,0c1,0.1,1.8-0.2,1.8-1.3
			C24.8,85.3,23.9,85,22.9,85.1z M12.5,89c-1,0-1.9,0.2-1.8,1.4c0,1.3,1,1.3,2,1.3c1,0,2-0.1,1.9-1.3C14.6,89.1,13.6,89,12.5,89z
			 M7,80.9c-1.2-0.4-2.5,0-2.9,0.7c-0.5,1.1,0.3,1.9,1.9,1.9c0.9,0,1.8,0,2-1.2C8.1,81.6,7.8,81.1,7,80.9z M7,80.9
			c-1.2-0.4-2.5,0-2.9,0.7c-0.5,1.1,0.3,1.9,1.9,1.9c0.9,0,1.8,0,2-1.2C8.1,81.6,7.8,81.1,7,80.9z M12.5,89c-1,0-1.9,0.2-1.8,1.4
			c0,1.3,1,1.3,2,1.3c1,0,2-0.1,1.9-1.3C14.6,89.1,13.6,89,12.5,89z M22.9,85.1c-0.3,0-0.6,0-0.9,0c-0.8,0-1.2,0.6-1.2,1.2
			c0,0.8,0.4,1.3,1.2,1.4c0.3,0,0.6,0,0.9,0c1,0.1,1.8-0.2,1.8-1.3C24.8,85.3,23.9,85,22.9,85.1z M29.5,93.3c-1,0-2,0-2.1,1.4
			c0,1.3,0.9,1.4,1.5,1.4c1.8,0,2.5-0.4,2.4-1.4C31.3,93.4,30.4,93.3,29.5,93.3z M36.4,81.9c-0.9-0.5-1.9-0.5-2.9,0
			c-0.5,0.2-0.7,0.8-0.6,1.3c0.3,1.1,1.1,1.2,2,1.1c0.8,0,1.6,0,1.9-0.9C37.1,82.8,37,82.2,36.4,81.9z M41.5,89.8
			c-1,0-1.8,0.2-1.8,1.4c0,1.4,1.1,1.3,1.8,1.3c1.3,0,2.2-0.1,2.2-1.4C43.5,89.8,42.5,89.8,41.5,89.8z M50.1,79.8
			c-0.9-0.6-2-0.6-3-0.1c-0.5,0.3-0.7,0.9-0.5,1.5c0.3,1,1.2,1,1.9,1c0.8,0,1.6,0,1.9-0.8C50.7,80.8,50.6,80.2,50.1,79.8z
			 M57.5,87.9c-0.9-0.2-1.8-0.3-2.7,0.1c-0.5,0.3-0.6,0.8-0.5,1.4c0,0.4,0.2,0.6,0.5,0.9c0.4,0.3,0.9,0.2,1.3,0.2
			c1.1,0,2,0.1,2.1-1.3C58.3,88.5,58,88,57.5,87.9z M113,91.1c-0.7,0-1.8,0-1.8,1.4c0,1.3,1,1.4,1.9,1.4c0.9,0,1.9,0,2-1.3
			C115.2,91.3,114.3,91.1,113,91.1z M119.1,84c-0.9-0.4-1.9-0.4-2.8-0.1c-0.5,0.2-0.8,0.7-0.7,1.3c0.2,1.1,1,1.3,2,1.2
			c0.9,0.1,1.8,0.1,2-1.1C119.8,84.8,119.6,84.2,119.1,84z M119.1,84c-0.9-0.4-1.9-0.4-2.8-0.1c-0.5,0.2-0.8,0.7-0.7,1.3
			c0.2,1.1,1,1.3,2,1.2c0.9,0.1,1.8,0.1,2-1.1C119.8,84.8,119.6,84.2,119.1,84z M113,91.1c-0.7,0-1.8,0-1.8,1.4c0,1.3,1,1.4,1.9,1.4
			c0.9,0,1.9,0,2-1.3C115.2,91.3,114.3,91.1,113,91.1z M57.5,87.9c-0.9-0.2-1.8-0.3-2.7,0.1c-0.5,0.3-0.6,0.8-0.5,1.4
			c0,0.4,0.2,0.6,0.5,0.9c0.4,0.3,0.9,0.2,1.3,0.2c1.1,0,2,0.1,2.1-1.3C58.3,88.5,58,88,57.5,87.9z M50.1,79.8c-0.9-0.6-2-0.6-3-0.1
			c-0.5,0.3-0.7,0.9-0.5,1.5c0.3,1,1.2,1,1.9,1c0.8,0,1.6,0,1.9-0.8C50.7,80.8,50.6,80.2,50.1,79.8z M41.5,89.8
			c-1,0-1.8,0.2-1.8,1.4c0,1.4,1.1,1.3,1.8,1.3c1.3,0,2.2-0.1,2.2-1.4C43.5,89.8,42.5,89.8,41.5,89.8z M36.4,81.9
			c-0.9-0.5-1.9-0.5-2.9,0c-0.5,0.2-0.7,0.8-0.6,1.3c0.3,1.1,1.1,1.2,2,1.1c0.8,0,1.6,0,1.9-0.9C37.1,82.8,37,82.2,36.4,81.9z
			 M29.5,93.3c-1,0-2,0-2.1,1.4c0,1.3,0.9,1.4,1.5,1.4c1.8,0,2.5-0.4,2.4-1.4C31.3,93.4,30.4,93.3,29.5,93.3z M22.9,85.1
			c-0.3,0-0.6,0-0.9,0c-0.8,0-1.2,0.6-1.2,1.2c0,0.8,0.4,1.3,1.2,1.4c0.3,0,0.6,0,0.9,0c1,0.1,1.8-0.2,1.8-1.3
			C24.8,85.3,23.9,85,22.9,85.1z M12.5,89c-1,0-1.9,0.2-1.8,1.4c0,1.3,1,1.3,2,1.3c1,0,2-0.1,1.9-1.3C14.6,89.1,13.6,89,12.5,89z
			 M7,80.9c-1.2-0.4-2.5,0-2.9,0.7c-0.5,1.1,0.3,1.9,1.9,1.9c0.9,0,1.8,0,2-1.2C8.1,81.6,7.8,81.1,7,80.9z M7,80.9
			c-1.2-0.4-2.5,0-2.9,0.7c-0.5,1.1,0.3,1.9,1.9,1.9c0.9,0,1.8,0,2-1.2C8.1,81.6,7.8,81.1,7,80.9z M12.5,89c-1,0-1.9,0.2-1.8,1.4
			c0,1.3,1,1.3,2,1.3c1,0,2-0.1,1.9-1.3C14.6,89.1,13.6,89,12.5,89z M22.9,85.1c-0.3,0-0.6,0-0.9,0c-0.8,0-1.2,0.6-1.2,1.2
			c0,0.8,0.4,1.3,1.2,1.4c0.3,0,0.6,0,0.9,0c1,0.1,1.8-0.2,1.8-1.3C24.8,85.3,23.9,85,22.9,85.1z M29.5,93.3c-1,0-2,0-2.1,1.4
			c0,1.3,0.9,1.4,1.5,1.4c1.8,0,2.5-0.4,2.4-1.4C31.3,93.4,30.4,93.3,29.5,93.3z M36.4,81.9c-0.9-0.5-1.9-0.5-2.9,0
			c-0.5,0.2-0.7,0.8-0.6,1.3c0.3,1.1,1.1,1.2,2,1.1c0.8,0,1.6,0,1.9-0.9C37.1,82.8,37,82.2,36.4,81.9z M41.5,89.8
			c-1,0-1.8,0.2-1.8,1.4c0,1.4,1.1,1.3,1.8,1.3c1.3,0,2.2-0.1,2.2-1.4C43.5,89.8,42.5,89.8,41.5,89.8z M50.1,79.8
			c-0.9-0.6-2-0.6-3-0.1c-0.5,0.3-0.7,0.9-0.5,1.5c0.3,1,1.2,1,1.9,1c0.8,0,1.6,0,1.9-0.8C50.7,80.8,50.6,80.2,50.1,79.8z
			 M57.5,87.9c-0.9-0.2-1.8-0.3-2.7,0.1c-0.5,0.3-0.6,0.8-0.5,1.4c0,0.4,0.2,0.6,0.5,0.9c0.4,0.3,0.9,0.2,1.3,0.2
			c1.1,0,2,0.1,2.1-1.3C58.3,88.5,58,88,57.5,87.9z M113,91.1c-0.7,0-1.8,0-1.8,1.4c0,1.3,1,1.4,1.9,1.4c0.9,0,1.9,0,2-1.3
			C115.2,91.3,114.3,91.1,113,91.1z M119.1,84c-0.9-0.4-1.9-0.4-2.8-0.1c-0.5,0.2-0.8,0.7-0.7,1.3c0.2,1.1,1,1.3,2,1.2
			c0.9,0.1,1.8,0.1,2-1.1C119.8,84.8,119.6,84.2,119.1,84z M119.1,84c-0.9-0.4-1.9-0.4-2.8-0.1c-0.5,0.2-0.8,0.7-0.7,1.3
			c0.2,1.1,1,1.3,2,1.2c0.9,0.1,1.8,0.1,2-1.1C119.8,84.8,119.6,84.2,119.1,84z M113,91.1c-0.7,0-1.8,0-1.8,1.4c0,1.3,1,1.4,1.9,1.4
			c0.9,0,1.9,0,2-1.3C115.2,91.3,114.3,91.1,113,91.1z M57.5,87.9c-0.9-0.2-1.8-0.3-2.7,0.1c-0.5,0.3-0.6,0.8-0.5,1.4
			c0,0.4,0.2,0.6,0.5,0.9c0.4,0.3,0.9,0.2,1.3,0.2c1.1,0,2,0.1,2.1-1.3C58.3,88.5,58,88,57.5,87.9z M50.1,79.8c-0.9-0.6-2-0.6-3-0.1
			c-0.5,0.3-0.7,0.9-0.5,1.5c0.3,1,1.2,1,1.9,1c0.8,0,1.6,0,1.9-0.8C50.7,80.8,50.6,80.2,50.1,79.8z M41.5,89.8
			c-1,0-1.8,0.2-1.8,1.4c0,1.4,1.1,1.3,1.8,1.3c1.3,0,2.2-0.1,2.2-1.4C43.5,89.8,42.5,89.8,41.5,89.8z M36.4,81.9
			c-0.9-0.5-1.9-0.5-2.9,0c-0.5,0.2-0.7,0.8-0.6,1.3c0.3,1.1,1.1,1.2,2,1.1c0.8,0,1.6,0,1.9-0.9C37.1,82.8,37,82.2,36.4,81.9z
			 M29.5,93.3c-1,0-2,0-2.1,1.4c0,1.3,0.9,1.4,1.5,1.4c1.8,0,2.5-0.4,2.4-1.4C31.3,93.4,30.4,93.3,29.5,93.3z M22.9,85.1
			c-0.3,0-0.6,0-0.9,0c-0.8,0-1.2,0.6-1.2,1.2c0,0.8,0.4,1.3,1.2,1.4c0.3,0,0.6,0,0.9,0c1,0.1,1.8-0.2,1.8-1.3
			C24.8,85.3,23.9,85,22.9,85.1z M12.5,89c-1,0-1.9,0.2-1.8,1.4c0,1.3,1,1.3,2,1.3c1,0,2-0.1,1.9-1.3C14.6,89.1,13.6,89,12.5,89z
			 M7,80.9c-1.2-0.4-2.5,0-2.9,0.7c-0.5,1.1,0.3,1.9,1.9,1.9c0.9,0,1.8,0,2-1.2C8.1,81.6,7.8,81.1,7,80.9z M112,33.3
			c4.6-5.5,9.3-10.9,13.9-16.5c3.6-4.4,2.6-10.8-2.1-13.9c-4.6-3-10.5-1.7-13.5,3.1c-5.1,8.3-10.2,16.5-15.2,24.8
			c-0.3,0.6-0.5,1.1-1.5,0.7c-6.9-2.8-14-3.2-21.2-1.3c-3.5,0.9-6.8,2.5-9.9,4.5c-0.8,0.5-1.1,1.1-0.6,2s1.2,0.9,2,0.3
			c0.2-0.1,0.4-0.3,0.7-0.4c9.2-5.6,18.8-6.4,28.8-2.3c2,0.8,2.1,0.8,3.3-1.1c5.3-8.6,10.6-17.2,15.9-25.8c1.8-2.9,4.8-4.1,7.8-3.2
			c5,1.4,6.6,7.2,3.2,11.3c-6.5,7.7-13,15.4-19.5,23.1c-1.5,1.7-1.4,1.8,0,3.5c6.9,8,9.3,17.2,7,27.5c-2.8,12.6-13.7,22.2-26.5,23.5
			c-8.7,0.9-16.5-1.4-23.2-7c-6.4-5.4-10-12.3-10.8-20.5c-0.6-6.4,0.6-12.4,3.8-18c0.5-0.9,0.6-1.7-0.4-2.2c-1-0.5-1.5,0.1-2,0.9
			c-1.3,2.2-2.3,4.6-2.9,7c-0.2,0.8-0.6,1-1.3,1c-1.8,0-3.5,0.3-5.3,0.8c-3.1,0.7-5.8,2.4-8.7,3.3c-1.6,0.5-3.2,1-5,0.9
			c2.5-4.4,3.2-9,4-13.7c0.1-0.7,0.3-1.4-0.4-1.9c-0.7-0.5-1.3-0.1-2,0.1c-1.9,0.8-3.3,2.2-4.6,3.7c-0.3,0.3-0.4,0.9-0.9,0.9
			c-0.2-1-0.3-2-0.5-3c-1-4.8-2.7-9.5-4-14.2c-0.2-0.9-0.5-1.6-1.6-1.5c-1.1,0.1-1.2,0.9-1.3,1.8c-0.7,5.1-0.6,10.3-0.5,15.5
			c0.1,0.4,0.2,0.7,0,1.1c-1.4-1.2-2.5-2.7-4.3-3.3c-0.8-0.3-1.7-0.6-2.5,0.1c-0.8,0.7-0.4,1.5-0.2,2.3c0.8,3.1,1.5,6.2,2.9,9.3
			c-2.5-1-4.9-1.8-7.3-2c-1.8-0.1-3.7-0.8-5.4,0.4v71c0.2,0.3,0.4,0.5,0.7,0.6c0,0,0,0,0.1,0c0.1,0,0.3,0,0.4,0
			c40.1,0,80.1,0,120.2,0c0.5,0,1,0.1,1.4-0.1c0.9-0.3,0.9-1,0.9-1.8c0-21.1,0-42.1,0-63.2c0-1.5-0.5-1.9-2-1.9
			c-2.3-0.1-4.6-0.3-6.8-1c-0.4-0.1-0.8-0.2-0.8-0.8c-0.9-6.3-3.5-11.9-7.6-16.8c-0.5-0.5-0.3-0.8,0.1-1.2
			C108.4,37.6,110.2,35.5,112,33.3z M14,49.1c1.3,1.4,2.3,2.9,3.3,4.5c0.4,0.7,0.9,1.4,1.8,1.1c1-0.3,1-1.1,0.9-2
			c-0.6-4.7-0.8-9.4-0.5-14.1c1.4,4.5,2.9,9,2.6,13.8c0,0.8,0.1,1.4,0.9,1.7c0.8,0.3,1.3-0.1,1.8-0.7c1.1-1.5,2.1-2.9,3.3-4.4
			c0.4-0.5,0.8-1.1,1.7-1.5c-0.8,3.8-1.5,7.3-3.4,10.5c-0.8,1.3-1.7,1.8-3.2,1.5c-1.3-0.3-2.7-0.4-4-0.6c-1.6-0.3-2.6-1.1-3.4-2.5
			c-1.1-1.9-1.8-4-2.4-6.2c-0.1-0.5-0.3-1-0.4-1.5C13.4,48.3,13.7,48.8,14,49.1z M3.5,56.9c2.8,0.2,5.5,0.7,8,1.9
			c4.9,2.4,10.1,3.6,15.6,3.3c3.9-0.2,7.6-1.2,11.1-2.8c2.8-1.3,5.7-2.2,8.8-2.4c0.5,0,1-0.2,0.9,0.7c-0.8,4.6-0.4,9.2,0.8,13.7
			c0.1,0.2,0,0.4,0.1,0.7c-4.9-0.2-9.2,1.7-13.6,3.5c-6.5,2.6-13.1,2.6-19.5,0c-4-1.6-8-3.3-12.4-3.4c-0.5,0-0.7-0.2-0.7-0.7
			c0-4.6,0-9.2,0-13.8C2.6,56.8,3.1,56.9,3.5,56.9z M2.6,116.7c0-0.7,0.1-0.9,0.8-0.9c4.2,0,8.2-1,12-3c0.8-0.4,1.3-0.3,1.9,0.2
			c2.9,2.7,5.2,5.8,6.6,9.5c0.4,1.1,0.2,1.3-1,1.3c-3.2-0.1-6.4,0-9.6,0c-3.3,0-6.5,0-9.8,0c-0.7,0-1-0.2-0.9-0.9
			C2.7,120.9,2.7,118.8,2.6,116.7z M121,123.1c0,0.7-0.3,0.8-0.9,0.7c-1.4,0-2.8,0-4.2,0c-1.1,0-2.2-0.1-3.3,0
			c-1.4,0.2-2.2-0.5-2.9-1.6c-1.8-2.9-3-6-3-9.5c0-0.2,0-0.4,0-0.7c0.3-2.1,0.6-2.2,2.3-1.1c3.5,2.2,7.1,3.9,11.2,4.6
			c0.5,0.1,0.7,0.3,0.7,0.8C121,118.7,120.9,120.9,121,123.1z M107.6,123.9c-5.3,0-10.4,0-15.5,0c-0.9,0-0.6-0.4-0.4-0.9
			c1.6-3.5,4.5-4.9,8-5.3c1.4-0.1,2.8,0,4.2,0c0.7,0,1.1,0.3,1.3,1C105.6,120.5,106.6,122.1,107.6,123.9z M104.2,114.6
			c0.1,0.8-0.5,0.5-0.9,0.5c-2.3-0.2-4.6-0.1-6.8,0.5c-1.7,0.5-3.2,1.2-4.5,2.5c-0.6,0.6-0.9,0.4-1.3-0.1c-1.4-1.7-2.6-3.5-4.3-4.9
			c-0.7-0.6-1.5-1.2-2.3-1.8c2.2-1.2,4.6-2.2,6.9-3.1c0.3-0.1,0.6-0.2,0.9-0.1c2,0.8,4,1.3,6.1,1.6c2.1,0.3,4.2,0.3,6.4,0.2
			C104.2,111.5,104,113,104.2,114.6z M89.5,120.6c0.4,0.4-0.1,0.7-0.1,1.1c-0.4,2-1.6,2.4-3.4,2.2c-1.9-0.2-3.8,0-5.7,0
			c-2.4,0-4.8-0.1-7.2,0c-1.2,0.1-1.2-0.4-0.8-1.3c1.4-3.3,3.7-5.7,6.5-7.8c0.2-0.1,0.3-0.3,0.5-0.4c2.1-1.5,2.5-1.6,4.6,0
			C86.1,116.1,87.5,118.6,89.5,120.6z M71.7,117.9c-1.1,1.6-2.1,3.3-2.5,5.3c-0.1,0.5-0.4,0.7-0.9,0.7c-5.4,0-10.9,0-16.7,0
			c3.1-3.3,6.5-5.5,10.3-6.9c2.4-0.9,4.9-1.3,7.5-1.4c1.3,0,1.7,1,2.5,1.6C72.3,117.5,71.8,117.7,71.7,117.9z M48.7,123.3
			c-0.4,0.5-0.8,0.6-1.3,0.6c-6.4,0-12.9,0-19.3,0c-0.5,0-1,0.1-1.1-0.6c-0.3-1.5-1-2.9-1.7-4.5c5.2-0.6,9.4-2.9,12.8-6.7
			c0.3-0.3,0.6-0.4,1-0.4c5.6,0.6,11.1,1.5,16.3,4.1c0.3,0.1,0.5,0.3,0.8,0.4c0.1,0.1,0.2,0.1,0.4,0.3
			C53.4,118.4,50.8,120.5,48.7,123.3z M121,112.4c0,0.4,0,0.8-0.6,0.6c-8.7-2.3-15.5-7.1-20.4-15.1c3.2,0.2,5.9,0.8,8.5,2
			c3.8,1.7,7.6,3.1,11.8,3.2c0.6,0,0.7,0.3,0.7,0.8C121,106.7,121,109.5,121,112.4z M103.1,106.3c0.3,0.3,0.6,0.5,0.9,0.9
			c-7,0.4-13.2-1.5-18.6-6.2c3.6-1.8,7-2.9,10.8-3.1c0.8,0,1.2,0.2,1.6,0.9C98.9,101.7,100.8,104.1,103.1,106.3z M88.2,106.4
			c-1.4,0.6-2.7,1.2-3.9,1.8c-3.5,1.7-6.8,3.8-9.7,6.5c-0.4,0.4-0.6,0.6-1.2,0.1c-3.2-3.3-5.6-6.9-6.2-11.6
			c-0.1-0.9,0.3-0.7,0.7-0.6c3.5,0.7,7,0.7,10.5,0.3c1.1-0.1,2.2-0.4,3.3-0.7c0.4-0.1,0.8-0.2,1.2,0.2
			C84.4,104,86.2,105.2,88.2,106.4z M68.2,112.8c-1.6,0.3-3.1,0.4-4.5,0.8c-1.5,0.4-2.9,1.4-4.3,1.3c-1.3-0.1-2.5-1.5-3.8-2.1
			c-4.3-1.9-8.9-2.9-13.5-3.5c-0.5-0.1-0.9-0.2-1.6-0.3c2.3-3.4,4-6.9,5.7-10.4c0.3-0.7,0.7-0.8,1.4-0.9c5.8-0.5,11.1,1.1,16.2,3.5
			c0.5,0.2,0.7,0.5,0.7,1C64.8,106.1,66,109.6,68.2,112.8z M32.9,113.2c-2.4,1.7-5.1,2.6-8,3c-0.8,0.1-1.4,0-2-0.8
			c-1.1-1.7-2.6-3.1-4.2-4.5c2.9-2.1,5.2-4.4,7.1-7.1c0.3-0.4,0.5-0.6,1-0.6c4.2,0,8.1-1.2,11.9-3c1.4-0.6,2.7-1.2,4.5-1.6
			C40.5,104.2,37.9,109.6,32.9,113.2z M3.9,113.1c-1,0-1.3-0.2-1.3-1.3c0.1-4.3,0.1-8.5,0-12.8c0-1.1,0.4-1.3,1.3-1.2
			c2.4,0.3,4.8,0.7,7,1.7c3.8,1.7,7.6,3.3,12.2,3.5C17.9,109.2,11.8,112.9,3.9,113.1z M112.3,74.4c1.5-3.9,2.2-8,2.1-12.2
			c0-0.9,0.3-0.9,1-0.7c1.6,0.4,3.1,0.7,4.8,0.7c0.6,0,0.8,0.2,0.8,0.8c0,2.3,0,4.5,0,6.8c0,2.2,0,4.3,0,6.5c0,0.9-0.2,1.2-1.1,1
			c-2.5-0.3-4.9-0.8-7.2-1.8C112.1,75.2,112.1,74.9,112.3,74.4z M119.9,79.9c0.8,0,1,0.2,1,1c0,6.2,0,12.4,0,18.7
			c0,0.8-0.3,0.9-1,0.8c-3.2-0.2-6.2-1.1-9.1-2.4c-8.5-3.8-17-3.8-25.5,0c-7.6,3.4-15.3,3.4-22.9,0c-7.5-3.4-15.1-3.8-22.9-1
			c-2.6,0.9-5.1,2.4-7.9,2.9c-5.6,1.1-11,0.9-16.3-1.3c-3.1-1.3-6.3-2.7-9.7-3.1c-0.3,0-0.5-0.1-0.8-0.1c-2.2-0.2-2.2-0.2-2.2-2.3
			v-8.1c0-3.1,0-6.2,0-9.3c0-0.7,0.1-0.9,0.9-0.9c3.9,0.2,7.4,1.7,10.9,3.1c7.4,3,14.8,3,22.2,0c3.9-1.6,7.8-3.1,12.1-3.2
			c0.9,0,1.2,0.2,1.6,1c5.1,11.4,13.9,18.1,26.2,20c13.5,2.1,27.1-4.8,33.8-16.9c0.5-0.9,0.9-1.1,1.9-0.7
			C114.6,79.2,117.2,79.8,119.9,79.9z M117.7,86.4c0.9,0.1,1.8,0.1,2-1.1c0.1-0.6,0-1.1-0.5-1.3c-0.9-0.4-1.9-0.4-2.8-0.1
			c-0.5,0.2-0.8,0.7-0.7,1.3C115.9,86.3,116.7,86.5,117.7,86.4z M113.2,93.9c0.9,0,1.9,0,2-1.3c0-1.3-0.9-1.4-2.1-1.4
			c-0.7,0-1.8,0-1.8,1.4C111.2,93.8,112.2,93.9,113.2,93.9z M57.5,87.9c-0.9-0.2-1.8-0.3-2.7,0.1c-0.5,0.3-0.6,0.8-0.5,1.4
			c0,0.4,0.2,0.6,0.5,0.9c0.4,0.3,0.9,0.2,1.3,0.2c1.1,0,2,0.1,2.1-1.3C58.3,88.5,58,88,57.5,87.9z M50.1,79.8c-0.9-0.6-2-0.6-3-0.1
			c-0.5,0.3-0.7,0.9-0.5,1.5c0.3,1,1.2,1,1.9,1c0.8,0,1.6,0,1.9-0.8C50.7,80.8,50.6,80.2,50.1,79.8z M41.5,89.8
			c-1,0-1.8,0.2-1.8,1.4c0,1.4,1.1,1.3,1.8,1.3c1.3,0,2.2-0.1,2.2-1.4C43.5,89.8,42.5,89.8,41.5,89.8z M36.4,81.9
			c-0.9-0.5-1.9-0.5-2.9,0c-0.5,0.2-0.7,0.8-0.6,1.3c0.3,1.1,1.1,1.2,2,1.1c0.8,0,1.6,0,1.9-0.9C37.1,82.8,37,82.2,36.4,81.9z
			 M29.5,93.3c-1,0-2,0-2.1,1.4c0,1.3,0.9,1.4,1.5,1.4c1.8,0,2.5-0.4,2.4-1.4C31.3,93.4,30.4,93.3,29.5,93.3z M22.9,85.1
			c-0.3,0-0.6,0-0.9,0c-0.8,0-1.2,0.6-1.2,1.2c0,0.8,0.4,1.3,1.2,1.4c0.3,0,0.6,0,0.9,0c1,0.1,1.8-0.2,1.8-1.3
			C24.8,85.3,23.9,85,22.9,85.1z M12.5,89c-1,0-1.9,0.2-1.8,1.4c0,1.3,1,1.3,2,1.3c1,0,2-0.1,1.9-1.3C14.6,89.1,13.6,89,12.5,89z
			 M7,80.9c-1.2-0.4-2.5,0-2.9,0.7c-0.5,1.1,0.3,1.9,1.9,1.9c0.9,0,1.8,0,2-1.2C8.1,81.6,7.8,81.1,7,80.9z M7,80.9
			c-1.2-0.4-2.5,0-2.9,0.7c-0.5,1.1,0.3,1.9,1.9,1.9c0.9,0,1.8,0,2-1.2C8.1,81.6,7.8,81.1,7,80.9z M12.5,89c-1,0-1.9,0.2-1.8,1.4
			c0,1.3,1,1.3,2,1.3c1,0,2-0.1,1.9-1.3C14.6,89.1,13.6,89,12.5,89z M22.9,85.1c-0.3,0-0.6,0-0.9,0c-0.8,0-1.2,0.6-1.2,1.2
			c0,0.8,0.4,1.3,1.2,1.4c0.3,0,0.6,0,0.9,0c1,0.1,1.8-0.2,1.8-1.3C24.8,85.3,23.9,85,22.9,85.1z M29.5,93.3c-1,0-2,0-2.1,1.4
			c0,1.3,0.9,1.4,1.5,1.4c1.8,0,2.5-0.4,2.4-1.4C31.3,93.4,30.4,93.3,29.5,93.3z M36.4,81.9c-0.9-0.5-1.9-0.5-2.9,0
			c-0.5,0.2-0.7,0.8-0.6,1.3c0.3,1.1,1.1,1.2,2,1.1c0.8,0,1.6,0,1.9-0.9C37.1,82.8,37,82.2,36.4,81.9z M41.5,89.8
			c-1,0-1.8,0.2-1.8,1.4c0,1.4,1.1,1.3,1.8,1.3c1.3,0,2.2-0.1,2.2-1.4C43.5,89.8,42.5,89.8,41.5,89.8z M50.1,79.8
			c-0.9-0.6-2-0.6-3-0.1c-0.5,0.3-0.7,0.9-0.5,1.5c0.3,1,1.2,1,1.9,1c0.8,0,1.6,0,1.9-0.8C50.7,80.8,50.6,80.2,50.1,79.8z
			 M57.5,87.9c-0.9-0.2-1.8-0.3-2.7,0.1c-0.5,0.3-0.6,0.8-0.5,1.4c0,0.4,0.2,0.6,0.5,0.9c0.4,0.3,0.9,0.2,1.3,0.2
			c1.1,0,2,0.1,2.1-1.3C58.3,88.5,58,88,57.5,87.9z M113,91.1c-0.7,0-1.8,0-1.8,1.4c0,1.3,1,1.4,1.9,1.4c0.9,0,1.9,0,2-1.3
			C115.2,91.3,114.3,91.1,113,91.1z M119.1,84c-0.9-0.4-1.9-0.4-2.8-0.1c-0.5,0.2-0.8,0.7-0.7,1.3c0.2,1.1,1,1.3,2,1.2
			c0.9,0.1,1.8,0.1,2-1.1C119.8,84.8,119.6,84.2,119.1,84z M119.1,84c-0.9-0.4-1.9-0.4-2.8-0.1c-0.5,0.2-0.8,0.7-0.7,1.3
			c0.2,1.1,1,1.3,2,1.2c0.9,0.1,1.8,0.1,2-1.1C119.8,84.8,119.6,84.2,119.1,84z M113,91.1c-0.7,0-1.8,0-1.8,1.4c0,1.3,1,1.4,1.9,1.4
			c0.9,0,1.9,0,2-1.3C115.2,91.3,114.3,91.1,113,91.1z M57.5,87.9c-0.9-0.2-1.8-0.3-2.7,0.1c-0.5,0.3-0.6,0.8-0.5,1.4
			c0,0.4,0.2,0.6,0.5,0.9c0.4,0.3,0.9,0.2,1.3,0.2c1.1,0,2,0.1,2.1-1.3C58.3,88.5,58,88,57.5,87.9z M50.1,79.8c-0.9-0.6-2-0.6-3-0.1
			c-0.5,0.3-0.7,0.9-0.5,1.5c0.3,1,1.2,1,1.9,1c0.8,0,1.6,0,1.9-0.8C50.7,80.8,50.6,80.2,50.1,79.8z M41.5,89.8
			c-1,0-1.8,0.2-1.8,1.4c0,1.4,1.1,1.3,1.8,1.3c1.3,0,2.2-0.1,2.2-1.4C43.5,89.8,42.5,89.8,41.5,89.8z M36.4,81.9
			c-0.9-0.5-1.9-0.5-2.9,0c-0.5,0.2-0.7,0.8-0.6,1.3c0.3,1.1,1.1,1.2,2,1.1c0.8,0,1.6,0,1.9-0.9C37.1,82.8,37,82.2,36.4,81.9z
			 M29.5,93.3c-1,0-2,0-2.1,1.4c0,1.3,0.9,1.4,1.5,1.4c1.8,0,2.5-0.4,2.4-1.4C31.3,93.4,30.4,93.3,29.5,93.3z M22.9,85.1
			c-0.3,0-0.6,0-0.9,0c-0.8,0-1.2,0.6-1.2,1.2c0,0.8,0.4,1.3,1.2,1.4c0.3,0,0.6,0,0.9,0c1,0.1,1.8-0.2,1.8-1.3
			C24.8,85.3,23.9,85,22.9,85.1z M12.5,89c-1,0-1.9,0.2-1.8,1.4c0,1.3,1,1.3,2,1.3c1,0,2-0.1,1.9-1.3C14.6,89.1,13.6,89,12.5,89z
			 M7,80.9c-1.2-0.4-2.5,0-2.9,0.7c-0.5,1.1,0.3,1.9,1.9,1.9c0.9,0,1.8,0,2-1.2C8.1,81.6,7.8,81.1,7,80.9z M7,80.9
			c-1.2-0.4-2.5,0-2.9,0.7c-0.5,1.1,0.3,1.9,1.9,1.9c0.9,0,1.8,0,2-1.2C8.1,81.6,7.8,81.1,7,80.9z M12.5,89c-1,0-1.9,0.2-1.8,1.4
			c0,1.3,1,1.3,2,1.3c1,0,2-0.1,1.9-1.3C14.6,89.1,13.6,89,12.5,89z M22.9,85.1c-0.3,0-0.6,0-0.9,0c-0.8,0-1.2,0.6-1.2,1.2
			c0,0.8,0.4,1.3,1.2,1.4c0.3,0,0.6,0,0.9,0c1,0.1,1.8-0.2,1.8-1.3C24.8,85.3,23.9,85,22.9,85.1z M29.5,93.3c-1,0-2,0-2.1,1.4
			c0,1.3,0.9,1.4,1.5,1.4c1.8,0,2.5-0.4,2.4-1.4C31.3,93.4,30.4,93.3,29.5,93.3z M36.4,81.9c-0.9-0.5-1.9-0.5-2.9,0
			c-0.5,0.2-0.7,0.8-0.6,1.3c0.3,1.1,1.1,1.2,2,1.1c0.8,0,1.6,0,1.9-0.9C37.1,82.8,37,82.2,36.4,81.9z M41.5,89.8
			c-1,0-1.8,0.2-1.8,1.4c0,1.4,1.1,1.3,1.8,1.3c1.3,0,2.2-0.1,2.2-1.4C43.5,89.8,42.5,89.8,41.5,89.8z M50.1,79.8
			c-0.9-0.6-2-0.6-3-0.1c-0.5,0.3-0.7,0.9-0.5,1.5c0.3,1,1.2,1,1.9,1c0.8,0,1.6,0,1.9-0.8C50.7,80.8,50.6,80.2,50.1,79.8z
			 M57.5,87.9c-0.9-0.2-1.8-0.3-2.7,0.1c-0.5,0.3-0.6,0.8-0.5,1.4c0,0.4,0.2,0.6,0.5,0.9c0.4,0.3,0.9,0.2,1.3,0.2
			c1.1,0,2,0.1,2.1-1.3C58.3,88.5,58,88,57.5,87.9z M113,91.1c-0.7,0-1.8,0-1.8,1.4c0,1.3,1,1.4,1.9,1.4c0.9,0,1.9,0,2-1.3
			C115.2,91.3,114.3,91.1,113,91.1z M119.1,84c-0.9-0.4-1.9-0.4-2.8-0.1c-0.5,0.2-0.8,0.7-0.7,1.3c0.2,1.1,1,1.3,2,1.2
			c0.9,0.1,1.8,0.1,2-1.1C119.8,84.8,119.6,84.2,119.1,84z M119.1,84c-0.9-0.4-1.9-0.4-2.8-0.1c-0.5,0.2-0.8,0.7-0.7,1.3
			c0.2,1.1,1,1.3,2,1.2c0.9,0.1,1.8,0.1,2-1.1C119.8,84.8,119.6,84.2,119.1,84z M113,91.1c-0.7,0-1.8,0-1.8,1.4c0,1.3,1,1.4,1.9,1.4
			c0.9,0,1.9,0,2-1.3C115.2,91.3,114.3,91.1,113,91.1z M57.5,87.9c-0.9-0.2-1.8-0.3-2.7,0.1c-0.5,0.3-0.6,0.8-0.5,1.4
			c0,0.4,0.2,0.6,0.5,0.9c0.4,0.3,0.9,0.2,1.3,0.2c1.1,0,2,0.1,2.1-1.3C58.3,88.5,58,88,57.5,87.9z M50.1,79.8c-0.9-0.6-2-0.6-3-0.1
			c-0.5,0.3-0.7,0.9-0.5,1.5c0.3,1,1.2,1,1.9,1c0.8,0,1.6,0,1.9-0.8C50.7,80.8,50.6,80.2,50.1,79.8z M41.5,89.8
			c-1,0-1.8,0.2-1.8,1.4c0,1.4,1.1,1.3,1.8,1.3c1.3,0,2.2-0.1,2.2-1.4C43.5,89.8,42.5,89.8,41.5,89.8z M36.4,81.9
			c-0.9-0.5-1.9-0.5-2.9,0c-0.5,0.2-0.7,0.8-0.6,1.3c0.3,1.1,1.1,1.2,2,1.1c0.8,0,1.6,0,1.9-0.9C37.1,82.8,37,82.2,36.4,81.9z
			 M29.5,93.3c-1,0-2,0-2.1,1.4c0,1.3,0.9,1.4,1.5,1.4c1.8,0,2.5-0.4,2.4-1.4C31.3,93.4,30.4,93.3,29.5,93.3z M22.9,85.1
			c-0.3,0-0.6,0-0.9,0c-0.8,0-1.2,0.6-1.2,1.2c0,0.8,0.4,1.3,1.2,1.4c0.3,0,0.6,0,0.9,0c1,0.1,1.8-0.2,1.8-1.3
			C24.8,85.3,23.9,85,22.9,85.1z M12.5,89c-1,0-1.9,0.2-1.8,1.4c0,1.3,1,1.3,2,1.3c1,0,2-0.1,1.9-1.3C14.6,89.1,13.6,89,12.5,89z
			 M7,80.9c-1.2-0.4-2.5,0-2.9,0.7c-0.5,1.1,0.3,1.9,1.9,1.9c0.9,0,1.8,0,2-1.2C8.1,81.6,7.8,81.1,7,80.9z M7,80.9
			c-1.2-0.4-2.5,0-2.9,0.7c-0.5,1.1,0.3,1.9,1.9,1.9c0.9,0,1.8,0,2-1.2C8.1,81.6,7.8,81.1,7,80.9z M12.5,89c-1,0-1.9,0.2-1.8,1.4
			c0,1.3,1,1.3,2,1.3c1,0,2-0.1,1.9-1.3C14.6,89.1,13.6,89,12.5,89z M22.9,85.1c-0.3,0-0.6,0-0.9,0c-0.8,0-1.2,0.6-1.2,1.2
			c0,0.8,0.4,1.3,1.2,1.4c0.3,0,0.6,0,0.9,0c1,0.1,1.8-0.2,1.8-1.3C24.8,85.3,23.9,85,22.9,85.1z M29.5,93.3c-1,0-2,0-2.1,1.4
			c0,1.3,0.9,1.4,1.5,1.4c1.8,0,2.5-0.4,2.4-1.4C31.3,93.4,30.4,93.3,29.5,93.3z M36.4,81.9c-0.9-0.5-1.9-0.5-2.9,0
			c-0.5,0.2-0.7,0.8-0.6,1.3c0.3,1.1,1.1,1.2,2,1.1c0.8,0,1.6,0,1.9-0.9C37.1,82.8,37,82.2,36.4,81.9z M41.5,89.8
			c-1,0-1.8,0.2-1.8,1.4c0,1.4,1.1,1.3,1.8,1.3c1.3,0,2.2-0.1,2.2-1.4C43.5,89.8,42.5,89.8,41.5,89.8z M50.1,79.8
			c-0.9-0.6-2-0.6-3-0.1c-0.5,0.3-0.7,0.9-0.5,1.5c0.3,1,1.2,1,1.9,1c0.8,0,1.6,0,1.9-0.8C50.7,80.8,50.6,80.2,50.1,79.8z
			 M57.5,87.9c-0.9-0.2-1.8-0.3-2.7,0.1c-0.5,0.3-0.6,0.8-0.5,1.4c0,0.4,0.2,0.6,0.5,0.9c0.4,0.3,0.9,0.2,1.3,0.2
			c1.1,0,2,0.1,2.1-1.3C58.3,88.5,58,88,57.5,87.9z M113,91.1c-0.7,0-1.8,0-1.8,1.4c0,1.3,1,1.4,1.9,1.4c0.9,0,1.9,0,2-1.3
			C115.2,91.3,114.3,91.1,113,91.1z M119.1,84c-0.9-0.4-1.9-0.4-2.8-0.1c-0.5,0.2-0.8,0.7-0.7,1.3c0.2,1.1,1,1.3,2,1.2
			c0.9,0.1,1.8,0.1,2-1.1C119.8,84.8,119.6,84.2,119.1,84z M119.1,84c-0.9-0.4-1.9-0.4-2.8-0.1c-0.5,0.2-0.8,0.7-0.7,1.3
			c0.2,1.1,1,1.3,2,1.2c0.9,0.1,1.8,0.1,2-1.1C119.8,84.8,119.6,84.2,119.1,84z M113,91.1c-0.7,0-1.8,0-1.8,1.4c0,1.3,1,1.4,1.9,1.4
			c0.9,0,1.9,0,2-1.3C115.2,91.3,114.3,91.1,113,91.1z M57.5,87.9c-0.9-0.2-1.8-0.3-2.7,0.1c-0.5,0.3-0.6,0.8-0.5,1.4
			c0,0.4,0.2,0.6,0.5,0.9c0.4,0.3,0.9,0.2,1.3,0.2c1.1,0,2,0.1,2.1-1.3C58.3,88.5,58,88,57.5,87.9z M50.1,79.8c-0.9-0.6-2-0.6-3-0.1
			c-0.5,0.3-0.7,0.9-0.5,1.5c0.3,1,1.2,1,1.9,1c0.8,0,1.6,0,1.9-0.8C50.7,80.8,50.6,80.2,50.1,79.8z M41.5,89.8
			c-1,0-1.8,0.2-1.8,1.4c0,1.4,1.1,1.3,1.8,1.3c1.3,0,2.2-0.1,2.2-1.4C43.5,89.8,42.5,89.8,41.5,89.8z M36.4,81.9
			c-0.9-0.5-1.9-0.5-2.9,0c-0.5,0.2-0.7,0.8-0.6,1.3c0.3,1.1,1.1,1.2,2,1.1c0.8,0,1.6,0,1.9-0.9C37.1,82.8,37,82.2,36.4,81.9z
			 M29.5,93.3c-1,0-2,0-2.1,1.4c0,1.3,0.9,1.4,1.5,1.4c1.8,0,2.5-0.4,2.4-1.4C31.3,93.4,30.4,93.3,29.5,93.3z M22.9,85.1
			c-0.3,0-0.6,0-0.9,0c-0.8,0-1.2,0.6-1.2,1.2c0,0.8,0.4,1.3,1.2,1.4c0.3,0,0.6,0,0.9,0c1,0.1,1.8-0.2,1.8-1.3
			C24.8,85.3,23.9,85,22.9,85.1z M12.5,89c-1,0-1.9,0.2-1.8,1.4c0,1.3,1,1.3,2,1.3c1,0,2-0.1,1.9-1.3C14.6,89.1,13.6,89,12.5,89z
			 M7,80.9c-1.2-0.4-2.5,0-2.9,0.7c-0.5,1.1,0.3,1.9,1.9,1.9c0.9,0,1.8,0,2-1.2C8.1,81.6,7.8,81.1,7,80.9z M7,80.9
			c-1.2-0.4-2.5,0-2.9,0.7c-0.5,1.1,0.3,1.9,1.9,1.9c0.9,0,1.8,0,2-1.2C8.1,81.6,7.8,81.1,7,80.9z M12.5,89c-1,0-1.9,0.2-1.8,1.4
			c0,1.3,1,1.3,2,1.3c1,0,2-0.1,1.9-1.3C14.6,89.1,13.6,89,12.5,89z M22.9,85.1c-0.3,0-0.6,0-0.9,0c-0.8,0-1.2,0.6-1.2,1.2
			c0,0.8,0.4,1.3,1.2,1.4c0.3,0,0.6,0,0.9,0c1,0.1,1.8-0.2,1.8-1.3C24.8,85.3,23.9,85,22.9,85.1z M29.5,93.3c-1,0-2,0-2.1,1.4
			c0,1.3,0.9,1.4,1.5,1.4c1.8,0,2.5-0.4,2.4-1.4C31.3,93.4,30.4,93.3,29.5,93.3z M36.4,81.9c-0.9-0.5-1.9-0.5-2.9,0
			c-0.5,0.2-0.7,0.8-0.6,1.3c0.3,1.1,1.1,1.2,2,1.1c0.8,0,1.6,0,1.9-0.9C37.1,82.8,37,82.2,36.4,81.9z M41.5,89.8
			c-1,0-1.8,0.2-1.8,1.4c0,1.4,1.1,1.3,1.8,1.3c1.3,0,2.2-0.1,2.2-1.4C43.5,89.8,42.5,89.8,41.5,89.8z M50.1,79.8
			c-0.9-0.6-2-0.6-3-0.1c-0.5,0.3-0.7,0.9-0.5,1.5c0.3,1,1.2,1,1.9,1c0.8,0,1.6,0,1.9-0.8C50.7,80.8,50.6,80.2,50.1,79.8z
			 M57.5,87.9c-0.9-0.2-1.8-0.3-2.7,0.1c-0.5,0.3-0.6,0.8-0.5,1.4c0,0.4,0.2,0.6,0.5,0.9c0.4,0.3,0.9,0.2,1.3,0.2
			c1.1,0,2,0.1,2.1-1.3C58.3,88.5,58,88,57.5,87.9z M113,91.1c-0.7,0-1.8,0-1.8,1.4c0,1.3,1,1.4,1.9,1.4c0.9,0,1.9,0,2-1.3
			C115.2,91.3,114.3,91.1,113,91.1z M119.1,84c-0.9-0.4-1.9-0.4-2.8-0.1c-0.5,0.2-0.8,0.7-0.7,1.3c0.2,1.1,1,1.3,2,1.2
			c0.9,0.1,1.8,0.1,2-1.1C119.8,84.8,119.6,84.2,119.1,84z M119.1,84c-0.9-0.4-1.9-0.4-2.8-0.1c-0.5,0.2-0.8,0.7-0.7,1.3
			c0.2,1.1,1,1.3,2,1.2c0.9,0.1,1.8,0.1,2-1.1C119.8,84.8,119.6,84.2,119.1,84z M113,91.1c-0.7,0-1.8,0-1.8,1.4c0,1.3,1,1.4,1.9,1.4
			c0.9,0,1.9,0,2-1.3C115.2,91.3,114.3,91.1,113,91.1z M57.5,87.9c-0.9-0.2-1.8-0.3-2.7,0.1c-0.5,0.3-0.6,0.8-0.5,1.4
			c0,0.4,0.2,0.6,0.5,0.9c0.4,0.3,0.9,0.2,1.3,0.2c1.1,0,2,0.1,2.1-1.3C58.3,88.5,58,88,57.5,87.9z M50.1,79.8c-0.9-0.6-2-0.6-3-0.1
			c-0.5,0.3-0.7,0.9-0.5,1.5c0.3,1,1.2,1,1.9,1c0.8,0,1.6,0,1.9-0.8C50.7,80.8,50.6,80.2,50.1,79.8z M41.5,89.8
			c-1,0-1.8,0.2-1.8,1.4c0,1.4,1.1,1.3,1.8,1.3c1.3,0,2.2-0.1,2.2-1.4C43.5,89.8,42.5,89.8,41.5,89.8z M36.4,81.9
			c-0.9-0.5-1.9-0.5-2.9,0c-0.5,0.2-0.7,0.8-0.6,1.3c0.3,1.1,1.1,1.2,2,1.1c0.8,0,1.6,0,1.9-0.9C37.1,82.8,37,82.2,36.4,81.9z
			 M29.5,93.3c-1,0-2,0-2.1,1.4c0,1.3,0.9,1.4,1.5,1.4c1.8,0,2.5-0.4,2.4-1.4C31.3,93.4,30.4,93.3,29.5,93.3z M22.9,85.1
			c-0.3,0-0.6,0-0.9,0c-0.8,0-1.2,0.6-1.2,1.2c0,0.8,0.4,1.3,1.2,1.4c0.3,0,0.6,0,0.9,0c1,0.1,1.8-0.2,1.8-1.3
			C24.8,85.3,23.9,85,22.9,85.1z M12.5,89c-1,0-1.9,0.2-1.8,1.4c0,1.3,1,1.3,2,1.3c1,0,2-0.1,1.9-1.3C14.6,89.1,13.6,89,12.5,89z
			 M7,80.9c-1.2-0.4-2.5,0-2.9,0.7c-0.5,1.1,0.3,1.9,1.9,1.9c0.9,0,1.8,0,2-1.2C8.1,81.6,7.8,81.1,7,80.9z M7,80.9
			c-1.2-0.4-2.5,0-2.9,0.7c-0.5,1.1,0.3,1.9,1.9,1.9c0.9,0,1.8,0,2-1.2C8.1,81.6,7.8,81.1,7,80.9z M12.5,89c-1,0-1.9,0.2-1.8,1.4
			c0,1.3,1,1.3,2,1.3c1,0,2-0.1,1.9-1.3C14.6,89.1,13.6,89,12.5,89z M22.9,85.1c-0.3,0-0.6,0-0.9,0c-0.8,0-1.2,0.6-1.2,1.2
			c0,0.8,0.4,1.3,1.2,1.4c0.3,0,0.6,0,0.9,0c1,0.1,1.8-0.2,1.8-1.3C24.8,85.3,23.9,85,22.9,85.1z M29.5,93.3c-1,0-2,0-2.1,1.4
			c0,1.3,0.9,1.4,1.5,1.4c1.8,0,2.5-0.4,2.4-1.4C31.3,93.4,30.4,93.3,29.5,93.3z M36.4,81.9c-0.9-0.5-1.9-0.5-2.9,0
			c-0.5,0.2-0.7,0.8-0.6,1.3c0.3,1.1,1.1,1.2,2,1.1c0.8,0,1.6,0,1.9-0.9C37.1,82.8,37,82.2,36.4,81.9z M41.5,89.8
			c-1,0-1.8,0.2-1.8,1.4c0,1.4,1.1,1.3,1.8,1.3c1.3,0,2.2-0.1,2.2-1.4C43.5,89.8,42.5,89.8,41.5,89.8z M50.1,79.8
			c-0.9-0.6-2-0.6-3-0.1c-0.5,0.3-0.7,0.9-0.5,1.5c0.3,1,1.2,1,1.9,1c0.8,0,1.6,0,1.9-0.8C50.7,80.8,50.6,80.2,50.1,79.8z
			 M57.5,87.9c-0.9-0.2-1.8-0.3-2.7,0.1c-0.5,0.3-0.6,0.8-0.5,1.4c0,0.4,0.2,0.6,0.5,0.9c0.4,0.3,0.9,0.2,1.3,0.2
			c1.1,0,2,0.1,2.1-1.3C58.3,88.5,58,88,57.5,87.9z M113,91.1c-0.7,0-1.8,0-1.8,1.4c0,1.3,1,1.4,1.9,1.4c0.9,0,1.9,0,2-1.3
			C115.2,91.3,114.3,91.1,113,91.1z M119.1,84c-0.9-0.4-1.9-0.4-2.8-0.1c-0.5,0.2-0.8,0.7-0.7,1.3c0.2,1.1,1,1.3,2,1.2
			c0.9,0.1,1.8,0.1,2-1.1C119.8,84.8,119.6,84.2,119.1,84z M119.1,84c-0.9-0.4-1.9-0.4-2.8-0.1c-0.5,0.2-0.8,0.7-0.7,1.3
			c0.2,1.1,1,1.3,2,1.2c0.9,0.1,1.8,0.1,2-1.1C119.8,84.8,119.6,84.2,119.1,84z M113,91.1c-0.7,0-1.8,0-1.8,1.4c0,1.3,1,1.4,1.9,1.4
			c0.9,0,1.9,0,2-1.3C115.2,91.3,114.3,91.1,113,91.1z M57.5,87.9c-0.9-0.2-1.8-0.3-2.7,0.1c-0.5,0.3-0.6,0.8-0.5,1.4
			c0,0.4,0.2,0.6,0.5,0.9c0.4,0.3,0.9,0.2,1.3,0.2c1.1,0,2,0.1,2.1-1.3C58.3,88.5,58,88,57.5,87.9z M50.1,79.8c-0.9-0.6-2-0.6-3-0.1
			c-0.5,0.3-0.7,0.9-0.5,1.5c0.3,1,1.2,1,1.9,1c0.8,0,1.6,0,1.9-0.8C50.7,80.8,50.6,80.2,50.1,79.8z M41.5,89.8
			c-1,0-1.8,0.2-1.8,1.4c0,1.4,1.1,1.3,1.8,1.3c1.3,0,2.2-0.1,2.2-1.4C43.5,89.8,42.5,89.8,41.5,89.8z M36.4,81.9
			c-0.9-0.5-1.9-0.5-2.9,0c-0.5,0.2-0.7,0.8-0.6,1.3c0.3,1.1,1.1,1.2,2,1.1c0.8,0,1.6,0,1.9-0.9C37.1,82.8,37,82.2,36.4,81.9z
			 M29.5,93.3c-1,0-2,0-2.1,1.4c0,1.3,0.9,1.4,1.5,1.4c1.8,0,2.5-0.4,2.4-1.4C31.3,93.4,30.4,93.3,29.5,93.3z M22.9,85.1
			c-0.3,0-0.6,0-0.9,0c-0.8,0-1.2,0.6-1.2,1.2c0,0.8,0.4,1.3,1.2,1.4c0.3,0,0.6,0,0.9,0c1,0.1,1.8-0.2,1.8-1.3
			C24.8,85.3,23.9,85,22.9,85.1z M12.5,89c-1,0-1.9,0.2-1.8,1.4c0,1.3,1,1.3,2,1.3c1,0,2-0.1,1.9-1.3C14.6,89.1,13.6,89,12.5,89z
			 M7,80.9c-1.2-0.4-2.5,0-2.9,0.7c-0.5,1.1,0.3,1.9,1.9,1.9c0.9,0,1.8,0,2-1.2C8.1,81.6,7.8,81.1,7,80.9z M7,80.9
			c-1.2-0.4-2.5,0-2.9,0.7c-0.5,1.1,0.3,1.9,1.9,1.9c0.9,0,1.8,0,2-1.2C8.1,81.6,7.8,81.1,7,80.9z M12.5,89c-1,0-1.9,0.2-1.8,1.4
			c0,1.3,1,1.3,2,1.3c1,0,2-0.1,1.9-1.3C14.6,89.1,13.6,89,12.5,89z M22.9,85.1c-0.3,0-0.6,0-0.9,0c-0.8,0-1.2,0.6-1.2,1.2
			c0,0.8,0.4,1.3,1.2,1.4c0.3,0,0.6,0,0.9,0c1,0.1,1.8-0.2,1.8-1.3C24.8,85.3,23.9,85,22.9,85.1z M29.5,93.3c-1,0-2,0-2.1,1.4
			c0,1.3,0.9,1.4,1.5,1.4c1.8,0,2.5-0.4,2.4-1.4C31.3,93.4,30.4,93.3,29.5,93.3z M36.4,81.9c-0.9-0.5-1.9-0.5-2.9,0
			c-0.5,0.2-0.7,0.8-0.6,1.3c0.3,1.1,1.1,1.2,2,1.1c0.8,0,1.6,0,1.9-0.9C37.1,82.8,37,82.2,36.4,81.9z M41.5,89.8
			c-1,0-1.8,0.2-1.8,1.4c0,1.4,1.1,1.3,1.8,1.3c1.3,0,2.2-0.1,2.2-1.4C43.5,89.8,42.5,89.8,41.5,89.8z M50.1,79.8
			c-0.9-0.6-2-0.6-3-0.1c-0.5,0.3-0.7,0.9-0.5,1.5c0.3,1,1.2,1,1.9,1c0.8,0,1.6,0,1.9-0.8C50.7,80.8,50.6,80.2,50.1,79.8z
			 M57.5,87.9c-0.9-0.2-1.8-0.3-2.7,0.1c-0.5,0.3-0.6,0.8-0.5,1.4c0,0.4,0.2,0.6,0.5,0.9c0.4,0.3,0.9,0.2,1.3,0.2
			c1.1,0,2,0.1,2.1-1.3C58.3,88.5,58,88,57.5,87.9z M113,91.1c-0.7,0-1.8,0-1.8,1.4c0,1.3,1,1.4,1.9,1.4c0.9,0,1.9,0,2-1.3
			C115.2,91.3,114.3,91.1,113,91.1z M119.1,84c-0.9-0.4-1.9-0.4-2.8-0.1c-0.5,0.2-0.8,0.7-0.7,1.3c0.2,1.1,1,1.3,2,1.2
			c0.9,0.1,1.8,0.1,2-1.1C119.8,84.8,119.6,84.2,119.1,84z M119.1,84c-0.9-0.4-1.9-0.4-2.8-0.1c-0.5,0.2-0.8,0.7-0.7,1.3
			c0.2,1.1,1,1.3,2,1.2c0.9,0.1,1.8,0.1,2-1.1C119.8,84.8,119.6,84.2,119.1,84z M113,91.1c-0.7,0-1.8,0-1.8,1.4c0,1.3,1,1.4,1.9,1.4
			c0.9,0,1.9,0,2-1.3C115.2,91.3,114.3,91.1,113,91.1z M57.5,87.9c-0.9-0.2-1.8-0.3-2.7,0.1c-0.5,0.3-0.6,0.8-0.5,1.4
			c0,0.4,0.2,0.6,0.5,0.9c0.4,0.3,0.9,0.2,1.3,0.2c1.1,0,2,0.1,2.1-1.3C58.3,88.5,58,88,57.5,87.9z M50.1,79.8c-0.9-0.6-2-0.6-3-0.1
			c-0.5,0.3-0.7,0.9-0.5,1.5c0.3,1,1.2,1,1.9,1c0.8,0,1.6,0,1.9-0.8C50.7,80.8,50.6,80.2,50.1,79.8z M41.5,89.8
			c-1,0-1.8,0.2-1.8,1.4c0,1.4,1.1,1.3,1.8,1.3c1.3,0,2.2-0.1,2.2-1.4C43.5,89.8,42.5,89.8,41.5,89.8z M36.4,81.9
			c-0.9-0.5-1.9-0.5-2.9,0c-0.5,0.2-0.7,0.8-0.6,1.3c0.3,1.1,1.1,1.2,2,1.1c0.8,0,1.6,0,1.9-0.9C37.1,82.8,37,82.2,36.4,81.9z
			 M29.5,93.3c-1,0-2,0-2.1,1.4c0,1.3,0.9,1.4,1.5,1.4c1.8,0,2.5-0.4,2.4-1.4C31.3,93.4,30.4,93.3,29.5,93.3z M22.9,85.1
			c-0.3,0-0.6,0-0.9,0c-0.8,0-1.2,0.6-1.2,1.2c0,0.8,0.4,1.3,1.2,1.4c0.3,0,0.6,0,0.9,0c1,0.1,1.8-0.2,1.8-1.3
			C24.8,85.3,23.9,85,22.9,85.1z M12.5,89c-1,0-1.9,0.2-1.8,1.4c0,1.3,1,1.3,2,1.3c1,0,2-0.1,1.9-1.3C14.6,89.1,13.6,89,12.5,89z
			 M7,80.9c-1.2-0.4-2.5,0-2.9,0.7c-0.5,1.1,0.3,1.9,1.9,1.9c0.9,0,1.8,0,2-1.2C8.1,81.6,7.8,81.1,7,80.9z M7,80.9
			c-1.2-0.4-2.5,0-2.9,0.7c-0.5,1.1,0.3,1.9,1.9,1.9c0.9,0,1.8,0,2-1.2C8.1,81.6,7.8,81.1,7,80.9z M12.5,89c-1,0-1.9,0.2-1.8,1.4
			c0,1.3,1,1.3,2,1.3c1,0,2-0.1,1.9-1.3C14.6,89.1,13.6,89,12.5,89z M22.9,85.1c-0.3,0-0.6,0-0.9,0c-0.8,0-1.2,0.6-1.2,1.2
			c0,0.8,0.4,1.3,1.2,1.4c0.3,0,0.6,0,0.9,0c1,0.1,1.8-0.2,1.8-1.3C24.8,85.3,23.9,85,22.9,85.1z M29.5,93.3c-1,0-2,0-2.1,1.4
			c0,1.3,0.9,1.4,1.5,1.4c1.8,0,2.5-0.4,2.4-1.4C31.3,93.4,30.4,93.3,29.5,93.3z M36.4,81.9c-0.9-0.5-1.9-0.5-2.9,0
			c-0.5,0.2-0.7,0.8-0.6,1.3c0.3,1.1,1.1,1.2,2,1.1c0.8,0,1.6,0,1.9-0.9C37.1,82.8,37,82.2,36.4,81.9z M41.5,89.8
			c-1,0-1.8,0.2-1.8,1.4c0,1.4,1.1,1.3,1.8,1.3c1.3,0,2.2-0.1,2.2-1.4C43.5,89.8,42.5,89.8,41.5,89.8z M50.1,79.8
			c-0.9-0.6-2-0.6-3-0.1c-0.5,0.3-0.7,0.9-0.5,1.5c0.3,1,1.2,1,1.9,1c0.8,0,1.6,0,1.9-0.8C50.7,80.8,50.6,80.2,50.1,79.8z
			 M57.5,87.9c-0.9-0.2-1.8-0.3-2.7,0.1c-0.5,0.3-0.6,0.8-0.5,1.4c0,0.4,0.2,0.6,0.5,0.9c0.4,0.3,0.9,0.2,1.3,0.2
			c1.1,0,2,0.1,2.1-1.3C58.3,88.5,58,88,57.5,87.9z M113,91.1c-0.7,0-1.8,0-1.8,1.4c0,1.3,1,1.4,1.9,1.4c0.9,0,1.9,0,2-1.3
			C115.2,91.3,114.3,91.1,113,91.1z M119.1,84c-0.9-0.4-1.9-0.4-2.8-0.1c-0.5,0.2-0.8,0.7-0.7,1.3c0.2,1.1,1,1.3,2,1.2
			c0.9,0.1,1.8,0.1,2-1.1C119.8,84.8,119.6,84.2,119.1,84z M119.1,84c-0.9-0.4-1.9-0.4-2.8-0.1c-0.5,0.2-0.8,0.7-0.7,1.3
			c0.2,1.1,1,1.3,2,1.2c0.9,0.1,1.8,0.1,2-1.1C119.8,84.8,119.6,84.2,119.1,84z M113,91.1c-0.7,0-1.8,0-1.8,1.4c0,1.3,1,1.4,1.9,1.4
			c0.9,0,1.9,0,2-1.3C115.2,91.3,114.3,91.1,113,91.1z M57.5,87.9c-0.9-0.2-1.8-0.3-2.7,0.1c-0.5,0.3-0.6,0.8-0.5,1.4
			c0,0.4,0.2,0.6,0.5,0.9c0.4,0.3,0.9,0.2,1.3,0.2c1.1,0,2,0.1,2.1-1.3C58.3,88.5,58,88,57.5,87.9z M50.1,79.8c-0.9-0.6-2-0.6-3-0.1
			c-0.5,0.3-0.7,0.9-0.5,1.5c0.3,1,1.2,1,1.9,1c0.8,0,1.6,0,1.9-0.8C50.7,80.8,50.6,80.2,50.1,79.8z M41.5,89.8
			c-1,0-1.8,0.2-1.8,1.4c0,1.4,1.1,1.3,1.8,1.3c1.3,0,2.2-0.1,2.2-1.4C43.5,89.8,42.5,89.8,41.5,89.8z M36.4,81.9
			c-0.9-0.5-1.9-0.5-2.9,0c-0.5,0.2-0.7,0.8-0.6,1.3c0.3,1.1,1.1,1.2,2,1.1c0.8,0,1.6,0,1.9-0.9C37.1,82.8,37,82.2,36.4,81.9z
			 M29.5,93.3c-1,0-2,0-2.1,1.4c0,1.3,0.9,1.4,1.5,1.4c1.8,0,2.5-0.4,2.4-1.4C31.3,93.4,30.4,93.3,29.5,93.3z M22.9,85.1
			c-0.3,0-0.6,0-0.9,0c-0.8,0-1.2,0.6-1.2,1.2c0,0.8,0.4,1.3,1.2,1.4c0.3,0,0.6,0,0.9,0c1,0.1,1.8-0.2,1.8-1.3
			C24.8,85.3,23.9,85,22.9,85.1z M12.5,89c-1,0-1.9,0.2-1.8,1.4c0,1.3,1,1.3,2,1.3c1,0,2-0.1,1.9-1.3C14.6,89.1,13.6,89,12.5,89z
			 M7,80.9c-1.2-0.4-2.5,0-2.9,0.7c-0.5,1.1,0.3,1.9,1.9,1.9c0.9,0,1.8,0,2-1.2C8.1,81.6,7.8,81.1,7,80.9z M7,80.9
			c-1.2-0.4-2.5,0-2.9,0.7c-0.5,1.1,0.3,1.9,1.9,1.9c0.9,0,1.8,0,2-1.2C8.1,81.6,7.8,81.1,7,80.9z M12.5,89c-1,0-1.9,0.2-1.8,1.4
			c0,1.3,1,1.3,2,1.3c1,0,2-0.1,1.9-1.3C14.6,89.1,13.6,89,12.5,89z M22.9,85.1c-0.3,0-0.6,0-0.9,0c-0.8,0-1.2,0.6-1.2,1.2
			c0,0.8,0.4,1.3,1.2,1.4c0.3,0,0.6,0,0.9,0c1,0.1,1.8-0.2,1.8-1.3C24.8,85.3,23.9,85,22.9,85.1z M29.5,93.3c-1,0-2,0-2.1,1.4
			c0,1.3,0.9,1.4,1.5,1.4c1.8,0,2.5-0.4,2.4-1.4C31.3,93.4,30.4,93.3,29.5,93.3z M36.4,81.9c-0.9-0.5-1.9-0.5-2.9,0
			c-0.5,0.2-0.7,0.8-0.6,1.3c0.3,1.1,1.1,1.2,2,1.1c0.8,0,1.6,0,1.9-0.9C37.1,82.8,37,82.2,36.4,81.9z M41.5,89.8
			c-1,0-1.8,0.2-1.8,1.4c0,1.4,1.1,1.3,1.8,1.3c1.3,0,2.2-0.1,2.2-1.4C43.5,89.8,42.5,89.8,41.5,89.8z M50.1,79.8
			c-0.9-0.6-2-0.6-3-0.1c-0.5,0.3-0.7,0.9-0.5,1.5c0.3,1,1.2,1,1.9,1c0.8,0,1.6,0,1.9-0.8C50.7,80.8,50.6,80.2,50.1,79.8z
			 M57.5,87.9c-0.9-0.2-1.8-0.3-2.7,0.1c-0.5,0.3-0.6,0.8-0.5,1.4c0,0.4,0.2,0.6,0.5,0.9c0.4,0.3,0.9,0.2,1.3,0.2
			c1.1,0,2,0.1,2.1-1.3C58.3,88.5,58,88,57.5,87.9z M113,91.1c-0.7,0-1.8,0-1.8,1.4c0,1.3,1,1.4,1.9,1.4c0.9,0,1.9,0,2-1.3
			C115.2,91.3,114.3,91.1,113,91.1z M119.1,84c-0.9-0.4-1.9-0.4-2.8-0.1c-0.5,0.2-0.8,0.7-0.7,1.3c0.2,1.1,1,1.3,2,1.2
			c0.9,0.1,1.8,0.1,2-1.1C119.8,84.8,119.6,84.2,119.1,84z M119.1,84c-0.9-0.4-1.9-0.4-2.8-0.1c-0.5,0.2-0.8,0.7-0.7,1.3
			c0.2,1.1,1,1.3,2,1.2c0.9,0.1,1.8,0.1,2-1.1C119.8,84.8,119.6,84.2,119.1,84z M113,91.1c-0.7,0-1.8,0-1.8,1.4c0,1.3,1,1.4,1.9,1.4
			c0.9,0,1.9,0,2-1.3C115.2,91.3,114.3,91.1,113,91.1z M57.5,87.9c-0.9-0.2-1.8-0.3-2.7,0.1c-0.5,0.3-0.6,0.8-0.5,1.4
			c0,0.4,0.2,0.6,0.5,0.9c0.4,0.3,0.9,0.2,1.3,0.2c1.1,0,2,0.1,2.1-1.3C58.3,88.5,58,88,57.5,87.9z M50.1,79.8c-0.9-0.6-2-0.6-3-0.1
			c-0.5,0.3-0.7,0.9-0.5,1.5c0.3,1,1.2,1,1.9,1c0.8,0,1.6,0,1.9-0.8C50.7,80.8,50.6,80.2,50.1,79.8z M41.5,89.8
			c-1,0-1.8,0.2-1.8,1.4c0,1.4,1.1,1.3,1.8,1.3c1.3,0,2.2-0.1,2.2-1.4C43.5,89.8,42.5,89.8,41.5,89.8z M36.4,81.9
			c-0.9-0.5-1.9-0.5-2.9,0c-0.5,0.2-0.7,0.8-0.6,1.3c0.3,1.1,1.1,1.2,2,1.1c0.8,0,1.6,0,1.9-0.9C37.1,82.8,37,82.2,36.4,81.9z
			 M29.5,93.3c-1,0-2,0-2.1,1.4c0,1.3,0.9,1.4,1.5,1.4c1.8,0,2.5-0.4,2.4-1.4C31.3,93.4,30.4,93.3,29.5,93.3z M22.9,85.1
			c-0.3,0-0.6,0-0.9,0c-0.8,0-1.2,0.6-1.2,1.2c0,0.8,0.4,1.3,1.2,1.4c0.3,0,0.6,0,0.9,0c1,0.1,1.8-0.2,1.8-1.3
			C24.8,85.3,23.9,85,22.9,85.1z M12.5,89c-1,0-1.9,0.2-1.8,1.4c0,1.3,1,1.3,2,1.3c1,0,2-0.1,1.9-1.3C14.6,89.1,13.6,89,12.5,89z
			 M7,80.9c-1.2-0.4-2.5,0-2.9,0.7c-0.5,1.1,0.3,1.9,1.9,1.9c0.9,0,1.8,0,2-1.2C8.1,81.6,7.8,81.1,7,80.9z"/>
		<path d="M0.8,126.4c40.3,0,80.6,0,121,0c0.3,0,0.7,0,1,0c0,0.1,0,0.2-0.1,0.2c-40.6,0-81.3,0-121.9,0
			C0.7,126.6,0.7,126.5,0.8,126.4C0.8,126.4,0.8,126.4,0.8,126.4z"/>
		<path d="M0.8,126.4c0,0.1,0,0.2,0,0.3c-0.7,0.1-0.9-0.1-0.8-0.8C0.3,126,0.6,126.2,0.8,126.4z"/>
		<path d="M81.6,36.6c-14.7-0.2-26.4,11.3-26.5,26c-0.2,14.2,11.5,26,25.9,26.1c14,0.1,25.9-11.5,26.1-25.4
			C107.2,48.6,95.8,36.7,81.6,36.6z M59.2,54.4c3.8-9,10.5-14.1,20.3-15c9.1-0.8,18.1,4.3,22.2,12.4c0.2,0.3,0.3,0.6,0.5,1.1
			c-2.4-0.1-4.7,0-7,0.3c-3.5,0.4-6.7,1.7-9.9,3.1c-8.6,3.7-17.2,3.4-25.7-0.5C58.8,55.4,59,55,59.2,54.4z M66.9,81
			c1.8,0.1,3.5,0.3,5.3,0.4c5.1,0.1,10.1-0.8,14.7-3c4-1.9,8.2-3,12.7-3c0.2,0,0.5-0.1,0.7,0.1C93,87.3,76.3,89,66.9,81z
			 M101.4,72.9c-5.9-0.4-11.3,1.1-16.6,3.6c-3.7,1.8-7.7,2.4-10.8,2.3c-4.1,0-7.2-0.3-10.1-1.2c-0.8-0.2-1.4-0.6-1.8-1.3
			c-3.6-5.2-5-11-4.1-17.3c0.1-0.7,0.4-0.9,1-0.5c5.2,2.6,10.7,3.3,16.4,3c4.4-0.2,8.4-1.4,12.3-3.3c4.7-2.3,9.7-2.8,14.8-2.5
			c0.6,0,0.8,0.2,0.9,0.8c1.5,5.4,1,10.7-1.2,15.9C102.1,72.7,101.9,72.9,101.4,72.9z"/>
		<path d="M97.2,19.6c-1,0-1.7-0.9-1.4-1.7c0.1-0.2,0.2-0.5,0.3-0.7c2.5-4.1,5-8.1,7.5-12.2c0.3-0.5,0.6-0.9,1.1-1
			c0.6-0.1,1,0.1,1.3,0.6c0.4,0.5,0.3,1,0,1.6c-0.9,1.5-1.9,3-2.8,4.5c-1.6,2.6-3.2,5.2-4.8,7.9C98.1,19.1,97.7,19.5,97.2,19.6z"/>
		<path d="M95.6,22.8c0,1-1.3,2.4-2.1,2.3c-0.8-0.1-1.3-0.6-1.3-1.4c0-1,1.3-2.4,2.1-2.3C95,21.5,95.6,22.2,95.6,22.8z"/>
		<path d="M16.8,47c0.2,0.4,0.3,0.8,0.1,1.2c0,0-0.1,0-0.1,0c0,0,0-0.1-0.1-0.1C16.8,47.7,16.8,47.3,16.8,47z"/>
		<path d="M8,82.3c-0.2,1.1-1.1,1.2-2,1.2c-1.6,0-2.4-0.8-1.9-1.9c0.4-0.8,1.7-1.1,2.9-0.7C7.8,81.1,8.1,81.6,8,82.3z"/>
		<path d="M14.6,90.4c0,1.3-1,1.4-1.9,1.3c-1,0-2,0.1-2-1.3c0-1.2,0.8-1.4,1.8-1.4C13.6,89,14.6,89.1,14.6,90.4z"/>
		<path d="M24.7,86.5c0,1.1-0.9,1.4-1.8,1.3c-0.3,0-0.6,0-0.9,0c-0.8-0.1-1.3-0.6-1.2-1.4c0-0.7,0.4-1.2,1.2-1.2c0.3,0,0.6,0,0.9,0
			C23.9,85,24.8,85.3,24.7,86.5z"/>
		<path d="M31.4,94.6c0.1,1-0.6,1.4-2.4,1.4c-0.6,0-1.5-0.1-1.5-1.4c0-1.4,1.1-1.4,2.1-1.4C30.4,93.3,31.3,93.4,31.4,94.6z"/>
		<path d="M36.9,83.4c-0.3,1-1.1,1-1.9,0.9c-0.9,0.1-1.7-0.1-2-1.1c-0.1-0.6,0.1-1.1,0.6-1.3c0.9-0.4,2-0.5,2.9,0
			C37,82.2,37.1,82.8,36.9,83.4z"/>
		<path d="M43.6,91.1c0.1,1.3-0.9,1.4-2.2,1.4c-0.7,0-1.8,0.1-1.8-1.3c0-1.2,0.8-1.4,1.8-1.4C42.5,89.8,43.5,89.8,43.6,91.1z"/>
		<path d="M50.4,81.4c-0.4,0.8-1.1,0.8-1.9,0.8c-0.7,0-1.6,0-1.9-1c-0.2-0.6,0-1.2,0.5-1.5c1-0.5,2-0.5,3,0.1
			C50.6,80.2,50.7,80.8,50.4,81.4z"/>
		<path d="M58.2,89.1c-0.1,1.3-1.1,1.3-2.1,1.3c-0.3,0-0.8,0.1-1.3-0.2c-0.3-0.2-0.5-0.5-0.5-0.9c0-0.5,0-1.1,0.5-1.4
			c0.9-0.4,1.8-0.3,2.7-0.1C58,88,58.3,88.5,58.2,89.1z"/>
		<path d="M115.2,92.6c-0.1,1.3-1.1,1.3-2,1.3c-1,0-1.9,0-1.9-1.4c0-1.4,1-1.4,1.8-1.4C114.3,91.1,115.2,91.3,115.2,92.6z"/>
		<path d="M119.7,85.3c-0.2,1.1-1.1,1.1-2,1.1c-1,0.1-1.8-0.1-2-1.2c-0.1-0.5,0.1-1.1,0.7-1.3c0.9-0.3,1.9-0.4,2.8,0.1
			C119.6,84.2,119.8,84.8,119.7,85.3z"/>
		<path d="M50.4,81.4c-0.4,0.8-1.1,0.8-1.9,0.8c-0.7,0-1.6,0-1.9-1c-0.2-0.6,0-1.2,0.5-1.5c1-0.5,2-0.5,3,0.1
			C50.6,80.2,50.7,80.8,50.4,81.4z"/>
		<path d="M36.9,83.4c-0.3,1-1.1,1-1.9,0.9c-0.9,0.1-1.7-0.1-2-1.1c-0.1-0.6,0.1-1.1,0.6-1.3c0.9-0.4,2-0.5,2.9,0
			C37,82.2,37.1,82.8,36.9,83.4z"/>
		<path d="M8,82.3c-0.2,1.1-1.1,1.2-2,1.2c-1.6,0-2.4-0.8-1.9-1.9c0.4-0.8,1.7-1.1,2.9-0.7C7.8,81.1,8.1,81.6,8,82.3z"/>
		<path d="M115.2,92.6c-0.1,1.3-1.1,1.3-2,1.3c-1,0-1.9,0-1.9-1.4c0-1.4,1-1.4,1.8-1.4C114.3,91.1,115.2,91.3,115.2,92.6z"/>
		<path d="M31.4,94.6c0.1,1-0.6,1.4-2.4,1.4c-0.6,0-1.5-0.1-1.5-1.4c0-1.4,1.1-1.4,2.1-1.4C30.4,93.3,31.3,93.4,31.4,94.6z"/>
		<path d="M58.2,89.1c-0.1,1.3-1.1,1.3-2.1,1.3c-0.3,0-0.8,0.1-1.3-0.2c-0.3-0.2-0.5-0.5-0.5-0.9c0-0.5,0-1.1,0.5-1.4
			c0.9-0.4,1.8-0.3,2.7-0.1C58,88,58.3,88.5,58.2,89.1z"/>
		<path d="M119.7,85.3c-0.2,1.1-1.1,1.1-2,1.1c-1,0.1-1.8-0.1-2-1.2c-0.1-0.5,0.1-1.1,0.7-1.3c0.9-0.3,1.9-0.4,2.8,0.1
			C119.6,84.2,119.8,84.8,119.7,85.3z"/>
		<path d="M43.6,91.1c0.1,1.3-0.9,1.4-2.2,1.4c-0.7,0-1.8,0.1-1.8-1.3c0-1.2,0.8-1.4,1.8-1.4C42.5,89.8,43.5,89.8,43.6,91.1z"/>
		<path d="M24.7,86.5c0,1.1-0.9,1.4-1.8,1.3c-0.3,0-0.6,0-0.9,0c-0.8-0.1-1.3-0.6-1.2-1.4c0-0.7,0.4-1.2,1.2-1.2c0.3,0,0.6,0,0.9,0
			C23.9,85,24.8,85.3,24.7,86.5z"/>
		<path d="M14.6,90.4c0,1.3-1,1.4-1.9,1.3c-1,0-2,0.1-2-1.3c0-1.2,0.8-1.4,1.8-1.4C13.6,89,14.6,89.1,14.6,90.4z"/>
	</g>
</g>
</svg>
