<?xml version="1.0" encoding="utf-8"?>
<!-- Generator: Adobe Illustrator 28.0.0, SVG Export Plug-In . SVG Version: 6.00 Build 0)  -->
<svg version="1.1" id="Layer_1" xmlns="http://www.w3.org/2000/svg" xmlns:xlink="http://www.w3.org/1999/xlink" x="0px" y="0px"
	 viewBox="0 0 128 128" style="enable-background:new 0 0 128 128;" xml:space="preserve">
<g id="hpA44h.tif">
	<g>
		<path d="M33.6,44c-0.8,0.9-2,1-3.1,0.1c-0.1-0.1-0.2-0.2-0.5-0.5v5.7c0,2,0,3.9,0,5.9c0,1.4-1,2.4-2.2,2.4c-1.2,0-2.1-1-2.2-2.4
			c0-1.9,0-3.7,0-5.6v-6c-0.9,1.1-1.8,1.4-2.8,1.1c-1.4-0.4-1.9-2.3-0.9-3.5c1.4-1.5,2.9-3,4.4-4.4c0.9-0.9,2-0.8,3,0.2
			c1.4,1.3,2.7,2.6,4,4C34.3,41.9,34.4,43.1,33.6,44z"/>
		<path d="M60.8,35c-2.8-4.4-5.6-8.8-7-13.9c-0.4-1.4-1.7-2.1-3.2-1.8c-1.2,0.2-1.8,1-2.1,2.2c-1.3,4.3-3.2,8.2-5.9,11.8
			c-0.7,1-1.3,2-1.9,3.1c-1.6,3.4-2.9,6.9-2.1,10.8c1.3,6.7,7.5,11.2,14.4,10.4c6.1-0.7,11-6.3,11-12.9C64,41.5,63.1,38.7,60.8,35z
			 M59.4,47c-1.3,4.5-5.7,7.1-10.3,6c-4.4-1.1-7.1-5.5-6.2-10.1c0.5-2.3,1.5-4.3,2.7-6.2c1-1.6,2-3.2,3-4.7c1-1.6,1.8-3.3,2.7-5.2
			c1.8,4.4,4.6,8,6.7,11.9C59.4,41.3,60.2,44,59.4,47z"/>
		<path d="M80.5,52.6c-1.5,1.5-2.9,3.1-4.5,4.5c-0.9,0.8-2.1,0.7-3-0.2c-1.3-1.3-2.6-2.6-3.9-3.9c-1.1-1.1-1.2-2.2-0.3-3.2
			c0.9-1,1.9-1,3.2-0.1c0.1,0.1,0.2,0.3,0.5,0.1c0-3.7,0-7.5,0-11.3c0-1.8,1.6-2.9,3.1-2.1c1,0.5,1.2,1.3,1.2,2.3
			c0,3.7,0,7.4,0,11.1c0.5,0.2,0.6-0.2,0.8-0.4c1-0.6,2-0.6,2.8,0.3C81.2,50.5,81.3,51.7,80.5,52.6z"/>
		<path d="M49.9,8.5C26.7,9.2,7.9,28.4,8.5,52.4c0.6,22.7,19,41.3,42.6,41.5c24.2-0.3,42.7-19.4,42.7-42.8
			C93.8,26.7,73.8,7.8,49.9,8.5z M29.2,82.5c2,0.4,3.9,0.8,5.7,0.8c3.1,0,6.1-0.7,8.8-2.3c4.9-2.8,9.9-2.8,14.8,0
			c4.5,2.5,9.2,2.8,14.1,1.7C61.1,91.3,42.6,92.2,29.2,82.5z M84.9,69.3c-0.9,1.5-1.9,3-2.9,4.5c-0.5,0.7-1,1-1.8,1.1
			c-1.9,0.3-3.6,0.9-5.2,1.9c-5,2.8-9.9,2.7-14.9,0c-5.9-3.1-11.9-3.1-17.8,0c-5,2.7-9.9,2.8-14.9,0c-1.7-0.9-3.4-1.6-5.4-1.9
			c-0.8-0.1-1.3-0.5-1.8-1.2c-1.2-1.7-2.3-3.4-3.3-5.4c3-0.3,5.7,0.2,8.3,1.6c2,1.1,4.1,2,6.4,2.3c4.3,0.6,8.4,0.2,12.2-2
			c4.9-2.8,9.8-2.7,14.8,0c6,3.2,12.1,3.1,18.1-0.1c2.4-1.3,4.9-2,7.6-1.9C85.2,68.3,85.4,68.5,84.9,69.3z M86.3,64.1
			c-3.8-0.4-7.6,0-11,1.9c-5.2,3-10.3,2.8-15.6,0c-5.6-3-11.5-3-17.2,0.1c-5.2,2.8-10.2,2.9-15.4,0c-3.5-2-7.3-2.5-11.2-1.9
			c-0.7,0.1-0.9-0.2-1.1-0.8c-1.4-4-2-8.1-2.1-13.2C12.9,34,24,19.1,40.6,14.3c20.9-6,42.4,6.4,47.8,27.4c1.8,7.3,1.5,14.5-0.9,21.6
			C87.3,64,87.1,64.2,86.3,64.1z M49.9,8.5C26.7,9.2,7.9,28.4,8.5,52.4c0.6,22.7,19,41.3,42.6,41.5c24.2-0.3,42.7-19.4,42.7-42.8
			C93.8,26.7,73.8,7.8,49.9,8.5z M29.2,82.5c2,0.4,3.9,0.8,5.7,0.8c3.1,0,6.1-0.7,8.8-2.3c4.9-2.8,9.9-2.8,14.8,0
			c4.5,2.5,9.2,2.8,14.1,1.7C61.1,91.3,42.6,92.2,29.2,82.5z M84.9,69.3c-0.9,1.5-1.9,3-2.9,4.5c-0.5,0.7-1,1-1.8,1.1
			c-1.9,0.3-3.6,0.9-5.2,1.9c-5,2.8-9.9,2.7-14.9,0c-5.9-3.1-11.9-3.1-17.8,0c-5,2.7-9.9,2.8-14.9,0c-1.7-0.9-3.4-1.6-5.4-1.9
			c-0.8-0.1-1.3-0.5-1.8-1.2c-1.2-1.7-2.3-3.4-3.3-5.4c3-0.3,5.7,0.2,8.3,1.6c2,1.1,4.1,2,6.4,2.3c4.3,0.6,8.4,0.2,12.2-2
			c4.9-2.8,9.8-2.7,14.8,0c6,3.2,12.1,3.1,18.1-0.1c2.4-1.3,4.9-2,7.6-1.9C85.2,68.3,85.4,68.5,84.9,69.3z M86.3,64.1
			c-3.8-0.4-7.6,0-11,1.9c-5.2,3-10.3,2.8-15.6,0c-5.6-3-11.5-3-17.2,0.1c-5.2,2.8-10.2,2.9-15.4,0c-3.5-2-7.3-2.5-11.2-1.9
			c-0.7,0.1-0.9-0.2-1.1-0.8c-1.4-4-2-8.1-2.1-13.2C12.9,34,24,19.1,40.6,14.3c20.9-6,42.4,6.4,47.8,27.4c1.8,7.3,1.5,14.5-0.9,21.6
			C87.3,64,87.1,64.2,86.3,64.1z M125.1,110c-7.3-7.4-14.7-14.8-22.1-22.1c-1.3-1.3-3-1.8-4.8-1.4c-0.6,0.1-1,0.1-1.4-0.4
			c-1.3-1.3-2.5-2.6-3.9-3.9c-0.6-0.5-0.5-0.9-0.1-1.4c9.3-13.4,12.1-28.1,7.5-43.7C94.6,17.8,81.5,5.7,61.8,1
			c-1.7-0.4-3.5-0.7-5.3-1h-11c-1.5,0.3-3,0.2-4.4,0.5C30.1,2.8,20.8,8,13.2,16.2c-5,5.4-8.6,11.6-11,18.6C1,38.3,0.3,41.8,0,45.5
			v11.2c0.5,1.4,0.5,3,0.8,4.5c3,13.9,10.3,25,22.3,32.8c11.4,7.5,23.9,9.9,37.4,7.5c7.4-1.3,14.2-4.3,20.3-8.6
			c0.6-0.4,0.9-0.6,1.5,0c1.3,1.4,2.6,2.7,4,4c0.4,0.4,0.4,0.7,0.3,1.2c-0.4,1.9,0,3.6,1.4,4.9c7.4,7.4,14.7,14.8,22.1,22.1
			c4.1,4,10.7,3.8,14.8-0.2C128.9,120.9,129.1,114.1,125.1,110z M51.1,98c-26-0.2-46.9-21.1-46.9-47c0-25.8,21.3-46.9,47.1-46.8
			c25.9,0.1,46.7,21.1,46.7,47C98,77.2,76.9,98.2,51.1,98z M85.5,90c-0.3-0.3-0.4-0.5,0-0.8c1.3-1.1,2.5-2.4,3.7-3.7
			c0.3-0.3,0.5-0.4,0.8,0c1.2,1.2,2.4,2.5,3.7,3.7c0.4,0.4,0.2,0.6-0.1,0.9c-1.3,1.3-2.6,2.6-4,4.1C88.2,92.7,86.8,91.3,85.5,90z
			 M117.3,123.6c-1.8,0-3.4-0.6-4.7-1.9c-7.1-7.1-14.2-14.2-21.3-21.3c-0.8-0.8-0.7-1.4,0.1-2.1c2.3-2.2,4.5-4.5,6.7-6.7
			c1.1-1.1,1.3-1.1,2.4,0c6.7,6.6,13.3,13.3,20,19.9c1.3,1.3,2.6,2.5,3,4.5C124.3,120,121.4,123.5,117.3,123.6z M49.9,8.5
			C26.7,9.2,7.9,28.4,8.5,52.4c0.6,22.7,19,41.3,42.6,41.5c24.2-0.3,42.7-19.4,42.7-42.8C93.8,26.7,73.8,7.8,49.9,8.5z M29.2,82.5
			c2,0.4,3.9,0.8,5.7,0.8c3.1,0,6.1-0.7,8.8-2.3c4.9-2.8,9.9-2.8,14.8,0c4.5,2.5,9.2,2.8,14.1,1.7C61.1,91.3,42.6,92.2,29.2,82.5z
			 M84.9,69.3c-0.9,1.5-1.9,3-2.9,4.5c-0.5,0.7-1,1-1.8,1.1c-1.9,0.3-3.6,0.9-5.2,1.9c-5,2.8-9.9,2.7-14.9,0
			c-5.9-3.1-11.9-3.1-17.8,0c-5,2.7-9.9,2.8-14.9,0c-1.7-0.9-3.4-1.6-5.4-1.9c-0.8-0.1-1.3-0.5-1.8-1.2c-1.2-1.7-2.3-3.4-3.3-5.4
			c3-0.3,5.7,0.2,8.3,1.6c2,1.1,4.1,2,6.4,2.3c4.3,0.6,8.4,0.2,12.2-2c4.9-2.8,9.8-2.7,14.8,0c6,3.2,12.1,3.1,18.1-0.1
			c2.4-1.3,4.9-2,7.6-1.9C85.2,68.3,85.4,68.5,84.9,69.3z M86.3,64.1c-3.8-0.4-7.6,0-11,1.9c-5.2,3-10.3,2.8-15.6,0
			c-5.6-3-11.5-3-17.2,0.1c-5.2,2.8-10.2,2.9-15.4,0c-3.5-2-7.3-2.5-11.2-1.9c-0.7,0.1-0.9-0.2-1.1-0.8c-1.4-4-2-8.1-2.1-13.2
			C12.9,34,24,19.1,40.6,14.3c20.9-6,42.4,6.4,47.8,27.4c1.8,7.3,1.5,14.5-0.9,21.6C87.3,64,87.1,64.2,86.3,64.1z M49.9,8.5
			C26.7,9.2,7.9,28.4,8.5,52.4c0.6,22.7,19,41.3,42.6,41.5c24.2-0.3,42.7-19.4,42.7-42.8C93.8,26.7,73.8,7.8,49.9,8.5z M29.2,82.5
			c2,0.4,3.9,0.8,5.7,0.8c3.1,0,6.1-0.7,8.8-2.3c4.9-2.8,9.9-2.8,14.8,0c4.5,2.5,9.2,2.8,14.1,1.7C61.1,91.3,42.6,92.2,29.2,82.5z
			 M84.9,69.3c-0.9,1.5-1.9,3-2.9,4.5c-0.5,0.7-1,1-1.8,1.1c-1.9,0.3-3.6,0.9-5.2,1.9c-5,2.8-9.9,2.7-14.9,0
			c-5.9-3.1-11.9-3.1-17.8,0c-5,2.7-9.9,2.8-14.9,0c-1.7-0.9-3.4-1.6-5.4-1.9c-0.8-0.1-1.3-0.5-1.8-1.2c-1.2-1.7-2.3-3.4-3.3-5.4
			c3-0.3,5.7,0.2,8.3,1.6c2,1.1,4.1,2,6.4,2.3c4.3,0.6,8.4,0.2,12.2-2c4.9-2.8,9.8-2.7,14.8,0c6,3.2,12.1,3.1,18.1-0.1
			c2.4-1.3,4.9-2,7.6-1.9C85.2,68.3,85.4,68.5,84.9,69.3z M86.3,64.1c-3.8-0.4-7.6,0-11,1.9c-5.2,3-10.3,2.8-15.6,0
			c-5.6-3-11.5-3-17.2,0.1c-5.2,2.8-10.2,2.9-15.4,0c-3.5-2-7.3-2.5-11.2-1.9c-0.7,0.1-0.9-0.2-1.1-0.8c-1.4-4-2-8.1-2.1-13.2
			C12.9,34,24,19.1,40.6,14.3c20.9-6,42.4,6.4,47.8,27.4c1.8,7.3,1.5,14.5-0.9,21.6C87.3,64,87.1,64.2,86.3,64.1z M49.9,8.5
			C26.7,9.2,7.9,28.4,8.5,52.4c0.6,22.7,19,41.3,42.6,41.5c24.2-0.3,42.7-19.4,42.7-42.8C93.8,26.7,73.8,7.8,49.9,8.5z M29.2,82.5
			c2,0.4,3.9,0.8,5.7,0.8c3.1,0,6.1-0.7,8.8-2.3c4.9-2.8,9.9-2.8,14.8,0c4.5,2.5,9.2,2.8,14.1,1.7C61.1,91.3,42.6,92.2,29.2,82.5z
			 M84.9,69.3c-0.9,1.5-1.9,3-2.9,4.5c-0.5,0.7-1,1-1.8,1.1c-1.9,0.3-3.6,0.9-5.2,1.9c-5,2.8-9.9,2.7-14.9,0
			c-5.9-3.1-11.9-3.1-17.8,0c-5,2.7-9.9,2.8-14.9,0c-1.7-0.9-3.4-1.6-5.4-1.9c-0.8-0.1-1.3-0.5-1.8-1.2c-1.2-1.7-2.3-3.4-3.3-5.4
			c3-0.3,5.7,0.2,8.3,1.6c2,1.1,4.1,2,6.4,2.3c4.3,0.6,8.4,0.2,12.2-2c4.9-2.8,9.8-2.7,14.8,0c6,3.2,12.1,3.1,18.1-0.1
			c2.4-1.3,4.9-2,7.6-1.9C85.2,68.3,85.4,68.5,84.9,69.3z M86.3,64.1c-3.8-0.4-7.6,0-11,1.9c-5.2,3-10.3,2.8-15.6,0
			c-5.6-3-11.5-3-17.2,0.1c-5.2,2.8-10.2,2.9-15.4,0c-3.5-2-7.3-2.5-11.2-1.9c-0.7,0.1-0.9-0.2-1.1-0.8c-1.4-4-2-8.1-2.1-13.2
			C12.9,34,24,19.1,40.6,14.3c20.9-6,42.4,6.4,47.8,27.4c1.8,7.3,1.5,14.5-0.9,21.6C87.3,64,87.1,64.2,86.3,64.1z"/>
		<path d="M33.6,44c-0.8,0.9-2,1-3.1,0.1c-0.1-0.1-0.2-0.2-0.5-0.5v5.7c0,2,0,3.9,0,5.9c0,1.4-1,2.4-2.2,2.4c-1.2,0-2.1-1-2.2-2.4
			c0-1.9,0-3.7,0-5.6v-6c-0.9,1.1-1.8,1.4-2.8,1.1c-1.4-0.4-1.9-2.3-0.9-3.5c1.4-1.5,2.9-3,4.4-4.4c0.9-0.9,2-0.8,3,0.2
			c1.4,1.3,2.7,2.6,4,4C34.3,41.9,34.4,43.1,33.6,44z"/>
		<path d="M60.8,35c-2.8-4.4-5.6-8.8-7-13.9c-0.4-1.4-1.7-2.1-3.2-1.8c-1.2,0.2-1.8,1-2.1,2.2c-1.3,4.3-3.2,8.2-5.9,11.8
			c-0.7,1-1.3,2-1.9,3.1c-1.6,3.4-2.9,6.9-2.1,10.8c1.3,6.7,7.5,11.2,14.4,10.4c6.1-0.7,11-6.3,11-12.9C64,41.5,63.1,38.7,60.8,35z
			 M59.4,47c-1.3,4.5-5.7,7.1-10.3,6c-4.4-1.1-7.1-5.5-6.2-10.1c0.5-2.3,1.5-4.3,2.7-6.2c1-1.6,2-3.2,3-4.7c1-1.6,1.8-3.3,2.7-5.2
			c1.8,4.4,4.6,8,6.7,11.9C59.4,41.3,60.2,44,59.4,47z"/>
		<path d="M80.5,52.6c-1.5,1.5-2.9,3.1-4.5,4.5c-0.9,0.8-2.1,0.7-3-0.2c-1.3-1.3-2.6-2.6-3.9-3.9c-1.1-1.1-1.2-2.2-0.3-3.2
			c0.9-1,1.9-1,3.2-0.1c0.1,0.1,0.2,0.3,0.5,0.1c0-3.7,0-7.5,0-11.3c0-1.8,1.6-2.9,3.1-2.1c1,0.5,1.2,1.3,1.2,2.3
			c0,3.7,0,7.4,0,11.1c0.5,0.2,0.6-0.2,0.8-0.4c1-0.6,2-0.6,2.8,0.3C81.2,50.5,81.3,51.7,80.5,52.6z"/>
		<path d="M49.9,8.5C26.7,9.2,7.9,28.4,8.5,52.4c0.6,22.7,19,41.3,42.6,41.5c24.2-0.3,42.7-19.4,42.7-42.8
			C93.8,26.7,73.8,7.8,49.9,8.5z M29.2,82.5c2,0.4,3.9,0.8,5.7,0.8c3.1,0,6.1-0.7,8.8-2.3c4.9-2.8,9.9-2.8,14.8,0
			c4.5,2.5,9.2,2.8,14.1,1.7C61.1,91.3,42.6,92.2,29.2,82.5z M84.9,69.3c-0.9,1.5-1.9,3-2.9,4.5c-0.5,0.7-1,1-1.8,1.1
			c-1.9,0.3-3.6,0.9-5.2,1.9c-5,2.8-9.9,2.7-14.9,0c-5.9-3.1-11.9-3.1-17.8,0c-5,2.7-9.9,2.8-14.9,0c-1.7-0.9-3.4-1.6-5.4-1.9
			c-0.8-0.1-1.3-0.5-1.8-1.2c-1.2-1.7-2.3-3.4-3.3-5.4c3-0.3,5.7,0.2,8.3,1.6c2,1.1,4.1,2,6.4,2.3c4.3,0.6,8.4,0.2,12.2-2
			c4.9-2.8,9.8-2.7,14.8,0c6,3.2,12.1,3.1,18.1-0.1c2.4-1.3,4.9-2,7.6-1.9C85.2,68.3,85.4,68.5,84.9,69.3z M86.3,64.1
			c-3.8-0.4-7.6,0-11,1.9c-5.2,3-10.3,2.8-15.6,0c-5.6-3-11.5-3-17.2,0.1c-5.2,2.8-10.2,2.9-15.4,0c-3.5-2-7.3-2.5-11.2-1.9
			c-0.7,0.1-0.9-0.2-1.1-0.8c-1.4-4-2-8.1-2.1-13.2C12.9,34,24,19.1,40.6,14.3c20.9-6,42.4,6.4,47.8,27.4c1.8,7.3,1.5,14.5-0.9,21.6
			C87.3,64,87.1,64.2,86.3,64.1z"/>
		<path d="M33.6,44c-0.8,0.9-2,1-3.1,0.1c-0.1-0.1-0.2-0.2-0.5-0.5v5.7c0,2,0,3.9,0,5.9c0,1.4-1,2.4-2.2,2.4c-1.2,0-2.1-1-2.2-2.4
			c0-1.9,0-3.7,0-5.6v-6c-0.9,1.1-1.8,1.4-2.8,1.1c-1.4-0.4-1.9-2.3-0.9-3.5c1.4-1.5,2.9-3,4.4-4.4c0.9-0.9,2-0.8,3,0.2
			c1.4,1.3,2.7,2.6,4,4C34.3,41.9,34.4,43.1,33.6,44z"/>
		<path d="M60.8,35c-2.8-4.4-5.6-8.8-7-13.9c-0.4-1.4-1.7-2.1-3.2-1.8c-1.2,0.2-1.8,1-2.1,2.2c-1.3,4.3-3.2,8.2-5.9,11.8
			c-0.7,1-1.3,2-1.9,3.1c-1.6,3.4-2.9,6.9-2.1,10.8c1.3,6.7,7.5,11.2,14.4,10.4c6.1-0.7,11-6.3,11-12.9C64,41.5,63.1,38.7,60.8,35z
			 M59.4,47c-1.3,4.5-5.7,7.1-10.3,6c-4.4-1.1-7.1-5.5-6.2-10.1c0.5-2.3,1.5-4.3,2.7-6.2c1-1.6,2-3.2,3-4.7c1-1.6,1.8-3.3,2.7-5.2
			c1.8,4.4,4.6,8,6.7,11.9C59.4,41.3,60.2,44,59.4,47z"/>
		<path d="M80.5,52.6c-1.5,1.5-2.9,3.1-4.5,4.5c-0.9,0.8-2.1,0.7-3-0.2c-1.3-1.3-2.6-2.6-3.9-3.9c-1.1-1.1-1.2-2.2-0.3-3.2
			c0.9-1,1.9-1,3.2-0.1c0.1,0.1,0.2,0.3,0.5,0.1c0-3.7,0-7.5,0-11.3c0-1.8,1.6-2.9,3.1-2.1c1,0.5,1.2,1.3,1.2,2.3
			c0,3.7,0,7.4,0,11.1c0.5,0.2,0.6-0.2,0.8-0.4c1-0.6,2-0.6,2.8,0.3C81.2,50.5,81.3,51.7,80.5,52.6z"/>
		<path d="M49.9,8.5C26.7,9.2,7.9,28.4,8.5,52.4c0.6,22.7,19,41.3,42.6,41.5c24.2-0.3,42.7-19.4,42.7-42.8
			C93.8,26.7,73.8,7.8,49.9,8.5z M29.2,82.5c2,0.4,3.9,0.8,5.7,0.8c3.1,0,6.1-0.7,8.8-2.3c4.9-2.8,9.9-2.8,14.8,0
			c4.5,2.5,9.2,2.8,14.1,1.7C61.1,91.3,42.6,92.2,29.2,82.5z M84.9,69.3c-0.9,1.5-1.9,3-2.9,4.5c-0.5,0.7-1,1-1.8,1.1
			c-1.9,0.3-3.6,0.9-5.2,1.9c-5,2.8-9.9,2.7-14.9,0c-5.9-3.1-11.9-3.1-17.8,0c-5,2.7-9.9,2.8-14.9,0c-1.7-0.9-3.4-1.6-5.4-1.9
			c-0.8-0.1-1.3-0.5-1.8-1.2c-1.2-1.7-2.3-3.4-3.3-5.4c3-0.3,5.7,0.2,8.3,1.6c2,1.1,4.1,2,6.4,2.3c4.3,0.6,8.4,0.2,12.2-2
			c4.9-2.8,9.8-2.7,14.8,0c6,3.2,12.1,3.1,18.1-0.1c2.4-1.3,4.9-2,7.6-1.9C85.2,68.3,85.4,68.5,84.9,69.3z M86.3,64.1
			c-3.8-0.4-7.6,0-11,1.9c-5.2,3-10.3,2.8-15.6,0c-5.6-3-11.5-3-17.2,0.1c-5.2,2.8-10.2,2.9-15.4,0c-3.5-2-7.3-2.5-11.2-1.9
			c-0.7,0.1-0.9-0.2-1.1-0.8c-1.4-4-2-8.1-2.1-13.2C12.9,34,24,19.1,40.6,14.3c20.9-6,42.4,6.4,47.8,27.4c1.8,7.3,1.5,14.5-0.9,21.6
			C87.3,64,87.1,64.2,86.3,64.1z"/>
		<path d="M33.6,44c-0.8,0.9-2,1-3.1,0.1c-0.1-0.1-0.2-0.2-0.5-0.5v5.7c0,2,0,3.9,0,5.9c0,1.4-1,2.4-2.2,2.4c-1.2,0-2.1-1-2.2-2.4
			c0-1.9,0-3.7,0-5.6v-6c-0.9,1.1-1.8,1.4-2.8,1.1c-1.4-0.4-1.9-2.3-0.9-3.5c1.4-1.5,2.9-3,4.4-4.4c0.9-0.9,2-0.8,3,0.2
			c1.4,1.3,2.7,2.6,4,4C34.3,41.9,34.4,43.1,33.6,44z"/>
		<path d="M60.8,35c-2.8-4.4-5.6-8.8-7-13.9c-0.4-1.4-1.7-2.1-3.2-1.8c-1.2,0.2-1.8,1-2.1,2.2c-1.3,4.3-3.2,8.2-5.9,11.8
			c-0.7,1-1.3,2-1.9,3.1c-1.6,3.4-2.9,6.9-2.1,10.8c1.3,6.7,7.5,11.2,14.4,10.4c6.1-0.7,11-6.3,11-12.9C64,41.5,63.1,38.7,60.8,35z
			 M59.4,47c-1.3,4.5-5.7,7.1-10.3,6c-4.4-1.1-7.1-5.5-6.2-10.1c0.5-2.3,1.5-4.3,2.7-6.2c1-1.6,2-3.2,3-4.7c1-1.6,1.8-3.3,2.7-5.2
			c1.8,4.4,4.6,8,6.7,11.9C59.4,41.3,60.2,44,59.4,47z"/>
		<path d="M80.5,52.6c-1.5,1.5-2.9,3.1-4.5,4.5c-0.9,0.8-2.1,0.7-3-0.2c-1.3-1.3-2.6-2.6-3.9-3.9c-1.1-1.1-1.2-2.2-0.3-3.2
			c0.9-1,1.9-1,3.2-0.1c0.1,0.1,0.2,0.3,0.5,0.1c0-3.7,0-7.5,0-11.3c0-1.8,1.6-2.9,3.1-2.1c1,0.5,1.2,1.3,1.2,2.3
			c0,3.7,0,7.4,0,11.1c0.5,0.2,0.6-0.2,0.8-0.4c1-0.6,2-0.6,2.8,0.3C81.2,50.5,81.3,51.7,80.5,52.6z"/>
		<path d="M60.8,35c-2.8-4.4-5.6-8.8-7-13.9c-0.4-1.4-1.7-2.1-3.2-1.8c-1.2,0.2-1.8,1-2.1,2.2c-1.3,4.3-3.2,8.2-5.9,11.8
			c-0.7,1-1.3,2-1.9,3.1c-1.6,3.4-2.9,6.9-2.1,10.8c1.3,6.7,7.5,11.2,14.4,10.4c6.1-0.7,11-6.3,11-12.9C64,41.5,63.1,38.7,60.8,35z
			 M59.4,47c-1.3,4.5-5.7,7.1-10.3,6c-4.4-1.1-7.1-5.5-6.2-10.1c0.5-2.3,1.5-4.3,2.7-6.2c1-1.6,2-3.2,3-4.7c1-1.6,1.8-3.3,2.7-5.2
			c1.8,4.4,4.6,8,6.7,11.9C59.4,41.3,60.2,44,59.4,47z"/>
		<path d="M33.6,44c-0.8,0.9-2,1-3.1,0.1c-0.1-0.1-0.2-0.2-0.5-0.5v5.7c0,2,0,3.9,0,5.9c0,1.4-1,2.4-2.2,2.4c-1.2,0-2.1-1-2.2-2.4
			c0-1.9,0-3.7,0-5.6v-6c-0.9,1.1-1.8,1.4-2.8,1.1c-1.4-0.4-1.9-2.3-0.9-3.5c1.4-1.5,2.9-3,4.4-4.4c0.9-0.9,2-0.8,3,0.2
			c1.4,1.3,2.7,2.6,4,4C34.3,41.9,34.4,43.1,33.6,44z"/>
		<path d="M80.5,52.6c-1.5,1.5-2.9,3.1-4.5,4.5c-0.9,0.8-2.1,0.7-3-0.2c-1.3-1.3-2.6-2.6-3.9-3.9c-1.1-1.1-1.2-2.2-0.3-3.2
			c0.9-1,1.9-1,3.2-0.1c0.1,0.1,0.2,0.3,0.5,0.1c0-3.7,0-7.5,0-11.3c0-1.8,1.6-2.9,3.1-2.1c1,0.5,1.2,1.3,1.2,2.3
			c0,3.7,0,7.4,0,11.1c0.5,0.2,0.6-0.2,0.8-0.4c1-0.6,2-0.6,2.8,0.3C81.2,50.5,81.3,51.7,80.5,52.6z"/>
	</g>
</g>
</svg>
