<?xml version="1.0" encoding="utf-8"?>
<!-- Generator: Adobe Illustrator 28.0.0, SVG Export Plug-In . SVG Version: 6.00 Build 0)  -->
<svg version="1.1" id="Layer_1" xmlns="http://www.w3.org/2000/svg" xmlns:xlink="http://www.w3.org/1999/xlink" x="0px" y="0px"
	 viewBox="0 0 128 128" style="enable-background:new 0 0 128 128;" xml:space="preserve">
<g id="p6zkXG.tif">
	<g>
		<path d="M125.9,89.5c-0.3-0.3-0.9-0.6-0.3-1.2c4.1-4.1,2.7-11.4-3.6-13.8c-5.7-2.2-11.3-4.6-16.9-7c-5.5-2.4-11.1-3.9-17.1-3.5
			c-3.1,0.2-6.2,0.6-9.2,0.9c-5,0.4-9.9,1.2-14.9,1.2c-8.9-0.1-17.9,0-26.8,0c-0.7,0-1.4,0-2.2,0.1c-2.9,0.6-5.3,2-7.3,4.2
			c-0.1-0.1-0.1-0.1-0.1-0.1c-0.2-0.3-0.3-0.5-0.5-0.8c-2.7-4.6-6.7-7.3-12.1-7.5c-5.8-0.2-10.1,2.4-13.2,7.3
			C0.9,70.7,0.6,72.4,0,74v4.6c0.3,3.1,1.8,5.7,3.8,8c0.4,0.5,0.4,0.7-0.1,1c-2,1.3-3.3,3-3.7,5.4v3.4c0.1,0.1,0.1,0.1,0.2,0.2
			c1.4,4.5,4.1,6.5,8.8,6.5c11,0,22,0,33,0c1.1,0,1.3,0.4,1.1,1.3c-0.6,3.1-1.6,6-3.2,8.7c-1,1.8-2.2,2.6-4.4,2.4
			c-2.3-0.2-4.6-0.1-6.8,0c-0.5,0-1,0-1.5,0.1c-5.2,0.9-8.9,5.6-8.6,10.9c0.1,1.1,0.3,1.4,1.4,1.4c29.4,0,58.7,0,88.1,0
			c0.3,0,0.5,0,0.8,0c0.4,0,0.6-0.1,0.6-0.6c0.8-6.3-4-11.8-10.3-11.8c-2.8,0-5.5,0-8.3,0c-0.7,0-1.2-0.2-1.6-0.8
			c-2.3-3.1-3.6-6.5-4.3-10.2c-0.2-1-0.1-1.5,1.2-1.5c11.1,0.1,22.2,0,33.3,0c0.7,0,1.4,0,2-0.1C127.7,101.5,130.1,94.5,125.9,89.5z
			 M27.8,86.6h-3c0.6-0.7,1.1-1.3,1.6-1.9C26.8,85.3,27.3,85.9,27.8,86.6z M14.4,66.1C20,66,24.7,70.7,24.8,76.3
			c0,5.6-4.7,10.4-10.3,10.4c-5.6,0-10.3-4.6-10.3-10.2C4.1,70.9,8.7,66.1,14.4,66.1z M98.7,119.7c3,0,5.2,1.5,6.1,4.1H23.3
			c0.6-2.2,2.8-3.9,5.3-4.1c0.2,0,0.4,0,0.6,0C52.4,119.7,75.5,119.7,98.7,119.7z M43.7,114.9c1.9-3.2,3.2-6.7,3.6-10.5
			c0.1-0.9,0.3-1.3,1.4-1.3c10.3,0.1,20.5,0,30.8,0c0.6,0,1.1-0.1,1.2,0.8c0.4,4.1,1.8,7.9,4,11.6H43.5
			C43.3,115.3,43.6,115.1,43.7,114.9z M123.8,95.5c-0.3,2-1.9,3.4-3.9,3.6c-0.3,0-0.7,0-1,0c-36.6,0-73.2,0-109.7,0
			c-0.9,0-1.7,0-2.5-0.4c-1.7-0.8-2.7-2.6-2.4-4.3c0.4-2,1.9-3.4,3.9-3.5c0.4,0,0.9,0,1.3,0h54.8c18.3,0,36.5,0,54.8,0
			c0.9,0,1.7,0.1,2.5,0.4C123,92,124.1,93.8,123.8,95.5z M82.7,86.6c1-1.7,1.8-3.4,2-5.3c0-0.5,0.4-0.3,0.7-0.4
			c4.1-0.7,8.2-0.5,12.1,1.3c3.3,1.5,6.8,2.9,10.2,4.3c0,0.1,0,0.1,0,0.2H82.7z M123.8,82.9c-0.3,2-1.7,3.3-3.7,3.7
			c-0.9,0.1-1.7-0.2-2.5-0.5c-6-2.5-12.1-4.9-18.1-7.6c-4.8-2.2-9.7-2.5-14.8-1.8c-1.1,0.2-2.3,0.3-3.5,0.4c-0.7,0-0.7,0.3-0.7,0.9
			c0,1.2,0.1,2.4-0.1,3.6c-0.7,3-3,5.1-6.1,5.1c-12.4,0-24.8,0.1-37.2,0c-4.6,0-8.2-3.8-8.2-8.2c0-4.5,3.7-8.2,8.3-8.3
			c10.5-0.1,21.1,0,31.6,0c2,0,3.4,1.3,3.4,3.1c0,1.7-1.4,3.1-3.4,3.1c-8,0-16.1,0-24.1,0c-1,0-1.4,0.1-1.4,1.3c0.1,2.9,0,2.9,3,2.9
			c7.5,0,15-0.2,22.4,0.1c5.2,0.1,9.6-5.2,6.8-10.6c-0.1-0.1-0.1-0.2-0.2-0.5c4.4-0.4,8.6-0.9,12.9-1.2c4.2-0.3,8.2,0.3,12.1,1.9
			c6.9,2.8,13.8,5.7,20.7,8.6C122.9,79.5,124,81.2,123.8,82.9z"/>
		<path d="M47.3,20.6c-1.9,0-1.9,0-1.9,2c0,2.2,0,2.2,2.2,2.2c1.9,0,1.9,0,1.9-2C49.5,20.6,49.5,20.6,47.3,20.6z M55.9,20.6
			c-2.2,0-2.2,0-2.2,2.2c0,1.9,0,1.9,1.9,1.9c2.2,0,2.2,0,2.2-2.2C57.8,20.6,57.8,20.6,55.9,20.6z M64.1,20.6c-2.1,0-2.1,0-2.1,2.1
			c0,2,0,2,2,2c2.1,0,2.1,0,2.1-2.1C66.1,20.6,66.1,20.6,64.1,20.6z M72.2,20.6c-2,0-2,0-2,2c0,2.2,0,2.2,2.1,2.2c2,0,2,0,2-2.1
			C74.3,20.6,74.3,20.6,72.2,20.6z M80.5,20.6c-2.1,0-2.1,0-2.1,2.1c0,2.1,0,2.1,2.1,2.1c2.1,0,2.1,0,2.1-2.1
			C82.6,20.6,82.6,20.6,80.5,20.6z M80.5,20.6c-2.1,0-2.1,0-2.1,2.1c0,2.1,0,2.1,2.1,2.1c2.1,0,2.1,0,2.1-2.1
			C82.6,20.6,82.6,20.6,80.5,20.6z M72.2,20.6c-2,0-2,0-2,2c0,2.2,0,2.2,2.1,2.2c2,0,2,0,2-2.1C74.3,20.6,74.3,20.6,72.2,20.6z
			 M64.1,20.6c-2.1,0-2.1,0-2.1,2.1c0,2,0,2,2,2c2.1,0,2.1,0,2.1-2.1C66.1,20.6,66.1,20.6,64.1,20.6z M55.9,20.6
			c-2.2,0-2.2,0-2.2,2.2c0,1.9,0,1.9,1.9,1.9c2.2,0,2.2,0,2.2-2.2C57.8,20.6,57.8,20.6,55.9,20.6z M47.3,20.6c-1.9,0-1.9,0-1.9,2
			c0,2.2,0,2.2,2.2,2.2c1.9,0,1.9,0,1.9-2C49.5,20.6,49.5,20.6,47.3,20.6z M121.8,28.9c-1.6,0-3.3,0-4.9,0c-0.5,0-1-0.1-1.5-0.3
			c-10.6-5-21.2-10-31.9-15c-0.7-0.3-1.1-0.7-1-1.6c0.1-4,0-8,0-12H45.4c-0.4,0.5-0.3,1-0.3,1.6c0,2.4,0,4.9,0,7.3
			c0,4.1,0,4-3.7,5.7c-8.1,3.7-16.1,7.5-24.1,11.4c-3.5,1.7-6.9,2.8-10.8,2.6C3,28.4,0.8,30.3,0,33.5v3.1c0.4,0.1,0.3,0.6,0.4,0.8
			c1.2,2.4,3,3.8,5.8,3.8c38.6,0,77.1,0,115.7,0c3.4,0,6.1-2.7,6.1-6.1C128,31.7,125.3,28.9,121.8,28.9z M49.5,11.4
			c0.1-2.1,0.1-4.2,0-6.3c0-0.7,0.2-0.9,0.9-0.9c9,0,18.1,0,27.1,0c0.7,0,0.9,0.2,0.9,0.9c0,2.1-0.1,4.2,0,6.3
			c0,0.8-0.2,1.1-1.1,1.1c-4.5,0-8.9,0-13.4,0c-4.5,0-8.9,0-13.4,0C49.7,12.4,49.5,12.2,49.5,11.4z M28.9,25.5
			c6.1-2.9,12.2-5.7,18.3-8.6c0.6-0.3,1.2-0.4,1.8-0.4c10,0,19.9,0,29.9,0c0.7,0,1.3,0.1,2,0.5c8.1,3.8,16.3,7.6,24.4,11.5
			c0.2,0.1,0.3,0.2,0.8,0.5H21.8C24.4,27.7,26.6,26.6,28.9,25.5z M120.2,37.2H7.5c-0.3,0-0.6,0-0.9,0c-1.5,0-2.5-0.9-2.4-2.1
			c0-1.2,1-2,2.5-2c1.5,0,3.1,0,4.6,0h109c2.5,0,3.5,0.6,3.5,2C123.9,36.5,122.8,37.2,120.2,37.2z M80.5,20.6c-2.1,0-2.1,0-2.1,2.1
			c0,2.1,0,2.1,2.1,2.1c2.1,0,2.1,0,2.1-2.1C82.6,20.6,82.6,20.6,80.5,20.6z M72.2,20.6c-2,0-2,0-2,2c0,2.2,0,2.2,2.1,2.2
			c2,0,2,0,2-2.1C74.3,20.6,74.3,20.6,72.2,20.6z M64.1,20.6c-2.1,0-2.1,0-2.1,2.1c0,2,0,2,2,2c2.1,0,2.1,0,2.1-2.1
			C66.1,20.6,66.1,20.6,64.1,20.6z M55.9,20.6c-2.2,0-2.2,0-2.2,2.2c0,1.9,0,1.9,1.9,1.9c2.2,0,2.2,0,2.2-2.2
			C57.8,20.6,57.8,20.6,55.9,20.6z M47.3,20.6c-1.9,0-1.9,0-1.9,2c0,2.2,0,2.2,2.2,2.2c1.9,0,1.9,0,1.9-2
			C49.5,20.6,49.5,20.6,47.3,20.6z"/>
		<path d="M0,78.7c0.7,2.5,1.6,4.9,3.3,6.9c0.5,0.6,1,1.1,1.6,1.7c-2.7,1.1-4,3.3-4.9,5.8C0,88.3,0,83.5,0,78.7z"/>
		<path d="M49.5,22.8c0,2,0,2-1.9,2c-2.2,0-2.2,0-2.2-2.2c0-2,0-2,1.9-2C49.5,20.6,49.5,20.6,49.5,22.8z"/>
		<path d="M57.8,22.6c0,2.2,0,2.2-2.2,2.2c-1.9,0-1.9,0-1.9-1.9c0-2.2,0-2.2,2.2-2.2C57.8,20.6,57.8,20.6,57.8,22.6z"/>
		<path d="M66.1,22.7c0,2.1,0,2.1-2.1,2.1c-2,0-2,0-2-2c0-2.1,0-2.1,2.1-2.1C66.1,20.6,66.1,20.6,66.1,22.7z"/>
		<path d="M74.3,22.7c0,2.1,0,2.1-2,2.1c-2.1,0-2.1,0-2.1-2.2c0-2,0-2,2-2C74.3,20.6,74.3,20.6,74.3,22.7z"/>
		<path d="M82.6,22.7c0,2.1,0,2.1-2.1,2.1c-2.1,0-2.1,0-2.1-2.1c0-2.1,0-2.1,2.1-2.1C82.6,20.6,82.6,20.6,82.6,22.7z"/>
		<path d="M49.5,22.8c0,2,0,2-1.9,2c-2.2,0-2.2,0-2.2-2.2c0-2,0-2,1.9-2C49.5,20.6,49.5,20.6,49.5,22.8z"/>
		<path d="M57.8,22.6c0,2.2,0,2.2-2.2,2.2c-1.9,0-1.9,0-1.9-1.9c0-2.2,0-2.2,2.2-2.2C57.8,20.6,57.8,20.6,57.8,22.6z"/>
		<path d="M66.1,22.7c0,2.1,0,2.1-2.1,2.1c-2,0-2,0-2-2c0-2.1,0-2.1,2.1-2.1C66.1,20.6,66.1,20.6,66.1,22.7z"/>
		<path d="M74.3,22.7c0,2.1,0,2.1-2,2.1c-2.1,0-2.1,0-2.1-2.2c0-2,0-2,2-2C74.3,20.6,74.3,20.6,74.3,22.7z"/>
		<path d="M82.6,22.7c0,2.1,0,2.1-2.1,2.1c-2.1,0-2.1,0-2.1-2.1c0-2.1,0-2.1,2.1-2.1C82.6,20.6,82.6,20.6,82.6,22.7z"/>
	</g>
</g>
</svg>
