<?xml version="1.0" encoding="utf-8"?>
<!-- Generator: Adobe Illustrator 28.0.0, SVG Export Plug-In . SVG Version: 6.00 Build 0)  -->
<svg version="1.1" id="Layer_1" xmlns="http://www.w3.org/2000/svg" xmlns:xlink="http://www.w3.org/1999/xlink" x="0px" y="0px"
	 viewBox="0 0 128 128" style="enable-background:new 0 0 128 128;" xml:space="preserve">
<g id="TCTwns.tif">
	<g>
		<path d="M36.6,99.2c-1.9,0-3.7,0-5.6,0c-8.3,0-15.1-6-16.3-14.2c-0.2-1.5-1.2-2.4-2.4-2.3c-1.3,0.2-2,1.3-1.7,2.8
			c0.9,5.8,3.7,10.5,8.4,14c4.2,3.1,9,4.2,13.6,3.9c1.7,0,2.9,0,4,0c1.6,0,2.6-0.7,2.6-2C39.3,100.1,38.3,99.2,36.6,99.2z
			 M51.6,99.2c-2.7-0.1-5.5-0.1-8.2,0c-1.3,0-2.2,1.1-2.1,2.2c0.1,1.1,1,2,2.3,2c1.3,0,2.6,0,3.9,0c1.3,0,2.7,0,4,0
			c1.3,0,2.2-0.9,2.3-2C53.8,100.3,52.8,99.2,51.6,99.2z M51.6,99.2c-2.7-0.1-5.5-0.1-8.2,0c-1.3,0-2.2,1.1-2.1,2.2
			c0.1,1.1,1,2,2.3,2c1.3,0,2.6,0,3.9,0c1.3,0,2.7,0,4,0c1.3,0,2.2-0.9,2.3-2C53.8,100.3,52.8,99.2,51.6,99.2z M36.6,99.2
			c-1.9,0-3.7,0-5.6,0c-8.3,0-15.1-6-16.3-14.2c-0.2-1.5-1.2-2.4-2.4-2.3c-1.3,0.2-2,1.3-1.7,2.8c0.9,5.8,3.7,10.5,8.4,14
			c4.2,3.1,9,4.2,13.6,3.9c1.7,0,2.9,0,4,0c1.6,0,2.6-0.7,2.6-2C39.3,100.1,38.3,99.2,36.6,99.2z M36.6,99.2c-1.9,0-3.7,0-5.6,0
			c-8.3,0-15.1-6-16.3-14.2c-0.2-1.5-1.2-2.4-2.4-2.3c-1.3,0.2-2,1.3-1.7,2.8c0.9,5.8,3.7,10.5,8.4,14c4.2,3.1,9,4.2,13.6,3.9
			c1.7,0,2.9,0,4,0c1.6,0,2.6-0.7,2.6-2C39.3,100.1,38.3,99.2,36.6,99.2z M51.6,99.2c-2.7-0.1-5.5-0.1-8.2,0c-1.3,0-2.2,1.1-2.1,2.2
			c0.1,1.1,1,2,2.3,2c1.3,0,2.6,0,3.9,0c1.3,0,2.7,0,4,0c1.3,0,2.2-0.9,2.3-2C53.8,100.3,52.8,99.2,51.6,99.2z M51.6,99.2
			c-2.7-0.1-5.5-0.1-8.2,0c-1.3,0-2.2,1.1-2.1,2.2c0.1,1.1,1,2,2.3,2c1.3,0,2.6,0,3.9,0c1.3,0,2.7,0,4,0c1.3,0,2.2-0.9,2.3-2
			C53.8,100.3,52.8,99.2,51.6,99.2z M36.6,99.2c-1.9,0-3.7,0-5.6,0c-8.3,0-15.1-6-16.3-14.2c-0.2-1.5-1.2-2.4-2.4-2.3
			c-1.3,0.2-2,1.3-1.7,2.8c0.9,5.8,3.7,10.5,8.4,14c4.2,3.1,9,4.2,13.6,3.9c1.7,0,2.9,0,4,0c1.6,0,2.6-0.7,2.6-2
			C39.3,100.1,38.3,99.2,36.6,99.2z M127.9,125.4c-0.4-1.1-1.3-1.4-2.4-1.4c-0.3,0-0.5,0-0.8,0c-8.2,0-16.3,0-24.5,0
			c-0.8,0-1.1-0.2-1.1-1.1c0.1-3.4,0.1-6.7,0-10.1c0-1,0.3-1.3,1.2-1.4c3.5-0.3,6.9-1.3,9.9-3c10.2-5.6,15.4-14.3,15.7-25.9
			c0.1-3,0-6.1,0-9.1c0-0.5,0-0.9,0.7-1c0.8-0.3,1.3-1,1.3-1.9c0-2.1,0-4.2,0-6.2c0-1.1-0.7-1.8-1.8-2c-0.5-0.1-1-0.1-1.5-0.1
			c-34.1,0-68.2,0-102.4,0c-1.4,0-1.6-0.4-1.6-1.6c0-12.7,0-25.4,0-38.1c0-1.4,0-2.8,0-4.2c0.1-2.3,1.9-4.4,4.1-5.2
			c2.3-0.8,5.1-0.1,6.5,1.7c0.2,0.2,0.5,0.4,0.1,0.8c-0.5,0.5-0.5,1.2-0.5,1.9c0,1.9,0,3.7,0,5.6c0,0.7-0.1,1.3-0.7,1.8
			c-1.6,1.6-2.6,3.4-3.1,5.6c-0.1,0.4-0.1,0.8-0.8,0.9c-1.1,0.2-1.7,1-1.7,2.1c0.1,1.1,0.8,1.8,1.9,1.9c0.4,0,0.8,0.1,1.2,0.1
			c7.5,0,15,0,22.5,0c0.5,0,1-0.1,1.5-0.1c1.1-0.2,1.7-0.9,1.7-2c0-1-0.5-1.8-1.5-2c-0.6-0.1-0.8-0.4-0.9-1
			c-0.5-2.2-1.5-4.1-3.2-5.7c-0.5-0.5-0.6-0.9-0.6-1.6c0-2,0-4.1,0-6.1c0-1.1-0.5-2-1.6-2.2c-0.9-0.1-1-0.5-1.2-1.2
			C42,4.1,32.1-1.6,22.7,0.6C14,2.7,8.3,10,8.3,18.9c0,13,0,25.9,0,38.9c0,1.1,0,2.3,0,3.4c0,0.7-0.2,0.9-0.9,0.9c-1.5,0-3,0-4.5,0
			c-1.2,0-2.2,0.3-2.8,1.3v7.7c0.3,0.4,0.3,0.9,0.7,1.2c0.9,0.5,0.9,1.3,0.9,2.1c0,2.5,0,4.9,0,7.4c0,5.6,1.3,10.8,4.1,15.6
			c4.8,8.1,12,12.8,21.2,14.3c1.1,0.2,1.4,0.6,1.4,1.6c0,2.8,0,5.7,0,8.5c0,1.7-0.1,1.7-1.8,1.7c-7.5,0-15.1,0-22.6,0
			c-0.5,0-1.1,0-1.6,0c-1.2,0.1-2.1,0.6-2.4,1.8v1.5c0.2,0.4,0.4,0.9,1,1h126C127.8,127.2,128.2,126.4,127.9,125.4z M46.8,30.2
			c0.3,0.9,0,0.9-0.7,0.9c-2.3,0-4.6,0-6.9,0c-2.4,0-4.7,0-7.1,0c-0.8,0-0.8-0.3-0.6-0.9c1-3,4.3-5.4,7.7-5.3
			C42.6,24.9,45.7,27.2,46.8,30.2z M42.1,18.7c1-0.1,1.3,0.3,1.2,1.2c-0.1,1.5,0,1.5-1.4,1.1c-2-0.5-4-0.4-5.9,0.1
			c-0.7,0.2-0.9,0.1-0.8-0.6c0-0.2,0-0.5,0-0.7c-0.1-0.8,0.2-1.2,1.1-1.1c1,0.1,2.1,0,3.1,0C40.2,18.8,41.2,18.8,42.1,18.7z
			 M12.5,19c0-6.7,4.1-12.3,10.1-14c7.4-2.1,14.9,1.5,17.6,8.5c0.4,1,0.1,1.2-0.8,1c-0.1,0-0.3,0-0.4,0c-1.7,0.2-2.9-0.2-4-1.9
			C32.5,8.8,27.9,7.5,23.5,9c-4.1,1.3-7,5.3-7,9.9c0,13.9,0,27.8,0,41.7c0,1.2-0.2,1.6-1.5,1.5c-2.6-0.1-2.6,0-2.6-2.6V39.3
			C12.5,32.5,12.4,25.8,12.5,19z M5.4,68.2c-1.4,0-1.2-0.6-1.2-1.5c0-0.4,0.2-0.6,0.6-0.5c0.2,0,0.4,0,0.6,0c39,0,78,0,117.1,0
			c0.5,0,1.3-0.4,1.3,0.8c0,1-0.2,1.2-1.2,1.2c-19.5,0-39.1,0-58.6,0S24.9,68.2,5.4,68.2z M37.1,114.6c0,1,0,2.1,0,3.1
			c0,1.7,0,3.5,0,5.2c0,0.8-0.2,1-1,1c-3.1,0-3.1,0-3.1-3c0-2.7,0-5.4,0-8.1c0-0.9,0.1-1.3,1.1-1.2c0.9,0.1,2.2-0.3,2.8,0.2
			C37.6,112.4,37.1,113.7,37.1,114.6z M85.6,123.9c-7.2,0-14.5,0-21.7,0c-7.1,0-14.2,0-21.4,0c-1,0-1.3-0.2-1.2-1.2
			c0.1-3.3,0.1-6.7,0-10c0-0.8,0.1-1.1,1.1-1.1c14.4,0,28.9,0,43.3,0c0.8,0,1.1,0.2,1.1,1c-0.1,3.4-0.1,6.8,0,10.2
			C86.7,123.8,86.4,123.9,85.6,123.9z M94,124c-3.1,0-3.1,0-3.1-3.1c0-2.8,0-5.6,0-8.4c0-0.7,0.1-0.9,0.9-0.9
			c3.2-0.1,3.2-0.1,3.2,3.2v3.1c0,1.7,0,3.3,0,5C95,123.6,94.9,124,94,124z M29.8,107.4c-7.6,0-13.6-3.5-18.2-9.5
			c-3.7-4.7-5.3-10.2-5.3-16.1c0-2.7,0-5.5,0-8.2c0-1,0.2-1.1,1.2-1.1c18.9,0,37.7,0,56.6,0c18.8,0,37.7,0,56.5,0
			c1,0,1.3,0.2,1.3,1.3c-0.2,3.9,0.2,7.9-0.3,11.9c-1.3,11-9.9,20.3-20.7,21.7c-1,0.1-1.9,0.2-2.9,0.2
			C75.2,107.4,52.5,107.5,29.8,107.4z M51.6,99.2c-2.7-0.1-5.5-0.1-8.2,0c-1.3,0-2.2,1.1-2.1,2.2c0.1,1.1,1,2,2.3,2
			c1.3,0,2.6,0,3.9,0c1.3,0,2.7,0,4,0c1.3,0,2.2-0.9,2.3-2C53.8,100.3,52.8,99.2,51.6,99.2z M36.6,99.2c-1.9,0-3.7,0-5.6,0
			c-8.3,0-15.1-6-16.3-14.2c-0.2-1.5-1.2-2.4-2.4-2.3c-1.3,0.2-2,1.3-1.7,2.8c0.9,5.8,3.7,10.5,8.4,14c4.2,3.1,9,4.2,13.6,3.9
			c1.7,0,2.9,0,4,0c1.6,0,2.6-0.7,2.6-2C39.3,100.1,38.3,99.2,36.6,99.2z M36.6,99.2c-1.9,0-3.7,0-5.6,0c-8.3,0-15.1-6-16.3-14.2
			c-0.2-1.5-1.2-2.4-2.4-2.3c-1.3,0.2-2,1.3-1.7,2.8c0.9,5.8,3.7,10.5,8.4,14c4.2,3.1,9,4.2,13.6,3.9c1.7,0,2.9,0,4,0
			c1.6,0,2.6-0.7,2.6-2C39.3,100.1,38.3,99.2,36.6,99.2z M51.6,99.2c-2.7-0.1-5.5-0.1-8.2,0c-1.3,0-2.2,1.1-2.1,2.2
			c0.1,1.1,1,2,2.3,2c1.3,0,2.6,0,3.9,0c1.3,0,2.7,0,4,0c1.3,0,2.2-0.9,2.3-2C53.8,100.3,52.8,99.2,51.6,99.2z M51.6,99.2
			c-2.7-0.1-5.5-0.1-8.2,0c-1.3,0-2.2,1.1-2.1,2.2c0.1,1.1,1,2,2.3,2c1.3,0,2.6,0,3.9,0c1.3,0,2.7,0,4,0c1.3,0,2.2-0.9,2.3-2
			C53.8,100.3,52.8,99.2,51.6,99.2z M36.6,99.2c-1.9,0-3.7,0-5.6,0c-8.3,0-15.1-6-16.3-14.2c-0.2-1.5-1.2-2.4-2.4-2.3
			c-1.3,0.2-2,1.3-1.7,2.8c0.9,5.8,3.7,10.5,8.4,14c4.2,3.1,9,4.2,13.6,3.9c1.7,0,2.9,0,4,0c1.6,0,2.6-0.7,2.6-2
			C39.3,100.1,38.3,99.2,36.6,99.2z M36.6,99.2c-1.9,0-3.7,0-5.6,0c-8.3,0-15.1-6-16.3-14.2c-0.2-1.5-1.2-2.4-2.4-2.3
			c-1.3,0.2-2,1.3-1.7,2.8c0.9,5.8,3.7,10.5,8.4,14c4.2,3.1,9,4.2,13.6,3.9c1.7,0,2.9,0,4,0c1.6,0,2.6-0.7,2.6-2
			C39.3,100.1,38.3,99.2,36.6,99.2z M51.6,99.2c-2.7-0.1-5.5-0.1-8.2,0c-1.3,0-2.2,1.1-2.1,2.2c0.1,1.1,1,2,2.3,2c1.3,0,2.6,0,3.9,0
			c1.3,0,2.7,0,4,0c1.3,0,2.2-0.9,2.3-2C53.8,100.3,52.8,99.2,51.6,99.2z M51.6,99.2c-2.7-0.1-5.5-0.1-8.2,0c-1.3,0-2.2,1.1-2.1,2.2
			c0.1,1.1,1,2,2.3,2c1.3,0,2.6,0,3.9,0c1.3,0,2.7,0,4,0c1.3,0,2.2-0.9,2.3-2C53.8,100.3,52.8,99.2,51.6,99.2z M36.6,99.2
			c-1.9,0-3.7,0-5.6,0c-8.3,0-15.1-6-16.3-14.2c-0.2-1.5-1.2-2.4-2.4-2.3c-1.3,0.2-2,1.3-1.7,2.8c0.9,5.8,3.7,10.5,8.4,14
			c4.2,3.1,9,4.2,13.6,3.9c1.7,0,2.9,0,4,0c1.6,0,2.6-0.7,2.6-2C39.3,100.1,38.3,99.2,36.6,99.2z"/>
		<path d="M39.2,101.4c0,1.3-1,2-2.6,2c-1.2,0-2.3,0-4,0c-4.6,0.3-9.4-0.8-13.6-3.9c-4.8-3.5-7.5-8.2-8.4-14
			c-0.2-1.5,0.5-2.6,1.7-2.8c1.2-0.2,2.2,0.7,2.4,2.3c1.1,8.3,7.9,14.2,16.3,14.2c1.9,0,3.7,0,5.6,0
			C38.3,99.2,39.3,100.1,39.2,101.4z"/>
		<path d="M53.7,101.4c-0.1,1.1-1,2-2.3,2c-1.3,0-2.7,0-4,0c-1.3,0-2.6,0-3.9,0c-1.3,0-2.2-0.9-2.3-2c-0.1-1.1,0.8-2.2,2.1-2.2
			c2.7-0.1,5.5-0.1,8.2,0C52.8,99.2,53.8,100.3,53.7,101.4z"/>
		<path d="M39.2,101.4c0,1.3-1,2-2.6,2c-1.2,0-2.3,0-4,0c-4.6,0.3-9.4-0.8-13.6-3.9c-4.8-3.5-7.5-8.2-8.4-14
			c-0.2-1.5,0.5-2.6,1.7-2.8c1.2-0.2,2.2,0.7,2.4,2.3c1.1,8.3,7.9,14.2,16.3,14.2c1.9,0,3.7,0,5.6,0
			C38.3,99.2,39.3,100.1,39.2,101.4z"/>
		<path d="M53.7,101.4c-0.1,1.1-1,2-2.3,2c-1.3,0-2.7,0-4,0c-1.3,0-2.6,0-3.9,0c-1.3,0-2.2-0.9-2.3-2c-0.1-1.1,0.8-2.2,2.1-2.2
			c2.7-0.1,5.5-0.1,8.2,0C52.8,99.2,53.8,100.3,53.7,101.4z"/>
	</g>
</g>
</svg>
