<?xml version="1.0" encoding="utf-8"?>
<!-- Generator: Adobe Illustrator 28.0.0, SVG Export Plug-In . SVG Version: 6.00 Build 0)  -->
<svg version="1.1" id="Layer_1" xmlns="http://www.w3.org/2000/svg" xmlns:xlink="http://www.w3.org/1999/xlink" x="0px" y="0px"
	 viewBox="0 0 128 128" style="enable-background:new 0 0 128 128;" xml:space="preserve">
<g>
	<path d="M55.8,39.1l18.6,18.6c0.8,0.8,2,1,3,0.5c1-0.5,1.6-1.6,1.4-2.7c-0.6-4.7-2-9.1-4.1-13.4c-2.1-4.2-4.8-8-8.2-11.3l-1.2-1.2
		l0.7-0.7c1.4-1.4,1.6-3.6,0.6-5.2l4-8.1c0.7-1.5,0.4-3.3-0.7-4.5l-2.1-2.1c-1.2-1.2-3-1.5-4.5-0.7l-8.1,4c-1.6-1-3.8-0.8-5.2,0.6
		l-0.7,0.7l-1.2-1.2C41.5,5.7,32.7,1.3,23.4,0c-1.2-0.2-2.3,0.5-2.8,1.6c-0.4,1-0.2,2.1,0.6,2.9l18.6,18.6c-1.2,1.3-1.4,3.2-0.7,4.7
		L27,41.4c-0.7,0.8-0.6,2,0.2,2.6c0.8,0.7,2,0.6,2.6-0.2l11.8-13.3l6.6,6.6L5.8,74.8c-0.5,0.4-1.2,0.4-1.7-0.1
		c-0.5-0.5-0.5-1.2-0.1-1.7l20-22.6c0.7-0.8,0.6-2-0.2-2.6c-0.8-0.7-2-0.6-2.6,0.2l-20,22.6c-1.7,2-1.7,5,0.2,6.8
		c1.9,1.9,4.9,2,6.8,0.2l42.8-37.9c0.6,0.3,1.2,0.4,1.9,0.4C54,40.2,55,39.8,55.8,39.1L55.8,39.1z M71.4,43.7
		c1.4,2.8,2.4,5.7,3.1,8.7l-16-16l4.2-4.2l1.2,1.2C66.9,36.4,69.4,39.9,71.4,43.7L71.4,43.7z M65,11.5c0,0,0.1,0,0.1,0l2.1,2.1
		c0,0,0,0.1,0,0.1l-3.4,6.9L58.1,15L65,11.5z M26.4,4.4c7.2,1.7,13.8,5.4,19,10.6l1.2,1.2l-4.2,4.2L26.4,4.4z M42.6,26.2
		c-0.2-0.2-0.2-0.4,0-0.6l10.1-10.1c0.2-0.2,0.4-0.2,0.6,0l10.1,10.1c0.2,0.2,0.2,0.4,0,0.6L53.3,36.3c-0.2,0.2-0.4,0.2-0.6,0
		L42.6,26.2z M84.2,68.3c0.7,0.7,1.9,0.7,2.7,0c0.7-0.7,0.7-1.9,0-2.7l-4.8-4.8c-0.7-0.7-1.9-0.7-2.7,0c-0.7,0.7-0.7,1.9,0,2.7
		L84.2,68.3z M92,59.8c1,0.3,2-0.3,2.3-1.3c0.3-1-0.3-2-1.3-2.3L85.6,54c-1-0.3-2,0.3-2.3,1.3c-0.3,1,0.3,2,1.3,2.3L92,59.8z
		 M73.9,64.7c-1,0.3-1.6,1.3-1.3,2.3l2.2,7.5c0.3,1,1.3,1.6,2.3,1.3c1-0.3,1.6-1.3,1.3-2.3l-2.2-7.5C75.9,64.9,74.9,64.4,73.9,64.7
		L73.9,64.7z M106.8,81.1c0,1,0.8,1.9,1.9,1.9s1.9-0.8,1.9-1.9c0-1-0.8-1.9-1.9-1.9S106.8,80.1,106.8,81.1z M97.5,93.5
		c0-4.5-3.7-8.2-8.2-8.2c-4.5,0-8.2,3.7-8.2,8.2s3.7,8.2,8.2,8.2C93.8,101.8,97.5,98,97.5,93.5z M84.7,93.5c0-2.5,2-4.5,4.5-4.5
		s4.5,2,4.5,4.5s-2,4.5-4.5,4.5S84.7,96,84.7,93.5z M120.1,54.9c0-3.1-2.5-5.6-5.6-5.6c-3.1,0-5.6,2.5-5.6,5.6
		c0,3.1,2.5,5.6,5.6,5.6C117.6,60.5,120.1,58,120.1,54.9z M114.5,56.8c-1,0-1.9-0.8-1.9-1.9c0-1,0.8-1.9,1.9-1.9s1.9,0.8,1.9,1.9
		C116.4,55.9,115.5,56.8,114.5,56.8z M84.3,118.6c0,1,0.8,1.9,1.9,1.9s1.9-0.8,1.9-1.9s-0.8-1.9-1.9-1.9S84.3,117.6,84.3,118.6z
		 M111.6,8c-3.1,0-5.6,2.5-5.6,5.6s2.5,5.6,5.6,5.6s5.6-2.5,5.6-5.6S114.7,8,111.6,8z M111.6,15.5c-1,0-1.9-0.8-1.9-1.9
		s0.8-1.9,1.9-1.9s1.9,0.8,1.9,1.9S112.7,15.5,111.6,15.5z M126.1,53.6c1,0,1.9-0.8,1.9-1.9V5.6c0-3.1-2.5-5.6-5.6-5.6H84.7
		c-3.4,0-5.2,4-3.1,6.6L101,30.8c0.6,0.7,0.8,1.6,0.8,2.5l-2.4,34.5c-0.1,1.3-0.9,2.5-2.2,3L72.1,81.3c-3.3,1.4-5.1,5-4.3,8.5
		l2.9,11.7c0.3,1.2-0.1,2.6-1,3.4l-17,16.1c-2.6,2.5-0.8,7,2.8,7h66.8c3.1,0,5.6-2.5,5.6-5.6V60.5c0-1-0.8-1.9-1.9-1.9
		s-1.9,0.8-1.9,1.9v61.9c0,1-0.8,1.9-1.9,1.9H55.6c-0.2,0-0.4-0.4-0.2-0.5l17-16.1c1.9-1.8,2.7-4.5,2.1-7.1l-2.9-11.7
		c-0.4-1.7,0.4-3.4,2.1-4.1l25.1-10.5c2.6-1.1,4.3-3.5,4.5-6.2l2.4-34.5c0.1-1.8-0.4-3.6-1.6-5.1L84.4,4.2c-0.1-0.1,0-0.5,0.2-0.5
		h37.7c1,0,1.9,0.8,1.9,1.9v46.1C124.2,52.8,125.1,53.6,126.1,53.6L126.1,53.6z M111.6,113c3.1,0,5.6-2.5,5.6-5.6
		c0-3.1-2.5-5.6-5.6-5.6s-5.6,2.5-5.6,5.6C106,110.5,108.5,113,111.6,113z M111.6,105.5c1,0,1.9,0.8,1.9,1.9c0,1-0.8,1.9-1.9,1.9
		s-1.9-0.8-1.9-1.9C109.7,106.3,110.6,105.5,111.6,105.5z M114.3,36.1c0,1,0.8,1.9,1.9,1.9c1,0,1.9-0.8,1.9-1.9c0-1-0.8-1.9-1.9-1.9
		C115.1,34.3,114.3,35.1,114.3,36.1z"/>
</g>
</svg>
