<?xml version="1.0" encoding="utf-8"?>
<!-- Generator: Adobe Illustrator 28.0.0, SVG Export Plug-In . SVG Version: 6.00 Build 0)  -->
<svg version="1.1" id="Layer_1" xmlns="http://www.w3.org/2000/svg" xmlns:xlink="http://www.w3.org/1999/xlink" x="0px" y="0px"
	 viewBox="0 0 128 128" style="enable-background:new 0 0 128 128;" xml:space="preserve">
<g id="DB6Rav.tif">
	<g>
		<path d="M32,82.6c-5.4,0-10,4.5-10,10c0,5.4,4.2,10,10,10.1c5.5,0.1,10-4.6,10-10C42,87.2,37.5,82.6,32,82.6z M31.9,97.6
			c-2.7,0-4.9-2.2-4.9-4.9c0-2.7,2.2-5,5-4.9c2.7,0,4.9,2.2,5,4.9C37,95.3,34.7,97.6,31.9,97.6z"/>
		<path d="M44.5,15.5c-5.5,0-10,4.4-10,9.9c0,5.6,4.5,10.1,10,10.1c5.4,0,10-4.6,10-10C54.5,20,50,15.5,44.5,15.5z M44.5,30.4
			c-2.7,0-5-2.4-5-5c0-2.7,2.3-4.9,5-4.9c2.7,0,5,2.3,5,5C49.4,28.2,47.1,30.4,44.5,30.4z"/>
		<path d="M57,97.6c-5.5,0-10,4.5-10,10c0,5.5,4.4,10.1,9.9,10.1c5.7,0,10-4.4,10.1-10C67,102.2,62.4,97.6,57,97.6z M56.9,112.6
			c-2.7,0-4.9-2.3-4.9-5c0-2.8,2.3-4.9,5.1-4.9c2.7,0,4.9,2.3,4.9,4.9C61.9,110.4,59.7,112.6,56.9,112.6z"/>
		<path d="M86.9,73.3c-1.1,5.2-4.3,8.8-8.7,11.4c-4.1,2.3-8.5,3.4-13.2,3.4c-6.4-0.1-12.1-2-16.8-6.6c-0.9-0.9-1.4-1.9-0.9-3.1
			c0.7-1.8,2.8-2,4.3-0.5c1.8,1.8,3.9,3.1,6.2,4c7.2,2.7,16.9,0.9,21.6-4.6c1.3-1.6,2.1-3.3,2.5-5.3c0.2-1.1,0.9-1.9,2-2.1
			c1-0.2,1.9,0.1,2.5,1C87.1,71.5,87.1,72.4,86.9,73.3z"/>
		<path d="M87,59c0,1.4-1.1,2.5-2.5,2.5C83,61.5,82,60.4,82,59c0-1.4,1.2-2.5,2.6-2.4C85.9,56.6,87,57.7,87,59z"/>
		<path d="M87,92.6c-5.8,0-10,4.6-10,9.9c-0.1,5.4,4.1,10.1,10,10.1c5.8,0,9.9-4.5,10-10C97,97.2,92.5,92.6,87,92.6z M86.9,107.6
			c-2.7,0-4.9-2.2-4.9-4.9c0-2.7,2.2-4.9,5-4.9c2.7,0,4.9,2.2,4.9,4.9C92,105.3,89.7,107.6,86.9,107.6z"/>
		<path d="M107,67.6c-5.5,0-10,4.5-10,10c0,5.5,4.4,10.1,9.9,10c5.7,0,10-4.4,10.1-10.1C117,72.2,112.4,67.6,107,67.6z M106.9,82.6
			c-2.7,0-4.9-2.2-5-4.9c0-2.7,2.2-5,5-5c2.7,0,4.9,2.2,5,4.9C112,80.3,109.7,82.6,106.9,82.6z"/>
		<path d="M126.7,62.7c-2.3-12.2-9.4-20.3-21.3-24.1c-1.2-0.4-2.5-0.7-3.9-1c0.5-0.3,0.8-0.6,1.2-0.8c6.5-4.5,12.9-9.3,18.5-15
			c2.2-2.3,4.3-4.6,5.4-7.7c1.1-3,0-5.9-2.8-6.9c-1.4-0.5-2.9-0.7-4.4-0.6c-3.1,0.2-6.1,0.9-9.1,1.8c-9.8,3-19.1,7.4-28.1,12.2
			c-4.2,2.2-8.4,4.5-12.4,7.1c-0.7,0.5-1.1,0.5-1.3-0.5c-0.4-1.9-0.4-3.8,0-5.7c0.6-2.5,2-4.6,3.4-6.7c1.3-1.9,2.1-4,1.8-6.3
			C73,3.6,69.3,0.2,64.4,0c-4.3-0.2-8.5,0.2-12.6,1.1c-10.1,2.1-19.3,6.3-27.2,13C4.8,30.7-3,51.8,1.9,77.1
			c3,15.7,11.5,28.4,24.2,38c8.6,6.5,18.3,10.5,28.9,12.2c1.5,0.2,3,0.2,4.5,0.7h2c0.6-0.2,1.2-0.2,1.7,0h2.5
			c0.4-0.3,0.8-0.1,1.3-0.1h0c0,0,0.1,0,0.1,0c0.4,0,0.8-0.1,1.2,0.1h1.5c0.1-0.3,0.3-0.2,0.5-0.2c2.1,0,4.2-0.4,6.3-0.7
			c17.3-3,31.3-11.4,41.2-26C125.5,89.5,129.3,76.7,126.7,62.7z M83.5,25.6c8.9-4.8,18-9.1,27.7-12.2c2.9-0.9,5.8-1.7,8.9-1.8
			c0.6,0,1.4-0.1,1.7,0.3c0.3,0.5-0.2,1.1-0.5,1.6c-1.8,3-4.3,5.4-6.9,7.7C102,32,88,40.5,73.5,48c-0.4,0.2-0.8,0.6-1.1-0.2
			c-1.5-4.3-3.8-8.2-6.8-11.7C71.5,32.4,77.4,28.8,83.5,25.6z M67.5,51c-5.6,2.6-11.3,5-17.3,6.8c-0.7,0.2-0.8,0-0.9-0.5
			c-0.5-2.1-1.6-3.8-3-5.3c-0.4-0.4-0.4-0.6,0-1c4.6-4.2,9.5-7.9,14.6-11.5c0.2-0.1,0.3-0.2,0.6-0.4c0.1,0.2,0.2,0.3,0.4,0.5
			c2.7,3.1,4.7,6.7,6.1,10.6C68.1,50.6,67.9,50.8,67.5,51z M117.7,90.8c-7.8,16-20.6,26.2-37.8,30.3c-19,4.6-36.6,1.1-52-11
			C16.2,100.9,9.1,88.8,6.5,74.2c-2.3-12.7-0.7-24.9,5.1-36.5c5.2-10.3,12.8-18.4,22.6-24.4c6.6-4,13.7-6.7,21.3-7.7
			c3-0.4,6-0.8,9.1-0.4c3.5,0.5,5,3.6,3,6.6c-1.8,2.8-3.6,5.6-4.3,8.9c-0.6,3.1-0.6,6.1,0.5,9.1c0.3,0.9,0.2,1.3-0.6,1.9
			c-7.6,4.9-14.9,10.2-21.4,16.5c-0.3,0.3-0.5,0.6-1.2,0.4c-6.1-1.6-10.7,0.7-14.2,5.6c-3.4,4.7-6.2,9.8-8.7,15.1
			c-1,2,0.2,3.8,2.5,3.9c2.8,0.1,5.6,0.4,8.1,0.3c4.2,0.1,8-0.1,11.8-0.9c4.7-1,7.5-4,9-8.4c0.2-0.6,0.4-1,1.1-1.2
			c14.3-4.2,27.5-11,40.2-18.8c3.4-2.1,6.5-2.5,10.2-1.7c11.9,2.4,19.6,10.6,21.3,22.6C123.3,74.2,121.6,82.7,117.7,90.8z
			 M42.1,66.3c-1.1,0.9-2.3,1.4-3.6,1.5c-4.8,0.7-9.6,0.8-14.5,0.4c2.4-4.5,4.8-8.9,8.1-12.8c2.7-3.1,7.7-3.1,10.6,0
			C45.6,58.6,45.3,63.7,42.1,66.3z"/>
		<path d="M61.5,128c0.6-0.4,1.2-0.4,1.7,0C62.7,128,62.1,128,61.5,128z"/>
		<path d="M65.7,128c0.4-0.4,0.8-0.2,1.3-0.2c0.1,0.1,0.1,0.1,0.1,0.2C67,128,67,128,67,128C66.6,128,66.2,128,65.7,128z"/>
		<path d="M67,128c0-0.1,0-0.2,0-0.2c0.4,0.1,0.9-0.2,1.2,0.2C67.8,128,67.4,128,67,128z"/>
		<path d="M32,82.6c-5.4,0-10,4.5-10,10c0,5.4,4.2,10,10,10.1c5.5,0.1,10-4.6,10-10C42,87.2,37.5,82.6,32,82.6z M31.9,97.6
			c-2.7,0-4.9-2.2-4.9-4.9c0-2.7,2.2-5,5-4.9c2.7,0,4.9,2.2,5,4.9C37,95.3,34.7,97.6,31.9,97.6z"/>
		<path d="M44.5,15.5c-5.5,0-10,4.4-10,9.9c0,5.6,4.5,10.1,10,10.1c5.4,0,10-4.6,10-10C54.5,20,50,15.5,44.5,15.5z M44.5,30.4
			c-2.7,0-5-2.4-5-5c0-2.7,2.3-4.9,5-4.9c2.7,0,5,2.3,5,5C49.4,28.2,47.1,30.4,44.5,30.4z"/>
		<path d="M57,97.6c-5.5,0-10,4.5-10,10c0,5.5,4.4,10.1,9.9,10.1c5.7,0,10-4.4,10.1-10C67,102.2,62.4,97.6,57,97.6z M56.9,112.6
			c-2.7,0-4.9-2.3-4.9-5c0-2.8,2.3-4.9,5.1-4.9c2.7,0,4.9,2.3,4.9,4.9C61.9,110.4,59.7,112.6,56.9,112.6z"/>
		<path d="M86.9,73.3c-1.1,5.2-4.3,8.8-8.7,11.4c-4.1,2.3-8.5,3.4-13.2,3.4c-6.4-0.1-12.1-2-16.8-6.6c-0.9-0.9-1.4-1.9-0.9-3.1
			c0.7-1.8,2.8-2,4.3-0.5c1.8,1.8,3.9,3.1,6.2,4c7.2,2.7,16.9,0.9,21.6-4.6c1.3-1.6,2.1-3.3,2.5-5.3c0.2-1.1,0.9-1.9,2-2.1
			c1-0.2,1.9,0.1,2.5,1C87.1,71.5,87.1,72.4,86.9,73.3z"/>
		<path d="M87,59c0,1.4-1.1,2.5-2.5,2.5C83,61.5,82,60.4,82,59c0-1.4,1.2-2.5,2.6-2.4C85.9,56.6,87,57.7,87,59z"/>
		<path d="M87,92.6c-5.8,0-10,4.6-10,9.9c-0.1,5.4,4.1,10.1,10,10.1c5.8,0,9.9-4.5,10-10C97,97.2,92.5,92.6,87,92.6z M86.9,107.6
			c-2.7,0-4.9-2.2-4.9-4.9c0-2.7,2.2-4.9,5-4.9c2.7,0,4.9,2.2,4.9,4.9C92,105.3,89.7,107.6,86.9,107.6z"/>
		<path d="M107,67.6c-5.5,0-10,4.5-10,10c0,5.5,4.4,10.1,9.9,10c5.7,0,10-4.4,10.1-10.1C117,72.2,112.4,67.6,107,67.6z M106.9,82.6
			c-2.7,0-4.9-2.2-5-4.9c0-2.7,2.2-5,5-5c2.7,0,4.9,2.2,5,4.9C112,80.3,109.7,82.6,106.9,82.6z"/>
		<path d="M44.5,15.5c-5.5,0-10,4.4-10,9.9c0,5.6,4.5,10.1,10,10.1c5.4,0,10-4.6,10-10C54.5,20,50,15.5,44.5,15.5z M44.5,30.4
			c-2.7,0-5-2.4-5-5c0-2.7,2.3-4.9,5-4.9c2.7,0,5,2.3,5,5C49.4,28.2,47.1,30.4,44.5,30.4z"/>
		<path d="M107,67.6c-5.5,0-10,4.5-10,10c0,5.5,4.4,10.1,9.9,10c5.7,0,10-4.4,10.1-10.1C117,72.2,112.4,67.6,107,67.6z M106.9,82.6
			c-2.7,0-4.9-2.2-5-4.9c0-2.7,2.2-5,5-5c2.7,0,4.9,2.2,5,4.9C112,80.3,109.7,82.6,106.9,82.6z"/>
		<path d="M32,82.6c-5.4,0-10,4.5-10,10c0,5.4,4.2,10,10,10.1c5.5,0.1,10-4.6,10-10C42,87.2,37.5,82.6,32,82.6z M31.9,97.6
			c-2.7,0-4.9-2.2-4.9-4.9c0-2.7,2.2-5,5-4.9c2.7,0,4.9,2.2,5,4.9C37,95.3,34.7,97.6,31.9,97.6z"/>
		<path d="M87,92.6c-5.8,0-10,4.6-10,9.9c-0.1,5.4,4.1,10.1,10,10.1c5.8,0,9.9-4.5,10-10C97,97.2,92.5,92.6,87,92.6z M86.9,107.6
			c-2.7,0-4.9-2.2-4.9-4.9c0-2.7,2.2-4.9,5-4.9c2.7,0,4.9,2.2,4.9,4.9C92,105.3,89.7,107.6,86.9,107.6z"/>
		<path d="M57,97.6c-5.5,0-10,4.5-10,10c0,5.5,4.4,10.1,9.9,10.1c5.7,0,10-4.4,10.1-10C67,102.2,62.4,97.6,57,97.6z M56.9,112.6
			c-2.7,0-4.9-2.3-4.9-5c0-2.8,2.3-4.9,5.1-4.9c2.7,0,4.9,2.3,4.9,4.9C61.9,110.4,59.7,112.6,56.9,112.6z"/>
		<path d="M86.9,73.3c-1.1,5.2-4.3,8.8-8.7,11.4c-4.1,2.3-8.5,3.4-13.2,3.4c-6.4-0.1-12.1-2-16.8-6.6c-0.9-0.9-1.4-1.9-0.9-3.1
			c0.7-1.8,2.8-2,4.3-0.5c1.8,1.8,3.9,3.1,6.2,4c7.2,2.7,16.9,0.9,21.6-4.6c1.3-1.6,2.1-3.3,2.5-5.3c0.2-1.1,0.9-1.9,2-2.1
			c1-0.2,1.9,0.1,2.5,1C87.1,71.5,87.1,72.4,86.9,73.3z"/>
		<path d="M87,59c0,1.4-1.1,2.5-2.5,2.5C83,61.5,82,60.4,82,59c0-1.4,1.2-2.5,2.6-2.4C85.9,56.6,87,57.7,87,59z"/>
	</g>
</g>
</svg>
