<?xml version="1.0" encoding="utf-8"?>
<!-- Generator: Adobe Illustrator 27.9.0, SVG Export Plug-In . SVG Version: 6.00 Build 0)  -->
<svg version="1.1" id="Layer_1" xmlns="http://www.w3.org/2000/svg" xmlns:xlink="http://www.w3.org/1999/xlink" x="0px" y="0px"
	 viewBox="0 0 128 128" style="enable-background:new 0 0 128 128;" xml:space="preserve">
<g>
	<path d="M108.71,110.9L81.64,44.92c-1.5-3.66-2.26-7.52-2.26-11.48V16c0-1.88,0.73-3.64,2.06-4.97c1.62-1.62,2.51-3.77,2.51-6.06
		V2.5c0-1.38-1.12-2.5-2.5-2.5H46.55c-1.38,0-2.5,1.12-2.5,2.5v2.47c0,2.29,0.89,4.44,2.51,6.06c1.33,1.33,2.06,3.09,2.06,4.97
		v17.44c0,3.96-0.76,7.82-2.26,11.48l-7.44,18.13c0,0.01-0.01,0.01-0.01,0.02L19.29,110.9c-1.57,3.83-1.13,8.17,1.17,11.61
		c2.31,3.44,6.16,5.49,10.3,5.49h66.48c4.14,0,7.99-2.05,10.3-5.49C109.84,119.07,110.28,114.73,108.71,110.9z M50.98,46.82
		c1.75-4.26,2.64-8.76,2.64-13.38V16c0-3.21-1.25-6.23-3.52-8.51c-0.67-0.67-1.04-1.55-1.05-2.5h29.91
		c-0.01,0.94-0.38,1.83-1.05,2.5c-2.27,2.27-3.52,5.29-3.52,8.51v17.44c0,4.61,0.89,9.11,2.64,13.38l6.04,14.71H44.95L50.98,46.82z
		 M103.39,119.72c-1.4,2.08-3.64,3.28-6.14,3.28H30.76c-2.51,0-4.75-1.19-6.14-3.28c-1.05-1.57-1.46-3.39-1.18-5.19h4.12
		c1.38,0,2.5-1.12,2.5-2.5c0-1.38-1.12-2.5-2.5-2.5h-2.3l2.87-7h4.22c1.38,0,2.5-1.12,2.5-2.5c0-1.38-1.12-2.5-2.5-2.5h-2.17l2.87-7
		h4.34c1.38,0,2.5-1.12,2.5-2.5c0-1.38-1.12-2.5-2.5-2.5H35.1l2.87-7h4.45c1.38,0,2.5-1.12,2.5-2.5c0-1.38-1.12-2.5-2.5-2.5h-2.4
		l2.87-7h42.21l18.98,46.26C105.04,115.12,104.78,117.64,103.39,119.72z"/>
	<path d="M96.37,111.05c-0.52-1.28-1.98-1.89-3.26-1.37c-1.28,0.52-1.89,1.98-1.37,3.26l0.01,0.03c0.4,0.97,1.33,1.55,2.31,1.55
		c0.32,0,0.64-0.06,0.95-0.19c1.28-0.52,1.89-1.98,1.37-3.26L96.37,111.05z"/>
	<path d="M92.83,102.44l-8.95-21.82c-0.52-1.28-1.98-1.89-3.26-1.36c-1.28,0.52-1.89,1.98-1.36,3.26l8.95,21.82
		c0.4,0.97,1.33,1.55,2.31,1.55c0.32,0,0.64-0.06,0.95-0.19C92.75,105.18,93.36,103.72,92.83,102.44z"/>
</g>
</svg>
