<?xml version="1.0" encoding="utf-8"?>
<!-- Generator: Adobe Illustrator 27.9.0, SVG Export Plug-In . SVG Version: 6.00 Build 0)  -->
<svg version="1.1" id="Layer_1" xmlns="http://www.w3.org/2000/svg" xmlns:xlink="http://www.w3.org/1999/xlink" x="0px" y="0px"
	 viewBox="0 0 128 128" style="enable-background:new 0 0 128 128;" xml:space="preserve">
<g>
	<path d="M127.79,94.13c0-0.04,0.03-0.08,0.03-0.12c0-0.02-0.01-0.04-0.01-0.06c0.12-1.63,0.2-3.27,0.2-4.94
		c0-3.79-0.32-7.48-0.91-11.01c0-0.01,0-0.01,0-0.02c0-0.18-0.06-0.33-0.1-0.5c-1.8-10.15-5.92-18.83-11.55-24.09
		c0.34-0.36,0.56-0.85,0.56-1.38V40.03c0-1.11-0.89-2-2-2H92c-1.11,0-2,0.89-2,2v11.99c0,0.54,0.21,1.03,0.56,1.39
		C85,58.6,80.9,67.16,79.07,77.17c-0.11,0.25-0.18,0.52-0.18,0.82c0,0.03,0.01,0.05,0.02,0.08c-0.59,3.51-0.9,7.18-0.9,10.95
		c0,1.64,0.08,3.26,0.19,4.85c0,0.05-0.03,0.09-0.03,0.14c0,0.11,0.05,0.2,0.06,0.31c0.46,5.84,1.66,11.36,3.49,16.23
		c0.04,0.16,0.1,0.31,0.18,0.46c2.96,7.66,7.43,13.67,12.89,16.74c0.3,0.17,0.64,0.26,0.98,0.26h14.47c0.34,0,0.68-0.09,0.98-0.26
		c5.48-3.08,9.96-9.13,12.92-16.83c0.04-0.08,0.07-0.17,0.1-0.26C126.11,105.71,127.33,100.09,127.79,94.13z M93.27,74.3
		c-0.18-0.62-0.11-1.26,0.21-1.81c0.32-0.55,0.84-0.94,1.47-1.09c0.72-0.18,1.29-0.74,1.46-1.47c0.15-0.63,0.54-1.15,1.09-1.46
		c0.55-0.32,1.2-0.39,1.81-0.21c0.72,0.21,1.49,0,2.01-0.54c0.89-0.93,2.46-0.93,3.35,0c0.52,0.54,1.29,0.75,2,0.54
		c0.63-0.18,1.27-0.11,1.82,0.21c0.55,0.32,0.94,0.84,1.09,1.47c0.18,0.72,0.74,1.28,1.46,1.46c0.63,0.15,1.15,0.54,1.47,1.09
		c0.32,0.55,0.39,1.19,0.21,1.81c-0.17,0.58-0.05,1.19,0.28,1.68h-3.35c-0.87-2.88-3.51-5-6.67-5c-3.16,0-5.81,2.12-6.67,5h-3.34
		C93.32,75.5,93.44,74.88,93.27,74.3z M105.22,75.99h-4.44c0.55-0.61,1.34-1,2.22-1C103.88,74.99,104.67,75.38,105.22,75.99z
		 M123.36,79.99c0.42,2.9,0.64,5.93,0.64,9.02c0,1.01-0.02,2.01-0.07,3H82.07c-0.05-0.99-0.07-1.99-0.07-3
		c0-3.1,0.22-6.12,0.64-9.02H123.36z M82.39,96.01h41.21c-0.47,4.29-1.36,8.36-2.61,12.02H85.01
		C83.75,104.37,82.87,100.3,82.39,96.01z M96.75,53.76c0.79-0.45,1.19-1.37,0.96-2.25c-0.23-0.88-1.03-1.49-1.94-1.49H94v-7.99h18
		v7.99h-1.76c-0.91,0-1.71,0.61-1.94,1.49c-0.23,0.88,0.16,1.8,0.96,2.25c6.33,3.56,11.15,11.86,13.38,22.22h-4.96
		c-0.2-0.6-0.49-1.18-0.87-1.7c0.14-1.31-0.14-2.63-0.81-3.8c-0.67-1.17-1.68-2.06-2.88-2.6c-0.54-1.21-1.44-2.21-2.6-2.88
		c-1.17-0.68-2.49-0.96-3.8-0.81c-2.14-1.55-5.26-1.56-7.39,0c-1.31-0.14-2.63,0.14-3.8,0.81c-1.17,0.67-2.06,1.68-2.6,2.88
		c-1.21,0.54-2.22,1.44-2.89,2.6c-0.68,1.17-0.95,2.48-0.81,3.8c-0.38,0.52-0.67,1.1-0.87,1.7h-4.96
		C85.59,65.63,90.42,57.32,96.75,53.76z M109.7,124H96.3c-3.92-2.37-7.24-6.59-9.7-11.97h32.78
		C116.94,117.41,113.62,121.63,109.7,124z"/>
	<path d="M73.98,90.01c0-0.03-0.01-0.05-0.01-0.07C73.65,79,68.54,68.81,60,62.03v-0.02v-8c0-1.11-0.89-2-2-2H38V41.84
		c6.77-0.98,12-6.8,12-13.84v-2.26c3.44-0.9,6-4,6-7.71c0-1.11-0.89-2-2-2c-1.11,0-2,0.89-2,2c0,1.47-0.81,2.75-2,3.44V2
		c0-1.11-0.89-2-2-2c-1.11,0-2,0.89-2,2v5.48c-1.19-0.69-2-1.97-2-3.45c0-1.11-0.89-2-2-2c-1.11,0-2,0.89-2,2
		c0,3.72,2.56,6.82,6,7.72v12.26c0,0.01,0,0.01,0,0.02s0,0.01,0,0.02V28c0,4.83-3.44,8.87-8,9.8V26.75c0-1.11-0.89-2-2-2
		c-1.11,0-2,0.89-2,2v17.08c-4.56-0.93-8-4.97-8-9.8V14.04c0-1.11-0.89-2-2-2c-1.11,0-2,0.89-2,2v11.44c-1.19-0.69-2-1.97-2-3.45
		c0-1.11-0.89-2-2-2c-1.11,0-2,0.89-2,2c0,3.72,2.56,6.82,6,7.72v4.29c0,7.04,5.23,12.86,12,13.84v4.15H16c-1.11,0-2,0.89-2,2v8
		c0,0.01,0,0.01,0,0.02C5.49,68.79,0.38,78.94,0.03,89.84C0.03,89.9,0,89.95,0,90.01c0,0.04,0.02,0.08,0.02,0.12
		C0.02,90.42,0,90.71,0,91.01C0,111.4,16.6,128,37,128c20.4,0,37-16.59,37-36.99c0-0.32-0.02-0.63-0.03-0.94
		C73.97,90.04,73.98,90.03,73.98,90.01z M56,56.02v4.09c-0.62,0.19-1.12,0.68-1.31,1.32c-0.26,0.84,0.06,1.75,0.79,2.24
		c8.26,5.59,13.48,14.54,14.37,24.34H38V56.02H56z M18.52,63.67c0.73-0.49,1.05-1.4,0.79-2.24c-0.2-0.64-0.69-1.13-1.31-1.32v-4.09
		h16v31.99H4.15C5.04,78.2,10.26,69.26,18.52,63.67z M37,124c-17.86,0-32.41-14.27-32.95-31.99h65.9C69.41,109.73,54.86,124,37,124z
		"/>
	<path d="M48.07,112h-0.02c-1.1,0-1.99,0.89-1.99,2c0,1.11,0.9,2,2.01,2c1.1,0,2-0.89,2-2C50.07,112.89,49.17,112,48.07,112z"/>
	<path d="M52.07,106h-0.02c-1.1,0-1.99,0.89-1.99,2c0,1.11,0.9,2,2.01,2c1.1,0,2-0.89,2-2C54.07,106.89,53.18,106,52.07,106z"/>
	<path d="M56.08,112h-0.02c-1.1,0-1.99,0.89-1.99,2c0,1.11,0.9,2,2.01,2c1.1,0,2-0.89,2-2C58.08,112.89,57.18,112,56.08,112z"/>
</g>
</svg>
