<?xml version="1.0" encoding="utf-8"?>
<!-- Generator: Adobe Illustrator 27.9.0, SVG Export Plug-In . SVG Version: 6.00 Build 0)  -->
<svg version="1.1" id="Layer_1" xmlns="http://www.w3.org/2000/svg" xmlns:xlink="http://www.w3.org/1999/xlink" x="0px" y="0px"
	 viewBox="0 0 128 128" style="enable-background:new 0 0 128 128;" xml:space="preserve">
<style type="text/css">
	.st0{fill:#93C01F;}
</style>
<g>
	<path class="st0" d="M126.11,90.86c1.04,0,1.89-0.85,1.89-1.9v-4.44c0-3.1-2.51-5.63-5.59-5.63H82.9c-3.08,0-5.59,2.52-5.59,5.63
		v14.23l-9.72-9.78L87.5,68.92c0.81-0.82,1.26-1.91,1.26-3.07c0-1.16-0.45-2.25-1.26-3.06L75.2,50.4c0,0,0,0,0,0l-6.77-6.82
		c0,0,0,0,0,0h0c0,0,0,0,0,0L61.89,37l-0.25-0.25L49.68,24.72c0.96-1.14,1.38-2.67,1.13-4.15c-0.28-1.62-1.33-3.01-2.8-3.72
		c-5.49-2.63-11.32-4.34-17.34-5.11c-1.03-0.13-1.98,0.61-2.11,1.65c-0.13,1.04,0.6,1.99,1.64,2.13c5.62,0.71,11.06,2.32,16.19,4.77
		c0.53,0.25,0.67,0.74,0.7,0.93c0.03,0.2,0.07,0.7-0.35,1.12l-1.05,1.05L17.53,51.72l-1.08,1.09c-0.42,0.42-0.91,0.39-1.11,0.36
		c-0.19-0.03-0.67-0.17-0.93-0.7c-2.53-5.24-4.16-10.81-4.86-16.57c-0.73-6.08-0.4-12.19,0.98-18.17c0.16-0.67,0.69-1.21,1.36-1.36
		c3.2-0.72,6.48-1.14,9.75-1.26c1.04-0.04,1.86-0.92,1.82-1.97c-0.04-1.05-0.91-1.88-1.96-1.84c-3.51,0.12-7.02,0.58-10.44,1.34
		C9,13.13,7.34,14.78,6.86,16.87C5.37,23.28,5.02,29.84,5.8,36.36c0.75,6.18,2.5,12.16,5.21,17.77c0.71,1.47,2.1,2.52,3.7,2.79
		c0.28,0.05,0.56,0.07,0.83,0.07c1.21,0,2.38-0.44,3.3-1.24l19.47,19.59c0,0,0,0,0,0l6.77,6.82c0,0,0,0,0,0l6.51,6.55l6.76,6.81
		c0,0,0.01,0.01,0.01,0.01l18.93,19.05v7.78c0,3.1,2.51,5.63,5.59,5.63h39.5c3.08,0,5.59-2.52,5.59-5.63l0-24.81
		c0-1.05-0.85-1.9-1.89-1.9s-1.89,0.85-1.89,1.9l0,24.81c0,1-0.81,1.82-1.81,1.82H82.9c-1,0-1.81-0.82-1.81-1.82V84.51
		c0-1,0.81-1.82,1.81-1.82h39.5c1,0,1.81,0.82,1.81,1.82v4.44C124.22,90,125.06,90.86,126.11,90.86z M84.83,65.48
		c0.13,0.13,0.15,0.27,0.15,0.37c0,0.1-0.03,0.25-0.15,0.37L68.59,82.57l12.18-21.18L84.83,65.48z M21.54,53.07l16.61-16.72
		L25.97,57.53L21.54,53.07z M28.73,60.31l18.69-32.49l3.99,4.02L32.72,64.33L28.73,60.31z M35.51,67.13L54.2,34.65l3.75,3.77
		L39.25,70.9L35.51,67.13z M49.84,81.55l-1.04-1.04l6.97-12.11c0.52-0.91,0.21-2.07-0.69-2.6s-2.06-0.22-2.58,0.69l-6.46,11.23
		l-3.77-3.79l18.69-32.49l3.77,3.79L56.2,60.05c-0.52,0.91-0.21,2.07,0.69,2.6c0.9,0.53,2.06,0.22,2.58-0.69l8.02-13.93l3.74,3.77
		L52.54,84.27L49.84,81.55z M55.57,87.33l18.69-32.49L78,58.61L59.32,91.09L55.57,87.33z M77.31,109.21L62.39,94.19l2.53-2.55
		l12.39,12.47V109.21z"/>
	<path class="st0" d="M99.33,32.6c3.24,0,5.87-2.65,5.87-5.91c0-3.26-2.63-5.91-5.87-5.91s-5.87,2.65-5.87,5.91
		C93.46,29.95,96.09,32.6,99.33,32.6z M99.33,24.58c1.15,0,2.09,0.95,2.09,2.11c0,1.16-0.94,2.11-2.09,2.11
		c-1.15,0-2.09-0.94-2.09-2.11C97.24,25.53,98.17,24.58,99.33,24.58z"/>
	<path class="st0" d="M99.33,17.97c1.04,0,1.89-0.85,1.89-1.9V1.9c0-1.05-0.85-1.9-1.89-1.9s-1.89,0.85-1.89,1.9v14.16
		C97.44,17.12,98.29,17.97,99.33,17.97z"/>
	<path class="st0" d="M97.44,37.31v14.16c0,1.05,0.85,1.9,1.89,1.9c1.04,0,1.89-0.85,1.89-1.9V37.31c0-1.05-0.85-1.9-1.89-1.9
		S97.44,36.26,97.44,37.31z"/>
	<path class="st0" d="M107.99,26.69c0,1.05,0.85,1.9,1.89,1.9h14.07c1.04,0,1.89-0.85,1.89-1.9c0-1.05-0.85-1.9-1.89-1.9h-14.07
		C108.84,24.79,107.99,25.64,107.99,26.69z"/>
	<path class="st0" d="M74.7,28.59h14.07c1.04,0,1.89-0.85,1.89-1.9c0-1.05-0.85-1.9-1.89-1.9H74.7c-1.04,0-1.89,0.85-1.89,1.9
		C72.81,27.74,73.66,28.59,74.7,28.59z"/>
	<path class="st0" d="M106.79,21.08c0.48,0,0.97-0.19,1.34-0.56l9.95-10.02c0.74-0.74,0.74-1.95,0-2.69c-0.74-0.74-1.94-0.74-2.67,0
		l-9.95,10.02c-0.74,0.74-0.74,1.95,0,2.69C105.82,20.9,106.31,21.08,106.79,21.08z"/>
	<path class="st0" d="M90.53,32.86l-9.95,10.02c-0.74,0.74-0.74,1.95,0,2.69c0.37,0.37,0.85,0.56,1.34,0.56s0.97-0.19,1.34-0.56
		l9.95-10.02c0.74-0.74,0.74-1.95,0-2.69C92.46,32.11,91.27,32.11,90.53,32.86z"/>
	<path class="st0" d="M105.46,32.86c-0.74,0.74-0.74,1.95,0,2.69l9.95,10.02c0.37,0.37,0.85,0.56,1.34,0.56
		c0.48,0,0.97-0.19,1.34-0.56c0.74-0.74,0.74-1.95,0-2.69l-9.95-10.02C107.39,32.11,106.19,32.11,105.46,32.86z"/>
	<path class="st0" d="M90.53,20.52c0.37,0.37,0.85,0.56,1.34,0.56c0.48,0,0.97-0.19,1.34-0.56c0.74-0.74,0.74-1.95,0-2.69
		L83.25,7.82c-0.74-0.74-1.94-0.74-2.67,0c-0.74,0.74-0.74,1.95,0,2.69L90.53,20.52z"/>
	<path class="st0" d="M25.22,82.28c-1.04,0-1.89,0.85-1.89,1.9v9.92c0,1.05,0.85,1.9,1.89,1.9s1.89-0.85,1.89-1.9v-9.92
		C27.12,83.13,26.27,82.28,25.22,82.28z"/>
	<path class="st0" d="M25.22,107.07c-1.04,0-1.89,0.85-1.89,1.9v9.92c0,1.05,0.85,1.9,1.89,1.9s1.89-0.85,1.89-1.9v-9.92
		C27.12,107.93,26.27,107.07,25.22,107.07z"/>
	<path class="st0" d="M42.47,99.64h-9.85c-1.04,0-1.89,0.85-1.89,1.9c0,1.05,0.85,1.9,1.89,1.9h9.85c1.04,0,1.89-0.85,1.89-1.9
		C44.36,100.49,43.51,99.64,42.47,99.64z"/>
	<path class="st0" d="M17.83,103.44c1.04,0,1.89-0.85,1.89-1.9c0-1.05-0.85-1.9-1.89-1.9H7.98c-1.04,0-1.89,0.85-1.89,1.9
		c0,1.05,0.85,1.9,1.89,1.9H17.83z"/>
	<path class="st0" d="M30.45,98.18c0.48,0,0.97-0.19,1.34-0.56l6.97-7.01c0.74-0.74,0.74-1.95,0-2.69c-0.74-0.74-1.94-0.74-2.67,0
		l-6.97,7.01c-0.74,0.74-0.74,1.95,0,2.69C29.48,98,29.97,98.18,30.45,98.18z"/>
	<path class="st0" d="M18.66,105.45l-6.97,7.01c-0.74,0.74-0.74,1.95,0,2.69c0.37,0.37,0.85,0.56,1.34,0.56
		c0.48,0,0.97-0.19,1.34-0.56l6.97-7.01c0.74-0.74,0.74-1.95,0-2.69C20.6,104.71,19.4,104.71,18.66,105.45z"/>
	<path class="st0" d="M31.79,105.45c-0.74-0.74-1.94-0.74-2.67,0c-0.74,0.74-0.74,1.95,0,2.69l6.97,7.01
		c0.37,0.37,0.85,0.56,1.34,0.56c0.48,0,0.97-0.19,1.34-0.56c0.74-0.74,0.74-1.95,0-2.69L31.79,105.45z"/>
	<path class="st0" d="M14.37,87.92c-0.74-0.74-1.94-0.74-2.67,0c-0.74,0.74-0.74,1.95,0,2.69l6.97,7.01
		c0.37,0.37,0.85,0.56,1.34,0.56c0.48,0,0.97-0.19,1.34-0.56c0.74-0.74,0.74-1.95,0-2.69L14.37,87.92z"/>
	<ellipse class="st0" cx="25.22" cy="101.54" rx="1.89" ry="1.9"/>
	<path class="st0" d="M43.91,85.15c0-1.05-0.85-1.9-1.89-1.9c-1.04,0-1.89,0.85-1.89,1.9c0,1.05,0.85,1.9,1.89,1.9
		C43.06,87.05,43.91,86.2,43.91,85.15z"/>
	<ellipse class="st0" cx="25.22" cy="78.22" rx="1.89" ry="1.9"/>
	<path class="st0" d="M10.83,85.15c0-1.05-0.85-1.9-1.89-1.9c-1.04,0-1.89,0.85-1.89,1.9c0,1.05,0.85,1.9,1.89,1.9
		C9.98,87.05,10.83,86.2,10.83,85.15z"/>
	<path class="st0" d="M41.8,116.79c-1.04,0-1.89,0.85-1.89,1.9c0,1.05,0.85,1.9,1.89,1.9c1.04,0,1.89-0.85,1.89-1.9
		C43.69,117.64,42.84,116.79,41.8,116.79z"/>
	<path class="st0" d="M25.22,123.4c-1.04,0-1.89,0.85-1.89,1.9c0,1.05,0.85,1.9,1.89,1.9s1.89-0.85,1.89-1.9
		C27.12,124.25,26.27,123.4,25.22,123.4z"/>
	<path class="st0" d="M8.94,116.47c-1.04,0-1.89,0.85-1.89,1.9c0,1.05,0.85,1.9,1.89,1.9c1.04,0,1.89-0.85,1.89-1.9
		C10.83,117.32,9.98,116.47,8.94,116.47z"/>
	<ellipse class="st0" cx="1.89" cy="101.54" rx="1.89" ry="1.9"/>
	<ellipse class="st0" cx="48.44" cy="101.54" rx="1.89" ry="1.9"/>
	<path class="st0" d="M108.86,101.53c0.5-0.74,0.74-1.58,0.74-2.5c0-1.15-0.28-2.17-0.83-3.05c-0.55-0.89-1.31-1.58-2.28-2.08
		c-0.96-0.5-2.08-0.75-3.36-0.75h-6.71c-0.41,0-0.76,0.14-1.04,0.41c-0.28,0.28-0.42,0.63-0.42,1.06v19.14
		c0,0.42,0.14,0.76,0.42,1.05c0.28,0.28,0.63,0.42,1.04,0.42h7.3c1.41,0,2.65-0.29,3.74-0.86c1.09-0.58,1.93-1.36,2.54-2.36
		c0.61-1,0.91-2.15,0.91-3.45c0-1.43-0.38-2.59-1.12-3.48c-0.75-0.89-1.74-1.48-2.98-1.78
		C107.69,102.86,108.36,102.27,108.86,101.53z M97.89,95.86h5.25c1.07,0,1.94,0.26,2.63,0.78c0.68,0.52,1.02,1.32,1.02,2.39
		c0,1.07-0.34,1.88-1.02,2.4c-0.68,0.53-1.56,0.79-2.63,0.79h-5.25V95.86z M107.56,106.55c0.37,0.53,0.56,1.2,0.56,2.01
		c0,0.87-0.19,1.59-0.56,2.18c-0.37,0.58-0.89,1.03-1.55,1.33c-0.66,0.3-1.42,0.45-2.28,0.45h-5.84v-7.58h5.84
		c0.86,0,1.62,0.14,2.28,0.41C106.67,105.62,107.18,106.02,107.56,106.55z"/>
</g>
</svg>
