<?xml version="1.0" encoding="utf-8"?>
<!-- Generator: Adobe Illustrator 27.9.0, SVG Export Plug-In . SVG Version: 6.00 Build 0)  -->
<svg version="1.1" id="Layer_1" xmlns="http://www.w3.org/2000/svg" xmlns:xlink="http://www.w3.org/1999/xlink" x="0px" y="0px"
	 viewBox="0 0 128 128" style="enable-background:new 0 0 128 128;" xml:space="preserve">
<g>
	<g>
		<g>
			<path d="M2.5,123c-1.38,0-2.5,1.12-2.5,2.5s1.12,2.5,2.5,2.5s2.5-1.12,2.5-2.5S3.88,123,2.5,123z"/>
		</g>
	</g>
	<g>
		<g>
			<path d="M125.5,123h-8.46C127.98,110.52,128,77.67,128,76.25c0-22.39-12.03-23.45-13.39-23.5c-0.37-0.02-8.54-0.63-9.4-5.44
				c-1.1-6.19-6.11-9.69-8.71-11.12V25.25c0-1.38-1.12-2.5-2.5-2.5H84c-1.38,0-2.5,1.12-2.5,2.5H67.17L68.66,15h7.84
				c1.38,0,2.5-1.12,2.5-2.5V5h36.5c1.38,0,2.5-1.12,2.5-2.5S116.88,0,115.5,0H2.5C1.12,0,0,1.12,0,2.5S1.12,5,2.5,5H29v7.5
				c0,1.38,1.12,2.5,2.5,2.5h7.84l1.49,10.25H22.5C10.09,25.25,0,35.34,0,47.75v32.5c0,12.41,10.09,22.5,22.5,22.5h59
				c0,1.38,1.12,2.5,2.5,2.5h10c1.38,0,2.5-1.12,2.5-2.5v-4.57c1.83-0.12,4.3,0.06,5.87,1.32c2.51,2,2.65,7.6,0.4,9.95
				c-3.21,3.34-9.61,2.31-13.77,2.31c-4.46,0-6.38-0.79-8.61-1.71c-6.6-2.72-15.97-4.03-21.86,0.84c-1.44,1.19-2.58,2.12-7.28,2.12
				c-7.8,0-12.1,5.77-13.8,10H12.5c-1.38,0-2.5,1.12-2.5,2.5s1.12,2.5,2.5,2.5h113c1.38,0,2.5-1.12,2.5-2.5S126.88,123,125.5,123z
				 M34,10V5h40v5H34z M58,53.49c-1.24-0.48-2.59-0.74-4-0.74s-2.76,0.26-4,0.74L44.39,15h19.22L58,53.49z M60.25,64
				c0,3.45-2.8,6.25-6.25,6.25s-6.25-2.8-6.25-6.25s2.8-6.25,6.25-6.25S60.25,60.55,60.25,64z M45.42,56.74
				c-1.66,1.96-2.67,4.5-2.67,7.26c0,6.2,5.05,11.25,11.25,11.25S65.25,70.2,65.25,64c0-2.77-1-5.3-2.67-7.26l1.07-7.33
				c4.73,3.14,7.85,8.5,7.85,14.59c0,9.65-7.85,17.5-17.5,17.5S36.5,73.65,36.5,64c0-6.08,3.12-11.45,7.85-14.58L45.42,56.74z
				 M81.5,97.75h-59C12.85,97.75,5,89.9,5,80.25v-32.5c0-9.65,7.85-17.5,17.5-17.5h19.06l2.01,13.82C36.4,47.84,31.5,55.36,31.5,64
				c0,12.41,10.09,22.5,22.5,22.5S76.5,76.41,76.5,64c0-8.64-4.9-16.16-12.07-19.93l2.01-13.82H81.5V97.75z M91.5,100.25h-5v-72.5h5
				V100.25z M106.75,123H43.03c1.36-2.29,3.88-5,8.22-5c6.01,0,8.29-1.48,10.46-3.27c4.39-3.62,11.98-2.04,16.78-0.07
				c2.49,1.03,5.07,2.09,10.51,2.09c5.38,0,10.03,0,13.62-1.39c7.44-2.87,9.08-14.86,2.85-19.8c-2.77-2.2-6.42-2.51-8.97-2.39v-6.79
				c3.5,0.01,8.8,0.67,10.61,3.66c0.68,1.12,2.28,1.54,3.44,0.84c1.18-0.72,1.55-2.26,0.84-3.44c-3.23-5.31-10.74-6.07-14.89-6.07
				V66.4c1.29,0,3.77,0.1,6.04,0.74c3.21,0.9,4.6,2.82,6.15,5.66c0.64,1.16,2.23,1.63,3.39,1c1.21-0.66,1.66-2.18,1-3.39
				c-1.14-2.08-2.42-4.39-4.37-5.81c-2.01-1.48-4.46-2.29-6.9-2.74c-1.65-0.3-3.44-0.45-5.32-0.46V42.21
				c1.63,1.34,3.31,3.32,3.79,5.98c1.58,8.86,13.58,9.53,14.09,9.56c0.04,0,0.08,0,0.12,0c0.02,0,1.87,0.11,3.77,1.93
				c2.16,2.06,4.73,6.6,4.73,16.57c0.03,9.35-1.76,35.5-10.29,44.06C110.91,122.12,108.96,123,106.75,123z"/>
		</g>
	</g>
	<g>
		<g>
			<path d="M125.5,0c-1.38,0-2.5,1.12-2.5,2.5s1.12,2.5,2.5,2.5s2.5-1.12,2.5-2.5S126.88,0,125.5,0z"/>
		</g>
	</g>
	<g>
		<g>
			<path d="M23.5,36.25c-6.89,0-12.5,5.61-12.5,12.5c0,1.38,1.12,2.5,2.5,2.5s2.5-1.12,2.5-2.5c0-4.14,3.36-7.5,7.5-7.5
				c1.38,0,2.5-1.12,2.5-2.5S24.88,36.25,23.5,36.25z"/>
		</g>
	</g>
	<g>
		<g>
			<path d="M23.5,86.75c-4.14,0-7.5-3.36-7.5-7.5c0-1.38-1.12-2.5-2.5-2.5s-2.5,1.12-2.5,2.5c0,6.89,5.61,12.5,12.5,12.5
				c1.38,0,2.5-1.12,2.5-2.5S24.88,86.75,23.5,86.75z"/>
		</g>
	</g>
	<g>
		<g>
			<circle cx="115.25" cy="80.5" r="2.5"/>
		</g>
	</g>
</g>
</svg>
