<?xml version="1.0" encoding="utf-8"?>
<!-- Generator: Adobe Illustrator 27.9.0, SVG Export Plug-In . SVG Version: 6.00 Build 0)  -->
<svg version="1.1" id="Layer_1" xmlns="http://www.w3.org/2000/svg" xmlns:xlink="http://www.w3.org/1999/xlink" x="0px" y="0px"
	 viewBox="0 0 128 128" style="enable-background:new 0 0 128 128;" xml:space="preserve">
<g id="yOChrd.tif">
	<g>
		<path d="M64.15,52.62c-6.22-0.06-11.31,4.98-11.34,11.23c-0.04,6.24,5.01,11.31,11.26,11.32c6.25,0.01,11.3-5.05,11.28-11.3
			C75.33,57.67,70.37,52.68,64.15,52.62z M64.04,69.67c-3.26-0.01-5.77-2.6-5.73-5.9c0.04-3.18,2.62-5.67,5.87-5.64
			c3.19,0.03,5.69,2.6,5.67,5.84C69.83,67.16,67.27,69.68,64.04,69.67z M64.15,52.62c-6.22-0.06-11.31,4.98-11.34,11.23
			c-0.04,6.24,5.01,11.31,11.26,11.32c6.25,0.01,11.3-5.05,11.28-11.3C75.33,57.67,70.37,52.68,64.15,52.62z M64.04,69.67
			c-3.26-0.01-5.77-2.6-5.73-5.9c0.04-3.18,2.62-5.67,5.87-5.64c3.19,0.03,5.69,2.6,5.67,5.84C69.83,67.16,67.27,69.68,64.04,69.67z
			 M106.07,62.9c2.57-2.55,5.05-5.18,7.24-8.06c3.63-4.77,7.14-9.62,7.66-15.91v-2.49c-0.16-2.04-0.52-4.02-1.89-5.66
			c-1.6-1.92-3.51-3.39-5.89-4.25c-5-1.79-10.13-1.64-15.27-1.01c-4.04,0.5-8.02,1.38-11.94,2.51c-1.25,0.36-1.4,0.27-1.76-0.99
			c-0.47-1.64-0.87-3.3-1.43-4.91c-0.35-1-0.19-1.76,0.4-2.65c3.02-4.59,0.34-10.78-5.03-11.48c-1.4-0.18-2.18-0.78-3-1.81
			c-2.49-3.12-5.24-5.91-9.58-6.2h-3.24c-2.57,0.18-4.6,1.47-6.47,3.12c-3.29,2.89-5.43,6.58-7.25,10.48
			c-2.01,4.31-3.49,8.81-4.6,13.43c-0.22,0.91-0.59,1.39-1.65,1.09c-4.93-1.4-9.91-2.48-15.04-2.85c-4.36-0.32-8.66-0.2-12.76,1.46
			c-3.6,1.46-6.34,3.9-7.2,7.85c-0.49,2.23-0.44,4.56,0.11,6.79c1.29,5.21,4.24,9.53,7.49,13.67c2.21,2.81,4.63,5.45,7.19,7.95
			c0.7,0.68,0.7,1.22-0.02,1.86c-0.68,0.61-1.31,1.27-1.94,1.94c-0.5,0.52-1.05,0.69-1.78,0.62c-5.9-0.5-9.83,4.89-8,10.02
			c0.31,0.86,0.26,1.58-0.18,2.37c-1.78,3.14-3.16,6.39-3.13,10.11c0.02,2.37,0.22,4.66,1.66,6.64c1.52,2.1,3.47,3.67,5.91,4.61
			c2.67,1.03,5.46,1.46,8.3,1.52c6.46,0.14,12.72-1.15,18.92-2.84c1.62-0.44,1.77-0.39,2.17,1.2c1.15,4.57,2.6,9.03,4.6,13.3
			c1.87,3.97,4.13,7.66,7.47,10.63c3.28,2.92,7.09,3.58,11.16,2.66c2.69-0.61,4.8-2.45,6.61-4.49c3.33-3.75,5.51-8.18,7.29-12.83
			c1.18-3.07,2.12-6.22,2.93-9.4c0.36-1.42,0.55-1.53,1.9-1.13c1.64,0.48,3.29,0.9,4.95,1.27c0.81,0.18,1.28,0.59,1.63,1.35
			c2.51,5.42,9.36,6.09,12.91,1.26c0.57-0.77,1.25-1.19,2.19-1.21c1.56-0.02,3.05-0.38,4.51-0.87c4.83-1.63,8.31-4.47,8.75-9.96
			V89.1c-0.21-1.76-0.34-3.53-1.04-5.2c-1.21-2.89-2.72-5.6-4.52-8.16c-2.77-3.92-5.96-7.46-9.34-10.85
			C105.11,63.93,105.11,63.85,106.07,62.9z M41.99,93.76c-5.75,1.62-11.56,2.92-17.94,3.09c-2.15-0.11-4.67-0.2-7.07-1.14
			c-3.42-1.33-4.77-3.81-3.96-7.38c0.47-2.07,1.31-3.99,2.33-5.85c0.3-0.54,0.63-0.7,1.18-0.6c4.94,0.88,9.69-4.27,7.52-9.69
			c-0.21-0.52-0.17-0.87,0.26-1.19c0.07-0.05,0.12-0.12,0.18-0.18c1.07-1.04,2.05-2.77,3.24-2.93c1.18-0.16,2.34,1.57,3.48,2.52
			c2.78,2.32,5.75,4.36,8.67,6.48c0.51,0.37,0.76,0.74,0.83,1.39c0.48,4.82,0.98,9.65,1.91,14.41
			C42.71,93.21,42.66,93.57,41.99,93.76z M32.37,63.5c2.48-2.04,4.99-4.05,7.77-6.03v12.87c-1.14-0.85-2.16-1.59-3.14-2.36
			c-1.5-1.17-2.98-2.37-4.47-3.56C32.23,64.18,31.79,63.97,32.37,63.5z M42.61,35.13c-0.71,3.88-1.51,7.77-1.56,11.7
			c-0.04,2.9-1.38,4.47-3.61,5.88c-3.19,2.02-6.04,4.53-8.98,6.91c-0.34,0.27-0.59,0.74-1.2,0.15c-4.48-4.36-8.74-8.89-11.84-14.37
			c-1.43-2.53-2.61-5.15-2.55-8.19c0.04-2.04,0.97-3.48,2.65-4.47c2.56-1.51,5.43-1.65,7.81-1.79c6.69,0.14,12.72,1.37,18.66,3.09
			C42.71,34.24,42.7,34.62,42.61,35.13z M80.07,36.3c0.5,0.3,0.37,1.66,0.54,2.54c0.47,2.47,0.75,4.95,1,7.64
			c-3.74-2.29-7.36-4.42-11.32-6.52c2.53-1.03,4.84-2,7.17-2.9C78.33,36.72,79.35,35.88,80.07,36.3z M49.27,29.92
			c1.49-6.03,3.3-11.95,6.46-17.35C57.28,9.91,59.05,7.4,61.97,6c0.68-0.32,1.37-0.57,2.15-0.52c2.5,0.11,4.13,1.71,5.71,3.38
			c0.14,0.15,0.25,0.34,0.39,0.48c0.93,0.88,1.06,1.65,0.39,2.94c-2.25,4.34,0.63,9.55,5.46,10.15c0.54,0.07,0.83,0.21,0.96,0.72
			c0.61,2.27,1.19,4.55,1.87,6.81c0.18,0.59-0.02,0.7-0.47,0.86c-4.66,1.69-9.21,3.63-13.71,5.71c-0.47,0.22-0.82,0.2-1.28-0.01
			c-4.47-2.04-8.97-4-13.6-5.66C49.39,30.7,49.1,30.61,49.27,29.92z M47.46,39.25c0.09-0.65,0.33-1.3,0.33-1.95
			c0-1.14,0.4-1.26,1.39-0.86c2.82,1.14,5.67,2.2,8.61,3.57c-3.89,2.08-7.49,4.16-11.3,6.54C46.83,43.94,47.13,41.59,47.46,39.25z
			 M47.9,91.3c-0.5-3.26-1.08-6.51-1.34-9.98c3.73,2.28,7.35,4.41,11.26,6.48c-1.59,0.68-3.01,1.31-4.45,1.89
			c-1.53,0.62-3.07,1.2-4.61,1.78C48.46,91.59,47.99,91.94,47.9,91.3z M78.89,97.88c-1.49,6.04-3.31,11.96-6.47,17.37
			c-1.56,2.66-3.33,5.17-6.25,6.56c-0.64,0.31-1.3,0.54-2.03,0.52c-2.17-0.12-3.79-1.3-5.22-2.79c-2.71-2.83-4.43-6.28-5.91-9.86
			c-1.57-3.79-2.73-7.71-3.7-11.69c-0.16-0.65-0.05-0.86,0.53-1.06c4.6-1.63,9.08-3.56,13.5-5.61c0.48-0.22,0.87-0.28,1.4-0.04
			c4.47,2.05,8.98,4.01,13.62,5.66C78.79,97.1,79.06,97.2,78.89,97.88z M80.71,88.54c-0.1,0.7-0.35,1.38-0.35,2.07
			c0,1.06-0.34,1.13-1.25,0.78c-2.87-1.11-5.75-2.22-8.74-3.6c3.89-2.07,7.49-4.17,11.31-6.52C81.33,83.85,81.03,86.2,80.71,88.54z
			 M82.31,73.56c0,0.64-0.27,0.95-0.77,1.27c-5.42,3.52-11.01,6.74-16.76,9.68c-0.55,0.28-0.94,0.23-1.47-0.04
			c-5.72-2.91-11.26-6.14-16.66-9.61c-0.61-0.39-0.77-0.83-0.8-1.51c-0.31-6.31-0.31-12.62,0-18.94c0.04-0.69,0.22-1.11,0.82-1.5
			c5.4-3.47,10.94-6.69,16.66-9.61c0.53-0.27,0.92-0.3,1.46-0.02c5.76,2.94,11.34,6.17,16.77,9.68c0.51,0.33,0.75,0.66,0.75,1.28
			c0,3.24,0.37,6.47,0.21,9.72C82.68,67.17,82.3,70.36,82.31,73.56z M112.79,82.49c1.37,2.43,2.48,4.96,2.53,8.83
			c0.08,1.48-1.21,3.04-3.32,4.08c-1.71,0.84-3.54,1.09-5.4,1.29c-0.53,0.06-0.63-0.24-0.81-0.55c-2.85-4.81-8.3-5.32-12-1.09
			c-0.35,0.4-0.61,0.52-1.14,0.37c-2.11-0.58-4.24-1.1-6.37-1.62c-0.64-0.15-0.86-0.47-0.73-1.13c0.96-4.81,1.44-9.67,1.93-14.54
			c0.06-0.57,0.3-0.88,0.73-1.18c3.95-2.76,7.79-5.66,11.48-8.76c0.33-0.28,0.6-0.75,1.19-0.17
			C105.39,72.4,109.67,76.96,112.79,82.49z M88.06,70.29V57.5c2.72,1.93,5.19,3.93,7.66,5.93c0.45,0.37,0.42,0.59-0.01,0.94
			C93.25,66.37,90.78,68.37,88.06,70.29z M100.93,59.72c-0.45,0.43-0.68,0.37-1.1,0.01c-3.78-3.18-7.72-6.16-11.77-8.99
			c-0.38-0.26-0.53-0.55-0.57-1.01c-0.5-4.91-1-9.82-1.94-14.67c-0.11-0.57,0.06-0.86,0.67-1.05c4.9-1.59,12.68-2.97,18.06-3.06
			c1.96,0.09,4.52,0.19,6.96,1.15c3.38,1.32,4.63,3.58,3.92,7.17c-0.62,3.15-2.13,5.89-3.88,8.52
			C108.34,52.21,104.73,56.05,100.93,59.72z M64.15,52.62c-6.22-0.06-11.31,4.98-11.34,11.23c-0.04,6.24,5.01,11.31,11.26,11.32
			c6.25,0.01,11.3-5.05,11.28-11.3C75.33,57.67,70.37,52.68,64.15,52.62z M64.04,69.67c-3.26-0.01-5.77-2.6-5.73-5.9
			c0.04-3.18,2.62-5.67,5.87-5.64c3.19,0.03,5.69,2.6,5.67,5.84C69.83,67.16,67.27,69.68,64.04,69.67z"/>
		<path d="M64.15,52.62c-6.22-0.06-11.31,4.98-11.34,11.23c-0.04,6.24,5.01,11.31,11.26,11.32c6.25,0.01,11.3-5.05,11.28-11.3
			C75.33,57.67,70.37,52.68,64.15,52.62z M64.04,69.67c-3.26-0.01-5.77-2.6-5.73-5.9c0.04-3.18,2.62-5.67,5.87-5.64
			c3.19,0.03,5.69,2.6,5.67,5.84C69.83,67.16,67.27,69.68,64.04,69.67z"/>
		<path d="M64.15,52.62c-6.22-0.06-11.31,4.98-11.34,11.23c-0.04,6.24,5.01,11.31,11.26,11.32c6.25,0.01,11.3-5.05,11.28-11.3
			C75.33,57.67,70.37,52.68,64.15,52.62z M64.04,69.67c-3.26-0.01-5.77-2.6-5.73-5.9c0.04-3.18,2.62-5.67,5.87-5.64
			c3.19,0.03,5.69,2.6,5.67,5.84C69.83,67.16,67.27,69.68,64.04,69.67z"/>
	</g>
</g>
</svg>
