<?xml version="1.0" encoding="utf-8"?>
<!-- Generator: Adobe Illustrator 27.9.0, SVG Export Plug-In . SVG Version: 6.00 Build 0)  -->
<svg version="1.1" id="Layer_1" xmlns="http://www.w3.org/2000/svg" xmlns:xlink="http://www.w3.org/1999/xlink" x="0px" y="0px"
	 viewBox="0 0 128 128" style="enable-background:new 0 0 128 128;" xml:space="preserve">
<g id="jMtto4.tif">
	<g>
		<path d="M85.53,112.56c-5.19-7.77-10.38-15.53-15.58-23.29c-0.84-1.25-2.04-1.91-3.58-1.9c-1.41,0.01-2.83,0.06-4.24,0.01
			c-1.84-0.07-3.16,0.71-4.16,2.22c-5.06,7.6-10.14,15.19-15.22,22.77c-1.01,1.5-1.27,3.06-0.41,4.69c0.89,1.67,2.35,2.33,4.22,2.32
			c5.82-0.03,11.65-0.01,17.47-0.01c5.91,0,11.82-0.01,17.72,0.01c1.77,0,3.17-0.67,4.03-2.22
			C86.64,115.6,86.51,114.03,85.53,112.56z M46.22,114.96c1.36-2.05,2.66-3.99,3.95-5.95c0.29-0.44,0.72-0.32,1.12-0.32
			c2.04-0.01,4.07,0.02,6.11-0.01c1.57-0.02,2.46-0.86,2.42-2.21c-0.04-1.26-0.97-2.07-2.44-2.08c-1.29-0.01-2.58,0-4.1,0
			c0.91-1.36,1.74-2.54,2.5-3.76c0.31-0.5,0.71-0.48,1.17-0.47c1.62,0.01,3.24,0.02,4.86-0.01c1.39-0.02,2.25-0.84,2.26-2.1
			c0.02-1.31-0.87-2.13-2.33-2.15c-0.83-0.01-1.66-0.01-2.49-0.02c-0.03,0-0.05-0.05-0.17-0.15c0.81-1.21,1.64-2.43,2.44-3.67
			c0.21-0.33,0.47-0.42,0.83-0.42c1.12,0.01,2.25,0.03,3.37-0.01c0.49-0.02,0.76,0.19,1.01,0.56c5.01,7.52,10.02,15.04,15.04,22.56
			c0.02,0.03,0.02,0.08,0.04,0.22H46.22z M85.53,112.56c-5.19-7.77-10.38-15.53-15.58-23.29c-0.84-1.25-2.04-1.91-3.58-1.9
			c-1.41,0.01-2.83,0.06-4.24,0.01c-1.84-0.07-3.16,0.71-4.16,2.22c-5.06,7.6-10.14,15.19-15.22,22.77
			c-1.01,1.5-1.27,3.06-0.41,4.69c0.89,1.67,2.35,2.33,4.22,2.32c5.82-0.03,11.65-0.01,17.47-0.01c5.91,0,11.82-0.01,17.72,0.01
			c1.77,0,3.17-0.67,4.03-2.22C86.64,115.6,86.51,114.03,85.53,112.56z M46.22,114.96c1.36-2.05,2.66-3.99,3.95-5.95
			c0.29-0.44,0.72-0.32,1.12-0.32c2.04-0.01,4.07,0.02,6.11-0.01c1.57-0.02,2.46-0.86,2.42-2.21c-0.04-1.26-0.97-2.07-2.44-2.08
			c-1.29-0.01-2.58,0-4.1,0c0.91-1.36,1.74-2.54,2.5-3.76c0.31-0.5,0.71-0.48,1.17-0.47c1.62,0.01,3.24,0.02,4.86-0.01
			c1.39-0.02,2.25-0.84,2.26-2.1c0.02-1.31-0.87-2.13-2.33-2.15c-0.83-0.01-1.66-0.01-2.49-0.02c-0.03,0-0.05-0.05-0.17-0.15
			c0.81-1.21,1.64-2.43,2.44-3.67c0.21-0.33,0.47-0.42,0.83-0.42c1.12,0.01,2.25,0.03,3.37-0.01c0.49-0.02,0.76,0.19,1.01,0.56
			c5.01,7.52,10.02,15.04,15.04,22.56c0.02,0.03,0.02,0.08,0.04,0.22H46.22z M117.72,49.49c-0.56-0.38-1.2-0.57-1.85-0.73
			c-2.14-0.54-4.27-1.11-6.42-1.59c-1.01-0.23-1.61-0.66-1.76-1.76c-0.15-1.07-0.44-2.13-0.86-3.13c-0.42-1-0.15-1.69,0.59-2.43
			c1.67-1.68,3.48-3.22,5.15-4.9c1.61-1.62,1.89-3.6,0.87-5.49c-0.65-1.21-1.33-2.4-2.08-3.55c-1.49-2.29-3.12-2.91-5.76-2.17
			c-2.16,0.61-4.31,1.26-6.47,1.9c-0.86,0.26-1.52,0.12-2.14-0.53c-0.77-0.81-1.53-1.66-2.39-2.37c-0.95-0.79-1.06-1.63-0.69-2.75
			c0.67-2.01,1.18-4.08,1.78-6.11c0.8-2.75,0.14-4.45-2.28-5.91c-0.89-0.54-1.81-1.02-2.71-1.54c-2.74-1.55-4.28-1.32-6.58,0.89
			c-1.62,1.56-3.08,3.27-4.62,4.9c-0.55,0.58-1.12,0.77-1.9,0.52c-1.23-0.39-2.47-0.75-3.73-1c-0.89-0.18-1.34-0.67-1.55-1.55
			c-0.53-2.27-1.12-4.52-1.68-6.79c-0.47-1.9-1.46-3.23-3.56-3.4h-5.99c-2.1,0.17-3.1,1.48-3.57,3.39c-0.57,2.3-1.16,4.6-1.72,6.91
			c-0.2,0.83-0.63,1.28-1.49,1.44c-1.1,0.2-2.21,0.45-3.25,0.88c-1.07,0.45-1.87,0.25-2.64-0.64c-1.52-1.76-3.1-3.48-4.8-5.07
			c-1.87-1.74-3.6-1.95-5.79-0.71c-1.16,0.66-2.32,1.3-3.43,2.04c-2.08,1.38-2.68,2.95-2.02,5.35c0.63,2.29,1.29,4.57,1.96,6.84
			c0.24,0.81,0.13,1.42-0.51,2.01c-0.89,0.82-1.74,1.67-2.56,2.56c-0.67,0.73-1.38,0.89-2.35,0.62c-2.32-0.67-4.61-1.44-6.95-2.02
			c-2.14-0.53-3.87,0.2-5.03,2.04c-0.75,1.2-1.46,2.42-2.15,3.66c-1.06,1.91-0.86,3.78,0.56,5.44c0.44,0.5,0.9,0.99,1.42,1.4
			c1.52,1.18,2.76,2.65,4.15,3.95c0.64,0.59,0.75,1.23,0.44,2.02c-0.41,1.05-0.73,2.14-0.9,3.24c-0.17,1.06-0.7,1.57-1.73,1.8
			c-2.31,0.52-4.62,1.09-6.9,1.72c-2.27,0.63-3.28,2.02-3.29,4.37c0,1.25,0.07,2.5-0.01,3.74c-0.2,3.13,1.27,4.44,3.98,5.13
			c2.13,0.54,4.26,1.12,6.42,1.58c0.85,0.18,1.3,0.61,1.49,1.44c0.25,1.1,0.44,2.22,0.85,3.26c0.46,1.14,0.24,1.96-0.68,2.75
			c-1.73,1.49-3.41,3.05-4.98,4.72c-1.62,1.74-1.87,3.35-0.87,5.47c0.59,1.25,1.32,2.41,2.05,3.57c1.44,2.29,3.15,2.93,5.74,2.17
			c2.16-0.63,4.34-1.16,6.46-1.9c0.91-0.32,1.56-0.14,2.19,0.6c0.78,0.92,1.62,1.79,2.57,2.54c0.74,0.59,0.84,1.19,0.58,2.06
			c-0.75,2.47-1.47,4.94-2.1,7.44c-0.37,1.47,0.04,2.69,1.03,3.79c0.74,0.83,1.72,1.29,2.66,1.82c1.38,0.78,1.39,0.86,0.57,2.15
			c-2.37,3.72-4.78,7.41-7.22,11.08c-0.44,0.66-0.86,1.33-1.17,2.06c-1.86,4.39,1.16,9.28,5.63,9.27
			c20.26-0.06,40.51-0.02,60.77-0.03c0.95,0,1.89-0.13,2.76-0.63c3.25-1.89,4.38-6.02,2.41-9.33c-2-3.35-4.2-6.59-6.37-9.85
			c-0.67-1.01-1.27-2.05-1.94-3.05c-0.39-0.57-0.31-0.98,0.32-1.31c0.66-0.35,1.31-0.73,1.95-1.12c2.08-1.28,2.78-2.95,2.19-5.29
			c-0.6-2.38-1.3-4.73-2-7.09c-0.23-0.77-0.13-1.33,0.51-1.88c0.97-0.84,1.89-1.76,2.73-2.73c0.57-0.66,1.16-0.81,1.98-0.56
			c2.23,0.69,4.46,1.34,6.7,1.97c2.42,0.69,4.11,0.09,5.49-1.99c0.71-1.07,1.38-2.18,1.96-3.33c1.34-2.65,1.09-4.13-0.98-6.28
			c-1.56-1.62-3.26-3.09-4.9-4.62c-0.66-0.62-0.84-1.25-0.53-2.12c0.38-1.05,0.72-2.14,0.87-3.25c0.16-1.11,0.77-1.63,1.84-1.87
			c2.27-0.51,4.53-1.08,6.78-1.69c1.97-0.53,2.86-1.49,3.06-3.25c0.01-0.09,0.02-0.18,0.03-0.28v-5.93c0.01-0.1,0.02-0.2,0.02-0.3
			C119.42,50.96,118.71,50.15,117.72,49.49z M95.23,119.65c0.45,0.69,0.97,1.36,0.71,2.29c-0.32,1.15-1.13,1.66-2.71,1.66
			c-9.73,0-19.47,0-29.2,0c-9.69,0-19.39,0-29.08,0c-0.67,0-1.33-0.01-1.9-0.42c-1.1-0.79-1.18-1.9-0.22-3.39
			c4.71-7.23,9.43-14.46,14.15-21.69c2.65-4.07,5.27-8.16,7.97-12.19c1.91-2.86,2.81-5.97,2.8-9.38c-0.01-3.79,0.05-7.58-0.03-11.36
			c-0.02-1.09,0.31-1.31,1.31-1.25c1.62,0.09,3.24,0.04,4.87,0.02c1.39-0.01,2.4-0.95,2.37-2.17c-0.03-1.18-0.99-2.07-2.34-2.08
			c-3.41-0.02-6.82,0.01-10.23-0.02c-2.06-0.02-3.65-1.11-4.25-2.85c-0.57-1.64-0.07-3.48,1.28-4.63c0.82-0.7,1.78-1.01,2.87-1
			c6.99,0.01,13.98,0,20.97,0.01c2.49,0,4.33,1.74,4.4,4.12c0.07,2.29-1.67,4.14-4.08,4.34c-0.58,0.05-1.16,0.02-1.75,0.02
			c-1.97,0.01-2.69,0.72-2.71,2.72c-0.02,2.75,0,5.49,0,8.24c0,1.96,0.01,3.91,0,5.87c-0.02,3.41,0.9,6.51,2.78,9.38
			C80.56,97.11,87.89,108.38,95.23,119.65z M74.77,64.84c0-0.65,0.1-0.89,0.84-0.95c4.37-0.39,7.72-4.2,7.67-8.63
			c-0.05-4.41-3.51-8.14-7.96-8.32c-3.74-0.15-7.49-0.03-11.23-0.03v0.01c-3.78,0-7.57-0.12-11.35,0.03
			c-4.37,0.18-7.81,3.93-7.87,8.28c-0.06,4.44,3.28,8.27,7.63,8.67c0.69,0.06,0.89,0.22,0.88,0.92c-0.04,4.33-0.02,8.65-0.03,12.98
			c-0.01,1.3-0.43,2.51-0.89,3.72c-0.34,0.89-0.74,1.07-1.63,0.61c-4.99-2.58-9.03-6.17-12.01-10.93
			C27.75,53.52,37.9,30.14,58.37,26.18c16.29-3.16,32,7.5,34.95,23.72c2.41,13.22-3.95,26.05-15.86,32.15
			c-1.12,0.57-1.51,0.25-1.86-0.73c-0.45-1.25-0.82-2.52-0.81-3.87C74.8,73.24,74.8,69.04,74.77,64.84z M112.26,58.15
			c-1.81,0.45-3.62,0.86-5.43,1.31c-1.81,0.45-2.98,1.51-3.36,3.4c-0.4,1.98-0.94,3.94-1.59,5.86c-0.57,1.69-0.15,3.18,1.15,4.43
			c1.89,1.81,3.75,3.66,5.66,5.45c0.48,0.45,0.53,0.76,0.2,1.34c-1.57,2.78-1.54,2.79-4.61,1.88c-1.74-0.52-3.5-1-5.24-1.52
			c-1.8-0.53-3.35-0.18-4.62,1.26c-1.32,1.5-2.73,2.91-4.23,4.23c-1.4,1.23-1.75,2.75-1.25,4.51c0.71,2.51,1.38,5.03,2.16,7.51
			c0.22,0.7,0.02,0.93-0.53,1.23c-2.66,1.47-2.65,1.49-4.28-1.01c-2.36-3.61-4.7-7.24-7.08-10.84c-0.43-0.65-0.58-0.95,0.31-1.42
			c10-5.28,16.2-13.51,18.14-24.62c3.21-18.41-8.94-35.62-26.88-39.21c-2.25-0.45-4.51-0.66-6.27-0.71
			C47.69,21.29,33.77,32.83,30.6,48.94c-2.91,14.81,4.35,29.84,17.81,36.74c0.95,0.49,1.02,0.79,0.43,1.67
			c-2.7,4.03-5.34,8.11-7.96,12.19c-0.45,0.7-0.73,0.97-1.6,0.46c-2.42-1.43-2.46-1.37-1.68-4.12c0.53-1.87,1.07-3.74,1.6-5.61
			c0.47-1.7,0.15-3.2-1.21-4.41c-1.49-1.33-2.92-2.72-4.23-4.23c-1.29-1.48-2.86-1.86-4.72-1.31c-2.38,0.71-4.76,1.38-7.15,2.07
			c-0.24,0.07-0.54,0.26-0.71,0.19c-1.23-0.57-1.33-1.97-2.08-2.9c-0.4-0.5,0-0.73,0.29-1.01c1.83-1.76,3.63-3.55,5.49-5.28
			c1.54-1.43,1.98-3.07,1.26-5.06c-0.64-1.75-1.08-3.56-1.44-5.39c-0.38-1.93-1.56-3.04-3.43-3.49c-2.37-0.58-4.73-1.2-7.11-1.74
			c-0.85-0.19-1.21-0.48-1.19-1.45c0.07-2.93,0.02-2.91,2.93-3.58c1.89-0.44,3.77-0.94,5.66-1.42c1.69-0.43,2.72-1.5,3.09-3.2
			c0.44-2.02,0.96-4.02,1.62-5.99c0.56-1.69,0.15-3.19-1.15-4.43c-1.89-1.81-3.76-3.65-5.67-5.45c-0.48-0.45-0.52-0.76-0.19-1.34
			c1.53-2.72,1.51-2.73,4.51-1.89c1.83,0.51,3.66,1.03,5.49,1.56c1.72,0.5,3.21,0.13,4.4-1.22c1.35-1.53,2.79-2.97,4.32-4.32
			c1.4-1.23,1.72-2.76,1.22-4.52c-0.72-2.51-1.39-5.02-2.16-7.51c-0.19-0.61-0.09-0.87,0.42-1.19c2.73-1.69,2.72-1.7,4.94,0.6
			c1.27,1.32,2.56,2.62,3.81,3.95c1.34,1.43,2.89,1.82,4.75,1.19c1.84-0.62,3.72-1.12,5.63-1.5c1.94-0.38,3.01-1.61,3.47-3.47
			c0.6-2.45,1.2-4.9,1.78-7.36c0.15-0.64,0.4-0.93,1.15-0.93c3.11,0,3.11-0.03,3.82,2.92c0.44,1.81,0.86,3.62,1.31,5.43
			c0.46,1.86,1.56,3.04,3.51,3.41c1.87,0.36,3.71,0.85,5.51,1.48c1.89,0.66,3.48,0.25,4.85-1.22c1.73-1.85,3.54-3.64,5.28-5.49
			c0.44-0.47,0.75-0.56,1.35-0.23c2.75,1.54,2.77,1.52,1.92,4.5c-0.52,1.83-1.07,3.65-1.58,5.48c-0.48,1.7-0.17,3.21,1.2,4.41
			c1.57,1.37,3.03,2.85,4.41,4.41c1.2,1.35,2.7,1.66,4.41,1.17c2.5-0.72,5.03-1.38,7.51-2.16c0.7-0.22,0.95-0.01,1.27,0.51
			c1.63,2.66,1.64,2.66-0.62,4.84c-1.35,1.3-2.7,2.59-4.06,3.88c-1.33,1.27-1.77,2.78-1.17,4.53c0.66,1.92,1.17,3.88,1.58,5.87
			c0.39,1.83,1.52,2.89,3.28,3.34c2.49,0.63,4.97,1.26,7.47,1.83c0.71,0.16,0.93,0.45,0.93,1.16
			C115.2,57.41,115.23,57.41,112.26,58.15z M66.37,87.37c-1.41,0.01-2.83,0.06-4.24,0.01c-1.84-0.07-3.16,0.71-4.16,2.22
			c-5.06,7.6-10.14,15.19-15.22,22.77c-1.01,1.5-1.27,3.06-0.41,4.69c0.89,1.67,2.35,2.33,4.22,2.32
			c5.82-0.03,11.65-0.01,17.47-0.01c5.91,0,11.82-0.01,17.72,0.01c1.77,0,3.17-0.67,4.03-2.22c0.86-1.55,0.74-3.12-0.24-4.59
			c-5.19-7.77-10.38-15.53-15.58-23.29C69.11,88.01,67.91,87.35,66.37,87.37z M81.8,114.96H46.22c1.36-2.05,2.66-3.99,3.95-5.95
			c0.29-0.44,0.72-0.32,1.12-0.32c2.04-0.01,4.07,0.02,6.11-0.01c1.57-0.02,2.46-0.86,2.42-2.21c-0.04-1.26-0.97-2.07-2.44-2.08
			c-1.29-0.01-2.58,0-4.1,0c0.91-1.36,1.74-2.54,2.5-3.76c0.31-0.5,0.71-0.48,1.17-0.47c1.62,0.01,3.24,0.02,4.86-0.01
			c1.39-0.02,2.25-0.84,2.26-2.1c0.02-1.31-0.87-2.13-2.33-2.15c-0.83-0.01-1.66-0.01-2.49-0.02c-0.03,0-0.05-0.05-0.17-0.15
			c0.81-1.21,1.64-2.43,2.44-3.67c0.21-0.33,0.47-0.42,0.83-0.42c1.12,0.01,2.25,0.03,3.37-0.01c0.49-0.02,0.76,0.19,1.01,0.56
			c5.01,7.52,10.02,15.04,15.04,22.56C81.79,114.77,81.78,114.82,81.8,114.96z"/>
		<path d="M119.26,52.15c0.07,0.03,0.15,0.05,0.23,0.04c0,2.16,0,4.33,0,6.49c-0.08,0.01-0.16,0.01-0.24,0.02
			C119.25,56.51,119.26,54.33,119.26,52.15z"/>
		<path d="M85.53,112.56c-5.19-7.77-10.38-15.53-15.58-23.29c-0.84-1.25-2.04-1.91-3.58-1.9c-1.41,0.01-2.83,0.06-4.24,0.01
			c-1.84-0.07-3.16,0.71-4.16,2.22c-5.06,7.6-10.14,15.19-15.22,22.77c-1.01,1.5-1.27,3.06-0.41,4.69c0.89,1.67,2.35,2.33,4.22,2.32
			c5.82-0.03,11.65-0.01,17.47-0.01c5.91,0,11.82-0.01,17.72,0.01c1.77,0,3.17-0.67,4.03-2.22
			C86.64,115.6,86.51,114.03,85.53,112.56z M46.22,114.96c1.36-2.05,2.66-3.99,3.95-5.95c0.29-0.44,0.72-0.32,1.12-0.32
			c2.04-0.01,4.07,0.02,6.11-0.01c1.57-0.02,2.46-0.86,2.42-2.21c-0.04-1.26-0.97-2.07-2.44-2.08c-1.29-0.01-2.58,0-4.1,0
			c0.91-1.36,1.74-2.54,2.5-3.76c0.31-0.5,0.71-0.48,1.17-0.47c1.62,0.01,3.24,0.02,4.86-0.01c1.39-0.02,2.25-0.84,2.26-2.1
			c0.02-1.31-0.87-2.13-2.33-2.15c-0.83-0.01-1.66-0.01-2.49-0.02c-0.03,0-0.05-0.05-0.17-0.15c0.81-1.21,1.64-2.43,2.44-3.67
			c0.21-0.33,0.47-0.42,0.83-0.42c1.12,0.01,2.25,0.03,3.37-0.01c0.49-0.02,0.76,0.19,1.01,0.56c5.01,7.52,10.02,15.04,15.04,22.56
			c0.02,0.03,0.02,0.08,0.04,0.22H46.22z"/>
		<path d="M85.53,112.56c-5.19-7.77-10.38-15.53-15.58-23.29c-0.84-1.25-2.04-1.91-3.58-1.9c-1.41,0.01-2.83,0.06-4.24,0.01
			c-1.84-0.07-3.16,0.71-4.16,2.22c-5.06,7.6-10.14,15.19-15.22,22.77c-1.01,1.5-1.27,3.06-0.41,4.69c0.89,1.67,2.35,2.33,4.22,2.32
			c5.82-0.03,11.65-0.01,17.47-0.01c5.91,0,11.82-0.01,17.72,0.01c1.77,0,3.17-0.67,4.03-2.22
			C86.64,115.6,86.51,114.03,85.53,112.56z M46.22,114.96c1.36-2.05,2.66-3.99,3.95-5.95c0.29-0.44,0.72-0.32,1.12-0.32
			c2.04-0.01,4.07,0.02,6.11-0.01c1.57-0.02,2.46-0.86,2.42-2.21c-0.04-1.26-0.97-2.07-2.44-2.08c-1.29-0.01-2.58,0-4.1,0
			c0.91-1.36,1.74-2.54,2.5-3.76c0.31-0.5,0.71-0.48,1.17-0.47c1.62,0.01,3.24,0.02,4.86-0.01c1.39-0.02,2.25-0.84,2.26-2.1
			c0.02-1.31-0.87-2.13-2.33-2.15c-0.83-0.01-1.66-0.01-2.49-0.02c-0.03,0-0.05-0.05-0.17-0.15c0.81-1.21,1.64-2.43,2.44-3.67
			c0.21-0.33,0.47-0.42,0.83-0.42c1.12,0.01,2.25,0.03,3.37-0.01c0.49-0.02,0.76,0.19,1.01,0.56c5.01,7.52,10.02,15.04,15.04,22.56
			c0.02,0.03,0.02,0.08,0.04,0.22H46.22z"/>
	</g>
</g>
</svg>
