<?xml version="1.0" encoding="utf-8"?>
<!-- Generator: Adobe Illustrator 27.9.0, SVG Export Plug-In . SVG Version: 6.00 Build 0)  -->
<svg version="1.1" id="Layer_1" xmlns="http://www.w3.org/2000/svg" xmlns:xlink="http://www.w3.org/1999/xlink" x="0px" y="0px"
	 viewBox="0 0 128 128" style="enable-background:new 0 0 128 128;" xml:space="preserve">
<g id="I7WZJQ.tif">
	<g>
		<path d="M88.88,65.96c-3.74,0.05-7.48,0.02-11.23,0.02h-9.36c-2.97,0-2.91,0-2.98,2.96c-0.03,1.11,0.35,1.28,1.34,1.28
			c6.7-0.04,13.39-0.02,20.09-0.02c3.19,0,3.16,0,3.16-3.18C89.9,66.22,89.72,65.95,88.88,65.96z M88.88,65.96
			c-3.74,0.05-7.48,0.02-11.23,0.02h-9.36c-2.97,0-2.91,0-2.98,2.96c-0.03,1.11,0.35,1.28,1.34,1.28c6.7-0.04,13.39-0.02,20.09-0.02
			c3.19,0,3.16,0,3.16-3.18C89.9,66.22,89.72,65.95,88.88,65.96z M88.88,65.96c-3.74,0.05-7.48,0.02-11.23,0.02h-9.36
			c-2.97,0-2.91,0-2.98,2.96c-0.03,1.11,0.35,1.28,1.34,1.28c6.7-0.04,13.39-0.02,20.09-0.02c3.19,0,3.16,0,3.16-3.18
			C89.9,66.22,89.72,65.95,88.88,65.96z M88.88,65.96c-3.74,0.05-7.48,0.02-11.23,0.02h-9.36c-2.97,0-2.91,0-2.98,2.96
			c-0.03,1.11,0.35,1.28,1.34,1.28c6.7-0.04,13.39-0.02,20.09-0.02c3.19,0,3.16,0,3.16-3.18C89.9,66.22,89.72,65.95,88.88,65.96z
			 M88.88,65.96c-3.74,0.05-7.48,0.02-11.23,0.02h-9.36c-2.97,0-2.91,0-2.98,2.96c-0.03,1.11,0.35,1.28,1.34,1.28
			c6.7-0.04,13.39-0.02,20.09-0.02c3.19,0,3.16,0,3.16-3.18C89.9,66.22,89.72,65.95,88.88,65.96z M88.88,65.96
			c-3.74,0.05-7.48,0.02-11.23,0.02h-9.36c-2.97,0-2.91,0-2.98,2.96c-0.03,1.11,0.35,1.28,1.34,1.28c6.7-0.04,13.39-0.02,20.09-0.02
			c3.19,0,3.16,0,3.16-3.18C89.9,66.22,89.72,65.95,88.88,65.96z M88.88,65.96c-3.74,0.05-7.48,0.02-11.23,0.02h-9.36
			c-2.97,0-2.91,0-2.98,2.96c-0.03,1.11,0.35,1.28,1.34,1.28c6.7-0.04,13.39-0.02,20.09-0.02c3.19,0,3.16,0,3.16-3.18
			C89.9,66.22,89.72,65.95,88.88,65.96z M88.88,65.96c-3.74,0.05-7.48,0.02-11.23,0.02h-9.36c-2.97,0-2.91,0-2.98,2.96
			c-0.03,1.11,0.35,1.28,1.34,1.28c6.7-0.04,13.39-0.02,20.09-0.02c3.19,0,3.16,0,3.16-3.18C89.9,66.22,89.72,65.95,88.88,65.96z
			 M88.88,65.96c-3.74,0.05-7.48,0.02-11.23,0.02h-9.36c-2.97,0-2.91,0-2.98,2.96c-0.03,1.11,0.35,1.28,1.34,1.28
			c6.7-0.04,13.39-0.02,20.09-0.02c3.19,0,3.16,0,3.16-3.18C89.9,66.22,89.72,65.95,88.88,65.96z M88.88,65.96
			c-3.74,0.05-7.48,0.02-11.23,0.02h-9.36c-2.97,0-2.91,0-2.98,2.96c-0.03,1.11,0.35,1.28,1.34,1.28c6.7-0.04,13.39-0.02,20.09-0.02
			c3.19,0,3.16,0,3.16-3.18C89.9,66.22,89.72,65.95,88.88,65.96z M88.88,65.96c-3.74,0.05-7.48,0.02-11.23,0.02h-9.36
			c-2.97,0-2.91,0-2.98,2.96c-0.03,1.11,0.35,1.28,1.34,1.28c6.7-0.04,13.39-0.02,20.09-0.02c3.19,0,3.16,0,3.16-3.18
			C89.9,66.22,89.72,65.95,88.88,65.96z M88.88,65.96c-3.74,0.05-7.48,0.02-11.23,0.02h-9.36c-2.97,0-2.91,0-2.98,2.96
			c-0.03,1.11,0.35,1.28,1.34,1.28c6.7-0.04,13.39-0.02,20.09-0.02c3.19,0,3.16,0,3.16-3.18C89.9,66.22,89.72,65.95,88.88,65.96z
			 M88.88,65.96c-3.74,0.05-7.48,0.02-11.23,0.02h-9.36c-2.97,0-2.91,0-2.98,2.96c-0.03,1.11,0.35,1.28,1.34,1.28
			c6.7-0.04,13.39-0.02,20.09-0.02c3.19,0,3.16,0,3.16-3.18C89.9,66.22,89.72,65.95,88.88,65.96z M88.88,65.96
			c-3.74,0.05-7.48,0.02-11.23,0.02h-9.36c-2.97,0-2.91,0-2.98,2.96c-0.03,1.11,0.35,1.28,1.34,1.28c6.7-0.04,13.39-0.02,20.09-0.02
			c3.19,0,3.16,0,3.16-3.18C89.9,66.22,89.72,65.95,88.88,65.96z M127.17,121.65c-1.82-1.95-1.81-1.96-3.91-0.36
			c-0.13,0.1-0.27,0.2-0.4,0.3c-3.04,2.22-7,1.92-9.71-0.72c-0.51-0.5-1-1.01-1.5-1.51c-3.45-3.42-7.44-5.18-12.34-4.07
			c-0.96,0.22-0.91-0.38-0.91-1c0-4.07,0.01-8.14,0-12.21c0-2.62-0.46-3.16-3-3.48c-0.66-0.08-0.97-0.37-0.98-1.03
			c-0.02-0.88-0.02-1.76-0.01-2.65c0.01-1.54,0.1-1.63,1.63-1.63c4.79-0.01,9.57,0,14.35,0c0.79,0,1.58-0.01,2.35-0.26
			c1.19-0.38,1.83-1.13,1.86-2.39c0.06-2.73,0.08-5.45-0.01-8.18c-0.04-1.34-0.58-2.06-1.85-2.33c-1.01-0.22-1.02-0.64-0.76-1.48
			c2.74-8.63,5.48-17.26,8.22-25.89c0.7-2.19,1.44-4.38,2.05-6.6c-0.16,0.62-0.12,1.25-0.12,1.88c0,16.28,0,32.56,0,48.84
			c0,0.55,0.03,1.09-0.03,1.64c-0.11,1.17-0.84,1.98-1.73,1.96c-0.9-0.03-1.41-0.69-1.5-1.96c-0.15-1.94-0.37-2.15-2.24-2.18
			c-2.53-0.03-2.91,0.39-2.72,2.92c0.22,2.93,2.74,6.43,6.92,6.14c3.46-0.24,6.02-2.9,6.02-6.59c0.01-22.28,0-44.56,0.02-66.84
			c0-1.41-0.43-2.5-1.43-3.47c-1.6-1.53-3.11-3.15-4.7-4.7c-1.85-1.82-3.42-1.68-4.82,0.47c-4.62,7.08-9.16,14.22-13.72,21.33
			c-2.24,3.49-4.5,6.96-6.71,10.46c-0.55,0.86-1.21,1.27-2.25,1.25c-2.54-0.05-5.08-0.01-7.62-0.02c-1.35-0.01-1.46-0.13-1.47-1.54
			c-0.01-1.43,0.02-2.85-0.01-4.28c-0.02-0.85,0.16-1.43,1.14-1.6c0.94-0.16,0.9-1.03,0.84-1.72c-0.09-1.03,0.47-2.22-0.64-3.02
			c-0.14-0.1-0.32-0.13-0.48-0.12c-0.97,0.02-1.33-0.61-1.65-1.42c-0.91-2.35-2.47-4.17-4.68-5.37c-5.64-3.08-12.25-0.77-14.93,5.22
			c-0.38,0.84-0.73,1.56-1.81,1.61c-0.8,0.03-1.04,0.7-0.96,1.36c0.15,1.17-0.64,2.55,0.73,3.46c0.07,0.04,0.16,0.06,0.24,0.07
			c0.8,0.07,1,0.59,1,1.31c-0.01,1.6-0.02,3.19,0,4.78c0.02,0.9-0.35,1.29-1.26,1.28c-1.75-0.03-3.49-0.03-5.24,0
			c-0.88,0.02-1.29-0.37-1.39-1.23c-0.2-1.63-0.49-3.24-0.73-4.85c-1.4-9.46-2.79-18.92-4.23-28.38c-0.14-0.92-0.11-1.48,1.02-1.67
			c1.73-0.29,2.29-1.08,2.31-2.88c0.03-2.31,0.02-4.62,0.01-6.92c-0.01-2.54-0.8-3.36-3.37-3.42c-1.79-0.04-3.58-0.03-5.37-0.01
			c-0.9,0.01-1.27-0.35-1.26-1.27c0.03-1.68,0.03-3.36,0-5.04c-0.01-0.51,0.08-1.07-0.39-1.45c-0.02-0.02-0.04-0.03-0.06-0.04
			c-1.36-0.04-2.71-0.03-4.07,0c-0.03,0.02-0.05,0.04-0.08,0.06c-0.45,0.38-0.35,0.94-0.36,1.43c-0.03,1.55-0.01,3.1-0.01,4.66
			c-0.01,1.57-0.08,1.64-1.61,1.65c-1.91,0.02-3.83-0.07-5.74,0.04c-1.77,0.1-2.8,1.05-2.85,2.71c-0.08,2.6-0.08,5.2,0,7.8
			c0.04,1.41,0.79,2.26,2.1,2.62c1.53,0.42,1.55,0.42,1.32,1.96c-2.18,14.39-4.28,28.8-6.43,43.19c-0.15,0.98-0.58,1.38-1.55,1.36
			c-1.58-0.03-3.16-0.04-4.75,0.01c-1.89,0.06-2.89,1.09-2.95,3.01c-0.04,1.26,0,2.52-0.02,3.78c-0.02,1.4-0.11,1.5-1.5,1.51
			c-3.16,0.01-6.32,0-9.49,0.01c-0.96,0-1.92-0.05-2.87,0.03c-1.44,0.12-2.12,0.82-2.13,2.26c-0.02,4.2-0.03,8.39,0,12.59
			c0.01,1.3,0.54,1.89,1.78,2.22c0.81,0.21,1.64,0.24,2.48,0.24c4.7-0.01,9.4-0.01,14.11,0c1.53,0,1.59,0.08,1.61,1.65
			c0.01,0.75-0.04,1.51,0.01,2.26c0.07,1.02-0.33,1.4-1.36,1.44c-1.67,0.06-2.46,0.91-2.61,2.6c-0.05,0.5-0.03,1.01-0.03,1.51
			c0,5.66,0,11.33-0.01,17c0,0.48,0.12,0.99-0.15,1.41c-0.17,0.01-0.25-0.01-0.32-0.06c-0.69-0.55-1.28-1.2-1.88-1.84
			c-3.47-3.72-7.83-4.68-12.66-4.26c-0.71,0.06-1.04,0.37-0.99,1.12c0.05,0.84,0.08,1.68-0.01,2.52c-0.1,1.04,0.42,1.33,1.32,1.33
			c1,0,2,0.03,3,0c2.04-0.05,3.72,0.75,5.16,2.15c0.84,0.82,1.64,1.66,2.48,2.49c4.7,4.64,12.89,4.48,17.26-0.17
			c0.72-0.76,1.44-1.51,2.22-2.22c2.93-2.68,6.68-2.97,9.85-0.78c1.28,0.89,2.29,2.07,3.37,3.17c4.15,4.22,11.53,4.42,15.83,1.02
			c1.35-1.07,2.5-2.34,3.74-3.51c3.09-2.91,7.56-2.86,10.56,0.14c1.18,1.18,2.42,2.3,3.7,3.37c4.06,3.39,11.96,3.24,15.88-1.15
			c0.97-1.09,2-2.14,3.21-2.98c1.99-1.4,4.13-1.86,6.52-1.24c1.92,0.49,3.29,1.76,4.56,3.16c2.99,3.32,6.64,4.98,11.12,4.51
			c3.44-0.36,6.28-1.79,8.23-4.78v-0.25C127.74,122.46,127.52,122.02,127.17,121.65z M114.23,35.23c1.37-2.14,2.75-4.27,4.1-6.42
			c0.28-0.44,0.54-0.62,0.92-0.12c0.08,0.1,0.16,0.2,0.26,0.27c2.4,1.59,2.8,3.57,1.56,6.21c-0.86,1.82-1.27,3.86-1.97,6.11
			c-1.74-1.79-3.32-3.44-4.92-5.07C113.8,35.82,114.03,35.55,114.23,35.23z M104.6,50.22c2.17-3.36,4.33-6.73,6.47-10.11
			c0.38-0.61,0.61-0.56,1.07-0.08c1.65,1.72,3.33,3.4,5.02,5.07c0.37,0.36,0.52,0.67,0.35,1.19c-1.44,4.47-2.86,8.95-4.32,13.56
			c-2.95-2.97-5.73-5.79-8.54-8.57C104.25,50.87,104.36,50.61,104.6,50.22z M98.02,61.17c0-0.43,0.08-0.82,0.32-1.18
			c1.18-1.81,2.36-3.64,3.61-5.58c3.22,3.26,6.32,6.41,9.44,9.55c0.3,0.3,0.35,0.54,0.21,0.98c-1.58,4.91-3.13,9.84-4.67,14.77
			c-0.17,0.53-0.42,0.68-0.96,0.68c-2.37-0.03-4.74-0.04-7.11,0c-0.65,0.01-0.84-0.16-0.84-0.83
			C98.04,73.42,98.03,67.29,98.02,61.17z M68.24,44.57c1.19-2.05,2.98-3.18,5.29-3.18c2.31-0.01,4.11,1.1,5.31,3.15
			c0.36,0.62,0.32,0.88-0.47,0.86c-1.62-0.03-3.24-0.01-4.86-0.01c-1.58,0-3.16-0.02-4.74,0.01C68.09,45.41,67.82,45.29,68.24,44.57
			z M67.49,50.38c-0.01-0.59,0.13-0.8,0.75-0.79c3.53,0.03,7.06,0.03,10.59,0c0.58-0.01,0.79,0.13,0.78,0.76
			c-0.04,2.22-0.04,4.44,0,6.66c0.01,0.67-0.27,0.74-0.81,0.73c-1.74-0.03-3.49-0.01-5.23-0.01c-1.75,0-3.49-0.03-5.24,0.01
			c-0.64,0.02-0.86-0.16-0.85-0.83C67.52,54.73,67.52,52.56,67.49,50.38z M45.34,27.54c-0.39,0.11-0.8,0.3-1.1,0.56
			c-3.05,2.68-5.6,0.51-8.24-0.84c-0.28-0.14-0.32-0.3-0.28-0.59c0.27-1.69,0.52-3.38,0.75-5.08c0.08-0.56,0.28-0.77,0.87-0.75
			c1.2,0.06,2.41,0.02,3.61,0.02c1.16,0,2.33,0.02,3.49-0.01c0.58-0.02,0.87,0.08,0.94,0.79c0.15,1.49,0.44,2.98,0.68,4.46
			C46.19,26.77,46.13,27.3,45.34,27.54z M46.79,31.49c0.12,0.43,0.19,0.8,0.02,1.21c-0.36-0.18-0.71-0.36-1.1-0.55
			C45.98,31.75,46.42,31.71,46.79,31.49z M36.21,32.11c-0.46,0.25-0.84,0.46-1.25,0.68c-0.19-0.47-0.18-0.95,0.09-1.13
			C35.41,31.42,35.77,31.81,36.21,32.11z M37.37,36.09c2.6-1.28,4.72-1.74,7.07,0.1c0.22,0.18,0.53,0.24,0.78,0.39
			c0.84,0.51,2.14,0.63,2.51,1.46c0.51,1.14,0.47,2.52,0.69,4c0.13,0.36-0.28,0.54-0.65,0.72c-2.07,1.04-4.15,2.06-6.2,3.12
			c-0.47,0.24-0.83,0.22-1.27-0.01c-2.1-1.08-4.21-2.14-6.33-3.19c-0.45-0.22-0.47-0.46-0.48-0.96
			C33.43,38.87,34.77,37.37,37.37,36.09z M49.02,46.81c0.39,1.19,0.44,2.38,0.64,3.78c-1.43-0.72-2.68-1.35-4.09-2.06
			C46.84,47.9,47.9,47.37,49.02,46.81z M35.81,12.58c4.07,0,8.14,0.03,12.21-0.02c0.88-0.01,1.1,0.22,1.09,1.1
			c-0.04,2.97,0,2.97-2.94,2.97h-5.23c-2.41,0-4.82-0.03-7.22,0.02c-0.71,0.01-0.88-0.2-0.89-0.9
			C32.78,12.58,32.75,12.58,35.81,12.58z M32.56,48.17c0.23-1.42,0.23-1.42,1.53-0.76c0.55,0.28,1.1,0.57,1.65,0.86
			c0.11,0.06,0.22,0.11,0.55,0.28c-1.46,0.74-2.74,1.38-4.13,2.08C32.31,49.73,32.43,48.95,32.56,48.17z M29.64,67.32
			c0.58-3.71,1.15-7.43,1.69-11.15c0.06-0.4,0.24-0.58,0.55-0.73c2.85-1.43,5.71-2.86,8.55-4.32c0.43-0.22,0.75-0.15,1.13,0.05
			c2.73,1.39,5.44,2.82,8.2,4.13c1.04,0.49,0.84,1.35,0.86,2.14c0.02,0.5-0.51,0.28-0.79,0.28c-2.12,0.02-4.24,0.01-6.36,0.01
			c-2.04,0-4.07-0.01-6.11,0c-1.83,0.02-2.54,0.73-2.56,2.6c-0.02,2.26-0.03,4.53,0.01,6.79c0.02,0.73-0.21,0.94-0.91,0.91
			c-1.2-0.05-2.41-0.04-3.61-0.01C29.76,68.04,29.55,67.91,29.64,67.32z M20.57,75c0.1-2.75,0.03-2.75,2.81-2.75
			c4.29,0,8.57,0,12.86,0c1.92,0,2.65-0.71,2.66-2.63c0.01-2.18,0.06-4.36-0.02-6.55c-0.04-0.97,0.26-1.16,1.17-1.16
			c8.82,0.04,17.64,0.02,26.47,0.02c8.74,0,17.47,0.01,26.21-0.02c0.87,0,1.2,0.13,1.19,1.13c-0.06,5.41-0.05,10.83-0.01,16.24
			c0.01,0.9-0.25,1.09-1.1,1.09c-5.37-0.04-10.73-0.05-16.1,0.01c-0.99,0.01-1.14-0.32-1.12-1.2c0.05-2.35-0.51-2.88-2.83-2.88
			c-16.93,0-33.87-0.01-50.81,0.03C20.89,76.33,20.52,76.15,20.57,75z M40.87,116.01c-4.04-1.28-7.75-0.79-11.08,1.68
			c-1.29,0.96-2.38,2.22-3.54,3.35c-1.35,1.32-2.92,2.18-4.81,2.37c-0.6,0.06-0.87-0.03-0.87-0.76c0.03-6.29,0.03-12.57,0.01-18.86
			c0-0.61,0.19-0.77,0.78-0.77c6.23,0.02,12.47,0.02,18.7,0c0.69,0,0.82,0.25,0.81,0.87C40.86,107.87,40.87,111.84,40.87,116.01z
			 M36.86,98.14c0.02,0.62-0.2,0.78-0.79,0.77c-3.58-0.02-7.16-0.02-10.73,0c-0.53,0-0.74-0.14-0.73-0.7c0.03-1.55,0.04-3.1,0-4.66
			c-0.02-0.62,0.19-0.78,0.78-0.77c1.79,0.04,3.58,0.01,5.37,0.01c1.75,0,3.5,0.02,5.24-0.01c0.62-0.01,0.89,0.13,0.86,0.83
			C36.81,95.12,36.82,96.63,36.86,98.14z M72.77,98.91c-0.25-0.03-0.5-0.01-0.75-0.01c-1.91,0.03-2.6,0.72-2.61,2.68
			c-0.02,4.07-0.01,8.14-0.01,12.21c0,0.25-0.02,0.5,0.01,0.75c0.07,0.57-0.11,0.78-0.73,0.82c-3.07,0.2-5.66,1.47-7.83,3.66
			c-0.71,0.71-1.4,1.44-2.12,2.13c-3.14,3.01-7.65,3.04-10.96,0.23c-1.91-1.62-2.95-3.35-2.79-6.07c0.28-4.52,0.08-9.06,0.08-13.59
			c0-2.12-0.67-2.89-2.71-2.8c-1.16,0.05-1.51-0.3-1.42-1.45c0.1-1.21,0.07-2.43,0-3.64c-0.05-0.84,0.23-1.07,1.05-1.06
			c5.12,0.04,10.23,0.02,15.35,0.02c5.03,0,10.07,0.02,15.1-0.02c0.83-0.01,1.18,0.15,1.13,1.08c-0.08,1.42-0.05,2.85-0.01,4.28
			C73.58,98.74,73.37,98.98,72.77,98.91z M93.87,117.84c0,0.33,0.09,0.69-0.16,0.96c-2.35,2.53-4.71,5.03-8.63,4.62
			c-1.99-0.2-3.65-1.02-5.04-2.42c-1.82-1.83-3.53-3.81-6.04-4.74c-0.46-0.17-0.44-0.53-0.44-0.92c0.01-3.82,0.02-7.63-0.02-11.45
			c0-0.74,0.24-0.9,0.92-0.89c3.12,0.03,6.24,0.02,9.36,0.02c2.99,0,5.99,0.02,8.98-0.01c0.73-0.01,1.11,0.08,1.1,0.99
			C93.85,108.62,93.88,113.23,93.87,117.84z M89.82,98.14c0.02,0.61-0.19,0.78-0.78,0.78c-3.53-0.03-7.06-0.03-10.59,0
			c-0.71,0.01-0.82-0.3-0.81-0.9c0.03-1.47,0.04-2.93,0-4.4c-0.02-0.69,0.25-0.85,0.87-0.84c1.74,0.03,3.49,0.01,5.23,0.01
			c1.74,0,3.49,0.03,5.23-0.01c0.64-0.01,0.88,0.16,0.85,0.84C89.78,95.12,89.79,96.63,89.82,98.14z M57.33,88.64
			c-17.23,0-34.45-0.01-51.68,0.03c-1.14,0-1.47-0.28-1.41-1.43c0.1-1.97,0.05-3.94,0.02-5.91c-0.01-0.64,0.17-0.96,0.84-0.87
			c0.21,0.03,0.42,0.01,0.62,0.01c21.43,0,42.86,0.01,64.29-0.03c1.18,0,1.58,0.25,1.52,1.5c-0.09,1.97,0.7,2.66,2.73,2.66
			c11.57,0,23.14,0.01,34.7-0.02c1,0,1.35,0.17,1.32,1.27c-0.09,2.81-0.03,2.81-2.76,2.81H57.33z M66.65,70.22
			c6.7-0.04,13.39-0.02,20.09-0.02c3.19,0,3.16,0,3.16-3.18c0-0.8-0.17-1.07-1.02-1.06c-3.74,0.05-7.48,0.02-11.23,0.02h-9.36
			c-2.97,0-2.91,0-2.98,2.96C65.28,70.05,65.66,70.23,66.65,70.22z M88.88,65.96c-3.74,0.05-7.48,0.02-11.23,0.02h-9.36
			c-2.97,0-2.91,0-2.98,2.96c-0.03,1.11,0.35,1.28,1.34,1.28c6.7-0.04,13.39-0.02,20.09-0.02c3.19,0,3.16,0,3.16-3.18
			C89.9,66.22,89.72,65.95,88.88,65.96z M88.88,65.96c-3.74,0.05-7.48,0.02-11.23,0.02h-9.36c-2.97,0-2.91,0-2.98,2.96
			c-0.03,1.11,0.35,1.28,1.34,1.28c6.7-0.04,13.39-0.02,20.09-0.02c3.19,0,3.16,0,3.16-3.18C89.9,66.22,89.72,65.95,88.88,65.96z
			 M88.88,65.96c-3.74,0.05-7.48,0.02-11.23,0.02h-9.36c-2.97,0-2.91,0-2.98,2.96c-0.03,1.11,0.35,1.28,1.34,1.28
			c6.7-0.04,13.39-0.02,20.09-0.02c3.19,0,3.16,0,3.16-3.18C89.9,66.22,89.72,65.95,88.88,65.96z M88.88,65.96
			c-3.74,0.05-7.48,0.02-11.23,0.02h-9.36c-2.97,0-2.91,0-2.98,2.96c-0.03,1.11,0.35,1.28,1.34,1.28c6.7-0.04,13.39-0.02,20.09-0.02
			c3.19,0,3.16,0,3.16-3.18C89.9,66.22,89.72,65.95,88.88,65.96z M88.88,65.96c-3.74,0.05-7.48,0.02-11.23,0.02h-9.36
			c-2.97,0-2.91,0-2.98,2.96c-0.03,1.11,0.35,1.28,1.34,1.28c6.7-0.04,13.39-0.02,20.09-0.02c3.19,0,3.16,0,3.16-3.18
			C89.9,66.22,89.72,65.95,88.88,65.96z M88.88,65.96c-3.74,0.05-7.48,0.02-11.23,0.02h-9.36c-2.97,0-2.91,0-2.98,2.96
			c-0.03,1.11,0.35,1.28,1.34,1.28c6.7-0.04,13.39-0.02,20.09-0.02c3.19,0,3.16,0,3.16-3.18C89.9,66.22,89.72,65.95,88.88,65.96z
			 M88.88,65.96c-3.74,0.05-7.48,0.02-11.23,0.02h-9.36c-2.97,0-2.91,0-2.98,2.96c-0.03,1.11,0.35,1.28,1.34,1.28
			c6.7-0.04,13.39-0.02,20.09-0.02c3.19,0,3.16,0,3.16-3.18C89.9,66.22,89.72,65.95,88.88,65.96z M88.88,65.96
			c-3.74,0.05-7.48,0.02-11.23,0.02h-9.36c-2.97,0-2.91,0-2.98,2.96c-0.03,1.11,0.35,1.28,1.34,1.28c6.7-0.04,13.39-0.02,20.09-0.02
			c3.19,0,3.16,0,3.16-3.18C89.9,66.22,89.72,65.95,88.88,65.96z M88.88,65.96c-3.74,0.05-7.48,0.02-11.23,0.02h-9.36
			c-2.97,0-2.91,0-2.98,2.96c-0.03,1.11,0.35,1.28,1.34,1.28c6.7-0.04,13.39-0.02,20.09-0.02c3.19,0,3.16,0,3.16-3.18
			C89.9,66.22,89.72,65.95,88.88,65.96z M88.88,65.96c-3.74,0.05-7.48,0.02-11.23,0.02h-9.36c-2.97,0-2.91,0-2.98,2.96
			c-0.03,1.11,0.35,1.28,1.34,1.28c6.7-0.04,13.39-0.02,20.09-0.02c3.19,0,3.16,0,3.16-3.18C89.9,66.22,89.72,65.95,88.88,65.96z
			 M88.88,65.96c-3.74,0.05-7.48,0.02-11.23,0.02h-9.36c-2.97,0-2.91,0-2.98,2.96c-0.03,1.11,0.35,1.28,1.34,1.28
			c6.7-0.04,13.39-0.02,20.09-0.02c3.19,0,3.16,0,3.16-3.18C89.9,66.22,89.72,65.95,88.88,65.96z M88.88,65.96
			c-3.74,0.05-7.48,0.02-11.23,0.02h-9.36c-2.97,0-2.91,0-2.98,2.96c-0.03,1.11,0.35,1.28,1.34,1.28c6.7-0.04,13.39-0.02,20.09-0.02
			c3.19,0,3.16,0,3.16-3.18C89.9,66.22,89.72,65.95,88.88,65.96z M88.88,65.96c-3.74,0.05-7.48,0.02-11.23,0.02h-9.36
			c-2.97,0-2.91,0-2.98,2.96c-0.03,1.11,0.35,1.28,1.34,1.28c6.7-0.04,13.39-0.02,20.09-0.02c3.19,0,3.16,0,3.16-3.18
			C89.9,66.22,89.72,65.95,88.88,65.96z M88.88,65.96c-3.74,0.05-7.48,0.02-11.23,0.02h-9.36c-2.97,0-2.91,0-2.98,2.96
			c-0.03,1.11,0.35,1.28,1.34,1.28c6.7-0.04,13.39-0.02,20.09-0.02c3.19,0,3.16,0,3.16-3.18C89.9,66.22,89.72,65.95,88.88,65.96z"/>
		<path d="M38.88,0.29C38.87,0.19,38.86,0.1,38.85,0c1.41,0,2.83,0,4.24,0c-0.02,0.11-0.04,0.22-0.05,0.34
			C41.66,0.17,40.27,0.25,38.88,0.29z"/>
		<path d="M89.9,67.02c0,3.18,0.03,3.18-3.16,3.18c-6.7,0-13.39-0.02-20.09,0.02c-0.99,0.01-1.37-0.17-1.34-1.28
			c0.07-2.96,0.02-2.96,2.98-2.96h9.36c3.74,0,7.49,0.03,11.23-0.02C89.72,65.95,89.9,66.22,89.9,67.02z"/>
		<path d="M89.9,67.02c0,3.18,0.03,3.18-3.16,3.18c-6.7,0-13.39-0.02-20.09,0.02c-0.99,0.01-1.37-0.17-1.34-1.28
			c0.07-2.96,0.02-2.96,2.98-2.96h9.36c3.74,0,7.49,0.03,11.23-0.02C89.72,65.95,89.9,66.22,89.9,67.02z"/>
	</g>
</g>
</svg>
