<?xml version="1.0" encoding="utf-8"?>
<!-- Generator: Adobe Illustrator 27.9.0, SVG Export Plug-In . SVG Version: 6.00 Build 0)  -->
<svg version="1.1" id="Layer_1" xmlns="http://www.w3.org/2000/svg" xmlns:xlink="http://www.w3.org/1999/xlink" x="0px" y="0px"
	 viewBox="0 0 128 128" style="enable-background:new 0 0 128 128;" xml:space="preserve">
<g id="_x32_tizfD.tif">
	<g>
		<path d="M124.78,14.63c-3.5-6.28-8.64-10.66-15.37-13.22c-2.24-0.85-4.55-1.2-6.91-1.41h-6.25c-0.86,0.41-1.81,0.37-2.72,0.57
			C78.61,3.85,68.96,17.97,71.3,33.11c2.33,15.07,16.72,25.73,31.93,23.65c11.59-1.58,20.71-9.6,23.83-20.87
			c0.36-1.29,0.36-2.67,0.94-3.9v-6.75C127.77,21.45,126.62,17.93,124.78,14.63z M109.93,30.77c-4.13,3.68-8.3,7.33-12.52,10.92
			c-1.59,1.35-3.81,1.05-5.13-0.51c-1.27-1.5-1.13-3.76,0.39-5.16c1.47-1.35,3-2.63,4.78-4.19c-2.17,0-4.02,0.05-5.86-0.01
			c-2.4-0.08-3.88-1.86-3.62-4.24c0.11-0.96,0.59-1.73,1.33-2.31c4.25-3.35,8.49-6.7,12.78-10c1.66-1.28,3.9-0.92,5.12,0.64
			c1.24,1.6,1.04,3.8-0.55,5.15c-1.29,1.1-2.65,2.12-4.28,3.41c1.93,0,3.47-0.01,5,0c1.63,0.01,2.77,0.82,3.37,2.3
			C111.37,28.25,111.13,29.7,109.93,30.77z"/>
		<path d="M82.81,103.53c0-7.62,0.03-15.23-0.03-22.85c-0.01-1.15,0.34-1.36,1.4-1.35c4.33,0.06,8.66,0.05,12.99,0.01
			c0.85-0.01,1.12,0.18,1.11,1.08c-0.03,9.95-0.03,19.89-0.01,29.84c0,1.21-0.42,2.18-1.22,3.03c-4.15,4.44-8.3,8.87-12.45,13.31
			c-0.06,0.06-0.11,0.13-0.17,0.18c-0.44,0.37-0.89,1.04-1.42,0.82c-0.46-0.19-0.18-0.96-0.18-1.47
			C82.81,118.59,82.81,111.06,82.81,103.53z"/>
		<path d="M15.46,103.73c0,7.57,0,15.15-0.01,22.72c0,0.39,0.21,0.99-0.13,1.14c-0.5,0.23-0.92-0.28-1.24-0.62
			c-2.13-2.23-4.23-4.47-6.34-6.72c-2.13-2.28-4.25-4.58-6.39-6.84C0.44,112.46,0,111.4,0,110.06c0.03-9.82,0.03-19.64,0-29.47
			c0-0.92,0.15-1.28,1.19-1.26c4.37,0.07,8.74,0.05,13.11,0.01c0.92-0.01,1.19,0.22,1.18,1.17C15.44,88.25,15.46,95.99,15.46,103.73
			z"/>
		<path d="M15.46,23.56c0,0.51,0,0.92,0,1.32c0,15.24-0.01,30.47,0.02,45.71c0,1.04-0.16,1.42-1.34,1.4
			c-4.37-0.08-8.74-0.05-13.11-0.01C0.22,71.98,0,71.78,0,70.95c0.03-9.99,0.03-19.98,0.01-29.97c0-1.11,0.37-2.03,1.1-2.82
			c4.23-4.54,8.47-9.07,12.7-13.6C14.21,24.14,14.65,23.76,15.46,23.56z"/>
		<path d="M30.46,47.61c0,7.7-0.01,15.4,0.02,23.11c0,0.93-0.16,1.33-1.21,1.27c-1.78-0.1-3.58-0.08-5.37-0.01
			c-0.9,0.04-1.1-0.27-1.1-1.13c0.04-5.87,0.02-11.74,0.02-17.61c0-9.58,0.01-19.15-0.02-28.73c0-0.93,0.15-1.33,1.21-1.27
			c1.78,0.1,3.58,0.08,5.37,0.01c0.91-0.04,1.1,0.28,1.1,1.13C30.45,32.12,30.46,39.87,30.46,47.61z"/>
		<path d="M45.46,47.61c0,7.58,0,15.15,0,22.73c0,1.62,0,1.62-1.68,1.62c-1.62,0-3.25-0.05-4.87,0.02c-0.9,0.04-1.11-0.26-1.1-1.12
			c0.04-5.54,0.02-11.07,0.02-16.61c0-9.82,0.03-19.65-0.04-29.47c-0.01-1.33,0.39-1.6,1.6-1.53c1.66,0.1,3.33,0.08,4.99,0.01
			c0.9-0.04,1.1,0.27,1.1,1.13C45.44,32.12,45.46,39.86,45.46,47.61z"/>
		<path d="M60.46,47.6c0,7.66-0.03,15.32,0.03,22.98c0.01,1.2-0.36,1.46-1.46,1.4c-1.7-0.09-3.41-0.07-5.12,0
			c-0.89,0.04-1.11-0.25-1.11-1.12c0.04-5.12,0.02-10.24,0.02-15.36c0-10.28,0.02-20.57-0.03-30.85c-0.01-1.2,0.36-1.46,1.46-1.4
			c1.7,0.09,3.41,0.07,5.12,0c0.89-0.04,1.11,0.26,1.11,1.12C60.44,32.12,60.46,39.86,60.46,47.6z"/>
		<path d="M30.46,103.59c0,7.74-0.02,15.49,0.02,23.23c0,0.92-0.2,1.21-1.16,1.17c-1.87-0.08-3.75-0.06-5.62-0.01
			c-0.72,0.02-0.9-0.21-0.9-0.91c0.02-15.57,0.02-31.14-0.01-46.71c0-0.89,0.32-1.03,1.09-1.02c1.83,0.04,3.67,0.06,5.49-0.01
			c0.91-0.03,1.09,0.31,1.09,1.15C30.45,88.19,30.46,95.89,30.46,103.59z"/>
		<path d="M37.82,103.59c0-7.66,0.02-15.32-0.02-22.98c0-0.94,0.17-1.33,1.22-1.28c1.79,0.09,3.58,0.06,5.37,0.01
			c0.77-0.02,1.09,0.13,1.09,1.02c-0.03,15.57-0.02,31.14-0.01,46.71c0,0.7-0.18,0.93-0.9,0.91c-1.87-0.05-3.75-0.07-5.62,0.01
			c-0.95,0.04-1.16-0.24-1.16-1.17C37.84,119.08,37.82,111.34,37.82,103.59z"/>
		<path d="M60.46,103.75c0,7.66-0.02,15.32,0.03,22.98c0.01,1.08-0.3,1.31-1.31,1.27c-1.79-0.09-3.58-0.06-5.37-0.01
			c-0.72,0.02-1-0.12-1-0.94c0.03-15.57,0.02-31.14,0-46.71c0-0.77,0.23-1.01,0.99-0.99c1.83,0.05,3.67,0.06,5.49-0.01
			c0.93-0.04,1.2,0.22,1.19,1.17C60.44,88.26,60.46,96,60.46,103.75z"/>
		<path d="M67.82,103.59c0-7.66,0.02-15.32-0.02-22.98c0-0.95,0.19-1.32,1.22-1.27c1.79,0.09,3.58,0.06,5.37,0.01
			c0.77-0.02,1.09,0.14,1.09,1.02c-0.03,15.57-0.02,31.14-0.01,46.71c0,0.71-0.19,0.92-0.9,0.91c-1.87-0.05-3.75-0.08-5.62,0.01
			c-0.96,0.04-1.16-0.26-1.15-1.17C67.83,119.08,67.82,111.33,67.82,103.59z"/>
		<path d="M68.06,46.06c1.22,1.98,2.49,3.96,4.04,5.72c0.38,0.44,0.71,0.97,1.17,1.29c1.94,1.37,2.34,3.21,2.24,5.5
			c-0.18,4.11-0.07,8.24-0.03,12.36c0.01,0.82-0.22,1.07-1.05,1.04c-1.91-0.06-3.83-0.03-5.74-0.01c-0.51,0-0.87-0.03-0.87-0.71
			c0.02-8.37,0.03-16.73,0.04-25.1C67.85,46.14,67.92,46.12,68.06,46.06z"/>
		<path d="M82.81,60.37c3.37,1.7,6.66,2.89,10.15,3.48c1.51,0.26,3.04,0.44,4.57,0.56c0.62,0.05,0.74,0.26,0.73,0.83
			c-0.03,1.96-0.03,3.91,0,5.87c0.01,0.62-0.12,0.87-0.81,0.86c-4.58-0.03-9.16-0.02-13.74-0.01c-0.58,0-0.92-0.06-0.92-0.79
			C82.83,67.65,82.81,64.12,82.81,60.37z"/>
	</g>
</g>
</svg>
