<?xml version="1.0" encoding="utf-8"?>
<!-- Generator: Adobe Illustrator 28.0.0, SVG Export Plug-In . SVG Version: 6.00 Build 0)  -->
<svg version="1.1" id="Layer_1" xmlns="http://www.w3.org/2000/svg" xmlns:xlink="http://www.w3.org/1999/xlink" x="0px" y="0px"
	 viewBox="0 0 128 128" style="enable-background:new 0 0 128 128;" xml:space="preserve">
<path d="M110.2,23.5c0-0.9-0.3-1.7-0.9-2.3C102.5,14.4,95.7,7.7,89,0.9C88.4,0.3,87.6,0,86.7,0C71.5,0,56.3,0,41.1,0
	c-0.9,0-1.7,0.3-2.3,0.9c-6.7,6.7-13.3,13.4-20,20c-0.3,0.3-0.7,0.7-0.8,1.2v0c0,0.1,0,0.2-0.1,0.3c0,27.7,0,55.3,0,83
	c0,0.2,0,0.4,0.1,0.6c0.2,0.5,0.6,0.8,0.9,1.2c6.6,6.6,13.2,13.2,19.7,19.7c0.4,0.4,0.9,0.8,1.4,1.1h47.9c0.5-0.3,1-0.6,1.4-1
	c6.7-6.7,13.3-13.4,20-20c0.6-0.6,0.9-1.3,0.9-2.2C110.1,77.7,110.1,50.6,110.2,23.5z M82.8,22.1c1.5-3.6,3-7.2,4.5-10.9
	c0.1-0.2,0.1-0.4,0.2-0.5c4,4,7.9,7.9,11.8,11.8c-4.7,1.9-9.4,3.9-14.2,5.9c-0.4,0.2-0.7,0.1-1-0.2c-0.1-0.1-0.1-0.1-0.2-0.2
	c-0.9-0.9-2.2-1.7-2.4-2.7C81.3,24.4,82.3,23.2,82.8,22.1z M80.4,7.7c0.2,0.4-0.1,0.6-0.2,0.9c-1.8,4.4-3.6,8.7-5.4,13.1
	c-0.3,0.8-0.7,1-1.5,1c-6.3,0-12.6,0-18.8,0c-0.5,0-1,0.1-1.3-0.6c-1.9-4.7-3.8-9.3-5.8-14c0-0.1,0-0.2-0.1-0.4H80.4z M79.9,92.2
	c0,0.9-0.2,1.6-0.9,2.2c-1.3,1.2-2.3,2.9-3.8,3.5C73.7,98.5,71.8,98,70,98c-5.5,0-11.1,0-16.6,0c-0.7,0-1.2-0.2-1.7-0.7
	c-1.2-1.3-3-2.4-3.7-4c-0.6-1.5-0.2-3.5-0.2-5.3c0-8,0-16.1,0-24.1c0-9.4,0-18.7,0-28.1c0-0.8,0.2-1.4,0.8-2c1.3-1.2,2.4-3,3.9-3.6
	c1.5-0.6,3.5-0.2,5.3-0.2c5.5,0,11,0,16.5,0c0.7,0,1.2,0.2,1.7,0.7c1.2,1.3,3,2.4,3.7,4c0.6,1.5,0.2,3.5,0.2,5.3
	C79.9,57.5,79.9,74.8,79.9,92.2z M25.4,98.5v-69c4.8,2,9.5,4,14.3,5.9c0.3,0.1,0.6,0.3,0.5,0.7c0,0.2,0,0.5,0,0.7
	c0,18.1,0,36.2,0,54.3c0,0.9-0.2,1.4-1.1,1.7c-4.3,1.7-8.5,3.5-12.7,5.3C26.1,98.3,25.8,98.4,25.4,98.5z M45.8,104.2
	c-1.8,4.2-3.6,8.4-5.3,12.7c-0.1,0.2-0.1,0.4-0.2,0.5c-4-4-7.9-7.9-11.8-11.8c3.9-1.6,7.9-3.3,12-5c2.7-1.1,2.7-1.1,4.8,1
	C46.2,102.4,46.3,103,45.8,104.2z M45.9,26c-2.6,2.8-2.6,2.8-6.1,1.3c-3.8-1.6-7.6-3.2-11.3-4.7c3.9-3.9,7.9-7.9,11.8-11.8
	c1.3,3,2.6,6.2,3.9,9.3c0.7,1.6,1.3,3.1,2,4.7C46.3,25.2,46.3,25.6,45.9,26z M47.2,120.5c1.2-3,2.5-5.9,3.7-8.9
	c0.7-1.8,1.5-3.5,2.2-5.3c0.2-0.6,0.5-0.8,1.2-0.8c6.4,0,12.9,0,19.3,0c0.5,0,0.9,0,1.1,0.5c1.9,4.8,3.9,9.5,5.9,14.4H47.2z
	 M87.5,117.4c-2-4.7-3.9-9.4-5.9-14.1c-0.2-0.5-0.1-0.8,0.3-1.2c2.6-2.8,2.6-2.8,6.1-1.3c3.8,1.6,7.6,3.2,11.3,4.7
	C95.4,109.5,91.4,113.4,87.5,117.4z M102.3,98.6c-2.7-1.1-5.2-2.2-7.8-3.2c-2-0.8-4-1.7-6.1-2.5c-0.7-0.3-0.9-0.6-0.9-1.3
	c0-18.3,0-36.6,0-54.9c0-0.6,0-1,0.7-1.3c4.7-1.9,9.3-3.8,14.1-5.8V98.6z"/>
</svg>
