<?xml version="1.0" encoding="utf-8"?>
<!-- Generator: Adobe Illustrator 28.0.0, SVG Export Plug-In . SVG Version: 6.00 Build 0)  -->
<svg version="1.1" id="Layer_1" xmlns="http://www.w3.org/2000/svg" xmlns:xlink="http://www.w3.org/1999/xlink" x="0px" y="0px"
	 viewBox="0 0 128 128" style="enable-background:new 0 0 128 128;" xml:space="preserve">
<g id="CdGVU5.tif">
	<g>
		<path d="M63.9,66c-1.9-0.1-3.7,0-5.6,0c-1.3,0-2,0.8-2.1,1.9c0,1.1,0.8,1.9,2.1,2c1,0,1.9,0,2.9,0c0.9,0,1.8,0,2.7,0
			c1.2-0.1,2.1-0.9,2.1-1.9C65.9,66.9,65.1,66,63.9,66z M64.1,60.2c-2-0.1-4.1-0.1-6.1,0c-1,0-1.8,0.9-1.8,1.8c0,1,0.6,1.8,1.7,1.9
			c1,0.1,2,0,3,0c1.1,0,2.2,0.1,3.2,0c1.1-0.1,1.8-0.9,1.8-1.9C65.9,61.1,65.1,60.2,64.1,60.2z M64.1,60.2c-2-0.1-4.1-0.1-6.1,0
			c-1,0-1.8,0.9-1.8,1.8c0,1,0.6,1.8,1.7,1.9c1,0.1,2,0,3,0c1.1,0,2.2,0.1,3.2,0c1.1-0.1,1.8-0.9,1.8-1.9
			C65.9,61.1,65.1,60.2,64.1,60.2z M63.9,66c-1.9-0.1-3.7,0-5.6,0c-1.3,0-2,0.8-2.1,1.9c0,1.1,0.8,1.9,2.1,2c1,0,1.9,0,2.9,0
			c0.9,0,1.8,0,2.7,0c1.2-0.1,2.1-0.9,2.1-1.9C65.9,66.9,65.1,66,63.9,66z M63.9,66c-1.9-0.1-3.7,0-5.6,0c-1.3,0-2,0.8-2.1,1.9
			c0,1.1,0.8,1.9,2.1,2c1,0,1.9,0,2.9,0c0.9,0,1.8,0,2.7,0c1.2-0.1,2.1-0.9,2.1-1.9C65.9,66.9,65.1,66,63.9,66z M64.1,60.2
			c-2-0.1-4.1-0.1-6.1,0c-1,0-1.8,0.9-1.8,1.8c0,1,0.6,1.8,1.7,1.9c1,0.1,2,0,3,0c1.1,0,2.2,0.1,3.2,0c1.1-0.1,1.8-0.9,1.8-1.9
			C65.9,61.1,65.1,60.2,64.1,60.2z M64.1,60.2c-2-0.1-4.1-0.1-6.1,0c-1,0-1.8,0.9-1.8,1.8c0,1,0.6,1.8,1.7,1.9c1,0.1,2,0,3,0
			c1.1,0,2.2,0.1,3.2,0c1.1-0.1,1.8-0.9,1.8-1.9C65.9,61.1,65.1,60.2,64.1,60.2z M63.9,66c-1.9-0.1-3.7,0-5.6,0
			c-1.3,0-2,0.8-2.1,1.9c0,1.1,0.8,1.9,2.1,2c1,0,1.9,0,2.9,0c0.9,0,1.8,0,2.7,0c1.2-0.1,2.1-0.9,2.1-1.9C65.9,66.9,65.1,66,63.9,66
			z M63.9,66c-1.9-0.1-3.7,0-5.6,0c-1.3,0-2,0.8-2.1,1.9c0,1.1,0.8,1.9,2.1,2c1,0,1.9,0,2.9,0c0.9,0,1.8,0,2.7,0
			c1.2-0.1,2.1-0.9,2.1-1.9C65.9,66.9,65.1,66,63.9,66z M64.1,60.2c-2-0.1-4.1-0.1-6.1,0c-1,0-1.8,0.9-1.8,1.8c0,1,0.6,1.8,1.7,1.9
			c1,0.1,2,0,3,0c1.1,0,2.2,0.1,3.2,0c1.1-0.1,1.8-0.9,1.8-1.9C65.9,61.1,65.1,60.2,64.1,60.2z M64.1,60.2c-2-0.1-4.1-0.1-6.1,0
			c-1,0-1.8,0.9-1.8,1.8c0,1,0.6,1.8,1.7,1.9c1,0.1,2,0,3,0c1.1,0,2.2,0.1,3.2,0c1.1-0.1,1.8-0.9,1.8-1.9
			C65.9,61.1,65.1,60.2,64.1,60.2z M63.9,66c-1.9-0.1-3.7,0-5.6,0c-1.3,0-2,0.8-2.1,1.9c0,1.1,0.8,1.9,2.1,2c1,0,1.9,0,2.9,0
			c0.9,0,1.8,0,2.7,0c1.2-0.1,2.1-0.9,2.1-1.9C65.9,66.9,65.1,66,63.9,66z M63.9,66c-1.9-0.1-3.7,0-5.6,0c-1.3,0-2,0.8-2.1,1.9
			c0,1.1,0.8,1.9,2.1,2c1,0,1.9,0,2.9,0c0.9,0,1.8,0,2.7,0c1.2-0.1,2.1-0.9,2.1-1.9C65.9,66.9,65.1,66,63.9,66z M64.1,60.2
			c-2-0.1-4.1-0.1-6.1,0c-1,0-1.8,0.9-1.8,1.8c0,1,0.6,1.8,1.7,1.9c1,0.1,2,0,3,0c1.1,0,2.2,0.1,3.2,0c1.1-0.1,1.8-0.9,1.8-1.9
			C65.9,61.1,65.1,60.2,64.1,60.2z M57.9,63.9c1,0.1,2,0,3,0c1.1,0,2.2,0.1,3.2,0c1.1-0.1,1.8-0.9,1.8-1.9c0-0.9-0.8-1.8-1.8-1.9
			c-2-0.1-4.1-0.1-6.1,0c-1,0-1.8,0.9-1.8,1.8C56.2,63.1,56.8,63.8,57.9,63.9z M63.9,66c-1.9-0.1-3.7,0-5.6,0c-1.3,0-2,0.8-2.1,1.9
			c0,1.1,0.8,1.9,2.1,2c1,0,1.9,0,2.9,0c0.9,0,1.8,0,2.7,0c1.2-0.1,2.1-0.9,2.1-1.9C65.9,66.9,65.1,66,63.9,66z M127.8,83.7
			c-0.4-3.2-1.8-6-3.8-8.5c-0.6-0.8-1.8-1.5-1.8-2.2c0-0.8,1.2-1.5,1.8-2.3c2-2.4,1.4-5.6-1.3-7.1c-1.6-0.9-3.2-1.5-4.9-2
			c-1.4-0.4-2.4,0-2.7,1.1c-0.3,1.1,0.2,2,1.6,2.5c1.4,0.5,2.7,1,4,1.6c0.8,0.4,0.9,0.9,0.3,1.6c-0.5,0.6-1,1.1-1.5,1.7
			c-0.5,0.6-0.8,0.7-1.6,0.3c-3.3-1.6-6.9-2.1-10.6-1.4c-0.7,0.1-1.1-0.1-1.2-0.7c-0.3-1.1-1.3-2.3-0.9-3.2c0.4-0.7,2-0.5,3-0.7
			c1.3-0.3,1.9-1,1.8-2.1c-0.1-1.1-0.9-1.8-2.2-1.6c-1.2,0.1-2.4,0.3-3.6,0.6c-0.5,0.1-0.6,0-0.8-0.4c-1.2-3.5-2.4-6.9-3.6-10.4
			c2.2,0,4.4,0.1,6.5-0.5c2.1-0.7,3.1-2,3.1-4.2c0-3.8,0-7.7,0-11.5c0-2.1-1-3.6-3.1-4.2c-4.3-1.2-8.4-0.8-12.1,1.8
			c-0.6,0.4-0.8,0.4-1.1-0.3c-0.5-1.4-1-2.8-1.5-4.2c-0.9-2.6-2.8-3.8-5.6-3.6c-1.7,0.2-3.3,0.5-4.9,0.8c-2.5,0.4-5.1,0.8-7.6,1.3
			c-1,0.2-1.7,1.1-1.6,2c0.1,1,0.9,1.7,2,1.7c0.4,0,0.8-0.1,1.2-0.1c3.7-0.6,7.4-1.2,11.2-1.9c0.8-0.1,1.4,0.1,1.7,0.9
			c1,3,2.1,6,3.2,9.1c-2.5-0.5-4.9-0.9-7.2-1.5c-5.4-1.4-10.4-0.6-15,2.7c-4,2.8-8.1,5.4-12.2,8.1c-0.4,0.3-0.8,0.6-1.5,0.6
			c-4.3-0.2-8.7-0.4-13-0.6c-1.4-0.1-2.7-0.6-3.9-1.6c-0.7-0.6-1.5-1.1-2.4-1.5c-6.5-2.8-13.4,1.7-12.7,8.3c0.1,0.6-0.2,0.6-0.6,0.6
			c-1.7,0.4-3.5,0.8-5.1,1.4c-1.4,0.5-2,1.5-1.6,2.6c0.4,1.1,1.4,1.4,2.8,1c1.7-0.6,3.5-1.1,5.3-1.3c0.6-0.1,1,0.1,1.4,0.5
			c1.5,1.6,3.4,2.5,5.6,2.6c3.1,0,6.2,0,9.2,0c0.7,0,1.1,0.1,1.6,0.7c2.6,3.3,5.3,6.5,8,9.7c1.8,2.2,3.6,4.4,5.4,6.5
			c0.7,0.8,0,1.5-0.2,2.2c-0.1,0.5-0.6,0.2-1,0.1c-0.5-0.2-0.5-0.7-0.7-1.1c-6.3-17.2-28-22.7-41.7-10.5c-1.2,1.1-2.2,2.4-4,2.5
			c-0.3,0-0.6,0.2-0.7,0.4c-0.8,1.1-1.7,0.7-2.7,0.2c-0.7-0.4-0.9-0.6-0.4-1.3c1.9-2.6,4.1-4.9,6.7-6.9c1.2-0.9,1.4-1.9,0.7-2.9
			c-0.7-1-1.8-1-3-0.2c-3.1,2.3-5.7,5.1-7.9,8.3c-1.4,2.2-0.8,4.8,1.6,6c0.5,0.3,1.1,0.6,1.7,0.8c0.8,0.3,0.9,0.8,0.7,1.5
			c-0.3,1.1-0.6,2.2-0.8,3.2c-0.6,2.5,0.8,4.8,3.3,5.5c1.1,0.3,2.2,0.4,3.3,0.5c0.9,0,1.1,0.3,1.1,1.2c-0.1,9.8,7,17.4,16.7,18.1
			c0.5,0.2,1.1,0,1.6,0.1c2.2,0.1,4.3-0.2,6.3-1.1c5.6-2.5,9.2-6.7,10.6-12.6c0.2-0.9,0.7-1.1,1.5-1c5.2,0.7,10.5,1.2,15.7,1.9
			c5.2,0.7,10.7-3.4,11.4-8.6c0.2-1.6,0.8-2.8,1.7-4c3.8-5,7.6-10,11.1-15.2c2.1-3.2,5-5.2,8.2-7.1c0.7-0.4,1-0.2,1.2,0.5
			c0.4,1.3,0.8,2.5,1.3,3.8c0.7,1.8,0.6,1.8-1,2.7C90.1,67.6,85.6,74.2,84.3,83c-0.5,3.1,1.7,5.6,4.8,5.7c0.6,0,1.3,0.1,1.9,0
			c1-0.1,1.6,0.3,1.7,1.3c0.1,0.9,0.4,1.8,0.8,2.6c2.2,5.8,6.4,9.5,12.3,11.3c1.2,0.3,2.4,0.2,3.6,0.4h1.8c0.3-0.2,0.7-0.1,1.1-0.1
			c2.4,0,4.7-0.7,6.7-1.9c5.1-3,8.4-7.2,9.2-13.2v-5C127.8,84,127.8,83.9,127.8,83.7z M107,82.8c0.5,1.4,1,2.8,1.5,4.2
			c0.3,0.9,0.9,1.4,1.9,1.3c0.9,0,1.4-0.5,1.8-1.3c0.2-0.5,0.1-0.9-0.1-1.3c-0.5-1.3-0.9-2.6-1.3-4c2-0.2,3.9,1.4,4.5,3.5
			c0.6,2.3-0.6,4.8-2.8,5.8c-2.2,1-4.8,0.2-6.2-1.7C104.8,87.2,105,84.7,107,82.8z M31.9,55.7c-2.9,0-4.8-2-4.7-4.8
			c0.1-2.5,2.6-4.4,5.3-4.1c1.4,0.1,2.6,0.6,3.7,1.5c1.9,1.6,4.1,2.3,6.5,2.4c3.6,0.1,7.1,0.4,10.7,0.5c0.7,0,1.2,0.2,1,1.1
			c-0.1,1.1,0.5,2.6-0.2,3.2c-0.6,0.5-2.1,0.2-3.1,0.2c-2.9,0-5.7,0-8.6,0C39,55.7,35.5,55.7,31.9,55.7z M49.6,77.7
			c-2-0.4-3.8-0.8-5.6-1.3c-0.3-0.1-0.5-0.5-0.7-0.7C38,68.8,28.7,66.8,21,70.9c-0.6,0.3-1.2,0.4-1.9,0.3c-1.5-0.4-3-0.7-4.6-1
			C24.8,60.4,43.1,63.2,49.6,77.7z M36.4,74.9c-3-0.7-6-1.3-8.9-2C30.7,72.4,33.7,72.9,36.4,74.9z M42.4,91c-2,5.6-7.2,9.3-13.1,9.3
			c-7.6,0-13.8-6.1-13.9-13.8c0-0.9,0.2-1.3,1.1-1c0.2,0.1,0.4,0,0.6,0c0.9,0.1,2,0,2.8,0.4c1.2,0.4,0.5,1.7,0.7,2.5
			c1.1,4,4.4,6.8,8.5,6.8c3.9,0.1,7.5-2.5,8.6-6.4c0.2-0.7,0.5-0.9,1.1-0.8c0.6,0.1,1.2,0.2,1.9,0.2C43.2,88.5,43.2,88.5,42.4,91z
			 M25.6,86.6c2.4,0.3,5,0.6,7.5,0.8c0.9,0.1,1.1,0.4,0.7,1.2c-1,2-3,3-5.4,2.7c-1.9-0.3-3.7-2-4.1-4C24,86.1,24.9,86.6,25.6,86.6z
			 M63.2,87.1c-5.6-0.7-11.3-1.3-17-2c-5.5-0.6-11-1.3-16.5-1.9c-5.4-0.6-10.9-1.2-16.4-1.8c-1.6-0.2-3.2-0.3-4.8-0.5
			c-0.8-0.1-1.2-0.4-0.9-1.4c0.5-1.7,1-3.5,1.3-5.3c0.2-1.1,0.8-1.2,1.7-1c3.5,0.8,7,1.5,10.6,2.3c14,3,28.1,6.1,42.1,9.1
			c1.9,0.4,3.8,0.8,5.8,1.3C67.3,87.4,65.3,87.3,63.2,87.1z M70,82.1c-3.4-0.7-6.8-1.5-10.2-2.2c-0.7-0.1-0.7-0.4-0.5-0.9
			c0.9-2.8,3.9-4.8,6.8-4.3c3.2,0.5,5.5,3.1,5.5,6.2C71.5,82.4,71.5,82.5,70,82.1z M78.5,70c-0.4,0.4-0.6,0.5-1,0.1
			c-0.3-0.3-0.7-0.5-1-0.8c-0.7-0.6-2.2-1.2-2.1-1.9c0.2-1.1,1.3-1.9,2.1-2.9c0.1-0.1,0.2-0.1,0.3-0.2c0.1,0.1,0.3,0.2,0.4,0.3
			c0.3,0.2,0.6,0.5,0.9,0.7C80.7,67.4,80.7,67.4,78.5,70z M85,61.1c-0.7,1-1.3,2.4-2.2,2.7c-0.8,0.2-1.8-1.2-2.7-1.9
			c-2.8-2.2-4.8-1.9-7,0.9c-0.6,0.8-1.2,1.5-1.8,2.3c-1.4,1.9-1,4.1,0.8,5.6c1,0.8,1.9,1.6,3,2.3c0.7,0.5,0.6,0.9,0.2,1.4
			c-0.4,0.4-0.7,0.9-1.1,1.5C73,74.3,71.8,72.9,70,72c-3.9-1.9-7.6-1.6-11.1,1c-0.4,0.3-0.7,0.7-1.2,0c-3.5-4.3-7.1-8.6-10.6-12.9
			c-0.1-0.2-0.4-0.3-0.3-0.7c2.3,0,4.6,0,6.9,0c4.4,0.1,8.8-0.7,13.2-1c2.8-0.2,5.6-1,8.4-0.4c1.4,0.3,2.7,0.9,4,1.4
			c1.8,0.7,3.7,1.3,5.7,1.3C85,61.1,85,61.1,85,61.1z M95.5,52.1c-1.9,1.1-3.7,2.3-5.5,3.4c-2.7,1.7-5.5,1.9-8.5,0.8
			c-0.1,0-0.2-0.1-0.3-0.2c-4.2-2.2-8.7-2.3-13.3-1.6c-2.7,0.4-5.5,0.5-8.3,0.8c-0.9,0.1-1.4-0.1-1.3-1.1c0.1-0.4,0-0.9,0-1.7
			c-0.5-1.6,0.5-2.5,2-3.4c3.6-2.3,7.3-4.6,10.8-7.1c3.8-2.7,7.8-3.4,12.2-2.3c2.7,0.7,5.5,1.2,8.3,1.7c0.9,0.2,1.3,0.5,1.6,1.4
			c0.9,2.7,1.8,5.3,2.8,8C96.2,51.4,96.1,51.8,95.5,52.1z M98.9,46.1c-0.5-0.2-0.7-0.5-0.9-1c-0.9-2.7-1.8-5.4-2.8-8.1
			c-0.2-0.5-0.2-0.9,0.2-1.3c2.1-2.3,6.7-3.4,9.6-2.3c0.6,0.2,0.6,0.5,0.6,1c0,1.8,0,3.7,0,5.5c0,1.7,0,3.5,0,5.2
			c0,0.6-0.2,0.9-0.8,1C102.8,46.9,100.9,46.7,98.9,46.1z M92.9,83.3c-0.2,1.2-0.7,1.4-1.7,1.3c-0.2,0-0.4,0-0.6,0
			c-2.5,0-2.6-0.1-2.1-2.4c1.5-6.9,5.4-12,11.6-15.4c0.9-0.5,1.3-0.5,1.6,0.6c0.2,1,1.1,2.1,0.8,2.9c-0.2,0.7-1.5,1.1-2.3,1.6
			C96.2,74.8,93.7,78.6,92.9,83.3z M112.7,100.1c-7.2,1.2-14.8-3.5-16.1-11.5c-0.1-0.7-0.1-1.5-0.2-2.3c0.2-5.1,2.4-9,6.7-11.7
			c0.7-0.5,1-0.4,1.2,0.5c0.3,1,0.7,2,1.1,3c0.3,0.7,0.1,1-0.5,1.4c-3,2.4-4.2,6.1-3.1,9.6c1.1,3.5,4.2,5.9,7.9,6.2
			c4.3,0.3,8.6-3.1,9.2-7.3c0.7-4.8-2.2-9.1-6.6-10.1c-0.4-0.1-0.8-0.3-1.1-0.2c-2,0.4-2.4-0.9-2.8-2.4c-0.1-0.4-0.3-0.9-0.5-1.3
			c-0.4-1.2-0.4-1.3,1-1.4c8-0.6,14.7,5.2,15.2,13.3C124.6,92.6,119.3,99,112.7,100.1z M64.1,60.2c-2-0.1-4.1-0.1-6.1,0
			c-1,0-1.8,0.9-1.8,1.8c0,1,0.6,1.8,1.7,1.9c1,0.1,2,0,3,0c1.1,0,2.2,0.1,3.2,0c1.1-0.1,1.8-0.9,1.8-1.9
			C65.9,61.1,65.1,60.2,64.1,60.2z M63.9,66c-1.9-0.1-3.7,0-5.6,0c-1.3,0-2,0.8-2.1,1.9c0,1.1,0.8,1.9,2.1,2c1,0,1.9,0,2.9,0
			c0.9,0,1.8,0,2.7,0c1.2-0.1,2.1-0.9,2.1-1.9C65.9,66.9,65.1,66,63.9,66z M63.9,66c-1.9-0.1-3.7,0-5.6,0c-1.3,0-2,0.8-2.1,1.9
			c0,1.1,0.8,1.9,2.1,2c1,0,1.9,0,2.9,0c0.9,0,1.8,0,2.7,0c1.2-0.1,2.1-0.9,2.1-1.9C65.9,66.9,65.1,66,63.9,66z M64.1,60.2
			c-2-0.1-4.1-0.1-6.1,0c-1,0-1.8,0.9-1.8,1.8c0,1,0.6,1.8,1.7,1.9c1,0.1,2,0,3,0c1.1,0,2.2,0.1,3.2,0c1.1-0.1,1.8-0.9,1.8-1.9
			C65.9,61.1,65.1,60.2,64.1,60.2z M64.1,60.2c-2-0.1-4.1-0.1-6.1,0c-1,0-1.8,0.9-1.8,1.8c0,1,0.6,1.8,1.7,1.9c1,0.1,2,0,3,0
			c1.1,0,2.2,0.1,3.2,0c1.1-0.1,1.8-0.9,1.8-1.9C65.9,61.1,65.1,60.2,64.1,60.2z M63.9,66c-1.9-0.1-3.7,0-5.6,0
			c-1.3,0-2,0.8-2.1,1.9c0,1.1,0.8,1.9,2.1,2c1,0,1.9,0,2.9,0c0.9,0,1.8,0,2.7,0c1.2-0.1,2.1-0.9,2.1-1.9C65.9,66.9,65.1,66,63.9,66
			z M63.9,66c-1.9-0.1-3.7,0-5.6,0c-1.3,0-2,0.8-2.1,1.9c0,1.1,0.8,1.9,2.1,2c1,0,1.9,0,2.9,0c0.9,0,1.8,0,2.7,0
			c1.2-0.1,2.1-0.9,2.1-1.9C65.9,66.9,65.1,66,63.9,66z M64.1,60.2c-2-0.1-4.1-0.1-6.1,0c-1,0-1.8,0.9-1.8,1.8c0,1,0.6,1.8,1.7,1.9
			c1,0.1,2,0,3,0c1.1,0,2.2,0.1,3.2,0c1.1-0.1,1.8-0.9,1.8-1.9C65.9,61.1,65.1,60.2,64.1,60.2z M64.1,60.2c-2-0.1-4.1-0.1-6.1,0
			c-1,0-1.8,0.9-1.8,1.8c0,1,0.6,1.8,1.7,1.9c1,0.1,2,0,3,0c1.1,0,2.2,0.1,3.2,0c1.1-0.1,1.8-0.9,1.8-1.9
			C65.9,61.1,65.1,60.2,64.1,60.2z M63.9,66c-1.9-0.1-3.7,0-5.6,0c-1.3,0-2,0.8-2.1,1.9c0,1.1,0.8,1.9,2.1,2c1,0,1.9,0,2.9,0
			c0.9,0,1.8,0,2.7,0c1.2-0.1,2.1-0.9,2.1-1.9C65.9,66.9,65.1,66,63.9,66z M63.9,66c-1.9-0.1-3.7,0-5.6,0c-1.3,0-2,0.8-2.1,1.9
			c0,1.1,0.8,1.9,2.1,2c1,0,1.9,0,2.9,0c0.9,0,1.8,0,2.7,0c1.2-0.1,2.1-0.9,2.1-1.9C65.9,66.9,65.1,66,63.9,66z M64.1,60.2
			c-2-0.1-4.1-0.1-6.1,0c-1,0-1.8,0.9-1.8,1.8c0,1,0.6,1.8,1.7,1.9c1,0.1,2,0,3,0c1.1,0,2.2,0.1,3.2,0c1.1-0.1,1.8-0.9,1.8-1.9
			C65.9,61.1,65.1,60.2,64.1,60.2z M64.1,60.2c-2-0.1-4.1-0.1-6.1,0c-1,0-1.8,0.9-1.8,1.8c0,1,0.6,1.8,1.7,1.9c1,0.1,2,0,3,0
			c1.1,0,2.2,0.1,3.2,0c1.1-0.1,1.8-0.9,1.8-1.9C65.9,61.1,65.1,60.2,64.1,60.2z M63.9,66c-1.9-0.1-3.7,0-5.6,0
			c-1.3,0-2,0.8-2.1,1.9c0,1.1,0.8,1.9,2.1,2c1,0,1.9,0,2.9,0c0.9,0,1.8,0,2.7,0c1.2-0.1,2.1-0.9,2.1-1.9C65.9,66.9,65.1,66,63.9,66
			z"/>
		<path d="M65.9,67.9c0,1-0.9,1.9-2.1,1.9c-0.9,0.1-1.8,0-2.7,0c-1,0-1.9,0-2.9,0c-1.3-0.1-2.1-0.9-2.1-2c0-1.1,0.8-1.8,2.1-1.9
			c1.9,0,3.7,0,5.6,0C65.1,66,65.9,66.9,65.9,67.9z"/>
		<path d="M56.2,62c0-1,0.8-1.8,1.8-1.8c2-0.1,4.1-0.1,6.1,0c1,0,1.8,0.9,1.8,1.9c0,1-0.7,1.8-1.8,1.9c-1.1,0.1-2.2,0-3.2,0
			c-1,0-2,0.1-3,0C56.8,63.8,56.2,63.1,56.2,62z"/>
		<path d="M65.9,67.9c0,1-0.9,1.9-2.1,1.9c-0.9,0.1-1.8,0-2.7,0c-1,0-1.9,0-2.9,0c-1.3-0.1-2.1-0.9-2.1-2c0-1.1,0.8-1.8,2.1-1.9
			c1.9,0,3.7,0,5.6,0C65.1,66,65.9,66.9,65.9,67.9z"/>
		<path d="M65.9,62.1c0,1-0.7,1.8-1.8,1.9c-1.1,0.1-2.2,0-3.2,0c-1,0-2,0.1-3,0c-1.1-0.1-1.8-0.9-1.7-1.9c0-1,0.8-1.8,1.8-1.8
			c2-0.1,4.1-0.1,6.1,0C65.1,60.2,65.9,61.1,65.9,62.1z"/>
	</g>
</g>
</svg>
