<?xml version="1.0" encoding="utf-8"?>
<!-- Generator: Adobe Illustrator 27.9.0, SVG Export Plug-In . SVG Version: 6.00 Build 0)  -->
<svg version="1.1" id="Layer_1" xmlns="http://www.w3.org/2000/svg" xmlns:xlink="http://www.w3.org/1999/xlink" x="0px" y="0px"
	 viewBox="0 0 128 128" style="enable-background:new 0 0 128 128;" xml:space="preserve">
<g>
	<path d="M17.91,24.82c0-1.04-0.84-1.87-1.87-1.87H5.2c-1.04,0-1.87,0.84-1.87,1.87S4.17,26.7,5.2,26.7h10.83
		C17.07,26.7,17.91,25.86,17.91,24.82z"/>
	<path d="M7.42,16.41l7.66,3.63c0.26,0.12,0.53,0.18,0.8,0.18c0.7,0,1.37-0.4,1.69-1.07c0.44-0.94,0.05-2.05-0.89-2.5l-7.66-3.64
		c-0.94-0.44-2.05-0.04-2.5,0.89C6.08,14.85,6.48,15.96,7.42,16.41z"/>
	<path d="M15.38,29.61l-7.66,3.63c-0.93,0.44-1.33,1.56-0.89,2.5c0.32,0.68,0.99,1.07,1.69,1.07c0.27,0,0.54-0.06,0.8-0.18
		l7.66-3.63c0.94-0.44,1.33-1.56,0.89-2.5C17.43,29.56,16.32,29.16,15.38,29.61z"/>
	<path d="M63.78,99.24c1.04,0,1.87-0.84,1.87-1.87v-10.9l1.8-1.08c1.53,1.7,3.5,2.6,5.66,2.6c0.75,0,1.53-0.11,2.32-0.33
		c5.06-1.42,9.24-6.92,9.94-13.07c0-0.03,0.01-0.06,0.01-0.09c0.08-1.34-0.25-2.44-0.99-3.28c-0.79-0.89-1.97-1.38-3.51-1.47
		c-6.85-0.37-12.5,2.04-14.74,6.29c-1.03,1.95-1.21,4.1-0.57,6.11l-1.8,1.08l-1.8-1.08c0.64-2.01,0.46-4.16-0.57-6.11
		c-2.24-4.26-7.88-6.67-14.75-6.29c-1.54,0.09-2.72,0.58-3.51,1.47c-0.74,0.84-1.08,1.94-0.99,3.28c0,0.03,0,0.06,0.01,0.09
		c0.7,6.15,4.88,11.65,9.94,13.07c0.79,0.22,1.56,0.33,2.32,0.33c2.16,0,4.13-0.9,5.66-2.6l1.81,1.08v10.9
		C61.9,98.4,62.74,99.24,63.78,99.24z M69.46,77.77c1.21-2.3,4.8-4.64,11.21-4.29c0.64,0.04,0.88,0.18,0.92,0.21
		c0.02,0.02,0.07,0.17,0.06,0.51c-0.6,5.05-4.14,8.97-7.23,9.84c-1.41,0.4-2.63,0.17-3.64-0.65l3.6-2.17
		c0.89-0.53,1.17-1.68,0.64-2.57c-0.53-0.89-1.69-1.17-2.57-0.64l-3.48,2.09C68.9,79.32,69.06,78.53,69.46,77.77z M58.59,80.1
		l-3.48-2.09c-0.89-0.53-2.04-0.25-2.57,0.64c-0.53,0.89-0.25,2.04,0.64,2.57l3.6,2.17c-1.02,0.83-2.24,1.05-3.65,0.65
		c-3.09-0.87-6.63-4.78-7.23-9.84c-0.02-0.34,0.04-0.49,0.06-0.51c0.03-0.04,0.28-0.18,0.91-0.21c6.43-0.35,10.01,1.99,11.22,4.29
		C58.49,78.53,58.65,79.32,58.59,80.1z"/>
	<path d="M123.76,47.14l-12.72-22.37c-0.01-0.02-0.02-0.04-0.03-0.06c-4.13-6.69-7.54-7.25-10.96-7.25H72.14v-3.94h2.28
		c2.7,0,4.9-2.2,4.9-4.9V4.9c0-2.7-2.2-4.9-4.9-4.9H53.54c-2.71,0-4.91,2.2-4.91,4.9v3.73c0,2.7,2.2,4.9,4.91,4.9h2.28v3.94H35.04
		c-0.09-2.07-1.8-3.73-3.9-3.73H25.5c-2.15,0-3.9,1.75-3.9,3.9v13.73c0,2.15,1.75,3.9,3.9,3.9h5.63c2.1,0,3.81-1.66,3.9-3.73h13.46
		l-4.19,8.38h-6.8c-2.7,0-4.9,2.2-4.9,4.9v78.27c0,2.7,2.2,4.9,4.9,4.9h52.84c2.7,0,4.9-2.2,4.9-4.9V84.07
		c0-1.04-0.84-1.87-1.87-1.87c-1.04,0-1.87,0.84-1.87,1.87v26.88H36.36V55.37h22.73c1.04,0,1.87-0.84,1.87-1.87
		s-0.84-1.87-1.87-1.87H36.36v-6.79c0-0.64,0.52-1.15,1.15-1.15h52.84c0.63,0,1.15,0.52,1.15,1.15v6.79H69.4
		c-1.04,0-1.87,0.84-1.87,1.87s0.84,1.87,1.87,1.87h22.1v20.05c0,1.04,0.84,1.87,1.87,1.87s1.87-0.84,1.87-1.87V44.83
		c0-2.7-2.2-4.9-4.9-4.9h-5.47l-4.18-8.38h12.68c5.51,0,5.95,0.82,8.43,5.4c0.4,0.73,0.85,1.57,1.37,2.48l8.35,14.67
		c0.93,1.63,2.44,2.81,4.25,3.31c0.62,0.17,1.26,0.26,1.89,0.26c1.2,0,2.38-0.31,3.45-0.92c1.63-0.93,2.81-2.44,3.31-4.26
		C124.92,50.67,124.68,48.77,123.76,47.14z M31.3,31.38c0,0.08-0.08,0.15-0.16,0.15H25.5c-0.08,0-0.15-0.07-0.15-0.15V17.64
		c0-0.08,0.07-0.15,0.15-0.15h5.63c0.08,0,0.16,0.07,0.16,0.15V31.38z M91.5,114.7v8.39c0,0.63-0.52,1.15-1.15,1.15H37.51
		c-0.64,0-1.15-0.52-1.15-1.15v-8.39H91.5z M53.54,9.78c-0.63,0-1.16-0.53-1.16-1.15V4.9c0-0.62,0.53-1.15,1.16-1.15h20.88
		c0.63,0,1.15,0.52,1.15,1.15v3.73c0,0.64-0.52,1.15-1.15,1.15H53.54z M68.39,13.53v3.94h-8.82v-3.94H68.39z M48.5,39.93l4.19-8.38
		h23.82l4.18,8.38H48.5z M120.8,51.49c-0.24,0.85-0.78,1.56-1.54,1.99c-0.76,0.43-1.64,0.54-2.49,0.31
		c-0.85-0.23-1.56-0.78-1.99-1.54l-8.35-14.67c-0.5-0.88-0.94-1.69-1.33-2.41c-2.83-5.24-4.28-7.36-11.73-7.36H35.05v-6.58h65
		c2.15,0,4.38,0,7.75,5.44l12.7,22.34C120.93,49.75,121.04,50.64,120.8,51.49z"/>
</g>
</svg>
