<?xml version="1.0" encoding="utf-8"?>
<!-- Generator: Adobe Illustrator 27.9.0, SVG Export Plug-In . SVG Version: 6.00 Build 0)  -->
<svg version="1.1" id="Layer_1" xmlns="http://www.w3.org/2000/svg" xmlns:xlink="http://www.w3.org/1999/xlink" x="0px" y="0px"
	 viewBox="0 0 128 128" style="enable-background:new 0 0 128 128;" xml:space="preserve">
<g>
	<path d="M35.32,6.48c-4.62,0.01-8.36,3.75-8.37,8.37c0,1.04,0.85,1.89,1.89,1.89c1.04,0,1.89-0.85,1.89-1.89
		c0-2.53,2.06-4.59,4.59-4.59h12.3c1.04,0,1.89-0.85,1.89-1.89s-0.85-1.89-1.89-1.89C47.62,6.48,35.32,6.48,35.32,6.48z"/>
	<path d="M58.95,6.48H55.6c-1.04,0-1.89,0.85-1.89,1.89s0.85,1.89,1.89,1.89h3.35c1.04,0,1.89-0.85,1.89-1.89S59.99,6.48,58.95,6.48
		L58.95,6.48z"/>
	<path d="M48.57,3.78h10.38c1.04,0,1.89-0.85,1.89-1.89S59.99,0,58.95,0l0,0H48.57c-1.04,0-1.89,0.85-1.89,1.89
		S47.52,3.78,48.57,3.78z"/>
	<path d="M22.36,16.74c1.04,0,1.89-0.84,1.89-1.89l0,0c0.01-6.11,4.96-11.06,11.07-11.07h4.99c1.04,0,1.89-0.85,1.89-1.89
		S41.35,0,40.31,0h-4.99c-8.2,0.01-14.84,6.65-14.85,14.85C20.47,15.9,21.31,16.74,22.36,16.74z"/>
	<path d="M84.49,6.48c-4.62,0.01-8.37,3.75-8.37,8.37c0,1.04,0.85,1.89,1.89,1.89s1.89-0.85,1.89-1.89c0-2.53,2.06-4.59,4.59-4.59
		h5.7c1.04,0,1.89-0.85,1.89-1.89s-0.85-1.89-1.89-1.89l0,0C90.19,6.48,84.49,6.48,84.49,6.48z"/>
	<path d="M96.27,8.37c0,1.04,0.84,1.89,1.89,1.89l0,0h9.96c1.04,0,1.89-0.85,1.89-1.89s-0.85-1.89-1.89-1.89h-9.96
		C97.12,6.48,96.27,7.33,96.27,8.37L96.27,8.37z"/>
	<path d="M105.52,3.78h2.6c1.04,0,1.89-0.85,1.89-1.89S109.17,0,108.12,0h-2.6c-1.04,0-1.89,0.85-1.89,1.89S104.47,3.78,105.52,3.78
		z"/>
	<path d="M71.53,16.74c1.04,0,1.89-0.85,1.89-1.89c0.01-6.11,4.96-11.07,11.07-11.07h10.63c1.04,0,1.89-0.85,1.89-1.89
		S96.17,0,95.12,0H84.49c-8.2,0.01-14.84,6.65-14.85,14.85C69.64,15.9,70.49,16.74,71.53,16.74L71.53,16.74z"/>
	<path d="M113.15,62.63c-1.04,0-1.89,0.85-1.89,1.89V71c0,1.04,0.85,1.89,1.89,1.89s1.89-0.85,1.89-1.89v-6.48
		C115.04,63.48,114.19,62.63,113.15,62.63z"/>
	<path d="M126.11,117.74h-4.59V50.66l4.82-0.58c1.03-0.15,1.75-1.11,1.6-2.14c-0.14-1-1.05-1.71-2.05-1.61l-38.5,4.63L86.35,29.2
		c0.68-0.3,1.12-0.98,1.12-1.72V21c0-1.04-0.85-1.89-1.89-1.89h-21.6c-1.04,0-1.89,0.85-1.89,1.89v6.48c0,0.75,0.44,1.43,1.12,1.73
		l-1.18,24.8l-23.54,2.83L37.18,29.2c0.68-0.3,1.12-0.98,1.12-1.72V21c0-1.04-0.85-1.89-1.89-1.89H14.8c-1.04,0-1.89,0.85-1.89,1.89
		v6.48c0,0.75,0.44,1.43,1.13,1.73l-3.45,72.33H9.15c-1.01,0-1.84,0.79-1.89,1.8l-0.69,14.4H1.89c-1.04,0-1.89,0.84-1.89,1.89l0,0
		v6.48c0,1.04,0.84,1.89,1.89,1.89l0,0h124.22c1.04,0,1.89-0.84,1.89-1.89l0,0v-6.48C128,118.59,127.16,117.74,126.11,117.74
		L126.11,117.74z M107.13,117.74V98.03c0-1.04-0.85-1.89-1.89-1.89H92.28c-1.04,0-1.89,0.84-1.89,1.89l0,0v19.71h-2.92V98.03
		c0-1.04-0.85-1.89-1.89-1.89H72.62c-1.04,0-1.89,0.84-1.89,1.89l0,0v19.71H27.49V61.96l90.25-10.85v66.62L107.13,117.74
		L107.13,117.74z M103.35,117.74h-9.18V99.92h9.18V117.74z M83.69,117.74h-9.18V99.92h9.18V117.74z M65.87,22.89h17.82v2.7H65.87
		V22.89z M66.99,29.37h15.58l1.05,22.04l-17.78,2.14L66.99,29.37z M16.7,22.89h17.82v2.7H16.69L16.7,22.89z M17.82,29.37H33.4
		l1.32,27.91l-15.83,1.9c-1.04,0.13-1.77,1.07-1.65,2.11c0.12,0.95,0.92,1.66,1.87,1.66c0.08,0,0.15,0,0.23-0.01l4.37-0.53v39.12
		h-9.34L17.82,29.37z M10.95,105.32h12.76v12.42H10.35L10.95,105.32z M124.22,124.22H3.78v-2.7h120.44V124.22z"/>
	<path d="M60.16,89.83h-21.6c-1.04,0-1.89,0.85-1.89,1.89s0.85,1.89,1.89,1.89h21.6c1.04,0,1.89-0.85,1.89-1.89
		S61.21,89.83,60.16,89.83L60.16,89.83z"/>
	<path d="M60.16,76.87h-21.6c-1.04,0-1.89,0.85-1.89,1.89s0.85,1.89,1.89,1.89h21.6c1.04,0,1.89-0.85,1.89-1.89
		S61.21,76.87,60.16,76.87L60.16,76.87z"/>
	<path d="M60.16,83.35h-21.6c-1.04,0-1.89,0.85-1.89,1.89s0.85,1.89,1.89,1.89h21.6c1.04,0,1.89-0.85,1.89-1.89
		C62.05,84.2,61.21,83.35,60.16,83.35L60.16,83.35z"/>
	<path d="M82.34,80.11h-6.48c-1.04,0-1.89,0.84-1.89,1.89l0,0v6.48c0,1.04,0.84,1.89,1.89,1.89l0,0h6.48c1.04,0,1.89-0.85,1.89-1.89
		V82C84.23,80.96,83.38,80.11,82.34,80.11z M80.45,86.59h-2.7v-2.7h2.7V86.59z"/>
	<path d="M102,80.11h-6.48c-1.04,0-1.89,0.84-1.89,1.89l0,0v6.48c0,1.04,0.84,1.89,1.89,1.89l0,0H102c1.04,0,1.89-0.85,1.89-1.89V82
		C103.89,80.96,103.05,80.11,102,80.11z M100.11,86.59h-2.7v-2.7h2.7V86.59z"/>
</g>
</svg>
