<?xml version="1.0" encoding="utf-8"?>
<!-- Generator: Adobe Illustrator 27.9.0, SVG Export Plug-In . SVG Version: 6.00 Build 0)  -->
<svg version="1.1" id="Layer_1" xmlns="http://www.w3.org/2000/svg" xmlns:xlink="http://www.w3.org/1999/xlink" x="0px" y="0px"
	 viewBox="0 0 128 128" style="enable-background:new 0 0 128 128;" xml:space="preserve">
<path d="M124.35,32.68l-6.28-6.28c-0.26-0.26-0.52-0.48-0.8-0.67c-0.09-0.06-0.17-0.11-0.26-0.16c-0.2-0.13-0.4-0.25-0.6-0.35
	c-0.1-0.05-0.2-0.09-0.31-0.13c-0.2-0.08-0.4-0.16-0.6-0.22c-0.1-0.03-0.21-0.05-0.31-0.08c-0.21-0.05-0.42-0.09-0.63-0.11
	c-0.1-0.01-0.19-0.02-0.29-0.03c-0.23-0.02-0.45-0.02-0.68-0.01c-0.04,0-0.08,0-0.11,0l-6.56-6.56c-0.78-0.78-1.64-1.44-2.54-1.99
	v-0.02c-0.17-0.1-0.34-0.19-0.52-0.29c-0.13-0.08-0.27-0.16-0.4-0.23c-0.35-0.18-0.71-0.35-1.08-0.5c-0.02-0.01-0.04-0.02-0.06-0.03
	c-0.4-0.16-0.8-0.3-1.21-0.43c-0.09-0.03-0.18-0.05-0.27-0.07c-0.32-0.09-0.64-0.17-0.96-0.24c-0.12-0.02-0.24-0.04-0.36-0.07
	c-0.3-0.05-0.6-0.1-0.9-0.13c-0.13-0.01-0.25-0.03-0.38-0.04c-0.14-0.01-0.28-0.03-0.43-0.04C96.32,6.05,89.34,0,80.92,0H27.46
	c-9.5,0-17.2,7.7-17.2,17.19v95.75H7.53c-4.16,0-7.53,3.37-7.53,7.53c0,4.16,3.37,7.53,7.53,7.53h10.75H90.1h0.7h10.04
	c4.16,0,7.53-3.37,7.53-7.53c0-4.16-3.37-7.53-7.53-7.53h-2.73V73.21c1.53,1.18,2.53,3.03,2.53,5.1v21.25
	c0,7.06,5.74,12.8,12.8,12.8s12.8-5.75,12.79-12.8V63.31c0.1-0.1,0.2-0.21,0.3-0.32c0.08-0.09,0.16-0.19,0.23-0.28
	c0.09-0.12,0.18-0.23,0.26-0.36c0.07-0.11,0.14-0.23,0.21-0.35c0.07-0.12,0.14-0.24,0.2-0.37c0.07-0.14,0.12-0.28,0.17-0.43
	c0.05-0.12,0.1-0.24,0.13-0.36c0.05-0.18,0.09-0.36,0.13-0.55c0.02-0.11,0.05-0.21,0.07-0.32c0.04-0.3,0.07-0.61,0.07-0.93V41.5
	C128,38.19,126.69,35.02,124.35,32.68z M58.62,97.9c0,2.15-2.62,3.22-5.24,3.22s-5.24-1.07-5.24-3.22V79.71H34.78v18.2
	c0,1.1-0.69,1.93-1.72,2.46c-5.4-5.41-8.75-12.88-8.75-21.13V55.21c0-2.21,2.62-3.15,5.24-3.15s5.24,0.93,5.24,3.15v16.44h13.36
	V55.2c0-2.21,2.62-3.15,5.24-3.15s5.23,0.94,5.23,3.15V97.9z M84.06,78.82c-0.22,9.15-13.29,12.19-13.29,16.07v0.39h8.62
	c-1.37,2.15-3.01,4.12-4.88,5.85h-7.79c-1.2,0-2.92-0.82-2.92-2.07v-4.17c0-6.76,13.55-10.63,13.55-16.09
	c0-1.37-0.86-3.05-3.27-3.05c-1.72,0-3.23,0.86-3.23,3.23c0,1.25-1.34,2.45-3.53,2.45c-1.72,0-3.01-0.77-3.01-3.48
	c0-5.25,4.82-8.26,9.72-8.26c4.75,0,9.54,2.84,9.99,8.08c0.02,0.26,0.03,0.54,0.05,0.82C84.07,78.66,84.07,78.74,84.06,78.82z
	 M85.22,38.63c0,3.27-2.65,5.92-5.92,5.92H29.07c-3.27,0-5.92-2.65-5.92-5.92V29c0-10.96,8.89-19.85,19.85-19.85h22.37
	c10.97,0,19.85,8.89,19.85,19.85V38.63z M118.71,99.57c0,2.91-2.36,5.27-5.27,5.27s-5.27-2.36-5.27-5.27V78.32
	c0-6.34-4.26-11.7-10.06-13.4V21.67c1.33,0.23,2.61,0.85,3.63,1.87l2.65,2.65l3.49,3.49c-0.05,0.31-0.07,0.63-0.07,0.97V48.2
	c0,3.31,1.31,6.48,3.65,8.82l6.28,6.28c0.31,0.31,0.63,0.55,0.97,0.78V99.57z"/>
</svg>
