<?xml version="1.0" encoding="UTF-8"?><svg id="a" xmlns="http://www.w3.org/2000/svg" viewBox="0 0 114.93 128"><defs><style>.b{stroke-width:0px;}</style></defs><path class="b" d="m111.31,66.61c.04-.89.07-1.78.07-2.65,0-10.34-2.93-20.38-8.49-29.05-5.19-8.1-12.42-14.65-20.97-19V6.58c0-3.63-2.95-6.58-6.58-6.58h-23.71c-1.03,0-1.87.84-1.87,1.87s.84,1.87,1.87,1.87h23.71c1.56,0,2.84,1.27,2.84,2.84v8.61h-41.46V6.58c0-1.56,1.27-2.84,2.84-2.84h4.1c1.03,0,1.87-.84,1.87-1.87s-.84-1.87-1.87-1.87h-4.1c-3.63,0-6.58,2.95-6.58,6.58v9.33c-6.7,3.42-12.73,8.3-17.47,14.17-5.05,6.25-8.69,13.66-10.53,21.44-.24,1.01.38,2.01,1.39,2.25.14.03.29.05.43.05.85,0,1.62-.58,1.82-1.44,1.71-7.24,5.1-14.14,9.8-19.95,1.19-1.47,2.47-2.87,3.82-4.2v38.37H7.36c-.05-.89-.07-1.77-.07-2.63,0-1.31.05-2.64.16-3.97.08-1.03-.69-1.93-1.72-2.01-1.03-.08-1.93.69-2.01,1.72-.11,1.42-.17,2.86-.17,4.26,0,.87.02,1.76.07,2.65-2.03.22-3.61,1.94-3.61,4.02v6.04c0,2.23,1.82,4.05,4.05,4.05h1.13v8.32h-.62c-1.03,0-1.87.84-1.87,1.87s.84,1.87,1.87,1.87h.62v10.1h-.62c-1.03,0-1.87.84-1.87,1.87s.84,1.87,1.87,1.87h.62v10.1h-.62c-1.03,0-1.87.84-1.87,1.87s.84,1.87,1.87,1.87h.11l-1.87,5c-.21.57-.13,1.22.22,1.72.35.5.92.8,1.54.8h14.35c.61,0,1.19-.3,1.54-.8.35-.5.43-1.15.22-1.72l-1.87-5h31.62l-1.87,5c-.21.57-.13,1.22.22,1.72.35.5.92.8,1.54.8h14.35c.61,0,1.19-.3,1.54-.8.35-.5.43-1.15.22-1.72l-1.87-5h31.87l-1.87,5c-.21.57-.13,1.22.22,1.72.35.5.92.8,1.54.8h14.35c.61,0,1.19-.3,1.54-.8.35-.5.43-1.15.22-1.72l-1.87-5h.11c1.03,0,1.87-.84,1.87-1.87s-.84-1.87-1.87-1.87h-.62v-10.1h.62c1.03,0,1.87-.84,1.87-1.87s-.84-1.87-1.87-1.87h-.62v-10.1h.62c1.03,0,1.87-.84,1.87-1.87s-.84-1.87-1.87-1.87h-.62v-8.32h.88c2.23,0,4.05-1.82,4.05-4.05v-6.04c0-2.08-1.59-3.81-3.61-4.02h0Zm-71.57-22.26h-13.76v-8.88h13.76v8.88Zm-13.76,3.74h13.76v8.88h-13.76v-8.88Zm9.32-29.16h4.44v12.81h-13.76v-6.84c2.88-2.33,6.02-4.33,9.32-5.96Zm-9.32,41.78h13.76v5.88h-13.76v-5.88ZM7.24,124.26l1.55-4.16c.08-.21.12-.43.12-.65v-38.72h5.62v38.72c0,.22.04.44.12.65l1.55,4.16H7.24Zm43.67-43.53v8.32H18.28v-8.32h32.64Zm0,32.98c-7.06-.93-13.82-3.37-19.82-7.08h19.82v7.08Zm0-10.82h-25.08c-2.76-2.24-5.3-4.79-7.55-7.6v-2.5h32.64v10.1Zm-32.64-1.91c.62.65,1.25,1.29,1.9,1.91h-1.9v-1.91Zm0,5.65h6.26c6.43,4.95,13.92,8.43,21.88,10.1h-28.14v-10.1Zm34.71,17.63l1.55-4.16c.08-.21.12-.43.12-.65v-38.72h5.62v38.72c0,.22.04.44.12.65l1.55,4.16h-8.96Zm43.92-43.53v8.32h-32.89v-8.32h32.89Zm0,22.16h-2.15c.74-.7,1.45-1.43,2.15-2.18v2.18Zm0-7.92c-2.31,2.94-4.93,5.59-7.8,7.92h-25.09v-10.1h32.89v2.18Zm-32.89,11.66h19.83c-6,3.71-12.76,6.15-19.83,7.08v-7.08Zm26.39,0h6.5v10.1h-28.38c7.97-1.67,15.46-5.14,21.89-10.1Zm15.86,12.82c0,.22.04.44.12.65l1.55,4.16h-8.96l1.55-4.16c.08-.21.12-.43.12-.65v-38.72h5.62v38.72Zm4.92-42.77c0,.17-.14.31-.31.31H4.05c-.17,0-.31-.14-.31-.31v-6.04c0-.17.14-.31.31-.31h88.25c1.03,0,1.87-.84,1.87-1.87s-.84-1.87-1.87-1.87h-48.81V18.93h36.13c8.22,4.05,15.18,10.26,20.13,18,5.16,8.06,7.9,17.41,7.9,27.03,0,.86-.03,1.74-.07,2.63h-7.31c-1.03,0-1.87.84-1.87,1.87s.84,1.87,1.87,1.87h10.62c.17,0,.31.14.31.31v6.04h0Z"/><path class="b" d="m79.56,42.32c-1.03,0-1.87.84-1.87,1.87v3.91h-4.78v-3.91c0-1.03-.84-1.87-1.87-1.87s-1.87.84-1.87,1.87v5.63s0,.09,0,.14,0,.1,0,.14v5.63c0,1.03.84,1.87,1.87,1.87s1.87-.84,1.87-1.87v-3.9h4.78v3.9c0,1.03.84,1.87,1.87,1.87s1.87-.84,1.87-1.87v-11.55c0-1.03-.84-1.87-1.87-1.87Z"/><path class="b" d="m94.17,53.87h-3.09l2.15-2.15c1.98-1.98,1.98-5.19,0-7.17-1.98-1.98-5.19-1.98-7.17,0l-1.3,1.3c-.73.73-.73,1.91,0,2.64.73.73,1.91.73,2.64,0l1.3-1.3c.52-.52,1.36-.52,1.88,0,.25.25.39.59.39.94s-.14.69-.39.94l-4.58,4.58c-.66.66-.86,1.65-.5,2.52s1.2,1.43,2.14,1.43h6.53c1.03,0,1.87-.84,1.87-1.87s-.84-1.87-1.87-1.87h0Z"/></svg>