<?xml version="1.0" encoding="utf-8"?>
<!-- Generator: Adobe Illustrator 27.9.0, SVG Export Plug-In . SVG Version: 6.00 Build 0)  -->
<svg version="1.1" id="Layer_1" xmlns="http://www.w3.org/2000/svg" xmlns:xlink="http://www.w3.org/1999/xlink" x="0px" y="0px"
	 viewBox="0 0 128 128" style="enable-background:new 0 0 128 128;" xml:space="preserve">
<g>
	<path d="M44.32,63.01c3.47,0,6.73-1.69,8.72-4.53l24.43-34.71c1.58-2.23,1.31-5.27-0.62-7.19c-2.22-2.12-5.71-2.12-7.93,0
		L32.15,53.33L12.54,72.96c-2.5,2.5-2.5,6.55,0,9.05s6.55,2.5,9.05,0l18.99-18.99L44.32,63.01z M71.93,19.59
		c0.53-0.51,1.37-0.51,1.9,0c0.46,0.46,0.53,1.19,0.15,1.72L49.55,56.03c-1.2,1.7-3.15,2.72-5.23,2.72h-3.74l-3.9-3.9L71.93,19.59z
		 M18.58,78.98c-0.84,0.81-2.17,0.81-3.02,0c-0.83-0.83-0.83-2.18,0-3.02L27.63,63.9l3.02,3.02L18.58,78.98z M33.66,63.9l-3.02-3.02
		l3.02-3.02l3.02,3.02L33.66,63.9z"/>
	<path d="M84.1,76.82L66,58.71c-0.4-0.4-0.94-0.63-1.51-0.63s-1.11,0.22-1.51,0.63L27.63,94.08c-0.83,0.83-0.83,2.18,0,3.02
		l18.1,18.1c0.83,0.83,2.18,0.83,3.02,0L84.1,79.83C84.93,79,84.93,77.65,84.1,76.82z M47.24,110.66L32.15,95.57l32.34-32.33
		l15.08,15.08L47.24,110.66z"/>
	<path d="M95.51,26.18l-18.1,18.1c-0.83,0.83-0.83,2.18,0,3.02l7.22,7.22l-3.9,2.01c-1.05,0.54-1.46,1.83-0.92,2.87l11.73,22.76
		c0.26,0.5,0.71,0.88,1.25,1.05c0.21,0.07,0.42,0.1,0.64,0.1c0.34,0,0.67-0.08,0.98-0.24l22.74-11.73c1.05-0.54,1.46-1.82,0.92-2.87
		l-7.69-14.93l6.24-6.24c0.83-0.83,0.83-2.18,0-3.02l-18.1-18.1C97.69,25.36,96.34,25.36,95.51,26.18z M113.31,68.54l-18.95,9.78
		l-9.78-18.97l3.21-1.66l7.72,7.72c0.83,0.83,2.18,0.83,3.02,0l8.69-8.69L113.31,68.54z M97.02,60.88L81.93,45.8l15.09-15.08
		l15.08,15.09L97.02,60.88z"/>
	<path d="M64,104.53v4.27c15.07,0.02,29.14-7.56,37.42-20.16l-3.56-2.35C90.37,97.69,77.64,104.55,64,104.53z"/>
	<path d="M53.87,24.75l-1.07-4.13c-14.17,3.66-25.66,14-30.78,27.71l3.99,1.49C30.65,37.41,41.05,28.05,53.87,24.75z"/>
	<path d="M64,0C28.65,0,0,28.65,0,64s28.65,64,64,64s64-28.65,64-64C127.96,28.67,99.33,0.04,64,0z M64,123.73
		C31.01,123.73,4.27,96.99,4.27,64S31.01,4.27,64,4.27S123.73,31.01,123.73,64C123.7,96.97,96.97,123.7,64,123.73z"/>
</g>
</svg>
