<?xml version="1.0" encoding="utf-8"?>
<!-- Generator: Adobe Illustrator 27.9.0, SVG Export Plug-In . SVG Version: 6.00 Build 0)  -->
<svg version="1.1" id="Layer_1" xmlns="http://www.w3.org/2000/svg" xmlns:xlink="http://www.w3.org/1999/xlink" x="0px" y="0px"
	 viewBox="0 0 128 128" style="enable-background:new 0 0 128 128;" xml:space="preserve">
<g>
	<g>
		<g>
			<path d="M89.04,47.3c-9.21,0-16.7,7.49-16.7,16.7s7.49,16.7,16.7,16.7s16.7-7.49,16.7-16.7S98.25,47.3,89.04,47.3z M89.04,75.13
				c-6.14,0-11.13-4.99-11.13-11.13s4.99-11.13,11.13-11.13s11.13,4.99,11.13,11.13S95.18,75.13,89.04,75.13z"/>
		</g>
	</g>
	<g>
		<g>
			<path d="M119.65,55.65c-4.6,0-8.35,3.74-8.35,8.35s3.74,8.35,8.35,8.35S128,68.6,128,64S124.26,55.65,119.65,55.65z
				 M119.65,66.78c-1.53,0-2.78-1.25-2.78-2.78s1.25-2.78,2.78-2.78s2.78,1.25,2.78,2.78S121.19,66.78,119.65,66.78z"/>
		</g>
	</g>
	<g>
		<g>
			<path d="M41.68,35.63c-0.03-0.18-0.09-0.35-0.16-0.52c-0.07-0.17-0.15-0.33-0.25-0.48c-0.1-0.15-0.22-0.3-0.35-0.42
				c-0.13-0.13-0.27-0.24-0.42-0.35c-0.15-0.1-0.31-0.19-0.48-0.26s-0.35-0.12-0.52-0.16c-0.36-0.07-0.73-0.07-1.09,0
				c-0.18,0.04-0.35,0.09-0.52,0.16c-0.17,0.07-0.33,0.16-0.48,0.26c-0.15,0.1-0.29,0.22-0.42,0.35c-0.52,0.52-0.82,1.24-0.82,1.97
				s0.3,1.45,0.82,1.97s1.24,0.82,1.97,0.82s1.45-0.3,1.97-0.82s0.82-1.24,0.82-1.97C41.74,35.99,41.72,35.81,41.68,35.63z"/>
		</g>
	</g>
	<g>
		<g>
			<path d="M44.52,77.91c-4.6,0-8.35,3.74-8.35,8.35s3.74,8.35,8.35,8.35s8.35-3.74,8.35-8.35C52.87,81.66,49.12,77.91,44.52,77.91z
				 M44.52,89.04c-1.53,0-2.78-1.25-2.78-2.78s1.25-2.78,2.78-2.78s2.78,1.25,2.78,2.78S46.06,89.04,44.52,89.04z"/>
		</g>
	</g>
	<g>
		<g>
			<path d="M66.77,62.53c-0.01-0.52-0.03-1.04-0.06-1.57c-0.14-2.9-0.46-5.78-0.98-8.6c-1.12-6.08-3.11-11.96-5.92-17.46
				c-0.26-0.52-0.54-1.03-0.82-1.54c-0.68-1.25-1.41-2.47-2.18-3.67c-1.42-2.24-2.98-4.38-4.66-6.42l0,0C39.93,8.48,21.94,0,2.78,0
				C1.25,0,0,1.25,0,2.78V80.7v11.13v33.39c0,1.54,1.25,2.78,2.78,2.78c17.09,0,33.17-6.66,45.25-18.75
				C60.13,97.17,66.78,81.09,66.78,64C66.78,63.51,66.78,63.02,66.77,62.53z M5.57,83.48h19.48c1.53,0,2.78,1.25,2.78,2.78
				s-1.25,2.78-2.78,2.78H5.57V83.48z M5.57,122.37V94.61h19.48c4.6,0,8.35-3.74,8.35-8.35s-3.74-8.35-8.35-8.35H5.57V5.63
				c14.39,0.68,27.89,6.6,38.12,16.63H25.04c-2.23,0-4.32,0.87-5.9,2.45s-2.45,3.67-2.45,5.9c0,4.6,3.74,8.35,8.35,8.35h5.57
				c1.54,0,2.78-1.25,2.78-2.78s-1.25-2.78-2.78-2.78h-5.57c-1.53,0-2.78-1.25-2.78-2.78c0-0.74,0.29-1.44,0.82-1.97
				c0.53-0.53,1.22-0.82,1.97-0.82h23.63c0.03,0.04,0.06,0.07,0.09,0.11c0.21,0.27,0.41,0.54,0.62,0.81
				c0.13,0.17,0.26,0.33,0.38,0.5c0.23,0.31,0.46,0.63,0.68,0.94c0.09,0.13,0.19,0.26,0.28,0.39c0.31,0.45,0.62,0.9,0.92,1.36
				c0.05,0.08,0.1,0.16,0.15,0.24c0.25,0.38,0.49,0.77,0.73,1.15c0.01,0.02,0.02,0.04,0.03,0.05H47.3c-1.54,0-2.78,1.25-2.78,2.78
				c0,1.54,1.25,2.78,2.78,2.78h8.29c1.7,3.57,3.02,7.3,3.96,11.13H47.3c-2.23,0-4.33,0.87-5.9,2.45c-1.58,1.58-2.45,3.67-2.45,5.9
				c0,4.6,3.74,8.35,8.35,8.35h13.85C59.74,96.79,35.58,120.96,5.57,122.37z M47.3,61.22c-1.53,0-2.78-1.25-2.78-2.78
				c0-0.74,0.29-1.44,0.82-1.97c0.53-0.53,1.22-0.82,1.97-0.82h13.32c0.01,0.05,0.02,0.11,0.02,0.16c0.04,0.25,0.07,0.51,0.1,0.76
				c0.03,0.2,0.05,0.4,0.07,0.59c0.03,0.26,0.06,0.52,0.08,0.78c0.02,0.19,0.04,0.39,0.06,0.58c0.02,0.27,0.05,0.54,0.07,0.81
				c0.01,0.19,0.03,0.37,0.04,0.56c0.02,0.29,0.04,0.58,0.05,0.87c0.01,0.15,0.02,0.3,0.03,0.45L47.3,61.22L47.3,61.22z"/>
		</g>
	</g>
</g>
</svg>
