<?xml version="1.0" encoding="utf-8"?>
<!-- Generator: Adobe Illustrator 27.9.0, SVG Export Plug-In . SVG Version: 6.00 Build 0)  -->
<svg version="1.1" id="Layer_1" xmlns="http://www.w3.org/2000/svg" xmlns:xlink="http://www.w3.org/1999/xlink" x="0px" y="0px"
	 viewBox="0 0 128 128" style="enable-background:new 0 0 128 128;" xml:space="preserve">
<g>
	<g>
		<path d="M61.62,32c3.11,0,5.63-2.53,5.63-5.63s-2.53-5.63-5.63-5.63c-3.11,0-5.63,2.53-5.63,5.63C55.98,29.47,58.51,32,61.62,32z
			 M61.62,24.48c1.04,0,1.88,0.84,1.88,1.88s-0.84,1.88-1.88,1.88s-1.88-0.84-1.88-1.88C59.73,25.32,60.58,24.48,61.62,24.48z"/>
		<path d="M76.38,23.75c3.11,0,5.63-2.53,5.63-5.63s-2.53-5.63-5.63-5.63c-3.11,0-5.63,2.53-5.63,5.63S73.28,23.75,76.38,23.75z
			 M76.38,16.23c1.04,0,1.88,0.84,1.88,1.88s-0.85,1.88-1.88,1.88s-1.88-0.84-1.88-1.88S75.34,16.23,76.38,16.23z"/>
		<path d="M63.49,11.27c3.11,0,5.63-2.53,5.63-5.63C69.13,2.53,66.6,0,63.49,0s-5.63,2.53-5.63,5.63
			C57.86,8.74,60.39,11.27,63.49,11.27z M63.49,3.75c1.04,0,1.88,0.84,1.88,1.88s-0.85,1.88-1.88,1.88s-1.88-0.84-1.88-1.88
			S62.46,3.75,63.49,3.75z"/>
		<path d="M88.15,65.23h-6.79c-0.94,0-1.84,0.18-2.67,0.49V46.24c1.73-0.05,3.12-1.47,3.12-3.21v-4.91c0-1.77-1.44-3.22-3.22-3.22
			h-1.84c-1.04,0-1.88,0.84-1.88,1.88s0.84,1.88,1.88,1.88h1.31v3.84H57.34v-3.84H68c1.04,0,1.88-0.84,1.88-1.88S69.04,34.9,68,34.9
			H56.81c-1.77,0-3.22,1.44-3.22,3.22v4.91c0,1.74,1.39,3.16,3.12,3.21v6.31c-0.08-0.01-0.15-0.02-0.23-0.03
			c-2.1-0.2-4.2,0.49-5.77,1.91s-2.47,3.45-2.47,5.55v2.12c0,1.04,0.84,1.88,1.88,1.88S52,63.14,52,62.1v-2.12
			c0-1.05,0.45-2.06,1.24-2.77c0.79-0.72,1.82-1.06,2.89-0.96c0.2,0.02,0.4,0.06,0.59,0.11v53.92c-2.62-0.15-4.71-2.33-4.71-4.99
			c0-2.76-2.24-5-5-5H35.5V79.48H47c2.76,0,5-2.24,5-5v-3.62c0-1.04-0.84-1.88-1.88-1.88s-1.88,0.84-1.88,1.88v3.62
			c0,0.69-0.56,1.25-1.25,1.25H34.88c-1.72,0-3.12,1.4-3.12,3.12v22.07c0,1.72,1.4,3.12,3.12,3.12H47c0.69,0,1.25,0.56,1.25,1.25
			c0,4.73,3.77,8.59,8.46,8.74V117c0,6.06,4.93,10.99,10.99,10.99c2.62,0,5.16-0.94,7.15-2.65c0.79-0.67,0.88-1.86,0.2-2.64
			c-0.67-0.79-1.86-0.88-2.64-0.2c-1.31,1.13-2.98,1.75-4.71,1.75c-3.99,0-7.24-3.25-7.24-7.24v-5.61h3.49
			c1.04,0,1.88-0.84,1.88-1.88s-0.84-1.88-1.88-1.88h-3.49v-4.84h3.49c1.04,0,1.88-0.84,1.88-1.88s-0.84-1.88-1.88-1.88h-3.49V94.2
			h3.49c1.04,0,1.88-0.84,1.88-1.88s-0.84-1.88-1.88-1.88h-3.49V85.6h3.49c1.04,0,1.88-0.84,1.88-1.88s-0.84-1.88-1.88-1.88h-3.49
			V77h3.49c1.04,0,1.88-0.84,1.88-1.88s-0.84-1.88-1.88-1.88h-3.49v-3.23h13.89c-0.32,0.83-0.49,1.73-0.49,2.67
			c0,1.42,0.4,2.74,1.08,3.87v0.52c-2.63,1.17-4.48,3.8-4.48,6.86c0,2.24,0.99,4.25,2.55,5.62c-1.56,1.38-2.55,3.39-2.55,5.62
			s0.99,4.25,2.55,5.62c-1.56,1.38-2.55,3.39-2.55,5.62c0,3.06,1.84,5.7,4.48,6.86v2.43c0,1.04,0.84,1.88,1.88,1.88
			s1.88-0.84,1.88-1.88v-1.79h6.06c4.14,0,7.5-3.36,7.5-7.5c0-2.24-0.99-4.25-2.55-5.62c1.56-1.38,2.55-3.39,2.55-5.62
			s-0.99-4.25-2.55-5.62c1.56-1.38,2.55-3.39,2.55-5.62c0-1.59-0.5-3.06-1.35-4.28c2.77-1.1,4.74-3.81,4.74-6.97
			C95.65,68.59,92.28,65.23,88.15,65.23L88.15,65.23z M60.46,46.24h14.47v9.86H60.46V46.24z M60.46,66.31v-6.45h14.47v6.45H60.46z
			 M84.75,110.23h-6.79c-2.07,0-3.75-1.68-3.75-3.75s1.68-3.75,3.75-3.75h6.79c2.07,0,3.75,1.68,3.75,3.75
			S86.82,110.23,84.75,110.23z M84.75,98.98h-6.79c-2.07,0-3.75-1.68-3.75-3.75s1.68-3.75,3.75-3.75h6.79
			c2.07,0,3.75,1.68,3.75,3.75S86.82,98.98,84.75,98.98z M84.75,87.73h-6.79c-2.07,0-3.75-1.68-3.75-3.75s1.68-3.75,3.75-3.75h6.79
			c2.07,0,3.75,1.68,3.75,3.75S86.82,87.73,84.75,87.73z M88.15,76.48h-6.79c-2.07,0-3.75-1.68-3.75-3.75s1.68-3.75,3.75-3.75h6.79
			c2.07,0,3.75,1.68,3.75,3.75S90.21,76.48,88.15,76.48z"/>
		<path d="M47.62,13.73c1.04,0,1.88-0.84,1.88-1.88v-1.5c0-1.04-0.84-1.88-1.88-1.88s-1.88,0.84-1.88,1.88v1.5
			C45.75,12.89,46.59,13.73,47.62,13.73z"/>
		<path d="M47.62,17.23c-1.04,0-1.88,0.84-1.88,1.88v1.5c0,1.04,0.84,1.88,1.88,1.88s1.88-0.84,1.88-1.88v-1.5
			C49.5,18.07,48.66,17.23,47.62,17.23z"/>
		<path d="M42.62,17.35H44c1.04,0,1.88-0.84,1.88-1.88S45.04,13.6,44,13.6h-1.38c-1.04,0-1.88,0.84-1.88,1.88
			S41.59,17.35,42.62,17.35z"/>
		<path d="M51.25,17.35h1.38c1.04,0,1.88-0.84,1.88-1.88s-0.84-1.88-1.88-1.88h-1.38c-1.04,0-1.88,0.84-1.88,1.88
			S50.21,17.35,51.25,17.35z"/>
		<path d="M89.38,25.48c1.04,0,1.88-0.84,1.88-1.88v-1.5c0-1.04-0.84-1.88-1.88-1.88s-1.88,0.84-1.88,1.88v1.5
			C87.5,24.64,88.34,25.48,89.38,25.48z"/>
		<path d="M87.5,30.85v1.5c0,1.04,0.84,1.88,1.88,1.88s1.88-0.84,1.88-1.88v-1.5c0-1.04-0.84-1.88-1.88-1.88S87.5,29.82,87.5,30.85z
			"/>
		<path d="M84.38,29.1h1.38c1.04,0,1.88-0.84,1.88-1.88s-0.84-1.88-1.88-1.88h-1.38c-1.04,0-1.88,0.84-1.88,1.88
			S83.34,29.1,84.38,29.1z"/>
		<path d="M94.38,25.35H93c-1.04,0-1.88,0.84-1.88,1.88S91.96,29.1,93,29.1h1.38c1.04,0,1.88-0.84,1.88-1.88
			S95.41,25.35,94.38,25.35z"/>
	</g>
</g>
</svg>
