<?xml version="1.0" encoding="utf-8"?>
<!-- Generator: Adobe Illustrator 27.9.0, SVG Export Plug-In . SVG Version: 6.00 Build 0)  -->
<svg version="1.1" id="Layer_1" xmlns="http://www.w3.org/2000/svg" xmlns:xlink="http://www.w3.org/1999/xlink" x="0px" y="0px"
	 viewBox="0 0 128 128" style="enable-background:new 0 0 128 128;" xml:space="preserve">
<g>
	<path d="M2,120.02h4V124c0,1.11,0.89,2,2,2h24c1.11,0,2-0.89,2-2v-3.98h59.99V124c0,1.11,0.89,2,2,2h24c1.11,0,2-0.89,2-2v-3.98
		H126c1.11,0,2-0.89,2-2v-66c0-1.11-0.89-2-2-2H68v-4c0-1.11-0.89-2-2-2H2c-1.11,0-2,0.89-2,2v6v66C0,119.12,0.89,120.02,2,120.02
		L2,120.02z M30,122H10v-1.98h20V122z M117.99,122h-20v-1.98h20V122z M124,116.02H4v-62h62h58V116.02z M4,48.01h60v2H4V48.01z"/>
	<path d="M80.02,15.77c0,0.04-0.01,0.07-0.01,0.1c0,0.05-0.01,0.09-0.01,0.13c0,0.04,0.02,0.07,0.02,0.11
		c0.01,0.2,0.05,0.4,0.12,0.59c0.01,0.04,0.02,0.07,0.03,0.11l12,27.98c0.31,0.73,1.04,1.21,1.84,1.21c0.8,0,1.52-0.48,1.84-1.21
		l12-28c0.11-0.25,0.14-0.51,0.15-0.77c0,0,0-0.01,0-0.01s0-0.01,0-0.02c0-0.12-0.01-0.24-0.04-0.36c-0.17-3.62-2.74-6.61-6.16-7.4
		C100.98,4.67,97.8,2,94,2c-3.8,0-6.98,2.67-7.79,6.23C82.73,9.02,80.13,12.08,80.02,15.77L80.02,15.77z M87.99,12.01
		c1.47,0,2.75,0.81,3.44,2h-6.88C85.25,12.82,86.52,12.01,87.99,12.01L87.99,12.01z M94.01,38.94l-8.98-20.93h8.94
		c0.01,0,0.01,0,0.02,0s0.01,0,0.02,0h8.96L94.01,38.94z M103.43,14.01h-6.88c0.7-1.19,1.97-2,3.44-2S102.74,12.82,103.43,14.01
		L103.43,14.01z M94,6c1.63,0,3.04,0.99,3.66,2.4c-1.44,0.44-2.7,1.27-3.67,2.38c-0.96-1.1-2.22-1.93-3.65-2.37
		C90.96,6.99,92.36,6,94,6L94,6z"/>
	<path d="M64,66c-1.11,0-2,0.89-2,2v1.18l-0.59-0.59c-0.78-0.78-2.05-0.78-2.83,0s-0.78,2.05,0,2.83L62,74.82v6.35l-4.49-4.49v-4.82
		c0-1.11-0.89-2-2-2s-2,0.89-2,2v0.82l-0.83-0.83c-0.78-0.78-2.05-0.78-2.83,0s-0.78,2.05,0,2.83l0.83,0.83h-0.82
		c-1.11,0-2,0.89-2,2s0.89,2,2,2h4.82L59.17,84h-6.35l-3.41-3.41c-0.78-0.78-2.05-0.78-2.83,0c-0.78,0.78-0.78,2.05,0,2.83L47.17,84
		H46c-1.11,0-2,0.89-2,2s0.89,2,2,2h1.17l-0.58,0.58c-0.78,0.78-0.78,2.05,0,2.83C46.98,91.8,47.49,92,48,92s1.02-0.2,1.41-0.59
		L52.82,88h6.35l-4.48,4.48h-4.83c-1.11,0-2,0.89-2,2s0.89,2,2,2h0.83l-0.83,0.83c-0.78,0.78-0.78,2.05,0,2.83
		c0.39,0.39,0.9,0.59,1.41,0.59s1.02-0.2,1.41-0.59l0.83-0.83v0.82c0,1.11,0.89,2,2,2s2-0.89,2-2v-4.82L62,90.83v6.34l-3.41,3.41
		c-0.78,0.78-0.78,2.05,0,2.83c0.39,0.39,0.9,0.59,1.41,0.59s1.02-0.2,1.41-0.59l0.59-0.59V104c0,1.11,0.89,2,2,2c1.11,0,2-0.89,2-2
		v-1.17l0.59,0.59c0.39,0.39,0.9,0.59,1.41,0.59s1.02-0.2,1.41-0.59c0.78-0.78,0.78-2.05,0-2.83L66,97.17v-6.34l4.48,4.48v4.83
		c0,1.11,0.89,2,2,2s2-0.89,2-2v-0.83l0.83,0.83c0.39,0.39,0.9,0.59,1.41,0.59s1.02-0.2,1.41-0.59c0.78-0.78,0.78-2.05,0-2.83
		l-0.83-0.83h0.83c1.11,0,2-0.89,2-2s-0.89-2-2-2h-4.83L68.83,88h6.34l3.41,3.41C78.98,91.8,79.49,92,80,92s1.02-0.2,1.41-0.59
		c0.78-0.78,0.78-2.05,0-2.83L80.83,88H82c1.11,0,2-0.89,2-2s-0.89-2-2-2h-1.17l0.59-0.59c0.78-0.78,0.78-2.05,0-2.83
		s-2.05-0.78-2.83,0L75.17,84h-6.34l4.49-4.49h4.82c1.11,0,2-0.89,2-2s-0.89-2-2-2h-0.82l0.83-0.83c0.78-0.78,0.78-2.05,0-2.83
		s-2.05-0.78-2.83,0l-0.83,0.83v-0.83c0-1.11-0.89-2-2-2s-2,0.89-2,2v4.83L66,81.17v-6.35l3.41-3.41c0.78-0.78,0.78-2.05,0-2.83
		s-2.05-0.78-2.83,0L66,69.17V68C66,66.89,65.11,66,64,66L64,66z"/>
	<path d="M94,82h18c1.11,0,2-0.89,2-2s-0.89-2-2-2H94c-1.11,0-2,0.89-2,2S92.89,82,94,82z"/>
	<path d="M94,88h18c1.11,0,2-0.89,2-2s-0.89-2-2-2H94c-1.11,0-2,0.89-2,2S92.89,88,94,88z"/>
	<path d="M108,90H98c-1.11,0-2,0.89-2,2s0.89,2,2,2h10c1.11,0,2-0.89,2-2S109.1,90,108,90z"/>
	<path d="M34,78H16c-1.11,0-2,0.89-2,2s0.89,2,2,2h18c1.11,0,2-0.89,2-2S35.11,78,34,78z"/>
	<path d="M34,84H16c-1.11,0-2,0.89-2,2s0.89,2,2,2h18c1.11,0,2-0.89,2-2S35.11,84,34,84z"/>
	<path d="M30,90H20c-1.11,0-2,0.89-2,2s0.89,2,2,2h10c1.11,0,2-0.89,2-2S31.11,90,30,90z"/>
</g>
</svg>
