<?xml version="1.0" encoding="utf-8"?>
<!-- Generator: Adobe Illustrator 27.9.0, SVG Export Plug-In . SVG Version: 6.00 Build 0)  -->
<svg version="1.1" id="Layer_1" xmlns="http://www.w3.org/2000/svg" xmlns:xlink="http://www.w3.org/1999/xlink" x="0px" y="0px"
	 viewBox="0 0 128 128" style="enable-background:new 0 0 128 128;" xml:space="preserve">
<g>
	<g>
		<path d="M127.06,40.23c-2.49-7.65-10.25-12.54-18.23-12.13c1.96-2.96,3-6.39,3-9.98C111.83,8.13,103.69,0,93.69,0
			c-4.59,0-8.96,1.71-12.32,4.83L31.09,46.07c-0.06,0.05-0.12,0.11-0.17,0.16c-5.15,4.47-8.4,11.06-8.4,18.39
			c0,2.23,0.3,4.38,0.86,6.43c0,0-14.21,13.35-17.35,16.54C2.63,91.06,0,97.5,0,103.63C0,117.07,10.94,128,24.39,128
			c10.13,0,18.83-6.2,22.51-15c3.68,8.8,12.39,15,22.51,15c9.68,0,18.07-5.67,22-13.86l28.76-49.38c1.22-2.1-2.02-3.98-3.24-1.89
			l-23.15,39.75c-0.53-12.98-11.26-23.37-24.37-23.37c-1.07,0-2.12,0.07-3.15,0.2c0,0,33.07-39.42,39.01-46.71
			c6.94-3.24,15.97,1.75,18.22,8.65c1.27,3.91,0.93,8.22-0.95,11.84c-1.11,2.15,2.22,3.88,3.33,1.72
			C128.21,50.45,128.64,45.09,127.06,40.23L127.06,40.23z M83.81,7.68c2.89-2.38,6.04-3.93,9.88-3.93c7.93,0,14.38,6.45,14.38,14.37
			c0,3.12-0.98,6.08-2.84,8.57c0,0-31.86,38.28-34.14,41.03c0.13-1.01,0.2-2.05,0.2-3.1c0-13.44-10.94-24.37-24.39-24.37
			c-1.03,0-2.04,0.06-3.04,0.19L83.81,7.68z M46.9,44c11.38,0,20.64,9.25,20.64,20.62c0,11.17-9.45,20.62-20.64,20.62
			c-11.38,0-20.64-9.25-20.64-20.62C26.27,53.25,35.52,44,46.9,44L46.9,44z M50.08,88.79c-1.28,1.66-2.35,3.5-3.17,5.46
			c-0.82-1.96-1.89-3.8-3.17-5.46c1.04,0.14,2.1,0.21,3.17,0.21C47.98,89,49.04,88.93,50.08,88.79z M24.79,74.89
			c0.76,1.63,1.69,3.16,2.78,4.57c-1.04-0.14-2.1-0.21-3.17-0.21c-1.59,0-3.15,0.16-4.66,0.45L24.79,74.89z M24.39,124.25
			c-11.38,0-20.64-9.25-20.64-20.62c0-5.27,1.99-10.08,5.25-13.73C13.04,85.64,18.45,83,24.39,83c11.38,0,20.64,9.25,20.64,20.62
			S35.77,124.25,24.39,124.25z M90.06,103.63c0,11.37-9.26,20.62-20.64,20.62c-11.38,0-20.64-9.25-20.64-20.62S58.04,83,69.42,83
			C80.8,83,90.06,92.25,90.06,103.63z"/>
		<path d="M46.9,82.75c10,0,18.14-8.13,18.14-18.12S56.9,46.5,46.9,46.5c-3.47,0-6.85,0.99-9.78,2.87
			c-2.04,1.31-0.01,4.47,2.03,3.15c2.32-1.49,5-2.27,7.75-2.27c7.93,0,14.38,6.45,14.38,14.37S54.84,79,46.9,79
			s-14.38-6.45-14.38-14.37c0-1.83,0.34-3.62,1.03-5.32c0.9-2.25-2.58-3.64-3.48-1.39c-0.86,2.14-1.29,4.4-1.29,6.71
			C28.77,74.62,36.9,82.75,46.9,82.75z"/>
		<path d="M24.39,85.5c-10,0-18.14,8.13-18.14,18.12s8.14,18.12,18.14,18.12s18.14-8.13,18.14-18.12S34.39,85.5,24.39,85.5z
			 M24.39,118c-7.93,0-14.38-6.45-14.38-14.37s6.45-14.37,14.38-14.37s14.38,6.45,14.38,14.37S32.32,118,24.39,118z"/>
		<path d="M69.42,121.75c10,0,18.14-8.13,18.14-18.12S79.42,85.5,69.42,85.5s-18.14,8.13-18.14,18.12S59.42,121.75,69.42,121.75z
			 M69.42,89.25c7.93,0,14.38,6.45,14.38,14.37S77.35,118,69.42,118s-14.38-6.45-14.38-14.37S61.49,89.25,69.42,89.25z"/>
	</g>
</g>
</svg>
