<?xml version="1.0" encoding="utf-8"?>
<!-- Generator: Adobe Illustrator 27.9.0, SVG Export Plug-In . SVG Version: 6.00 Build 0)  -->
<svg version="1.1" id="Layer_1" xmlns="http://www.w3.org/2000/svg" xmlns:xlink="http://www.w3.org/1999/xlink" x="0px" y="0px"
	 viewBox="0 0 128 128" style="enable-background:new 0 0 128 128;" xml:space="preserve">
<g>
	<path d="M122.87,113.47h-1.76v-10.11c3.97-1.12,6.89-4.78,6.89-9.1c0-5.21-4.24-9.46-9.46-9.46h-18.01c-0.78,0-1.54-0.28-2.13-0.8
		l-9.44-8.18l-7.26-7.26l6.24-6.23c0.88-0.88,0.98-2.28,0.22-3.28L76.39,43.53c0,0,0-0.01-0.01-0.01L61.12,23.4c0,0,0,0-0.01-0.01
		L48.81,7.16c-0.01-0.01-0.02-0.02-0.03-0.03c-0.03-0.04-0.07-0.08-0.1-0.12c-0.02-0.03-0.05-0.05-0.07-0.08
		c-0.01-0.01-0.02-0.02-0.03-0.03l-6.17-6.17c-0.98-0.98-2.56-0.98-3.54,0L0.73,38.87C0.26,39.34,0,39.98,0,40.64
		s0.26,1.3,0.73,1.77l6.17,6.17c0.01,0.01,0.01,0.01,0.02,0.02c0.03,0.02,0.05,0.05,0.08,0.07c0.04,0.04,0.08,0.07,0.12,0.1
		c0.01,0,0.01,0.01,0.02,0.02l16.09,12.46c0,0,0,0,0.01,0.01l3.88,3l31.45,24.36c0.45,0.35,0.99,0.52,1.53,0.52
		c0.64,0,1.28-0.25,1.77-0.73l6.72-6.72l7.29,7.29c0.03,0.03,0.06,0.05,0.09,0.08l9.93,9.7c-0.13-0.02-0.25-0.03-0.38-0.03
		c-1.38,0-2.5,1.12-2.5,2.5v12.25c-4.89-0.02-9.63-1.03-14.11-2.99l-6.61-2.89c-5.17-2.26-10.64-3.41-16.28-3.41H2.5
		c-1.38,0-2.5,1.12-2.5,2.5s1.12,2.5,2.5,2.5h43.51c4.94,0,9.75,1.01,14.28,2.99l6.61,2.89c5.16,2.26,10.64,3.41,16.28,3.41h37.2
		V123H78.46c-5.34,0-10.71-1.23-15.52-3.56c-5.48-2.66-11.6-4.06-17.7-4.06H12.19c-1.38,0-2.5,1.12-2.5,2.5c0,1.38,1.12,2.5,2.5,2.5
		h33.05c5.34,0,10.71,1.23,15.52,3.56c5.48,2.66,11.6,4.06,17.7,4.06h44.41c1.38,0,2.5-1.12,2.5-2.5v-9.54
		C125.37,114.59,124.25,113.47,122.87,113.47z M94.04,113.47h-6.04v-12.25c0-0.23-0.03-0.45-0.09-0.66
		c1.82,1.38,3.91,2.34,6.13,2.81L94.04,113.47L94.04,113.47z M99.04,103.72h6.04v9.75h-6.04V103.72z M110.08,103.72h6.04v9.75h-6.04
		V103.72z M100.53,89.8h18.01c2.46,0,4.46,2,4.46,4.46c0,2.46-2,4.46-4.46,4.46H97.31c-2.77,0-5.4-1.07-7.38-3.01l-8.74-8.53
		l6.14-6.14l7.78,6.75C96.63,89.08,98.54,89.8,100.53,89.8z M28.85,59.28l-0.31-0.24l13.02-13.02c0.98-0.98,0.98-2.56,0-3.54
		c-0.98-0.98-2.56-0.98-3.54,0L24.55,55.95l-12.11-9.38l34.11-34.11l9.27,12.22l-3.95,3.95c-0.98,0.98-0.98,2.56,0,3.54
		c0.98,0.98,2.56,0.98,3.54,0l3.46-3.46l12.21,16.1L44.49,71.39L28.85,59.28z M40.65,6.03l2.63,2.63l-17.31,17.3L8.67,43.27
		l-2.63-2.63L40.65,6.03z M59.88,83.31l-11.41-8.84l25.65-25.65l8.73,11.52L76.4,66.8l-9.58,9.58c0,0,0,0,0,0L59.88,83.31z
		 M78.16,72.1l5.52,5.52l-6.05,6.05l-5.52-5.52L78.16,72.1z"/>
	<path d="M4.81,116.88c-0.4-0.98-1.43-1.61-2.49-1.54c-1.04,0.08-1.94,0.81-2.22,1.81c-0.29,1,0.1,2.11,0.95,2.72
		c0.84,0.6,1.99,0.62,2.84,0.05C4.87,119.27,5.26,117.97,4.81,116.88z"/>
	<path d="M49.12,36.27c-0.41-0.98-1.42-1.61-2.48-1.54c-1.05,0.08-1.96,0.83-2.24,1.85c-0.27,0.99,0.12,2.07,0.95,2.67
		c0.84,0.61,1.99,0.63,2.86,0.05C49.19,38.65,49.57,37.36,49.12,36.27z"/>
</g>
</svg>
