<?xml version="1.0" encoding="utf-8"?>
<!-- Generator: Adobe Illustrator 27.9.0, SVG Export Plug-In . SVG Version: 6.00 Build 0)  -->
<svg version="1.1" id="Layer_1" xmlns="http://www.w3.org/2000/svg" xmlns:xlink="http://www.w3.org/1999/xlink" x="0px" y="0px"
	 viewBox="0 0 128 128" style="enable-background:new 0 0 128 128;" xml:space="preserve">
<path d="M103.34,59.21c-1.28-4.55-4.26-8.34-8.38-10.65c-4.13-2.31-8.91-2.88-13.46-1.6C74,49.06,69,55.72,68.62,63.1h-9.24
	c-0.47-9.35-8.2-16.81-17.66-16.81C31.94,46.29,24,54.23,24,64s7.94,17.71,17.71,17.71c8.84,0,16.17-6.52,17.48-15.01h9.61
	c0.11,0.7,0.25,1.4,0.44,2.09c1.28,4.55,4.26,8.34,8.38,10.65c2.68,1.5,5.64,2.27,8.64,2.27c1.61,0,3.23-0.22,4.82-0.67
	C100.48,78.4,105.98,68.61,103.34,59.21z"/>
</svg>
