<?xml version="1.0" encoding="utf-8"?>
<!-- Generator: Adobe Illustrator 27.9.0, SVG Export Plug-In . SVG Version: 6.00 Build 0)  -->
<svg version="1.1" id="Layer_1" xmlns="http://www.w3.org/2000/svg" xmlns:xlink="http://www.w3.org/1999/xlink" x="0px" y="0px"
	 viewBox="0 0 128 128" style="enable-background:new 0 0 128 128;" xml:space="preserve">
<g>
	<g>
		<g>
			<path d="M31.42,31.5c-1.38,0-2.5,1.12-2.5,2.5s1.12,2.5,2.5,2.5c1.38,0,2.5-1.12,2.5-2.5S32.8,31.5,31.42,31.5z"/>
		</g>
	</g>
	<g>
		<g>
			<path d="M53.92,78.25h-7.5v-7.5c0-1.38-1.12-2.5-2.5-2.5c-1.38,0-2.5,1.12-2.5,2.5v7.5h-7.5c-1.38,0-2.5,1.12-2.5,2.5
				s1.12,2.5,2.5,2.5h7.5v7.5c0,1.38,1.12,2.5,2.5,2.5c1.38,0,2.5-1.12,2.5-2.5v-7.5h7.5c1.38,0,2.5-1.12,2.5-2.5
				S55.3,78.25,53.92,78.25z"/>
		</g>
	</g>
	<g>
		<g>
			<path d="M121.39,80.5c-5.53-9.57-17.75-12.85-27.32-7.32l-10.15,5.86V57.33c0-2.68-0.89-5.35-2.5-7.5l-12.5-16.67v-7.1
				c2.91-1.03,5-3.81,5-7.07V7.5c0-4.14-3.36-7.5-7.5-7.5h-45c-4.14,0-7.5,3.36-7.5,7.5V19c0,3.26,2.09,6.04,5,7.07v7.1L6.42,49.83
				c-1.61,2.15-2.5,4.81-2.5,7.5v48.41c0,6.89,5.61,12.5,12.5,12.5H56.6c5.61,9.4,17.69,12.54,27.17,7.07l30.31-17.5
				C123.56,102.33,126.95,90.12,121.39,80.5z M18.92,7.5c0-1.38,1.12-2.5,2.5-2.5h45c1.38,0,2.5,1.12,2.5,2.5V19
				c0,1.38-1.12,2.5-2.5,2.5h-45c-1.38,0-2.5-1.12-2.5-2.5L18.92,7.5L18.92,7.5z M10.43,52.83l13-17.33c0.32-0.43,0.5-0.96,0.5-1.5
				v-7.5h40v5h-22.5c-1.38,0-2.5,1.12-2.5,2.5s1.12,2.5,2.5,2.5h23.75l12.25,16.33c0.8,1.07,1.3,2.35,1.45,3.67H8.98
				C9.13,55.18,9.63,53.9,10.43,52.83z M16.42,113.24c-4.14,0-7.5-3.36-7.5-7.5v-2.52h45.42c-0.79,3.24-0.79,6.7,0.12,10.02
				L16.42,113.24L16.42,113.24z M56.3,98.24H8.93V61.5h70v20.43l-15.15,8.75C60.61,92.5,58.05,95.1,56.3,98.24z M81.27,120.98
				c-7.17,4.14-16.34,1.69-20.49-5.49c-4.17-7.25-1.64-16.37,5.49-20.49l13.57-7.83l15,25.98L81.27,120.98z M111.57,103.48
				l-12.41,7.16l-15-25.98l12.41-7.16c7.18-4.14,16.34-1.69,20.49,5.49C121.23,90.21,118.7,99.37,111.57,103.48z"/>
		</g>
	</g>
</g>
</svg>
