<?xml version="1.0" encoding="utf-8"?>
<!-- Generator: Adobe Illustrator 27.9.0, SVG Export Plug-In . SVG Version: 6.00 Build 0)  -->
<svg version="1.1" id="Layer_1" xmlns="http://www.w3.org/2000/svg" xmlns:xlink="http://www.w3.org/1999/xlink" x="0px" y="0px"
	 viewBox="0 0 128 128" style="enable-background:new 0 0 128 128;" xml:space="preserve">
<g>
	<g>
		<g>
			<path d="M64,29.87c-7.07,0-12.8,5.73-12.8,12.8c0.01,7.07,5.73,12.79,12.8,12.8c7.07,0,12.8-5.73,12.8-12.8S71.07,29.87,64,29.87
				z M64,51.2c-4.71,0-8.53-3.82-8.53-8.53s3.82-8.53,8.53-8.53s8.53,3.82,8.53,8.53S68.71,51.2,64,51.2z"/>
		</g>
	</g>
	<g>
		<g>
			<path d="M86.87,61.12c-0.7-0.71-1.45-1.37-2.22-2l0.02-0.06c7.03-21.7-0.83-45.45-19.43-58.67c-0.74-0.53-1.74-0.53-2.48,0
				C44.17,13.61,36.3,37.36,43.33,59.06l0.02,0.06c-11.73,9.42-13.61,26.56-4.19,38.29c0.62,0.78,1.29,1.52,2,2.22
				c0.4,0.4,0.94,0.63,1.51,0.63c0.23,0,0.46-0.04,0.67-0.11c0.77-0.26,1.32-0.92,1.44-1.72l1.61-11.27
				c0.15-1.05,1.05-1.83,2.11-1.83H55l-1.62,8.11c-0.24,1.15,0.51,2.28,1.66,2.52c0.14,0.03,0.28,0.04,0.43,0.04h17.07
				c1.18,0,2.13-0.95,2.13-2.13c0-0.14-0.01-0.29-0.04-0.43L73,85.33h6.5c1.06,0,1.96,0.78,2.11,1.83l1.61,11.27
				c0.11,0.8,0.67,1.47,1.44,1.72c0.22,0.07,0.45,0.11,0.67,0.11c0.57,0,1.11-0.23,1.51-0.63C97.49,89.01,97.5,71.77,86.87,61.12z
				 M64,4.79c5.13,3.91,9.42,8.81,12.61,14.41H51.39C54.58,13.6,58.87,8.7,64,4.79z M48.5,81.07c-3.18,0.01-5.87,2.35-6.33,5.5
				l-0.92,6.47c-2.85-4.3-4.16-9.44-3.73-14.59h0c0.47-5.71,3.06-11.05,7.25-14.95l5.64,17.57H48.5z M58.07,91.73l1.28-6.4h9.3
				l1.28,6.4H58.07z M54.89,81.07l-7.02-21.85l-0.47-1.46c-3.64-11.27-2.98-23.48,1.85-34.29h29.52
				c4.83,10.81,5.48,23.02,1.85,34.29l-0.47,1.46l-7.02,21.85H54.89z M86.76,93.03l-0.92-6.47c-0.46-3.15-3.15-5.48-6.33-5.5h-1.91
				l5.65-17.57c4.19,3.91,6.78,9.24,7.25,14.95C90.92,83.59,89.61,88.73,86.76,93.03z"/>
		</g>
	</g>
	<g>
		<g>
			<path d="M55.47,100.1v6.95c-5.18-1.58-10.81-0.2-14.68,3.59c-3.24-3.86-8.02-6.09-13.06-6.11c-1.55,0-3.1,0.22-4.59,0.64
				C21.42,94.92,12.53,87.43,2.13,87.47H0v4.27h2.13c8.72-0.03,16.04,6.56,16.93,15.24c-2.07,1.21-3.87,2.84-5.27,4.79
				c-3.85-3.29-8.74-5.09-13.79-5.09v4.27c9.42,0.01,17.06,7.65,17.07,17.07h4.27c0-4.73-1.57-9.32-4.48-13.04
				c1.27-2.1,3.11-3.79,5.3-4.88c0.02,0,0.04,0,0.07-0.02c1.72-0.83,3.6-1.26,5.51-1.26c4.13,0.02,8.01,2.03,10.4,5.4
				c-1.21,2.28-1.85,4.82-1.87,7.4h4.27c0-2.18,0.61-4.32,1.78-6.16H42.3c0.03-0.04,0.07-0.07,0.1-0.11
				c2.88-4.24,8.38-5.81,13.07-3.75v5.59h4.27V100.1L55.47,100.1L55.47,100.1z"/>
		</g>
	</g>
	<g>
		<g>
			<path d="M125.87,91.73H128v-4.27h-2.13c-10.39-0.04-19.28,7.46-21.01,17.71c-1.49-0.42-3.04-0.64-4.59-0.64
				c-5.04,0.01-9.81,2.24-13.06,6.1c-3.87-3.79-9.5-5.17-14.68-3.59v-6.95h-4.27v17.07h4.27v-5.58c4.69-2.06,10.19-0.49,13.07,3.75
				c0.03,0.04,0.07,0.07,0.1,0.11h-0.01c1.16,1.85,1.78,3.98,1.78,6.17h4.27c-0.01-2.58-0.65-5.12-1.87-7.4
				c2.39-3.37,6.27-5.38,10.4-5.4c1.91,0,3.79,0.43,5.51,1.26c0.02,0.01,0.04,0.01,0.07,0.02c2.2,1.08,4.04,2.77,5.31,4.87
				c-2.91,3.73-4.49,8.32-4.49,13.04h4.27c0.01-9.42,7.65-17.06,17.07-17.07v-4.27c-5.06,0-9.95,1.8-13.79,5.09
				c-1.4-1.95-3.2-3.58-5.27-4.79C109.82,98.29,117.15,91.71,125.87,91.73z"/>
		</g>
	</g>
	<g>
		<g>
			<rect x="53.33" y="61.87" width="4.27" height="4.27"/>
		</g>
	</g>
	<g>
		<g>
			<rect x="61.87" y="61.87" width="4.27" height="4.27"/>
		</g>
	</g>
	<g>
		<g>
			<rect x="70.4" y="61.87" width="4.27" height="4.27"/>
		</g>
	</g>
	<g>
		<g>
			<rect x="23.47" y="113.07" width="4.27" height="4.27"/>
		</g>
	</g>
	<g>
		<g>
			<rect y="78.93" width="4.27" height="4.27"/>
		</g>
	</g>
	<g>
		<g>
			<rect x="119.47" y="98.13" width="4.27" height="4.27"/>
		</g>
	</g>
	<g>
		<g>
			<rect x="102.4" y="89.6" width="4.27" height="4.27"/>
		</g>
	</g>
	<g>
		<g>
			<rect x="78.93" y="123.73" width="4.27" height="4.27"/>
		</g>
	</g>
	<g>
		<g>
			<rect x="123.73" y="74.67" width="4.27" height="4.27"/>
		</g>
	</g>
</g>
</svg>
