<?xml version="1.0" encoding="utf-8"?>
<!-- Generator: Adobe Illustrator 27.9.0, SVG Export Plug-In . SVG Version: 6.00 Build 0)  -->
<svg version="1.1" id="Layer_1" xmlns="http://www.w3.org/2000/svg" xmlns:xlink="http://www.w3.org/1999/xlink" x="0px" y="0px"
	 viewBox="0 0 128 128" style="enable-background:new 0 0 128 128;" xml:space="preserve">
<g>
	<path d="M103.17,98.96c-4-2.31-9.02-1.54-12.19,1.58l-9.95-5.75l10.29-5.94c3.17,3.12,8.19,3.9,12.19,1.58
		c4.84-2.79,6.5-9,3.71-13.83c-1.06-1.84-2.65-3.27-4.54-4.14c0.19-2.07-0.25-4.16-1.31-6c-1.21-2.1-3.1-3.67-5.36-4.47
		c2.14-2.59,3.44-5.92,3.44-9.54v-22.1c0-6.64-2.47-12.94-7.15-18.22c-4.51-5.09-10.67-8.8-17.8-10.72
		c-1.33-0.36-2.7,0.43-3.06,1.77c-0.36,1.33,0.43,2.7,1.77,3.06C85.9,9.67,94.44,19.36,94.44,30.36v22.1c0,5.52-4.49,10-10,10
		c-1.38,0-2.5,1.12-2.5,2.5v4.8c0,3.55-2.48,6.53-5.8,7.29V74.5c0-1.38-1.12-2.5-2.5-2.5s-2.5,1.12-2.5,2.5v2.75H66.5V74.5
		c0-1.38-1.12-2.5-2.5-2.5s-2.5,1.12-2.5,2.5v2.75h-4.63V74.5c0-1.38-1.12-2.5-2.5-2.5s-2.5,1.12-2.5,2.5v2.63
		c-3.49-0.64-6.14-3.7-6.14-7.36v-4.8c0-1.38-1.12-2.5-2.5-2.5c-5.51,0-10-4.49-10-10v-22.1c0-11,8.54-20.7,21.26-24.11
		c1.33-0.36,2.12-1.73,1.77-3.06c-0.36-1.33-1.73-2.12-3.06-1.77c-7.13,1.92-13.29,5.62-17.8,10.72
		c-4.68,5.29-7.16,11.59-7.16,18.22v22.1c0,3.67,1.33,7.03,3.52,9.64c-2.08,0.8-3.91,2.29-5.11,4.37c-1.06,1.84-1.51,3.93-1.31,6
		c-1.89,0.87-3.48,2.3-4.54,4.14C18,81.44,19.66,87.65,24.5,90.44c4,2.31,9.02,1.54,12.19-1.58l10.29,5.94l-9.95,5.75
		c-3.17-3.12-8.19-3.9-12.19-1.58c-4.84,2.79-6.5,9-3.71,13.83c1.06,1.84,2.65,3.27,4.54,4.14c-0.19,2.07,0.25,4.16,1.31,6
		c1.35,2.34,3.54,4.02,6.15,4.72c0.87,0.23,1.76,0.35,2.64,0.35c1.75,0,3.49-0.46,5.05-1.36c4-2.31,5.84-7.05,4.72-11.35L64,104.63
		l18.46,10.66c-1.12,4.3,0.72,9.04,4.72,11.35c1.59,0.92,3.33,1.35,5.05,1.35c3.5,0,6.91-1.82,8.79-5.06c1.06-1.84,1.51-3.93,1.31-6
		c1.89-0.87,3.48-2.3,4.54-4.14C109.67,107.96,108.01,101.75,103.17,98.96z M64,84.97l-4.71-2.72h9.42L64,84.97z M37.33,83.46
		c-1.18-0.68-2.68-0.29-3.39,0.87c-1.43,2.37-4.55,3.17-6.95,1.78c-2.45-1.41-3.29-4.56-1.88-7c0.76-1.32,2.06-2.22,3.56-2.49
		c0.73-0.13,1.36-0.57,1.73-1.21c0.37-0.64,0.44-1.41,0.18-2.11c-0.52-1.43-0.39-3.01,0.37-4.33c1.41-2.45,4.56-3.29,7-1.88
		c2.4,1.38,3.26,4.48,1.93,6.91c-0.66,1.19-0.24,2.69,0.94,3.37L59,87.85l-7.03,4.06L37.33,83.46z M41.18,112.03
		c-1.18,0.68-1.6,2.18-0.94,3.37c1.33,2.42,0.47,5.52-1.93,6.91c-2.45,1.41-5.59,0.57-7-1.88c-0.76-1.32-0.9-2.9-0.37-4.33
		c0.25-0.69,0.19-1.47-0.18-2.11c-0.37-0.64-1-1.08-1.73-1.21c-1.5-0.26-2.8-1.17-3.56-2.49c-1.41-2.45-0.57-5.59,1.88-7
		c0.8-0.46,1.67-0.68,2.54-0.68c1.74,0,3.45,0.88,4.41,2.46c0.71,1.16,2.21,1.55,3.39,0.87l15.54-8.97c0,0,0.01,0,0.01,0l33.95-19.6
		c1.18-0.68,1.6-2.18,0.94-3.37c-1.33-2.43-0.47-5.53,1.93-6.91c2.45-1.41,5.59-0.57,7,1.88c0.76,1.32,0.9,2.9,0.37,4.33
		c-0.25,0.7-0.19,1.47,0.18,2.11s1,1.08,1.73,1.21c1.5,0.26,2.8,1.17,3.56,2.49c0.69,1.19,0.87,2.57,0.51,3.89s-1.2,2.43-2.39,3.11
		c-2.4,1.38-5.51,0.58-6.95-1.78c-0.71-1.16-2.21-1.55-3.39-0.87l-15.91,9.19c-0.02,0.01-0.04,0.02-0.05,0.03l-11.45,6.61
		c-0.41,0.11-0.78,0.33-1.09,0.63L41.18,112.03z M102.55,110.29c-0.76,1.32-2.06,2.22-3.56,2.49c-0.73,0.13-1.36,0.57-1.74,1.21
		c-0.37,0.64-0.44,1.41-0.18,2.11c0.52,1.43,0.39,3.01-0.37,4.33c-1.41,2.45-4.56,3.29-7,1.88c-2.4-1.38-3.26-4.48-1.93-6.91
		c0.66-1.19,0.24-2.69-0.94-3.37L69,101.74l7.03-4.06l14.31,8.26c1.18,0.68,2.68,0.29,3.39-0.87c1.43-2.37,4.55-3.17,6.95-1.78
		C103.12,104.7,103.96,107.85,102.55,110.29z"/>
	<path d="M75.76,53.08h3.62c4.8,0,8.71-3.91,8.71-8.71v-4.04c0-4.8-3.91-8.71-8.71-8.71h-3.62c-4.8,0-8.71,3.91-8.71,8.71v4.04
		C67.05,49.17,70.96,53.08,75.76,53.08z M72.05,40.33c0-2.05,1.67-3.71,3.71-3.71h3.62c2.05,0,3.71,1.67,3.71,3.71v4.04
		c0,2.05-1.67,3.71-3.71,3.71h-3.62c-2.05,0-3.71-1.67-3.71-3.71V40.33z"/>
	<path d="M48.28,31.61c-4.8,0-8.71,3.91-8.71,8.71v4.04c0,4.8,3.91,8.71,8.71,8.71h3.62c4.8,0,8.71-3.91,8.71-8.71v-4.04
		c0-4.8-3.91-8.71-8.71-8.71H48.28z M55.62,40.33v4.04c0,2.05-1.67,3.71-3.71,3.71h-3.62c-2.05,0-3.71-1.67-3.71-3.71v-4.04
		c0-2.05,1.67-3.71,3.71-3.71h3.62C53.95,36.61,55.62,38.28,55.62,40.33z"/>
	<path d="M63.83,55.67c-0.89,0-1.72,0.48-2.17,1.25l-2.55,4.42c-0.69,1.2-0.28,2.72,0.92,3.42c1.2,0.69,2.73,0.28,3.42-0.92
		l0.38-0.67l0.38,0.67c0.46,0.8,1.3,1.25,2.17,1.25c0.42,0,0.85-0.11,1.25-0.33c1.2-0.69,1.61-2.22,0.92-3.42L66,56.92
		C65.55,56.15,64.73,55.67,63.83,55.67z"/>
	<path d="M63.83,5c0.66,0,1.3-0.27,1.77-0.73c0.47-0.46,0.73-1.11,0.73-1.77s-0.27-1.3-0.73-1.77C65.13,0.27,64.49,0,63.83,0
		c-0.66,0-1.3,0.27-1.77,0.73C61.6,1.2,61.33,1.84,61.33,2.5s0.27,1.3,0.73,1.77C62.53,4.73,63.17,5,63.83,5z"/>
</g>
</svg>
