<?xml version="1.0" encoding="utf-8"?>
<!-- Generator: Adobe Illustrator 27.9.0, SVG Export Plug-In . SVG Version: 6.00 Build 0)  -->
<svg version="1.1" id="Layer_1" xmlns="http://www.w3.org/2000/svg" xmlns:xlink="http://www.w3.org/1999/xlink" x="0px" y="0px"
	 viewBox="0 0 128 128" style="enable-background:new 0 0 128 128;" xml:space="preserve">
<g>
	<path d="M101.16,94.97c-3.41,0-6.19,2.78-6.19,6.19s2.78,6.19,6.19,6.19s6.19-2.78,6.19-6.19S104.58,94.97,101.16,94.97z
		 M101.16,103.23c-1.14,0-2.06-0.93-2.06-2.06c0-1.14,0.93-2.06,2.06-2.06c1.14,0,2.06,0.93,2.06,2.06
		C103.23,102.3,102.3,103.23,101.16,103.23z"/>
	<path d="M127.87,13.37c0.08-0.55,0.13-1.11,0.13-1.67v-0.71C128,4.93,123.07,0,117.01,0c-5.41,0-9.98,3.88-10.85,9.22l-0.89,5.48
		c-2.82-5.07-8.23-8.51-14.43-8.51c-9.11,0-16.52,7.41-16.52,16.52v1c-4.92-8.01-13.73-13.39-23.8-13.39
		c-5.06,0-10.03,1.38-14.37,3.98l-11.38,6.82v-2.55c0-4.55-3.7-8.26-8.26-8.26s-8.26,3.7-8.26,8.26v8.83L0,30.17v38.76l8.26,2.75
		v8.83c0,4.55,3.7,8.26,8.26,8.26s8.26-3.7,8.26-8.26v-2.55l11.38,6.82c0.21,0.13,0.43,0.24,0.65,0.36l-15.49,38.72H0V128h128v-4.13
		h-24.77v-8.42c6.91-0.99,12.26-6.89,12.38-14.04l6.72-40.35c0.98-5.91,0.21-11.86-2.2-17.31c2.45-2.83,4.04-6.25,4.61-9.98
		L127.87,13.37z M78.45,22.71c0-6.83,5.56-12.39,12.39-12.39c6.83,0,12.39,5.56,12.39,12.39v4.13c0,0.2-0.02,0.4-0.03,0.61
		l-0.45,2.79c-1.48,5.18-6.25,8.99-11.9,8.99c-6.83,0-12.39-5.56-12.39-12.39V22.71z M46.91,110.55c1.47,2.45,3.88,4.26,6.77,4.85
		v8.47H42.16L46.91,110.55z M55.74,111.48c-3.41,0-6.19-2.78-6.19-6.19s2.78-6.19,6.19-6.19h31.13c-0.1,0.68-0.17,1.36-0.17,2.06
		c0,4.04,1.67,7.7,4.36,10.32H55.74z M88.12,94.97h-6.66l-1.02-1.19c-6.43-7.5-10.03-17.03-10.21-26.89l4.69-4.69
		c1.89,11.27,7.03,21.8,14.75,30.24C89.07,93.22,88.55,94.07,88.12,94.97z M24.77,59.48l17.15,9.53c-5.99-1.2-11.78-3.3-17.15-6.24
		V59.48z M22.13,53.29c-0.92-0.51-1.49-1.48-1.49-2.53v-0.39c0-1.59,1.3-2.89,2.89-2.89c0.47,0,0.94,0.12,1.36,0.34l31.23,16.65
		L78.2,42.4c0.71-0.7,1.68-1.1,2.67-1.1c2.08,0,3.77,1.69,3.77,3.78c0,1.01-0.39,1.96-1.1,2.67L60.21,71.06
		c-1.26,1.26-3.3,1.54-4.85,0.68L22.13,53.29z M92.61,89.54c-7.8-8.57-12.76-19.45-14.05-30.99l7.9-7.9
		c1.49-1.49,2.31-3.48,2.31-5.59c0-0.66-0.1-1.28-0.25-1.89c0.76,0.11,1.53,0.18,2.32,0.18c3.77,0,6.96,2.7,7.58,6.42L99,53.24
		l-5.84,35.9C92.97,89.27,92.79,89.4,92.61,89.54z M100.46,44.25c-0.69-0.97-1.5-1.84-2.44-2.56c1.14-0.55,2.21-1.22,3.18-2.01
		L100.46,44.25z M38.27,17.84c3.7-2.22,7.93-3.39,12.25-3.39c13.12,0,23.8,10.68,23.8,23.8v2.18L55.36,59.39l-26.2-13.97h24.52
		v-4.13h-28.9v-4.96c8.84-4.85,18.81-7.43,28.9-7.43v-4.13c-10.04,0-19.96,2.39-28.9,6.89v-5.72L38.27,17.84z M4.13,65.95V33.14
		l4.13-1.38v35.56L4.13,65.95z M16.52,84.65c-2.28,0-4.13-1.85-4.13-4.13V18.58c0-2.28,1.85-4.13,4.13-4.13s4.13,1.85,4.13,4.13
		v25.41c-2.43,1.11-4.13,3.54-4.13,6.38v0.39c0,2.55,1.38,4.9,3.61,6.14l0.52,0.29v23.33C20.65,82.79,18.79,84.65,16.52,84.65z
		 M24.77,73.15v-5.72c8.25,4.15,17.37,6.5,26.61,6.83l1.96,1.09c1.21,0.68,2.59,1.03,3.98,1.03c2.19,0,4.25-0.85,5.8-2.4l3.2-3.2
		c0.23,2.26,0.63,4.49,1.19,6.69c-4.47,4.55-10.61,7.17-16.99,7.17c-4.31,0-8.55-1.17-12.25-3.39L24.77,73.15z M40.54,86.91
		c3.17,1.22,6.55,1.86,9.98,1.86c6.74,0,13.27-2.48,18.33-6.86c1.69,4.7,4.16,9.1,7.29,13.06H55.37c-4.35,0-8.26,2.75-9.72,6.85
		l-7.87,22.05H25.76L40.54,86.91z M57.81,123.87v-8.26H99.1v8.26H57.81z M101.16,111.48c-5.69,0-10.32-4.63-10.32-10.32
		c0-5.69,4.63-10.32,10.32-10.32c5.69,0,10.32,4.63,10.32,10.32C111.48,106.85,106.85,111.48,101.16,111.48z M118.25,60.38
		l-5.39,32.33c-2.63-3.63-6.89-6.01-11.7-6.01c-1.21,0-2.38,0.17-3.5,0.45l5.5-33.81l0.03-0.01l-0.02-0.1l1.51-9.25l11.6,1.29
		C118.42,50.02,119.11,55.22,118.25,60.38z M123.87,11.7c0,0.35-0.03,0.7-0.08,1.04l-3.14,20.39c-0.46,3.02-1.76,5.78-3.77,8.05
		l-11.53-1.28l1.45-8.89c0.26-0.99,0.43-2.02,0.5-3.08l2.94-18.05c0.54-3.34,3.39-5.76,6.77-5.76c3.78,0,6.86,3.08,6.86,6.86V11.7z"
		/>
</g>
</svg>
