<?xml version="1.0" encoding="utf-8"?>
<!-- Generator: Adobe Illustrator 27.9.0, SVG Export Plug-In . SVG Version: 6.00 Build 0)  -->
<svg version="1.1" id="Layer_1" xmlns="http://www.w3.org/2000/svg" xmlns:xlink="http://www.w3.org/1999/xlink" x="0px" y="0px"
	 viewBox="0 0 128 128" style="enable-background:new 0 0 128 128;" xml:space="preserve">
<g>
	<path d="M94.12,56.09c1.21-1.2,1.88-2.83,1.88-4.53V38.04c0.01-1.7-0.67-3.33-1.88-4.53l-3.9-3.9c-1.2-1.21-2.83-1.88-4.53-1.87
		H74.67v-4.66c2.55-0.9,4.25-3.3,4.27-6.01V6.4c0-3.54-2.87-6.4-6.4-6.4H55.47c-3.54,0-6.4,2.87-6.4,6.4v10.67
		c0.01,2.7,1.72,5.11,4.27,6.01v4.66H42.3c-1.7-0.01-3.33,0.67-4.53,1.87l-3.9,3.9c-1.21,1.2-1.88,2.83-1.88,4.53v13.53
		c0,1.7,0.67,3.33,1.88,4.53l4.53,4.52v34.5l-4.53,4.52c-1.21,1.2-1.88,2.83-1.88,4.53v13.53c0,1.7,0.67,3.33,1.88,4.53l3.9,3.9
		c1.2,1.21,2.83,1.88,4.53,1.88h43.4c1.7,0.01,3.33-0.67,4.53-1.88l3.9-3.9c1.21-1.2,1.88-2.83,1.88-4.53v-13.53
		c0.01-1.7-0.67-3.33-1.88-4.53l-4.53-4.52v-34.5L94.12,56.09z M57.6,23.47h12.8v4.27H57.6V23.47z M53.33,6.4
		c0-1.18,0.96-2.13,2.13-2.13h17.07c1.18,0,2.13,0.96,2.13,2.13v10.67c0,1.18-0.96,2.13-2.13,2.13H55.47
		c-1.18,0-2.13-0.96-2.13-2.13V6.4z M91.73,104.17v13.53c0,0.57-0.22,1.11-0.62,1.51l-3.9,3.9c-0.4,0.4-0.94,0.62-1.51,0.62H42.3
		c-0.57,0-1.11-0.22-1.51-0.62l-3.9-3.9c-0.4-0.4-0.62-0.94-0.62-1.51v-13.53c0-0.57,0.22-1.11,0.62-1.51l4.53-4.52h14.05
		c1.18,0,2.13-0.96,2.13-2.13s-0.96-2.13-2.13-2.13h-12.8v-32h12.8c1.18,0,2.13-0.96,2.13-2.13c0-1.18-0.96-2.13-2.13-2.13H41.42
		l-4.53-4.52c-0.4-0.4-0.62-0.94-0.62-1.51V38.04c0-0.57,0.22-1.11,0.62-1.51l3.9-3.9c0.4-0.4,0.94-0.62,1.51-0.62h43.4
		c0.57,0,1.11,0.22,1.51,0.62l3.9,3.9c0.4,0.4,0.62,0.94,0.62,1.51v13.53c0,0.57-0.22,1.11-0.62,1.51l-4.52,4.52H72.53
		c-1.18,0-2.13,0.96-2.13,2.13c0,1.18,0.96,2.13,2.13,2.13h12.8v32h-12.8c-1.18,0-2.13,0.96-2.13,2.13s0.96,2.13,2.13,2.13h14.05
		l4.52,4.52C91.51,103.06,91.73,103.6,91.73,104.17z"/>
	<path d="M81.07,81.07c0-1.18-0.96-2.13-2.13-2.13H49.07c-1.18,0-2.13,0.96-2.13,2.13c0,1.18,0.96,2.13,2.13,2.13h29.87
		C80.11,83.2,81.07,82.25,81.07,81.07z"/>
	<path d="M53.33,74.67h21.33c1.18,0,2.13-0.96,2.13-2.13c0-1.18-0.96-2.13-2.13-2.13H53.33c-1.18,0-2.13,0.96-2.13,2.13
		C51.2,73.71,52.16,74.67,53.33,74.67z"/>
</g>
</svg>
