<?xml version="1.0" encoding="utf-8"?>
<!-- Generator: Adobe Illustrator 27.9.0, SVG Export Plug-In . SVG Version: 6.00 Build 0)  -->
<svg version="1.1" id="Layer_1" xmlns="http://www.w3.org/2000/svg" xmlns:xlink="http://www.w3.org/1999/xlink" x="0px" y="0px"
	 viewBox="0 0 128 128" style="enable-background:new 0 0 128 128;" xml:space="preserve">
<g>
	<g>
		<g>
			<path d="M125.5,113H125V73h0c0-0.41-0.1-0.83-0.3-1.2c-2.7-4.93-9.65-13.71-18.49-15.83V50.5h3.31c1.38,0,2.5-1.12,2.5-2.5
				s-1.12-2.5-2.5-2.5H84.23c-1.38,0-2.5,1.12-2.5,2.5s1.12,2.5,2.5,2.5h3.31v5.24c-3.97,0.48-7.67,1.7-10.79,3.5V42.5c0,0,0,0,0,0
				c0-0.39-0.09-0.78-0.27-1.14C72.89,34.35,65.77,30,57.9,30h-0.15v-5h7.5c2.34,3.12,6.05,5,10,5c6.89,0,12.5-5.61,12.5-12.5
				S82.14,5,75.25,5c-3.94,0-7.65,1.88-10,5h-7.5V5h2.88c1.38,0,2.5-1.12,2.5-2.5S62.01,0,60.62,0H39.88c-1.38,0-2.5,1.12-2.5,2.5
				S38.49,5,39.88,5h2.88v5h-7.5c-1.38,0-2.5,1.12-2.5,2.5v10c0,1.38,1.12,2.5,2.5,2.5h7.5v5H42.6c-7.87,0-14.99,4.35-18.58,11.36
				c-0.18,0.36-0.27,0.75-0.27,1.14c0,0,0,5.28,0,13h-7.5c-6.89,0-12.5,5.61-12.5,12.5v9.55c0,0-3.59,9.58-3.59,9.58
				C0.06,87.4,0,87.69,0,88v32.5c0,4.14,3.36,7.5,7.5,7.5h118c1.38,0,2.5-1.12,2.5-2.5v-10C128,114.12,126.88,113,125.5,113z
				 M57.75,15h8.84c0.89,0,1.72-0.48,2.16-1.25c1.34-2.31,3.83-3.75,6.5-3.75c4.14,0,7.5,3.36,7.5,7.5s-3.36,7.5-7.5,7.5
				c-2.67,0-5.16-1.44-6.5-3.75C68.31,20.48,67.48,20,66.59,20h-8.84V15z M47.75,5h5v5h-5V5z M47.75,15h5v5h-5V15z M47.75,25h5v5h-5
				V25z M37.75,20v-5h5v5H37.75z M42.6,35H57.9c4.47,0,8.62,1.85,11.57,5H31.03C33.98,36.85,38.13,35,42.6,35z M28.75,60.93
				c2.91,1.03,5,3.81,5,7.07v7.5h-5V60.93z M8.75,68c0-4.14,3.36-7.5,7.5-7.5h7.5c0,1.61,0,3.28,0,5h-7.5c-1.38,0-2.5,1.12-2.5,2.5
				v7.5h-5V68z M23.75,70.5v5h-5v-5H23.75z M7.98,80.5h26.54l1.88,5H6.11L7.98,80.5z M37.5,120.5c0,1.38-1.12,2.5-2.5,2.5H7.5
				c-1.38,0-2.5-1.12-2.5-2.5V118h32.5V120.5z M37.5,113H5V90.5h32.5V113z M71.75,110h-11.5c-1.38,0-2.5,1.12-2.5,2.5
				s1.12,2.5,2.5,2.5h11.5v0.5c0,4.14-3.36,7.5-7.5,7.5H42.07c0.28-0.78,0.43-1.62,0.43-2.5V88c0-0.31-0.06-0.6-0.16-0.88
				c0,0-3.59-9.58-3.59-9.58V68c0-6.04-4.3-11.09-10-12.25V45h43V110z M92.54,50.5h8.67v5h-8.67V50.5z M76.75,65.3
				c3.61-2.97,8.97-4.8,14.69-4.8h10.88c6.1,0,11.93,5.13,15.59,10H76.75V65.3z M76.75,75.5H120V113H76.75V75.5z M123,123H74.24
				c1.09-1.45,1.88-3.15,2.26-5H123V123z"/>
		</g>
	</g>
	<g>
		<g>
			<path d="M50.25,110c-1.38,0-2.5,1.12-2.5,2.5s1.12,2.5,2.5,2.5c1.38,0,2.5-1.12,2.5-2.5S51.63,110,50.25,110z"/>
		</g>
	</g>
	<g>
		<g>
			<path d="M77.02,15.73C76.55,15.27,75.91,15,75.25,15s-1.3,0.27-1.77,0.73c-0.46,0.47-0.73,1.11-0.73,1.77s0.27,1.3,0.73,1.77
				c0.47,0.47,1.11,0.73,1.77,0.73s1.3-0.27,1.77-0.73c0.47-0.46,0.73-1.11,0.73-1.77S77.48,16.2,77.02,15.73z"/>
		</g>
	</g>
</g>
</svg>
