<?xml version="1.0" encoding="utf-8"?>
<!-- Generator: Adobe Illustrator 27.9.0, SVG Export Plug-In . SVG Version: 6.00 Build 0)  -->
<svg version="1.1" id="Layer_1" xmlns="http://www.w3.org/2000/svg" xmlns:xlink="http://www.w3.org/1999/xlink" x="0px" y="0px"
	 viewBox="0 0 128 128" style="enable-background:new 0 0 128 128;" xml:space="preserve">
<g>
	<path d="M90.67,21.33c4.71,0,8.53-3.82,8.53-8.53s-3.82-8.53-8.53-8.53c-1.5,0.01-2.98,0.42-4.27,1.19V0H69.33v8.53H52.27
		C42.85,8.54,35.21,16.18,35.2,25.6v59.73h-2.13c-1.18,0-2.13,0.96-2.13,2.13V96c0.01,0.99,0.71,1.84,1.68,2.04l-3.77,18.87
		c-0.13,0.63,0.04,1.28,0.44,1.77c0.41,0.49,1.01,0.78,1.65,0.78h21.33c0.64,0,1.24-0.29,1.65-0.78c0.41-0.49,0.57-1.14,0.44-1.77
		l-3.77-18.87c0.97-0.2,1.67-1.05,1.68-2.04v-8.53c0-1.18-0.96-2.13-2.13-2.13H48v-57.6c0-3.53,2.87-6.4,6.4-6.4h14.93v4.44
		c-7.34,1.06-12.79,7.35-12.8,14.76V128H99.2V40.53c-0.01-7.42-5.46-13.7-12.8-14.76v-5.62C87.69,20.91,89.16,21.33,90.67,21.33z
		 M90.67,8.53c2.36,0,4.27,1.91,4.27,4.27s-1.91,4.27-4.27,4.27s-4.27-1.91-4.27-4.27C86.4,10.44,88.31,8.54,90.67,8.53z
		 M33.54,115.2l3.41-17.07h9.3l3.41,17.07H33.54z M48,93.87H35.2V89.6H48V93.87z M54.4,17.07c-5.89,0.01-10.66,4.78-10.67,10.67
		v57.6h-4.27V25.6c0.01-7.07,5.73-12.79,12.8-12.8h17.07v4.27H54.4z M73.6,4.27h8.53V25.6H73.6V4.27z M94.93,123.73H60.8v-8.53
		h34.13V123.73z M94.93,93.87H73.6V59.73h21.33V93.87z M94.93,40.53v14.93h-25.6v42.67h25.6v12.8H60.8v-70.4
		c0.01-5.89,4.78-10.66,10.67-10.67h12.8C90.16,29.87,94.93,34.64,94.93,40.53z"/>
	<path d="M71.47,34.13c-3.65,0-6.4,4.59-6.4,10.67c0,1.18,0.96,2.13,2.13,2.13s2.13-0.96,2.13-2.13c0-4.13,1.6-6.4,2.13-6.4
		c1.18,0,2.13-0.96,2.13-2.13S72.64,34.13,71.47,34.13z"/>
</g>
</svg>
