<?xml version="1.0" encoding="utf-8"?>
<!-- Generator: Adobe Illustrator 27.9.0, SVG Export Plug-In . SVG Version: 6.00 Build 0)  -->
<svg version="1.1" id="Layer_1" xmlns="http://www.w3.org/2000/svg" xmlns:xlink="http://www.w3.org/1999/xlink" x="0px" y="0px"
	 viewBox="0 0 128 128" style="enable-background:new 0 0 128 128;" xml:space="preserve">
<g>
	<path d="M14.79,44.8c3.67,0,6.85-2.09,8.44-5.13h6.11c1.64,3.15,4.91,5.13,8.43,5.13c0.85,0,1.72-0.12,2.57-0.36
		c2.45-0.69,4.48-2.29,5.73-4.51c1.25-2.22,1.55-4.79,0.86-7.24c-0.69-2.45-2.29-4.48-4.51-5.73c-2.22-1.25-4.79-1.55-7.24-0.86
		c-2.45,0.69-4.48,2.29-5.73,4.51c-0.05,0.09-0.09,0.18-0.13,0.27h-6.1c-1.59-3.05-4.78-5.13-8.44-5.13c-5.25,0-9.53,4.27-9.53,9.53
		C5.27,40.53,9.54,44.8,14.79,44.8z M24.29,35.8h3.97c0.04,0.69,0.15,1.37,0.34,2.05c0.07,0.26,0.19,0.5,0.28,0.76H23.7
		C24.03,37.73,24.24,36.79,24.29,35.8z M28.27,34.74h-3.97c-0.05-0.98-0.26-1.92-0.59-2.81h5.16
		C28.52,32.85,28.32,33.79,28.27,34.74z"/>
	<path d="M25.75,77.52c3.34,0,6.58-1.75,8.32-4.86c1.25-2.22,1.55-4.79,0.86-7.24c-0.69-2.45-2.29-4.48-4.51-5.73
		c-2.22-1.25-4.79-1.55-7.24-0.86c-2.45,0.69-4.48,2.29-5.73,4.51c-1.34,2.38-1.53,5.1-0.76,7.52l-4.31,4.31
		c-3.28-1.03-7-0.25-9.6,2.34c-3.71,3.71-3.71,9.76,0,13.47c1.86,1.86,4.3,2.79,6.74,2.79s4.88-0.93,6.74-2.79
		c2.59-2.59,3.37-6.32,2.34-9.6l4.32-4.32C23.85,77.36,24.8,77.52,25.75,77.52z M18.68,74.34l-2.81,2.81
		c-0.73-0.66-1.54-1.18-2.4-1.57l3.65-3.65C17.51,72.81,18.03,73.62,18.68,74.34z M16.61,77.91l2.81-2.81
		c0.51,0.45,1.07,0.87,1.69,1.21c0.24,0.13,0.48,0.24,0.72,0.35l-3.65,3.65C17.79,79.45,17.27,78.64,16.61,77.91z"/>
	<path d="M63.73,31.52c1.44,0.81,3.04,1.22,4.65,1.22c0.87,0,1.74-0.12,2.59-0.36c0.1-0.03,0.19-0.06,0.28-0.09l4.31,4.31
		c-1.03,3.28-0.25,7.01,2.34,9.6c1.86,1.86,4.3,2.79,6.74,2.79c2.44,0,4.88-0.93,6.74-2.79c3.71-3.71,3.71-9.76,0-13.47
		c-2.59-2.59-6.32-3.37-9.6-2.34l-4.3-4.3c1.33-4.21-0.42-8.93-4.42-11.18c-2.22-1.25-4.79-1.55-7.24-0.86
		c-2.45,0.69-4.48,2.29-5.73,4.51c-1.25,2.22-1.55,4.79-0.86,7.24C59.91,28.24,61.51,30.28,63.73,31.52z M74.74,30.31l2.81,2.81
		c-0.66,0.73-1.18,1.54-1.57,2.4l-3.64-3.64C73.22,31.47,74.03,30.95,74.74,30.31z M78.3,32.37l-2.81-2.81
		c0.46-0.51,0.87-1.07,1.21-1.69c0.13-0.23,0.24-0.47,0.35-0.71l3.64,3.64C79.84,31.19,79.03,31.72,78.3,32.37z"/>
	<path d="M77.4,62.64c-2.54-0.23-5.01,0.54-6.96,2.17c-0.08,0.06-0.15,0.14-0.22,0.2l-5.69-2.17c-0.11-0.95-0.37-1.9-0.77-2.8
		c-1.04-2.32-2.92-4.1-5.3-5.01c-2.38-0.91-4.96-0.84-7.29,0.21c-2.32,1.04-4.1,2.92-5.01,5.3c-0.91,2.38-0.83,4.97,0.21,7.29
		c1.04,2.32,2.92,4.1,5.3,5.01c1.1,0.42,2.25,0.63,3.4,0.63c1.32,0,2.65-0.28,3.89-0.84c0.9-0.4,1.72-0.94,2.44-1.58l5.68,2.16
		c0.21,1.83,0.94,3.56,2.15,5.01c1.63,1.95,3.92,3.16,6.46,3.39c0.29,0.03,0.58,0.04,0.86,0.04c4.87,0,9.04-3.73,9.48-8.67
		c0.23-2.53-0.54-5.01-2.17-6.96S79.93,62.87,77.4,62.64z M69.4,65.83c-0.64,0.73-1.16,1.54-1.55,2.41l-3.71-1.42
		c0.3-0.93,0.45-1.88,0.46-2.83L69.4,65.83z M62.21,70.23c0.63-0.71,1.15-1.52,1.54-2.41l3.71,1.42c-0.21,0.65-0.35,1.33-0.42,2.03
		c-0.02,0.27-0.03,0.53-0.03,0.8L62.21,70.23z"/>
	<path d="M62.51,95.3c-2.72-0.24-5.28,0.69-7.17,2.38l-5.7-2.17c-0.4-3.41-2.63-6.5-6.06-7.8c-4.91-1.88-10.42,0.6-12.29,5.51
		c-0.91,2.38-0.83,4.97,0.21,7.29c1.04,2.32,2.92,4.1,5.3,5.01c1.11,0.42,2.26,0.63,3.38,0.63c2.34,0,4.59-0.88,6.33-2.42l5.69,2.17
		c0.51,4.39,4.04,7.98,8.6,8.39c0.29,0.03,0.58,0.04,0.87,0.04c2.22,0,4.36-0.77,6.09-2.21c1.95-1.63,3.15-3.92,3.38-6.46
		c0.23-2.53-0.54-5.01-2.17-6.96C67.33,96.73,65.04,95.53,62.51,95.3z M54.51,98.5c-0.63,0.71-1.16,1.52-1.55,2.41l-3.72-1.42
		c0.3-0.94,0.45-1.89,0.45-2.83L54.51,98.5z M47.3,102.89c0.62-0.71,1.15-1.51,1.55-2.41l3.73,1.42c-0.21,0.65-0.35,1.33-0.42,2.03
		c-0.02,0.27-0.03,0.53-0.03,0.8L47.3,102.89z"/>
	<path d="M124.74,70.97c-3.96-3.45-9.99-3.04-13.44,0.92c-1.79,2.06-2.53,4.68-2.28,7.2l-5.1,3.34c-3-1.68-6.81-1.68-9.88,0.33
		c-4.39,2.88-5.63,8.79-2.75,13.19v0c1.83,2.79,4.88,4.3,7.98,4.3c1.79,0,3.6-0.5,5.2-1.56c2.13-1.39,3.59-3.53,4.11-6.02
		c0.2-0.97,0.25-1.94,0.15-2.9l5.1-3.34c1.45,0.81,3.04,1.22,4.64,1.22c2.66,0,5.31-1.11,7.19-3.26
		C129.11,80.45,128.7,74.42,124.74,70.97z M110.24,82.92l-3.33,2.18c-0.58-0.79-1.27-1.47-2.03-2.03l4.32-2.83
		C109.41,81.17,109.75,82.08,110.24,82.92z M107.49,85.98l3.32-2.18c0.4,0.55,0.87,1.06,1.4,1.53c0.21,0.18,0.44,0.31,0.66,0.47
		l-4.33,2.84C108.33,87.72,107.98,86.82,107.49,85.98z"/>
</g>
</svg>
