<?xml version="1.0" encoding="utf-8"?>
<!-- Generator: Adobe Illustrator 27.9.0, SVG Export Plug-In . SVG Version: 6.00 Build 0)  -->
<svg version="1.1" id="Layer_1" xmlns="http://www.w3.org/2000/svg" xmlns:xlink="http://www.w3.org/1999/xlink" x="0px" y="0px"
	 viewBox="0 0 128 128" style="enable-background:new 0 0 128 128;" xml:space="preserve">
<g id="_x31_MJ9vP.tif">
	<g>
		<path d="M107.17,47.17c0-1.33,0.01-2.67-0.22-3.97c-1.78-10.4-7.69-17.53-17.25-21.73c-1.7-0.75-1.73-0.71-1.73-2.54
			c0-3.7-0.04-7.4,0.01-11.1C88.03,3.8,84.86-0.09,80.13,0C69.17,0.22,58.2,0.1,47.24,0.05c-2.75-0.02-4.67,1.23-6.14,3.37
			c-0.92,1.34-1.22,2.9-1.22,4.51c-0.01,3.74-0.04,7.48,0.02,11.23c0.02,1.24-0.44,1.81-1.58,2.27
			c-7.33,2.95-12.49,8.15-15.69,15.37c-1.18,2.66-1.61,5.47-1.83,8.33v1.5c0.23,0.39,0.12,0.81,0.12,1.22
			c0.01,17.66,0.01,35.32,0,52.98c0,0.41,0.11,0.83-0.12,1.22v1.25c0.28,0.99,0.18,2.04,0.52,3.03c1.6,4.66,4.73,7.82,9.32,9.51
			c1.01,0.37,1.35,0.9,1.31,1.91c-0.06,1.49-0.03,2.98-0.01,4.48c0.03,3.01,1.67,5.09,4.57,5.78h54.35c3.62-0.69,5.09-2.5,5.1-6.28
			c0-1.29,0.05-2.58-0.02-3.87c-0.05-1.06,0.29-1.64,1.36-2.02c5.74-2.04,9.95-7.5,9.92-14.39
			C107.12,83.35,107.19,65.26,107.17,47.17z M45.34,8.03c0.01-2.06,0.8-2.84,2.88-2.84c5.24-0.01,10.47,0,15.71,0
			c5.23,0,10.47,0,15.71,0c2.07,0,2.87,0.78,2.88,2.84c0.02,3.66-0.02,7.32,0.03,10.98c0.01,0.82-0.26,1-1,0.92
			c-1.11-0.12-2.54,0.23-3.24-0.34c-0.66-0.54-0.17-2.03-0.19-3.11c-0.03-1.37,0.02-2.74-0.01-4.12c-0.04-1.89-1.12-3.07-3.02-3.08
			c-7.44-0.04-14.87-0.04-22.31,0c-1.95,0.01-3,1.2-3.02,3.2c-0.02,2.12-0.04,4.24,0.01,6.37c0.02,0.75-0.16,1.04-0.96,0.99
			c-1.11-0.06-2.64,0.45-3.24-0.1c-0.72-0.66-0.21-2.19-0.22-3.35C45.31,13.6,45.32,10.82,45.34,8.03z M54.84,15.22
			c-0.03-0.63,0.14-0.86,0.81-0.85c5.53,0.03,11.05,0.02,16.58,0c0.59,0,0.8,0.16,0.78,0.77c-0.04,1.25-0.06,2.5,0,3.74
			c0.04,0.8-0.27,0.97-1,0.96c-2.66-0.04-5.32-0.02-7.98-0.02c-2.7,0-5.4-0.04-8.1,0.02c-0.9,0.02-1.14-0.28-1.09-1.13
			C54.9,17.56,54.89,16.39,54.84,15.22z M92.77,111.28c-2.95,0.06-5.9,0-8.85,0.03c-1.33,0.01-2.31,0.8-2.55,1.94
			c-0.25,1.19,0.25,2.3,1.29,2.83c0.57,0.29,1.2,0.3,1.82,0.31c1.79,0.01,3.58,0.02,5.36-0.01c0.57-0.01,0.8,0.12,0.79,0.75
			c-0.04,1.62-0.02,3.25-0.01,4.87c0.01,0.69-0.34,0.98-0.98,1c-0.25,0.01-0.5,0-0.75,0c-16.62,0-33.24,0-49.87,0
			c-1.78,0-1.78,0-1.78-1.82c0-1.25,0.06-2.5-0.02-3.74c-0.06-0.9,0.27-1.07,1.11-1.07c11.3,0.03,22.61,0.02,33.91,0.02
			c0.5,0,1-0.01,1.49-0.08c1.4-0.2,2.23-1.18,2.2-2.54c-0.03-1.32-0.96-2.32-2.33-2.46c-0.37-0.04-0.75-0.01-1.12-0.01
			c-12.13,0-24.27,0.01-36.4-0.01c-5.06-0.01-9.03-3.11-9.92-7.7c-0.02-0.08,0-0.16,0-0.28h75.54
			C101.04,107.68,97.12,111.19,92.77,111.28z M100.68,98.32c-24.51-0.03-49.03-0.02-73.54-0.01c-0.69,0-1.21,0.1-1.2-0.96
			c0.05-17.01,0.02-34.03,0.08-51.04c0.02-4.68,0.11-4.68,4.65-4.68c1.7,0,3.41,0.02,5.11-0.01c1.52-0.02,2.68-1.16,2.63-2.55
			c-0.04-1.37-1.16-2.42-2.63-2.43c-2.28-0.02-4.57-0.01-7.09-0.01c3.85-6.45,9.24-10.29,16.47-11.5c1.44-0.24,2.89-0.25,4.34-0.25
			c10.06,0.01,20.11-0.1,30.16,0.04c8.15,0.12,14.39,3.89,18.86,10.67c0.2,0.3,0.34,0.63,0.56,1.04H46.63
			c-1.69,0-2.72,0.76-2.89,2.1c-0.21,1.7,0.89,2.88,2.74,2.88c8.97,0.01,17.95,0,26.92,0c8.85,0,17.7,0.01,26.55-0.02
			c0.88,0,1.29,0.16,1.47,1.14c0.33,1.77,0.46,3.54,0.46,5.32c0,16.35-0.01,32.69,0.03,49.04
			C101.91,98.13,101.62,98.32,100.68,98.32z"/>
		<path d="M20.79,46.62c0.44,0.3,0.24,0.76,0.24,1.15c0.01,17.66,0.01,35.33,0,52.99c0,0.43,0.2,0.92-0.24,1.28
			C20.79,83.57,20.79,65.09,20.79,46.62z"/>
	</g>
</g>
</svg>
