<?xml version="1.0" encoding="utf-8"?>
<!-- Generator: Adobe Illustrator 27.9.0, SVG Export Plug-In . SVG Version: 6.00 Build 0)  -->
<svg version="1.1" id="Layer_1" xmlns="http://www.w3.org/2000/svg" xmlns:xlink="http://www.w3.org/1999/xlink" x="0px" y="0px"
	 viewBox="0 0 128 128" style="enable-background:new 0 0 128 128;" xml:space="preserve">
<g>
	<path d="M55.81,39.07l18.57,18.57c0.8,0.8,2.02,0.99,3.02,0.5c1.01-0.5,1.59-1.59,1.43-2.71c-0.65-4.66-2.04-9.15-4.13-13.35
		c-2.09-4.2-4.84-8.02-8.16-11.35l-1.19-1.19l0.7-0.7c1.4-1.4,1.59-3.57,0.57-5.18l4.05-8.15c0.74-1.49,0.45-3.29-0.73-4.46
		l-2.13-2.12c-1.18-1.18-2.97-1.47-4.46-0.73l-8.15,4.05c-1.61-1.02-3.77-0.83-5.18,0.57l-0.7,0.7l-1.19-1.19
		c-6.64-6.63-15.41-11-24.71-12.3c-1.18-0.16-2.32,0.49-2.78,1.6c-0.41,0.98-0.18,2.11,0.57,2.85L39.8,23.06
		c-1.21,1.3-1.43,3.19-0.67,4.7L27.04,41.42c-0.69,0.78-0.61,1.96,0.16,2.65c0.77,0.68,1.96,0.62,2.65-0.16l11.8-13.33l6.64,6.64
		L5.83,74.81c-0.49,0.44-1.25,0.41-1.71-0.05c-0.47-0.47-0.49-1.22-0.05-1.71l20-22.59c0.69-0.78,0.61-1.96-0.16-2.65
		c-0.78-0.69-1.96-0.61-2.65,0.16l-20,22.59c-1.75,1.98-1.66,4.98,0.21,6.85c1.87,1.87,4.88,1.95,6.85,0.21l42.8-37.88
		c0.59,0.3,1.23,0.45,1.87,0.45C54,40.18,55.02,39.81,55.81,39.07L55.81,39.07z M71.35,43.74c1.38,2.77,2.43,5.69,3.13,8.69
		L58.47,36.42l4.24-4.24l1.19,1.19C66.93,36.41,69.44,39.9,71.35,43.74L71.35,43.74z M65.03,11.55c0.05-0.02,0.11-0.01,0.14,0.02
		l2.13,2.13c0.04,0.04,0.05,0.1,0.02,0.14l-3.44,6.92l-5.77-5.77L65.03,11.55z M26.45,4.4c7.17,1.68,13.83,5.36,19.05,10.58
		l1.19,1.19l-4.24,4.24L26.45,4.4z M42.56,26.18c-0.16-0.16-0.16-0.43,0-0.59l10.13-10.13c0.16-0.16,0.43-0.16,0.59,0l10.13,10.13
		c0.16,0.16,0.16,0.43,0,0.59L53.28,36.31c-0.16,0.16-0.43,0.16-0.59,0L42.56,26.18z M84.25,68.31c0.73,0.73,1.92,0.73,2.65,0
		s0.73-1.92,0-2.65l-4.81-4.81c-0.73-0.73-1.92-0.73-2.65,0c-0.73,0.73-0.73,1.92,0,2.65L84.25,68.31z M91.98,59.8
		c0.97,0.28,2.03-0.27,2.32-1.28c0.29-0.99-0.29-2.03-1.28-2.32l-7.46-2.16c-0.99-0.29-2.03,0.29-2.32,1.28
		c-0.29,0.99,0.29,2.03,1.28,2.32L91.98,59.8z M73.92,64.65c-0.99,0.29-1.57,1.33-1.28,2.32l2.16,7.46
		c0.29,1.01,1.35,1.56,2.32,1.28c0.99-0.29,1.57-1.33,1.28-2.32l-2.16-7.46C75.95,64.94,74.91,64.36,73.92,64.65L73.92,64.65z
		 M106.79,81.13c0,1.04,0.84,1.87,1.88,1.87c1.04,0,1.88-0.84,1.88-1.87c0-1.04-0.84-1.87-1.88-1.87
		C107.63,79.25,106.79,80.09,106.79,81.13z M97.5,93.5c0-4.55-3.7-8.25-8.25-8.25c-4.55,0-8.25,3.7-8.25,8.25s3.7,8.25,8.25,8.25
		C93.8,101.75,97.5,98.05,97.5,93.5z M84.75,93.5c0-2.48,2.02-4.5,4.5-4.5c2.48,0,4.5,2.02,4.5,4.5s-2.02,4.5-4.5,4.5
		C86.77,98,84.75,95.98,84.75,93.5z M120.12,54.88c0-3.1-2.52-5.62-5.63-5.62s-5.63,2.52-5.63,5.62c0,3.1,2.52,5.62,5.63,5.62
		S120.12,57.98,120.12,54.88z M114.5,56.75c-1.03,0-1.88-0.84-1.88-1.87c0-1.03,0.84-1.87,1.88-1.87c1.03,0,1.88,0.84,1.88,1.87
		C116.37,55.91,115.53,56.75,114.5,56.75z M84.29,118.63c0,1.04,0.84,1.87,1.88,1.87c1.04,0,1.88-0.84,1.88-1.87
		s-0.84-1.87-1.88-1.87C85.13,116.75,84.29,117.59,84.29,118.63z M111.62,8c-3.1,0-5.63,2.52-5.63,5.62s2.52,5.62,5.63,5.62
		s5.63-2.52,5.63-5.62S114.73,8,111.62,8z M111.62,15.5c-1.03,0-1.88-0.84-1.88-1.87s0.84-1.87,1.88-1.87s1.88,0.84,1.88,1.87
		S112.66,15.5,111.62,15.5z M126.12,53.63c1.04,0,1.88-0.84,1.88-1.87V5.63c0-3.1-2.52-5.62-5.63-5.62H84.66
		c-3.41-0.04-5.25,4.01-3.15,6.57l19.51,24.23c0.56,0.7,0.84,1.57,0.77,2.46l-2.4,34.53c-0.09,1.34-0.92,2.5-2.17,3.02l-25.1,10.49
		c-3.35,1.4-5.14,4.97-4.26,8.49l2.92,11.72c0.31,1.24-0.08,2.55-1,3.43l-16.99,16.08c-2.62,2.48-0.82,6.98,2.78,6.98h66.8
		c3.1,0,5.63-2.52,5.63-5.62V60.5c0-1.04-0.84-1.87-1.88-1.87c-1.04,0-1.88,0.84-1.88,1.87v61.87c0,1.03-0.84,1.87-1.88,1.87h-66.8
		c-0.22,0.02-0.37-0.37-0.2-0.5l16.99-16.08c1.91-1.8,2.7-4.51,2.06-7.06l-2.92-11.72c-0.43-1.71,0.44-3.44,2.07-4.12l25.1-10.49
		c2.56-1.07,4.27-3.45,4.46-6.22l2.4-34.53c0.13-1.84-0.44-3.64-1.59-5.08L84.43,4.22c-0.14-0.14,0.03-0.49,0.23-0.47h37.72
		c1.03,0,1.88,0.84,1.88,1.87v46.13C124.25,52.79,125.09,53.63,126.12,53.63L126.12,53.63z M111.62,113c3.1,0,5.63-2.52,5.63-5.62
		c0-3.1-2.52-5.62-5.63-5.62s-5.63,2.52-5.63,5.62C106,110.48,108.52,113,111.62,113z M111.62,105.5c1.03,0,1.88,0.84,1.88,1.87
		c0,1.03-0.84,1.87-1.88,1.87s-1.88-0.84-1.88-1.87C109.75,106.34,110.59,105.5,111.62,105.5z M114.29,36.13
		c0,1.04,0.84,1.87,1.88,1.87c1.04,0,1.88-0.84,1.88-1.87c0-1.04-0.84-1.87-1.88-1.87C115.13,34.25,114.29,35.09,114.29,36.13z"/>
</g>
</svg>
