<svg width="24" height="24" viewBox="0 0 24 24" fill="none" xmlns="http://www.w3.org/2000/svg">
<path d="M11.7778 19L11.7 18.8833C11.1597 18.0729 10.8895 17.6676 10.5326 17.3743C10.2167 17.1146 9.8526 16.9198 9.46125 16.8009C9.01919 16.6667 8.5322 16.6667 7.5582 16.6667H6.48889C5.6177 16.6667 5.1821 16.6667 4.84935 16.4971C4.55665 16.348 4.31868 16.11 4.16955 15.8173C4 15.4846 4 15.049 4 14.1778V7.48889C4 6.6177 4 6.1821 4.16955 5.84935C4.31868 5.55665 4.55665 5.31868 4.84935 5.16955C5.1821 5 5.6177 5 6.48889 5H6.8C8.54239 5 9.41358 5 10.0791 5.33909C10.6645 5.63736 11.1404 6.1133 11.4387 6.6987C11.7778 7.3642 11.7778 8.23539 11.7778 9.97778M11.7778 19V9.97778M11.7778 19L11.8556 18.8833C12.3959 18.0729 12.666 17.6676 13.0229 17.3743C13.3389 17.1146 13.703 16.9198 14.0943 16.8009C14.5364 16.6667 15.0234 16.6667 15.9974 16.6667H17.0667C17.9379 16.6667 18.3735 16.6667 18.7062 16.4971C18.9989 16.348 19.2369 16.11 19.386 15.8173C19.5556 15.4846 19.5556 15.049 19.5556 14.1778V7.48889C19.5556 6.6177 19.5556 6.1821 19.386 5.84935C19.2369 5.55665 18.9989 5.31868 18.7062 5.16955C18.3735 5 17.9379 5 17.0667 5H16.7556C15.0132 5 14.142 5 13.4765 5.33909C12.8911 5.63736 12.4151 6.1133 12.1169 6.6987C11.7778 7.3642 11.7778 8.23539 11.7778 9.97778" stroke="#838383" stroke-width="1.2" stroke-linecap="round" stroke-linejoin="round"/>
</svg>
