<svg width="24" height="24" viewBox="0 0 24 24" fill="none" xmlns="http://www.w3.org/2000/svg">
<path d="M16.2778 7.72222L7.72222 16.2778M9.27778 10.8333V7.72222M7.72222 9.27778H10.8333M13.1667 14.7222H16.2778M8.73333 19H15.2667C16.5735 19 17.2269 19 17.726 18.7457C18.165 18.522 18.522 18.165 18.7457 17.726C19 17.2269 19 16.5735 19 15.2667V8.73333C19 7.42654 19 6.77315 18.7457 6.27402C18.522 5.83498 18.165 5.47802 17.726 5.25432C17.2269 5 16.5735 5 15.2667 5H8.73333C7.42654 5 6.77315 5 6.27402 5.25432C5.83498 5.47802 5.47802 5.83498 5.25432 6.27402C5 6.77315 5 7.42654 5 8.73333V15.2667C5 16.5735 5 17.2269 5.25432 17.726C5.47802 18.165 5.83498 18.522 6.27402 18.7457C6.77315 19 7.42654 19 8.73333 19Z" stroke="#838383" stroke-width="1.2" stroke-linecap="round" stroke-linejoin="round"/>
</svg>
