<svg width="24" height="24" viewBox="0 0 24 24" fill="none" xmlns="http://www.w3.org/2000/svg">
<path d="M8.88889 5H8.73333C7.42654 5 6.77315 5 6.27402 5.25432C5.83498 5.47802 5.47802 5.83498 5.25432 6.27402C5 6.77315 5 7.42654 5 8.73333V8.88889M8.88889 19H8.73333C7.42654 19 6.77315 19 6.27402 18.7457C5.83498 18.522 5.47802 18.165 5.25432 17.726C5 17.2269 5 16.5735 5 15.2667V15.1111M19 8.88889V8.73333C19 7.42654 19 6.77315 18.7457 6.27402C18.522 5.83498 18.165 5.47802 17.726 5.25432C17.2269 5 16.5735 5 15.2667 5H15.1111M19 15.1111V15.2667C19 16.5735 19 17.2269 18.7457 17.726C18.522 18.165 18.165 18.522 17.726 18.7457C17.2269 19 16.5735 19 15.2667 19H15.1111" stroke="#838383" stroke-width="1.6" stroke-linecap="round" stroke-linejoin="round"/>
</svg>
