<svg width="24" height="24" viewBox="0 0 24 24" fill="none" xmlns="http://www.w3.org/2000/svg">
<path d="M11.875 12.875C12.3582 12.875 12.75 12.4832 12.75 12C12.75 11.5168 12.3582 11.125 11.875 11.125C11.3918 11.125 11 11.5168 11 12C11 12.4832 11.3918 12.875 11.875 12.875Z" fill="#838383"/>
<path d="M11.875 6.75C12.3582 6.75 12.75 6.35825 12.75 5.875C12.75 5.39175 12.3582 5 11.875 5C11.3918 5 11 5.39175 11 5.875C11 6.35825 11.3918 6.75 11.875 6.75Z" fill="#838383"/>
<path d="M11.875 19C12.3582 19 12.75 18.6082 12.75 18.125C12.75 17.6418 12.3582 17.25 11.875 17.25C11.3918 17.25 11 17.6418 11 18.125C11 18.6082 11.3918 19 11.875 19Z" fill="#838383"/>
<path d="M11.875 12.875C12.3582 12.875 12.75 12.4832 12.75 12C12.75 11.5168 12.3582 11.125 11.875 11.125C11.3918 11.125 11 11.5168 11 12C11 12.4832 11.3918 12.875 11.875 12.875Z" stroke="#838383" stroke-width="1.4" stroke-linecap="round" stroke-linejoin="round"/>
<path d="M11.875 6.75C12.3582 6.75 12.75 6.35825 12.75 5.875C12.75 5.39175 12.3582 5 11.875 5C11.3918 5 11 5.39175 11 5.875C11 6.35825 11.3918 6.75 11.875 6.75Z" stroke="#838383" stroke-width="1.4" stroke-linecap="round" stroke-linejoin="round"/>
<path d="M11.875 19C12.3582 19 12.75 18.6082 12.75 18.125C12.75 17.6418 12.3582 17.25 11.875 17.25C11.3918 17.25 11 17.6418 11 18.125C11 18.6082 11.3918 19 11.875 19Z" stroke="#838383" stroke-width="1.4" stroke-linecap="round" stroke-linejoin="round"/>
</svg>
