<?xml version="1.0" encoding="utf-8"?>
<!-- Generator: Adobe Illustrator 27.9.0, SVG Export Plug-In . SVG Version: 6.00 Build 0)  -->
<svg version="1.1" id="Layer_1" xmlns="http://www.w3.org/2000/svg" xmlns:xlink="http://www.w3.org/1999/xlink" x="0px" y="0px"
	 viewBox="0 0 128 128" style="enable-background:new 0 0 128 128;" xml:space="preserve">
<g>
	<path d="M113.35,33.1c-9.9-5.36-24.32-8.2-41.69-8.2c-17.74,0-34.45,2.88-47.04,8.12c-1.55,0.64-3.01,1.31-4.39,2.01
		C15.18,30.5,8.68,28,1.89,28C0.85,28,0,28.85,0,29.89v10.09c0,4.24,1.55,8.32,4.36,11.49c0.04,0.04,0.08,0.08,0.12,0.12
		c-0.14,0.8-0.22,1.6-0.22,2.42c0,1.56,0.27,3.09,0.8,4.59c-0.04,0.04-0.09,0.08-0.13,0.12C1.75,61.98,0,66.27,0,70.82v10.09
		c0,1.05,0.85,1.89,1.89,1.89c7.71,0,15.02-3.23,20.21-8.9c0.81,0.37,1.64,0.74,2.51,1.1c7,2.91,15.26,5.09,24.27,6.45l2.59,10.61
		c1.58,6.49,7.35,11.02,14.03,11.02h5.33c7.97,0,14.45-6.48,14.45-14.45V82.5c7.29-0.71,13.82-2.02,19.52-3.92
		c0.99-0.33,1.53-1.4,1.2-2.39c-0.33-0.99-1.4-1.53-2.39-1.2c-8.65,2.89-19.4,4.35-31.94,4.35c-17.25,0-33.44-2.78-45.59-7.83
		c-7.52-3.12-12.93-6.94-15.76-11c3.42,1.59,8.3,2.98,14.68,4.2c12.49,2.38,29.06,3.69,46.67,3.69c17.21,0,31.48-1.29,41.25-3.72
		c3.98-0.99,7.18-2.16,9.59-3.49c-2.29,4.57-6.81,8.55-13.28,11.57c-0.95,0.44-1.36,1.57-0.92,2.52c0.44,0.95,1.57,1.36,2.52,0.92
		C121.89,71.04,128,63.16,128,54.01C128,45.65,122.8,38.22,113.35,33.1L113.35,33.1z M81.49,82.8v5.85
		c0,5.88-4.78,10.66-10.66,10.66H65.5c-4.93,0-9.19-3.35-10.36-8.14l-2.23-9.16c6.01,0.73,12.31,1.11,18.74,1.11
		C75.06,83.12,78.34,83.01,81.49,82.8L81.49,82.8z M3.79,39.98v-8.12c4.72,0.38,9.2,2.16,12.89,5.13c-5.13,3.1-8.75,6.6-10.71,10.35
		C4.55,45.16,3.79,42.61,3.79,39.98L3.79,39.98z M18.56,72.12c-3.97,3.96-9.2,6.37-14.78,6.82v-8.12c0-3.17,1.09-6.18,3.09-8.6
		C9.24,65.84,13.19,69.19,18.56,72.12L18.56,72.12z M111.99,61.01c-9.48,2.36-23.43,3.6-40.33,3.6c-17.38,0-33.7-1.29-45.96-3.63
		c-14.48-2.76-17.65-5.97-17.65-6.98c0-1.38,5.45-5.96,29.68-8.79c1.04-0.12,1.78-1.06,1.66-2.1c-0.12-1.04-1.06-1.78-2.1-1.66
		c-9.52,1.11-17.51,2.68-23.11,4.55c-1.46,0.49-2.75,0.99-3.89,1.52c2.83-4.06,8.24-7.89,15.77-11.02
		c12.15-5.05,28.34-7.83,45.59-7.83c16.75,0,30.54,2.68,39.89,7.74c5.31,2.88,9.01,6.41,10.99,10.42c-2.42-1.34-5.63-2.51-9.63-3.51
		c-9.77-2.43-24.04-3.72-41.25-3.72c-9.57,0-18.8,0.38-27.43,1.14c-1.04,0.09-1.81,1.01-1.72,2.05c0.09,1.04,1.01,1.81,2.05,1.72
		c8.52-0.75,17.64-1.12,27.1-1.12c16.91,0,30.86,1.25,40.33,3.6c5.91,1.47,12.22,4.08,12.22,7
		C124.21,56.93,117.9,59.54,111.99,61.01L111.99,61.01z"/>
	<path d="M61.84,92.7c1.05,0,1.89-0.85,1.89-1.89v-3.48c0-1.05-0.85-1.89-1.89-1.89s-1.89,0.85-1.89,1.89v3.48
		C59.95,91.85,60.79,92.7,61.84,92.7z"/>
	<path d="M68.53,92.7c1.05,0,1.89-0.85,1.89-1.89v-3.48c0-1.05-0.85-1.89-1.89-1.89c-1.05,0-1.89,0.85-1.89,1.89v3.48
		C66.64,91.85,67.49,92.7,68.53,92.7z"/>
	<path d="M75.22,92.7c1.05,0,1.89-0.85,1.89-1.89v-3.48c0-1.05-0.85-1.89-1.89-1.89c-1.05,0-1.89,0.85-1.89,1.89v3.48
		C73.33,91.85,74.18,92.7,75.22,92.7z"/>
</g>
</svg>
