<?xml version="1.0" encoding="utf-8"?>
<!-- Generator: Adobe Illustrator 27.9.0, SVG Export Plug-In . SVG Version: 6.00 Build 0)  -->
<svg version="1.1" id="Layer_1" xmlns="http://www.w3.org/2000/svg" xmlns:xlink="http://www.w3.org/1999/xlink" x="0px" y="0px"
	 viewBox="0 0 128 128" style="enable-background:new 0 0 128 128;" xml:space="preserve">
<g>
	<path d="M107.74,110.65c-1.41-0.84-2.81-1.69-4.16-2.62c-0.31-0.22-0.64-0.44-0.94-0.68c-0.01-0.01-0.03-0.01-0.03-0.03
		c-0.03-0.03-0.07-0.05-0.12-0.09c-0.16-0.13-0.31-0.26-0.47-0.39c-0.58-0.48-1.13-1.01-1.64-1.56c-0.24-0.25-0.46-0.51-0.68-0.77
		c-0.04-0.05-0.13-0.17-0.2-0.25c-0.07-0.09-0.14-0.2-0.21-0.3c-0.43-0.61-0.8-1.26-1.13-1.92c-0.01-0.03-0.01-0.04-0.03-0.07
		c-0.04-0.09-0.12-0.27-0.14-0.34c-0.14-0.38-0.25-0.76-0.35-1.15c-0.01-0.05-0.04-0.16-0.05-0.26h3.81c1.54,0,2.63-1.52,2.13-2.98
		l-1.56-5.2c-2.45,0.62-4.95,0.92-7.49,0.92c-2.46,0-4.88-0.29-7.25-0.86l-1.66,5.06c-0.55,1.48,0.54,3.05,2.12,3.05h3.95
		c0.35,3.1,1.81,5.85,3.77,8.3c1.22,1.52,2.71,2.81,4.29,3.97c-0.16-0.04-0.33-0.07-0.48-0.1c-8.51-1.74-17.2-1.54-25.83-1.39
		c-6.05,0.12-12.33,0.09-18.09-1.92c-4.7-1.65-9.5-5.06-11.29-9.91c-0.18-0.51-0.34-1.03-0.47-1.56h5.03c1.88,0,3.21-1.85,2.6-3.64
		l-1.82-6.1c-2.98,0.77-6.06,1.16-9.17,1.16c-3.02,0-5.99-0.37-8.9-1.09l-1.95,5.95c-0.67,1.79,0.65,3.72,2.58,3.72h5.67
		c1.1,6.84,6.1,12.52,12.28,15.56c7.64,3.76,16.25,3.86,24.59,3.7c10.35-0.21,20.74-0.24,30.59,3.42c4.35,1.61,7.16,3.93,10.65,6.79
		c1.15,0.94,3.73,1.41,4.75,0.17c1.3-1.57-0.03-4.78-0.77-6.27C117.29,116.35,112.06,113.22,107.74,110.65z"/>
	<path d="M94.49,19.11c-6.05,0-11.69,2.02-16.44,5.5c0,0.01,0.01,0.03,0.01,0.04c2.09,5.68,3.17,11.71,3.17,17.92
		c0,6.22-1.06,12.24-3.17,17.92c-1.95,5.29-4.72,10.08-8.25,14.23c4.42,6.92,11.02,11.92,18.64,13.66c1.95,0.44,3.97,0.68,6.02,0.68
		c2.19,0,4.31-0.26,6.36-0.76c13.81-3.35,24.17-17.39,24.17-34.21C125.02,34.76,111.36,19.11,94.49,19.11z"/>
	<path d="M40.15,85.11c2.76,0,5.46-0.35,8.05-1.01c6.36-1.61,12.11-5.08,16.78-9.89c0.48-0.5,0.96-1.01,1.41-1.53
		c0.47-0.54,0.93-1.09,1.37-1.66c5.93-7.54,9.54-17.51,9.54-28.47c0-5.38-0.88-10.52-2.46-15.26c-0.22-0.68-0.47-1.35-0.73-2.02
		c-0.25-0.65-0.52-1.3-0.8-1.92C67.19,9.51,54.64,0,40.15,0C19.63,0,2.99,19.06,2.99,42.56c0,20.49,12.64,37.6,29.49,41.64
		C34.95,84.79,37.52,85.11,40.15,85.11z"/>
</g>
</svg>
