<?xml version="1.0" encoding="utf-8"?>
<!-- Generator: Adobe Illustrator 27.9.0, SVG Export Plug-In . SVG Version: 6.00 Build 0)  -->
<svg version="1.1" id="Layer_1" xmlns="http://www.w3.org/2000/svg" xmlns:xlink="http://www.w3.org/1999/xlink" x="0px" y="0px"
	 viewBox="0 0 128 128" style="enable-background:new 0 0 128 128;" xml:space="preserve">
<g>
	<path d="M118.53,18.35c0.98,0.98,2.26,1.46,3.54,1.46c1.28,0,2.57-0.49,3.54-1.46c3.18-3.18,3.18-8.35,0-11.53l-4.44-4.44
		C119.64,0.85,117.59,0,115.42,0c-2.18,0-4.22,0.85-5.76,2.39c-1.96,1.96-1.96,5.13,0,7.09l3.11,3.11l-6.22,6.22l-0.89-0.89
		c-1.95-1.95-5.13-1.95-7.09,0l-1.8,1.8c-10.41-5.36-23.25-3.37-31.7,5.08L6.06,83.8C2.15,87.71,0,92.91,0,98.44
		c0,5.53,2.15,10.73,6.06,14.64l8.87,8.87c4.04,4.04,9.33,6.05,14.63,6.05c5.3,0,10.6-2.02,14.64-6.05l59.23-59.23
		c8.36-8.36,10.26-21.11,4.87-31.49l1.78-1.78c1.96-1.96,1.96-5.13,0-7.09l-0.89-0.89l1.67-1.67l5.62,5.62l-0.27,0.24
		c-0.77,0.69-0.84,1.88-0.15,2.65c0.37,0.42,0.88,0.63,1.4,0.63c0.44,0,0.89-0.16,1.25-0.48l3.5-3.12c0.77-0.69,0.84-1.88,0.15-2.65
		c-0.69-0.77-1.88-0.84-2.65-0.15l-0.43,0.38l-5.77-5.77l1.9-1.9L118.53,18.35z M101.02,28.6l3.46,3.44
		c5.25,9.09,3.75,20.58-3.7,28.02l-5,5L76.9,46.18c-0.72-0.72-1.91-0.74-2.65,0c-0.73,0.73-0.73,1.92,0,2.65l18.88,18.88
		l-46.15,46.15L28.1,94.98c-0.74-0.74-1.92-0.73-2.65,0c-0.73,0.73-0.73,1.92,0,2.65l18.88,18.88l-2.78,2.78
		c-6.61,6.61-17.36,6.61-23.97,0l-8.87-8.87c-3.2-3.2-4.96-7.46-4.96-11.98c0-4.53,1.76-8.78,4.96-11.98l2.78-2.78l8.66,8.66
		c0.72,0.72,1.91,0.74,2.65,0c0.73-0.73,0.73-1.91,0-2.65c0,0-0.01-0.01-0.01-0.01l-8.64-8.64l46.15-46.15
		c9.95,9.95,8.51,8.51,8.66,8.66c0.69,0.68,1.77,0.73,2.51,0.13c0.87-0.71,0.91-2.01,0.14-2.78c0,0,0,0,0,0l-8.65-8.65l4.77-4.77
		c7.59-7.59,19.28-9.15,28.43-3.8c0.01,0.01,0.02,0.01,0.03,0.02c0.71,0.4,1.62,0.29,2.22-0.29c0.01-0.01,0.02-0.01,0.02-0.02
		l2.79-2.79c0.49-0.49,1.29-0.49,1.78,0l4.44,4.44c0.49,0.49,0.49,1.29,0,1.78l-1.46,1.46l-2.31-2.3c-0.73-0.73-1.92-0.73-2.65,0.01
		C100.29,26.68,100.29,27.87,101.02,28.6z M112.31,6.82c-0.49-0.49-0.49-1.29,0-1.78c0.83-0.83,1.94-1.29,3.11-1.29
		c1.17,0,2.28,0.46,3.11,1.29l4.44,4.44c1.72,1.72,1.72,4.5,0,6.22c-0.49,0.49-1.29,0.49-1.78,0L112.31,6.82z"/>
	<path d="M56.28,69.25C56.28,69.25,56.28,69.25,56.28,69.25l5.3-5.3c0.73-0.73,0.73-1.92,0-2.65c-0.73-0.73-1.92-0.73-2.65,0
		l-3.98,3.98l-4.42-4.42l3.98-3.98c0.73-0.73,0.73-1.92,0-2.65s-1.92-0.73-2.65,0L41.25,64.83c-0.73,0.73-0.73,1.92,0,2.65
		c0.73,0.73,1.92,0.73,2.65,0l3.98-3.98l4.42,4.42l-3.98,3.98c-0.73,0.73-0.73,1.92,0,2.65c0.73,0.73,1.92,0.73,2.65,0L56.28,69.25
		C56.27,69.25,56.28,69.25,56.28,69.25z"/>
	<path d="M56.63,72.25c-2.93,2.93-2.93,7.68,0,10.61l1.41,1.41c0.73,0.73,1.92,0.73,2.65,0c0.73-0.73,0.73-1.92,0-2.65
		c-1.27-1.27-3.04-2.56-2.39-5.04l6.28,6.28c0.73,0.73,1.92,0.73,2.65,0c2.93-2.93,2.93-7.68,0-10.61
		C64.31,69.32,59.56,69.32,56.63,72.25z M65.56,78.53l-4.59-4.6c1.23-0.33,2.63-0.03,3.62,0.97C65.56,75.89,65.89,77.27,65.56,78.53
		z"/>
</g>
</svg>
