<?xml version="1.0" encoding="utf-8"?>
<!-- Generator: Adobe Illustrator 27.9.0, SVG Export Plug-In . SVG Version: 6.00 Build 0)  -->
<svg version="1.1" id="Layer_1" xmlns="http://www.w3.org/2000/svg" xmlns:xlink="http://www.w3.org/1999/xlink" x="0px" y="0px"
	 viewBox="0 0 128 128" style="enable-background:new 0 0 128 128;" xml:space="preserve">
<g>
	<path d="M45.76,108.48l2.37-3.55l6.4,4.27l-2.37,3.55L45.76,108.48z"/>
	<path d="M51.56,99.32l3.55-2.37l4.27,6.4l-3.55,2.37L51.56,99.32z"/>
	<path d="M73.48,109.16l6.4-4.27l2.37,3.55l-6.4,4.27L73.48,109.16z"/>
	<path d="M68.64,103.38l4.27-6.4l3.55,2.37l-4.27,6.4L68.64,103.38z"/>
	<path d="M0,0v14.93h38.4v4.27h12.8v32c0.01,0.17,0.03,0.35,0.06,0.52l2.13,8.53c0.24,0.95,1.09,1.61,2.07,1.61h2.13v6.4
		c0,1.18,0.96,2.13,2.13,2.13h2.13v44.8H12.8V128h102.4v-12.8H66.13V70.4h2.13c1.18,0,2.13-0.96,2.13-2.13v-6.4h2.13
		c0.98,0,1.83-0.67,2.07-1.61l2.13-8.53c0.03-0.17,0.05-0.34,0.06-0.52v-32h12.8v-4.27H128V0H0z M38.4,10.67H4.27v-6.4H38.4V10.67z
		 M110.93,119.47v4.27H17.07v-4.27H110.93z M66.13,66.13h-4.27v-4.27h4.27V66.13z M70.87,57.6H57.13l-1.07-4.27h15.87L70.87,57.6z
		 M72.53,49.07H55.47V44.8h12.8v-4.27h-12.8v-4.27h6.4V32h-6.4V19.2h17.07V49.07z M85.33,14.93H42.67V4.27h42.67V14.93z
		 M123.73,10.67H89.6v-6.4h34.13V10.67z"/>
</g>
</svg>
