<?xml version="1.0" encoding="utf-8"?>
<!-- Generator: Adobe Illustrator 27.9.0, SVG Export Plug-In . SVG Version: 6.00 Build 0)  -->
<svg version="1.1" id="Layer_1" xmlns="http://www.w3.org/2000/svg" xmlns:xlink="http://www.w3.org/1999/xlink" x="0px" y="0px"
	 viewBox="0 0 128 128" style="enable-background:new 0 0 128 128;" xml:space="preserve">
<g>
	<g>
		<path d="M46.97,34.07C21.07,34.07,0,55.14,0,81.03C0,106.93,21.07,128,46.97,128c25.9,0,46.97-21.07,46.97-46.97
			S72.86,34.07,46.97,34.07z M46.97,38.72c5.2,0,10.29,0.94,15.13,2.81c-1.95,1.68-4.23,2.53-6.78,2.53c-3.64,0-8-1.76-12.64-5.12
			C44.14,38.8,45.58,38.72,46.97,38.72z M46.97,123.34c-4.82,0-9.52-0.81-14.03-2.4c0.96,0.06,1.94,0.09,2.92,0.09
			c9.62,0,19.44-2.77,28.94-5.45c3.28-0.93,6.65-1.88,9.97-2.7C67.04,119.65,57.24,123.34,46.97,123.34z M80.49,106.8
			c-0.09,0.01-0.18,0.02-0.27,0.04c-5.28,0.96-10.61,2.51-16.26,4.14c-9.15,2.66-18.61,5.4-27.77,5.4c-6.35,0-11.92-1.31-17.02-4.01
			c-0.28-0.15-0.58-0.24-0.89-0.27c-1.51-1.4-2.93-2.91-4.23-4.52c1.73,0.37,3.51,0.55,5.41,0.55c5.97,0,12.01-1.86,17.86-3.65
			c3.91-1.2,7.94-2.44,11.88-3.09c1.66,2.68,5.83,4.4,10.78,4.4c4.4,0,8.26-1.38,10.2-3.62c3.54,1.73,7.31,2.87,11.22,3.39
			C81.13,105.96,80.82,106.37,80.49,106.8z M84.17,101.16c-4.49-0.29-8.79-1.5-12.8-3.61c-0.91-3.42-5.54-5.79-11.38-5.79
			c-5.35,0-9.76,2.01-11.11,5.03c-3.71,0.66-7.61,1.89-11.38,3.08c-5.8,1.83-11.79,3.73-17.52,3.73c-3.75,0-7.03-0.8-10.04-2.45
			c-0.08-0.04-0.16-0.08-0.25-0.12c-1.52-2.81-2.71-5.8-3.55-8.88C9.8,91.41,13.28,90,16.5,87.99c1.41,1.09,3.22,1.69,5.14,1.69
			c4.19,0,7.59-2.86,7.59-6.38c0-0.17-0.01-0.35-0.03-0.53c1.88-0.25,3.83-0.37,5.82-0.37c8.45,0,16.93,2.26,25.13,4.44
			c8.32,2.21,16.92,4.51,25.61,4.51c0.75,0,1.51-0.02,2.25-0.05C87.15,94.74,85.86,98.05,84.17,101.16z M89.28,81.03
			c0,1.82-0.13,3.69-0.37,5.56c-1.07,0.07-2.17,0.11-3.27,0.11c0,0,0,0,0,0c-8.66,0-17.25-2.25-25.56-4.42
			c-8.33-2.18-16.94-4.43-25.66-4.43c-2.71,0-5.27,0.21-7.8,0.64c-1.39-1.02-3.15-1.58-4.98-1.58c-4.19,0-7.59,2.86-7.59,6.39
			c0,0.22,0.02,0.46,0.05,0.7c-2.79,1.74-5.72,2.92-8.92,3.61c-0.22-1.38-0.37-2.74-0.45-4.07c3.72-1.28,6.35-4.29,7.07-8.13
			c0.74-3.97-0.74-8.01-3.88-10.64c1.26-3.02,2.88-5.89,4.8-8.55c1.55-0.73,3.2-1.09,4.89-1.09c5.7,0,11.17,3.97,16.24,8.26
			c5.8,4.91,11,8.63,17.53,10.82c4.17,1.4,8.6,2.11,13.15,2.11c8.25,0,16.45-2.38,23.17-6.71C88.75,73.34,89.28,77.18,89.28,81.03z
			 M86.14,65.08c-6.21,4.22-13.84,6.54-21.54,6.54c-5.43,0-10.87-1.16-15.73-3.35c-3.84-1.73-7.46-4.67-11.3-7.77
			c-6.1-4.94-12.4-10.05-19.76-10.05c-0.01,0-0.03,0-0.05,0c0.59-0.56,1.2-1.11,1.83-1.65c0.04-0.01,0.08-0.01,0.13-0.02
			c0.97-0.25,1.95-0.37,2.93-0.37c5.48,0,10.4,3.83,14.89,7.98c4.83,4.45,9.32,8.33,15.31,10.66c3.8,1.48,7.9,2.23,12.18,2.23
			c7.3,0,14.44-2.21,20.2-6.24C85.55,63.68,85.85,64.36,86.14,65.08z M65.18,64.55c-4.87,0-9.71-1.15-13.99-3.33
			c-3.57-1.82-6.86-4.78-10.03-7.65c-4.49-4.05-9.12-8.22-14.8-9.48c3.2-1.79,6.62-3.16,10.19-4.06c4.2,3.59,8.9,7.04,14.72,8.25
			c1.18,0.24,2.39,0.37,3.59,0.37c4.41,0,8.41-1.6,11.28-4.51c0.18-0.18,0.32-0.37,0.43-0.58c6.78,3.56,12.45,8.86,16.46,15.37
			C77.9,62.56,71.58,64.55,65.18,64.55z"/>
		<path d="M65.92,48.97c-1.33,0-2.53,0.44-3.48,1.28c-2.35,2.09-2.28,6.03,0.17,8.8c1.39,1.57,3.35,2.51,5.23,2.51
			c1.33,0,2.53-0.44,3.48-1.28c1.15-1.02,1.76-2.51,1.72-4.19c-0.04-1.65-0.71-3.28-1.89-4.61C69.76,49.91,67.8,48.97,65.92,48.97z"
			/>
		<path d="M125.65,24.46h-4.19c-0.45-3.87-1.98-7.41-4.28-10.31l2.97-2.97c0.92-0.92,0.92-2.41,0-3.32c-0.92-0.92-2.41-0.92-3.33,0
			l-2.97,2.97c-2.9-2.3-6.44-3.84-10.31-4.28V2.35c0-1.3-1.05-2.35-2.35-2.35c-1.3,0-2.35,1.05-2.35,2.35v4.18
			c-3.87,0.45-7.41,1.98-10.31,4.28l-2.97-2.97c-0.92-0.92-2.41-0.92-3.33,0c-0.92,0.92-0.92,2.41,0,3.32l2.97,2.97
			c-2.3,2.9-3.84,6.44-4.28,10.31h-4.18c-1.3,0-2.35,1.05-2.35,2.35s1.05,2.35,2.35,2.35h4.19c0.45,3.87,1.98,7.41,4.28,10.31
			l-2.97,2.97c-0.92,0.92-0.92,2.41,0,3.32c0.46,0.46,1.06,0.69,1.66,0.69c0.6,0,1.2-0.23,1.66-0.69l2.97-2.97
			c2.9,2.3,6.44,3.84,10.31,4.28v4.19c0,1.3,1.05,2.35,2.35,2.35c1.3,0,2.35-1.05,2.35-2.35v-4.19c3.87-0.45,7.41-1.98,10.31-4.28
			l2.97,2.97c0.46,0.46,1.06,0.69,1.66,0.69c0.6,0,1.2-0.23,1.66-0.69c0.92-0.92,0.92-2.41,0-3.32l-2.97-2.97
			c2.3-2.9,3.84-6.44,4.28-10.31h4.19c1.3,0,2.35-1.05,2.35-2.35C128,25.51,126.95,24.46,125.65,24.46z"/>
	</g>
</g>
</svg>
