<?xml version="1.0" encoding="utf-8"?>
<!-- Generator: Adobe Illustrator 28.0.0, SVG Export Plug-In . SVG Version: 6.00 Build 0)  -->
<svg version="1.1" id="Layer_1" xmlns="http://www.w3.org/2000/svg" xmlns:xlink="http://www.w3.org/1999/xlink" x="0px" y="0px"
	 viewBox="0 0 128 128" style="enable-background:new 0 0 128 128;" xml:space="preserve">
<g id="czwYXk.tif">
	<g>
		<path d="M63.8,27.7c-2,0-2,0-2,2c0,2.2,0,2.2,2.3,2.2c2,0,2,0,2-2C66.1,27.7,66.1,27.7,63.8,27.7z M63.8,27.7c-2,0-2,0-2,2
			c0,2.2,0,2.2,2.3,2.2c2,0,2,0,2-2C66.1,27.7,66.1,27.7,63.8,27.7z M63.8,27.7c-2,0-2,0-2,2c0,2.2,0,2.2,2.3,2.2c2,0,2,0,2-2
			C66.1,27.7,66.1,27.7,63.8,27.7z M63.8,27.7c-2,0-2,0-2,2c0,2.2,0,2.2,2.3,2.2c2,0,2,0,2-2C66.1,27.7,66.1,27.7,63.8,27.7z
			 M63.8,27.7c-2,0-2,0-2,2c0,2.2,0,2.2,2.3,2.2c2,0,2,0,2-2C66.1,27.7,66.1,27.7,63.8,27.7z M63.8,27.7c-2,0-2,0-2,2
			c0,2.2,0,2.2,2.3,2.2c2,0,2,0,2-2C66.1,27.7,66.1,27.7,63.8,27.7z M63.8,27.7c-2,0-2,0-2,2c0,2.2,0,2.2,2.3,2.2c2,0,2,0,2-2
			C66.1,27.7,66.1,27.7,63.8,27.7z M63.8,27.7c-2,0-2,0-2,2c0,2.2,0,2.2,2.3,2.2c2,0,2,0,2-2C66.1,27.7,66.1,27.7,63.8,27.7z
			 M63.8,27.7c-2,0-2,0-2,2c0,2.2,0,2.2,2.3,2.2c2,0,2,0,2-2C66.1,27.7,66.1,27.7,63.8,27.7z M63.8,27.7c-2,0-2,0-2,2
			c0,2.2,0,2.2,2.3,2.2c2,0,2,0,2-2C66.1,27.7,66.1,27.7,63.8,27.7z M64,91.5c-2.2,0-2.2,0-2.2,2.1c0,2.2,0,2.2,2.1,2.2
			c2.2,0,2.2,0,2.2-2.1C66.1,91.5,66.1,91.5,64,91.5z M63.8,27.7c-2,0-2,0-2,2c0,2.2,0,2.2,2.3,2.2c2,0,2,0,2-2
			C66.1,27.7,66.1,27.7,63.8,27.7z M64,91.5c-2.2,0-2.2,0-2.2,2.1c0,2.2,0,2.2,2.1,2.2c2.2,0,2.2,0,2.2-2.1
			C66.1,91.5,66.1,91.5,64,91.5z M63.8,27.7c-2,0-2,0-2,2c0,2.2,0,2.2,2.3,2.2c2,0,2,0,2-2C66.1,27.7,66.1,27.7,63.8,27.7z
			 M32.1,93.7c-7.1,0-12.8,5.7-12.8,12.8c0,7.1,5.7,12.8,12.8,12.8c7,0,12.7-5.7,12.7-12.7C44.8,99.4,39.2,93.7,32.1,93.7z M32,115
			c-4.6,0-8.4-3.9-8.4-8.5c0-4.6,4-8.6,8.6-8.5c4.6,0.1,8.5,3.9,8.4,8.5C40.5,111.1,36.6,115,32,115z M64,91.5c-2.2,0-2.2,0-2.2,2.1
			c0,2.2,0,2.2,2.1,2.2c2.2,0,2.2,0,2.2-2.1C66.1,91.5,66.1,91.5,64,91.5z M63.8,27.7c-2,0-2,0-2,2c0,2.2,0,2.2,2.3,2.2c2,0,2,0,2-2
			C66.1,27.7,66.1,27.7,63.8,27.7z M95.9,93.7c-7.1,0-12.8,5.7-12.8,12.8c0,7.1,5.7,12.8,12.8,12.8c7,0,12.7-5.7,12.7-12.7
			C108.6,99.4,103,93.7,95.9,93.7z M95.8,115c-4.6-0.1-8.4-4-8.4-8.5c0-4.6,4-8.6,8.6-8.5c4.6,0.1,8.5,4,8.4,8.5
			C104.4,111.1,100.4,115,95.8,115z M95.9,93.7c-7.1,0-12.8,5.7-12.8,12.8c0,7.1,5.7,12.8,12.8,12.8c7,0,12.7-5.7,12.7-12.7
			C108.6,99.4,103,93.7,95.9,93.7z M95.8,115c-4.6-0.1-8.4-4-8.4-8.5c0-4.6,4-8.6,8.6-8.5c4.6,0.1,8.5,4,8.4,8.5
			C104.4,111.1,100.4,115,95.8,115z M64,91.5c-2.2,0-2.2,0-2.2,2.1c0,2.2,0,2.2,2.1,2.2c2.2,0,2.2,0,2.2-2.1
			C66.1,91.5,66.1,91.5,64,91.5z M32.1,93.7c-7.1,0-12.8,5.7-12.8,12.8c0,7.1,5.7,12.8,12.8,12.8c7,0,12.7-5.7,12.7-12.7
			C44.8,99.4,39.2,93.7,32.1,93.7z M32,115c-4.6,0-8.4-3.9-8.4-8.5c0-4.6,4-8.6,8.6-8.5c4.6,0.1,8.5,3.9,8.4,8.5
			C40.5,111.1,36.6,115,32,115z M63.8,27.7c-2,0-2,0-2,2c0,2.2,0,2.2,2.3,2.2c2,0,2,0,2-2C66.1,27.7,66.1,27.7,63.8,27.7z
			 M117.2,105.4c-0.2-4.5-1.7-8.4-4.5-12c-0.4-0.5-0.1-0.7,0.2-0.9c1.1-1.1,2.1-2.2,3.2-3.2c0.8-0.7,1.1-1.5,1.1-2.6
			c-0.1-2.6,0-5.1,0-7.7c0-4-2.7-6.6-6.7-6.6c-8.2,0-16.4,0-24.6,0c-1,0-1.8,0.3-2.6,0.8c-2,1.5-4.1,2.9-6.1,4.4
			c-1.6,1.1-3.2,2.3-4.9,3.5c-0.3-4.7-0.6-9.2-1-13.7c-0.1-1.1,0-1.5,1.3-1.5c12.8,0.1,25.5,0,38.3,0c3.6,0,6.4-2.8,6.4-6.4
			c0-2.8,0-5.7,0-8.5c0-3-1.8-5.3-4.7-6.2c-0.7-0.2-1.4-0.2-2.1-0.2c-10.8,0-21.6,0-32.5,0c-0.5,0-1.2,0.3-1.2-0.8
			c0-7.3,0-14.5,0-21.8c0-0.5,0.1-0.7,0.6-0.9c1-0.3,1.5-1,1.5-2.1c0-2.8,0-5.6,0-8.4c0-1-0.4-1.8-1.4-2c-0.8-0.2-0.8-0.6-0.8-1.2
			c0-0.4,0-0.8,0-1.2c0-3.5-2.8-6.3-6.2-6.3c-4.3,0-8.7,0-13,0c-2,0-3.6,0.9-4.9,2.4c-1.2,1.5-1.5,3.2-1.3,5c0,0.6,0.1,1-0.7,1.2
			c-0.9,0.2-1.4,1-1.4,2c0,2.8,0,5.7,0,8.5c0,1,0.5,1.7,1.3,1.9c0.8,0.2,0.8,0.7,0.8,1.3c0,7,0,14,0,21c0,1.1-0.3,1.3-1.3,1.3
			c-10.9,0-21.8,0-32.7,0c-3.7,0-6.4,2.8-6.4,6.5c0,2.7,0.1,5.3,0,8c-0.2,3.8,3.1,6.9,6.9,6.9c12.7-0.1,25.4,0,38-0.1
			c0.9,0,1.2,0.2,1.1,1.1c-0.2,2.2-0.3,4.4-0.5,6.6c-0.2,2.4-0.4,4.8-0.6,7.4c-3.7-2.7-7.3-5.3-10.9-7.8c-0.7-0.5-1.4-1-2.4-0.9
			c-8.4,0-16.8,0-25.3,0c-3.5,0-6.3,2.8-6.3,6.3c0,1.3,0.2,2.6,0,3.9c-0.6,4.1,0.6,7.3,4,9.6c0.8,0.6,0.6,1,0.1,1.8
			c-4.3,6.1-5.4,12.8-2.8,19.8c3.4,9,10.2,13.6,19.7,14.1c3.3,0.3,6.5-0.2,9.5-1.8c1.8-0.9,3.5-2,5-3.3c0.7-0.6,1.3-1.8,2.2-1.8
			c0.9,0,1.6,1,2.4,1.6c2.8,2,6.4,1.5,8.5-1.2c0.9-1.1,1.1-2.5,1.4-3.8c0.3-1.5,0.4-3.1,0.8-4.6c0.3-1.2,1.3-1.9,2.4-1.9
			c1,0,1.9,0.8,2.3,1.9c0.1,0.4,0.2,0.8,0.2,1.2c0.3,1.7,0.5,3.3,0.9,5c0.8,3.2,3.7,5.1,6.8,4.6c1.4-0.2,2.6-0.9,3.7-1.9
			c1.4-1.2,1.4-1.1,2.8,0.1c4,3.6,8.5,6,14.1,5.9h2.1c8.2,0.4,16-5.9,18.9-12.8c1-2.5,1.4-5,1.6-7.6v-1.9
			C117.3,105.6,117.2,105.5,117.2,105.4z M72.5,61.8c-1.3,0.1-1.7-0.3-1.8-1.6c-0.2-2.7-0.3-2.7,2.4-2.7c1.6,0,1.6,0,1.6,2
			C74.6,61.7,74.6,61.7,72.5,61.8z M87.3,50c0-0.9,0.3-1,1-1c7.3,0,14.5,0,21.8,0c1.9,0,2.7,0.8,2.7,2.7c0,2.4,0,4.8,0,7.2
			c0,2.1-0.8,2.8-2.9,2.8H99.4c-3.6,0-7.3,0-10.9,0c-0.8,0-1.1-0.1-1.1-1C87.4,57.1,87.4,53.5,87.3,50z M58.7,4.3
			c3.6,0,7.3,0,10.9,0c2.3,0,3.6,1.7,2.9,3.9c-0.2,0.6-0.6,0.4-1,0.4c-2.5,0-5,0-7.6,0s-5,0-7.6,0c-0.7,0-1-0.2-1-0.9
			C55.4,5,56.1,4.3,58.7,4.3z M56.5,12.8H64c3.2,0,6.5,0,9.7,0c0.8,0,0.9,0.2,0.9,0.9c0,3.3,0.1,3.3-3.2,3.3c-5.7,0-11.3,0-17,0
			c-0.9,0-1.1-0.2-1.1-1.1C53.3,12.8,53.3,12.8,56.5,12.8z M55.4,22.2c0-0.8,0.2-1,0.9-0.9c2.5,0,5.1,0,7.6,0c2.5,0,5.1,0,7.6,0
			c0.8,0,1,0.2,0.9,0.9c0,4.3,0,8.7,0,13c0,0.8-0.2,0.9-0.9,0.9c-5.1,0-10.1,0-15.2,0c-0.8,0-1-0.2-0.9-0.9
			C55.5,30.9,55.5,26.6,55.4,22.2z M58.6,40.5H64c2.5,0,5.1,0,7.6,0c0.7,0,0.9,0.2,0.9,0.9c0,3.3,0.1,3.3-3.2,3.3
			c-4.3,0-8.5,0-12.8,0c-0.9,0-1.1-0.2-1.1-1.1C55.4,40.5,55.4,40.5,58.6,40.5z M40.6,60.8c0,0.8-0.3,0.9-1,0.9c-3.7,0-7.3,0-11,0
			H17.9c-2.2,0-2.9-0.8-2.9-3c0-2.4,0-4.8,0-7.2c0-1.8,0.8-2.6,2.6-2.6c7.3,0,14.7,0,22.1,0c0.7,0,0.9,0.1,0.9,0.9
			C40.5,53.5,40.5,57.2,40.6,60.8z M49.1,55.4c0,1.8,0,3.6,0,5.4c0,0.7-0.2,0.9-0.9,0.9c-3.4,0.1-3.4,0.1-3.4-3.3c0-2.8,0-5.7,0-8.5
			c0-0.8,0.2-1,1-1c6.1,0,12.1,0,18.2,0c6,0,12,0,18,0c0.9,0,1.2,0.2,1.2,1.2c-0.1,3.5,0,7.1,0,10.6c0,0.8-0.2,1.1-1,1
			c-1-0.1-2.4,0.4-3.1-0.2c-0.6-0.6-0.2-2-0.2-3.1c0-1,0-2,0-3.1c0-1.4-0.8-2.2-2.1-2.2c-8.5,0-17,0-25.5,0
			C49.9,53.2,49.1,54.1,49.1,55.4z M62,66c1.4,0.1,2.7,0,4.1,0c0.5,0,0.8,0.1,0.8,0.7c0.3,5,0.7,10.1,1.1,15.1
			c0.1,0.9-0.1,1.4-1.2,1.3c-1-0.1-1.9,0-2.9,0h-2c-2.1,0-2,0-1.9-2c0.4-4.7,0.7-9.4,1-14C61.1,66.3,61.2,65.9,62,66z M61.6,59.3
			c0.1-1.9,0.1-1.9,2.1-1.9c2.6,0,2.6,0,2.7,2.6c0.1,1.7,0.1,1.7-1.6,1.7h-0.8C61.5,61.7,61.5,61.7,61.6,59.3z M54.9,61.8
			c-1.4,0.1-1.8-0.4-1.6-1.7c0-0.2,0-0.4,0-0.7c0-2,0-2,2-2c2.1,0,2.1,0,1.9,2.1C57.1,61.7,57,61.6,54.9,61.8z M32.1,123.5
			c-9.3,0-17-7.6-17.1-16.9c-0.1-9.4,7.7-17.2,17.1-17.1c9.2,0,16.9,7.7,16.9,17C49.1,115.7,41.3,123.5,32.1,123.5z M76.7,115.6
			c0.4,0.8,0.3,1.2-0.4,1.6c-0.7,0.4-1.2,1-1.9,1.5c-1.2,0.9-2.2,0.5-2.5-1c-0.3-1.9-0.6-3.8-1-5.7c-0.5-2.3-1.9-4-4-4.9
			c-0.7-0.3-0.8-0.6-0.8-1.3c0-1.6,0-3.3,0-4.9c0-0.6-0.1-0.8-0.8-0.8c-3.5-0.1-3.5-0.2-3.5,3.3v0.1c0.2,1.9,0.1,3.4-2.1,4.4
			c-2.4,1.2-2.8,3.9-3.2,6.4c-0.2,1.2-0.3,2.4-0.6,3.5c-0.2,1.3-1.3,1.7-2.4,1c-0.1-0.1-0.2-0.2-0.3-0.3c-0.8-0.7-1.9-1.2-2.2-2
			c-0.3-0.8,0.6-1.7,0.9-2.6c4.7-12.8-3.4-26.5-16.9-28.5c-5.8-0.9-11,0.5-15.8,4c-0.6,0.4-0.9,0.5-1.5-0.1c-2.9-2.8-2.9-2.8-2.9-7
			c0-1.1-0.1-2.3,0-3.5c0.1-1.7,2.6-3.1,4-2.2c0.1,0.1,0.2,0.3,0.2,0.5c0,0.2,0,0.3,0,0.5c0.1,3.5,0,3.5,3.5,3.3
			c0.6,0,0.8-0.2,0.7-0.8c0-0.9,0-1.9,0-2.8c0-0.6,0.2-0.8,0.8-0.7c1.1,0,2.5-0.4,3.2,0.1c0.8,0.6,0.3,2.1,0.2,3.1
			c0,0.9,0.3,1.1,1,1c1-0.1,2.4,0.4,3-0.2c0.5-0.6,0.2-1.9,0.2-2.9c-0.1-1,0.3-1.1,1.2-1.1c3.1,0,3.2,0,3.1,3c0,1.1,0.3,1.3,1.3,1.3
			c3-0.1,2.9,0,3-2.9c0-0.4-0.3-1.1,0.2-1.3c0.5-0.2,1.2-0.1,1.7,0.3c4.3,3.1,8.7,6.2,13,9.4c0.9,0.6,1.7,0.9,2.8,0.9
			c3.8,0,7.5,0,11.3,0c1,0,1.8-0.3,2.6-0.8c4.2-3,8.3-6,12.5-9c0.3-0.2,0.6-0.5,1-0.7c1-0.6,1.6-0.2,1.6,0.9c0,1-0.3,2.4,0.2,2.9
			c0.6,0.7,2,0.1,3,0.2c0.9,0.1,1.1-0.3,1-1.1c0-1-0.3-2.4,0.2-2.9c0.6-0.7,2-0.1,3-0.2c0.9-0.1,1.1,0.3,1,1.1c0,1-0.3,2.4,0.2,2.9
			c0.6,0.7,2,0.1,3,0.2c0.8,0.1,1.2-0.1,1-1c0,0,0-0.1,0-0.1c0-3.5,0-3.5,3.6-3.2c0.6,0,0.6,0.3,0.6,0.7c0,0.9,0,1.8,0,2.7
			c0,0.7,0.1,1,0.9,0.9c1.1-0.1,2.5,0.3,3.2-0.2c0.7-0.5,0.2-2,0.2-3c0-0.8,0.1-1,1-1c2.6,0,3.3,0.7,3.3,3.3v2.5c0,4.1,0,4.1-3,6.9
			c-0.6,0.6-0.9,0.4-1.4,0c-3.9-2.9-8.3-4.2-13.1-4.2c-9.6,0.1-18.2,7-20.3,16.4C74.1,106.4,74.5,111.1,76.7,115.6z M95.9,123.5
			c-9.3,0-17-7.6-17.1-16.9c-0.1-9.4,7.7-17.2,17.1-17.2c9.2,0,16.9,7.7,16.9,17C112.9,115.7,105.2,123.5,95.9,123.5z M95.9,93.7
			c-7.1,0-12.8,5.7-12.8,12.8c0,7.1,5.7,12.8,12.8,12.8c7,0,12.7-5.7,12.7-12.7C108.6,99.4,103,93.7,95.9,93.7z M95.8,115
			c-4.6-0.1-8.4-4-8.4-8.5c0-4.6,4-8.6,8.6-8.5c4.6,0.1,8.5,4,8.4,8.5C104.4,111.1,100.4,115,95.8,115z M64.1,31.9c2,0,2,0,2-2
			c0-2.2,0-2.2-2.3-2.2c-2,0-2,0-2,2C61.8,31.9,61.8,31.9,64.1,31.9z M64,91.5c-2.2,0-2.2,0-2.2,2.1c0,2.2,0,2.2,2.1,2.2
			c2.2,0,2.2,0,2.2-2.1C66.1,91.5,66.1,91.5,64,91.5z M32.1,93.7c-7.1,0-12.8,5.7-12.8,12.8c0,7.1,5.7,12.8,12.8,12.8
			c7,0,12.7-5.7,12.7-12.7C44.8,99.4,39.2,93.7,32.1,93.7z M32,115c-4.6,0-8.4-3.9-8.4-8.5c0-4.6,4-8.6,8.6-8.5
			c4.6,0.1,8.5,3.9,8.4,8.5C40.5,111.1,36.6,115,32,115z M63.8,27.7c-2,0-2,0-2,2c0,2.2,0,2.2,2.3,2.2c2,0,2,0,2-2
			C66.1,27.7,66.1,27.7,63.8,27.7z M32.1,93.7c-7.1,0-12.8,5.7-12.8,12.8c0,7.1,5.7,12.8,12.8,12.8c7,0,12.7-5.7,12.7-12.7
			C44.8,99.4,39.2,93.7,32.1,93.7z M32,115c-4.6,0-8.4-3.9-8.4-8.5c0-4.6,4-8.6,8.6-8.5c4.6,0.1,8.5,3.9,8.4,8.5
			C40.5,111.1,36.6,115,32,115z M64,91.5c-2.2,0-2.2,0-2.2,2.1c0,2.2,0,2.2,2.1,2.2c2.2,0,2.2,0,2.2-2.1
			C66.1,91.5,66.1,91.5,64,91.5z M63.8,27.7c-2,0-2,0-2,2c0,2.2,0,2.2,2.3,2.2c2,0,2,0,2-2C66.1,27.7,66.1,27.7,63.8,27.7z M64,91.5
			c-2.2,0-2.2,0-2.2,2.1c0,2.2,0,2.2,2.1,2.2c2.2,0,2.2,0,2.2-2.1C66.1,91.5,66.1,91.5,64,91.5z M32.1,93.7
			c-7.1,0-12.8,5.7-12.8,12.8c0,7.1,5.7,12.8,12.8,12.8c7,0,12.7-5.7,12.7-12.7C44.8,99.4,39.2,93.7,32.1,93.7z M32,115
			c-4.6,0-8.4-3.9-8.4-8.5c0-4.6,4-8.6,8.6-8.5c4.6,0.1,8.5,3.9,8.4,8.5C40.5,111.1,36.6,115,32,115z M63.8,27.7c-2,0-2,0-2,2
			c0,2.2,0,2.2,2.3,2.2c2,0,2,0,2-2C66.1,27.7,66.1,27.7,63.8,27.7z M64,91.5c-2.2,0-2.2,0-2.2,2.1c0,2.2,0,2.2,2.1,2.2
			c2.2,0,2.2,0,2.2-2.1C66.1,91.5,66.1,91.5,64,91.5z M63.8,27.7c-2,0-2,0-2,2c0,2.2,0,2.2,2.3,2.2c2,0,2,0,2-2
			C66.1,27.7,66.1,27.7,63.8,27.7z M64,91.5c-2.2,0-2.2,0-2.2,2.1c0,2.2,0,2.2,2.1,2.2c2.2,0,2.2,0,2.2-2.1
			C66.1,91.5,66.1,91.5,64,91.5z M63.8,27.7c-2,0-2,0-2,2c0,2.2,0,2.2,2.3,2.2c2,0,2,0,2-2C66.1,27.7,66.1,27.7,63.8,27.7z
			 M63.8,27.7c-2,0-2,0-2,2c0,2.2,0,2.2,2.3,2.2c2,0,2,0,2-2C66.1,27.7,66.1,27.7,63.8,27.7z M63.8,27.7c-2,0-2,0-2,2
			c0,2.2,0,2.2,2.3,2.2c2,0,2,0,2-2C66.1,27.7,66.1,27.7,63.8,27.7z M63.8,27.7c-2,0-2,0-2,2c0,2.2,0,2.2,2.3,2.2c2,0,2,0,2-2
			C66.1,27.7,66.1,27.7,63.8,27.7z M63.8,27.7c-2,0-2,0-2,2c0,2.2,0,2.2,2.3,2.2c2,0,2,0,2-2C66.1,27.7,66.1,27.7,63.8,27.7z
			 M63.8,27.7c-2,0-2,0-2,2c0,2.2,0,2.2,2.3,2.2c2,0,2,0,2-2C66.1,27.7,66.1,27.7,63.8,27.7z M63.8,27.7c-2,0-2,0-2,2
			c0,2.2,0,2.2,2.3,2.2c2,0,2,0,2-2C66.1,27.7,66.1,27.7,63.8,27.7z M63.8,27.7c-2,0-2,0-2,2c0,2.2,0,2.2,2.3,2.2c2,0,2,0,2-2
			C66.1,27.7,66.1,27.7,63.8,27.7z"/>
		<path d="M97,127.8c0,0.1,0,0.1,0,0.2c-0.7,0-1.4,0-2.1,0c0-0.1,0-0.2,0-0.2C95.5,127.8,96.2,127.8,97,127.8z"/>
		<path d="M66.1,93.7c0,2.1,0,2.1-2.2,2.1c-2.1,0-2.1,0-2.1-2.2c0-2.1,0-2.1,2.2-2.1C66.1,91.5,66.1,91.5,66.1,93.7z"/>
		<path d="M32.1,93.7c-7.1,0-12.8,5.7-12.8,12.8c0,7.1,5.7,12.8,12.8,12.8c7,0,12.7-5.7,12.7-12.7C44.8,99.4,39.2,93.7,32.1,93.7z
			 M32,115c-4.6,0-8.4-3.9-8.4-8.5c0-4.6,4-8.6,8.6-8.5c4.6,0.1,8.5,3.9,8.4,8.5C40.5,111.1,36.6,115,32,115z"/>
		<path d="M95.9,93.7c-7.1,0-12.8,5.7-12.8,12.8c0,7.1,5.7,12.8,12.8,12.8c7,0,12.7-5.7,12.7-12.7C108.6,99.4,103,93.7,95.9,93.7z
			 M95.8,115c-4.6-0.1-8.4-4-8.4-8.5c0-4.6,4-8.6,8.6-8.5c4.6,0.1,8.5,4,8.4,8.5C104.4,111.1,100.4,115,95.8,115z"/>
		<path d="M66.1,29.9c0,2,0,2-2,2c-2.3,0-2.3,0-2.3-2.2c0-2,0-2,2-2C66.1,27.7,66.1,27.7,66.1,29.9z"/>
		<path d="M66.1,93.7c0,2.1,0,2.1-2.2,2.1c-2.1,0-2.1,0-2.1-2.2c0-2.1,0-2.1,2.2-2.1C66.1,91.5,66.1,91.5,66.1,93.7z"/>
		<path d="M32.1,93.7c-7.1,0-12.8,5.7-12.8,12.8c0,7.1,5.7,12.8,12.8,12.8c7,0,12.7-5.7,12.7-12.7C44.8,99.4,39.2,93.7,32.1,93.7z
			 M32,115c-4.6,0-8.4-3.9-8.4-8.5c0-4.6,4-8.6,8.6-8.5c4.6,0.1,8.5,3.9,8.4,8.5C40.5,111.1,36.6,115,32,115z"/>
		<path d="M95.9,93.7c-7.1,0-12.8,5.7-12.8,12.8c0,7.1,5.7,12.8,12.8,12.8c7,0,12.7-5.7,12.7-12.7C108.6,99.4,103,93.7,95.9,93.7z
			 M95.8,115c-4.6-0.1-8.4-4-8.4-8.5c0-4.6,4-8.6,8.6-8.5c4.6,0.1,8.5,4,8.4,8.5C104.4,111.1,100.4,115,95.8,115z"/>
		<path d="M66.1,29.9c0,2,0,2-2,2c-2.3,0-2.3,0-2.3-2.2c0-2,0-2,2-2C66.1,27.7,66.1,27.7,66.1,29.9z"/>
	</g>
</g>
</svg>
