<?xml version="1.0" encoding="utf-8"?>
<!-- Generator: Adobe Illustrator 28.0.0, SVG Export Plug-In . SVG Version: 6.00 Build 0)  -->
<svg version="1.1" id="Layer_1" xmlns="http://www.w3.org/2000/svg" xmlns:xlink="http://www.w3.org/1999/xlink" x="0px" y="0px"
	 viewBox="0 0 128 128" style="enable-background:new 0 0 128 128;" xml:space="preserve">
<g id="UlZpwG.tif">
	<g>
		<path d="M76,28.4c-3.2-2.5-6.6-2.6-10.1-0.8c-1.1,0.5-1.4,0-1.8-0.8c-2.7-4.8-7.3-6.6-12.5-4.8c-1,0.3-1.7,0.1-2.4-0.6
			c-1.9-1.9-3.8-3.9-5.7-5.7C38,10.5,31.5,8.9,24.2,11c-1.4,0.4-2.2,0.2-3.2-0.8c-2.6-2.7-5.2-5.3-7.8-7.9c-3.1-3-7.4-3.1-10.4,0
			c-3.4,3.4-3.6,7.6-0.4,10.8c2.6,2.6,5.2,5.3,7.9,7.8c1,0.9,1.2,1.8,0.8,3.2c-2.1,7.3-0.4,13.8,4.8,19.4c1.8,2,3.8,3.8,5.7,5.7
			c0.6,0.6,1,1.2,0.7,2.1c-1.8,6-0.3,9.8,5,12.9c0.7,0.4,0.9,0.7,0.5,1.5c-1.8,3.6-1.8,7,0.8,10.2l51.2,51.2
			c0.2,0.2,0.4,0.3,0.5,0.5c0.3,0.4,0.5,0.4,0.9,0c1-1,2-2,3-3c-0.1-0.9-0.8-1.4-1.3-1.9c-7.1-7.1-14.3-14.3-21.4-21.4
			c-0.2-0.2-0.6-0.4-0.7-0.8c11.8,1.8,22.1-1,30.5-9.5c8.5-8.5,11.3-18.8,9.5-30.6c0.5,0.3,0.8,0.7,1.1,1
			c7.1,7.1,14.1,14.1,21.2,21.2c0.6,0.6,1,1.3,1.9,1.3c0.8-0.8,1.7-1.8,2.6-2.5c0.8-0.7,0.7-1,0-1.7C110.2,62.6,93.1,45.5,76,28.4z
			 M54.2,26.8c1.7-0.6,3,0,4.2,0.9c1.4,1.2,1.9,2.7,1.5,4.8L54.2,26.8z M6,6c0.9-0.9,2.5-0.9,3.4,0c0.9,0.9,0.9,2.5,0,3.4
			c-0.9,0.9-2.5,0.9-3.4,0C5.2,8.4,5.2,6.8,6,6z M10.9,14.2c1.5-0.8,2.6-1.9,3.3-3.2c0.5,0,0.7,0.4,0.9,0.7
			c5.3,5.2,10.5,10.5,15.8,15.8c0.3,0.3,0.6,0.6,0.8,0.9c0.7,1,0.7,2.1-0.2,3c-0.9,0.9-2,0.9-3.1,0.3c-0.1-0.1-0.2-0.2-0.3-0.3
			L10.9,14.2z M16,26.1c3,3,5.8,5.8,8.7,8.7c2.9,2.9,7.3,2.9,10.2,0c2.9-2.9,2.9-7.3,0-10.2c-2.8-2.9-5.7-5.7-8.6-8.6
			c3.8-1.8,10.6-0.1,14.1,4c4.9,5.5,5,13.2,0.2,19c-3.9,4.7-11,6.7-17.5,3.4C17.2,39.4,14.1,32.3,16,26.1z M26.8,54l5.7,5.7
			c-1.7,0.6-3,0.1-4.2-0.9C27,57.6,26.5,56.1,26.8,54z M47.9,81.8c4.1,4,8.1,8,12.1,12.1l1.2,1.2c-9.9-1.7-15.6-8.9-22-15.3
			c2-0.7,3.7-1.7,5.1-3.5C44.8,78.7,46.3,80.3,47.9,81.8z M39.9,73.8c-1.8,1.8-4.9,1.9-6.8,0.1c-1.8-1.7-1.8-5-0.1-6.8
			c1.8-1.8,4.9-1.9,6.8-0.1C41.7,68.8,41.7,71.9,39.9,73.8z M79.4,92.9c-2.8,1.4-5.8,2.1-8.8,2.6c-1.4,0.2-2.4-0.2-3.4-1.2
			c-3.6-3.8-7.4-7.4-11.2-11.3c3.5-1.1,5.7-3.4,6.8-6.7L79.4,92.9z M56.9,77.2c-1.8,1.8-4.9,1.8-6.8,0c-1.8-1.8-1.8-4.9,0-6.8
			c1.8-1.8,4.9-1.8,6.8-0.1C58.7,72.1,58.7,75.4,56.9,77.2z M90,84.4c-1.6,2.1-3.4,3.9-5.5,5.5c-0.5,0.4-0.9,0.4-1.4,0
			c-3.3-3.4-6.7-6.7-10.1-10.1c3.5-1.1,5.7-3.4,6.8-6.8c3.4,3.4,6.8,6.8,10.1,10.1C90.5,83.6,90.4,83.9,90,84.4z M67,73.7
			c-1.7-1.9-1.6-5.1,0.3-6.8c2-1.7,5.1-1.6,6.8,0.2c1.7,1.9,1.6,5.1-0.3,6.8C71.8,75.6,68.7,75.5,67,73.7z M67,60.1l0.9,0.9
			c-1.6,0.7-3,1.4-4.2,2.5c-1.2,1.2-1.9,2.6-2.6,4.2c-1-1-1.9-1.9-3.1-2.6c-3.4-1.8-7.6-1.4-10.6,1.2c-0.4,0.4-0.7,0.6-1.2,0.1
			c-5.8-5.8-11.6-11.6-17.5-17.6c10.8,0.4,20.5-7.7,20.5-20.3l2.8,2.8c4.7,4.7,9.4,9.4,14.1,14.1c0.8,0.8,1,1.2,0.2,2.2
			C63.3,51.3,63.7,56.8,67,60.1z M70.5,50c1.8-1.8,5-1.7,6.8,0.1c1.8,1.9,1.7,5-0.1,6.8c-1.8,1.8-5,1.7-6.8-0.1
			C68.7,54.9,68.7,51.8,70.5,50z M95.7,69.6c-0.3,3.3-1.2,6.5-2.7,9.7L76.5,62.8c1.5-0.7,2.9-1.3,4.1-2.5c1.2-1.2,2-2.6,2.6-4.4
			l1.1,1.1c3.6,3.6,7.2,7.2,10.8,10.8C95.6,68.3,95.8,68.8,95.7,69.6z M67.1,39.8c-1.8-1.8-1.8-5,0-6.8c1.8-1.8,5-1.7,6.8,0
			c1.8,1.9,1.7,5-0.1,6.8C72,41.6,68.9,41.6,67.1,39.8z M95.1,61.1l-5-5c-2.7-2.7-5.5-5.5-8.2-8.3c-1.5-1.6-3.1-3.1-5.5-3.7
			c1.7-1.4,2.8-3,3.5-5.1C86.2,45.4,93.4,51.2,95.1,61.1z"/>
	</g>
</g>
</svg>
