<?xml version="1.0" encoding="utf-8"?>
<!-- Generator: Adobe Illustrator 28.0.0, SVG Export Plug-In . SVG Version: 6.00 Build 0)  -->
<svg version="1.1" id="Layer_1" xmlns="http://www.w3.org/2000/svg" xmlns:xlink="http://www.w3.org/1999/xlink" x="0px" y="0px"
	 viewBox="0 0 128 128" style="enable-background:new 0 0 128 128;" xml:space="preserve">
<g>
	<path d="M64.8,0c1.1,0.7,1.5,1.8,1.5,3.1c0,2.4,0,4.7,0,7.1c0,1.4-0.7,2.4-1.7,2.6c-1.4,0.3-2.6-0.6-2.7-2.2c-0.1-2.7,0-5.5,0-8.2
		c0-1,0.6-1.8,1.4-2.3C63.8,0,64.3,0,64.8,0z"/>
	<path d="M69.9,119.5c-2.6,0-5.1,0-7.6,0c-1.6,0-2.5-0.8-2.6-2.1c0-1.4,0.9-2.2,2.6-2.2c3.2,0,6.4,0,9.6,0c1.6,0,2.5-0.7,2.6-1.9
		c0.1-1.3-0.6-2.2-1.9-2.3c-0.7-0.1-1.5,0-2.2,0c-1.3-0.1-2.2-1-2.2-2.2c0-1.1,0.7-1.9,2-2.1c0.8-0.1,1.7-0.1,2.5-0.1
		c1.2-0.1,1.8-1,1.8-2.1c0-1.1-0.8-1.8-1.9-1.9c-0.7,0-1.3,0-2,0c-1.5-0.1-2.4-0.9-2.4-2.2c0-1.2,0.9-2.1,2.4-2.2c0.5,0,1.1,0,1.6,0
		c1.6-0.1,2.2-0.7,2.3-2.3c0.1-1.8,0.1-1.8-1.7-1.8c-1,0-2,0.1-3-0.1c-1.1-0.3-1.7-1-1.7-2c0-1.1,0.6-1.8,1.6-2.1
		c1.7-0.4,3.4-0.1,5.1-0.1c3.6,0,3.9-0.3,3.9-3.9c0-1.7-0.1-3.4,0.2-5.1c0.5-2.8,2.2-5,4.3-6.8c2.9-2.5,5.3-5.4,7-8.8
		c5.2-10.6,4.5-20.8-2.1-30.5C83.7,27.4,77,23.2,68.8,21.8C59,20.3,50.3,23,43.2,30c-6.5,6.4-9.5,14.3-8.9,23.3
		c0.5,7.9,3.8,14.6,9.6,19.9c1.8,1.6,3.6,3.2,4.5,5.6c0.5,1.4,0.7,2.8,0.7,4.3c0,1.3,0,2.7,0,4c0.1,1.8,0.8,2.5,2.5,2.5
		c2.7,0,5.4,0,8.1,0c1.2,0,2.3,0,3.5,0c1.8,0,2.9,0.9,2.9,2.2c0,1.4-1.1,2.2-2.9,2.2c-3,0-5.9,0-8.9,0c-0.8,0-1,0.2-1,1
		c0,2.6,0.5,3.2,3.1,3.2c2.1,0,4.2,0,6.4,0c0.2,0,0.5,0,0.7,0c1.6,0.1,2.6,1,2.6,2.3c-0.1,1.2-1.1,2.1-2.6,2.1c-2.7,0-5.3,0-8,0
		c-1.6,0-2.5,1.3-2,2.7c0.4,1.1,1.3,1.4,2.4,1.4c2.4,0,4.7,0,7.1,0c0.5,0,0.9,0.1,1.4,0.1c1.1,0.1,1.7,0.9,1.8,1.9
		c0.1,1-0.5,1.8-1.5,2.2c-0.5,0.1-0.9,0.1-1.4,0.1c-2.5,0-4.9,0-7.4,0c-1.5,0-2.3,0.6-2.4,1.8c-0.1,1.3,0.4,2,2,2.4
		c1.7,0.4,2.4,1.3,2.1,2.6c-0.3,1.3-1.4,1.9-3,1.7c-4.7-0.8-7-6-4.3-9.9c0.4-0.5,0.4-0.9,0-1.4c-1.6-2.4-1.6-4.8,0-7.2
		c0.2-0.4,0.5-0.7,0.1-1.1c-1.3-1.6-1.4-3.4-1.3-5.3c0-0.7-0.2-1.1-0.8-1.4c-2.2-1.2-3.3-3.2-3.4-5.7c0-1.4,0-2.8,0-4.2
		c0.1-2.2-0.7-4.1-2.4-5.5c-2.8-2.4-5.3-5.1-7.3-8.3C30.9,62.4,29.2,55,30.2,47c1.2-9.4,5.6-17,13-22.8c5.2-4,11-6.4,17.6-6.9
		c12.1-1,22,3.4,29.7,12.6c4,4.8,6.4,10.3,7.3,16.5c1.5,11-1.7,20.5-9.3,28.6c-0.8,0.9-1.8,1.7-2.7,2.5c-1.8,1.5-2.7,3.4-2.6,5.8
		c0.1,1.3,0,2.7,0,4c0,2.6-1.2,4.6-3.5,5.9c-0.5,0.3-0.8,0.5-0.7,1.1c0.1,2,0,4-1.4,5.7c-0.3,0.4,0,0.7,0.2,1c1.6,2.4,1.6,4.8,0,7.2
		c-0.4,0.5-0.4,0.9,0,1.4c2.2,3.3,1.1,7.6-2.5,9.3c-0.6,0.3-0.9,0.6-1.1,1.2c-2.2,8-11.7,10.7-17.7,5c-1.2-1.2-1.4-2.4-0.5-3.4
		c0.9-1,2.1-1,3.4,0.1c2.9,2.7,6.5,2.3,8.8,0.3C69,121.4,69.5,120.6,69.9,119.5z"/>
	<path d="M76.3,42.8c-4.4-0.8-8.5,1.7-9.8,6c-0.6,1.9-0.4,3.9-0.4,5.8c0,0.7-0.2,0.9-0.9,0.9c-3.3,0.1-3.3,0.1-3.3-3.2
		c0-0.3,0-0.5,0-0.8c-0.1-5.7-4.3-8.7-8.1-8.9c-4.1-0.2-8,2.6-8.8,6.7c-0.9,4.3,1.5,8.5,5.5,9.9c2,0.7,4,0.5,5.9,0.5
		c1,0,1.1,0.3,1.1,1.2c0,7.2,0,14.4,0,21.6c0,1.8,0.8,2.8,2.1,2.8c1.4,0,2.2-1,2.3-2.8c0-0.3,0-0.5,0-0.7c0-6.3,0-12.6,0-18.9
		c0-1-0.5-2.4,0.2-3c0.6-0.5,1.9-0.1,2.9-0.2c0.8-0.1,1,0.2,1,1c0,3.6,0,7.2,0,10.9v7c0,1.5-0.1,2.9,0,4.4c0.1,1.5,1,2.4,2.2,2.3
		c1.2,0,2.1-1,2.1-2.4c0-0.3,0-0.6,0-0.9c0-7.1,0-14.2,0-21.2c0-0.8,0.1-1.1,1-1c1.1,0.1,2.2,0,3.4,0c4.5-0.1,8-3.5,8.4-8
		C83.6,47.7,80.4,43.5,76.3,42.8z M57.5,52.9c0,2.6,0,2.6-2.5,2.6c-0.7,0-1.5,0-2.2-0.1c-2.4-0.4-3.8-2.3-3.6-4.7
		c0.2-2.2,2.1-3.8,4.4-3.7c2.2,0.1,3.9,1.9,4,4.3C57.5,51.8,57.5,52.3,57.5,52.9z M75.6,55.3c-1.5,0.3-3,0.1-4.5,0.2
		c-0.5,0-0.6-0.2-0.6-0.7c0-0.7,0-1.4,0-2.1h0c0-0.6,0-1.2,0-1.7c0.1-2.2,1.8-3.9,4-4c2.2-0.1,4.1,1.5,4.3,3.6
		C79.1,52.9,77.8,54.8,75.6,55.3z"/>
	<path d="M19.4,49c1.2,0,2.5,0,3.7,0c1.5,0,2.4,0.8,2.5,2.1c0.1,1.3-0.9,2.2-2.4,2.3c-2.7,0.1-5.3,0.1-8,0c-1.5,0-2.5-1-2.4-2.2
		c0.1-1.3,1.1-2.1,2.6-2.1C16.7,49,18.1,49,19.4,49z"/>
	<path d="M108.8,49c1.3,0,2.6,0,3.9,0c1.5,0,2.5,0.9,2.5,2.2c0,1.2-0.9,2.1-2.4,2.2c-2.7,0.1-5.4,0.1-8.1,0c-1.5,0-2.4-1-2.3-2.2
		c0-1.2,1-2.1,2.5-2.1C106.2,49,107.5,49,108.8,49z"/>
	<path d="M45.9,15.9c-0.1,1.3-0.6,2-1.6,2.3c-1,0.3-1.8-0.1-2.4-0.9c-0.8-1.2-1.4-2.4-2.2-3.6c-0.7-1.2-1.4-2.4-2-3.6
		c-0.7-1.3-0.4-2.6,0.7-3.2c1.1-0.6,2.3-0.3,3,1c1.4,2.3,2.7,4.7,4,7C45.7,15.2,45.8,15.7,45.9,15.9z"/>
	<path d="M90.7,8.8c-0.1,0.3-0.2,0.8-0.5,1.2c-1.3,2.3-2.7,4.7-4,7c-0.8,1.3-2.2,1.7-3.3,0.8c-0.9-0.7-1.1-1.7-0.6-2.7
		c1.4-2.6,2.9-5.1,4.4-7.6c0.5-0.8,1.3-1.2,2.4-0.8C90.2,7,90.6,7.7,90.7,8.8z"/>
	<path d="M31,30.8c0,1.7-1.5,2.8-3,2c-2.6-1.4-5.2-2.9-7.7-4.5c-1-0.6-1.2-1.9-0.7-2.8c0.6-1,1.7-1.4,2.8-0.8
		c2.6,1.4,5.1,2.9,7.6,4.4C30.7,29.5,31.1,30.2,31,30.8z"/>
	<path d="M106.4,24.5c1,0.1,1.7,0.5,2.1,1.5c0.4,1,0.1,1.8-0.7,2.4c-1.1,0.7-2.3,1.4-3.4,2c-1.4,0.8-2.7,1.6-4.1,2.3
		c-1.1,0.6-2.4,0.3-3-0.6c-0.6-1-0.4-2.3,0.7-2.9c2.5-1.5,5.1-3,7.6-4.4C105.8,24.6,106.2,24.6,106.4,24.5z"/>
	<path d="M28.7,69.3c1.1,0.1,1.8,0.5,2.2,1.4c0.3,0.9,0.2,1.8-0.6,2.4c-0.8,0.6-1.6,1-2.4,1.5c-1.6,0.9-3.2,1.9-4.8,2.8
		c-1.4,0.8-2.7,0.6-3.4-0.5c-0.7-1.1-0.3-2.4,1.1-3.2c2.2-1.3,4.4-2.6,6.7-3.9C27.9,69.5,28.4,69.4,28.7,69.3z"/>
	<path d="M99,69.3c0.6,0.1,1.1,0.3,1.6,0.5c2.2,1.3,4.4,2.5,6.6,3.8c1.4,0.8,1.9,2,1.2,3.2c-0.6,1.1-1.9,1.4-3.4,0.6
		c-2.3-1.3-4.5-2.6-6.8-3.9c-1-0.6-1.5-1.5-1.2-2.6C97.3,69.9,98.1,69.4,99,69.3z"/>
</g>
</svg>
