<?xml version="1.0" encoding="utf-8"?>
<!-- Generator: Adobe Illustrator 28.0.0, SVG Export Plug-In . SVG Version: 6.00 Build 0)  -->
<svg version="1.1" id="Layer_1" xmlns="http://www.w3.org/2000/svg" xmlns:xlink="http://www.w3.org/1999/xlink" x="0px" y="0px"
	 viewBox="0 0 128 128" style="enable-background:new 0 0 128 128;" xml:space="preserve">
<g>
	<path d="M89.9,40.3c-2.3-0.6-4.6-1-6.9-1.5c-1.1-0.2-2.2-0.3-3.4-0.8c3.4-0.7,6.5-1.3,9.7-2c4-0.9,6.6-4,6.6-7.8c0-4-2.4-7.1-6.5-8
		c-1.3-0.3-2.7-0.6-4-0.8c-1.8-0.4-3.7-0.8-5.5-1.2c3.1-0.9,6.1-1.5,9.1-2.1c4.6-0.9,7.6-5,6.8-9.3c-0.8-4.4-5-7.4-9.4-6.6
		c-4.1,0.8-8.2,1.7-12.3,2.6c-9,1.9-18.1,3.8-27.1,5.6c-2.9,0.6-5.8,1.2-8.6,1.8c-4,0.9-6.5,4.1-6.5,8.1c0,3.8,2.8,6.9,6.9,7.7
		c3,0.6,6.1,1.2,9.1,1.9c-0.1,0.3-0.3,0.4-0.5,0.4c-2.9,0.6-5.9,1.2-8.8,1.8c-3.8,0.8-6.6,3.8-6.7,7.3c-0.2,4.1,2.1,7.2,6.1,8.3
		c1.5,0.4,3.1,0.7,4.6,1c1.8,0.4,3.5,0.8,5.3,1.1c-2.6,0.8-5.3,1.4-7.9,1.9c-6.8,1.3-9.4,5.5-7.2,11.9c0.1,0.3,0.1,0.5-0.2,0.7
		C32,63,32,63.8,32,64.6c0,6.4,0,12.8,0,19.2c0,1,0.1,2,0.3,3c1,5.9,6.7,10.9,12.5,11.2c0.4,0,1.1-0.4,1.2,0.4
		c0,0.6,0.4,1.5-0.7,1.7c-0.8,0.2-1.2,0.9-1.2,1.8c0,0.9,0.4,1.6,1.2,1.8c0.6,0.2,0.9,0.4,0.8,1.1c0,0.6,0,1-0.8,1.3
		c-0.8,0.2-1.2,0.9-1.2,1.8c0,0.9,0.4,1.6,1.2,1.8c0.7,0.2,0.8,0.6,0.8,1.2c0,0.6-0.2,0.9-0.8,1.1c-1.5,0.6-1.8,2.8-0.4,3.4
		c1.2,0.5,1.1,1.3,1.1,2.2c0,0.7,0,1.5,0,2.2c0,1.2,0.7,1.9,2,2c0.8,0,1.6,0.1,2.4,0c1-0.1,1.6,0,1.8,1.3c0.4,2.4,2.2,3.7,4.3,4.7
		h15c1.7-0.8,3.6-1.7,3.9-3.6c0.4-2.5,1.9-2.6,3.8-2.4c0.3,0,0.6,0,0.9,0c1.2-0.1,1.9-0.8,1.9-2c0-1.1,0-2.2,0-3.2
		c0-0.3-0.1-0.7,0.5-0.8c0.9-0.2,1.5-0.9,1.5-1.9c0-1.1-0.5-1.8-1.5-2c-0.8-0.2-0.4-0.8-0.5-1.2c0-0.3-0.2-0.8,0.5-0.9
		c0.9-0.2,1.5-0.9,1.5-1.9c0-1.1-0.5-1.8-1.5-2c-0.7-0.2-0.5-0.6-0.5-0.9c0.1-0.4-0.3-1,0.3-1.1c1-0.3,1.6-0.9,1.6-1.9
		c0-1.1-0.6-1.7-1.6-2.1c-0.8-0.3-0.3-1.1-0.4-1.6c-0.1-0.5,0.4-0.4,0.7-0.4c7.7-0.5,13.2-6.5,13.2-14.1c0-11.9,0-23.7,0-35.6
		C96,44.3,93.8,41.4,89.9,40.3z M92,61.3c0,0.6-0.2,0.8-0.8,0.8c-2.2,0-4.3,0-6.5,0c-0.6,0-0.8-0.1-0.8-0.8c0.1-1,0.1-2,0-3
		c-0.2-1.1,0.4-1.4,1.3-1.5c2.2-0.4,4.5-0.7,6.7-1.8C92,57.2,91.9,59.3,92,61.3z M44.3,21.2c-1.4,0.3-2.8,0.6-4.1,0.8
		c-2.1,0-3.9-1.5-4.2-3.5c-0.3-1.7,0.9-3.7,2.8-4.2c3-0.7,6.1-1.3,9.1-2c8.6-1.8,17.3-3.6,25.9-5.4c4.4-0.9,8.8-1.8,13.3-2.8
		c2.2-0.5,4.1,0.8,4.7,3c0.5,2-0.7,4.1-2.7,4.6c-3.9,0.9-7.9,1.7-11.8,2.5C66.3,16.6,55.3,18.9,44.3,21.2z M77.9,21.9
		c-6,1.2-11.7,2.4-17.4,3.7c-1.4,0.3-2.8,0.3-4.2,0c-2-0.5-4-0.9-6.3-1.4c4.3-0.9,8.4-1.8,12.4-2.6c1.2-0.2,2.4-0.4,3.5-0.8
		c3.3-1.2,6.4,0,9.6,0.6C76.3,21.5,76.9,21.7,77.9,21.9z M47.9,40.4c-2.3,0.5-4.6,1-6.9,1.4c-2.4,0.5-4.4-0.9-4.9-3.2
		c-0.4-2,1.1-4.1,3.3-4.5c4.1-0.9,8.2-1.7,12.3-2.5c11.4-2.4,22.8-4.7,34.2-7.1c0.7-0.1,1.4-0.3,1.8-0.4c2.2,0,3.9,1.5,4.2,3.6
		c0.3,1.7-1,3.7-2.8,4.2c-3.5,0.8-7,1.5-10.4,2.3C68.4,36.2,58.1,38.3,47.9,40.4z M77.9,41.9c-6.4,1.3-12.5,2.6-18.5,3.9
		c-1,0.2-2-0.1-2.9-0.3c-2.1-0.4-4.1-0.9-6.5-1.4c4.3-0.9,8.4-1.8,12.4-2.6c1.2-0.2,2.4-0.4,3.5-0.8c3.3-1.2,6.4,0,9.6,0.6
		C76.2,41.5,76.9,41.7,77.9,41.9z M38.9,54.3c3.9-0.9,7.8-1.7,11.7-2.5c11.8-2.5,23.6-4.9,35.4-7.4c1-0.2,2-0.5,3.1-0.2
		c1.7,0.6,2.9,2.1,2.9,3.8c0,1.7-1.1,3.4-2.9,3.8c-4.3,1-8.6,1.9-12.9,2.8c-11.4,2.4-22.9,4.8-34.3,7.1c-0.6,0.1-1.3,0.2-1.8,0.3
		c-2.2,0-3.9-1.6-4.1-3.7C35.8,56.6,37,54.7,38.9,54.3z M79.8,61.8c-0.5,0.7-1.9,0.2-3,0.2c-5.3,0-10.5,0-15.8,0v-0.2
		c6-1.3,12-2.5,18-3.8c0.7-0.1,1,0,0.9,0.7C79.9,59.8,80.3,61.2,79.8,61.8z M69.6,124c-3.8,0-7.6,0-11.4,0c-0.5,0-1-0.1-1.4-0.4
		c-0.5-0.3-0.9-0.8-0.8-1.3c0.1-0.6,0.8-0.2,1.2-0.2c4.9,0,9.7,0,14.7,0C71.7,123.5,70.9,124,69.6,124z M77,118c-4.3,0-8.6,0-13,0
		c-4.3,0-8.6,0-13,0c-0.7,0-1.1-0.1-1.1-1c0-0.8,0.2-1,1.1-1c8.6,0,17.3,0,25.9,0c0.8,0,1.1,0.2,1.1,1C78,117.9,77.7,118,77,118z
		 M76.9,112c-4.4,0-8.7,0-13.1,0c-4.3,0-8.6,0-12.8,0c-0.8,0-1-0.2-1-1c0-0.9,0.3-1,1.1-1c8.6,0,17.3,0,25.9,0c0.8,0,1,0.2,1,1
		C78,111.9,77.7,112,76.9,112z M51,104c8.7,0,17.3,0,26,0c0.8,0,1,0.2,1,1c0,0.8-0.2,1-1,1c-4.4,0-8.7,0-13.1,0c-4.3,0-8.6,0-12.9,0
		c-0.8,0-1.1-0.2-1.1-1C50,104.2,50.2,104,51,104z M49.9,99c0-0.8,0.2-1,1-1c8.7,0,17.3,0,26,0c0.8,0,1.1,0.2,1.1,1c0,0.8-0.2,1-1,1
		c-4.3,0-8.7,0-13,0c-4.3,0-8.7,0-13,0C50.2,100,49.9,99.9,49.9,99z M92,81.3c-0.1,1.8,0.1,3.6-0.4,5.4C90.3,91,86.6,94,82.2,94
		c-12.1,0.1-24.3,0.1-36.4,0c-5.4,0-9.6-4.4-9.8-9.8c0-1.3-0.6-3.1,0.2-3.9c0.7-0.7,2.4-0.2,3.7-0.2c8,0,16.1,0,24.1,0
		c8.9,0,17.8,0,26.7,0C91.8,80,92,80.3,92,81.3z M90.8,76c-9,0-18,0-27,0c-8.9,0-17.8,0-26.7,0c-0.9,0-1.2-0.2-1.2-1.1
		c0.1-2.7,0-5.3,0-8c0-0.7,0.2-0.9,0.9-0.9c18.1,0,36.1,0,54.2,0c0.7,0,0.9,0.1,0.9,0.9c0,2.7-0.1,5.5,0,8.2
		C92,76.2,91.5,76,90.8,76z"/>
</g>
</svg>
