<?xml version="1.0" encoding="utf-8"?>
<!-- Generator: Adobe Illustrator 28.0.0, SVG Export Plug-In . SVG Version: 6.00 Build 0)  -->
<svg version="1.1" id="Layer_1" xmlns="http://www.w3.org/2000/svg" xmlns:xlink="http://www.w3.org/1999/xlink" x="0px" y="0px"
	 viewBox="0 0 128 128" style="enable-background:new 0 0 128 128;" xml:space="preserve">
<g>
	<path d="M126.7,99.9c-2-2.8-4.8-4.2-8.2-4.3c-3.7,0-7.3,0-11,0c-1.6,0-1.7-0.1-1.7-1.7c0-4.1,0-8.2,0-12.2c0-1.6-0.3-3.1-1.3-4.3
		c-0.5-0.7-0.7-1.4-0.7-2.2c0-6.5,0-12.9,0-19.4c0-0.9,0.3-1.5,0.9-2.1c0.5-0.5,0.9-0.9,1.4-1.4c1-1,1.5-2.3,1.5-3.7
		c0-1.8,0-3.6,0-5.4c0-1.9-0.9-3.3-2.6-4c-0.8-0.3-1.1-0.8-1.1-1.7c0-3.8,0-7.6,0-11.4c0-0.9,0.3-1.6,0.9-2.2c0.5-0.5,1-0.9,1.4-1.4
		c0.8-0.9,1.4-1.9,1.4-3.1c0-2.1,0.1-4.2,0-6.4c0-1.6-0.8-2.9-2.2-3.4c-1.4-0.5-1.7-1.4-1.6-2.7c0-0.3,0-0.7,0-1
		c0-3.2-1.6-5.2-4.6-5.9h-2.7c-0.7,0.3-1.5,0.3-2.2,0.8c-1.5,1.3-2.5,2.9-2.4,5c0,3.3-0.1,6.6,0.1,9.9c0.1,2.3-0.4,4.1-2.3,5.6
		c-1.1,0.9-1.6,2.2-1.5,3.7c0.1,1.7,0,3.5,0,5.2c0,2,0.8,3.4,2.6,4.1c0.9,0.4,1.1,0.9,1.1,1.8c0,3.2-0.1,6.3,0,9.5
		c0.1,2.2-0.4,3.9-2.2,5.2c-1,0.8-1.6,1.9-1.6,3.3c-0.1,2.1-0.1,4.2,0,6.2c0.1,1.7,0.9,3.1,2.5,3.7c0.9,0.3,1.2,0.9,1.2,1.8
		c0,3.1,0,6.3,0,9.4c0,0.8-0.2,1.5-0.7,2.1c-0.9,1.2-1.3,2.7-1.3,4.2c0,2.3,0,4.6,0,6.9c0,0.5,0,0.9,0.2,1.4c0.3,1,1.3,1.8,2.2,1.8
		c1.1-0.1,1.7-0.7,2.1-1.7c0.2-0.6,0.2-1.2,0.2-1.8c0-2.2,0-4.3,0-6.5c0-1.3,0.5-1.9,1.9-2c0.8-0.1,1.6-0.1,2.4,0
		c1.8,0.1,2.3,0.6,2.3,2.4c0,4,0,8,0,12c0,1.8,0,1.8-1.8,1.8c-8.5,0-17.1,0-25.6,0c-1.8,0-1.8,0-1.8-1.8c0-4.2,0-8.4,0-12.6
		c0-1.2-0.2-2.4-0.9-3.4c-0.7-0.9-0.9-1.8-0.9-2.9c0-8.2,0-16.4,0-24.6c0-0.7,0-1.4,0.2-2.1c0.6-3.3,2.5-5.8,4.9-8
		c2.3-2,4.1-4.3,4.1-7.5c0.1-4.3,0-8.7,0-13c0-2.5-1.7-4.7-4.1-5.4c-0.7-0.2-1.5-0.3-2.2-0.4c-1.3-0.1-2-0.8-2.3-2
		c-0.9-3-1.7-5.9-2.7-8.9C67.6,1.3,66.8,0.2,65,0h-2c-1.7,0.2-2.6,1.3-3,2.9c-0.9,3-1.8,6-2.7,9c-0.3,1.1-0.9,1.8-2.2,1.9
		c-0.4,0-0.7,0.1-1.1,0.2c-3.3,0.5-5.3,2.7-5.3,6.1c0,3.7,0.1,7.4,0,11.1c-0.1,2.9,0.7,5.3,2.7,7.4c1.4,1.5,2.7,1.9,3.8,1
		c1.2-1,1.1-2.3-0.3-3.9c-1-1.2-1.7-2.5-1.7-4.1c0-3.7,0-7.3,0-11c0-1.7,0.5-2.1,2.2-2.2c3.2-0.2,5-1.6,6.1-4.6
		c0.2-0.5,0.3-1.1,0.5-1.7c0.7-2.2,1.3-4.4,2-6.7c0.3,0.7,0.5,1.3,0.6,1.8c0.7,2.3,1.3,4.6,2.1,6.8c1,2.8,3,4.2,5.9,4.4
		c1.9,0.1,2.3,0.5,2.3,2.4c0,3.5,0,7,0,10.5c0,1.9-0.6,3.4-1.9,4.7c-1.2,1.2-2.5,2.3-3.6,3.7c-2.9,3.5-4,7.7-4,12.2
		c0,7.2,0,14.4,0,21.6c0,1.3-0.2,1.5-1.4,1.5c-1.2,0-1.4-0.2-1.4-1.5c0-0.3,0-0.7,0-1c0-7,0-14,0-21c0-2.4-0.3-4.8-1.3-7.1
		c-0.8-1.9-2.9-2.2-4-0.7c-0.5,0.7-0.4,1.5-0.2,2.3c0.4,1.2,0.7,2.4,0.7,3.7c0,8.6,0,17.2,0,25.9c0,0.7-0.1,1.3-0.5,1.9
		c-0.9,1.2-1.2,2.6-1.2,4.1c0,4.2,0,8.3,0,12.5c0,1.6-0.1,1.7-1.7,1.7c-4.9,0-9.8,0-14.7,0c-1.5,0-1.6-0.1-1.6-1.6c0-4,0-8.1,0-12.1
		c0-1.7-0.3-3.3-1.4-4.7c-0.5-0.6-0.6-1.3-0.6-2.1c0-4.4,0-8.8,0-13.2c0-1,0.3-1.6,1.3-2c1.7-0.7,2.5-2.1,2.5-4c0-1,0-2.1,0-3.1
		c0-2-0.9-3.4-2.7-4.1c-0.9-0.3-1.1-0.9-1.1-1.7c0-1.9,0.1-3.8,0-5.7c0-1,0.3-1.7,1.3-2.1c1.7-0.7,2.5-2.1,2.5-4c0-1,0-2,0-3
		c0-2-0.8-3.4-2.7-4.1c-0.9-0.3-1.1-0.9-1.1-1.7c0-1.6,0-3.2,0-4.7c0-1,0.3-1.6,1.2-2.1c1.7-0.8,2.6-2.2,2.5-4.1c0-1,0-2.1,0-3.1
		c0-1.7-0.8-3-2.2-3.6c-1.3-0.6-1.6-1.5-1.5-2.7c0-3-1.6-5.1-4.6-5.8h-2.7c-0.1,0.1-0.3,0.2-0.4,0.2c-2.5,1-3.8,2.8-3.9,5.5
		c0,1.8-0.1,3.6,0,5.4c0,0.9-0.2,1.4-1.1,1.6c-1.9,0.6-2.7,1.9-2.7,3.9c0,1,0,2.1,0,3.1c0,2,1,3.3,2.9,3.8c0.7,0.2,0.9,0.5,0.8,1.2
		c0,2-0.1,4,0,6c0,0.9-0.2,1.4-1.1,1.7c-1.8,0.6-2.7,1.9-2.7,3.8c0,1.2,0,2.3,0,3.5c0.1,1.8,1.2,3.2,2.9,3.5c0.8,0.1,0.8,0.4,0.8,1
		c0,2.4-0.1,4.8,0,7.1c0,1-0.2,1.4-1.2,1.8c-1.7,0.6-2.6,1.8-2.6,3.7c0,1.1,0,2.2,0,3.4c0,1.9,1.1,3.3,2.9,3.7
		c0.7,0.2,0.9,0.4,0.9,1.1c0,3.6,0,7.2,0,10.9c0,0.5,0,0.8-0.4,1.2c-1.1,1.2-1.6,2.7-1.6,4.3c0,5.1,0,10.2,0,15.4c0,2.5,0.5,3,3,3
		c30.8,0,61.7,0,92.5,0c3.9,0,6.2,2.3,6.2,6.2c0,3.9,0,7.8,0,11.7c0,4.3-2.2,6.5-6.5,6.5H66.4c-18.8,0-37.6,0-56.4,0
		c-3.9,0-6.2-2.3-6.2-6.2c0-4,0-8.1,0-12.1c0-3.8,2.4-6.2,6.1-6.2c1.9,0,3.7,0,5.6,0c1.3,0,2.1-0.8,2.1-1.9c0-1.1-0.8-1.8-2.1-1.8
		c-2.1,0-4.2,0-6.4,0c-5,0-9.1,4.2-9.1,9.2c0,4.5,0,9.1,0,13.6c0,5,4.2,9.2,9.2,9.2c36.5,0,73,0,109.5,0c2.1,0,4-0.7,5.7-2
		c2-1.5,2.9-3.5,3.6-5.8v-16.5C127.7,102.4,127.6,101.1,126.7,99.9z M28.3,5.5c0-1,0.9-1.9,1.9-1.8c1.1,0.1,1.8,0.7,1.8,1.8
		c0.1,1.1,0,2.2,0,3.4c0,0.3-0.1,0.5-0.4,0.7c-1.1,0.4-2.1,0.8-3.4,1.2C28.3,9,28.2,7.3,28.3,5.5z M27.3,15.3c2.5-0.9,5-1.8,7.5-2.8
		c0.9-0.4,1-0.1,1,0.7c0,2.4,0,2.4-2.3,3.2c-3,1.1-5.9,2.2-8.9,3.3c-0.1-0.1-0.1-0.2-0.1-0.2C24.3,16.4,24.3,16.4,27.3,15.3z
		 M28.2,23.2c0-0.5,0.1-0.7,0.6-0.9c3.2-1.4,3.2-1.4,3.2,2.1v1.6c0,3.6,0,3.6-3.8,4.5C28.3,28,28.3,25.6,28.2,23.2z M33,96
		c-2,0-3.9,0-5.9,0c-0.6,0-0.8-0.2-0.8-0.8c0-4.7,0-9.4,0-14.1c0-1.3,0.6-2,2-2.1c1.1-0.1,2.2-0.1,3.4,0c1.4,0.1,2,0.7,2.1,2.1
		c0,2.3,0,4.7,0,7c0,2.3,0,4.7,0,7C33.9,95.8,33.7,96,33,96z M32,74.5c0,0.6-0.1,0.8-0.8,0.8c-3,0.1-3,0.1-3-2.9c0-2.9,0-5.7,0-8.6
		c0-0.7,0.2-1,0.8-1.2c0.9-0.3,1.9-0.7,2.9-1.1C32,65.9,32,70.2,32,74.5z M32.9,57c-2.5,0.9-5,1.8-7.4,2.8c-0.7,0.3-1,0.4-1-0.6
		c0-2.5,0-2.5,2.3-3.3c3-1.1,5.9-2.2,8.9-3.4C35.9,55.9,35.9,55.9,32.9,57z M32,49c0,0.7-0.2,1-0.8,1.1c-1,0.3-1.9,0.7-3,1.1
		c0-2.8,0-5.6,0-8.3c0-0.5,0.1-0.8,0.6-1c1-0.3,2-0.7,3.1-1.2C32,43.6,32,46.3,32,49z M33.1,36.3c-2.8,1.1-5.6,2.1-8.6,3.2
		c0-1,0-2,0-2.9c0-0.4,0.1-0.6,0.5-0.7c3.6-1.3,7.1-2.6,10.7-4c0,0.2,0.1,0.3,0.1,0.4C35.9,35.2,35.9,35.2,33.1,36.3z M66.8,96
		c-1.9-0.1-3.7-0.1-5.6,0c-0.8,0-1-0.2-1-0.9c0.1-2.3,0-4.7,0-7c0-2.2,0-4.5,0-6.7c0-1.5,0.7-2.2,2.2-2.3c1,0,2.1,0,3.1,0
		c1.5,0.1,2.2,0.7,2.2,2.3c0,4.6,0,9.2,0,13.7C67.8,95.8,67.6,96,66.8,96z M96,5.8c0-1.2,0.9-2.1,1.9-2c1,0,1.8,0.9,1.8,2
		c0,1.7,0,3.5,0,5.2c0,0.5-0.2,0.8-0.5,1.1c-1,1-2.1,2-3.3,3.3C96,12,96,8.9,96,5.8z M92.7,24.1c3.5-3.5,7.1-7.1,10.8-10.8
		c0,2.1,0,3.9,0,5.7c0,0.3-0.3,0.5-0.5,0.7c-3.5,3.5-7.1,7.1-10.8,10.8c0-1.9,0-3.6,0-5.3C92.2,24.6,92.4,24.4,92.7,24.1z M99.8,41
		c0,0.3-0.1,0.5-0.3,0.7c-1.1,1.1-2.2,2.2-3.5,3.5c0-4.4,0-8.6,0-12.7c0-0.3,0.1-0.5,0.3-0.7c1.1-1.1,2.1-2.3,3.2-3.4
		c0.1,0.1,0.2,0.1,0.3,0.2C99.8,32.7,99.8,36.9,99.8,41z M98.7,75.3c-2.7,0-2.7,0-2.7-2.8c0-3.2,0-6.4,0-9.6c0-0.7,0.1-1.2,0.7-1.7
		c1-0.9,1.9-1.9,3.1-3c0,5.6,0,10.9,0,16.2C99.8,75.1,99.5,75.3,98.7,75.3z M103.1,49.3c-3.6,3.5-7.1,7.1-10.9,10.9c0-2,0-3.8,0-5.5
		c0-0.3,0.2-0.5,0.4-0.7c3.6-3.6,7.1-7.1,10.9-10.9c0,2,0,3.7,0,5.3C103.5,48.7,103.4,49,103.1,49.3z"/>
	<path d="M64,112.3c-2.1,0-3.9-0.8-5.4-2.4c-0.8-0.9-0.8-1.9-0.1-2.7c0.7-0.7,1.8-0.8,2.7,0c2.2,1.8,3.3,1.8,5.6,0
		c0.9-0.7,2-0.7,2.7,0c0.7,0.8,0.7,1.8-0.1,2.7C68,111.5,66.2,112.3,64,112.3z"/>
	<path d="M50.3,107.2c0,0.6,0.1,1.2,0,1.7c-0.1,1-0.8,1.5-1.8,1.6c-1.1,0-1.8-0.5-1.9-1.5c-0.1-1.2-0.1-2.4,0-3.6
		c0.1-1,0.8-1.6,1.9-1.6c1,0,1.7,0.6,1.8,1.7C50.3,106,50.3,106.6,50.3,107.2C50.3,107.2,50.3,107.2,50.3,107.2z"/>
	<path d="M77.8,107.1c0-0.5,0-1.1,0-1.6c0.1-1.1,0.8-1.6,1.8-1.7c1,0,1.8,0.6,1.9,1.6c0.1,1.2,0.1,2.3,0,3.5c-0.1,1-0.9,1.7-1.9,1.7
		c-1.1-0.1-1.7-0.6-1.8-1.7C77.7,108.2,77.8,107.6,77.8,107.1z"/>
	<path d="M64,19.8c-3.1,0-5.8,2.6-5.7,5.7c0,3,2.6,5.6,5.7,5.7c3.1,0,5.8-2.6,5.7-5.7C69.7,22.4,67.1,19.8,64,19.8z M63.9,27.3
		c-1,0-1.8-0.8-1.8-1.8c0-1,0.8-1.8,1.8-1.8c1,0,1.8,0.7,1.8,1.8C65.8,26.5,65.1,27.3,63.9,27.3z"/>
</g>
</svg>
