<?xml version="1.0" encoding="utf-8"?>
<!-- Generator: Adobe Illustrator 28.0.0, SVG Export Plug-In . SVG Version: 6.00 Build 0)  -->
<svg version="1.1" id="Layer_1" xmlns="http://www.w3.org/2000/svg" xmlns:xlink="http://www.w3.org/1999/xlink" x="0px" y="0px"
	 viewBox="0 0 128 128" style="enable-background:new 0 0 128 128;" xml:space="preserve">
<g>
	<path d="M45.6,63.9c-2-0.1-4-0.1-5.9,0c-1.2,0-2,0.9-2,1.9c0.1,1.1,0.9,1.8,2.1,1.8c0.9,0,1.8,0,2.7,0c1,0,2,0,3,0
		c1.3,0,2.1-0.8,2.1-1.8C47.6,64.8,46.8,63.9,45.6,63.9z M61.8,65.7c-0.1-1.1-0.7-1.8-1.8-1.8c-2.1-0.1-4.1-0.1-6.2,0
		c-1.1,0-1.9,0.9-1.9,1.9c0,1,0.8,1.8,2,1.8c1,0,2,0,3,0h2.8c0.1,0,0.2,0,0.3,0C61,67.5,61.9,66.7,61.8,65.7z M74.2,63.9
		c-2-0.1-4-0.1-6.1,0c-1.2,0-2,0.8-2,1.8c0,1,0.8,1.9,2,1.9c1,0,2,0,3,0c1,0,2,0,3,0c1.1,0,1.9-0.8,2-1.8
		C76.1,64.8,75.3,63.9,74.2,63.9z M88.4,63.9c-2-0.1-4-0.1-6.1,0c-1.1,0-1.9,0.9-1.9,1.9c0,1,0.8,1.8,1.9,1.8c1,0,2,0,3,0h2.8
		c0,0,0.1,0,0.1,0c1.2-0.1,2.1-0.9,2-1.9C90.3,64.7,89.5,63.9,88.4,63.9z M88.4,63.9c-2-0.1-4-0.1-6.1,0c-1.1,0-1.9,0.9-1.9,1.9
		c0,1,0.8,1.8,1.9,1.8c1,0,2,0,3,0h2.8c0,0,0.1,0,0.1,0c1.2-0.1,2.1-0.9,2-1.9C90.3,64.7,89.5,63.9,88.4,63.9z M74.2,63.9
		c-2-0.1-4-0.1-6.1,0c-1.2,0-2,0.8-2,1.8c0,1,0.8,1.9,2,1.9c1,0,2,0,3,0c1,0,2,0,3,0c1.1,0,1.9-0.8,2-1.8
		C76.1,64.8,75.3,63.9,74.2,63.9z M61.8,65.7c-0.1-1.1-0.7-1.8-1.8-1.8c-2.1-0.1-4.1-0.1-6.2,0c-1.1,0-1.9,0.9-1.9,1.9
		c0,1,0.8,1.8,2,1.8c1,0,2,0,3,0h2.8c0.1,0,0.2,0,0.3,0C61,67.5,61.9,66.7,61.8,65.7z M45.6,63.9c-2-0.1-4-0.1-5.9,0
		c-1.2,0-2,0.9-2,1.9c0.1,1.1,0.9,1.8,2.1,1.8c0.9,0,1.8,0,2.7,0c1,0,2,0,3,0c1.3,0,2.1-0.8,2.1-1.8C47.6,64.8,46.8,63.9,45.6,63.9z
		 M45.6,63.9c-2-0.1-4-0.1-5.9,0c-1.2,0-2,0.9-2,1.9c0.1,1.1,0.9,1.8,2.1,1.8c0.9,0,1.8,0,2.7,0c1,0,2,0,3,0c1.3,0,2.1-0.8,2.1-1.8
		C47.6,64.8,46.8,63.9,45.6,63.9z M61.8,65.7c-0.1-1.1-0.7-1.8-1.8-1.8c-2.1-0.1-4.1-0.1-6.2,0c-1.1,0-1.9,0.9-1.9,1.9
		c0,1,0.8,1.8,2,1.8c1,0,2,0,3,0h2.8c0.1,0,0.2,0,0.3,0C61,67.5,61.9,66.7,61.8,65.7z M74.2,63.9c-2-0.1-4-0.1-6.1,0
		c-1.2,0-2,0.8-2,1.8c0,1,0.8,1.9,2,1.9c1,0,2,0,3,0c1,0,2,0,3,0c1.1,0,1.9-0.8,2-1.8C76.1,64.8,75.3,63.9,74.2,63.9z M88.4,63.9
		c-2-0.1-4-0.1-6.1,0c-1.1,0-1.9,0.9-1.9,1.9c0,1,0.8,1.8,1.9,1.8c1,0,2,0,3,0h2.8c0,0,0.1,0,0.1,0c1.2-0.1,2.1-0.9,2-1.9
		C90.3,64.7,89.5,63.9,88.4,63.9z M88.4,63.9c-2-0.1-4-0.1-6.1,0c-1.1,0-1.9,0.9-1.9,1.9c0,1,0.8,1.8,1.9,1.8c1,0,2,0,3,0h2.8
		c0,0,0.1,0,0.1,0c1.2-0.1,2.1-0.9,2-1.9C90.3,64.7,89.5,63.9,88.4,63.9z M74.2,63.9c-2-0.1-4-0.1-6.1,0c-1.2,0-2,0.8-2,1.8
		c0,1,0.8,1.9,2,1.9c1,0,2,0,3,0c1,0,2,0,3,0c1.1,0,1.9-0.8,2-1.8C76.1,64.8,75.3,63.9,74.2,63.9z M61.8,65.7
		c-0.1-1.1-0.7-1.8-1.8-1.8c-2.1-0.1-4.1-0.1-6.2,0c-1.1,0-1.9,0.9-1.9,1.9c0,1,0.8,1.8,2,1.8c1,0,2,0,3,0h2.8c0.1,0,0.2,0,0.3,0
		C61,67.5,61.9,66.7,61.8,65.7z M45.6,63.9c-2-0.1-4-0.1-5.9,0c-1.2,0-2,0.9-2,1.9c0.1,1.1,0.9,1.8,2.1,1.8c0.9,0,1.8,0,2.7,0
		c1,0,2,0,3,0c1.3,0,2.1-0.8,2.1-1.8C47.6,64.8,46.8,63.9,45.6,63.9z M20,99.3c-4.7,0-8.7,3.9-8.8,8.7c-0.1,4.7,4,8.8,8.8,8.8
		c4.7,0,8.7-4,8.8-8.7C28.8,103.3,24.8,99.3,20,99.3z M19.9,113c-2.8,0-4.9-2.2-4.9-5c0-2.8,2.2-5,5-5c2.8,0,5.1,2.3,5.1,5.1
		C25,110.9,22.8,113.1,19.9,113z M45.6,63.9c-2-0.1-4-0.1-5.9,0c-1.2,0-2,0.9-2,1.9c0.1,1.1,0.9,1.8,2.1,1.8c0.9,0,1.8,0,2.7,0
		c1,0,2,0,3,0c1.3,0,2.1-0.8,2.1-1.8C47.6,64.8,46.8,63.9,45.6,63.9z M61.8,65.7c-0.1-1.1-0.7-1.8-1.8-1.8c-2.1-0.1-4.1-0.1-6.2,0
		c-1.1,0-1.9,0.9-1.9,1.9c0,1,0.8,1.8,2,1.8c1,0,2,0,3,0h2.8c0.1,0,0.2,0,0.3,0C61,67.5,61.9,66.7,61.8,65.7z M74.2,63.9
		c-2-0.1-4-0.1-6.1,0c-1.2,0-2,0.8-2,1.8c0,1,0.8,1.9,2,1.9c1,0,2,0,3,0c1,0,2,0,3,0c1.1,0,1.9-0.8,2-1.8
		C76.1,64.8,75.3,63.9,74.2,63.9z M88.4,63.9c-2-0.1-4-0.1-6.1,0c-1.1,0-1.9,0.9-1.9,1.9c0,1,0.8,1.8,1.9,1.8c1,0,2,0,3,0h2.8
		c0,0,0.1,0,0.1,0c1.2-0.1,2.1-0.9,2-1.9C90.3,64.7,89.5,63.9,88.4,63.9z M89.3,95.8c-16.9,0-33.8,0-50.6,0c-1.8,0-2.4,0.6-2.4,2.4
		c0,6.5,0,13,0,19.6c0,1.9,0.6,2.5,2.5,2.5h25.1c8.5,0,17,0,25.5,0c1.7,0,2.3-0.6,2.3-2.3c0-6.6,0-13.1,0-19.7
		C91.7,96.4,91.1,95.8,89.3,95.8z M88.1,115.5c0,0.9-0.2,1.1-1.1,1.1c-15.3,0-30.5,0-45.8,0c-0.9,0-1.2-0.2-1.1-1.1
		c0-5,0-9.9,0-14.9c0-0.9,0.2-1.1,1.1-1.1c7.6,0,15.3,0,22.9,0c7.6,0,15.2,0,22.8,0c1,0,1.3,0.2,1.3,1.3
		C88,105.6,88,110.6,88.1,115.5z M108.1,99.3c-4.8-0.1-8.9,3.9-8.9,8.7c0,4.8,4,8.8,8.8,8.8c4.7,0,8.7-4,8.8-8.7
		C116.9,103.4,112.9,99.3,108.1,99.3z M107.9,113c-2.8,0-5-2.3-5-5c0-2.8,2.2-5,5-5c2.8,0,5.1,2.2,5.1,5.1
		C113,110.9,110.8,113.1,107.9,113z M108.1,99.3c-4.8-0.1-8.9,3.9-8.9,8.7c0,4.8,4,8.8,8.8,8.8c4.7,0,8.7-4,8.8-8.7
		C116.9,103.4,112.9,99.3,108.1,99.3z M107.9,113c-2.8,0-5-2.3-5-5c0-2.8,2.2-5,5-5c2.8,0,5.1,2.2,5.1,5.1
		C113,110.9,110.8,113.1,107.9,113z M89.3,95.8c-16.9,0-33.8,0-50.6,0c-1.8,0-2.4,0.6-2.4,2.4c0,6.5,0,13,0,19.6
		c0,1.9,0.6,2.5,2.5,2.5h25.1c8.5,0,17,0,25.5,0c1.7,0,2.3-0.6,2.3-2.3c0-6.6,0-13.1,0-19.7C91.7,96.4,91.1,95.8,89.3,95.8z
		 M88.1,115.5c0,0.9-0.2,1.1-1.1,1.1c-15.3,0-30.5,0-45.8,0c-0.9,0-1.2-0.2-1.1-1.1c0-5,0-9.9,0-14.9c0-0.9,0.2-1.1,1.1-1.1
		c7.6,0,15.3,0,22.9,0c7.6,0,15.2,0,22.8,0c1,0,1.3,0.2,1.3,1.3C88,105.6,88,110.6,88.1,115.5z M20,99.3c-4.7,0-8.7,3.9-8.8,8.7
		c-0.1,4.7,4,8.8,8.8,8.8c4.7,0,8.7-4,8.8-8.7C28.8,103.3,24.8,99.3,20,99.3z M19.9,113c-2.8,0-4.9-2.2-4.9-5c0-2.8,2.2-5,5-5
		c2.8,0,5.1,2.3,5.1,5.1C25,110.9,22.8,113.1,19.9,113z M88.4,63.9c-2-0.1-4-0.1-6.1,0c-1.1,0-1.9,0.9-1.9,1.9c0,1,0.8,1.8,1.9,1.8
		c1,0,2,0,3,0h2.8c0,0,0.1,0,0.1,0c1.2-0.1,2.1-0.9,2-1.9C90.3,64.7,89.5,63.9,88.4,63.9z M74.2,63.9c-2-0.1-4-0.1-6.1,0
		c-1.2,0-2,0.8-2,1.8c0,1,0.8,1.9,2,1.9c1,0,2,0,3,0c1,0,2,0,3,0c1.1,0,1.9-0.8,2-1.8C76.1,64.8,75.3,63.9,74.2,63.9z M61.8,65.7
		c-0.1-1.1-0.7-1.8-1.8-1.8c-2.1-0.1-4.1-0.1-6.2,0c-1.1,0-1.9,0.9-1.9,1.9c0,1,0.8,1.8,2,1.8c1,0,2,0,3,0h2.8c0.1,0,0.2,0,0.3,0
		C61,67.5,61.9,66.7,61.8,65.7z M45.6,63.9c-2-0.1-4-0.1-5.9,0c-1.2,0-2,0.9-2,1.9c0.1,1.1,0.9,1.8,2.1,1.8c0.9,0,1.8,0,2.7,0
		c1,0,2,0,3,0c1.3,0,2.1-0.8,2.1-1.8C47.6,64.8,46.8,63.9,45.6,63.9z M20,99.3c-4.7,0-8.7,3.9-8.8,8.7c-0.1,4.7,4,8.8,8.8,8.8
		c4.7,0,8.7-4,8.8-8.7C28.8,103.3,24.8,99.3,20,99.3z M19.9,113c-2.8,0-4.9-2.2-4.9-5c0-2.8,2.2-5,5-5c2.8,0,5.1,2.3,5.1,5.1
		C25,110.9,22.8,113.1,19.9,113z M45.6,63.9c-2-0.1-4-0.1-5.9,0c-1.2,0-2,0.9-2,1.9c0.1,1.1,0.9,1.8,2.1,1.8c0.9,0,1.8,0,2.7,0
		c1,0,2,0,3,0c1.3,0,2.1-0.8,2.1-1.8C47.6,64.8,46.8,63.9,45.6,63.9z M61.8,65.7c-0.1-1.1-0.7-1.8-1.8-1.8c-2.1-0.1-4.1-0.1-6.2,0
		c-1.1,0-1.9,0.9-1.9,1.9c0,1,0.8,1.8,2,1.8c1,0,2,0,3,0h2.8c0.1,0,0.2,0,0.3,0C61,67.5,61.9,66.7,61.8,65.7z M74.2,63.9
		c-2-0.1-4-0.1-6.1,0c-1.2,0-2,0.8-2,1.8c0,1,0.8,1.9,2,1.9c1,0,2,0,3,0c1,0,2,0,3,0c1.1,0,1.9-0.8,2-1.8
		C76.1,64.8,75.3,63.9,74.2,63.9z M88.4,63.9c-2-0.1-4-0.1-6.1,0c-1.1,0-1.9,0.9-1.9,1.9c0,1,0.8,1.8,1.9,1.8c1,0,2,0,3,0h2.8
		c0,0,0.1,0,0.1,0c1.2-0.1,2.1-0.9,2-1.9C90.3,64.7,89.5,63.9,88.4,63.9z M89.3,95.8c-16.9,0-33.8,0-50.6,0c-1.8,0-2.4,0.6-2.4,2.4
		c0,6.5,0,13,0,19.6c0,1.9,0.6,2.5,2.5,2.5h25.1c8.5,0,17,0,25.5,0c1.7,0,2.3-0.6,2.3-2.3c0-6.6,0-13.1,0-19.7
		C91.7,96.4,91.1,95.8,89.3,95.8z M88.1,115.5c0,0.9-0.2,1.1-1.1,1.1c-15.3,0-30.5,0-45.8,0c-0.9,0-1.2-0.2-1.1-1.1
		c0-5,0-9.9,0-14.9c0-0.9,0.2-1.1,1.1-1.1c7.6,0,15.3,0,22.9,0c7.6,0,15.2,0,22.8,0c1,0,1.3,0.2,1.3,1.3
		C88,105.6,88,110.6,88.1,115.5z M108.1,99.3c-4.8-0.1-8.9,3.9-8.9,8.7c0,4.8,4,8.8,8.8,8.8c4.7,0,8.7-4,8.8-8.7
		C116.9,103.4,112.9,99.3,108.1,99.3z M107.9,113c-2.8,0-5-2.3-5-5c0-2.8,2.2-5,5-5c2.8,0,5.1,2.2,5.1,5.1
		C113,110.9,110.8,113.1,107.9,113z M108.1,99.3c-4.8-0.1-8.9,3.9-8.9,8.7c0,4.8,4,8.8,8.8,8.8c4.7,0,8.7-4,8.8-8.7
		C116.9,103.4,112.9,99.3,108.1,99.3z M107.9,113c-2.8,0-5-2.3-5-5c0-2.8,2.2-5,5-5c2.8,0,5.1,2.2,5.1,5.1
		C113,110.9,110.8,113.1,107.9,113z M89.3,95.8c-16.9,0-33.8,0-50.6,0c-1.8,0-2.4,0.6-2.4,2.4c0,6.5,0,13,0,19.6
		c0,1.9,0.6,2.5,2.5,2.5h25.1c8.5,0,17,0,25.5,0c1.7,0,2.3-0.6,2.3-2.3c0-6.6,0-13.1,0-19.7C91.7,96.4,91.1,95.8,89.3,95.8z
		 M88.1,115.5c0,0.9-0.2,1.1-1.1,1.1c-15.3,0-30.5,0-45.8,0c-0.9,0-1.2-0.2-1.1-1.1c0-5,0-9.9,0-14.9c0-0.9,0.2-1.1,1.1-1.1
		c7.6,0,15.3,0,22.9,0c7.6,0,15.2,0,22.8,0c1,0,1.3,0.2,1.3,1.3C88,105.6,88,110.6,88.1,115.5z M20,99.3c-4.7,0-8.7,3.9-8.8,8.7
		c-0.1,4.7,4,8.8,8.8,8.8c4.7,0,8.7-4,8.8-8.7C28.8,103.3,24.8,99.3,20,99.3z M19.9,113c-2.8,0-4.9-2.2-4.9-5c0-2.8,2.2-5,5-5
		c2.8,0,5.1,2.3,5.1,5.1C25,110.9,22.8,113.1,19.9,113z M88.4,63.9c-2-0.1-4-0.1-6.1,0c-1.1,0-1.9,0.9-1.9,1.9c0,1,0.8,1.8,1.9,1.8
		c1,0,2,0,3,0h2.8c0,0,0.1,0,0.1,0c1.2-0.1,2.1-0.9,2-1.9C90.3,64.7,89.5,63.9,88.4,63.9z M74.2,63.9c-2-0.1-4-0.1-6.1,0
		c-1.2,0-2,0.8-2,1.8c0,1,0.8,1.9,2,1.9c1,0,2,0,3,0c1,0,2,0,3,0c1.1,0,1.9-0.8,2-1.8C76.1,64.8,75.3,63.9,74.2,63.9z M60,63.9
		c-2.1-0.1-4.1-0.1-6.2,0c-1.1,0-1.9,0.9-1.9,1.9c0,1,0.8,1.8,2,1.8c1,0,2,0,3,0h2.8c0.1,0,0.2,0,0.3,0c1.1-0.1,2-0.9,1.9-1.9
		C61.7,64.6,61.1,63.9,60,63.9z M45.6,63.9c-2-0.1-4-0.1-5.9,0c-1.2,0-2,0.9-2,1.9c0.1,1.1,0.9,1.8,2.1,1.8c0.9,0,1.8,0,2.7,0
		c1,0,2,0,3,0c1.3,0,2.1-0.8,2.1-1.8C47.6,64.8,46.8,63.9,45.6,63.9z M125.9,88c-1.4,0-2.9-0.1-4.3,0c-1.1,0.1-1.5-0.1-1.4-1.4
		c0.1-1.7,0-3.4,0-5c0-1.9-0.5-2.4-2.5-2.4c-2.8,0-5.6,0-8.4,0c-0.9,0-1.1-0.2-1.1-1.1c0-8.3,0-16.6,0-24.9c0-0.8,0.2-1,1-1
		c2.9,0,5.8,0,8.7,0c1.6,0,2.3-0.7,2.3-2.3c0-2.5,0-5,0-7.5c0-2.3-0.5-2.8-2.8-2.8c-9.3,0-18.6,0-27.8,0c-1.3,0-1.5-0.4-1.5-1.6
		c0-11.9,0-23.7,0-35.6c0-2.1-0.5-2.6-2.6-2.6c-4.8,0-9.6,0-14.4,0c-2.3,0-2.7,0.4-2.7,2.7c0,11.9,0,23.7,0,35.6
		c0,1.1-0.1,1.5-1.4,1.4c-2-0.1-4.1-0.1-6.1,0c-1.1,0.1-1.4-0.2-1.4-1.4c0-11.9,0-23.8,0-35.8c0-2.2-0.5-2.6-2.7-2.6
		c-4.8,0-9.6,0-14.4,0c-2.2,0-2.7,0.5-2.7,2.6c0,12,0,23.9,0,35.9c0,0.9-0.2,1.2-1.2,1.2c-3.4-0.1-6.7,0-10.1,0
		c-6.1,0-12.3,0-18.4,0c-1.9,0-2.5,0.6-2.5,2.5c0,2.5,0,5.1,0,7.6c0,1.9,0.6,2.5,2.5,2.5c2.8,0,5.7,0,8.5,0c0.7,0,0.9,0.2,0.9,0.9
		c0,8.3,0,16.7,0,25c0,0.8-0.2,1-1,1c-2.9,0-5.8,0-8.7,0c-1.7,0-2.3,0.6-2.3,2.3c0,1.8,0,3.6,0,5.4c0,0.9-0.2,1.2-1.1,1.2
		c-1.3-0.1-2.7,0-4,0C0.5,88,0,88.5,0,90.7v34.7c0,2.2,0.5,2.6,2.6,2.6h61.3c20.6,0,41.1,0,61.7,0c1.8,0,2.4-0.5,2.4-2.2
		c0-11.9,0-23.7,0-35.6C128,88.7,127.4,88.1,125.9,88z M72,21.8c0-5.7,0-11.4,0-17.1c0-0.8,0.2-1.1,1.1-1.1c3.5,0.1,6.9,0,10.4,0
		c0.8,0,1,0.1,1,1c0,11.4,0,22.7,0,34.1c0,0.9-0.2,1.1-1.1,1.1c-3.5,0-6.9,0-10.4,0c-0.8,0-1-0.2-1-1C72,33.1,72,27.4,72,21.8z
		 M43.5,4.6c0-0.8,0.3-1,1-1c3.5,0,6.9,0,10.4,0c0.9,0,1.1,0.2,1.1,1.1c0,5.7,0,11.4,0,17.1c0,5.6,0,11.2,0,16.8
		c0,0.9-0.2,1.1-1.1,1.1c-3.4-0.1-6.8-0.1-10.2,0c-0.8,0-1.1-0.2-1.1-1.1C43.6,27.3,43.6,15.9,43.5,4.6z M13,48.6
		c-1.4,0-1.8-0.4-1.6-1.7c0.1-0.7,0.1-1.5,0-2.2c-0.1-1.1,0.3-1.2,1.3-1.2c14.7,0,29.4,0,44.2,0h7.3c17,0,34,0,51,0
		c1.3,0,1.6,0.4,1.5,1.6c-0.1,0.9-0.1,1.8,0,2.7c0.1,0.7-0.3,0.9-0.9,0.8c-0.3,0-0.5,0-0.8,0C81,48.5,47,48.5,13,48.6z M104.7,78.4
		c0,0.6-0.2,0.9-0.8,0.8c-1.1,0-2.2-0.1-3.2,0c-0.9,0.1-1.2-0.2-1.2-1.1c0.1-4.1,0-8.2,0-12.3c0-4.1,0-8.3,0-12.4
		c0-0.8,0.2-1.1,1-1.1c1.1,0.1,2.2,0,3.2,0c0.6,0,0.9,0.1,0.9,0.8C104.6,61.5,104.6,70,104.7,78.4z M95.8,77.9c0,1-0.2,1.3-1.3,1.3
		c-20.4,0-40.8,0-61.1,0c-1.1,0-1.3-0.4-1.3-1.3c0-8.1,0-16.2,0-24.3c0-1,0.3-1.3,1.3-1.3c10.2,0,20.4,0,30.6,0
		c10.1,0,20.3,0,30.4,0c1.2,0,1.4,0.3,1.4,1.4C95.8,61.8,95.8,69.9,95.8,77.9z M23.3,53.1c0-0.6,0.2-0.8,0.8-0.8
		c1.2,0,2.3,0.1,3.5,0c0.8,0,0.9,0.3,0.9,1c0,4.1,0,8.3,0,12.4c0,4.1,0,8.2,0,12.3c0,0.9-0.1,1.3-1.2,1.2c-1-0.1-2.1-0.1-3.1,0
		c-0.6,0-0.9-0.1-0.9-0.9C23.4,69.9,23.4,61.5,23.3,53.1z M11.6,83.1c0.7-0.8,2.3-0.2,3.5-0.2c16.3,0,32.6,0,49,0
		c17.1,0,34.2,0,51.3,0c1.1,0,1.4,0.2,1.3,1.3c-0.1,1,0,2.1,0,3.1c0,0.6-0.2,0.8-0.7,0.7c-0.3,0-0.5,0-0.8,0C81,88,47,88,12.9,88.1
		c-1.3,0-1.7-0.3-1.5-1.6C11.5,85.4,11,83.8,11.6,83.1z M124.4,123.1c0,1-0.2,1.3-1.2,1.3c-39.4,0-78.8,0-118.2,0
		c-1.1,0-1.3-0.3-1.3-1.3c0-10,0-20,0-30c0-1.1,0.2-1.3,1.3-1.3c19.7,0,39.5,0,59.2,0c19.6,0,39.3,0,58.9,0c1.2,0,1.4,0.3,1.4,1.4
		C124.4,103.1,124.4,113.1,124.4,123.1z M108.1,99.3c-4.8-0.1-8.9,3.9-8.9,8.7c0,4.8,4,8.8,8.8,8.8c4.7,0,8.7-4,8.8-8.7
		C116.9,103.4,112.9,99.3,108.1,99.3z M107.9,113c-2.8,0-5-2.3-5-5c0-2.8,2.2-5,5-5c2.8,0,5.1,2.2,5.1,5.1
		C113,110.9,110.8,113.1,107.9,113z M89.3,95.8c-16.9,0-33.8,0-50.6,0c-1.8,0-2.4,0.6-2.4,2.4c0,6.5,0,13,0,19.6
		c0,1.9,0.6,2.5,2.5,2.5h25.1c8.5,0,17,0,25.5,0c1.7,0,2.3-0.6,2.3-2.3c0-6.6,0-13.1,0-19.7C91.7,96.4,91.1,95.8,89.3,95.8z
		 M88.1,115.5c0,0.9-0.2,1.1-1.1,1.1c-15.3,0-30.5,0-45.8,0c-0.9,0-1.2-0.2-1.1-1.1c0-5,0-9.9,0-14.9c0-0.9,0.2-1.1,1.1-1.1
		c7.6,0,15.3,0,22.9,0c7.6,0,15.2,0,22.8,0c1,0,1.3,0.2,1.3,1.3C88,105.6,88,110.6,88.1,115.5z M88.4,63.9c-2-0.1-4-0.1-6.1,0
		c-1.1,0-1.9,0.9-1.9,1.9c0,1,0.8,1.8,1.9,1.8c1,0,2,0,3,0h2.8c0,0,0.1,0,0.1,0c1.2-0.1,2.1-0.9,2-1.9
		C90.3,64.7,89.5,63.9,88.4,63.9z M74.2,63.9c-2-0.1-4-0.1-6.1,0c-1.2,0-2,0.8-2,1.8c0,1,0.8,1.9,2,1.9c1,0,2,0,3,0c1,0,2,0,3,0
		c1.1,0,1.9-0.8,2-1.8C76.1,64.8,75.3,63.9,74.2,63.9z M60,63.9c-2.1-0.1-4.1-0.1-6.2,0c-1.1,0-1.9,0.9-1.9,1.9c0,1,0.8,1.8,2,1.8
		c1,0,2,0,3,0h2.8c0.1,0,0.2,0,0.3,0c1.1-0.1,2-0.9,1.9-1.9C61.7,64.6,61.1,63.9,60,63.9z M45.6,63.9c-2-0.1-4-0.1-5.9,0
		c-1.2,0-2,0.9-2,1.9c0.1,1.1,0.9,1.8,2.1,1.8c0.9,0,1.8,0,2.7,0c1,0,2,0,3,0c1.3,0,2.1-0.8,2.1-1.8C47.6,64.8,46.8,63.9,45.6,63.9z
		 M20,99.3c-4.7,0-8.7,3.9-8.8,8.7c-0.1,4.7,4,8.8,8.8,8.8c4.7,0,8.7-4,8.8-8.7C28.8,103.3,24.8,99.3,20,99.3z M19.9,113
		c-2.8,0-4.9-2.2-4.9-5c0-2.8,2.2-5,5-5c2.8,0,5.1,2.3,5.1,5.1C25,110.9,22.8,113.1,19.9,113z M45.6,63.9c-2-0.1-4-0.1-5.9,0
		c-1.2,0-2,0.9-2,1.9c0.1,1.1,0.9,1.8,2.1,1.8c0.9,0,1.8,0,2.7,0c1,0,2,0,3,0c1.3,0,2.1-0.8,2.1-1.8C47.6,64.8,46.8,63.9,45.6,63.9z
		 M61.8,65.7c-0.1-1.1-0.7-1.8-1.8-1.8c-2.1-0.1-4.1-0.1-6.2,0c-1.1,0-1.9,0.9-1.9,1.9c0,1,0.8,1.8,2,1.8c1,0,2,0,3,0h2.8
		c0.1,0,0.2,0,0.3,0C61,67.5,61.9,66.7,61.8,65.7z M74.2,63.9c-2-0.1-4-0.1-6.1,0c-1.2,0-2,0.8-2,1.8c0,1,0.8,1.9,2,1.9c1,0,2,0,3,0
		c1,0,2,0,3,0c1.1,0,1.9-0.8,2-1.8C76.1,64.8,75.3,63.9,74.2,63.9z M88.4,63.9c-2-0.1-4-0.1-6.1,0c-1.1,0-1.9,0.9-1.9,1.9
		c0,1,0.8,1.8,1.9,1.8c1,0,2,0,3,0h2.8c0,0,0.1,0,0.1,0c1.2-0.1,2.1-0.9,2-1.9C90.3,64.7,89.5,63.9,88.4,63.9z M20,99.3
		c-4.7,0-8.7,3.9-8.8,8.7c-0.1,4.7,4,8.8,8.8,8.8c4.7,0,8.7-4,8.8-8.7C28.8,103.3,24.8,99.3,20,99.3z M19.9,113
		c-2.8,0-4.9-2.2-4.9-5c0-2.8,2.2-5,5-5c2.8,0,5.1,2.3,5.1,5.1C25,110.9,22.8,113.1,19.9,113z M89.3,95.8c-16.9,0-33.8,0-50.6,0
		c-1.8,0-2.4,0.6-2.4,2.4c0,6.5,0,13,0,19.6c0,1.9,0.6,2.5,2.5,2.5h25.1c8.5,0,17,0,25.5,0c1.7,0,2.3-0.6,2.3-2.3
		c0-6.6,0-13.1,0-19.7C91.7,96.4,91.1,95.8,89.3,95.8z M88.1,115.5c0,0.9-0.2,1.1-1.1,1.1c-15.3,0-30.5,0-45.8,0
		c-0.9,0-1.2-0.2-1.1-1.1c0-5,0-9.9,0-14.9c0-0.9,0.2-1.1,1.1-1.1c7.6,0,15.3,0,22.9,0c7.6,0,15.2,0,22.8,0c1,0,1.3,0.2,1.3,1.3
		C88,105.6,88,110.6,88.1,115.5z M108.1,99.3c-4.8-0.1-8.9,3.9-8.9,8.7c0,4.8,4,8.8,8.8,8.8c4.7,0,8.7-4,8.8-8.7
		C116.9,103.4,112.9,99.3,108.1,99.3z M107.9,113c-2.8,0-5-2.3-5-5c0-2.8,2.2-5,5-5c2.8,0,5.1,2.2,5.1,5.1
		C113,110.9,110.8,113.1,107.9,113z M108.1,99.3c-4.8-0.1-8.9,3.9-8.9,8.7c0,4.8,4,8.8,8.8,8.8c4.7,0,8.7-4,8.8-8.7
		C116.9,103.4,112.9,99.3,108.1,99.3z M107.9,113c-2.8,0-5-2.3-5-5c0-2.8,2.2-5,5-5c2.8,0,5.1,2.2,5.1,5.1
		C113,110.9,110.8,113.1,107.9,113z M89.3,95.8c-16.9,0-33.8,0-50.6,0c-1.8,0-2.4,0.6-2.4,2.4c0,6.5,0,13,0,19.6
		c0,1.9,0.6,2.5,2.5,2.5h25.1c8.5,0,17,0,25.5,0c1.7,0,2.3-0.6,2.3-2.3c0-6.6,0-13.1,0-19.7C91.7,96.4,91.1,95.8,89.3,95.8z
		 M88.1,115.5c0,0.9-0.2,1.1-1.1,1.1c-15.3,0-30.5,0-45.8,0c-0.9,0-1.2-0.2-1.1-1.1c0-5,0-9.9,0-14.9c0-0.9,0.2-1.1,1.1-1.1
		c7.6,0,15.3,0,22.9,0c7.6,0,15.2,0,22.8,0c1,0,1.3,0.2,1.3,1.3C88,105.6,88,110.6,88.1,115.5z M88.4,63.9c-2-0.1-4-0.1-6.1,0
		c-1.1,0-1.9,0.9-1.9,1.9c0,1,0.8,1.8,1.9,1.8c1,0,2,0,3,0h2.8c0,0,0.1,0,0.1,0c1.2-0.1,2.1-0.9,2-1.9
		C90.3,64.7,89.5,63.9,88.4,63.9z M74.2,63.9c-2-0.1-4-0.1-6.1,0c-1.2,0-2,0.8-2,1.8c0,1,0.8,1.9,2,1.9c1,0,2,0,3,0c1,0,2,0,3,0
		c1.1,0,1.9-0.8,2-1.8C76.1,64.8,75.3,63.9,74.2,63.9z M61.8,65.7c-0.1-1.1-0.7-1.8-1.8-1.8c-2.1-0.1-4.1-0.1-6.2,0
		c-1.1,0-1.9,0.9-1.9,1.9c0,1,0.8,1.8,2,1.8c1,0,2,0,3,0h2.8c0.1,0,0.2,0,0.3,0C61,67.5,61.9,66.7,61.8,65.7z M45.6,63.9
		c-2-0.1-4-0.1-5.9,0c-1.2,0-2,0.9-2,1.9c0.1,1.1,0.9,1.8,2.1,1.8c0.9,0,1.8,0,2.7,0c1,0,2,0,3,0c1.3,0,2.1-0.8,2.1-1.8
		C47.6,64.8,46.8,63.9,45.6,63.9z M20,99.3c-4.7,0-8.7,3.9-8.8,8.7c-0.1,4.7,4,8.8,8.8,8.8c4.7,0,8.7-4,8.8-8.7
		C28.8,103.3,24.8,99.3,20,99.3z M19.9,113c-2.8,0-4.9-2.2-4.9-5c0-2.8,2.2-5,5-5c2.8,0,5.1,2.3,5.1,5.1
		C25,110.9,22.8,113.1,19.9,113z M45.6,63.9c-2-0.1-4-0.1-5.9,0c-1.2,0-2,0.9-2,1.9c0.1,1.1,0.9,1.8,2.1,1.8c0.9,0,1.8,0,2.7,0
		c1,0,2,0,3,0c1.3,0,2.1-0.8,2.1-1.8C47.6,64.8,46.8,63.9,45.6,63.9z M61.8,65.7c-0.1-1.1-0.7-1.8-1.8-1.8c-2.1-0.1-4.1-0.1-6.2,0
		c-1.1,0-1.9,0.9-1.9,1.9c0,1,0.8,1.8,2,1.8c1,0,2,0,3,0h2.8c0.1,0,0.2,0,0.3,0C61,67.5,61.9,66.7,61.8,65.7z M74.2,63.9
		c-2-0.1-4-0.1-6.1,0c-1.2,0-2,0.8-2,1.8c0,1,0.8,1.9,2,1.9c1,0,2,0,3,0c1,0,2,0,3,0c1.1,0,1.9-0.8,2-1.8
		C76.1,64.8,75.3,63.9,74.2,63.9z M88.4,63.9c-2-0.1-4-0.1-6.1,0c-1.1,0-1.9,0.9-1.9,1.9c0,1,0.8,1.8,1.9,1.8c1,0,2,0,3,0h2.8
		c0,0,0.1,0,0.1,0c1.2-0.1,2.1-0.9,2-1.9C90.3,64.7,89.5,63.9,88.4,63.9z M88.4,63.9c-2-0.1-4-0.1-6.1,0c-1.1,0-1.9,0.9-1.9,1.9
		c0,1,0.8,1.8,1.9,1.8c1,0,2,0,3,0h2.8c0,0,0.1,0,0.1,0c1.2-0.1,2.1-0.9,2-1.9C90.3,64.7,89.5,63.9,88.4,63.9z M74.2,63.9
		c-2-0.1-4-0.1-6.1,0c-1.2,0-2,0.8-2,1.8c0,1,0.8,1.9,2,1.9c1,0,2,0,3,0c1,0,2,0,3,0c1.1,0,1.9-0.8,2-1.8
		C76.1,64.8,75.3,63.9,74.2,63.9z M61.8,65.7c-0.1-1.1-0.7-1.8-1.8-1.8c-2.1-0.1-4.1-0.1-6.2,0c-1.1,0-1.9,0.9-1.9,1.9
		c0,1,0.8,1.8,2,1.8c1,0,2,0,3,0h2.8c0.1,0,0.2,0,0.3,0C61,67.5,61.9,66.7,61.8,65.7z M45.6,63.9c-2-0.1-4-0.1-5.9,0
		c-1.2,0-2,0.9-2,1.9c0.1,1.1,0.9,1.8,2.1,1.8c0.9,0,1.8,0,2.7,0c1,0,2,0,3,0c1.3,0,2.1-0.8,2.1-1.8C47.6,64.8,46.8,63.9,45.6,63.9z
		 M45.6,63.9c-2-0.1-4-0.1-5.9,0c-1.2,0-2,0.9-2,1.9c0.1,1.1,0.9,1.8,2.1,1.8c0.9,0,1.8,0,2.7,0c1,0,2,0,3,0c1.3,0,2.1-0.8,2.1-1.8
		C47.6,64.8,46.8,63.9,45.6,63.9z M61.8,65.7c-0.1-1.1-0.7-1.8-1.8-1.8c-2.1-0.1-4.1-0.1-6.2,0c-1.1,0-1.9,0.9-1.9,1.9
		c0,1,0.8,1.8,2,1.8c1,0,2,0,3,0h2.8c0.1,0,0.2,0,0.3,0C61,67.5,61.9,66.7,61.8,65.7z M74.2,63.9c-2-0.1-4-0.1-6.1,0
		c-1.2,0-2,0.8-2,1.8c0,1,0.8,1.9,2,1.9c1,0,2,0,3,0c1,0,2,0,3,0c1.1,0,1.9-0.8,2-1.8C76.1,64.8,75.3,63.9,74.2,63.9z M88.4,63.9
		c-2-0.1-4-0.1-6.1,0c-1.1,0-1.9,0.9-1.9,1.9c0,1,0.8,1.8,1.9,1.8c1,0,2,0,3,0h2.8c0,0,0.1,0,0.1,0c1.2-0.1,2.1-0.9,2-1.9
		C90.3,64.7,89.5,63.9,88.4,63.9z M88.4,63.9c-2-0.1-4-0.1-6.1,0c-1.1,0-1.9,0.9-1.9,1.9c0,1,0.8,1.8,1.9,1.8c1,0,2,0,3,0h2.8
		c0,0,0.1,0,0.1,0c1.2-0.1,2.1-0.9,2-1.9C90.3,64.7,89.5,63.9,88.4,63.9z M74.2,63.9c-2-0.1-4-0.1-6.1,0c-1.2,0-2,0.8-2,1.8
		c0,1,0.8,1.9,2,1.9c1,0,2,0,3,0c1,0,2,0,3,0c1.1,0,1.9-0.8,2-1.8C76.1,64.8,75.3,63.9,74.2,63.9z M61.8,65.7
		c-0.1-1.1-0.7-1.8-1.8-1.8c-2.1-0.1-4.1-0.1-6.2,0c-1.1,0-1.9,0.9-1.9,1.9c0,1,0.8,1.8,2,1.8c1,0,2,0,3,0h2.8c0.1,0,0.2,0,0.3,0
		C61,67.5,61.9,66.7,61.8,65.7z M45.6,63.9c-2-0.1-4-0.1-5.9,0c-1.2,0-2,0.9-2,1.9c0.1,1.1,0.9,1.8,2.1,1.8c0.9,0,1.8,0,2.7,0
		c1,0,2,0,3,0c1.3,0,2.1-0.8,2.1-1.8C47.6,64.8,46.8,63.9,45.6,63.9z"/>
	<path d="M20,99.3c-4.7,0-8.7,3.9-8.8,8.7c-0.1,4.7,4,8.8,8.8,8.8c4.7,0,8.7-4,8.8-8.7C28.8,103.3,24.8,99.3,20,99.3z M19.9,113
		c-2.8,0-4.9-2.2-4.9-5c0-2.8,2.2-5,5-5c2.8,0,5.1,2.3,5.1,5.1C25,110.9,22.8,113.1,19.9,113z"/>
	<path d="M89.3,95.8c-16.9,0-33.8,0-50.6,0c-1.8,0-2.4,0.6-2.4,2.4c0,6.5,0,13,0,19.6c0,1.9,0.6,2.5,2.5,2.5h25.1c8.5,0,17,0,25.5,0
		c1.7,0,2.3-0.6,2.3-2.3c0-6.6,0-13.1,0-19.7C91.7,96.4,91.1,95.8,89.3,95.8z M88.1,115.5c0,0.9-0.2,1.1-1.1,1.1
		c-15.3,0-30.5,0-45.8,0c-0.9,0-1.2-0.2-1.1-1.1c0-5,0-9.9,0-14.9c0-0.9,0.2-1.1,1.1-1.1c7.6,0,15.3,0,22.9,0c7.6,0,15.2,0,22.8,0
		c1,0,1.3,0.2,1.3,1.3C88,105.6,88,110.6,88.1,115.5z"/>
	<path d="M108.1,99.3c-4.8-0.1-8.9,3.9-8.9,8.7c0,4.8,4,8.8,8.8,8.8c4.7,0,8.7-4,8.8-8.7C116.9,103.4,112.9,99.3,108.1,99.3z
		 M107.9,113c-2.8,0-5-2.3-5-5c0-2.8,2.2-5,5-5c2.8,0,5.1,2.2,5.1,5.1C113,110.9,110.8,113.1,107.9,113z"/>
	<path d="M47.6,65.8c0,1.1-0.9,1.8-2.1,1.8c-1,0-2,0-3,0c-0.9,0-1.8,0-2.7,0c-1.3,0-2.1-0.7-2.1-1.8c-0.1-1,0.8-1.9,2-1.9
		c2-0.1,4-0.1,5.9,0C46.8,63.9,47.6,64.8,47.6,65.8z"/>
	<path d="M61.8,65.7c0.1,1-0.8,1.8-1.9,1.9c-0.1,0-0.2,0-0.3,0h-2.8c-1,0-2,0-3,0c-1.1-0.1-1.9-0.8-2-1.8c0-1,0.8-1.8,1.9-1.9
		c2.1-0.1,4.1,0,6.2,0C61.1,63.9,61.7,64.6,61.8,65.7z"/>
	<path d="M76.1,65.8c0,1-0.8,1.8-2,1.8c-1,0-2,0-3,0c-1,0-2,0-3,0c-1.2,0-2-0.9-2-1.9c0-1,0.8-1.8,2-1.8c2-0.1,4-0.1,6.1,0
		C75.3,63.9,76.1,64.8,76.1,65.8z"/>
	<path d="M90.3,65.7c0,1-0.8,1.8-2,1.9c0,0-0.1,0-0.1,0h-2.8c-1,0-2,0-3,0c-1.1-0.1-1.9-0.8-1.9-1.8c0-1,0.8-1.8,1.9-1.9
		c2-0.1,4-0.1,6.1,0C89.5,63.9,90.3,64.7,90.3,65.7z"/>
	<path d="M89.3,95.8c-16.9,0-33.8,0-50.6,0c-1.8,0-2.4,0.6-2.4,2.4c0,6.5,0,13,0,19.6c0,1.9,0.6,2.5,2.5,2.5h25.1c8.5,0,17,0,25.5,0
		c1.7,0,2.3-0.6,2.3-2.3c0-6.6,0-13.1,0-19.7C91.7,96.4,91.1,95.8,89.3,95.8z M88.1,115.5c0,0.9-0.2,1.1-1.1,1.1
		c-15.3,0-30.5,0-45.8,0c-0.9,0-1.2-0.2-1.1-1.1c0-5,0-9.9,0-14.9c0-0.9,0.2-1.1,1.1-1.1c7.6,0,15.3,0,22.9,0c7.6,0,15.2,0,22.8,0
		c1,0,1.3,0.2,1.3,1.3C88,105.6,88,110.6,88.1,115.5z"/>
	<path d="M108.1,99.3c-4.8-0.1-8.9,3.9-8.9,8.7c0,4.8,4,8.8,8.8,8.8c4.7,0,8.7-4,8.8-8.7C116.9,103.4,112.9,99.3,108.1,99.3z
		 M107.9,113c-2.8,0-5-2.3-5-5c0-2.8,2.2-5,5-5c2.8,0,5.1,2.2,5.1,5.1C113,110.9,110.8,113.1,107.9,113z"/>
	<path d="M20,99.3c-4.7,0-8.7,3.9-8.8,8.7c-0.1,4.7,4,8.8,8.8,8.8c4.7,0,8.7-4,8.8-8.7C28.8,103.3,24.8,99.3,20,99.3z M19.9,113
		c-2.8,0-4.9-2.2-4.9-5c0-2.8,2.2-5,5-5c2.8,0,5.1,2.3,5.1,5.1C25,110.9,22.8,113.1,19.9,113z"/>
	<path d="M47.6,65.8c0,1.1-0.9,1.8-2.1,1.8c-1,0-2,0-3,0c-0.9,0-1.8,0-2.7,0c-1.3,0-2.1-0.7-2.1-1.8c-0.1-1,0.8-1.9,2-1.9
		c2-0.1,4-0.1,5.9,0C46.8,63.9,47.6,64.8,47.6,65.8z"/>
	<path d="M59.9,67.6c-0.1,0-0.2,0-0.3,0h-2.8c-1,0-2,0-3,0c-1.1-0.1-1.9-0.8-2-1.8c0-1,0.8-1.8,1.9-1.9c2.1-0.1,4.1,0,6.2,0
		c1.1,0,1.7,0.7,1.8,1.8C61.9,66.7,61,67.5,59.9,67.6z"/>
	<path d="M76.1,65.8c0,1-0.8,1.8-2,1.8c-1,0-2,0-3,0c-1,0-2,0-3,0c-1.2,0-2-0.9-2-1.9c0-1,0.8-1.8,2-1.8c2-0.1,4-0.1,6.1,0
		C75.3,63.9,76.1,64.8,76.1,65.8z"/>
	<path d="M90.3,65.7c0,1-0.8,1.8-2,1.9c0,0-0.1,0-0.1,0h-2.8c-1,0-2,0-3,0c-1.1-0.1-1.9-0.8-1.9-1.8c0-1,0.8-1.8,1.9-1.9
		c2-0.1,4-0.1,6.1,0C89.5,63.9,90.3,64.7,90.3,65.7z"/>
</g>
</svg>
