<?xml version="1.0" encoding="utf-8"?>
<!-- Generator: Adobe Illustrator 28.0.0, SVG Export Plug-In . SVG Version: 6.00 Build 0)  -->
<svg version="1.1" id="Layer_1" xmlns="http://www.w3.org/2000/svg" xmlns:xlink="http://www.w3.org/1999/xlink" x="0px" y="0px"
	 viewBox="0 0 128 128" style="enable-background:new 0 0 128 128;" xml:space="preserve">
<g id="B2FRHZ.tif_1_">
	<g>
		<path d="M123.2,58.2c-5.4,33.1-46.3,49.1-72.6,28.4c-10-7.8-16.1-17.8-17.8-30.5c-0.2-1.5,0-4.3-2.7-3.9c-2.7,0.4-1.5,2.6-1.3,4.4
			c1.1,9.3,4.7,17.5,10.6,24.8c1,1.2,2.8,2.6,0.5,4c-1.8,1.1-2.3,5-5.8,2.8c-3.2-2-5.7-0.4-7.9,1.9c-6.2,6.2-12.5,12.5-18.7,18.7
			c-9.8,9.8-9.8,9.8-0.5,19.4h5c8.6-8.5,17.2-17.1,25.7-25.6c2.1-2.1,4.6-4.6,2.5-7.8c-2.6-4,1.4-4.8,2.9-6.6
			c1.9-2.4,3.3,0.4,4.4,1.3c6.5,5.2,13.9,8.3,22,9.8c14.9,2.7,28.1-1.5,40.2-10.2c2.9-1,5.1-2.9,6.2-5.9c1.9-2.7,3.9-5.4,5.8-8.2
			c1.9-0.7,2.3-2.6,3.1-4.2c2.4-4.3,2.2-9,3-13.6v-5C122.6,51.2,123.6,55.7,123.2,58.2z M10.9,123.5c-2.8,1.7-3.6-1.2-5.1-2.4
			c-1.2-1-2.8-2.2-1.1-4c0.3-0.3,0.5-1,2.3,0.3c0.8,0.8,2.6,2.7,4.4,4.6C12.1,122.6,11.4,123.2,10.9,123.5z M14.8,118.9
			c-2.2-1.6-4.4-3.3-5.6-5.8c-0.3-0.6,1-1.3,1.2-1.1c2.1,1.7,4,3.7,5.7,5.3C16,118.6,15.2,119.3,14.8,118.9z M26.6,107.9
			c-2.4,2.3-4.5,4.8-6.7,7.2c-7.1-6.2-6.8-9.7,1-14.1c3-1.7,3.7,2.3,5.5,3.4C28,105.3,28.1,106.4,26.6,107.9z M30.9,102.8
			c-2.3-1.5-4.3-3.4-5.7-5.8c-0.4-0.7,0.9-1.8,1.4-1.4c2.1,1.7,4.1,3.7,6,5.5C32.2,102.2,31.7,103.4,30.9,102.8z M36,98.1
			c-1.5,0.8-2-0.8-2.6-1.5c-1.2-1.4-3.3-2.2-3.4-4.4c0-0.3,0.7-0.6,0.9-0.8c1.5-0.2,6.1,4.3,5.9,5.5C36.7,97.3,36.4,97.9,36,98.1z"
			/>
		<path d="M127.9,46.1c-3.7,1.8-4.2-1-4.6-3.4c-1.3-8.4-4.7-15.9-10.3-22.2C100.7,6.4,85.2,1.2,67.3,5.6
			C48.5,10.2,37.2,22.8,33,41.7c-0.2,0.8-0.1,1.7-0.4,2.5c-0.4,1.2-0.7,3-2.4,2.6c-1.8-0.4-1.8-1.9-1.5-3.6
			c3-19,13.5-32.5,31.1-39.5c27.5-10.9,57,3.8,66.2,32c0.7,2.1,0.1,4.7,1.9,6.4C127.9,43.4,127.9,44.7,127.9,46.1z"/>
		<path d="M56.7,50.3c-0.9,2.5-1.7,5-2.9,7.3c-1,1.8-2.9,2.6-6.4,2.5c0.3,0-0.8,0.3-1.3-1c-0.4-1.1-0.1-2.3,1-2.4
			c4.7-0.5,4.3-4.8,5.7-7.7c0.8-1.5,1.2-3.5,3.4-2.6C57.9,47,57.2,48.9,56.7,50.3z"/>
		<path d="M76.6,25c-0.4,1.1-1,1.8-2,2c-12.5,3.1-21.1,10.5-25.8,22.6c-0.4,1.2-1.3,2.2-2.6,1.8c-1.7-0.5-1.4-2-1.2-3.3
			C47.2,38,62.6,24.3,73.3,23.2C74.9,23,76.3,23,76.6,25z"/>
		<path d="M83.4,65.6c-0.1,6.7-4.2,11.9-10.6,15.6c-1.3,0.8-2.7,1.9-3.9,0.3c-1.4-2,0.5-2.9,1.9-3.7c5.3-3.2,8.6-7.5,8.6-14
			c0-1.6,0.2-3.8,2.5-3.4C83.8,60.8,83.8,62.9,83.4,65.6z"/>
		<path d="M92.5,48.8c-0.5,2-1.6,2.5-3.6,1.5c-2.9-1.5-5.9-2.7-9.5-1.8c-6.4,1.7-9.9,5.5-10.5,12c-0.7,7-5.5,11.9-12.4,12.7
			c-1.5,0.2-2.8,0.2-3.2-1.4c-0.3-1.4,1-2.2,2-2.4c6.8-1.5,9.1-5.6,10.1-12.5c1.5-11,15.9-16.3,25.1-10.2
			C91.4,47.2,92.2,47.7,92.5,48.8z"/>
		<path d="M92.1,63.8c-0.3,6.1-1.8,11.8-5.6,16.7c-0.9,1.2-1.9,3.4-3.9,2c-1.8-1.3-0.5-2.9,0.5-4.3c3.5-4.7,4.8-10.1,4.8-15.9
			c0-4-1.5-6.9-5.7-7.3c-4.6-0.4-6.8,2.4-7,6.6c-0.4,7.7-4.4,12.6-11,15.8c-1.4,0.7-3.2,2.1-4.4,0.1c-1.2-2.1,0.8-2.8,2.3-3.5
			c5.4-2.7,8.7-6.5,9-13.1c0.4-6.8,5.4-10.5,11.8-9.9C89,51.7,92.4,56.5,92.1,63.8z"/>
		<path d="M96.4,77.2c-0.4,1.1-1,2.2-2.5,1.8c-1.6-0.5-1.8-1.5-1.3-3.1c2-6.2,3.3-12.5,1.5-19c-0.4-1.3,0.4-2.4,1.6-2.6
			c1.4-0.2,1.8,0.9,2.4,2c1.1,2.4,0.7,4.9,0.8,7.3C99.2,68.4,97.9,72.8,96.4,77.2z"/>
		<path d="M104.8,32.4c-0.8,1.2-2.1,0.9-3.1,0.2c-5.3-3.6-11.2-5.4-17.5-6.3c-1.4-0.2-2.8-0.5-2.4-2.3c0.3-1.7,1.7-1.8,3.1-1.6
			c6.8,0.8,13.2,2.9,18.9,6.8C105,30,105.8,31,104.8,32.4z"/>
		<path d="M103.7,69.6c-3.4,0-1.6-4.4-1.7-6.7c-0.2-11.8-7.5-20.7-18.2-21.8C72.9,40,63,48.1,61.7,58.8c-0.6,5.3-4.6,8.1-10.2,8.2
			c-1.2,0-2.5,0-2.7-1.4c-0.2-1.3,0.5-2.4,1.9-2.5c5.9-0.1,6.8-4.1,8.1-8.7c3.3-11.9,14.7-19,26.7-17.2c12,1.8,20.5,12.4,20.4,25.9
			C105,65.1,107.8,69.6,103.7,69.6z"/>
		<path d="M109.5,55.9c-1.9,0.5-2.2-1.4-2.8-2.8c-5.4-13.4-13.4-19.5-25.3-19.4c-6.7,0-12.6,2.2-17.7,6.7c-1.3,1.1-2.9,3.2-4.6,1.3
			c-1.7-1.9,0.7-3.2,2-4.3c16.6-15.1,43.6-7.2,49.4,14.5C111,53.3,111.9,55.4,109.5,55.9z"/>
		<path d="M79.3,8C56.4,7.2,36.7,25.5,36,48.3C35.3,71.5,53.3,91.3,75.9,92c24.5,0.8,43.5-17,44.3-41.3C120.9,28,102.6,8.8,79.3,8z
			 M78.2,88.1c-21.1,0-38.4-17.3-38.2-38.4C40.1,28.8,57.3,11.9,78.3,12c21,0.1,37.8,17,37.8,38.1C116.1,71.1,99.2,88,78.2,88.1z"/>
		<path d="M106,113.8c-4.3,1.5-6.8,5.7-11.1,7.2c-1.5,0.5-3.1,2.1-4.3,0.1c-1.3-2.2,0.9-2.8,2.3-3.5c5.9-3.1,10.4-7.5,13.7-13.3
			c2.4-4.1,12-4,14.7-0.1c1.1,1.6,0.2,2.6-1.4,2.7c-1.1,0.1-2.3-0.3-3.3-0.7c-6.3-2-6.3-2-8.5,4.6
			C108.6,112.7,107.4,113.4,106,113.8z"/>
		<path d="M79.2,119c-1.2,0.2-2.4-0.1-2.7-1.4c-0.2-1.2,0.5-2.2,1.9-2.5c1.4-0.4,2.9-0.7,4.3-1.1c9-2.4,15.7-7.5,19.1-16.4
			c0.6-1.6,0.9-4.2,3.3-3.3c2.4,0.9,0.9,3.1,0.4,4.7C101.5,109.7,89.7,118.7,79.2,119z"/>
		<path d="M71.1,113c-1.5,0-2.9,0.2-3.1-1.3c-0.3-1.6,0.7-2.4,2.2-2.6c8.4-1.3,16.6-3.3,22.8-9.8c0.7-0.8,1.9-0.9,2.7,0
			c0.7,0.8,0.7,2-0.1,2.7c-1.4,1.4-2.8,2.9-4.4,4C85.1,110.3,78,112,71.1,113z"/>
		<path d="M118.9,94.9c1.9,1.5,7,0.1,5.8,4c-0.9,3.1-4.6,0.5-6.9,0c-8.1-1.7-9.1-3.3-7-9.9c1.5-1.2,3.1-0.8,3.6,0.8
			C115.3,92.2,117.4,93.3,118.9,94.9z"/>
		<path d="M116.9,83c2.5-0.2,3.2,1.4,3,3.5c-0.3,2.6,0.9,3.6,3.4,3.4c1.4-0.1,3.4-0.2,3.4,1.9c0,2.3-2.1,2.1-3.8,2.1
			c-1.3,0-2.7-0.1-4-0.1C114,91.7,113.2,87.5,116.9,83z"/>
		<path d="M106,113.8c0.7-1,1.3-2,2-2.9c2.4-1,4.5-3.7,7.5-1.6c0.6,0.4,1.1,1.2,1.3,1.9c0.2,0.9-0.6,1.8-1.4,1.7
			c-2.7-0.4-3.6,1.7-5,3.2c-1.1,1.2-1.9,3.5-4.2,2.2C103.9,116.9,106.1,115.3,106,113.8z"/>
		<path d="M67,106.4c-1.4,0.2-2.8,0.2-3.1-1.5c-0.4-1.9,1.2-2.2,2.5-2.4c3.1-0.5,6.2-0.9,9.3-1.3c1.4-0.2,2.9-0.1,3.2,1.5
			c0.3,1.6-1.1,2.2-2.5,2.4c-1.1,0.2-2.2,0.7-3.4,0.8C70.9,106.1,68.9,106.2,67,106.4z"/>
		<path d="M122,75.1c2.2-0.4,3.5,0.1,4.2,2.7c0.8,3.1,0.7,6.1,0.9,9.2c-2,1.7-3.5,1.1-3.9-1.2C122.5,82.3,122.3,78.7,122,75.1z"/>
		<path d="M56.7,50.3c-0.9,2.5-1.7,5-2.9,7.3c-1,1.8-2.9,2.6-6.4,2.5c0.3,0-0.8,0.3-1.3-1c-0.4-1.1-0.1-2.3,1-2.4
			c4.7-0.5,4.3-4.8,5.7-7.7c0.8-1.5,1.2-3.5,3.4-2.6C57.9,47,57.2,48.9,56.7,50.3z"/>
		<path d="M76.6,25c-0.4,1.1-1,1.8-2,2c-12.5,3.1-21.1,10.5-25.8,22.6c-0.4,1.2-1.3,2.2-2.6,1.8c-1.7-0.5-1.4-2-1.2-3.3
			C47.2,38,62.6,24.3,73.3,23.2C74.9,23,76.3,23,76.6,25z"/>
		<path d="M83.4,65.6c-0.1,6.7-4.2,11.9-10.6,15.6c-1.3,0.8-2.7,1.9-3.9,0.3c-1.4-2,0.5-2.9,1.9-3.7c5.3-3.2,8.6-7.5,8.6-14
			c0-1.6,0.2-3.8,2.5-3.4C83.8,60.8,83.8,62.9,83.4,65.6z"/>
		<path d="M92.5,48.8c-0.5,2-1.6,2.5-3.6,1.5c-2.9-1.5-5.9-2.7-9.5-1.8c-6.4,1.7-9.9,5.5-10.5,12c-0.7,7-5.5,11.9-12.4,12.7
			c-1.5,0.2-2.8,0.2-3.2-1.4c-0.3-1.4,1-2.2,2-2.4c6.8-1.5,9.1-5.6,10.1-12.5c1.5-11,15.9-16.3,25.1-10.2
			C91.4,47.2,92.2,47.7,92.5,48.8z"/>
		<path d="M92.1,63.8c-0.3,6.1-1.8,11.8-5.6,16.7c-0.9,1.2-1.9,3.4-3.9,2c-1.8-1.3-0.5-2.9,0.5-4.3c3.5-4.7,4.8-10.1,4.8-15.9
			c0-4-1.5-6.9-5.7-7.3c-4.6-0.4-6.8,2.4-7,6.6c-0.4,7.7-4.4,12.6-11,15.8c-1.4,0.7-3.2,2.1-4.4,0.1c-1.2-2.1,0.8-2.8,2.3-3.5
			c5.4-2.7,8.7-6.5,9-13.1c0.4-6.8,5.4-10.5,11.8-9.9C89,51.7,92.4,56.5,92.1,63.8z"/>
		<path d="M96.4,77.2c-0.4,1.1-1,2.2-2.5,1.8c-1.6-0.5-1.8-1.5-1.3-3.1c2-6.2,3.3-12.5,1.5-19c-0.4-1.3,0.4-2.4,1.6-2.6
			c1.4-0.2,1.8,0.9,2.4,2c1.1,2.4,0.7,4.9,0.8,7.3C99.2,68.4,97.9,72.8,96.4,77.2z"/>
		<path d="M104.8,32.4c-0.8,1.2-2.1,0.9-3.1,0.2c-5.3-3.6-11.2-5.4-17.5-6.3c-1.4-0.2-2.8-0.5-2.4-2.3c0.3-1.7,1.7-1.8,3.1-1.6
			c6.8,0.8,13.2,2.9,18.9,6.8C105,30,105.8,31,104.8,32.4z"/>
		<path d="M103.7,69.6c-3.4,0-1.6-4.4-1.7-6.7c-0.2-11.8-7.5-20.7-18.2-21.8C72.9,40,63,48.1,61.7,58.8c-0.6,5.3-4.6,8.1-10.2,8.2
			c-1.2,0-2.5,0-2.7-1.4c-0.2-1.3,0.5-2.4,1.9-2.5c5.9-0.1,6.8-4.1,8.1-8.7c3.3-11.9,14.7-19,26.7-17.2c12,1.8,20.5,12.4,20.4,25.9
			C105,65.1,107.8,69.6,103.7,69.6z"/>
		<path d="M109.5,55.9c-1.9,0.5-2.2-1.4-2.8-2.8c-5.4-13.4-13.4-19.5-25.3-19.4c-6.7,0-12.6,2.2-17.7,6.7c-1.3,1.1-2.9,3.2-4.6,1.3
			c-1.7-1.9,0.7-3.2,2-4.3c16.6-15.1,43.6-7.2,49.4,14.5C111,53.3,111.9,55.4,109.5,55.9z"/>
		<path d="M103.7,69.6c-3.4,0-1.6-4.4-1.7-6.7c-0.2-11.8-7.5-20.7-18.2-21.8C72.9,40,63,48.1,61.7,58.8c-0.6,5.3-4.6,8.1-10.2,8.2
			c-1.2,0-2.5,0-2.7-1.4c-0.2-1.3,0.5-2.4,1.9-2.5c5.9-0.1,6.8-4.1,8.1-8.7c3.3-11.9,14.7-19,26.7-17.2c12,1.8,20.5,12.4,20.4,25.9
			C105,65.1,107.8,69.6,103.7,69.6z"/>
		<path d="M92.1,63.8c-0.3,6.1-1.8,11.8-5.6,16.7c-0.9,1.2-1.9,3.4-3.9,2c-1.8-1.3-0.5-2.9,0.5-4.3c3.5-4.7,4.8-10.1,4.8-15.9
			c0-4-1.5-6.9-5.7-7.3c-4.6-0.4-6.8,2.4-7,6.6c-0.4,7.7-4.4,12.6-11,15.8c-1.4,0.7-3.2,2.1-4.4,0.1c-1.2-2.1,0.8-2.8,2.3-3.5
			c5.4-2.7,8.7-6.5,9-13.1c0.4-6.8,5.4-10.5,11.8-9.9C89,51.7,92.4,56.5,92.1,63.8z"/>
		<path d="M109.5,55.9c-1.9,0.5-2.2-1.4-2.8-2.8c-5.4-13.4-13.4-19.5-25.3-19.4c-6.7,0-12.6,2.2-17.7,6.7c-1.3,1.1-2.9,3.2-4.6,1.3
			c-1.7-1.9,0.7-3.2,2-4.3c16.6-15.1,43.6-7.2,49.4,14.5C111,53.3,111.9,55.4,109.5,55.9z"/>
		<path d="M92.5,48.8c-0.5,2-1.6,2.5-3.6,1.5c-2.9-1.5-5.9-2.7-9.5-1.8c-6.4,1.7-9.9,5.5-10.5,12c-0.7,7-5.5,11.9-12.4,12.7
			c-1.5,0.2-2.8,0.2-3.2-1.4c-0.3-1.4,1-2.2,2-2.4c6.8-1.5,9.1-5.6,10.1-12.5c1.5-11,15.9-16.3,25.1-10.2
			C91.4,47.2,92.2,47.7,92.5,48.8z"/>
		<path d="M76.6,25c-0.4,1.1-1,1.8-2,2c-12.5,3.1-21.1,10.5-25.8,22.6c-0.4,1.2-1.3,2.2-2.6,1.8c-1.7-0.5-1.4-2-1.2-3.3
			C47.2,38,62.6,24.3,73.3,23.2C74.9,23,76.3,23,76.6,25z"/>
		<path d="M83.4,65.6c-0.1,6.7-4.2,11.9-10.6,15.6c-1.3,0.8-2.7,1.9-3.9,0.3c-1.4-2,0.5-2.9,1.9-3.7c5.3-3.2,8.6-7.5,8.6-14
			c0-1.6,0.2-3.8,2.5-3.4C83.8,60.8,83.8,62.9,83.4,65.6z"/>
		<path d="M96.4,77.2c-0.4,1.1-1,2.2-2.5,1.8c-1.6-0.5-1.8-1.5-1.3-3.1c2-6.2,3.3-12.5,1.5-19c-0.4-1.3,0.4-2.4,1.6-2.6
			c1.4-0.2,1.8,0.9,2.4,2c1.1,2.4,0.7,4.9,0.8,7.3C99.2,68.4,97.9,72.8,96.4,77.2z"/>
		<path d="M104.8,32.4c-0.8,1.2-2.1,0.9-3.1,0.2c-5.3-3.6-11.2-5.4-17.5-6.3c-1.4-0.2-2.8-0.5-2.4-2.3c0.3-1.7,1.7-1.8,3.1-1.6
			c6.8,0.8,13.2,2.9,18.9,6.8C105,30,105.8,31,104.8,32.4z"/>
		<path d="M56.7,50.3c-0.9,2.5-1.7,5-2.9,7.3c-1,1.8-2.9,2.6-6.4,2.5c0.3,0-0.8,0.3-1.3-1c-0.4-1.1-0.1-2.3,1-2.4
			c4.7-0.5,4.3-4.8,5.7-7.7c0.8-1.5,1.2-3.5,3.4-2.6C57.9,47,57.2,48.9,56.7,50.3z"/>
	</g>
</g>
</svg>
