<?xml version="1.0" encoding="utf-8"?>
<!-- Generator: Adobe Illustrator 28.0.0, SVG Export Plug-In . SVG Version: 6.00 Build 0)  -->
<svg version="1.1" id="Layer_1" xmlns="http://www.w3.org/2000/svg" xmlns:xlink="http://www.w3.org/1999/xlink" x="0px" y="0px"
	 viewBox="0 0 128 128" style="enable-background:new 0 0 128 128;" xml:space="preserve">
<g id="HzxTZ6.tif">
	<g>
		<path d="M63.9,49.1c-7.1,0-12.7,5.7-12.7,12.8c0,7.1,5.7,12.8,12.8,12.8c7.1,0,12.8-5.7,12.8-12.8C76.8,54.7,71.1,49.1,63.9,49.1z
			 M63.9,70.4c-4.7,0-8.6-4-8.5-8.6c0.1-4.6,4-8.4,8.6-8.4c4.7,0,8.6,4,8.5,8.6C72.4,66.6,68.5,70.4,63.9,70.4z M63.9,49.1
			c-7.1,0-12.7,5.7-12.7,12.8c0,7.1,5.7,12.8,12.8,12.8c7.1,0,12.8-5.7,12.8-12.8C76.8,54.7,71.1,49.1,63.9,49.1z M63.9,70.4
			c-4.7,0-8.6-4-8.5-8.6c0.1-4.6,4-8.4,8.6-8.4c4.7,0,8.6,4,8.5,8.6C72.4,66.6,68.5,70.4,63.9,70.4z M63.9,49.1
			c-7.1,0-12.7,5.7-12.7,12.8c0,7.1,5.7,12.8,12.8,12.8c7.1,0,12.8-5.7,12.8-12.8C76.8,54.7,71.1,49.1,63.9,49.1z M63.9,70.4
			c-4.7,0-8.6-4-8.5-8.6c0.1-4.6,4-8.4,8.6-8.4c4.7,0,8.6,4,8.5,8.6C72.4,66.6,68.5,70.4,63.9,70.4z M63.9,49.1
			c-7.1,0-12.7,5.7-12.7,12.8c0,7.1,5.7,12.8,12.8,12.8c7.1,0,12.8-5.7,12.8-12.8C76.8,54.7,71.1,49.1,63.9,49.1z M63.9,70.4
			c-4.7,0-8.6-4-8.5-8.6c0.1-4.6,4-8.4,8.6-8.4c4.7,0,8.6,4,8.5,8.6C72.4,66.6,68.5,70.4,63.9,70.4z M64,40.5
			c-11.9,0-21.4,9.4-21.4,21.3c0,11.9,9.5,21.4,21.3,21.3c11.8,0,21.3-9.5,21.3-21.2C85.3,50.1,75.9,40.5,64,40.5z M64,78.9
			c-9.3,0-17.1-7.7-17.1-17.1c0-9.3,7.7-17,17-17c9.3,0,17.1,7.7,17.1,17.1C81,71.2,73.3,78.9,64,78.9z M63.9,49.1
			c-7.1,0-12.7,5.7-12.7,12.8c0,7.1,5.7,12.8,12.8,12.8c7.1,0,12.8-5.7,12.8-12.8C76.8,54.7,71.1,49.1,63.9,49.1z M63.9,70.4
			c-4.7,0-8.6-4-8.5-8.6c0.1-4.6,4-8.4,8.6-8.4c4.7,0,8.6,4,8.5,8.6C72.4,66.6,68.5,70.4,63.9,70.4z M63.9,49.1
			c-7.1,0-12.7,5.7-12.7,12.8c0,7.1,5.7,12.8,12.8,12.8c7.1,0,12.8-5.7,12.8-12.8C76.8,54.7,71.1,49.1,63.9,49.1z M63.9,70.4
			c-4.7,0-8.6-4-8.5-8.6c0.1-4.6,4-8.4,8.6-8.4c4.7,0,8.6,4,8.5,8.6C72.4,66.6,68.5,70.4,63.9,70.4z M63.9,49.1
			c-7.1,0-12.7,5.7-12.7,12.8c0,7.1,5.7,12.8,12.8,12.8c7.1,0,12.8-5.7,12.8-12.8C76.8,54.7,71.1,49.1,63.9,49.1z M63.9,70.4
			c-4.7,0-8.6-4-8.5-8.6c0.1-4.6,4-8.4,8.6-8.4c4.7,0,8.6,4,8.5,8.6C72.4,66.6,68.5,70.4,63.9,70.4z M63.9,49.1
			c-7.1,0-12.7,5.7-12.7,12.8c0,7.1,5.7,12.8,12.8,12.8c7.1,0,12.8-5.7,12.8-12.8C76.8,54.7,71.1,49.1,63.9,49.1z M63.9,70.4
			c-4.7,0-8.6-4-8.5-8.6c0.1-4.6,4-8.4,8.6-8.4c4.7,0,8.6,4,8.5,8.6C72.4,66.6,68.5,70.4,63.9,70.4z M63.9,49.1
			c-7.1,0-12.7,5.7-12.7,12.8c0,7.1,5.7,12.8,12.8,12.8c7.1,0,12.8-5.7,12.8-12.8C76.8,54.7,71.1,49.1,63.9,49.1z M63.9,70.4
			c-4.7,0-8.6-4-8.5-8.6c0.1-4.6,4-8.4,8.6-8.4c4.7,0,8.6,4,8.5,8.6C72.4,66.6,68.5,70.4,63.9,70.4z M64,40.5
			c-11.9,0-21.4,9.4-21.4,21.3c0,11.9,9.5,21.4,21.3,21.3c11.8,0,21.3-9.5,21.3-21.2C85.3,50.1,75.9,40.5,64,40.5z M64,78.9
			c-9.3,0-17.1-7.7-17.1-17.1c0-9.3,7.7-17,17-17c9.3,0,17.1,7.7,17.1,17.1C81,71.2,73.3,78.9,64,78.9z M63.9,49.1
			c-7.1,0-12.7,5.7-12.7,12.8c0,7.1,5.7,12.8,12.8,12.8c7.1,0,12.8-5.7,12.8-12.8C76.8,54.7,71.1,49.1,63.9,49.1z M63.9,70.4
			c-4.7,0-8.6-4-8.5-8.6c0.1-4.6,4-8.4,8.6-8.4c4.7,0,8.6,4,8.5,8.6C72.4,66.6,68.5,70.4,63.9,70.4z M63.9,49.1
			c-7.1,0-12.7,5.7-12.7,12.8c0,7.1,5.7,12.8,12.8,12.8c7.1,0,12.8-5.7,12.8-12.8C76.8,54.7,71.1,49.1,63.9,49.1z M63.9,70.4
			c-4.7,0-8.6-4-8.5-8.6c0.1-4.6,4-8.4,8.6-8.4c4.7,0,8.6,4,8.5,8.6C72.4,66.6,68.5,70.4,63.9,70.4z M63.9,49.1
			c-7.1,0-12.7,5.7-12.7,12.8c0,7.1,5.7,12.8,12.8,12.8c7.1,0,12.8-5.7,12.8-12.8C76.8,54.7,71.1,49.1,63.9,49.1z M63.9,70.4
			c-4.7,0-8.6-4-8.5-8.6c0.1-4.6,4-8.4,8.6-8.4c4.7,0,8.6,4,8.5,8.6C72.4,66.6,68.5,70.4,63.9,70.4z M63.9,49.1
			c-7.1,0-12.7,5.7-12.7,12.8c0,7.1,5.7,12.8,12.8,12.8c7.1,0,12.8-5.7,12.8-12.8C76.8,54.7,71.1,49.1,63.9,49.1z M63.9,70.4
			c-4.7,0-8.6-4-8.5-8.6c0.1-4.6,4-8.4,8.6-8.4c4.7,0,8.6,4,8.5,8.6C72.4,66.6,68.5,70.4,63.9,70.4z M63.9,49.1
			c-7.1,0-12.7,5.7-12.7,12.8c0,7.1,5.7,12.8,12.8,12.8c7.1,0,12.8-5.7,12.8-12.8C76.8,54.7,71.1,49.1,63.9,49.1z M63.9,70.4
			c-4.7,0-8.6-4-8.5-8.6c0.1-4.6,4-8.4,8.6-8.4c4.7,0,8.6,4,8.5,8.6C72.4,66.6,68.5,70.4,63.9,70.4z M64,40.5
			c-11.9,0-21.4,9.4-21.4,21.3c0,11.9,9.5,21.4,21.3,21.3c11.8,0,21.3-9.5,21.3-21.2C85.3,50.1,75.9,40.5,64,40.5z M64,78.9
			c-9.3,0-17.1-7.7-17.1-17.1c0-9.3,7.7-17,17-17c9.3,0,17.1,7.7,17.1,17.1C81,71.2,73.3,78.9,64,78.9z M63.9,49.1
			c-7.1,0-12.7,5.7-12.7,12.8c0,7.1,5.7,12.8,12.8,12.8c7.1,0,12.8-5.7,12.8-12.8C76.8,54.7,71.1,49.1,63.9,49.1z M63.9,70.4
			c-4.7,0-8.6-4-8.5-8.6c0.1-4.6,4-8.4,8.6-8.4c4.7,0,8.6,4,8.5,8.6C72.4,66.6,68.5,70.4,63.9,70.4z M64,40.5
			c-11.9,0-21.4,9.4-21.4,21.3c0,11.9,9.5,21.4,21.3,21.3c11.8,0,21.3-9.5,21.3-21.2C85.3,50.1,75.9,40.5,64,40.5z M64,78.9
			c-9.3,0-17.1-7.7-17.1-17.1c0-9.3,7.7-17,17-17c9.3,0,17.1,7.7,17.1,17.1C81,71.2,73.3,78.9,64,78.9z M63.9,49.1
			c-7.1,0-12.7,5.7-12.7,12.8c0,7.1,5.7,12.8,12.8,12.8c7.1,0,12.8-5.7,12.8-12.8C76.8,54.7,71.1,49.1,63.9,49.1z M63.9,70.4
			c-4.7,0-8.6-4-8.5-8.6c0.1-4.6,4-8.4,8.6-8.4c4.7,0,8.6,4,8.5,8.6C72.4,66.6,68.5,70.4,63.9,70.4z M124.5,80.3
			c-0.5-0.9-0.8-1.7-0.8-2.8c0-7.4,0-14.8,0-22.3c0-3.1-0.4-6.1-1-9.1c-4.5-19.8-23.5-34-45.2-30.9c-13.6,1.9-23.7,9.3-30.3,21.4
			c-0.3,0.5-0.6,0.9-1,1.2C31.4,49,30,70.2,43.1,83.3c1.4,1.4,3.1,2.6,4.7,3.8c-2.3,0.5-4.6,0.4-6.7,0c-9.4-2-15.5-9.6-15.5-19.2
			c0-4.3,0.2-8.5-0.1-12.8c-0.2-4.1,0.3-7.8,3.1-11c0.7-0.9,1.2-2,1.2-3.2c0-4.4,0-8.7,0-13.1c0-1.3-0.8-2.1-2.1-2.2
			c-0.3,0-0.5,0-0.8,0c-1.2,0.2-1.4-0.3-1.3-1.4c0.1-1.6,0-3.3,0-4.9c0-1.4-0.8-2.2-2.1-2.2c-1.4,0-2.2,0.8-2.2,2.2c0,1.5,0,3,0,4.5
			c0,1.7,0,1.7-1.7,1.8c-1.8,0-2.5,0.7-2.6,2.6c0,2.7-0.2,5.4,0,8.1c0.2,2.3-0.9,3.8-2.2,5.6c-1.3-1.8-2.4-3.4-2.2-5.7
			c0.2-2.6,0.1-5.2,0-7.9c0-2-0.7-2.7-2.7-2.7c-0.2,0-0.4,0-0.7,0c-0.7,0.1-0.9-0.2-0.9-0.9c0-1.8,0-3.6,0-5.3
			c0-1.5-0.8-2.3-2.1-2.3c-1.3,0-2.1,0.8-2.2,2.3c0,1.8,0,3.6,0,5.3c0,0.8-0.2,1-1,0.9c-1.3-0.2-2.6,0-3.3,1.3v14.7
			c0.9,2.1,2.2,3.9,3.4,5.8c0.6,1,0.9,1.9,0.9,3.1c0,6.2,0,12.3,0,18.5c0,2.2,0.2,4.4,0.6,6.5c4,21.5,23.9,36,45.5,32.9
			c13.5-2,23.6-9.1,30.2-21.1c0.3-0.6,0.7-1.2,1.3-1.6C98.2,73.7,97.7,48.8,81,37.3c-0.3-0.2-0.7-0.3-0.8-0.7
			c2.3-0.5,4.5-0.4,6.7,0.1c9.4,2,15.5,9.6,15.5,19.2c0,5.6-0.2,11.3,0.1,16.9c0.2,4.1-0.2,7.9-3.1,11.1c-0.7,0.9-1.2,2-1.2,3.2
			c0,4.4,0,8.7,0,13.1c0,1.1,0.5,1.8,1.5,2.1c0.5,0.2,1.1,0.1,1.6,0.1c0.9-0.1,1.2,0.1,1.2,1.1c-0.1,1.8,0,3.6,0,5.3
			c0,1.3,0.8,2.1,2.1,2.1c1.3,0,2.2-0.8,2.2-2.1c0-1.6,0-3.1,0-4.7c0-1.7,0-1.7,1.7-1.8c1.8,0,2.5-0.7,2.5-2.6c0-2.8,0.1-5.5,0-8.3
			c-0.1-2.2,1-3.7,2.2-5.4c1.3,1.8,2.3,3.5,2.2,5.8c-0.2,2.7-0.1,5.5,0,8.3c0,1.4,0.8,2.2,2.2,2.2c0.3,0,0.6,0,0.9,0
			c1-0.2,1.2,0.2,1.1,1.2c-0.1,1.7,0,3.5,0,5.2c0,1.4,0.8,2.2,2.1,2.2c1.3,0,2.1-0.8,2.1-2.2c0-1.6,0-3.1,0-4.7c0-1.7,0-1.7,1.8-1.7
			c1.8,0,2.5-0.7,2.5-2.5c0-2.3,0-4.5,0-6.8C127.9,84.9,128.9,87.3,124.5,80.3z M17.8,45.5c4.4-6.9,3.4-4.6,3.5-12.9
			c0-2.8,0-2.7,2.8-2.8c1.1,0,1.5,0.2,1.5,1.4c-0.1,2.7-0.1,5.3,0,8c0,1-0.2,1.9-0.8,2.7c-4.4,6.8-3.4,4.5-3.5,12.6
			c-0.1,4.8,0,9.6,0,14.4c0.1,11.1,8.9,21,19.9,22.5c4,0.5,7.9,0.2,11.8-1.2c0.5-0.2,0.9-0.3,1.4-0.1c1.7,0.6,3.4,0.9,5.4,1.4
			c-4.8,3.1-9.8,4.6-15.2,4.4c-11.7-0.4-20.2-6-25.2-16.7c-1.6-3.5-2.3-7.2-2.3-11c0-6.8,0-13.7,0-20.5
			C17.1,46.9,17.4,46.2,17.8,45.5z M68,96.1c-7.2,5.9-15.4,8.7-24.6,8.3c-17.1-0.7-31.2-12.9-34.3-29.8c-0.4-2.3-0.6-4.7-0.6-7
			c0-5.9,0-11.7,0-17.6c0-1.6-0.2-3.2-1.2-4.4c-2.8-3.3-3.5-7.1-3.1-11.3c0.1-1.2,0-2.5,0-3.7c0-0.6,0.2-0.7,0.7-0.8
			c3.5-0.2,3.5-0.2,3.5,3.3c0,1.1,0.1,2.1,0,3.2C8.2,39,9,41.3,10.6,43.3c1.8,2.2,2.3,4.6,2.2,7.4c-0.2,6.1-0.1,12.2,0,18.3
			c0.1,15,11.4,28.3,26.2,30.8c10.2,1.7,19.2-0.8,27.1-7.5c0.9-0.8,2-0.7,3-0.9c0.7-0.2,1.5-0.3,2.2-0.5c0.7-0.2,1.3-0.4,2.3-0.6
			C71.8,92.6,70,94.5,68,96.1z M89.6,61.9c0,14-11.7,25.7-25.7,25.6c-14-0.1-25.5-11.7-25.5-25.7c0-14,11.6-25.5,25.6-25.5
			C78,36.3,89.6,47.9,89.6,61.9z M110.2,82.5c-4.4,6.9-3.4,4.5-3.5,12.9c0,2.8,0,2.7-2.7,2.8c-1.3,0.1-1.6-0.2-1.6-1.6
			c0.1-2.6,0.1-5.2,0-7.9c0-1,0.2-1.8,0.7-2.6c4.5-6.9,3.5-4.7,3.6-13c0.1-6,0-11.9,0-17.9c0-11.6-8.5-21.3-20.1-23
			c-3.9-0.6-7.7-0.2-11.4,1.1c-0.7,0.3-1.3,0.3-2,0c-1.6-0.5-3.2-0.8-5-1.3c5.6-3.4,11.4-4.9,17.8-4.2c10.7,1.2,18.3,6.9,22.7,16.7
			c1.6,3.5,2.2,7.3,2.2,11.1c0,8.1,0,16.3,0,24.4C110.9,81,110.6,81.8,110.2,82.5z M123.7,92.8c-0.1,1.5-0.1,2.9,0,4.4
			c0,0.7-0.1,0.9-0.9,0.9c-3.4,0.1-3.4,0.1-3.4-3.3c0-1.1-0.1-2.2,0-3.3c0.3-2.5-0.5-4.8-2-6.7c-1.8-2.3-2.4-4.7-2.3-7.6
			c0.2-7.3,0.1-14.7,0-22c0-15.4-11-28.6-26.3-31.2c-10.1-1.8-19.1,0.8-26.9,7.4c-0.4,0.4-0.8,0.7-1.4,0.8c-1,0.1-2,0.2-3,0.4
			c-0.9,0.2-1.9,0.5-3.2,0.8c2.7-3.6,5.6-6.2,9.1-8.4c21-13.4,48.2-2.8,54.8,21.2c0.9,3.2,1.2,6.5,1.2,9.9c0,7.2,0,14.3,0,21.5
			c0,1.9,0.3,3.8,1.5,5.2C123.4,85.8,124.1,89.1,123.7,92.8z M42.7,61.8c0,11.9,9.5,21.4,21.3,21.3c11.8,0,21.3-9.5,21.3-21.2
			c0-11.9-9.4-21.4-21.3-21.4C52.1,40.5,42.7,50,42.7,61.8z M63.9,44.8c9.3,0,17.1,7.7,17.1,17.1c0,9.3-7.7,17-17,17
			c-9.3,0-17.1-7.7-17.1-17.1C46.9,52.6,54.6,44.8,63.9,44.8z M64,74.7c7.1,0,12.8-5.7,12.8-12.8c0-7.1-5.7-12.8-12.9-12.8
			c-7.1,0-12.7,5.7-12.7,12.8C51.2,69,56.9,74.7,64,74.7z M64,53.3c4.7,0,8.6,4,8.5,8.6c-0.1,4.6-4,8.4-8.6,8.4
			c-4.7,0-8.6-4-8.5-8.6C55.5,57.1,59.4,53.3,64,53.3z M63.9,49.1c-7.1,0-12.7,5.7-12.7,12.8c0,7.1,5.7,12.8,12.8,12.8
			c7.1,0,12.8-5.7,12.8-12.8C76.8,54.7,71.1,49.1,63.9,49.1z M63.9,70.4c-4.7,0-8.6-4-8.5-8.6c0.1-4.6,4-8.4,8.6-8.4
			c4.7,0,8.6,4,8.5,8.6C72.4,66.6,68.5,70.4,63.9,70.4z M63.9,49.1c-7.1,0-12.7,5.7-12.7,12.8c0,7.1,5.7,12.8,12.8,12.8
			c7.1,0,12.8-5.7,12.8-12.8C76.8,54.7,71.1,49.1,63.9,49.1z M63.9,70.4c-4.7,0-8.6-4-8.5-8.6c0.1-4.6,4-8.4,8.6-8.4
			c4.7,0,8.6,4,8.5,8.6C72.4,66.6,68.5,70.4,63.9,70.4z M64,40.5c-11.9,0-21.4,9.4-21.4,21.3c0,11.9,9.5,21.4,21.3,21.3
			c11.8,0,21.3-9.5,21.3-21.2C85.3,50.1,75.9,40.5,64,40.5z M64,78.9c-9.3,0-17.1-7.7-17.1-17.1c0-9.3,7.7-17,17-17
			c9.3,0,17.1,7.7,17.1,17.1C81,71.2,73.3,78.9,64,78.9z M63.9,49.1c-7.1,0-12.7,5.7-12.7,12.8c0,7.1,5.7,12.8,12.8,12.8
			c7.1,0,12.8-5.7,12.8-12.8C76.8,54.7,71.1,49.1,63.9,49.1z M63.9,70.4c-4.7,0-8.6-4-8.5-8.6c0.1-4.6,4-8.4,8.6-8.4
			c4.7,0,8.6,4,8.5,8.6C72.4,66.6,68.5,70.4,63.9,70.4z M63.9,49.1c-7.1,0-12.7,5.7-12.7,12.8c0,7.1,5.7,12.8,12.8,12.8
			c7.1,0,12.8-5.7,12.8-12.8C76.8,54.7,71.1,49.1,63.9,49.1z M63.9,70.4c-4.7,0-8.6-4-8.5-8.6c0.1-4.6,4-8.4,8.6-8.4
			c4.7,0,8.6,4,8.5,8.6C72.4,66.6,68.5,70.4,63.9,70.4z M63.9,49.1c-7.1,0-12.7,5.7-12.7,12.8c0,7.1,5.7,12.8,12.8,12.8
			c7.1,0,12.8-5.7,12.8-12.8C76.8,54.7,71.1,49.1,63.9,49.1z M63.9,70.4c-4.7,0-8.6-4-8.5-8.6c0.1-4.6,4-8.4,8.6-8.4
			c4.7,0,8.6,4,8.5,8.6C72.4,66.6,68.5,70.4,63.9,70.4z M64,40.5c-11.9,0-21.4,9.4-21.4,21.3c0,11.9,9.5,21.4,21.3,21.3
			c11.8,0,21.3-9.5,21.3-21.2C85.3,50.1,75.9,40.5,64,40.5z M64,78.9c-9.3,0-17.1-7.7-17.1-17.1c0-9.3,7.7-17,17-17
			c9.3,0,17.1,7.7,17.1,17.1C81,71.2,73.3,78.9,64,78.9z M63.9,49.1c-7.1,0-12.7,5.7-12.7,12.8c0,7.1,5.7,12.8,12.8,12.8
			c7.1,0,12.8-5.7,12.8-12.8C76.8,54.7,71.1,49.1,63.9,49.1z M63.9,70.4c-4.7,0-8.6-4-8.5-8.6c0.1-4.6,4-8.4,8.6-8.4
			c4.7,0,8.6,4,8.5,8.6C72.4,66.6,68.5,70.4,63.9,70.4z M63.9,49.1c-7.1,0-12.7,5.7-12.7,12.8c0,7.1,5.7,12.8,12.8,12.8
			c7.1,0,12.8-5.7,12.8-12.8C76.8,54.7,71.1,49.1,63.9,49.1z M63.9,70.4c-4.7,0-8.6-4-8.5-8.6c0.1-4.6,4-8.4,8.6-8.4
			c4.7,0,8.6,4,8.5,8.6C72.4,66.6,68.5,70.4,63.9,70.4z M63.9,49.1c-7.1,0-12.7,5.7-12.7,12.8c0,7.1,5.7,12.8,12.8,12.8
			c7.1,0,12.8-5.7,12.8-12.8C76.8,54.7,71.1,49.1,63.9,49.1z M63.9,70.4c-4.7,0-8.6-4-8.5-8.6c0.1-4.6,4-8.4,8.6-8.4
			c4.7,0,8.6,4,8.5,8.6C72.4,66.6,68.5,70.4,63.9,70.4z M63.9,49.1c-7.1,0-12.7,5.7-12.7,12.8c0,7.1,5.7,12.8,12.8,12.8
			c7.1,0,12.8-5.7,12.8-12.8C76.8,54.7,71.1,49.1,63.9,49.1z M63.9,70.4c-4.7,0-8.6-4-8.5-8.6c0.1-4.6,4-8.4,8.6-8.4
			c4.7,0,8.6,4,8.5,8.6C72.4,66.6,68.5,70.4,63.9,70.4z M63.9,49.1c-7.1,0-12.7,5.7-12.7,12.8c0,7.1,5.7,12.8,12.8,12.8
			c7.1,0,12.8-5.7,12.8-12.8C76.8,54.7,71.1,49.1,63.9,49.1z M63.9,70.4c-4.7,0-8.6-4-8.5-8.6c0.1-4.6,4-8.4,8.6-8.4
			c4.7,0,8.6,4,8.5,8.6C72.4,66.6,68.5,70.4,63.9,70.4z M63.9,49.1c-7.1,0-12.7,5.7-12.7,12.8c0,7.1,5.7,12.8,12.8,12.8
			c7.1,0,12.8-5.7,12.8-12.8C76.8,54.7,71.1,49.1,63.9,49.1z M63.9,70.4c-4.7,0-8.6-4-8.5-8.6c0.1-4.6,4-8.4,8.6-8.4
			c4.7,0,8.6,4,8.5,8.6C72.4,66.6,68.5,70.4,63.9,70.4z M63.9,49.1c-7.1,0-12.7,5.7-12.7,12.8c0,7.1,5.7,12.8,12.8,12.8
			c7.1,0,12.8-5.7,12.8-12.8C76.8,54.7,71.1,49.1,63.9,49.1z M63.9,70.4c-4.7,0-8.6-4-8.5-8.6c0.1-4.6,4-8.4,8.6-8.4
			c4.7,0,8.6,4,8.5,8.6C72.4,66.6,68.5,70.4,63.9,70.4z M64,40.5c-11.9,0-21.4,9.4-21.4,21.3c0,11.9,9.5,21.4,21.3,21.3
			c11.8,0,21.3-9.5,21.3-21.2C85.3,50.1,75.9,40.5,64,40.5z M64,78.9c-9.3,0-17.1-7.7-17.1-17.1c0-9.3,7.7-17,17-17
			c9.3,0,17.1,7.7,17.1,17.1C81,71.2,73.3,78.9,64,78.9z M63.9,49.1c-7.1,0-12.7,5.7-12.7,12.8c0,7.1,5.7,12.8,12.8,12.8
			c7.1,0,12.8-5.7,12.8-12.8C76.8,54.7,71.1,49.1,63.9,49.1z M63.9,70.4c-4.7,0-8.6-4-8.5-8.6c0.1-4.6,4-8.4,8.6-8.4
			c4.7,0,8.6,4,8.5,8.6C72.4,66.6,68.5,70.4,63.9,70.4z M63.9,49.1c-7.1,0-12.7,5.7-12.7,12.8c0,7.1,5.7,12.8,12.8,12.8
			c7.1,0,12.8-5.7,12.8-12.8C76.8,54.7,71.1,49.1,63.9,49.1z M63.9,70.4c-4.7,0-8.6-4-8.5-8.6c0.1-4.6,4-8.4,8.6-8.4
			c4.7,0,8.6,4,8.5,8.6C72.4,66.6,68.5,70.4,63.9,70.4z M63.9,49.1c-7.1,0-12.7,5.7-12.7,12.8c0,7.1,5.7,12.8,12.8,12.8
			c7.1,0,12.8-5.7,12.8-12.8C76.8,54.7,71.1,49.1,63.9,49.1z M63.9,70.4c-4.7,0-8.6-4-8.5-8.6c0.1-4.6,4-8.4,8.6-8.4
			c4.7,0,8.6,4,8.5,8.6C72.4,66.6,68.5,70.4,63.9,70.4z M63.9,49.1c-7.1,0-12.7,5.7-12.7,12.8c0,7.1,5.7,12.8,12.8,12.8
			c7.1,0,12.8-5.7,12.8-12.8C76.8,54.7,71.1,49.1,63.9,49.1z M63.9,70.4c-4.7,0-8.6-4-8.5-8.6c0.1-4.6,4-8.4,8.6-8.4
			c4.7,0,8.6,4,8.5,8.6C72.4,66.6,68.5,70.4,63.9,70.4z M63.9,49.1c-7.1,0-12.7,5.7-12.7,12.8c0,7.1,5.7,12.8,12.8,12.8
			c7.1,0,12.8-5.7,12.8-12.8C76.8,54.7,71.1,49.1,63.9,49.1z M63.9,70.4c-4.7,0-8.6-4-8.5-8.6c0.1-4.6,4-8.4,8.6-8.4
			c4.7,0,8.6,4,8.5,8.6C72.4,66.6,68.5,70.4,63.9,70.4z M63.9,49.1c-7.1,0-12.7,5.7-12.7,12.8c0,7.1,5.7,12.8,12.8,12.8
			c7.1,0,12.8-5.7,12.8-12.8C76.8,54.7,71.1,49.1,63.9,49.1z M63.9,70.4c-4.7,0-8.6-4-8.5-8.6c0.1-4.6,4-8.4,8.6-8.4
			c4.7,0,8.6,4,8.5,8.6C72.4,66.6,68.5,70.4,63.9,70.4z M63.9,49.1c-7.1,0-12.7,5.7-12.7,12.8c0,7.1,5.7,12.8,12.8,12.8
			c7.1,0,12.8-5.7,12.8-12.8C76.8,54.7,71.1,49.1,63.9,49.1z M63.9,70.4c-4.7,0-8.6-4-8.5-8.6c0.1-4.6,4-8.4,8.6-8.4
			c4.7,0,8.6,4,8.5,8.6C72.4,66.6,68.5,70.4,63.9,70.4z M64,40.5c-11.9,0-21.4,9.4-21.4,21.3c0,11.9,9.5,21.4,21.3,21.3
			c11.8,0,21.3-9.5,21.3-21.2C85.3,50.1,75.9,40.5,64,40.5z M64,78.9c-9.3,0-17.1-7.7-17.1-17.1c0-9.3,7.7-17,17-17
			c9.3,0,17.1,7.7,17.1,17.1C81,71.2,73.3,78.9,64,78.9z M63.9,49.1c-7.1,0-12.7,5.7-12.7,12.8c0,7.1,5.7,12.8,12.8,12.8
			c7.1,0,12.8-5.7,12.8-12.8C76.8,54.7,71.1,49.1,63.9,49.1z M63.9,70.4c-4.7,0-8.6-4-8.5-8.6c0.1-4.6,4-8.4,8.6-8.4
			c4.7,0,8.6,4,8.5,8.6C72.4,66.6,68.5,70.4,63.9,70.4z M63.9,49.1c-7.1,0-12.7,5.7-12.7,12.8c0,7.1,5.7,12.8,12.8,12.8
			c7.1,0,12.8-5.7,12.8-12.8C76.8,54.7,71.1,49.1,63.9,49.1z M63.9,70.4c-4.7,0-8.6-4-8.5-8.6c0.1-4.6,4-8.4,8.6-8.4
			c4.7,0,8.6,4,8.5,8.6C72.4,66.6,68.5,70.4,63.9,70.4z M63.9,49.1c-7.1,0-12.7,5.7-12.7,12.8c0,7.1,5.7,12.8,12.8,12.8
			c7.1,0,12.8-5.7,12.8-12.8C76.8,54.7,71.1,49.1,63.9,49.1z M63.9,70.4c-4.7,0-8.6-4-8.5-8.6c0.1-4.6,4-8.4,8.6-8.4
			c4.7,0,8.6,4,8.5,8.6C72.4,66.6,68.5,70.4,63.9,70.4z"/>
		<path d="M0,5.6c0.7-1.3,1.9-1.5,3.2-1.3c0.8,0.1,1.2-0.1,1.1-1c-0.1-0.4,0-0.9,0-1.3C4.4,0.7,5.2,0,6.4,0c1.2,0,2,0.7,2.1,1.9
			c0.1,0.8-0.4,1.8,0.2,2.3c0.5,0.4,1.5,0.1,2.2,0.1c1.1,0.1,1.9,1,1.8,2.2c0,1.1-0.7,1.9-1.8,2.1c-0.8,0.1-1.8-0.3-2.3,0.2
			C8.3,9.2,8.6,10.3,8.5,11c-0.1,1.1-1,1.8-2.1,1.8c-1.1,0-2-0.7-2.1-1.8C4.2,10.2,4.7,9.1,4,8.7C3.5,8.3,2.5,8.6,1.7,8.5
			C0.9,8.5,0.5,7.8,0,7.2C0,6.7,0,6.1,0,5.6z"/>
		<path d="M120.8,128c-1.3-0.7-1.5-1.9-1.3-3.2c0.1-0.8-0.1-1.2-1-1.1c-0.4,0.1-0.9,0-1.3,0c-1.2-0.1-1.9-0.9-1.9-2.1
			c0-1.2,0.7-2,1.9-2.1c0.8-0.1,1.8,0.4,2.3-0.2c0.4-0.5,0.1-1.5,0.1-2.2c0.1-1.1,1-1.9,2.2-1.8c1.1,0,1.9,0.7,2.1,1.8
			c0.1,0.8-0.3,1.8,0.2,2.3c0.5,0.4,1.5,0.1,2.3,0.2c1.1,0.1,1.8,1,1.8,2.1c0,1.1-0.7,2-1.8,2.1c-0.8,0.1-1.9-0.4-2.4,0.2
			c-0.4,0.5-0.1,1.5-0.1,2.3c0,0.9-0.7,1.2-1.3,1.7C121.8,128,121.3,128,120.8,128z"/>
		<path d="M23.5,8.5c-1.4,0-2.8,0-4.3,0c-1.4,0-2.2-0.8-2.2-2.1c0-1.3,0.8-2.1,2.2-2.1c2.8,0,5.6,0,8.4,0c1.4,0,2.2,0.8,2.2,2.1
			c0,1.4-0.8,2.2-2.2,2.2C26.2,8.6,24.9,8.5,23.5,8.5z"/>
		<path d="M104.4,123.7c-1.4,0-2.8,0-4.1,0c-1.4,0-2.2-0.8-2.2-2.1c0-1.3,0.8-2.1,2.2-2.1c2.8,0,5.7,0,8.5,0c1.3,0,2.1,0.9,2.1,2.2
			c0,1.2-0.8,2-2.1,2.1C107.3,123.7,105.9,123.7,104.4,123.7z"/>
		<path d="M63.9,49.1c-7.1,0-12.7,5.7-12.7,12.8c0,7.1,5.7,12.8,12.8,12.8c7.1,0,12.8-5.7,12.8-12.8C76.8,54.7,71.1,49.1,63.9,49.1z
			 M63.9,70.4c-4.7,0-8.6-4-8.5-8.6c0.1-4.6,4-8.4,8.6-8.4c4.7,0,8.6,4,8.5,8.6C72.4,66.6,68.5,70.4,63.9,70.4z"/>
		<path d="M64,40.5c-11.9,0-21.4,9.4-21.4,21.3c0,11.9,9.5,21.4,21.3,21.3c11.8,0,21.3-9.5,21.3-21.2C85.3,50.1,75.9,40.5,64,40.5z
			 M64,78.9c-9.3,0-17.1-7.7-17.1-17.1c0-9.3,7.7-17,17-17c9.3,0,17.1,7.7,17.1,17.1C81,71.2,73.3,78.9,64,78.9z"/>
		<path d="M63.9,49.1c-7.1,0-12.7,5.7-12.7,12.8c0,7.1,5.7,12.8,12.8,12.8c7.1,0,12.8-5.7,12.8-12.8C76.8,54.7,71.1,49.1,63.9,49.1z
			 M63.9,70.4c-4.7,0-8.6-4-8.5-8.6c0.1-4.6,4-8.4,8.6-8.4c4.7,0,8.6,4,8.5,8.6C72.4,66.6,68.5,70.4,63.9,70.4z"/>
		<path d="M64,40.5c-11.9,0-21.4,9.4-21.4,21.3c0,11.9,9.5,21.4,21.3,21.3c11.8,0,21.3-9.5,21.3-21.2C85.3,50.1,75.9,40.5,64,40.5z
			 M64,78.9c-9.3,0-17.1-7.7-17.1-17.1c0-9.3,7.7-17,17-17c9.3,0,17.1,7.7,17.1,17.1C81,71.2,73.3,78.9,64,78.9z"/>
		<path d="M63.9,49.1c-7.1,0-12.7,5.7-12.7,12.8c0,7.1,5.7,12.8,12.8,12.8c7.1,0,12.8-5.7,12.8-12.8C76.8,54.7,71.1,49.1,63.9,49.1z
			 M63.9,70.4c-4.7,0-8.6-4-8.5-8.6c0.1-4.6,4-8.4,8.6-8.4c4.7,0,8.6,4,8.5,8.6C72.4,66.6,68.5,70.4,63.9,70.4z"/>
		<path d="M63.9,49.1c-7.1,0-12.7,5.7-12.7,12.8c0,7.1,5.7,12.8,12.8,12.8c7.1,0,12.8-5.7,12.8-12.8C76.8,54.7,71.1,49.1,63.9,49.1z
			 M63.9,70.4c-4.7,0-8.6-4-8.5-8.6c0.1-4.6,4-8.4,8.6-8.4c4.7,0,8.6,4,8.5,8.6C72.4,66.6,68.5,70.4,63.9,70.4z"/>
	</g>
</g>
</svg>
