<?xml version="1.0" encoding="utf-8"?>
<!-- Generator: Adobe Illustrator 28.0.0, SVG Export Plug-In . SVG Version: 6.00 Build 0)  -->
<svg version="1.1" id="Layer_1" xmlns="http://www.w3.org/2000/svg" xmlns:xlink="http://www.w3.org/1999/xlink" x="0px" y="0px"
	 viewBox="0 0 128 128" style="enable-background:new 0 0 128 128;" xml:space="preserve">
<g>
	<path d="M128,114.7c-0.6,1.4-0.8,2.9-1.5,4.3c-3,5.7-7.6,8.9-14.2,8.9c-32.2,0-64.5,0-96.7,0C7,128,0,121.1,0,112.4
		c0-17.1,0-34.2,0-51.2c0-0.9,0.2-1.7,1-2.1c0.7-0.4,1.4-0.3,2,0.1c0.7,0.5,0.8,1.2,0.8,2c0,7,0,14.1,0,21.1c0,9.9,0,19.7,0,29.6
		c0,5.5,3.1,9.9,8.1,11.7c1.4,0.5,2.8,0.7,4.3,0.7c31.9,0,63.8,0,95.7,0c7.2,0,12.4-5.2,12.4-12.3c0-32,0-63.9,0-95.9
		c0-7.1-5.2-12.3-12.3-12.3c-32,0-63.9,0-95.9,0C8.9,3.8,3.8,8.9,3.8,16.1c0,12.1,0,24.2,0,36.2c0,0.4,0,0.8,0,1.1
		c-0.2,1.1-0.9,1.6-1.9,1.6c-1,0-1.6-0.6-1.8-1.6c-0.1-0.4,0-0.7,0-1.1c0-12.1,0.1-24.2,0-36.2C-0.1,8,5.9,1.3,13,0.2
		c0.1,0,0.2-0.1,0.3-0.2C47,0,80.8,0,114.5,0c4.7,0.4,8.2,2.7,10.9,6.4c1.5,2.1,2.6,4.4,2.6,7.1C128,47.2,128,81,128,114.7z"/>
	<path d="M64,115.8c-15.2,0-30.3,0-45.5,0c-3.2,0-5.2-1.4-6-4c-0.2-0.7-0.2-1.4-0.2-2.1c0-30.5,0-60.9,0-91.4c0-3.9,2.2-6.1,6.1-6.1
		c30.5,0,60.9,0,91.4,0c3.9,0,6.1,2.2,6.1,6.1c0,23,0,45.9,0,68.9c0,0.3,0,0.6,0,0.9c-0.1,1.1-0.8,1.6-1.8,1.7
		c-1.1,0-1.7-0.6-1.9-1.6c-0.1-0.4,0-0.8,0-1.2c0-22.7,0-45.5,0-68.2c0-2.1-0.5-2.7-2.6-2.7c-30.2,0-60.5,0-90.7,0
		c-2.1,0-2.7,0.5-2.7,2.6c0,30.2,0,60.5,0,90.7c0,2.1,0.5,2.7,2.6,2.7c30.2,0,60.5,0,90.7,0c2.1,0,2.6-0.5,2.6-2.6c0-4.5,0-9,0-13.5
		c0-0.8,0.1-1.5,0.8-2c0.6-0.4,1.2-0.5,1.9-0.2c0.7,0.3,1.1,0.9,1.1,1.7c0,5.2,0,10.4-0.1,15.6c-0.1,2.4-2.3,4.6-4.8,4.8
		c-0.6,0.1-1.2,0.1-1.9,0.1C94.1,115.8,79,115.8,64,115.8z"/>
	<path d="M61.3,71c0,4.7,0,9.4,0,14.1c0,1.4-0.7,2.3-1.8,2.3c-1,0-1.8-0.5-2-1.5c-0.1-0.5-0.1-1-0.1-1.5c0-9.1,0-18.2,0-27.4
		c0-1.2-0.4-1.5-1.5-1.4c-1.7,0.1-3.3,0-5,0c-1.5,0-2.3-0.7-2.3-1.9c0-1.2,0.8-2,2.2-2c5.6,0,11.2,0,16.9,0c1.4,0,2.2,0.8,2.2,2
		c0,1.2-0.9,1.9-2.3,1.9c-1.8,0-3.7,0-5.5,0c-0.8,0-1,0.2-1,1C61.3,61.4,61.3,66.2,61.3,71z"/>
	<path d="M82.2,39.9c1.4,0,2.6,0,3.8,0c1.5,0,2.3,0.7,2.3,1.9c0,1.2-0.8,2-2.2,2c-2.4,0-4.7,0-7.1,0c-0.9,0-1.7-0.3-2.2-1.2
		c-0.5-0.9-0.1-1.7,0.4-2.4c1.8-2.5,3.6-5,5.4-7.5c0.5-0.7,1-1.4,1.2-2.3c0.1-1.1-0.4-2-1.4-2.3c-1-0.3-2,0.2-2.4,1.2
		c-0.1,0.2-0.1,0.4-0.2,0.6c-0.5,1.1-1.4,1.5-2.4,1.2c-1-0.4-1.5-1.3-1.2-2.4c0.8-3.2,4.1-5.2,7.2-4.3c3.2,0.9,5,4.2,4,7.4
		c-0.7,2.4-2.4,4.2-3.8,6.2C83.2,38.6,82.7,39.2,82.2,39.9z"/>
	<path d="M97.3,39.9c1.4,0,2.6,0,3.8,0c1.4,0,2.3,0.7,2.3,1.9c0,1.2-0.8,2-2.2,2c-2.4,0-4.7,0-7.1,0c-0.9,0-1.7-0.3-2.2-1.2
		c-0.5-0.9-0.2-1.7,0.4-2.4c1.8-2.4,3.5-4.8,5.3-7.2c0.5-0.6,0.9-1.3,1.2-2c0.4-1.2,0-2.3-1.1-2.7c-1.1-0.4-2.2,0.1-2.7,1.4
		c-0.5,1.3-1.2,1.9-2.2,1.7c-1.2-0.3-1.8-1.3-1.4-2.7c0.8-2.9,4-4.8,7-4.1c3.1,0.8,5,3.9,4.2,7c-0.5,2-1.7,3.6-2.9,5.3
		C99,37.7,98.2,38.7,97.3,39.9z"/>
	<path d="M77,75.3c0,3.4,0,6.7,0,10.1c0,1-0.4,1.7-1.4,2c-0.8,0.3-1.5,0-2-0.6c-0.4-0.4-0.4-0.9-0.4-1.4c0-6.8,0-13.6,0-20.3
		c0-1.4,0.8-2.1,2-2.1c1.1,0,1.8,0.9,1.8,2.2C77,68.5,77,71.9,77,75.3z"/>
	<path d="M37.2,31c-2.6,0-5.2,0-7.9,0c-1.3,0-2.2-0.7-2.2-1.9c0-1.2,0.8-1.9,2.1-1.9c5.3,0,10.6,0,15.9,0c1.4,0,2.1,0.7,2.1,1.9
		c0,1.2-0.8,1.8-2.2,1.8C42.5,31,39.9,31,37.2,31z"/>
	<path d="M31.6,36.3c0.8,0,1.6,0,2.4,0c1.1,0.1,1.9,0.8,2,1.8c0,1-0.7,1.9-1.8,2c-1.7,0.1-3.4,0.1-5.1,0c-1.2-0.1-1.9-0.8-1.8-1.9
		c0-1,0.8-1.8,1.9-1.9C30,36.2,30.8,36.3,31.6,36.3z"/>
	<path d="M31.5,100.8c-0.8,0-1.7,0-2.5,0c-1.1-0.1-1.9-0.8-1.8-1.9c0-1,0.8-1.8,1.8-1.8c1.7,0,3.4,0,5.1,0c1.1,0,1.9,0.9,1.9,1.9
		c0,1-0.8,1.8-1.8,1.8C33.3,100.8,32.4,100.7,31.5,100.8z"/>
	<path d="M75,55.9c1,0,1.9,0.9,2,1.9c0,1-0.9,1.9-1.9,2c-1,0-1.9-0.9-1.9-1.9C73.2,56.7,74,55.9,75,55.9z"/>
</g>
</svg>
