<?xml version="1.0" encoding="utf-8"?>
<!-- Generator: Adobe Illustrator 27.9.0, SVG Export Plug-In . SVG Version: 6.00 Build 0)  -->
<svg version="1.1" id="Layer_1" xmlns="http://www.w3.org/2000/svg" xmlns:xlink="http://www.w3.org/1999/xlink" x="0px" y="0px"
	 viewBox="0 0 128 128" style="enable-background:new 0 0 128 128;" xml:space="preserve">
<g>
	<path d="M49.54,72.99c1.14,0.59,2.53,0.13,3.11-1.02c0.29-0.58,0.33-1.25,0.12-1.86c-0.37-1.06-0.6-2.17-0.66-3.29
		c-0.65-11.2,6.31-16.35,11.58-18.64c-0.2,0.99-0.27,2.01-0.21,3.02c0.19,3.65,1.86,6.64,4.26,7.63l0.21,0.08
		c0.17,0.06,0.34,0.11,0.51,0.15c1.89,0.48,3.88,0.23,5.59-0.7c1.42,2.49,2.07,5.36,1.87,8.22c-0.22,1.39-0.62,2.74-1.21,4.01
		c-0.56,1.16-0.07,2.57,1.07,3.13c0.61,0.3,1.32,0.31,1.94,0.03c10.12-4.26,16.88-14.1,17.31-25.2C97.44,6.7,54.71,0.08,54.28,0.02
		c-1.26-0.18-2.43,0.71-2.61,1.99c-0.14,0.98,0.34,1.93,1.2,2.39c4.18,2.25,5.44,7.57,5.22,11.79c-0.23,4.44-2.02,8.32-4.13,9.18
		l-0.23,0.08c-0.1,0.04-0.19,0.07-0.29,0.09c-3.07,0.93-6.39-0.04-8.5-2.49c-0.74-1.05-2.18-1.3-3.22-0.55
		c-0.09,0.07-0.18,0.14-0.26,0.21c-10.14,9.82-8.52,25.3-8.43,26.07C34.79,59.78,40.65,68.37,49.54,72.99z M43.13,27.78
		c3.21,2.55,7.41,3.42,11.34,2.34c0.27-0.07,0.53-0.15,0.79-0.24l0.15-0.05l0.16-0.06c4-1.63,6.8-6.86,7.13-13.32
		c0.2-3.41-0.44-6.82-1.86-9.93c4.31,1.42,8.42,3.38,12.24,5.85C85.49,20.5,91.31,32.59,90.4,48.29
		c-0.29,7.39-3.94,14.23-9.88,18.52c0.12-1.79,0.23-8.76-4.57-13.41c-0.43-0.41-1.01-0.63-1.6-0.62c-0.06,0-0.12,0-0.18,0.01
		c-0.66,0.05-1.26,0.38-1.67,0.91c-0.77,0.85-1.96,1.16-3.05,0.79c-0.95-0.91-1.45-2.21-1.36-3.53c-0.09-1.72,0.38-3.87,1.96-4.72
		c1.13-0.61,1.56-2.02,0.96-3.17c-0.46-0.87-1.4-1.36-2.37-1.22c-0.22,0.03-21.73,3.36-21.19,24.26c-4.25-3.38-8.41-8.93-9.85-17.94
		C37.59,48.04,36.37,36.03,43.13,27.78z"/>
	<path d="M124.71,100.8H69.58l42.2-42.78v6.53c0,1.29,1.03,2.34,2.31,2.34s2.31-1.05,2.31-2.34V52.37c0-1.29-1.03-2.34-2.31-2.34
		h-12.01c-1.28,0-2.31,1.05-2.31,2.34c0,1.29,1.03,2.34,2.31,2.34h6.44L64,99.83L15.55,50.71c-0.92-0.9-2.38-0.87-3.27,0.06
		c-0.86,0.91-0.86,2.35,0,3.25l46.14,46.78H3.29c-1.28,0-2.31,1.05-2.31,2.34v8.32c0,1.29,1.03,2.34,2.31,2.34h121.42
		c1.28,0,2.31-1.05,2.31-2.34v-8.32C127.02,101.85,125.98,100.8,124.71,100.8z M122.4,105.49v3.64H5.6v-3.64H122.4z"/>
	<path d="M124.71,123.32H3.29c-1.28,0-2.31,1.05-2.31,2.34c0,1.29,1.03,2.34,2.31,2.34h121.42c1.28,0,2.31-1.05,2.31-2.34
		C127.02,124.37,125.98,123.32,124.71,123.32z"/>
</g>
</svg>
