<?xml version="1.0" encoding="utf-8"?>
<!-- Generator: Adobe Illustrator 27.9.0, SVG Export Plug-In . SVG Version: 6.00 Build 0)  -->
<svg version="1.1" id="Layer_1" xmlns="http://www.w3.org/2000/svg" xmlns:xlink="http://www.w3.org/1999/xlink" x="0px" y="0px"
	 viewBox="0 0 128 128" style="enable-background:new 0 0 128 128;" xml:space="preserve">
<g>
	<path d="M66.23,3.23L54.14,14.98c-4.64,4.5-7.29,10.97-7.29,17.75v24.51L27.03,71.68c-4.78,3.49-7.64,9.32-7.64,15.6v6.97
		c0,2.07,1.54,3.75,3.43,3.75h10.3v8.75c0,2.07,1.54,3.75,3.43,3.75c1.9,0,3.43-1.68,3.43-3.75V98h6.86v6.25
		c0,4.82,3.59,8.75,8.01,8.75h1.14v11.25c0,2.07,1.54,3.75,3.43,3.75h13.73c1.9,0,3.43-1.68,3.43-3.75V113h1.14
		c4.42,0,8.01-3.93,8.01-8.75V98h24.02c1.9,0,3.43-1.68,3.43-3.75v-6.97c0-6.28-2.86-12.12-7.64-15.6L85.73,57.24V12.81
		C85.73,5.74,80.48,0,74.01,0C71.14,0,68.38,1.15,66.23,3.23L66.23,3.23z M69.72,113v7.5h-6.86V113H69.72z M26.25,90.5v-3.22
		c0-3.77,1.71-7.27,4.58-9.36l16.01-11.66V90.5L26.25,90.5z M78.87,12.81v39.44l-1.53-1.11c-1.58-1.15-3.71-0.68-4.76,1.04
		c-1.05,1.72-0.63,4.05,0.95,5.2l28.2,20.55c2.87,2.09,4.58,5.59,4.58,9.36v3.22H82.3c-1.9,0-3.43,1.68-3.43,3.75v10
		c0,0.69-0.51,1.25-1.14,1.25H54.85c-0.63,0-1.14-0.56-1.14-1.25V32.73c0-4.64,1.82-9.06,4.99-12.15l1.87-1.82v10.48
		C60.57,31.32,62.1,33,64,33s3.43-1.68,3.43-3.75V12.1l3.36-3.26c0.89-0.86,2.04-1.34,3.23-1.34C76.69,7.5,78.87,9.88,78.87,12.81
		L78.87,12.81z"/>
	<path d="M60.57,44.25v5C60.57,51.32,62.1,53,64,53c1.9,0,3.43-1.68,3.43-3.75v-5c0-2.07-1.54-3.75-3.43-3.75
		C62.1,40.5,60.57,42.18,60.57,44.25z"/>
	<path d="M60.57,64.25v5C60.57,71.32,62.1,73,64,73c1.9,0,3.43-1.68,3.43-3.75v-5c0-2.07-1.54-3.75-3.43-3.75
		C62.1,60.5,60.57,62.18,60.57,64.25z"/>
	<path d="M60.57,84.25v5C60.57,91.32,62.1,93,64,93c1.9,0,3.43-1.68,3.43-3.75v-5c0-2.07-1.54-3.75-3.43-3.75
		C62.1,80.5,60.57,82.18,60.57,84.25z"/>
	<path d="M39.98,124.25v-5c0-2.07-1.54-3.75-3.43-3.75c-1.9,0-3.43,1.68-3.43,3.75v5c0,2.07,1.54,3.75,3.43,3.75
		C38.44,128,39.98,126.32,39.98,124.25z"/>
	<path d="M21.68,124.25v-17.5c0-2.07-1.54-3.75-3.43-3.75s-3.43,1.68-3.43,3.75v17.5c0,2.07,1.54,3.75,3.43,3.75
		C20.14,128,21.68,126.32,21.68,124.25z"/>
</g>
</svg>
