<?xml version="1.0" encoding="utf-8"?>
<!-- Generator: Adobe Illustrator 27.9.0, SVG Export Plug-In . SVG Version: 6.00 Build 0)  -->
<svg version="1.1" id="Layer_1" xmlns="http://www.w3.org/2000/svg" xmlns:xlink="http://www.w3.org/1999/xlink" x="0px" y="0px"
	 viewBox="0 0 128 128" style="enable-background:new 0 0 128 128;" xml:space="preserve">
<g>
	<path d="M51.71,94.08c1-0.28,1.58-1.31,1.31-2.31c-1.03-3.71-4.31-4.29-5.9-4.08c-1.03,0.14-1.75,1.08-1.61,2.11
		c0.14,1.03,1.08,1.75,2.11,1.61c0.23-0.03,1.38-0.11,1.79,1.36c0.23,0.83,0.98,1.38,1.81,1.38C51.37,94.14,51.54,94.12,51.71,94.08
		L51.71,94.08z"/>
	<path d="M76.29,94.08c-1-0.28-1.58-1.31-1.31-2.31c1.03-3.71,4.31-4.29,5.9-4.08c1.03,0.14,1.75,1.08,1.61,2.11
		c-0.14,1.03-1.08,1.75-2.11,1.61c-0.23-0.03-1.38-0.11-1.79,1.36c-0.23,0.83-0.98,1.38-1.81,1.38
		C76.63,94.14,76.46,94.12,76.29,94.08L76.29,94.08z"/>
	<path d="M92.19,105.24c-1.75,0-3.17,1.42-3.17,3.17V112c0,1.75,1.42,3.17,3.17,3.17h6.29c1.75,0,3.17-1.42,3.17-3.17v-3.59
		c0-1.75-1.42-3.17-3.17-3.17H92.19z M97.9,111.43h-5.14v-2.44h5.14V111.43z"/>
	<path d="M29.15,107.9h5.96c1.04,0,1.88-0.84,1.88-1.88s-0.84-1.88-1.88-1.88h-5.96c-1.04,0-1.88,0.84-1.88,1.88
		S28.11,107.9,29.15,107.9z"/>
	<path d="M29.15,114.15h4.21c1.04,0,1.88-0.84,1.88-1.88s-0.84-1.88-1.88-1.88h-4.21c-1.04,0-1.88,0.84-1.88,1.88
		S28.11,114.15,29.15,114.15z"/>
	<path d="M22.4,74.5c-1.04,0-1.88,0.84-1.88,1.88v42.24c0,1.04,0.84,1.88,1.88,1.88h83.2c1.04,0,1.88-0.84,1.88-1.88V35.35
		c0-1.04-0.84-1.88-1.88-1.88H22.4c-1.04,0-1.88,0.84-1.88,1.88v33.54c0,1.04,0.84,1.88,1.88,1.88c1.04,0,1.88-0.84,1.88-1.88V37.22
		h79.45v79.53H81.56c-0.02-0.15-0.05-0.31-0.07-0.46c-0.62-4.4,1.52-8.76,5.45-11.12l0.12-0.07c3.67-2.23,6.07-6.15,6.43-10.47
		c0.09-1.03-0.68-1.94-1.71-2.02c-1.03-0.09-1.94,0.68-2.02,1.71c-0.26,3.14-1.99,5.97-4.64,7.58l-0.1,0.06
		c-5.21,3.11-8.05,8.91-7.25,14.79h-6.79c-0.17-6.67-0.58-22.98-0.74-29.45l4.44-2.81c1.18-0.75,2.45-1.23,3.76-1.42l0.13-0.02
		c3.98-0.55,7.85,1.38,9.87,4.93c0.35,0.61,0.98,0.95,1.63,0.95c0.31,0,0.63-0.08,0.92-0.24c0.9-0.51,1.22-1.66,0.7-2.56
		c-2.78-4.89-8.14-7.55-13.65-6.79l-0.15,0.02c-1.83,0.27-3.59,0.93-5.22,1.96l-2.55,1.61c-0.05-1.86-0.33-13.22-0.38-14.91
		c3.63,0.53,7.01,2.23,9.64,4.85l3,3c0.37,0.37,0.85,0.55,1.33,0.55c0.48,0,0.96-0.18,1.33-0.55c0.73-0.73,0.73-1.92,0-2.65l-3-3
		c-3.35-3.35-7.71-5.46-12.38-6c-0.03-1.11-0.12-4.74-0.15-5.9c2-0.11,3.97-0.11,5.88,0c4.21,0.23,8.18,2.01,11.18,5.01l3,3
		c0.37,0.37,0.85,0.55,1.33,0.55s0.96-0.18,1.33-0.55c0.73-0.73,0.73-1.92,0-2.65l-3-3c-3.65-3.65-8.49-5.82-13.63-6.1
		c-2.01-0.11-4.08-0.11-6.18-0.01c-0.02-0.7-0.14-5.59-0.15-6.09c4.54-0.76,8.92-1.03,13.03-0.8c4.21,0.23,8.18,2.01,11.18,5.01l3,3
		c0.37,0.37,0.85,0.55,1.33,0.55c0.48,0,0.96-0.18,1.33-0.55c0.73-0.73,0.73-1.92,0-2.65l-3-3c-3.65-3.65-8.49-5.82-13.63-6.1
		c-4.23-0.23-8.7,0.02-13.33,0.76C69,41.95,66.77,39.82,64,39.82c-2.77,0-5,2.13-5.16,4.87c-4.63-0.74-9.11-0.99-13.33-0.76
		c-5.14,0.29-9.98,2.45-13.63,6.1l-3,3c-0.73,0.73-0.73,1.92,0,2.65c0.37,0.37,0.85,0.55,1.33,0.55s0.96-0.18,1.33-0.55l3-3
		c3-3,6.97-4.78,11.18-5.01c4.11-0.23,8.49,0.04,13.03,0.8l-0.15,6.09c-2.1-0.11-4.17-0.11-6.18,0.01
		c-5.14,0.29-9.98,2.45-13.63,6.1l-3,3c-0.73,0.73-0.73,1.92,0,2.65c0.37,0.37,0.85,0.55,1.33,0.55c0.48,0,0.96-0.18,1.33-0.55l3-3
		c3-3,6.97-4.78,11.18-5.01c1.91-0.11,3.88-0.11,5.88,0c-0.03,1.21-0.12,4.79-0.15,5.9c-4.67,0.54-9.03,2.64-12.38,6l-3,3
		c-0.73,0.73-0.73,1.92,0,2.65c0.37,0.37,0.85,0.55,1.33,0.55c0.48,0,0.96-0.18,1.33-0.55l3-3c2.63-2.63,6-4.32,9.64-4.85
		c0,0.03-0.4,15.84-0.38,14.91l-2.55-1.61c-1.63-1.03-3.39-1.69-5.24-1.96l-0.13-0.02c-3.57-0.5-7.13,0.44-10.02,2.64
		c-2.93,2.23-4.81,5.47-5.29,9.11c-0.06,0.42-0.1,0.84-0.14,1.25c-0.43,5.11,2.09,10.12,6.43,12.76l0.12,0.07
		c3.93,2.35,6.07,6.71,5.45,11.11c-0.02,0.15-0.04,0.3-0.07,0.46H24.28V76.38C24.28,75.34,23.44,74.5,22.4,74.5L22.4,74.5z
		 M66.73,97.24c-1.83,0.63-3.63,0.63-5.46,0l0.14-5.53c0.86,0.21,1.73,0.32,2.59,0.32c0.86,0,1.73-0.11,2.59-0.32L66.73,97.24z
		 M61.17,101.12c0.94,0.23,1.88,0.35,2.83,0.35c0.94,0,1.89-0.12,2.83-0.35l0.14,5.54c-1.99,0.66-3.95,0.66-5.94,0L61.17,101.12z
		 M61.88,72.87c0.7,0.17,1.41,0.25,2.12,0.25c0.71,0,1.41-0.08,2.12-0.25l0.14,5.53c-1.52,0.57-2.99,0.57-4.51,0L61.88,72.87z
		 M65.78,59.56c-1.2,0.49-2.36,0.49-3.56,0l0.14-5.51c0.55,0.13,1.09,0.19,1.64,0.19c0.55,0,1.1-0.06,1.64-0.19L65.78,59.56z
		 M64,63.68c0.63,0,1.25-0.07,1.88-0.22l0.14,5.52c-1.36,0.53-2.68,0.53-4.04,0l0.14-5.52C62.75,63.61,63.37,63.68,64,63.68
		L64,63.68z M64,82.58c0.78,0,1.57-0.1,2.35-0.29c0.03,1.37,0.11,4.17,0.14,5.52c-1.67,0.6-3.32,0.6-4.99,0
		c0.03-1.36,0.11-4.17,0.14-5.52C62.43,82.49,63.22,82.58,64,82.58L64,82.58z M60.78,116.75l0.16-6.21
		c1.02,0.25,2.04,0.38,3.07,0.38c1.02,0,2.05-0.13,3.07-0.38l0.16,6.21L60.78,116.75z M64,43.57c0.77,0,1.39,0.61,1.41,1.38
		l0.13,5.2c-1.05,0.45-2.04,0.45-3.09,0l0.13-5.19C62.61,44.18,63.23,43.57,64,43.57L64,43.57z M42.98,101.95l-0.09-0.06
		c-3.13-1.9-4.96-5.53-4.64-9.24c0.03-0.35,0.07-0.71,0.12-1.07c0.35-2.65,1.72-5,3.84-6.62c2.09-1.59,4.66-2.27,7.23-1.91
		l0.13,0.02c1.31,0.19,2.57,0.67,3.76,1.42l4.44,2.81c-0.11,4.46-0.67,26.4-0.74,29.45h-6.79C51.04,110.87,48.2,105.07,42.98,101.95
		z"/>
	<path d="M113.1,46.46c1.04,0,1.88-0.84,1.88-1.88V30.8c0-2.67-2.17-4.83-4.83-4.83h-7.22l-0.18-0.96
		c-1.01-5.49-5.59-9.75-11.14-10.36l-7.65-0.84c-3.69-0.4-6.79-3.09-7.72-6.69l-1.47-5.71c-0.26-1-1.28-1.61-2.28-1.35
		c-1,0.26-1.61,1.28-1.35,2.28l1.47,5.71c1.31,5.1,5.71,8.91,10.94,9.49l7.65,0.84c3.91,0.43,7.14,3.43,7.85,7.31l0.05,0.29H28.89
		l0.05-0.29c0.71-3.87,3.94-6.88,7.85-7.31l7.65-0.84c5.24-0.57,9.63-4.38,10.94-9.49l1.47-5.71c0.26-1-0.35-2.03-1.35-2.28
		c-1-0.26-2.03,0.35-2.28,1.35l-1.47,5.71c-0.92,3.6-4.03,6.29-7.72,6.69l-7.65,0.84c-5.55,0.61-10.13,4.87-11.14,10.36l-0.18,0.96
		h-7.22c-2.67,0-4.83,2.17-4.83,4.83v92.36c0,2.67,2.17,4.83,4.83,4.83h92.28c2.67,0,4.83-2.17,4.83-4.83V52.09
		c0-1.04-0.84-1.88-1.88-1.88s-1.88,0.84-1.88,1.88v71.08c0,0.6-0.49,1.08-1.08,1.08H17.86c-0.6,0-1.08-0.49-1.08-1.08V30.8
		c0-0.6,0.49-1.08,1.08-1.08h92.28c0.6,0,1.08,0.49,1.08,1.08v13.79C111.23,45.62,112.06,46.46,113.1,46.46z"/>
</g>
</svg>
