<?xml version="1.0" encoding="utf-8"?>
<!-- Generator: Adobe Illustrator 27.9.0, SVG Export Plug-In . SVG Version: 6.00 Build 0)  -->
<svg version="1.1" id="Layer_1" xmlns="http://www.w3.org/2000/svg" xmlns:xlink="http://www.w3.org/1999/xlink" x="0px" y="0px"
	 viewBox="0 0 128 128" style="enable-background:new 0 0 128 128;" xml:space="preserve">
<path d="M115.29,63.82l10.09-17.36c0.83-1.43,0.83-3.19,0.01-4.62l-11.33-19.71c-0.41-0.72-1-1.3-1.69-1.7
	c-0.69-0.4-1.48-0.62-2.31-0.62l-20.08-0.05l-10-17.4c-0.41-0.72-1-1.29-1.69-1.69c-0.69-0.4-1.48-0.62-2.31-0.62L53.23,0
	c-0.01,0-0.01,0-0.02,0l-0.54,0c-1.65-0.01-3.18,0.87-4.01,2.3L38.58,19.66l-19.52-0.05c-1.11,0-2.16,0.4-2.98,1.09
	c-0.79,0.4-1.47,1.01-1.93,1.8L2.72,42.16c-0.83,1.43-0.83,3.19-0.01,4.62l10,17.4L2.62,81.54c-0.83,1.43-0.83,3.19-0.01,4.62
	l11.33,19.71c0.41,0.72,1,1.3,1.69,1.7c0.69,0.4,1.48,0.62,2.31,0.62l20.08,0.05l10,17.4c0.41,0.72,1,1.29,1.69,1.69
	c0.69,0.4,1.48,0.62,2.31,0.62L74.77,128c0.01,0,0.01,0,0.02,0l0.54,0c1.65,0.01,3.18-0.87,4.01-2.3l10.08-17.36l19.52,0.05
	c1.11,0,2.16-0.4,2.98-1.09c0.79-0.4,1.47-1.01,1.93-1.8l11.42-19.65c0.83-1.43,0.83-3.19,0.01-4.62L115.29,63.82z M80.96,64.34
	l-8.39,14.45l-16.85-0.04l-8.67-15.08l8.39-14.45l16.85,0.04L80.96,64.34z M38.48,59.02l-16.85-0.04L12.97,43.9l8.4-14.45
	l16.85,0.04l8.67,15.08L38.48,59.02z M89.52,68.98l16.85,0.04l8.67,15.09l-8.4,14.45l-16.85-0.04l-8.67-15.08L89.52,68.98z
	 M106.81,29.05l8.67,15.08l-8.74,15.04l-16.85-0.04l-8.67-15.08l8.74-15.04L106.81,29.05z M72.73,9.28l8.67,15.08l-8.74,15.04
	l-2.3-0.01l-14.56-0.03l-8.67-15.09l8.74-15.04L72.73,9.28z M21.19,98.95l-8.67-15.08l8.74-15.04l16.85,0.04l8.67,15.08l-8.74,15.04
	L21.19,98.95z M55.27,118.72l-8.67-15.08l8.74-15.04l2.32,0.01l14.53,0.03l8.67,15.09l-8.74,15.04L55.27,118.72z"/>
</svg>
