<?xml version="1.0" encoding="utf-8"?>
<!-- Generator: Adobe Illustrator 28.0.0, SVG Export Plug-In . SVG Version: 6.00 Build 0)  -->
<svg version="1.1" id="Layer_1" xmlns="http://www.w3.org/2000/svg" xmlns:xlink="http://www.w3.org/1999/xlink" x="0px" y="0px"
	 viewBox="0 0 128 128" style="enable-background:new 0 0 128 128;" xml:space="preserve">
<g id="OGOBSC.tif">
	<g>
		<path d="M0,53C2.2,49.9,5.2,49,9,49c36.7,0.1,73.3,0.1,110,0.1c7.2,0,9,1.9,9,9.2c0,3.5,0,7,0,10.5c0,8.7-1.5,10.2-10,10.2
			c-32.2,0-64.3,0-96.5,0C17.3,79,13.2,78.7,9,79c-3.9,0.3-6.8-0.9-9-4C0,67.7,0,60.3,0,53z M63.8,74.5c14.3,0,28.6-0.1,43,0.1
			c3.2,0,4.5-0.8,4.3-4.2c-0.3-4.3-0.3-8.6,0-13c0.2-3.2-1.2-3.9-4.1-3.9c-28.6,0.1-57.3,0.1-85.9,0c-3,0-4.2,0.8-4,3.9
			c0.2,4.3,0.3,8.6,0,13c-0.2,3.5,1.2,4.2,4.3,4.1C35.5,74.4,49.6,74.5,63.8,74.5z M12.8,64.2c0-2.2-0.1-4.3,0-6.5
			c0.2-2.8-0.5-4.4-3.8-4.2c-2.9,0.1-4.8,0.7-4.7,4.1c0.1,4,0.2,8,0,11.9c-0.2,3.6,1.2,5,4.9,5c4,0,3.6-2.4,3.6-4.9
			C12.8,67.8,12.8,66,12.8,64.2z M123.6,64.1C123.6,64.1,123.6,64.1,123.6,64.1c-0.1-2.6,0.1-5.3-0.1-7.9c-0.3-3.2-2.9-2.5-5-2.6
			c-2.3-0.2-3.3,0.7-3.3,3.1c0.1,4.5,0.1,8.9,0,13.4c-0.1,2.6,0.1,4.5,3.6,4.4c3.2-0.1,5.1-0.8,4.9-4.5
			C123.5,68.1,123.6,66.1,123.6,64.1z"/>
		<path d="M39.9,16.5c0.9-0.2,1.2,1,1.6,1.8c2.2,4.3,4.3,8.6,6.4,12.9c0.6,1.3,1.1,2.3-0.7,3.2c-1.9,1-2.6,0.3-3.4-1.3
			c-2-4.2-4-8.4-6.2-12.5C36.3,18.2,37.3,17.3,39.9,16.5z"/>
		<path d="M91.1,19.1c-0.6,1.3-1.3,2.8-2.1,4.2c-1.7,3.4-3.4,6.8-5.1,10.3c-0.6,1.3-1.4,1.7-2.8,1c-1.3-0.7-2.1-1.3-1.2-3
			c2.4-4.6,4.6-9.2,6.9-13.8c0.5-1,1.1-1.6,2.3-0.9C90,17.3,91,17.6,91.1,19.1z"/>
		<path d="M14.1,22.1c0.7,0.5,1.3,0.8,1.8,1.2c3.9,3.3,7.8,6.7,11.8,10c1.4,1.1,1.2,2,0.2,3.3c-1.2,1.4-2.1,1.1-3.3,0.1
			c-3.8-3.3-7.6-6.5-11.3-9.7c-0.7-0.6-1.8-1.2-1.1-2.4C12.6,23.6,13.4,22.9,14.1,22.1z"/>
		<path d="M116.3,24.9c-0.4,0.6-0.5,1.1-0.9,1.3c-4.1,3.6-8.3,7.1-12.5,10.7c-1.3,1.1-2,0.3-2.8-0.6c-0.9-1-1.2-1.9,0.1-2.9
			c4.1-3.4,8.1-6.9,12.1-10.3c0.6-0.5,1.3-1.2,2.1-0.5C115.1,23.3,115.6,24.1,116.3,24.9z"/>
		<path d="M28.7,92.8c0.2,1.1-0.7,1.5-1.3,2c-3.8,3.3-7.6,6.5-11.3,9.7c-1.1,0.9-2,1.7-3.3,0.1c-1-1.3-1.2-2.2,0.1-3.3
			c3.9-3.3,7.8-6.7,11.7-10C27.1,89.2,27.7,91.6,28.7,92.8z"/>
		<path d="M101.5,90.1c1,0.8,1.7,1.2,2.4,1.7c3.5,3,7.1,6,10.6,9.1c1.2,1,2.3,1.8,0.9,3.6c-1.4,1.8-2.4,1-3.6-0.1
			c-3.6-3.1-7.3-6.2-11-9.4c-0.8-0.7-2.2-1.3-1.1-2.7C100.2,91.5,100.9,90.8,101.5,90.1z"/>
		<path d="M48.5,95.6c-1.7,3.4-3.3,7.1-5.4,10.4c-1.2,1.8-0.9,6.4-4.5,4.7c-4.3-2,0-4.7,0.8-6.8c1.1-3.2,3-6.2,4.6-9.3
			c0.6-1.2,1.2-2,2.6-1.1C47.4,94,48.6,94.2,48.5,95.6z"/>
		<path d="M82.3,93.2c1.2-0.2,1.4,0.9,1.8,1.8c2.1,4.1,4.1,8.3,6.2,12.4c0.7,1.5,1.2,2.6-0.7,3.6c-2.1,1.1-2.6-0.2-3.3-1.6
			c-2.1-4.1-4.1-8.3-6.2-12.3C78.8,94.6,80.3,93.9,82.3,93.2z"/>
		<path d="M66.1,24.9c0,2.3,0,4.7,0,7c0,1.3-0.3,2.2-1.9,2.3c-1.8,0.1-2.3-0.8-2.3-2.4c0-4.8,0-9.6,0-14.5c0-1.3,0.3-2.2,1.9-2.2
			c1.8-0.1,2.3,0.8,2.3,2.4C66.1,19.9,66.1,22.4,66.1,24.9z"/>
		<path d="M66.1,103.4c0,2.5,0,5,0,7.5c0,1.4-0.6,2-2.1,2c-1.5,0-2.1-0.7-2.1-2.1c0-5,0-10,0-15c0-1.4,0.6-2.1,2.1-2
			c1.5,0,2.1,0.7,2.1,2.1C66.1,98.4,66.1,100.9,66.1,103.4z"/>
		<path d="M44.6,62c-4,0-8,0-12,0c-1.3,0-2.7,0.2-2.7-1.9c0-1.9,0.7-2.7,2.6-2.7c8.3,0,16.6,0,24.9,0c1.5,0,2.5,0.5,2.5,2.3
			c0.1,2.2-1.3,2.3-2.9,2.3C52.9,62,48.7,62,44.6,62z"/>
		<path d="M25.8,59.9c0.2,1.8-1,2.1-2.5,2.1c-1.7,0-2.3-0.7-2.2-2.3c0-1.7,1-2.2,2.5-2.2C25.2,57.5,26,58.3,25.8,59.9z"/>
	</g>
</g>
</svg>
