<?xml version="1.0" encoding="utf-8"?>
<!-- Generator: Adobe Illustrator 28.0.0, SVG Export Plug-In . SVG Version: 6.00 Build 0)  -->
<svg version="1.1" id="Layer_1" xmlns="http://www.w3.org/2000/svg" xmlns:xlink="http://www.w3.org/1999/xlink" x="0px" y="0px"
	 viewBox="0 0 128 128" style="enable-background:new 0 0 128 128;" xml:space="preserve">
<g id="_x38_6irwD.tif">
	<g>
		<path d="M116,128c-4.3-5.7-9.9-10.2-14.8-15.4c-1.9-2-3.9-3.6-1.5-6.7c2-2.5-1.4-3.1-2.3-4.6c-1.1-1.8-2.5-1.4-4.2-0.3
			c-7.1,4.7-14.9,6.2-23.3,4.1c-11.9-3.1-21-13.5-21.8-25c-1-13.4,6-25.1,17.8-30c11.3-4.7,24.7-1.6,32.8,7.5
			c8.5,9.6,10.1,23.3,3.1,34.2c-2.5,3.9-0.7,5.5,1.7,7.7c0.6,0.6,1.4,1.3,2.1,0.6c3.6-3.4,5.5-0.3,7.8,1.9c4.9,4.7,9.2,10,14.7,14.1
			c0,1.3,0,2.7,0,4c-3.3,2-6,4.7-8,8C118.7,128,117.3,128,116,128z M100.3,76.8c-0.1-13.1-10.5-23.3-23.6-23.2
			c-13.1,0.1-23.3,10.5-23.2,23.6c0.1,13.1,10.4,23.3,23.6,23.2C90.3,100.2,100.4,90,100.3,76.8z M121,118.2c-0.3-0.6-0.4-1-0.7-1.4
			c-3.5-3.6-7-7.1-10.6-10.6c-1.2-1.2-2-0.2-2.8,0.6c-1.1,1-1.8,1.8-0.4,3.2c3.4,3.2,6.6,6.6,9.9,9.9c0.7,0.7,1.5,1.5,2.5,0.5
			C119.6,119.7,120.3,118.9,121,118.2z"/>
		<path d="M53.1,5.5c-14,0-28,0.1-42-0.1c-4.4-0.1-5.8,1.5-5.7,5.8c0.2,19.3,0.2,38.6,0,58c0,4.2,1.5,5.5,5.6,5.4
			c9.3-0.2,18.7-0.1,28,0c1.7,0,3.8-0.6,4,2.4c0.1,2.5-1,2.8-3.2,3.2c-4.3,0.8-1.7,4.5-2.2,6.9c-0.4,2,0.1,3.7,2.8,3.5
			c1.7-0.1,3.3,0.1,5,0c2.3-0.1,2.7,1.1,2.7,3.1c0,2.2-1.1,2.4-2.8,2.4c-5.2,0-10.3,0-15.5,0c-1.5,0-3.1,0.3-3.2-2.1
			c0-1.8,0.2-3.1,2.5-3.4c6-0.8,2.1-5.5,2.8-8.3c0.7-3-2.2-2.1-3.8-2.1c-6.3-0.1-12.7,0-19-0.1c-6.1-0.1-9-2.8-9-8.8
			C0,50.4,0,29.6,0,8.8C0.1,3,2.9,0.1,8.6,0C38.4,0,68.2,0,98,0c5.5,0,8.8,3.1,8.8,8.6c0.1,14.7,0,29.3,0.1,44
			c0,2.1-0.2,3.4-2.9,3.4c-3.1,0.1-3-1.8-2.9-3.9c0-13.2,0-26.3,0-39.5c0-7.2,0-7.2-7-7.2C80.4,5.5,66.8,5.5,53.1,5.5z"/>
		<path d="M69.3,19.8c-0.3-5.1,3-8.9,7.7-9.1c4.7-0.2,8.4,3.3,8.4,8c0,5-3.9,8.4-9.3,8.1c-3.8-0.2-9.6,5.5-9.3,9.2
			c0.3,5.5-2.9,9.3-7.9,9.4c-5,0.1-8-3.4-8-9.2c0-4.1-5.8-8.8-9.8-9.5c-6.4-1.2-8.3,4.1-12,7c-1.5,1.2-2.4,3.9-5.1,1.2
			c-2.7-2.6-0.3-3.6,1.1-5c3.5-3.7,7.9-6.6,7.4-13.1c-0.3-3.7,4.5-6.4,8.5-5.9c4.2,0.5,7.4,3,6.9,7.1c-0.6,5.7,3.5,7.9,6.4,10.9
			c2.1,2.2,4.9,0,7.5,0.7C64,30.1,69.4,22.4,69.3,19.8z M79.9,18.7c-0.3-1.4-1.1-2.5-2.6-2.5c-1.4,0-2.4,1-2.3,2.6
			c0.1,1.3,0.9,2.1,2.2,2.2C78.8,21.1,79.5,20.1,79.9,18.7z M58.7,35c-1.6,0.1-2.6,1-2.5,2.5c0.1,1.4,1.1,2.4,2.6,2.3
			c1.2-0.1,2.1-0.9,2.1-2.2C61.1,35.9,60.2,35.1,58.7,35z M40,16.2c-1.5,0.3-2.3,1.3-2.2,2.8c0.1,1.3,0.9,2.1,2.3,2
			c1.4,0,2.1-0.9,2.1-2.2C42.3,17.3,41.5,16.4,40,16.2z"/>
		<path d="M19.8,69.5c-6.6-0.3-10-4.6-9.3-11c0.2-2,1.1-2.4,2.9-2.4c1.8,0,2.8,0.5,2.7,2.5c-0.3,3.2,0.5,5.8,4.5,5.5
			c2.3-0.2,3.8,0.2,3.6,3.1C23.8,70.6,21.3,69.1,19.8,69.5z"/>
		<path d="M15.9,47.5c0.2,2.1-0.1,3.4-2.5,3.4c-2.2,0-3-0.9-2.9-3c0.1-1.7,0.4-2.9,2.5-2.9C14.9,45.1,16.5,45.2,15.9,47.5z"/>
		<path d="M80.1,58.9c7.5,0.5,15.2,8.2,15.8,15.4c0.1,1.2,0.6,2.9-1.4,3.1c-1.6,0.1-3.7,0.6-4.1-1.7c-1.1-6.6-5.1-10.2-11.4-11.5
			c-2.6-0.5-1.8-2.5-1.7-3.9C77.4,58.2,79.1,58.9,80.1,58.9z"/>
	</g>
</g>
</svg>
