<?xml version="1.0" encoding="utf-8"?>
<!-- Generator: Adobe Illustrator 28.0.0, SVG Export Plug-In . SVG Version: 6.00 Build 0)  -->
<svg version="1.1" id="Layer_1" xmlns="http://www.w3.org/2000/svg" xmlns:xlink="http://www.w3.org/1999/xlink" x="0px" y="0px"
	 viewBox="0 0 128 128" style="enable-background:new 0 0 128 128;" xml:space="preserve">
<g id="_x39_3RNHl.tif_1_">
	<g>
		<path d="M127.4,105.7c-8.9-16.3-17.9-32.7-26.7-49.1c-0.7-1.3-1.7-1.8-3.2-1.8c-22.3,0-44.6,0-67,0c-1.7,0-2.6,0.6-3.4,2
			C20.7,68.8,14.3,80.7,7.8,92.6c-2.6,4.7-5.2,9.3-7.8,14v1.7c0.3,1.3,1.3,1.8,2.5,1.9c0.6,0,1.2,0,1.9,0h45c2.8,0,2.8,0,2.8,2.7
			v7.6c0,2.5,0,2.5-2.6,2.6c-2.1,0-4.2-0.1-6.3,0.1c-1.4,0.1-2.3,1.1-2.4,2.4c-0.1,1.3,0.4,2,1.8,2.5h42.9c1.1-0.8,1.8-1.7,1.3-3.1
			c-0.5-1.3-1.6-1.5-2.9-1.5c-2.4,0.1-4.8,0-7.3,0c-0.8,0-1.1-0.2-1.1-1.1c0.1-3.6,0-7.1,0-10.7c0-1.9,0-1.9,1.9-1.9
			c15.9,0,31.9,0,47.8,0c1,0,1.9-0.1,2.5-1.1C128.3,107.7,128,106.7,127.4,105.7z M93.8,59.4c2.4-0.1,3.7,0.6,4.6,2.8
			c0.9,2.2,2.2,4.2,3.4,6.4c-7,0-13.8,0-20.6,0c-0.6,0-0.9-0.1-1.1-0.9c-0.5-2.7-1.2-5.4-1.9-8.3C83.5,59.4,88.7,59.6,93.8,59.4z
			 M54.3,60c0.1-0.6,0.5-0.6,0.9-0.6h17.6c0.5,0,0.8,0,1,0.7c0.5,2.5,1.1,5.1,1.7,7.6c0.1,0.5,0.2,0.8-0.6,0.8c-7.5,0-14.9,0-22.5,0
			C53,65.7,53.7,62.8,54.3,60z M52.3,73.1c7.8,0,15.6,0,23.4,0c0.7,0,1,0.2,1.2,1c0.6,3.2,1.4,6.3,2.1,9.4c0.2,0.9-0.1,1.1-0.9,1.1
			c-4.7,0-9.4,0-14.1,0H50.5c-1.7,0-1.7,0-1.3-1.6c0.7-2.9,1.4-5.9,2-8.9C51.3,73.3,51.6,73.1,52.3,73.1z M30.8,59.9
			c0.2-0.4,0.5-0.5,0.9-0.5c6,0,11.9,0,17.9,0c-0.7,2.9-1.3,5.7-1.9,8.5c-0.1,0.5-0.3,0.6-0.8,0.6H26.1
			C27.8,65.6,29.3,62.8,30.8,59.9z M39.4,104.6c-0.1,0.6-0.6,0.5-1,0.5H6.6c-0.1,0-0.1-0.1-0.3-0.1c2-3.8,4.1-7.5,6.1-11.2
			c0.7-1.3,1.4-2.6,2.1-3.9c0.3-0.5,0.5-0.8,1.2-0.8c8.9,0,17.9,0,26.8,0c0.1,0,0.2,0,0.4,0.1C41.7,94.4,40.6,99.5,39.4,104.6z
			 M43.2,84.6c-8.5,0-17,0-25.5,0c0,0-0.1-0.1-0.2-0.2c1.9-3.6,3.9-7.2,5.9-10.8c0.2-0.4,0.6-0.5,0.9-0.5h22.2
			c-0.8,3.6-1.6,7.2-2.4,10.7C44,84.4,43.8,84.6,43.2,84.6z M70.9,122.5c0,0.7-0.2,1-0.9,0.9c-3.9,0-7.9,0-11.9,0
			c-0.7,0-0.9-0.2-0.9-0.9c0-4,0-7.9,0-11.9c0-0.7,0.2-1,0.9-1c2,0.1,4,0,6,0c1.9,0,3.9,0,5.9,0c0.7,0,0.9,0.2,0.9,0.9
			C70.8,114.6,70.8,118.6,70.9,122.5z M44.1,105.1c0.8-3.5,1.6-6.9,2.3-10.4c0.4-1.6,0.7-3.1,1.1-4.7c0.1-0.6,0.4-0.9,1.1-0.9
			c10.3,0,20.6,0,30.8,0c0.7,0,1,0.3,1.1,0.9c1.1,5,2.2,10,3.4,15.1H44.1z M83.8,83.5c-0.7-3.4-1.5-6.8-2.3-10.3h21.9
			c0.6,0,1.1,0,1.4,0.6c1.9,3.6,3.8,7.1,5.7,10.6c-0.2,0.4-0.4,0.2-0.6,0.2c-8.2,0-16.5,0-24.7,0C84.2,84.6,83.9,84.3,83.8,83.5z
			 M89.7,105.2c-0.7,0-1-0.2-1.2-1c-1.1-4.9-2.2-9.9-3.4-14.8c0.4-0.4,0.8-0.2,1.2-0.2c8.5,0,17,0,25.6,0c0.7,0,1.2,0,1.6,0.8
			c2.6,4.9,5.3,9.8,8,14.7c0.1,0.1,0.1,0.2,0.2,0.5C110.9,105.1,100.3,105.1,89.7,105.2z"/>
		<path d="M64.1,13.7c-6.4,0-11.5,5-11.5,11.3c0,6.4,5,11.5,11.4,11.6c6.3,0,11.5-5,11.5-11.3C75.4,18.8,70.4,13.7,64.1,13.7z
			 M63.9,32c-3.7-0.1-6.8-3.2-6.7-6.9c0-3.7,3.2-6.9,6.9-6.8c3.7,0.1,6.8,3.2,6.7,6.9C70.8,28.9,67.6,32.1,63.9,32z"/>
		<path d="M47.9,6.6c0.1,0,0.3,0,0.4,0.1c2.1,1.2,3.9,2.9,5,5c0.5,0.9-0.2,1.8-1,2.4c-0.9,0.6-1.8,0.6-2.6-0.1
			c-1.3-1.1-2.5-2.4-3.6-3.6c-0.7-0.7-0.7-1.6-0.3-2.5C46.2,7.1,47,6.7,47.9,6.6z"/>
		<path d="M82.5,9c0,0.1,0,0.2,0,0.3c-0.2,1.1-4,5-5.2,5.2c-1,0.2-1.8-0.3-2.3-1.1c-0.6-0.9-0.6-1.8,0.1-2.6
			c1.1-1.3,2.4-2.5,3.6-3.6c0.7-0.7,1.6-0.7,2.5-0.3C82.1,7.4,82.4,8.1,82.5,9z"/>
		<path d="M53.4,38c0,1.4-4.1,5.6-5.5,5.6c-1.6,0-2.9-1.8-2.1-3.2c1.1-1.9,2.7-3.5,4.6-4.5C51.6,35.2,53.4,36.5,53.4,38z"/>
		<path d="M76.8,35.7c1.5,0,5.8,4.2,5.7,5.6c0,0.9-0.5,1.6-1.3,2.1c-0.9,0.5-1.8,0.4-2.5-0.3c-1.2-1.1-2.4-2.3-3.5-3.5
			c-0.7-0.7-0.8-1.6-0.3-2.5C75.3,36.2,76,35.8,76.8,35.7z"/>
		<path d="M61.7,4.5c0-0.8,0-1.5,0-2.3C61.8,0.9,62.7,0,64,0c1.3,0,2.2,0.9,2.3,2.2c0,1.6,0,3.1,0,4.7c0,1.3-1,2.2-2.3,2.2
			c-1.3,0-2.2-0.9-2.3-2.2C61.7,6.1,61.7,5.3,61.7,4.5z"/>
		<path d="M43.4,27.4c-0.8,0-1.5,0-2.3,0c-1.3-0.1-2.2-1-2.2-2.2c0-1.3,0.9-2.3,2.2-2.3c1.6,0,3.1,0,4.7,0c1.3,0,2.2,1,2.2,2.2
			c0,1.3-0.9,2.2-2.2,2.3C45,27.5,44.2,27.4,43.4,27.4z"/>
		<path d="M84.5,22.9c0.8,0,1.6,0,2.4,0c1.3,0.1,2.2,1,2.2,2.3c0,1.2-0.9,2.2-2.1,2.2c-1.6,0.1-3.2,0.1-4.8,0c-1.3,0-2.2-1-2.2-2.3
			c0-1.2,0.9-2.1,2.1-2.2C82.9,22.8,83.7,22.9,84.5,22.9z"/>
		<path d="M66.3,45.7c0,0.8,0,1.6,0,2.4c-0.1,1.3-1,2.2-2.4,2.1c-1.2,0-2.2-0.9-2.2-2.1c-0.1-1.6-0.1-3.2,0-4.9c0-1.3,1-2.1,2.2-2.1
			c1.3,0,2.3,0.8,2.3,2.1C66.3,44.1,66.3,44.9,66.3,45.7z"/>
	</g>
</g>
</svg>
