<?xml version="1.0" encoding="utf-8"?>
<!-- Generator: Adobe Illustrator 28.0.0, SVG Export Plug-In . SVG Version: 6.00 Build 0)  -->
<svg version="1.1" id="Layer_1" xmlns="http://www.w3.org/2000/svg" xmlns:xlink="http://www.w3.org/1999/xlink" x="0px" y="0px"
	 viewBox="0 0 128 128" style="enable-background:new 0 0 128 128;" xml:space="preserve">
<g id="QtYtVP.tif">
	<g>
		<path d="M118.2,52c2.8-1.4,5.5-2.8,8.3-4.1c0.7-0.4,1.3-0.8,1.5-1.6v-1.5c-0.2-1.1-1.1-1.4-2-1.9c-19.4-9.7-38.8-19.4-58.2-29.1
			c-1-0.5-2-1-3.1-1.3h-1.5c-0.2,0.4-0.7,0.5-1.1,0.6C42,23.2,21.9,33.3,1.7,43.4c-0.9,0.5-1.7,1-1.6,2.2c0,1.1,0.7,1.6,1.6,2.1
			c3.1,1.5,6.1,3,9.2,4.6c0.3,0.1,0.7,0.1,0.7,0.6c-3.2,1.6-6.4,3.2-9.7,4.8c-1.4,0.6-2.1,1.5-1.9,3.1c0.1,1.4,0,2.8,0,4.3
			c0.1,5.2-0.7,4.2,4.1,6.6c2.5,1.3,5,2.5,7.7,3.9C8.3,77.2,5,78.8,1.7,80.5c-0.9,0.4-1.6,0.9-1.6,2.1c0,1.2,0.7,1.7,1.7,2.2
			c20.2,10.1,40.5,20.2,60.7,30.4c1.2,0.6,2.1,0.6,3.3,0C85.8,105,106,94.9,126.1,84.9c0.7-0.4,1.4-0.8,1.9-1.5v-1.5
			c-0.2-0.8-0.8-1.3-1.5-1.6c-2.7-1.3-5.5-2.7-8.2-4.1c-0.4-0.2-0.9-0.3-1.2-0.7c0.3-0.5,0.8-0.5,1.2-0.7c2.7-1.4,5.4-2.7,8.2-4.1
			c0.7-0.4,1.3-0.8,1.5-1.6v-9.8c-0.2-0.8-0.8-1.3-1.5-1.6c-2.7-1.3-5.5-2.7-8.2-4.1c-0.4-0.2-0.9-0.3-1.2-0.8
			C117.4,52.3,117.8,52.2,118.2,52z M122.8,67.4c-7,3.5-14,7-21,10.5c-11.5,5.8-23,11.5-34.6,17.3c-0.3,0.2-0.7,0.3-1.2,0.5
			c0-0.9,0.1-1.7,0-2.4c-0.1-0.9,0.3-1.3,1-1.6c13-6.5,26-12.9,38.9-19.4c5.7-2.8,11.3-5.7,17-8.5c0.2-0.1,0.5-0.2,0.9-0.4
			c0,1.1,0,2.1,0,3C123.9,67.1,123.2,67.2,122.8,67.4z M7.4,45.7c-0.1-0.1-0.2-0.1-0.3-0.2c0.3-0.5,0.8-0.6,1.2-0.8
			c18.2-9.1,36.5-18.2,54.7-27.4c0.6-0.3,1.1-0.6,1.9-0.2c18.6,9.3,37.2,18.6,55.8,27.9c0.1,0.1,0.3,0.2,0.6,0.3
			c-8.6,4.3-17.1,8.5-25.5,12.7C85.5,63.3,75.2,68.5,65,73.6c-0.5,0.3-1,0.5-1.6,0.2C44.7,64.4,26,55.1,7.4,45.7z M16.2,55.2
			c0.6-0.3,1,0.1,1.4,0.3C32.4,63,47.3,70.4,62.1,77.9c1.4,0.7,2.5,0.6,3.9,0c14.8-7.5,29.7-14.9,44.5-22.3c0.7-0.4,1.3-0.4,2,0
			c2.8,1.5,5.7,2.8,8.5,4.3c0,0.5-0.5,0.5-0.7,0.6c-18.4,9.2-36.9,18.4-55.3,27.7c-0.6,0.3-1,0.4-1.6,0.1
			C44.7,78.8,26,69.5,7.4,60.2c-0.1-0.1-0.2-0.1-0.6-0.3C10.1,58.3,13.1,56.8,16.2,55.2z M5.5,67.6C4.4,67,4,66.4,4.2,65.2
			c0.1-0.6,0-1.2,0-1.8c0.6,0,0.9,0.3,1.4,0.5C23.8,73.1,42,82.2,60.3,91.3c1.2,0.6,1.9,1.2,1.7,2.7c-0.1,0.5,0,1,0,1.6
			c-0.6,0.1-0.9-0.3-1.3-0.5C42.3,85.9,23.9,76.7,5.5,67.6z M75.9,105.3c-3.7,1.8-7.4,3.7-11,5.5c-0.5,0.3-0.9,0.4-1.5,0.1
			c-18.6-9.3-37.3-18.6-55.9-28c-0.1-0.1-0.3-0.2-0.6-0.4c3.2-1.6,6.3-3.1,9.4-4.7c0.5-0.3,0.8,0.1,1.2,0.3
			c14.9,7.4,29.8,14.9,44.7,22.3c1.4,0.7,2.5,0.7,3.9,0c14.8-7.4,29.5-14.8,44.3-22.2c0.9-0.5,1.6-0.5,2.6,0
			c2.7,1.4,5.5,2.8,8.5,4.2C106,90.3,90.9,97.8,75.9,105.3z"/>
		<path d="M128,59.1c-0.5-0.7-1.1-1.1-1.8-1.5c-3.2-1.6-6.5-3.2-9.9-4.9c0.7-0.4,1.3-0.7,1.9-1c2.7-1.3,5.3-2.7,8-4
			c0.7-0.4,1.4-0.8,1.8-1.5c-0.2,0.8-0.8,1.3-1.5,1.6c-2.8,1.4-5.5,2.8-8.3,4.1c-0.4,0.2-0.8,0.3-1.1,0.7c0.3,0.5,0.8,0.6,1.2,0.8
			c2.7,1.4,5.4,2.7,8.2,4.1C127.2,57.9,127.8,58.3,128,59.1z"/>
		<path d="M128,81.8c-0.5-0.7-1.1-1.1-1.8-1.5c-3.2-1.6-6.5-3.2-9.9-4.9c1.1-0.6,2-1.1,2.9-1.5c2.3-1.2,4.7-2.3,7-3.5
			c0.7-0.4,1.3-0.8,1.8-1.5c-0.2,0.8-0.8,1.3-1.5,1.6c-2.7,1.3-5.5,2.7-8.2,4.1c-0.4,0.2-0.9,0.3-1.2,0.7c0.3,0.5,0.8,0.5,1.2,0.7
			c2.7,1.4,5.4,2.7,8.2,4.1C127.2,80.6,127.8,81,128,81.8z"/>
	</g>
</g>
</svg>
