<?xml version="1.0" encoding="utf-8"?>
<!-- Generator: Adobe Illustrator 28.0.0, SVG Export Plug-In . SVG Version: 6.00 Build 0)  -->
<svg version="1.1" id="Layer_1" xmlns="http://www.w3.org/2000/svg" xmlns:xlink="http://www.w3.org/1999/xlink" x="0px" y="0px"
	 viewBox="0 0 128 128" style="enable-background:new 0 0 128 128;" xml:space="preserve">
<g id="n4mrb1.tif">
	<g>
		<path d="M11.7,61.9c-1.1,0.3-2.1-0.3-2.5-1.5c-0.7-2.4-0.9-4.8-0.5-7.2c0.2-1.4,1.2-2,2.4-1.9c1.1,0.1,1.9,1.1,1.8,2.5
			c-0.3,1.8,0,3.6,0.3,5.5C13.6,60.6,12.9,61.6,11.7,61.9z"/>
		<path d="M44.8,28.3c0,1.2-0.6,1.9-2.2,2.3c-3.3,0.8-6.6,1.9-9.7,3.3c-6,2.6-11.4,5.8-15.7,10.9c-0.4,0.4-0.7,0.9-1.1,1.4
			c-0.9,1.1-2.1,1.2-3.1,0.5c-1-0.7-1.1-2-0.3-3.1c2.7-3.8,6.2-6.7,10.1-9.2c5.9-3.8,12.5-6.3,19.3-8.1
			C43.5,25.9,44.8,26.8,44.8,28.3z"/>
		<path d="M100.3,45.5c-2.6-2.9-5.8-5-9.3-6.6c-8.5-4.1-17.6-5.4-25.4-5.5c-9.2,0-16.6,1-23.8,3.6c-5.4,1.9-10.3,4.5-14.2,8.8
			c-5.2,5.7-5.4,12.9-0.6,18.9c2.7,3.4,6.3,5.8,10.2,7.6c7.1,3.4,14.6,4.8,22.4,5.3c8.6,0.5,16.9-0.3,25.1-2.8
			c5.9-1.8,11.3-4.5,15.7-9.1C106,59.6,106,51.7,100.3,45.5z M84.1,70.3c-8.6,2.9-17.4,3.6-26.3,2.8c-6.9-0.6-13.7-2.2-19.9-5.4
			c-2.2-1.1-4.3-2.5-6.2-4.3c4.2-3.9,9.1-6.1,14.4-7.6c8-2.3,16.1-2.8,24.3-2.1c6.9,0.6,13.6,2.1,19.8,5.3c2.2,1.1,4.3,2.5,6.1,4.3
			C92.8,66.8,88.6,68.8,84.1,70.3z M99.4,59.3c-0.2,0.4-0.3,0.8-0.9,0.3c-6.8-5.8-15-8.3-23.6-9.7c-6.8-1.1-13.7-1.1-20.5-0.1
			c-6.3,0.9-12.4,2.4-18.1,5.3c-2.3,1.2-4.5,2.5-6.4,4.3c-0.8,0.7-1,0.3-1.2-0.3c-1.5-3.6-0.7-6.8,1.7-9.8c3-3.7,7-5.9,11.3-7.6
			c8.1-3.2,16.6-4.3,25.3-3.9c7.4,0.3,14.5,1.6,21.3,4.6c3.7,1.6,7.1,3.7,9.7,6.9c1.5,1.8,2.3,3.9,2.5,6.3
			C100.2,56.8,99.9,58.1,99.4,59.3z"/>
		<path d="M119.5,55.6c-0.1,5.8-2.6,10.5-6.4,14.7c-2.7,3-5.9,5.3-9.4,7.4c-1.2,0.7-2.5,0.5-3.2-0.5c-0.7-1.1-0.4-2.3,1-3.2
			c4.1-2.5,7.8-5.4,10.6-9.4c2.6-3.8,3.7-8,2.7-12.6c-0.3-1.5,0.3-2.6,1.6-2.9c1.2-0.3,2.3,0.5,2.6,2
			C119.3,52.6,119.6,54.1,119.5,55.6z"/>
		<path d="M128,53.6c-0.3-0.4-0.1-0.9-0.1-1.3c0,0,0,0,0,0c0-1.2-0.1-2.3-0.4-3.5c-1.6-6.3-5.3-11.5-9.9-15.9
			c-5.1-4.9-11.1-8.5-17.6-11.2c-10.5-4.4-21.5-6.8-33-6.7H67c-0.6-0.1-1.3,0.2-1.9-0.1h-2.3c-0.6,0.3-1.4,0-2,0.2
			c-1.5,0.1-3,0.1-4.5,0.3c-8.3,0.6-16.3,2.2-24.1,5.1C22.9,23.8,14.6,28.5,8,36c-5.2,5.9-8.2,12.7-8,20.7c0.1,5.3,0,10.7,0,16
			c0,4.4,1.1,8.6,3.2,12.5c3.7,7.1,9.4,12.2,16.1,16.3C31.5,109,44.9,112.2,59,113c6.5,0.3,13,0.1,19.5-0.9c9-1.4,17.7-3.9,25.8-8.1
			c7.3-3.7,13.7-8.5,18.4-15.3c2.7-3.9,4.5-8.1,5-12.8c0.3-0.4-0.1-0.9,0.2-1.3V53.6z M123.7,64.7c-0.1,2.9,0.2,6.3-0.2,9.8
			c-0.5,5.5-2.8,10.2-6.3,14.3c-5.6,6.7-12.9,11-21,14.1c-12.1,4.7-24.8,6.3-37.8,5.6c-10.3-0.6-20.3-2.6-29.8-6.8
			c-7.7-3.4-14.6-8-19.6-14.9c-3.2-4.5-4.9-9.4-4.9-15c0-4.7,0.1-9.5,0-14.2C4,49,7.4,42.1,13.5,36.3c6.6-6.3,14.6-10.2,23.2-12.9
			c11-3.4,22.3-4.6,33.7-3.8c11,0.7,21.6,3.1,31.5,8c6.6,3.3,12.5,7.5,16.8,13.5c3.3,4.6,5.1,9.6,5,15.3
			C123.7,59,123.7,61.6,123.7,64.7z"/>
		<path d="M62.8,14.9c-0.6,0.5-1.3,0.2-2,0.2c0-0.1,0-0.1,0-0.2C61.4,14.9,62.1,14.9,62.8,14.9z"/>
		<path d="M67,14.9c0,0.1,0,0.1,0,0.2c-0.7-0.1-1.4,0.3-2-0.2C65.7,14.9,66.4,14.9,67,14.9z"/>
		<path d="M127.8,52.3c0.1,0,0.1,0,0.2,0c0,0.4,0,0.8,0,1.2C127.7,53.2,127.7,52.8,127.8,52.3z"/>
		<path d="M127.8,75.8c-0.1-0.5-0.1-0.9,0.2-1.3c0,0.4,0,0.8,0,1.2l-0.1,0L127.8,75.8z"/>
		<path d="M11.7,61.9c-1.1,0.3-2.1-0.3-2.5-1.5c-0.7-2.4-0.9-4.8-0.5-7.2c0.2-1.4,1.2-2,2.4-1.9c1.1,0.1,1.9,1.1,1.8,2.5
			c-0.3,1.8,0,3.6,0.3,5.5C13.6,60.6,12.9,61.6,11.7,61.9z"/>
		<path d="M44.8,28.3c0,1.2-0.6,1.9-2.2,2.3c-3.3,0.8-6.6,1.9-9.7,3.3c-6,2.6-11.4,5.8-15.7,10.9c-0.4,0.4-0.7,0.9-1.1,1.4
			c-0.9,1.1-2.1,1.2-3.1,0.5c-1-0.7-1.1-2-0.3-3.1c2.7-3.8,6.2-6.7,10.1-9.2c5.9-3.8,12.5-6.3,19.3-8.1
			C43.5,25.9,44.8,26.8,44.8,28.3z"/>
		<path d="M100.3,45.5c-2.6-2.9-5.8-5-9.3-6.6c-8.5-4.1-17.6-5.4-25.4-5.5c-9.2,0-16.6,1-23.8,3.6c-5.4,1.9-10.3,4.5-14.2,8.8
			c-5.2,5.7-5.4,12.9-0.6,18.9c2.7,3.4,6.3,5.8,10.2,7.6c7.1,3.4,14.6,4.8,22.4,5.3c8.6,0.5,16.9-0.3,25.1-2.8
			c5.9-1.8,11.3-4.5,15.7-9.1C106,59.6,106,51.7,100.3,45.5z M84.1,70.3c-8.6,2.9-17.4,3.6-26.3,2.8c-6.9-0.6-13.7-2.2-19.9-5.4
			c-2.2-1.1-4.3-2.5-6.2-4.3c4.2-3.9,9.1-6.1,14.4-7.6c8-2.3,16.1-2.8,24.3-2.1c6.9,0.6,13.6,2.1,19.8,5.3c2.2,1.1,4.3,2.5,6.1,4.3
			C92.8,66.8,88.6,68.8,84.1,70.3z M99.4,59.3c-0.2,0.4-0.3,0.8-0.9,0.3c-6.8-5.8-15-8.3-23.6-9.7c-6.8-1.1-13.7-1.1-20.5-0.1
			c-6.3,0.9-12.4,2.4-18.1,5.3c-2.3,1.2-4.5,2.5-6.4,4.3c-0.8,0.7-1,0.3-1.2-0.3c-1.5-3.6-0.7-6.8,1.7-9.8c3-3.7,7-5.9,11.3-7.6
			c8.1-3.2,16.6-4.3,25.3-3.9c7.4,0.3,14.5,1.6,21.3,4.6c3.7,1.6,7.1,3.7,9.7,6.9c1.5,1.8,2.3,3.9,2.5,6.3
			C100.2,56.8,99.9,58.1,99.4,59.3z"/>
		<path d="M119.5,55.6c-0.1,5.8-2.6,10.5-6.4,14.7c-2.7,3-5.9,5.3-9.4,7.4c-1.2,0.7-2.5,0.5-3.2-0.5c-0.7-1.1-0.4-2.3,1-3.2
			c4.1-2.5,7.8-5.4,10.6-9.4c2.6-3.8,3.7-8,2.7-12.6c-0.3-1.5,0.3-2.6,1.6-2.9c1.2-0.3,2.3,0.5,2.6,2
			C119.3,52.6,119.6,54.1,119.5,55.6z"/>
		<path d="M100.3,45.5c-2.6-2.9-5.8-5-9.3-6.6c-8.5-4.1-17.6-5.4-25.4-5.5c-9.2,0-16.6,1-23.8,3.6c-5.4,1.9-10.3,4.5-14.2,8.8
			c-5.2,5.7-5.4,12.9-0.6,18.9c2.7,3.4,6.3,5.8,10.2,7.6c7.1,3.4,14.6,4.8,22.4,5.3c8.6,0.5,16.9-0.3,25.1-2.8
			c5.9-1.8,11.3-4.5,15.7-9.1C106,59.6,106,51.7,100.3,45.5z M84.1,70.3c-8.6,2.9-17.4,3.6-26.3,2.8c-6.9-0.6-13.7-2.2-19.9-5.4
			c-2.2-1.1-4.3-2.5-6.2-4.3c4.2-3.9,9.1-6.1,14.4-7.6c8-2.3,16.1-2.8,24.3-2.1c6.9,0.6,13.6,2.1,19.8,5.3c2.2,1.1,4.3,2.5,6.1,4.3
			C92.8,66.8,88.6,68.8,84.1,70.3z M99.4,59.3c-0.2,0.4-0.3,0.8-0.9,0.3c-6.8-5.8-15-8.3-23.6-9.7c-6.8-1.1-13.7-1.1-20.5-0.1
			c-6.3,0.9-12.4,2.4-18.1,5.3c-2.3,1.2-4.5,2.5-6.4,4.3c-0.8,0.7-1,0.3-1.2-0.3c-1.5-3.6-0.7-6.8,1.7-9.8c3-3.7,7-5.9,11.3-7.6
			c8.1-3.2,16.6-4.3,25.3-3.9c7.4,0.3,14.5,1.6,21.3,4.6c3.7,1.6,7.1,3.7,9.7,6.9c1.5,1.8,2.3,3.9,2.5,6.3
			C100.2,56.8,99.9,58.1,99.4,59.3z"/>
		<path d="M44.8,28.3c0,1.2-0.6,1.9-2.2,2.3c-3.3,0.8-6.6,1.9-9.7,3.3c-6,2.6-11.4,5.8-15.7,10.9c-0.4,0.4-0.7,0.9-1.1,1.4
			c-0.9,1.1-2.1,1.2-3.1,0.5c-1-0.7-1.1-2-0.3-3.1c2.7-3.8,6.2-6.7,10.1-9.2c5.9-3.8,12.5-6.3,19.3-8.1
			C43.5,25.9,44.8,26.8,44.8,28.3z"/>
		<path d="M119.5,55.6c-0.1,5.8-2.6,10.5-6.4,14.7c-2.7,3-5.9,5.3-9.4,7.4c-1.2,0.7-2.5,0.5-3.2-0.5c-0.7-1.1-0.4-2.3,1-3.2
			c4.1-2.5,7.8-5.4,10.6-9.4c2.6-3.8,3.7-8,2.7-12.6c-0.3-1.5,0.3-2.6,1.6-2.9c1.2-0.3,2.3,0.5,2.6,2
			C119.3,52.6,119.6,54.1,119.5,55.6z"/>
		<path d="M11.7,61.9c-1.1,0.3-2.1-0.3-2.5-1.5c-0.7-2.4-0.9-4.8-0.5-7.2c0.2-1.4,1.2-2,2.4-1.9c1.1,0.1,1.9,1.1,1.8,2.5
			c-0.3,1.8,0,3.6,0.3,5.5C13.6,60.6,12.9,61.6,11.7,61.9z"/>
	</g>
</g>
</svg>
