<?xml version="1.0" encoding="utf-8"?>
<!-- Generator: Adobe Illustrator 28.0.0, SVG Export Plug-In . SVG Version: 6.00 Build 0)  -->
<svg version="1.1" id="Layer_1" xmlns="http://www.w3.org/2000/svg" xmlns:xlink="http://www.w3.org/1999/xlink" x="0px" y="0px"
	 viewBox="0 0 128 128" style="enable-background:new 0 0 128 128;" xml:space="preserve">
<g id="BvkggA.tif">
	<g>
		<path d="M87.3,44.7c-0.5-1.8-1.4-3.5-2.5-5c-4.3-5.9-9.6-10.8-15.8-14.6c-2.8-1.7-5.7-2.9-9-3.2c-5.2-0.5-9.5,4-8.5,9.2
			c0.4,2.3,1.5,4.3,2.8,6.1c5,6.7,11.3,11.8,18.7,15.4c2.2,1.1,4.5,1.7,6.6,1.8C85.4,54.5,88.8,49.9,87.3,44.7z M79.6,48.7
			c-1.2-0.1-2.6-0.5-3.9-1.1c-6.7-3.3-12.3-7.8-16.8-13.7c-0.9-1.1-1.6-2.3-1.9-3.8c-0.2-1.2,0.3-2.1,1.5-2.4
			c1.4-0.3,2.6,0.1,3.9,0.5c4.8,1.8,8.7,5.1,12.3,8.5c2.2,2.1,4.2,4.3,5.8,6.9c0.5,0.8,1,1.6,1.2,2.5C82.3,48,81.6,48.8,79.6,48.7z"
			/>
		<path d="M97.7,44.2c-3.4-10.7-10.5-18.6-19.8-24.5c-5.9-3.8-12.4-6.5-19.2-8.4c-1-0.3-1.5-0.8-1.5-1.9c0-1.4,0.1-2.7,0-4.1
			c-0.1-2.7-2.1-4.9-4.8-5.1c-4.4-0.4-8.8-0.1-13.2-0.1c-1.7,0-2.9,0.9-3.9,2.2c-1,1.2-1.3,2.6-1.3,4.1c0,2.4,0,4.8,0,7.2
			c0,1.1-0.2,2.1-0.6,3.2c-1,2.5-1.7,5-2.2,7.6c-1.9,8.4-2.4,16.9-2.3,25.4V50c-0.1,1.5,0.2,3-0.1,4.5v0.3c0.3,0.5,0.1,1.1,0.1,1.7
			c0,20.2,0,40.3,0,60.5c0,2.1,0.3,4,1.5,5.8c2.1,3.2,4.9,5.1,8.8,5.4h0.6c0.4-0.2,0.8-0.1,1.2-0.1c15.1,0,30.3,0,45.4,0
			c0.4,0,0.9-0.1,1.2,0.1h0.6c0.1-0.1,0.2-0.1,0.2-0.1c6.3-0.5,10.5-5,10.5-11.4c0-21.1,0-42.2,0-63.3
			C99.1,50.1,98.6,47.1,97.7,44.2z M93.3,116.6c-0.2,3.3-2.7,5.6-6.4,5.6c-3.9,0-7.7,0-11.6,0c-11.3,0-22.7,0-34,0
			c-3.8,0-6.4-2.4-6.5-5.8c0-1,0.2-1.2,1.2-1.2c9.3,0,18.7,0,28,0c9.2,0,18.5,0,27.7,0C92.9,115.2,93.3,115.4,93.3,116.6z M64,100.6
			c5.4,0,10.8,0,16.1,0c1.8,0,2.9,0.8,3.1,2.2c0.3,1.8-1,3.2-3,3.3c-4.1,0-8.3,0-12.4,0H47.7c-1.4,0-2.5-0.6-2.9-2
			c-0.4-1.2,0.1-2.3,1.1-3.1c0.7-0.5,1.4-0.4,2.2-0.4H64z M48.8,85.3c3.3-1.6,6.3-3.2,9.4-4.7c2-1,4-2.6,6-2.7
			c1.9,0,3.9,1.7,5.8,2.7c3,1.5,6,3,8.9,4.5c0.1,0,0.1,0.1,0.2,0.3c-2.4,1.2-4.8,2.4-7.2,3.6c-2.4,1.2-4.7,2.4-7.1,3.5
			c-0.4,0.2-0.8,0.5-1.3,0.2C58.7,90.3,53.8,87.9,48.8,85.3z M91.9,61.8c-9.3,0-18.6,0-27.9,0c-9.3,0-18.6,0-27.9,0
			c-1,0-1.4-0.2-1.3-1.3c0.1-6.4-0.2-12.9,0.4-19.3c0.6-7.9,1.4-15.8,4.4-23.2c0.5-1.2,1-1.7,2.4-1.7c3,0.1,6,0.1,9.1,0
			c4.9-0.1,9.3,1.7,13.7,3.4c8.8,3.4,16.4,8.6,22.1,16.3c4.1,5.6,6.4,11.8,6.3,18.8c0,1.9-0.1,3.8,0,5.7
			C93.3,61.7,92.9,61.8,91.9,61.8z"/>
		<path d="M28.9,54.7c0.6,0.4,0.3,1,0.3,1.5c0,19.8,0.1,39.6,0,59.5c0,6.7,5,11.5,10,12c0.1,0,0.2,0.2,0.3,0.3c-3.5,0-7,0-10.5,0
			C28.9,103.6,28.9,79.1,28.9,54.7z"/>
		<path d="M39.9,128c0.3-0.5,0.9-0.3,1.3-0.3c15.1,0,30.2,0,45.3,0c0.4,0,1-0.2,1.3,0.3C71.8,128,55.9,128,39.9,128z"/>
		<path d="M28.9,49.9c0.1,0,0.2,0,0.2,0c-0.1,1.5,0.4,3.1-0.2,4.6C28.9,52.9,28.9,51.4,28.9,49.9z"/>
		<path d="M87.3,44.7c-0.5-1.8-1.4-3.5-2.5-5c-4.3-5.9-9.6-10.8-15.8-14.6c-2.8-1.7-5.7-2.9-9-3.2c-5.2-0.5-9.5,4-8.5,9.2
			c0.4,2.3,1.5,4.3,2.8,6.1c5,6.7,11.3,11.8,18.7,15.4c2.2,1.1,4.5,1.7,6.6,1.8C85.4,54.5,88.8,49.9,87.3,44.7z M79.6,48.7
			c-1.2-0.1-2.6-0.5-3.9-1.1c-6.7-3.3-12.3-7.8-16.8-13.7c-0.9-1.1-1.6-2.3-1.9-3.8c-0.2-1.2,0.3-2.1,1.5-2.4
			c1.4-0.3,2.6,0.1,3.9,0.5c4.8,1.8,8.7,5.1,12.3,8.5c2.2,2.1,4.2,4.3,5.8,6.9c0.5,0.8,1,1.6,1.2,2.5C82.3,48,81.6,48.8,79.6,48.7z"
			/>
		<path d="M87.3,44.7c-0.5-1.8-1.4-3.5-2.5-5c-4.3-5.9-9.6-10.8-15.8-14.6c-2.8-1.7-5.7-2.9-9-3.2c-5.2-0.5-9.5,4-8.5,9.2
			c0.4,2.3,1.5,4.3,2.8,6.1c5,6.7,11.3,11.8,18.7,15.4c2.2,1.1,4.5,1.7,6.6,1.8C85.4,54.5,88.8,49.9,87.3,44.7z M79.6,48.7
			c-1.2-0.1-2.6-0.5-3.9-1.1c-6.7-3.3-12.3-7.8-16.8-13.7c-0.9-1.1-1.6-2.3-1.9-3.8c-0.2-1.2,0.3-2.1,1.5-2.4
			c1.4-0.3,2.6,0.1,3.9,0.5c4.8,1.8,8.7,5.1,12.3,8.5c2.2,2.1,4.2,4.3,5.8,6.9c0.5,0.8,1,1.6,1.2,2.5C82.3,48,81.6,48.8,79.6,48.7z"
			/>
	</g>
</g>
</svg>
