<?xml version="1.0" encoding="utf-8"?>
<!-- Generator: Adobe Illustrator 28.0.0, SVG Export Plug-In . SVG Version: 6.00 Build 0)  -->
<svg version="1.1" id="Layer_1" xmlns="http://www.w3.org/2000/svg" xmlns:xlink="http://www.w3.org/1999/xlink" x="0px" y="0px"
	 viewBox="0 0 128 128" style="enable-background:new 0 0 128 128;" xml:space="preserve">
<g>
	<path d="M45,58.6v3.9c0,4.4,3.5,7.9,7.9,7.9c2.1,0,4.1-0.8,5.6-2.3c3.1,3,8,3,11.1,0c3.1,3.1,8.1,3,11.2-0.1
		c1.5-1.5,2.3-3.5,2.3-5.6v-3.9c11.3-5.7,18.2-15.9,18.2-27.1C101.2,14.1,84.5,0,64,0S26.8,14.1,26.8,31.5
		C26.8,42.7,33.7,53,45,58.6z M64,4.7c17.9,0,32.5,12,32.5,26.8c0,9.7-6.4,18.7-16.8,23.5c-0.8,0.4-1.4,1.2-1.4,2.2v5.4
		c0.1,1.8-1.3,3.2-3.1,3.3c-1.8,0.1-3.2-1.3-3.3-3.1c0-0.1,0-0.1,0-0.2c0-1.3-1.1-2.4-2.4-2.4c-1.3,0-2.4,1.1-2.4,2.4
		c-0.1,1.8-1.5,3.1-3.3,3.1c-1.7,0-3-1.4-3.1-3.1c0-1.3-1.1-2.4-2.4-2.4c-1.3,0-2.4,1.1-2.4,2.4c0.1,1.8-1.3,3.2-3.1,3.3
		c-1.8,0.1-3.2-1.3-3.3-3.1c0-0.1,0-0.1,0-0.2v-5.4c0-0.9-0.5-1.8-1.4-2.2C38,50.3,31.5,41.3,31.5,31.5C31.5,16.8,46.1,4.7,64,4.7z"
		/>
	<path d="M50.6,44.2c6.8,0,12.4-5.5,12.4-12.4s-5.5-12.4-12.4-12.4S38.2,25,38.2,31.8c0,0,0,0,0,0C38.2,38.7,43.8,44.2,50.6,44.2z
		 M50.6,24.2c4.2,0,7.6,3.4,7.6,7.6s-3.4,7.6-7.6,7.6S43,36.1,43,31.9C43,27.6,46.4,24.2,50.6,24.2L50.6,24.2z"/>
	<path d="M77.4,44.2c6.8,0,12.4-5.5,12.4-12.4s-5.5-12.4-12.4-12.4S65,25,65,31.8c0,0,0,0,0,0C65.1,38.7,70.6,44.2,77.4,44.2z
		 M77.4,24.2c4.2,0,7.6,3.4,7.6,7.6s-3.4,7.6-7.6,7.6s-7.6-3.4-7.6-7.6C69.8,27.6,73.2,24.2,77.4,24.2L77.4,24.2z"/>
	<path d="M120,104.6c-1.7-5.1-7.2-7.8-12.2-6.1c-1.7,0.6-3.2,1.6-4.3,2.9l-21-10.5l21-10.5c3.4,4.1,9.5,4.6,13.6,1.2
		c4.1-3.4,4.6-9.5,1.2-13.6c-0.9-1.1-2-1.9-3.3-2.5c1.1-5.2-2.3-10.3-7.5-11.4c-5.2-1.1-10.3,2.3-11.4,7.5c-0.3,1.4-0.3,2.8,0.1,4.1
		L64,81.7l-32.1-16c1.2-5.2-2-10.4-7.2-11.6c-5.2-1.2-10.4,2-11.6,7.2c-0.3,1.4-0.3,2.8-0.1,4.2c-4.8,2.3-6.9,8-4.6,12.8
		c2.3,4.8,8,6.9,12.8,4.6c1.3-0.6,2.4-1.5,3.3-2.5l21,10.5l-21,10.5c-3.4-4.1-9.5-4.6-13.6-1.2c-4.1,3.4-4.6,9.5-1.2,13.6
		c0.9,1.1,2,1.9,3.3,2.5c-1.1,5.2,2.3,10.3,7.5,11.4s10.3-2.3,11.4-7.5c0.3-1.4,0.3-2.8-0.1-4.1l32.1-16l32.1,16
		c-1.2,5.2,2,10.4,7.2,11.6c5.2,1.2,10.4-2,11.6-7.2c0.3-1.4,0.3-2.8,0.1-4.2C119.4,114.3,121.5,109.2,120,104.6L120,104.6z
		 M100.1,69c1.2-0.6,1.6-2,1.1-3.2c0-0.1-0.1-0.1-0.1-0.2c-1.2-2.4-0.2-5.4,2.3-6.6c2.4-1.2,5.4-0.2,6.6,2.3
		c0.7,1.4,0.7,3.1-0.1,4.5c-0.6,1.1-0.2,2.6,0.9,3.2c0.2,0.1,0.5,0.2,0.8,0.3c2.7,0.4,4.5,2.9,4.2,5.6c-0.4,2.7-2.9,4.5-5.6,4.2
		c-1.6-0.2-2.9-1.2-3.7-2.6c0,0,0-0.1,0-0.1c-0.5-1.2-1.9-1.7-3.1-1.2c0,0-0.1,0-0.1,0L77.1,88.3l-7.8-3.9L100.1,69z M27.9,112.8
		c-1.2,0.6-1.6,2-1.1,3.2c0,0,0,0,0,0c0,0,0.1,0.1,0.1,0.2c1.2,2.4,0.2,5.4-2.3,6.6c-2.4,1.2-5.4,0.2-6.6-2.3
		c-0.7-1.4-0.7-3.1,0.1-4.5c0.6-1.1,0.2-2.6-1-3.2c-0.2-0.1-0.5-0.2-0.8-0.3c-2.7-0.4-4.5-2.9-4.2-5.6c0.2-1.6,1.2-3,2.7-3.7
		c2.4-1.2,5.3-0.2,6.6,2.1l0,0.1c0.5,1.2,1.9,1.7,3.1,1.2c0,0,0.1,0,0.1,0l26.1-13.1l7.8,3.9L27.9,112.8z M115.2,109.8
		c-0.7,1.4-2.1,2.4-3.7,2.7c-1.3,0.2-2.2,1.4-2,2.7c0,0.3,0.1,0.5,0.3,0.8c1.3,2.4,0.4,5.4-2,6.7c-2.4,1.3-5.4,0.4-6.7-2
		c-0.8-1.4-0.8-3.1-0.1-4.5c0-0.1,0.1-0.1,0.1-0.2c0.6-1.2,0.1-2.6-1.1-3.2c0,0,0,0,0,0L24.8,75.2c-1.2-0.6-2.6-0.1-3.2,1.1
		c0,0,0,0.1,0,0.1c0,0,0,0,0,0.1c-1.2,2.4-4.2,3.4-6.6,2.1c-2.4-1.2-3.4-4.2-2.1-6.6c0.7-1.4,2.1-2.4,3.7-2.6c1.3-0.2,2.2-1.4,2-2.7
		c0-0.3-0.1-0.5-0.3-0.8c-1.3-2.4-0.4-5.4,1.9-6.7c2.4-1.3,5.4-0.4,6.7,1.9c0.8,1.4,0.8,3.1,0.1,4.5c0,0.1-0.1,0.1-0.1,0.2
		c-0.6,1.2-0.1,2.6,1.1,3.2l75.3,37.6c1.2,0.6,2.6,0.1,3.2-1.1c0,0,0-0.1,0-0.1c0,0,0,0,0-0.1c1.2-2.4,4.2-3.4,6.6-2.2
		C115.5,104.5,116.5,107.4,115.2,109.8L115.2,109.8z"/>
</g>
</svg>
