<?xml version="1.0" encoding="utf-8"?>
<!-- Generator: Adobe Illustrator 28.0.0, SVG Export Plug-In . SVG Version: 6.00 Build 0)  -->
<svg version="1.1" id="Layer_1" xmlns="http://www.w3.org/2000/svg" xmlns:xlink="http://www.w3.org/1999/xlink" x="0px" y="0px"
	 viewBox="0 0 128 128" style="enable-background:new 0 0 128 128;" xml:space="preserve">
<g id="_x37_vnd9x.tif">
	<g>
		<path d="M90.4,91.2c0,8.3,0,16.5,0,24.6c0,1.5-0.8,2.2-2.5,2.2c-5.2,0-10.4,0-15.6,0c-10.6,0-21.2,0-31.8,0
			c-2.4,0-2.9-0.6-2.9-2.9c0-10.7,0-21.3,0-32c0-0.9,0.2-1.5,0.9-2c1.6-1.3,3.3-2.4,5.3-2.9c2.5-0.6,4.8,0.2,7.1,1.2
			c4,1.8,7.5,4.5,11.3,6.8c4,2.5,8.2,4.8,12.9,6c5,1.2,9.9,1,14.7-0.8C89.8,91.4,90,91.3,90.4,91.2z"/>
		<path d="M100.4,63.5c-0.5-0.4-0.2-0.9-0.2-1.4c-0.4-5.1-1.5-9.9-4.4-14.2c-2.8-4.1-6.9-6.6-11.3-8.6c-2.4-1.1-4.9-2-7.1-3.5
			c-1.8-1.2-2.8-2.8-2.7-5c0.1-2.9,0-5.8,0-8.7c0-0.8-0.1-1.1-1-1.1c-6.4,0-12.9,0-19.3,0c-0.8,0-1,0.2-1,1c0,2.8-0.1,5.6,0,8.4
			c0.1,2.8-1.1,4.6-3.5,5.9c-2.2,1.2-4.5,2.2-6.9,3.2c-9.8,4.2-14.9,11.8-15.2,22.3c-0.5,17.9-0.2,35.9-0.2,53.9
			c0,5.7,3.1,10,8,11.7c0.6,0.2,1.3,0.2,1.8,0.6h52.6c1.9-0.2,3.7-0.8,5.3-1.9c3-2.2,4.6-5.1,5-8.8v-0.7c-0.2-0.4-0.1-0.8-0.1-1.2
			c0-16.3,0-32.7,0-49c0-0.4-0.1-0.8,0.1-1.2V63.5z M93.6,116.1c-0.2,3.1-2.3,5.2-5.4,5.2c-5,0-10,0-15,0c-10.9,0-21.9-0.1-32.8,0
			c-4.2,0.1-6.2-2.9-6.2-6.3c0.1-8.4,0-16.7,0-25.1c0-8,0-16,0-24c0-3,0.3-6,1.1-8.9c1.7-5.9,5.7-9.5,11.2-11.9c2.3-1,4.6-2,6.8-3.2
			c4.5-2.3,6.8-5.9,6.6-11.1c0-1.2,0-2.4,0-3.6c0-0.6,0.1-0.9,0.8-0.9c2.1,0,4.2,0,6.4,0c0.7,0,0.8,0.3,0.8,0.9c0,2-0.1,4,0.1,6
			c0.4,3.8,2.6,6.5,5.8,8.3C76.2,43,78.6,44,81,45c4.8,2.1,8.9,5,10.9,10.1c1.4,3.5,1.7,7.2,1.7,10.9c0,16.4,0,32.8,0,49.2
			C93.6,115.5,93.6,115.8,93.6,116.1z"/>
		<path d="M64,19c-4.4,0-8.9,0-13.3,0c-1,0-1.2-0.3-1.2-1.2c0.1-2.1,0-4.2,0-6.2c0-0.6,0.1-0.9,0.8-0.8c9.1,0,18.3,0,27.4,0
			c0.7,0,0.8,0.2,0.8,0.8c0,2.2,0,4.4,0,6.6c0,0.8-0.3,0.9-0.9,0.9C73,19,68.5,19,64,19z"/>
		<path d="M64,0c2.6,0,5.2,0,7.7,0c0.8,0,1,0.3,1,1c-0.1,2.2,0,4.4,0,6.6c0,0.6-0.1,1-0.9,1c-5.2,0-10.5,0-15.7,0
			c-0.6,0-0.9-0.1-0.9-0.8c0-2.3,0-4.7,0-7c0-0.7,0.2-0.8,0.9-0.8C58.7,0,61.3,0,64,0z"/>
		<path d="M90.4,115.8c0,1.5-0.8,2.2-2.5,2.2c-5.2,0-10.4,0-15.6,0c-10.6,0-21.2,0-31.8,0c-2.4,0-2.9-0.6-2.9-2.9
			c0-10.7,0-21.3,0-32c0-0.9,0.2-1.5,0.9-2c1.6-1.3,3.3-2.4,5.3-2.9c2.5-0.6,4.8,0.2,7.1,1.2c4,1.8,7.5,4.5,11.3,6.8
			c4,2.5,8.2,4.8,12.9,6c5,1.2,9.9,1,14.7-0.8c0.2-0.1,0.4-0.1,0.7-0.3C90.4,99.5,90.4,107.7,90.4,115.8z"/>
		<path d="M90.4,115.8c0,1.5-0.8,2.2-2.5,2.2c-5.2,0-10.4,0-15.6,0c-10.6,0-21.2,0-31.8,0c-2.4,0-2.9-0.6-2.9-2.9
			c0-10.7,0-21.3,0-32c0-0.9,0.2-1.5,0.9-2c1.6-1.3,3.3-2.4,5.3-2.9c2.5-0.6,4.8,0.2,7.1,1.2c4,1.8,7.5,4.5,11.3,6.8
			c4,2.5,8.2,4.8,12.9,6c5,1.2,9.9,1,14.7-0.8c0.2-0.1,0.4-0.1,0.7-0.3C90.4,99.5,90.4,107.7,90.4,115.8z"/>
	</g>
</g>
</svg>
