<?xml version="1.0" encoding="utf-8"?>
<!-- Generator: Adobe Illustrator 28.0.0, SVG Export Plug-In . SVG Version: 6.00 Build 0)  -->
<svg version="1.1" id="Layer_1" xmlns="http://www.w3.org/2000/svg" xmlns:xlink="http://www.w3.org/1999/xlink" x="0px" y="0px"
	 viewBox="0 0 128 128" style="enable-background:new 0 0 128 128;" xml:space="preserve">
<g id="uzjO98.tif">
	<g>
		<path d="M122.4,37.6c-1.1-0.2-1.1-0.9-1.1-1.7c0-6.5,0-12.9,0-19.4c0-1.1,0.3-1.6,1.5-1.8c3-0.5,4.9-2.7,5.1-5.5c0,0,0-0.1,0-0.1
			c-0.1-0.8,0.1-1.7-0.1-2.5c-0.6-3.1-3.1-5.2-6.5-5.2c-8.8,0-17.6,0-26.4,0c-3.7,0-6.5,2.7-6.7,6.3c-0.2,3.5,2.4,6.4,6.1,6.8
			c0.6,0.1,0.9,0.2,0.9,0.9c0,7.2,0,14.5,0,21.7c0,0.6-0.1,0.8-0.8,0.8c-1.3,0-2.4,0.5-3.5,1.2c-2.2,1.6-3.2,4.3-2.5,7
			c0.6,2.5,2.8,4.4,5.5,4.8c0.6,0.1,1.2-0.1,1.2,1c0,10.1,0,20.1-0.1,30.2c0,4-1.9,7.3-5.4,9.6c-1.2-3.2-3.4-5.2-7-4.9
			c-3.1,0.2-5,2.1-6,5c-3.1-2.3-5.1-5.2-5.3-9c-0.2-3.6,0-7.3-0.1-10.9c0-1.3,0.2-1.8,1.6-2c3.2-0.4,5.4-3.4,5.3-6.7
			c-0.1-3.2-2.6-6-5.7-6.2c-1.2-0.1-1.2-0.5-1.2-1.4c0.1-3.9,0-7.9-0.8-11.8C66.9,26,51.6,13.7,33.5,13.7c-6.4,0-12.7,0-19.1,0
			c-0.6,0-1.1,0.1-1.2-0.8c-0.4-3.7-3.4-6.3-6.8-6.1C2.7,6.9,0,9.9,0,13.7c0,8.6,0,17.2,0,25.8c0,3.8,2.6,6.8,6.1,7
			c3.7,0.2,6.6-2.3,7.1-6.1c0.1-0.8,0.4-0.9,1-0.9c6.4,0,12.8,0,19.2,0c6.2,0.1,10.8,3.9,12,9.8c0.4,2.2,0.1,4.4,0.2,6.6
			c0,0.7-0.2,0.9-0.9,1c-3,0.2-5.6,2.6-5.9,5.5c-0.4,3.4,1.3,6.2,4.4,7.4c0.8,0.3,1.9-0.1,2.3,0.7c0.3,0.7,0.1,1.7,0.1,2.6v8.3
			c0,2.2,0.2,4.4,0.5,6.6c2.6,15.4,14.3,27.6,29.7,30.8c0.8,0.2,1,0.4,1,1.1c0.1,3.5,2.4,6.1,5.9,6.5c0.4,0.2,0.9,0,1.3,0.1h0
			c2,0.1,3.5-0.9,4.8-2.4c0.8-1,1.3-2.2,1.4-3.4c0.1-1.1,0.7-1.5,1.7-1.7c7.2-1.7,13.4-5.2,18.5-10.5c7.1-7.3,10.8-16.1,10.9-26.3
			c0.1-9.4,0-18.9,0-28.3c0-0.4,0-0.8,0-1.2c0-0.7,0.3-1.1,1-1.3c3.1-0.6,5.1-2.4,5.6-5.6v-2.3C127.6,40,125.6,38.2,122.4,37.6z
			 M6.6,42.4c-1.6,0-2.5-1-2.5-2.9c0-4.3,0-8.7,0-13c0,0,0,0,0,0c0-4.4,0-8.8,0-13.1C4.1,12,5,11,6.2,10.8c1.2-0.2,2.4,0.5,2.8,1.6
			c0.1,0.4,0.1,0.8,0.1,1.1c0,8.6,0,17.3,0,25.9C9.1,41.3,8.2,42.3,6.6,42.4z M34.9,35.6c-6.8-0.2-13.5-0.1-20.3-0.1
			c-1.2,0-1.4-0.3-1.4-1.4c0.1-5.1,0-10.1,0-15.2c0-0.8,0.2-1.1,1-1.1c3.7,0.1,7.4,0,11.1,0v0c3.1,0,6.2,0,9.4,0
			c13.1,0.2,25.1,8.6,30.1,20.7c2.4,5.8,2.7,11.7,2.6,17.8c0,0.6-0.3,0.6-0.7,0.6c-5.4,0-10.8,0-16.3,0c-0.7,0-0.7-0.3-0.7-0.8
			c-0.1-2.5,0.2-4.9-0.2-7.4C48.3,41.7,42,35.8,34.9,35.6z M45.6,66c-1.7,0-2.9-1-2.9-2.5c0-1.5,1.1-2.5,2.8-2.5c4.3,0,8.7,0,13,0
			c4.3,0,8.7,0,13,0c2.1,0,3.3,1.7,2.6,3.4c-0.5,1.2-1.6,1.6-2.9,1.6c-7.3,0-14.6,0-21.9,0C48.1,66,46.9,66,45.6,66z M76.8,113.7
			c0,0.8-0.1,1.1-1,0.9c-13.5-3.2-23.9-14.4-25.7-28.1c-0.7-5.2-0.2-10.5-0.3-15.7c0-0.8,0.5-0.6,0.9-0.6c2.6,0,5.3,0,7.9,0
			c2.6,0,5.2,0,7.8,0c0.8,0,1.1,0.2,1.1,1.1c0,3.6-0.1,7.1,0,10.7c0.1,6.3,3,11,8.4,14.1c0.7,0.4,0.9,0.8,0.9,1.6
			C76.7,102.8,76.7,108.2,76.8,113.7z M85.9,119.8c-0.1,1.5-1.2,2.6-2.6,2.5c-1.4,0-2.4-1-2.4-2.5c0-4.4,0-8.8,0-13.3h0
			c0-4.2,0-8.5,0-12.7c0-1.9,0.9-3,2.4-3.1c1.5,0,2.6,1.2,2.6,3v25.4C85.9,119.4,85.9,119.6,85.9,119.8z M94.1,10.4
			C93,10,92.4,9.2,92.3,8.1c0-1.2,0.6-2,1.7-2.5c0.5-0.2,1.1-0.2,1.7-0.2c4.1,0,8.2,0,12.4,0c4.2,0,8.5,0,12.7,0
			c1.8,0,2.9,0.9,3,2.3c0.1,1.5-0.9,2.7-2.6,2.8c-1.1,0.1-2.3,0-3.4,0c-7.2,0-14.5,0-21.7,0C95.5,10.5,94.8,10.6,94.1,10.4z
			 M116.9,26.2c0,3.6,0,7.1,0,10.7c0,0.8-0.2,1-1,1c-5.2,0-10.5,0-15.7,0c-0.9,0-1-0.3-1-1c0-7.1,0-14.1,0-21.2c0-0.9,0.3-1.1,1.1-1
			c5.2,0,10.3,0,15.5,0c1,0,1.1,0.3,1.1,1.2C116.9,19.3,116.9,22.8,116.9,26.2z M116.9,68.4L116.9,68.4c-0.1,4.9,0.1,9.8-0.1,14.7
			c-0.5,12-6.2,21.2-16.3,27.6c-2.9,1.8-6.1,3-9.4,3.8c-1,0.3-1.2,0-1.2-0.9c0-5.5,0-10.9,0-16.4c0-0.6,0.1-1,0.7-1.3
			c5.8-3.2,8.6-8.2,8.6-14.8c0-9.6,0-19.2,0-28.7c0-1.1,0.2-1.4,1.3-1.4c5.1,0.1,10.1,0,15.2,0c0.9,0,1.2,0.2,1.2,1.1
			C116.9,57.6,116.9,63,116.9,68.4z M121.2,47c-1.9,0-3.8,0-5.7,0H108c-4.2,0-8.5,0-12.7,0c-1.8,0-2.9-1-2.9-2.4
			c0-1.3,0.7-2.4,2.1-2.5c1.4-0.1,2.8-0.1,4.3-0.1c6.8,0,13.5,0.1,20.3,0.1c0.9,0,1.7-0.1,2.6,0c1.5,0.1,2.4,1.2,2.4,2.6
			C123.8,45.9,122.8,46.9,121.2,47z"/>
		<path d="M128,9.3l-0.1,0l-0.1,0c0-0.9,0-1.8,0-2.7c0.1,0,0.2,0,0.2,0C128,7.5,128,8.4,128,9.3z"/>
		<path d="M84,126.4c0,0.1,0,0.1,0,0.2c-0.4,0-0.9,0-1.3,0c0-0.1,0-0.1,0-0.2C83.2,126.4,83.6,126.4,84,126.4z"/>
	</g>
</g>
</svg>
