<?xml version="1.0" encoding="utf-8"?>
<!-- Generator: Adobe Illustrator 28.0.0, SVG Export Plug-In . SVG Version: 6.00 Build 0)  -->
<svg version="1.1" id="Layer_1" xmlns="http://www.w3.org/2000/svg" xmlns:xlink="http://www.w3.org/1999/xlink" x="0px" y="0px"
	 viewBox="0 0 128 128" style="enable-background:new 0 0 128 128;" xml:space="preserve">
<g id="QTXcT9.tif">
	<g>
		<path d="M68.2,103c-0.1-1.2-1-2-2.2-1.9c-1.1,0-2,0.8-2.1,1.9c0,0.3,0,0.7,0,1c-0.1,3.2-2.6,6.1-5.6,6.6c-2.7,0.4-5.6-1.5-6.7-4.4
			c-0.3-0.8-0.4-1.6-0.4-2.4c0-3.8,0-7.6,0-11.5c0-0.7,0.1-1.4,0.3-2.1c1.1-3.6,5-5.8,8.1-4.4c2.9,1.3,4.2,3.6,4.3,6.7
			c0,1.5,0.8,2.4,2.1,2.4c1.4,0,2.1-0.9,2.2-2.4c0-1.3-0.1-2.6-0.5-3.8c-1.7-5-6.2-7.8-10.4-7.7c-4.7,0.1-8.9,3.8-10,8.5
			c-0.7,2.8-0.2,5.7-0.2,8.6c0,2.5,0,5,0,7.5c0,0.4,0.1,0.7,0.2,1.1c1.3,5.2,6,8.5,10.5,8.5C63.8,114.9,68.8,109,68.2,103z
			 M76.7,99.5c0-5.2,0-10.5,0-15.7c0-0.6,0.1-1.2-0.2-1.7c-0.5-0.9-1.2-1.3-2.3-1.2c-1.1,0.2-1.8,1.1-1.8,2.3c0,4.9,0,9.8,0,14.7
			c0,4.9,0,9.8,0,14.7c0,1.2,0.6,2,1.7,2.3c1,0.3,1.9-0.2,2.4-1.1c0.3-0.5,0.2-1.1,0.2-1.7C76.7,107.9,76.7,103.7,76.7,99.5z
			 M76.7,99.5c0-5.2,0-10.5,0-15.7c0-0.6,0.1-1.2-0.2-1.7c-0.5-0.9-1.2-1.3-2.3-1.2c-1.1,0.2-1.8,1.1-1.8,2.3c0,4.9,0,9.8,0,14.7
			c0,4.9,0,9.8,0,14.7c0,1.2,0.6,2,1.7,2.3c1,0.3,1.9-0.2,2.4-1.1c0.3-0.5,0.2-1.1,0.2-1.7C76.7,107.9,76.7,103.7,76.7,99.5z
			 M66,101.1c-1.1,0-2,0.8-2.1,1.9c0,0.3,0,0.7,0,1c-0.1,3.2-2.6,6.1-5.6,6.6c-2.7,0.4-5.6-1.5-6.7-4.4c-0.3-0.8-0.4-1.6-0.4-2.4
			c0-3.8,0-7.6,0-11.5c0-0.7,0.1-1.4,0.3-2.1c1.1-3.6,5-5.8,8.1-4.4c2.9,1.3,4.2,3.6,4.3,6.7c0,1.5,0.8,2.4,2.1,2.4
			c1.4,0,2.1-0.9,2.2-2.4c0-1.3-0.1-2.6-0.5-3.8c-1.7-5-6.2-7.8-10.4-7.7c-4.7,0.1-8.9,3.8-10,8.5c-0.7,2.8-0.2,5.7-0.2,8.6
			c0,2.5,0,5,0,7.5c0,0.4,0.1,0.7,0.2,1.1c1.3,5.2,6,8.5,10.5,8.5c6-0.1,11-6,10.4-12C68.1,101.8,67.2,101,66,101.1z M125.4,101.5
			c-4-15.7-8-31.3-12-47c-1.7-6.7-3.4-13.3-5.1-19.9c-1.2-4.7-4.5-7.2-9.3-7.2c-4.6,0-9.1,0-13.7,0c-1.7,0-1.7,0-1.7-1.8
			c0-1.9,0-3.9,0-5.5c0,0.4,0.4,0.9,0.8,1.3c1.6,2,4.6,2.9,7,2.2c2.8-0.9,4.8-3.3,4.9-6.1c0.2-3.5-0.5-6.9-2-10
			c-1.9-3.8-4.6-7-9.3-7.4h-3.5c-1,0.3-2,0.2-3,0.7c-3.8,1.8-5.8,5-7.2,8.7c-1.2,3.1-1.3,6.4-1.4,9.7c-0.1,1.7,0,1.8-1.7,1.8
			c-2.7,0-5.5,0-8.2,0c-1.8,0-1.8,0-1.8-1.8c-0.1-3.3-0.2-6.7-1.4-9.8C54.7,4.6,52.1,0.6,46.5,0H43c-3.5,0.2-5.9,2.3-7.8,5
			c-2.4,3.2-3.3,6.9-3.5,10.9c-0.1,1.2,0,2.5,0.5,3.7c1,2.4,3.5,4.3,6.1,4.3c2.9,0,5.1-1.2,6.3-4c0,0,0,0,0,0c0,0-0.1,0.2-0.1,0.2
			c-0.1,1.8,0,3.8,0,5.8c0,1.5-0.1,1.6-1.5,1.6c-4.6,0-9.1,0.1-13.7,0c-5.4-0.2-8.6,3.5-9.6,7.4c-2.1,8.8-4.5,17.6-6.7,26.3
			C11,68.4,9.1,75.6,7.3,82.9c-1.8,7.4-4,14.6-5.4,22.1v0.3c0.3,0.8,0.1,1.7,0.1,2.5v0c-0.1,1.2,0.3,2.4,1,3.4
			c1.9,2.8,4.5,4.2,7.8,4.2c8.9,0,17.9,0,26.8,0c1.2,0,2,0.3,2.8,1.3c1.6,2.2,3.6,4,5.8,5.6c6.9,5.2,14.8,6.5,23.1,5.3
			c7.2-1,13.2-4.7,17.8-10.3c1.2-1.4,2.3-2,4.1-1.9c8.6,0.1,17.3,0,25.9,0c1.9,0,3.7-0.5,5.3-1.6c2.1-1.4,3.5-3.4,3.7-6
			C126.3,105.6,125.9,103.6,125.4,101.5z M74.7,55.2c0-5.9,0-11.8,0-17.7h0c0-7.2,0-14.3,0-21.5c0-2.4,0.6-4.8,1.7-6.9
			c0.5-0.9,1.1-1.8,1.8-2.5c3-3.1,7.2-3,10.1,0.2c2.6,2.9,3.3,6.5,3.4,10.3c0,1.2-1,2.1-2.1,2.1c-1.1,0-2.1-0.9-2.1-2.2
			c0-1.8-0.3-3.5-1-5.2c-0.3-0.7-0.7-1.4-1.2-2c-1.5-1.7-3.1-1.7-4.4,0.2c-1.1,1.6-1.7,3.5-1.9,5.5c-0.1,1.4-0.1,2.7-0.1,4.1
			c0,13,0,25.9,0,38.9c0,0.5,0,0.9,0,1.4c-0.2,1.3-1,2-2.2,1.9c-1.2-0.1-1.9-0.8-2-2.1C74.6,58.1,74.7,56.6,74.7,55.2z M70.3,52.4
			c0,0.7-0.3,0.8-0.9,0.8c-1.8,0-3.6,0-5.5,0c-1.8,0-3.6-0.1-5.3,0c-0.9,0-1-0.3-1-1c0.1-1.4,0.1-2.9,0-4.4c0-0.7,0.1-0.9,0.9-0.9
			c3.6,0,7.3,0,10.9,0c0.6,0,0.9,0.1,0.9,0.8C70.2,49.2,70.2,50.8,70.3,52.4z M70.3,41.7c0,0.8-0.3,0.9-0.9,0.9c-3.6,0-7.2,0-10.8,0
			c-0.7,0-0.9-0.2-0.9-0.9c0-1.5,0.1-3.1,0-4.6c0-0.8,0.3-0.9,0.9-0.9c1.8,0,3.6,0,5.4,0c1.8,0,3.7,0,5.5,0c0.7,0,0.9,0.2,0.9,0.9
			C70.2,38.6,70.2,40.1,70.3,41.7z M57.6,31c0.1-1.5,0-3,0-4.5c0-0.7,0.1-1,0.9-1c3.7,0,7.3,0,11,0c0.6,0,0.9,0.1,0.9,0.8
			c0,1.6-0.1,3.2,0,4.7c0,0.7-0.3,0.8-0.9,0.8c-1.9,0-3.7,0-5.6,0c-1.7,0-3.5,0-5.2,0C57.9,32,57.6,31.8,57.6,31z M41.8,11.2
			c-0.8,1.7-1.2,3.5-1.2,5.4c0,1.6-0.9,2.6-2.2,2.6c-1.3-0.1-2.1-1.1-2-2.7c0.2-3.2,0.8-6.3,2.8-9c3.1-4.2,8.3-4.2,11.4,0
			c1.9,2.5,2.7,5.4,2.7,8.5c0.1,7.2,0,14.3,0,21.5h0c0,7.3,0,14.6,0,21.8c0,1.6-0.7,2.4-2,2.4c-1.1,0-1.8-0.6-2-1.6
			c-0.1-0.5-0.1-1.1-0.1-1.6c0-13.6,0-27.1,0-40.7c0-2.3-0.2-4.6-1.3-6.6c-0.7-1.3-1.4-2.6-3-2.6C43,8.5,42.4,9.9,41.8,11.2z
			 M10.8,110.7c-3.3,0-5.1-2.5-4.3-5.6c5.9-23.2,11.9-46.4,17.8-69.5c0.6-2.4,2.1-3.6,4.7-3.6c4.9,0,9.9,0,14.8,0c0.8,0,1,0.2,1,1
			c-0.1,1.4-0.1,2.8,0,4.2c0,0.9-0.2,1.1-1.1,1.1c-3.7-0.1-7.4,0-11.1,0c-2.1,0-2.6,0.4-3.1,2.4C24.3,60.9,19.1,81,14,101.2
			c-0.5,2,0.3,3.1,2.4,3.1c5.8,0,11.6,0,17.3,0c0.9,0,1.2,0.2,1.4,1.1c0.4,1.8,1.1,3.5,1.9,5.3C28.1,110.7,19.4,110.7,10.8,110.7z
			 M34.5,93.4c-0.3,2.2-0.5,4.4-0.3,6.6c-0.7,0.2-1.3,0.1-2,0.1c-4.1,0-8.2,0-12.3,0c-1.1,0-1.2-0.2-0.9-1.2
			c4.8-18.4,9.5-36.8,14.2-55.2c0.2-0.8,0.4-1,1.2-1c3.1,0,6.2,0,9.4,0c0.8,0,1,0.2,1,1c0,5.4,0,10.7,0,16.1c0,3.3,2.5,5.9,5.9,6.3
			c2.8,0.4,5.9-1.7,6.7-4.7c0.3-1,0.3-2,0.3-3c0-0.6,0.1-0.9,0.8-0.9c3.7,0,7.4,0,11.1,0c0.6,0,0.8,0.2,0.8,0.8c0,1.1,0,2.2,0.3,3.2
			c0.9,2.9,3.9,4.9,6.7,4.5c3.4-0.5,5.8-3,5.9-6.3c0-5.3,0-10.6,0-16c0-0.9,0.2-1.1,1.1-1.1c3.1,0.1,6.2,0,9.4,0
			c0.6,0,0.9,0,1.1,0.8c4.8,18.7,9.6,37.5,14.4,56.2c0,0.1,0,0.2,0,0.5c-5,0-9.9,0-14.8,0c-0.5,0-0.6-0.2-0.6-0.7
			c0.9-14.6-9.2-27-22.4-30.4C54.4,64.7,37,76.1,34.5,93.4z M64,123.5c-14.1,0-25.5-11.4-25.5-25.6c0-14.1,11.4-25.5,25.4-25.5
			C78,72.4,89.5,83.8,89.4,98C89.4,112,78,123.5,64,123.5z M117.1,110.7c-8.7,0-17.4,0-26.2,0c0.8-2,1.6-3.8,2-5.8
			c0.1-0.7,0.7-0.6,1.2-0.6c5.7,0,11.3,0,17,0c2.8,0,3.5-0.9,2.8-3.6c-5.2-20.1-10.3-40.3-15.5-60.4c-0.4-1.5-1.1-2-2.8-2
			c-3.7,0-7.5,0-11.2,0c-0.9,0-1.3-0.1-1.2-1.1c0.1-1.5,0.1-3,0-4.5c0-0.6,0.2-0.8,0.8-0.8c5.2,0,10.3,0,15.5,0
			c2.2,0,3.7,1.3,4.3,3.5c4.2,16.2,8.3,32.4,12.5,48.6c1.8,7,3.6,13.9,5.3,20.9C122.3,108.2,120.5,110.7,117.1,110.7z M76.5,82.1
			c-0.5-0.9-1.2-1.3-2.3-1.2c-1.1,0.2-1.8,1.1-1.8,2.3c0,4.9,0,9.8,0,14.7c0,4.9,0,9.8,0,14.7c0,1.2,0.6,2,1.7,2.3
			c1,0.3,1.9-0.2,2.4-1.1c0.3-0.5,0.2-1.1,0.2-1.7c0-4.2,0-8.4,0-12.6c0-5.2,0-10.5,0-15.7C76.7,83.2,76.8,82.6,76.5,82.1z
			 M66,101.1c-1.1,0-2,0.8-2.1,1.9c0,0.3,0,0.7,0,1c-0.1,3.2-2.6,6.1-5.6,6.6c-2.7,0.4-5.6-1.5-6.7-4.4c-0.3-0.8-0.4-1.6-0.4-2.4
			c0-3.8,0-7.6,0-11.5c0-0.7,0.1-1.4,0.3-2.1c1.1-3.6,5-5.8,8.1-4.4c2.9,1.3,4.2,3.6,4.3,6.7c0,1.5,0.8,2.4,2.1,2.4
			c1.4,0,2.1-0.9,2.2-2.4c0-1.3-0.1-2.6-0.5-3.8c-1.7-5-6.2-7.8-10.4-7.7c-4.7,0.1-8.9,3.8-10,8.5c-0.7,2.8-0.2,5.7-0.2,8.6
			c0,2.5,0,5,0,7.5c0,0.4,0.1,0.7,0.2,1.1c1.3,5.2,6,8.5,10.5,8.5c6-0.1,11-6,10.4-12C68.1,101.8,67.2,101,66,101.1z M68.2,103
			c-0.1-1.2-1-2-2.2-1.9c-1.1,0-2,0.8-2.1,1.9c0,0.3,0,0.7,0,1c-0.1,3.2-2.6,6.1-5.6,6.6c-2.7,0.4-5.6-1.5-6.7-4.4
			c-0.3-0.8-0.4-1.6-0.4-2.4c0-3.8,0-7.6,0-11.5c0-0.7,0.1-1.4,0.3-2.1c1.1-3.6,5-5.8,8.1-4.4c2.9,1.3,4.2,3.6,4.3,6.7
			c0,1.5,0.8,2.4,2.1,2.4c1.4,0,2.1-0.9,2.2-2.4c0-1.3-0.1-2.6-0.5-3.8c-1.7-5-6.2-7.8-10.4-7.7c-4.7,0.1-8.9,3.8-10,8.5
			c-0.7,2.8-0.2,5.7-0.2,8.6c0,2.5,0,5,0,7.5c0,0.4,0.1,0.7,0.2,1.1c1.3,5.2,6,8.5,10.5,8.5C63.8,114.9,68.8,109,68.2,103z
			 M76.7,99.5c0-5.2,0-10.5,0-15.7c0-0.6,0.1-1.2-0.2-1.7c-0.5-0.9-1.2-1.3-2.3-1.2c-1.1,0.2-1.8,1.1-1.8,2.3c0,4.9,0,9.8,0,14.7
			c0,4.9,0,9.8,0,14.7c0,1.2,0.6,2,1.7,2.3c1,0.3,1.9-0.2,2.4-1.1c0.3-0.5,0.2-1.1,0.2-1.7C76.7,107.9,76.7,103.7,76.7,99.5z
			 M76.7,99.5c0-5.2,0-10.5,0-15.7c0-0.6,0.1-1.2-0.2-1.7c-0.5-0.9-1.2-1.3-2.3-1.2c-1.1,0.2-1.8,1.1-1.8,2.3c0,4.9,0,9.8,0,14.7
			c0,4.9,0,9.8,0,14.7c0,1.2,0.6,2,1.7,2.3c1,0.3,1.9-0.2,2.4-1.1c0.3-0.5,0.2-1.1,0.2-1.7C76.7,107.9,76.7,103.7,76.7,99.5z
			 M68.2,103c-0.1-1.2-1-2-2.2-1.9c-1.1,0-2,0.8-2.1,1.9c0,0.3,0,0.7,0,1c-0.1,3.2-2.6,6.1-5.6,6.6c-2.7,0.4-5.6-1.5-6.7-4.4
			c-0.3-0.8-0.4-1.6-0.4-2.4c0-3.8,0-7.6,0-11.5c0-0.7,0.1-1.4,0.3-2.1c1.1-3.6,5-5.8,8.1-4.4c2.9,1.3,4.2,3.6,4.3,6.7
			c0,1.5,0.8,2.4,2.1,2.4c1.4,0,2.1-0.9,2.2-2.4c0-1.3-0.1-2.6-0.5-3.8c-1.7-5-6.2-7.8-10.4-7.7c-4.7,0.1-8.9,3.8-10,8.5
			c-0.7,2.8-0.2,5.7-0.2,8.6c0,2.5,0,5,0,7.5c0,0.4,0.1,0.7,0.2,1.1c1.3,5.2,6,8.5,10.5,8.5C63.8,114.9,68.8,109,68.2,103z"/>
		<path d="M2.1,107.8l-0.1,0l-0.1,0c0-0.8,0-1.7,0-2.5C2.3,106.1,2,107,2.1,107.8z"/>
		<path d="M68.2,103c0.6,6-4.4,11.9-10.4,12c-4.6,0.1-9.2-3.3-10.5-8.5c-0.1-0.4-0.2-0.7-0.2-1.1c0-2.5,0-5,0-7.5
			c0.1-2.9-0.4-5.7,0.2-8.6c1.1-4.6,5.4-8.3,10-8.5c4.2-0.1,8.7,2.7,10.4,7.7c0.4,1.2,0.6,2.5,0.5,3.8c0,1.6-0.8,2.5-2.2,2.4
			c-1.3,0-2-0.9-2.1-2.4c-0.1-3.1-1.4-5.4-4.3-6.7c-3.2-1.4-7.1,0.8-8.1,4.4c-0.2,0.7-0.3,1.4-0.3,2.1c0,3.8,0,7.6,0,11.5
			c0,0.8,0.1,1.6,0.4,2.4c1.1,2.9,4,4.9,6.7,4.4c3-0.5,5.5-3.4,5.6-6.6c0-0.3,0-0.7,0-1c0.1-1.1,1-1.9,2.1-1.9
			C67.2,101,68.1,101.8,68.2,103z"/>
		<path d="M76.7,112.1c0,0.6,0.1,1.2-0.2,1.7c-0.5,0.9-1.3,1.4-2.4,1.1c-1.1-0.3-1.7-1.1-1.7-2.3c0-4.9,0-9.8,0-14.7
			c0-4.9,0-9.8,0-14.7c0-1.2,0.7-2.2,1.8-2.3c1-0.1,1.8,0.3,2.3,1.2c0.3,0.5,0.2,1.1,0.2,1.7c0,5.2,0,10.5,0,15.7
			C76.7,103.7,76.7,107.9,76.7,112.1z"/>
		<path d="M57.8,115c-4.6,0.1-9.2-3.3-10.5-8.5c-0.1-0.4-0.2-0.7-0.2-1.1c0-2.5,0-5,0-7.5c0.1-2.9-0.4-5.7,0.2-8.6
			c1.1-4.6,5.4-8.3,10-8.5c4.2-0.1,8.7,2.7,10.4,7.7c0.4,1.2,0.6,2.5,0.5,3.8c0,1.6-0.8,2.5-2.2,2.4c-1.3,0-2-0.9-2.1-2.4
			c-0.1-3.1-1.4-5.4-4.3-6.7c-3.2-1.4-7.1,0.8-8.1,4.4c-0.2,0.7-0.3,1.4-0.3,2.1c0,3.8,0,7.6,0,11.5c0,0.8,0.1,1.6,0.4,2.4
			c1.1,2.9,4,4.9,6.7,4.4c3-0.5,5.5-3.4,5.6-6.6c0-0.3,0-0.7,0-1c0.1-1.1,1-1.9,2.1-1.9c1.2,0,2.1,0.8,2.2,1.9
			C68.8,109,63.8,114.9,57.8,115z"/>
		<path d="M76.7,112.1c0,0.6,0.1,1.2-0.2,1.7c-0.5,0.9-1.3,1.4-2.4,1.1c-1.1-0.3-1.7-1.1-1.7-2.3c0-4.9,0-9.8,0-14.7
			c0-4.9,0-9.8,0-14.7c0-1.2,0.7-2.2,1.8-2.3c1-0.1,1.8,0.3,2.3,1.2c0.3,0.5,0.2,1.1,0.2,1.7c0,5.2,0,10.5,0,15.7
			C76.7,103.7,76.7,107.9,76.7,112.1z"/>
	</g>
</g>
</svg>
