<?xml version="1.0" encoding="utf-8"?>
<!-- Generator: Adobe Illustrator 27.9.0, SVG Export Plug-In . SVG Version: 6.00 Build 0)  -->
<svg version="1.1" id="Layer_1" xmlns="http://www.w3.org/2000/svg" xmlns:xlink="http://www.w3.org/1999/xlink" x="0px" y="0px"
	 viewBox="0 0 128 128" style="enable-background:new 0 0 128 128;" xml:space="preserve">
<g>
	<g id="XMLID_8_">
		<g id="XMLID_9_">
			<path id="XMLID_25_" d="M58.17,81.5c1.38,0,2.5-1.12,2.5-2.5V68.57c0-0.01,0-0.02,0-0.03c0-4.22,1.86-6.95,4.75-6.95
				c1.44,0,3.42,0,3.6,5.98C69.03,67.75,69.03,79,69.03,79c0,1.38,1.12,2.5,2.5,2.5s2.5-1.12,2.5-2.5l0.01-11.83
				c0-2.5,0.76-5.49,4.36-5.49c1.91,0,2.49,0.61,2.68,0.81c0.61,0.63,1.29,2.21,1.12,6.11c0,0.04,0,10.4,0,10.4
				c0,1.38,1.12,2.5,2.5,2.5s2.5-1.12,2.5-2.5V68.76c0.2-4.64-0.59-7.73-2.5-9.73c-1.49-1.56-3.61-2.35-6.29-2.35
				c-2.76,0-5.04,0.97-6.66,2.69c-1.47-1.85-3.59-2.79-6.32-2.79c-1.83,0-3.47,0.5-4.88,1.4c-0.33-1-1.27-1.72-2.38-1.72
				c-1.38,0-2.5,1.12-2.5,2.5V79C55.67,80.38,56.79,81.5,58.17,81.5L58.17,81.5z"/>
			<path id="XMLID_24_" d="M48.17,56.1c-1.38,0-2.5,1.12-2.5,2.5v0.72c-1.85-1.27-4.09-2.02-6.5-2.02c-6.34,0-11.5,5.16-11.5,11.5
				s5.16,11.5,11.5,11.5c2.41,0,4.65-0.75,6.5-2.02V79c0,1.38,1.12,2.5,2.5,2.5s2.5-1.12,2.5-2.5V58.6
				C50.67,57.22,49.55,56.1,48.17,56.1z M39.17,75.3c-3.59,0-6.5-2.92-6.5-6.5s2.92-6.5,6.5-6.5s6.5,2.92,6.5,6.5
				S42.75,75.3,39.17,75.3z"/>
			<path id="XMLID_23_" d="M92.26,68.94c0,6.92,5.63,12.56,12.56,12.56c2.77,0,5.25-0.91,7.18-2.63c1.03-0.92,1.12-2.5,0.2-3.53
				s-2.5-1.12-3.53-0.2c-1.02,0.91-2.31,1.36-3.86,1.36c-3.17,0-5.9-1.97-7.01-4.75l14.92,0.03h0c0.66,0,1.3-0.26,1.77-0.73
				c0.47-0.47,0.73-1.11,0.73-1.77v-1.4c0-6.34-5.16-11.5-11.5-11.5s-11.5,5.17-11.5,11.52c0,0.03,0,0.06,0,0.09L92.26,68.94z
				 M103.72,61.38c3.21,0,5.88,2.34,6.41,5.4l-12.81-0.03C97.86,63.7,100.53,61.38,103.72,61.38z"/>
			<path id="XMLID_22_" d="M23.36,51.62c1.38,0,2.5-1.12,2.5-2.5s-1.12-2.5-2.5-2.5c-3.96,0-7.19,3.22-7.19,7.19v3.03h-0.9
				c-1.38,0-2.5,1.12-2.5,2.5s1.12,2.5,2.5,2.5h0.9V79c0,1.38,1.12,2.5,2.5,2.5s2.5-1.12,2.5-2.5V61.84h1.99
				c1.38,0,2.5-1.12,2.5-2.5s-1.12-2.5-2.5-2.5h-1.99v-3.03C21.17,52.61,22.15,51.62,23.36,51.62z"/>
			<path id="XMLID_21_" d="M125.5,16.5H2.5C1.12,16.5,0,17.62,0,19v90c0,1.38,1.12,2.5,2.5,2.5h123c1.38,0,2.5-1.12,2.5-2.5V19
				C128,17.62,126.88,16.5,125.5,16.5z M123,21.5v15H75.25c-1.38,0-2.5,1.12-2.5,2.5s1.12,2.5,2.5,2.5H123v45H5v-45h47.75
				c1.38,0,2.5-1.12,2.5-2.5s-1.12-2.5-2.5-2.5H5v-15H123z M5,106.5v-15h118v15H5z"/>
			<path id="XMLID_20_" d="M23.33,31.5c0.66,0,1.3-0.27,1.77-0.73c0.47-0.47,0.73-1.11,0.73-1.77s-0.26-1.3-0.73-1.77
				c-0.47-0.47-1.11-0.73-1.77-0.73c-0.66,0-1.3,0.27-1.77,0.73s-0.73,1.11-0.73,1.77s0.27,1.3,0.73,1.77S22.68,31.5,23.33,31.5z"/>
			<path id="XMLID_19_" d="M43.67,31.5c0.66,0,1.3-0.27,1.77-0.73s0.73-1.11,0.73-1.77s-0.27-1.3-0.73-1.77s-1.11-0.73-1.77-0.73
				c-0.66,0-1.3,0.27-1.77,0.73c-0.47,0.47-0.73,1.11-0.73,1.77s0.26,1.3,0.73,1.77C42.36,31.23,43.01,31.5,43.67,31.5z"/>
			<path id="XMLID_18_" d="M64,31.5c0.66,0,1.3-0.27,1.77-0.73S66.5,29.66,66.5,29s-0.27-1.3-0.73-1.77S64.66,26.5,64,26.5
				s-1.3,0.27-1.77,0.73S61.5,28.34,61.5,29s0.27,1.3,0.73,1.77S63.34,31.5,64,31.5z"/>
			<path id="XMLID_17_" d="M84.33,31.5c0.66,0,1.3-0.27,1.77-0.73c0.47-0.47,0.73-1.11,0.73-1.77s-0.26-1.3-0.73-1.77
				c-0.46-0.47-1.11-0.73-1.77-0.73c-0.66,0-1.3,0.27-1.77,0.73s-0.73,1.11-0.73,1.77s0.27,1.3,0.73,1.77S83.67,31.5,84.33,31.5z"/>
			<path id="XMLID_16_" d="M104.67,31.5c0.66,0,1.3-0.27,1.77-0.73s0.73-1.11,0.73-1.77s-0.27-1.3-0.73-1.77s-1.11-0.73-1.77-0.73
				c-0.66,0-1.3,0.27-1.77,0.73c-0.47,0.47-0.73,1.11-0.73,1.77s0.26,1.3,0.73,1.77C103.36,31.23,104.01,31.5,104.67,31.5z"/>
			<path id="XMLID_15_" d="M23.33,96.5c-0.66,0-1.3,0.27-1.77,0.73s-0.73,1.11-0.73,1.77s0.27,1.3,0.73,1.77s1.11,0.73,1.77,0.73
				c0.66,0,1.3-0.27,1.77-0.73c0.47-0.46,0.73-1.11,0.73-1.77s-0.26-1.3-0.73-1.77C24.64,96.77,23.99,96.5,23.33,96.5z"/>
			<path id="XMLID_14_" d="M43.67,96.5c-0.66,0-1.3,0.27-1.77,0.73c-0.47,0.46-0.73,1.11-0.73,1.77s0.26,1.3,0.73,1.77
				c0.47,0.46,1.11,0.73,1.77,0.73c0.66,0,1.3-0.27,1.77-0.73s0.73-1.11,0.73-1.77s-0.27-1.3-0.73-1.77S44.33,96.5,43.67,96.5z"/>
			<path id="XMLID_13_" d="M64,96.5c-0.66,0-1.3,0.27-1.77,0.73S61.5,98.34,61.5,99s0.27,1.3,0.73,1.77s1.11,0.73,1.77,0.73
				s1.3-0.27,1.77-0.73S66.5,99.66,66.5,99s-0.27-1.3-0.73-1.77S64.66,96.5,64,96.5z"/>
			<path id="XMLID_12_" d="M84.33,96.5c-0.66,0-1.3,0.27-1.77,0.73s-0.73,1.11-0.73,1.77s0.27,1.3,0.73,1.77s1.11,0.73,1.77,0.73
				c0.66,0,1.3-0.27,1.77-0.73c0.47-0.46,0.73-1.11,0.73-1.77s-0.26-1.3-0.73-1.77C85.64,96.77,84.99,96.5,84.33,96.5z"/>
			<path id="XMLID_11_" d="M104.67,96.5c-0.66,0-1.3,0.27-1.77,0.73c-0.46,0.46-0.73,1.11-0.73,1.77s0.26,1.3,0.73,1.77
				c0.47,0.46,1.11,0.73,1.77,0.73c0.66,0,1.3-0.27,1.77-0.73s0.73-1.11,0.73-1.77s-0.27-1.3-0.73-1.77S105.33,96.5,104.67,96.5z"/>
			<path id="XMLID_10_" d="M64,41.5c0.66,0,1.3-0.27,1.77-0.73S66.5,39.66,66.5,39s-0.27-1.3-0.73-1.77S64.66,36.5,64,36.5
				s-1.3,0.27-1.77,0.73S61.5,38.34,61.5,39s0.27,1.3,0.73,1.77S63.34,41.5,64,41.5z"/>
		</g>
	</g>
</g>
</svg>
