<?xml version="1.0" encoding="utf-8"?>
<!-- Generator: Adobe Illustrator 27.9.0, SVG Export Plug-In . SVG Version: 6.00 Build 0)  -->
<svg version="1.1" id="Layer_1" xmlns="http://www.w3.org/2000/svg" xmlns:xlink="http://www.w3.org/1999/xlink" x="0px" y="0px"
	 viewBox="0 0 128 128" style="enable-background:new 0 0 128 128;" xml:space="preserve">
<g>
	<path d="M12.82,28.04c7.07,0,12.82-5.75,12.82-12.82S19.9,2.39,12.82,2.39S0,8.15,0,15.22S5.75,28.04,12.82,28.04z"/>
	<path d="M52.94,23.82c2.3-2.54,3.47-5.83,3.29-9.25S54.56,8,52.02,5.7c-2.54-2.3-5.82-3.44-9.25-3.29
		c-3.42,0.17-6.57,1.67-8.87,4.21c-2.3,2.54-3.47,5.83-3.29,9.25s1.67,6.57,4.21,8.87c2.38,2.15,5.4,3.31,8.58,3.31
		c0.22,0,0.44-0.01,0.66-0.02C47.49,27.85,50.64,26.36,52.94,23.82z"/>
	<path d="M61.84,39.55c-3.42,0.17-6.57,1.67-8.87,4.21c-2.3,2.54-3.47,5.83-3.29,9.25c0.17,3.42,1.67,6.57,4.21,8.87
		c2.38,2.15,5.4,3.31,8.58,3.31c0.22,0,0.44,0,0.66-0.02c3.42-0.17,6.57-1.67,8.87-4.21c2.3-2.54,3.47-5.82,3.29-9.25
		C74.94,44.65,68.92,39.22,61.84,39.55z"/>
	<path d="M33.17,103.27c-2.54-2.3-5.83-3.49-9.25-3.29c-3.42,0.17-6.57,1.67-8.87,4.21c-2.3,2.54-3.47,5.82-3.29,9.25
		c0.17,3.42,1.67,6.57,4.21,8.87c2.38,2.15,5.4,3.31,8.58,3.31c0.22,0,0.44,0,0.66-0.02c3.42-0.17,6.57-1.67,8.87-4.21
		c2.3-2.54,3.47-5.82,3.29-9.25C37.2,108.71,35.71,105.57,33.17,103.27z"/>
	<path d="M13.47,78.15c3.42-0.17,6.57-1.67,8.87-4.21c2.3-2.54,3.47-5.82,3.29-9.25c-0.17-3.42-1.67-6.57-4.21-8.87
		c-2.54-2.3-5.82-3.48-9.25-3.29c-3.42,0.17-6.57,1.67-8.87,4.21c-2.3,2.54-3.47,5.82-3.29,9.25c0.17,3.42,1.67,6.57,4.21,8.87
		c2.38,2.15,5.4,3.31,8.58,3.31C13.03,78.17,13.25,78.17,13.47,78.15z"/>
	<path d="M114.98,85.52c-2.54-2.3-5.82-3.49-9.25-3.29c-7.06,0.36-12.52,6.4-12.16,13.46c0.34,6.84,6.02,12.18,12.8,12.18
		c0.22,0,0.43,0,0.65-0.02c7.06-0.36,12.52-6.39,12.16-13.45C119.02,90.96,117.53,87.81,114.98,85.52z"/>
	<path d="M127.98,35.66c-0.17-3.42-1.67-6.57-4.21-8.87c-2.54-2.3-5.81-3.46-9.25-3.29c-7.06,0.36-12.52,6.39-12.16,13.46
		c0.17,3.42,1.67,6.57,4.21,8.87c2.38,2.15,5.4,3.31,8.58,3.31c0.22,0,0.44,0,0.66-0.02c3.42-0.17,6.57-1.67,8.87-4.21
		C126.99,42.36,128.16,39.08,127.98,35.66z"/>
</g>
</svg>
