<?xml version="1.0" encoding="utf-8"?>
<!-- Generator: Adobe Illustrator 27.9.0, SVG Export Plug-In . SVG Version: 6.00 Build 0)  -->
<svg version="1.1" id="Layer_1" xmlns="http://www.w3.org/2000/svg" xmlns:xlink="http://www.w3.org/1999/xlink" x="0px" y="0px"
	 viewBox="0 0 128 128" style="enable-background:new 0 0 128 128;" xml:space="preserve">
<g>
	<g>
		<g>
			<g>
				<path d="M21.59,20.23v-5.26h0.95c2.71,0,4.92-2.21,4.92-4.92s-2.21-4.92-4.92-4.92h-3.85v-3.1c0-1.12-0.9-2.02-2.02-2.02
					s-2.02,0.9-2.02,2.02v3.1h-3.85c-2.71,0-4.92,2.21-4.92,4.92c0,2.71,2.21,4.92,4.92,4.92h0.95v5.26C5.03,21.74,0,27.74,0,34.9
					v87.65c0,0.31,0.03,0.62,0.08,0.91c0.01,0.06,0.02,0.12,0.03,0.18c0.01,0.07,0.04,0.13,0.05,0.2c0.03,0.11,0.05,0.21,0.08,0.32
					c0.14,0.46,0.35,0.9,0.61,1.3c0.03,0.04,0.05,0.09,0.08,0.13c0.17,0.25,0.36,0.48,0.56,0.7c0.03,0.04,0.07,0.08,0.1,0.11
					s0.07,0.07,0.11,0.1c0.6,0.57,1.32,1,2.12,1.25c0.16,0.05,0.32,0.09,0.49,0.13c0.01,0,0.02,0.01,0.03,0.01
					c0.08,0.02,0.16,0.02,0.25,0.04c0.28,0.04,0.56,0.07,0.85,0.07h22.44c0.29,0,0.57-0.03,0.85-0.07c0.08-0.01,0.17-0.02,0.25-0.04
					c0.01,0,0.02-0.01,0.03-0.01c0.17-0.04,0.33-0.08,0.49-0.13c0.8-0.25,1.52-0.69,2.12-1.25c0.04-0.03,0.08-0.07,0.11-0.1
					c0.04-0.04,0.07-0.07,0.1-0.11c0.21-0.22,0.4-0.45,0.56-0.7c0.03-0.04,0.05-0.09,0.08-0.13c0.26-0.4,0.46-0.83,0.61-1.3
					c0.03-0.1,0.06-0.21,0.08-0.32c0.02-0.07,0.04-0.13,0.05-0.2c0.01-0.06,0.02-0.12,0.03-0.18c0.05-0.3,0.08-0.6,0.08-0.91V52.01
					c0-1.12-0.9-2.02-2.02-2.02s-2.02,0.9-2.02,2.02v70.54c0,0.77-0.63,1.4-1.4,1.4H5.44c-0.77,0-1.4-0.63-1.4-1.4V36.92h25.25v8.35
					c0,1.12,0.9,2.02,2.02,2.02s2.02-0.9,2.02-2.02V34.9C33.33,27.74,28.3,21.74,21.59,20.23z M10.79,10.92
					c-0.48,0-0.88-0.39-0.88-0.88c0-0.48,0.39-0.88,0.88-0.88h11.75c0.48,0,0.88,0.39,0.88,0.88c0,0.48-0.39,0.88-0.88,0.88h-2.97
					h-5.8H10.79z M17.54,14.97v4.9h-1.76v-4.9H17.54z M4.23,32.88c0.95-5.1,5.43-8.98,10.81-8.98h2.95c0.42,0,0.87,0.03,1.33,0.08
					C19.4,24,19.48,24,19.57,24c0.04,0,0.09,0,0.13-0.01c4.74,0.61,8.54,4.23,9.41,8.88L4.23,32.88L4.23,32.88z"/>
				<path d="M127.74,35.69c-0.55-0.97-1.78-1.31-2.75-0.76l-12.51,7.09c-0.63,0.36-1.03,1.03-1.03,1.76v9.42h-2.46v-1.2
					c0-1.12-0.9-2.02-2.02-2.02c-1.12,0-2.02,0.9-2.02,2.02v1.2h-0.25c-1.12,0-2.02,0.9-2.02,2.02s0.9,2.02,2.02,2.02h0.25v1.2
					c0,1.12,0.9,2.02,2.02,2.02s2.02-0.9,2.02-2.02v-1.2h2.46v4.91c-2.13,0.37-3.75,2.22-3.75,4.45v25.78v10.1
					c0,2.09,1.43,3.86,3.37,4.37v4.55c0,6.93-5.64,12.57-12.57,12.57s-12.57-5.64-12.57-12.57V24.52c0-9.16-7.45-16.61-16.61-16.61
					h-4.78c-0.8-1.64-2.48-2.78-4.43-2.78h-3.85v-3.1c0-1.12-0.9-2.02-2.02-2.02S52.2,0.9,52.2,2.02v3.1h-3.85
					c-2.71,0-4.92,2.21-4.92,4.92c0,2.71,2.21,4.92,4.92,4.92h0.95v5.26c-6.71,1.51-11.75,7.51-11.75,14.67v87.65
					c0,3,2.44,5.44,5.44,5.44h22.44c3,0,5.44-2.44,5.44-5.44V52.01c0-1.12-0.9-2.02-2.02-2.02s-2.02,0.9-2.02,2.02v70.54
					c0,0.77-0.63,1.4-1.4,1.4H43c-0.77,0-1.4-0.63-1.4-1.4V36.92h25.25v8.35c0,1.12,0.9,2.02,2.02,2.02s2.02-0.9,2.02-2.02V34.9
					c0-7.16-5.03-13.17-11.75-14.67v-5.26h0.95c2.04,0,3.79-1.25,4.54-3.02h4.67c6.93,0,12.57,5.64,12.57,12.57v86.86
					c0,9.16,7.45,16.61,16.61,16.61c9.16,0,16.61-7.45,16.61-16.61v-4.7c1.69-0.66,2.89-2.3,2.89-4.21v-10.1V82.09
					c0-1.12-0.9-2.02-2.02-2.02c-1.12,0-2.02,0.9-2.02,2.02v8.26h-2.21V66.59c0-0.27,0.22-0.48,0.48-0.48h1.25
					c0.27,0,0.48,0.22,0.48,0.48v9.14c0,1.12,0.9,2.02,2.02,2.02c1.12,0,2.02-0.9,2.02-2.02v-9.14c0-1.77-1.02-3.3-2.5-4.04v-5.32
					h0.48c1.12,0,2.02-0.9,2.02-2.02s-0.9-2.02-2.02-2.02h-0.48v-8.24l11.49-6.51C127.95,37.89,128.29,36.66,127.74,35.69z
					 M66.66,32.88H41.79c0.95-5.1,5.43-8.98,10.81-8.98h2.95c0.43,0,0.87,0.03,1.33,0.08C56.96,24,57.04,24,57.12,24
					c0.04,0,0.09,0,0.13-0.01C61.99,24.6,65.79,28.23,66.66,32.88z M53.34,19.86v-4.9h1.76v4.9L53.34,19.86L53.34,19.86z
					 M60.09,10.92h-2.97h-5.8h-2.97c-0.48,0-0.88-0.39-0.88-0.88c0-0.48,0.39-0.88,0.88-0.88h11.75c0.48,0,0.88,0.39,0.88,0.88
					C60.97,10.53,60.58,10.92,60.09,10.92z M111.73,94.39h2.21v8.08c0,0.27-0.22,0.48-0.48,0.48h-1.25c-0.27,0-0.48-0.22-0.48-0.48
					V94.39z"/>
			</g>
		</g>
	</g>
</g>
</svg>
