<?xml version="1.0" encoding="utf-8"?>
<!-- Generator: Adobe Illustrator 27.9.0, SVG Export Plug-In . SVG Version: 6.00 Build 0)  -->
<svg version="1.1" id="Layer_1" xmlns="http://www.w3.org/2000/svg" xmlns:xlink="http://www.w3.org/1999/xlink" x="0px" y="0px"
	 viewBox="0 0 128 128" style="enable-background:new 0 0 128 128;" xml:space="preserve">
<g>
	<g id="_x30_18---Laser-Cutting_1_">
		<path id="Shape_5_" d="M96,0h-64c-2.36,0-4.27,1.91-4.27,4.27V19.2c0,2.36,1.91,4.27,4.27,4.27h6.4v10.67
			c0,0.83-0.68-0.55,12.8,21.93v7.34c0,1.58,0,1.34,6.08,11.33c0.76,1.31,2.15,2.12,3.67,2.13h0.92v9.22l-44.8,17.62
			c-1.23,0.47-2.03,1.65-2.03,2.97s0.81,2.49,2.03,2.97C64.52,128.7,61.64,128,64,128c2.37,0-0.49,0.7,46.93-18.37
			c1.22-0.48,2.02-1.66,2.02-2.98c0-1.31-0.8-2.49-2.02-2.98l-44.8-17.66V76.8h0.92c1.52-0.01,2.91-0.82,3.67-2.13
			c5.89-9.81,6.08-9.75,6.08-11.33v-7.27c13.42-22.38,12.8-21.08,12.8-21.93V23.47H96c2.36,0,4.27-1.91,4.27-4.27V4.27
			C100.27,1.91,98.36,0,96,0z M61.87,90.6v14.7l-20.67,9.54l-20.18-8.17L61.87,90.6z M106.99,106.66l-41.41,16.77
			c-1.01,0.4-2.14,0.4-3.16,0l-15.81-6.4l18.28-8.53c0.72-0.33,1.2-1.04,1.24-1.83V90.6L106.99,106.66z M72.54,63.4l-5.48,9.13h-6.1
			l-5.48-9.13v-5.8h17.07V63.4z M85.34,32H61.87c-1.18,0-2.13,0.96-2.13,2.13c0,1.18,0.96,2.13,2.13,2.13H83.7L73.46,53.33h-18.9
			L44.31,36.27h6.89c1.18,0,2.13-0.96,2.13-2.13S52.38,32,51.21,32h-8.53v-8.53h42.67V32z M96,19.2h-64V4.27h4.27v4.27
			c0,1.18,0.96,2.13,2.13,2.13s2.13-0.96,2.13-2.13V4.27h4.27v4.27c0,1.18,0.96,2.13,2.13,2.13s2.13-0.96,2.13-2.13V4.27h4.27v4.27
			c0,1.18,0.96,2.13,2.13,2.13s2.13-0.96,2.13-2.13V4.27h4.27v4.27c0,1.18,0.96,2.13,2.13,2.13c1.18,0,2.13-0.96,2.13-2.13V4.27
			h4.27v4.27c0,1.18,0.96,2.13,2.13,2.13c1.18,0,2.13-0.96,2.13-2.13V4.27h4.27v4.27c0,1.18,0.96,2.13,2.13,2.13
			c1.18,0,2.13-0.96,2.13-2.13V4.27h4.27v4.27c0,1.18,0.96,2.13,2.13,2.13c1.18,0,2.13-0.96,2.13-2.13V4.27H96V19.2z"/>
		<path id="Shape_4_" d="M94.36,53.89c0.72-0.24,1.26-0.85,1.42-1.6s-0.1-1.52-0.67-2.03c-0.57-0.51-1.37-0.67-2.09-0.43
			c-8.41,2.77-11.8,10.52-8.02,18.6c2.67,5.74,0.49,10.67-5.5,12.8c-1.08,0.4-1.65,1.57-1.29,2.66c0.36,1.09,1.51,1.7,2.61,1.39
			c3.84-0.98,7.02-3.68,8.59-7.32s1.37-7.81-0.55-11.28C86.17,60.86,88.37,55.87,94.36,53.89L94.36,53.89z"/>
		<path id="Shape_3_" d="M110.38,32.94c0.54-0.18,0.99-0.56,1.25-1.07s0.3-1.1,0.12-1.64c-0.37-1.11-1.57-1.71-2.69-1.34
			c-3.84,0.98-7.01,3.68-8.58,7.32c-1.57,3.64-1.38,7.79,0.54,11.26c2.69,5.76,0.49,10.77-5.5,12.8c-1.12,0.37-1.73,1.58-1.35,2.7
			c0.37,1.12,1.58,1.73,2.7,1.35c8.41-2.77,11.8-10.52,8.02-18.58C102.21,39.91,104.39,34.92,110.38,32.94L110.38,32.94z"/>
	</g>
</g>
</svg>
