<?xml version="1.0" encoding="utf-8"?>
<!-- Generator: Adobe Illustrator 27.9.0, SVG Export Plug-In . SVG Version: 6.00 Build 0)  -->
<svg version="1.1" id="Layer_1" xmlns="http://www.w3.org/2000/svg" xmlns:xlink="http://www.w3.org/1999/xlink" x="0px" y="0px"
	 viewBox="0 0 128 128" style="enable-background:new 0 0 128 128;" xml:space="preserve">
<g>
	<g id="XMLID_1_">
		<g id="XMLID_2_">
			<path id="XMLID_7_" d="M125.5,123H2.5c-1.38,0-2.5,1.12-2.5,2.5s1.12,2.5,2.5,2.5h123c1.38,0,2.5-1.12,2.5-2.5
				S126.88,123,125.5,123z"/>
			<path id="XMLID_6_" d="M72.75,109.5c0,1.38,1.12,2.5,2.5,2.5h50.25c1.38,0,2.5-1.12,2.5-2.5s-1.12-2.5-2.5-2.5H75.25
				C73.87,107,72.75,108.12,72.75,109.5z"/>
			<path id="XMLID_5_" d="M2.5,112h50.25c1.38,0,2.5-1.12,2.5-2.5s-1.12-2.5-2.5-2.5H2.5c-1.38,0-2.5,1.12-2.5,2.5S1.12,112,2.5,112
				z"/>
			<path id="XMLID_4_" d="M21.35,73.88c0.46,0.8,1.3,1.25,2.17,1.25c0.42,0,0.85-0.11,1.25-0.34l9.8-5.66l-1.63,6.07
				c-0.36,1.33,0.43,2.7,1.77,3.06c0.22,0.06,0.43,0.09,0.65,0.09c1.1,0,2.11-0.74,2.41-1.85l2.92-10.9l5.76-3.32l15.05,8.69v6.65
				l-7.98,7.98c-0.98,0.98-0.98,2.56,0,3.54c0.98,0.98,2.56,0.98,3.54,0l4.44-4.44V96c0,1.38,1.12,2.5,2.5,2.5
				c1.38,0,2.5-1.12,2.5-2.5V84.68l4.44,4.44c0.49,0.49,1.13,0.73,1.77,0.73s1.28-0.24,1.77-0.73c0.98-0.98,0.98-2.56,0-3.54
				l-7.98-7.98V71l15.08-8.71l5.73,3.31l2.92,10.9c0.3,1.12,1.31,1.85,2.41,1.85c0.21,0,0.43-0.03,0.65-0.09
				c1.33-0.36,2.12-1.73,1.77-3.06l-1.63-6.07l9.8,5.66c0.39,0.23,0.82,0.34,1.25,0.34c0.86,0,1.7-0.45,2.17-1.25
				c0.69-1.2,0.28-2.72-0.92-3.42l-9.8-5.66l6.07-1.63c1.33-0.36,2.12-1.73,1.77-3.06c-0.36-1.33-1.73-2.13-3.06-1.77l-10.9,2.92
				l-5.73-3.31V40.54l5.73-3.31l10.9,2.92c0.22,0.06,0.43,0.09,0.65,0.09c1.1,0,2.11-0.74,2.41-1.85c0.36-1.33-0.43-2.7-1.77-3.06
				l-6.07-1.63l9.8-5.66c1.2-0.69,1.61-2.22,0.92-3.41c-0.69-1.2-2.22-1.61-3.42-0.92l-9.8,5.66l1.63-6.07
				c0.36-1.33-0.43-2.7-1.77-3.06c-1.33-0.36-2.7,0.43-3.06,1.77l-2.92,10.9l-5.76,3.32L66.5,27.54v-6.65l7.98-7.98
				c0.98-0.98,0.98-2.56,0-3.54c-0.98-0.98-2.56-0.98-3.54,0l-4.44,4.44V2.5C66.5,1.12,65.38,0,64,0s-2.5,1.12-2.5,2.5v11.32
				l-4.44-4.44c-0.98-0.98-2.56-0.98-3.54,0c-0.98,0.98-0.98,2.56,0,3.54l7.98,7.98v6.69l-15.02,8.67l-5.79-3.34l-2.92-10.9
				c-0.36-1.33-1.73-2.13-3.06-1.77c-1.33,0.36-2.12,1.73-1.77,3.06l1.63,6.07l-9.8-5.66c-1.2-0.69-2.72-0.28-3.42,0.92
				c-0.69,1.2-0.28,2.72,0.92,3.41l9.8,5.66L26,35.32c-1.33,0.36-2.12,1.73-1.77,3.06c0.3,1.12,1.31,1.85,2.41,1.85
				c0.21,0,0.43-0.03,0.65-0.09l10.9-2.92l5.79,3.34v17.34l-5.79,3.34l-10.9-2.92c-1.33-0.36-2.7,0.43-3.06,1.77
				c-0.36,1.33,0.43,2.7,1.77,3.06l6.07,1.63l-9.8,5.66C21.07,71.15,20.66,72.68,21.35,73.88L21.35,73.88z M51.45,59.38l10.05-5.8
				v11.61L51.45,59.38z M66.5,65.22V53.58l10.08,5.82L66.5,65.22z M79.08,55.07L69,49.25l10.08-5.82L79.08,55.07L79.08,55.07z
				 M76.55,39.12l-10.05,5.8V33.31L76.55,39.12z M61.5,33.35v11.57l-10.02-5.79L61.5,33.35z M48.98,43.46L59,49.25l-10.02,5.79
				L48.98,43.46L48.98,43.46z"/>
			<path id="XMLID_3_" d="M64,107c-0.66,0-1.3,0.27-1.77,0.73s-0.73,1.11-0.73,1.77s0.27,1.3,0.73,1.77S63.34,112,64,112
				s1.3-0.27,1.77-0.73s0.73-1.11,0.73-1.77s-0.27-1.3-0.73-1.77S64.66,107,64,107z"/>
		</g>
	</g>
</g>
</svg>
