<?xml version="1.0" encoding="utf-8"?>
<!-- Generator: Adobe Illustrator 28.0.0, SVG Export Plug-In . SVG Version: 6.00 Build 0)  -->
<svg version="1.1" id="Layer_1" xmlns="http://www.w3.org/2000/svg" xmlns:xlink="http://www.w3.org/1999/xlink" x="0px" y="0px"
	 viewBox="0 0 128 128" style="enable-background:new 0 0 128 128;" xml:space="preserve">
<g>
	<path d="M124.4,85.5c-3.6-6.1-7.1-12.3-10.7-18.4c-0.5-0.9-1.1-1.7-2.3-1.7c-9.5,0-19.1,0-28.6,0c-0.9,0-1.5,0.4-2,1.2
		C76,74.8,71.2,83,66.4,91.3c-0.5,0.9-0.6,1.7,0,2.6c4.8,8.2,9.5,16.3,14.2,24.5c0.4,0.7,0.9,1.3,1.7,1.4c0.5,0.1,0.9,0.1,1.4,0.1
		c9.2,0,18.3,0,27.5,0c1.2,0.1,1.9-0.4,2.5-1.4c3.6-6.2,7.2-12.5,10.8-18.7c1.2-2.1,2.7-4.1,3.5-6.5v-1.5
		C126.8,89.6,125.6,87.5,124.4,85.5z M96.8,105.1c-7-0.2-12.6-5.9-12.5-12.9c0.1-7,6-12.8,12.9-12.6c7.1,0.2,12.7,6,12.6,12.9
		C109.6,99.8,104,105.3,96.8,105.1z"/>
	<path d="M71.1,51.8c0-1.3-0.5-2-1.7-2.4c-2.5-0.9-5-1.7-7.5-2.6c-1.4-0.5-2-2.1-1.4-3.4c1.1-2.4,2.3-4.9,3.4-7.3
		c0.2-0.4,0.4-0.8,0.4-1.1c0-0.9-0.5-1.4-0.9-1.8c-1.8-1.8-3.6-3.6-5.4-5.4c-0.9-0.9-1.8-1.1-3-0.5c-2.4,1.2-4.9,2.3-7.3,3.4
		c-1.2,0.6-2.9-0.1-3.4-1.4c-0.9-2.5-1.8-5-2.7-7.5c-0.4-1.3-1.2-1.7-2.5-1.7c-2.5,0.1-5,0-7.5,0c-1.3,0-2.1,0.5-2.5,1.7
		c-0.8,2.4-1.7,4.8-2.6,7.2c-0.6,1.7-2,2.3-3.7,1.5c-2.4-1.1-4.8-2.2-7.2-3.4c-1.1-0.5-1.9-0.3-2.8,0.5c-1.8,1.9-3.7,3.7-5.6,5.6
		c-0.8,0.8-1,1.7-0.5,2.8c1.2,2.5,2.3,4.9,3.5,7.4c0.6,1.2-0.2,3-1.4,3.4c-2.4,0.9-4.8,1.8-7.2,2.6C0.5,49.7,0,50.5,0,51.7
		c0,2.6,0,5.2,0,7.7c0,1.2,0.5,2,1.7,2.4c2.5,0.8,5,1.8,7.5,2.7c1.4,0.5,2,2,1.4,3.4c-1.2,2.5-2.3,5-3.5,7.4
		c-0.5,1.1-0.4,1.9,0.5,2.8c1.9,1.8,3.7,3.7,5.6,5.6c0.8,0.9,1.7,1,2.8,0.5c2.5-1.2,5-2.4,7.5-3.5c1.1-0.5,2.8,0.3,3.2,1.4
		c0.9,2.5,1.9,5,2.7,7.6c0.4,1.2,1.1,1.7,2.4,1.7c2.5,0,5.1,0,7.6,0c1.4,0,2.1-0.6,2.5-1.9c0.8-2.5,1.7-4.9,2.6-7.4
		c0.5-1.3,2-2,3.3-1.4c2.5,1.2,5,2.3,7.5,3.5c1,0.5,1.9,0.4,2.7-0.5c1.9-1.9,3.8-3.8,5.7-5.6c0.8-0.8,1-1.7,0.4-2.8
		c-1.3-2.4-2.4-4.9-3.6-7.4c-0.6-1.2,0.1-2.9,1.4-3.4c2.5-0.9,4.9-1.8,7.4-2.6c1.3-0.4,1.9-1.1,1.8-2.5C71,56.9,71,54.3,71.1,51.8z
		 M35.6,65.9c-5.8,0-10.3-4.5-10.3-10.4c0-5.8,4.6-10.3,10.4-10.3c5.8,0,10.4,4.7,10.3,10.5C46,61.5,41.4,66,35.6,65.9z"/>
	<path d="M110.5,48.7c0-2.3,0-4.6,0-7c0-0.7-0.2-0.9-0.9-0.9c-0.9,0.1-1.9,0-2.8,0c-1.2-0.1-1.9-0.8-2-1.9c0-1,0.8-2.1,1.9-2.1
		c3.9-0.1,7.7-0.1,11.6,0c1.1,0,1.8,0.8,1.8,2c0,1.1-0.7,2-1.8,2.1c-0.9,0.1-1.8,0.1-2.7,0c-0.8-0.1-1,0.2-1,1c0,4.4,0,8.8,0,13.1
		c0,0.4,0,0.9-0.1,1.3c-0.2,1.1-1.1,1.8-2.1,1.6c-1.1-0.2-1.8-0.8-1.8-2C110.4,53.5,110.5,51.1,110.5,48.7
		C110.5,48.7,110.5,48.7,110.5,48.7z"/>
	<path d="M106.1,21.9c0-2.3,0-4.6,0-7c0-0.7-0.2-1-0.9-0.9c-0.8,0.1-1.5,0-2.3,0c-1.5,0-2.1-0.6-2.2-1.9c0-1.3,0.8-2.1,2.2-2.2
		c2.6,0,5.2,0,7.9,0c1,0,2,0,3,0c1.3,0.1,2,0.8,2,2c0,1.2-0.8,2-2,2c-0.2,0-0.4,0-0.6,0c-2.9,0-2.9,0-2.9,2.8c0,3.8,0,7.6,0,11.3
		c0,0.5,0,1-0.2,1.4c-0.3,1-1.1,1.6-2.1,1.4c-1-0.1-1.7-0.8-1.7-1.9C106.1,26.7,106.1,24.3,106.1,21.9
		C106.1,21.9,106.1,21.9,106.1,21.9z"/>
	<path d="M82.4,41.8c0-2.2-0.1-4.5,0-6.7c0-1.1-0.3-1.3-1.3-1.2c-0.7,0.1-1.4,0-2.1,0c-1.4-0.1-2.3-0.9-2.2-2.1
		c0-1.1,0.9-1.9,2.3-1.9c3.5,0,7,0,10.6,0c1.3,0,2.2,0.8,2.2,2c0,1.1-0.9,2-2.1,2.1c-0.2,0-0.3,0-0.5,0c-1,0.1-2.3-0.4-2.8,0.2
		c-0.5,0.6-0.2,1.8-0.2,2.7c0,3.9,0,7.7,0,11.6c0,1.4-0.9,2.3-2.1,2.2c-1.1,0-1.7-0.7-1.7-1.9C82.4,46.4,82.4,44.1,82.4,41.8z"/>
	<path d="M95.1,25.1c-0.7,0-1.1-0.3-1.6-0.6c-3.9-2.2-7.7-4.4-11.6-6.6c-0.7-0.4-1.1-0.4-1.5,0.4c-0.3,0.7-0.8,1.4-1.2,2.1
		c-0.7,1.1-1.6,1.4-2.6,0.8c-1-0.6-1.4-1.8-0.8-2.9c1.3-2.3,2.6-4.6,4-6.9c0.5-0.8,0.9-1.6,1.4-2.4C82,8,82.9,7.8,84,8.4
		c1,0.6,1.2,1.5,0.7,2.5c-0.4,0.8-0.8,1.5-1.3,2.2c-0.5,0.7-0.3,0.9,0.4,1.3c4,2.3,8,4.6,12.1,6.8c0.9,0.5,1.4,1.1,1.1,2.2
		C96.6,24.5,96,25.1,95.1,25.1z"/>
</g>
</svg>
