<?xml version="1.0" encoding="utf-8"?>
<!-- Generator: Adobe Illustrator 28.0.0, SVG Export Plug-In . SVG Version: 6.00 Build 0)  -->
<svg version="1.1" id="Layer_1" xmlns="http://www.w3.org/2000/svg" xmlns:xlink="http://www.w3.org/1999/xlink" x="0px" y="0px"
	 viewBox="0 0 128 128" style="enable-background:new 0 0 128 128;" xml:space="preserve">
<g>
	<path d="M124,55.7c-3.5-2.4-5.6-5.2-6.6-9.2c-0.7-2.8-1.9-5.5-3.4-8c-1.8-3.1-2.4-6-1.5-9.7c1.8-7.3-5.2-15-12.5-13.4
		c-4.4,0.9-7.9,0.3-11.6-1.9c-2.5-1.4-5.3-2.5-8.1-3.2c-3.3-0.9-5.6-2.6-7.5-5.6c-3.8-5.8-13.9-6.5-17.7-1c-2.8,4-6.1,6-10.5,7.3
		c-2.9,0.8-5.8,2.1-8.4,3.7c-2.3,1.4-4.6,1.6-7.3,0.9c-8.8-2.1-15.5,5-14.4,13.9c1.1,9.1-4.7,16.5-8.5,24.2C6,53.9,5.9,54,5.9,54
		c0,0-0.1,0-0.3,0.1c-2.9,1.2-4.4,3.6-5.5,6.3v8.2c1.1,1.5,1,3.8,2.9,4.6c4.5,1.9,5.8,5.8,7.1,9.9c0.9,2.9,2.1,5.8,3.7,8.4
		c1.5,2.5,1.8,4.8,1.1,7.8c-2.1,8.7,5.1,15.3,14,14.2c9.1-1.1,16.4,4.6,24.1,8.6c0.1,0.1,0.2,0.1,0.2,0.1c0,0-0.1,0.1,0,0.3
		c1.2,2.9,3.6,4.4,6.3,5.5h7.2c2.2-1.1,5.1-1.1,6.3-3.8c1.5-3.3,4.2-4.7,7.5-5.6c3.3-0.9,6.5-2.2,9.4-3.9c2.9-1.7,5.7-2.2,9.2-1.3
		c7.1,1.8,15-4.9,13.6-11.8c-1.1-5.2,0.2-9.2,2.5-13.5c1.1-1.9,1.9-4,2.4-6.2c0.9-3.7,2.8-6.2,6-8.4C129.2,69.9,129.4,59.4,124,55.7
		z M101,20.9c3.8-0.1,6.2,2.2,6.1,5.9c0,3.4-2.1,5.6-5.9,6c-3.5-0.4-5.9-2.2-5.9-6.1C95.3,23.1,97.6,21,101,20.9z M96.1,35.7
		c1.3,1.2,3.3,1.7,4.8,1.2c5.4-1.8,7.1,1.8,8.8,5.6c1,2.3,2.3,4.6,2.7,7.1c0.2,1.8,2.9,3.9-0.3,5.8c-2.4,1.5-4.1,3.1-7.5,1.2
		c-6.4-3.5-13.2-6.2-19.8-9.1c-2-0.8-3.3-1.8-2.7-4.1c-0.5-2,0.3-3.2,2.1-4.1c2.3-1.1,4.5-2.4,6.6-3.8C92.7,34.3,94.3,34,96.1,35.7z
		 M54.1,54.6c1.9-0.7,3.7-1.6,5.6-2.5c4.7-2.2,10.7,1.1,11.4,6.2c0.5,3.4,0.7,6.8,1.3,10.1c0.3,1.7,0.3,2.8-1.6,3.7
		c-1.7,0.8-2.8,1.2-4.5,0c-4.1-2.9-8.4-5.7-12.8-8.3c-1.9-1.1-2.7-2.4-2.1-4.6C50.8,56.9,51.7,55.4,54.1,54.6z M65.7,43.9
		c-0.2-3.1,3.3-6.2,6.3-6.1c2.9,0.2,5.8,3.2,5.8,6.1c0,3.1-3.3,6.4-6.4,6C68.1,49.6,65.9,47.5,65.7,43.9z M69.8,80.6
		c0.4-3.5,2.5-5.6,6-5.8c3.1-0.2,6.4,3.2,6.1,6.3c-0.4,3.5-2.6,5.4-5.8,5.9C72.7,87,69.5,83.7,69.8,80.6z M76.9,68.8
		c-0.6-4.4-1.1-8.8-1.6-13.5c0-2.1,4.4-5.2,6.7-4.2c7.6,3.3,15.1,6.9,22.7,10.2c1.5,0.7,1.9,1.6,2,3.1c0.2,1.9-1.1,2.2-2.4,2.7
		c-5.8,2.3-11.6,4.6-17.5,6.9C85,74.8,77.1,70.7,76.9,68.8z M73.3,15.3c1.1-1.9,4,0.1,6,0.7c3.6,1,6.9,2.6,10.2,4.5
		c1.3,0.8,2.8,1.5,1.5,4.5c-0.8,1.2,1.7,4.1-0.4,5.7c-3.1,2.3-6.6,4.1-10.1,5.9c-1.4,0.7-9.3-4.4-9.7-6c-0.5-1.8-0.5-3.8-1.4-5.4
		C66.4,20.1,71.5,18.2,73.3,15.3z M63.8,5.1c2.9,0.1,5.9,3.1,5.9,6c0.1,3.2-3.2,6.5-6.3,6.1c-3.5-0.4-5.6-2.5-5.9-6
		C57.3,8.1,60.6,5,63.8,5.1z M37.9,20.3c4.6-2.5,9.4-4.6,14.6-5.6c1-0.2,1.4,0.4,1.9,1.2c1.7,3.2,4.3,5.2,8,5.6
		c1.6,0.1,1.9,1.2,2.1,2.4c0.7,2.6,1.4,5.2,2,7.9c0.9,4.2-2.5,7-6.6,5.6c-7-2.5-13.9-5.3-21-7.5c-3-0.9-2.5-3-3-5.1
		C35.4,22.6,36,21.4,37.9,20.3z M35.9,33.3c7.9,2.8,15.9,5.7,23.8,8.6c2.6,0.9,2.6,3.5,1.3,4.3c-3.5,2.3-7.4,3.9-11.5,5.9
		c-2.7-3.9-8.1-2.6-10.9-5c-2.9-2.6-4.1-7.3-5.5-11.2C32.4,34.1,33.5,32.4,35.9,33.3z M41.3,64.4c-3.5-0.1-5.7-2.2-6.3-5.6
		c-0.5-3,2.7-6.4,6.1-6.6c3.2,0.3,5.4,2.2,6,5.6C47.6,60.9,44.4,64.5,41.3,64.4z M25.7,20.9c3.7-0.1,5.9,2.1,6.2,6.1
		c-0.5,3.5-2.5,5.8-6.3,5.6C22,32.6,20,30.2,20,26.8C20,23.3,22.2,21,25.7,20.9z M17.8,42.1c1.4-2.7,1.9-7.2,7.1-5
		c3.4-1.3,4.3,1.3,5.8,3.7c3.3,5.4,4.1,10.4,0.3,15.9c-1.3,2-10.1,4.1-11.8,2.4C13,53.1,12.8,51.9,17.8,42.1z M10.3,70.5
		c-3.5-0.2-5.6-2.3-6-5.8c-0.4-3.1,2.9-6.3,6.1-6.3c2.9,0,5.9,2.9,6.1,5.9C16.6,67.4,13.4,70.8,10.3,70.5z M15.3,80.9
		c-1.5-3.5-2.8-6.9,2.1-9.1c0.8-0.4,1.7-1.5,1.8-2.3c0.8-6.7,6.4-5.7,10.6-6.7c2.3-0.6,5.9,4.2,5.1,6.7c-2.2,6.8-4.6,13.5-6.6,20.3
		c-1,3.2-3.6,1.7-5.3,2.5c-2.1,0.8-2.8-0.8-3.4-2.1C18.1,87.1,16.7,84,15.3,80.9z M25.5,108c-3.5-0.2-5.6-2.6-5.5-6.1
		c0.1-3.4,2.2-5.7,5.8-5.7c3.9,0,5.6,2.5,6.1,5.7C31.5,106.2,29.2,108.2,25.5,108z M33.4,95.2c-1.4-1.5-1.5-2.6-0.8-4.4
		c2.3-6.4,4.3-12.9,6.4-19.3c1-3,9.3-5.8,12-4c4.2,2.6,8.2,5.4,12.5,8c1.9,1.1,2.7,2.4,2.1,4.5c0.4,2.2-0.4,3.4-2.5,4.3
		c-8.6,3.6-17.1,7.4-25.6,11.2C36,96,34.9,96.8,33.4,95.2z M55.7,111.2c-1.6,3.7-4.2,3.2-6.9,2.1c-3.8-1.5-7.4-3.2-11.1-4.9
		c-1.4-0.7-2.8-1.5-1.8-3.6c-0.4-3,0.9-4.6,4-5.8c8.3-3.4,16.4-7.2,24.6-10.8c1.4-0.6,2.7-1.5,4.5,0.1c1.9,1.6,1,3,0.6,4.5
		c-0.7,2.4-1.7,4.8-2.4,7.2c-1.1,4.1-2,8.1-7.5,8.3C58.3,108.4,56.3,109.9,55.7,111.2z M63.8,123.9c-3.1,0.1-6.5-3-6.2-6.2
		c0.3-3.5,2.5-5.4,5.9-6.1c3.4,0.4,5.7,2.3,6.2,5.7C70.1,120.3,66.9,123.7,63.8,123.9z M90.4,107.8c-4.8,3.3-10.3,5.3-15.9,6.5
		c-1.5,0.3-5.3-5.9-4.8-7.6c1.4-4.5,2.7-9.1,4.4-13.5c1.4-3.6,5.5-2.5,8.3-3.5c2.4-0.9,9,8.2,8.7,11.5C90,103,93.2,105.9,90.4,107.8
		z M101.5,108c-3.7,0.1-5.8-2.2-6.3-5.9c0.6-3.7,2.5-6,6.4-5.9c3.7,0.1,5.6,2.5,5.6,5.9C107.2,105.7,105,108,101.5,108z M112.8,77.6
		c-0.7,4-2.5,7.7-4.4,11.3c-1.2,2.4-2.4,4.8-5.1,3.1c-1.7,0-2.9-0.4-3.7,0.1c-6.8,3.6-9.5-2.7-13.4-5.6c-1.8-1.3,0-7.4,2.2-8.3
		c5.8-2.4,11.8-4.4,17.4-7c3.5-1.6,4.3,1.9,6.5,2.6C114.8,74.5,113,76.4,112.8,77.6z M117,70.6c-3.1,0.1-6.5-3.1-6.2-6.2
		c0.3-3.5,2.4-5.6,5.9-6c3.2-0.3,6.3,3,6.2,6.2C122.9,67.5,119.9,70.5,117,70.6z"/>
</g>
</svg>
