<?xml version="1.0" encoding="utf-8"?>
<!-- Generator: Adobe Illustrator 28.0.0, SVG Export Plug-In . SVG Version: 6.00 Build 0)  -->
<svg version="1.1" id="Layer_1" xmlns="http://www.w3.org/2000/svg" xmlns:xlink="http://www.w3.org/1999/xlink" x="0px" y="0px"
	 viewBox="0 0 128 128" style="enable-background:new 0 0 128 128;" xml:space="preserve">
<g>
	<path d="M23.9,21.9c0,1.2-0.7,1.9-2.2,1.9c-2.8,0-5.7,0.1-8.5,0c-1.2,0-1.4,0.4-1.3,1.4c0.1,2.8,0,5.7,0,8.5c0,1.4-0.7,2.1-1.8,2.2
		c-1.2,0-1.9-0.8-1.9-2.2c0-1.9,0-3.8,0-5.7c0-1.9,0-3.7,0-5.6c0-1.5,0.7-2.2,2.2-2.2c3.8,0,7.6,0,11.4,0
		C23.1,20,23.9,20.7,23.9,21.9z"/>
	<path d="M23.9,106c0,1.1-0.8,1.8-2.2,1.8c-3.8,0-7.6,0-11.4,0c-1.5,0-2.2-0.7-2.2-2.2c0-1.9,0-3.8,0-5.7c0-1.9,0-3.8,0-5.7
		c0-1.3,0.8-2.1,1.9-2.1c1.1,0,1.8,0.8,1.8,2c0,2.9,0,5.8,0,8.7c0,0.9,0.2,1.3,1.2,1.3c2.9-0.1,5.7,0,8.6,0
		C23.2,104.1,23.9,104.8,23.9,106z"/>
	<path d="M25.9,37.9c0,1.1-0.7,1.8-1.9,1.9c-1,0.1-2,0-3,0c-1,0-2,0-3,0c-1.2-0.1-1.9-0.8-1.9-1.9c0-1,0.8-1.9,1.9-1.9c2,0,4,0,6,0
		C25.2,36.1,25.9,36.9,25.9,37.9z"/>
	<path d="M33.9,30c0,1.2-0.8,1.8-2.2,1.8c-2.3,0-4.6,0-6.9,0c-2.1,0-4.2,0-6.4,0c-1.5,0-2.4-0.7-2.4-1.9c0-1.2,0.9-1.9,2.3-1.9
		c4.4,0,8.8,0,13.2,0C33.1,28,33.9,28.8,33.9,30z"/>
	<path d="M105.9,91.1c-0.2-2.4-0.3-4.7-0.6-7.1c-0.6-4.9-1.5-9.7-2.8-14.4c-0.3-1.2-1.2-1.8-2.3-1.5c-1.1,0.3-1.7,1.2-1.4,2.5
		c0.5,2.3,1.1,4.5,1.5,6.8c0.9,4.7,1.5,9.5,1.7,14.5c-8.5-3.2-16.9-6.3-25.2-9.5c-3.2-1.3-4.8-3.9-4.8-7.4c0-11.6,0-23.2,0-34.8
		c0-3,1.6-5.2,4.3-6c2.6-0.8,5.3,0.2,7,2.6c0.4,0.6,0.8,1.3,1.3,1.8c0.6,0.8,1.7,1,2.5,0.5c0.9-0.6,1.2-1.6,0.6-2.6
		c-0.6-1-1.3-2.1-2.1-2.9c-2.8-3-6.2-4.2-10.2-3c-4.1,1.2-6.4,4.1-7.1,8.3c-0.1,0.6,0.1,1.3-1,1.3c-1,0-1.3-0.3-1.3-1.3
		c0.1-3.5,0.1-7,0-10.5c0-1.8-1.6-2.8-2.9-2c-0.8,0.5-1,1.3-1,2.2c0,3.4-0.1,6.8,0,10.2c0,1.1-0.3,1.4-1.4,1.3
		c-0.7,0-0.8-0.3-0.9-0.9c-0.1-0.8-0.2-1.6-0.5-2.4c-1.4-3.9-4.2-6.2-8.3-6.6c-4-0.5-7.2,1.2-9.5,4.5c-5.6,8.1-10,16.8-13.3,26
		c-3.5,9.8-5.5,19.8-6.1,30.2c-0.2,4.1,2.2,7,6.3,7c7.7,0,15.4,0,23.1,0c0.5,0,1,0,1.5-0.1c4.3-0.8,6.8-3.9,6.8-8.5
		c0-13.4,0-26.9,0-40.3c0-1.5,0-2.9,0-4.4c0-0.6,0.2-0.8,0.8-0.8c2.2,0,4.3,0,6.5,0c0.7,0,0.9,0.3,0.9,0.9c0,1.2,0,2.4,0,3.6
		c0,13.6,0,27.3,0,40.9c0,5.2,3.4,8.5,8.6,8.6c7.7,0,15.4,0,23.1,0C103.6,97.8,106.2,94.8,105.9,91.1z M56.1,90.1
		c0,2-1.4,3.5-3.4,3.8c-0.2,0-0.5,0.1-0.7,0.1c-6.7,0-13.3,0-20,0c0-0.5,0.5-0.4,0.8-0.5c6.2-2.4,12.5-4.7,18.8-7.1
		c1.6-0.6,3.2-1.4,4.7-2.7C56.1,86.1,56.1,88.1,56.1,90.1z M56.1,74.9c0,3.7-1.8,6.3-5.1,7.6c-8.1,3.1-16.3,6.1-24.5,9.2
		c-0.1,0-0.2,0-0.4,0.1c0.1-4.3,0.6-8.6,1.3-12.8c2.5-13.8,7.5-26.7,15-38.6c0.8-1.3,1.7-2.6,2.6-3.8c1.6-2.3,4.3-3.3,6.9-2.5
		c2.6,0.8,4.3,3.1,4.3,6C56.1,51.7,56.1,63.3,56.1,74.9z M95.1,94c-6.1,0-12.1-0.1-18.2,0c-3,0-5.1-1.7-4.9-4.9c0.1-1.7,0-3.5,0-5.5
		c2,1.8,4.2,2.6,6.4,3.4c5.8,2.2,11.5,4.3,17.3,6.5c0.2,0.1,0.4,0.1,0.5,0.4H95.1z"/>
	<path d="M94,56c0,1-1,1.9-2,1.9c-1,0-1.9-0.9-1.8-2c0-1,0.9-1.9,1.9-1.9C93.1,54,94,55,94,56z"/>
	<path d="M106.2,54c-0.6-0.1-1.2,0-1.9,0c-0.3,0-0.6,0-0.8-0.4c-1.9-3.3-4.9-5.6-7.6-8.1c-1.2-1.1-2.1-1.9-1.9-3.6
		c0.1-1.1-0.9-1.9-1.9-1.9c-1.1,0-2,0.9-1.9,2.2c0.1,1.5-0.2,2.6-1.7,3.1c-0.3,0.1-0.5,0.3-0.7,0.5c-2,2-4.1,3.8-5.9,5.9
		c-1.2,1.4-2,2.7-4.2,2.4c-0.9-0.1-1.6,0.8-1.6,1.8c0,1,0.5,1.7,1.5,1.8c0.7,0.1,1.4,0.1,2.1,0.1c0.4,0,0.7,0.1,0.9,0.5
		c2,3.3,5,5.7,7.9,8.2c1.1,0.9,1.7,1.6,1.6,3c-0.1,1.4,0.8,2.3,1.9,2.3c1.1,0,2-1,1.9-2.3c-0.1-1.4,0.2-2.4,1.6-2.9
		c0.4-0.1,0.7-0.5,1-0.8c1.9-1.8,3.8-3.6,5.5-5.6c1.2-1.4,2.1-2.9,4.3-2.6c1,0.1,1.6-0.8,1.6-1.8C108,54.8,107.2,54.2,106.2,54z
		 M99.5,57.5c-1.9,2-3.9,4-5.9,5.9c-0.4,0.4-0.9,0.6-1.4,0.6c-0.7,0-1.3-0.3-1.8-0.8c-1.9-1.8-3.7-3.7-5.6-5.6
		c-1.1-1.2-1.1-2.2,0-3.4c1.8-1.9,3.7-3.8,5.6-5.6c1.1-1,2.2-1,3.3,0c1.9,1.8,3.8,3.7,5.6,5.6C100.4,55.3,100.5,56.4,99.5,57.5z"/>
	<path d="M112,29.9c0,1.2-0.8,1.9-2.2,1.9c-1.6,0-3.2,0-4.7,0s-3.2,0-4.7,0c-1.3,0-2-0.7-2-1.8c0-1.2,0.8-1.9,2.1-1.9
		c3.2,0,6.3,0,9.5,0C111.1,28,112,28.8,112,29.9z"/>
	<path d="M120,105.6c0,1.5-0.7,2.2-2.2,2.2c-3.8,0-7.6,0-11.5,0c-1.3,0-2.1-0.7-2.1-1.9s0.7-1.8,2.2-1.8c2.7,0,5.5,0,8.2,0
		c1.6,0,1.6,0,1.6-1.7c0-2.7,0-5.4,0-8.1c0-1.5,0.7-2.3,1.9-2.2c1.2,0,1.8,0.8,1.8,2.3c0,1.9,0,3.7,0,5.6
		C120,101.9,120,103.7,120,105.6z"/>
	<path d="M120,33.7c0,1.3-0.8,2.1-1.9,2.1c-1.1,0-1.8-0.8-1.8-2.1c0-3,0-5.9,0-8.9c0-0.9-0.2-1.1-1.1-1.1c-2.9,0.1-5.7,0-8.6,0
		c-1.6,0-2.4-0.6-2.3-1.9c0-1.2,0.8-1.8,2.3-1.8c3.7,0,7.4,0,11.1,0c1.7,0,2.3,0.7,2.3,2.3c0,1.9,0,3.7,0,5.6
		C120,29.9,120,31.8,120,33.7z"/>
	<path d="M123.2,12H123c-0.4,0.2-0.9,0.1-1.3,0.1c-38.4,0-76.8,0-115.2,0c-0.5,0-0.9,0.1-1.3-0.1H4.6c-0.8,0.3-1.6,0.3-2.3,0.8
		C0.7,14.1,0,15.7,0,17.7C0,29.5,0,41.2,0,53c0,19,0,38,0,57c0,1.1,0,2.2,0.6,3.1c1.2,2,3,2.8,5.3,2.8c38.7,0,77.4,0,116.1,0
		c3.5,0,5.1-1.3,5.9-4.6V16.5C127.5,13.9,125.9,12.4,123.2,12z M124.2,109c0,2.4-0.7,3.1-3.1,3.1c-19,0-38,0-57,0
		c-19,0-37.9,0-56.9,0c-2.6,0-3.3-0.6-3.3-3.2V18.9c0-2.5,0.7-3.1,3.2-3.1h114c2.5,0,3.2,0.6,3.2,3.1V109z"/>
	<path d="M123,12c-0.4,0.4-0.9,0.2-1.3,0.2c-38.4,0-76.8,0-115.3,0c-0.4,0-0.9,0.2-1.3-0.2C44.4,12,83.7,12,123,12z"/>
	<path d="M128,16.5c-0.9-2.3-2.4-3.8-4.7-4.5c1.4,0,2.8,0,4.2,0c0.4,0,0.5,0.1,0.5,0.5C128,13.9,128,15.2,128,16.5z"/>
	<path d="M23.9,21.9c0,1.2-0.7,1.9-2.2,1.9c-2.8,0-5.7,0.1-8.5,0c-1.2,0-1.4,0.4-1.3,1.4c0.1,2.8,0,5.7,0,8.5c0,1.4-0.7,2.1-1.8,2.2
		c-1.2,0-1.9-0.8-1.9-2.2c0-1.9,0-3.8,0-5.7c0-1.9,0-3.7,0-5.6c0-1.5,0.7-2.2,2.2-2.2c3.8,0,7.6,0,11.4,0
		C23.1,20,23.9,20.7,23.9,21.9z"/>
	<path d="M23.9,106c0,1.1-0.8,1.8-2.2,1.8c-3.8,0-7.6,0-11.4,0c-1.5,0-2.2-0.7-2.2-2.2c0-1.9,0-3.8,0-5.7c0-1.9,0-3.8,0-5.7
		c0-1.3,0.8-2.1,1.9-2.1c1.1,0,1.8,0.8,1.8,2c0,2.9,0,5.8,0,8.7c0,0.9,0.2,1.3,1.2,1.3c2.9-0.1,5.7,0,8.6,0
		C23.2,104.1,23.9,104.8,23.9,106z"/>
	<path d="M25.9,37.9c0,1.1-0.7,1.8-1.9,1.9c-1,0.1-2,0-3,0c-1,0-2,0-3,0c-1.2-0.1-1.9-0.8-1.9-1.9c0-1,0.8-1.9,1.9-1.9c2,0,4,0,6,0
		C25.2,36.1,25.9,36.9,25.9,37.9z"/>
	<path d="M33.9,30c0,1.2-0.8,1.8-2.2,1.8c-2.3,0-4.6,0-6.9,0c-2.1,0-4.2,0-6.4,0c-1.5,0-2.4-0.7-2.4-1.9c0-1.2,0.9-1.9,2.3-1.9
		c4.4,0,8.8,0,13.2,0C33.1,28,33.9,28.8,33.9,30z"/>
	<path d="M105.9,91.1c-0.2-2.4-0.3-4.7-0.6-7.1c-0.6-4.9-1.5-9.7-2.8-14.4c-0.3-1.2-1.2-1.8-2.3-1.5c-1.1,0.3-1.7,1.2-1.4,2.5
		c0.5,2.3,1.1,4.5,1.5,6.8c0.9,4.7,1.5,9.5,1.7,14.5c-8.5-3.2-16.9-6.3-25.2-9.5c-3.2-1.3-4.8-3.9-4.8-7.4c0-11.6,0-23.2,0-34.8
		c0-3,1.6-5.2,4.3-6c2.6-0.8,5.3,0.2,7,2.6c0.4,0.6,0.8,1.3,1.3,1.8c0.6,0.8,1.7,1,2.5,0.5c0.9-0.6,1.2-1.6,0.6-2.6
		c-0.6-1-1.3-2.1-2.1-2.9c-2.8-3-6.2-4.2-10.2-3c-4.1,1.2-6.4,4.1-7.1,8.3c-0.1,0.6,0.1,1.3-1,1.3c-1,0-1.3-0.3-1.3-1.3
		c0.1-3.5,0.1-7,0-10.5c0-1.8-1.6-2.8-2.9-2c-0.8,0.5-1,1.3-1,2.2c0,3.4-0.1,6.8,0,10.2c0,1.1-0.3,1.4-1.4,1.3
		c-0.7,0-0.8-0.3-0.9-0.9c-0.1-0.8-0.2-1.6-0.5-2.4c-1.4-3.9-4.2-6.2-8.3-6.6c-4-0.5-7.2,1.2-9.5,4.5c-5.6,8.1-10,16.8-13.3,26
		c-3.5,9.8-5.5,19.8-6.1,30.2c-0.2,4.1,2.2,7,6.3,7c7.7,0,15.4,0,23.1,0c0.5,0,1,0,1.5-0.1c4.3-0.8,6.8-3.9,6.8-8.5
		c0-13.4,0-26.9,0-40.3c0-1.5,0-2.9,0-4.4c0-0.6,0.2-0.8,0.8-0.8c2.2,0,4.3,0,6.5,0c0.7,0,0.9,0.3,0.9,0.9c0,1.2,0,2.4,0,3.6
		c0,13.6,0,27.3,0,40.9c0,5.2,3.4,8.5,8.6,8.6c7.7,0,15.4,0,23.1,0C103.6,97.8,106.2,94.8,105.9,91.1z M56.1,90.1
		c0,2-1.4,3.5-3.4,3.8c-0.2,0-0.5,0.1-0.7,0.1c-6.7,0-13.3,0-20,0c0-0.5,0.5-0.4,0.8-0.5c6.2-2.4,12.5-4.7,18.8-7.1
		c1.6-0.6,3.2-1.4,4.7-2.7C56.1,86.1,56.1,88.1,56.1,90.1z M56.1,74.9c0,3.7-1.8,6.3-5.1,7.6c-8.1,3.1-16.3,6.1-24.5,9.2
		c-0.1,0-0.2,0-0.4,0.1c0.1-4.3,0.6-8.6,1.3-12.8c2.5-13.8,7.5-26.7,15-38.6c0.8-1.3,1.7-2.6,2.6-3.8c1.6-2.3,4.3-3.3,6.9-2.5
		c2.6,0.8,4.3,3.1,4.3,6C56.1,51.7,56.1,63.3,56.1,74.9z M95.1,94c-6.1,0-12.1-0.1-18.2,0c-3,0-5.1-1.7-4.9-4.9c0.1-1.7,0-3.5,0-5.5
		c2,1.8,4.2,2.6,6.4,3.4c5.8,2.2,11.5,4.3,17.3,6.5c0.2,0.1,0.4,0.1,0.5,0.4H95.1z"/>
	<path d="M94,56c0,1-1,1.9-2,1.9c-1,0-1.9-0.9-1.8-2c0-1,0.9-1.9,1.9-1.9C93.1,54,94,55,94,56z"/>
	<path d="M106.2,54c-0.6-0.1-1.2,0-1.9,0c-0.3,0-0.6,0-0.8-0.4c-1.9-3.3-4.9-5.6-7.6-8.1c-1.2-1.1-2.1-1.9-1.9-3.6
		c0.1-1.1-0.9-1.9-1.9-1.9c-1.1,0-2,0.9-1.9,2.2c0.1,1.5-0.2,2.6-1.7,3.1c-0.3,0.1-0.5,0.3-0.7,0.5c-2,2-4.1,3.8-5.9,5.9
		c-1.2,1.4-2,2.7-4.2,2.4c-0.9-0.1-1.6,0.8-1.6,1.8c0,1,0.5,1.7,1.5,1.8c0.7,0.1,1.4,0.1,2.1,0.1c0.4,0,0.7,0.1,0.9,0.5
		c2,3.3,5,5.7,7.9,8.2c1.1,0.9,1.7,1.6,1.6,3c-0.1,1.4,0.8,2.3,1.9,2.3c1.1,0,2-1,1.9-2.3c-0.1-1.4,0.2-2.4,1.6-2.9
		c0.4-0.1,0.7-0.5,1-0.8c1.9-1.8,3.8-3.6,5.5-5.6c1.2-1.4,2.1-2.9,4.3-2.6c1,0.1,1.6-0.8,1.6-1.8C108,54.8,107.2,54.2,106.2,54z
		 M99.5,57.5c-1.9,2-3.9,4-5.9,5.9c-0.4,0.4-0.9,0.6-1.4,0.6c-0.7,0-1.3-0.3-1.8-0.8c-1.9-1.8-3.7-3.7-5.6-5.6
		c-1.1-1.2-1.1-2.2,0-3.4c1.8-1.9,3.7-3.8,5.6-5.6c1.1-1,2.2-1,3.3,0c1.9,1.8,3.8,3.7,5.6,5.6C100.4,55.3,100.5,56.4,99.5,57.5z"/>
	<path d="M112,29.9c0,1.2-0.8,1.9-2.2,1.9c-1.6,0-3.2,0-4.7,0s-3.2,0-4.7,0c-1.3,0-2-0.7-2-1.8c0-1.2,0.8-1.9,2.1-1.9
		c3.2,0,6.3,0,9.5,0C111.1,28,112,28.8,112,29.9z"/>
	<path d="M120,105.6c0,1.5-0.7,2.2-2.2,2.2c-3.8,0-7.6,0-11.5,0c-1.3,0-2.1-0.7-2.1-1.9s0.7-1.8,2.2-1.8c2.7,0,5.5,0,8.2,0
		c1.6,0,1.6,0,1.6-1.7c0-2.7,0-5.4,0-8.1c0-1.5,0.7-2.3,1.9-2.2c1.2,0,1.8,0.8,1.8,2.3c0,1.9,0,3.7,0,5.6
		C120,101.9,120,103.7,120,105.6z"/>
	<path d="M120,33.7c0,1.3-0.8,2.1-1.9,2.1c-1.1,0-1.8-0.8-1.8-2.1c0-3,0-5.9,0-8.9c0-0.9-0.2-1.1-1.1-1.1c-2.9,0.1-5.7,0-8.6,0
		c-1.6,0-2.4-0.6-2.3-1.9c0-1.2,0.8-1.8,2.3-1.8c3.7,0,7.4,0,11.1,0c1.7,0,2.3,0.7,2.3,2.3c0,1.9,0,3.7,0,5.6
		C120,29.9,120,31.8,120,33.7z"/>
	<path d="M105.9,91.1c-0.2-2.4-0.3-4.7-0.6-7.1c-0.6-4.9-1.5-9.7-2.8-14.4c-0.3-1.2-1.2-1.8-2.3-1.5c-1.1,0.3-1.7,1.2-1.4,2.5
		c0.5,2.3,1.1,4.5,1.5,6.8c0.9,4.7,1.5,9.5,1.7,14.5c-8.5-3.2-16.9-6.3-25.2-9.5c-3.2-1.3-4.8-3.9-4.8-7.4c0-11.6,0-23.2,0-34.8
		c0-3,1.6-5.2,4.3-6c2.6-0.8,5.3,0.2,7,2.6c0.4,0.6,0.8,1.3,1.3,1.8c0.6,0.8,1.7,1,2.5,0.5c0.9-0.6,1.2-1.6,0.6-2.6
		c-0.6-1-1.3-2.1-2.1-2.9c-2.8-3-6.2-4.2-10.2-3c-4.1,1.2-6.4,4.1-7.1,8.3c-0.1,0.6,0.1,1.3-1,1.3c-1,0-1.3-0.3-1.3-1.3
		c0.1-3.5,0.1-7,0-10.5c0-1.8-1.6-2.8-2.9-2c-0.8,0.5-1,1.3-1,2.2c0,3.4-0.1,6.8,0,10.2c0,1.1-0.3,1.4-1.4,1.3
		c-0.7,0-0.8-0.3-0.9-0.9c-0.1-0.8-0.2-1.6-0.5-2.4c-1.4-3.9-4.2-6.2-8.3-6.6c-4-0.5-7.2,1.2-9.5,4.5c-5.6,8.1-10,16.8-13.3,26
		c-3.5,9.8-5.5,19.8-6.1,30.2c-0.2,4.1,2.2,7,6.3,7c7.7,0,15.4,0,23.1,0c0.5,0,1,0,1.5-0.1c4.3-0.8,6.8-3.9,6.8-8.5
		c0-13.4,0-26.9,0-40.3c0-1.5,0-2.9,0-4.4c0-0.6,0.2-0.8,0.8-0.8c2.2,0,4.3,0,6.5,0c0.7,0,0.9,0.3,0.9,0.9c0,1.2,0,2.4,0,3.6
		c0,13.6,0,27.3,0,40.9c0,5.2,3.4,8.5,8.6,8.6c7.7,0,15.4,0,23.1,0C103.6,97.8,106.2,94.8,105.9,91.1z M56.1,90.1
		c0,2-1.4,3.5-3.4,3.8c-0.2,0-0.5,0.1-0.7,0.1c-6.7,0-13.3,0-20,0c0-0.5,0.5-0.4,0.8-0.5c6.2-2.4,12.5-4.7,18.8-7.1
		c1.6-0.6,3.2-1.4,4.7-2.7C56.1,86.1,56.1,88.1,56.1,90.1z M56.1,74.9c0,3.7-1.8,6.3-5.1,7.6c-8.1,3.1-16.3,6.1-24.5,9.2
		c-0.1,0-0.2,0-0.4,0.1c0.1-4.3,0.6-8.6,1.3-12.8c2.5-13.8,7.5-26.7,15-38.6c0.8-1.3,1.7-2.6,2.6-3.8c1.6-2.3,4.3-3.3,6.9-2.5
		c2.6,0.8,4.3,3.1,4.3,6C56.1,51.7,56.1,63.3,56.1,74.9z M95.1,94c-6.1,0-12.1-0.1-18.2,0c-3,0-5.1-1.7-4.9-4.9c0.1-1.7,0-3.5,0-5.5
		c2,1.8,4.2,2.6,6.4,3.4c5.8,2.2,11.5,4.3,17.3,6.5c0.2,0.1,0.4,0.1,0.5,0.4H95.1z"/>
	<path d="M94,56c0,1-1,1.9-2,1.9c-1,0-1.9-0.9-1.8-2c0-1,0.9-1.9,1.9-1.9C93.1,54,94,55,94,56z"/>
	<path d="M106.2,54c-0.6-0.1-1.2,0-1.9,0c-0.3,0-0.6,0-0.8-0.4c-1.9-3.3-4.9-5.6-7.6-8.1c-1.2-1.1-2.1-1.9-1.9-3.6
		c0.1-1.1-0.9-1.9-1.9-1.9c-1.1,0-2,0.9-1.9,2.2c0.1,1.5-0.2,2.6-1.7,3.1c-0.3,0.1-0.5,0.3-0.7,0.5c-2,2-4.1,3.8-5.9,5.9
		c-1.2,1.4-2,2.7-4.2,2.4c-0.9-0.1-1.6,0.8-1.6,1.8c0,1,0.5,1.7,1.5,1.8c0.7,0.1,1.4,0.1,2.1,0.1c0.4,0,0.7,0.1,0.9,0.5
		c2,3.3,5,5.7,7.9,8.2c1.1,0.9,1.7,1.6,1.6,3c-0.1,1.4,0.8,2.3,1.9,2.3c1.1,0,2-1,1.9-2.3c-0.1-1.4,0.2-2.4,1.6-2.9
		c0.4-0.1,0.7-0.5,1-0.8c1.9-1.8,3.8-3.6,5.5-5.6c1.2-1.4,2.1-2.9,4.3-2.6c1,0.1,1.6-0.8,1.6-1.8C108,54.8,107.2,54.2,106.2,54z
		 M99.5,57.5c-1.9,2-3.9,4-5.9,5.9c-0.4,0.4-0.9,0.6-1.4,0.6c-0.7,0-1.3-0.3-1.8-0.8c-1.9-1.8-3.7-3.7-5.6-5.6
		c-1.1-1.2-1.1-2.2,0-3.4c1.8-1.9,3.7-3.8,5.6-5.6c1.1-1,2.2-1,3.3,0c1.9,1.8,3.8,3.7,5.6,5.6C100.4,55.3,100.5,56.4,99.5,57.5z"/>
	<path d="M23.9,21.9c0,1.2-0.7,1.9-2.2,1.9c-2.8,0-5.7,0.1-8.5,0c-1.2,0-1.4,0.4-1.3,1.4c0.1,2.8,0,5.7,0,8.5c0,1.4-0.7,2.1-1.8,2.2
		c-1.2,0-1.9-0.8-1.9-2.2c0-1.9,0-3.8,0-5.7c0-1.9,0-3.7,0-5.6c0-1.5,0.7-2.2,2.2-2.2c3.8,0,7.6,0,11.4,0
		C23.1,20,23.9,20.7,23.9,21.9z"/>
	<path d="M23.9,106c0,1.1-0.8,1.8-2.2,1.8c-3.8,0-7.6,0-11.4,0c-1.5,0-2.2-0.7-2.2-2.2c0-1.9,0-3.8,0-5.7c0-1.9,0-3.8,0-5.7
		c0-1.3,0.8-2.1,1.9-2.1c1.1,0,1.8,0.8,1.8,2c0,2.9,0,5.8,0,8.7c0,0.9,0.2,1.3,1.2,1.3c2.9-0.1,5.7,0,8.6,0
		C23.2,104.1,23.9,104.8,23.9,106z"/>
	<path d="M120,33.7c0,1.3-0.8,2.1-1.9,2.1c-1.1,0-1.8-0.8-1.8-2.1c0-3,0-5.9,0-8.9c0-0.9-0.2-1.1-1.1-1.1c-2.9,0.1-5.7,0-8.6,0
		c-1.6,0-2.4-0.6-2.3-1.9c0-1.2,0.8-1.8,2.3-1.8c3.7,0,7.4,0,11.1,0c1.7,0,2.3,0.7,2.3,2.3c0,1.9,0,3.7,0,5.6
		C120,29.9,120,31.8,120,33.7z"/>
	<path d="M120,105.6c0,1.5-0.7,2.2-2.2,2.2c-3.8,0-7.6,0-11.5,0c-1.3,0-2.1-0.7-2.1-1.9s0.7-1.8,2.2-1.8c2.7,0,5.5,0,8.2,0
		c1.6,0,1.6,0,1.6-1.7c0-2.7,0-5.4,0-8.1c0-1.5,0.7-2.3,1.9-2.2c1.2,0,1.8,0.8,1.8,2.3c0,1.9,0,3.7,0,5.6
		C120,101.9,120,103.7,120,105.6z"/>
	<path d="M33.9,30c0,1.2-0.8,1.8-2.2,1.8c-2.3,0-4.6,0-6.9,0c-2.1,0-4.2,0-6.4,0c-1.5,0-2.4-0.7-2.4-1.9c0-1.2,0.9-1.9,2.3-1.9
		c4.4,0,8.8,0,13.2,0C33.1,28,33.9,28.8,33.9,30z"/>
	<path d="M112,29.9c0,1.2-0.8,1.9-2.2,1.9c-1.6,0-3.2,0-4.7,0s-3.2,0-4.7,0c-1.3,0-2-0.7-2-1.8c0-1.2,0.8-1.9,2.1-1.9
		c3.2,0,6.3,0,9.5,0C111.1,28,112,28.8,112,29.9z"/>
	<path d="M25.9,37.9c0,1.1-0.7,1.8-1.9,1.9c-1,0.1-2,0-3,0c-1,0-2,0-3,0c-1.2-0.1-1.9-0.8-1.9-1.9c0-1,0.8-1.9,1.9-1.9c2,0,4,0,6,0
		C25.2,36.1,25.9,36.9,25.9,37.9z"/>
	<path d="M94,56c0,1-1,1.9-2,1.9c-1,0-1.9-0.9-1.8-2c0-1,0.9-1.9,1.9-1.9C93.1,54,94,55,94,56z"/>
	<path d="M94,56c0,1-1,1.9-2,1.9c-1,0-1.9-0.9-1.8-2c0-1,0.9-1.9,1.9-1.9C93.1,54,94,55,94,56z"/>
</g>
</svg>
