<?xml version="1.0" encoding="utf-8"?>
<!-- Generator: Adobe Illustrator 28.0.0, SVG Export Plug-In . SVG Version: 6.00 Build 0)  -->
<svg version="1.1" id="Layer_1" xmlns="http://www.w3.org/2000/svg" xmlns:xlink="http://www.w3.org/1999/xlink" x="0px" y="0px"
	 viewBox="0 0 128 128" style="enable-background:new 0 0 128 128;" xml:space="preserve">
<g>
	<path d="M63.5,14.1c-27.2,0.3-49.3,22.5-49.4,49.7c0,27.7,22.3,50.1,49.9,50.1c27.3,0,49.7-22.2,49.9-49.4
		C114.2,36.7,91.5,13.8,63.5,14.1z M61.9,17h4.2v13.3h-4.2V17z M30.4,66.1H17v-4.2h13.4V66.1z M66.1,111h-4.2V97.6h4.2V111z
		 M85.3,48.8c-4.8,4.8-9.5,9.5-14.3,14.3c-0.3,0.3-0.5,0.6-0.5,1c0,3.5-2.9,6.3-6.4,6.3c-3.6,0-6.5-2.8-6.6-6.3
		c0-0.3-0.1-0.6-0.3-0.8c-7.9-8-15.9-15.9-23.8-23.9c-1.2-1.2-2.4-2.4-3.6-3.6c-1.3-1.3-1.3-3.2-0.2-4.4c1.2-1.2,3.1-1.2,4.5,0.1
		c5.7,5.7,11.3,11.3,17,17c3.2,3.2,6.4,6.5,9.7,9.7c2.1-1.1,4.1-1.2,6.2-0.2c0.2,0.1,0.5-0.1,0.6-0.2c3.2-3.2,6.4-6.3,9.5-9.5
		c1.3-1.3,2.6-2.6,3.9-3.9c1.3-1.3,3.2-1.3,4.4-0.1C86.6,45.6,86.5,47.5,85.3,48.8z M97.6,66.1v-4.2H111v4.2H97.6z"/>
	<path d="M116.7,0H11.3C5.1,0,0,5.1,0,11.3v105.4c0,6.2,5.1,11.3,11.3,11.3h105.4c6.2,0,11.3-5.1,11.3-11.3V11.3
		C128,5.1,122.9,0,116.7,0z M64.3,120.4C33,120.6,7.6,95.2,7.6,64c0-31,25.2-56.3,56.2-56.4C95,7.5,120.4,32.8,120.4,64
		C120.4,95.1,95.3,120.2,64.3,120.4z"/>
</g>
</svg>
