<?xml version="1.0" encoding="utf-8"?>
<!-- Generator: Adobe Illustrator 28.0.0, SVG Export Plug-In . SVG Version: 6.00 Build 0)  -->
<svg version="1.1" id="Layer_1" xmlns="http://www.w3.org/2000/svg" xmlns:xlink="http://www.w3.org/1999/xlink" x="0px" y="0px"
	 viewBox="0 0 128 128" style="enable-background:new 0 0 128 128;" xml:space="preserve">
<g>
	<path d="M61.1,37.2c-1-2-1.9-3.7-0.9-5.4c0.3-4.5-2.7-8-6.6-8.1c-3.8-0.1-7.6,3.7-6.8,7.4c0.5,2.5-0.1,4.2-0.9,6.4
		c-1.5,3.9-0.6,7.5,3.1,10c3.4,2.3,6.9,2.1,10-0.5C62,44.4,63,40.9,61.1,37.2z M53.7,29.3c0.8,0.1,1.5,0.5,1.3,1.6
		c-0.3,0.7-0.8,1.3-1.7,1.3c-1,0-1.3-0.9-1.3-1.7C52.2,29.5,52.8,29.1,53.7,29.3z M53.5,43.6c-1.9,0-3.1-1-3.1-2.9
		c0-1.9,1.5-2.7,2.8-3.3c2.1,0.3,3.2,1.2,3.3,3.2C56.5,42.5,55.5,43.6,53.5,43.6z"/>
	<path d="M61.6,93.4c-3.4-3.8-6.7-7.7-10.5-11.9c1.2-0.4,1.9-0.7,2.7-1c7.1-2.5,10.4-7.5,9.4-14.2c-0.9-5.8-6.5-9.9-13.5-9.9
		c-2.5,0-5,0.2-7.4,0c-3.6-0.3-4.6,1.4-4.6,4.7c0,11.2,0,22.5,0,33.7c0,2,0,4.4,2.8,4.3c2.8-0.1,2.6-2.5,2.7-4.5c0-4.3,0-8.6,0-14
		c5.4,6.2,10,11.3,14.6,16.5c1.3,1.4,2.7,3.1,4.5,1.5C64.5,96.7,63,94.9,61.6,93.4z M42.9,68.5c1.3-2.7-2.6-7.9,4.5-7.4
		c6.9,0.5,10.9,2.8,10.8,7.5c0,4.8-3.9,7.1-11.5,7.2C39.9,76,44.9,70.6,42.9,68.5z"/>
	<path d="M66.9,14c-0.4,1.3-0.9,2.5-2.6,2.5c-1.9,0-2.8-1.1-2.7-2.7c0.1-1.3,1-2.3,2.7-2.3C66,11.6,66.5,12.8,66.9,14z"/>
	<path d="M83.1,39.7c-0.5-4.6-3.4-6.8-8.3-7.7c0.9-1.1,1.4-1.8,1.9-2.4c1.2-1.4,3.5-2.7,1.3-4.8c-2.3-2.3-3.8,0.1-5.3,1.5
		C69,30,67,34.7,66.4,39.8c-0.7,6.4,6.3,11.2,12,8.3C81.8,46.5,83.6,43.6,83.1,39.7z M75.2,43.5c-2,0.2-3.2-0.7-3.3-2.7
		c-0.1-1.8,0.8-3.1,2.7-3.4c1.9,0,3.2,1.1,3.4,2.9C78.3,42.1,77.2,43.3,75.2,43.5z"/>
	<path d="M90.8,89.3c0,2.1,0.1,4.3,0,6.4c-0.1,1.5-0.7,3.1-2.5,3.1c-2.1,0.1-2.8-1.5-2.9-3.3c-0.1-4-0.1-7.9,0-11.9
		c0-3.2-0.9-5.6-4.5-5.8c-3.9-0.2-5.2,2.3-5.3,5.7c-0.1,4,0,7.9-0.1,11.9c0,1.7-0.2,3.5-2.5,3.5c-2.2,0-2.7-1.5-2.7-3.4
		c0-6.6-0.1-13.2,0-19.8c0-2.9,1.3-4.5,4.4-2.7c0.8,0.4,1.5,0.2,2.3,0.1c8.8-1.4,13.5,2.4,13.8,11.2C90.8,86,90.8,87.7,90.8,89.3
		C90.8,89.3,90.8,89.3,90.8,89.3z"/>
	<path d="M116.9,23.8c0.1,27,0.1,54,0,80.9c0,7.1-5.2,12.1-12.3,12.1c-26.9,0.1-53.7,0.1-80.6,0c-7.4,0-12.5-5-12.5-12.4
		c-0.1-13.6,0-27.2,0-40.7c0-12.9,0-25.8,0-38.7c0-8.7,4.8-13.4,13.5-13.4c8.8,0,17.6,0,26.4,0c1.9,0,4-0.2,4,2.4
		c0,2.6-2,2.5-3.9,2.5c-8.6,0-17.2,0-25.9,0c-6.4,0-9.1,2.7-9.1,9c0,25.8,0,51.6,0,77.5c0,6,2.8,8.8,8.9,8.8c25.9,0,51.7,0,77.6,0
		c6.3,0,9-2.8,9.1-9.1c0-25.6,0-51.3,0-77c0-6.6-2.7-9.2-9.5-9.2c-8.3,0-16.6,0-24.9,0c-1.9,0-4.4,0.6-4.6-2.3
		c-0.1-3,2.4-2.6,4.3-2.6c9.1,0,18.3-0.1,27.4,0C111.8,11.7,116.9,16.7,116.9,23.8z"/>
	<path d="M127.9,1.6c-1-1.8-2.8-1.5-4.4-1.5c-39.6,0-79.2,0-118.9,0C1.2,0.1,0,1.3,0,4.7c0.1,39.5,0,79.1,0.1,118.6
		c0,1.6-0.4,3.4,1.5,4.4c41,0,81.9,0,122.9,0.1c3,0,3.6-0.6,3.6-3.6C127.9,83.4,127.9,42.5,127.9,1.6z M123,118.8
		c0,3.2-0.8,4.1-4.1,4.1c-36.5-0.1-73-0.1-109.5,0c-3.2,0-4.1-0.8-4-4.1C5.6,82.4,5.6,46,5.4,9.6c0-3.2,0.8-4.1,4-4
		C27.7,5.7,46,5.6,64.2,5.6s36.5,0.1,54.7-0.1c3.2,0,4.1,0.8,4.1,4C122.9,46,122.9,82.4,123,118.8z"/>
	<path d="M61.1,37.2c-1-2-1.9-3.7-0.9-5.4c0.3-4.5-2.7-8-6.6-8.1c-3.8-0.1-7.6,3.7-6.8,7.4c0.5,2.5-0.1,4.2-0.9,6.4
		c-1.5,3.9-0.6,7.5,3.1,10c3.4,2.3,6.9,2.1,10-0.5C62,44.4,63,40.9,61.1,37.2z M53.7,29.3c0.8,0.1,1.5,0.5,1.3,1.6
		c-0.3,0.7-0.8,1.3-1.7,1.3c-1,0-1.3-0.9-1.3-1.7C52.2,29.5,52.8,29.1,53.7,29.3z M53.5,43.6c-1.9,0-3.1-1-3.1-2.9
		c0-1.9,1.5-2.7,2.8-3.3c2.1,0.3,3.2,1.2,3.3,3.2C56.5,42.5,55.5,43.6,53.5,43.6z"/>
	<path d="M61.6,93.4c-3.4-3.8-6.7-7.7-10.5-11.9c1.2-0.4,1.9-0.7,2.7-1c7.1-2.5,10.4-7.5,9.4-14.2c-0.9-5.8-6.5-9.9-13.5-9.9
		c-2.5,0-5,0.2-7.4,0c-3.6-0.3-4.6,1.4-4.6,4.7c0,11.2,0,22.5,0,33.7c0,2,0,4.4,2.8,4.3c2.8-0.1,2.6-2.5,2.7-4.5c0-4.3,0-8.6,0-14
		c5.4,6.2,10,11.3,14.6,16.5c1.3,1.4,2.7,3.1,4.5,1.5C64.5,96.7,63,94.9,61.6,93.4z M42.9,68.5c1.3-2.7-2.6-7.9,4.5-7.4
		c6.9,0.5,10.9,2.8,10.8,7.5c0,4.8-3.9,7.1-11.5,7.2C39.9,76,44.9,70.6,42.9,68.5z"/>
	<path d="M66.9,14c-0.4,1.3-0.9,2.5-2.6,2.5c-1.9,0-2.8-1.1-2.7-2.7c0.1-1.3,1-2.3,2.7-2.3C66,11.6,66.5,12.8,66.9,14z"/>
	<path d="M83.1,39.7c-0.5-4.6-3.4-6.8-8.3-7.7c0.9-1.1,1.4-1.8,1.9-2.4c1.2-1.4,3.5-2.7,1.3-4.8c-2.3-2.3-3.8,0.1-5.3,1.5
		C69,30,67,34.7,66.4,39.8c-0.7,6.4,6.3,11.2,12,8.3C81.8,46.5,83.6,43.6,83.1,39.7z M75.2,43.5c-2,0.2-3.2-0.7-3.3-2.7
		c-0.1-1.8,0.8-3.1,2.7-3.4c1.9,0,3.2,1.1,3.4,2.9C78.3,42.1,77.2,43.3,75.2,43.5z"/>
	<path d="M90.8,89.3c0,2.1,0.1,4.3,0,6.4c-0.1,1.5-0.7,3.1-2.5,3.1c-2.1,0.1-2.8-1.5-2.9-3.3c-0.1-4-0.1-7.9,0-11.9
		c0-3.2-0.9-5.6-4.5-5.8c-3.9-0.2-5.2,2.3-5.3,5.7c-0.1,4,0,7.9-0.1,11.9c0,1.7-0.2,3.5-2.5,3.5c-2.2,0-2.7-1.5-2.7-3.4
		c0-6.6-0.1-13.2,0-19.8c0-2.9,1.3-4.5,4.4-2.7c0.8,0.4,1.5,0.2,2.3,0.1c8.8-1.4,13.5,2.4,13.8,11.2C90.8,86,90.8,87.7,90.8,89.3
		C90.8,89.3,90.8,89.3,90.8,89.3z"/>
	<path d="M116.9,23.8c0.1,27,0.1,54,0,80.9c0,7.1-5.2,12.1-12.3,12.1c-26.9,0.1-53.7,0.1-80.6,0c-7.4,0-12.5-5-12.5-12.4
		c-0.1-13.6,0-27.2,0-40.7c0-12.9,0-25.8,0-38.7c0-8.7,4.8-13.4,13.5-13.4c8.8,0,17.6,0,26.4,0c1.9,0,4-0.2,4,2.4
		c0,2.6-2,2.5-3.9,2.5c-8.6,0-17.2,0-25.9,0c-6.4,0-9.1,2.7-9.1,9c0,25.8,0,51.6,0,77.5c0,6,2.8,8.8,8.9,8.8c25.9,0,51.7,0,77.6,0
		c6.3,0,9-2.8,9.1-9.1c0-25.6,0-51.3,0-77c0-6.6-2.7-9.2-9.5-9.2c-8.3,0-16.6,0-24.9,0c-1.9,0-4.4,0.6-4.6-2.3
		c-0.1-3,2.4-2.6,4.3-2.6c9.1,0,18.3-0.1,27.4,0C111.8,11.7,116.9,16.7,116.9,23.8z"/>
	<path d="M116.9,23.8c0.1,27,0.1,54,0,80.9c0,7.1-5.2,12.1-12.3,12.1c-26.9,0.1-53.7,0.1-80.6,0c-7.4,0-12.5-5-12.5-12.4
		c-0.1-13.6,0-27.2,0-40.7c0-12.9,0-25.8,0-38.7c0-8.7,4.8-13.4,13.5-13.4c8.8,0,17.6,0,26.4,0c1.9,0,4-0.2,4,2.4
		c0,2.6-2,2.5-3.9,2.5c-8.6,0-17.2,0-25.9,0c-6.4,0-9.1,2.7-9.1,9c0,25.8,0,51.6,0,77.5c0,6,2.8,8.8,8.9,8.8c25.9,0,51.7,0,77.6,0
		c6.3,0,9-2.8,9.1-9.1c0-25.6,0-51.3,0-77c0-6.6-2.7-9.2-9.5-9.2c-8.3,0-16.6,0-24.9,0c-1.9,0-4.4,0.6-4.6-2.3
		c-0.1-3,2.4-2.6,4.3-2.6c9.1,0,18.3-0.1,27.4,0C111.8,11.7,116.9,16.7,116.9,23.8z"/>
	<path d="M61.6,93.4c-3.4-3.8-6.7-7.7-10.5-11.9c1.2-0.4,1.9-0.7,2.7-1c7.1-2.5,10.4-7.5,9.4-14.2c-0.9-5.8-6.5-9.9-13.5-9.9
		c-2.5,0-5,0.2-7.4,0c-3.6-0.3-4.6,1.4-4.6,4.7c0,11.2,0,22.5,0,33.7c0,2,0,4.4,2.8,4.3c2.8-0.1,2.6-2.5,2.7-4.5c0-4.3,0-8.6,0-14
		c5.4,6.2,10,11.3,14.6,16.5c1.3,1.4,2.7,3.1,4.5,1.5C64.5,96.7,63,94.9,61.6,93.4z M42.9,68.5c1.3-2.7-2.6-7.9,4.5-7.4
		c6.9,0.5,10.9,2.8,10.8,7.5c0,4.8-3.9,7.1-11.5,7.2C39.9,76,44.9,70.6,42.9,68.5z"/>
	<path d="M90.8,89.3c0,2.1,0.1,4.3,0,6.4c-0.1,1.5-0.7,3.1-2.5,3.1c-2.1,0.1-2.8-1.5-2.9-3.3c-0.1-4-0.1-7.9,0-11.9
		c0-3.2-0.9-5.6-4.5-5.8c-3.9-0.2-5.2,2.3-5.3,5.7c-0.1,4,0,7.9-0.1,11.9c0,1.7-0.2,3.5-2.5,3.5c-2.2,0-2.7-1.5-2.7-3.4
		c0-6.6-0.1-13.2,0-19.8c0-2.9,1.3-4.5,4.4-2.7c0.8,0.4,1.5,0.2,2.3,0.1c8.8-1.4,13.5,2.4,13.8,11.2C90.8,86,90.8,87.7,90.8,89.3
		C90.8,89.3,90.8,89.3,90.8,89.3z"/>
	<path d="M61.1,37.2c-1-2-1.9-3.7-0.9-5.4c0.3-4.5-2.7-8-6.6-8.1c-3.8-0.1-7.6,3.7-6.8,7.4c0.5,2.5-0.1,4.2-0.9,6.4
		c-1.5,3.9-0.6,7.5,3.1,10c3.4,2.3,6.9,2.1,10-0.5C62,44.4,63,40.9,61.1,37.2z M53.7,29.3c0.8,0.1,1.5,0.5,1.3,1.6
		c-0.3,0.7-0.8,1.3-1.7,1.3c-1,0-1.3-0.9-1.3-1.7C52.2,29.5,52.8,29.1,53.7,29.3z M53.5,43.6c-1.9,0-3.1-1-3.1-2.9
		c0-1.9,1.5-2.7,2.8-3.3c2.1,0.3,3.2,1.2,3.3,3.2C56.5,42.5,55.5,43.6,53.5,43.6z"/>
	<path d="M83.1,39.7c-0.5-4.6-3.4-6.8-8.3-7.7c0.9-1.1,1.4-1.8,1.9-2.4c1.2-1.4,3.5-2.7,1.3-4.8c-2.3-2.3-3.8,0.1-5.3,1.5
		C69,30,67,34.7,66.4,39.8c-0.7,6.4,6.3,11.2,12,8.3C81.8,46.5,83.6,43.6,83.1,39.7z M75.2,43.5c-2,0.2-3.2-0.7-3.3-2.7
		c-0.1-1.8,0.8-3.1,2.7-3.4c1.9,0,3.2,1.1,3.4,2.9C78.3,42.1,77.2,43.3,75.2,43.5z"/>
	<path d="M66.9,14c-0.4,1.3-0.9,2.5-2.6,2.5c-1.9,0-2.8-1.1-2.7-2.7c0.1-1.3,1-2.3,2.7-2.3C66,11.6,66.5,12.8,66.9,14z"/>
</g>
</svg>
