<?xml version="1.0" encoding="utf-8"?>
<!-- Generator: Adobe Illustrator 28.0.0, SVG Export Plug-In . SVG Version: 6.00 Build 0)  -->
<svg version="1.1" id="Layer_1" xmlns="http://www.w3.org/2000/svg" xmlns:xlink="http://www.w3.org/1999/xlink" x="0px" y="0px"
	 viewBox="0 0 128 128" style="enable-background:new 0 0 128 128;" xml:space="preserve">
<g id="_x30_QBjLA.tif">
	<g>
		<path d="M83.6,21.7c-0.1-2.6-1.8-4.8-4-5.2c-3.8-0.7-7.6-1.3-11.4-2c-3.7-0.6-7,2.7-7.2,7.1c-0.2,4.1,2.8,7.8,6.3,7.8
			c0.2,0,0.4,0,0.5,0c4-0.7,8.1-1.3,12.1-2.1C82.2,27,83.8,24.3,83.6,21.7z M79.3,24c-2.7,0.5-5.4,0.9-8.1,1.3c-0.2,0-0.3,0-0.5-0.1
			c0,0,0-0.1,0-0.1c1.1-1.3,1.2-4.5,0.2-6.1c0-0.1,0-0.2,0-0.3c-0.1,0.1-0.1,0.2-0.1,0.3c-0.5-0.3-1.1-0.4-1.6,0
			c-1.3,1.2-0.6,2.8-0.7,4.3c-0.1,0.9,0.3,1.6,1.1,1.9c0.1,0,0.2,0,0.3,0.1c0,0.1,0,0.1,0,0.2c-1.1,0.3-2.2,0.7-3.4,0.3
			c-1.8-0.6-2.7-2.6-2.3-4.7c0.4-2,2.1-3.3,3.8-2.9c1,0.2,2,0.4,3,0.6c2.8,0.4,5.5,0.8,8.3,1.3c0.9,0.2,1.4,1,1.4,2
			C80.6,23,80.1,23.8,79.3,24z"/>
		<path d="M96.4,30c0-1.1-0.2-2.1-0.4-3.1c-0.9-3.4-2.1-6.7-2.5-10.3c-0.1-0.8-0.4-1.6-0.7-2.3c-1.2-3-3.1-5.3-5.4-7.2
			c-4.6-3.8-9.8-5.8-15.2-6.7C70.7,0.1,69.3,0.3,68,0h-8.5c-2.9,0.2-5.8,0.7-8.6,1.6C46.8,3,43,4.9,39.6,7.9
			c-2.7,2.5-4.8,5.6-5.4,9.8c-0.2,1.4-0.5,2.7-0.9,4c-0.5,1.7-0.9,3.3-1.4,5c-0.3,1-0.4,1.9-0.4,2.9v77.5c-0.1,2,0.3,3.9,1.1,5.8
			c1.6,3.5,4,5.9,6.7,8c4.1,3.1,8.6,4.8,13.3,6.1c4.3,1.1,8.7,1,13.1,1c5.5,0.1,10.8-1,15.9-3.2c4.1-1.7,7.9-4.1,11-7.9
			c2.5-3,3.9-6.6,3.8-11C96.3,80.7,96.4,55.3,96.4,30z M40.1,12.7c3-3.6,6.7-5.7,10.8-7c10.1-3.3,20-3.1,29.8,1.5
			c2.7,1.3,5.2,3,7.2,5.6c2.2,2.8,3.3,6.1,2.1,9.9c-0.2-0.1-0.1-0.3-0.2-0.5c-0.1-4.9-2.3-8.2-5.5-10.9c-3.6-3.1-7.7-4.8-12-5.7
			C64.6,4,57.1,4.4,49.7,7.5c-3.7,1.6-7,3.8-9.5,7.6c-1.4,2.1-2.1,4.5-2.1,7.1c-0.1,0.1,0,0.4-0.2,0.5
			C36.7,18.8,37.8,15.5,40.1,12.7z M84.5,27.8c-2.1,2.6-4.7,4.2-7.5,5.4c-4.2,1.8-8.6,2.6-13.2,2.6c-5.6,0-10.9-1.1-15.9-4
			c-2.1-1.2-4-2.7-5.4-4.9c-2-3.1-2-6.5,0.1-9.6c2.1-3.2,5.1-5.1,8.3-6.4c9.4-3.7,18.7-3.6,28,0.9c2.2,1.1,4.3,2.6,5.9,4.8
			C87.5,20.2,87.4,24.3,84.5,27.8z M90.6,108.7c0.3,0.8,0.9,1,1.6,0.9c0.2,0,0.3,0,0.6-0.1c-1.3,3.8-3.7,6.3-6.4,8.3
			c-4.4,3.2-9.2,4.9-14.3,5.8c-5,0.9-10,1-15,0.2c-6.6-1-12.8-3.1-18.1-8.1c-1.6-1.5-3-3.4-3.7-5.8c4,4.7,9,7.3,14.3,9
			c6.4,2.1,12.8,2.5,19.4,1.9c6.2-0.6,12.1-2.4,17.6-5.9c0.7-0.5,1.3-1.1,1.1-2.1c-0.2-1.1-1.3-1.8-2.4-1.1
			c-3.2,2.1-6.7,3.6-10.3,4.4c-10.9,2.6-21.6,1.9-31.8-3.9c-2.6-1.5-4.9-3.4-6.6-6.1c-1.4-2.1-2.1-4.5-2.1-7.2c0-20.6,0-41.3,0-61.9
			v-1.5c1,1,1.8,2,2.7,2.9c4.4,4.2,9.5,6.5,14.9,7.8c9.6,2.3,19.1,2,28.4-1.6c2.1-0.8,4.2-1.9,6.2-3.2c1-0.7,1.3-1.6,0.9-2.5
			c-0.4-1-1.3-1.2-2.3-0.6c-8.1,5-16.7,6.3-25.6,5.6c-5.7-0.5-11.3-1.9-16.4-5c-2.7-1.6-5.2-3.7-7-6.7c-1.2-2-1.9-4.1-0.5-6.3
			c4.5,7.7,11.4,10.7,18.8,12.4c8.1,1.8,16.2,1.3,24.2-1.6c3.7-1.4,7.1-3.4,10.1-6.4c1.3-1.3,2.3-2.8,3.2-4.5c1.1,2,1,3.9-0.2,5.8
			c-0.3,0.4-0.5,0.8-0.7,1.2c-0.6,0.9-1,1.8-0.3,2.8c0.7,0.9,1.5,0.7,2.4,0v1.5c0,20.4,0,40.7,0,61.1c0,3.2-0.7,6-2.4,8.4
			C90.5,107.3,90.3,108,90.6,108.7z"/>
		<path d="M83.6,21.7c-0.1-2.6-1.8-4.8-4-5.2c-3.8-0.7-7.6-1.3-11.4-2c-3.7-0.6-7,2.7-7.2,7.1c-0.2,4.1,2.8,7.8,6.3,7.8
			c0.2,0,0.4,0,0.5,0c4-0.7,8.1-1.3,12.1-2.1C82.2,27,83.8,24.3,83.6,21.7z M79.3,24c-2.7,0.5-5.4,0.9-8.1,1.3c-0.2,0-0.3,0-0.5-0.1
			c0,0,0-0.1,0-0.1c1.1-1.3,1.2-4.5,0.2-6.1c0-0.1,0-0.2,0-0.3c-0.1,0.1-0.1,0.2-0.1,0.3c-0.5-0.3-1.1-0.4-1.6,0
			c-1.3,1.2-0.6,2.8-0.7,4.3c-0.1,0.9,0.3,1.6,1.1,1.9c0.1,0,0.2,0,0.3,0.1c0,0.1,0,0.1,0,0.2c-1.1,0.3-2.2,0.7-3.4,0.3
			c-1.8-0.6-2.7-2.6-2.3-4.7c0.4-2,2.1-3.3,3.8-2.9c1,0.2,2,0.4,3,0.6c2.8,0.4,5.5,0.8,8.3,1.3c0.9,0.2,1.4,1,1.4,2
			C80.6,23,80.1,23.8,79.3,24z"/>
		<path d="M38.1,22.2c0.1,0.2,0.2,0.5-0.2,0.5C38.1,22.6,38,22.4,38.1,22.2z"/>
		<path d="M90,22.7c-0.4,0-0.3-0.2-0.2-0.5C89.9,22.4,89.8,22.6,90,22.7z"/>
		<path d="M38.2,23.3c-0.2-0.1-0.3-0.3-0.3-0.6c0.2-0.1,0.1-0.3,0.2-0.5C38.2,22.5,38.3,22.9,38.2,23.3z"/>
		<path d="M90,22.7c-0.1,0.2-0.2,0.4-0.3,0.7c-0.1-0.5-0.1-0.9,0.1-1.2C89.9,22.4,89.8,22.6,90,22.7z"/>
		<path d="M83.6,21.7c-0.1-2.6-1.8-4.8-4-5.2c-3.8-0.7-7.6-1.3-11.4-2c-3.7-0.6-7,2.7-7.2,7.1c-0.2,4.1,2.8,7.8,6.3,7.8
			c0.2,0,0.4,0,0.5,0c4-0.7,8.1-1.3,12.1-2.1C82.2,27,83.8,24.3,83.6,21.7z M79.3,24c-2.7,0.5-5.4,0.9-8.1,1.3c-0.2,0-0.3,0-0.5-0.1
			c0,0,0-0.1,0-0.1c1.1-1.3,1.2-4.5,0.2-6.1c0-0.1,0-0.2,0-0.3c-0.1,0.1-0.1,0.2-0.1,0.3c-0.5-0.3-1.1-0.4-1.6,0
			c-1.3,1.2-0.6,2.8-0.7,4.3c-0.1,0.9,0.3,1.6,1.1,1.9c0.1,0,0.2,0,0.3,0.1c0,0.1,0,0.1,0,0.2c-1.1,0.3-2.2,0.7-3.4,0.3
			c-1.8-0.6-2.7-2.6-2.3-4.7c0.4-2,2.1-3.3,3.8-2.9c1,0.2,2,0.4,3,0.6c2.8,0.4,5.5,0.8,8.3,1.3c0.9,0.2,1.4,1,1.4,2
			C80.6,23,80.1,23.8,79.3,24z"/>
		<path d="M70.7,25.2c0.2,0,0.3,0,0.5,0.1C71,25.3,70.9,25.4,70.7,25.2C70.7,25.2,70.7,25.2,70.7,25.2z"/>
		<path d="M70.7,25.1c0.1-0.9,0.7-1.6,0.6-2.6c-0.1-1.2-0.1-2.3-0.5-3.4c0,0,0,0,0,0c0,0,0-0.1,0-0.1c0-0.1,0.1-0.2,0.1-0.3
			c0,0.1,0,0.2,0,0.3C71.9,20.6,71.8,23.8,70.7,25.1z"/>
		<path d="M70.9,18.7c0,0.1,0,0.2,0,0.3c0,0-0.1,0-0.1,0.1c-0.3,0.1-0.6,0-0.8,0c-0.4,0.1-0.8,0.3-1,0.8c-0.7,1.6-0.3,4.2,0.9,5.3
			c0,0,0,0.1,0,0.1c0,0,0,0,0,0c0,0,0,0,0,0.1c0,0.1,0,0.1,0,0.2c0-0.1,0-0.1,0-0.2c-0.1,0-0.2,0-0.3-0.1c-0.8-0.3-1.1-1-1.1-1.9
			c0.1-1.5-0.6-3.1,0.7-4.3c0.5-0.4,1.1-0.3,1.6,0C70.8,18.8,70.9,18.8,70.9,18.7z"/>
		<path d="M71.2,25.3c-0.4,0.3-0.9,0.3-1.3,0.2c0-0.1,0-0.1,0-0.2c0,0,0,0,0-0.1c0,0,0,0,0,0c0.2-0.3,0.5-0.2,0.7,0c0,0,0,0,0.1,0
			C70.9,25.2,71,25.2,71.2,25.3z"/>
		<path d="M70.7,25.1C70.7,25.1,70.7,25.2,70.7,25.1c-0.3,0.1-0.6,0.1-0.8,0.2c0,0,0,0-0.1,0c-0.1,0-0.2,0-0.3-0.1
			c-0.8-0.3-1.1-1-1.1-1.9c0.1-1.5-0.6-3.1,0.7-4.3c0.5-0.4,1.1-0.3,1.6,0c0,0,0.1,0,0.1,0.1C71.9,20.6,71.8,23.8,70.7,25.1z"/>
	</g>
</g>
</svg>
