<?xml version="1.0" encoding="utf-8"?>
<!-- Generator: Adobe Illustrator 28.0.0, SVG Export Plug-In . SVG Version: 6.00 Build 0)  -->
<svg version="1.1" id="Layer_1" xmlns="http://www.w3.org/2000/svg" xmlns:xlink="http://www.w3.org/1999/xlink" x="0px" y="0px"
	 viewBox="0 0 128 128" style="enable-background:new 0 0 128 128;" xml:space="preserve">
<g id="_x31_GVizI.tif">
	<g>
		<path d="M110.6,66.1c-0.1-1.1-0.8-1.6-1.8-1.7c-0.9-0.1-1.8,0.7-1.9,1.7c0,0.4,0,0.7,0,1.1v50.7c0,4-2.3,6.3-6.3,6.3
			c-7.7,0-15.3,0-23,0c-4,0-6.3-2.3-6.3-6.4c0-30,0-60.1,0-90.1c0-1.1,0.3-1.3,1.3-1.3c11,0,22.1,0,33.1,0c1,0,1.3,0.2,1.3,1.3
			c0,10.2,0,20.3,0,30.5c0,1.4,0.7,2.3,1.8,2.4c1.2,0,1.9-0.8,1.9-2.2c0-13.5,0-26.9,0-40.4c0-4.3-2.8-7.7-7-8.8
			c-1.3-0.4-2.7-0.4-4.1-0.3c-0.7,0-1-0.2-0.9-0.9c0.1-1.2,0-2.5,0-3.7c-0.1-2.4-2-4.2-4.4-4.2c-3.5,0-6.9,0-10.4,0
			c-2.1,0-3.7,1.3-4.3,3.3c-0.3,1.1-0.2,2.1-0.2,3.2c0,2.3,0,2.3-2.3,2.4c-5.7,0.2-9.7,4.1-9.7,9.6c0,33.4,0,66.7,0,100.1
			c0,2.7,1,4.9,2.9,6.8c1.4,1.4,3.1,2,4.8,2.6h27.7c0.3-0.4,0.8-0.3,1.2-0.4c4.1-1.4,6.5-4.8,6.5-9.6c0-17,0-34.1,0-51.1
			C110.6,66.6,110.6,66.3,110.6,66.1z M83.1,8c0.1-1,0-2,0-3c0-0.9,0.3-1.3,1.3-1.3c3.1,0,6.1,0,9.2,0c0.9,0,1.3,0.4,1.2,1.3
			c-0.1,1.2,0.4,2.9-0.2,3.6c-0.6,0.8-2.3,0.2-3.6,0.2c-0.7,0-1.3,0-2,0c-1.7,0-3.3,0-5,0C83.4,8.9,83.1,8.8,83.1,8z M71.2,21.7
			c0.1-1.4,0-2.8,0.1-4.1c0.3-2.8,2.6-4.8,5.4-4.8c8.2,0,16.4,0,24.6,0c3,0,5.4,2.4,5.5,5.5c0,1.2-0.1,2.4,0,3.6
			c0.1,0.8-0.3,0.9-1,0.9c-5.6,0-11.2,0-16.9,0c-5.6,0-11.2,0-16.7,0C71.4,22.8,71.1,22.6,71.2,21.7z"/>
		<path d="M17.6,60c0.2-1.2,1-1.7,2.1-1.7c1.1,0.1,1.7,1,1.7,2.4c0,19.1,0,38.2,0,57.2c0,4,2.3,6.3,6.2,6.3c7.7,0,15.4,0,23.1,0
			c4,0,6.3-2.3,6.3-6.3c0-7,0-14.1,0-21.1c0-1.5,0.5-2.3,1.6-2.4c1.3-0.2,2.2,0.7,2.2,2.2c0,3.5,0,6.9,0,10.4c0,3.7,0,7.3,0,11
			c0,5.1-2.8,8.6-7.8,9.8c-0.1,0-0.1,0.1-0.2,0.1c-9.2,0-18.5,0-27.7,0c-4.2-0.4-8.1-4.7-7.6-9.4c0-19.1,0-38.1,0-57.2
			C17.5,60.9,17.4,60.4,17.6,60z"/>
		<path d="M17.6,53c-0.1,0-0.1,0-0.2,0c0-11.7,0-23.3,0-35c0.1,0,0.1,0,0.2,0c0.5,0.4,0.4,1.1,0.4,1.6c0,10.6,0,21.2,0,31.8
			C18,52,18.1,52.6,17.6,53z"/>
		<path d="M60.8,87.8c0-13.2,0-26.4,0-39.6c0-10,0-19.9,0-29.9c0-4.3-2.8-8-7-9.1c-1.4-0.4-2.8-0.4-4.2-0.3c-0.6,0-0.9-0.2-0.8-0.8
			c0.1-1.2,0-2.4,0-3.6c-0.1-2.5-2-4.4-4.5-4.4C40.9,0,37.5,0,34,0c-2.4,0-4.3,1.9-4.4,4.3c0,0.8,0,1.6,0,2.4c0,2.1,0,2.1-2.1,2.2
			C21.9,9,18,12.6,17.6,18c0,11.7,0,23.3,0,35c0.2,1,0.9,1.6,1.9,1.6c1.2,0,1.8-0.9,1.8-2.3c0-8.2,0-16.3,0-24.5
			c0-1.1,0.3-1.3,1.3-1.3c11,0,22,0,33,0c1.1,0,1.4,0.2,1.4,1.4c0,19.9,0,39.8,0,59.7c0,0.5,0,0.9,0,1.4c0.1,1.1,0.8,1.7,1.8,1.7
			c1,0,1.7-0.6,1.9-1.6C60.9,88.7,60.8,88.3,60.8,87.8z M33.4,8c0.1-1,0-2,0-3c0-0.8,0.3-1.2,1.2-1.2c3.1,0,6.2,0,9.4,0
			c0.8,0,1.2,0.4,1.2,1.1c0,0,0,0.1,0,0.1c0,1.2,0.4,2.8-0.2,3.6c-0.6,0.8-2.3,0.2-3.5,0.2c-0.7,0-1.4,0-2.1,0c-1.7,0-3.3,0-5,0
			C33.5,8.9,33.3,8.7,33.4,8z M57,22.1c0,0.9-0.6,0.6-1,0.6c-5.3,0-10.7,0-16,0h-0.9c-5.6,0-11.2,0-16.7,0c-0.8,0-1.1-0.2-1-1
			c0.1-1.7-0.2-3.3,0.3-5c0.7-2.4,2.8-4,5.2-4.1c8.2,0,16.5,0,24.7,0c2.8,0,5,2,5.4,4.8C57.1,19.1,57,20.6,57,22.1z"/>
		<path d="M46.4,41.8c0,0.8-0.4,1.4-1.1,1.7c-0.3,0.1-0.7,0.2-1.1,0.2c-1,0.1-2.3-0.4-2.8,0.2c-0.5,0.5-0.2,1.8-0.2,2.8
			c0,1.4-0.8,2.3-1.9,2.3c-1.1,0-1.8-0.9-1.9-2.3c0-0.9,0.4-2.2-0.2-2.8c-0.6-0.6-1.8-0.2-2.8-0.2c-1.5-0.1-2.4-0.8-2.4-2
			c0-1.2,0.9-1.8,2.3-1.9c1-0.1,2.3,0.5,2.8-0.3c0.5-0.6,0.1-1.8,0.2-2.8c0-1.3,0.8-2.2,1.8-2.2c1.1,0,1.9,0.9,2,2.3
			c0,1-0.4,2.3,0.2,2.9c0.5,0.5,1.8,0.1,2.8,0.2C45.6,39.9,46.4,40.6,46.4,41.8z"/>
		<path d="M96.2,41.8c0,1.1-0.8,1.8-2,1.9c-0.8,0-1.7,0-2.5,0c-0.6,0-0.9,0.2-0.9,0.8c0,0.9,0,1.8,0,2.6C90.8,48.2,90,49,89,49
			c-1,0-1.8-0.8-1.9-1.9c-0.1-1.1,0.5-2.6-0.2-3.2c-0.6-0.5-2.1-0.1-3.1-0.2c-1.2-0.1-1.9-0.8-1.9-1.9c0-1.1,0.7-1.8,1.9-1.9
			c0.1,0,0.2,0,0.4,0c1-0.1,2.3,0.4,2.8-0.2c0.5-0.6,0.2-1.9,0.2-2.9c0-1.3,0.8-2.2,1.9-2.2c1.1,0,1.8,0.8,1.9,2.1
			c0,0.4,0,0.7,0,1.1c0,2.1,0,2.1,2.1,2.1c0.6,0,1.2-0.1,1.9,0.1C95.8,40.3,96.1,40.9,96.2,41.8z"/>
		<path d="M39.3,113c-1.6,0-3.2,0-4.7,0c-1.6,0-2.5-0.8-2.5-2c0-1.2,0.9-1.9,2.4-1.9c3.2,0,6.4,0,9.6,0c1.5,0,2.4,0.7,2.3,2
			c0,1.2-0.8,1.9-2.4,1.9C42.4,113,40.8,113,39.3,113z"/>
		<path d="M89,113c-1.6,0-3.2,0-4.9,0c-1.4,0-2.2-0.7-2.3-1.9c0-1.2,0.8-2,2.2-2c3.3,0,6.6,0,9.8,0c1.4,0,2.3,0.8,2.3,1.9
			c0,1.2-0.9,2-2.4,2C92.2,113,90.6,113,89,113z"/>
	</g>
</g>
</svg>
