<?xml version="1.0" encoding="utf-8"?>
<!-- Generator: Adobe Illustrator 28.0.0, SVG Export Plug-In . SVG Version: 6.00 Build 0)  -->
<svg version="1.1" id="Layer_1" xmlns="http://www.w3.org/2000/svg" xmlns:xlink="http://www.w3.org/1999/xlink" x="0px" y="0px"
	 viewBox="0 0 128 128" style="enable-background:new 0 0 128 128;" xml:space="preserve">
<g id="maVvf7.tif">
	<g>
		<path d="M45.1,119.3c-2.9,0.2-2.5-2.4-2.5-4.3c0-1.7-0.4-4,2.3-4c2.8,0,2,2.4,2.2,4C46.9,116.7,47.7,119.2,45.1,119.3z"/>
		<path d="M47.1,76.1c0,4.5,0,8.9,0,13.4c0,4.6,0,9.3,0,13.9c0,1.6-0.2,3.2-2.1,3.3c-1.9,0.1-2.4-1.6-2.4-3.1c0-9.3,0-18.5,0-27.8
			c0-1.6,0.4-3.2,2.3-3.2C47.1,72.5,47.1,74.4,47.1,76.1z"/>
		<path d="M56.8,113.4c-2-1.6-2.1-3.5,0-5c3-2.1,3.3-5,3.2-8.3c-0.2-10.2-0.1-20.3,0-30.5c0-2.8-0.3-5.2-2.8-7
			c-2.3-1.7-2.5-3.6-0.3-5.8c3.7-3.8,3.8-8-0.5-11.2c-3.3-2.5-6.2-4.5-5.3-9.2c0.2-1.2-0.6-2.5-2-2.4c-2.8,0.1-2.1-1.9-2.2-3.4
			c0-8.5,0-17,0-25.5c0-1.8,0.4-3.7-1-5.2h-3c-2.4,3.3-1.1,7.1-1.5,10.6c-0.8,8.8,2.6,18.1-4.5,26.1c-2.5,2.8-10.2,5.9-12.1,2.8
			c-2.5-4-6.7-7.3-6.5-13c0.3-6.8,0.1-13.6,0-20.5c0-2.3,0.1-4.8-2.4-6.1h-3c-0.1,10-0.1,20-0.2,29.9c0,1.3,0.6,3.5-0.5,3.7
			c-4.9,0.6-4,4.1-3.9,7.1c0.1,2.1-1.4,2.4-2.6,3.1c-6.4,4-7.2,7.8-2.6,13.4c1.6,1.9,1.6,3.8-0.3,5.2C0.2,64.3,0,66.9,0,69.8
			c0.1,10.3,0.1,20.7,0,31c0,2.9,0.2,5.5,2.9,7.4c1.9,1.4,2.2,3.4,0.3,5.1c-2.4,2.1-4.1,4.3-2.5,7.7c1.7,3.8,4.4,6.7,8.5,6.8
			c13.8,0.3,27.7,0.3,41.5,0c4.1-0.1,6.8-2.9,8.5-6.7C60.8,117.6,59.4,115.5,56.8,113.4z M50.7,123.1c-1.3,0.3-2.6,0.4-3.9,0.4
			c-11.3,0-22.6,0-34,0c-2,0-4.1,0-5.7-1.3c-1.9-1.5-3.2-3.1-0.9-5.7c4.1-4.7,4-7-0.1-11.6c-1.2-1.4-1.7-2.7-1.7-4.4
			c0-10.2,0.1-20.3,0-30.4c0-2.3,0.9-3.7,2.3-5.2c3.2-3.2,3.1-6.7,0.3-10.2c-1.1-1.4-3.1-2.4-1.6-4.6c1.4-2,3.3-3.2,5.9-3.2
			c6.3,0,12.6,0,19,0c5.8,0,11.7,0.1,17.5,0c1.9,0,3.7,0.3,5.2,1.5c1.8,1.6,3.2,3.1,0.7,5.7c-3.8,4-3.7,7.2-0.1,11.3
			c1.2,1.4,1.8,2.6,1.8,4.4c-0.1,10.3-0.1,20.6,0,30.9c0,2-0.7,3.3-2,4.8c-3.2,3.4-3.3,7-0.2,10.7C55.7,119.4,54.9,122,50.7,123.1z"
			/>
		<path d="M117.7,31.9c-2.3,0.3-2.5-1.4-2.7-3.2c-1.4-9.4-6.3-14.2-15.7-15.7c-1.8-0.3-3.5-0.4-3.1-2.8c0.3-1.9,2-1.9,3.5-1.8
			c10.1,0.4,19.6,9.9,20,20.7C119.7,29.9,119.7,31.6,117.7,31.9z"/>
		<path d="M116.3,53.9c5.9-4.8,9.1-11.1,11.7-18V24c-2.7-14.1-9.9-21.3-24-24H92c-0.5,0.9-1.3,0.8-2.1,1C67.4,8,60.5,36,77.7,51.6
			c2.5,2.2,3.4,4.3,3.4,7.6c0.1,3.5-2.3,8.2,3.6,9.8c0.3,0.1,0.4,1.5,0.4,2.3c0,12.7,0.3,25.3-0.3,38c-0.3,5.5-0.5,11.9-7.1,14.8
			c-1.1,0.5-1,1.6-0.7,2.6c0.4,1.2,1.4,1.3,2.4,1.3c3.2-0.2,5-2.5,6.3-5.1c3.1-5.9,3.9-12.3,4-18.8c0.1-10.7,0-21.3,0.1-32
			c0-1.3-0.9-3.3,1.3-3.7c3.2-0.5,3-2.8,2.7-4.9c-0.4-3.3,0.9-3.8,3.9-3.7c2.6,0.2,5-0.3,4.4,3.7c-0.3,1.7-0.6,4.1,1.9,4.5
			c3.1,0.5,2.4,2.6,2.4,4.5c0,10-0.1,20,0,30c0.1,6.8,0.5,13.6,3.7,19.9c1.3,2.6,2.9,4.9,6,5.4c1.1,0.2,2.4,0.3,3-1.1
			c0.6-1.3,0.1-2.3-1.1-2.8c-4.8-2-5.5-6.4-6.1-10.6c-2.2-14.1-0.5-28.2-1-42.4c0-1-0.2-2.4,1-2.5c4.4-0.3,2.9-3.6,3.2-5.9
			C115.7,59.6,113.8,56,116.3,53.9z M110.9,59.6c0.1,1.5,1.7,4.4-2,4.4c-3.3,0-1.9-2.7-1.8-4c0.4-4.4-1.4-5.7-5.5-4.9
			c-2.1,0.4-4.4,0.4-6.5,0c-4.7-1-6.1,1-5.7,5.3c0.1,1,0.1,2-0.1,3c-0.3,1-1.3,0.7-2.1,0.7c-1.8,0-1.7-1.3-1.6-2.4
			c1-6.3-1.6-10.6-6.2-15c-8.1-7.6-8.7-20.7-2.7-30.3c6-9.6,17.9-14.1,28.6-10.8c11,3.3,18.4,13.2,18.3,24.5
			c-0.2,7.1-2.3,13.8-8,18.1C111.4,51.3,110.7,54.9,110.9,59.6z"/>
		<path d="M45.1,119.3c-2.9,0.2-2.5-2.4-2.5-4.3c0-1.7-0.4-4,2.3-4c2.8,0,2,2.4,2.2,4C46.9,116.7,47.7,119.2,45.1,119.3z"/>
		<path d="M47,103.4c0,1.6-0.2,3.2-2.1,3.3c-1.9,0.1-2.4-1.6-2.4-3.1c0-9.3,0-18.5,0-27.8c0-1.6,0.4-3.2,2.3-3.2
			c2.3,0,2.3,1.9,2.3,3.6c0,4.5,0,8.9,0,13.4C47,94.2,47,98.8,47,103.4z"/>
		<path d="M17.1,40.1c0,1.4,0,2.4-1.7,2.5c-1.5,0-2.5-0.2-2.5-2.1c0-1.4,0.5-2,2-2C16.2,38.5,17.2,38.7,17.1,40.1z"/>
		<path d="M45,42.6c-1.6,0.2-2.1-0.6-2.1-2c0-1.3,0.4-2.1,1.9-2.1c1.6,0,2.4,0.5,2.3,2.2C47,42.2,46.3,42.7,45,42.6z"/>
		<path d="M119.7,29.1c0,0.9,0,2.5-1.9,2.8c-2.3,0.3-2.5-1.4-2.7-3.2c-1.4-9.4-6.3-14.2-15.7-15.7c-1.8-0.3-3.5-0.4-3.1-2.8
			c0.3-1.9,2-1.9,3.5-1.8C109.8,8.8,119.3,18.3,119.7,29.1z"/>
		<path d="M47,103.4c0,1.6-0.2,3.2-2.1,3.3c-1.9,0.1-2.4-1.6-2.4-3.1c0-9.3,0-18.5,0-27.8c0-1.6,0.4-3.2,2.3-3.2
			c2.3,0,2.3,1.9,2.3,3.6c0,4.5,0,8.9,0,13.4C47,94.2,47,98.8,47,103.4z"/>
		<path d="M45.1,119.3c-2.9,0.2-2.5-2.4-2.5-4.3c0-1.7-0.4-4,2.3-4c2.8,0,2,2.4,2.2,4C46.9,116.7,47.7,119.2,45.1,119.3z"/>
		<path d="M119.7,29.1c0,0.9,0,2.5-1.9,2.8c-2.3,0.3-2.5-1.4-2.7-3.2c-1.4-9.4-6.3-14.2-15.7-15.7c-1.8-0.3-3.5-0.4-3.1-2.8
			c0.3-1.9,2-1.9,3.5-1.8C109.8,8.8,119.3,18.3,119.7,29.1z"/>
	</g>
</g>
</svg>
