<?xml version="1.0" encoding="utf-8"?>
<!-- Generator: Adobe Illustrator 28.0.0, SVG Export Plug-In . SVG Version: 6.00 Build 0)  -->
<svg version="1.1" id="Layer_1" xmlns="http://www.w3.org/2000/svg" xmlns:xlink="http://www.w3.org/1999/xlink" x="0px" y="0px"
	 viewBox="0 0 128 128" style="enable-background:new 0 0 128 128;" xml:space="preserve">
<g>
	<path d="M46.4,21.1c-1.4,0-2.5,1.3-2.5,2.6c0,1.3,1.2,2.5,2.5,2.5c1.4,0,2.7-1.2,2.7-2.6C49,22.3,47.7,21.1,46.4,21.1z M46.4,21.1
		c-1.4,0-2.5,1.3-2.5,2.6c0,1.3,1.2,2.5,2.5,2.5c1.4,0,2.7-1.2,2.7-2.6C49,22.3,47.7,21.1,46.4,21.1z M46.4,21.1
		c-1.4,0-2.5,1.3-2.5,2.6c0,1.3,1.2,2.5,2.5,2.5c1.4,0,2.7-1.2,2.7-2.6C49,22.3,47.7,21.1,46.4,21.1z M46.4,21.1
		c-1.4,0-2.5,1.3-2.5,2.6c0,1.3,1.2,2.5,2.5,2.5c1.4,0,2.7-1.2,2.7-2.6C49,22.3,47.7,21.1,46.4,21.1z M46.4,21.1
		c-1.4,0-2.5,1.3-2.5,2.6c0,1.3,1.2,2.5,2.5,2.5c1.4,0,2.7-1.2,2.7-2.6C49,22.3,47.7,21.1,46.4,21.1z M46.4,21.1
		c-1.4,0-2.5,1.3-2.5,2.6c0,1.3,1.2,2.5,2.5,2.5c1.4,0,2.7-1.2,2.7-2.6C49,22.3,47.7,21.1,46.4,21.1z M46.4,21.1
		c-1.4,0-2.5,1.3-2.5,2.6c0,1.3,1.2,2.5,2.5,2.5c1.4,0,2.7-1.2,2.7-2.6C49,22.3,47.7,21.1,46.4,21.1z M81.6,101.8
		c-1.4,0-2.7,1.3-2.6,2.7c0.1,1.4,1.2,2.5,2.5,2.4c1.4,0,2.7-1.3,2.6-2.6C84.1,103,82.9,101.8,81.6,101.8z M46.4,21.1
		c-1.4,0-2.5,1.3-2.5,2.6c0,1.3,1.2,2.5,2.5,2.5c1.4,0,2.7-1.2,2.7-2.6C49,22.3,47.7,21.1,46.4,21.1z M81.6,101.8
		c-1.4,0-2.7,1.3-2.6,2.7c0.1,1.4,1.2,2.5,2.5,2.4c1.4,0,2.7-1.3,2.6-2.6C84.1,103,82.9,101.8,81.6,101.8z M46.4,21.1
		c-1.4,0-2.5,1.3-2.5,2.6c0,1.3,1.2,2.5,2.5,2.5c1.4,0,2.7-1.2,2.7-2.6C49,22.3,47.7,21.1,46.4,21.1z M81.6,101.8
		c-1.4,0-2.7,1.3-2.6,2.7c0.1,1.4,1.2,2.5,2.5,2.4c1.4,0,2.7-1.3,2.6-2.6C84.1,103,82.9,101.8,81.6,101.8z M46.4,21.1
		c-1.4,0-2.5,1.3-2.5,2.6c0,1.3,1.2,2.5,2.5,2.5c1.4,0,2.7-1.2,2.7-2.6C49,22.3,47.7,21.1,46.4,21.1z M81.6,101.8
		c-1.4,0-2.7,1.3-2.6,2.7c0.1,1.4,1.2,2.5,2.5,2.4c1.4,0,2.7-1.3,2.6-2.6C84.1,103,82.9,101.8,81.6,101.8z M46.4,21.1
		c-1.4,0-2.5,1.3-2.5,2.6c0,1.3,1.2,2.5,2.5,2.5c1.4,0,2.7-1.2,2.7-2.6C49,22.3,47.7,21.1,46.4,21.1z M81.6,101.8
		c-1.4,0-2.7,1.3-2.6,2.7c0.1,1.4,1.2,2.5,2.5,2.4c1.4,0,2.7-1.3,2.6-2.6C84.1,103,82.9,101.8,81.6,101.8z M46.4,21.1
		c-1.4,0-2.5,1.3-2.5,2.6c0,1.3,1.2,2.5,2.5,2.5c1.4,0,2.7-1.2,2.7-2.6C49,22.3,47.7,21.1,46.4,21.1z M81.6,101.8
		c-1.4,0-2.7,1.3-2.6,2.7c0.1,1.4,1.2,2.5,2.5,2.4c1.4,0,2.7-1.3,2.6-2.6C84.1,103,82.9,101.8,81.6,101.8z M46.4,21.1
		c-1.4,0-2.5,1.3-2.5,2.6c0,1.3,1.2,2.5,2.5,2.5c1.4,0,2.7-1.2,2.7-2.6C49,22.3,47.7,21.1,46.4,21.1z M81.6,101.8
		c-1.4,0-2.7,1.3-2.6,2.7c0.1,1.4,1.2,2.5,2.5,2.4c1.4,0,2.7-1.3,2.6-2.6C84.1,103,82.9,101.8,81.6,101.8z M81.6,101.8
		c-1.4,0-2.7,1.3-2.6,2.7c0.1,1.4,1.2,2.5,2.5,2.4c1.4,0,2.7-1.3,2.6-2.6C84.1,103,82.9,101.8,81.6,101.8z M46.4,21.1
		c-1.4,0-2.5,1.3-2.5,2.6c0,1.3,1.2,2.5,2.5,2.5c1.4,0,2.7-1.2,2.7-2.6C49,22.3,47.7,21.1,46.4,21.1z M46.4,21.1
		c-1.4,0-2.5,1.3-2.5,2.6c0,1.3,1.2,2.5,2.5,2.5c1.4,0,2.7-1.2,2.7-2.6C49,22.3,47.7,21.1,46.4,21.1z M81.6,101.8
		c-1.4,0-2.7,1.3-2.6,2.7c0.1,1.4,1.2,2.5,2.5,2.4c1.4,0,2.7-1.3,2.6-2.6C84.1,103,82.9,101.8,81.6,101.8z M81.6,101.8
		c-1.4,0-2.7,1.3-2.6,2.7c0.1,1.4,1.2,2.5,2.5,2.4c1.4,0,2.7-1.3,2.6-2.6C84.1,103,82.9,101.8,81.6,101.8z M46.4,21.1
		c-1.4,0-2.5,1.3-2.5,2.6c0,1.3,1.2,2.5,2.5,2.5c1.4,0,2.7-1.2,2.7-2.6C49,22.3,47.7,21.1,46.4,21.1z M64.1,8.8
		C33.6,8.7,8.8,33.4,8.7,63.9c-0.1,30.5,24.6,55.3,55.1,55.4c30.5,0.1,55.3-24.6,55.4-55.1C119.3,33.7,94.6,8.8,64.1,8.8z M104,33.8
		c4.1,5.5,7,11.5,8.7,18.3H109c-8.8,0-17.6,0-26.4,0c-0.7,0-1.2-0.2-1.6-0.8c-0.6-1-1.4-1.8-2.3-2.6c-0.4-0.4-0.6-0.7,0.1-1.1
		c8.1-4.7,16.3-9.4,24.4-14.1C103.5,33.3,103.7,33.3,104,33.8z M82.5,18.2c0.3-0.6,0.6-0.7,1.2-0.4C89.7,20.5,95,24,99.6,28.6
		c0.5,0.6,0.6,0.7-0.2,1.2c-8.5,4.8-16.9,9.7-25.3,14.6c-0.5,0.3-1,0.5-1.6,0.1c-1.3-0.7-2.8-1-4.4-1.4c3.6-6.3,7.2-12.4,10.7-18.6
		C80.1,22.5,81.3,20.4,82.5,18.2z M58.5,14.1c6.6-0.7,13.1-0.1,19.6,1.7c-5.1,8.9-10.2,17.6-15.2,26.3c-0.3,0.4-0.5,0.7-1.1,0.7
		c-1.4,0.2-2.7,0.4-4,0.8c-0.5,0.2-0.7-0.1-0.6-0.5c0-0.3,0-0.5,0-0.8c0-8.9,0-17.8,0-26.7C57.1,14.7,57.3,14.2,58.5,14.1z M35,23
		c5.1-3.6,10.7-6.2,17-7.8v2.7c0,9.1,0,18.3,0,27.5c0,0.7-0.1,1.2-0.8,1.7c-1,0.7-1.9,1.5-2.7,2.4c-0.4,0.5-0.6,0.5-1-0.1
		c-3.2-5.6-6.4-11.1-9.6-16.7c-0.3-0.5-0.2-0.8,0.3-1.1c1-0.7,1.9-1.4,2.8-2c1.4-1,1.7-2.5,0.9-3.7c-0.9-1.2-2.4-1.4-3.8-0.4
		c-0.6,0.4-1.4,0.8-1.9,1.4c-1,1-1.4,0.6-1.9-0.4C33.2,24.3,33.2,24.3,35,23z M17.9,44.1c2.8-6.3,7.4-13,11.5-16.3
		c5,8.7,10.1,17.4,15.1,26.1c0.2,0.4,0.5,0.8,0.2,1.3c-0.7,1.4-1.2,3-1.5,4.7c-2.7-1.6-5.3-3.1-7.8-4.5c-5.6-3.3-11.3-6.5-16.9-9.8
		C17.6,45.2,17.5,44.9,17.9,44.1z M14.1,69.6c-0.8-5.4,0-15.1,1.8-19.6c6.4,3.7,12.9,7.4,19.3,11.1c2.3,1.3,4.5,2.6,6.8,3.9
		c0.6,0.3,0.9,0.7,0.9,1.3c0.1,1.2,0.3,2.4,0.7,3.5c0.3,0.9,0,1-0.7,1c-3.9,0-7.8,0-11.7,0c-5.2,0-10.4,0-15.6,0
		C14.4,70.9,14.2,70.5,14.1,69.6z M23.9,94.2c-4.1-5.5-7-11.5-8.7-18.2h1.9c9.4,0,18.8,0,28.1,0c0.8,0,1.4,0.2,1.9,0.9
		c0.6,1,1.4,1.8,2.3,2.6c0.5,0.4,0.4,0.7-0.1,1c-8.1,4.7-16.2,9.4-24.3,14.1C24.3,94.8,24.1,94.6,23.9,94.2z M45.3,110.1
		c-0.1,0.2-0.2,0.4-0.4,0.4c-0.2-0.1-0.5-0.2-0.7-0.3c-5.9-2.6-11.1-6.1-15.7-10.6c-0.8-0.8-0.5-1,0.2-1.4c8.3-4.8,16.7-9.6,25-14.4
		c0.7-0.4,1.3-0.5,2-0.1c1,0.5,2.1,0.9,3.3,1.1c1.2,0.2,0.6,0.7,0.3,1.2c-4.4,7.6-8.7,15.2-13.1,22.7
		C45.9,109.1,45.6,109.6,45.3,110.1z M69.8,113.9c-6.7,0.8-13.2,0.2-19.9-1.7c4.7-8.1,9.3-16.1,13.9-24.1c1-1.8,2-3.4,4.4-3.2
		c0.2,0,0.5-0.1,0.7-0.1c1.9-0.5,1.9-0.5,1.9,1.4c0,8.9,0,17.7,0,26.6C70.8,113.5,70.6,113.8,69.8,113.9z M63.9,80.3
		C55,80.2,47.7,72.8,47.7,64c0-8.9,7.5-16.3,16.3-16.2C73,47.9,80.3,55.2,80.2,64C80.2,72.9,72.7,80.3,63.9,80.3z M94.2,104.1
		c-5.5,4.1-11.5,7-18.3,8.7v-6.7c0-7.8,0-15.7,0-23.5c0-0.7,0.2-1.2,0.8-1.6c1-0.7,1.9-1.5,2.7-2.4c0.4-0.5,0.7-0.4,1,0.1
		c3.2,5.5,6.4,11.1,9.6,16.6c0.3,0.5,0.3,0.9-0.3,1.2c-1,0.6-1.9,1.4-2.8,2c-1.4,1.1-1.7,2.5-0.8,3.8c0.8,1.2,2.4,1.3,3.8,0.3
		c0.3-0.2,0.6-0.5,0.9-0.7c0.7-0.5,1.7-1.6,2-1.3c0.8,0.6,1.2,1.8,1.8,2.7C94.9,103.8,94.4,103.9,94.2,104.1z M110.2,83.7
		c-2.6,5.9-6.2,11.3-10.8,15.9c-0.7,0.7-0.9,0.4-1.2-0.2c-4.8-8.4-9.7-16.8-14.6-25.2c-0.4-0.6-0.4-1.1-0.1-1.7
		c0.6-1.2,0.9-2.4,1.2-3.6c0.1-0.2-0.1-0.5,0.4-0.5c0.2,0.1,0.4,0.2,0.6,0.3c8,4.6,16,9.3,24,13.9C110.3,82.8,110.5,83.1,110.2,83.7
		z M85.9,62.9c-0.4-0.3-0.7-0.5-0.8-1.1c-0.2-1.4-0.3-2.7-0.8-4c-0.2-0.5,0-0.7,0.5-0.6c0.2,0,0.5,0,0.8,0c8.9,0,17.8,0,26.7,0
		c1.2,0,1.5,0.3,1.6,1.4c0.7,6.6,0.1,13-1.8,19.5C103.3,73,94.6,67.9,85.9,62.9z M81.6,101.8c-1.4,0-2.7,1.3-2.6,2.7
		c0.1,1.4,1.2,2.5,2.5,2.4c1.4,0,2.7-1.3,2.6-2.6C84.1,103,82.9,101.8,81.6,101.8z M64,51.5c-6.9,0-12.5,5.6-12.5,12.5
		S57.1,76.5,64,76.5c6.8,0,12.5-5.6,12.5-12.4C76.5,57.2,70.9,51.5,64,51.5z M64,71.5c-4,0-7.5-3.5-7.5-7.5c0-4,3.5-7.5,7.5-7.5
		c4,0,7.5,3.5,7.5,7.5C71.4,68.1,68,71.5,64,71.5z M46.3,26.2c1.4,0,2.7-1.2,2.7-2.6c0-1.4-1.2-2.5-2.6-2.5c-1.4,0-2.5,1.3-2.5,2.6
		C43.8,25,45,26.2,46.3,26.2z M46.4,21.1c-1.4,0-2.5,1.3-2.5,2.6c0,1.3,1.2,2.5,2.5,2.5c1.4,0,2.7-1.2,2.7-2.6
		C49,22.3,47.7,21.1,46.4,21.1z M81.6,101.8c-1.4,0-2.7,1.3-2.6,2.7c0.1,1.4,1.2,2.5,2.5,2.4c1.4,0,2.7-1.3,2.6-2.6
		C84.1,103,82.9,101.8,81.6,101.8z M81.6,101.8c-1.4,0-2.7,1.3-2.6,2.7c0.1,1.4,1.2,2.5,2.5,2.4c1.4,0,2.7-1.3,2.6-2.6
		C84.1,103,82.9,101.8,81.6,101.8z M46.4,21.1c-1.4,0-2.5,1.3-2.5,2.6c0,1.3,1.2,2.5,2.5,2.5c1.4,0,2.7-1.2,2.7-2.6
		C49,22.3,47.7,21.1,46.4,21.1z M46.4,21.1c-1.4,0-2.5,1.3-2.5,2.6c0,1.3,1.2,2.5,2.5,2.5c1.4,0,2.7-1.2,2.7-2.6
		C49,22.3,47.7,21.1,46.4,21.1z M81.6,101.8c-1.4,0-2.7,1.3-2.6,2.7c0.1,1.4,1.2,2.5,2.5,2.4c1.4,0,2.7-1.3,2.6-2.6
		C84.1,103,82.9,101.8,81.6,101.8z M81.6,101.8c-1.4,0-2.7,1.3-2.6,2.7c0.1,1.4,1.2,2.5,2.5,2.4c1.4,0,2.7-1.3,2.6-2.6
		C84.1,103,82.9,101.8,81.6,101.8z M46.4,21.1c-1.4,0-2.5,1.3-2.5,2.6c0,1.3,1.2,2.5,2.5,2.5c1.4,0,2.7-1.2,2.7-2.6
		C49,22.3,47.7,21.1,46.4,21.1z M64.1,8.8C33.6,8.7,8.8,33.4,8.7,63.9c-0.1,30.5,24.6,55.3,55.1,55.4c30.5,0.1,55.3-24.6,55.4-55.1
		C119.3,33.7,94.6,8.8,64.1,8.8z M104,33.8c4.1,5.5,7,11.5,8.7,18.3H109c-8.8,0-17.6,0-26.4,0c-0.7,0-1.2-0.2-1.6-0.8
		c-0.6-1-1.4-1.8-2.3-2.6c-0.4-0.4-0.6-0.7,0.1-1.1c8.1-4.7,16.3-9.4,24.4-14.1C103.5,33.3,103.7,33.3,104,33.8z M82.5,18.2
		c0.3-0.6,0.6-0.7,1.2-0.4C89.7,20.5,95,24,99.6,28.6c0.5,0.6,0.6,0.7-0.2,1.2c-8.5,4.8-16.9,9.7-25.3,14.6c-0.5,0.3-1,0.5-1.6,0.1
		c-1.3-0.7-2.8-1-4.4-1.4c3.6-6.3,7.2-12.4,10.7-18.6C80.1,22.5,81.3,20.4,82.5,18.2z M58.5,14.1c6.6-0.7,13.1-0.1,19.6,1.7
		c-5.1,8.9-10.2,17.6-15.2,26.3c-0.3,0.4-0.5,0.7-1.1,0.7c-1.4,0.2-2.7,0.4-4,0.8c-0.5,0.2-0.7-0.1-0.6-0.5c0-0.3,0-0.5,0-0.8
		c0-8.9,0-17.8,0-26.7C57.1,14.7,57.3,14.2,58.5,14.1z M35,23c5.1-3.6,10.7-6.2,17-7.8v2.7c0,9.1,0,18.3,0,27.5
		c0,0.7-0.1,1.2-0.8,1.7c-1,0.7-1.9,1.5-2.7,2.4c-0.4,0.5-0.6,0.5-1-0.1c-3.2-5.6-6.4-11.1-9.6-16.7c-0.3-0.5-0.2-0.8,0.3-1.1
		c1-0.7,1.9-1.4,2.8-2c1.4-1,1.7-2.5,0.9-3.7c-0.9-1.2-2.4-1.4-3.8-0.4c-0.6,0.4-1.4,0.8-1.9,1.4c-1,1-1.4,0.6-1.9-0.4
		C33.2,24.3,33.2,24.3,35,23z M17.9,44.1c2.8-6.3,7.4-13,11.5-16.3c5,8.7,10.1,17.4,15.1,26.1c0.2,0.4,0.5,0.8,0.2,1.3
		c-0.7,1.4-1.2,3-1.5,4.7c-2.7-1.6-5.3-3.1-7.8-4.5c-5.6-3.3-11.3-6.5-16.9-9.8C17.6,45.2,17.5,44.9,17.9,44.1z M14.1,69.6
		c-0.8-5.4,0-15.1,1.8-19.6c6.4,3.7,12.9,7.4,19.3,11.1c2.3,1.3,4.5,2.6,6.8,3.9c0.6,0.3,0.9,0.7,0.9,1.3c0.1,1.2,0.3,2.4,0.7,3.5
		c0.3,0.9,0,1-0.7,1c-3.9,0-7.8,0-11.7,0c-5.2,0-10.4,0-15.6,0C14.4,70.9,14.2,70.5,14.1,69.6z M23.9,94.2c-4.1-5.5-7-11.5-8.7-18.2
		h1.9c9.4,0,18.8,0,28.1,0c0.8,0,1.4,0.2,1.9,0.9c0.6,1,1.4,1.8,2.3,2.6c0.5,0.4,0.4,0.7-0.1,1c-8.1,4.7-16.2,9.4-24.3,14.1
		C24.3,94.8,24.1,94.6,23.9,94.2z M45.3,110.1c-0.1,0.2-0.2,0.4-0.4,0.4c-0.2-0.1-0.5-0.2-0.7-0.3c-5.9-2.6-11.1-6.1-15.7-10.6
		c-0.8-0.8-0.5-1,0.2-1.4c8.3-4.8,16.7-9.6,25-14.4c0.7-0.4,1.3-0.5,2-0.1c1,0.5,2.1,0.9,3.3,1.1c1.2,0.2,0.6,0.7,0.3,1.2
		c-4.4,7.6-8.7,15.2-13.1,22.7C45.9,109.1,45.6,109.6,45.3,110.1z M69.8,113.9c-6.7,0.8-13.2,0.2-19.9-1.7
		c4.7-8.1,9.3-16.1,13.9-24.1c1-1.8,2-3.4,4.4-3.2c0.2,0,0.5-0.1,0.7-0.1c1.9-0.5,1.9-0.5,1.9,1.4c0,8.9,0,17.7,0,26.6
		C70.8,113.5,70.6,113.8,69.8,113.9z M63.9,80.3C55,80.2,47.7,72.8,47.7,64c0-8.9,7.5-16.3,16.3-16.2C73,47.9,80.3,55.2,80.2,64
		C80.2,72.9,72.7,80.3,63.9,80.3z M94.2,104.1c-5.5,4.1-11.5,7-18.3,8.7v-6.7c0-7.8,0-15.7,0-23.5c0-0.7,0.2-1.2,0.8-1.6
		c1-0.7,1.9-1.5,2.7-2.4c0.4-0.5,0.7-0.4,1,0.1c3.2,5.5,6.4,11.1,9.6,16.6c0.3,0.5,0.3,0.9-0.3,1.2c-1,0.6-1.9,1.4-2.8,2
		c-1.4,1.1-1.7,2.5-0.8,3.8c0.8,1.2,2.4,1.3,3.8,0.3c0.3-0.2,0.6-0.5,0.9-0.7c0.7-0.5,1.7-1.6,2-1.3c0.8,0.6,1.2,1.8,1.8,2.7
		C94.9,103.8,94.4,103.9,94.2,104.1z M110.2,83.7c-2.6,5.9-6.2,11.3-10.8,15.9c-0.7,0.7-0.9,0.4-1.2-0.2
		c-4.8-8.4-9.7-16.8-14.6-25.2c-0.4-0.6-0.4-1.1-0.1-1.7c0.6-1.2,0.9-2.4,1.2-3.6c0.1-0.2-0.1-0.5,0.4-0.5c0.2,0.1,0.4,0.2,0.6,0.3
		c8,4.6,16,9.3,24,13.9C110.3,82.8,110.5,83.1,110.2,83.7z M85.9,62.9c-0.4-0.3-0.7-0.5-0.8-1.1c-0.2-1.4-0.3-2.7-0.8-4
		c-0.2-0.5,0-0.7,0.5-0.6c0.2,0,0.5,0,0.8,0c8.9,0,17.8,0,26.7,0c1.2,0,1.5,0.3,1.6,1.4c0.7,6.6,0.1,13-1.8,19.5
		C103.3,73,94.6,67.9,85.9,62.9z M81.6,101.8c-1.4,0-2.7,1.3-2.6,2.7c0.1,1.4,1.2,2.5,2.5,2.4c1.4,0,2.7-1.3,2.6-2.6
		C84.1,103,82.9,101.8,81.6,101.8z M64,51.5c-6.9,0-12.5,5.6-12.5,12.5S57.1,76.5,64,76.5c6.8,0,12.5-5.6,12.5-12.4
		C76.5,57.2,70.9,51.5,64,51.5z M64,71.5c-4,0-7.5-3.5-7.5-7.5c0-4,3.5-7.5,7.5-7.5c4,0,7.5,3.5,7.5,7.5C71.4,68.1,68,71.5,64,71.5z
		 M46.3,26.2c1.4,0,2.7-1.2,2.7-2.6c0-1.4-1.2-2.5-2.6-2.5c-1.4,0-2.5,1.3-2.5,2.6C43.8,25,45,26.2,46.3,26.2z M46.4,21.1
		c-1.4,0-2.5,1.3-2.5,2.6c0,1.3,1.2,2.5,2.5,2.5c1.4,0,2.7-1.2,2.7-2.6C49,22.3,47.7,21.1,46.4,21.1z M81.6,101.8
		c-1.4,0-2.7,1.3-2.6,2.7c0.1,1.4,1.2,2.5,2.5,2.4c1.4,0,2.7-1.3,2.6-2.6C84.1,103,82.9,101.8,81.6,101.8z M81.6,101.8
		c-1.4,0-2.7,1.3-2.6,2.7c0.1,1.4,1.2,2.5,2.5,2.4c1.4,0,2.7-1.3,2.6-2.6C84.1,103,82.9,101.8,81.6,101.8z M46.4,21.1
		c-1.4,0-2.5,1.3-2.5,2.6c0,1.3,1.2,2.5,2.5,2.5c1.4,0,2.7-1.2,2.7-2.6C49,22.3,47.7,21.1,46.4,21.1z M46.4,21.1
		c-1.4,0-2.5,1.3-2.5,2.6c0,1.3,1.2,2.5,2.5,2.5c1.4,0,2.7-1.2,2.7-2.6C49,22.3,47.7,21.1,46.4,21.1z M81.6,101.8
		c-1.4,0-2.7,1.3-2.6,2.7c0.1,1.4,1.2,2.5,2.5,2.4c1.4,0,2.7-1.3,2.6-2.6C84.1,103,82.9,101.8,81.6,101.8z M81.6,101.8
		c-1.4,0-2.7,1.3-2.6,2.7c0.1,1.4,1.2,2.5,2.5,2.4c1.4,0,2.7-1.3,2.6-2.6C84.1,103,82.9,101.8,81.6,101.8z M46.4,21.1
		c-1.4,0-2.5,1.3-2.5,2.6c0,1.3,1.2,2.5,2.5,2.5c1.4,0,2.7-1.2,2.7-2.6C49,22.3,47.7,21.1,46.4,21.1z M64.1,8.8
		C33.6,8.7,8.8,33.4,8.7,63.9c-0.1,30.5,24.6,55.3,55.1,55.4c30.5,0.1,55.3-24.6,55.4-55.1C119.3,33.7,94.6,8.8,64.1,8.8z M104,33.8
		c4.1,5.5,7,11.5,8.7,18.3H109c-8.8,0-17.6,0-26.4,0c-0.7,0-1.2-0.2-1.6-0.8c-0.6-1-1.4-1.8-2.3-2.6c-0.4-0.4-0.6-0.7,0.1-1.1
		c8.1-4.7,16.3-9.4,24.4-14.1C103.5,33.3,103.7,33.3,104,33.8z M82.5,18.2c0.3-0.6,0.6-0.7,1.2-0.4C89.7,20.5,95,24,99.6,28.6
		c0.5,0.6,0.6,0.7-0.2,1.2c-8.5,4.8-16.9,9.7-25.3,14.6c-0.5,0.3-1,0.5-1.6,0.1c-1.3-0.7-2.8-1-4.4-1.4c3.6-6.3,7.2-12.4,10.7-18.6
		C80.1,22.5,81.3,20.4,82.5,18.2z M58.5,14.1c6.6-0.7,13.1-0.1,19.6,1.7c-5.1,8.9-10.2,17.6-15.2,26.3c-0.3,0.4-0.5,0.7-1.1,0.7
		c-1.4,0.2-2.7,0.4-4,0.8c-0.5,0.2-0.7-0.1-0.6-0.5c0-0.3,0-0.5,0-0.8c0-8.9,0-17.8,0-26.7C57.1,14.7,57.3,14.2,58.5,14.1z M35,23
		c5.1-3.6,10.7-6.2,17-7.8v2.7c0,9.1,0,18.3,0,27.5c0,0.7-0.1,1.2-0.8,1.7c-1,0.7-1.9,1.5-2.7,2.4c-0.4,0.5-0.6,0.5-1-0.1
		c-3.2-5.6-6.4-11.1-9.6-16.7c-0.3-0.5-0.2-0.8,0.3-1.1c1-0.7,1.9-1.4,2.8-2c1.4-1,1.7-2.5,0.9-3.7c-0.9-1.2-2.4-1.4-3.8-0.4
		c-0.6,0.4-1.4,0.8-1.9,1.4c-1,1-1.4,0.6-1.9-0.4C33.2,24.3,33.2,24.3,35,23z M17.9,44.1c2.8-6.3,7.4-13,11.5-16.3
		c5,8.7,10.1,17.4,15.1,26.1c0.2,0.4,0.5,0.8,0.2,1.3c-0.7,1.4-1.2,3-1.5,4.7c-2.7-1.6-5.3-3.1-7.8-4.5c-5.6-3.3-11.3-6.5-16.9-9.8
		C17.6,45.2,17.5,44.9,17.9,44.1z M14.1,69.6c-0.8-5.4,0-15.1,1.8-19.6c6.4,3.7,12.9,7.4,19.3,11.1c2.3,1.3,4.5,2.6,6.8,3.9
		c0.6,0.3,0.9,0.7,0.9,1.3c0.1,1.2,0.3,2.4,0.7,3.5c0.3,0.9,0,1-0.7,1c-3.9,0-7.8,0-11.7,0c-5.2,0-10.4,0-15.6,0
		C14.4,70.9,14.2,70.5,14.1,69.6z M23.9,94.2c-4.1-5.5-7-11.5-8.7-18.2h1.9c9.4,0,18.8,0,28.1,0c0.8,0,1.4,0.2,1.9,0.9
		c0.6,1,1.4,1.8,2.3,2.6c0.5,0.4,0.4,0.7-0.1,1c-8.1,4.7-16.2,9.4-24.3,14.1C24.3,94.8,24.1,94.6,23.9,94.2z M45.3,110.1
		c-0.1,0.2-0.2,0.4-0.4,0.4c-0.2-0.1-0.5-0.2-0.7-0.3c-5.9-2.6-11.1-6.1-15.7-10.6c-0.8-0.8-0.5-1,0.2-1.4c8.3-4.8,16.7-9.6,25-14.4
		c0.7-0.4,1.3-0.5,2-0.1c1,0.5,2.1,0.9,3.3,1.1c1.2,0.2,0.6,0.7,0.3,1.2c-4.4,7.6-8.7,15.2-13.1,22.7
		C45.9,109.1,45.6,109.6,45.3,110.1z M69.8,113.9c-6.7,0.8-13.2,0.2-19.9-1.7c4.7-8.1,9.3-16.1,13.9-24.1c1-1.8,2-3.4,4.4-3.2
		c0.2,0,0.5-0.1,0.7-0.1c1.9-0.5,1.9-0.5,1.9,1.4c0,8.9,0,17.7,0,26.6C70.8,113.5,70.6,113.8,69.8,113.9z M63.9,80.3
		C55,80.2,47.7,72.8,47.7,64c0-8.9,7.5-16.3,16.3-16.2C73,47.9,80.3,55.2,80.2,64C80.2,72.9,72.7,80.3,63.9,80.3z M94.2,104.1
		c-5.5,4.1-11.5,7-18.3,8.7v-6.7c0-7.8,0-15.7,0-23.5c0-0.7,0.2-1.2,0.8-1.6c1-0.7,1.9-1.5,2.7-2.4c0.4-0.5,0.7-0.4,1,0.1
		c3.2,5.5,6.4,11.1,9.6,16.6c0.3,0.5,0.3,0.9-0.3,1.2c-1,0.6-1.9,1.4-2.8,2c-1.4,1.1-1.7,2.5-0.8,3.8c0.8,1.2,2.4,1.3,3.8,0.3
		c0.3-0.2,0.6-0.5,0.9-0.7c0.7-0.5,1.7-1.6,2-1.3c0.8,0.6,1.2,1.8,1.8,2.7C94.9,103.8,94.4,103.9,94.2,104.1z M110.2,83.7
		c-2.6,5.9-6.2,11.3-10.8,15.9c-0.7,0.7-0.9,0.4-1.2-0.2c-4.8-8.4-9.7-16.8-14.6-25.2c-0.4-0.6-0.4-1.1-0.1-1.7
		c0.6-1.2,0.9-2.4,1.2-3.6c0.1-0.2-0.1-0.5,0.4-0.5c0.2,0.1,0.4,0.2,0.6,0.3c8,4.6,16,9.3,24,13.9C110.3,82.8,110.5,83.1,110.2,83.7
		z M85.9,62.9c-0.4-0.3-0.7-0.5-0.8-1.1c-0.2-1.4-0.3-2.7-0.8-4c-0.2-0.5,0-0.7,0.5-0.6c0.2,0,0.5,0,0.8,0c8.9,0,17.8,0,26.7,0
		c1.2,0,1.5,0.3,1.6,1.4c0.7,6.6,0.1,13-1.8,19.5C103.3,73,94.6,67.9,85.9,62.9z M81.6,101.8c-1.4,0-2.7,1.3-2.6,2.7
		c0.1,1.4,1.2,2.5,2.5,2.4c1.4,0,2.7-1.3,2.6-2.6C84.1,103,82.9,101.8,81.6,101.8z M64,51.5c-6.9,0-12.5,5.6-12.5,12.5
		S57.1,76.5,64,76.5c6.8,0,12.5-5.6,12.5-12.4C76.5,57.2,70.9,51.5,64,51.5z M64,71.5c-4,0-7.5-3.5-7.5-7.5c0-4,3.5-7.5,7.5-7.5
		c4,0,7.5,3.5,7.5,7.5C71.4,68.1,68,71.5,64,71.5z M46.3,26.2c1.4,0,2.7-1.2,2.7-2.6c0-1.4-1.2-2.5-2.6-2.5c-1.4,0-2.5,1.3-2.5,2.6
		C43.8,25,45,26.2,46.3,26.2z M64.1,8.8C33.6,8.7,8.8,33.4,8.7,63.9c-0.1,30.5,24.6,55.3,55.1,55.4c30.5,0.1,55.3-24.6,55.4-55.1
		C119.3,33.7,94.6,8.8,64.1,8.8z M104,33.8c4.1,5.5,7,11.5,8.7,18.3H109c-8.8,0-17.6,0-26.4,0c-0.7,0-1.2-0.2-1.6-0.8
		c-0.6-1-1.4-1.8-2.3-2.6c-0.4-0.4-0.6-0.7,0.1-1.1c8.1-4.7,16.3-9.4,24.4-14.1C103.5,33.3,103.7,33.3,104,33.8z M82.5,18.2
		c0.3-0.6,0.6-0.7,1.2-0.4C89.7,20.5,95,24,99.6,28.6c0.5,0.6,0.6,0.7-0.2,1.2c-8.5,4.8-16.9,9.7-25.3,14.6c-0.5,0.3-1,0.5-1.6,0.1
		c-1.3-0.7-2.8-1-4.4-1.4c3.6-6.3,7.2-12.4,10.7-18.6C80.1,22.5,81.3,20.4,82.5,18.2z M58.5,14.1c6.6-0.7,13.1-0.1,19.6,1.7
		c-5.1,8.9-10.2,17.6-15.2,26.3c-0.3,0.4-0.5,0.7-1.1,0.7c-1.4,0.2-2.7,0.4-4,0.8c-0.5,0.2-0.7-0.1-0.6-0.5c0-0.3,0-0.5,0-0.8
		c0-8.9,0-17.8,0-26.7C57.1,14.7,57.3,14.2,58.5,14.1z M35,23c5.1-3.6,10.7-6.2,17-7.8v2.7c0,9.1,0,18.3,0,27.5
		c0,0.7-0.1,1.2-0.8,1.7c-1,0.7-1.9,1.5-2.7,2.4c-0.4,0.5-0.6,0.5-1-0.1c-3.2-5.6-6.4-11.1-9.6-16.7c-0.3-0.5-0.2-0.8,0.3-1.1
		c1-0.7,1.9-1.4,2.8-2c1.4-1,1.7-2.5,0.9-3.7c-0.9-1.2-2.4-1.4-3.8-0.4c-0.6,0.4-1.4,0.8-1.9,1.4c-1,1-1.4,0.6-1.9-0.4
		C33.2,24.3,33.2,24.3,35,23z M17.9,44.1c2.8-6.3,7.4-13,11.5-16.3c5,8.7,10.1,17.4,15.1,26.1c0.2,0.4,0.5,0.8,0.2,1.3
		c-0.7,1.4-1.2,3-1.5,4.7c-2.7-1.6-5.3-3.1-7.8-4.5c-5.6-3.3-11.3-6.5-16.9-9.8C17.6,45.2,17.5,44.9,17.9,44.1z M14.1,69.6
		c-0.8-5.4,0-15.1,1.8-19.6c6.4,3.7,12.9,7.4,19.3,11.1c2.3,1.3,4.5,2.6,6.8,3.9c0.6,0.3,0.9,0.7,0.9,1.3c0.1,1.2,0.3,2.4,0.7,3.5
		c0.3,0.9,0,1-0.7,1c-3.9,0-7.8,0-11.7,0c-5.2,0-10.4,0-15.6,0C14.4,70.9,14.2,70.5,14.1,69.6z M23.9,94.2c-4.1-5.5-7-11.5-8.7-18.2
		h1.9c9.4,0,18.8,0,28.1,0c0.8,0,1.4,0.2,1.9,0.9c0.6,1,1.4,1.8,2.3,2.6c0.5,0.4,0.4,0.7-0.1,1c-8.1,4.7-16.2,9.4-24.3,14.1
		C24.3,94.8,24.1,94.6,23.9,94.2z M45.3,110.1c-0.1,0.2-0.2,0.4-0.4,0.4c-0.2-0.1-0.5-0.2-0.7-0.3c-5.9-2.6-11.1-6.1-15.7-10.6
		c-0.8-0.8-0.5-1,0.2-1.4c8.3-4.8,16.7-9.6,25-14.4c0.7-0.4,1.3-0.5,2-0.1c1,0.5,2.1,0.9,3.3,1.1c1.2,0.2,0.6,0.7,0.3,1.2
		c-4.4,7.6-8.7,15.2-13.1,22.7C45.9,109.1,45.6,109.6,45.3,110.1z M69.8,113.9c-6.7,0.8-13.2,0.2-19.9-1.7
		c4.7-8.1,9.3-16.1,13.9-24.1c1-1.8,2-3.4,4.4-3.2c0.2,0,0.5-0.1,0.7-0.1c1.9-0.5,1.9-0.5,1.9,1.4c0,8.9,0,17.7,0,26.6
		C70.8,113.5,70.6,113.8,69.8,113.9z M63.9,80.3C55,80.2,47.7,72.8,47.7,64c0-8.9,7.5-16.3,16.3-16.2C73,47.9,80.3,55.2,80.2,64
		C80.2,72.9,72.7,80.3,63.9,80.3z M94.2,104.1c-5.5,4.1-11.5,7-18.3,8.7v-6.7c0-7.8,0-15.7,0-23.5c0-0.7,0.2-1.2,0.8-1.6
		c1-0.7,1.9-1.5,2.7-2.4c0.4-0.5,0.7-0.4,1,0.1c3.2,5.5,6.4,11.1,9.6,16.6c0.3,0.5,0.3,0.9-0.3,1.2c-1,0.6-1.9,1.4-2.8,2
		c-1.4,1.1-1.7,2.5-0.8,3.8c0.8,1.2,2.4,1.3,3.8,0.3c0.3-0.2,0.6-0.5,0.9-0.7c0.7-0.5,1.7-1.6,2-1.3c0.8,0.6,1.2,1.8,1.8,2.7
		C94.9,103.8,94.4,103.9,94.2,104.1z M110.2,83.7c-2.6,5.9-6.2,11.3-10.8,15.9c-0.7,0.7-0.9,0.4-1.2-0.2
		c-4.8-8.4-9.7-16.8-14.6-25.2c-0.4-0.6-0.4-1.1-0.1-1.7c0.6-1.2,0.9-2.4,1.2-3.6c0.1-0.2-0.1-0.5,0.4-0.5c0.2,0.1,0.4,0.2,0.6,0.3
		c8,4.6,16,9.3,24,13.9C110.3,82.8,110.5,83.1,110.2,83.7z M85.9,62.9c-0.4-0.3-0.7-0.5-0.8-1.1c-0.2-1.4-0.3-2.7-0.8-4
		c-0.2-0.5,0-0.7,0.5-0.6c0.2,0,0.5,0,0.8,0c8.9,0,17.8,0,26.7,0c1.2,0,1.5,0.3,1.6,1.4c0.7,6.6,0.1,13-1.8,19.5
		C103.3,73,94.6,67.9,85.9,62.9z M81.6,101.8c-1.4,0-2.7,1.3-2.6,2.7c0.1,1.4,1.2,2.5,2.5,2.4c1.4,0,2.7-1.3,2.6-2.6
		C84.1,103,82.9,101.8,81.6,101.8z M64,51.5c-6.9,0-12.5,5.6-12.5,12.5S57.1,76.5,64,76.5c6.8,0,12.5-5.6,12.5-12.4
		C76.5,57.2,70.9,51.5,64,51.5z M64,71.5c-4,0-7.5-3.5-7.5-7.5c0-4,3.5-7.5,7.5-7.5c4,0,7.5,3.5,7.5,7.5C71.4,68.1,68,71.5,64,71.5z
		 M46.3,26.2c1.4,0,2.7-1.2,2.7-2.6c0-1.4-1.2-2.5-2.6-2.5c-1.4,0-2.5,1.3-2.5,2.6C43.8,25,45,26.2,46.3,26.2z M128,59.3
		c-0.2-1.5-0.1-3.1-0.3-4.6c-1.3-8.8-4.2-17-8.9-24.5c-5.7-9.1-13.2-16.5-22.5-21.9C88.5,3.9,80.3,1,71.4,0.2c-1-0.1-2,0.1-3-0.2
		h-1.7c-0.6,0.2-1.2,0.2-1.8,0h-2c-0.6,0.2-1.2,0.2-1.8,0H59c-1.2,0.4-2.6,0.4-3.9,0.6C42.8,2.4,31.6,7.2,22.3,15.5
		C5.1,30.8-2.2,50,0.6,72.8c1.5,12.4,6.5,23.5,14.9,32.8c17.3,19.2,38.8,26.1,64.1,20.4c12.3-2.8,22.7-9.2,31.3-18.5
		c8.9-9.6,14.4-20.9,16.4-33.9c0.3-1.6,0.2-3.2,0.7-4.7v-2.3c-0.2-0.6-0.2-1.2,0-1.8v-2c-0.2-0.6-0.2-1.2,0-1.8V59.3z M63.9,123
		C31.4,123,4.9,96.4,5,64C5.1,31.2,31.4,5,64.1,5C96.6,5,123,31.6,123,64C122.8,96.8,96.5,123,63.9,123z M64.1,8.8
		C33.6,8.7,8.8,33.4,8.7,63.9c-0.1,30.5,24.6,55.3,55.1,55.4c30.5,0.1,55.3-24.6,55.4-55.1C119.3,33.7,94.6,8.8,64.1,8.8z
		 M82.5,18.2c0.3-0.6,0.6-0.7,1.2-0.4C89.7,20.5,95,24,99.6,28.6c0.5,0.6,0.6,0.7-0.2,1.2c-8.5,4.8-16.9,9.7-25.3,14.6
		c-0.5,0.3-1,0.5-1.6,0.1c-1.3-0.7-2.8-1-4.4-1.4c3.6-6.3,7.2-12.4,10.7-18.6C80.1,22.5,81.3,20.4,82.5,18.2z M58.5,14.1
		c6.6-0.7,13.1-0.1,19.6,1.7c-5.1,8.9-10.2,17.6-15.2,26.3c-0.3,0.4-0.5,0.7-1.1,0.7c-1.4,0.2-2.7,0.4-4,0.8
		c-0.5,0.2-0.7-0.1-0.6-0.5c0-0.3,0-0.5,0-0.8c0-8.9,0-17.8,0-26.7C57.1,14.7,57.3,14.2,58.5,14.1z M35,23c5.1-3.6,10.7-6.2,17-7.8
		v2.7c0,9.1,0,18.3,0,27.5c0,0.7-0.1,1.2-0.8,1.7c-1,0.7-1.9,1.5-2.7,2.4c-0.4,0.5-0.6,0.5-1-0.1c-3.2-5.6-6.4-11.1-9.6-16.7
		c-0.3-0.5-0.2-0.8,0.3-1.1c1-0.7,1.9-1.4,2.8-2c1.4-1,1.7-2.5,0.9-3.7c-0.9-1.2-2.4-1.4-3.8-0.4c-0.6,0.4-1.4,0.8-1.9,1.4
		c-1,1-1.4,0.6-1.9-0.4C33.2,24.3,33.2,24.3,35,23z M17.9,44.1c2.8-6.3,7.4-13,11.5-16.3c5,8.7,10.1,17.4,15.1,26.1
		c0.2,0.4,0.5,0.8,0.2,1.3c-0.7,1.4-1.2,3-1.5,4.7c-2.7-1.6-5.3-3.1-7.8-4.5c-5.6-3.3-11.3-6.5-16.9-9.8
		C17.6,45.2,17.5,44.9,17.9,44.1z M14.1,69.6c-0.8-5.4,0-15.1,1.8-19.6c6.4,3.7,12.9,7.4,19.3,11.1c2.3,1.3,4.5,2.6,6.8,3.9
		c0.6,0.3,0.9,0.7,0.9,1.3c0.1,1.2,0.3,2.4,0.7,3.5c0.3,0.9,0,1-0.7,1c-3.9,0-7.8,0-11.7,0c-5.2,0-10.4,0-15.6,0
		C14.4,70.9,14.2,70.5,14.1,69.6z M23.9,94.2c-4.1-5.5-7-11.5-8.7-18.2h1.9c9.4,0,18.8,0,28.1,0c0.8,0,1.4,0.2,1.9,0.9
		c0.6,1,1.4,1.8,2.3,2.6c0.5,0.4,0.4,0.7-0.1,1c-8.1,4.7-16.2,9.4-24.3,14.1C24.3,94.8,24.1,94.6,23.9,94.2z M45.3,110.1
		c-0.1,0.2-0.2,0.4-0.4,0.4c-0.2-0.1-0.5-0.2-0.7-0.3c-5.9-2.6-11.1-6.1-15.7-10.6c-0.8-0.8-0.5-1,0.2-1.4c8.3-4.8,16.7-9.6,25-14.4
		c0.7-0.4,1.3-0.5,2-0.1c1,0.5,2.1,0.9,3.3,1.1c1.2,0.2,0.6,0.7,0.3,1.2c-4.4,7.6-8.7,15.2-13.1,22.7
		C45.9,109.1,45.6,109.6,45.3,110.1z M69.8,113.9c-6.7,0.8-13.2,0.2-19.9-1.7c4.7-8.1,9.3-16.1,13.9-24.1c1-1.8,2-3.4,4.4-3.2
		c0.2,0,0.5-0.1,0.7-0.1c1.9-0.5,1.9-0.5,1.9,1.4c0,8.9,0,17.7,0,26.6C70.8,113.5,70.6,113.8,69.8,113.9z M63.9,80.3
		C55,80.2,47.7,72.8,47.7,64c0-8.9,7.5-16.3,16.3-16.2C73,47.9,80.3,55.2,80.2,64C80.2,72.9,72.7,80.3,63.9,80.3z M94.2,104.1
		c-5.5,4.1-11.5,7-18.3,8.7v-6.7c0-7.8,0-15.7,0-23.5c0-0.7,0.2-1.2,0.8-1.6c1-0.7,1.9-1.5,2.7-2.4c0.4-0.5,0.7-0.4,1,0.1
		c3.2,5.5,6.4,11.1,9.6,16.6c0.3,0.5,0.3,0.9-0.3,1.2c-1,0.6-1.9,1.4-2.8,2c-1.4,1.1-1.7,2.5-0.8,3.8c0.8,1.2,2.4,1.3,3.8,0.3
		c0.3-0.2,0.6-0.5,0.9-0.7c0.7-0.5,1.7-1.6,2-1.3c0.8,0.6,1.2,1.8,1.8,2.7C94.9,103.8,94.4,103.9,94.2,104.1z M110.2,83.7
		c-2.6,5.9-6.2,11.3-10.8,15.9c-0.7,0.7-0.9,0.4-1.2-0.2c-4.8-8.4-9.7-16.8-14.6-25.2c-0.4-0.6-0.4-1.1-0.1-1.7
		c0.6-1.2,0.9-2.4,1.2-3.6c0.1-0.2-0.1-0.5,0.4-0.5c0.2,0.1,0.4,0.2,0.6,0.3c8,4.6,16,9.3,24,13.9C110.3,82.8,110.5,83.1,110.2,83.7
		z M113.9,58.6c0.7,6.6,0.1,13-1.8,19.5c-8.9-5.1-17.6-10.2-26.3-15.2c-0.4-0.3-0.7-0.5-0.8-1.1c-0.2-1.4-0.3-2.7-0.8-4
		c-0.2-0.5,0-0.7,0.5-0.6c0.2,0,0.5,0,0.8,0c8.9,0,17.8,0,26.7,0C113.5,57.2,113.8,57.5,113.9,58.6z M104,33.8
		c4.1,5.5,7,11.5,8.7,18.3H109c-8.8,0-17.6,0-26.4,0c-0.7,0-1.2-0.2-1.6-0.8c-0.6-1-1.4-1.8-2.3-2.6c-0.4-0.4-0.6-0.7,0.1-1.1
		c8.1-4.7,16.3-9.4,24.4-14.1C103.5,33.3,103.7,33.3,104,33.8z M81.6,101.8c-1.4,0-2.7,1.3-2.6,2.7c0.1,1.4,1.2,2.5,2.5,2.4
		c1.4,0,2.7-1.3,2.6-2.6C84.1,103,82.9,101.8,81.6,101.8z M64,51.5c-6.9,0-12.5,5.6-12.5,12.5S57.1,76.5,64,76.5
		c6.8,0,12.5-5.6,12.5-12.4C76.5,57.2,70.9,51.5,64,51.5z M64,71.5c-4,0-7.5-3.5-7.5-7.5c0-4,3.5-7.5,7.5-7.5c4,0,7.5,3.5,7.5,7.5
		C71.4,68.1,68,71.5,64,71.5z M46.3,26.2c1.4,0,2.7-1.2,2.7-2.6c0-1.4-1.2-2.5-2.6-2.5c-1.4,0-2.5,1.3-2.5,2.6
		C43.8,25,45,26.2,46.3,26.2z M46.4,21.1c-1.4,0-2.5,1.3-2.5,2.6c0,1.3,1.2,2.5,2.5,2.5c1.4,0,2.7-1.2,2.7-2.6
		C49,22.3,47.7,21.1,46.4,21.1z M81.6,101.8c-1.4,0-2.7,1.3-2.6,2.7c0.1,1.4,1.2,2.5,2.5,2.4c1.4,0,2.7-1.3,2.6-2.6
		C84.1,103,82.9,101.8,81.6,101.8z M81.6,101.8c-1.4,0-2.7,1.3-2.6,2.7c0.1,1.4,1.2,2.5,2.5,2.4c1.4,0,2.7-1.3,2.6-2.6
		C84.1,103,82.9,101.8,81.6,101.8z M46.4,21.1c-1.4,0-2.5,1.3-2.5,2.6c0,1.3,1.2,2.5,2.5,2.5c1.4,0,2.7-1.2,2.7-2.6
		C49,22.3,47.7,21.1,46.4,21.1z M64.1,8.8C33.6,8.7,8.8,33.4,8.7,63.9c-0.1,30.5,24.6,55.3,55.1,55.4c30.5,0.1,55.3-24.6,55.4-55.1
		C119.3,33.7,94.6,8.8,64.1,8.8z M104,33.8c4.1,5.5,7,11.5,8.7,18.3H109c-8.8,0-17.6,0-26.4,0c-0.7,0-1.2-0.2-1.6-0.8
		c-0.6-1-1.4-1.8-2.3-2.6c-0.4-0.4-0.6-0.7,0.1-1.1c8.1-4.7,16.3-9.4,24.4-14.1C103.5,33.3,103.7,33.3,104,33.8z M82.5,18.2
		c0.3-0.6,0.6-0.7,1.2-0.4C89.7,20.5,95,24,99.6,28.6c0.5,0.6,0.6,0.7-0.2,1.2c-8.5,4.8-16.9,9.7-25.3,14.6c-0.5,0.3-1,0.5-1.6,0.1
		c-1.3-0.7-2.8-1-4.4-1.4c3.6-6.3,7.2-12.4,10.7-18.6C80.1,22.5,81.3,20.4,82.5,18.2z M58.5,14.1c6.6-0.7,13.1-0.1,19.6,1.7
		c-5.1,8.9-10.2,17.6-15.2,26.3c-0.3,0.4-0.5,0.7-1.1,0.7c-1.4,0.2-2.7,0.4-4,0.8c-0.5,0.2-0.7-0.1-0.6-0.5c0-0.3,0-0.5,0-0.8
		c0-8.9,0-17.8,0-26.7C57.1,14.7,57.3,14.2,58.5,14.1z M35,23c5.1-3.6,10.7-6.2,17-7.8v2.7c0,9.1,0,18.3,0,27.5
		c0,0.7-0.1,1.2-0.8,1.7c-1,0.7-1.9,1.5-2.7,2.4c-0.4,0.5-0.6,0.5-1-0.1c-3.2-5.6-6.4-11.1-9.6-16.7c-0.3-0.5-0.2-0.8,0.3-1.1
		c1-0.7,1.9-1.4,2.8-2c1.4-1,1.7-2.5,0.9-3.7c-0.9-1.2-2.4-1.4-3.8-0.4c-0.6,0.4-1.4,0.8-1.9,1.4c-1,1-1.4,0.6-1.9-0.4
		C33.2,24.3,33.2,24.3,35,23z M17.9,44.1c2.8-6.3,7.4-13,11.5-16.3c5,8.7,10.1,17.4,15.1,26.1c0.2,0.4,0.5,0.8,0.2,1.3
		c-0.7,1.4-1.2,3-1.5,4.7c-2.7-1.6-5.3-3.1-7.8-4.5c-5.6-3.3-11.3-6.5-16.9-9.8C17.6,45.2,17.5,44.9,17.9,44.1z M14.1,69.6
		c-0.8-5.4,0-15.1,1.8-19.6c6.4,3.7,12.9,7.4,19.3,11.1c2.3,1.3,4.5,2.6,6.8,3.9c0.6,0.3,0.9,0.7,0.9,1.3c0.1,1.2,0.3,2.4,0.7,3.5
		c0.3,0.9,0,1-0.7,1c-3.9,0-7.8,0-11.7,0c-5.2,0-10.4,0-15.6,0C14.4,70.9,14.2,70.5,14.1,69.6z M23.9,94.2c-4.1-5.5-7-11.5-8.7-18.2
		h1.9c9.4,0,18.8,0,28.1,0c0.8,0,1.4,0.2,1.9,0.9c0.6,1,1.4,1.8,2.3,2.6c0.5,0.4,0.4,0.7-0.1,1c-8.1,4.7-16.2,9.4-24.3,14.1
		C24.3,94.8,24.1,94.6,23.9,94.2z M45.3,110.1c-0.1,0.2-0.2,0.4-0.4,0.4c-0.2-0.1-0.5-0.2-0.7-0.3c-5.9-2.6-11.1-6.1-15.7-10.6
		c-0.8-0.8-0.5-1,0.2-1.4c8.3-4.8,16.7-9.6,25-14.4c0.7-0.4,1.3-0.5,2-0.1c1,0.5,2.1,0.9,3.3,1.1c1.2,0.2,0.6,0.7,0.3,1.2
		c-4.4,7.6-8.7,15.2-13.1,22.7C45.9,109.1,45.6,109.6,45.3,110.1z M69.8,113.9c-6.7,0.8-13.2,0.2-19.9-1.7
		c4.7-8.1,9.3-16.1,13.9-24.1c1-1.8,2-3.4,4.4-3.2c0.2,0,0.5-0.1,0.7-0.1c1.9-0.5,1.9-0.5,1.9,1.4c0,8.9,0,17.7,0,26.6
		C70.8,113.5,70.6,113.8,69.8,113.9z M63.9,80.3C55,80.2,47.7,72.8,47.7,64c0-8.9,7.5-16.3,16.3-16.2C73,47.9,80.3,55.2,80.2,64
		C80.2,72.9,72.7,80.3,63.9,80.3z M94.2,104.1c-5.5,4.1-11.5,7-18.3,8.7v-6.7c0-7.8,0-15.7,0-23.5c0-0.7,0.2-1.2,0.8-1.6
		c1-0.7,1.9-1.5,2.7-2.4c0.4-0.5,0.7-0.4,1,0.1c3.2,5.5,6.4,11.1,9.6,16.6c0.3,0.5,0.3,0.9-0.3,1.2c-1,0.6-1.9,1.4-2.8,2
		c-1.4,1.1-1.7,2.5-0.8,3.8c0.8,1.2,2.4,1.3,3.8,0.3c0.3-0.2,0.6-0.5,0.9-0.7c0.7-0.5,1.7-1.6,2-1.3c0.8,0.6,1.2,1.8,1.8,2.7
		C94.9,103.8,94.4,103.9,94.2,104.1z M110.2,83.7c-2.6,5.9-6.2,11.3-10.8,15.9c-0.7,0.7-0.9,0.4-1.2-0.2
		c-4.8-8.4-9.7-16.8-14.6-25.2c-0.4-0.6-0.4-1.1-0.1-1.7c0.6-1.2,0.9-2.4,1.2-3.6c0.1-0.2-0.1-0.5,0.4-0.5c0.2,0.1,0.4,0.2,0.6,0.3
		c8,4.6,16,9.3,24,13.9C110.3,82.8,110.5,83.1,110.2,83.7z M85.9,62.9c-0.4-0.3-0.7-0.5-0.8-1.1c-0.2-1.4-0.3-2.7-0.8-4
		c-0.2-0.5,0-0.7,0.5-0.6c0.2,0,0.5,0,0.8,0c8.9,0,17.8,0,26.7,0c1.2,0,1.5,0.3,1.6,1.4c0.7,6.6,0.1,13-1.8,19.5
		C103.3,73,94.6,67.9,85.9,62.9z M81.6,101.8c-1.4,0-2.7,1.3-2.6,2.7c0.1,1.4,1.2,2.5,2.5,2.4c1.4,0,2.7-1.3,2.6-2.6
		C84.1,103,82.9,101.8,81.6,101.8z M64,51.5c-6.9,0-12.5,5.6-12.5,12.5S57.1,76.5,64,76.5c6.8,0,12.5-5.6,12.5-12.4
		C76.5,57.2,70.9,51.5,64,51.5z M64,71.5c-4,0-7.5-3.5-7.5-7.5c0-4,3.5-7.5,7.5-7.5c4,0,7.5,3.5,7.5,7.5C71.4,68.1,68,71.5,64,71.5z
		 M46.3,26.2c1.4,0,2.7-1.2,2.7-2.6c0-1.4-1.2-2.5-2.6-2.5c-1.4,0-2.5,1.3-2.5,2.6C43.8,25,45,26.2,46.3,26.2z M46.4,21.1
		c-1.4,0-2.5,1.3-2.5,2.6c0,1.3,1.2,2.5,2.5,2.5c1.4,0,2.7-1.2,2.7-2.6C49,22.3,47.7,21.1,46.4,21.1z M81.6,101.8
		c-1.4,0-2.7,1.3-2.6,2.7c0.1,1.4,1.2,2.5,2.5,2.4c1.4,0,2.7-1.3,2.6-2.6C84.1,103,82.9,101.8,81.6,101.8z M81.6,101.8
		c-1.4,0-2.7,1.3-2.6,2.7c0.1,1.4,1.2,2.5,2.5,2.4c1.4,0,2.7-1.3,2.6-2.6C84.1,103,82.9,101.8,81.6,101.8z M46.4,21.1
		c-1.4,0-2.5,1.3-2.5,2.6c0,1.3,1.2,2.5,2.5,2.5c1.4,0,2.7-1.2,2.7-2.6C49,22.3,47.7,21.1,46.4,21.1z M64.1,8.8
		C33.6,8.7,8.8,33.4,8.7,63.9c-0.1,30.5,24.6,55.3,55.1,55.4c30.5,0.1,55.3-24.6,55.4-55.1C119.3,33.7,94.6,8.8,64.1,8.8z M104,33.8
		c4.1,5.5,7,11.5,8.7,18.3H109c-8.8,0-17.6,0-26.4,0c-0.7,0-1.2-0.2-1.6-0.8c-0.6-1-1.4-1.8-2.3-2.6c-0.4-0.4-0.6-0.7,0.1-1.1
		c8.1-4.7,16.3-9.4,24.4-14.1C103.5,33.3,103.7,33.3,104,33.8z M82.5,18.2c0.3-0.6,0.6-0.7,1.2-0.4C89.7,20.5,95,24,99.6,28.6
		c0.5,0.6,0.6,0.7-0.2,1.2c-8.5,4.8-16.9,9.7-25.3,14.6c-0.5,0.3-1,0.5-1.6,0.1c-1.3-0.7-2.8-1-4.4-1.4c3.6-6.3,7.2-12.4,10.7-18.6
		C80.1,22.5,81.3,20.4,82.5,18.2z M58.5,14.1c6.6-0.7,13.1-0.1,19.6,1.7c-5.1,8.9-10.2,17.6-15.2,26.3c-0.3,0.4-0.5,0.7-1.1,0.7
		c-1.4,0.2-2.7,0.4-4,0.8c-0.5,0.2-0.7-0.1-0.6-0.5c0-0.3,0-0.5,0-0.8c0-8.9,0-17.8,0-26.7C57.1,14.7,57.3,14.2,58.5,14.1z M35,23
		c5.1-3.6,10.7-6.2,17-7.8v2.7c0,9.1,0,18.3,0,27.5c0,0.7-0.1,1.2-0.8,1.7c-1,0.7-1.9,1.5-2.7,2.4c-0.4,0.5-0.6,0.5-1-0.1
		c-3.2-5.6-6.4-11.1-9.6-16.7c-0.3-0.5-0.2-0.8,0.3-1.1c1-0.7,1.9-1.4,2.8-2c1.4-1,1.7-2.5,0.9-3.7c-0.9-1.2-2.4-1.4-3.8-0.4
		c-0.6,0.4-1.4,0.8-1.9,1.4c-1,1-1.4,0.6-1.9-0.4C33.2,24.3,33.2,24.3,35,23z M17.9,44.1c2.8-6.3,7.4-13,11.5-16.3
		c5,8.7,10.1,17.4,15.1,26.1c0.2,0.4,0.5,0.8,0.2,1.3c-0.7,1.4-1.2,3-1.5,4.7c-2.7-1.6-5.3-3.1-7.8-4.5c-5.6-3.3-11.3-6.5-16.9-9.8
		C17.6,45.2,17.5,44.9,17.9,44.1z M14.1,69.6c-0.8-5.4,0-15.1,1.8-19.6c6.4,3.7,12.9,7.4,19.3,11.1c2.3,1.3,4.5,2.6,6.8,3.9
		c0.6,0.3,0.9,0.7,0.9,1.3c0.1,1.2,0.3,2.4,0.7,3.5c0.3,0.9,0,1-0.7,1c-3.9,0-7.8,0-11.7,0c-5.2,0-10.4,0-15.6,0
		C14.4,70.9,14.2,70.5,14.1,69.6z M23.9,94.2c-4.1-5.5-7-11.5-8.7-18.2h1.9c9.4,0,18.8,0,28.1,0c0.8,0,1.4,0.2,1.9,0.9
		c0.6,1,1.4,1.8,2.3,2.6c0.5,0.4,0.4,0.7-0.1,1c-8.1,4.7-16.2,9.4-24.3,14.1C24.3,94.8,24.1,94.6,23.9,94.2z M45.3,110.1
		c-0.1,0.2-0.2,0.4-0.4,0.4c-0.2-0.1-0.5-0.2-0.7-0.3c-5.9-2.6-11.1-6.1-15.7-10.6c-0.8-0.8-0.5-1,0.2-1.4c8.3-4.8,16.7-9.6,25-14.4
		c0.7-0.4,1.3-0.5,2-0.1c1,0.5,2.1,0.9,3.3,1.1c1.2,0.2,0.6,0.7,0.3,1.2c-4.4,7.6-8.7,15.2-13.1,22.7
		C45.9,109.1,45.6,109.6,45.3,110.1z M69.8,113.9c-6.7,0.8-13.2,0.2-19.9-1.7c4.7-8.1,9.3-16.1,13.9-24.1c1-1.8,2-3.4,4.4-3.2
		c0.2,0,0.5-0.1,0.7-0.1c1.9-0.5,1.9-0.5,1.9,1.4c0,8.9,0,17.7,0,26.6C70.8,113.5,70.6,113.8,69.8,113.9z M63.9,80.3
		C55,80.2,47.7,72.8,47.7,64c0-8.9,7.5-16.3,16.3-16.2C73,47.9,80.3,55.2,80.2,64C80.2,72.9,72.7,80.3,63.9,80.3z M94.2,104.1
		c-5.5,4.1-11.5,7-18.3,8.7v-6.7c0-7.8,0-15.7,0-23.5c0-0.7,0.2-1.2,0.8-1.6c1-0.7,1.9-1.5,2.7-2.4c0.4-0.5,0.7-0.4,1,0.1
		c3.2,5.5,6.4,11.1,9.6,16.6c0.3,0.5,0.3,0.9-0.3,1.2c-1,0.6-1.9,1.4-2.8,2c-1.4,1.1-1.7,2.5-0.8,3.8c0.8,1.2,2.4,1.3,3.8,0.3
		c0.3-0.2,0.6-0.5,0.9-0.7c0.7-0.5,1.7-1.6,2-1.3c0.8,0.6,1.2,1.8,1.8,2.7C94.9,103.8,94.4,103.9,94.2,104.1z M110.2,83.7
		c-2.6,5.9-6.2,11.3-10.8,15.9c-0.7,0.7-0.9,0.4-1.2-0.2c-4.8-8.4-9.7-16.8-14.6-25.2c-0.4-0.6-0.4-1.1-0.1-1.7
		c0.6-1.2,0.9-2.4,1.2-3.6c0.1-0.2-0.1-0.5,0.4-0.5c0.2,0.1,0.4,0.2,0.6,0.3c8,4.6,16,9.3,24,13.9C110.3,82.8,110.5,83.1,110.2,83.7
		z M85.9,62.9c-0.4-0.3-0.7-0.5-0.8-1.1c-0.2-1.4-0.3-2.7-0.8-4c-0.2-0.5,0-0.7,0.5-0.6c0.2,0,0.5,0,0.8,0c8.9,0,17.8,0,26.7,0
		c1.2,0,1.5,0.3,1.6,1.4c0.7,6.6,0.1,13-1.8,19.5C103.3,73,94.6,67.9,85.9,62.9z M81.6,101.8c-1.4,0-2.7,1.3-2.6,2.7
		c0.1,1.4,1.2,2.5,2.5,2.4c1.4,0,2.7-1.3,2.6-2.6C84.1,103,82.9,101.8,81.6,101.8z M64,51.5c-6.9,0-12.5,5.6-12.5,12.5
		S57.1,76.5,64,76.5c6.8,0,12.5-5.6,12.5-12.4C76.5,57.2,70.9,51.5,64,51.5z M64,71.5c-4,0-7.5-3.5-7.5-7.5c0-4,3.5-7.5,7.5-7.5
		c4,0,7.5,3.5,7.5,7.5C71.4,68.1,68,71.5,64,71.5z M46.3,26.2c1.4,0,2.7-1.2,2.7-2.6c0-1.4-1.2-2.5-2.6-2.5c-1.4,0-2.5,1.3-2.5,2.6
		C43.8,25,45,26.2,46.3,26.2z M46.4,21.1c-1.4,0-2.5,1.3-2.5,2.6c0,1.3,1.2,2.5,2.5,2.5c1.4,0,2.7-1.2,2.7-2.6
		C49,22.3,47.7,21.1,46.4,21.1z M81.6,101.8c-1.4,0-2.7,1.3-2.6,2.7c0.1,1.4,1.2,2.5,2.5,2.4c1.4,0,2.7-1.3,2.6-2.6
		C84.1,103,82.9,101.8,81.6,101.8z M81.6,101.8c-1.4,0-2.7,1.3-2.6,2.7c0.1,1.4,1.2,2.5,2.5,2.4c1.4,0,2.7-1.3,2.6-2.6
		C84.1,103,82.9,101.8,81.6,101.8z M46.4,21.1c-1.4,0-2.5,1.3-2.5,2.6c0,1.3,1.2,2.5,2.5,2.5c1.4,0,2.7-1.2,2.7-2.6
		C49,22.3,47.7,21.1,46.4,21.1z M46.4,21.1c-1.4,0-2.5,1.3-2.5,2.6c0,1.3,1.2,2.5,2.5,2.5c1.4,0,2.7-1.2,2.7-2.6
		C49,22.3,47.7,21.1,46.4,21.1z M81.6,101.8c-1.4,0-2.7,1.3-2.6,2.7c0.1,1.4,1.2,2.5,2.5,2.4c1.4,0,2.7-1.3,2.6-2.6
		C84.1,103,82.9,101.8,81.6,101.8z M81.6,101.8c-1.4,0-2.7,1.3-2.6,2.7c0.1,1.4,1.2,2.5,2.5,2.4c1.4,0,2.7-1.3,2.6-2.6
		C84.1,103,82.9,101.8,81.6,101.8z M46.4,21.1c-1.4,0-2.5,1.3-2.5,2.6c0,1.3,1.2,2.5,2.5,2.5c1.4,0,2.7-1.2,2.7-2.6
		C49,22.3,47.7,21.1,46.4,21.1z M46.4,21.1c-1.4,0-2.5,1.3-2.5,2.6c0,1.3,1.2,2.5,2.5,2.5c1.4,0,2.7-1.2,2.7-2.6
		C49,22.3,47.7,21.1,46.4,21.1z M81.6,101.8c-1.4,0-2.7,1.3-2.6,2.7c0.1,1.4,1.2,2.5,2.5,2.4c1.4,0,2.7-1.3,2.6-2.6
		C84.1,103,82.9,101.8,81.6,101.8z M81.6,101.8c-1.4,0-2.7,1.3-2.6,2.7c0.1,1.4,1.2,2.5,2.5,2.4c1.4,0,2.7-1.3,2.6-2.6
		C84.1,103,82.9,101.8,81.6,101.8z M46.4,21.1c-1.4,0-2.5,1.3-2.5,2.6c0,1.3,1.2,2.5,2.5,2.5c1.4,0,2.7-1.2,2.7-2.6
		C49,22.3,47.7,21.1,46.4,21.1z M64.1,8.8C33.6,8.7,8.8,33.4,8.7,63.9c-0.1,30.5,24.6,55.3,55.1,55.4c30.5,0.1,55.3-24.6,55.4-55.1
		C119.3,33.7,94.6,8.8,64.1,8.8z M104,33.8c4.1,5.5,7,11.5,8.7,18.3H109c-8.8,0-17.6,0-26.4,0c-0.7,0-1.2-0.2-1.6-0.8
		c-0.6-1-1.4-1.8-2.3-2.6c-0.4-0.4-0.6-0.7,0.1-1.1c8.1-4.7,16.3-9.4,24.4-14.1C103.5,33.3,103.7,33.3,104,33.8z M82.5,18.2
		c0.3-0.6,0.6-0.7,1.2-0.4C89.7,20.5,95,24,99.6,28.6c0.5,0.6,0.6,0.7-0.2,1.2c-8.5,4.8-16.9,9.7-25.3,14.6c-0.5,0.3-1,0.5-1.6,0.1
		c-1.3-0.7-2.8-1-4.4-1.4c3.6-6.3,7.2-12.4,10.7-18.6C80.1,22.5,81.3,20.4,82.5,18.2z M58.5,14.1c6.6-0.7,13.1-0.1,19.6,1.7
		c-5.1,8.9-10.2,17.6-15.2,26.3c-0.3,0.4-0.5,0.7-1.1,0.7c-1.4,0.2-2.7,0.4-4,0.8c-0.5,0.2-0.7-0.1-0.6-0.5c0-0.3,0-0.5,0-0.8
		c0-8.9,0-17.8,0-26.7C57.1,14.7,57.3,14.2,58.5,14.1z M35,23c5.1-3.6,10.7-6.2,17-7.8v2.7c0,9.1,0,18.3,0,27.5
		c0,0.7-0.1,1.2-0.8,1.7c-1,0.7-1.9,1.5-2.7,2.4c-0.4,0.5-0.6,0.5-1-0.1c-3.2-5.6-6.4-11.1-9.6-16.7c-0.3-0.5-0.2-0.8,0.3-1.1
		c1-0.7,1.9-1.4,2.8-2c1.4-1,1.7-2.5,0.9-3.7c-0.9-1.2-2.4-1.4-3.8-0.4c-0.6,0.4-1.4,0.8-1.9,1.4c-1,1-1.4,0.6-1.9-0.4
		C33.2,24.3,33.2,24.3,35,23z M17.9,44.1c2.8-6.3,7.4-13,11.5-16.3c5,8.7,10.1,17.4,15.1,26.1c0.2,0.4,0.5,0.8,0.2,1.3
		c-0.7,1.4-1.2,3-1.5,4.7c-2.7-1.6-5.3-3.1-7.8-4.5c-5.6-3.3-11.3-6.5-16.9-9.8C17.6,45.2,17.5,44.9,17.9,44.1z M14.1,69.6
		c-0.8-5.4,0-15.1,1.8-19.6c6.4,3.7,12.9,7.4,19.3,11.1c2.3,1.3,4.5,2.6,6.8,3.9c0.6,0.3,0.9,0.7,0.9,1.3c0.1,1.2,0.3,2.4,0.7,3.5
		c0.3,0.9,0,1-0.7,1c-3.9,0-7.8,0-11.7,0c-5.2,0-10.4,0-15.6,0C14.4,70.9,14.2,70.5,14.1,69.6z M23.9,94.2c-4.1-5.5-7-11.5-8.7-18.2
		h1.9c9.4,0,18.8,0,28.1,0c0.8,0,1.4,0.2,1.9,0.9c0.6,1,1.4,1.8,2.3,2.6c0.5,0.4,0.4,0.7-0.1,1c-8.1,4.7-16.2,9.4-24.3,14.1
		C24.3,94.8,24.1,94.6,23.9,94.2z M45.3,110.1c-0.1,0.2-0.2,0.4-0.4,0.4c-0.2-0.1-0.5-0.2-0.7-0.3c-5.9-2.6-11.1-6.1-15.7-10.6
		c-0.8-0.8-0.5-1,0.2-1.4c8.3-4.8,16.7-9.6,25-14.4c0.7-0.4,1.3-0.5,2-0.1c1,0.5,2.1,0.9,3.3,1.1c1.2,0.2,0.6,0.7,0.3,1.2
		c-4.4,7.6-8.7,15.2-13.1,22.7C45.9,109.1,45.6,109.6,45.3,110.1z M69.8,113.9c-6.7,0.8-13.2,0.2-19.9-1.7
		c4.7-8.1,9.3-16.1,13.9-24.1c1-1.8,2-3.4,4.4-3.2c0.2,0,0.5-0.1,0.7-0.1c1.9-0.5,1.9-0.5,1.9,1.4c0,8.9,0,17.7,0,26.6
		C70.8,113.5,70.6,113.8,69.8,113.9z M63.9,80.3C55,80.2,47.7,72.8,47.7,64c0-8.9,7.5-16.3,16.3-16.2C73,47.9,80.3,55.2,80.2,64
		C80.2,72.9,72.7,80.3,63.9,80.3z M94.2,104.1c-5.5,4.1-11.5,7-18.3,8.7v-6.7c0-7.8,0-15.7,0-23.5c0-0.7,0.2-1.2,0.8-1.6
		c1-0.7,1.9-1.5,2.7-2.4c0.4-0.5,0.7-0.4,1,0.1c3.2,5.5,6.4,11.1,9.6,16.6c0.3,0.5,0.3,0.9-0.3,1.2c-1,0.6-1.9,1.4-2.8,2
		c-1.4,1.1-1.7,2.5-0.8,3.8c0.8,1.2,2.4,1.3,3.8,0.3c0.3-0.2,0.6-0.5,0.9-0.7c0.7-0.5,1.7-1.6,2-1.3c0.8,0.6,1.2,1.8,1.8,2.7
		C94.9,103.8,94.4,103.9,94.2,104.1z M110.2,83.7c-2.6,5.9-6.2,11.3-10.8,15.9c-0.7,0.7-0.9,0.4-1.2-0.2
		c-4.8-8.4-9.7-16.8-14.6-25.2c-0.4-0.6-0.4-1.1-0.1-1.7c0.6-1.2,0.9-2.4,1.2-3.6c0.1-0.2-0.1-0.5,0.4-0.5c0.2,0.1,0.4,0.2,0.6,0.3
		c8,4.6,16,9.3,24,13.9C110.3,82.8,110.5,83.1,110.2,83.7z M85.9,62.9c-0.4-0.3-0.7-0.5-0.8-1.1c-0.2-1.4-0.3-2.7-0.8-4
		c-0.2-0.5,0-0.7,0.5-0.6c0.2,0,0.5,0,0.8,0c8.9,0,17.8,0,26.7,0c1.2,0,1.5,0.3,1.6,1.4c0.7,6.6,0.1,13-1.8,19.5
		C103.3,73,94.6,67.9,85.9,62.9z M81.6,101.8c-1.4,0-2.7,1.3-2.6,2.7c0.1,1.4,1.2,2.5,2.5,2.4c1.4,0,2.7-1.3,2.6-2.6
		C84.1,103,82.9,101.8,81.6,101.8z M64,51.5c-6.9,0-12.5,5.6-12.5,12.5S57.1,76.5,64,76.5c6.8,0,12.5-5.6,12.5-12.4
		C76.5,57.2,70.9,51.5,64,51.5z M64,71.5c-4,0-7.5-3.5-7.5-7.5c0-4,3.5-7.5,7.5-7.5c4,0,7.5,3.5,7.5,7.5C71.4,68.1,68,71.5,64,71.5z
		 M46.3,26.2c1.4,0,2.7-1.2,2.7-2.6c0-1.4-1.2-2.5-2.6-2.5c-1.4,0-2.5,1.3-2.5,2.6C43.8,25,45,26.2,46.3,26.2z M46.4,21.1
		c-1.4,0-2.5,1.3-2.5,2.6c0,1.3,1.2,2.5,2.5,2.5c1.4,0,2.7-1.2,2.7-2.6C49,22.3,47.7,21.1,46.4,21.1z M81.6,101.8
		c-1.4,0-2.7,1.3-2.6,2.7c0.1,1.4,1.2,2.5,2.5,2.4c1.4,0,2.7-1.3,2.6-2.6C84.1,103,82.9,101.8,81.6,101.8z M81.6,101.8
		c-1.4,0-2.7,1.3-2.6,2.7c0.1,1.4,1.2,2.5,2.5,2.4c1.4,0,2.7-1.3,2.6-2.6C84.1,103,82.9,101.8,81.6,101.8z M46.4,21.1
		c-1.4,0-2.5,1.3-2.5,2.6c0,1.3,1.2,2.5,2.5,2.5c1.4,0,2.7-1.2,2.7-2.6C49,22.3,47.7,21.1,46.4,21.1z M46.4,21.1
		c-1.4,0-2.5,1.3-2.5,2.6c0,1.3,1.2,2.5,2.5,2.5c1.4,0,2.7-1.2,2.7-2.6C49,22.3,47.7,21.1,46.4,21.1z M81.6,101.8
		c-1.4,0-2.7,1.3-2.6,2.7c0.1,1.4,1.2,2.5,2.5,2.4c1.4,0,2.7-1.3,2.6-2.6C84.1,103,82.9,101.8,81.6,101.8z M81.6,101.8
		c-1.4,0-2.7,1.3-2.6,2.7c0.1,1.4,1.2,2.5,2.5,2.4c1.4,0,2.7-1.3,2.6-2.6C84.1,103,82.9,101.8,81.6,101.8z M46.4,21.1
		c-1.4,0-2.5,1.3-2.5,2.6c0,1.3,1.2,2.5,2.5,2.5c1.4,0,2.7-1.2,2.7-2.6C49,22.3,47.7,21.1,46.4,21.1z M46.4,21.1
		c-1.4,0-2.5,1.3-2.5,2.6c0,1.3,1.2,2.5,2.5,2.5c1.4,0,2.7-1.2,2.7-2.6C49,22.3,47.7,21.1,46.4,21.1z M81.6,101.8
		c-1.4,0-2.7,1.3-2.6,2.7c0.1,1.4,1.2,2.5,2.5,2.4c1.4,0,2.7-1.3,2.6-2.6C84.1,103,82.9,101.8,81.6,101.8z M81.6,101.8
		c-1.4,0-2.7,1.3-2.6,2.7c0.1,1.4,1.2,2.5,2.5,2.4c1.4,0,2.7-1.3,2.6-2.6C84.1,103,82.9,101.8,81.6,101.8z M46.4,21.1
		c-1.4,0-2.5,1.3-2.5,2.6c0,1.3,1.2,2.5,2.5,2.5c1.4,0,2.7-1.2,2.7-2.6C49,22.3,47.7,21.1,46.4,21.1z M64.1,8.8
		C33.6,8.7,8.8,33.4,8.7,63.9c-0.1,30.5,24.6,55.3,55.1,55.4c30.5,0.1,55.3-24.6,55.4-55.1C119.3,33.7,94.6,8.8,64.1,8.8z M104,33.8
		c4.1,5.5,7,11.5,8.7,18.3H109c-8.8,0-17.6,0-26.4,0c-0.7,0-1.2-0.2-1.6-0.8c-0.6-1-1.4-1.8-2.3-2.6c-0.4-0.4-0.6-0.7,0.1-1.1
		c8.1-4.7,16.3-9.4,24.4-14.1C103.5,33.3,103.7,33.3,104,33.8z M82.5,18.2c0.3-0.6,0.6-0.7,1.2-0.4C89.7,20.5,95,24,99.6,28.6
		c0.5,0.6,0.6,0.7-0.2,1.2c-8.5,4.8-16.9,9.7-25.3,14.6c-0.5,0.3-1,0.5-1.6,0.1c-1.3-0.7-2.8-1-4.4-1.4c3.6-6.3,7.2-12.4,10.7-18.6
		C80.1,22.5,81.3,20.4,82.5,18.2z M58.5,14.1c6.6-0.7,13.1-0.1,19.6,1.7c-5.1,8.9-10.2,17.6-15.2,26.3c-0.3,0.4-0.5,0.7-1.1,0.7
		c-1.4,0.2-2.7,0.4-4,0.8c-0.5,0.2-0.7-0.1-0.6-0.5c0-0.3,0-0.5,0-0.8c0-8.9,0-17.8,0-26.7C57.1,14.7,57.3,14.2,58.5,14.1z M35,23
		c5.1-3.6,10.7-6.2,17-7.8v2.7c0,9.1,0,18.3,0,27.5c0,0.7-0.1,1.2-0.8,1.7c-1,0.7-1.9,1.5-2.7,2.4c-0.4,0.5-0.6,0.5-1-0.1
		c-3.2-5.6-6.4-11.1-9.6-16.7c-0.3-0.5-0.2-0.8,0.3-1.1c1-0.7,1.9-1.4,2.8-2c1.4-1,1.7-2.5,0.9-3.7c-0.9-1.2-2.4-1.4-3.8-0.4
		c-0.6,0.4-1.4,0.8-1.9,1.4c-1,1-1.4,0.6-1.9-0.4C33.2,24.3,33.2,24.3,35,23z M17.9,44.1c2.8-6.3,7.4-13,11.5-16.3
		c5,8.7,10.1,17.4,15.1,26.1c0.2,0.4,0.5,0.8,0.2,1.3c-0.7,1.4-1.2,3-1.5,4.7c-2.7-1.6-5.3-3.1-7.8-4.5c-5.6-3.3-11.3-6.5-16.9-9.8
		C17.6,45.2,17.5,44.9,17.9,44.1z M14.1,69.6c-0.8-5.4,0-15.1,1.8-19.6c6.4,3.7,12.9,7.4,19.3,11.1c2.3,1.3,4.5,2.6,6.8,3.9
		c0.6,0.3,0.9,0.7,0.9,1.3c0.1,1.2,0.3,2.4,0.7,3.5c0.3,0.9,0,1-0.7,1c-3.9,0-7.8,0-11.7,0c-5.2,0-10.4,0-15.6,0
		C14.4,70.9,14.2,70.5,14.1,69.6z M23.9,94.2c-4.1-5.5-7-11.5-8.7-18.2h1.9c9.4,0,18.8,0,28.1,0c0.8,0,1.4,0.2,1.9,0.9
		c0.6,1,1.4,1.8,2.3,2.6c0.5,0.4,0.4,0.7-0.1,1c-8.1,4.7-16.2,9.4-24.3,14.1C24.3,94.8,24.1,94.6,23.9,94.2z M45.3,110.1
		c-0.1,0.2-0.2,0.4-0.4,0.4c-0.2-0.1-0.5-0.2-0.7-0.3c-5.9-2.6-11.1-6.1-15.7-10.6c-0.8-0.8-0.5-1,0.2-1.4c8.3-4.8,16.7-9.6,25-14.4
		c0.7-0.4,1.3-0.5,2-0.1c1,0.5,2.1,0.9,3.3,1.1c1.2,0.2,0.6,0.7,0.3,1.2c-4.4,7.6-8.7,15.2-13.1,22.7
		C45.9,109.1,45.6,109.6,45.3,110.1z M69.8,113.9c-6.7,0.8-13.2,0.2-19.9-1.7c4.7-8.1,9.3-16.1,13.9-24.1c1-1.8,2-3.4,4.4-3.2
		c0.2,0,0.5-0.1,0.7-0.1c1.9-0.5,1.9-0.5,1.9,1.4c0,8.9,0,17.7,0,26.6C70.8,113.5,70.6,113.8,69.8,113.9z M63.9,80.3
		C55,80.2,47.7,72.8,47.7,64c0-8.9,7.5-16.3,16.3-16.2C73,47.9,80.3,55.2,80.2,64C80.2,72.9,72.7,80.3,63.9,80.3z M94.2,104.1
		c-5.5,4.1-11.5,7-18.3,8.7v-6.7c0-7.8,0-15.7,0-23.5c0-0.7,0.2-1.2,0.8-1.6c1-0.7,1.9-1.5,2.7-2.4c0.4-0.5,0.7-0.4,1,0.1
		c3.2,5.5,6.4,11.1,9.6,16.6c0.3,0.5,0.3,0.9-0.3,1.2c-1,0.6-1.9,1.4-2.8,2c-1.4,1.1-1.7,2.5-0.8,3.8c0.8,1.2,2.4,1.3,3.8,0.3
		c0.3-0.2,0.6-0.5,0.9-0.7c0.7-0.5,1.7-1.6,2-1.3c0.8,0.6,1.2,1.8,1.8,2.7C94.9,103.8,94.4,103.9,94.2,104.1z M110.2,83.7
		c-2.6,5.9-6.2,11.3-10.8,15.9c-0.7,0.7-0.9,0.4-1.2-0.2c-4.8-8.4-9.7-16.8-14.6-25.2c-0.4-0.6-0.4-1.1-0.1-1.7
		c0.6-1.2,0.9-2.4,1.2-3.6c0.1-0.2-0.1-0.5,0.4-0.5c0.2,0.1,0.4,0.2,0.6,0.3c8,4.6,16,9.3,24,13.9C110.3,82.8,110.5,83.1,110.2,83.7
		z M85.9,62.9c-0.4-0.3-0.7-0.5-0.8-1.1c-0.2-1.4-0.3-2.7-0.8-4c-0.2-0.5,0-0.7,0.5-0.6c0.2,0,0.5,0,0.8,0c8.9,0,17.8,0,26.7,0
		c1.2,0,1.5,0.3,1.6,1.4c0.7,6.6,0.1,13-1.8,19.5C103.3,73,94.6,67.9,85.9,62.9z M81.6,101.8c-1.4,0-2.7,1.3-2.6,2.7
		c0.1,1.4,1.2,2.5,2.5,2.4c1.4,0,2.7-1.3,2.6-2.6C84.1,103,82.9,101.8,81.6,101.8z M64,51.5c-6.9,0-12.5,5.6-12.5,12.5
		S57.1,76.5,64,76.5c6.8,0,12.5-5.6,12.5-12.4C76.5,57.2,70.9,51.5,64,51.5z M64,71.5c-4,0-7.5-3.5-7.5-7.5c0-4,3.5-7.5,7.5-7.5
		c4,0,7.5,3.5,7.5,7.5C71.4,68.1,68,71.5,64,71.5z M46.3,26.2c1.4,0,2.7-1.2,2.7-2.6c0-1.4-1.2-2.5-2.6-2.5c-1.4,0-2.5,1.3-2.5,2.6
		C43.8,25,45,26.2,46.3,26.2z M46.4,21.1c-1.4,0-2.5,1.3-2.5,2.6c0,1.3,1.2,2.5,2.5,2.5c1.4,0,2.7-1.2,2.7-2.6
		C49,22.3,47.7,21.1,46.4,21.1z M81.6,101.8c-1.4,0-2.7,1.3-2.6,2.7c0.1,1.4,1.2,2.5,2.5,2.4c1.4,0,2.7-1.3,2.6-2.6
		C84.1,103,82.9,101.8,81.6,101.8z M81.6,101.8c-1.4,0-2.7,1.3-2.6,2.7c0.1,1.4,1.2,2.5,2.5,2.4c1.4,0,2.7-1.3,2.6-2.6
		C84.1,103,82.9,101.8,81.6,101.8z M46.4,21.1c-1.4,0-2.5,1.3-2.5,2.6c0,1.3,1.2,2.5,2.5,2.5c1.4,0,2.7-1.2,2.7-2.6
		C49,22.3,47.7,21.1,46.4,21.1z M46.4,21.1c-1.4,0-2.5,1.3-2.5,2.6c0,1.3,1.2,2.5,2.5,2.5c1.4,0,2.7-1.2,2.7-2.6
		C49,22.3,47.7,21.1,46.4,21.1z M81.6,101.8c-1.4,0-2.7,1.3-2.6,2.7c0.1,1.4,1.2,2.5,2.5,2.4c1.4,0,2.7-1.3,2.6-2.6
		C84.1,103,82.9,101.8,81.6,101.8z M81.6,101.8c-1.4,0-2.7,1.3-2.6,2.7c0.1,1.4,1.2,2.5,2.5,2.4c1.4,0,2.7-1.3,2.6-2.6
		C84.1,103,82.9,101.8,81.6,101.8z M46.4,21.1c-1.4,0-2.5,1.3-2.5,2.6c0,1.3,1.2,2.5,2.5,2.5c1.4,0,2.7-1.2,2.7-2.6
		C49,22.3,47.7,21.1,46.4,21.1z M81.6,101.8c-1.4,0-2.7,1.3-2.6,2.7c0.1,1.4,1.2,2.5,2.5,2.4c1.4,0,2.7-1.3,2.6-2.6
		C84.1,103,82.9,101.8,81.6,101.8z M46.4,21.1c-1.4,0-2.5,1.3-2.5,2.6c0,1.3,1.2,2.5,2.5,2.5c1.4,0,2.7-1.2,2.7-2.6
		C49,22.3,47.7,21.1,46.4,21.1z M81.6,101.8c-1.4,0-2.7,1.3-2.6,2.7c0.1,1.4,1.2,2.5,2.5,2.4c1.4,0,2.7-1.3,2.6-2.6
		C84.1,103,82.9,101.8,81.6,101.8z M46.4,21.1c-1.4,0-2.5,1.3-2.5,2.6c0,1.3,1.2,2.5,2.5,2.5c1.4,0,2.7-1.2,2.7-2.6
		C49,22.3,47.7,21.1,46.4,21.1z M81.6,101.8c-1.4,0-2.7,1.3-2.6,2.7c0.1,1.4,1.2,2.5,2.5,2.4c1.4,0,2.7-1.3,2.6-2.6
		C84.1,103,82.9,101.8,81.6,101.8z M46.4,21.1c-1.4,0-2.5,1.3-2.5,2.6c0,1.3,1.2,2.5,2.5,2.5c1.4,0,2.7-1.2,2.7-2.6
		C49,22.3,47.7,21.1,46.4,21.1z M81.6,101.8c-1.4,0-2.7,1.3-2.6,2.7c0.1,1.4,1.2,2.5,2.5,2.4c1.4,0,2.7-1.3,2.6-2.6
		C84.1,103,82.9,101.8,81.6,101.8z M46.4,21.1c-1.4,0-2.5,1.3-2.5,2.6c0,1.3,1.2,2.5,2.5,2.5c1.4,0,2.7-1.2,2.7-2.6
		C49,22.3,47.7,21.1,46.4,21.1z M46.4,21.1c-1.4,0-2.5,1.3-2.5,2.6c0,1.3,1.2,2.5,2.5,2.5c1.4,0,2.7-1.2,2.7-2.6
		C49,22.3,47.7,21.1,46.4,21.1z M46.4,21.1c-1.4,0-2.5,1.3-2.5,2.6c0,1.3,1.2,2.5,2.5,2.5c1.4,0,2.7-1.2,2.7-2.6
		C49,22.3,47.7,21.1,46.4,21.1z M46.4,21.1c-1.4,0-2.5,1.3-2.5,2.6c0,1.3,1.2,2.5,2.5,2.5c1.4,0,2.7-1.2,2.7-2.6
		C49,22.3,47.7,21.1,46.4,21.1z M46.4,21.1c-1.4,0-2.5,1.3-2.5,2.6c0,1.3,1.2,2.5,2.5,2.5c1.4,0,2.7-1.2,2.7-2.6
		C49,22.3,47.7,21.1,46.4,21.1z M46.4,21.1c-1.4,0-2.5,1.3-2.5,2.6c0,1.3,1.2,2.5,2.5,2.5c1.4,0,2.7-1.2,2.7-2.6
		C49,22.3,47.7,21.1,46.4,21.1z M46.4,21.1c-1.4,0-2.5,1.3-2.5,2.6c0,1.3,1.2,2.5,2.5,2.5c1.4,0,2.7-1.2,2.7-2.6
		C49,22.3,47.7,21.1,46.4,21.1z"/>
	<path d="M63,0c-0.6,0.4-1.2,0.4-1.8,0C61.8,0,62.4,0,63,0z"/>
	<path d="M66.7,0c-0.6,0.4-1.2,0.4-1.8,0C65.6,0,66.1,0,66.7,0z"/>
	<path d="M128,63c-0.4-0.6-0.4-1.2,0-1.8C128,61.8,128,62.4,128,63z"/>
	<path d="M128,66.8c-0.4-0.6-0.4-1.2,0-1.8C128,65.6,128,66.2,128,66.8z"/>
	<path d="M46.4,21.1c-1.4,0-2.5,1.3-2.5,2.6c0,1.3,1.2,2.5,2.5,2.5c1.4,0,2.7-1.2,2.7-2.6C49,22.3,47.7,21.1,46.4,21.1z M46.4,21.1
		c-1.4,0-2.5,1.3-2.5,2.6c0,1.3,1.2,2.5,2.5,2.5c1.4,0,2.7-1.2,2.7-2.6C49,22.3,47.7,21.1,46.4,21.1z M46.4,21.1
		c-1.4,0-2.5,1.3-2.5,2.6c0,1.3,1.2,2.5,2.5,2.5c1.4,0,2.7-1.2,2.7-2.6C49,22.3,47.7,21.1,46.4,21.1z M46.4,21.1
		c-1.4,0-2.5,1.3-2.5,2.6c0,1.3,1.2,2.5,2.5,2.5c1.4,0,2.7-1.2,2.7-2.6C49,22.3,47.7,21.1,46.4,21.1z M46.4,21.1
		c-1.4,0-2.5,1.3-2.5,2.6c0,1.3,1.2,2.5,2.5,2.5c1.4,0,2.7-1.2,2.7-2.6C49,22.3,47.7,21.1,46.4,21.1z M46.4,21.1
		c-1.4,0-2.5,1.3-2.5,2.6c0,1.3,1.2,2.5,2.5,2.5c1.4,0,2.7-1.2,2.7-2.6C49,22.3,47.7,21.1,46.4,21.1z M46.4,21.1
		c-1.4,0-2.5,1.3-2.5,2.6c0,1.3,1.2,2.5,2.5,2.5c1.4,0,2.7-1.2,2.7-2.6C49,22.3,47.7,21.1,46.4,21.1z M81.6,101.8
		c-1.4,0-2.7,1.3-2.6,2.7c0.1,1.4,1.2,2.5,2.5,2.4c1.4,0,2.7-1.3,2.6-2.6C84.1,103,82.9,101.8,81.6,101.8z M46.4,21.1
		c-1.4,0-2.5,1.3-2.5,2.6c0,1.3,1.2,2.5,2.5,2.5c1.4,0,2.7-1.2,2.7-2.6C49,22.3,47.7,21.1,46.4,21.1z M81.6,101.8
		c-1.4,0-2.7,1.3-2.6,2.7c0.1,1.4,1.2,2.5,2.5,2.4c1.4,0,2.7-1.3,2.6-2.6C84.1,103,82.9,101.8,81.6,101.8z M46.4,21.1
		c-1.4,0-2.5,1.3-2.5,2.6c0,1.3,1.2,2.5,2.5,2.5c1.4,0,2.7-1.2,2.7-2.6C49,22.3,47.7,21.1,46.4,21.1z M81.6,101.8
		c-1.4,0-2.7,1.3-2.6,2.7c0.1,1.4,1.2,2.5,2.5,2.4c1.4,0,2.7-1.3,2.6-2.6C84.1,103,82.9,101.8,81.6,101.8z M46.4,21.1
		c-1.4,0-2.5,1.3-2.5,2.6c0,1.3,1.2,2.5,2.5,2.5c1.4,0,2.7-1.2,2.7-2.6C49,22.3,47.7,21.1,46.4,21.1z M81.6,101.8
		c-1.4,0-2.7,1.3-2.6,2.7c0.1,1.4,1.2,2.5,2.5,2.4c1.4,0,2.7-1.3,2.6-2.6C84.1,103,82.9,101.8,81.6,101.8z M46.4,21.1
		c-1.4,0-2.5,1.3-2.5,2.6c0,1.3,1.2,2.5,2.5,2.5c1.4,0,2.7-1.2,2.7-2.6C49,22.3,47.7,21.1,46.4,21.1z M81.6,101.8
		c-1.4,0-2.7,1.3-2.6,2.7c0.1,1.4,1.2,2.5,2.5,2.4c1.4,0,2.7-1.3,2.6-2.6C84.1,103,82.9,101.8,81.6,101.8z M46.4,21.1
		c-1.4,0-2.5,1.3-2.5,2.6c0,1.3,1.2,2.5,2.5,2.5c1.4,0,2.7-1.2,2.7-2.6C49,22.3,47.7,21.1,46.4,21.1z M81.6,101.8
		c-1.4,0-2.7,1.3-2.6,2.7c0.1,1.4,1.2,2.5,2.5,2.4c1.4,0,2.7-1.3,2.6-2.6C84.1,103,82.9,101.8,81.6,101.8z M46.4,21.1
		c-1.4,0-2.5,1.3-2.5,2.6c0,1.3,1.2,2.5,2.5,2.5c1.4,0,2.7-1.2,2.7-2.6C49,22.3,47.7,21.1,46.4,21.1z M81.6,101.8
		c-1.4,0-2.7,1.3-2.6,2.7c0.1,1.4,1.2,2.5,2.5,2.4c1.4,0,2.7-1.3,2.6-2.6C84.1,103,82.9,101.8,81.6,101.8z M81.6,101.8
		c-1.4,0-2.7,1.3-2.6,2.7c0.1,1.4,1.2,2.5,2.5,2.4c1.4,0,2.7-1.3,2.6-2.6C84.1,103,82.9,101.8,81.6,101.8z M46.4,21.1
		c-1.4,0-2.5,1.3-2.5,2.6c0,1.3,1.2,2.5,2.5,2.5c1.4,0,2.7-1.2,2.7-2.6C49,22.3,47.7,21.1,46.4,21.1z M46.4,21.1
		c-1.4,0-2.5,1.3-2.5,2.6c0,1.3,1.2,2.5,2.5,2.5c1.4,0,2.7-1.2,2.7-2.6C49,22.3,47.7,21.1,46.4,21.1z M81.6,101.8
		c-1.4,0-2.7,1.3-2.6,2.7c0.1,1.4,1.2,2.5,2.5,2.4c1.4,0,2.7-1.3,2.6-2.6C84.1,103,82.9,101.8,81.6,101.8z M81.6,101.8
		c-1.4,0-2.7,1.3-2.6,2.7c0.1,1.4,1.2,2.5,2.5,2.4c1.4,0,2.7-1.3,2.6-2.6C84.1,103,82.9,101.8,81.6,101.8z M46.4,21.1
		c-1.4,0-2.5,1.3-2.5,2.6c0,1.3,1.2,2.5,2.5,2.5c1.4,0,2.7-1.2,2.7-2.6C49,22.3,47.7,21.1,46.4,21.1z M64.1,8.8
		C33.6,8.7,8.8,33.4,8.7,63.9c-0.1,30.5,24.6,55.3,55.1,55.4c30.5,0.1,55.3-24.6,55.4-55.1C119.3,33.7,94.6,8.8,64.1,8.8z M104,33.8
		c4.1,5.5,7,11.5,8.7,18.3H109c-8.8,0-17.6,0-26.4,0c-0.7,0-1.2-0.2-1.6-0.8c-0.6-1-1.4-1.8-2.3-2.6c-0.4-0.4-0.6-0.7,0.1-1.1
		c8.1-4.7,16.3-9.4,24.4-14.1C103.5,33.3,103.7,33.3,104,33.8z M82.5,18.2c0.3-0.6,0.6-0.7,1.2-0.4C89.7,20.5,95,24,99.6,28.6
		c0.5,0.6,0.6,0.7-0.2,1.2c-8.5,4.8-16.9,9.7-25.3,14.6c-0.5,0.3-1,0.5-1.6,0.1c-1.3-0.7-2.8-1-4.4-1.4c3.6-6.3,7.2-12.4,10.7-18.6
		C80.1,22.5,81.3,20.4,82.5,18.2z M58.5,14.1c6.6-0.7,13.1-0.1,19.6,1.7c-5.1,8.9-10.2,17.6-15.2,26.3c-0.3,0.4-0.5,0.7-1.1,0.7
		c-1.4,0.2-2.7,0.4-4,0.8c-0.5,0.2-0.7-0.1-0.6-0.5c0-0.3,0-0.5,0-0.8c0-8.9,0-17.8,0-26.7C57.1,14.7,57.3,14.2,58.5,14.1z M35,23
		c5.1-3.6,10.7-6.2,17-7.8v2.7c0,9.1,0,18.3,0,27.5c0,0.7-0.1,1.2-0.8,1.7c-1,0.7-1.9,1.5-2.7,2.4c-0.4,0.5-0.6,0.5-1-0.1
		c-3.2-5.6-6.4-11.1-9.6-16.7c-0.3-0.5-0.2-0.8,0.3-1.1c1-0.7,1.9-1.4,2.8-2c1.4-1,1.7-2.5,0.9-3.7c-0.9-1.2-2.4-1.4-3.8-0.4
		c-0.6,0.4-1.4,0.8-1.9,1.4c-1,1-1.4,0.6-1.9-0.4C33.2,24.3,33.2,24.3,35,23z M17.9,44.1c2.8-6.3,7.4-13,11.5-16.3
		c5,8.7,10.1,17.4,15.1,26.1c0.2,0.4,0.5,0.8,0.2,1.3c-0.7,1.4-1.2,3-1.5,4.7c-2.7-1.6-5.3-3.1-7.8-4.5c-5.6-3.3-11.3-6.5-16.9-9.8
		C17.6,45.2,17.5,44.9,17.9,44.1z M14.1,69.6c-0.8-5.4,0-15.1,1.8-19.6c6.4,3.7,12.9,7.4,19.3,11.1c2.3,1.3,4.5,2.6,6.8,3.9
		c0.6,0.3,0.9,0.7,0.9,1.3c0.1,1.2,0.3,2.4,0.7,3.5c0.3,0.9,0,1-0.7,1c-3.9,0-7.8,0-11.7,0c-5.2,0-10.4,0-15.6,0
		C14.4,70.9,14.2,70.5,14.1,69.6z M23.9,94.2c-4.1-5.5-7-11.5-8.7-18.2h1.9c9.4,0,18.8,0,28.1,0c0.8,0,1.4,0.2,1.9,0.9
		c0.6,1,1.4,1.8,2.3,2.6c0.5,0.4,0.4,0.7-0.1,1c-8.1,4.7-16.2,9.4-24.3,14.1C24.3,94.8,24.1,94.6,23.9,94.2z M45.3,110.1
		c-0.1,0.2-0.2,0.4-0.4,0.4c-0.2-0.1-0.5-0.2-0.7-0.3c-5.9-2.6-11.1-6.1-15.7-10.6c-0.8-0.8-0.5-1,0.2-1.4c8.3-4.8,16.7-9.6,25-14.4
		c0.7-0.4,1.3-0.5,2-0.1c1,0.5,2.1,0.9,3.3,1.1c1.2,0.2,0.6,0.7,0.3,1.2c-4.4,7.6-8.7,15.2-13.1,22.7
		C45.9,109.1,45.6,109.6,45.3,110.1z M69.8,113.9c-6.7,0.8-13.2,0.2-19.9-1.7c4.7-8.1,9.3-16.1,13.9-24.1c1-1.8,2-3.4,4.4-3.2
		c0.2,0,0.5-0.1,0.7-0.1c1.9-0.5,1.9-0.5,1.9,1.4c0,8.9,0,17.7,0,26.6C70.8,113.5,70.6,113.8,69.8,113.9z M63.9,80.3
		C55,80.2,47.7,72.8,47.7,64c0-8.9,7.5-16.3,16.3-16.2C73,47.9,80.3,55.2,80.2,64C80.2,72.9,72.7,80.3,63.9,80.3z M94.2,104.1
		c-5.5,4.1-11.5,7-18.3,8.7v-6.7c0-7.8,0-15.7,0-23.5c0-0.7,0.2-1.2,0.8-1.6c1-0.7,1.9-1.5,2.7-2.4c0.4-0.5,0.7-0.4,1,0.1
		c3.2,5.5,6.4,11.1,9.6,16.6c0.3,0.5,0.3,0.9-0.3,1.2c-1,0.6-1.9,1.4-2.8,2c-1.4,1.1-1.7,2.5-0.8,3.8c0.8,1.2,2.4,1.3,3.8,0.3
		c0.3-0.2,0.6-0.5,0.9-0.7c0.7-0.5,1.7-1.6,2-1.3c0.8,0.6,1.2,1.8,1.8,2.7C94.9,103.8,94.4,103.9,94.2,104.1z M110.2,83.7
		c-2.6,5.9-6.2,11.3-10.8,15.9c-0.7,0.7-0.9,0.4-1.2-0.2c-4.8-8.4-9.7-16.8-14.6-25.2c-0.4-0.6-0.4-1.1-0.1-1.7
		c0.6-1.2,0.9-2.4,1.2-3.6c0.1-0.2-0.1-0.5,0.4-0.5c0.2,0.1,0.4,0.2,0.6,0.3c8,4.6,16,9.3,24,13.9C110.3,82.8,110.5,83.1,110.2,83.7
		z M85.9,62.9c-0.4-0.3-0.7-0.5-0.8-1.1c-0.2-1.4-0.3-2.7-0.8-4c-0.2-0.5,0-0.7,0.5-0.6c0.2,0,0.5,0,0.8,0c8.9,0,17.8,0,26.7,0
		c1.2,0,1.5,0.3,1.6,1.4c0.7,6.6,0.1,13-1.8,19.5C103.3,73,94.6,67.9,85.9,62.9z M81.6,101.8c-1.4,0-2.7,1.3-2.6,2.7
		c0.1,1.4,1.2,2.5,2.5,2.4c1.4,0,2.7-1.3,2.6-2.6C84.1,103,82.9,101.8,81.6,101.8z M64,51.5c-6.9,0-12.5,5.6-12.5,12.5
		S57.1,76.5,64,76.5c6.8,0,12.5-5.6,12.5-12.4C76.5,57.2,70.9,51.5,64,51.5z M64,71.5c-4,0-7.5-3.5-7.5-7.5c0-4,3.5-7.5,7.5-7.5
		c4,0,7.5,3.5,7.5,7.5C71.4,68.1,68,71.5,64,71.5z M46.3,26.2c1.4,0,2.7-1.2,2.7-2.6c0-1.4-1.2-2.5-2.6-2.5c-1.4,0-2.5,1.3-2.5,2.6
		C43.8,25,45,26.2,46.3,26.2z M46.4,21.1c-1.4,0-2.5,1.3-2.5,2.6c0,1.3,1.2,2.5,2.5,2.5c1.4,0,2.7-1.2,2.7-2.6
		C49,22.3,47.7,21.1,46.4,21.1z M81.6,101.8c-1.4,0-2.7,1.3-2.6,2.7c0.1,1.4,1.2,2.5,2.5,2.4c1.4,0,2.7-1.3,2.6-2.6
		C84.1,103,82.9,101.8,81.6,101.8z M81.6,101.8c-1.4,0-2.7,1.3-2.6,2.7c0.1,1.4,1.2,2.5,2.5,2.4c1.4,0,2.7-1.3,2.6-2.6
		C84.1,103,82.9,101.8,81.6,101.8z M46.4,21.1c-1.4,0-2.5,1.3-2.5,2.6c0,1.3,1.2,2.5,2.5,2.5c1.4,0,2.7-1.2,2.7-2.6
		C49,22.3,47.7,21.1,46.4,21.1z M46.4,21.1c-1.4,0-2.5,1.3-2.5,2.6c0,1.3,1.2,2.5,2.5,2.5c1.4,0,2.7-1.2,2.7-2.6
		C49,22.3,47.7,21.1,46.4,21.1z M81.6,101.8c-1.4,0-2.7,1.3-2.6,2.7c0.1,1.4,1.2,2.5,2.5,2.4c1.4,0,2.7-1.3,2.6-2.6
		C84.1,103,82.9,101.8,81.6,101.8z M81.6,101.8c-1.4,0-2.7,1.3-2.6,2.7c0.1,1.4,1.2,2.5,2.5,2.4c1.4,0,2.7-1.3,2.6-2.6
		C84.1,103,82.9,101.8,81.6,101.8z M46.4,21.1c-1.4,0-2.5,1.3-2.5,2.6c0,1.3,1.2,2.5,2.5,2.5c1.4,0,2.7-1.2,2.7-2.6
		C49,22.3,47.7,21.1,46.4,21.1z M81.6,101.8c-1.4,0-2.7,1.3-2.6,2.7c0.1,1.4,1.2,2.5,2.5,2.4c1.4,0,2.7-1.3,2.6-2.6
		C84.1,103,82.9,101.8,81.6,101.8z M46.4,21.1c-1.4,0-2.5,1.3-2.5,2.6c0,1.3,1.2,2.5,2.5,2.5c1.4,0,2.7-1.2,2.7-2.6
		C49,22.3,47.7,21.1,46.4,21.1z M81.6,101.8c-1.4,0-2.7,1.3-2.6,2.7c0.1,1.4,1.2,2.5,2.5,2.4c1.4,0,2.7-1.3,2.6-2.6
		C84.1,103,82.9,101.8,81.6,101.8z M46.4,21.1c-1.4,0-2.5,1.3-2.5,2.6c0,1.3,1.2,2.5,2.5,2.5c1.4,0,2.7-1.2,2.7-2.6
		C49,22.3,47.7,21.1,46.4,21.1z M81.6,101.8c-1.4,0-2.7,1.3-2.6,2.7c0.1,1.4,1.2,2.5,2.5,2.4c1.4,0,2.7-1.3,2.6-2.6
		C84.1,103,82.9,101.8,81.6,101.8z M46.4,21.1c-1.4,0-2.5,1.3-2.5,2.6c0,1.3,1.2,2.5,2.5,2.5c1.4,0,2.7-1.2,2.7-2.6
		C49,22.3,47.7,21.1,46.4,21.1z M81.6,101.8c-1.4,0-2.7,1.3-2.6,2.7c0.1,1.4,1.2,2.5,2.5,2.4c1.4,0,2.7-1.3,2.6-2.6
		C84.1,103,82.9,101.8,81.6,101.8z M46.4,21.1c-1.4,0-2.5,1.3-2.5,2.6c0,1.3,1.2,2.5,2.5,2.5c1.4,0,2.7-1.2,2.7-2.6
		C49,22.3,47.7,21.1,46.4,21.1z M46.4,21.1c-1.4,0-2.5,1.3-2.5,2.6c0,1.3,1.2,2.5,2.5,2.5c1.4,0,2.7-1.2,2.7-2.6
		C49,22.3,47.7,21.1,46.4,21.1z M46.4,21.1c-1.4,0-2.5,1.3-2.5,2.6c0,1.3,1.2,2.5,2.5,2.5c1.4,0,2.7-1.2,2.7-2.6
		C49,22.3,47.7,21.1,46.4,21.1z M46.4,21.1c-1.4,0-2.5,1.3-2.5,2.6c0,1.3,1.2,2.5,2.5,2.5c1.4,0,2.7-1.2,2.7-2.6
		C49,22.3,47.7,21.1,46.4,21.1z M46.4,21.1c-1.4,0-2.5,1.3-2.5,2.6c0,1.3,1.2,2.5,2.5,2.5c1.4,0,2.7-1.2,2.7-2.6
		C49,22.3,47.7,21.1,46.4,21.1z M46.4,21.1c-1.4,0-2.5,1.3-2.5,2.6c0,1.3,1.2,2.5,2.5,2.5c1.4,0,2.7-1.2,2.7-2.6
		C49,22.3,47.7,21.1,46.4,21.1z M46.4,21.1c-1.4,0-2.5,1.3-2.5,2.6c0,1.3,1.2,2.5,2.5,2.5c1.4,0,2.7-1.2,2.7-2.6
		C49,22.3,47.7,21.1,46.4,21.1z"/>
	<path d="M46.4,21.1c-1.4,0-2.5,1.3-2.5,2.6c0,1.3,1.2,2.5,2.5,2.5c1.4,0,2.7-1.2,2.7-2.6C49,22.3,47.7,21.1,46.4,21.1z M46.4,21.1
		c-1.4,0-2.5,1.3-2.5,2.6c0,1.3,1.2,2.5,2.5,2.5c1.4,0,2.7-1.2,2.7-2.6C49,22.3,47.7,21.1,46.4,21.1z M46.4,21.1
		c-1.4,0-2.5,1.3-2.5,2.6c0,1.3,1.2,2.5,2.5,2.5c1.4,0,2.7-1.2,2.7-2.6C49,22.3,47.7,21.1,46.4,21.1z M46.4,21.1
		c-1.4,0-2.5,1.3-2.5,2.6c0,1.3,1.2,2.5,2.5,2.5c1.4,0,2.7-1.2,2.7-2.6C49,22.3,47.7,21.1,46.4,21.1z M46.4,21.1
		c-1.4,0-2.5,1.3-2.5,2.6c0,1.3,1.2,2.5,2.5,2.5c1.4,0,2.7-1.2,2.7-2.6C49,22.3,47.7,21.1,46.4,21.1z M46.4,21.1
		c-1.4,0-2.5,1.3-2.5,2.6c0,1.3,1.2,2.5,2.5,2.5c1.4,0,2.7-1.2,2.7-2.6C49,22.3,47.7,21.1,46.4,21.1z M46.4,21.1
		c-1.4,0-2.5,1.3-2.5,2.6c0,1.3,1.2,2.5,2.5,2.5c1.4,0,2.7-1.2,2.7-2.6C49,22.3,47.7,21.1,46.4,21.1z M81.6,101.8
		c-1.4,0-2.7,1.3-2.6,2.7c0.1,1.4,1.2,2.5,2.5,2.4c1.4,0,2.7-1.3,2.6-2.6C84.1,103,82.9,101.8,81.6,101.8z M81.6,101.8
		c-1.4,0-2.7,1.3-2.6,2.7c0.1,1.4,1.2,2.5,2.5,2.4c1.4,0,2.7-1.3,2.6-2.6C84.1,103,82.9,101.8,81.6,101.8z M46.4,21.1
		c-1.4,0-2.5,1.3-2.5,2.6c0,1.3,1.2,2.5,2.5,2.5c1.4,0,2.7-1.2,2.7-2.6C49,22.3,47.7,21.1,46.4,21.1z M46.4,21.1
		c-1.4,0-2.5,1.3-2.5,2.6c0,1.3,1.2,2.5,2.5,2.5c1.4,0,2.7-1.2,2.7-2.6C49,22.3,47.7,21.1,46.4,21.1z M81.6,101.8
		c-1.4,0-2.7,1.3-2.6,2.7c0.1,1.4,1.2,2.5,2.5,2.4c1.4,0,2.7-1.3,2.6-2.6C84.1,103,82.9,101.8,81.6,101.8z M81.6,101.8
		c-1.4,0-2.7,1.3-2.6,2.7c0.1,1.4,1.2,2.5,2.5,2.4c1.4,0,2.7-1.3,2.6-2.6C84.1,103,82.9,101.8,81.6,101.8z M46.4,21.1
		c-1.4,0-2.5,1.3-2.5,2.6c0,1.3,1.2,2.5,2.5,2.5c1.4,0,2.7-1.2,2.7-2.6C49,22.3,47.7,21.1,46.4,21.1z M46.4,21.1
		c-1.4,0-2.5,1.3-2.5,2.6c0,1.3,1.2,2.5,2.5,2.5c1.4,0,2.7-1.2,2.7-2.6C49,22.3,47.7,21.1,46.4,21.1z M81.6,101.8
		c-1.4,0-2.7,1.3-2.6,2.7c0.1,1.4,1.2,2.5,2.5,2.4c1.4,0,2.7-1.3,2.6-2.6C84.1,103,82.9,101.8,81.6,101.8z M81.6,101.8
		c-1.4,0-2.7,1.3-2.6,2.7c0.1,1.4,1.2,2.5,2.5,2.4c1.4,0,2.7-1.3,2.6-2.6C84.1,103,82.9,101.8,81.6,101.8z M46.4,21.1
		c-1.4,0-2.5,1.3-2.5,2.6c0,1.3,1.2,2.5,2.5,2.5c1.4,0,2.7-1.2,2.7-2.6C49,22.3,47.7,21.1,46.4,21.1z M46.4,21.1
		c-1.4,0-2.5,1.3-2.5,2.6c0,1.3,1.2,2.5,2.5,2.5c1.4,0,2.7-1.2,2.7-2.6C49,22.3,47.7,21.1,46.4,21.1z M81.6,101.8
		c-1.4,0-2.7,1.3-2.6,2.7c0.1,1.4,1.2,2.5,2.5,2.4c1.4,0,2.7-1.3,2.6-2.6C84.1,103,82.9,101.8,81.6,101.8z M81.6,101.8
		c-1.4,0-2.7,1.3-2.6,2.7c0.1,1.4,1.2,2.5,2.5,2.4c1.4,0,2.7-1.3,2.6-2.6C84.1,103,82.9,101.8,81.6,101.8z M46.4,21.1
		c-1.4,0-2.5,1.3-2.5,2.6c0,1.3,1.2,2.5,2.5,2.5c1.4,0,2.7-1.2,2.7-2.6C49,22.3,47.7,21.1,46.4,21.1z M46.4,21.1
		c-1.4,0-2.5,1.3-2.5,2.6c0,1.3,1.2,2.5,2.5,2.5c1.4,0,2.7-1.2,2.7-2.6C49,22.3,47.7,21.1,46.4,21.1z M81.6,101.8
		c-1.4,0-2.7,1.3-2.6,2.7c0.1,1.4,1.2,2.5,2.5,2.4c1.4,0,2.7-1.3,2.6-2.6C84.1,103,82.9,101.8,81.6,101.8z M81.6,101.8
		c-1.4,0-2.7,1.3-2.6,2.7c0.1,1.4,1.2,2.5,2.5,2.4c1.4,0,2.7-1.3,2.6-2.6C84.1,103,82.9,101.8,81.6,101.8z M46.4,21.1
		c-1.4,0-2.5,1.3-2.5,2.6c0,1.3,1.2,2.5,2.5,2.5c1.4,0,2.7-1.2,2.7-2.6C49,22.3,47.7,21.1,46.4,21.1z M64.1,8.8
		C33.6,8.7,8.8,33.4,8.7,63.9c-0.1,30.5,24.6,55.3,55.1,55.4c30.5,0.1,55.3-24.6,55.4-55.1C119.3,33.7,94.6,8.8,64.1,8.8z M104,33.8
		c4.1,5.5,7,11.5,8.7,18.3H109c-8.8,0-17.6,0-26.4,0c-0.7,0-1.2-0.2-1.6-0.8c-0.6-1-1.4-1.8-2.3-2.6c-0.4-0.4-0.6-0.7,0.1-1.1
		c8.1-4.7,16.3-9.4,24.4-14.1C103.5,33.3,103.7,33.3,104,33.8z M82.5,18.2c0.3-0.6,0.6-0.7,1.2-0.4C89.7,20.5,95,24,99.6,28.6
		c0.5,0.6,0.6,0.7-0.2,1.2c-8.5,4.8-16.9,9.7-25.3,14.6c-0.5,0.3-1,0.5-1.6,0.1c-1.3-0.7-2.8-1-4.4-1.4c3.6-6.3,7.2-12.4,10.7-18.6
		C80.1,22.5,81.3,20.4,82.5,18.2z M58.5,14.1c6.6-0.7,13.1-0.1,19.6,1.7c-5.1,8.9-10.2,17.6-15.2,26.3c-0.3,0.4-0.5,0.7-1.1,0.7
		c-1.4,0.2-2.7,0.4-4,0.8c-0.5,0.2-0.7-0.1-0.6-0.5c0-0.3,0-0.5,0-0.8c0-8.9,0-17.8,0-26.7C57.1,14.7,57.3,14.2,58.5,14.1z M35,23
		c5.1-3.6,10.7-6.2,17-7.8v2.7c0,9.1,0,18.3,0,27.5c0,0.7-0.1,1.2-0.8,1.7c-1,0.7-1.9,1.5-2.7,2.4c-0.4,0.5-0.6,0.5-1-0.1
		c-3.2-5.6-6.4-11.1-9.6-16.7c-0.3-0.5-0.2-0.8,0.3-1.1c1-0.7,1.9-1.4,2.8-2c1.4-1,1.7-2.5,0.9-3.7c-0.9-1.2-2.4-1.4-3.8-0.4
		c-0.6,0.4-1.4,0.8-1.9,1.4c-1,1-1.4,0.6-1.9-0.4C33.2,24.3,33.2,24.3,35,23z M17.9,44.1c2.8-6.3,7.4-13,11.5-16.3
		c5,8.7,10.1,17.4,15.1,26.1c0.2,0.4,0.5,0.8,0.2,1.3c-0.7,1.4-1.2,3-1.5,4.7c-2.7-1.6-5.3-3.1-7.8-4.5c-5.6-3.3-11.3-6.5-16.9-9.8
		C17.6,45.2,17.5,44.9,17.9,44.1z M14.1,69.6c-0.8-5.4,0-15.1,1.8-19.6c6.4,3.7,12.9,7.4,19.3,11.1c2.3,1.3,4.5,2.6,6.8,3.9
		c0.6,0.3,0.9,0.7,0.9,1.3c0.1,1.2,0.3,2.4,0.7,3.5c0.3,0.9,0,1-0.7,1c-3.9,0-7.8,0-11.7,0c-5.2,0-10.4,0-15.6,0
		C14.4,70.9,14.2,70.5,14.1,69.6z M23.9,94.2c-4.1-5.5-7-11.5-8.7-18.2h1.9c9.4,0,18.8,0,28.1,0c0.8,0,1.4,0.2,1.9,0.9
		c0.6,1,1.4,1.8,2.3,2.6c0.5,0.4,0.4,0.7-0.1,1c-8.1,4.7-16.2,9.4-24.3,14.1C24.3,94.8,24.1,94.6,23.9,94.2z M45.3,110.1
		c-0.1,0.2-0.2,0.4-0.4,0.4c-0.2-0.1-0.5-0.2-0.7-0.3c-5.9-2.6-11.1-6.1-15.7-10.6c-0.8-0.8-0.5-1,0.2-1.4c8.3-4.8,16.7-9.6,25-14.4
		c0.7-0.4,1.3-0.5,2-0.1c1,0.5,2.1,0.9,3.3,1.1c1.2,0.2,0.6,0.7,0.3,1.2c-4.4,7.6-8.7,15.2-13.1,22.7
		C45.9,109.1,45.6,109.6,45.3,110.1z M69.8,113.9c-6.7,0.8-13.2,0.2-19.9-1.7c4.7-8.1,9.3-16.1,13.9-24.1c1-1.8,2-3.4,4.4-3.2
		c0.2,0,0.5-0.1,0.7-0.1c1.9-0.5,1.9-0.5,1.9,1.4c0,8.9,0,17.7,0,26.6C70.8,113.5,70.6,113.8,69.8,113.9z M63.9,80.3
		C55,80.2,47.7,72.8,47.7,64c0-8.9,7.5-16.3,16.3-16.2C73,47.9,80.3,55.2,80.2,64C80.2,72.9,72.7,80.3,63.9,80.3z M94.2,104.1
		c-5.5,4.1-11.5,7-18.3,8.7v-6.7c0-7.8,0-15.7,0-23.5c0-0.7,0.2-1.2,0.8-1.6c1-0.7,1.9-1.5,2.7-2.4c0.4-0.5,0.7-0.4,1,0.1
		c3.2,5.5,6.4,11.1,9.6,16.6c0.3,0.5,0.3,0.9-0.3,1.2c-1,0.6-1.9,1.4-2.8,2c-1.4,1.1-1.7,2.5-0.8,3.8c0.8,1.2,2.4,1.3,3.8,0.3
		c0.3-0.2,0.6-0.5,0.9-0.7c0.7-0.5,1.7-1.6,2-1.3c0.8,0.6,1.2,1.8,1.8,2.7C94.9,103.8,94.4,103.9,94.2,104.1z M110.2,83.7
		c-2.6,5.9-6.2,11.3-10.8,15.9c-0.7,0.7-0.9,0.4-1.2-0.2c-4.8-8.4-9.7-16.8-14.6-25.2c-0.4-0.6-0.4-1.1-0.1-1.7
		c0.6-1.2,0.9-2.4,1.2-3.6c0.1-0.2-0.1-0.5,0.4-0.5c0.2,0.1,0.4,0.2,0.6,0.3c8,4.6,16,9.3,24,13.9C110.3,82.8,110.5,83.1,110.2,83.7
		z M85.9,62.9c-0.4-0.3-0.7-0.5-0.8-1.1c-0.2-1.4-0.3-2.7-0.8-4c-0.2-0.5,0-0.7,0.5-0.6c0.2,0,0.5,0,0.8,0c8.9,0,17.8,0,26.7,0
		c1.2,0,1.5,0.3,1.6,1.4c0.7,6.6,0.1,13-1.8,19.5C103.3,73,94.6,67.9,85.9,62.9z M81.6,101.8c-1.4,0-2.7,1.3-2.6,2.7
		c0.1,1.4,1.2,2.5,2.5,2.4c1.4,0,2.7-1.3,2.6-2.6C84.1,103,82.9,101.8,81.6,101.8z M64,51.5c-6.9,0-12.5,5.6-12.5,12.5
		S57.1,76.5,64,76.5c6.8,0,12.5-5.6,12.5-12.4C76.5,57.2,70.9,51.5,64,51.5z M64,71.5c-4,0-7.5-3.5-7.5-7.5c0-4,3.5-7.5,7.5-7.5
		c4,0,7.5,3.5,7.5,7.5C71.4,68.1,68,71.5,64,71.5z M46.3,26.2c1.4,0,2.7-1.2,2.7-2.6c0-1.4-1.2-2.5-2.6-2.5c-1.4,0-2.5,1.3-2.5,2.6
		C43.8,25,45,26.2,46.3,26.2z M46.4,21.1c-1.4,0-2.5,1.3-2.5,2.6c0,1.3,1.2,2.5,2.5,2.5c1.4,0,2.7-1.2,2.7-2.6
		C49,22.3,47.7,21.1,46.4,21.1z M81.6,101.8c-1.4,0-2.7,1.3-2.6,2.7c0.1,1.4,1.2,2.5,2.5,2.4c1.4,0,2.7-1.3,2.6-2.6
		C84.1,103,82.9,101.8,81.6,101.8z M81.6,101.8c-1.4,0-2.7,1.3-2.6,2.7c0.1,1.4,1.2,2.5,2.5,2.4c1.4,0,2.7-1.3,2.6-2.6
		C84.1,103,82.9,101.8,81.6,101.8z M46.4,21.1c-1.4,0-2.5,1.3-2.5,2.6c0,1.3,1.2,2.5,2.5,2.5c1.4,0,2.7-1.2,2.7-2.6
		C49,22.3,47.7,21.1,46.4,21.1z M46.4,21.1c-1.4,0-2.5,1.3-2.5,2.6c0,1.3,1.2,2.5,2.5,2.5c1.4,0,2.7-1.2,2.7-2.6
		C49,22.3,47.7,21.1,46.4,21.1z M81.6,101.8c-1.4,0-2.7,1.3-2.6,2.7c0.1,1.4,1.2,2.5,2.5,2.4c1.4,0,2.7-1.3,2.6-2.6
		C84.1,103,82.9,101.8,81.6,101.8z M81.6,101.8c-1.4,0-2.7,1.3-2.6,2.7c0.1,1.4,1.2,2.5,2.5,2.4c1.4,0,2.7-1.3,2.6-2.6
		C84.1,103,82.9,101.8,81.6,101.8z M46.4,21.1c-1.4,0-2.5,1.3-2.5,2.6c0,1.3,1.2,2.5,2.5,2.5c1.4,0,2.7-1.2,2.7-2.6
		C49,22.3,47.7,21.1,46.4,21.1z M46.4,21.1c-1.4,0-2.5,1.3-2.5,2.6c0,1.3,1.2,2.5,2.5,2.5c1.4,0,2.7-1.2,2.7-2.6
		C49,22.3,47.7,21.1,46.4,21.1z M81.6,101.8c-1.4,0-2.7,1.3-2.6,2.7c0.1,1.4,1.2,2.5,2.5,2.4c1.4,0,2.7-1.3,2.6-2.6
		C84.1,103,82.9,101.8,81.6,101.8z M81.6,101.8c-1.4,0-2.7,1.3-2.6,2.7c0.1,1.4,1.2,2.5,2.5,2.4c1.4,0,2.7-1.3,2.6-2.6
		C84.1,103,82.9,101.8,81.6,101.8z M46.4,21.1c-1.4,0-2.5,1.3-2.5,2.6c0,1.3,1.2,2.5,2.5,2.5c1.4,0,2.7-1.2,2.7-2.6
		C49,22.3,47.7,21.1,46.4,21.1z M46.4,21.1c-1.4,0-2.5,1.3-2.5,2.6c0,1.3,1.2,2.5,2.5,2.5c1.4,0,2.7-1.2,2.7-2.6
		C49,22.3,47.7,21.1,46.4,21.1z M81.6,101.8c-1.4,0-2.7,1.3-2.6,2.7c0.1,1.4,1.2,2.5,2.5,2.4c1.4,0,2.7-1.3,2.6-2.6
		C84.1,103,82.9,101.8,81.6,101.8z M81.6,101.8c-1.4,0-2.7,1.3-2.6,2.7c0.1,1.4,1.2,2.5,2.5,2.4c1.4,0,2.7-1.3,2.6-2.6
		C84.1,103,82.9,101.8,81.6,101.8z M46.4,21.1c-1.4,0-2.5,1.3-2.5,2.6c0,1.3,1.2,2.5,2.5,2.5c1.4,0,2.7-1.2,2.7-2.6
		C49,22.3,47.7,21.1,46.4,21.1z M46.4,21.1c-1.4,0-2.5,1.3-2.5,2.6c0,1.3,1.2,2.5,2.5,2.5c1.4,0,2.7-1.2,2.7-2.6
		C49,22.3,47.7,21.1,46.4,21.1z M46.4,21.1c-1.4,0-2.5,1.3-2.5,2.6c0,1.3,1.2,2.5,2.5,2.5c1.4,0,2.7-1.2,2.7-2.6
		C49,22.3,47.7,21.1,46.4,21.1z M46.4,21.1c-1.4,0-2.5,1.3-2.5,2.6c0,1.3,1.2,2.5,2.5,2.5c1.4,0,2.7-1.2,2.7-2.6
		C49,22.3,47.7,21.1,46.4,21.1z M46.4,21.1c-1.4,0-2.5,1.3-2.5,2.6c0,1.3,1.2,2.5,2.5,2.5c1.4,0,2.7-1.2,2.7-2.6
		C49,22.3,47.7,21.1,46.4,21.1z M46.4,21.1c-1.4,0-2.5,1.3-2.5,2.6c0,1.3,1.2,2.5,2.5,2.5c1.4,0,2.7-1.2,2.7-2.6
		C49,22.3,47.7,21.1,46.4,21.1z M46.4,21.1c-1.4,0-2.5,1.3-2.5,2.6c0,1.3,1.2,2.5,2.5,2.5c1.4,0,2.7-1.2,2.7-2.6
		C49,22.3,47.7,21.1,46.4,21.1z"/>
	<path d="M64,51.5c-6.9,0-12.5,5.6-12.5,12.5S57.1,76.5,64,76.5c6.8,0,12.5-5.6,12.5-12.4C76.5,57.2,70.9,51.5,64,51.5z M64,71.5
		c-4,0-7.5-3.5-7.5-7.5c0-4,3.5-7.5,7.5-7.5c4,0,7.5,3.5,7.5,7.5C71.4,68.1,68,71.5,64,71.5z"/>
	<path d="M49,23.6c0,1.4-1.2,2.6-2.7,2.6c-1.3,0-2.5-1.2-2.5-2.5c0-1.3,1.2-2.5,2.5-2.6C47.7,21.1,49,22.3,49,23.6z"/>
	<path d="M84.1,104.3c0.1,1.4-1.2,2.6-2.6,2.6c-1.3,0.1-2.5-1.1-2.5-2.4c-0.1-1.4,1.2-2.7,2.6-2.7C82.9,101.8,84.1,103,84.1,104.3z"
		/>
	<path d="M64,51.5c-6.9,0-12.5,5.6-12.5,12.5S57.1,76.5,64,76.5c6.8,0,12.5-5.6,12.5-12.4C76.5,57.2,70.9,51.5,64,51.5z M64,71.5
		c-4,0-7.5-3.5-7.5-7.5c0-4,3.5-7.5,7.5-7.5c4,0,7.5,3.5,7.5,7.5C71.4,68.1,68,71.5,64,71.5z"/>
	<path d="M49,23.6c0,1.4-1.2,2.6-2.7,2.6c-1.3,0-2.5-1.2-2.5-2.5c0-1.3,1.2-2.5,2.5-2.6C47.7,21.1,49,22.3,49,23.6z"/>
	<path d="M84.1,104.3c0.1,1.4-1.2,2.6-2.6,2.6c-1.3,0.1-2.5-1.1-2.5-2.4c-0.1-1.4,1.2-2.7,2.6-2.7C82.9,101.8,84.1,103,84.1,104.3z"
		/>
</g>
</svg>
