<?xml version="1.0" encoding="utf-8"?>
<!-- Generator: Adobe Illustrator 28.0.0, SVG Export Plug-In . SVG Version: 6.00 Build 0)  -->
<svg version="1.1" id="Layer_1" xmlns="http://www.w3.org/2000/svg" xmlns:xlink="http://www.w3.org/1999/xlink" x="0px" y="0px"
	 viewBox="0 0 128 128" style="enable-background:new 0 0 128 128;" xml:space="preserve">
<g>
	<g>
		<g>
			<path d="M64,29.9c-7.1,0-12.8,5.7-12.8,12.8c0,7.1,5.7,12.8,12.8,12.8c7.1,0,12.8-5.7,12.8-12.8S71.1,29.9,64,29.9z M64,51.2
				c-4.7,0-8.5-3.8-8.5-8.5s3.8-8.5,8.5-8.5s8.5,3.8,8.5,8.5S68.7,51.2,64,51.2z"/>
		</g>
	</g>
	<g>
		<g>
			<path d="M86.9,61.1c-0.7-0.7-1.4-1.4-2.2-2l0-0.1c7-21.7-0.8-45.5-19.4-58.7c-0.7-0.5-1.7-0.5-2.5,0
				c-18.6,13.2-26.5,37-19.4,58.7l0,0.1c-11.7,9.4-13.6,26.6-4.2,38.3c0.6,0.8,1.3,1.5,2,2.2c0.4,0.4,0.9,0.6,1.5,0.6
				c0.2,0,0.5,0,0.7-0.1c0.8-0.3,1.3-0.9,1.4-1.7l1.6-11.3c0.2-1,1-1.8,2.1-1.8H55l-1.6,8.1c-0.2,1.2,0.5,2.3,1.7,2.5
				c0.1,0,0.3,0,0.4,0h17.1c1.2,0,2.1-1,2.1-2.1c0-0.1,0-0.3,0-0.4L73,85.3h6.5c1.1,0,2,0.8,2.1,1.8l1.6,11.3
				c0.1,0.8,0.7,1.5,1.4,1.7c0.2,0.1,0.4,0.1,0.7,0.1c0.6,0,1.1-0.2,1.5-0.6C97.5,89,97.5,71.8,86.9,61.1z M64,4.8
				c5.1,3.9,9.4,8.8,12.6,14.4H51.4C54.6,13.6,58.9,8.7,64,4.8z M48.5,81.1c-3.2,0-5.9,2.3-6.3,5.5L41.2,93
				c-2.9-4.3-4.2-9.4-3.7-14.6h0c0.5-5.7,3.1-11,7.3-15l5.6,17.6H48.5z M58.1,91.7l1.3-6.4h9.3l1.3,6.4H58.1z M54.9,81.1l-7-21.8
				l-0.5-1.5c-3.6-11.3-3-23.5,1.8-34.3h29.5c4.8,10.8,5.5,23,1.8,34.3l-0.5,1.5l-7,21.8H54.9z M86.8,93l-0.9-6.5
				c-0.5-3.1-3.2-5.5-6.3-5.5h-1.9l5.6-17.6c4.2,3.9,6.8,9.2,7.2,15C90.9,83.6,89.6,88.7,86.8,93z"/>
		</g>
	</g>
	<g>
		<g>
			<path d="M55.5,100.1v7c-5.2-1.6-10.8-0.2-14.7,3.6c-3.2-3.9-8-6.1-13.1-6.1c-1.6,0-3.1,0.2-4.6,0.6c-1.7-10.2-10.6-17.7-21-17.7
				H0v4.3h2.1c8.7,0,16,6.6,16.9,15.2c-2.1,1.2-3.9,2.8-5.3,4.8c-3.8-3.3-8.7-5.1-13.8-5.1v4.3c9.4,0,17.1,7.6,17.1,17.1h4.3
				c0-4.7-1.6-9.3-4.5-13c1.3-2.1,3.1-3.8,5.3-4.9c0,0,0,0,0.1,0c1.7-0.8,3.6-1.3,5.5-1.3c4.1,0,8,2,10.4,5.4
				c-1.2,2.3-1.9,4.8-1.9,7.4h4.3c0-2.2,0.6-4.3,1.8-6.2h0c0,0,0.1-0.1,0.1-0.1c2.9-4.2,8.4-5.8,13.1-3.8v5.6h4.3v-17.1L55.5,100.1
				L55.5,100.1z"/>
		</g>
	</g>
	<g>
		<g>
			<path d="M125.9,91.7h2.1v-4.3h-2.1c-10.4,0-19.3,7.5-21,17.7c-1.5-0.4-3-0.6-4.6-0.6c-5,0-9.8,2.2-13.1,6.1
				c-3.9-3.8-9.5-5.2-14.7-3.6v-7h-4.3v17.1h4.3v-5.6c4.7-2.1,10.2-0.5,13.1,3.7c0,0,0.1,0.1,0.1,0.1h0c1.2,1.8,1.8,4,1.8,6.2h4.3
				c0-2.6-0.7-5.1-1.9-7.4c2.4-3.4,6.3-5.4,10.4-5.4c1.9,0,3.8,0.4,5.5,1.3c0,0,0,0,0.1,0c2.2,1.1,4,2.8,5.3,4.9
				c-2.9,3.7-4.5,8.3-4.5,13h4.3c0-9.4,7.6-17.1,17.1-17.1v-4.3c-5.1,0-9.9,1.8-13.8,5.1c-1.4-1.9-3.2-3.6-5.3-4.8
				C109.8,98.3,117.1,91.7,125.9,91.7z"/>
		</g>
	</g>
	<g>
		<g>
			<rect x="53.3" y="61.9" width="4.3" height="4.3"/>
		</g>
	</g>
	<g>
		<g>
			<rect x="61.9" y="61.9" width="4.3" height="4.3"/>
		</g>
	</g>
	<g>
		<g>
			<rect x="70.4" y="61.9" width="4.3" height="4.3"/>
		</g>
	</g>
	<g>
		<g>
			<rect x="23.5" y="113.1" width="4.3" height="4.3"/>
		</g>
	</g>
	<g>
		<g>
			<rect x="0" y="78.9" width="4.3" height="4.3"/>
		</g>
	</g>
	<g>
		<g>
			<rect x="119.5" y="98.1" width="4.3" height="4.3"/>
		</g>
	</g>
	<g>
		<g>
			<rect x="102.4" y="89.6" width="4.3" height="4.3"/>
		</g>
	</g>
	<g>
		<g>
			<rect x="78.9" y="123.7" width="4.3" height="4.3"/>
		</g>
	</g>
	<g>
		<g>
			<rect x="123.7" y="74.7" width="4.3" height="4.3"/>
		</g>
	</g>
</g>
</svg>
