<?xml version="1.0" encoding="utf-8"?>
<!-- Generator: Adobe Illustrator 28.0.0, SVG Export Plug-In . SVG Version: 6.00 Build 0)  -->
<svg version="1.1" id="Layer_1" xmlns="http://www.w3.org/2000/svg" xmlns:xlink="http://www.w3.org/1999/xlink" x="0px" y="0px"
	 viewBox="0 0 128 128" style="enable-background:new 0 0 128 128;" xml:space="preserve">
<g id="ioh0XU.tif">
	<g>
		<path d="M125.6,35.7C115,25.1,104.4,14.5,93.8,3.9c-1.6-1.6-3.3-3.2-5.6-3.9H85c-0.1,0.1-0.1,0.2-0.2,0.2
			c-4.5,1.1-7.1,6.5-4.5,11.1c0.2,0.4,0.2,0.7,0.1,1.2C79.2,17.2,78,22,77,26.8c-1.8,8.2-4.9,15.7-9.8,22.5
			C63.7,54,59.3,57.9,55.3,62c-1.5,1.6-1.5,1.5-3.1,0.1c-1.3-1.3-2.7-1.3-4-0.1c-1.7,1.5-1.7,1.6-3.3-0.1c-0.6-0.6-1.5-1.2-1.6-1.8
			c-0.1-0.5,1-1.1,1.5-1.7c1-1.1,1-2.6,0-3.6c-1-1-2.5-1-3.7,0.1c-2.3,2.3-4.6,4.6-6.9,6.9c-1.1,1.1-1.1,2.5-0.1,3.6
			c1,1.1,2.4,1.1,3.7,0.1c0.6-0.5,1.1-1.6,1.8-1.5c0.7,0.1,1.2,1.1,1.8,1.7c1.6,1.5,1.6,1.5,0,3.2c-1.2,1.3-1.2,2.5-0.2,3.8
			c0.5,0.6,1.6,1.1,1.5,1.8c-0.1,0.7-1.1,1.2-1.7,1.8c-1.6,1.6-1.6,1.6-3.2,0.1c-1.4-1.3-2.6-1.3-3.9,0c-1.6,1.5-1.6,1.5-3.3-0.1
			c-0.6-0.6-1.5-1.1-1.6-1.7c-0.1-0.8,1-1.2,1.5-1.8c0,0,0.1-0.1,0.1-0.1c1-1.2,0.9-2.6-0.1-3.6c-1-0.9-2.4-1-3.5,0.1
			c-2.4,2.3-4.7,4.7-7.1,7.1c-1,1.1-1,2.6,0,3.6c0.9,0.9,2.4,0.9,3.5,0.1c0.7-0.5,1.1-1.7,1.9-1.5c0.7,0.1,1.3,1.1,1.9,1.7
			c0,0,0.1,0.1,0.1,0.1c1.4,1.4,1.4,1.4,0,2.8c-1.2,1.2-1.4,2.4-0.6,3.6c0.4,0.5,0.8,1,1.3,1.4c0.6,0.5,0.6,0.8,0,1.4
			c-5.6,5.6-11.2,11.2-16.8,16.8c-0.5,0.5-0.8,0.6-1.5,0.4c-4.1-1.3-8.2,0.7-9.6,4.8c-0.1,0.2,0,0.5-0.3,0.6v3.2
			c0.7,2.2,2.2,3.9,3.9,5.5c1.7,1.6,3.4,3.4,5,5c2.8,2.7,6.3,3.3,9.4,1.5c3.1-1.8,4.4-5.3,3.3-9.1c-0.1-0.5-0.2-0.8,0.2-1.1
			c1-1,2-2.1,3.1-3.2c0.3,0.5,0.4,0.8,0.6,1.2c5.5,10.9,18.1,15.9,29.6,11.7c5-1.8,8.6-5.4,12.1-9.2c0.9-1,0.7-2.4-0.3-3.3
			c-0.9-0.9-2.2-1-3.3-0.2c-1,0.9-2,1.9-3,2.9c-4.4,4.6-9.7,6.6-16.1,6c-6.7-0.6-13.5-6-15.5-12.4c-0.1-0.3-0.3-0.6,0-0.9
			c1.2-1.3,2.5-2.5,3.9-4c0.2,1.4,0.4,2.5,0.8,3.6c3.6,9.5,15.4,11.9,22.8,4.7c3.4-3.3,6.8-6.8,10.2-10.2c4.3-4.3,8.7-8.5,12.8-13
			c6.9-7.6,3.1-19.8-6.8-22.4c-0.6-0.2-1.3,0-2-0.6c1.3-1.2,2.5-2.3,3.7-3.5c0.4-0.4,0.8-0.4,1.3-0.2c12.2,4.4,16.3,20.2,7.6,29.9
			c-1.3,1.4-2.7,2.7-4,4.1c-1.2,1.3-1.3,2.7-0.2,3.8c1.1,1.1,2.5,1,3.7-0.2c1.2-1.2,2.4-2.3,3.5-3.5c6.5-7.1,8.3-15.4,5.2-24.5
			c-2.1-6.1-6.3-10.4-12-13.4c4.4-3.1,9.1-5.5,14.1-7.1c7-2.2,14.2-3.5,21.2-5.3c0.8-0.2,1.4-0.1,2.1,0.3c2.8,1.4,6.1,0.9,8.3-1.2
			C128.8,43.8,128.8,39,125.6,35.7z M46.1,78.3c0.4-0.4,0.6-0.4,1,0c0.8,0.9,1.7,1.7,2.5,2.6c0.2,0.2,0.5,0.4,0.1,0.8
			c-1,0.9-1.9,1.9-2.8,2.8c-0.1,0.1-0.2,0.2-0.3,0.3c-0.1-0.1-0.2-0.1-0.3-0.2c-0.1-0.1-0.2-0.2-0.3-0.3c-0.9-1-1.9-2-2.9-2.9
			C44.2,80.4,45.2,79.4,46.1,78.3z M16.3,122.2c-1.1,1.1-2.5,1-3.7-0.3c-2.2-2.2-4.5-4.5-6.7-6.7c-0.8-0.8-1.1-1.7-0.6-2.8
			c0.4-0.9,1.2-1.5,2.6-1.5c0.5,0,1.1,0.4,1.6,0.9c2.2,2.2,4.4,4.4,6.6,6.6C17.3,119.7,17.3,121.2,16.3,122.2z M35.2,96.3
			c-5,5-10,10-15,15c-0.5,0.5-1.1,1.1-1.6,1.6c-0.1,0.1-0.3,0.3-0.5,0.4c-0.2-0.1-0.3-0.2-0.4-0.3c-0.9-0.9-1.7-1.8-2.7-2.6
			c-0.6-0.5-0.1-0.8,0.2-1.1c2.4-2.4,4.7-4.7,7.1-7.1c3.1-3.1,6.3-6.3,9.4-9.5c0.6-0.6,0.9-0.7,1.5,0c0.6,0.7,1.3,1.4,2,2
			C35.9,95.3,35.8,95.7,35.2,96.3z M40.8,110.5c-3.1-3-3.6-7.5-1.2-11.1c4,4,8,8,12,12C48.4,113.7,43.8,113.4,40.8,110.5z
			 M58.5,104.9c-0.8,0.8-1.6,1.6-2.4,2.4c-0.4,0.5-0.7,0.5-1.2,0C47.6,100,40.3,92.7,33,85.4c-0.4-0.4-0.4-0.7,0-1.1
			c0.9-0.8,1.7-1.6,2.5-2.5c0.1-0.1,0.3-0.3,0.5-0.5c0.2,0.2,0.4,0.4,0.6,0.5c7.3,7.3,14.6,14.6,21.9,21.9
			C58.9,104.2,58.9,104.5,58.5,104.9z M65.3,98c-0.9,0.9-1.8,2.5-2.8,2.5c-1,0.1-1.9-1.6-2.8-2.5c-3-3-5.9-5.9-8.9-8.9
			c-0.6-0.5-0.7-0.9,0-1.4c1-0.8,1.8-2.5,2.8-2.5c0.9,0,1.9,1.6,2.8,2.5c3,3,5.9,5.9,8.9,8.9c0.2,0.2,0.4,0.5,0.7,0.8
			C65.8,97.6,65.6,97.8,65.3,98z M72.4,90.9c-0.9,0.9-1.8,2.4-2.8,2.5c-1,0.1-1.8-1.6-2.7-2.5C60.4,84.5,53.9,78,47.4,71.6
			c-0.6-0.6-0.8-1,0-1.6c1-0.8,1.7-2.5,2.8-2.4c0.9,0,1.8,1.6,2.7,2.4c6.5,6.5,12.9,12.9,19.4,19.4c0.3,0.3,0.6,0.5,1.1,0.9
			C72.9,90.6,72.6,90.7,72.4,90.9z M75.3,75.1c3.2,3,3.7,7.6,1.3,11.2c-4-4-8-8-12-12C67.7,72,72.3,72.3,75.3,75.1z M104.6,45
			c-6.7,1.5-13.3,3-19.5,6.1C78.7,54.2,73,58.4,68,63.4c-2.2,2.2-4.4,4.3-6.5,6.6c-0.6,0.6-0.9,0.6-1.5,0c-0.6-0.8-1.4-1.5-2.1-2.1
			c-0.6-0.5-0.5-0.8,0-1.4c3.1-3.1,6.2-6.1,9.2-9.3c7.5-8.1,12.2-17.7,14.6-28.4c0.9-4,1.9-8.1,2.8-12.1c0-0.1,0.1-0.2,0.1-0.2
			c9,9,17.9,17.9,26.9,26.9C109.3,43.9,106.9,44.4,104.6,45z M121.7,43.4c-0.8,0.5-1.7,0.5-2.5-0.1c-0.4-0.3-0.7-0.6-1-0.9
			C107.2,31.5,96.3,20.6,85.4,9.7c-1.8-1.8-1.4-4,0.7-4.6c1.1-0.3,1.9,0.3,2.6,1c3.4,3.4,6.9,6.9,10.3,10.3c7.5,7.5,15,15,22.5,22.5
			c0.7,0.7,1.3,1.3,1.3,2.4C122.9,42.2,122.5,42.9,121.7,43.4z"/>
		<path d="M73.1,110.4c-1.3,0-2.5-1.2-2.5-2.6c0-1.4,1.2-2.5,2.5-2.5c1.4,0,2.5,1.2,2.5,2.5C75.7,109.2,74.4,110.4,73.1,110.4z"/>
	</g>
</g>
</svg>
