<?xml version="1.0" encoding="utf-8"?>
<!-- Generator: Adobe Illustrator 28.0.0, SVG Export Plug-In . SVG Version: 6.00 Build 0)  -->
<svg version="1.1" id="Layer_1" xmlns="http://www.w3.org/2000/svg" xmlns:xlink="http://www.w3.org/1999/xlink" x="0px" y="0px"
	 viewBox="0 0 128 128" style="enable-background:new 0 0 128 128;" xml:space="preserve">
<g id="LGEo76.tif">
	<g>
		<path d="M124.3,89.7c-19.8,0-39.6,0-59.4,0h-1.5c9.6-16.4,19.1-32.5,28.6-48.8c7.3,12.5,14.5,24.8,21.7,37
			c0.2,0.4,0.5,0.9,0.8,1.2c1.3,1.4,3.5,1.1,4.4-0.7c0.6-1.2,0.1-2.2-0.5-3.1c-7.9-13.5-15.8-27-23.7-40.5c-0.8-1.4-1.8-2-3.4-2
			c-18.2,0-36.3,0-54.5,0c-1.7,0-2.8,0.6-3.6,2.1C25.3,48.6,17.3,62.2,9.3,75.8c-2.9,5-5.8,9.9-8.7,14.9c-1.1,2-0.6,3.6,1.4,4.3
			C2.5,95.1,3,95,3.5,95c40.6,0,81.3,0,121.9,0c0.2,0,0.3,0,0.5,0c1.4-0.1,1.6-0.3,2.2-1.9v-1.5C127.3,90.1,126,89.7,124.3,89.7z
			 M67.2,39.3c0.4-0.8,0.9-1.1,1.8-1.1c6,0.1,12.1,0,18.1,0c0.2,0.5-0.2,0.7-0.4,1c-9.7,16.5-19.3,33-29,49.5
			c-0.4,0.7-0.8,0.9-1.5,0.9c-1.8-0.1-3.6,0-5.5,0c-0.1-0.6,0.3-0.9,0.5-1.3C59,75.2,66.8,61.9,74.5,48.6c0.4-0.6,0.8-1.3,0.8-2.1
			c0-1.2-0.5-2.1-1.6-2.5c-1.1-0.5-2.1-0.3-2.9,0.7c-0.4,0.4-0.7,0.9-1,1.4C61.5,60.3,53.2,74.5,45,88.7c-0.5,0.8-0.9,1.1-1.8,1
			c-1.7-0.1-3.3,0-5.2,0c2.4-4.1,4.6-8,6.9-11.9C52.3,65,59.8,52.2,67.2,39.3z M8.2,88.3c9.6-16.3,19.1-32.7,28.6-49
			c0.4-0.7,0.8-1.1,1.7-1c3.5,0.1,7.1,0,10.6,0c0.1,0.6-0.3,0.9-0.5,1.3C41.4,52,34.1,64.5,26.9,77c-0.5,0.9-1.1,1.8-0.7,2.9
			c0.4,1,1.1,1.8,2.3,1.9c1.3,0.1,2.1-0.5,2.8-1.5c2.1-3.6,4.2-7.2,6.3-10.7c5.9-10,11.7-20.1,17.6-30.2c0.5-0.8,1-1.1,1.9-1.1
			c1.5,0.1,3,0,4.8,0c-1.2,2-2.3,3.9-3.3,5.7c-8.7,14.9-17.4,29.8-26.1,44.8c-0.3,0.5-0.5,1-1.4,1c-7.6,0-15.2,0-22.7,0
			c-0.2,0-0.4,0-0.6,0C7.6,89.1,8,88.7,8.2,88.3z"/>
		<path d="M2,94.9c0.7,0,1.4,0,2.1,0c40.4,0,80.7,0,121.1,0c0.2,0,0.4,0,0.6,0c0,0.1,0,0.2-0.1,0.2c-41.2,0-82.5,0-123.7,0
			C2,95.1,2,95,2,94.9z"/>
		<path d="M110.7,80.4c-5.3-9.1-10.7-18.1-15.9-27.3c-1.3-2.3-4-2.7-5.5,0c-5.2,9.2-10.6,18.2-16,27.4c-1.5,2.6-0.4,4.7,2.7,4.7
			c5.3,0,10.6,0,15.9,0c5.3,0,10.7,0,16,0C111.2,85.1,112.4,83.2,110.7,80.4z M80.1,79.6c4-6.8,8-13.6,12-20.5c4,6.9,8,13.7,12,20.5
			H80.1z"/>
	</g>
</g>
</svg>
