<?xml version="1.0" encoding="utf-8"?>
<!-- Generator: Adobe Illustrator 28.0.0, SVG Export Plug-In . SVG Version: 6.00 Build 0)  -->
<svg version="1.1" id="Layer_1" xmlns="http://www.w3.org/2000/svg" xmlns:xlink="http://www.w3.org/1999/xlink" x="0px" y="0px"
	 viewBox="0 0 128 128" style="enable-background:new 0 0 128 128;" xml:space="preserve">
<g id="eh2648.tif">
	<g>
		<path d="M128,51V38c-1.4-4-3.1-7.9-4.1-12.1c-1.2-5.1-4-9.7-8.4-12.5c-3.4-2.1-3.6-3.9-1.8-7c0.7-1.2,2.1-3.2-0.3-4.2
			c-2.2-0.9-2.7,1.2-3.4,2.6c-0.3,0.6-0.6,1.2-0.8,1.8c-0.5,1.5-1.1,2.7-3.1,2.4c-2.5-0.3-1.7-2-1.8-3.3c-0.1-1.3,0-2.7-0.1-4
			c-0.1-0.8-0.4-1.6-1.4-1.7c-1.2-0.1-2,0.4-2.2,1.5c-0.2,1.1,0,2.3-0.3,3.4c-0.3,1.4,1.3,3.5-1.5,4c-2.2,0.4-2.7-1.3-3.5-2.7
			c-1-1.7-1-5.2-3.9-4c-3.1,1.3,0,3.6,0.2,5.5c0,0.3-0.1,0.6-0.1,1.1c-4.5,0-9,0-13.5,0c-3.6,0-5.7,1.9-5.8,5.4
			c-0.1,3.5,1.9,5.5,5.5,5.7c1.6,0.1,3.2,0,4.9,0c-0.8,5.3-4.8,8.6-6.4,13.2c-6.8,18.5,8.1,43.4,28.3,47.5c7.2,1.5,7.2,1.5,6.5,8.7
			c-0.2,1.5-0.5,2.9-0.8,4.4c-1.8,9.6-8.2,13.3-17.5,10.3c-3.5-1.1-6.3-3.1-8.6-5.7c-3-3.3-5.8-6.8-8.6-10.3
			c-4.1-5.2-9-9.4-15.7-10.7c-2.2-0.4-2.7-1.8-3.5-3.5c-1.7-3.6-5.8-4.7-8.6-2c-1.9,1.9-3.9,2.1-6.2,2.1c-3,0-5.5-0.3-8.3-2.2
			c-5.9-4.1-11.4,0.2-12.2,9.2c-2-0.3-2.9-2.1-4.3-3.2c-2.8-2.4-5.6-2.5-8.4,0c-13,11.4-9.9,37.8,5.4,46c3.4,1.8,7.2,2.2,10.6,3.9
			h15c1.8-1.7,4.3-1,6.4-2c1.3-0.7,3.1-1,2.5-3c-0.6-2.1-2.4-1.3-3.7-0.8c-5.1,1.8-10.4,2.4-15.7,1.9c-9.4-0.9-18.4-3.5-22.4-13.1
			c-4.1-9.6-2.7-19.2,3.1-27.9c1.3-2,2.8-4.1,5.4-1.2c4.4,4.9,10.1,6,16.3,5.9c7.6-0.1,15.3-0.1,23,0c1.2,0,2.5-0.5,3.4,1.1
			c3.4,5.9,2.2,20-2.1,25.8c-1.3,1.7-5.4,3.6-2.5,5.8c2.7,2.1,4.1-2.1,5.9-3.8c0.5-0.4,0.8-1,1.1-1.6c5.6-11.5,4.7-22.5-2.3-33.4
			c4.3,0.1,8,2.1,11,5.2c3.4,3.6,6.5,7.5,9.7,11.3c3.2,3.9,6.6,7.6,11.4,9.4c11.2,4.1,22.2,1.4,24.7-12.9c0.6-3.3,0.8-6.6,0.8-9.9
			c0-1.2-0.6-2.9,1.2-3.4c8.7-2.5,10.1-9.6,10.9-17.1c1.1-1.9-0.4-4.2,0.9-6.1v-1c-2.3-1.8-3.8-2.3-4.1,1.6c-0.3,3.6-1,7.2-1.8,10.8
			c-0.3,1.6-1.1,3.1-1.9,4.5c-1.1,1.8-3.1,4.2-5,2.8c-1.9-1.4-2-4.3,0.2-6.4c2.2-2.1,2.5-4.8,0.8-7.2c-1.9-2.9-4.8-3.5-7.8-1.6
			c-3,2-3.3,4.8-1.5,7.9c0.4,0.7,1.1,1.3,1.8,1.7c2.2,1.4,1.8,3.8,1.3,5.4c-0.6,2.1-2.9,0.8-4.3,0.5c-17.5-3-30.2-23-26-40.8
			c1.5-0.8,1.8,0.9,2.7,1.4c4,2,7.7,0.3,8.7-4.1c0.1-0.6,0.2-1.3,0.3-2c0.1-2.1,2.5-5.3-0.7-6c-3.3-0.8-2.3,3.3-3.3,5.1
			c-0.7,1.2,0.6,4-2.1,3.5c-2.4-0.4-1.4-2.8-1.2-4.2c1.1-7.6,5.1-13.2,12.5-15.9c7-2.5,13.5-0.7,20.2,6.5c-4.9-1.5-8.4-3.4-12.3-4
			c-4.1-0.6-7.5,0.6-10.8,2.9c-1,0.7-1.5,1.8-0.6,3c0.8,1,1.9,0.9,2.7,0.3c4.9-3.5,6.3,1,8.3,3.6c1.3,1.7,1.8,3.9,1.9,6.1
			c0.2,3.8,2.2,5.9,6,5.8c4-0.1,5.4-2.7,5.3-6.4c0-1.1,0-2.3,0-4.5c4.5,4.2,6.4,8.6,6.8,13.8c0.2,2.3,0.1,4.7,0,7
			C123.9,51.2,125.3,51.9,128,51z M29,83.2c-2.9-0.1-4.1-1.8-3.9-4.6c0.2-2.5,1.6-3.9,4.2-3.8c2.7,0.1,3.4,2.2,4,4
			C32.7,81.4,31.7,83.3,29,83.2z M45.2,81.3c-2.1,4.2-5.8,1.1-8.6,1.8c-0.7-6,3.4-4.8,6.7-4.9C45.7,78.2,45.7,80.3,45.2,81.3z
			 M50.9,83.1c-2.3-0.1-1.8-2.3-1.8-3.8c0.1-1.6-0.8-4.2,1.8-4.3c2.7-0.2,1.8,2.4,2.1,4.1C52.8,80.7,53.6,83.2,50.9,83.1z
			 M109.9,66.4c-0.2-1.2,0.6-1.9,1.6-1.9c0.7,0,1.5,0.5,1.7,2.7c0-0.1-0.6,0.7-1.7,0.7C110.7,67.9,110.1,67.3,109.9,66.4z M77,15.9
			c-0.5-0.3-0.9-1-0.9-1.5c0.1-1.2,1.2-1.4,2.2-1.4c3.3,0,6.6,0,10.5,0C86.5,15.7,79.3,17.3,77,15.9z M113.2,32.6
			c-0.2,0.9-0.5,1.6-1.5,1.6c-1.2,0-1.7-0.7-1.8-1.9c0-3.9-1.8-7.3-4-11.1C111.1,22.5,114.3,28.1,113.2,32.6z"/>
		<path d="M100.7,65.3c-1.1,1.5-2.6,0.8-3.9-0.3c-1.2-1-2.2-3.1-4.2-0.4c-0.7,1-3,0.5-2.7-1.4c0.9-6.1-3.5-10.5-5-15.8
			c-0.5-1.7-2.1-3.6,0.2-4.8c2.3-1.3,2.5,1,3.2,2.4c0.5,1.1,1.7,0.7,2.7,0.8c1.6,0.2,4.2-0.9,4.2,2c0,2.9-2.8,1.4-4.5,2.4
			c2.1,4.8,5.2,8.3,8.9,11.5C100.5,62.9,101.7,64,100.7,65.3z"/>
		<path d="M127.1,64.1c-0.2-2.1-0.7-4.3,0.9-6.1c0,2,0,4,0,6l-0.5,0L127.1,64.1z"/>
		<path d="M34,59.5c-0.9,2.4,1.5,7-2.1,7.1c-4.2,0.1-2.1-4.6-2.3-7.1C29.4,57.2,28,53,31.6,53C35.3,53,33.2,57.2,34,59.5z"/>
		<path d="M14.6,54.3c0.5,0.4,1.2,0.8,1.7,1.4c1.9,2.5,3.8,5,5.6,7.6c0.8,1.1,1.3,2.5-0.2,3.4c-1.1,0.7-2.2,0.2-3-0.9
			c-1.9-2.7-3.9-5.3-5.8-8C11.6,56,12.7,55.1,14.6,54.3z"/>
		<path d="M42.8,67c-2.1-0.3-2.7-1.6-1.7-3.1c1.9-2.9,4-5.7,6.1-8.4c0.6-0.8,1.5-1.4,2.5-0.7c0.9,0.6,1.7,1.4,1,2.4
			c-2.1,3.1-4.4,6.2-6.7,9.2C43.7,66.7,43.1,66.8,42.8,67z"/>
		<path d="M18.7,95.3c2.5,1.4,7-1.7,7,2.5c0,3.4-4.3,1.8-6.7,1.8c-2.3,0-6.5,1.7-6.5-1.9C12.4,93.8,16.8,96.8,18.7,95.3z"/>
		<path d="M19.1,107.1c-2.2-1.1-6.5,1.6-6.5-2c0-3.9,4.4-1.9,6.8-2c2.2-0.1,6.5-1.7,6.3,2C25.6,108.7,21.3,106.1,19.1,107.1z"/>
		<path d="M100.7,65.3c-1.1,1.5-2.6,0.8-3.9-0.3c-1.2-1-2.2-3.1-4.2-0.4c-0.7,1-3,0.5-2.7-1.4c0.9-6.1-3.5-10.5-5-15.8
			c-0.5-1.7-2.1-3.6,0.2-4.8c2.3-1.3,2.5,1,3.2,2.4c0.5,1.1,1.7,0.7,2.7,0.8c1.6,0.2,4.2-0.9,4.2,2c0,2.9-2.8,1.4-4.5,2.4
			c2.1,4.8,5.2,8.3,8.9,11.5C100.5,62.9,101.7,64,100.7,65.3z"/>
	</g>
</g>
</svg>
