<?xml version="1.0" encoding="utf-8"?>
<!-- Generator: Adobe Illustrator 28.0.0, SVG Export Plug-In . SVG Version: 6.00 Build 0)  -->
<svg version="1.1" id="Layer_1" xmlns="http://www.w3.org/2000/svg" xmlns:xlink="http://www.w3.org/1999/xlink" x="0px" y="0px"
	 viewBox="0 0 128 128" style="enable-background:new 0 0 128 128;" xml:space="preserve">
<g id="ESF91U.tif">
	<g>
		<path d="M128,49.6c-1.2,1.3-2.2,3-3.6,4c-1.7,1.2-1.7,2.2-1,4c1.5,3.9,0.7,7.6-2.7,10.3c-1.6,1.2-2.3,2.3-1.1,4.1
			c0.1,0.1,0.1,0.3,0.2,0.5c1.7,5.4-4,8.5-4.2,12.1c-0.3,4.5,1.5,9.1-2.9,12.5c-1.6,1.2-1.4,2-0.9,3.7c1.9,6.2-0.5,9.7-6.3,12.6
			c-3.9,1.9-7.1,2.9-11.2,1.3c-3.2-1.3-7.9-0.8-5.4-6.7c0.5-1.2-1.2-1.8-2-2.5c-5.4-4.4-10.9-8.7-16.3-13.1
			c-1.7-1.4-3.6-2.2-5.8-2.8c-13.2-3.5-26.3-7.1-39.4-10.7c-1.1-0.3-2.9-0.3-3.2-1.1c-2.8-5.4-9.3-6.6-12.6-11.2
			c-1.4-1.9-3-1.9-4.6-2.4c-4-1.2-5.4-3.7-4.4-7.6C2,49.9,3.9,43.3,5.7,36.8c1.2-4.4,3.9-6,8.2-4.5c2,0.7,3.8,0.6,5.6-0.7
			c0.8-0.5,2.2-1.1,2.8-0.7c4.9,2.8,8.3-2,12.5-2.2c1,0,1.3-0.8,1.4-1.7c0-0.8,0.1-1.7,0.1-2.5c-0.1-9.6,1.1-7.8-7.8-8
			c-1.7,0-3.3,0.1-5-0.1c-2.8-0.2-2.9-1.7-1.5-3.7c16.3,0,32.7,0,49,0c1.4,2.6,0.4,3.7-2.3,3.7c-2.7,0-5.3,0.2-8,0
			c-3.8-0.4-4.7,1.1-4.7,4.7c0.1,13.1-0.1,13.2,12.4,16.3c4.8,1.2,9.4,3.7,14.5,3.1c7.4-0.8,14.7-2.2,22.1-3.4
			c1.2-0.2,2.9,0,3.2-1.8c0.8-4.5,3.5-3.9,6.6-2.7c2.7,1,7.1,0.4,7.9,3.1c1,3.5,4.1,5,5.3,7.9C128,45.6,128,47.6,128,49.6z
			 M78.5,45.4c1.2-2-0.9-2.2-2.2-2.5c-5.6-1.6-11.3-2.9-16.8-4.5c-2.4-0.7-3.5-0.5-3.2,2.2c0.1,1.2,0,2.3,0,3.5
			c-0.4,6.3-4.3,10.4-9.8,10.4c-5.4,0.1-10-4.6-10.3-10.7c-0.1-2.7,0.1-5.3-0.1-8c-0.1-1.4,1.1-3.8-1.6-3.9c-2-0.1-3,1.4-3.5,3.5
			C28,46.8,25,58.1,21.8,69.4c-1,3.4,0.1,5.2,3.1,6c13.3,3.6,26.6,7,39.9,10.6c1.7,0.5,2.7,0.7,3.2-1.5
			C71.4,71.5,74.9,58.7,78.5,45.4z M89.7,102.9c0.4-1.1,0.9-2.3,1.2-3.5c4.4-16.2,8.7-32.5,13-48.7c2.9-11,2.9-10.9-8.4-9
			c-3.2,0.5-4.7,1.9-5.5,5.1c-2.9,11.4-6,22.7-9.1,34.1c-3.6,13.5-3.6,13.5,7.9,21.8C89,102.8,89.2,102.8,89.7,102.9z M98,112.2
			c1.8,0.4,1.8-0.9,2.1-2c6.2-23.2,12.5-46.4,18.8-69.6c0.9-3.4-0.9-3.9-3.4-4.5c-2.4-0.6-3.8-0.9-4.6,2.3
			C105,60.9,99,83.3,92.9,105.7C91.8,110.1,93.4,112.1,98,112.2z M53,31.6C53,31.6,53,31.6,53,31.6c0-2,0-4,0-6c0-9.4,0-9.3-9.7-9.1
			c-2.9,0.1-3.7,1-3.6,3.8c0.2,7.6,0.1,15.3,0.2,22.9c0.1,5.1,2.2,7.6,6.5,7.5c4.1-0.1,6.4-2.7,6.5-7.7C53.1,39.2,53,35.4,53,31.6z
			 M75,91.2c4-15.1,8.1-30.1,12.1-45.1c0.7-2.7-0.7-2.6-2.6-2.5c-2.3,0.2-2.3,1.9-2.7,3.5c-3.3,12.3-6.4,24.6-10,36.8
			C70.7,87.5,71.2,89.6,75,91.2z M27,36.2c0.1-1.5-1.6-1.3-3-1.7c-2-0.6-3.4-0.5-4,2c-2.2,8.9-4.6,17.8-7.1,26.6
			c-0.9,3.1,0.7,3.8,3,4.4c2.4,0.7,3.2-0.4,3.5-2.6c0.3-1.8,1.1-3.4,1.5-5.2C22.8,52.1,24.8,44.5,27,36.2z M3.3,58
			c-0.7,2.2,1.6,2.4,3.4,3.1c1.9,0.7,2.9,0.5,3.5-1.8c1.7-6.9,3.6-13.6,5.6-20.4c0.6-2.1,0-3-2.1-3.4c-2-0.4-3.9-1.2-4.7,1.8
			C7.1,43.9,5.3,50.6,3.3,58z M120.1,51.6c5.5-2.1,6.1-5,2.2-9.5C121.1,45.2,119.7,48.2,120.1,51.6z M114.3,70.6
			c-0.6,3.7-2.5,6.6-2,10C117.7,78.5,118.4,75.4,114.3,70.6z M106.6,99.4c-1,3.8-1.8,6.8-2.6,10.1
			C109.7,107.8,110.6,104.7,106.6,99.4z M118.5,56.6c-1.4,3.2-2.6,6.3-2.4,9.8C121.6,63.9,122.3,61.3,118.5,56.6z M110.4,85.4
			c-0.8,3.3-2.3,6.4-2.3,9.9C113.9,92.8,114.7,89.5,110.4,85.4z"/>
		<path d="M46.5,39.4c3.1,0.2,4.8,2,4.7,5.2c-0.1,3-2,4.7-4.8,4.8c-3.1,0.1-5.1-1.9-5.2-5C41.3,41.4,43.2,39.6,46.5,39.4z
			 M46.5,45.8c0.9-0.2,1.5-0.6,1.4-1.7c-0.2-0.9-0.7-1.5-1.7-1.4c-1,0.1-1.4,0.8-1.3,1.7C44.9,45.4,45.6,45.8,46.5,45.8z"/>
	</g>
</g>
</svg>
