<?xml version="1.0" encoding="utf-8"?>
<!-- Generator: Adobe Illustrator 28.0.0, SVG Export Plug-In . SVG Version: 6.00 Build 0)  -->
<svg version="1.1" id="Layer_1" xmlns="http://www.w3.org/2000/svg" xmlns:xlink="http://www.w3.org/1999/xlink" x="0px" y="0px"
	 viewBox="0 0 128 128" style="enable-background:new 0 0 128 128;" xml:space="preserve">
<g id="_x33_nKt0l.tif">
	<g>
		<path d="M41.2,0c16.5,0,33.1,0,49.6,0c2.6,3.1,6.5,5.9,4.1,10.5c-1.6,3.1-0.2,5.6-0.2,8.3c-0.1,6,0.6,12.1,0,17.9
			c-0.4,3.6-0.6,5.9,2.1,8.2c0,1.3,0,2.7,0,4c-1.4,3.7-6,5.8-5.5,10.6c0.1,0.8-0.9,1.3-1.8,1.3c-1,0-1.6-0.6-1.6-1.5
			c-0.1-2.8-1.5-2.3-3.7-2c-6,0.8-5.5,5-5.1,9.1c0.2,1.7-1.3,4.7,2.1,4.4c2.4-0.2,6.3,2.4,6.7-3c0.1-1.9,2.5-2.8,2.9-1.1
			c0.7,3.2,4.3,4.6,4.5,7.1c0.5,7.8,2.7,16.4-3.6,22.9c-7.3,7.5-12.4,16.3-16.5,25.8c-2,4.6-5.5,5.5-10,5.4
			c-4.8-0.2-9.6,0.6-12.1-5.2c-4.1-9.6-9.4-18.5-16.7-26.2c-6.1-6.5-3.7-15-3.4-22.9c0-0.3,0.2-0.7,0.5-0.9c4.2-2.2,3.3-6.1,3-9.5
			c-0.1-1.9,2-4-0.1-5.5c-4.2-3-6.4-6.9-3.4-11.4c3-4.7-4.1-8.5-0.4-12.8c0.3-0.4,0.5-0.9,0.8-1.2c1-1.1,0.9-2,0.2-3.5
			c-3.2-6.3-2.2-9.2,4.1-12.9c0.9-0.5,2.5-0.7,1.2-2.3C34.3,8.2,37,4,41.2,0z M77.4,107.9c-1.7,0-3.1,0.2-4.4,0
			c-2.1-0.4-5.7,1.4-5.8-1.8c-0.1-3.9,3.9-2.1,5.9-2c4.8,0.3,8.5-0.6,11.4-4.9c2.5-3.6,6.3-6.3,7-11.2c0.5-3.6,0-5.5-4.4-5.3
			C75.5,83,63.7,82.8,52,82.7c-1.8,0-4.1,0.4-4.4-2c-0.2-2,1.9-1.9,3.3-2c1.4-0.1,2.1-0.8,2-2.2c-0.1-1.8-1.5-1.4-2.6-1.5
			c-3.5-0.1-6.9-0.1-10.4,0c-1.3,0-3.3-0.8-3.4,1.6c-0.2,2.4,1.7,2,3.1,2.1c1.3,0.1,2.9,0.1,2.7,2c-0.2,1.7-1.6,2-3,1.9
			c-3-0.3-3.1,1.6-2.9,3.8c0.1,2,0.3,4.1,1.5,5.7c4.8,6.3,8.9,14,19,11.8c0.6-0.1,1.3,0,2,0c1.4,0,2.9,0.2,2.9,1.9
			c0,1.7-1.5,2-2.9,2c-2.7,0-5.4,0-8.3,0c3.2,8.7,3.2,8.7,11.3,8.7c1.5,0,3,0,4.5,0C74.4,116.6,74.4,116.6,77.4,107.9z M71.2,3.9
			c-9,0-17.4,0-25.8,0c-3,0-4.9,1.4-4.9,4.3c0.1,3.1,2.3,3.9,5.2,4.1c3.8,0.2,7-1.6,10.5-2.5c1.6-0.4,3.4-1.5,4.1,0.8
			c0.7,2.3-1.6,2.6-3,3.1c-5.9,2.1-11.8,4-17.8,5.9c-2.6,0.9-4.6,2.3-3.8,5.4c0.9,3.3,3.5,3.7,6.3,2.8c15.2-5,30.3-10,45.4-15.1
			c2.8-0.9,4.8-2.7,3.6-5.9c-1.2-3.3-3.8-3.1-6.6-2.1c-4,1.4-8.1,2.9-12.2,4c-2.2,0.6-5.6,3.5-6.8-0.1C64.5,5.5,69.2,6.4,71.2,3.9z
			 M40.6,66.4c0.5,1.1-2,4.7,2.5,4.6c2.9,0,6.7,1.2,6-4.2c-0.3-2.1,1.7-2.4,3.3-3C64.1,60,75.8,56,87.5,52.1c2.8-0.9,5.7-2,4.7-5.7
			c-1-3.9-4-3.5-7.2-2.5c-12.8,4.3-25.5,8.8-38.4,12.7C41.9,58.2,39.6,60.6,40.6,66.4z M40.5,54.3c0.5-0.1,1.3-0.2,2.1-0.4
			c15-5,30.1-9.9,45.1-15c2.6-0.9,4.5-2.6,3.5-5.6c-1.1-3.3-3.6-3.4-6.5-2.4c-7.8,2.6-15.6,5.2-23.5,7.8c-7.4,2.4-14.7,4.8-22.1,7.3
			c-2.5,0.8-4,2.5-3.5,5.2C36.2,53.5,38,54.4,40.5,54.3z M41.1,41c-0.5,0.1,0,0.1,0.5-0.1c15.6-5.2,31.2-10.3,46.8-15.6
			c2.4-0.8,3.9-2.7,2.8-5.4c-1-2.5-2.9-3.4-5.6-2.5c-4.5,1.5-9,3-13.6,4.5C61,25.6,50.1,29.2,39.2,32.8c-2.5,0.8-4,2.5-3.5,5.2
			C36.1,40.3,37.8,41.3,41.1,41z M64.7,78.7c3,0.4,7.2,1,6.9-5.2c0-0.4,0.4-1,0.8-1.2c4.5-2.2,2.3-6.3,2.6-9.7
			c0.2-2.2-1.4-1.7-2.7-1.3c-4.3,1.5-8.7,2.9-13.1,4.4c-6.2,2.1-6.2,2-3,7.2c0.2,0.3,0.4,0.6,0.4,0.9C56.1,79.9,60.3,78.8,64.7,78.7
			z M83.2,78.7c2.1,0,4.3,0,6.4,0c1.1,0,1.9-0.4,2-1.7c0.1-1.6-0.8-2-2.1-2c-4.1,0-8.2,0-12.3,0c-1.1,0-1.9,0.2-2,1.6
			c-0.1,1.5,0.8,2,2.1,2C79.3,78.7,81.2,78.7,83.2,78.7z M64.6,120.7c-0.9,0-1.4-0.1-1.8,0c-1.8,0.6-5.1-1.5-5.2,1.4
			c-0.1,2.6,3.3,1.7,5.3,1.9c0.3,0,0.7,0.1,1,0c2.4-0.5,6.5,1.3,6.6-2C70.4,119.5,66.3,121.4,64.6,120.7z"/>
		<path d="M64.2,98.9c-2.3,0-4.6,0-6.9,0c-3.5-0.1-5.7-2.1-5.9-5.5c-0.2-3.2,1.8-5.4,5-5.8c5.1-0.6,10.2-0.6,15.3,0
			c3.2,0.4,5.1,2.7,4.9,5.8c-0.2,3.1-2.2,5.2-5.5,5.4C68.8,99,66.5,98.9,64.2,98.9C64.2,98.9,64.2,98.9,64.2,98.9z M63.8,94.9
			c2.1,0,4.3,0,6.4,0c1.1,0,2.1-0.5,2.1-1.6c0.1-1.2-1-1.7-2-1.7c-4.3,0-8.6,0-12.9,0c-1,0-2.1,0.5-1.9,1.8c0.2,1.1,1.1,1.5,2.2,1.5
			C59.8,94.9,61.8,95,63.8,94.9z"/>
	</g>
</g>
</svg>
