<?xml version="1.0" encoding="utf-8"?>
<!-- Generator: Adobe Illustrator 27.9.0, SVG Export Plug-In . SVG Version: 6.00 Build 0)  -->
<svg version="1.1" id="a" xmlns="http://www.w3.org/2000/svg" xmlns:xlink="http://www.w3.org/1999/xlink" x="0px" y="0px"
	 viewBox="0 0 128 128" style="enable-background:new 0 0 128 128;" xml:space="preserve">
<g>
	<path d="M104.09,65.46c0-4.63-1.01-9.08-2.99-13.23c-3.88-8.12-4.47-17.15-1.64-25.41c0.58-1.69,1.49-3.37,0.33-4.99
		c-0.58-0.81-1.53-1.3-2.54-1.3H81.72l1.25-6.06c0.19-0.93,0.73-1.74,1.52-2.28l12.88-8.74c0.86-0.58,1.08-1.75,0.5-2.6
		c-0.58-0.86-1.75-1.08-2.6-0.5L82.38,9.09c-1.6,1.09-2.7,2.73-3.09,4.62l-1.4,6.82H58.71l9.42-9.41c0.56-0.56,0.87-1.33,0.86-2.13
		c-0.02-0.79-0.36-1.55-0.94-2.08c-10.41-9.54-26.4-9.18-36.4,0.79l0,0l0,0l0,0c-10,9.98-10.35,25.94-0.8,36.34
		c0.53,0.58,1.29,0.92,2.08,0.93c0.02,0,0.04,0,0.06,0c0.77,0,1.52-0.31,2.06-0.85L47.3,31.92c1.32,6.85,0.42,14.04-2.63,20.63
		c-0.72,1.56-1.32,3.19-1.77,4.84c-0.27,1,0.32,2.03,1.32,2.3c1,0.27,2.03-0.32,2.3-1.32c0.4-1.45,0.92-2.88,1.55-4.25
		c3.91-8.43,4.63-17.74,2.07-26.37c-0.25-0.85-0.84-2.6-1.14-3.47c0.73-0.18,27.34,0.18,28.13,0l-2.91,14.16
		c-1.95,0.92-3.68,1.8-6.04,2.36c-2.94,0.69-6.01,0.68-9.37-0.04c-0.85-0.18-1.75,0-2.46,0.5c-0.71,0.5-1.18,1.28-1.29,2.14
		c-0.55,4.22-1.76,8.35-3.58,12.29c-1.42,3.07-2.14,6.35-2.14,9.75c0,12.9,10.6,23.41,23.63,23.41s23.63-10.5,23.63-23.41
		c0-3.5-0.76-6.87-2.26-10c-0.46-0.96-0.89-1.94-1.27-2.93c-0.38-0.96-1.46-1.44-2.43-1.07c-0.96,0.38-1.44,1.46-1.07,2.43
		c0.42,1.07,0.88,2.14,1.38,3.18c1.26,2.62,1.89,5.44,1.89,8.38c0,10.84-8.92,19.66-19.88,19.66s-19.88-8.82-19.88-19.66
		c0-2.85,0.6-5.61,1.8-8.18c1.89-4.07,3.17-8.35,3.81-12.71c3.63,0.69,7.11,0.65,10.36-0.12c1.62-0.38,2.98-0.89,4.24-1.44
		l-5.26,25.6c-0.21,1.02,0.44,2,1.46,2.22c0.13,0.02,0.25,0.04,0.38,0.04c0.87,0,1.65-0.61,1.83-1.5l5.82-28.3
		c1.53-0.65,3.18-1.2,5.32-1.49c1.2-0.16,2.43-0.22,3.66-0.18c0.08,1.91,0.3,3.84,0.62,5.73c0.18,1.02,1.15,1.7,2.17,1.52
		c1.02-0.18,1.7-1.15,1.52-2.17c-0.34-1.91-0.53-3.85-0.59-5.78c-0.05-1.63-1.32-2.93-2.96-3.02c-1.66-0.09-3.32-0.03-4.93,0.19
		c-1.49,0.2-2.78,0.5-3.93,0.87l2.56-12.46h15.41l-0.46,1.33c-3.14,9.19-2.5,19.22,1.81,28.24c1.74,3.64,2.62,7.55,2.62,11.61
		c0,14.98-12.28,27.16-27.38,27.16c-7.13,0-13.89-2.71-19.02-7.62c-5.12-4.9-8.08-11.47-8.34-18.5c-0.04-1.03-0.9-1.83-1.94-1.8
		c-1.03,0.04-1.84,0.91-1.8,1.94c0.3,8.01,3.68,15.49,9.49,21.06c4.46,4.27,10,7.08,15.99,8.16v20.43c0,0.33-0.18,0.63-0.48,0.78
		l-10.91,5.48c-1.2,0.6-1.82,1.93-1.51,3.23c0.31,1.3,1.46,2.21,2.8,2.21h31.45c1.34,0,2.49-0.91,2.8-2.21
		c0.31-1.3-0.31-2.63-1.51-3.23l-10.91-5.48c-0.3-0.15-0.48-0.45-0.48-0.78V95.87C93.07,93.23,104.09,80.6,104.09,65.46
		L104.09,65.46L104.09,65.46z M33.03,11.75l11.73,11.71l0.12,0.36L28.1,21.93C28.82,18.27,30.47,14.76,33.03,11.75z M33.03,40.87
		c-3.74-4.39-5.51-9.82-5.35-15.21l18.51,2.08C46.19,27.74,33.03,40.87,33.03,40.87z M47.14,20.53L35.69,9.11
		c3.02-2.55,6.54-4.2,10.21-4.92l1.84,16.35C47.73,20.53,47.14,20.53,47.14,20.53z M53.41,20.53h-1.9L49.62,3.76
		c5.39-0.16,10.84,1.61,15.24,5.34L53.41,20.53L53.41,20.53z M85,124.25H60.92l7.61-3.83c1.57-0.79,2.55-2.37,2.55-4.13V96.31
		c0.62,0.04,1.25,0.06,1.88,0.06s1.25-0.02,1.87-0.06v19.98c0,1.76,0.97,3.34,2.55,4.13L85,124.25L85,124.25z"/>
</g>
</svg>
