<?xml version="1.0" encoding="utf-8"?>
<!-- Generator: Adobe Illustrator 27.9.0, SVG Export Plug-In . SVG Version: 6.00 Build 0)  -->
<svg version="1.1" id="a" xmlns="http://www.w3.org/2000/svg" xmlns:xlink="http://www.w3.org/1999/xlink" x="0px" y="0px"
	 viewBox="0 0 128 128" style="enable-background:new 0 0 128 128;" xml:space="preserve">
<path d="M53.69,81.55l6.94-26.46c0.38-1.45,1.69-2.46,3.18-2.46H78.2c1.52,0,2.85,1.05,3.2,2.53l6.29,26.46
	c0.49,2.07-1.08,4.05-3.2,4.05H56.87v0C54.71,85.68,53.14,83.64,53.69,81.55z M22.43,105.75C22.43,105.75,22.43,105.75,22.43,105.75
	C22.43,105.75,22.43,105.75,22.43,105.75L22.43,105.75z M82.41,113.79v-6.62h10.22V99.1H82.41v-3.93c0-1.82-1.47-3.29-3.29-3.29
	H62.13c-1.82,0-3.29,1.47-3.29,3.29v3.93H39.71c-1.23-0.03-10.27-0.04-17.29,6.65c-5.35,5.1-8.06,12.59-8.06,22.25h8.07
	c0-7.32,1.85-12.82,5.5-16.34c4.13-3.98,13.67-4.44,16.26-4.48h14.65v6.62c0,0-14.9,1.04-20.8,14.21h65.16
	C97.32,114.83,82.41,113.79,82.41,113.79z M111.23,95.51l-8.14-2.25c-2.1-0.58-4.17,0.99-4.17,3.17v13.42
	c0,2.18,2.07,3.75,4.17,3.17l8.14-2.25c1.43-0.4,2.41-1.69,2.41-3.17v-8.91C113.64,97.2,112.65,95.9,111.23,95.51z M54.65,38.71
	L54.65,38.71c1.13,4.39,5.02,7.45,9.46,7.45h12.57c4.12,0,7.81-2.65,9.21-6.63c1.88-5.31,2.57-13.57-3.76-23.82
	C75.37,4.78,64.49,1.15,56.73,0.01c-1.25-0.18-1.78,1.56-0.66,2.14c9.53,5.01,12.71,15.69,13.74,20.05c1.04,4.4-5.31,5.7-5.34,0
	c-0.02-3.14-2.21-5.7-4.58-7.56c-0.91-0.71-2.13,0.28-1.69,1.36c0.96,2.4,1.02,5.7-1.7,9.96C53.62,30.48,53.71,35.06,54.65,38.71z"
	/>
</svg>
