<?xml version="1.0" encoding="utf-8"?>
<!-- Generator: Adobe Illustrator 27.9.0, SVG Export Plug-In . SVG Version: 6.00 Build 0)  -->
<svg version="1.1" id="a" xmlns="http://www.w3.org/2000/svg" xmlns:xlink="http://www.w3.org/1999/xlink" x="0px" y="0px"
	 viewBox="0 0 128 128" style="enable-background:new 0 0 128 128;" xml:space="preserve">
<g>
	<path d="M79.94,74.35c1.47,0,2.67-1.2,2.67-2.67V70.7c0-0.55,0.36-0.98,0.79-0.98h0.8c1.68,0,3.05-1.63,3.05-3.64v-4.55
		c0-2.01-1.37-3.64-3.05-3.64H83.4c-0.44,0-0.79-0.26-0.79-0.58v-0.58c0-1.47-1.2-2.67-2.67-2.67H51.19
		c-5.75,0-10.42,4.55-10.42,10.14c0,5.59,4.67,10.14,10.42,10.14L79.94,74.35L79.94,74.35L79.94,74.35z M83.4,59.34h0.8
		c0.88,0,1.59,0.98,1.59,2.18v4.55c0,1.2-0.71,2.18-1.59,2.18H83.4c-0.44,0-0.79-1.14-0.79-2.54v-3.83
		C82.61,60.48,82.96,59.34,83.4,59.34L83.4,59.34z M51.19,55.52h28.75c0.67,0,1.21,0.54,1.21,1.21v14.95c0,0.67-0.54,1.21-1.21,1.21
		H51.19c-4.95,0-8.97-3.89-8.97-8.69C42.21,59.42,46.24,55.52,51.19,55.52L51.19,55.52z"/>
	<path d="M76.23,70.79c1.4,0,2.54-1.14,2.54-2.54v-8.09c0-1.4-1.14-2.54-2.54-2.54H51.42c-3.72-0.01-6.62,2.97-6.62,6.58
		c0,3.61,2.9,6.59,6.62,6.59L76.23,70.79L76.23,70.79z"/>
	<path d="M31.26,0c-2.1,0-3.81,1.71-3.81,3.81v120.38c0,2.1,1.71,3.81,3.81,3.81h65.49c2.1,0,3.81-1.71,3.81-3.81V3.81
		c0-2.1-1.71-3.81-3.81-3.81H31.26z M97.17,3.81v120.38c0,0.23-0.19,0.42-0.42,0.42H31.26c-0.23,0-0.42-0.19-0.42-0.42V3.81
		c0-0.23,0.19-0.42,0.42-0.42h65.49C96.98,3.39,97.17,3.58,97.17,3.81L97.17,3.81z"/>
	<path d="M92.73,13.8H35.28c-0.53,0-0.95,0.43-0.95,0.95v98.91c0,0.53,0.43,0.95,0.95,0.95h57.45c0.53,0,0.95-0.43,0.95-0.95V14.75
		C93.68,14.22,93.25,13.8,92.73,13.8z M89.24,112.71H38.77c-1.4,0-2.54-1.14-2.54-2.54V18.24c0-1.4,1.14-2.54,2.54-2.54h50.47
		c1.4,0,2.54,1.14,2.54,2.54v91.92C91.78,111.57,90.64,112.71,89.24,112.71L89.24,112.71z"/>
	<path d="M71.3,117.36H56.7c-0.53,0-0.95,0.43-0.95,0.95v3.89c0,0.53,0.43,0.95,0.95,0.95H71.3c0.53,0,0.95-0.43,0.95-0.95v-3.89
		C72.25,117.78,71.82,117.36,71.3,117.36z M67.8,121.25H60.2c-1.4,0-2.54-0.44-2.54-0.99c0-0.55,1.14-0.99,2.54-0.99h7.61
		c1.4,0,2.54,0.44,2.54,0.99C70.34,120.81,69.21,121.25,67.8,121.25z"/>
	<path d="M56.71,11.16H71.3c0.53,0,0.95-0.43,0.95-0.95V6.32c0-0.53-0.43-0.95-0.95-0.95H56.71c-0.53,0-0.95,0.43-0.95,0.95v3.89
		C55.75,10.74,56.18,11.16,56.71,11.16z M60.2,7.27h7.61c1.4,0,2.54,0.44,2.54,0.99c0,0.55-1.14,0.99-2.54,0.99H60.2
		c-1.4,0-2.54-0.44-2.54-0.99C57.66,7.72,58.79,7.27,60.2,7.27z"/>
	<circle cx="89.01" cy="8.27" r="1.94"/>
	<circle cx="85.07" cy="8.27" r="0.89"/>
	<circle cx="82.72" cy="8.27" r="0.89"/>
</g>
</svg>
