<?xml version="1.0" encoding="utf-8"?>
<!-- Generator: Adobe Illustrator 27.9.0, SVG Export Plug-In . SVG Version: 6.00 Build 0)  -->
<svg version="1.1" id="a" xmlns="http://www.w3.org/2000/svg" xmlns:xlink="http://www.w3.org/1999/xlink" x="0px" y="0px"
	 viewBox="0 0 128 128" style="enable-background:new 0 0 128 128;" xml:space="preserve">
<g>
	<path d="M39.22,68.53L27.2,86.57c-1.59,2.38-2.43,5.15-2.43,8.01v0.38c0,7.97,6.48,14.45,14.45,14.45s14.45-6.48,14.45-14.45v-0.38
		c0-2.86-0.84-5.63-2.43-8.01L39.22,68.53L39.22,68.53z M49.55,94.97c0,5.69-4.63,10.32-10.32,10.32S28.9,100.66,28.9,94.97v-0.38
		c0-2.04,0.6-4.02,1.73-5.73l8.59-12.88l8.59,12.88c1.13,1.7,1.73,3.68,1.73,5.73V94.97z"/>
	<path d="M37.16,94.97v-0.38c0-0.41,0.12-0.8,0.35-1.14l-3.43-2.29c-0.68,1.02-1.04,2.21-1.04,3.44v0.38c0,3.41,2.78,6.19,6.19,6.19
		v-4.13C38.09,97.04,37.16,96.11,37.16,94.97L37.16,94.97z"/>
	<path d="M105.29,84.61l-8.98,15.71c-0.88,1.54-1.34,3.29-1.34,5.07c0,5.64,4.59,10.22,10.22,10.22h0.2
		c5.63,0,10.22-4.59,10.22-10.22c0-1.77-0.47-3.53-1.34-5.07L105.29,84.61L105.29,84.61z M105.39,111.48h-0.2
		c-3.36,0-6.09-2.73-6.09-6.09c0-1.06,0.28-2.11,0.8-3.02l5.39-9.43l5.39,9.43c0.53,0.92,0.8,1.96,0.8,3.02
		C111.48,108.75,108.75,111.48,105.39,111.48L105.39,111.48z"/>
	<path d="M74.05,28.87L57.81,17.5V6.19c0-3.41-2.78-6.19-6.19-6.19H26.84c-3.41,0-6.19,2.78-6.19,6.19V17.5L4.4,28.87
		C1.64,30.8,0,33.97,0,37.33v80.34C0,123.37,4.63,128,10.32,128h57.81c5.69,0,10.32-4.63,10.32-10.32V37.33
		C78.45,33.96,76.81,30.8,74.05,28.87L74.05,28.87z M24.78,16.52v-4.13h4.13v4.13H24.78z M33.03,12.39h4.13v4.13h-4.13V12.39z
		 M41.29,12.39h4.13v4.13h-4.13V12.39z M49.55,12.39h4.13v4.13h-4.13V12.39z M26.84,4.13h24.78c1.14,0,2.06,0.93,2.06,2.06v2.06
		h-28.9V6.19C24.78,5.06,25.7,4.13,26.84,4.13z M6.77,32.26l16.59-11.61h31.73l16.59,11.61c1.65,1.16,2.64,3.06,2.64,5.07v0.02
		c-3.06-2.73-7.02-4.32-11.3-4.32h-47.6c-4.28,0-8.24,1.59-11.3,4.32v-0.02C4.13,35.31,5.12,33.41,6.77,32.26z M68.13,123.87H10.32
		c-3.41,0-6.19-2.78-6.19-6.19V43.91c2.25-4.16,6.53-6.75,11.3-6.75h47.6c3.67,0,7.06,1.52,9.45,4.13H57.8v4.13h16.52v4.13H57.8
		v4.13h16.52v64C74.32,121.08,71.54,123.86,68.13,123.87L68.13,123.87z"/>
	<path d="M65.63,60.78L18.21,41.81c-0.86-0.35-1.77-0.52-2.7-0.52c-4,0-7.26,3.26-7.26,7.26v63.93c0,4,3.26,7.26,7.26,7.26h47.42
		c4,0,7.26-3.26,7.26-7.26V67.51C70.19,64.53,68.4,61.88,65.63,60.78L65.63,60.78z M66.06,112.48c0,1.73-1.4,3.13-3.13,3.13H15.52
		c-1.73,0-3.13-1.4-3.13-3.13V48.55c0-1.73,1.4-3.13,3.13-3.13c0.4,0,0.79,0.08,1.16,0.22L64.1,64.61c1.2,0.48,1.97,1.62,1.97,2.91
		L66.06,112.48L66.06,112.48z"/>
	<path d="M16.52,55.74H35.1v4.13H16.52V55.74z"/>
	<path d="M16.52,64H35.1v4.13H16.52V64z"/>
	<path d="M125.52,71.43l-5.78-4.34v-9.29h-6.37l-3.77-41.48c-0.2-2.24-2.05-3.93-4.31-3.93c-2.25,0-4.1,1.69-4.31,3.93l-3.77,41.48
		h-6.37v9.29l-5.78,4.34c-1.55,1.16-2.48,3.01-2.48,4.95v45.42c0,3.41,2.78,6.19,6.19,6.19h33.03c3.41,0,6.19-2.78,6.19-6.19V76.38
		C128,74.44,127.07,72.59,125.52,71.43L125.52,71.43z M115.61,66.06h-4.13v-4.13h4.13V66.06z M107.35,61.94v4.13h-4.13v-4.13H107.35
		z M105.09,16.7c0.02-0.2,0.37-0.2,0.39,0l3.74,41.11h-7.86L105.09,16.7L105.09,16.7z M99.09,61.94v4.13h-4.13v-4.13H99.09z
		 M121.8,123.87H88.77c-1.14,0-2.06-0.92-2.06-2.06V80.52h24.78v-4.13H86.71c0-0.65,0.31-1.26,0.83-1.65l6.06-4.54h23.4l6.06,4.54
		c0.52,0.38,0.82,1,0.82,1.65h-8.26v4.13h8.26v41.29C123.87,122.94,122.94,123.87,121.8,123.87L121.8,123.87z"/>
</g>
</svg>
