<?xml version="1.0" encoding="utf-8"?>
<!-- Generator: Adobe Illustrator 27.9.0, SVG Export Plug-In . SVG Version: 6.00 Build 0)  -->
<svg version="1.1" id="a" xmlns="http://www.w3.org/2000/svg" xmlns:xlink="http://www.w3.org/1999/xlink" x="0px" y="0px"
	 viewBox="0 0 128 128" style="enable-background:new 0 0 128 128;" xml:space="preserve">
<g>
	<path d="M70.24,105.55c0-3.15-2.56-5.7-5.7-5.7c-3.14,0-5.7,2.56-5.7,5.7s2.56,5.7,5.7,5.7C67.69,111.25,70.24,108.69,70.24,105.55
		z M62.58,105.55c0-1.08,0.88-1.95,1.95-1.95c1.08,0,1.95,0.88,1.95,1.95c0,1.08-0.88,1.95-1.95,1.95
		C63.46,107.5,62.58,106.63,62.58,105.55z"/>
	<path d="M116.83,65.02c3.58-5.74,3.62-12.99-0.01-18.79L105,27.29l0,0l0,0L93.18,8.35C87.99,0.04,77.02-2.49,68.71,2.69
		c-4.02,2.51-6.83,6.44-7.9,11.06c-0.2,0.88-0.34,1.76-0.41,2.65c-4.62-0.23-9.14,1.35-12.64,4.47L31.09,35.71l0,0l0,0L14.42,50.56
		c-3.55,3.15-5.65,7.5-5.92,12.23c-0.28,4.73,1.31,9.29,4.47,12.83c1.47,1.65,3.21,3,5.17,4c0.28,0.14,0.56,0.2,0.85,0.2
		c0.68,0,1.34-0.37,1.67-1.02c0.47-0.92,0.11-2.05-0.81-2.52c-1.54-0.79-2.91-1.85-4.08-3.16c-5.14-5.77-4.62-14.64,1.15-19.77
		l15.27-13.6l14.47,16.25c-1.6,0.19-3.19,0.6-4.71,1.23c-4.38,1.81-7.79,5.23-9.61,9.61c-1.33,3.22-1.68,6.69-1.05,10.03
		c-1.25,0.48-2.56,0.78-3.91,0.89c-1.03,0.08-1.8,0.99-1.72,2.02c0.08,0.98,0.9,1.73,1.87,1.73c0.05,0,0.1,0,0.15-0.01
		c1.62-0.13,3.18-0.48,4.68-1.03c1.82,4.36,5.22,7.76,9.59,9.57l19.34,8.01c0.41,0.17,0.83,0.25,1.25,0.25
		c1.28,0,2.5-0.76,3.03-2.02l1.08-2.61c0.8,0.44,1.71,0.68,2.65,0.68c3.04,0,5.52-2.48,5.52-5.52c0-2.5-1.68-4.62-3.97-5.3
		l4.19-10.13l6.62,15.98c-2.75,0.75-4.77,3.26-4.77,6.24c0,3.57,2.9,6.47,6.47,6.47c2.8,0,5.21-1.77,6.1-4.33l18.67-7.73
		c9.05-3.75,13.36-14.15,9.61-23.2c-0.26-0.63-0.56-1.25-0.89-1.84L116.83,65.02z M34.98,37.27l15.27-13.6
		c2.84-2.53,6.51-3.77,10.26-3.51c0.34,2.45,1.19,4.83,2.53,7l8.69,13.91c-0.75,1.32-1.7,2.5-2.85,3.52L54.93,57.02
		c-1.02-0.38-2.07-0.67-3.12-0.85L34.98,37.27L34.98,37.27z M71.05,88.84c0,0.98-0.79,1.77-1.77,1.77c-0.44,0-0.86-0.17-1.19-0.47
		l1.27-3.07C70.3,87.12,71.05,87.89,71.05,88.84L71.05,88.84z M62.27,94.41l-18.89-7.82c-7.13-2.96-10.53-11.17-7.58-18.3
		c2.96-7.13,11.17-10.53,18.3-7.58l18.89,7.82L62.27,94.41L62.27,94.41z M75.03,65.33c-0.05-0.02-0.11-0.05-0.16-0.07L58.79,58.6
		l12.59-11.21c0.96-0.85,1.81-1.8,2.55-2.81l10.52,16.84l-9.26,3.83C75.13,65.28,75.08,65.31,75.03,65.33L75.03,65.33z M83.34,98.36
		c-1.5,0-2.72-1.22-2.72-2.72c0-1.42,1.1-2.59,2.49-2.71l1.39,3.35c0.19,0.47,0.49,0.87,0.85,1.19
		C84.85,98.03,84.13,98.37,83.34,98.36L83.34,98.36z M114.26,79.01c-1.43,3.46-4.12,6.15-7.58,7.58l-18.89,7.82L77.06,68.53
		l18.89-7.82c3.46-1.43,7.26-1.43,10.72,0c2.61,1.08,4.78,2.88,6.31,5.19c0.02,0.04,0.05,0.08,0.07,0.12
		c0.46,0.71,0.86,1.47,1.2,2.28C115.69,71.74,115.69,75.55,114.26,79.01z M114.41,61.64c-1.73-1.89-3.86-3.39-6.3-4.4
		c-4.38-1.81-9.21-1.81-13.59,0l-6.57,2.72L79.05,45.7l14.07-8.78c0.88-0.55,1.15-1.7,0.6-2.58c-0.55-0.88-1.7-1.15-2.58-0.6
		l-14.07,8.78L66.24,25.17c-1.28-2.05-1.99-4.34-2.11-6.69c0-0.05,0-0.11-0.01-0.16c-0.05-1.23,0.06-2.49,0.35-3.73
		c0.84-3.64,3.06-6.74,6.23-8.72c6.55-4.09,15.21-2.09,19.3,4.46l10.83,17.35l-2.22,1.39c-0.88,0.55-1.15,1.7-0.6,2.58
		c0.36,0.57,0.97,0.88,1.59,0.88c0.34,0,0.68-0.09,0.99-0.29l2.22-1.39l10.83,17.35C116.22,52.34,116.45,57.38,114.41,61.64
		L114.41,61.64z"/>
	<path d="M80.58,104.42c-3.04,0-5.52,2.48-5.52,5.52s2.48,5.52,5.52,5.52c3.04,0,5.52-2.48,5.52-5.52S83.63,104.42,80.58,104.42z
		 M80.58,111.71c-0.98,0-1.77-0.79-1.77-1.77c0-0.98,0.79-1.77,1.77-1.77s1.77,0.79,1.77,1.77
		C82.35,110.92,81.56,111.71,80.58,111.71z"/>
	<path d="M69.28,114.4c-3.75,0-6.79,3.05-6.79,6.8c0,3.75,3.05,6.8,6.79,6.8s6.8-3.05,6.8-6.8C76.08,117.46,73.03,114.4,69.28,114.4
		z M69.28,124.25c-1.68,0-3.05-1.37-3.05-3.05c0-1.68,1.37-3.05,3.05-3.05s3.05,1.37,3.05,3.05
		C72.33,122.88,70.96,124.25,69.28,124.25z"/>
</g>
</svg>
