<?xml version="1.0" encoding="utf-8"?>
<!-- Generator: Adobe Illustrator 27.9.0, SVG Export Plug-In . SVG Version: 6.00 Build 0)  -->
<svg version="1.1" id="a" xmlns="http://www.w3.org/2000/svg" xmlns:xlink="http://www.w3.org/1999/xlink" x="0px" y="0px"
	 viewBox="0 0 128 128" style="enable-background:new 0 0 128 128;" xml:space="preserve">
<g>
	<path d="M90.83,20.64h4.13v4.13h-4.13V20.64z"/>
	<path d="M127.39,15.06l-4.13-4.13c-0.38-0.39-0.91-0.6-1.46-0.6h-18.58V2.06c0-1.14-0.92-2.06-2.06-2.06H84.64
		c-1.14,0-2.06,0.92-2.06,2.06v8.26h-5.34L73.71,6.8c-0.38-0.39-0.91-0.6-1.46-0.6H64c-1.14,0-2.06,0.92-2.06,2.06V28.9H51.61
		c-16.38,0-29.79,12.79-30.86,28.9h-6.3c-1.14,0-2.06,0.92-2.06,2.06V64c0,0.55,0.22,1.07,0.6,1.46l2.67,2.67L0.6,83.18
		c-0.19,0.19-0.34,0.42-0.44,0.67C0.06,84.1,0,84.37,0,84.64v24.78c0,0.28,0.06,0.55,0.16,0.79c0.11,0.25,0.26,0.48,0.44,0.67
		l16.52,16.52c0.38,0.39,0.91,0.6,1.46,0.6h28.9c0.55,0,1.07-0.22,1.46-0.6l16.52-16.52c0.19-0.19,0.34-0.42,0.44-0.67
		c0.1-0.25,0.16-0.52,0.16-0.79V84.64c0-0.28-0.06-0.55-0.16-0.79c-0.11-0.25-0.26-0.48-0.44-0.67L50.4,68.13l2.67-2.67
		c0.39-0.38,0.6-0.91,0.6-1.46v-4.13c0-1.14-0.92-2.06-2.06-2.06h-6.19c0-5.69,4.63-10.32,10.32-10.32h6.19v6.19
		c0,1.14,0.92,2.06,2.06,2.06h8.26c0.55,0,1.07-0.22,1.46-0.6l3.52-3.52h44.56c0.55,0,1.07-0.22,1.46-0.6l4.13-4.13
		c0.39-0.38,0.6-0.91,0.6-1.46V16.52C127.99,15.97,127.77,15.44,127.39,15.06L127.39,15.06z M46.63,70.19l12.39,12.39H7.05
		l12.39-12.39H46.63L46.63,70.19z M61.93,107.35H4.13v-4.13h57.8L61.93,107.35L61.93,107.35z M4.13,99.09v-4.13h57.8v4.13H4.13
		L4.13,99.09z M4.13,86.71h57.8v4.13H4.13L4.13,86.71L4.13,86.71z M46.63,123.87H19.43L7.05,111.48h51.96L46.63,123.87z
		 M49.55,61.93v1.21l-2.92,2.92H19.43l-2.92-2.92v-1.21H49.55L49.55,61.93z M55.74,43.35c-7.97,0-14.45,6.48-14.45,14.45H24.88
		c1.06-13.84,12.63-24.78,26.73-24.78h10.32v10.32H55.74L55.74,43.35z M86.7,4.13h12.39v18.58c0,3.41-2.78,6.19-6.19,6.19
		s-6.19-2.78-6.19-6.19L86.7,4.13L86.7,4.13z M66.06,10.32h4.13v41.29h-4.13C66.06,51.61,66.06,10.32,66.06,10.32z M76.38,47.48
		c-0.55,0-1.07,0.22-1.46,0.6l-0.6,0.6V13.24l0.6,0.6c0.38,0.39,0.91,0.6,1.46,0.6h6.19v8.26c0,5.69,4.63,10.32,10.32,10.32
		s10.32-4.63,10.32-10.32v-8.26h12.39v33.03L76.38,47.48L76.38,47.48z M123.86,44.56l-2.92,2.92h-1.21V14.45h1.21l2.92,2.92V44.56
		L123.86,44.56z"/>
	<path d="M12.39,49.55h4.13v4.13h-4.13V49.55z"/>
	<path d="M4.13,41.29h4.13v4.13H4.13C4.13,45.42,4.13,41.29,4.13,41.29z"/>
	<path d="M12.39,33.03h4.13v4.13h-4.13V33.03z"/>
	<path d="M20.64,24.78h4.13v4.13h-4.13V24.78z"/>
	<path d="M8.26,18.58h4.13v4.13H8.26C8.26,22.71,8.26,18.58,8.26,18.58z"/>
	<path d="M4.13,26.84h4.13v4.13H4.13V26.84z"/>
	<path d="M125.93,76.39h-4.92l-5.62-11.25c-0.26-0.53-0.74-0.92-1.32-1.07c-0.57-0.15-1.18-0.05-1.68,0.28l-4.25,2.83L103,56.88
		c-0.7-1.4-2.99-1.4-3.69,0l-5.15,10.29l-4.25-2.83c-0.5-0.33-1.1-0.43-1.68-0.28c-0.57,0.15-1.05,0.54-1.32,1.07l-5.62,11.25h-4.92
		c-1.14,0-2.06,0.92-2.06,2.06v8.26c0,1.14,0.92,2.06,2.06,2.06h2.17c0.62,6.88,4.32,12.87,9.7,16.6L74.7,124.75
		c-0.44,0.63-0.5,1.45-0.14,2.14c0.36,0.68,1.06,1.11,1.83,1.11h12.39c0.81,0,1.56-0.48,1.89-1.23l7.79-17.53
		c0.89,0.11,1.79,0.18,2.71,0.18s1.82-0.07,2.71-0.18l7.79,17.53c0.33,0.74,1.07,1.23,1.89,1.23h12.39c0.77,0,1.47-0.43,1.83-1.11
		c0.36-0.68,0.3-1.51-0.14-2.14l-13.56-19.37c5.38-3.73,9.08-9.73,9.7-16.6h2.17c1.14,0,2.06-0.92,2.06-2.06v-8.26
		c0-1.14-0.92-2.07-2.06-2.07L125.93,76.39z M89.57,69.08l4.25,2.83c0.49,0.33,1.1,0.43,1.68,0.28c0.57-0.15,1.05-0.54,1.32-1.07
		l4.34-8.69l4.35,8.69c0.26,0.53,0.74,0.92,1.32,1.07c0.57,0.16,1.18,0.05,1.68-0.28l4.25-2.83l3.65,7.31H85.91L89.57,69.08
		L89.57,69.08z M87.42,123.87h-7.08l11.52-16.46c0.8,0.36,1.61,0.68,2.45,0.95L87.42,123.87L87.42,123.87z M121.96,123.87h-7.08
		l-6.89-15.51c0.84-0.26,1.65-0.59,2.45-0.95L121.96,123.87L121.96,123.87z M101.15,105.29c-9.55,0-17.43-7.24-18.46-16.52h36.92
		C118.58,98.05,110.7,105.29,101.15,105.29L101.15,105.29z M123.86,84.64H78.44v-4.13h45.42V84.64z"/>
</g>
</svg>
