<?xml version="1.0" encoding="utf-8"?>
<!-- Generator: Adobe Illustrator 27.9.0, SVG Export Plug-In . SVG Version: 6.00 Build 0)  -->
<svg version="1.1" id="Layer_1" xmlns="http://www.w3.org/2000/svg" xmlns:xlink="http://www.w3.org/1999/xlink" x="0px" y="0px"
	 viewBox="0 0 128 128" style="enable-background:new 0 0 128 128;" xml:space="preserve">
<g>
	<path d="M121.6,111.23V42.36c3.76-0.97,6.39-4.35,6.4-8.23c0-4.71-3.82-8.53-8.53-8.53c-1.52,0.01-3.01,0.43-4.31,1.21
		l-13.97-13.97c0.78-1.3,1.2-2.79,1.21-4.31c0.01-4.29-3.18-7.92-7.44-8.46c-4.26-0.54-8.25,2.17-9.32,6.33H16.77
		c-1.03-4.03-4.82-6.72-8.96-6.37C3.66,0.38,0.38,3.66,0.03,7.81c-0.35,4.14,2.35,7.93,6.37,8.96v68.87
		c-4.16,1.07-6.87,5.07-6.33,9.32c0.54,4.26,4.17,7.45,8.46,7.44c1.52-0.01,3.01-0.43,4.31-1.21l13.97,13.97
		c-0.78,1.3-1.2,2.79-1.21,4.31c-0.01,4.29,3.18,7.92,7.44,8.46s8.25-2.17,9.32-6.33h68.87c1.03,4.03,4.82,6.72,8.96,6.37
		c4.14-0.35,7.43-3.63,7.78-7.77C128.32,116.05,125.62,112.27,121.6,111.23z M116.45,31.12c1.22-1.22,3.05-1.59,4.65-0.93
		c1.59,0.66,2.64,2.21,2.64,3.94c0,1.93-1.29,3.62-3.16,4.12c-1.86,0.5-3.83-0.31-4.8-1.98C114.8,34.6,115.08,32.49,116.45,31.12z
		 M112.14,29.83c-0.4,0.68-0.71,1.41-0.91,2.17H96V16.77c0.76-0.2,1.5-0.5,2.17-0.91L112.14,29.83z M89.74,7.43
		c0.5-1.87,2.19-3.16,4.12-3.16c1.72,0,3.28,1.04,3.94,2.63s0.3,3.43-0.92,4.65c-1.36,1.37-3.48,1.65-5.15,0.68
		C90.06,11.27,89.24,9.3,89.74,7.43z M96.89,96.88c-1.43,1.44-3.69,1.67-5.39,0.55c-1.7-1.13-2.36-3.29-1.59-5.18
		c0.77-1.88,2.77-2.96,4.77-2.56c2,0.39,3.44,2.14,3.44,4.18c0,1.13-0.45,2.22-1.25,3.02L96.89,96.88z M36.27,42.36
		c2.99-0.78,5.32-3.11,6.1-6.1h49.37v49.37c-2.99,0.78-5.32,3.11-6.1,6.1H36.27V42.36z M33.3,38.32c-2-0.4-3.43-2.15-3.43-4.19
		c0-1.13,0.45-2.22,1.25-3.02c1.44-1.44,3.69-1.66,5.38-0.53c1.69,1.13,2.35,3.3,1.57,5.18C37.3,37.65,35.3,38.72,33.3,38.32z
		 M16.77,10.67h68.87c0.78,2.99,3.11,5.32,6.1,6.1V32H42.36c-0.97-3.76-4.35-6.39-8.23-6.4c-1.52,0.01-3.01,0.43-4.31,1.21
		L15.86,12.84C16.26,12.16,16.57,11.43,16.77,10.67z M4.27,8.54c0-1.93,1.29-3.62,3.16-4.12c1.86-0.5,3.83,0.31,4.8,1.98
		s0.69,3.78-0.67,5.15c-1.22,1.22-3.05,1.59-4.65,0.93C5.31,11.82,4.27,10.26,4.27,8.54z M11.55,96.88
		c-1.22,1.22-3.05,1.59-4.65,0.93c-1.59-0.66-2.64-2.21-2.64-3.94c0-1.93,1.29-3.62,3.16-4.12c1.86-0.5,3.83,0.31,4.8,1.99
		C13.2,93.4,12.92,95.51,11.55,96.88z M10.67,85.64V16.77c0.76-0.2,1.5-0.5,2.17-0.91l13.97,13.97c-0.78,1.3-1.2,2.79-1.21,4.31
		c0.01,3.88,2.64,7.26,6.4,8.23v49.37H16.77C15.99,88.75,13.65,86.42,10.67,85.64z M15.86,98.17c0.4-0.68,0.71-1.41,0.91-2.17H32
		v15.24c-0.76,0.2-1.5,0.5-2.17,0.91L15.86,98.17z M38.26,120.57c-0.5,1.87-2.19,3.16-4.12,3.16c-1.72,0-3.28-1.04-3.94-2.63
		c-0.66-1.59-0.3-3.43,0.92-4.65c1.36-1.37,3.48-1.65,5.15-0.68C37.94,116.73,38.76,118.7,38.26,120.57z M111.23,117.33H42.36
		c-0.78-2.99-3.11-5.32-6.1-6.1V96h49.37c0.97,3.76,4.35,6.39,8.23,6.4c1.52-0.01,3.01-0.43,4.31-1.21l13.97,13.97
		C111.74,115.84,111.43,116.57,111.23,117.33z M101.19,98.17c0.78-1.3,1.2-2.79,1.21-4.31c-0.01-3.88-2.64-7.26-6.4-8.23V36.27
		h15.24c0.78,2.99,3.11,5.32,6.1,6.1v68.87c-0.76,0.2-1.5,0.5-2.17,0.91L101.19,98.17z M120.57,123.59c-1.86,0.5-3.83-0.31-4.8-1.98
		c-0.97-1.67-0.69-3.78,0.68-5.15c1.22-1.22,3.05-1.59,4.65-0.93c1.59,0.66,2.64,2.21,2.64,3.94
		C123.73,121.4,122.44,123.09,120.57,123.59z"/>
	<path d="M85.1,76.55c-1.18-1.78-2.98-3-5.08-3.43c-4.31-0.88-8.56,1.91-9.45,6.24c-0.43,2.09-0.01,4.23,1.17,6.01
		c1.18,1.78,2.98,3,5.08,3.43c0.54,0.11,1.07,0.16,1.6,0.16c3.72,0,7.07-2.62,7.84-6.41C86.69,80.47,86.27,78.34,85.1,76.55z
		 M83.82,82.07c-0.61,2.98-3.49,4.91-6.51,4.3c-1.44-0.29-2.68-1.13-3.5-2.36c-0.81-1.23-1.09-2.7-0.8-4.14
		c0.53-2.61,2.83-4.41,5.4-4.41c0.36,0,0.73,0.04,1.1,0.11c1.44,0.29,2.68,1.13,3.5,2.36C83.83,79.15,84.11,80.63,83.82,82.07z"/>
	<path d="M62.4,29.18c0.54,0.11,1.08,0.16,1.62,0.16c1.55,0,3.07-0.45,4.4-1.33c1.78-1.18,3-2.98,3.43-5.08
		c0.88-4.32-1.92-8.56-6.24-9.44c-2.09-0.43-4.23-0.01-6.01,1.17c-1.78,1.18-3,2.98-3.43,5.08C55.28,24.06,58.07,28.3,62.4,29.18z
		 M58.6,20.23c0.29-1.44,1.13-2.68,2.36-3.5c0.91-0.6,1.96-0.91,3.03-0.91c0.37,0,0.74,0.04,1.11,0.11c1.44,0.29,2.68,1.13,3.5,2.36
		c0.81,1.23,1.09,2.7,0.8,4.14c-0.29,1.44-1.13,2.69-2.36,3.5c-1.23,0.81-2.69,1.1-4.14,0.8C59.92,26.13,57.99,23.21,58.6,20.23z"/>
	<path d="M65.6,98.82c-4.31-0.88-8.56,1.91-9.44,6.24c-0.43,2.09-0.01,4.23,1.17,6.01c1.18,1.78,2.98,3,5.08,3.43
		c0.54,0.11,1.08,0.16,1.62,0.16c1.55,0,3.07-0.45,4.4-1.33c1.78-1.18,3-2.98,3.43-5.08C72.73,103.94,69.93,99.7,65.6,98.82z
		 M69.4,107.77c-0.29,1.44-1.13,2.68-2.36,3.5c-1.23,0.81-2.69,1.1-4.14,0.8c-1.44-0.29-2.68-1.13-3.5-2.36
		c-0.81-1.23-1.09-2.7-0.8-4.14c0.29-1.44,1.13-2.68,2.36-3.5c0.91-0.6,1.96-0.91,3.03-0.91c0.37,0,0.74,0.04,1.11,0.11
		c1.44,0.29,2.68,1.13,3.5,2.36C69.41,104.85,69.69,106.33,69.4,107.77z"/>
	<path d="M21.17,74.24c1.55,0,3.07-0.45,4.4-1.33c1.78-1.18,3-2.98,3.43-5.08c0.88-4.32-1.92-8.56-6.24-9.44s-8.56,1.91-9.44,6.24
		c-0.43,2.1-0.01,4.23,1.17,6.01c1.18,1.78,2.98,3,5.08,3.43C20.09,74.18,20.63,74.24,21.17,74.24z M16.55,69.27
		c-0.81-1.23-1.1-2.7-0.8-4.14c0.3-1.44,1.13-2.68,2.36-3.5c0.91-0.6,1.96-0.91,3.03-0.91c0.37,0,0.74,0.04,1.11,0.11
		c1.44,0.29,2.69,1.13,3.5,2.36c0.81,1.23,1.1,2.7,0.8,4.14s-1.13,2.68-2.36,3.5c-1.23,0.81-2.71,1.09-4.14,0.8
		C18.6,71.34,17.36,70.5,16.55,69.27z"/>
	<path d="M108.06,58.6c-2.09-0.43-4.23-0.01-6.01,1.17c-1.78,1.18-3,2.98-3.43,5.08c-0.43,2.09-0.01,4.23,1.17,6.01
		c1.18,1.78,2.98,3,5.08,3.43c0.54,0.11,1.08,0.16,1.61,0.16c1.55,0,3.08-0.46,4.4-1.33c1.78-1.18,3-2.98,3.43-5.08
		C115.19,63.72,112.39,59.48,108.06,58.6z M111.87,67.54c-0.29,1.44-1.13,2.68-2.36,3.5c-1.22,0.81-2.68,1.1-4.14,0.8
		c-2.98-0.61-4.91-3.53-4.3-6.51c0.29-1.44,1.13-2.68,2.36-3.5c0.91-0.6,1.96-0.91,3.03-0.91c0.37,0,0.74,0.04,1.11,0.11
		c1.44,0.29,2.68,1.13,3.5,2.36C111.87,64.63,112.16,66.1,111.87,67.54z"/>
	<path d="M58.46,48.47c-4.31-0.88-8.56,1.91-9.45,6.24c-0.43,2.09-0.01,4.23,1.17,6.01c1.18,1.78,2.98,3,5.08,3.43
		c0.54,0.11,1.07,0.16,1.6,0.16c3.72,0,7.07-2.62,7.84-6.41c0.43-2.1,0.01-4.23-1.17-6.01C62.36,50.12,60.56,48.9,58.46,48.47z
		 M62.26,57.42c-0.61,2.97-3.5,4.9-6.51,4.3c-1.44-0.29-2.68-1.13-3.5-2.36c-0.81-1.23-1.09-2.7-0.8-4.14
		c0.53-2.61,2.83-4.41,5.4-4.41c0.36,0,0.73,0.04,1.1,0.11c1.44,0.29,2.68,1.13,3.5,2.36C62.27,54.51,62.56,55.98,62.26,57.42z"/>
</g>
</svg>
