<?xml version="1.0" encoding="utf-8"?>
<!-- Generator: Adobe Illustrator 27.9.0, SVG Export Plug-In . SVG Version: 6.00 Build 0)  -->
<svg version="1.1" id="Layer_1" xmlns="http://www.w3.org/2000/svg" xmlns:xlink="http://www.w3.org/1999/xlink" x="0px" y="0px"
	 viewBox="0 0 128 128" style="enable-background:new 0 0 128 128;" xml:space="preserve">
<path d="M125.98,69.04c-6.04-4.94-12.08-9.86-18.11-14.8c-6.47-5.3-12.94-10.61-19.47-15.96c2.2-1.85,4.31-3.54,6.34-5.33
	c4.93-4.35,7.14-9.78,6.46-16.38C100.27,7.55,92.3,0.21,83.26,0c-5.52-0.12-10,2.17-14.11,5.6C55,17.45,40.79,29.24,26.62,41.06
	C19.76,46.79,12.87,52.5,6.11,58.35c-3.96,3.42-5.98,7.93-6.1,13.16c-0.15,6.69,2.88,11.84,8.07,15.87c17,13.19,34,26.37,51,39.56
	c1.83,1.42,2.79,1.43,4.55-0.03c20.81-17.34,41.62-34.67,62.42-52.02C128.68,72.69,128.65,71.22,125.98,69.04z M27.25,47.57
	c15.5-12.91,31-25.8,46.49-38.72c8.2-6.84,19.94-2.85,21.95,7.58c0.91,4.7-0.5,8.91-4.15,12.08c-5.26,4.56-10.66,8.97-16.01,13.43
	C63.15,52.26,50.76,62.57,38.38,72.88c-0.31,0.26-0.65,0.5-1.17,0.89c0.39-5.28-0.92-9.81-4.18-13.69
	c-3.25-3.86-7.47-5.99-12.77-6.66C22.75,51.34,24.99,49.45,27.25,47.57z M5.4,72c-0.02-7.28,5.99-13.3,13.27-13.31
	c7.31-0.01,13.25,5.94,13.26,13.28c0.01,7.36-5.88,13.27-13.23,13.27C11.38,85.25,5.42,79.32,5.4,72z M119.98,72.94
	c-19.2,15.94-38.37,31.91-57.51,47.92c-0.94,0.78-1.44,0.78-2.41,0.02c-12.61-9.85-25.27-19.63-37.91-29.44
	c-0.32-0.25-0.63-0.52-1.11-0.91c1.16-0.29,2.16-0.49,3.13-0.78c2.82-0.85,5.27-2.35,7.53-4.24c17.12-14.29,34.26-28.55,51.38-42.85
	c0.8-0.66,1.26-0.77,2.13-0.04c11.55,9.52,23.14,18.99,34.75,28.45C120.86,71.81,120.97,72.12,119.98,72.94z M18.57,64
	c-4.37,0.02-7.99,3.7-7.95,8.06c0.04,4.39,3.68,7.94,8.1,7.92c4.41-0.02,8.05-3.63,8.04-7.99C26.76,67.56,23.08,63.98,18.57,64z
	 M18.64,74.62c-1.48-0.03-2.57-1.23-2.52-2.75c0.05-1.42,1.22-2.55,2.62-2.52c1.47,0.04,2.57,1.26,2.51,2.77
	C21.2,73.55,20.05,74.64,18.64,74.62z"/>
</svg>
