<?xml version="1.0" encoding="utf-8"?>
<!-- Generator: Adobe Illustrator 27.9.0, SVG Export Plug-In . SVG Version: 6.00 Build 0)  -->
<svg version="1.1" id="Layer_1" xmlns="http://www.w3.org/2000/svg" xmlns:xlink="http://www.w3.org/1999/xlink" x="0px" y="0px"
	 viewBox="0 0 128 128" style="enable-background:new 0 0 128 128;" xml:space="preserve">
<path d="M123.12,96c-1.18,0.17-1.5-0.2-1.49-1.43c0.04-21.82,0.03-43.65,0.03-65.47c0-1.12-0.08-2.24-0.34-3.33
	c-0.79-3.39-4.03-6.59-8.99-6.58C80.1,19.23,47.86,19.2,15.62,19.2c-1.51,0-2.98,0.17-4.35,0.88c-3.57,1.86-4.93,4.94-4.93,8.82
	c0.01,21.37,0.01,42.73,0,64.1c0,0.95,0.33,2.19-0.15,2.78c-0.5,0.63-1.8,0.14-2.74,0.21c-0.04,0-0.08,0-0.12,0
	c-1.9,0.06-3.29,1.42-3.32,3.32c-0.03,2.08-0.03,4.17,0,6.25c0.03,1.73,1.31,3.05,3.04,3.19c0.46,0.04,0.92,0.04,1.37,0.04
	c39.69,0,79.39-0.01,119.08,0.03c2.02,0,3.52-0.53,4.48-2.34c0-2.75,0-5.5,0-8.25C126.94,96.27,125.22,95.7,123.12,96z M16.09,23.45
	c15.99,0.1,31.99,0.05,47.98,0.05c16.04,0,32.07,0.04,48.11-0.04c2.77-0.01,5.15,1.76,5.14,5.17c-0.08,22.03-0.05,44.06-0.02,66.09
	c0,1.02-0.2,1.3-1.26,1.29c-13.2-0.04-26.41-0.02-39.61-0.04c-0.91,0-1.58,0.05-1.78,1.14c-0.12,0.69-0.66,0.95-1.39,0.95
	c-5.46-0.02-10.91-0.02-16.37,0c-0.79,0-1.27-0.32-1.43-1.07c-0.18-0.85-0.67-1.02-1.51-1.02C40,96,26.05,95.97,12.09,96.02
	c-1.18,0-1.38-0.35-1.38-1.43c0.03-21.91,0.07-43.81-0.02-65.72C10.67,25.13,13.06,23.43,16.09,23.45z M123.51,104.32
	c-0.59,0.52-1.98,0.18-3.01,0.18c-18.83,0-37.65,0-56.48,0c-19.45,0-38.9-0.01-58.35,0.02c-1.1,0-1.47-0.22-1.43-1.39
	c0.09-2.87,0.03-2.87,2.93-2.87c14.62,0,29.24,0,43.86-0.01c0.79,0,1.38,0.16,1.97,0.77c1.06,1.1,2.5,1.44,3.99,1.44
	c5.37,0.01,10.75,0.02,16.12,0c1.67-0.01,3.22-0.44,4.36-1.77c0.35-0.41,0.76-0.42,1.22-0.42c14.7,0,29.4,0.01,44.11-0.02
	c0.8,0,1.02,0.23,0.94,0.98C123.63,102.28,124.2,103.7,123.51,104.32z M14.13,93.95c16.62-0.03,33.24-0.02,49.86-0.02
	c16.66,0,33.33-0.01,49.99,0.03c1.06,0,1.29-0.3,1.28-1.31c-0.03-21.95-0.03-43.9,0-65.85c0-1.07-0.31-1.27-1.32-1.27
	c-33.28,0.03-66.57,0.03-99.85-0.01c-1.12,0-1.35,0.29-1.35,1.37c0.03,21.91,0.04,43.82,0,65.73
	C12.74,93.76,13.07,93.95,14.13,93.95z M17.08,31.21c0-1.04,0.28-1.3,1.3-1.3c30.41,0.03,60.83,0.03,91.24,0
	c1.03,0,1.3,0.25,1.3,1.3c-0.03,19.04-0.03,38.08,0,57.11c0,0.99-0.27,1.23-1.24,1.22c-15.25-0.03-30.5-0.02-45.74-0.02
	c-15.16,0-30.33-0.01-45.49,0.03c-1.09,0-1.37-0.24-1.37-1.35C17.12,69.2,17.12,50.21,17.08,31.21z M46.72,50
	c-0.23,0.43-0.6,0.8-0.95,1.15c-6.02,6.03-12.06,12.06-18.08,18.1c-0.6,0.6-1.22,1.12-2.15,1.19c-1.57-0.04-2.58-1.9-1.74-3.27
	c0.17-0.28,0.4-0.53,0.64-0.76c6.17-6.18,12.35-12.36,18.52-18.54c0.55-0.55,1.14-0.95,1.96-0.91C46.44,47.02,47.43,48.66,46.72,50z
	 M23.77,47.99c-0.41-0.75-0.46-1.55,0.09-2.22c0.62-0.77,1.34-1.48,2.04-2.18c2.17-2.19,4.35-4.37,6.54-6.53
	c0.73-0.72,1.59-1.09,2.6-0.58c0.91,0.46,1.32,1.21,1.21,2.24c-0.05,0.53-0.34,0.95-0.68,1.3c-2.75,2.78-5.52,5.55-8.29,8.31
	c-0.45,0.45-0.99,0.75-1.47,0.73C24.81,49.04,24.16,48.71,23.77,47.99z M36.86,46.26c-0.86-0.91-0.8-2.14,0.25-3.21
	c1.98-2.02,3.99-4.01,6-6c0.69-0.68,1.51-1.04,2.49-0.63c0.85,0.36,1.26,1.04,1.39,1.91c-0.02,0.72-0.35,1.29-0.83,1.78
	c-1.99,2.01-3.98,4.02-6,6C39.01,47.22,37.78,47.24,36.86,46.26z M32.02,53.48c0.06,0.53-0.33,1.08-0.79,1.55
	c-1.27,1.31-2.56,2.61-3.88,3.88c-1.12,1.07-2.41,1.1-3.3,0.16c-0.84-0.89-0.76-2.16,0.25-3.21c1.3-1.34,2.62-2.66,3.96-3.96
	c0.71-0.69,1.58-0.9,2.51-0.48C31.55,51.76,31.98,52.4,32.02,53.48z M51.25,40.4c-0.05-0.52,0.2-0.96,0.55-1.33
	c0.72-0.75,1.43-1.52,2.2-2.21c0.97-0.86,2.21-0.8,3.03,0.06c0.75,0.79,0.79,2.04-0.01,2.93c-0.72,0.81-1.49,1.58-2.3,2.29
	c-0.67,0.59-1.49,0.74-2.32,0.3C51.62,42.02,51.15,41.36,51.25,40.4z M32.01,49.05c0.01-1.22,0.9-2.07,2.15-2.07
	c1.25,0.01,2.11,0.87,2.1,2.11c-0.01,1.16-1,2.15-2.14,2.14C32.99,51.22,32.01,50.2,32.01,49.05z M46.95,44.87
	c-0.03-1.22,0.84-2.12,2.08-2.15c1.22-0.02,2.18,0.86,2.21,2.03c0.03,1.1-0.99,2.18-2.11,2.22C48.01,47.01,46.98,46.01,46.95,44.87z
	"/>
</svg>
