<?xml version="1.0" encoding="utf-8"?>
<!-- Generator: Adobe Illustrator 27.9.0, SVG Export Plug-In . SVG Version: 6.00 Build 0)  -->
<svg version="1.1" id="Layer_1" xmlns="http://www.w3.org/2000/svg" xmlns:xlink="http://www.w3.org/1999/xlink" x="0px" y="0px"
	 viewBox="0 0 128 128" style="enable-background:new 0 0 128 128;" xml:space="preserve">
<path d="M124.85,90.05c-9.36,0.02-18.71,0.01-28.07,0.01c-2.6,0-2.39,0.12-2.4-2.34c0-3.91,0.01-7.82-0.01-11.73
	c-0.01-2.36-1.06-3.39-3.45-3.42c-0.42,0-0.83-0.03-1.25,0c-1.03,0.08-1.7-0.34-2.23-1.24c-1.7-2.91-3.46-5.78-5.19-8.67
	c-0.11-0.18-0.22-0.35-0.31-0.54c-0.18-0.35-0.08-0.56,0.32-0.59c0.37-0.02,0.75-0.03,1.12,0c1.73,0.14,2.84-0.69,3.54-2.2
	c2.88-6.18,5.77-12.35,8.66-18.53c4.58-9.83,9.16-19.67,13.77-29.5c1.13-2.41,2.25-4.82,3.36-7.24c0.86-1.87,0.3-3.35-1.45-4.07
	c-4.33,0-8.66,0-12.99,0c-1.12,0.24-1.56,1.12-1.98,2.05C93.7,7.72,91.04,13.36,88.4,19c-0.72,1.54-0.75,1.5-2.29,0.77
	c-5.39-2.57-10.82-2.85-16.17,0.04c-3.97,2.15-7.84,2.08-11.77-0.02c-2.58-1.37-5.35-2.16-8.26-2.08c-2.8,0.08-5.49,0.85-8.02,2.11
	c-1.32,0.66-1.37,0.64-1.94-0.63C37.34,13.45,34.69,7.71,32,1.99C31.59,1.1,31.12,0.3,30.1,0c-4.41,0-8.82,0-13.24,0
	c-1.81,0.75-2.34,2.22-1.43,4.18c4.03,8.68,8.08,17.35,12.13,26.02c4.39,9.38,8.78,18.77,13.14,28.17c0.98,2.12,2.16,3.52,4.68,3.21
	c0.77-0.09,0.99,0.22,0.55,0.94c-1.84,3.02-3.64,6.07-5.47,9.09c-0.38,0.63-0.92,0.93-1.65,0.93c-0.5,0-1,0.01-1.5,0.01
	c-2.54,0.03-3.58,1.05-3.59,3.56c-0.02,4,0,7.99-0.01,11.99c0,1.92-0.02,1.93-1.96,1.93c-9.28,0-18.56,0-27.84,0
	c-0.58,0-1.17-0.03-1.74,0.07c-1.33,0.23-2.14,1.14-2.15,2.5c-0.02,4.37-0.02,8.74,0,13.11c0.01,1.35,0.83,2.26,2.16,2.5
	c0.58,0.1,1.16,0.07,1.74,0.07c9.32,0,18.65,0,27.97,0c1.77,0,1.83,0.05,1.83,1.81c0.01,4.91-0.03,9.82,0.02,14.73
	c0.02,2.31,0.93,3.17,3.2,3.17c5.2,0.01,10.41,0,15.61,0c0.17,0,0.33,0,0.5,0c1.03-0.03,1.85-0.41,2.31-1.4
	c0.46-1,0.36-1.94-0.24-2.84c-0.64-0.96-1.6-1.25-2.7-1.25c-3.79,0-7.57,0.01-11.36,0c-1.45-0.01-1.56-0.11-1.57-1.57
	c-0.01-3.33-0.01-6.66,0-9.99c0.01-2.88-0.26-2.66,2.72-2.66c1.39,0,1.49,0.11,1.51,1.49c0.02,1.58-0.01,3.16,0.01,4.74
	c0.03,2.67,1.06,3.71,3.7,3.75c0.25,0,0.5,0,0.75,0c10.61,0,21.23,0,31.84,0c0.37,0,0.75,0.01,1.12-0.01
	c2.13-0.09,3.21-1.15,3.29-3.27c0.05-1.33,0.01-2.66,0.02-4c0.02-2.95-0.29-2.72,2.8-2.71c1.28,0,1.42,0.15,1.43,1.46
	c0.02,3.75,0.02,7.49,0,11.24c-0.01,1.42-0.12,1.52-1.61,1.52c-3.58,0.01-7.16,0-10.74,0c-0.5,0-1-0.02-1.49,0.07
	c-1.41,0.26-2.41,1.54-2.34,2.96c0.08,1.45,1.05,2.44,2.62,2.45c5.58,0.03,11.15,0.04,16.73,0c1.45-0.01,2.27-0.82,2.53-2.28
	c0.09-0.54,0.07-1.08,0.07-1.62c0-4.7,0-9.41,0-14.11c0-1.61,0.08-1.69,1.69-1.69c7.49-0.01,14.98,0,22.47,0
	c2.16,0,4.33,0.03,6.49-0.02c1.77-0.04,2.37-0.5,2.93-2.11c0-4.75,0-9.49,0-14.24C127.48,90.38,126.31,90.04,124.85,90.05z
	 M100.43,5.99c0.34-0.73,0.68-1.07,1.54-1.02c1.39,0.09,2.8,0.02,4.33,0.02c-2.14,4.61-4.23,9.11-6.32,13.6
	c-5.71,12.22-11.43,24.44-17.11,36.67c-0.33,0.71-0.67,0.96-1.46,0.95c-2.95-0.05-5.91-0.04-8.87-0.01
	c-0.68,0.01-1.07-0.04-1.01-0.9c0.1-1.32-0.44-3.07,0.23-3.86c0.68-0.81,2.52-0.37,3.8-0.21c2.8,0.35,4.2-0.82,5.37-3.37
	C87.33,33.86,93.93,19.95,100.43,5.99z M45.42,55.61C37.61,38.83,29.79,22.07,21.97,5.3c-0.03-0.06,0-0.15,0-0.3
	c1.65,0,3.31,0.04,4.96-0.02c0.72-0.02,0.76,0.51,0.95,0.93c3.66,7.88,7.31,15.77,10.96,23.65c3.01,6.5,6.03,12.98,8.99,19.5
	c0.69,1.51,1.64,2.28,3.36,2.16c1.49-0.11,3,0.01,4.49-0.04c0.67-0.02,0.98,0.12,0.91,0.87c-0.12,1.35,0.55,3.12-0.27,3.94
	c-0.65,0.65-2.44,0.19-3.72,0.19c-2.04,0.01-4.08-0.01-6.12,0.01C45.98,56.2,45.66,56.12,45.42,55.61z M51.62,63.44
	c0.94-1.77,2.03-2.59,4.05-2.28c1.14,0.18,2.33,0.06,3.49,0.02c1.37-0.04,2.38-1.01,2.39-2.36c0.03-3.41,0.03-6.83,0-10.24
	c-0.01-1.4-1.05-2.35-2.51-2.37c-2-0.02-4-0.03-5.99,0.01c-0.66,0.01-1.01-0.13-1.31-0.79c-2.93-6.4-5.89-12.78-8.88-19.15
	c-0.28-0.59-0.16-0.82,0.39-1.11c4.3-2.32,8.53-2.71,13.02-0.29c5.13,2.77,10.52,2.74,15.62-0.01c4.62-2.49,8.9-1.9,13.24,0.42
	c0.49,0.26,0.48,0.52,0.26,0.98c-3.03,6.44-6.05,12.88-9.03,19.34c-0.28,0.61-0.68,0.61-1.19,0.61c-2-0.01-4-0.02-5.99,0
	c-1.65,0.01-2.61,0.98-2.61,2.65c-0.01,3.25-0.02,6.49,0,9.74c0.01,1.59,0.98,2.56,2.55,2.58c1.71,0.02,3.41,0.02,5.12,0
	c0.53-0.01,0.93,0.07,1.23,0.59c2.16,3.68,4.35,7.33,6.59,11.1c-2.27,0.16-3.01,0.96-3.02,3.08c0,1.08-0.07,2.17,0.02,3.24
	c0.08,0.99-0.24,1.35-1.23,1.22c-1.9-0.24-3.77-0.62-5.47-1.54c-5.55-3-11.08-2.94-16.63,0c-1.7,0.9-3.55,1.34-5.47,1.54
	c-0.86,0.09-1.31-0.09-1.22-1.12c0.1-1.11,0.02-2.25,0.02-3.37c0-2.1-0.76-2.9-3.01-3.07C47.95,69.7,49.93,66.64,51.62,63.44z
	 M11.1,102.4c-0.22,0.37-0.46,0.51-0.88,0.5c-1.45-0.03-2.9-0.04-4.35,0c-0.62,0.02-0.76-0.2-0.75-0.78c0.03-1.99,0.03-3.98,0-5.97
	c-0.01-0.59,0.14-0.78,0.75-0.77c3.06,0.03,6.12,0.01,9.42,0.01C13.8,97.88,12.44,100.13,11.1,102.4z M24.78,102.49
	c-0.16,0.27-0.35,0.41-0.69,0.41c-2.39-0.01-4.78-0.01-7.39-0.01c1.49-2.49,2.89-4.81,4.26-7.15c0.21-0.36,0.51-0.35,0.84-0.35
	c2.32,0,4.64,0,7.2,0C27.52,97.9,26.15,100.19,24.78,102.49z M38.62,102.32c-0.27,0.47-0.59,0.59-1.09,0.58
	c-2.28-0.02-4.56-0.01-7.07-0.01c0.79-1.34,1.5-2.57,2.24-3.78c0.75-1.24,1.25-2.91,2.36-3.55c1.06-0.62,2.74-0.15,4.16-0.16
	c1.11,0,2.22,0,3.55,0C41.28,97.86,39.93,100.08,38.62,102.32z M43.33,90.42c-1.37-0.06-3.11,0.45-3.99-0.21
	c-0.83-0.63-0.22-2.48-0.24-3.8c-0.04-2.54,0.01-5.08-0.03-7.61c-0.01-0.7,0.18-0.93,0.89-0.89c1.32,0.07,3.06-0.45,3.86,0.21
	c0.83,0.68,0.19,2.49,0.25,3.8c0.03,0.75,0.01,1.5,0.01,2.25c0,1.83-0.02,3.66,0.01,5.49C44.11,90.25,43.94,90.44,43.33,90.42z
	 M44.17,102.89c1.49-2.49,2.87-4.78,4.23-7.09c0.24-0.41,0.56-0.4,0.94-0.4c2.16,0.01,4.31,0.02,6.47-0.01
	c0.58-0.01,0.79,0.14,0.77,0.75c-0.04,1.99-0.03,3.98,0,5.97c0.01,0.55-0.08,0.8-0.73,0.8C52.04,102.88,48.23,102.89,44.17,102.89z
	 M79.07,111.97c0.07,0.82-0.26,0.94-0.98,0.93c-4.7-0.03-9.41-0.02-14.11-0.02c-4.54,0-9.07-0.05-13.61,0.03
	c-1.16,0.02-1.41-0.34-1.3-1.38c0.09-0.82,0.1-1.67,0-2.49c-0.13-1.05,0.33-1.2,1.24-1.18c2.83,0.05,5.66,0.03,8.49,0.02
	c1.83-0.01,2.77-0.93,2.78-2.74c0.01-4,0.01-7.99,0-11.99c0-1.82-0.94-2.74-2.77-2.75c-2.87-0.01-5.74-0.03-8.62,0.02
	c-0.83,0.01-1.2-0.12-1.12-1.05c0.09-1.03,0.05-2.08,0.01-3.12c-0.02-0.6,0.08-0.85,0.8-0.84c3.14,0.06,6.02-0.91,8.79-2.34
	c3.61-1.86,7.28-1.78,10.87,0.02c2.75,1.38,5.58,2.34,8.67,2.32c0.74,0,0.9,0.21,0.87,0.89c-0.05,1.08-0.06,2.17,0,3.24
	c0.05,0.75-0.25,0.87-0.92,0.87c-2.91-0.03-5.83-0.02-8.74-0.01c-1.92,0-2.84,0.9-2.84,2.8c-0.01,3.95-0.01,7.91,0,11.86
	c0,1.9,0.92,2.81,2.83,2.82c2.87,0.01,5.74,0.04,8.62-0.02c0.91-0.02,1.12,0.26,1.06,1.11C78.99,109.97,78.99,110.98,79.07,111.97z
	 M79.73,102.49c-0.24,0.41-0.56,0.4-0.94,0.4c-2.16-0.01-4.32-0.02-6.47,0.01c-0.58,0.01-0.79-0.13-0.78-0.75
	c0.04-1.99,0.03-3.98,0-5.97c-0.01-0.55,0.08-0.8,0.73-0.8c3.82,0.03,7.63,0.02,11.68,0.02C82.47,97.9,81.08,100.19,79.73,102.49z
	 M84.3,90.2c-0.83-0.63-0.22-2.48-0.24-3.8c-0.04-2.54,0.01-5.08-0.03-7.61c-0.01-0.71,0.18-0.93,0.89-0.89
	c1.32,0.07,3.06-0.45,3.86,0.21c0.83,0.68,0.19,2.49,0.25,3.8c0.03,0.75,0.01,1.5,0.01,2.25c0,1.83-0.02,3.66,0.01,5.49
	c0.01,0.6-0.16,0.79-0.76,0.76C86.92,90.36,85.17,90.87,84.3,90.2z M93.51,102.41c-0.26,0.45-0.58,0.49-1.02,0.48
	c-2.28-0.01-4.56-0.01-6.93-0.01c0.15-0.87,0.73-1.48,1.12-2.16c0.91-1.58,1.87-3.12,2.8-4.69c0.21-0.36,0.38-0.67,0.91-0.66
	c2.36,0.03,4.71,0.01,7.3,0.01C96.21,97.88,94.84,100.14,93.51,102.41z M108.99,99.5c-0.68,1.13-1.15,2.65-2.16,3.24
	c-0.97,0.56-2.5,0.14-3.79,0.15c-1.23,0-2.47,0-3.92,0c1.47-2.46,2.83-4.68,4.14-6.92c0.27-0.47,0.59-0.58,1.09-0.58
	c2.28,0.02,4.56,0.01,7.07,0.01C110.56,96.85,109.78,98.18,108.99,99.5z M123.01,102.16c0,0.48-0.05,0.75-0.65,0.74
	c-3.1-0.03-6.19-0.01-9.52-0.01c1.47-2.46,2.82-4.68,4.14-6.92c0.23-0.39,0.47-0.6,0.96-0.59c1.45,0.04,2.9,0.03,4.35,0
	c0.52-0.01,0.73,0.11,0.72,0.68C122.98,98.1,122.99,100.13,123.01,102.16z M66.56,125.43c-0.03,1.42-1.12,2.46-2.56,2.44
	c-1.42-0.03-2.46-1.12-2.44-2.56c0.02-1.42,1.12-2.46,2.55-2.44C65.54,122.9,66.59,123.99,66.56,125.43z"/>
</svg>
