<?xml version="1.0" encoding="utf-8"?>
<!-- Generator: Adobe Illustrator 27.9.0, SVG Export Plug-In . SVG Version: 6.00 Build 0)  -->
<svg version="1.1" id="Layer_1" xmlns="http://www.w3.org/2000/svg" xmlns:xlink="http://www.w3.org/1999/xlink" x="0px" y="0px"
	 viewBox="0 0 128 128" style="enable-background:new 0 0 128 128;" xml:space="preserve">
<path d="M126.58,50.9c-2.85-14.13-9.93-26.01-20.97-35.3C88.89,1.52,69.72-3.06,48.45,1.99C35.35,5.11,24.44,12.08,15.62,22.26
	C7.57,31.54,2.6,42.28,0.7,54.43c-0.24,1.53-0.18,3.11-0.7,4.59c0,0.75,0,1.5,0,2.25c0.21,0.58,0.21,1.17,0,1.75c0,0.67,0,1.33,0,2
	c0.21,0.58,0.21,1.17,0,1.75c0,0.75,0,1.5,0,2.25c0.23,1.39,0.11,2.81,0.31,4.19c0.75,5.26,2.15,10.35,4.2,15.25
	c3.98,9.49,9.85,17.62,17.67,24.32c8.22,7.05,17.62,11.72,28.18,14.11c2.85,0.64,5.73,0.87,8.62,1.1c0.75,0,1.5,0,2.25,0
	c0.58,0,1.17,0,1.75,0c0.67,0,1.33,0,2,0c0.5,0,1,0,1.5,0c0.67,0,1.33,0,2,0c0.09-0.26,0.31-0.22,0.51-0.22
	c2.3-0.03,4.56-0.4,6.79-0.85c15.54-3.1,28.42-10.75,38.23-23.2C126.31,88.12,130.5,70.36,126.58,50.9z M63.94,123.73
	C31.16,123.66,4.32,96.81,4.27,64.05C4.21,31.33,31.3,4.24,64.01,4.31C96.78,4.38,123.62,31.23,123.68,64
	C123.73,96.71,96.64,123.8,63.94,123.73z M64.38,12.81c-28.53-0.06-51.11,22.83-51.59,50.21c-0.52,29.76,23.42,51.97,50.54,52.19
	c27.71,0.22,51.6-21.29,51.87-50.8C115.45,36.63,92.51,12.71,64.38,12.81z M24.06,39.55c4.53-7.24,10.54-12.9,18.06-16.93
	c3.44-1.84,7.07-3.21,10.87-4.14c0.8-0.2,1.04-0.07,1.31,0.68c3.64,10.12-1.8,22.22-13.57,25.11c-1.45,0.36-2.93,0.57-4.44,0.53
	c-4.45-0.09-8.46-1.4-11.97-4.18C23.88,40.28,23.72,40.09,24.06,39.55z M27.42,93.19c-5.58-6.98-8.9-14.89-9.97-23.76
	c-0.44-3.66-0.37-7.3-0.01-10.96c0.07-0.67,0.29-0.78,0.89-0.8c9.51-0.28,17.34,5.7,19.56,14.98c0.33,1.38,0.42,2.79,0.43,4.22
	c-0.29,7.2-3.34,12.79-9.62,16.52C28.15,93.73,27.87,93.76,27.42,93.19z M81.53,107.33c-5.24,2.03-10.66,3.02-16.23,3.37
	c-0.7,0.04-1.41,0.01-2.12,0.01c-5.87-0.34-11.43-1.86-16.78-4.24c-0.75-0.33-0.92-0.66-0.67-1.46c2.12-6.84,8.68-12.13,15.82-13.07
	c9.1-1.2,18.13,4.47,20.84,13.65C82.66,106.53,82.58,106.93,81.53,107.33z M110.74,61.19c-0.06,0.66-0.01,1.33-0.01,1.99
	c0.17,6.72-1.06,13.19-3.74,19.36c-2.02,4.64-4.72,8.84-8.07,12.64c-0.65,0.73-1.07,0.95-2.01,0.35c-6.7-4.29-10.01-10.45-9.3-18.28
	c0.74-8.23,5.35-13.81,13.22-16.54c2.92-1.01,5.93-1.11,8.98-0.65C110.51,60.16,110.81,60.45,110.74,61.19z M106.57,44.5
	c1.6,3.57,2.8,7.26,3.52,11.23c-1.55-0.21-3.06-0.23-4.58-0.21C94.75,55.7,84.83,64.61,83.45,75.3c-1.13,8.71,1.58,15.95,8.22,21.7
	c0.75,0.65,1.58,1.22,2.43,1.74c0.71,0.43,0.57,0.65,0.02,1.11c-2.08,1.74-4.29,3.27-6.61,4.68c-0.68,0.41-0.87,0.36-1.14-0.46
	c-2.15-6.73-6.44-11.64-12.88-14.56c-12.67-5.74-27.74,0.98-31.95,14.24c-0.35,1.11-0.61,1.09-1.5,0.55
	c-3.03-1.86-5.83-3.99-8.42-6.41c-0.61-0.57-0.57-0.78,0.11-1.21c4.8-3.07,8.06-7.32,9.8-12.76C45.01,73.08,40.2,61.23,30,55.96
	c-3.35-1.73-6.91-2.56-10.65-2.63c-0.79-0.02-1.02-0.16-0.79-0.97c0.79-2.83,1.74-5.6,3.03-8.25c9.72,7.39,21.8,5.81,29.17,0.04
	c6.61-5.18,11.52-15.49,7.51-26.61c3.45-0.48,6.9-0.4,10.34-0.16c0.94,0.07,0.86,0.43,0.66,1.18c-2.57,9.49-0.5,17.8,6.74,24.54
	c8.01,7.46,21.04,8.15,29.51,1.24C105.96,43.97,106.22,43.72,106.57,44.5z M103.4,40.82c-6.05,4.37-12.59,5.3-19.39,2.33
	c-6.81-2.97-10.6-8.4-11.36-15.85c-0.09-0.91-0.23-1.82-0.05-2.77c0.06-1.88,0.42-3.74,1.1-5.55c0.21-0.56,0.39-0.71,1.07-0.54
	c12.37,3.11,21.94,10.08,28.88,20.74C104.11,39.87,104.2,40.25,103.4,40.82z M64.06,46.95c-9.3-0.13-16.95,7.41-17.16,16.92
	c-0.21,9.3,7.47,17.1,16.98,17.23c9.3,0.13,16.95-7.41,17.16-16.92C81.25,54.87,73.57,47.08,64.06,46.95z M63.89,76.78
	c-6.93-0.01-12.69-5.86-12.67-12.87c0.02-6.87,5.86-12.64,12.77-12.64c6.95,0,12.74,5.83,12.73,12.8
	C76.72,71.01,70.88,76.79,63.89,76.78z M66.15,57.64c-0.01,1.23-1,2.16-2.26,2.13c-1.2-0.04-2.11-0.98-2.1-2.16
	c0.02-1.27,0.93-2.12,2.26-2.09C65.28,55.54,66.16,56.44,66.15,57.64z M59.72,63.98c0.02,1.26-0.93,2.23-2.17,2.21
	c-1.22-0.02-2.07-0.89-2.09-2.14c-0.01-1.3,0.88-2.23,2.13-2.22C58.78,61.85,59.7,62.78,59.72,63.98z M72.48,63.97
	c0.02,1.31-0.87,2.23-2.12,2.23c-1.18-0.01-2.11-0.93-2.13-2.13c-0.02-1.26,0.92-2.24,2.16-2.23C71.6,61.86,72.46,62.73,72.48,63.97
	z M66.15,70.4c0.01,1.25-0.92,2.14-2.23,2.13c-1.24-0.01-2.12-0.87-2.13-2.09c-0.02-1.23,0.96-2.18,2.22-2.16
	C65.22,68.3,66.14,69.22,66.15,70.4z"/>
</svg>
