<?xml version="1.0" encoding="utf-8"?>
<!-- Generator: Adobe Illustrator 28.0.0, SVG Export Plug-In . SVG Version: 6.00 Build 0)  -->
<svg version="1.1" id="Layer_1" xmlns="http://www.w3.org/2000/svg" xmlns:xlink="http://www.w3.org/1999/xlink" x="0px" y="0px"
	 viewBox="0 0 128 128" style="enable-background:new 0 0 128 128;" xml:space="preserve">
<g id="axJl0Z.tif">
	<g>
		<path d="M41.4,47.6c-0.1-0.9-0.7-1.4-1.7-1.4c-2.1,0-4.2,0-6.4,0c-0.9,0-1.6,0.4-1.6,1.4c-0.1,1.1,0.6,1.5,1.6,1.6
			c1.1,0.1,2.1,0,3.2,0c1.1,0,2.2,0,3.3,0C40.7,49.1,41.4,48.6,41.4,47.6z M96.4,47.6c-0.1-1-0.8-1.4-1.7-1.3
			c-1.4,0.2-1.8-0.2-1.7-1.7c0.1-1.1-0.6-1.8-1.6-1.7c-1,0.1-1.4,0.8-1.3,1.7c0.2,1.4-0.3,1.9-1.7,1.7c-0.9-0.1-1.6,0.4-1.7,1.3
			c-0.1,1,0.6,1.7,1.6,1.6c1.5-0.1,2,0.4,1.8,1.9c0,0.1,0,0.2,0,0.2c0.2,0.8,0.7,1.3,1.5,1.3c0.9,0,1.4-0.6,1.4-1.5c0-0.3,0-0.7,0-1
			c-0.1-0.6,0.1-1,0.8-0.9c0.3,0,0.7,0,1,0C95.9,49.1,96.5,48.6,96.4,47.6z M96.4,47.6c-0.1-1-0.8-1.4-1.7-1.3
			c-1.4,0.2-1.8-0.2-1.7-1.7c0.1-1.1-0.6-1.8-1.6-1.7c-1,0.1-1.4,0.8-1.3,1.7c0.2,1.4-0.3,1.9-1.7,1.7c-0.9-0.1-1.6,0.4-1.7,1.3
			c-0.1,1,0.6,1.7,1.6,1.6c1.5-0.1,2,0.4,1.8,1.9c0,0.1,0,0.2,0,0.2c0.2,0.8,0.7,1.3,1.5,1.3c0.9,0,1.4-0.6,1.4-1.5c0-0.3,0-0.7,0-1
			c-0.1-0.6,0.1-1,0.8-0.9c0.3,0,0.7,0,1,0C95.9,49.1,96.5,48.6,96.4,47.6z M41.4,47.6c-0.1-0.9-0.7-1.4-1.7-1.4c-2.1,0-4.2,0-6.4,0
			c-0.9,0-1.6,0.4-1.6,1.4c-0.1,1.1,0.6,1.5,1.6,1.6c1.1,0.1,2.1,0,3.2,0c1.1,0,2.2,0,3.3,0C40.7,49.1,41.4,48.6,41.4,47.6z
			 M41.4,47.6c-0.1-0.9-0.7-1.4-1.7-1.4c-2.1,0-4.2,0-6.4,0c-0.9,0-1.6,0.4-1.6,1.4c-0.1,1.1,0.6,1.5,1.6,1.6c1.1,0.1,2.1,0,3.2,0
			c1.1,0,2.2,0,3.3,0C40.7,49.1,41.4,48.6,41.4,47.6z M96.4,47.6c-0.1-1-0.8-1.4-1.7-1.3c-1.4,0.2-1.8-0.2-1.7-1.7
			c0.1-1.1-0.6-1.8-1.6-1.7c-1,0.1-1.4,0.8-1.3,1.7c0.2,1.4-0.3,1.9-1.7,1.7c-0.9-0.1-1.6,0.4-1.7,1.3c-0.1,1,0.6,1.7,1.6,1.6
			c1.5-0.1,2,0.4,1.8,1.9c0,0.1,0,0.2,0,0.2c0.2,0.8,0.7,1.3,1.5,1.3c0.9,0,1.4-0.6,1.4-1.5c0-0.3,0-0.7,0-1c-0.1-0.6,0.1-1,0.8-0.9
			c0.3,0,0.7,0,1,0C95.9,49.1,96.5,48.6,96.4,47.6z M96.4,47.6c-0.1-1-0.8-1.4-1.7-1.3c-1.4,0.2-1.8-0.2-1.7-1.7
			c0.1-1.1-0.6-1.8-1.6-1.7c-1,0.1-1.4,0.8-1.3,1.7c0.2,1.4-0.3,1.9-1.7,1.7c-0.9-0.1-1.6,0.4-1.7,1.3c-0.1,1,0.6,1.7,1.6,1.6
			c1.5-0.1,2,0.4,1.8,1.9c0,0.1,0,0.2,0,0.2c0.2,0.8,0.7,1.3,1.5,1.3c0.9,0,1.4-0.6,1.4-1.5c0-0.3,0-0.7,0-1c-0.1-0.6,0.1-1,0.8-0.9
			c0.3,0,0.7,0,1,0C95.9,49.1,96.5,48.6,96.4,47.6z M39.7,46.2c-2.1,0-4.2,0-6.4,0c-0.9,0-1.6,0.4-1.6,1.4c-0.1,1.1,0.6,1.5,1.6,1.6
			c1.1,0.1,2.1,0,3.2,0c1.1,0,2.2,0,3.3,0c1-0.1,1.7-0.6,1.6-1.6C41.3,46.7,40.7,46.2,39.7,46.2z M113.1,37.7c-0.5,0-0.9,0-1.4,0
			c-3.4,0-6.7,0-10.1,0c-1.5,0-1.6-0.1-1.6-1.6c0-1.3,0.1-2.6,0-3.8c-0.1-1.4-0.6-2.7-2.1-3.2c-1-0.4-1.3-1-1.2-1.9c0-1,0-2,0-2.9
			c0-4.5,0-9.1,0-13.6c0-5.3-3.6-8.5-8.4-8.3c-4.5,0.2-9,0-13.5,0.1c-0.9,0-1.6-0.2-2.1-1c-0.4-0.7-1.1-1.1-2-1.1
			c-4.5-0.2-9.1-0.2-13.6,0c-0.8,0-1.4,0.4-1.8,1c-0.6,1-1.4,1.1-2.5,1.1c-4.7,0-9.4,0-14.1,0c-3.8,0-6.6,2.5-7.2,6.2
			c-0.2,0.9-0.2,1.8-0.2,2.7c0,5.3,0,10.6,0,15.9c0,0.7,0.1,1.5-0.8,1.8c-1.7,0.5-2.3,1.9-2.4,3.5c-0.1,1.1,0,2.3,0,3.4
			c0,1.8-0.1,1.9-1.9,1.9c-3.6,0-7.2,0-10.8,0c-2.5,0-3.5,1-3.5,3.5c0,4.3,0,8.7,0,13c0,2.3,0.6,3,2.9,3.4c0.7,0.1,1.1,0.4,1.1,1.1
			c0,0.5,0,0.9,0,1.4c0,12.3,0,24.5,0,36.8c0,6.8,0,13.6,0,20.4c0,3.6,1.5,6.5,4.3,8.7c1.6,1.3,3.5,1.8,5.5,2h0.5
			c0.5-0.3,1-0.1,1.5-0.1c24.7,0,49.5,0,74.2,0c1.4,0,2.8,0,4.1-0.7c4.1-2,6.3-5.4,6.3-10c0.1-10.3,0-20.6,0-30.9
			c0-8.9,0-17.9,0-26.8c0-1.9,0.3-1.8,1.6-2c1.5-0.2,2.1-1,2.2-2.7V40.7C116,38.7,115.2,37.8,113.1,37.7z M96,32.1
			c0.6,0,0.7,0.2,0.7,0.7c0,1.5,0,3,0,4.6c0,0.6-0.2,0.7-0.7,0.7c-1.4,0-2.9,0-4.3,0c-1.4,0-2.9,0-4.3,0c-0.6,0-0.8-0.2-0.8-0.8
			c0-1.5,0-3,0-4.4c0-0.6,0.2-0.8,0.8-0.8C90.2,32.1,93.1,32.1,96,32.1z M72.9,8c0.1-2.3,0-2.3,2.3-2.3c4.5,0,9.1,0,13.6,0
			c3,0,4.5,1.5,4.5,4.6c0,2.9,0,5.8,0,8.7c0,3.1,0,6.2,0,9.3c0,0.9-0.3,1-1.1,1c-2.4,0-2.4,0-2.4-2.4c0-5.1,0-10.3,0-15.4
			c0-2-0.4-2.3-2.4-2.3c-4.5,0-9,0-13.5,0C73.2,9.1,72.9,8.9,72.9,8z M58.2,10.2c0.1-2.1,0.1-4.1,0-6.2c0-0.6,0.1-0.8,0.8-0.8
			c3.4,0,6.9,0,10.3,0C69.8,3.2,70,3.4,70,4c0,2.2-0.1,4.3,0,6.5c0,0.7-0.2,0.9-0.9,0.9c-1.7-0.1-3.4,0-5.1,0c-1.5,0-3,0-4.6,0
			C58.5,11.4,58.1,11.3,58.2,10.2z M57.9,14.4c4.1,0,8.2,0,12.3,0c1.2,0,2.1-0.5,2.6-1.7c0.2-0.5,0.5-0.7,1-0.7c4.1,0,8.2,0,12.3,0
			c0.7,0,0.8,0.2,0.8,0.9c0,5.1,0,10.3,0,15.4c0,0.7-0.2,0.9-0.9,0.9c-1.5,0.1-2.4,1.1-2.4,2.6c0,0.4,0,0.8,0,1.3
			c0,1.6-0.1,3.3-0.1,4.9c-1.7,0.3-3.4,0.1-5,0.1c-4.8,0-9.7,0-14.5,0c-6.1,0-12.1,0-18.2,0c-1.2,0-1.4-0.3-1.3-1.4
			c0.1-1.6,0-3.2,0-4.8c0-1.6-0.9-2.6-2.6-2.7c-0.6,0-0.8-0.2-0.8-0.8c0-5.2,0-10.4,0-15.7c0-0.7,0.3-0.7,0.8-0.7
			c4.1,0,8.2,0,12.3,0c0.5,0,0.8,0.1,1,0.6C55.8,13.8,56.7,14.4,57.9,14.4z M34.8,10c0-2.7,1.6-4.3,4.3-4.3c5,0,10,0,15,0
			c0.8,0,1.1,0.2,1.1,1c0,2.4,0,2.4-2.3,2.4c-4.2,0-8.3,0-12.5,0c-1.7,0-2.2,0.4-2.2,2.2c0,5.5,0,11,0,16.5c0,1-0.1,1.5-1.3,1.4
			c-2.1-0.1-2.1,0-2.1-2.1v-8.1C34.8,15.9,34.8,13,34.8,10z M31.5,37.3c0.1-1.5,0-3,0-4.4c0-0.6,0.2-0.8,0.8-0.8c2.8,0,5.7,0,8.5,0
			c0.7,0,0.9,0.2,0.9,0.9c0,1.4,0,2.9,0,4.3c0,0.7-0.2,0.9-0.9,0.8c-1.4,0-2.8,0-4.2,0s-2.8,0-4.2,0C31.8,38.1,31.4,38.1,31.5,37.3z
			 M108.3,120.3c-1.4,3.1-3.9,4.6-7.2,4.6c-3.6,0.1-7.1,0-10.7,0c-21,0-42,0-63,0c-4.2,0-7.2-2.2-8.1-6.1h88
			C109,118.8,109,118.8,108.3,120.3z M108.9,90c0,8.2,0,16.4,0,24.6c0,1-0.2,1.2-1.2,1.2c-14.5,0-29.1,0-43.6,0
			c-14.5,0-29.1,0-43.6,0c-1,0-1.3-0.2-1.3-1.2c0-18.7,0-37.3,0-56c0-1,0.2-1.4,1.3-1.3c2.2,0.1,4.5,0.1,6.7,0
			c1.1,0,1.3,0.3,1.3,1.4c0,13.5,0,27,0,40.5c0,3.1,0.8,3.9,3.9,3.9c2.9,0,5.9,0,8.8,0c2.3,0,3.3-1,3.3-3.3c0-13.7,0-27.3,0-41
			c0-1.2,0.3-1.5,1.5-1.5c12.1,0,24.2,0,36.3,0c1.1,0,1.5,0.2,1.5,1.4c-0.1,13.5,0,27.1,0,40.6c0,2.9,0.8,3.7,3.7,3.7H96
			c2.7,0,3.7-0.9,3.7-3.6c0-13.5,0-27.1,0-40.6c0-1.2,0.3-1.6,1.5-1.5c2.2,0.1,4.4,0.1,6.6,0c1,0,1.2,0.2,1.2,1.2
			C108.9,69,108.9,79.5,108.9,90z M41.6,99.1c0,0.7-0.2,0.9-0.9,0.9c-2.8,0-5.5-0.1-8.3,0c-0.9,0-0.9-0.3-0.9-1c0-6.8,0-13.6,0-20.4
			c0-6.7,0-13.5,0-20.2c0-0.9,0.2-1.2,1.1-1.1c2.7,0.1,5.3,0,8,0c0.8,0,1,0.2,1,1C41.6,71.8,41.6,85.5,41.6,99.1z M86.5,58.4
			c0-0.9,0.2-1.2,1.1-1.1c2.6,0.1,5.3,0.1,7.9,0c0.9,0,1.1,0.2,1.1,1.1c0,6.8,0,13.6,0,20.4c0,6.7,0,13.4,0,20.1
			c0,0.9-0.2,1.2-1.2,1.2c-2.6-0.1-5.2-0.1-7.8,0c-0.9,0-1.2-0.1-1.2-1.1C86.6,85.4,86.6,71.9,86.5,58.4z M113.1,42.5
			c-0.1,3.5-0.1,7,0,10.6c0,1.1-0.3,1.3-1.3,1.3c-8.9-0.1-17.8-0.1-26.7-0.1c-13.5,0-27.1,0-40.6,0.1c-9.4,0-18.7,0-28.1,0
			c-1,0-1.4-0.2-1.3-1.3c0.1-3.6,0.1-7.1,0-10.7c0-1,0.2-1.3,1.2-1.3c15.9,0,31.9,0,47.8,0c15.9,0,31.7,0,47.6,0
			C112.8,41.1,113.1,41.3,113.1,42.5z M94.7,46.3c-1.4,0.2-1.8-0.2-1.7-1.7c0.1-1.1-0.6-1.8-1.6-1.7c-1,0.1-1.4,0.8-1.3,1.7
			c0.2,1.4-0.3,1.9-1.7,1.7c-0.9-0.1-1.6,0.4-1.7,1.3c-0.1,1,0.6,1.7,1.6,1.6c1.5-0.1,2,0.4,1.8,1.9c0,0.1,0,0.2,0,0.2
			c0.2,0.8,0.7,1.3,1.5,1.3c0.9,0,1.4-0.6,1.4-1.5c0-0.3,0-0.7,0-1c-0.1-0.6,0.1-1,0.8-0.9c0.3,0,0.7,0,1,0c1-0.1,1.6-0.6,1.5-1.6
			C96.3,46.6,95.7,46.1,94.7,46.3z M39.7,46.2c-2.1,0-4.2,0-6.4,0c-0.9,0-1.6,0.4-1.6,1.4c-0.1,1.1,0.6,1.5,1.6,1.6
			c1.1,0.1,2.1,0,3.2,0c1.1,0,2.2,0,3.3,0c1-0.1,1.7-0.6,1.6-1.6C41.3,46.7,40.7,46.2,39.7,46.2z M41.4,47.6
			c-0.1-0.9-0.7-1.4-1.7-1.4c-2.1,0-4.2,0-6.4,0c-0.9,0-1.6,0.4-1.6,1.4c-0.1,1.1,0.6,1.5,1.6,1.6c1.1,0.1,2.1,0,3.2,0
			c1.1,0,2.2,0,3.3,0C40.7,49.1,41.4,48.6,41.4,47.6z M96.4,47.6c-0.1-1-0.8-1.4-1.7-1.3c-1.4,0.2-1.8-0.2-1.7-1.7
			c0.1-1.1-0.6-1.8-1.6-1.7c-1,0.1-1.4,0.8-1.3,1.7c0.2,1.4-0.3,1.9-1.7,1.7c-0.9-0.1-1.6,0.4-1.7,1.3c-0.1,1,0.6,1.7,1.6,1.6
			c1.5-0.1,2,0.4,1.8,1.9c0,0.1,0,0.2,0,0.2c0.2,0.8,0.7,1.3,1.5,1.3c0.9,0,1.4-0.6,1.4-1.5c0-0.3,0-0.7,0-1c-0.1-0.6,0.1-1,0.8-0.9
			c0.3,0,0.7,0,1,0C95.9,49.1,96.5,48.6,96.4,47.6z M96.4,47.6c-0.1-1-0.8-1.4-1.7-1.3c-1.4,0.2-1.8-0.2-1.7-1.7
			c0.1-1.1-0.6-1.8-1.6-1.7c-1,0.1-1.4,0.8-1.3,1.7c0.2,1.4-0.3,1.9-1.7,1.7c-0.9-0.1-1.6,0.4-1.7,1.3c-0.1,1,0.6,1.7,1.6,1.6
			c1.5-0.1,2,0.4,1.8,1.9c0,0.1,0,0.2,0,0.2c0.2,0.8,0.7,1.3,1.5,1.3c0.9,0,1.4-0.6,1.4-1.5c0-0.3,0-0.7,0-1c-0.1-0.6,0.1-1,0.8-0.9
			c0.3,0,0.7,0,1,0C95.9,49.1,96.5,48.6,96.4,47.6z M41.4,47.6c-0.1-0.9-0.7-1.4-1.7-1.4c-2.1,0-4.2,0-6.4,0c-0.9,0-1.6,0.4-1.6,1.4
			c-0.1,1.1,0.6,1.5,1.6,1.6c1.1,0.1,2.1,0,3.2,0c1.1,0,2.2,0,3.3,0C40.7,49.1,41.4,48.6,41.4,47.6z M41.4,47.6
			c-0.1-0.9-0.7-1.4-1.7-1.4c-2.1,0-4.2,0-6.4,0c-0.9,0-1.6,0.4-1.6,1.4c-0.1,1.1,0.6,1.5,1.6,1.6c1.1,0.1,2.1,0,3.2,0
			c1.1,0,2.2,0,3.3,0C40.7,49.1,41.4,48.6,41.4,47.6z M96.4,47.6c-0.1-1-0.8-1.4-1.7-1.3c-1.4,0.2-1.8-0.2-1.7-1.7
			c0.1-1.1-0.6-1.8-1.6-1.7c-1,0.1-1.4,0.8-1.3,1.7c0.2,1.4-0.3,1.9-1.7,1.7c-0.9-0.1-1.6,0.4-1.7,1.3c-0.1,1,0.6,1.7,1.6,1.6
			c1.5-0.1,2,0.4,1.8,1.9c0,0.1,0,0.2,0,0.2c0.2,0.8,0.7,1.3,1.5,1.3c0.9,0,1.4-0.6,1.4-1.5c0-0.3,0-0.7,0-1c-0.1-0.6,0.1-1,0.8-0.9
			c0.3,0,0.7,0,1,0C95.9,49.1,96.5,48.6,96.4,47.6z M96.4,47.6c-0.1-1-0.8-1.4-1.7-1.3c-1.4,0.2-1.8-0.2-1.7-1.7
			c0.1-1.1-0.6-1.8-1.6-1.7c-1,0.1-1.4,0.8-1.3,1.7c0.2,1.4-0.3,1.9-1.7,1.7c-0.9-0.1-1.6,0.4-1.7,1.3c-0.1,1,0.6,1.7,1.6,1.6
			c1.5-0.1,2,0.4,1.8,1.9c0,0.1,0,0.2,0,0.2c0.2,0.8,0.7,1.3,1.5,1.3c0.9,0,1.4-0.6,1.4-1.5c0-0.3,0-0.7,0-1c-0.1-0.6,0.1-1,0.8-0.9
			c0.3,0,0.7,0,1,0C95.9,49.1,96.5,48.6,96.4,47.6z M41.4,47.6c-0.1-0.9-0.7-1.4-1.7-1.4c-2.1,0-4.2,0-6.4,0c-0.9,0-1.6,0.4-1.6,1.4
			c-0.1,1.1,0.6,1.5,1.6,1.6c1.1,0.1,2.1,0,3.2,0c1.1,0,2.2,0,3.3,0C40.7,49.1,41.4,48.6,41.4,47.6z"/>
		<path d="M41.4,47.6c0.1,1-0.6,1.5-1.6,1.6c-1.1,0.1-2.2,0-3.3,0c-1.1,0-2.1,0-3.2,0c-1-0.1-1.6-0.5-1.6-1.6c0.1-1,0.7-1.4,1.6-1.4
			c2.1,0,4.2,0,6.4,0C40.7,46.2,41.3,46.7,41.4,47.6z"/>
		<path d="M94.9,49.2c-0.3,0-0.7,0.1-1,0c-0.7-0.1-0.9,0.2-0.8,0.9c0,0.3,0,0.7,0,1c0,0.9-0.6,1.4-1.4,1.5c-0.8,0-1.3-0.5-1.5-1.3
			c0-0.1-0.1-0.2,0-0.2c0.3-1.4-0.2-2-1.8-1.9c-0.9,0.1-1.6-0.5-1.6-1.6c0.1-0.9,0.7-1.5,1.7-1.3c1.4,0.2,1.9-0.2,1.7-1.7
			c-0.1-0.9,0.4-1.6,1.3-1.7c1,0,1.7,0.6,1.6,1.7c-0.2,1.4,0.3,1.9,1.7,1.7c0.9-0.1,1.6,0.3,1.7,1.3C96.5,48.6,95.9,49.1,94.9,49.2z
			"/>
		<path d="M94.9,49.2c-0.3,0-0.7,0.1-1,0c-0.7-0.1-0.9,0.2-0.8,0.9c0,0.3,0,0.7,0,1c0,0.9-0.6,1.4-1.4,1.5c-0.8,0-1.3-0.5-1.5-1.3
			c0-0.1-0.1-0.2,0-0.2c0.3-1.4-0.2-2-1.8-1.9c-0.9,0.1-1.6-0.5-1.6-1.6c0.1-0.9,0.7-1.5,1.7-1.3c1.4,0.2,1.9-0.2,1.7-1.7
			c-0.1-0.9,0.4-1.6,1.3-1.7c1,0,1.7,0.6,1.6,1.7c-0.2,1.4,0.3,1.9,1.7,1.7c0.9-0.1,1.6,0.3,1.7,1.3C96.5,48.6,95.9,49.1,94.9,49.2z
			"/>
		<path d="M39.8,49.2c-1.1,0.1-2.2,0-3.3,0c-1.1,0-2.1,0-3.2,0c-1-0.1-1.6-0.5-1.6-1.6c0.1-1,0.7-1.4,1.6-1.4c2.1,0,4.2,0,6.4,0
			c1,0,1.6,0.4,1.7,1.4C41.4,48.6,40.7,49.1,39.8,49.2z"/>
	</g>
</g>
</svg>
