<?xml version="1.0" encoding="utf-8"?>
<!-- Generator: Adobe Illustrator 28.0.0, SVG Export Plug-In . SVG Version: 6.00 Build 0)  -->
<svg version="1.1" id="Layer_1" xmlns="http://www.w3.org/2000/svg" xmlns:xlink="http://www.w3.org/1999/xlink" x="0px" y="0px"
	 viewBox="0 0 128 128" style="enable-background:new 0 0 128 128;" xml:space="preserve">
<g>
	<path d="M64,26.1c-20.8-0.1-37.9,17-37.8,37.8c0.1,20.9,17,37.8,37.8,37.8c20.9,0,37.7-16.9,37.8-37.8S85,26.2,64,26.1z M70.4,95.2
		c-1.1,0.2-2.5,0.9-3.2,0.3c-0.7-0.5-0.2-2-0.2-3.1c0-2.8,0-5.6,0-8.4c0-3.5,0-6.9,0-10.4c0-0.7,0.1-1,1-1.1
		c8.4-0.3,15.6-7.2,16.4-15.6c0.1-1.5,0.2-2.9,0.1-4.4c-0.1-2.1-1.2-3.1-3.3-3.3c-5.3-0.3-10.2,0.8-14.3,4.5
		c-0.8,0.8-1.6,1.6-2.3,2.5c-0.4,0.6-0.6,0.7-1.1,0.1c-2.8-3.7-6.5-6-11.2-6.8c-2.1-0.3-4.2-0.3-6.2-0.1c-1.3,0.1-2.3,1.2-2.4,2.6
		C42.7,62.1,48,69.6,56.3,72c1.3,0.4,2.6,0.6,3.9,0.6c0.6,0,0.8,0.1,0.8,0.7c0,7.2,0,14.3,0,21.5c0,1-0.5,0.8-1.1,0.7
		c-5.8-0.8-11-2.9-15.6-6.5c-6.8-5.4-10.9-12.4-12-21c-2.2-16.8,8.9-32,25-35.4c17.7-3.7,34.7,7.6,38,25.4
		C98.7,75.7,87,91.9,70.4,95.2z M67,65.7c0.3-5.4,5.5-10.4,10.9-10.5c0.9,0,0.7,0.6,0.6,1c-0.5,4.1-2.5,7.2-6.1,9.2
		c-1.4,0.7-2.8,1.2-4.5,1.3C67,67,66.9,66.4,67,65.7z M59.9,66.7c-4.8-0.4-9.8-4.3-10.4-10.7c-0.1-0.6,0.1-0.9,0.8-0.8
		c5.5,0.5,10,4.7,10.7,10.1C61.2,66.7,61.1,66.8,59.9,66.7z M64,26.1c-20.8-0.1-37.9,17-37.8,37.8c0.1,20.9,17,37.8,37.8,37.8
		c20.9,0,37.7-16.9,37.8-37.8S85,26.2,64,26.1z M70.4,95.2c-1.1,0.2-2.5,0.9-3.2,0.3c-0.7-0.5-0.2-2-0.2-3.1c0-2.8,0-5.6,0-8.4
		c0-3.5,0-6.9,0-10.4c0-0.7,0.1-1,1-1.1c8.4-0.3,15.6-7.2,16.4-15.6c0.1-1.5,0.2-2.9,0.1-4.4c-0.1-2.1-1.2-3.1-3.3-3.3
		c-5.3-0.3-10.2,0.8-14.3,4.5c-0.8,0.8-1.6,1.6-2.3,2.5c-0.4,0.6-0.6,0.7-1.1,0.1c-2.8-3.7-6.5-6-11.2-6.8c-2.1-0.3-4.2-0.3-6.2-0.1
		c-1.3,0.1-2.3,1.2-2.4,2.6C42.7,62.1,48,69.6,56.3,72c1.3,0.4,2.6,0.6,3.9,0.6c0.6,0,0.8,0.1,0.8,0.7c0,7.2,0,14.3,0,21.5
		c0,1-0.5,0.8-1.1,0.7c-5.8-0.8-11-2.9-15.6-6.5c-6.8-5.4-10.9-12.4-12-21c-2.2-16.8,8.9-32,25-35.4c17.7-3.7,34.7,7.6,38,25.4
		C98.7,75.7,87,91.9,70.4,95.2z M67,65.7c0.3-5.4,5.5-10.4,10.9-10.5c0.9,0,0.7,0.6,0.6,1c-0.5,4.1-2.5,7.2-6.1,9.2
		c-1.4,0.7-2.8,1.2-4.5,1.3C67,67,66.9,66.4,67,65.7z M59.9,66.7c-4.8-0.4-9.8-4.3-10.4-10.7c-0.1-0.6,0.1-0.9,0.8-0.8
		c5.5,0.5,10,4.7,10.7,10.1C61.2,66.7,61.1,66.8,59.9,66.7z M64,26.1c-20.8-0.1-37.9,17-37.8,37.8c0.1,20.9,17,37.8,37.8,37.8
		c20.9,0,37.7-16.9,37.8-37.8S85,26.2,64,26.1z M70.4,95.2c-1.1,0.2-2.5,0.9-3.2,0.3c-0.7-0.5-0.2-2-0.2-3.1c0-2.8,0-5.6,0-8.4
		c0-3.5,0-6.9,0-10.4c0-0.7,0.1-1,1-1.1c8.4-0.3,15.6-7.2,16.4-15.6c0.1-1.5,0.2-2.9,0.1-4.4c-0.1-2.1-1.2-3.1-3.3-3.3
		c-5.3-0.3-10.2,0.8-14.3,4.5c-0.8,0.8-1.6,1.6-2.3,2.5c-0.4,0.6-0.6,0.7-1.1,0.1c-2.8-3.7-6.5-6-11.2-6.8c-2.1-0.3-4.2-0.3-6.2-0.1
		c-1.3,0.1-2.3,1.2-2.4,2.6C42.7,62.1,48,69.6,56.3,72c1.3,0.4,2.6,0.6,3.9,0.6c0.6,0,0.8,0.1,0.8,0.7c0,7.2,0,14.3,0,21.5
		c0,1-0.5,0.8-1.1,0.7c-5.8-0.8-11-2.9-15.6-6.5c-6.8-5.4-10.9-12.4-12-21c-2.2-16.8,8.9-32,25-35.4c17.7-3.7,34.7,7.6,38,25.4
		C98.7,75.7,87,91.9,70.4,95.2z M67,65.7c0.3-5.4,5.5-10.4,10.9-10.5c0.9,0,0.7,0.6,0.6,1c-0.5,4.1-2.5,7.2-6.1,9.2
		c-1.4,0.7-2.8,1.2-4.5,1.3C67,67,66.9,66.4,67,65.7z M59.9,66.7c-4.8-0.4-9.8-4.3-10.4-10.7c-0.1-0.6,0.1-0.9,0.8-0.8
		c5.5,0.5,10,4.7,10.7,10.1C61.2,66.7,61.1,66.8,59.9,66.7z M64,26.1c-20.8-0.1-37.9,17-37.8,37.8c0.1,20.9,17,37.8,37.8,37.8
		c20.9,0,37.7-16.9,37.8-37.8S85,26.2,64,26.1z M70.4,95.2c-1.1,0.2-2.5,0.9-3.2,0.3c-0.7-0.5-0.2-2-0.2-3.1c0-2.8,0-5.6,0-8.4
		c0-3.5,0-6.9,0-10.4c0-0.7,0.1-1,1-1.1c8.4-0.3,15.6-7.2,16.4-15.6c0.1-1.5,0.2-2.9,0.1-4.4c-0.1-2.1-1.2-3.1-3.3-3.3
		c-5.3-0.3-10.2,0.8-14.3,4.5c-0.8,0.8-1.6,1.6-2.3,2.5c-0.4,0.6-0.6,0.7-1.1,0.1c-2.8-3.7-6.5-6-11.2-6.8c-2.1-0.3-4.2-0.3-6.2-0.1
		c-1.3,0.1-2.3,1.2-2.4,2.6C42.7,62.1,48,69.6,56.3,72c1.3,0.4,2.6,0.6,3.9,0.6c0.6,0,0.8,0.1,0.8,0.7c0,7.2,0,14.3,0,21.5
		c0,1-0.5,0.8-1.1,0.7c-5.8-0.8-11-2.9-15.6-6.5c-6.8-5.4-10.9-12.4-12-21c-2.2-16.8,8.9-32,25-35.4c17.7-3.7,34.7,7.6,38,25.4
		C98.7,75.7,87,91.9,70.4,95.2z M67,65.7c0.3-5.4,5.5-10.4,10.9-10.5c0.9,0,0.7,0.6,0.6,1c-0.5,4.1-2.5,7.2-6.1,9.2
		c-1.4,0.7-2.8,1.2-4.5,1.3C67,67,66.9,66.4,67,65.7z M59.9,66.7c-4.8-0.4-9.8-4.3-10.4-10.7c-0.1-0.6,0.1-0.9,0.8-0.8
		c5.5,0.5,10,4.7,10.7,10.1C61.2,66.7,61.1,66.8,59.9,66.7z M122,123.1c-1.5-3-2.9-5.9-4.4-8.8c-0.5-1-0.7-1.9-0.7-3V16.6
		c0-1,0.2-2,0.7-2.9c1.5-3,3.1-6,4.5-9.1c1-2.2,0.4-3.8-1.8-4.7H7.8c-0.9,0.3-1.6,0.7-2,1.6C5.3,2.6,5.4,3.6,6,4.7
		c1.5,3,3,6,4.5,8.9c0.5,1,0.7,2,0.7,3.1v94.4c0,1.1-0.2,2.2-0.7,3.2c-1.5,2.9-3,5.9-4.4,8.8c-0.4,0.9-0.7,1.8-0.3,2.8
		c0.5,1.5,1.4,2.1,3.4,2.1h109.9c0.2,0,0.4,0,0.6,0c1.5-0.1,2.6-0.9,2.9-2.4C122.6,124.6,122.3,123.8,122,123.1z M13.6,122
		c0.9-1.9,1.8-3.7,2.7-5.4c0.1-0.2,0.3-0.2,0.5-0.2c0.3,0,0.6,0,0.9,0c30.9,0,61.7,0,92.6,0c1,0,1.6,0.3,1.9,1.2
		c0.6,1.5,1.4,2.9,2.2,4.5H13.6z M17.5,109.2c0-30.1,0-60.3,0-90.4c0-1.1,0.3-1.3,1.4-1.3c30.1,0,60.2,0,90.3,0c1,0,1.3,0.2,1.3,1.3
		c0,30.1,0,60.2,0,90.3c0,1.2-0.3,1.4-1.4,1.4c-15.1,0-30.1,0-45.2,0c-15,0-30.1,0-45.1,0C17.8,110.4,17.5,110.2,17.5,109.2z
		 M111.7,11.3c-0.1,0.3-0.4,0.2-0.6,0.3h-0.7c-30.9,0-61.7,0-92.6,0c-1,0-1.6-0.3-2-1.2c-0.6-1.5-1.4-2.9-2.2-4.5h100.9
		C113.5,7.7,112.6,9.5,111.7,11.3z M64,101.7c20.9,0,37.7-16.9,37.8-37.8S85,26.2,64,26.1c-20.8-0.1-37.9,17-37.8,37.8
		C26.3,84.9,43.2,101.8,64,101.7z M57.3,32.7c17.7-3.7,34.7,7.6,38,25.4c3.3,17.6-8.4,33.8-25,37.1c-1.1,0.2-2.5,0.9-3.2,0.3
		c-0.7-0.5-0.2-2-0.2-3.1c0-2.8,0-5.6,0-8.4c0-3.5,0-6.9,0-10.4c0-0.7,0.1-1,1-1.1c8.4-0.3,15.6-7.2,16.4-15.6
		c0.1-1.5,0.2-2.9,0.1-4.4c-0.1-2.1-1.2-3.1-3.3-3.3c-5.3-0.3-10.2,0.8-14.3,4.5c-0.8,0.8-1.6,1.6-2.3,2.5c-0.4,0.6-0.6,0.7-1.1,0.1
		c-2.8-3.7-6.5-6-11.2-6.8c-2.1-0.3-4.2-0.3-6.2-0.1c-1.3,0.1-2.3,1.2-2.4,2.6C42.7,62.1,48,69.6,56.3,72c1.3,0.4,2.6,0.6,3.9,0.6
		c0.6,0,0.8,0.1,0.8,0.7c0,7.2,0,14.3,0,21.5c0,1-0.5,0.8-1.1,0.7c-5.8-0.8-11-2.9-15.6-6.5c-6.8-5.4-10.9-12.4-12-21
		C30.1,51.3,41.2,36.1,57.3,32.7z M67,65.7c0.3-5.4,5.5-10.4,10.9-10.5c0.9,0,0.7,0.6,0.6,1c-0.5,4.1-2.5,7.2-6.1,9.2
		c-1.4,0.7-2.8,1.2-4.5,1.3C67,67,66.9,66.4,67,65.7z M59.9,66.7c-4.8-0.4-9.8-4.3-10.4-10.7c-0.1-0.6,0.1-0.9,0.8-0.8
		c5.5,0.5,10,4.7,10.7,10.1C61.2,66.7,61.1,66.8,59.9,66.7z M64,26.1c-20.8-0.1-37.9,17-37.8,37.8c0.1,20.9,17,37.8,37.8,37.8
		c20.9,0,37.7-16.9,37.8-37.8S85,26.2,64,26.1z M70.4,95.2c-1.1,0.2-2.5,0.9-3.2,0.3c-0.7-0.5-0.2-2-0.2-3.1c0-2.8,0-5.6,0-8.4
		c0-3.5,0-6.9,0-10.4c0-0.7,0.1-1,1-1.1c8.4-0.3,15.6-7.2,16.4-15.6c0.1-1.5,0.2-2.9,0.1-4.4c-0.1-2.1-1.2-3.1-3.3-3.3
		c-5.3-0.3-10.2,0.8-14.3,4.5c-0.8,0.8-1.6,1.6-2.3,2.5c-0.4,0.6-0.6,0.7-1.1,0.1c-2.8-3.7-6.5-6-11.2-6.8c-2.1-0.3-4.2-0.3-6.2-0.1
		c-1.3,0.1-2.3,1.2-2.4,2.6C42.7,62.1,48,69.6,56.3,72c1.3,0.4,2.6,0.6,3.9,0.6c0.6,0,0.8,0.1,0.8,0.7c0,7.2,0,14.3,0,21.5
		c0,1-0.5,0.8-1.1,0.7c-5.8-0.8-11-2.9-15.6-6.5c-6.8-5.4-10.9-12.4-12-21c-2.2-16.8,8.9-32,25-35.4c17.7-3.7,34.7,7.6,38,25.4
		C98.7,75.7,87,91.9,70.4,95.2z M67,65.7c0.3-5.4,5.5-10.4,10.9-10.5c0.9,0,0.7,0.6,0.6,1c-0.5,4.1-2.5,7.2-6.1,9.2
		c-1.4,0.7-2.8,1.2-4.5,1.3C67,67,66.9,66.4,67,65.7z M59.9,66.7c-4.8-0.4-9.8-4.3-10.4-10.7c-0.1-0.6,0.1-0.9,0.8-0.8
		c5.5,0.5,10,4.7,10.7,10.1C61.2,66.7,61.1,66.8,59.9,66.7z M64,26.1c-20.8-0.1-37.9,17-37.8,37.8c0.1,20.9,17,37.8,37.8,37.8
		c20.9,0,37.7-16.9,37.8-37.8S85,26.2,64,26.1z M70.4,95.2c-1.1,0.2-2.5,0.9-3.2,0.3c-0.7-0.5-0.2-2-0.2-3.1c0-2.8,0-5.6,0-8.4
		c0-3.5,0-6.9,0-10.4c0-0.7,0.1-1,1-1.1c8.4-0.3,15.6-7.2,16.4-15.6c0.1-1.5,0.2-2.9,0.1-4.4c-0.1-2.1-1.2-3.1-3.3-3.3
		c-5.3-0.3-10.2,0.8-14.3,4.5c-0.8,0.8-1.6,1.6-2.3,2.5c-0.4,0.6-0.6,0.7-1.1,0.1c-2.8-3.7-6.5-6-11.2-6.8c-2.1-0.3-4.2-0.3-6.2-0.1
		c-1.3,0.1-2.3,1.2-2.4,2.6C42.7,62.1,48,69.6,56.3,72c1.3,0.4,2.6,0.6,3.9,0.6c0.6,0,0.8,0.1,0.8,0.7c0,7.2,0,14.3,0,21.5
		c0,1-0.5,0.8-1.1,0.7c-5.8-0.8-11-2.9-15.6-6.5c-6.8-5.4-10.9-12.4-12-21c-2.2-16.8,8.9-32,25-35.4c17.7-3.7,34.7,7.6,38,25.4
		C98.7,75.7,87,91.9,70.4,95.2z M67,65.7c0.3-5.4,5.5-10.4,10.9-10.5c0.9,0,0.7,0.6,0.6,1c-0.5,4.1-2.5,7.2-6.1,9.2
		c-1.4,0.7-2.8,1.2-4.5,1.3C67,67,66.9,66.4,67,65.7z M59.9,66.7c-4.8-0.4-9.8-4.3-10.4-10.7c-0.1-0.6,0.1-0.9,0.8-0.8
		c5.5,0.5,10,4.7,10.7,10.1C61.2,66.7,61.1,66.8,59.9,66.7z M64,26.1c-20.8-0.1-37.9,17-37.8,37.8c0.1,20.9,17,37.8,37.8,37.8
		c20.9,0,37.7-16.9,37.8-37.8S85,26.2,64,26.1z M70.4,95.2c-1.1,0.2-2.5,0.9-3.2,0.3c-0.7-0.5-0.2-2-0.2-3.1c0-2.8,0-5.6,0-8.4
		c0-3.5,0-6.9,0-10.4c0-0.7,0.1-1,1-1.1c8.4-0.3,15.6-7.2,16.4-15.6c0.1-1.5,0.2-2.9,0.1-4.4c-0.1-2.1-1.2-3.1-3.3-3.3
		c-5.3-0.3-10.2,0.8-14.3,4.5c-0.8,0.8-1.6,1.6-2.3,2.5c-0.4,0.6-0.6,0.7-1.1,0.1c-2.8-3.7-6.5-6-11.2-6.8c-2.1-0.3-4.2-0.3-6.2-0.1
		c-1.3,0.1-2.3,1.2-2.4,2.6C42.7,62.1,48,69.6,56.3,72c1.3,0.4,2.6,0.6,3.9,0.6c0.6,0,0.8,0.1,0.8,0.7c0,7.2,0,14.3,0,21.5
		c0,1-0.5,0.8-1.1,0.7c-5.8-0.8-11-2.9-15.6-6.5c-6.8-5.4-10.9-12.4-12-21c-2.2-16.8,8.9-32,25-35.4c17.7-3.7,34.7,7.6,38,25.4
		C98.7,75.7,87,91.9,70.4,95.2z M67,65.7c0.3-5.4,5.5-10.4,10.9-10.5c0.9,0,0.7,0.6,0.6,1c-0.5,4.1-2.5,7.2-6.1,9.2
		c-1.4,0.7-2.8,1.2-4.5,1.3C67,67,66.9,66.4,67,65.7z M59.9,66.7c-4.8-0.4-9.8-4.3-10.4-10.7c-0.1-0.6,0.1-0.9,0.8-0.8
		c5.5,0.5,10,4.7,10.7,10.1C61.2,66.7,61.1,66.8,59.9,66.7z M64,26.1c-20.8-0.1-37.9,17-37.8,37.8c0.1,20.9,17,37.8,37.8,37.8
		c20.9,0,37.7-16.9,37.8-37.8S85,26.2,64,26.1z M70.4,95.2c-1.1,0.2-2.5,0.9-3.2,0.3c-0.7-0.5-0.2-2-0.2-3.1c0-2.8,0-5.6,0-8.4
		c0-3.5,0-6.9,0-10.4c0-0.7,0.1-1,1-1.1c8.4-0.3,15.6-7.2,16.4-15.6c0.1-1.5,0.2-2.9,0.1-4.4c-0.1-2.1-1.2-3.1-3.3-3.3
		c-5.3-0.3-10.2,0.8-14.3,4.5c-0.8,0.8-1.6,1.6-2.3,2.5c-0.4,0.6-0.6,0.7-1.1,0.1c-2.8-3.7-6.5-6-11.2-6.8c-2.1-0.3-4.2-0.3-6.2-0.1
		c-1.3,0.1-2.3,1.2-2.4,2.6C42.7,62.1,48,69.6,56.3,72c1.3,0.4,2.6,0.6,3.9,0.6c0.6,0,0.8,0.1,0.8,0.7c0,7.2,0,14.3,0,21.5
		c0,1-0.5,0.8-1.1,0.7c-5.8-0.8-11-2.9-15.6-6.5c-6.8-5.4-10.9-12.4-12-21c-2.2-16.8,8.9-32,25-35.4c17.7-3.7,34.7,7.6,38,25.4
		C98.7,75.7,87,91.9,70.4,95.2z M67,65.7c0.3-5.4,5.5-10.4,10.9-10.5c0.9,0,0.7,0.6,0.6,1c-0.5,4.1-2.5,7.2-6.1,9.2
		c-1.4,0.7-2.8,1.2-4.5,1.3C67,67,66.9,66.4,67,65.7z M59.9,66.7c-4.8-0.4-9.8-4.3-10.4-10.7c-0.1-0.6,0.1-0.9,0.8-0.8
		c5.5,0.5,10,4.7,10.7,10.1C61.2,66.7,61.1,66.8,59.9,66.7z"/>
	<path d="M64,26.1c-20.8-0.1-37.9,17-37.8,37.8c0.1,20.9,17,37.8,37.8,37.8c20.9,0,37.7-16.9,37.8-37.8S85,26.2,64,26.1z M70.4,95.2
		c-1.1,0.2-2.5,0.9-3.2,0.3c-0.7-0.5-0.2-2-0.2-3.1c0-2.8,0-5.6,0-8.4c0-3.5,0-6.9,0-10.4c0-0.7,0.1-1,1-1.1
		c8.4-0.3,15.6-7.2,16.4-15.6c0.1-1.5,0.2-2.9,0.1-4.4c-0.1-2.1-1.2-3.1-3.3-3.3c-5.3-0.3-10.2,0.8-14.3,4.5
		c-0.8,0.8-1.6,1.6-2.3,2.5c-0.4,0.6-0.6,0.7-1.1,0.1c-2.8-3.7-6.5-6-11.2-6.8c-2.1-0.3-4.2-0.3-6.2-0.1c-1.3,0.1-2.3,1.2-2.4,2.6
		C42.7,62.1,48,69.6,56.3,72c1.3,0.4,2.6,0.6,3.9,0.6c0.6,0,0.8,0.1,0.8,0.7c0,7.2,0,14.3,0,21.5c0,1-0.5,0.8-1.1,0.7
		c-5.8-0.8-11-2.9-15.6-6.5c-6.8-5.4-10.9-12.4-12-21c-2.2-16.8,8.9-32,25-35.4c17.7-3.7,34.7,7.6,38,25.4
		C98.7,75.7,87,91.9,70.4,95.2z M67,65.7c0.3-5.4,5.5-10.4,10.9-10.5c0.9,0,0.7,0.6,0.6,1c-0.5,4.1-2.5,7.2-6.1,9.2
		c-1.4,0.7-2.8,1.2-4.5,1.3C67,67,66.9,66.4,67,65.7z M59.9,66.7c-4.8-0.4-9.8-4.3-10.4-10.7c-0.1-0.6,0.1-0.9,0.8-0.8
		c5.5,0.5,10,4.7,10.7,10.1C61.2,66.7,61.1,66.8,59.9,66.7z"/>
	<path d="M64,26.1c-20.8-0.1-37.9,17-37.8,37.8c0.1,20.9,17,37.8,37.8,37.8c20.9,0,37.7-16.9,37.8-37.8S85,26.2,64,26.1z M70.4,95.2
		c-1.1,0.2-2.5,0.9-3.2,0.3c-0.7-0.5-0.2-2-0.2-3.1c0-2.8,0-5.6,0-8.4c0-3.5,0-6.9,0-10.4c0-0.7,0.1-1,1-1.1
		c8.4-0.3,15.6-7.2,16.4-15.6c0.1-1.5,0.2-2.9,0.1-4.4c-0.1-2.1-1.2-3.1-3.3-3.3c-5.3-0.3-10.2,0.8-14.3,4.5
		c-0.8,0.8-1.6,1.6-2.3,2.5c-0.4,0.6-0.6,0.7-1.1,0.1c-2.8-3.7-6.5-6-11.2-6.8c-2.1-0.3-4.2-0.3-6.2-0.1c-1.3,0.1-2.3,1.2-2.4,2.6
		C42.7,62.1,48,69.6,56.3,72c1.3,0.4,2.6,0.6,3.9,0.6c0.6,0,0.8,0.1,0.8,0.7c0,7.2,0,14.3,0,21.5c0,1-0.5,0.8-1.1,0.7
		c-5.8-0.8-11-2.9-15.6-6.5c-6.8-5.4-10.9-12.4-12-21c-2.2-16.8,8.9-32,25-35.4c17.7-3.7,34.7,7.6,38,25.4
		C98.7,75.7,87,91.9,70.4,95.2z M67,65.7c0.3-5.4,5.5-10.4,10.9-10.5c0.9,0,0.7,0.6,0.6,1c-0.5,4.1-2.5,7.2-6.1,9.2
		c-1.4,0.7-2.8,1.2-4.5,1.3C67,67,66.9,66.4,67,65.7z M59.9,66.7c-4.8-0.4-9.8-4.3-10.4-10.7c-0.1-0.6,0.1-0.9,0.8-0.8
		c5.5,0.5,10,4.7,10.7,10.1C61.2,66.7,61.1,66.8,59.9,66.7z"/>
</g>
</svg>
