<?xml version="1.0" encoding="utf-8"?>
<!-- Generator: Adobe Illustrator 28.0.0, SVG Export Plug-In . SVG Version: 6.00 Build 0)  -->
<svg version="1.1" id="Layer_1" xmlns="http://www.w3.org/2000/svg" xmlns:xlink="http://www.w3.org/1999/xlink" x="0px" y="0px"
	 viewBox="0 0 128 128" style="enable-background:new 0 0 128 128;" xml:space="preserve">
<g>
	<g id="ZfFmzC.tif">
		<g>
			<path d="M10.7,66.2c-1.2,0-2.2-1.1-2.2-2.3c0-1.1,1.1-2.1,2.2-2.1c1.2,0,2.1,1,2.1,2.2C12.8,65.2,11.9,66.2,10.7,66.2z"/>
			<path d="M11.7,76.5c-1.2,0-2.1-0.9-2.2-2.1c0-1.2,1-2.2,2.2-2.2c1.2,0,2.1,1,2.1,2.2C13.8,75.7,12.9,76.5,11.7,76.5z"/>
			<path d="M9.6,53.5c0.1-1.2,1-2.1,2.2-2c1.2,0,2.1,1,2.1,2.2c0,1.2-1,2.1-2.2,2.1C10.5,55.8,9.5,54.7,9.6,53.5z"/>
			<path d="M16.9,84.4c0,1.1-0.9,2.1-2.1,2.2c-1.2,0-2.3-0.9-2.3-2.1c0-1.1,1-2.1,2.2-2.1C15.9,82.2,16.9,83.2,16.9,84.4z"/>
			<path d="M16.9,43.6c0,1.1-1,2.1-2.2,2.1c-1.2,0-2.2-1.1-2.2-2.2c0.1-1.2,1.1-2.1,2.2-2C16,41.5,17,42.5,16.9,43.6z"/>
			<path d="M21.8,93.6c0,1.2-0.8,2.1-2.1,2.2c-1.2,0-2.2-0.8-2.2-2c0-1.2,0.9-2.2,2.2-2.2C20.9,91.5,21.8,92.4,21.8,93.6z"/>
			<path d="M28.5,101.8c0,1.1-1.1,2.1-2.2,2.1c-1.2,0-2.2-1.1-2.1-2.3c0.1-1.2,1.1-2.1,2.2-2.1C27.6,99.6,28.5,100.6,28.5,101.8z"/>
			<path d="M32.3,19.7c0-1.3,0.9-2.2,2.2-2.2c1.2,0,2.1,1,2.1,2.2c0,1.2-0.9,2.1-2.1,2.1C33.2,21.8,32.3,20.9,32.3,19.7z"/>
			<path d="M36.5,108.3c0,1.3-0.9,2.2-2.2,2.2c-1.2,0-2.1-0.9-2.1-2.2c0-1.2,0.9-2.1,2.1-2.1C35.6,106.2,36.5,107.1,36.5,108.3z"/>
			<path d="M41.5,14.7c0-1.2,1-2.2,2.1-2.2c1.1,0,2.1,1,2.2,2.1c0,1.2-1,2.3-2.2,2.2C42.4,16.9,41.5,15.9,41.5,14.7z"/>
			<path d="M45.8,113.2c0.1,1.2-1,2.3-2.1,2.3c-1.1,0-2.1-1-2.1-2.1c0-1.2,0.9-2.2,2.1-2.2C44.7,111.1,45.7,112,45.8,113.2z"/>
			<path d="M55.8,116.2c0,1.2-0.9,2.2-2.1,2.2c-1.2,0-2.2-1-2.2-2.2c0-1.2,1-2.1,2.2-2.1C54.8,114.1,55.8,115.1,55.8,116.2z"/>
			<path d="M51.5,11.7c0-1.2,1-2.1,2.1-2.1c1.1,0,2.1,1,2.1,2.2c0,1.2-1,2.2-2.2,2.1C52.3,13.8,51.5,12.9,51.5,11.7z"/>
			<path d="M66.2,117.3c0,1.1-1,2.2-2.1,2.2c-1.2,0-2.3-1-2.3-2.2c0-1.1,1-2.1,2.2-2.1C65.2,115.2,66.2,116.1,66.2,117.3z"/>
			<path d="M61.8,10.7c0-1.1,1-2.1,2.2-2.1c1.1,0,2.2,1,2.2,2.1c0,1.1-1,2.1-2.1,2.2C62.9,12.9,61.8,11.9,61.8,10.7z"/>
			<path d="M76.5,116.3c0,1.2-0.9,2.1-2.1,2.2c-1.2,0-2.2-1-2.2-2.2c0-1.2,1-2.1,2.2-2.1C75.7,114.2,76.6,115.1,76.5,116.3z"/>
			<path d="M72.3,11.7c0-1.1,1-2.1,2.2-2.1c1.2,0,2.2,1,2.1,2.3c0,1.2-1,2.1-2.2,2C73.2,13.8,72.2,12.9,72.3,11.7z"/>
			<path d="M82.3,14.8c0-1.2,1-2.3,2.2-2.2c1.2,0,2.1,1,2.1,2.2c0,1.2-1,2.2-2.1,2.2C83.3,16.9,82.3,16,82.3,14.8z"/>
			<path d="M86.5,113.2c0,1.2-0.9,2.2-2.1,2.2c-1.2,0-2.2-1-2.2-2.2c0-1.2,1-2.1,2.1-2.2C85.6,111.1,86.5,112.1,86.5,113.2z"/>
			<path d="M91.5,19.7c0-1.2,0.9-2.1,2.1-2.2c1.2,0,2.2,0.9,2.2,2.2c0,1.2-0.9,2.1-2.1,2.1C92.4,21.8,91.5,20.9,91.5,19.7z"/>
			<path d="M95.8,108.4c0,1.2-0.9,2.1-2.1,2.1c-1.2,0-2.1-0.9-2.1-2.1c0-1.3,0.9-2.2,2.2-2.1C94.9,106.3,95.8,107.2,95.8,108.4z"/>
			<path d="M98.5,45.2c-0.7-3.9-2.1-7.4-6.2-9.1c1.9-3.8,2.1-7.7,0.7-11.7c-0.6-1.6-1.7-2.1-3.2-1.4c-1.9,0.8-3.7,1.9-5.2,3.4
				c-0.5,0.5-0.8,0.5-1.4,0c-5.9-4.7-12.6-7.1-20.1-7.2c-5.6,0-10.8,1.5-15.7,4c-7,3.6-11.6,9.2-13.6,16.9c-0.2,0.8-0.1,1.8-0.7,2.5
				c-1.7,2.2-2.1,4.8-1.6,7.4c0.1,0.7-0.1,0.7-0.6,0.7c-1.6,0.1-3.2,0.2-4.7,0.3c-1.8,0.1-2.7,0.9-2.6,2.3c0.1,1.4,1.1,2.2,2.8,2.1
				c1.8-0.1,3.7-0.3,5.5-0.4c0.4,0,0.8-0.2,1,0.3c0.4,1.1,1,2.1,1.2,3.2c1.1,5.2,2.6,10.4,4.2,15.5c0.8,2.5,1.3,5.1,1,7.8
				c-0.5,3.5-1.9,6.7-3.4,9.8c-0.8,1.7-1.6,3.2-3.7,3.6c-0.2,0-0.4,0.2-0.7,0.4c-1.3,0.7-1.7,1.8-1.1,2.9c0.6,1.1,1.8,1.5,3.1,0.9
				c0.9-0.4,1.7-0.8,2.7-1c4.6-1.2,9.1-0.5,13.5,0.9c7,2.2,13.2,5.9,19.2,10.1c1,0.7,2,1.1,3.1,0.2c1-0.8,0.9-1.8,0.5-2.9
				c-1.3-4-1.9-8.1-1.3-12.3c0.1-0.6,0.2-0.7,0.8-0.6c2.4,0.7,4.8,1.3,7.2,1.9c1.2,0.3,2.5,0.4,3.7,0c2.8-0.9,4.5-3.2,4.6-6.3
				c0.1-1.7,0.1-3.5,1.6-4.8c2-1.7,2.5-3.3,1.5-5.7c-0.2-0.5-0.2-0.7,0.2-1.1c1.1-1,1.6-2.3,1.2-3.7c-0.4-1.2,0.1-1.4,1-1.5
				c0.2,0,0.3-0.1,0.5-0.2c3.6-1,4.7-3.8,2.8-7c-1.1-1.9-2.4-3.8-3.4-5.8c-1.2-2.6-1.4-5.1,0-7.9c1.1-2.3,2.5-3.7,4.7-4.7
				C98.2,46.9,98.7,46.1,98.5,45.2z M89.5,28c0.5,3.4-0.4,6.1-3.1,8.1c-0.2,0.2-0.5,0.5-0.9,0.3c-0.3-0.2-0.2-0.5-0.2-0.8
				C85,32.2,86.6,29.9,89.5,28z M48.1,27.8c5.6-3.2,11.6-4.8,18.1-4c5.5,0.7,10.5,2.8,14.7,6.4c0.4,0.4,0.6,0.7,0.4,1.3
				c-0.6,2.1-0.6,4.2-0.2,6.3c0.1,0.6,0,0.9-0.6,1.1c-0.9,0.3-1.7,0.7-2.6,1.1c0.3-2,0.5-3.9,0-5.8c-0.2-1.1-0.6-2.2-1.1-3.2
				c-0.4-0.9-1.2-1.2-2.2-1c-5.2,1-9.2,5.2-9.9,10.3c-0.2,1.2,0,2.4,0.3,3.6c0.1,0.5,0,0.6-0.5,0.7c-1,0.2-2,0.6-3.1,0.9
				c0.1-0.7,0.1-1.2,0.3-1.8c0.5-2.5-0.1-4.9-1-7.2c-0.5-1.1-1.3-1.4-2.3-1.2c-1.9,0.4-3.8,1-5.5,2c-3.5,2.1-5.4,6.1-4.5,10.1
				c0.2,0.9-0.1,1.2-0.8,1.3c-0.9,0.1-1.9,0.3-2.9,0.5c0.5-2.3,0.7-4.5,0.1-6.8c-0.1-0.3-0.1-0.6-0.2-0.8c-0.7-2.4-1.2-2.7-3.6-2.5
				c-0.8,0.1-1.5,0.3-2.4,0.4C40.3,34.4,43.5,30.5,48.1,27.8z M69.3,41.1c-0.1-2.9,1.5-4.6,3.8-5.9c0.5-0.3,0.7-0.3,0.8,0.4
				c0.6,2.8-1.1,6.1-3.8,7.2c-0.5,0.2-0.8,0.2-0.8-0.4C69.3,41.9,69.3,41.5,69.3,41.1z M77.9,50.3c0.3,0.7,0.2,1-0.6,1.2
				c-3.3,0.8-5.6-0.6-6.7-4.2C73.8,46.1,76.6,47.2,77.9,50.3z M61.7,56.3c-3.4,1.2-6.6-0.6-7.7-4.5C58.3,51.3,60.4,52.6,61.7,56.3z
				 M53.6,47.4c-0.6,0.2-0.8,0.1-1-0.6c-0.6-3,1.2-5.9,4.2-6.6c0.5-0.1,0.7,0,0.7,0.5c0,0.5,0.1,0.9,0.1,1.2
				C57.5,44.8,56.2,46.6,53.6,47.4z M35.6,49.4c-0.5-3.7,1.3-5.1,4.4-5.9c0.4-0.1,0.6,0.1,0.7,0.5c0.1,0.5,0.1,0.9,0.1,1.1
				c0,2.9-1.3,4.5-3.9,5C36.2,50.4,35.8,50.4,35.6,49.4z M37.6,55.9c-0.2-0.3-0.4-0.6-0.3-1c0.1-0.2,0.2-0.2,1.2-0.1
				c2.9,0.2,4.9,1.6,6.1,4.2c0.4,0.9,0.1,1.1-0.7,1C40.9,59.8,38.9,58.4,37.6,55.9z M92.6,68.2c-1.7,0.4-3.4,0.9-5,1.3
				c-1,0.2-1.9,0.6-2.2,1.7c-0.3,1.1,0.3,1.9,1.1,2.6c0.3,0.3,0.7,0.5,0.9,1.1c-1.5,0.4-3,0.7-4.4,1.1c-1.3,0.4-2.1,1.4-1.9,2.5
				c0.3,1.2,1.3,1.9,2.8,1.7c0.5-0.1,0.9-0.2,1.3-0.3c0.4-0.1,0.7-0.3,0.9,0.3c0.1,0.4,0.6,0.8-0.1,1.3c-2.1,1.7-2.8,4-2.9,6.5
				c-0.2,3.4-0.9,4.3-4.5,3.2C73.4,89.8,68.2,88.5,63,87c-3-0.9-4.1-2.8-3.3-5.9c0.3-1.2-0.3-2.4-1.3-2.8c-1.2-0.4-2.4,0.2-2.8,1.5
				c-1.6,4.3,0.8,9.3,5.2,10.9c1.7,0.6,3.5,1.1,5.2,1.6c0.4,0.1,0.9,0.1,0.8,0.8c-0.6,3.2-0.5,6.4,0,9.8c-8.4-5.1-17-9.4-27.1-9.5
				c1.2-2.5,2.3-5,3-7.5c1.3-4.6,1-9.1-0.6-13.6c-1-2.9-1.8-5.8-2.5-8.9c1.6,0.3,3.1,0.7,4.6,0.8c0.6,0,0.3,0.6,0.3,0.9
				c0,2.1-0.1,4.2,0.5,6.2c1,3.1,3.4,4.9,6.2,4.7c1.2-0.1,2-0.9,2.1-2c0-1.1-0.7-2.2-1.9-2.2c-1.6,0-2.2-1.1-2.4-2.3
				c-0.4-2.4-0.5-4.9,0.6-7.2c0.2-0.5,0.1-1.1,0-1.6c-0.5-2.5-1.6-4.7-3.2-6.7c-0.2-0.2-0.3-0.4-0.4-0.6c0.1-0.1,0.2-0.1,0.3-0.2
				c1.1-0.2,2.3-0.7,3.1-0.4c0.8,0.3,0.8,1.7,1.3,2.6c3.5,6.3,9.8,6.4,14.6,4.3c1.2-0.6,1.2-1.7,1-2.8c-0.5-2.2-1.4-4.3-2.8-6
				c-0.3-0.4-0.6-0.8-1-1.3c1.1-0.3,2.1-0.6,3.1-0.9c0.8-0.3,0.8,0.4,1,0.8c1.3,3.1,3.3,5.7,6.8,6.3c2.9,0.6,5.8-0.1,8.4-1.6
				c1.1-0.6,1-1.7,0.8-2.8c-0.5-2.4-1.5-4.5-3.1-6.3c-0.2-0.3-0.5-0.5-0.8-0.8c0.2-0.1,0.3-0.2,0.4-0.3c1-0.4,2.1-1.2,3-1.1
				c1,0.1,0.9,1.7,1.5,2.5c1.3,1.9,2.9,3.4,5.4,3.9C88,51,86.6,51.9,85,52.5c-0.8,0.3-1.4,0.7-1.7,1.5c-0.5,1.6,0.9,3.1,2.6,2.8
				c0.5-0.1,1-0.3,1.6-0.5c-0.1,2.3,0.6,4.4,1.8,6.3C90.4,64.4,91.4,66.3,92.6,68.2z M93.3,44.6c-3.4,1.3-5.4,0.5-6.7-3
				c-0.2-0.5,0.1-0.6,0.4-0.8c0.9-0.3,1.7-0.6,2.6-0.5c2,0,3.9,1.7,4.1,3.6C93.8,44.2,93.7,44.4,93.3,44.6z"/>
			<path d="M103.9,26.3c0,1.1-1,2.2-2.1,2.2c-1.2,0-2.3-1-2.2-2.2c0-1.1,1-2.1,2.2-2.1C102.9,24.2,103.9,25.1,103.9,26.3z"/>
			<path d="M101.8,99.5c1.1,0,2.1,1,2.1,2.2c0,1.2-1,2.1-2.1,2.2c-1.1,0-2.2-1-2.2-2.1C99.5,100.6,100.6,99.5,101.8,99.5z"/>
			<path d="M110.5,34.4c0,1.2-0.9,2.1-2.2,2.1c-1.3,0-2.2-0.9-2.1-2.2c0-1.2,0.9-2.1,2.2-2C109.6,32.3,110.5,33.2,110.5,34.4z"/>
			<path d="M113.3,45.8c-1.2,0-2.2-1-2.2-2.2c0-1.2,1-2.1,2.2-2.1c1.2,0,2.2,1,2.2,2.1C115.5,44.7,114.5,45.7,113.3,45.8z"/>
			<path d="M116.2,51.5c1.3,0,2.3,0.9,2.3,2.1c0,1.1-1,2.1-2.1,2.1c-1.2,0-2.1-0.9-2.2-2.1C114.1,52.5,115,51.5,116.2,51.5z"/>
			<path d="M118.5,74.4c0,1.2-0.9,2.1-2.1,2.2c-1.2,0-2.2-0.8-2.2-2c-0.1-1.2,0.9-2.3,2.1-2.3C117.4,72.3,118.4,73.2,118.5,74.4z"/>
			<path d="M119.5,63.9c0.1,1.2-1,2.3-2.1,2.3c-1.1,0-2.1-0.9-2.1-2c-0.1-1.2,0.9-2.3,2.1-2.3C118.4,61.8,119.4,62.8,119.5,63.9z"/>
			<path d="M128,59c-0.3-2.9-0.5-5.8-1.1-8.6c-2.7-12.3-8.6-22.9-17.4-31.9c-3.4-3.5-7.2-6.4-11.3-9c-7-4.4-14.6-7.3-22.7-8.8
				c-2.3-0.4-4.7-0.4-7-0.7H67c-0.6,0.2-1.2,0.2-1.7,0h-4.7c-0.2,0.2-0.3,0.2-0.5,0h-1.3c-1.2,0.5-2.4,0.4-3.6,0.6
				C45,2.1,35.7,5.7,27.2,11.6c-4.3,3-8.1,6.5-11.5,10.4c-1,1.2-1.3,2.2-0.4,3c2.6,2.3,4.6,5.7,8.9,4.9c0,0,0.1,0.1,0.2,0.1
				c-0.9,1.4-2,2-3.8,2c-3.3-0.2-6.7,0-10-0.1c-1.5,0-2.4,0.5-3,1.8C0.5,47.4-1.7,61.7,1.3,76.7c2.5,12.5,8.1,23.4,17.2,32.3
				c16.2,15.8,35.6,21.9,57.9,17.8c13.4-2.4,24.6-8.9,34.1-18.6c1.9-2,3.1-4,2.7-6.8c-0.1-0.7-0.1-1.4,0-2.1
				c0.4-2.9-0.4-5.2-2.8-6.9c-0.9-0.7-1.6-1.6-2.6-2.6c1.3,0,2.3,0.1,3.2,0c1-0.1,1.6,0.3,2.3,1c1.2,1.3,2.4,2.5,3.7,3.7
				c1.4,1.4,2.9,1.2,3.8-0.5c3.3-6.3,5.5-12.9,6.6-20c0.3-1.6,0.2-3.3,0.7-4.8v-2.2c-0.2-0.5-0.2-1,0-1.5V62c-0.2-0.5-0.2-1,0-1.5
				V59z M123.3,70.7c-0.7,6.1-2.3,12-4.8,17.7c-0.3,0.7-0.6,1.2-1.2,0.3c-2-2.9-4.8-3.8-8.2-3.4c-2,0.2-4,0.1-6,0
				c-1.2,0-2.2,0.2-2.7,1.4c-0.5,1.1,0.1,2,0.9,2.8c2.3,2.3,4.6,4.6,6.9,6.9c0.4,0.4,0.6,0.8,0.6,1.4c0,1.1-0.1,2.2,0,3.2
				c0.2,1.9-0.5,3.2-1.8,4.5c-9.4,9.5-20.6,15.4-33.8,17.5c-30.6,4.8-59.8-14.7-67.1-44.6c-3.5-14.2-1.9-28,4.6-41.2
				c0.3-0.7,0.7-0.9,1.4-0.8c3.6,0,7.2,0,10.9,0c0.9,0,1.7-0.2,2.3-0.9c1.9-2,3.9-3.9,5.8-5.8c0.8-0.7,1.1-1.6,0.7-2.6
				c-0.4-1.1-1.3-1.4-2.4-1.4c-1.7,0-3.4-0.2-5.1,0c-1.9,0.2-3.1-0.6-4.3-2c9.2-9.8,20.4-16.1,33.7-18.3c28.5-4.8,55.5,10.5,66,37.5
				C123.2,51.8,124.4,61.1,123.3,70.7z"/>
			<path d="M67,0c-0.6,0.4-1.2,0.4-1.7,0C65.9,0,66.4,0,67,0z"/>
			<path d="M128,62c-0.4-0.5-0.4-1,0-1.5C128,61,128,61.5,128,62z"/>
			<path d="M128,66.8c-0.4-0.5-0.4-1,0-1.5C128,65.8,128,66.3,128,66.8z"/>
			<path d="M60.5,0c-0.2,0.3-0.3,0.3-0.5,0C60.2,0,60.4,0,60.5,0z"/>
			<path d="M10.7,66.2c-1.2,0-2.2-1.1-2.2-2.3c0-1.1,1.1-2.1,2.2-2.1c1.2,0,2.1,1,2.1,2.2C12.8,65.2,11.9,66.2,10.7,66.2z"/>
			<path d="M11.7,76.5c-1.2,0-2.1-0.9-2.2-2.1c0-1.2,1-2.2,2.2-2.2c1.2,0,2.1,1,2.1,2.2C13.8,75.7,12.9,76.5,11.7,76.5z"/>
			<path d="M9.6,53.5c0.1-1.2,1-2.1,2.2-2c1.2,0,2.1,1,2.1,2.2c0,1.2-1,2.1-2.2,2.1C10.5,55.8,9.5,54.7,9.6,53.5z"/>
			<path d="M16.9,84.4c0,1.1-0.9,2.1-2.1,2.2c-1.2,0-2.3-0.9-2.3-2.1c0-1.1,1-2.1,2.2-2.1C15.9,82.2,16.9,83.2,16.9,84.4z"/>
			<path d="M16.9,43.6c0,1.1-1,2.1-2.2,2.1c-1.2,0-2.2-1.1-2.2-2.2c0.1-1.2,1.1-2.1,2.2-2C16,41.5,17,42.5,16.9,43.6z"/>
			<path d="M21.8,93.6c0,1.2-0.8,2.1-2.1,2.2c-1.2,0-2.2-0.8-2.2-2c0-1.2,0.9-2.2,2.2-2.2C20.9,91.5,21.8,92.4,21.8,93.6z"/>
			<path d="M28.5,101.8c0,1.1-1.1,2.1-2.2,2.1c-1.2,0-2.2-1.1-2.1-2.3c0.1-1.2,1.1-2.1,2.2-2.1C27.6,99.6,28.5,100.6,28.5,101.8z"/>
			<path d="M32.3,19.7c0-1.3,0.9-2.2,2.2-2.2c1.2,0,2.1,1,2.1,2.2c0,1.2-0.9,2.1-2.1,2.1C33.2,21.8,32.3,20.9,32.3,19.7z"/>
			<path d="M36.5,108.3c0,1.3-0.9,2.2-2.2,2.2c-1.2,0-2.1-0.9-2.1-2.2c0-1.2,0.9-2.1,2.1-2.1C35.6,106.2,36.5,107.1,36.5,108.3z"/>
			<path d="M41.5,14.7c0-1.2,1-2.2,2.1-2.2c1.1,0,2.1,1,2.2,2.1c0,1.2-1,2.3-2.2,2.2C42.4,16.9,41.5,15.9,41.5,14.7z"/>
			<path d="M45.8,113.2c0.1,1.2-1,2.3-2.1,2.3c-1.1,0-2.1-1-2.1-2.1c0-1.2,0.9-2.2,2.1-2.2C44.7,111.1,45.7,112,45.8,113.2z"/>
			<path d="M55.8,116.2c0,1.2-0.9,2.2-2.1,2.2c-1.2,0-2.2-1-2.2-2.2c0-1.2,1-2.1,2.2-2.1C54.8,114.1,55.8,115.1,55.8,116.2z"/>
			<path d="M51.5,11.7c0-1.2,1-2.1,2.1-2.1c1.1,0,2.1,1,2.1,2.2c0,1.2-1,2.2-2.2,2.1C52.3,13.8,51.5,12.9,51.5,11.7z"/>
			<path d="M66.2,117.3c0,1.1-1,2.2-2.1,2.2c-1.2,0-2.3-1-2.3-2.2c0-1.1,1-2.1,2.2-2.1C65.2,115.2,66.2,116.1,66.2,117.3z"/>
			<path d="M61.8,10.7c0-1.1,1-2.1,2.2-2.1c1.1,0,2.2,1,2.2,2.1c0,1.1-1,2.1-2.1,2.2C62.9,12.9,61.8,11.9,61.8,10.7z"/>
			<path d="M76.5,116.3c0,1.2-0.9,2.1-2.1,2.2c-1.2,0-2.2-1-2.2-2.2c0-1.2,1-2.1,2.2-2.1C75.7,114.2,76.6,115.1,76.5,116.3z"/>
			<path d="M72.3,11.7c0-1.1,1-2.1,2.2-2.1c1.2,0,2.2,1,2.1,2.3c0,1.2-1,2.1-2.2,2C73.2,13.8,72.2,12.9,72.3,11.7z"/>
			<path d="M82.3,14.8c0-1.2,1-2.3,2.2-2.2c1.2,0,2.1,1,2.1,2.2c0,1.2-1,2.2-2.1,2.2C83.3,16.9,82.3,16,82.3,14.8z"/>
			<path d="M86.5,113.2c0,1.2-0.9,2.2-2.1,2.2c-1.2,0-2.2-1-2.2-2.2c0-1.2,1-2.1,2.1-2.2C85.6,111.1,86.5,112.1,86.5,113.2z"/>
			<path d="M91.5,19.7c0-1.2,0.9-2.1,2.1-2.2c1.2,0,2.2,0.9,2.2,2.2c0,1.2-0.9,2.1-2.1,2.1C92.4,21.8,91.5,20.9,91.5,19.7z"/>
			<path d="M95.8,108.4c0,1.2-0.9,2.1-2.1,2.1c-1.2,0-2.1-0.9-2.1-2.1c0-1.3,0.9-2.2,2.2-2.1C94.9,106.3,95.8,107.2,95.8,108.4z"/>
			<path d="M98.5,45.2c-0.7-3.9-2.1-7.4-6.2-9.1c1.9-3.8,2.1-7.7,0.7-11.7c-0.6-1.6-1.7-2.1-3.2-1.4c-1.9,0.8-3.7,1.9-5.2,3.4
				c-0.5,0.5-0.8,0.5-1.4,0c-5.9-4.7-12.6-7.1-20.1-7.2c-5.6,0-10.8,1.5-15.7,4c-7,3.6-11.6,9.2-13.6,16.9c-0.2,0.8-0.1,1.8-0.7,2.5
				c-1.7,2.2-2.1,4.8-1.6,7.4c0.1,0.7-0.1,0.7-0.6,0.7c-1.6,0.1-3.2,0.2-4.7,0.3c-1.8,0.1-2.7,0.9-2.6,2.3c0.1,1.4,1.1,2.2,2.8,2.1
				c1.8-0.1,3.7-0.3,5.5-0.4c0.4,0,0.8-0.2,1,0.3c0.4,1.1,1,2.1,1.2,3.2c1.1,5.2,2.6,10.4,4.2,15.5c0.8,2.5,1.3,5.1,1,7.8
				c-0.5,3.5-1.9,6.7-3.4,9.8c-0.8,1.7-1.6,3.2-3.7,3.6c-0.2,0-0.4,0.2-0.7,0.4c-1.3,0.7-1.7,1.8-1.1,2.9c0.6,1.1,1.8,1.5,3.1,0.9
				c0.9-0.4,1.7-0.8,2.7-1c4.6-1.2,9.1-0.5,13.5,0.9c7,2.2,13.2,5.9,19.2,10.1c1,0.7,2,1.1,3.1,0.2c1-0.8,0.9-1.8,0.5-2.9
				c-1.3-4-1.9-8.1-1.3-12.3c0.1-0.6,0.2-0.7,0.8-0.6c2.4,0.7,4.8,1.3,7.2,1.9c1.2,0.3,2.5,0.4,3.7,0c2.8-0.9,4.5-3.2,4.6-6.3
				c0.1-1.7,0.1-3.5,1.6-4.8c2-1.7,2.5-3.3,1.5-5.7c-0.2-0.5-0.2-0.7,0.2-1.1c1.1-1,1.6-2.3,1.2-3.7c-0.4-1.2,0.1-1.4,1-1.5
				c0.2,0,0.3-0.1,0.5-0.2c3.6-1,4.7-3.8,2.8-7c-1.1-1.9-2.4-3.8-3.4-5.8c-1.2-2.6-1.4-5.1,0-7.9c1.1-2.3,2.5-3.7,4.7-4.7
				C98.2,46.9,98.7,46.1,98.5,45.2z M89.5,28c0.5,3.4-0.4,6.1-3.1,8.1c-0.2,0.2-0.5,0.5-0.9,0.3c-0.3-0.2-0.2-0.5-0.2-0.8
				C85,32.2,86.6,29.9,89.5,28z M48.1,27.8c5.6-3.2,11.6-4.8,18.1-4c5.5,0.7,10.5,2.8,14.7,6.4c0.4,0.4,0.6,0.7,0.4,1.3
				c-0.6,2.1-0.6,4.2-0.2,6.3c0.1,0.6,0,0.9-0.6,1.1c-0.9,0.3-1.7,0.7-2.6,1.1c0.3-2,0.5-3.9,0-5.8c-0.2-1.1-0.6-2.2-1.1-3.2
				c-0.4-0.9-1.2-1.2-2.2-1c-5.2,1-9.2,5.2-9.9,10.3c-0.2,1.2,0,2.4,0.3,3.6c0.1,0.5,0,0.6-0.5,0.7c-1,0.2-2,0.6-3.1,0.9
				c0.1-0.7,0.1-1.2,0.3-1.8c0.5-2.5-0.1-4.9-1-7.2c-0.5-1.1-1.3-1.4-2.3-1.2c-1.9,0.4-3.8,1-5.5,2c-3.5,2.1-5.4,6.1-4.5,10.1
				c0.2,0.9-0.1,1.2-0.8,1.3c-0.9,0.1-1.9,0.3-2.9,0.5c0.5-2.3,0.7-4.5,0.1-6.8c-0.1-0.3-0.1-0.6-0.2-0.8c-0.7-2.4-1.2-2.7-3.6-2.5
				c-0.8,0.1-1.5,0.3-2.4,0.4C40.3,34.4,43.5,30.5,48.1,27.8z M69.3,41.1c-0.1-2.9,1.5-4.6,3.8-5.9c0.5-0.3,0.7-0.3,0.8,0.4
				c0.6,2.8-1.1,6.1-3.8,7.2c-0.5,0.2-0.8,0.2-0.8-0.4C69.3,41.9,69.3,41.5,69.3,41.1z M77.9,50.3c0.3,0.7,0.2,1-0.6,1.2
				c-3.3,0.8-5.6-0.6-6.7-4.2C73.8,46.1,76.6,47.2,77.9,50.3z M61.7,56.3c-3.4,1.2-6.6-0.6-7.7-4.5C58.3,51.3,60.4,52.6,61.7,56.3z
				 M53.6,47.4c-0.6,0.2-0.8,0.1-1-0.6c-0.6-3,1.2-5.9,4.2-6.6c0.5-0.1,0.7,0,0.7,0.5c0,0.5,0.1,0.9,0.1,1.2
				C57.5,44.8,56.2,46.6,53.6,47.4z M35.6,49.4c-0.5-3.7,1.3-5.1,4.4-5.9c0.4-0.1,0.6,0.1,0.7,0.5c0.1,0.5,0.1,0.9,0.1,1.1
				c0,2.9-1.3,4.5-3.9,5C36.2,50.4,35.8,50.4,35.6,49.4z M37.6,55.9c-0.2-0.3-0.4-0.6-0.3-1c0.1-0.2,0.2-0.2,1.2-0.1
				c2.9,0.2,4.9,1.6,6.1,4.2c0.4,0.9,0.1,1.1-0.7,1C40.9,59.8,38.9,58.4,37.6,55.9z M92.6,68.2c-1.7,0.4-3.4,0.9-5,1.3
				c-1,0.2-1.9,0.6-2.2,1.7c-0.3,1.1,0.3,1.9,1.1,2.6c0.3,0.3,0.7,0.5,0.9,1.1c-1.5,0.4-3,0.7-4.4,1.1c-1.3,0.4-2.1,1.4-1.9,2.5
				c0.3,1.2,1.3,1.9,2.8,1.7c0.5-0.1,0.9-0.2,1.3-0.3c0.4-0.1,0.7-0.3,0.9,0.3c0.1,0.4,0.6,0.8-0.1,1.3c-2.1,1.7-2.8,4-2.9,6.5
				c-0.2,3.4-0.9,4.3-4.5,3.2C73.4,89.8,68.2,88.5,63,87c-3-0.9-4.1-2.8-3.3-5.9c0.3-1.2-0.3-2.4-1.3-2.8c-1.2-0.4-2.4,0.2-2.8,1.5
				c-1.6,4.3,0.8,9.3,5.2,10.9c1.7,0.6,3.5,1.1,5.2,1.6c0.4,0.1,0.9,0.1,0.8,0.8c-0.6,3.2-0.5,6.4,0,9.8c-8.4-5.1-17-9.4-27.1-9.5
				c1.2-2.5,2.3-5,3-7.5c1.3-4.6,1-9.1-0.6-13.6c-1-2.9-1.8-5.8-2.5-8.9c1.6,0.3,3.1,0.7,4.6,0.8c0.6,0,0.3,0.6,0.3,0.9
				c0,2.1-0.1,4.2,0.5,6.2c1,3.1,3.4,4.9,6.2,4.7c1.2-0.1,2-0.9,2.1-2c0-1.1-0.7-2.2-1.9-2.2c-1.6,0-2.2-1.1-2.4-2.3
				c-0.4-2.4-0.5-4.9,0.6-7.2c0.2-0.5,0.1-1.1,0-1.6c-0.5-2.5-1.6-4.7-3.2-6.7c-0.2-0.2-0.3-0.4-0.4-0.6c0.1-0.1,0.2-0.1,0.3-0.2
				c1.1-0.2,2.3-0.7,3.1-0.4c0.8,0.3,0.8,1.7,1.3,2.6c3.5,6.3,9.8,6.4,14.6,4.3c1.2-0.6,1.2-1.7,1-2.8c-0.5-2.2-1.4-4.3-2.8-6
				c-0.3-0.4-0.6-0.8-1-1.3c1.1-0.3,2.1-0.6,3.1-0.9c0.8-0.3,0.8,0.4,1,0.8c1.3,3.1,3.3,5.7,6.8,6.3c2.9,0.6,5.8-0.1,8.4-1.6
				c1.1-0.6,1-1.7,0.8-2.8c-0.5-2.4-1.5-4.5-3.1-6.3c-0.2-0.3-0.5-0.5-0.8-0.8c0.2-0.1,0.3-0.2,0.4-0.3c1-0.4,2.1-1.2,3-1.1
				c1,0.1,0.9,1.7,1.5,2.5c1.3,1.9,2.9,3.4,5.4,3.9C88,51,86.6,51.9,85,52.5c-0.8,0.3-1.4,0.7-1.7,1.5c-0.5,1.6,0.9,3.1,2.6,2.8
				c0.5-0.1,1-0.3,1.6-0.5c-0.1,2.3,0.6,4.4,1.8,6.3C90.4,64.4,91.4,66.3,92.6,68.2z M93.3,44.6c-3.4,1.3-5.4,0.5-6.7-3
				c-0.2-0.5,0.1-0.6,0.4-0.8c0.9-0.3,1.7-0.6,2.6-0.5c2,0,3.9,1.7,4.1,3.6C93.8,44.2,93.7,44.4,93.3,44.6z"/>
			<path d="M99.5,26.3c0-1.1,1-2.1,2.2-2.1c1.2,0,2.2,1,2.2,2.1c0,1.1-1,2.2-2.1,2.2C100.6,28.5,99.5,27.5,99.5,26.3z"/>
			<path d="M103.9,101.7c0,1.2-1,2.1-2.1,2.2c-1.1,0-2.2-1-2.2-2.1c0-1.2,1-2.3,2.2-2.2C102.9,99.6,103.9,100.6,103.9,101.7z"/>
			<path d="M110.5,34.4c0,1.2-0.9,2.1-2.2,2.1c-1.3,0-2.2-0.9-2.1-2.2c0-1.2,0.9-2.1,2.2-2C109.6,32.3,110.5,33.2,110.5,34.4z"/>
			<path d="M113.3,45.8c-1.2,0-2.2-1-2.2-2.2c0-1.2,1-2.1,2.2-2.1c1.2,0,2.2,1,2.2,2.1C115.5,44.7,114.5,45.7,113.3,45.8z"/>
			<path d="M116.2,51.5c1.3,0,2.3,0.9,2.3,2.1c0,1.1-1,2.1-2.1,2.1c-1.2,0-2.1-0.9-2.2-2.1C114.1,52.5,115,51.5,116.2,51.5z"/>
			<path d="M118.5,74.4c0,1.2-0.9,2.1-2.1,2.2c-1.2,0-2.2-0.8-2.2-2c-0.1-1.2,0.9-2.3,2.1-2.3C117.4,72.3,118.4,73.2,118.5,74.4z"/>
			<path d="M119.5,63.9c0.1,1.2-1,2.3-2.1,2.3c-1.1,0-2.1-0.9-2.1-2c-0.1-1.2,0.9-2.3,2.1-2.3C118.4,61.8,119.4,62.8,119.5,63.9z"/>
			<path d="M98.5,45.2c-0.7-3.9-2.1-7.4-6.2-9.1c1.9-3.8,2.1-7.7,0.7-11.7c-0.6-1.6-1.7-2.1-3.2-1.4c-1.9,0.8-3.7,1.9-5.2,3.4
				c-0.5,0.5-0.8,0.5-1.4,0c-5.9-4.7-12.6-7.1-20.1-7.2c-5.6,0-10.8,1.5-15.7,4c-7,3.6-11.6,9.2-13.6,16.9c-0.2,0.8-0.1,1.8-0.7,2.5
				c-1.7,2.2-2.1,4.8-1.6,7.4c0.1,0.7-0.1,0.7-0.6,0.7c-1.6,0.1-3.2,0.2-4.7,0.3c-1.8,0.1-2.7,0.9-2.6,2.3c0.1,1.4,1.1,2.2,2.8,2.1
				c1.8-0.1,3.7-0.3,5.5-0.4c0.4,0,0.8-0.2,1,0.3c0.4,1.1,1,2.1,1.2,3.2c1.1,5.2,2.6,10.4,4.2,15.5c0.8,2.5,1.3,5.1,1,7.8
				c-0.5,3.5-1.9,6.7-3.4,9.8c-0.8,1.7-1.6,3.2-3.7,3.6c-0.2,0-0.4,0.2-0.7,0.4c-1.3,0.7-1.7,1.8-1.1,2.9c0.6,1.1,1.8,1.5,3.1,0.9
				c0.9-0.4,1.7-0.8,2.7-1c4.6-1.2,9.1-0.5,13.5,0.9c7,2.2,13.2,5.9,19.2,10.1c1,0.7,2,1.1,3.1,0.2c1-0.8,0.9-1.8,0.5-2.9
				c-1.3-4-1.9-8.1-1.3-12.3c0.1-0.6,0.2-0.7,0.8-0.6c2.4,0.7,4.8,1.3,7.2,1.9c1.2,0.3,2.5,0.4,3.7,0c2.8-0.9,4.5-3.2,4.6-6.3
				c0.1-1.7,0.1-3.5,1.6-4.8c2-1.7,2.5-3.3,1.5-5.7c-0.2-0.5-0.2-0.7,0.2-1.1c1.1-1,1.6-2.3,1.2-3.7c-0.4-1.2,0.1-1.4,1-1.5
				c0.2,0,0.3-0.1,0.5-0.2c3.6-1,4.7-3.8,2.8-7c-1.1-1.9-2.4-3.8-3.4-5.8c-1.2-2.6-1.4-5.1,0-7.9c1.1-2.3,2.5-3.7,4.7-4.7
				C98.2,46.9,98.7,46.1,98.5,45.2z M89.5,28c0.5,3.4-0.4,6.1-3.1,8.1c-0.2,0.2-0.5,0.5-0.9,0.3c-0.3-0.2-0.2-0.5-0.2-0.8
				C85,32.2,86.6,29.9,89.5,28z M48.1,27.8c5.6-3.2,11.6-4.8,18.1-4c5.5,0.7,10.5,2.8,14.7,6.4c0.4,0.4,0.6,0.7,0.4,1.3
				c-0.6,2.1-0.6,4.2-0.2,6.3c0.1,0.6,0,0.9-0.6,1.1c-0.9,0.3-1.7,0.7-2.6,1.1c0.3-2,0.5-3.9,0-5.8c-0.2-1.1-0.6-2.2-1.1-3.2
				c-0.4-0.9-1.2-1.2-2.2-1c-5.2,1-9.2,5.2-9.9,10.3c-0.2,1.2,0,2.4,0.3,3.6c0.1,0.5,0,0.6-0.5,0.7c-1,0.2-2,0.6-3.1,0.9
				c0.1-0.7,0.1-1.2,0.3-1.8c0.5-2.5-0.1-4.9-1-7.2c-0.5-1.1-1.3-1.4-2.3-1.2c-1.9,0.4-3.8,1-5.5,2c-3.5,2.1-5.4,6.1-4.5,10.1
				c0.2,0.9-0.1,1.2-0.8,1.3c-0.9,0.1-1.9,0.3-2.9,0.5c0.5-2.3,0.7-4.5,0.1-6.8c-0.1-0.3-0.1-0.6-0.2-0.8c-0.7-2.4-1.2-2.7-3.6-2.5
				c-0.8,0.1-1.5,0.3-2.4,0.4C40.3,34.4,43.5,30.5,48.1,27.8z M69.3,41.1c-0.1-2.9,1.5-4.6,3.8-5.9c0.5-0.3,0.7-0.3,0.8,0.4
				c0.6,2.8-1.1,6.1-3.8,7.2c-0.5,0.2-0.8,0.2-0.8-0.4C69.3,41.9,69.3,41.5,69.3,41.1z M77.9,50.3c0.3,0.7,0.2,1-0.6,1.2
				c-3.3,0.8-5.6-0.6-6.7-4.2C73.8,46.1,76.6,47.2,77.9,50.3z M61.7,56.3c-3.4,1.2-6.6-0.6-7.7-4.5C58.3,51.3,60.4,52.6,61.7,56.3z
				 M53.6,47.4c-0.6,0.2-0.8,0.1-1-0.6c-0.6-3,1.2-5.9,4.2-6.6c0.5-0.1,0.7,0,0.7,0.5c0,0.5,0.1,0.9,0.1,1.2
				C57.5,44.8,56.2,46.6,53.6,47.4z M35.6,49.4c-0.5-3.7,1.3-5.1,4.4-5.9c0.4-0.1,0.6,0.1,0.7,0.5c0.1,0.5,0.1,0.9,0.1,1.1
				c0,2.9-1.3,4.5-3.9,5C36.2,50.4,35.8,50.4,35.6,49.4z M37.6,55.9c-0.2-0.3-0.4-0.6-0.3-1c0.1-0.2,0.2-0.2,1.2-0.1
				c2.9,0.2,4.9,1.6,6.1,4.2c0.4,0.9,0.1,1.1-0.7,1C40.9,59.8,38.9,58.4,37.6,55.9z M92.6,68.2c-1.7,0.4-3.4,0.9-5,1.3
				c-1,0.2-1.9,0.6-2.2,1.7c-0.3,1.1,0.3,1.9,1.1,2.6c0.3,0.3,0.7,0.5,0.9,1.1c-1.5,0.4-3,0.7-4.4,1.1c-1.3,0.4-2.1,1.4-1.9,2.5
				c0.3,1.2,1.3,1.9,2.8,1.7c0.5-0.1,0.9-0.2,1.3-0.3c0.4-0.1,0.7-0.3,0.9,0.3c0.1,0.4,0.6,0.8-0.1,1.3c-2.1,1.7-2.8,4-2.9,6.5
				c-0.2,3.4-0.9,4.3-4.5,3.2C73.4,89.8,68.2,88.5,63,87c-3-0.9-4.1-2.8-3.3-5.9c0.3-1.2-0.3-2.4-1.3-2.8c-1.2-0.4-2.4,0.2-2.8,1.5
				c-1.6,4.3,0.8,9.3,5.2,10.9c1.7,0.6,3.5,1.1,5.2,1.6c0.4,0.1,0.9,0.1,0.8,0.8c-0.6,3.2-0.5,6.4,0,9.8c-8.4-5.1-17-9.4-27.1-9.5
				c1.2-2.5,2.3-5,3-7.5c1.3-4.6,1-9.1-0.6-13.6c-1-2.9-1.8-5.8-2.5-8.9c1.6,0.3,3.1,0.7,4.6,0.8c0.6,0,0.3,0.6,0.3,0.9
				c0,2.1-0.1,4.2,0.5,6.2c1,3.1,3.4,4.9,6.2,4.7c1.2-0.1,2-0.9,2.1-2c0-1.1-0.7-2.2-1.9-2.2c-1.6,0-2.2-1.1-2.4-2.3
				c-0.4-2.4-0.5-4.9,0.6-7.2c0.2-0.5,0.1-1.1,0-1.6c-0.5-2.5-1.6-4.7-3.2-6.7c-0.2-0.2-0.3-0.4-0.4-0.6c0.1-0.1,0.2-0.1,0.3-0.2
				c1.1-0.2,2.3-0.7,3.1-0.4c0.8,0.3,0.8,1.7,1.3,2.6c3.5,6.3,9.8,6.4,14.6,4.3c1.2-0.6,1.2-1.7,1-2.8c-0.5-2.2-1.4-4.3-2.8-6
				c-0.3-0.4-0.6-0.8-1-1.3c1.1-0.3,2.1-0.6,3.1-0.9c0.8-0.3,0.8,0.4,1,0.8c1.3,3.1,3.3,5.7,6.8,6.3c2.9,0.6,5.8-0.1,8.4-1.6
				c1.1-0.6,1-1.7,0.8-2.8c-0.5-2.4-1.5-4.5-3.1-6.3c-0.2-0.3-0.5-0.5-0.8-0.8c0.2-0.1,0.3-0.2,0.4-0.3c1-0.4,2.1-1.2,3-1.1
				c1,0.1,0.9,1.7,1.5,2.5c1.3,1.9,2.9,3.4,5.4,3.9C88,51,86.6,51.9,85,52.5c-0.8,0.3-1.4,0.7-1.7,1.5c-0.5,1.6,0.9,3.1,2.6,2.8
				c0.5-0.1,1-0.3,1.6-0.5c-0.1,2.3,0.6,4.4,1.8,6.3C90.4,64.4,91.4,66.3,92.6,68.2z M93.3,44.6c-3.4,1.3-5.4,0.5-6.7-3
				c-0.2-0.5,0.1-0.6,0.4-0.8c0.9-0.3,1.7-0.6,2.6-0.5c2,0,3.9,1.7,4.1,3.6C93.8,44.2,93.7,44.4,93.3,44.6z"/>
			<path d="M95.8,108.4c0,1.2-0.9,2.1-2.1,2.1c-1.2,0-2.1-0.9-2.1-2.1c0-1.3,0.9-2.2,2.2-2.1C94.9,106.3,95.8,107.2,95.8,108.4z"/>
			<path d="M36.5,108.3c0,1.3-0.9,2.2-2.2,2.2c-1.2,0-2.1-0.9-2.1-2.2c0-1.2,0.9-2.1,2.1-2.1C35.6,106.2,36.5,107.1,36.5,108.3z"/>
			<path d="M16.9,84.4c0,1.1-0.9,2.1-2.1,2.2c-1.2,0-2.3-0.9-2.3-2.1c0-1.1,1-2.1,2.2-2.1C15.9,82.2,16.9,83.2,16.9,84.4z"/>
			<path d="M45.8,14.7c0,1.2-1,2.3-2.2,2.2c-1.2,0-2.1-1-2.1-2.2c0-1.2,1-2.2,2.1-2.2C44.7,12.6,45.7,13.6,45.8,14.7z"/>
			<path d="M86.5,14.8c0,1.2-1,2.2-2.1,2.2c-1.1,0-2.1-1-2.2-2.1c0-1.2,1-2.3,2.2-2.2C85.6,12.6,86.6,13.6,86.5,14.8z"/>
			<path d="M110.5,34.4c0,1.2-0.9,2.1-2.2,2.1c-1.3,0-2.2-0.9-2.1-2.2c0-1.2,0.9-2.1,2.2-2C109.6,32.3,110.5,33.2,110.5,34.4z"/>
			<path d="M16.9,43.6c0,1.1-1,2.1-2.2,2.1c-1.2,0-2.2-1.1-2.2-2.2c0.1-1.2,1.1-2.1,2.2-2C16,41.5,17,42.5,16.9,43.6z"/>
			<path d="M66.2,117.3c0,1.1-1,2.2-2.1,2.2c-1.2,0-2.3-1-2.3-2.2c0-1.1,1-2.1,2.2-2.1C65.2,115.2,66.2,116.1,66.2,117.3z"/>
			<path d="M95.8,19.7c0,1.2-0.9,2.1-2.1,2.1c-1.2,0-2.1-0.9-2.1-2.1c0-1.2,0.9-2.1,2.1-2.2C94.8,17.5,95.8,18.5,95.8,19.7z"/>
			<path d="M12.8,64c0,1.2-1,2.2-2.1,2.2c-1.2,0-2.2-1.1-2.2-2.3c0-1.1,1.1-2.1,2.2-2.1C11.9,61.8,12.8,62.8,12.8,64z"/>
			<path d="M119.5,63.9c0.1,1.2-1,2.3-2.1,2.3c-1.1,0-2.1-0.9-2.1-2c-0.1-1.2,0.9-2.3,2.1-2.3C118.4,61.8,119.4,62.8,119.5,63.9z"/>
			<path d="M21.8,93.6c0,1.2-0.8,2.1-2.1,2.2c-1.2,0-2.2-0.8-2.2-2c0-1.2,0.9-2.2,2.2-2.2C20.9,91.5,21.8,92.4,21.8,93.6z"/>
			<path d="M66.2,10.7c0,1.1-1,2.1-2.1,2.2c-1.2,0-2.3-1-2.3-2.2c0-1.1,1-2.1,2.2-2.1C65.2,8.5,66.2,9.5,66.2,10.7z"/>
			<path d="M28.5,101.8c0,1.1-1.1,2.1-2.2,2.1c-1.2,0-2.2-1.1-2.1-2.3c0.1-1.2,1.1-2.1,2.2-2.1C27.6,99.6,28.5,100.6,28.5,101.8z"/>
			<path d="M45.8,113.2c0.1,1.2-1,2.3-2.1,2.3c-1.1,0-2.1-1-2.1-2.1c0-1.2,0.9-2.2,2.1-2.2C44.7,111.1,45.7,112,45.8,113.2z"/>
			<path d="M103.9,26.3c0,1.1-1,2.2-2.1,2.2c-1.2,0-2.3-1-2.2-2.2c0-1.1,1-2.1,2.2-2.1C102.9,24.2,103.9,25.1,103.9,26.3z"/>
			<path d="M36.5,19.7c0,1.2-0.9,2.1-2.1,2.1c-1.2,0-2.1-0.9-2.1-2.1c0-1.3,0.9-2.2,2.2-2.2C35.7,17.6,36.5,18.5,36.5,19.7z"/>
			<path d="M118.5,74.4c0,1.2-0.9,2.1-2.1,2.2c-1.2,0-2.2-0.8-2.2-2c-0.1-1.2,0.9-2.3,2.1-2.3C117.4,72.3,118.4,73.2,118.5,74.4z"/>
			<path d="M103.9,101.7c0,1.2-1,2.1-2.1,2.2c-1.1,0-2.2-1-2.2-2.1c0-1.2,1-2.3,2.2-2.2C102.9,99.6,103.9,100.6,103.9,101.7z"/>
			<path d="M86.5,113.2c0,1.2-0.9,2.2-2.1,2.2c-1.2,0-2.2-1-2.2-2.2c0-1.2,1-2.1,2.1-2.2C85.6,111.1,86.5,112.1,86.5,113.2z"/>
			<path d="M55.8,116.2c0,1.2-0.9,2.2-2.1,2.2c-1.2,0-2.2-1-2.2-2.2c0-1.2,1-2.1,2.2-2.1C54.8,114.1,55.8,115.1,55.8,116.2z"/>
			<path d="M115.5,43.6c0,1.1-1,2.1-2.1,2.2c-1.2,0-2.2-1-2.2-2.2c0-1.2,1-2.1,2.2-2.1C114.5,41.5,115.5,42.5,115.5,43.6z"/>
			<path d="M13.9,74.5c0,1.2-0.9,2.1-2.2,2.1c-1.2,0-2.1-0.9-2.2-2.1c0-1.2,1-2.2,2.2-2.2C13,72.3,13.9,73.3,13.9,74.5z"/>
			<path d="M76.6,11.8c0,1.2-1,2.1-2.2,2c-1.2,0-2.1-1-2.1-2.2c0-1.1,1-2.1,2.2-2.1C75.7,9.5,76.6,10.6,76.6,11.8z"/>
			<path d="M76.5,116.3c0,1.2-0.9,2.1-2.1,2.2c-1.2,0-2.2-1-2.2-2.2c0-1.2,1-2.1,2.2-2.1C75.7,114.2,76.6,115.1,76.5,116.3z"/>
			<path d="M13.9,53.6c0,1.2-1,2.1-2.2,2.1c-1.2,0-2.2-1-2.2-2.2c0.1-1.2,1-2.1,2.2-2C13,51.5,13.9,52.4,13.9,53.6z"/>
			<path d="M118.5,53.6c0,1.1-1,2.1-2.1,2.1c-1.2,0-2.1-0.9-2.2-2.1c0-1.2,0.8-2.1,2-2.2C117.5,51.5,118.5,52.4,118.5,53.6z"/>
			<path d="M55.8,11.7c0,1.2-1,2.2-2.2,2.1c-1.2,0-2.1-1-2-2.2c0-1.2,1-2.1,2.1-2.1C54.8,9.6,55.8,10.6,55.8,11.7z"/>
		</g>
	</g>
</g>
</svg>
