<?xml version="1.0" encoding="utf-8"?>
<!-- Generator: Adobe Illustrator 28.0.0, SVG Export Plug-In . SVG Version: 6.00 Build 0)  -->
<svg version="1.1" id="Layer_1" xmlns="http://www.w3.org/2000/svg" xmlns:xlink="http://www.w3.org/1999/xlink" x="0px" y="0px"
	 viewBox="0 0 128 128" style="enable-background:new 0 0 128 128;" xml:space="preserve">
<g>
	<path d="M63.3,128c-3.3-4-6.3-8.3-9.4-12.5c-2.6-3.7-4.8-7.6-6.2-11.9c-4.2,2.1-8.7,3.3-13.2,4.1c-4.5,0.8-9,1.5-13.5,2.1
		c-1.9,0.3-2.8-0.5-2.6-2.2c1.3-8.1,1.8-16.3,4.8-24c0.4-1.1,0.9-2.1,1.4-3.2c-6.1-2-11.3-5.7-16.4-9.4c-2.2-1.7-4.5-3.3-6.7-4.9
		c-1.8-1.3-1.8-2.6,0-3.9c3.9-2.9,7.8-5.8,11.8-8.6c3.5-2.5,7.2-4.5,11.3-5.8c-1.9-3.8-3.1-7.8-3.8-11.9c-0.9-4.9-1.6-9.9-2.4-14.9
		C18,19,18.8,18,20.5,18.3c8,1.3,16.2,1.8,23.9,4.7c1.1,0.4,2.1,0.9,3.3,1.4c3-8.9,9.3-15.8,14.6-23.3c1.1-1.5,2.5-1.6,3.5-0.2
		c3.8,5.4,8.2,10.5,11.5,16.3c1.3,2.3,2.4,4.6,3.2,7.2c3.5-1.8,7.3-2.8,11.1-3.6c0.9-0.2,1.8-0.2,2.4,0.7c0.5,0.7,0.4,1.4,0,2.1
		c-0.3,0.5-0.9,0.7-1.5,0.9c-3.6,0.8-7.2,1.7-10.5,3.5c-0.6,0.3-1.1,0.7-1.7,1c-1.3,0.6-2.5,0.2-2.9-1.2c-2-8.7-7.9-15.1-12.9-22.1
		c-0.3-0.3-0.4-0.6-0.8-0.1c-4,5.5-8.5,10.7-11.3,17c-0.7,1.6-1.2,3.2-1.6,4.8c-0.5,1.8-1.6,2.3-3.2,1.3c-5.3-3.3-11.3-4.4-17.4-5.3
		c-2.2-0.3-4.4-0.6-6.7-1c-0.6-0.1-1.2-0.3-1,0.8c0.9,5.5,1.4,11.1,3,16.5c0.8,2.6,1.8,5.1,3.2,7.4c1.2,1.9,0.7,3.1-1.4,3.6
		c-5.3,1.3-9.9,4.2-14.3,7.4c-2.4,1.7-4.7,3.5-7.1,5.3c-0.4,0.3-0.8,0.5-0.1,0.9c4.9,3.5,9.5,7.4,14.9,10.2c2.1,1.1,4.2,1.9,6.5,2.5
		c2.3,0.6,2.7,1.7,1.5,3.7c-2.5,4.2-3.7,8.9-4.5,13.7c-0.6,3.3-1,6.6-1.5,10c-0.1,0.6-0.2,1.1,0.7,0.9c6.1-1,12.3-1.5,18.2-3.5
		c2-0.7,4-1.6,5.9-2.7c1.8-1.1,3-0.7,3.5,1.4c1.4,5.5,4.4,10.2,7.7,14.8c1.6,2.2,3.3,4.5,5,6.7c0.3,0.4,0.5,0.6,0.9,0.1
		c3.6-5,7.7-9.7,10.4-15.3c1-2,1.8-4.2,2.4-6.4c0.5-1.9,1.6-2.4,3.3-1.4c4.9,3,10.4,4.2,16,5c2.6,0.4,5.3,0.8,7.9,1.2
		c1,0.2,1.2-0.1,1.1-1.1c-0.3-1.8-0.6-3.5-0.8-5.3c-0.2-1.2,0.5-2.2,1.5-2.4c1.1-0.2,2.1,0.5,2.3,1.8c0.4,2.4,0.7,4.8,1.1,7.1
		c0.1,0.7,0.2,1.4,0.3,2.1c0,1.3-0.6,2.1-2,2c-1.9-0.2-3.8-0.5-5.7-0.8c-4.9-0.8-9.9-1.4-14.7-2.7c-2.4-0.7-4.8-1.6-7.1-2.7
		c-2,6.2-5.7,11.3-9.4,16.4c-1.6,2.2-3.2,4.3-4.8,6.5c-0.4,0.6-1,1-1.4,1.5C64.3,128,63.8,128,63.3,128z"/>
	<path d="M128,64.8c-4,3.3-8.3,6.3-12.5,9.4c-3.7,2.6-7.5,4.8-11.9,6.2c1.5,3,2.5,6.1,3.2,9.4c0.3,1.4-0.1,2.4-1.2,2.7
		c-1.1,0.3-2.2-0.5-2.5-1.9c-0.5-2.1-1.1-4.2-1.9-6.3c-0.5-1.3-1.2-2.6-1.9-3.9c-0.8-1.5-0.4-2.7,1.2-3.1c5.8-1.4,10.7-4.6,15.5-8
		c2.1-1.6,4.3-3.2,6.4-4.8c0.3-0.3,0.7-0.4,0.1-0.9c-5-3.7-9.8-7.7-15.4-10.5c-2-1-4.1-1.7-6.3-2.3c-1.9-0.5-2.4-1.6-1.4-3.2
		c3-4.9,4.2-10.3,5-15.9c0.4-2.7,0.8-5.3,1.2-8c0.1-0.9,0-1.3-1-1.1c-1.2,0.3-2.5,0.4-3.7,0.6c-1,0.1-2-0.5-2.2-1.4
		c-0.3-1,0.3-2.1,1.4-2.3c2.6-0.5,5.2-0.9,7.9-1.2c1.3-0.1,2.1,0.6,2,2c-0.2,1.9-0.5,3.8-0.8,5.7c-0.8,4.9-1.3,9.8-2.7,14.5
		c-0.7,2.4-1.6,4.8-2.7,7.2c8.9,3,15.7,9.2,23.2,14.5c0.5,0.3,0.8,0.8,1.2,1.1C128,63.8,128,64.3,128,64.8z"/>
	<path d="M63.6,54.3c-5.3,0-9.6,4.4-9.6,9.7c0,5.3,4.4,9.7,9.6,9.7c5.3,0,9.6-4.4,9.6-9.7C73.3,58.7,68.9,54.3,63.6,54.3z
		 M63.7,69.8c-3.3,0-5.9-2.6-5.9-5.8c0-3.2,2.6-5.8,5.9-5.8c3.3,0,5.9,2.6,5.9,5.8C69.5,67.2,66.9,69.8,63.7,69.8z"/>
	<path d="M84.8,57.5c1-1.9,0.6-2.9-1.4-3.5c-4.7-1.5-7.8-4.6-9.3-9.3c-0.7-2.1-1.6-2.4-3.5-1.4c-4.4,2.2-8.8,2.2-13.1,0
		c-0.5-0.3-1-0.4-1.6-0.5c-1.1,0.1-1.5,0.8-1.9,1.8c-1.5,4.8-4.6,8-9.4,9.5c-2,0.6-2.4,1.6-1.4,3.5c2.3,4.4,2.3,8.8,0,13.1
		c-1,1.9-0.6,2.9,1.5,3.5c4.7,1.5,7.8,4.6,9.3,9.3c0.7,2.1,1.6,2.4,3.5,1.4c4.4-2.3,8.8-2.2,13.1,0c1.9,1,2.8,0.6,3.4-1.4
		c1.5-4.7,4.6-7.8,9.2-9.3c2.2-0.7,2.5-1.6,1.5-3.6C82.6,66.2,82.6,61.8,84.8,57.5z M80.4,71.2c-4.4,1.9-7.5,5.2-9.4,9.6
		c-4.4-1.8-8.9-1.9-13.3-0.2c-0.6,0.2-0.7,0-0.9-0.4c-1.8-4.1-4.8-7.1-8.9-8.9c-0.5-0.2-0.6-0.4-0.4-0.9c1.6-4.2,1.6-8.4,0-12.6
		c-0.2-0.5-0.1-0.7,0.3-0.9C52,55,55,52,56.8,47.9c0.3-0.6,0.5-0.6,1-0.4c4.1,1.6,8.3,1.6,12.4,0c0.6-0.2,0.8-0.1,1.1,0.5
		c1.8,4,4.7,6.9,8.7,8.7c0.7,0.3,0.7,0.6,0.5,1.2c-1.6,4.1-1.5,8.2,0,12.3C80.6,70.5,81,70.9,80.4,71.2z"/>
	<path d="M43.2,77.9c-4.4-1.1-8.8,0.8-10.8,4.9C30,87.6,29,92.9,28,98.1c-0.2,1.1,0.5,2,1.7,1.9c0.8,0,1.7-0.1,2.5-0.3
		c4.6-1,9.2-2,13.4-4.2c3.3-1.7,4.7-4.7,4.9-8C50.5,82.9,47.5,79,43.2,77.9z M43.7,92.2c-3.2,1.6-6.8,2.4-10.2,3.3
		c-0.3,0.1-0.6,0.1-1.1,0.3c0.9-3.9,1.9-7.6,3.4-11.1c0.9-2.2,3.7-3.4,5.6-3.2c2.4,0.2,4.4,1.8,5.2,4C47.2,88.1,46.1,91,43.7,92.2z"
		/>
	<path d="M73.1,28.3c-1.9-4.9-4.6-9.3-7.5-13.6c-0.8-1.2-2.3-1.3-3.1,0c-3,4.3-5.7,8.7-7.6,13.7c-2.2,5.9,2.5,12.6,9.1,12.5
		C70.7,40.9,75.3,34.1,73.1,28.3z M67.4,36c-2,1.4-4.8,1.4-6.8,0c-2-1.5-2.9-3.9-2.1-6.3c1.2-3.8,3.4-7.1,5.5-10.6
		c2.2,3.6,4.3,6.9,5.5,10.7C70.3,32.1,69.4,34.6,67.4,36z"/>
	<path d="M100,97.9c-0.1-1-0.3-2-0.5-2.9c-1-4.2-1.9-8.5-3.9-12.4c-1.7-3.4-4.7-4.8-8.4-5c-0.5,0.1-1.1,0.1-1.7,0.2
		c-3.7,0.6-7,3.8-7.6,7.5c-0.8,4.2,0.9,8.1,4.3,10C87,97.9,92.4,99,97.8,100C99.2,100.3,100.2,99.3,100,97.9z M84.5,92.3
		c-2.4-1.1-3.4-3.3-3-6.1c0.3-2.3,2.4-4.3,4.7-4.7c2.5-0.4,4.9,0.8,6,3c0.6,1.1,1,2.3,1.4,3.6c0.8,2.5,1.5,5,2,7.7
		C91.8,94.8,88,94,84.5,92.3z"/>
	<path d="M113.4,62.5c-4.3-2.9-8.7-5.7-13.7-7.5c-5.9-2.2-12.6,2.5-12.5,9.1c-0.1,6.6,6.7,11.3,12.6,9.1c4.9-1.9,9.3-4.6,13.7-7.5
		C114.6,64.8,114.6,63.3,113.4,62.5z M98.2,69.6c-2.3,0.7-4.7-0.2-6.1-2.2c-1.4-2-1.4-4.8,0-6.8c1.4-2,3.9-2.9,6.1-2.2
		c3.8,1.2,7.1,3.4,10.8,5.6C105.3,66.2,102,68.4,98.2,69.6z"/>
	<path d="M64,87.2c-6.6,0-11.3,6.7-9,12.6c1.9,4.9,4.6,9.3,7.5,13.6c0.8,1.2,2.3,1.2,3.1,0c2.9-4.3,5.7-8.7,7.6-13.7
		C75.3,93.9,70.7,87.1,64,87.2z M69.6,98.3c-1.2,3.8-3.4,7.1-5.5,10.7c-2.1-3.6-4.3-6.8-5.5-10.6c-0.8-2.4,0.1-4.8,2.1-6.3
		c2-1.4,4.8-1.4,6.8,0C69.4,93.5,70.3,95.9,69.6,98.3z"/>
	<path d="M97.9,28c-1,0.1-2,0.3-2.9,0.5c-4.3,1-8.6,1.9-12.5,4c-3.3,1.7-4.7,4.6-4.9,7.8c0,4.9,3.1,8.9,7.4,9.9
		c4.4,1,8.6-0.9,10.7-4.9c1.3-2.5,2.1-5.2,2.8-7.9c0.6-2.3,1.1-4.7,1.5-7C100.2,28.7,99.4,27.9,97.9,28z M92.3,43.4
		c-1.1,2.3-3.1,3.4-5.5,3.2c-2.5-0.2-4.4-1.7-5.2-4c-0.9-2.7,0.2-5.6,2.8-6.8c3.5-1.7,7.3-2.6,11.3-3.5C94.8,36.2,94,39.9,92.3,43.4
		z"/>
	<path d="M44.7,32.1c-4.1-1.8-8.5-2.8-12.8-3.8c-3.4-0.8-4.4,0.3-3.6,3.6c1.1,4.6,2,9.2,4.1,13.4c2,4.1,6.4,6,10.8,4.9
		c4.3-1.1,7.3-4.9,7.3-9.6C50.3,36.8,48.5,33.8,44.7,32.1z M44,45.7c-2.9,1.9-6.7,0.9-8.3-2.2c-0.9-1.7-1.5-3.6-2-5.5
		c-0.5-1.9-1-3.7-1.6-5.8c4,1,7.8,1.8,11.3,3.5C47.5,37.8,47.7,43.3,44,45.7z"/>
	<path d="M19.1,64c3.3,2,6.4,4,9.8,5.3c3,1.1,5.2,0.5,7.1-2.1c0.6-0.7,1.2-1.1,2.1-1c1.3,0.2,1.9,1.7,1.2,2.9
		c-1.9,3.3-6.4,5.3-10.1,4.2c-5.6-1.7-10.4-4.8-15-8.1c-1.1-0.8-1.1-1.8,0-2.6c4.5-3,9-6,14.1-7.8c4-1.4,8.4,0.1,10.7,3.6
		c0.8,1.2,0.7,2.3-0.2,3c-0.9,0.7-2,0.4-2.9-0.7c-1.8-2.4-4.1-3.1-6.9-2C25.6,60,22.4,62,19.1,64z"/>
	<path d="M41.7,4.6c-3,0-5.7,2.6-5.6,5.7c0,3,2.5,5.6,5.5,5.6c3.1,0,5.7-2.4,5.7-5.4C47.3,7.2,44.9,4.6,41.7,4.6z M41.8,12
		c-1,0-1.8-0.8-1.8-1.8c0-1,0.7-1.7,1.7-1.8c1,0,1.9,0.8,1.9,1.8C43.5,11.1,42.7,12,41.8,12z"/>
	<path d="M10.2,80.7c-3.1,0-5.7,2.6-5.6,5.6c0.1,3,2.7,5.6,5.7,5.6c3,0,5.5-2.5,5.5-5.6C15.8,83.1,13.4,80.7,10.2,80.7z M10.2,88.1
		c-1.1,0-1.8-0.8-1.7-1.8c0-1,0.8-1.7,1.8-1.7c1,0,1.8,0.9,1.8,1.9C12,87.3,11.2,88.1,10.2,88.1z"/>
	<path d="M117.8,36.1c-3,0-5.5,2.5-5.5,5.6c0,3.2,2.3,5.6,5.5,5.6c3.1,0,5.7-2.5,5.7-5.5C123.5,38.7,120.8,36.1,117.8,36.1z
		 M117.8,43.5c-0.9,0-1.7-0.9-1.8-1.8c0-1,0.8-1.8,1.8-1.8c1,0,1.7,0.7,1.7,1.7C119.6,42.8,118.8,43.6,117.8,43.5z"/>
	<path d="M10.3,36.1c-3,0-5.7,2.6-5.7,5.6c0,3.1,2.5,5.6,5.6,5.6c3.2,0,5.6-2.4,5.6-5.6C15.8,38.6,13.3,36.2,10.3,36.1z M10.3,43.5
		c-1,0-1.8-0.8-1.8-1.8c0-1.1,0.8-1.8,1.8-1.7c0.9,0,1.7,0.9,1.7,1.8C12,42.7,11.2,43.5,10.3,43.5z"/>
	<path d="M86.3,4.6c-3.1,0-5.5,2.5-5.5,5.7c0,2.9,2.4,5.5,5.3,5.5c3.2,0,5.9-2.5,5.8-5.6C91.9,7.2,89.3,4.6,86.3,4.6z M86.3,12
		c-0.9,0-1.8-0.9-1.8-1.9c0-1,0.9-1.7,1.9-1.7c1,0.1,1.7,0.8,1.6,1.8C88,11.3,87.2,12,86.3,12z"/>
	<path d="M86.3,112.2c-3,0-5.5,2.4-5.5,5.4c0,3.3,2.4,5.7,5.7,5.7c2.9,0,5.4-2.5,5.5-5.5C92,114.8,89.4,112.2,86.3,112.2z
		 M86.4,119.6c-1,0-1.8-0.7-1.9-1.7c0-0.9,0.9-1.9,1.8-1.8c0.9,0,1.7,0.9,1.7,1.8C88.1,118.8,87.4,119.5,86.4,119.6z"/>
	<path d="M117.8,80.8c-3,0-5.5,2.4-5.5,5.4c0,3.2,2.3,5.7,5.3,5.7c3.2,0,5.9-2.4,5.9-5.5C123.4,83.2,121,80.8,117.8,80.8z
		 M117.9,88.1c-1,0-1.9-0.8-1.9-1.8c0-1,0.9-1.8,1.9-1.8c0.9,0,1.7,0.8,1.7,1.8C119.5,87.3,118.9,88,117.9,88.1z"/>
	<path d="M41.9,112.2c-3.2,0-5.8,2.5-5.7,5.6c0,3,2.5,5.5,5.5,5.5c3.3,0,5.7-2.4,5.7-5.6C47.3,114.8,44.8,112.3,41.9,112.2z
		 M41.8,119.6c-1,0-1.7-0.7-1.8-1.7c0-1,0.8-1.9,1.7-1.9c0.9,0,1.8,0.8,1.8,1.7C43.6,118.7,42.8,119.5,41.8,119.6z"/>
	<path d="M63.6,54.3c-5.3,0-9.6,4.4-9.6,9.7c0,5.3,4.4,9.7,9.6,9.7c5.3,0,9.6-4.4,9.6-9.7C73.3,58.7,68.9,54.3,63.6,54.3z
		 M63.7,69.8c-3.3,0-5.9-2.6-5.9-5.8c0-3.2,2.6-5.8,5.9-5.8c3.3,0,5.9,2.6,5.9,5.8C69.5,67.2,66.9,69.8,63.7,69.8z"/>
	<path d="M63.6,54.3c-5.3,0-9.6,4.4-9.6,9.7c0,5.3,4.4,9.7,9.6,9.7c5.3,0,9.6-4.4,9.6-9.7C73.3,58.7,68.9,54.3,63.6,54.3z
		 M63.7,69.8c-3.3,0-5.9-2.6-5.9-5.8c0-3.2,2.6-5.8,5.9-5.8c3.3,0,5.9,2.6,5.9,5.8C69.5,67.2,66.9,69.8,63.7,69.8z"/>
</g>
</svg>
