<?xml version="1.0" encoding="utf-8"?>
<!-- Generator: Adobe Illustrator 28.0.0, SVG Export Plug-In . SVG Version: 6.00 Build 0)  -->
<svg version="1.1" id="Layer_1" xmlns="http://www.w3.org/2000/svg" xmlns:xlink="http://www.w3.org/1999/xlink" x="0px" y="0px"
	 viewBox="0 0 128 128" style="enable-background:new 0 0 128 128;" xml:space="preserve">
<g>
	<path d="M91,0c1.7,0.8,2.2,2.2,2.2,4c-0.1,3.7,0,7.5,0,11.2c0,2.2,0,2.3,2.2,2.2c3.3-0.1,6.4,0.7,9.1,2.7c4.2,3.1,6.2,7.3,6.1,12.5
		c0,2.2,0,2.2,2.2,2.2c3.8,0,7.6,0,11.4,0c0.7,0,1.5,0,2.2,0.4c1.2,0.6,1.9,1.9,1.6,3.2c-0.3,1.4-1.4,2.3-3,2.3c-3.6,0-7.2,0-10.9,0
		c-1.1,0-2.7-0.5-3.3,0.2c-0.6,0.6-0.2,2.1-0.2,3.3c0,2.2,0.1,4.5,0,6.7c0,1,0.2,1.3,1.3,1.3c4.1-0.1,8.2,0,12.4,0
		c0.8,0,1.5,0.1,2.2,0.4c1.1,0.5,1.8,1.7,1.6,2.9c-0.1,1.3-0.8,2.1-2.1,2.5c-0.5,0.2-1.1,0.2-1.6,0.2c-4.2,0-8.3,0-12.5,0
		c-1.1,0-1.3,0.3-1.3,1.3c0.1,3,0.1,6.1,0,9.1c0,1,0.3,1.2,1.2,1.1c4.2,0,8.5,0,12.7,0c1.3,0,2.4,0.3,3.1,1.5c1,1.6,0.2,3.8-1.7,4.3
		c-0.6,0.1-1.1,0.2-1.7,0.2c-4.2,0-8.3,0-12.5,0c-0.9,0-1.2,0.2-1.1,1.1c0.1,0.7,0,1.4-0.1,2.1c-0.2,1.4-1.5,2.6-2.9,2.6
		c-1.4,0-2.7-1.2-2.8-2.6c0-0.5,0-1,0-1.5c0-14.8,0-29.7,0-44.5c0-2.2-0.4-4.3-1.8-6.1c-1.9-2.4-4.4-3.5-7.4-3.5c-21,0-42,0-63,0
		c-5.5,0-9.2,3.7-9.2,9.2c0,21,0,41.9,0,62.9c0,5.6,3.7,9.3,9.3,9.3c21,0,41.9,0,62.9,0c4.5,0,7.8-2.4,8.9-6.5c0.3-0.9,0.3-2,0.4-3
		c0.1-1.7,0-3.3,0-5c0-1.7,1.2-2.9,2.9-2.9c5.8,0,11.7,0,17.5,0c1.6,0,2.8,1.3,2.9,2.7c0.1,1.5-0.9,2.7-2.6,3
		c-0.5,0.1-1,0.1-1.5,0.1c-4.1,0-8.2,0-12.2,0c-0.9,0-1.2,0.2-1.2,1.2c0.2,3.6-0.4,7-2.6,10c-3.1,4.2-7.3,6.3-12.5,6.2
		c-2.3,0-2.3,0-2.3,2.3c0,3.7,0,7.5,0,11.2c0,0.7,0,1.5-0.3,2.2c-0.5,1.2-1.9,1.9-3.2,1.7c-1.3-0.3-2.3-1.4-2.4-2.8
		c-0.1-1.2,0-2.5,0-3.7c0-3.2,0-6.5,0-9.7c0-0.9-0.2-1.1-1.1-1.1c-3.1,0.1-6.2,0.1-9.4,0c-0.9,0-1.1,0.2-1.1,1.1c0,4.2,0,8.3,0,12.5
		c0,0.6-0.1,1.2-0.2,1.7c-0.3,1.2-1.4,2.1-2.6,2.1c-1.3,0.1-2.5-0.7-2.9-1.9c-0.2-0.6-0.2-1.2-0.2-1.8c0-4.2,0-8.4,0-12.6
		c0-0.8-0.2-1.1-1-1.1c-3.2,0.1-6.3,0.1-9.5,0c-0.9,0-1.1,0.3-1.1,1.1c0,4.2,0,8.5,0,12.7c0,0.9-0.1,1.7-0.7,2.5
		c-0.8,0.9-1.7,1.3-2.9,1c-1.1-0.2-1.8-0.9-2.1-2c-0.2-0.6-0.2-1.1-0.2-1.7c0-4.1,0-8.2,0-12.4c0-1.1-0.3-1.3-1.3-1.3
		c-3.1,0.1-6.2,0.1-9.2,0c-0.8,0-1,0.2-1,1c0,4.4,0,8.8,0,13.2c0,1.4-0.6,2.4-1.9,3c-1.2,0.5-2.2,0.2-3.1-0.6
		c-0.8-0.8-0.9-1.8-0.9-2.9c0-4.2,0-8.3,0-12.5c0-1-0.3-1.3-1.2-1.2c-3.6,0.2-7-0.5-10-2.7c-4.2-3.1-6.2-7.2-6.2-12.4
		c0-2.3,0-2.3-2.4-2.3c-3.7,0-7.4,0-11.1,0c-1.8,0-3.2-0.5-4-2.2c0-0.6,0-1.2,0-1.7c0.7-1.7,1.5-2.3,3.5-2.4c3.9,0,7.8,0,11.7,0
		c1.8,0,1.9,0,1.9-1.9c0-2.4,0-4.7,0-7.1c0-1.6-0.1-1.7-1.7-1.7c-3.6,0-7.2,0-10.7,0c-0.7,0-1.4,0-2.1-0.2c-1.4-0.3-2.4-1-2.6-2.5
		c0-0.5,0-1,0-1.5c0.5-1.9,1.3-2.6,3.6-2.6c3.8-0.1,7.6,0,11.3,0c0.4,0,0.7,0,1.1,0c0.7,0,1-0.3,1-1c0-2.9,0-5.8,0-8.7
		c0-1-0.7-1-1.4-1c-3.7,0-7.3,0-11,0c-0.6,0-1.2,0-1.7-0.1c-1.9-0.2-2.5-0.8-3-2.6c0-0.5,0-1,0-1.5C0.2,53,1.2,52.3,2.6,52
		c0.7-0.2,1.4-0.2,2.1-0.2c3.6,0,7.2,0,10.7,0c1.6,0,1.7-0.1,1.7-1.7c0-2.5,0-5,0-7.5c0-1.4-0.1-1.5-1.5-1.5c-3.9,0-7.8,0-11.7,0
		c-0.8,0-1.7-0.1-2.4-0.4c-0.8-0.4-1.2-1.1-1.4-1.9c0-0.6,0-1.2,0-1.7c0.6-1.9,1.5-2.5,3.6-2.6c1.8-0.1,3.7,0,5.5,0
		c1.9,0,3.8,0,5.7,0c2.3,0,2.3,0,2.3-2.2c-0.1-2.5,0.5-4.9,1.7-7.1c2.8-5.1,7.1-7.8,13-7.9c2.8-0.1,2.6,0.2,2.6-2.7
		c0-3.2,0-6.5,0-9.7c0-0.5,0-1.1,0.1-1.6C34.7,1.6,35.2,0.3,37,0c0.6,0,1.2,0,1.7,0c1.7,0.7,2.3,1.5,2.4,3.5c0,3.9,0,7.8,0,11.7
		c0,1.8,0,1.9,1.9,1.9c2.4,0,4.7,0,7.1,0c1.6,0,1.7-0.1,1.7-1.7c0-3.6,0-7.2,0-10.7c0-0.7,0-1.4,0.2-2.1c0.3-1.4,1-2.4,2.5-2.6
		c0.5,0,1,0,1.5,0c1.9,0.5,2.6,1.3,2.6,3.6c0.1,3.8,0,7.6,0,11.4c0,0.4,0,0.7,0,1.1c0,0.7,0.3,1,1,1c2.9,0,5.8,0,8.7,0
		c1,0,1-0.7,1-1.4c0-3.7,0-7.3,0-11c0-0.6,0-1.2,0.1-1.7c0.2-1.9,0.8-2.5,2.6-3c0.5,0,1,0,1.5,0C75,0.2,75.7,1.2,76,2.6
		c0.2,0.7,0.2,1.4,0.2,2.1c0,3.6,0,7.2,0,10.7c0,1.6,0.1,1.7,1.7,1.7c2.5,0,5,0,7.5,0c1.4,0,1.5-0.1,1.5-1.5c0-3.9,0-7.8,0-11.7
		c0-0.8,0.1-1.7,0.4-2.4c0.4-0.8,1.1-1.2,1.9-1.4C89.8,0,90.4,0,91,0z"/>
	<path d="M93.1,62.6c0,7.9,0,14.4,0,20.9c0,3.2-1,5.9-3.6,7.8c-1.7,1.3-3.7,1.7-5.8,1.8c-5.3,0-10.7,0-16,0c-0.7,0-1.4,0-2.1-0.4
		c-1.2-0.6-1.9-1.9-1.6-3.2c0.3-1.4,1.5-2.3,3-2.3c3,0,6,0,9,0c2.6,0,5.2,0,7.7,0c2.2,0,3.4-1.2,3.4-3.4c0-13.2,0-26.5,0-39.7
		c0-2.2-1.2-3.4-3.4-3.4c-2.4,0-4.8,0-7.2,0c-0.7,0-0.9,0.2-0.9,0.9c0,7.3,0,14.7,0,22c0,0.8,0.3,1.1,1,1.4c3.3,1.6,5.3,5.2,4.8,8.7
		c-0.6,4-3.3,6.9-7.1,7.6c-4.2,0.7-8.4-1.7-9.7-5.6c-1.4-4.3,0.3-8.7,4.2-10.7c0.9-0.4,1.1-0.9,1.1-1.8c0-8.2,0-16.3,0-24.5
		c0-2.8,1.1-3.9,3.8-3.9c4,0,7.9-0.2,11.9,0.1c3.8,0.3,7.4,3.8,7.5,7.6C93.3,49.7,93,56.9,93.1,62.6z"/>
	<path d="M34.9,65.3c0-7.9,0-14.4,0-20.9c0-3.8,1.5-6.8,4.9-8.6c1.4-0.7,2.8-0.9,4.3-0.9c5.5,0,10.9,0,16.4,0c0.7,0,1.3,0.1,1.9,0.4
		c1.2,0.6,1.8,2,1.5,3.2c-0.3,1.4-1.5,2.2-3.1,2.3c-3.6,0-7.2,0-10.9,0c-2,0-3.9,0-5.9,0c-2.2,0-3.4,1.2-3.4,3.3
		c0,13.3,0,26.6,0,39.9c0,2.1,1.2,3.3,3.3,3.3c2.5,0,4.9,0,7.4,0c0.8,0,0.9-0.3,0.9-0.9c0-7.3,0-14.7,0-22c0-0.6-0.2-0.9-0.8-1.2
		c-3.7-1.8-5.6-5.5-4.8-9.4c0.7-3.9,3.9-6.7,7.9-7.1c4-0.4,7.9,2.3,9,6.4c1.2,3.9-0.7,8.3-4.4,10.1c-0.8,0.4-1,0.8-1,1.7
		c0,8.2,0,16.4,0,24.6c0,2.7-1.1,3.9-3.8,3.9c-4,0-7.9,0.2-11.9-0.1c-3.7-0.3-7.3-3.8-7.5-7.6C34.7,78.2,35,71.1,34.9,65.3z"/>
	<path d="M34.9,32c0,1.5-1.4,2.9-2.9,2.9c-1.5,0-2.9-1.4-2.9-2.9c0-1.5,1.4-2.9,2.9-2.9C33.5,29.1,34.9,30.5,34.9,32z"/>
	<path d="M96,34.9c-1.5,0-2.9-1.5-2.9-3c0-1.5,1.5-2.9,3-2.9c1.5,0,2.9,1.5,2.9,3C98.9,33.5,97.5,35,96,34.9z"/>
	<path d="M32,98.9c-1.5,0-2.9-1.4-2.9-2.9c0-1.5,1.4-2.9,2.9-2.9c1.5,0,2.9,1.4,2.9,2.9C34.9,97.5,33.5,98.9,32,98.9z"/>
	<path d="M98.9,96c-0.1,1.5-1.5,2.9-3,2.9c-1.5-0.1-2.9-1.5-2.9-3c0.1-1.5,1.5-2.9,3-2.9C97.6,93.1,99,94.6,98.9,96z"/>
	<path d="M72.8,69.9c1.6,0,2.8,1.3,2.8,2.9c0,1.6-1.3,2.8-2.9,2.7c-1.5-0.1-2.7-1.3-2.7-2.8C69.9,71.1,71.2,69.9,72.8,69.9z"/>
	<path d="M55.3,52.5c1.6,0,2.8,1.2,2.8,2.8c0,1.6-1.3,2.8-2.9,2.8c-1.6,0-2.8-1.2-2.8-2.8C52.4,53.7,53.6,52.5,55.3,52.5z"/>
</g>
</svg>
