<?xml version="1.0" encoding="utf-8"?>
<!-- Generator: Adobe Illustrator 28.0.0, SVG Export Plug-In . SVG Version: 6.00 Build 0)  -->
<svg version="1.1" id="Layer_1" xmlns="http://www.w3.org/2000/svg" xmlns:xlink="http://www.w3.org/1999/xlink" x="0px" y="0px"
	 viewBox="0 0 128 128" style="enable-background:new 0 0 128 128;" xml:space="preserve">
<g>
	<path d="M51.7,94.1c1-0.3,1.6-1.3,1.3-2.3c-1-3.7-4.3-4.3-5.9-4.1c-1,0.1-1.7,1.1-1.6,2.1c0.1,1,1.1,1.7,2.1,1.6
		c0.2,0,1.4-0.1,1.8,1.4c0.2,0.8,1,1.4,1.8,1.4C51.4,94.1,51.5,94.1,51.7,94.1L51.7,94.1z"/>
	<path d="M76.3,94.1c-1-0.3-1.6-1.3-1.3-2.3c1-3.7,4.3-4.3,5.9-4.1c1,0.1,1.7,1.1,1.6,2.1c-0.1,1-1.1,1.7-2.1,1.6
		c-0.2,0-1.4-0.1-1.8,1.4c-0.2,0.8-1,1.4-1.8,1.4C76.6,94.1,76.5,94.1,76.3,94.1L76.3,94.1z"/>
	<path d="M92.2,105.2c-1.7,0-3.2,1.4-3.2,3.2v3.6c0,1.7,1.4,3.2,3.2,3.2h6.3c1.7,0,3.2-1.4,3.2-3.2v-3.6c0-1.7-1.4-3.2-3.2-3.2H92.2
		z M97.9,111.4h-5.1V109h5.1V111.4z"/>
	<path d="M29.1,107.9h6c1,0,1.9-0.8,1.9-1.9s-0.8-1.9-1.9-1.9h-6c-1,0-1.9,0.8-1.9,1.9S28.1,107.9,29.1,107.9z"/>
	<path d="M29.1,114.2h4.2c1,0,1.9-0.8,1.9-1.9s-0.8-1.9-1.9-1.9h-4.2c-1,0-1.9,0.8-1.9,1.9S28.1,114.2,29.1,114.2z"/>
	<path d="M22.4,74.5c-1,0-1.9,0.8-1.9,1.9v42.2c0,1,0.8,1.9,1.9,1.9h83.2c1,0,1.9-0.8,1.9-1.9V35.3c0-1-0.8-1.9-1.9-1.9H22.4
		c-1,0-1.9,0.8-1.9,1.9v33.5c0,1,0.8,1.9,1.9,1.9c1,0,1.9-0.8,1.9-1.9V37.2h79.4v79.5H81.6c0-0.2,0-0.3-0.1-0.5
		c-0.6-4.4,1.5-8.8,5.5-11.1l0.1-0.1c3.7-2.2,6.1-6.1,6.4-10.5c0.1-1-0.7-1.9-1.7-2c-1-0.1-1.9,0.7-2,1.7c-0.3,3.1-2,6-4.6,7.6
		L85,102c-5.2,3.1-8.1,8.9-7.2,14.8H71c-0.2-6.7-0.6-23-0.7-29.4l4.4-2.8c1.2-0.7,2.4-1.2,3.8-1.4l0.1,0c4-0.6,7.9,1.4,9.9,4.9
		c0.3,0.6,1,0.9,1.6,0.9c0.3,0,0.6-0.1,0.9-0.2c0.9-0.5,1.2-1.7,0.7-2.6c-2.8-4.9-8.1-7.6-13.6-6.8l-0.1,0c-1.8,0.3-3.6,0.9-5.2,2
		l-2.5,1.6c0-1.9-0.3-13.2-0.4-14.9c3.6,0.5,7,2.2,9.6,4.9l3,3c0.4,0.4,0.8,0.5,1.3,0.5c0.5,0,1-0.2,1.3-0.5c0.7-0.7,0.7-1.9,0-2.7
		l-3-3c-3.4-3.4-7.7-5.5-12.4-6c0-1.1-0.1-4.7-0.1-5.9c2-0.1,4-0.1,5.9,0c4.2,0.2,8.2,2,11.2,5l3,3c0.4,0.4,0.8,0.5,1.3,0.5
		s1-0.2,1.3-0.5c0.7-0.7,0.7-1.9,0-2.7l-3-3c-3.7-3.6-8.5-5.8-13.6-6.1c-2-0.1-4.1-0.1-6.2,0c0-0.7-0.1-5.6-0.2-6.1
		c4.5-0.8,8.9-1,13-0.8c4.2,0.2,8.2,2,11.2,5l3,3c0.4,0.4,0.8,0.5,1.3,0.5c0.5,0,1-0.2,1.3-0.5c0.7-0.7,0.7-1.9,0-2.7l-3-3
		c-3.7-3.6-8.5-5.8-13.6-6.1c-4.2-0.2-8.7,0-13.3,0.8c-0.2-2.7-2.4-4.9-5.2-4.9c-2.8,0-5,2.1-5.2,4.9c-4.6-0.7-9.1-1-13.3-0.8
		c-5.1,0.3-10,2.5-13.6,6.1l-3,3c-0.7,0.7-0.7,1.9,0,2.7c0.4,0.4,0.8,0.5,1.3,0.5s1-0.2,1.3-0.5l3-3c3-3,7-4.8,11.2-5
		c4.1-0.2,8.5,0,13,0.8l-0.2,6.1c-2.1-0.1-4.2-0.1-6.2,0c-5.1,0.3-10,2.5-13.6,6.1l-3,3c-0.7,0.7-0.7,1.9,0,2.7
		c0.4,0.4,0.8,0.5,1.3,0.5c0.5,0,1-0.2,1.3-0.5l3-3c3-3,7-4.8,11.2-5c1.9-0.1,3.9-0.1,5.9,0c0,1.2-0.1,4.8-0.1,5.9
		c-4.7,0.5-9,2.6-12.4,6l-3,3c-0.7,0.7-0.7,1.9,0,2.7c0.4,0.4,0.8,0.5,1.3,0.5c0.5,0,1-0.2,1.3-0.5l3-3c2.6-2.6,6-4.3,9.6-4.9
		c0,0-0.4,15.8-0.4,14.9l-2.5-1.6c-1.6-1-3.4-1.7-5.2-2l-0.1,0c-3.6-0.5-7.1,0.4-10,2.6c-2.9,2.2-4.8,5.5-5.3,9.1
		c-0.1,0.4-0.1,0.8-0.1,1.2c-0.4,5.1,2.1,10.1,6.4,12.8l0.1,0.1c3.9,2.3,6.1,6.7,5.4,11.1c0,0.2,0,0.3-0.1,0.5H24.3V76.4
		C24.3,75.3,23.4,74.5,22.4,74.5L22.4,74.5z M66.7,97.2c-1.8,0.6-3.6,0.6-5.5,0l0.1-5.5c0.9,0.2,1.7,0.3,2.6,0.3
		c0.9,0,1.7-0.1,2.6-0.3L66.7,97.2z M61.2,101.1c0.9,0.2,1.9,0.3,2.8,0.3c0.9,0,1.9-0.1,2.8-0.3l0.1,5.5c-2,0.7-3.9,0.7-5.9,0
		L61.2,101.1z M61.9,72.9c0.7,0.2,1.4,0.3,2.1,0.3c0.7,0,1.4-0.1,2.1-0.3l0.1,5.5c-1.5,0.6-3,0.6-4.5,0L61.9,72.9z M65.8,59.6
		c-1.2,0.5-2.4,0.5-3.6,0l0.1-5.5c0.5,0.1,1.1,0.2,1.6,0.2c0.5,0,1.1-0.1,1.6-0.2L65.8,59.6z M64,63.7c0.6,0,1.3-0.1,1.9-0.2L66,69
		c-1.4,0.5-2.7,0.5-4,0l0.1-5.5C62.7,63.6,63.4,63.7,64,63.7L64,63.7z M64,82.6c0.8,0,1.6-0.1,2.4-0.3c0,1.4,0.1,4.2,0.1,5.5
		c-1.7,0.6-3.3,0.6-5,0c0-1.4,0.1-4.2,0.1-5.5C62.4,82.5,63.2,82.6,64,82.6L64,82.6z M60.8,116.7l0.2-6.2c1,0.3,2,0.4,3.1,0.4
		c1,0,2-0.1,3.1-0.4l0.2,6.2L60.8,116.7z M64,43.6c0.8,0,1.4,0.6,1.4,1.4l0.1,5.2c-1,0.5-2,0.5-3.1,0l0.1-5.2
		C62.6,44.2,63.2,43.6,64,43.6L64,43.6z M43,102L43,102c-3.2-2-5-5.6-4.7-9.3c0-0.4,0.1-0.7,0.1-1.1c0.4-2.6,1.7-5,3.8-6.6
		c2.1-1.6,4.7-2.3,7.2-1.9l0.1,0c1.3,0.2,2.6,0.7,3.8,1.4l4.4,2.8c-0.1,4.5-0.7,26.4-0.7,29.4h-6.8C51,110.9,48.2,105.1,43,102z"/>
	<path d="M113.1,46.5c1,0,1.9-0.8,1.9-1.9V30.8c0-2.7-2.2-4.8-4.8-4.8h-7.2l-0.2-1c-1-5.5-5.6-9.8-11.1-10.4L84,13.8
		c-3.7-0.4-6.8-3.1-7.7-6.7l-1.5-5.7c-0.3-1-1.3-1.6-2.3-1.4c-1,0.3-1.6,1.3-1.4,2.3l1.5,5.7c1.3,5.1,5.7,8.9,10.9,9.5l7.7,0.8
		c3.9,0.4,7.1,3.4,7.9,7.3l0.1,0.3H28.9l0.1-0.3c0.7-3.9,3.9-6.9,7.9-7.3l7.7-0.8c5.2-0.6,9.6-4.4,10.9-9.5l1.5-5.7
		c0.3-1-0.3-2-1.4-2.3c-1-0.3-2,0.3-2.3,1.4l-1.5,5.7c-0.9,3.6-4,6.3-7.7,6.7l-7.7,0.8c-5.5,0.6-10.1,4.9-11.1,10.4l-0.2,1h-7.2
		c-2.7,0-4.8,2.2-4.8,4.8v92.4c0,2.7,2.2,4.8,4.8,4.8h92.3c2.7,0,4.8-2.2,4.8-4.8V52.1c0-1-0.8-1.9-1.9-1.9s-1.9,0.8-1.9,1.9v71.1
		c0,0.6-0.5,1.1-1.1,1.1H17.9c-0.6,0-1.1-0.5-1.1-1.1V30.8c0-0.6,0.5-1.1,1.1-1.1h92.3c0.6,0,1.1,0.5,1.1,1.1v13.8
		C111.2,45.6,112.1,46.5,113.1,46.5z"/>
</g>
</svg>
