<?xml version="1.0" encoding="utf-8"?>
<!-- Generator: Adobe Illustrator 27.9.0, SVG Export Plug-In . SVG Version: 6.00 Build 0)  -->
<svg version="1.1" id="Layer_1" xmlns="http://www.w3.org/2000/svg" xmlns:xlink="http://www.w3.org/1999/xlink" x="0px" y="0px"
	 viewBox="0 0 128 128" style="enable-background:new 0 0 128 128;" xml:space="preserve">
<path d="M127.94,37.73c0.01-3.05-2.28-5.29-5.33-5.3c-3.61-0.01-7.23-0.03-10.84,0.02c-0.82,0.01-1.11-0.21-1.3-1.06
	c-0.81-3.73-1.84-7.41-2.61-11.14c-1.13-5.51-4.98-8.31-10.41-8.28c-22.3,0.12-44.61,0.05-66.91,0.05c-0.54,0-1.07,0.01-1.6,0.03
	c-4.09,0.22-7.33,2.85-8.33,6.86c-1.03,4.13-2,8.28-2.96,12.43c-0.18,0.8-0.46,1.14-1.38,1.12c-3.66-0.07-7.32-0.04-10.97-0.02
	c-2.95,0.01-5.22,2.26-5.28,5.23c-0.03,1.25-0.02,2.5-0.01,3.75c0.04,4.17,3.18,7.71,7.34,8.16c1.32,0.14,2.66,0.02,4.36,0.02
	c-2.1,2.78-3.91,5.26-5.81,7.65c-0.89,1.11-1.23,2.27-1.23,3.68c0.04,8.12,0.02,16.24,0.02,24.36c0,4.24,0,8.47,0,12.71
	c0,1.01,0.04,2.05,1.07,2.55c0.62,0.3,0.69,0.68,0.68,1.25c-0.02,1.52-0.04,3.03,0.01,4.55c0.14,5.16,4.27,9.47,9.41,9.61
	c4.77,0.13,9.55,0.12,14.32,0c4.53-0.11,8.28-3.46,9.19-7.88c0.43-2.08,0.18-4.18,0.22-6.27c0.01-0.71,0.21-0.9,0.9-0.88
	c2.45,0.04,4.91,0.02,7.36,0.02c13.07,0,26.14,0.02,39.21-0.03c1.28-0.01,1.56,0.38,1.49,1.56c-0.09,1.47-0.04,2.94,0.04,4.41
	c0.27,4.83,4.37,8.96,9.19,9.08c4.81,0.12,9.63,0.11,14.45,0.01c4.25-0.09,7.92-3.14,9.02-7.26c0.6-2.23,0.29-4.52,0.37-6.78
	c0.02-0.42-0.19-0.94,0.36-1.18c1.3-0.56,1.42-1.65,1.42-2.88c-0.02-12.36-0.03-24.72,0.01-37.07c0-1.33-0.35-2.39-1.16-3.42
	c-1.91-2.44-3.74-4.94-5.79-7.66c1.19,0,2.11,0.01,3.02,0c4.13-0.07,7.31-2.62,8.25-6.63C128.17,41.29,127.93,39.5,127.94,37.73z
	 M24.73,20.32c0.66-2.73,2.36-3.97,5.21-3.97c22.74,0,45.49,0,68.23,0c2.9,0,4.51,1.26,5.2,4.13c1.93,7.97,3.83,15.95,5.77,23.92
	c0.18,0.73,0.03,1.01-0.73,0.9c-0.13-0.02-0.27,0-0.4,0c-29.34,0-58.69,0-88.03,0c-0.35,0-0.71,0-1.22,0
	C20.77,36.88,22.73,28.59,24.73,20.32z M8.52,45.3c-2.14,0-3.53-1.09-3.96-3.15c-0.29-1.4-0.23-2.83-0.18-4.25
	c0.02-0.79,0.47-1.2,1.29-1.19c3.51,0.01,7.02,0,10.68,0c-0.64,2.68-1.29,5.2-1.84,7.75c-0.15,0.68-0.4,0.87-1.05,0.86
	C11.81,45.28,10.16,45.3,8.52,45.3z M9.05,63.14c-0.02-0.95,0.32-1.09,1.13-1c4.02,0.47,8.04,0.9,12.06,1.34
	c0.56,0.06,1.05,0.22,1.33,0.75c1.65,3.17,3.29,6.35,5.03,9.72c-1.02,0-1.85,0-2.68,0c-5.25,0-10.51-0.02-15.76,0.02
	c-0.85,0.01-1.13-0.18-1.11-1.08C9.11,69.64,9.12,66.39,9.05,63.14z M9.06,95.61c0.03-1.87,0.05-3.75-0.01-5.62
	c-0.02-0.77,0.29-0.86,0.93-0.85c2.01,0.03,4.01,0.01,6.02,0.01c2.01,0,4.01,0.02,6.02-0.01c0.62-0.01,0.98,0.06,0.96,0.84
	c-0.06,1.87-0.04,3.75-0.01,5.62c0.01,0.63-0.17,0.85-0.82,0.85c-4.1-0.02-8.2-0.03-12.3,0C9.18,96.46,9.05,96.21,9.06,95.61z
	 M35.13,107c-0.47,2.66-2.65,4.64-5.36,4.67c-4.5,0.04-9,0.05-13.5,0c-2.75-0.03-4.97-2.09-5.35-4.82c-0.24-1.73-0.04-3.47-0.12-5.2
	c-0.04-0.81,0.49-0.68,0.97-0.68c3.79,0,7.57,0,11.36,0c3.61,0,7.22,0.05,10.83-0.03c1.16-0.03,1.44,0.33,1.35,1.41
	C35.15,103.89,35.4,105.45,35.13,107z M52.23,96.5c-7.94,0-15.88-0.06-23.81-0.04c-0.97,0-1.19-0.27-1.15-1.19
	c0.08-1.65,0.11-3.31-0.01-4.95c-0.07-1.08,0.34-1.2,1.27-1.2c11.86,0.03,23.73,0.02,35.59,0.02c11.77,0,23.55,0.02,35.32-0.03
	c1.14,0,1.43,0.3,1.36,1.39c-0.1,1.51-0.1,3.04,0,4.55c0.07,1.08-0.19,1.41-1.35,1.41C83.72,96.45,67.97,96.5,52.23,96.5z
	 M46.85,84.63c0.98-2.9,1.93-5.66,2.82-8.44c0.2-0.61,0.46-0.85,1.11-0.85c8.87,0.02,17.74,0.01,26.62,0.01
	c0.43,0,0.76,0.04,0.92,0.53c0.95,2.89,1.93,5.78,2.92,8.76C69.71,84.63,58.35,84.63,46.85,84.63z M117.26,106.15
	c-0.05,3.05-2.46,5.49-5.53,5.52c-4.45,0.04-8.91,0.04-13.36,0c-3.05-0.03-5.45-2.5-5.49-5.56c-0.02-1.38,0.05-2.76-0.02-4.14
	c-0.04-0.81,0.17-1.05,1.01-1.04c3.74,0.05,7.48,0.02,11.22,0.02c3.7,0,7.39,0.02,11.09-0.02c0.84-0.01,1.17,0.16,1.11,1.08
	C117.21,103.39,117.29,104.77,117.26,106.15z M119.09,95.53c0.02,0.67-0.15,0.94-0.88,0.93c-4.06-0.03-8.11-0.02-12.17-0.01
	c-0.57,0-0.9-0.04-0.88-0.77c0.05-1.92,0.05-3.83,0-5.75c-0.02-0.69,0.25-0.8,0.85-0.79c2.01,0.03,4.01,0.01,6.02,0.01
	c2.05,0,4.1,0.03,6.15-0.01c0.7-0.01,0.92,0.2,0.9,0.9C119.04,91.87,119.05,93.7,119.09,95.53z M119.11,63.4
	c-0.1,3.21-0.05,6.42-0.02,9.63c0.01,0.67-0.13,0.94-0.87,0.93c-6.11-0.03-12.21-0.02-18.32-0.03c-0.07,0-0.14-0.06-0.31-0.13
	c1.65-3.19,3.29-6.38,4.94-9.55c0.3-0.57,0.85-0.71,1.46-0.78c3.89-0.42,7.78-0.84,11.67-1.31
	C118.68,62.03,119.15,62.16,119.11,63.4z M117.18,57.88c-4.12,0.46-7.96,0.93-11.81,1.31c-2.01,0.2-3.62,1.05-4.57,2.82
	c-2.3,4.3-4.54,8.64-6.75,13c-0.93,1.83,0.11,3.3,2.32,3.33c3.26,0.04,6.51,0.01,9.77,0.01c3.93,0,7.85,0.03,11.78-0.02
	c0.95-0.01,1.23,0.28,1.18,1.2c-0.07,1.38-0.08,2.77,0,4.15c0.05,0.91-0.28,1.12-1.14,1.11c-5.62-0.03-11.24-0.02-16.86-0.02
	c-4.59,0-9.19-0.04-13.78,0.03c-1.15,0.02-1.61-0.36-1.94-1.43c-1.08-3.47-2.28-6.9-3.44-10.34C81.38,71.4,80.82,71,79.09,71
	c-10.04,0-20.07,0-30.11,0c-1.71,0-2.31,0.42-2.85,2.03c-1.2,3.57-2.4,7.14-3.56,10.73c-0.24,0.73-0.56,1.04-1.39,1.04
	c-10.35-0.03-20.7-0.03-31.05,0c-0.91,0-1.12-0.29-1.08-1.13c0.06-1.34,0.08-2.68,0-4.01c-0.06-1,0.19-1.34,1.28-1.33
	c7,0.06,14.01,0.03,21.01,0.03c0.9,0,1.81,0.01,2.46-0.77c0.68-0.82,0.68-1.71,0.21-2.62c-2.22-4.3-4.44-8.6-6.67-12.89
	c-1.39-2.66-3.96-2.86-6.52-3.13c-3.23-0.33-6.46-0.7-9.9-1.07c2.04-2.71,3.98-5.28,5.93-7.86c0.36-0.48,0.9-0.31,1.37-0.31
	C25,49.69,31.78,49.7,38.56,49.7c23.64,0,47.29,0.01,70.93-0.03c1.18,0,1.86,0.38,2.51,1.29C113.62,53.23,115.35,55.44,117.18,57.88
	z M123.36,42.43c-0.52,1.92-1.81,2.87-3.79,2.87c-1.65,0-3.3,0.01-4.95,0c-0.37,0-0.77,0.14-0.91-0.47
	c-0.61-2.67-1.28-5.33-1.95-8.11c3.67,0,7.19,0,10.71,0c0.69,0,1.11,0.4,1.14,1.06C123.68,39.33,123.77,40.91,123.36,42.43z"/>
</svg>
