<?xml version="1.0" encoding="utf-8"?>
<!-- Generator: Adobe Illustrator 27.9.0, SVG Export Plug-In . SVG Version: 6.00 Build 0)  -->
<svg version="1.1" id="Layer_1" xmlns="http://www.w3.org/2000/svg" xmlns:xlink="http://www.w3.org/1999/xlink" x="0px" y="0px"
	 viewBox="0 0 128 128" style="enable-background:new 0 0 128 128;" xml:space="preserve">
<g>
	<path d="M56.9,85.84h27.52c2.12,0,3.68-1.98,3.19-4.04l-6.27-26.36c-0.35-1.48-1.67-2.52-3.19-2.52H63.81
		c-1.49,0-2.79,1.01-3.17,2.45l-6.91,26.36C53.18,83.81,54.75,85.84,56.9,85.84z"/>
	<path d="M82.34,113.84v-6.59h10.18v-8.04H82.34v-3.92c0-1.81-1.47-3.28-3.28-3.28H70.6h-8.46c-1.81,0-3.28,1.47-3.28,3.28v3.92
		H39.81c-1.23-0.03-10.23-0.04-17.22,6.63c-5.33,5.09-8.04,12.54-8.04,22.17h8.04c0-7.29,1.84-12.77,5.48-16.28
		c4.11-3.97,13.62-4.42,16.2-4.47h14.59v6.59c0,0-14.85,1.04-20.72,14.16H70.6h32.46C97.19,114.88,82.34,113.84,82.34,113.84z
		 M44.52,107.24c0.23,0,0.37,0,0.4,0L44.52,107.24z"/>
	<path d="M111.05,95.63l-8.11-2.25c-2.09-0.58-4.15,0.99-4.15,3.16v13.37c0,2.17,2.06,3.74,4.15,3.16l8.11-2.25
		c1.42-0.39,2.4-1.69,2.4-3.16v-8.87C113.46,97.32,112.47,96.03,111.05,95.63z"/>
	<path d="M54.22,39.16c1.19,4.58,5.25,7.78,9.89,7.78h12.52c4.3,0,8.16-2.78,9.62-6.92c1.85-5.23,2.68-13.66-3.79-24.14
		c-6.79-11-17.69-14.69-25.64-15.86c-0.78-0.11-1.48,0.32-1.73,1.09c-0.25,0.77,0.07,1.57,0.78,1.94
		c8.74,4.6,12.18,14.29,13.45,19.66c0.27,1.13,0,2.13-0.74,2.73c-0.62,0.5-1.48,0.62-2.17,0.29c-0.94-0.44-1.46-1.55-1.46-3.13
		c-0.02-2.79-1.61-5.45-4.74-7.9c-0.57-0.45-1.31-0.46-1.89-0.03c-0.6,0.45-0.81,1.23-0.53,1.93c1.12,2.82,0.57,6.01-1.65,9.49
		C53.63,30.01,52.99,34.4,54.22,39.16z"/>
</g>
</svg>
