<?xml version="1.0" encoding="utf-8"?>
<!-- Generator: Adobe Illustrator 27.9.0, SVG Export Plug-In . SVG Version: 6.00 Build 0)  -->
<svg version="1.1" id="Layer_1" xmlns="http://www.w3.org/2000/svg" xmlns:xlink="http://www.w3.org/1999/xlink" x="0px" y="0px"
	 viewBox="0 0 128 128" style="enable-background:new 0 0 128 128;" xml:space="preserve">
<path d="M128,96.51c0,0.75,0,1.5,0,2.25c-0.76,1.82-1.84,3.3-3.89,3.84c-0.5,0.13-0.98,0.16-1.48,0.16c-39.07,0-78.14,0-117.21,0
	c-3.13,0-5.37-2.24-5.43-5.28c-0.02-0.86,0.27-1,1.04-1C7,96.51,12.96,96.5,18.91,96.5c10.58,0,21.16,0.01,31.74-0.02
	c0.95,0,1.54,0.1,1.32,1.23c-0.13,0.69,0.16,0.91,0.87,0.91c7.5-0.03,14.99-0.04,22.49,0.01c1,0.01,0.97-0.5,0.9-1.15
	c-0.08-0.7,0.07-1,0.91-1C94.1,96.51,111.05,96.51,128,96.51z M11.78,90.26c0-20.28,0-40.57,0-60.85c0-2.82,1.3-4.13,4.09-4.13
	c16.08,0,32.16,0,48.23,0c15.99,0,31.99,0.05,47.98-0.04c2.79-0.02,4.2,1.97,4.2,4.23c-0.06,20.24-0.04,40.48-0.04,60.72
	c0,2.98-1.34,4.3-4.35,4.3c-31.95,0-63.89,0-95.84,0C13.1,94.5,11.78,93.18,11.78,90.26z M62.99,27.83
	c-0.05,0.73,0.29,1.17,1.05,1.22c0.71,0.04,1.01-0.41,1.16-1.04c-0.06-0.64-0.4-1.11-1.04-1.16C63.54,26.81,63.05,27.13,62.99,27.83
	z M17.3,87.55c0,1.17,0.21,1.51,1.46,1.51c15.08-0.05,30.16-0.03,45.24-0.03c15.16,0,30.33-0.01,45.49,0.02
	c0.97,0,1.32-0.13,1.32-1.24c-0.04-18.62-0.04-37.24,0-55.86c0-1.07-0.3-1.26-1.3-1.26c-30.28,0.03-60.57,0.03-90.85-0.01
	c-1.14,0-1.35,0.31-1.35,1.38C17.33,50.56,17.34,69.06,17.3,87.55z"/>
</svg>
