<?xml version="1.0" encoding="utf-8"?>
<!-- Generator: Adobe Illustrator 27.9.0, SVG Export Plug-In . SVG Version: 6.00 Build 0)  -->
<svg version="1.1" id="Layer_1" xmlns="http://www.w3.org/2000/svg" xmlns:xlink="http://www.w3.org/1999/xlink" x="0px" y="0px"
	 viewBox="0 0 128 128" style="enable-background:new 0 0 128 128;" xml:space="preserve">
<g>
	<path d="M92.28,71.2V68.4c-0.98,2.6-1.95,5.22-2.9,7.84c-0.27,0.75-0.71,1.96-2.08,2.05c-0.05,0.01-0.11,0.01-0.16,0.01
		c-1.44,0-1.93-1.33-2.17-1.97c-0.96-2.57-1.86-5.03-2.77-7.5l-0.1-0.27l-0.01,7.5c-0.03,1.27-0.87,2.18-2.05,2.21
		c-0.68,0.01-1.26-0.31-1.54-0.59c-0.29-0.29-0.63-0.83-0.63-1.73l0-8.04c0-3.38,0-6.77,0.01-10.15l-0.01-0.34
		c-0.03-0.76-0.09-2.53,1.83-2.82c1.75-0.26,2.28,1.32,2.51,2l0.1,0.28c1.18,3.15,2.34,6.31,3.51,9.47l1.36,3.67l0.61-1.64
		c1.45-3.9,2.88-7.71,4.29-11.52l0.09-0.25c0.26-0.75,0.81-2.31,2.55-1.98c1.78,0.33,1.78,2.07,1.77,2.9l0,17.67
		c0,0.32,0,0.54-0.02,0.77c-0.17,2.07-1.53,2.3-2.11,2.3c-1,0-2.07-0.63-2.08-2.38C92.28,74.31,92.28,72.75,92.28,71.2z M128,38.72
		v78.19c0,6.72-4.21,11.07-10.71,11.08C109.19,127.99,101.1,128,93,128c-8.74,0-17.47-0.01-26.21-0.01
		c-6.59-0.01-10.73-4.22-10.79-11.01c0-0.31,0-0.61,0.01-0.92c0.01-0.52,0.03-1.04-0.02-1.55c-0.1-1.07,0.1-1.86,0.61-2.44
		c0.52-0.59,1.43-0.81,2.46-0.85c3.97,0.04,7.93,0.04,11.9,0.03l27.58-0.01c8.23,0,16.46-0.01,24.7,0.03
		c0.3-0.01,0.5-0.02,0.57-0.04c-0.02-0.04,0.01-0.19,0.01-0.51c-0.05-20.74-0.05-41.48,0-62.21c0-0.42-0.04-0.58-0.06-0.63
		c-0.01,0.02-0.16-0.02-0.58-0.02c0,0-0.01,0-0.01,0c-20.79,0.04-41.58,0.04-62.37-0.01c-0.01,0-0.01,0-0.01,0
		c-0.39,0-0.56,0.05-0.63,0.07c0.01,0.03,0,0.18,0.04,0.49c0.06,0.44,0.04,0.93-0.07,1.5c-0.21,1.16-1.03,1.92-2.11,1.84
		c-1.16-0.05-1.98-0.9-1.98-2.08c0-1.25-0.03-2.51-0.06-3.76c-0.08-3.2-0.16-6.52,0.24-9.78c0.44-3.6,3.5-6.1,7.98-6.52
		c2.05-0.19,3.43-1.55,3.68-3.65c0-0.03,0.01-0.06,0.01-0.09c-0.79,0.03-1.41,0.02-2.03,0.01l-0.82-0.01
		c-1.96-0.01-3.13-1.2-3.13-3.18c0-1.33-0.01-2.65-0.01-3.98c-0.02-3.33-0.04-6.77,0.08-10.16c0.17-4.84,3.84-8.5,8.55-8.53
		c13.86-0.06,28.3-0.06,42.91,0c4.89,0.02,8.6,3.89,8.64,9c0.03,4.48,0.02,8.96,0,13.44c-0.01,2.32-0.92,3.3-3.16,3.4l-0.29,0.01
		c-0.71,0.03-1.44,0.07-2.19-0.03c-0.17-0.02-0.29-0.02-0.38-0.02c0.04,0.07,0.06,0.27,0.14,0.6c0.47,1.93,1.71,3,3.69,3.18
		C125.12,30.12,128,33.35,128,38.72z M73.55,21.54c0.1,0.01,0.16,0,0.21,0c0-0.05,0-0.12-0.01-0.21c-0.07-1.88-0.04-3.77,0-5.66
		c0.04-2.11,1.42-2.39,2.01-2.41c0.73-0.07,1.26,0.27,1.52,0.53c0.57,0.56,0.65,1.37,0.66,1.93l0.01,0.94
		c0.02,1.47,0.04,2.93-0.03,4.39c-0.01,0.29,0,0.43,0.02,0.49c0.03-0.01,0.14,0.01,0.34,0.01c0.03,0,0.05,0,0.08,0
		c1.89-0.04,3.75-0.06,5.59-0.06c1.87,0,3.71,0.02,5.51,0.06c0.23,0.01,0.36-0.01,0.42-0.02c-0.02-0.04,0-0.19-0.01-0.49
		c-0.05-2.51-0.04-5.02-0.03-7.53l0.01-2.69c0-0.78,0-2.85,2.03-2.94c0.64-0.05,1.17,0.15,1.56,0.54c0.64,0.63,0.63,1.56,0.63,2.24
		l0,1.92c0.01,2.88,0.01,5.77-0.02,8.65c0,0.15,0,0.25,0.01,0.32c0.03,0,0.06,0,0.1,0c0.01,0,0.03,0,0.04,0
		c3.8-0.05,7.76-0.05,11.74,0c0.03,0,0.05,0,0.06,0c0-0.05,0-0.11,0-0.18c-0.04-1.59-0.03-3.17-0.01-4.76l0.01-0.71
		c0.01-0.6,0.08-1.46,0.67-2.05c0.27-0.27,0.74-0.58,1.54-0.57c1.33,0.02,2,0.89,1.99,2.58l0.01,1.64c0.01,1.28,0.02,2.56-0.03,3.84
		c0,0.09,0,0.17,0,0.22c0.04,0,0.11,0,0.19,0c2.45-0.07,4.91-0.07,7.31,0c0.08,0,0.14,0,0.19,0c0-0.05,0-0.12,0-0.22
		c-0.03-2.63-0.03-5.27-0.02-7.9l0-3.5c-0.01-3.9-1.61-5.56-5.36-5.57l-14.2,0l-6.09,0l-6.52,0c-4.92,0-9.84-0.01-14.76,0.01
		c-2.95,0.01-4.74,1.81-4.79,4.81c-0.04,2.25-0.03,4.5-0.03,6.75c0.01,1.83,0.01,3.65-0.01,5.48c0,0.05,0,0.09,0,0.13
		c0.04,0,0.08,0,0.14,0C68.93,21.48,71.32,21.48,73.55,21.54z M123.83,43.56c-0.01-0.05-0.01-0.14-0.02-0.27
		c-0.07-1.08-0.06-2.18-0.04-3.27c0.01-0.52,0.02-1.04,0.01-1.55c-0.02-2.79-1.36-4.26-4.1-4.5c-4.49-0.4-7.38-3.31-7.73-7.78
		c-0.01-0.17-0.03-0.27-0.05-0.33c-0.03,0.02-0.15,0.01-0.35,0.01c-0.01,0-0.02,0-0.03,0c-13.03,0.03-26.07,0.02-39.1,0.01
		c-0.14,0.03-0.29,0.01-0.35,0.01c0,0.04-0.02,0.12-0.03,0.24c-0.63,4.89-3.08,7.31-7.94,7.85c-2.57,0.28-3.84,1.73-3.88,4.41
		c-0.01,0.54,0,1.09,0.01,1.63c0.02,0.99,0.04,2.01-0.05,3.03c-0.03,0.34,0,0.48,0.01,0.52c0-0.01,0.02-0.02,0.06-0.02
		c0.09,0,0.29,0.02,0.62,0.02c8-0.04,15.99-0.03,23.99-0.03l7.19,0l6.67,0c8.23,0,16.45,0,24.68,0.02
		C123.62,43.58,123.75,43.57,123.83,43.56z M123.85,116.33c-0.04-0.58-0.11-0.72-0.13-0.75c0.02,0.02-0.14-0.03-0.65-0.03
		c-0.01,0-0.01,0-0.02,0c-16.54,0.04-33.08,0.04-49.62,0.03l-12.7,0.01c-0.18,0-0.36,0.01-0.53,0c-0.22,2.66,0.31,4.72,1.52,6.08
		c1.18,1.33,3.03,2,5.26,2.01c5.84-0.05,11.68-0.05,17.51-0.03l7.4,0.01c2.44,0,4.89-0.01,7.33-0.02c2.41-0.01,4.85-0.02,7.31-0.02
		c3.37,0,6.76,0.02,10.12,0.1c2.39,0.07,4.29-0.68,5.58-2.07C123.43,120.34,123.99,118.51,123.85,116.33z M55.31,111.8l-2.17,1.75
		c-5.06,4.11-9.23,7.58-13.1,11.69c-0.52,0.55-1.16,1.11-2.01,1.11c0,0,0,0-0.01,0c-0.6,0-1.18-0.29-1.72-0.87
		c-4.33-4.65-9.34-8.71-14.18-12.63c-1.83-1.49-3.67-2.97-5.48-4.5c-4.67-3.94-8.34-7.49-11.06-12.02
		c-5.98-9.99-7.16-20.1-3.5-30.03c3.16-8.6,9.65-13.5,18.76-14.17c6.54-0.49,12.29,2.35,16.62,8.18c0.2,0.27,0.39,0.54,0.59,0.82
		c3-4.44,6.73-7.2,11.37-8.4c10.28-2.66,21.1,3.3,24.63,13.56c3.95,11.47,2.13,22.48-5.41,32.72
		C64.89,104.1,60.02,108.01,55.31,111.8z M71.72,76.81c-0.06-5.69-1.41-10.06-4.26-13.76c-3.11-4.04-7.67-6.45-12.5-6.62
		c-4.58-0.17-8.87,1.68-11.97,5.2c-1.2,1.36-2.13,3-2.89,4.44c-0.55,1.02-1.22,1.55-1.98,1.57c-0.84,0.02-1.48-0.51-2.09-1.55
		c-0.18-0.3-0.35-0.62-0.52-0.93c-0.28-0.51-0.56-1.01-0.87-1.5c-4.44-6.81-12.04-9.07-19.34-5.76C8.12,61.13,4.14,68.28,4.36,77.51
		l0.07,1.01c0.06,0.94,0.14,2.09,0.28,3.23c0.89,7.38,4.39,13.85,10.72,19.78c3.12,2.92,6.5,5.66,9.77,8.3
		c4.35,3.52,8.85,7.16,12.84,11.32c0.01-0.01,0.03-0.03,0.04-0.04l1.03-1.02c1.24-1.22,2.52-2.49,3.88-3.64
		c2.63-2.23,5.29-4.43,7.94-6.63c2.52-2.09,5.04-4.19,7.55-6.3C67.49,95.92,71.82,87.18,71.72,76.81z M77.85,94.88
		c0.01-5.08,3.78-8.79,8.96-8.81c6.05-0.02,12.1-0.05,18.15,0.01c4.5,0.04,8.03,3.26,8.59,7.82c0.53,4.32-1.98,8.22-6.11,9.5
		c-0.98,0.3-1.93,0.3-2.85,0.31c-2.34,0.01-4.47,0.01-6.62,0.01l-2.33,0l-2.72,0.01c-0.91,0-1.82,0.01-2.72,0.01
		c-1.16,0-2.32-0.01-3.47-0.02C81.49,103.64,77.83,100.01,77.85,94.88z M97.77,92.68c0.08,0.64,0.15,1.31,0.1,1.91l0,1.49
		c0.01,1.14,0.01,2.17-0.01,3.21c0,0.03,0,0.07,0,0.09c1.21-0.02,2.27-0.01,3.33-0.01c1.46,0.01,2.9,0.01,4.35-0.07
		c2.07-0.1,3.63-1.72,3.86-4.03c0.2-2-1.14-4.03-3.07-4.63c-0.97-0.3-2.01-0.28-3.1-0.25c-0.35,0.01-0.69,0.02-1.05,0.02
		c-0.51,0-1.06-0.05-1.62-0.11c-0.96-0.09-2.28-0.22-2.67,0.13C97.54,90.74,97.67,91.82,97.77,92.68z M82.06,95.12
		c0.06,2.45,1.76,4.14,4.24,4.22c1.31,0.04,2.62,0.03,3.93,0.03c0.45,0,0.9-0.01,1.34-0.01c0.65,0,1.31,0.01,1.96,0.02
		c0.05,0,0.09,0,0.13,0c0-0.03,0-0.07,0-0.12c-0.04-1-0.04-2.01-0.03-3.01l0.01-1.28l0-1.31c0-1.1-0.01-2.2,0.01-3.29
		c-1.05,0-1.97,0-2.9-0.01c-1.52-0.01-3.03-0.03-4.54,0.05C83.71,90.57,82,92.5,82.06,95.12z M113.5,63.69
		c-0.01,2.19-0.01,4.37-0.01,6.56l0,3.28c0,1.53,0,3.06-0.01,4.59c-0.02,2.89-1.46,5.06-4.17,6.29c-1.04,0.47-2.09,0.71-3.14,0.71
		c-1.58,0-3.16-0.53-4.66-1.59c-1-0.71-1.26-1.91-0.64-2.97c0.39-0.66,0.9-0.9,1.26-0.98c0.54-0.13,1.13,0,1.67,0.38
		c0.78,0.53,1.51,0.79,2.24,0.8c1.08-0.05,2.07-0.38,2.63-1.06c0.38-0.47,0.59-1.08,0.61-1.82c-4.45,1.27-8.21-0.41-9.98-4.54
		c-1.87-4.34-0.2-9.38,3.8-11.48c1.91-1.01,3.7-1.22,5.49-0.65c0.2,0.07,0.41,0.15,0.61,0.23c0.71,0.29,0.96,0.37,1.46-0.01
		c0.56-0.41,1.18-0.49,1.71-0.2C113.21,61.64,113.51,62.77,113.5,63.69z M109.29,68.25c0-1.16-0.39-2.08-1.08-2.59
		c-0.4-0.28-0.88-0.43-1.41-0.43c-0.42,0-0.88,0.09-1.35,0.27c-1.85,0.7-2.79,2.45-2.58,4.83c0.17,1.96,1.57,3.47,3.48,3.75
		c0.82,0.12,1.56-0.08,2.11-0.57c0.54-0.48,0.84-1.21,0.84-2.04V68.25z M63.08,83.97l-0.27,0l-2.81-0.01
		c-2.75-0.01-5.51-0.02-8.26,0.03c-0.67-0.02-0.83-0.09-1.09-0.67c-1.3-2.93-2.64-5.83-3.99-8.74l-1.58-3.43
		c-0.28-0.65-0.87-2-2.5-1.76c-1.46,0.23-1.74,1.61-1.92,2.47c-0.53,2.41-1.05,4.82-1.57,7.23l-4.82,22.06
		c-2.39-4-4.77-8-7.15-12.01c-0.52-0.89-1.31-1.73-2.77-1.77c-2.66,0.03-5.31,0.03-7.97,0.02l-3.73,0c-0.57,0-1.39,0.07-1.96,0.7
		c-0.39,0.42-0.56,0.98-0.53,1.66c0.1,1.97,1.84,1.98,2.52,1.98c0,0,0.01,0,0.01,0l3.3,0c2.37,0.01,4.74,0.01,7.11-0.03
		c0.53-0.01,0.66,0.08,0.95,0.58c1.76,3.02,3.55,6.02,5.34,9.02l2.42,4.05c0.42,0.69,0.84,1.39,1.28,2.15
		c0.32,0.55,0.88,1.54,2.04,1.54c0.13,0,0.27-0.01,0.41-0.04c1.28-0.23,1.59-1.36,1.76-1.97l0.07-0.26
		c0.06-0.18,0.09-0.37,0.14-0.75l6.11-27.89l0.26,0.55c1.21,2.63,2.36,5.1,3.47,7.6c0.64,1.45,1.58,2.05,3.17,2.06
		c3.2-0.05,6.4-0.04,9.6-0.03l2.91,0.01c0.74,0,2.78,0.02,2.82-2.13c0.01-0.67-0.18-1.21-0.56-1.61
		C64.68,83.94,63.75,83.95,63.08,83.97z"/>
</g>
</svg>
