<?xml version="1.0" encoding="utf-8"?>
<!-- Generator: Adobe Illustrator 27.9.0, SVG Export Plug-In . SVG Version: 6.00 Build 0)  -->
<svg version="1.1" id="Layer_1" xmlns="http://www.w3.org/2000/svg" xmlns:xlink="http://www.w3.org/1999/xlink" x="0px" y="0px"
	 viewBox="0 0 128 128" style="enable-background:new 0 0 128 128;" xml:space="preserve">
<path d="M127.98,103.87c-0.02,5.09-4.62,9.61-9.73,9.63c-10.25,0.03-20.5,0.01-30.74,0.01c-10.33,0-20.66,0-30.99,0
	c-1.46,0-2.28-0.68-2.25-1.88c0.03-1.07,0.61-1.69,1.65-1.85c0.37-0.06,0.75-0.02,1.12-0.02c19.95,0,39.91,0,59.86,0
	c4.75,0,7.35-2.57,7.35-7.29c0-9.08,0.01-18.16-0.01-27.24c0-0.99,0.31-1.72,1.23-2.09c0.83-0.33,1.55-0.07,2.13,0.59
	c0.35,0.4,0.41,0.88,0.41,1.4C127.99,84.71,128.02,94.29,127.98,103.87z M44.27,56.32c0.08-0.19,0.14-0.38,0.2-0.58
	c0.01-0.03-0.02-0.08-0.06-0.21c-2.25,0-4.53,0.02-6.8-0.01c-0.74-0.01-0.65,0.43-0.65,0.88c0,1.96,0,3.92,0,5.87
	c0,12.62,0.02,25.24-0.03,37.87c0,1.09,0.23,1.48,1.35,1.36c0.99-0.11,2-0.04,3-0.01c2.27,0.06,3.88,1.68,3.94,3.96
	c0.03,1.21,0.03,2.42-0.01,3.62c-0.02,0.55,0.15,0.73,0.7,0.7c0.87-0.04,1.75-0.03,2.62-0.01c1.23,0.03,1.99,0.79,1.96,1.93
	c-0.03,1.07-0.78,1.8-1.94,1.81c-2.83,0.02-5.67,0.01-8.5,0.01c-9.79,0-19.58,0-29.37,0c-5.39,0-9-2.75-10.46-7.98
	c-0.03-0.1-0.15-0.18-0.22-0.27C0,84.68,0,64.1,0,43.52c0.41-0.46,0.36-1.07,0.56-1.6c1.26-3.39,4.67-6.94,10.22-6.68
	c1.26,0.06,1.8-0.23,1.64-1.59c-0.12-1.03-0.06-2.08,0.02-3.12c0.15-1.93,1.49-3.41,3.4-3.53c3.12-0.2,6.25-0.21,9.36,0
	c2.06,0.15,3.37,1.79,3.45,4.04c0.04,1.12,0.01,2.25,0.01,3.37c0,0.45,0,0.82,0.63,0.81c3.04-0.05,6.08,0.05,9.11-0.13
	c2.49-0.15,4.23-1.62,5.18-3.92c1.33-3.21,2.7-6.41,3.88-9.68c1.57-4.35,5.66-7.06,10.26-7.01c11.2,0.13,22.41,0.04,33.62,0.04
	c4.52,0,7.95,2.3,9.68,6.51c1.34,3.25,2.62,6.53,3.95,9.79c1.21,2.98,3.31,4.37,6.56,4.39c2.33,0.01,4.67-0.03,7,0.06
	c5.14,0.2,9.44,4.64,9.46,9.75c0.03,7.37,0.01,14.75,0.01,22.12c0,1.37-0.7,2.14-1.87,2.14c-1.18,0-1.87-0.77-1.87-2.14
	c-0.01-3.54-0.01-7.08,0-10.62c0-0.55,0.11-1.02-0.78-1.01c-5.03,0.05-10.06,0.02-15.22,0.02c1.15,2.67,2.09,5.32,2.57,8.1
	c0.07,0.44,0.34,0.6,0.79,0.58c0.83-0.03,1.67-0.03,2.5,0.02c3.23,0.18,5.68,2.86,5.63,6.13c-0.05,3.19-2.7,5.82-5.91,5.9
	c-0.94,0.02-2.13-0.4-2.76,0.2c-0.56,0.53-0.5,1.69-0.75,2.57C106.2,93.02,97,101.76,82.78,104.65
	c-18.79,3.82-37.59-9.33-40.8-28.09C40.78,69.58,41.48,62.84,44.27,56.32z M111.44,71.94c-0.01,0.33,0.03,0.58,0.45,0.56
	c0.87-0.05,1.75,0.13,2.6-0.21c1.01-0.41,1.51-1.21,1.41-2.25c-0.1-1.1-0.77-1.83-1.9-2.02c-2.35-0.38-2.53-0.21-2.56,2.17
	C111.45,70.77,111.46,71.36,111.44,71.94z M16.22,31.4c0.04,1.04,0.04,2.08,0,3.12c-0.02,0.55,0.19,0.72,0.73,0.7
	c1.16-0.03,2.33-0.01,3.49-0.01c1.16,0,2.33-0.03,3.49,0.01c0.63,0.02,0.91-0.14,0.87-0.82c-0.05-0.95-0.04-1.91,0-2.87
	c0.02-0.55-0.08-0.82-0.73-0.81c-2.37,0.04-4.74,0.03-7.11,0.01C16.46,30.73,16.19,30.81,16.22,31.4z M3.74,50.76
	c-0.05,0.8,0.17,1.04,1.01,1.03c4.54-0.04,9.07-0.02,13.61-0.02c4.54,0,9.07-0.02,13.61,0.02c0.81,0.01,1.15-0.09,1.13-1.04
	c-0.07-3.58-0.05-7.16-0.01-10.74c0.01-0.82-0.22-1.02-1.03-1.02c-7.32,0.03-14.65,0.01-21.97,0.03c-3,0.01-5.52,2.1-6.12,5.02
	C3.51,46.27,3.88,48.52,3.74,50.76z M24.79,105.45c0.07-2.29,1.68-3.9,3.95-3.96c1.04-0.03,2.09-0.08,3.12,0.01
	c1.01,0.09,1.23-0.27,1.22-1.24c-0.04-7.25-0.02-14.5-0.02-21.75c0-7.29,0-14.58,0-21.87c0-0.55,0.21-1.13-0.79-1.13
	c-9.25,0.03-18.5,0.02-27.75,0.01c-0.58,0-0.8,0.13-0.79,0.75c0.03,2.37,0.04,4.75,0,7.12c-0.01,0.68,0.22,0.84,0.86,0.82
	c1.83-0.04,3.67-0.04,5.5,0c1.22,0.03,1.91,0.73,1.92,1.83c0.02,1.13-0.73,1.9-1.96,1.95c-0.92,0.04-1.83-0.01-2.75,0.01
	c-1.15,0.04-2.71-0.5-3.35,0.2c-0.69,0.75-0.11,2.3-0.21,3.49c-0.06,0.7,0.23,0.82,0.86,0.81c1.83-0.04,3.67-0.03,5.5,0
	c1.18,0.02,1.91,0.74,1.93,1.82c0.02,1.13-0.74,1.9-1.97,1.93c-0.92,0.03-1.83-0.02-2.75,0.01c-1.15,0.04-2.78-0.5-3.33,0.2
	c-0.59,0.76-0.15,2.3-0.23,3.49c-0.04,0.68,0.2,0.83,0.84,0.82c1.79-0.04,3.58-0.03,5.37-0.01c1.28,0.01,2.04,0.7,2.07,1.82
	c0.03,1.2-0.72,1.92-2.07,1.94c-1.79,0.02-3.58,0.03-5.37-0.01c-0.65-0.02-0.84,0.17-0.84,0.83c0.02,6-0.03,12,0.03,18
	c0.03,3.48,2.63,6.27,6.08,6.37c4.75,0.14,9.5,0.03,14.25,0.06c0.55,0,0.72-0.16,0.7-0.7C24.76,107.87,24.75,106.66,24.79,105.45z
	 M29.36,105.25c-0.54,0-0.73,0.16-0.71,0.71c0.04,1,0.05,2,0,3c-0.04,0.67,0.19,0.84,0.84,0.83c1.83-0.04,3.67-0.01,5.5-0.01
	c0.96,0,1.92,0.03,2.87-0.01c1.16-0.04,2.79,0.51,3.34-0.22c0.58-0.78,0.16-2.32,0.17-3.52c0-0.04,0-0.08,0-0.12
	c0.06-0.49-0.15-0.65-0.64-0.64C36.94,105.27,33.15,105.27,29.36,105.25z M107.65,70.28c-0.07-17.34-13.84-30.87-30.46-31.25
	C59.28,38.6,45.31,53.1,45.22,69.87c-0.09,17.41,13.76,31.51,31.12,31.61C93.47,101.58,107.55,87.55,107.65,70.28z M45.26,51.8
	c1.06,0.04,1.62-0.32,2.19-1.17c8.22-12.41,23.96-18.22,38.28-14.17c8.37,2.37,14.97,7.19,19.85,14.38c0.31,0.46,0.53,0.95,1.3,0.94
	c5.54-0.04,11.08-0.03,16.62-0.01c0.61,0,0.77-0.18,0.76-0.77c-0.04-1.92,0.04-3.84-0.03-5.75c-0.15-3.63-2.92-6.23-6.58-6.25
	c-2.08-0.01-4.17,0-6.25,0c-4.64-0.01-8.14-2.33-9.89-6.61c-1.28-3.14-2.52-6.3-3.78-9.45c-1.31-3.26-3.38-4.67-6.88-4.67
	c-5.46,0-10.92,0-16.37,0c-5.5,0-11,0-16.5,0c-3.61,0-5.62,1.37-6.97,4.72c-1.33,3.3-2.57,6.65-4.01,9.9
	c-1.72,3.9-4.85,5.9-9.09,6.09c-0.76,0.03-0.97,0.2-0.96,0.97c0.04,3.62,0.04,7.25,0,10.87c-0.01,0.76,0.17,0.98,0.96,0.97
	C40.34,51.74,42.8,51.7,45.26,51.8z M119.74,99.25c0,1.33,0.02,2.66-0.01,3.99c-0.03,1.28-0.75,2-2.03,2.01
	c-2.66,0.02-5.33,0.02-7.99,0c-1.29-0.01-2.02-0.69-2.04-2c-0.04-2.7-0.04-5.41,0-8.11c0.02-1.27,0.68-1.92,1.95-1.94
	c2.7-0.05,5.41-0.05,8.11,0c1.3,0.02,1.96,0.76,1.99,2.05C119.76,96.59,119.74,97.92,119.74,99.25z M115.96,99.34
	c0-2.34,0-2.34-2.3-2.34c-2.18,0-2.18,0-2.18,2.19c0,2.3,0,2.3,2.34,2.3C115.96,101.48,115.96,101.48,115.96,99.34z M58.94,30.48
	c0.49,0.29,1.03,0.27,1.57,0.27c4.62-0.01,9.24,0,13.86,0c4.5,0,8.99,0,13.49,0c1.99,0,2.88-0.61,2.87-1.95
	c-0.01-1.32-0.9-1.9-2.93-1.9c-8.99,0-17.98,0-26.97,0c-0.5,0-1.01,0.01-1.49,0.12c-0.81,0.19-1.27,0.74-1.36,1.58
	C57.91,29.43,58.22,30.06,58.94,30.48z M103.21,70.19C103.24,84.85,91.18,96.97,76.52,97c-14.79,0.03-26.79-11.92-26.83-26.73
	c-0.03-14.76,11.85-26.7,26.62-26.76C91.1,43.45,103.17,55.43,103.21,70.19z M99.33,70.32c0.08-12.58-10.13-22.97-22.66-23.05
	c-12.5-0.09-23.08,10.1-23.18,22.31c-0.1,13.14,9.94,23.5,22.87,23.6C88.93,93.28,99.24,83.02,99.33,70.32z M86.6,70.24
	c-0.01,5.62-4.7,10.29-10.25,10.21c-5.59-0.08-10.1-4.65-10.1-10.23c0-5.64,4.61-10.22,10.24-10.19
	C82.05,60.06,86.61,64.66,86.6,70.24z M82.77,70.11c-0.03-3.45-2.95-6.31-6.4-6.27c-3.47,0.04-6.34,2.93-6.35,6.38
	c-0.01,3.52,2.89,6.36,6.46,6.34C80.05,76.55,82.79,73.73,82.77,70.11z"/>
</svg>
