<?xml version="1.0" encoding="utf-8"?>
<!-- Generator: Adobe Illustrator 27.9.0, SVG Export Plug-In . SVG Version: 6.00 Build 0)  -->
<svg version="1.1" id="Layer_1" xmlns="http://www.w3.org/2000/svg" xmlns:xlink="http://www.w3.org/1999/xlink" x="0px" y="0px"
	 viewBox="0 0 128 128" style="enable-background:new 0 0 128 128;" xml:space="preserve">
<g>
	<path d="M0,30.57c3.6,0,7.04-0.03,10.47,0.04c0.43,0.01,0.98,0.47,1.25,0.87c3.31,4.9,6.59,9.81,9.83,14.76
		c0.51,0.78,1.04,1.07,1.99,1.07c19.14-0.09,38.28-0.19,57.42-0.19c6.09,0,12.17,0.27,18.26,0.46c3.24,0.1,7.93,1.23,10.34,2.41
		c-1.08,0.14-2.05,0.17-2.97,0.39c-4.11,0.99-6.66,4.65-6.3,8.96c0.32,3.84,3.6,7.18,7.6,7.3c6.09,0.17,12.18,0.08,18.27,0.1
		c0.56,0,1.12,0,1.85,0c-0.09,0.59-0.11,1.04-0.23,1.47c-1.12,4.02-4.6,6.92-8.78,6.94c-13.09,0.08-26.19,0.03-39.28,0.03
		c-0.11,0-0.22-0.06-0.73-0.22c1.3-1.21,2.55-2.16,3.53-3.34c0.54-0.65,0.93-1.71,0.83-2.52c-0.2-1.69-0.94-2.14-2.96-2.23
		c-1.82-0.08-3.65-0.1-5.48-0.1c-8.13,0.01-16.27,0.07-24.4,0.04c-1.28,0-2.17,0.46-2.85,1.46c-1.34,1.98-2.69,3.95-3.97,5.97
		c-0.45,0.71-0.92,0.98-1.77,0.97c-4.35-0.05-8.7-0.01-13.05-0.02C18.16,75.16,9.44,68.36,6.8,57.96
		C4.57,49.18,2.38,40.39,0.17,31.6C0.1,31.31,0.07,31.01,0,30.57z M41.71,57.1c-0.03-0.64-0.03-1.25-0.11-1.85
		c-0.19-1.41-1.26-2.33-2.66-2.33c-1.41,0-2.54,0.9-2.66,2.32c-0.1,1.2-0.1,2.43,0.01,3.63c0.13,1.35,1.23,2.24,2.57,2.26
		c1.41,0.03,2.52-0.87,2.73-2.25C41.68,58.29,41.68,57.68,41.71,57.1z M75.13,57.17c-0.04-0.69-0.03-1.31-0.1-1.9
		c-0.19-1.42-1.25-2.34-2.65-2.35c-1.41-0.01-2.55,0.89-2.67,2.3c-0.11,1.24-0.1,2.52,0.02,3.76c0.13,1.27,1.25,2.12,2.54,2.15
		c1.36,0.04,2.49-0.81,2.72-2.11C75.1,58.4,75.09,57.74,75.13,57.17z M30.62,57.4c-0.05-0.96-0.01-1.58-0.12-2.17
		c-0.28-1.53-1.47-2.41-2.99-2.28c-1.43,0.12-2.39,1.16-2.44,2.7c-0.03,1-0.04,2,0.01,2.99c0.07,1.28,1.05,2.31,2.27,2.48
		c1.33,0.19,2.57-0.5,2.97-1.77C30.56,58.62,30.56,57.82,30.62,57.4z M52.8,57.11c0-0.48,0.01-0.96,0-1.43
		c-0.06-1.6-1.05-2.66-2.54-2.74c-1.5-0.08-2.72,0.85-2.89,2.39c-0.13,1.11-0.13,2.26-0.01,3.38c0.17,1.53,1.4,2.5,2.87,2.43
		c1.47-0.06,2.51-1.16,2.57-2.73C52.81,57.97,52.8,57.54,52.8,57.11z M64.05,57.4c-0.05-0.99-0.01-1.6-0.13-2.19
		c-0.29-1.53-1.49-2.4-3.01-2.26c-1.43,0.13-2.38,1.17-2.42,2.72c-0.03,1-0.04,2,0.01,2.99c0.07,1.28,1.06,2.3,2.29,2.46
		c1.28,0.17,2.52-0.47,2.91-1.67C63.96,58.68,63.98,57.84,64.05,57.4z M86.22,57.06c0-0.43,0.01-0.87,0-1.3
		c-0.05-1.64-0.98-2.7-2.46-2.82c-1.56-0.13-2.82,0.82-2.99,2.42c-0.12,1.11-0.12,2.27,0.01,3.38c0.18,1.53,1.43,2.47,2.91,2.39
		c1.46-0.08,2.47-1.19,2.53-2.77C86.23,57.93,86.22,57.5,86.22,57.06z"/>
	<path d="M73.98,72.35c-0.5,0.53-0.79,0.85-1.09,1.15c-8.58,8.59-17.17,17.16-25.74,25.77c-0.73,0.74-1.45,1.04-2.5,1.02
		c-3.78-0.07-7.56-0.03-11.6-0.03c0.29-0.5,0.47-0.86,0.69-1.19c5.79-8.63,11.57-17.25,17.39-25.86c0.25-0.37,0.76-0.82,1.15-0.82
		C59.41,72.34,66.54,72.35,73.98,72.35z"/>
	<path d="M62.86,44.53c-3.73,0-7.12,0-10.5,0c-2.43,0-4.87,0.03-7.3-0.03c-0.44-0.01-1.05-0.25-1.28-0.59
		c-3.5-5.18-6.96-10.39-10.42-15.6c-0.07-0.1-0.1-0.23-0.2-0.5c0.42-0.03,0.78-0.09,1.14-0.09c3.61-0.01,7.22-0.03,10.83,0.02
		c0.54,0.01,1.23,0.21,1.6,0.58c5.2,5.13,10.35,10.31,15.51,15.48C62.36,43.95,62.48,44.11,62.86,44.53z"/>
	<path d="M126.91,61.18c-0.64,0.03-1.06,0.06-1.47,0.06c-5.3,0-10.59,0-15.89,0c-0.48,0-0.96-0.01-1.43-0.09
		c-1.43-0.24-2.39-1.42-2.34-2.84c0.05-1.45,1.18-2.64,2.66-2.65c4.04-0.04,8.07-0.02,12.11-0.02c0.21,0,0.46,0,0.63,0.1
		C123.46,57.06,125.33,58.8,126.91,61.18z"/>
	<path d="M59.9,94.57c3.38-3.4,6.68-6.72,9.99-10.05c1.93,1.3,2.85,3.51,2.34,5.68c-0.57,2.42-2.37,4.2-4.75,4.34
		C64.98,94.68,62.46,94.57,59.9,94.57z"/>
</g>
</svg>
