<?xml version="1.0" encoding="utf-8"?>
<!-- Generator: Adobe Illustrator 27.9.0, SVG Export Plug-In . SVG Version: 6.00 Build 0)  -->
<svg version="1.1" id="Layer_1" xmlns="http://www.w3.org/2000/svg" xmlns:xlink="http://www.w3.org/1999/xlink" x="0px" y="0px"
	 viewBox="0 0 128 128" style="enable-background:new 0 0 128 128;" xml:space="preserve">
<g>
	<path d="M62.22,52.38c0.65,0.98,1.98,1.25,2.96,0.59c0.23-0.16,0.44-0.36,0.59-0.59l4.27-6.4c0.48-0.72,0.48-1.65,0-2.37l-4.27-6.4
		c-0.65-0.98-1.98-1.25-2.96-0.59c-0.23,0.16-0.44,0.36-0.59,0.59l-4.27,6.4c-0.48,0.72-0.48,1.65,0,2.37L62.22,52.38z M64,42.25
		l1.7,2.55L64,47.35l-1.7-2.55L64,42.25z"/>
	<path d="M62.22,31.05c0.65,0.98,1.98,1.25,2.96,0.59c0.23-0.16,0.44-0.36,0.59-0.59l4.27-6.4c0.48-0.72,0.48-1.65,0-2.37l-4.27-6.4
		c-0.65-0.98-1.98-1.25-2.96-0.59c-0.23,0.16-0.44,0.36-0.59,0.59l-4.27,6.4c-0.48,0.72-0.48,1.65,0,2.37L62.22,31.05z M64,20.91
		l1.7,2.55L64,26.02l-1.7-2.55L64,20.91z"/>
	<path d="M33.78,45.98l4.27,6.4c0.65,0.98,1.98,1.25,2.96,0.59c0.23-0.16,0.44-0.36,0.59-0.59l4.27-6.4c0.48-0.72,0.48-1.65,0-2.37
		l-4.27-6.4c-0.65-0.98-1.98-1.25-2.96-0.59c-0.23,0.16-0.44,0.36-0.59,0.59l-4.27,6.4C33.3,44.33,33.3,45.27,33.78,45.98z
		 M39.82,42.25l1.7,2.55l-1.7,2.55l-1.7-2.55L39.82,42.25z"/>
	<path d="M12.81,44.89c0.13,10.26,3.81,20.15,10.42,28l24.21,28.75c0.41,0.48,1,0.76,1.63,0.76h2.55l4.56,8.53h-2.84
		c-1.18,0-2.13,0.96-2.13,2.13v12.8c0,1.18,0.96,2.13,2.13,2.13h21.33c1.18,0,2.13-0.96,2.13-2.13v-12.8c0-1.18-0.96-2.13-2.13-2.13
		h-3.28l4.56-8.53h2.99c0.63,0,1.23-0.28,1.63-0.76l24.21-28.75c6.6-7.85,10.28-17.75,10.42-28c0-0.05,0-0.1,0-0.15
		c0-0.13,0-0.27,0-0.4v0C115.2,19.89,95.31,0,70.87,0H57.13C32.69,0,12.8,19.89,12.8,44.33c0,0.14,0,0.27,0,0.41
		C12.8,44.79,12.8,44.84,12.81,44.89z M72.53,115.2v8.53H55.47v-8.53H72.53z M56.46,102.4h14.65l-4.56,8.53h-5.54L56.46,102.4z
		 M110.22,36.81c-0.88-0.79-2.23-0.71-3.01,0.17c-0.07,0.08-0.13,0.16-0.19,0.24l-4.27,6.4c-0.48,0.72-0.48,1.65,0,2.37l4.27,6.4
		c0.65,0.98,1.97,1.24,2.95,0.59c0,0,0.01-0.01,0.01-0.01c-1.4,6.32-4.3,12.22-8.47,17.17L77.94,98.13H76.3l17.14-28.57
		c8.42-14.04,9.09-31.4,1.77-46.04l-7.85-15.7C99.23,13.21,107.75,24.01,110.22,36.81z M110.5,44.8l-1.7,2.55l-1.7-2.55l1.7-2.55
		L110.5,44.8z M81.54,5.71l9.86,19.72c6.67,13.33,6.06,29.15-1.61,41.94L71.33,98.13h-4.21l7.97-20.5
		c3.96-10.15,5.98-20.95,5.97-31.84c0.01-10.78-1.98-21.48-5.86-31.54l-3.84-9.97C74.81,4.31,78.23,4.8,81.54,5.71z M61.2,4.27h5.6
		l4.43,11.51c3.69,9.57,5.58,19.75,5.57,30.01c0.01,10.37-1.92,20.64-5.68,30.3L64,94.38l-7.12-18.3
		c-7.54-19.39-7.58-40.89-0.11-60.31L61.2,4.27z M56.62,4.27l-3.84,9.97c-7.85,20.41-7.81,43.01,0.12,63.38l7.97,20.5h-4.21
		L38.21,67.37c-7.67-12.78-8.28-28.6-1.61-41.94l9.86-19.72C49.77,4.8,53.19,4.31,56.62,4.27z M40.64,7.82l-7.85,15.7
		c-7.32,14.64-6.65,32,1.77,46.04L51.7,98.13h-1.64L26.49,70.14c-4.17-4.96-7.08-10.85-8.47-17.17c0.97,0.66,2.3,0.4,2.95-0.57
		c0,0,0.01-0.01,0.01-0.01l4.27-6.4c0.48-0.72,0.48-1.65,0-2.37l-4.27-6.4c-0.65-0.98-1.98-1.25-2.96-0.59
		c-0.08,0.06-0.16,0.12-0.24,0.19C20.25,24.01,28.77,13.21,40.64,7.82L40.64,7.82z M19.2,42.25l1.7,2.55l-1.7,2.55l-1.7-2.55
		L19.2,42.25z"/>
	<path d="M86.4,52.38c0.65,0.98,1.98,1.25,2.96,0.59c0.23-0.16,0.44-0.36,0.59-0.59l4.27-6.4c0.48-0.72,0.48-1.65,0-2.37l-4.27-6.4
		c-0.65-0.98-1.98-1.25-2.96-0.59c-0.23,0.16-0.44,0.36-0.59,0.59l-4.27,6.4c-0.48,0.72-0.48,1.65,0,2.37L86.4,52.38z M88.18,42.25
		l1.7,2.55l-1.7,2.55l-1.7-2.55L88.18,42.25z"/>
	<path d="M62.22,73.72c0.65,0.98,1.98,1.25,2.96,0.59c0.23-0.16,0.44-0.36,0.59-0.59l4.27-6.4c0.48-0.72,0.48-1.65,0-2.37l-4.27-6.4
		c-0.65-0.98-1.98-1.25-2.96-0.59c-0.23,0.16-0.44,0.36-0.59,0.59l-4.27,6.4c-0.48,0.72-0.48,1.65,0,2.37L62.22,73.72z M64,63.58
		l1.7,2.55L64,68.69l-1.7-2.55L64,63.58z"/>
</g>
</svg>
