<?xml version="1.0" encoding="utf-8"?>
<!-- Generator: Adobe Illustrator 28.0.0, SVG Export Plug-In . SVG Version: 6.00 Build 0)  -->
<svg version="1.1" id="Layer_1" xmlns="http://www.w3.org/2000/svg" xmlns:xlink="http://www.w3.org/1999/xlink" x="0px" y="0px"
	 viewBox="0 0 128 128" style="enable-background:new 0 0 128 128;" xml:space="preserve">
<g>
	<path d="M113.3,33.1c-9.9-5.4-24.3-8.2-41.7-8.2c-17.7,0-34.4,2.9-47,8.1c-1.5,0.6-3,1.3-4.4,2c-5-4.5-11.5-7-18.3-7
		c-1,0-1.9,0.8-1.9,1.9V40c0,4.2,1.5,8.3,4.4,11.5c0,0,0.1,0.1,0.1,0.1c-0.1,0.8-0.2,1.6-0.2,2.4c0,1.6,0.3,3.1,0.8,4.6
		c0,0-0.1,0.1-0.1,0.1C1.8,62,0,66.3,0,70.8v10.1c0,1,0.8,1.9,1.9,1.9c7.7,0,15-3.2,20.2-8.9c0.8,0.4,1.6,0.7,2.5,1.1
		c7,2.9,15.3,5.1,24.3,6.5l2.6,10.6c1.6,6.5,7.4,11,14,11h5.3c8,0,14.4-6.5,14.4-14.4v-6.2c7.3-0.7,13.8-2,19.5-3.9
		c1-0.3,1.5-1.4,1.2-2.4c-0.3-1-1.4-1.5-2.4-1.2c-8.7,2.9-19.4,4.4-31.9,4.4c-17.3,0-33.4-2.8-45.6-7.8c-7.5-3.1-12.9-6.9-15.8-11
		c3.4,1.6,8.3,3,14.7,4.2c12.5,2.4,29.1,3.7,46.7,3.7c17.2,0,31.5-1.3,41.2-3.7c4-1,7.2-2.2,9.6-3.5c-2.3,4.6-6.8,8.6-13.3,11.6
		c-0.9,0.4-1.4,1.6-0.9,2.5c0.4,0.9,1.6,1.4,2.5,0.9C121.9,71,128,63.2,128,54C128,45.6,122.8,38.2,113.3,33.1L113.3,33.1z
		 M81.5,82.8v5.8c0,5.9-4.8,10.7-10.7,10.7h-5.3c-4.9,0-9.2-3.3-10.4-8.1L52.9,82c6,0.7,12.3,1.1,18.7,1.1
		C75.1,83.1,78.3,83,81.5,82.8L81.5,82.8z M3.8,40v-8.1C8.5,32.2,13,34,16.7,37C11.5,40.1,7.9,43.6,6,47.3C4.6,45.2,3.8,42.6,3.8,40
		L3.8,40z M18.6,72.1c-4,4-9.2,6.4-14.8,6.8v-8.1c0-3.2,1.1-6.2,3.1-8.6C9.2,65.8,13.2,69.2,18.6,72.1L18.6,72.1z M112,61
		c-9.5,2.4-23.4,3.6-40.3,3.6c-17.4,0-33.7-1.3-46-3.6C11.2,58.2,8,55,8,54c0-1.4,5.5-6,29.7-8.8c1-0.1,1.8-1.1,1.7-2.1
		c-0.1-1-1.1-1.8-2.1-1.7c-9.5,1.1-17.5,2.7-23.1,4.5c-1.5,0.5-2.8,1-3.9,1.5c2.8-4.1,8.2-7.9,15.8-11c12.1-5,28.3-7.8,45.6-7.8
		c16.7,0,30.5,2.7,39.9,7.7c5.3,2.9,9,6.4,11,10.4c-2.4-1.3-5.6-2.5-9.6-3.5c-9.8-2.4-24-3.7-41.2-3.7c-9.6,0-18.8,0.4-27.4,1.1
		c-1,0.1-1.8,1-1.7,2.1c0.1,1,1,1.8,2.1,1.7c8.5-0.7,17.6-1.1,27.1-1.1c16.9,0,30.9,1.2,40.3,3.6c5.9,1.5,12.2,4.1,12.2,7
		C124.2,56.9,117.9,59.5,112,61L112,61z"/>
	<path d="M61.8,92.7c1,0,1.9-0.8,1.9-1.9v-3.5c0-1-0.8-1.9-1.9-1.9s-1.9,0.8-1.9,1.9v3.5C59.9,91.9,60.8,92.7,61.8,92.7z"/>
	<path d="M68.5,92.7c1,0,1.9-0.8,1.9-1.9v-3.5c0-1-0.8-1.9-1.9-1.9c-1,0-1.9,0.8-1.9,1.9v3.5C66.6,91.9,67.5,92.7,68.5,92.7z"/>
	<path d="M75.2,92.7c1,0,1.9-0.8,1.9-1.9v-3.5c0-1-0.8-1.9-1.9-1.9c-1,0-1.9,0.8-1.9,1.9v3.5C73.3,91.9,74.2,92.7,75.2,92.7z"/>
</g>
</svg>
