<?xml version="1.0" encoding="utf-8"?>
<!-- Generator: Adobe Illustrator 28.0.0, SVG Export Plug-In . SVG Version: 6.00 Build 0)  -->
<svg version="1.1" id="Layer_1" xmlns="http://www.w3.org/2000/svg" xmlns:xlink="http://www.w3.org/1999/xlink" x="0px" y="0px"
	 viewBox="0 0 128 128" style="enable-background:new 0 0 128 128;" xml:space="preserve">
<g>
	<path d="M107.7,110.7c-1.4-0.8-2.8-1.7-4.2-2.6c-0.3-0.2-0.6-0.4-0.9-0.7c0,0,0,0,0,0c0,0-0.1-0.1-0.1-0.1
		c-0.2-0.1-0.3-0.3-0.5-0.4c-0.6-0.5-1.1-1-1.6-1.6c-0.2-0.2-0.5-0.5-0.7-0.8c0-0.1-0.1-0.2-0.2-0.2c-0.1-0.1-0.1-0.2-0.2-0.3
		c-0.4-0.6-0.8-1.3-1.1-1.9c0,0,0,0,0-0.1c0-0.1-0.1-0.3-0.1-0.3c-0.1-0.4-0.2-0.8-0.4-1.2c0-0.1,0-0.2-0.1-0.3h3.8
		c1.5,0,2.6-1.5,2.1-3L102,92C99.5,92.7,97,93,94.5,93c-2.5,0-4.9-0.3-7.3-0.9l-1.7,5.1c-0.5,1.5,0.5,3,2.1,3h4
		c0.4,3.1,1.8,5.8,3.8,8.3c1.2,1.5,2.7,2.8,4.3,4c-0.2,0-0.3-0.1-0.5-0.1c-8.5-1.7-17.2-1.5-25.8-1.4c-6,0.1-12.3,0.1-18.1-1.9
		c-4.7-1.6-9.5-5.1-11.3-9.9c-0.2-0.5-0.3-1-0.5-1.6h5c1.9,0,3.2-1.8,2.6-3.6l-1.8-6.1c-3,0.8-6.1,1.2-9.2,1.2c-3,0-6-0.4-8.9-1.1
		l-2,6c-0.7,1.8,0.7,3.7,2.6,3.7h5.7c1.1,6.8,6.1,12.5,12.3,15.6c7.6,3.8,16.3,3.9,24.6,3.7c10.4-0.2,20.7-0.2,30.6,3.4
		c4.3,1.6,7.2,3.9,10.7,6.8c1.2,0.9,3.7,1.4,4.8,0.2c1.3-1.6,0-4.8-0.8-6.3C117.3,116.3,112.1,113.2,107.7,110.7z"/>
	<path d="M94.5,19.1c-6,0-11.7,2-16.4,5.5c0,0,0,0,0,0c2.1,5.7,3.2,11.7,3.2,17.9c0,6.2-1.1,12.2-3.2,17.9c-2,5.3-4.7,10.1-8.2,14.2
		c4.4,6.9,11,11.9,18.6,13.7c2,0.4,4,0.7,6,0.7c2.2,0,4.3-0.3,6.4-0.8c13.8-3.4,24.2-17.4,24.2-34.2C125,34.8,111.4,19.1,94.5,19.1z
		"/>
	<path d="M40.1,85.1c2.8,0,5.5-0.4,8-1c6.4-1.6,12.1-5.1,16.8-9.9c0.5-0.5,1-1,1.4-1.5c0.5-0.5,0.9-1.1,1.4-1.7
		c5.9-7.5,9.5-17.5,9.5-28.5c0-5.4-0.9-10.5-2.5-15.3c-0.2-0.7-0.5-1.3-0.7-2c-0.2-0.7-0.5-1.3-0.8-1.9C67.2,9.5,54.6,0,40.1,0
		C19.6,0,3,19.1,3,42.6c0,20.5,12.6,37.6,29.5,41.6C35,84.8,37.5,85.1,40.1,85.1z"/>
</g>
</svg>
