<?xml version="1.0" encoding="utf-8"?>
<!-- Generator: Adobe Illustrator 28.0.0, SVG Export Plug-In . SVG Version: 6.00 Build 0)  -->
<svg version="1.1" id="Layer_1" xmlns="http://www.w3.org/2000/svg" xmlns:xlink="http://www.w3.org/1999/xlink" x="0px" y="0px"
	 viewBox="0 0 128 128" style="enable-background:new 0 0 128 128;" xml:space="preserve">
<g>
	<path d="M37.3,15.7v3.6h17.1c0.1,0,0.2,0,0.4,0v-3.6c0-0.9-0.8-1.7-1.7-1.7H39C38.1,14.1,37.3,14.8,37.3,15.7z"/>
	<path d="M52.9,0h3.2v5.5h-3.2V0z"/>
	<path d="M43.2,8.2h5.7v3.1h-5.7V8.2z"/>
	<path d="M41.9,0h8.3v5.5h-8.3V0z"/>
	<path d="M86.5,61.2h1.9v3.3h-1.9V61.2z"/>
	<path d="M91.1,61.2h3.2v3.3h-3.2V61.2z"/>
	<path d="M96.9,61.2h1.9v3.3h-1.9V61.2z"/>
	<path d="M90.4,70.1c1.4-0.2,2.9-0.2,4.4,0v-2.9h-4.4V70.1z"/>
	<path d="M88.7,55h7.8v3.5h-7.8V55z"/>
	<path d="M36,0h3.2v5.5H36V0z"/>
	<path d="M91,27.3v25h3.6l0-25.1c0-6.3-5.1-11.4-11.4-11.4c0,0,0,0,0,0H57.5v2.7l24.8,0.1C87.1,18.7,91,22.5,91,27.3L91,27.3z"/>
	<path d="M84.1,86.1c0,4.6,3.8,8.3,8.4,8.3c4.6,0,8.3-3.8,8.3-8.4c0-4.6-3.8-8.3-8.4-8.3C87.8,77.7,84.1,81.4,84.1,86.1z M93.8,80.3
		l0,4.5l3,1.6c0.7,0.4,0.9,1.2,0.6,1.8s-1.2,0.9-1.8,0.6c0,0,0,0,0,0l-3.7-2c-0.4-0.2-0.7-0.7-0.7-1.2l0-5.3c0-0.8,0.6-1.4,1.4-1.4
		c0,0,0,0,0,0h0C93.2,79,93.8,79.6,93.8,80.3z"/>
	<path d="M22.2,42.6h47.1v5.5H22.2V42.6z"/>
	<path d="M69.3,50.9H22.2v47.5h47.1V50.9z M30.4,89.6c0,0.8-0.6,1.4-1.4,1.4c-0.8,0-1.4-0.6-1.4-1.4V65.2c0-0.8,0.6-1.4,1.4-1.4
		c0.8,0,1.4,0.6,1.4,1.4V89.6z M30.4,59.7c0,0.8-0.6,1.4-1.4,1.4c-0.8,0-1.4-0.6-1.4-1.4v-1.4c0-0.8,0.6-1.4,1.4-1.4
		c0.8,0,1.4,0.6,1.4,1.4V59.7z"/>
	<path d="M69.3,36.9c0-8.2-6.7-14.9-14.9-14.9H37c-8.2,0-14.9,6.7-14.9,14.9v3h47.1V36.9z"/>
	<path d="M79.1,86.1c0,7.4,6,13.4,13.4,13.4c7.4,0,13.4-6,13.4-13.4c0-7.4-6-13.4-13.4-13.4C85.1,72.7,79.1,78.7,79.1,86.1z
		 M103.6,86.1c0,6.1-5,11.1-11.1,11.1c-6.1,0-11.1-5-11.1-11.1c0-6.1,5-11.1,11.1-11.1C98.6,75,103.6,79.9,103.6,86.1z"/>
	<path d="M22.2,101.1h47.1v5.5H22.2V101.1z"/>
	<path d="M37,128h17.4c8.2,0,14.9-6.7,14.9-14.9v-3.9H22.2v3.9C22.2,121.3,28.8,128,37,128z"/>
</g>
</svg>
