<?xml version="1.0" encoding="utf-8"?>
<!-- Generator: Adobe Illustrator 28.0.0, SVG Export Plug-In . SVG Version: 6.00 Build 0)  -->
<svg version="1.1" id="Layer_1" xmlns="http://www.w3.org/2000/svg" xmlns:xlink="http://www.w3.org/1999/xlink" x="0px" y="0px"
	 viewBox="0 0 128 128" style="enable-background:new 0 0 128 128;" xml:space="preserve">
<g>
	<g>
		<path d="M47.8,34.1c-25.9,0-47,21.1-47,47c0,25.9,21.1,47,47,47c25.9,0,47-21.1,47-47S73.7,34.1,47.8,34.1z M47.8,38.7
			c5.2,0,10.3,0.9,15.1,2.8c-2,1.7-4.2,2.5-6.8,2.5c-3.6,0-8-1.8-12.6-5.1C45,38.8,46.4,38.7,47.8,38.7z M47.8,123.3
			c-4.8,0-9.5-0.8-14-2.4c1,0.1,1.9,0.1,2.9,0.1c9.6,0,19.4-2.8,28.9-5.4c3.3-0.9,6.7-1.9,10-2.7C67.9,119.6,58.1,123.3,47.8,123.3z
			 M81.3,106.8c-0.1,0-0.2,0-0.3,0c-5.3,1-10.6,2.5-16.3,4.1c-9.2,2.7-18.6,5.4-27.8,5.4c-6.4,0-11.9-1.3-17-4
			c-0.3-0.1-0.6-0.2-0.9-0.3c-1.5-1.4-2.9-2.9-4.2-4.5c1.7,0.4,3.5,0.6,5.4,0.6c6,0,12-1.9,17.9-3.7c3.9-1.2,7.9-2.4,11.9-3.1
			c1.7,2.7,5.8,4.4,10.8,4.4c4.4,0,8.3-1.4,10.2-3.6c3.5,1.7,7.3,2.9,11.2,3.4C82,106,81.6,106.4,81.3,106.8z M85,101.2
			c-4.5-0.3-8.8-1.5-12.8-3.6c-0.9-3.4-5.5-5.8-11.4-5.8c-5.3,0-9.8,2-11.1,5c-3.7,0.7-7.6,1.9-11.4,3.1c-5.8,1.8-11.8,3.7-17.5,3.7
			c-3.7,0-7-0.8-10-2.4c-0.1,0-0.2-0.1-0.2-0.1C9,98.2,7.8,95.2,7,92.2c3.7-0.8,7.1-2.2,10.4-4.2c1.4,1.1,3.2,1.7,5.1,1.7
			c4.2,0,7.6-2.9,7.6-6.4c0-0.2,0-0.3,0-0.5c1.9-0.2,3.8-0.4,5.8-0.4c8.5,0,16.9,2.3,25.1,4.4c8.3,2.2,16.9,4.5,25.6,4.5
			c0.8,0,1.5,0,2.2-0.1C88,94.7,86.7,98.1,85,101.2z M90.1,81c0,1.8-0.1,3.7-0.4,5.6c-1.1,0.1-2.2,0.1-3.3,0.1c0,0,0,0,0,0
			c-8.7,0-17.3-2.2-25.6-4.4c-8.3-2.2-16.9-4.4-25.7-4.4c-2.7,0-5.3,0.2-7.8,0.6c-1.4-1-3.1-1.6-5-1.6c-4.2,0-7.6,2.9-7.6,6.4
			c0,0.2,0,0.5,0.1,0.7c-2.8,1.7-5.7,2.9-8.9,3.6c-0.2-1.4-0.4-2.7-0.4-4.1c3.7-1.3,6.3-4.3,7.1-8.1c0.7-4-0.7-8-3.9-10.6
			c1.3-3,2.9-5.9,4.8-8.5c1.6-0.7,3.2-1.1,4.9-1.1c5.7,0,11.2,4,16.2,8.3c5.8,4.9,11,8.6,17.5,10.8c4.2,1.4,8.6,2.1,13.2,2.1
			c8.3,0,16.4-2.4,23.2-6.7C89.6,73.3,90.1,77.2,90.1,81z M87,65.1c-6.2,4.2-13.8,6.5-21.5,6.5c-5.4,0-10.9-1.2-15.7-3.4
			c-3.8-1.7-7.5-4.7-11.3-7.8c-6.1-4.9-12.4-10-19.8-10c0,0,0,0,0,0c0.6-0.6,1.2-1.1,1.8-1.6c0,0,0.1,0,0.1,0c1-0.2,2-0.4,2.9-0.4
			c5.5,0,10.4,3.8,14.9,8c4.8,4.5,9.3,8.3,15.3,10.7c3.8,1.5,7.9,2.2,12.2,2.2c7.3,0,14.4-2.2,20.2-6.2C86.4,63.7,86.7,64.4,87,65.1
			z M66,64.6c-4.9,0-9.7-1.2-14-3.3c-3.6-1.8-6.9-4.8-10-7.6c-4.5-4-9.1-8.2-14.8-9.5c3.2-1.8,6.6-3.2,10.2-4.1
			c4.2,3.6,8.9,7,14.7,8.3c1.2,0.2,2.4,0.4,3.6,0.4c4.4,0,8.4-1.6,11.3-4.5c0.2-0.2,0.3-0.4,0.4-0.6c6.8,3.6,12.5,8.9,16.5,15.4
			C78.7,62.6,72.4,64.6,66,64.6z"/>
		<path d="M66.7,49c-1.3,0-2.5,0.4-3.5,1.3c-2.4,2.1-2.3,6,0.2,8.8c1.4,1.6,3.3,2.5,5.2,2.5c1.3,0,2.5-0.4,3.5-1.3
			c1.2-1,1.8-2.5,1.7-4.2c0-1.6-0.7-3.3-1.9-4.6C70.6,49.9,68.6,49,66.7,49z"/>
		<path d="M124.8,24.5h-4.2c-0.4-3.9-2-7.4-4.3-10.3l3-3c0.9-0.9,0.9-2.4,0-3.3c-0.9-0.9-2.4-0.9-3.3,0l-3,3
			c-2.9-2.3-6.4-3.8-10.3-4.3V2.4c0-1.3-1.1-2.4-2.4-2.4C99.1,0,98,1.1,98,2.4v4.2c-3.9,0.4-7.4,2-10.3,4.3l-3-3
			c-0.9-0.9-2.4-0.9-3.3,0c-0.9,0.9-0.9,2.4,0,3.3l3,3c-2.3,2.9-3.8,6.4-4.3,10.3h-4.2c-1.3,0-2.4,1.1-2.4,2.4s1.1,2.4,2.4,2.4h4.2
			c0.4,3.9,2,7.4,4.3,10.3l-3,3c-0.9,0.9-0.9,2.4,0,3.3c0.5,0.5,1.1,0.7,1.7,0.7c0.6,0,1.2-0.2,1.7-0.7l3-3
			c2.9,2.3,6.4,3.8,10.3,4.3v4.2c0,1.3,1.1,2.4,2.4,2.4c1.3,0,2.4-1.1,2.4-2.4v-4.2c3.9-0.4,7.4-2,10.3-4.3l3,3
			c0.5,0.5,1.1,0.7,1.7,0.7c0.6,0,1.2-0.2,1.7-0.7c0.9-0.9,0.9-2.4,0-3.3l-3-3c2.3-2.9,3.8-6.4,4.3-10.3h4.2c1.3,0,2.4-1.1,2.4-2.4
			C127.2,25.5,126.1,24.5,124.8,24.5z"/>
	</g>
</g>
</svg>
