<?xml version="1.0" encoding="utf-8"?>
<!-- Generator: Adobe Illustrator 27.9.0, SVG Export Plug-In . SVG Version: 6.00 Build 0)  -->
<svg version="1.1" id="Layer_1" xmlns="http://www.w3.org/2000/svg" xmlns:xlink="http://www.w3.org/1999/xlink" x="0px" y="0px"
	 viewBox="0 0 128 128" style="enable-background:new 0 0 128 128;" xml:space="preserve">
<g>
	<path d="M37.31,15.75v3.58h17.13c0.12,0,0.24,0.01,0.36,0.01v-3.58c0-0.94-0.76-1.7-1.69-1.7H39
		C38.06,14.05,37.31,14.81,37.31,15.75z"/>
	<path d="M52.92,0h3.23v5.48h-3.23V0z"/>
	<path d="M43.18,8.22h5.73v3.09h-5.73V8.22z"/>
	<path d="M41.92,0h8.27v5.48h-8.27V0z"/>
	<path d="M86.46,61.22h1.86v3.29h-1.86V61.22z"/>
	<path d="M91.06,61.22h3.15v3.29h-3.15V61.22z"/>
	<path d="M96.94,61.22h1.86v3.29h-1.86V61.22z"/>
	<path d="M90.41,70.08c1.45-0.19,2.92-0.18,4.37,0.03v-2.86h-4.37V70.08z"/>
	<path d="M88.7,54.99h7.78v3.49H88.7V54.99z"/>
	<path d="M35.95,0h3.23v5.48h-3.23V0z"/>
	<path d="M90.96,27.31v24.95h3.56l0.01-25.08c0.01-6.3-5.08-11.42-11.38-11.43c0,0,0,0-0.01,0H57.53v2.75l24.81,0.12
		C87.1,18.66,90.95,22.54,90.96,27.31L90.96,27.31z"/>
	<path d="M84.11,86.06c0.01,4.62,3.77,8.35,8.39,8.34c4.62-0.01,8.35-3.77,8.34-8.39c-0.01-4.61-3.75-8.34-8.36-8.34
		C87.84,77.69,84.1,81.44,84.11,86.06z M93.8,80.34l0.03,4.49l2.96,1.59c0.67,0.35,0.93,1.18,0.58,1.85s-1.18,0.93-1.85,0.58
		c-0.01,0-0.02-0.01-0.03-0.02l-3.68-1.98c-0.44-0.24-0.72-0.7-0.72-1.2l-0.04-5.3c-0.01-0.76,0.6-1.37,1.36-1.38c0,0,0,0,0,0h0.01
		C93.18,78.98,93.79,79.59,93.8,80.34z"/>
	<path d="M22.16,42.65H69.3v5.48H22.16V42.65z"/>
	<path d="M69.3,50.86H22.16v47.45H69.3V50.86z M30.36,89.59c0,0.76-0.61,1.37-1.37,1.37c-0.76,0-1.37-0.61-1.37-1.37V65.2
		c0-0.76,0.61-1.37,1.37-1.37c0.76,0,1.37,0.61,1.37,1.37V89.59z M30.36,59.69c0,0.76-0.61,1.37-1.37,1.37
		c-0.76,0-1.37-0.61-1.37-1.37v-1.41c0-0.76,0.61-1.37,1.37-1.37c0.76,0,1.37,0.61,1.37,1.37V59.69z"/>
	<path d="M69.3,36.93c-0.01-8.21-6.66-14.86-14.87-14.87H37.02c-8.21,0.01-14.86,6.66-14.87,14.87v2.98H69.3V36.93z"/>
	<path d="M79.09,86.06c0,7.39,6,13.38,13.38,13.37c7.39,0,13.38-6,13.37-13.38c0-7.39-5.99-13.37-13.38-13.37
		C85.08,72.69,79.09,78.67,79.09,86.06z M103.56,86.06c-0.01,6.13-4.99,11.08-11.12,11.07c-6.13-0.01-11.08-4.99-11.07-11.12
		c0.01-6.12,4.98-11.07,11.1-11.07C98.6,74.95,103.56,79.93,103.56,86.06z"/>
	<path d="M22.16,101.05H69.3v5.48H22.16V101.05z"/>
	<path d="M37.02,128h17.41c8.21-0.01,14.86-6.66,14.87-14.87v-3.87H22.16v3.87C22.16,121.34,28.82,127.99,37.02,128z"/>
</g>
</svg>
