<?xml version="1.0" encoding="utf-8"?>
<!-- Generator: Adobe Illustrator 28.0.0, SVG Export Plug-In . SVG Version: 6.00 Build 0)  -->
<svg version="1.1" id="Layer_1" xmlns="http://www.w3.org/2000/svg" xmlns:xlink="http://www.w3.org/1999/xlink" x="0px" y="0px"
	 viewBox="0 0 128 128" style="enable-background:new 0 0 128 128;" xml:space="preserve">
<g>
	<path d="M118.5,18.3c1,1,2.3,1.5,3.5,1.5c1.3,0,2.6-0.5,3.5-1.5c3.2-3.2,3.2-8.3,0-11.5l-4.4-4.4c-1.5-1.5-3.6-2.4-5.8-2.4
		c-2.2,0-4.2,0.8-5.8,2.4c-2,2-2,5.1,0,7.1l3.1,3.1l-6.2,6.2l-0.9-0.9c-2-2-5.1-2-7.1,0l-1.8,1.8c-10.4-5.4-23.3-3.4-31.7,5.1
		l-59,59C2.2,87.7,0,92.9,0,98.4c0,5.5,2.2,10.7,6.1,14.6l8.9,8.9c4,4,9.3,6.1,14.6,6.1c5.3,0,10.6-2,14.6-6.1l59.2-59.2
		c8.4-8.4,10.3-21.1,4.9-31.5l1.8-1.8c2-2,2-5.1,0-7.1l-0.9-0.9l1.7-1.7l5.6,5.6l-0.3,0.2c-0.8,0.7-0.8,1.9-0.2,2.6
		c0.4,0.4,0.9,0.6,1.4,0.6c0.4,0,0.9-0.2,1.2-0.5l3.5-3.1c0.8-0.7,0.8-1.9,0.2-2.6c-0.7-0.8-1.9-0.8-2.6-0.2l-0.4,0.4l-5.8-5.8
		l1.9-1.9L118.5,18.3z M101,28.6l3.5,3.4c5.2,9.1,3.7,20.6-3.7,28l-5,5L76.9,46.2c-0.7-0.7-1.9-0.7-2.7,0c-0.7,0.7-0.7,1.9,0,2.7
		l18.9,18.9L47,113.9L28.1,95c-0.7-0.7-1.9-0.7-2.7,0c-0.7,0.7-0.7,1.9,0,2.7l18.9,18.9l-2.8,2.8c-6.6,6.6-17.4,6.6-24,0l-8.9-8.9
		c-3.2-3.2-5-7.5-5-12s1.8-8.8,5-12l2.8-2.8l8.7,8.7c0.7,0.7,1.9,0.7,2.7,0c0.7-0.7,0.7-1.9,0-2.7c0,0,0,0,0,0L14.1,81l46.2-46.2
		c10,10,8.5,8.5,8.7,8.7c0.7,0.7,1.8,0.7,2.5,0.1c0.9-0.7,0.9-2,0.1-2.8c0,0,0,0,0,0l-8.7-8.7l4.8-4.8c7.6-7.6,19.3-9.2,28.4-3.8
		c0,0,0,0,0,0c0.7,0.4,1.6,0.3,2.2-0.3c0,0,0,0,0,0l2.8-2.8c0.5-0.5,1.3-0.5,1.8,0l4.4,4.4c0.5,0.5,0.5,1.3,0,1.8l-1.5,1.5l-2.3-2.3
		c-0.7-0.7-1.9-0.7-2.7,0C100.3,26.7,100.3,27.9,101,28.6z M112.3,6.8c-0.5-0.5-0.5-1.3,0-1.8c0.8-0.8,1.9-1.3,3.1-1.3
		s2.3,0.5,3.1,1.3l4.4,4.4c1.7,1.7,1.7,4.5,0,6.2c-0.5,0.5-1.3,0.5-1.8,0L112.3,6.8z"/>
	<path d="M56.3,69.3C56.3,69.2,56.3,69.2,56.3,69.3l5.3-5.3c0.7-0.7,0.7-1.9,0-2.7c-0.7-0.7-1.9-0.7-2.7,0l-4,4l-4.4-4.4l4-4
		c0.7-0.7,0.7-1.9,0-2.7s-1.9-0.7-2.7,0L41.2,64.8c-0.7,0.7-0.7,1.9,0,2.7c0.7,0.7,1.9,0.7,2.7,0l4-4l4.4,4.4l-4,4
		c-0.7,0.7-0.7,1.9,0,2.7c0.7,0.7,1.9,0.7,2.7,0L56.3,69.3C56.3,69.3,56.3,69.3,56.3,69.3z"/>
	<path d="M56.6,72.3c-2.9,2.9-2.9,7.7,0,10.6l1.4,1.4c0.7,0.7,1.9,0.7,2.7,0c0.7-0.7,0.7-1.9,0-2.7c-1.3-1.3-3-2.6-2.4-5l6.3,6.3
		c0.7,0.7,1.9,0.7,2.7,0c2.9-2.9,2.9-7.7,0-10.6C64.3,69.3,59.6,69.3,56.6,72.3z M65.6,78.5L61,73.9c1.2-0.3,2.6,0,3.6,1
		C65.6,75.9,65.9,77.3,65.6,78.5z"/>
</g>
</svg>
