<?xml version="1.0" encoding="utf-8"?>
<!-- Generator: Adobe Illustrator 28.0.0, SVG Export Plug-In . SVG Version: 6.00 Build 0)  -->
<svg version="1.1" id="Layer_1" xmlns="http://www.w3.org/2000/svg" xmlns:xlink="http://www.w3.org/1999/xlink" x="0px" y="0px"
	 viewBox="0 0 128 128" style="enable-background:new 0 0 128 128;" xml:space="preserve">
<g>
	<path d="M45.8,108.5l2.4-3.5l6.4,4.3l-2.4,3.6L45.8,108.5z"/>
	<path d="M51.6,99.3l3.5-2.4l4.3,6.4l-3.5,2.4L51.6,99.3z"/>
	<path d="M73.5,109.2l6.4-4.3l2.4,3.6l-6.4,4.3L73.5,109.2z"/>
	<path d="M68.6,103.4l4.3-6.4l3.6,2.4l-4.3,6.4L68.6,103.4z"/>
	<path d="M0,0v14.9h38.4v4.3h12.8v32c0,0.2,0,0.3,0.1,0.5l2.1,8.5c0.2,0.9,1.1,1.6,2.1,1.6h2.1v6.4c0,1.2,1,2.1,2.1,2.1h2.1v44.8
		H12.8V128h102.4v-12.8H66.1V70.4h2.1c1.2,0,2.1-1,2.1-2.1v-6.4h2.1c1,0,1.8-0.7,2.1-1.6l2.1-8.5c0-0.2,0.1-0.3,0.1-0.5v-32h12.8
		v-4.3H128V0H0z M38.4,10.7H4.3V4.3h34.1V10.7z M110.9,119.5v4.3H17.1v-4.3H110.9z M66.1,66.1h-4.3v-4.3h4.3V66.1z M70.9,57.6H57.1
		l-1.1-4.3h15.9L70.9,57.6z M72.5,49.1H55.5v-4.3h12.8v-4.3H55.5v-4.3h6.4V32h-6.4V19.2h17.1V49.1z M85.3,14.9H42.7V4.3h42.7V14.9z
		 M123.7,10.7H89.6V4.3h34.1V10.7z"/>
</g>
</svg>
