<?xml version="1.0" encoding="utf-8"?>
<!-- Generator: Adobe Illustrator 28.0.0, SVG Export Plug-In . SVG Version: 6.00 Build 0)  -->
<svg version="1.1" id="Layer_1" xmlns="http://www.w3.org/2000/svg" xmlns:xlink="http://www.w3.org/1999/xlink" x="0px" y="0px"
	 viewBox="0 0 128 128" style="enable-background:new 0 0 128 128;" xml:space="preserve">
<g id="t029PW.tif">
	<g>
		<path d="M57.1,83.6C54.3,76,50.4,69.1,46,62.4c-0.3-0.5-0.6-0.9-0.4-1.6c1.5-6.6-0.9-12.7-6.5-16.5c-0.6-0.4-0.6-0.6-0.1-1.2
			c1.7-1.9,2.7-4.1,2.7-6.7c0.2-5.2-2.7-9.2-7.6-10.9c-0.7-0.2-0.9-0.5-0.9-1.2c0.1-1.4,0-2.7,0-4.1c0-0.6,0.1-0.9,0.8-1.2
			c4.7-1.9,7.3-6.4,6.3-11.1C39.4,3,35.2-0.2,30,0c-4.8,0.2-9.2,4.9-9,9.7c0.1,1.4,1,2.5,2.4,2.5c1.4,0.1,2.4-0.8,2.6-2.2
			c0-0.3,0.1-0.7,0.1-1c0.5-2.5,2.6-4.2,4.9-4c2.6,0.2,4.4,2.3,4.4,4.8c0,2.5-1.9,4.4-4.5,4.6c-1.9,0.1-2.8,1.1-2.8,2.9
			c0,2.3,0,4.6,0,6.9c0,0.7-0.3,1-0.9,1.2c-7.4,2.6-9.9,11.3-4.9,17.5c0.6,0.7,0.6,0.9-0.2,1.4c-5.2,3.5-7.8,9.7-6.5,15.7
			c0.2,1,0.1,1.7-0.5,2.5c-4.2,6.5-8,13.2-10.7,20.5c-2.3,6.3-4,12.8-2.9,19.6c2,12.1,8.9,20.1,20.5,24c1.6,0.6,3.3,0.9,5,1.3h6.5
			c0.7-0.5,1.6-0.3,2.4-0.4c13.7-2.5,24-14.6,24.1-28.5C60.2,93.7,58.9,88.6,57.1,83.6z M30.8,30c3.2,0,5.9,2.7,5.9,5.9
			c0,3.3-2.7,5.9-6,5.9c-3.2,0-5.8-2.7-5.7-5.9C24.9,32.6,27.6,30,30.8,30z M30.8,46.9c5.6,0,10.2,4.6,10.2,10.2
			c0,5.7-4.5,10.2-10.2,10.2c-5.6,0-10.3-4.6-10.2-10.2C20.5,51.5,25.2,46.8,30.8,46.9z M30.7,74.5c4,6.5,7.6,12.9,9.6,20.2
			c1.2,4.6,0.6,8.8-3.3,11.9c-3.2,2.5-6.8,2.9-10.5,1.2c-3.7-1.8-5.7-4.8-5.8-8.9c-0.1-3.1,0.9-6,2-8.8
			C24.7,84.6,27.5,79.6,30.7,74.5z M41.1,120.6c-14.1,6.8-31.3-1.9-34.2-17.3c-1.1-6,0.1-11.6,2-17.2c2.3-6.7,5.7-12.9,9.5-19
			c0.1-0.2,0.2-0.3,0.4-0.5c2,2.5,4.6,4.1,7.6,5.1c-3,4.8-5.7,9.6-7.8,14.8c-1.4,3.4-2.6,6.9-3,10.6c-0.9,9,6.2,16.7,15.2,16.7
			c9.3,0,16.4-8.4,14.9-17.6c-1.1-6.7-4-12.6-7.2-18.4c-0.9-1.7-2-3.4-3-5.1c-0.3-0.6-0.5-0.9,0.3-1.1c2.5-0.8,4.6-2.3,6.3-4.3
			c0.4-0.4,0.6-0.7,1,0C47.9,75,52.2,83,54.3,92C57.1,104.1,51.9,115.4,41.1,120.6z"/>
		<path d="M122.8,107.5c-1.3-0.7-2.6-0.2-3.4,1.1c-0.2,0.4-0.4,0.8-0.6,1.2c-5.6,11-18.8,16-30.3,11.6
			c-11.7-4.5-17.8-16.6-14.9-29.3c2.1-9,6.3-17,11.2-24.8c0.4-0.6,0.6-0.5,1,0c1.7,2,3.8,3.4,6.2,4.2c1,0.3,0.8,0.6,0.4,1.2
			c-1.3,2.2-2.7,4.5-3.9,6.8c-2.8,5.3-5.3,10.7-6.2,16.7c-1.5,9.2,5.4,17.5,14.8,17.7c9,0.2,16.2-7.7,15.3-16.6
			c-0.3-3-1.2-5.8-2.2-8.6c-2.2-5.9-5.3-11.3-8.6-16.7c3-1,5.6-2.7,7.6-5.1c0.2,0.2,0.3,0.3,0.3,0.4c4.1,6.5,7.7,13.2,10.1,20.5
			c0.6,1.8,1.8,2.5,3.3,2c1.6-0.5,2.1-1.8,1.5-3.6c-0.3-0.9-0.6-1.9-1-2.8c-2.8-7.4-6.6-14.2-10.9-20.8c-0.3-0.5-0.5-1-0.4-1.6
			c1.5-6.9-0.8-12.4-6.5-16.5c-0.6-0.4-0.5-0.6-0.1-1.1c5.2-6.5,2.9-14.9-4.9-17.7c-0.5-0.2-0.8-0.4-0.8-1c0.1-1.3,0.1-2.7,0-4
			c0-0.9,0.2-1.3,1.1-1.6c4.6-1.8,7.1-6.6,5.9-11.4C105.5,2.7,101-0.4,96,0c-4.6,0.4-8.3,4.4-8.7,9.2c-0.1,1.8,0.8,3,2.3,3.1
			c1.6,0.1,2.6-0.9,2.7-2.7C92.6,7,94.6,5,97.1,5c2.5,0,4.7,2.1,4.7,4.7c0.1,2.5-1.9,4.6-4.5,4.8c-2,0.2-2.8,1-2.8,2.9
			c0,2.2,0,4.5,0,6.7c0,0.8-0.2,1.1-1,1.4c-7.5,2.6-9.9,11.6-4.7,17.6c0.5,0.6,0.5,0.7-0.1,1.2c-5.5,3.7-7.9,9.6-6.6,16
			c0.2,0.9,0,1.5-0.5,2.3c-4.6,7-8.7,14.3-11.4,22.3c-2,5.8-3.4,11.7-2.3,17.9c2.2,12.4,9.4,20.6,21.5,24.3c1.4,0.4,2.8,0.4,4.2,1
			h6.5c0.1-0.2,0.2-0.2,0.4-0.2c5-0.5,9.6-2.4,13.6-5.3c4.2-3,7.4-6.9,9.6-11.6C124.5,109.5,124,108.1,122.8,107.5z M107.1,96.8
			c0.7,4-0.6,7.4-3.8,9.9c-3.3,2.5-7,2.8-10.7,1c-3.7-1.8-5.5-5-5.6-9c0-2.8,0.9-5.5,1.9-8.2c2.1-5.6,5-10.8,8.2-16
			C101.4,81.6,105.6,88.6,107.1,96.8z M97.1,30c3.3,0,5.9,2.7,5.8,6c0,3.2-2.6,5.8-5.9,5.8c-3.2,0-5.9-2.8-5.8-5.9
			C91.2,32.7,93.9,30,97.1,30z M97.1,46.9c5.6,0,10.2,4.6,10.3,10.2c0,5.6-4.6,10.2-10.2,10.2c-5.7,0-10.2-4.5-10.2-10.2
			C86.9,51.4,91.4,46.9,97.1,46.9z"/>
		<path d="M126.7,98.8c-0.4,0.1-0.3,0.5-0.4,0.7c-0.6,1.1-1.8,1.8-2.9,1.5c-1.1-0.3-2-1.4-2-2.5c0-1.2,0.9-2.2,2-2.4
			c1.3-0.2,2.5,0.4,3,1.6c0.1,0.2-0.1,0.5,0.3,0.6C126.7,98.4,126.7,98.6,126.7,98.8z"/>
	</g>
</g>
</svg>
