<?xml version="1.0" encoding="utf-8"?>
<!-- Generator: Adobe Illustrator 28.0.0, SVG Export Plug-In . SVG Version: 6.00 Build 0)  -->
<svg version="1.1" id="Layer_1" xmlns="http://www.w3.org/2000/svg" xmlns:xlink="http://www.w3.org/1999/xlink" x="0px" y="0px"
	 viewBox="0 0 128 128" style="enable-background:new 0 0 128 128;" xml:space="preserve">
<g>
	<path d="M71.3,94c0,2.8,0.1,2.8-2.7,2.8c-3.6,0-7.2,0-10.8,0c-0.9,0-1.3-0.2-1.3-1.2c0.1-2.6,0-2.6,2.5-2.6H64c2.1,0,4.2,0,6.3,0
		C71,93,71.3,93.2,71.3,94z"/>
	<path d="M128,14.5c0-3.1-1.3-5.4-3.7-7.4c-1.5-1.2-3.3-1.4-5-1.6H119c-0.5,0.3-0.9,0.1-1.4,0.1c-35.8,0-71.6,0-107.5,0
		c-0.5,0-1,0.1-1.4-0.1H8.2C3.1,6-0.2,10.4,0.1,14.4c0,0,0,0.1,0,0.1h0c0,0.1,0,0.2,0,0.3c0,0.7,0,1.3,0,2c0.1,1.8-0.2,3.5,0.2,5.3
		c0.9,0,1.8,0,2.8,0c0.7,0,0.9-0.2,0.9-0.9c0-2,0.1-4,0-5.9c-0.2-3,2.2-5.9,6-5.9c36.1,0.1,72.1,0.1,108.2,0c3.7,0,6,2.8,6,6.1
		c-0.1,23-0.1,46.1,0,69.1c0,1.1-0.3,1.3-1.4,1.3c-39.1,0-78.2,0-117.4,0c-1.2,0-1.4-0.3-1.4-1.4c0-17.8,0-35.7,0-53.6
		c0-0.3,0-0.6,0-0.9c0-0.4-0.1-0.7-0.6-0.6c-1,0.1-2.1-0.2-3.1,0.2c-0.2,0.5-0.1,1-0.1,1.6c0,20.9,0,41.8,0,62.7
		c0,0.5,0.1,1.1-0.1,1.6v0.3c0.3,1.1,0.1,2.2,0.7,3.3c1.8,3.6,4.7,5.5,8.7,5.5c11.7,0,23.4,0,35.1,0c0.5,0,1,0,1.4,0
		c0.9,0,1.3,0.4,1.3,1.3c0,1.3,0,2.5,0,3.8c0,1.1-0.5,1.5-1.5,1.5c-1.3,0-2.5,0.2-3.8,0.4c-4.3,1-7,3.9-7.5,7.9
		c-0.3,2.2,0.6,3.2,2.8,3.2c17.8,0,35.6,0,53.4,0c2.2,0,3.1-1,2.8-3.3c-0.5-3.8-2.6-6.3-6.1-7.5c-1.6-0.5-3.2-0.8-4.9-0.9
		c-1.6,0-1.7-0.1-1.8-1.8c0-0.7,0-1.5,0-2.2c0-2.5,0-2.5,2.5-2.5c11.8,0,23.7-0.1,35.5,0c4.7,0,9.3-4.3,9.3-9.3
		C127.9,68.2,127.9,41.3,128,14.5z M81.7,115c1.3,0,2.6,0.2,3.9,0.5c0.7,0.2,1.3,0.5,1.9,0.8c0.7,0.4,1.6,1.1,1.4,1.9
		c-0.2,0.6-1.2,0.3-1.9,0.3c-15.6,0-31.1,0-46.7,0h-1.6c0.8-2.3,2.7-2.8,4.6-3.2c1.2-0.2,2.3-0.3,3.5-0.3
		C58.5,115,70.1,115,81.7,115z M76.7,110.3c0,0.7-0.1,1-0.9,1c-7.8,0-15.7,0-23.5,0c-0.8,0-0.9-0.3-0.9-1c0-1.8,0.1-3.5,0-5.3
		c0-0.8,0.3-0.9,1-0.9c3.9,0,7.8,0,11.7,0c3.8,0,7.6,0,11.4,0c1.1,0,1.3,0.3,1.3,1.3C76.6,107,76.6,108.6,76.7,110.3z M124.1,90.8
		c-0.1,1.3,0,2.5,0,3.8c0,3.4-2.2,5.6-5.7,5.7c-1.9,0-3.9,0-5.8,0H10c-3.2,0-5.3-1.4-5.9-4.1C3.7,94.1,4,92,3.9,89.9
		c0-0.4,0.2-0.4,0.5-0.4c0.3,0,0.6,0,0.9,0H64c19.5,0,39,0,58.6,0C123.7,89.4,124.2,89.6,124.1,90.8z"/>
	<path d="M119,5.5c-0.4,0.5-0.9,0.2-1.3,0.2c-35.9,0-71.8,0-107.8,0C9.5,5.8,9,6,8.7,5.5C45.5,5.5,82.2,5.5,119,5.5z"/>
	<path d="M0.2,29.5c0,3.2,0,6.5,0,9.7c0,18.2,0,36.4,0,54.7c0,0.5,0.3,1-0.2,1.4c0-21.9,0-43.9,0-65.8C0.1,29.4,0.2,29.4,0.2,29.5z"
		/>
	<path d="M0,14.5c0.1-0.1,0.1-0.1,0.2,0c0,2.5,0.1,5.1,0.1,7.6c-0.1,0-0.2,0-0.3,0C0,19.6,0,17,0,14.5z"/>
	<path d="M68.6,96.8c-3.6,0-7.2,0-10.8,0c-0.9,0-1.3-0.2-1.3-1.2c0.1-2.6,0-2.6,2.5-2.6H64c2.1,0,4.2,0,6.3,0c0.8,0,1.1,0.1,1.1,1
		C71.4,96.8,71.4,96.8,68.6,96.8z"/>
	<path d="M68.6,96.8c-3.6,0-7.2,0-10.8,0c-0.9,0-1.3-0.2-1.3-1.2c0.1-2.6,0-2.6,2.5-2.6H64c2.1,0,4.2,0,6.3,0c0.8,0,1.1,0.1,1.1,1
		C71.4,96.8,71.4,96.8,68.6,96.8z"/>
</g>
</svg>
