<?xml version="1.0" encoding="utf-8"?>
<!-- Generator: Adobe Illustrator 28.0.0, SVG Export Plug-In . SVG Version: 6.00 Build 0)  -->
<svg version="1.1" id="Layer_1" xmlns="http://www.w3.org/2000/svg" xmlns:xlink="http://www.w3.org/1999/xlink" x="0px" y="0px"
	 viewBox="0 0 128 128" style="enable-background:new 0 0 128 128;" xml:space="preserve">
<g id="FOjIdC.tif_1_">
	<g>
		<path d="M66.2,0c0,3.9,0,7.8,0,11.7c0,0.9-0.2,1.1-1.1,1.1c-3.2,0-3.2,0-3.2-3.2c0-3.2,0-6.4,0-9.6C63.3,0,64.7,0,66.2,0z"/>
		<path d="M128,66.1c-3.9,0-7.8,0-11.7,0c-0.9,0-1.1-0.2-1.1-1.1c0-3.2,0-3.2,3.2-3.2c3.2,0,6.4,0,9.6,0C128,63.3,128,64.7,128,66.1
			z"/>
		<path d="M47.1,44.5c1.5-7.9,6.6-13,14.5-14.5c2.4-0.5,2.4-0.5,2.4,2c0,1.1,0.4,2.1-1.5,2.4c-6.2,0.8-10.2,4.8-11.1,11.1
			c-0.3,1.9-1.3,1.5-2.4,1.5C46.6,46.9,46.6,46.9,47.1,44.5z"/>
		<path d="M88.4,83.2c-0.9-0.1-0.9-0.5-0.9-1.1c0-6.1,0-12.3,0-18.4c0-3.1,0.1-6.3,0-9.5c-0.1-3.6,0.3-7.2-0.2-10.8
			c-1.6-11.4-12-21.3-25.6-19.9c-13.1,1.3-21.2,12.5-21.1,23.6c0.2,11.6,0,23.2,0.1,34.8c0,0.8-0.1,1.1-1.1,1.3
			c-3,0.4-5.3,3.1-5.3,6.2c0,1.4,0,2.8,0,4.3c0,3.8,2.7,6.5,6.5,6.5c3.9,0,7.7,0,11.6,0c0.9,0,1.1,0.2,1.1,1.1c0,5,0,10,0,15
			c0,3.1,0,3,3.1,3.1c1,0,1.2-0.3,1.2-1.2c-0.1-5.6,0-11.3,0-16.9c0-0.9,0.2-1.1,1.1-1.1c3.5,0.1,7,0.1,10.5,0c1,0,1.2,0.2,1.2,1.2
			c0,7.8,0,15.6,0,23.4c0,3.1,0,3,3.1,3.1c1,0,1.2-0.2,1.2-1.2c0-8.5,0-17,0-25.4c0-0.9,0.2-1.1,1.1-1.1c3.9,0.1,7.9,0,11.9,0
			c3.4,0,6.2-2.8,6.3-6.3c0-1.5,0-3,0-4.5C93.8,86.3,91.5,83.6,88.4,83.2z M44.9,46.4c0.1-10.2,8.4-18.4,18.6-18.7
			c9.8-0.3,18.4,7.1,19.5,16.8c0.2,1.2,0.2,2.4,0.2,3.6c0,11.2,0,22.5,0,33.7c0,1-0.2,1.4-1.3,1.3c-2-0.1-4-0.1-6,0
			c-1.2,0.1-1.3-0.4-1.3-1.4c0-5.1,0-10.1,0-15.2c0-1.9-0.7-2.6-2.6-2.6c-1.6,0-3.1,0.1-4.7,0c-1.6-0.1-2.8,0.3-3.7,1.6
			c-0.3,0.4-0.7,0.8-1.3,1.5c-0.6-3.2-2.7-3.1-5-3.1c-4,0.1-4.1,0.2-4.1,4.1c0,4.6,0,9.2,0,13.9c0,1.1-0.3,1.3-1.3,1.3
			c-2.1-0.1-4.2,0-6.3,0c-0.7,0-1-0.1-1-0.9C44.9,70.3,44.7,58.4,44.9,46.4z M70.4,82.3c0,0.7-0.2,0.9-0.9,0.9c-3.7,0-7.4,0-11,0
			c-0.7,0-0.9-0.2-0.9-0.9c0-2.2,0-4.4,0-6.6c0-2.2,0-4.3,0-6.5c0-0.3-0.3-0.8,0.3-0.9c0.5-0.1,0.6,0.3,0.8,0.7
			c0.4,0.8,0.8,1.6,1.2,2.4c0.8,1.5,2.3,1.7,3.6,0.6c0.7-0.6,1.4-1.3,2-2c1-1.3,2.3-1.8,4-1.6c0.7,0.1,1,0.2,1,0.9
			C70.4,73.5,70.4,77.9,70.4,82.3z M89.6,93.3c0,1.8-0.8,2.6-2.6,2.6c-2,0-4.1,0-6.1,0H41.6c-2.5,0-3.1-0.7-3.1-3.2
			c0-0.8,0-1.7,0-2.5c0-2,0.8-2.8,2.8-2.8c7.6,0,15.3,0,22.9,0c7.5,0,14.9,0,22.4,0c2.4,0,3.1,0.7,3.1,3.1
			C89.6,91.5,89.6,92.4,89.6,93.3z"/>
		<path d="M26.3,29.3c-2.8-2.9-5.7-5.7-8.5-8.6c-0.4-0.4-0.3-0.7,0-1.1c2.4-2.7,2.4-2.7,4.9-0.2c2.2,2.2,4.5,4.4,6.7,6.7
			C28.3,27.3,27.3,28.3,26.3,29.3z"/>
		<path d="M110.8,20.3c-0.2,0.2-0.4,0.4-0.6,0.6c-2.6,2.6-5.3,5.3-7.9,7.9c-0.4,0.4-0.7,0.6-1.1,0.1c-0.8-0.9-2.1-1.6-2.3-2.6
			c-0.1-0.6,1.4-1.6,2.2-2.3c2-2,4-4,6-6c0.5-0.5,0.9-0.6,1.3,0c0.6,0.7,1.2,1.3,1.9,1.9C110.4,19.9,110.6,20.1,110.8,20.3z"/>
		<path d="M6.5,66.1c-1.9,0-3.7,0-5.6,0c-0.6,0-0.8-0.2-0.8-0.8c-0.1-3.5-0.2-3.5,3.4-3.5c2.8,0,5.7,0,8.5,0c0.8,0,0.9,0.2,1,1
			c0,3.3,0.1,3.3-3.2,3.3C8.6,66.1,7.5,66.1,6.5,66.1z"/>
		<path d="M62.5,34.3c-6.2,0.8-10.2,4.8-11.1,11.1c-0.3,1.9-1.3,1.5-2.4,1.5c-2.4,0-2.4,0-2-2.4c1.5-7.9,6.6-13,14.5-14.5
			c2.4-0.5,2.4-0.5,2.4,2C64,33.1,64.4,34.1,62.5,34.3z"/>
		<path d="M62.5,34.3c-6.2,0.8-10.2,4.8-11.1,11.1c-0.3,1.9-1.3,1.5-2.4,1.5c-2.4,0-2.4,0-2-2.4c1.5-7.9,6.6-13,14.5-14.5
			c2.4-0.5,2.4-0.5,2.4,2C64,33.1,64.4,34.1,62.5,34.3z"/>
	</g>
</g>
</svg>
