<?xml version="1.0" encoding="utf-8"?>
<!-- Generator: Adobe Illustrator 28.0.0, SVG Export Plug-In . SVG Version: 6.00 Build 0)  -->
<svg version="1.1" id="Layer_1" xmlns="http://www.w3.org/2000/svg" xmlns:xlink="http://www.w3.org/1999/xlink" x="0px" y="0px"
	 viewBox="0 0 128 128" style="enable-background:new 0 0 128 128;" xml:space="preserve">
<g id="dgFlWj.tif">
	<g>
		<path d="M59.3,6C47.1,6,34.9,6,22.7,6c-2,0-2.6,0.6-2.6,2.6v110.7c0,2,0.6,2.6,2.6,2.6h36.5c2.2,0,2.7-0.5,2.7-2.8V8.7
			C62,6.6,61.4,6,59.3,6z M25.3,10c10.5,0,21,0,31.6,0c0.9,0,1.2,0.2,1.1,1.1c0,10.3,0,20.6,0,31c0,0.6,0,1.1-0.5,1.6
			c-11,11-21.9,21.9-32.9,32.9c-0.1,0.1-0.2,0.2-0.5,0.4c0-2.1,0-3.9,0-5.8c0-0.6,0.4-0.9,0.8-1.2c5.9-5.9,11.8-11.8,17.7-17.7
			c0.7-0.7,1-1.2,0-1.9c-0.7-0.5-1.2-1.8-2-1.7c-0.7,0.1-1.3,1.1-2,1.8C33.8,55.3,29,60.1,24,65.1v-1.4c0-17.5,0-34.9,0-52.4
			C24,10.3,24.3,10,25.3,10z M58,116.6c0,1-0.3,1.3-1.3,1.3c-10.5,0-21,0-31.5,0c-0.9,0-1.2-0.2-1.1-1.1c0-11,0-22,0-32.9
			c0-0.6,0-1.1,0.5-1.6c11-11,22-22,33-33c0.1-0.1,0.2-0.1,0.4-0.3c0,1.8,0,3.4,0,5.1c0,0.8-0.2,1.3-0.8,1.8
			c-5.3,5.3-10.6,10.6-15.9,15.9c-0.6,0.6-0.8,1,0,1.6c0.7,0.6,1.4,1.8,2.1,1.8c0.8,0,1.5-1.2,2.2-1.9c4.1-4.1,8.2-8.2,12.3-12.3
			c0.3,0.4,0.2,0.8,0.2,1.1C58,80.3,58,98.5,58,116.6z"/>
		<path d="M105.2,6C93,6,80.8,6,68.6,6c-2,0-2.6,0.6-2.6,2.7c0,8.4,0,16.8,0,25.2c0,8.4,0,16.9,0,25.3c0,2.1,0.6,2.7,2.6,2.7
			c12.2,0,24.4,0,36.7,0c2,0,2.6-0.6,2.6-2.7V8.7C107.9,6.6,107.3,6,105.2,6z M70.7,10c10.8,0,21.6,0,32.4,0c0.6,0,0.8,0.2,0.7,0.8
			c0,1.2,0,2.5,0,3.7c0,0.5-0.2,0.8-0.5,1.1c-11,11-22.1,22.1-33.1,33.1c-0.1,0.1-0.2,0.1-0.4,0.3c0-2,0-3.8,0-5.7
			c0-0.6,0.5-0.9,0.8-1.2c5.9-6,11.9-11.9,17.8-17.8c0.7-0.7,0.8-1.1,0-1.7c-0.8-0.6-1.3-1.8-2.1-1.8c-0.7,0-1.3,1.1-2,1.8
			c-4.8,4.8-9.6,9.6-14.6,14.6c0-9,0-17.7,0-26.4C69.9,10.2,70.1,10,70.7,10z M103,58c-10.7,0-21.4,0-32,0c-0.9,0-0.9-0.3-1-1
			c-0.1-1.5,0.4-2.5,1.4-3.6c10.5-10.5,21-21,31.5-31.5c0.3-0.3,0.5-0.6,1-1.1c0,2.2,0,4.1,0,5.9c0,0.6-0.4,0.8-0.7,1.1
			c-5.3,5.3-10.6,10.6-15.9,15.9c-0.7,0.7-0.8,1.1,0,1.8c0.7,0.6,1.3,1.7,2,1.7c0.7,0,1.3-1.1,2-1.7c4.1-4.1,8.3-8.3,12.6-12.6
			c0,8.3,0,16.3,0,24.3C103.9,57.9,103.6,58,103,58z"/>
		<path d="M105.3,66H68.5c-2,0-2.6,0.6-2.6,2.6c0,8.4,0,16.9,0,25.3v25.2c0,2.2,0.6,2.7,2.7,2.7h36.5c2.1,0,2.7-0.6,2.7-2.6V68.6
			C107.9,66.6,107.3,66,105.3,66z M102.7,117.9c-10.5,0-21,0-31.5,0c-1,0-1.1-0.3-1.2-1.2c-0.4-2.9,0.8-4.8,2.8-6.8
			c10.1-9.9,20-19.9,30-29.9c0.3-0.3,0.6-0.7,1.2-1.2c0,2.2,0,4,0,5.8c0,0.6-0.4,0.9-0.7,1.2c-5.3,5.3-10.6,10.6-15.9,15.9
			c-0.7,0.7-0.9,1.1,0,1.7c0.8,0.6,1.3,1.8,2.1,1.8c0.7,0,1.3-1.1,2-1.8c3.9-3.8,7.7-7.7,11.5-11.6c0.3-0.3,0.5-0.6,0.7-0.9
			c0.1,0.1,0.2,0.1,0.3,0.2v1c0,8.2,0,16.5,0,24.7C103.9,117.7,103.6,117.9,102.7,117.9z M102.4,74.6C91.9,85,81.4,95.5,71,106
			c-0.3,0.3-0.5,0.7-0.7,1c-0.1-0.1-0.2-0.2-0.3-0.2c0-1.9,0-3.7,0-5.6c0-0.6,0.4-0.9,0.8-1.2c5.9-6,11.9-11.9,17.8-17.8
			c0.7-0.6,0.9-1.1,0-1.7c-0.8-0.6-1.3-1.8-2.1-1.8c-0.7,0-1.3,1.1-2,1.8c-4.8,4.8-9.6,9.6-14.6,14.6c0-8.3,0-16.3,0-24.4
			c0-0.6,0.2-0.8,0.8-0.8c10.8,0,21.6,0,32.4,0c0.6,0,0.7,0.2,0.8,0.8C104.1,72.3,103.6,73.5,102.4,74.6z"/>
		<path d="M114,125V3c0-0.3,0-0.7,0-1c0-1-0.3-1.7-1.4-1.9H15.3c-0.7,0.2-1.1,0.6-1.2,1.2v125.3c0.3,1.3,1.2,1.4,2.3,1.4
			c31.7,0,63.4,0,95.1,0c0.2,0,0.5,0,0.7,0c1.2-0.1,1.6-0.6,1.7-1.7C114,125.8,114,125.4,114,125z M109.9,64c0,19.6,0,39.1,0,58.7
			c0,1-0.2,1.3-1.3,1.3c-29.8,0-59.5,0-89.3,0c-1,0-1.3-0.2-1.3-1.3c0-39.1,0-78.2,0-117.3c0-1,0.2-1.3,1.3-1.3
			c29.8,0,59.5,0,89.3,0c1,0,1.3,0.2,1.3,1.3C109.9,24.9,109.9,44.4,109.9,64z"/>
		<path d="M15.3,0.1c-0.4,0.4-0.8,0.8-1.2,1.2C13.9,0.3,14.3-0.2,15.3,0.1z"/>
		<path d="M59.3,6C47.1,6,34.9,6,22.7,6c-2,0-2.6,0.6-2.6,2.6v110.7c0,2,0.6,2.6,2.6,2.6h36.5c2.2,0,2.7-0.5,2.7-2.8V8.7
			C62,6.6,61.4,6,59.3,6z M25.3,10c10.5,0,21,0,31.6,0c0.9,0,1.2,0.2,1.1,1.1c0,10.3,0,20.6,0,31c0,0.6,0,1.1-0.5,1.6
			c-11,11-21.9,21.9-32.9,32.9c-0.1,0.1-0.2,0.2-0.5,0.4c0-2.1,0-3.9,0-5.8c0-0.6,0.4-0.9,0.8-1.2c5.9-5.9,11.8-11.8,17.7-17.7
			c0.7-0.7,1-1.2,0-1.9c-0.7-0.5-1.2-1.8-2-1.7c-0.7,0.1-1.3,1.1-2,1.8C33.8,55.3,29,60.1,24,65.1v-1.4c0-17.5,0-34.9,0-52.4
			C24,10.3,24.3,10,25.3,10z M58,116.6c0,1-0.3,1.3-1.3,1.3c-10.5,0-21,0-31.5,0c-0.9,0-1.2-0.2-1.1-1.1c0-11,0-22,0-32.9
			c0-0.6,0-1.1,0.5-1.6c11-11,22-22,33-33c0.1-0.1,0.2-0.1,0.4-0.3c0,1.8,0,3.4,0,5.1c0,0.8-0.2,1.3-0.8,1.8
			c-5.3,5.3-10.6,10.6-15.9,15.9c-0.6,0.6-0.8,1,0,1.6c0.7,0.6,1.4,1.8,2.1,1.8c0.8,0,1.5-1.2,2.2-1.9c4.1-4.1,8.2-8.2,12.3-12.3
			c0.3,0.4,0.2,0.8,0.2,1.1C58,80.3,58,98.5,58,116.6z"/>
		<path d="M105.2,6C93,6,80.8,6,68.6,6c-2,0-2.6,0.6-2.6,2.7c0,8.4,0,16.8,0,25.2c0,8.4,0,16.9,0,25.3c0,2.1,0.6,2.7,2.6,2.7
			c12.2,0,24.4,0,36.7,0c2,0,2.6-0.6,2.6-2.7V8.7C107.9,6.6,107.3,6,105.2,6z M70.7,10c10.8,0,21.6,0,32.4,0c0.6,0,0.8,0.2,0.7,0.8
			c0,1.2,0,2.5,0,3.7c0,0.5-0.2,0.8-0.5,1.1c-11,11-22.1,22.1-33.1,33.1c-0.1,0.1-0.2,0.1-0.4,0.3c0-2,0-3.8,0-5.7
			c0-0.6,0.5-0.9,0.8-1.2c5.9-6,11.9-11.9,17.8-17.8c0.7-0.7,0.8-1.1,0-1.7c-0.8-0.6-1.3-1.8-2.1-1.8c-0.7,0-1.3,1.1-2,1.8
			c-4.8,4.8-9.6,9.6-14.6,14.6c0-9,0-17.7,0-26.4C69.9,10.2,70.1,10,70.7,10z M103,58c-10.7,0-21.4,0-32,0c-0.9,0-0.9-0.3-1-1
			c-0.1-1.5,0.4-2.5,1.4-3.6c10.5-10.5,21-21,31.5-31.5c0.3-0.3,0.5-0.6,1-1.1c0,2.2,0,4.1,0,5.9c0,0.6-0.4,0.8-0.7,1.1
			c-5.3,5.3-10.6,10.6-15.9,15.9c-0.7,0.7-0.8,1.1,0,1.8c0.7,0.6,1.3,1.7,2,1.7c0.7,0,1.3-1.1,2-1.7c4.1-4.1,8.3-8.3,12.6-12.6
			c0,8.3,0,16.3,0,24.3C103.9,57.9,103.6,58,103,58z"/>
		<path d="M105.3,66H68.5c-2,0-2.6,0.6-2.6,2.6c0,8.4,0,16.9,0,25.3v25.2c0,2.2,0.6,2.7,2.7,2.7h36.5c2.1,0,2.7-0.6,2.7-2.6V68.6
			C107.9,66.6,107.3,66,105.3,66z M102.7,117.9c-10.5,0-21,0-31.5,0c-1,0-1.1-0.3-1.2-1.2c-0.4-2.9,0.8-4.8,2.8-6.8
			c10.1-9.9,20-19.9,30-29.9c0.3-0.3,0.6-0.7,1.2-1.2c0,2.2,0,4,0,5.8c0,0.6-0.4,0.9-0.7,1.2c-5.3,5.3-10.6,10.6-15.9,15.9
			c-0.7,0.7-0.9,1.1,0,1.7c0.8,0.6,1.3,1.8,2.1,1.8c0.7,0,1.3-1.1,2-1.8c3.9-3.8,7.7-7.7,11.5-11.6c0.3-0.3,0.5-0.6,0.7-0.9
			c0.1,0.1,0.2,0.1,0.3,0.2v1c0,8.2,0,16.5,0,24.7C103.9,117.7,103.6,117.9,102.7,117.9z M102.4,74.6C91.9,85,81.4,95.5,71,106
			c-0.3,0.3-0.5,0.7-0.7,1c-0.1-0.1-0.2-0.2-0.3-0.2c0-1.9,0-3.7,0-5.6c0-0.6,0.4-0.9,0.8-1.2c5.9-6,11.9-11.9,17.8-17.8
			c0.7-0.6,0.9-1.1,0-1.7c-0.8-0.6-1.3-1.8-2.1-1.8c-0.7,0-1.3,1.1-2,1.8c-4.8,4.8-9.6,9.6-14.6,14.6c0-8.3,0-16.3,0-24.4
			c0-0.6,0.2-0.8,0.8-0.8c10.8,0,21.6,0,32.4,0c0.6,0,0.7,0.2,0.8,0.8C104.1,72.3,103.6,73.5,102.4,74.6z"/>
		<path d="M59.3,6C47.1,6,34.9,6,22.7,6c-2,0-2.6,0.6-2.6,2.6v110.7c0,2,0.6,2.6,2.6,2.6h36.5c2.2,0,2.7-0.5,2.7-2.8V8.7
			C62,6.6,61.4,6,59.3,6z M25.3,10c10.5,0,21,0,31.6,0c0.9,0,1.2,0.2,1.1,1.1c0,10.3,0,20.6,0,31c0,0.6,0,1.1-0.5,1.6
			c-11,11-21.9,21.9-32.9,32.9c-0.1,0.1-0.2,0.2-0.5,0.4c0-2.1,0-3.9,0-5.8c0-0.6,0.4-0.9,0.8-1.2c5.9-5.9,11.8-11.8,17.7-17.7
			c0.7-0.7,1-1.2,0-1.9c-0.7-0.5-1.2-1.8-2-1.7c-0.7,0.1-1.3,1.1-2,1.8C33.8,55.3,29,60.1,24,65.1v-1.4c0-17.5,0-34.9,0-52.4
			C24,10.3,24.3,10,25.3,10z M58,116.6c0,1-0.3,1.3-1.3,1.3c-10.5,0-21,0-31.5,0c-0.9,0-1.2-0.2-1.1-1.1c0-11,0-22,0-32.9
			c0-0.6,0-1.1,0.5-1.6c11-11,22-22,33-33c0.1-0.1,0.2-0.1,0.4-0.3c0,1.8,0,3.4,0,5.1c0,0.8-0.2,1.3-0.8,1.8
			c-5.3,5.3-10.6,10.6-15.9,15.9c-0.6,0.6-0.8,1,0,1.6c0.7,0.6,1.4,1.8,2.1,1.8c0.8,0,1.5-1.2,2.2-1.9c4.1-4.1,8.2-8.2,12.3-12.3
			c0.3,0.4,0.2,0.8,0.2,1.1C58,80.3,58,98.5,58,116.6z"/>
		<path d="M105.2,6C93,6,80.8,6,68.6,6c-2,0-2.6,0.6-2.6,2.7c0,8.4,0,16.8,0,25.2c0,8.4,0,16.9,0,25.3c0,2.1,0.6,2.7,2.6,2.7
			c12.2,0,24.4,0,36.7,0c2,0,2.6-0.6,2.6-2.7V8.7C107.9,6.6,107.3,6,105.2,6z M70.7,10c10.8,0,21.6,0,32.4,0c0.6,0,0.8,0.2,0.7,0.8
			c0,1.2,0,2.5,0,3.7c0,0.5-0.2,0.8-0.5,1.1c-11,11-22.1,22.1-33.1,33.1c-0.1,0.1-0.2,0.1-0.4,0.3c0-2,0-3.8,0-5.7
			c0-0.6,0.5-0.9,0.8-1.2c5.9-6,11.9-11.9,17.8-17.8c0.7-0.7,0.8-1.1,0-1.7c-0.8-0.6-1.3-1.8-2.1-1.8c-0.7,0-1.3,1.1-2,1.8
			c-4.8,4.8-9.6,9.6-14.6,14.6c0-9,0-17.7,0-26.4C69.9,10.2,70.1,10,70.7,10z M103,58c-10.7,0-21.4,0-32,0c-0.9,0-0.9-0.3-1-1
			c-0.1-1.5,0.4-2.5,1.4-3.6c10.5-10.5,21-21,31.5-31.5c0.3-0.3,0.5-0.6,1-1.1c0,2.2,0,4.1,0,5.9c0,0.6-0.4,0.8-0.7,1.1
			c-5.3,5.3-10.6,10.6-15.9,15.9c-0.7,0.7-0.8,1.1,0,1.8c0.7,0.6,1.3,1.7,2,1.7c0.7,0,1.3-1.1,2-1.7c4.1-4.1,8.3-8.3,12.6-12.6
			c0,8.3,0,16.3,0,24.3C103.9,57.9,103.6,58,103,58z"/>
		<path d="M105.3,66H68.5c-2,0-2.6,0.6-2.6,2.6c0,8.4,0,16.9,0,25.3v25.2c0,2.2,0.6,2.7,2.7,2.7h36.5c2.1,0,2.7-0.6,2.7-2.6V68.6
			C107.9,66.6,107.3,66,105.3,66z M102.7,117.9c-10.5,0-21,0-31.5,0c-1,0-1.1-0.3-1.2-1.2c-0.4-2.9,0.8-4.8,2.8-6.8
			c10.1-9.9,20-19.9,30-29.9c0.3-0.3,0.6-0.7,1.2-1.2c0,2.2,0,4,0,5.8c0,0.6-0.4,0.9-0.7,1.2c-5.3,5.3-10.6,10.6-15.9,15.9
			c-0.7,0.7-0.9,1.1,0,1.7c0.8,0.6,1.3,1.8,2.1,1.8c0.7,0,1.3-1.1,2-1.8c3.9-3.8,7.7-7.7,11.5-11.6c0.3-0.3,0.5-0.6,0.7-0.9
			c0.1,0.1,0.2,0.1,0.3,0.2v1c0,8.2,0,16.5,0,24.7C103.9,117.7,103.6,117.9,102.7,117.9z M102.4,74.6C91.9,85,81.4,95.5,71,106
			c-0.3,0.3-0.5,0.7-0.7,1c-0.1-0.1-0.2-0.2-0.3-0.2c0-1.9,0-3.7,0-5.6c0-0.6,0.4-0.9,0.8-1.2c5.9-6,11.9-11.9,17.8-17.8
			c0.7-0.6,0.9-1.1,0-1.7c-0.8-0.6-1.3-1.8-2.1-1.8c-0.7,0-1.3,1.1-2,1.8c-4.8,4.8-9.6,9.6-14.6,14.6c0-8.3,0-16.3,0-24.4
			c0-0.6,0.2-0.8,0.8-0.8c10.8,0,21.6,0,32.4,0c0.6,0,0.7,0.2,0.8,0.8C104.1,72.3,103.6,73.5,102.4,74.6z"/>
	</g>
</g>
</svg>
