<?xml version="1.0" encoding="utf-8"?>
<!-- Generator: Adobe Illustrator 28.0.0, SVG Export Plug-In . SVG Version: 6.00 Build 0)  -->
<svg version="1.1" id="Layer_1" xmlns="http://www.w3.org/2000/svg" xmlns:xlink="http://www.w3.org/1999/xlink" x="0px" y="0px"
	 viewBox="0 0 128 128" style="enable-background:new 0 0 128 128;" xml:space="preserve">
<g id="GddcBJ.tif">
	<g>
		<path d="M73.3,95.2c-0.9-0.5-1.1-1-1.1-1.9c0-19.6,0-39.1,0-58.7c0-0.9,0.2-1.4,1.1-1.9c9.3-5.4,12.1-17.6,6-26.5
			c-1.8-2.7-4.3-4.6-7-6.2h-1.5c-1.2,0.5-1.4,1.6-1.4,2.7c0,4.2-0.1,8.5,0,12.7c0,1.4-0.4,2.3-1.7,3c-4.5,2.4-2.9,2.4-7.4,0
			c-1.3-0.7-1.7-1.5-1.7-3c0.1-4.2,0-8.5,0-12.7c0-1.1-0.2-2.2-1.4-2.7h-1.5c-0.2,0.2-0.5,0.3-0.7,0.5c-6,3.5-9.4,8.7-9.5,15.7
			c-0.2,7.3,3.1,12.8,9.4,16.6c0.8,0.5,0.8,1,0.8,1.7c0,19.6,0,39.3,0,58.9c0,0.9-0.3,1.3-1.1,1.8c-6.2,3.8-9.4,9.3-9.2,16.6
			c0.2,6.9,3.5,12.1,9.4,15.6c2,1.2,3.3,0.4,3.3-1.9c0-4.7,0-9.3,0-14c0-0.9,0.3-1.3,1-1.7c1.4-0.7,2.8-1.5,4.1-2.4
			c0.5-0.3,0.9-0.3,1.4,0c1.3,0.8,2.6,1.6,4,2.3c0.8,0.4,1.2,0.9,1.1,1.9c-0.1,4.7,0,9.3,0,14c0,2.2,1.3,3,3.2,1.9
			c5.9-3.4,9.2-8.5,9.5-15.4C82.7,104.7,79.5,99.1,73.3,95.2z M74.7,121.7c-0.4,0.4-0.7,0.8-1.4,1.1c0-4.3,0-8.5,0-12.6
			c0-1.4-0.4-2.2-1.7-2.9c-2.2-1.1-4.3-2.4-6.4-3.7c-0.9-0.6-1.7-0.5-2.7,0c-2.2,1.3-4.4,2.6-6.7,3.9c-1,0.5-1.3,1.3-1.3,2.3
			c0,4,0,8.1,0,12.1v0.9c-0.9-0.6-1.6-1.3-2.2-2c-6.3-7.4-3.9-18.9,4.9-23.1c1.4-0.7,1.8-1.5,1.8-3c0-20.6,0-41.2,0-61.8
			c0-1.4-0.5-2.2-1.7-2.8c-9.2-4.4-11.4-16.5-4.3-23.9c0.4-0.4,0.8-0.9,1.3-1.1c0.3,0.3,0.1,0.7,0.1,1.1c0,3.9,0,7.8,0,11.7
			c0,1.2,0.4,1.9,1.4,2.5c2.2,1.2,4.3,2.4,6.5,3.7c1,0.6,1.9,0.6,2.9,0c1.8-1.1,3.7-2.3,5.6-3.2c1.7-0.8,2.4-2,2.3-3.9
			c-0.2-3.9,0-7.9,0-12.1c2.3,1.7,3.7,3.8,4.6,6.2c2.9,7.4-0.4,15.6-7.5,19c-1.3,0.6-1.7,1.4-1.7,2.8c0,20.6,0,41.3,0,61.9
			c0,1.4,0.5,2.2,1.7,2.8C79.7,102.1,81.9,114.4,74.7,121.7z"/>
		<path d="M109.7,100.6c-5,0-9.1,4.1-9.1,9.1c0,5,4,9,9,9c5.1,0,9.1-4,9.1-9C118.7,104.6,114.7,100.6,109.7,100.6z M109.5,115.2
			c-3.1,0-5.4-2.5-5.4-5.6c0-3.1,2.5-5.4,5.6-5.4c3.1,0,5.5,2.5,5.5,5.7C115.2,112.9,112.7,115.2,109.5,115.2z"/>
		<path d="M118.9,93.9c-0.8-0.5-1.1-1-1.1-1.9c0-19.3,0-38.6,0-57.9c0-0.9,0.3-1.4,1.1-1.8c11.2-6.5,12.2-22.4,1.8-30.3
			c-0.9-0.7-1.9-1.3-2.8-1.9h-1.5c-1.3,0.3-1.4,1.3-1.4,2.3c0,4.4,0,8.7,0,13.1c0,1.1-0.3,1.8-1.3,2.4c-1.1,0.6-2.1,1.2-3.1,1.8
			c-0.7,0.4-1.4,0.4-2.1,0c-0.9-0.6-1.9-1.2-2.9-1.7c-1-0.5-1.4-1.2-1.4-2.4c0.1-4.4,0-8.7,0-13.1c0-1.1-0.3-2-1.4-2.4h-1.5
			c0,0.3-0.3,0.3-0.5,0.4c-6.1,3.6-9.4,8.9-9.5,16c0,7.1,3.2,12.4,9.3,16c0.6,0.4,0.7,0.7,0.7,1.4c0,19.5,0,39,0,58.6
			c0,0.7-0.2,1.1-0.8,1.4c-5.9,3.6-9.1,8.8-9.2,15.8c-0.2,11.6,10.6,20.4,21.9,18.1c7.7-1.6,13.3-7.4,14.5-15.7
			C128.8,105,125.6,97.8,118.9,93.9z M124.4,111c-0.7,6.6-5.3,11.8-11.6,13.2c-8.1,1.8-16.3-3.8-17.6-12c-1.1-6.7,2.1-12.9,8.2-15.8
			c1.2-0.6,1.7-1.3,1.6-2.6c0-20.4,0-40.9,0-61.3c0-1.4-0.6-2.1-1.8-2.7C93.7,25.2,92,12.4,99.9,5.4c0.1-0.1,0.2-0.2,0.5-0.4v3
			c0,3.3,0,6.7,0,10c0,0.9,0.3,1.6,1.1,2c2.3,1.3,4.7,2.7,7,4c0.8,0.5,1.4,0.4,2.2,0c2.3-1.4,4.7-2.7,7-4c0.9-0.5,1.1-1.2,1.1-2.2
			c0-4.2,0-8.4,0-12.8c1,0.6,1.7,1.4,2.3,2.2c6,7.5,3.5,18.4-5.2,22.5c-1.2,0.6-1.7,1.4-1.7,2.7c0,20.4,0,40.8,0,61.2
			c0,1.3,0.4,2.1,1.6,2.6C122,99.1,125,105.2,124.4,111z"/>
		<path d="M25.2,33.6c-0.6-1.6-1.3-3.1-2-4.7c-0.8-1.8-2.8-2.6-4.6-2c-2.2,0.8-4.3,1.7-6.4,2.7c-1.7,0.8-2.4,2.8-1.8,4.6
			c0.6,1.7,1.3,3.3,2.1,4.9c0.6,1.3,1.8,2,3.4,2.1c0.3,0,0.7,0,1-0.1c2.2-0.9,4.4-1.8,6.6-2.9C25.3,37.4,25.9,35.4,25.2,33.6z
			 M21.2,35.5c-1.6,0.7-3.1,1.3-4.7,2c-0.6,0.3-0.9,0.2-1.1-0.4c-0.4-1.2-0.9-2.3-1.5-3.4c-0.3-0.6-0.2-0.9,0.4-1.1
			c1.6-0.7,3.2-1.4,4.8-2c0.2-0.1,0.6-0.4,0.8,0c0.7,1.4,1.3,2.9,2,4.3C21.8,35.3,21.5,35.4,21.2,35.5z M25.2,33.6
			c-0.6-1.6-1.3-3.1-2-4.7c-0.8-1.8-2.8-2.6-4.6-2c-2.2,0.8-4.3,1.7-6.4,2.7c-1.7,0.8-2.4,2.8-1.8,4.6c0.6,1.7,1.3,3.3,2.1,4.9
			c0.6,1.3,1.8,2,3.4,2.1c0.3,0,0.7,0,1-0.1c2.2-0.9,4.4-1.8,6.6-2.9C25.3,37.4,25.9,35.4,25.2,33.6z M21.2,35.5
			c-1.6,0.7-3.1,1.3-4.7,2c-0.6,0.3-0.9,0.2-1.1-0.4c-0.4-1.2-0.9-2.3-1.5-3.4c-0.3-0.6-0.2-0.9,0.4-1.1c1.6-0.7,3.2-1.4,4.8-2
			c0.2-0.1,0.6-0.4,0.8,0c0.7,1.4,1.3,2.9,2,4.3C21.8,35.3,21.5,35.4,21.2,35.5z M23.1,81.3c0-4.4,0-8.7,0-13.1
			c0-2.9,0.1-5.7-0.1-8.6c-0.1-2.6-2.8-4.4-5.3-3.8c-2.2,0.5-3.5,2.3-3.5,4.7c0,13.9,0,27.7,0,41.6c0,0.2,0,0.4,0,0.6
			c0.2,3.2,3.6,5.2,6.4,3.7c1.8-1,2.4-2.5,2.4-4.5C23.1,95,23.1,88.2,23.1,81.3z M19.5,61.8v39.7c0,0.3,0,0.7,0,1
			c0,0.5-0.3,0.8-0.8,0.8c-0.5,0.1-0.8-0.3-0.9-0.8c-0.1-0.3,0-0.7,0-1c0-13.5,0-27,0-40.6c0-0.3,0-0.5,0-0.7c0.1-0.5,0.3-1,0.9-1
			c0.6,0,0.9,0.4,0.8,1C19.5,60.8,19.5,61.3,19.5,61.8z M18.7,112.4c-3.2,0-5.7,2.5-5.7,5.6c0,3.2,2.5,5.7,5.6,5.7
			c3.2,0,5.7-2.5,5.8-5.6C24.4,115,21.9,112.4,18.7,112.4z M18.7,120.2c-1.3,0-2.2-0.9-2.2-2.2c0-1.2,1-2.2,2.3-2.1
			c1.2,0,2.1,0.9,2.1,2.2C20.8,119.3,19.9,120.2,18.7,120.2z M25.2,33.6c-0.6-1.6-1.3-3.1-2-4.7c-0.8-1.8-2.8-2.6-4.6-2
			c-2.2,0.8-4.3,1.7-6.4,2.7c-1.7,0.8-2.4,2.8-1.8,4.6c0.6,1.7,1.3,3.3,2.1,4.9c0.6,1.3,1.8,2,3.4,2.1c0.3,0,0.7,0,1-0.1
			c2.2-0.9,4.4-1.8,6.6-2.9C25.3,37.4,25.9,35.4,25.2,33.6z M21.2,35.5c-1.6,0.7-3.1,1.3-4.7,2c-0.6,0.3-0.9,0.2-1.1-0.4
			c-0.4-1.2-0.9-2.3-1.5-3.4c-0.3-0.6-0.2-0.9,0.4-1.1c1.6-0.7,3.2-1.4,4.8-2c0.2-0.1,0.6-0.4,0.8,0c0.7,1.4,1.3,2.9,2,4.3
			C21.8,35.3,21.5,35.4,21.2,35.5z M25.2,33.6c-0.6-1.6-1.3-3.1-2-4.7c-0.8-1.8-2.8-2.6-4.6-2c-2.2,0.8-4.3,1.7-6.4,2.7
			c-1.7,0.8-2.4,2.8-1.8,4.6c0.6,1.7,1.3,3.3,2.1,4.9c0.6,1.3,1.8,2,3.4,2.1c0.3,0,0.7,0,1-0.1c2.2-0.9,4.4-1.8,6.6-2.9
			C25.3,37.4,25.9,35.4,25.2,33.6z M21.2,35.5c-1.6,0.7-3.1,1.3-4.7,2c-0.6,0.3-0.9,0.2-1.1-0.4c-0.4-1.2-0.9-2.3-1.5-3.4
			c-0.3-0.6-0.2-0.9,0.4-1.1c1.6-0.7,3.2-1.4,4.8-2c0.2-0.1,0.6-0.4,0.8,0c0.7,1.4,1.3,2.9,2,4.3C21.8,35.3,21.5,35.4,21.2,35.5z
			 M18.7,112.4c-3.2,0-5.7,2.5-5.7,5.6c0,3.2,2.5,5.7,5.6,5.7c3.2,0,5.7-2.5,5.8-5.6C24.4,115,21.9,112.4,18.7,112.4z M18.7,120.2
			c-1.3,0-2.2-0.9-2.2-2.2c0-1.2,1-2.2,2.3-2.1c1.2,0,2.1,0.9,2.1,2.2C20.8,119.3,19.9,120.2,18.7,120.2z M23.1,81.3
			c0-4.4,0-8.7,0-13.1c0-2.9,0.1-5.7-0.1-8.6c-0.1-2.6-2.8-4.4-5.3-3.8c-2.2,0.5-3.5,2.3-3.5,4.7c0,13.9,0,27.7,0,41.6
			c0,0.2,0,0.4,0,0.6c0.2,3.2,3.6,5.2,6.4,3.7c1.8-1,2.4-2.5,2.4-4.5C23.1,95,23.1,88.2,23.1,81.3z M19.5,61.8v39.7c0,0.3,0,0.7,0,1
			c0,0.5-0.3,0.8-0.8,0.8c-0.5,0.1-0.8-0.3-0.9-0.8c-0.1-0.3,0-0.7,0-1c0-13.5,0-27,0-40.6c0-0.3,0-0.5,0-0.7c0.1-0.5,0.3-1,0.9-1
			c0.6,0,0.9,0.4,0.8,1C19.5,60.8,19.5,61.3,19.5,61.8z M23.1,81.3c0-4.4,0-8.7,0-13.1c0-2.9,0.1-5.7-0.1-8.6
			c-0.1-2.6-2.8-4.4-5.3-3.8c-2.2,0.5-3.5,2.3-3.5,4.7c0,13.9,0,27.7,0,41.6c0,0.2,0,0.4,0,0.6c0.2,3.2,3.6,5.2,6.4,3.7
			c1.8-1,2.4-2.5,2.4-4.5C23.1,95,23.1,88.2,23.1,81.3z M19.5,61.8v39.7c0,0.3,0,0.7,0,1c0,0.5-0.3,0.8-0.8,0.8
			c-0.5,0.1-0.8-0.3-0.9-0.8c-0.1-0.3,0-0.7,0-1c0-13.5,0-27,0-40.6c0-0.3,0-0.5,0-0.7c0.1-0.5,0.3-1,0.9-1c0.6,0,0.9,0.4,0.8,1
			C19.5,60.8,19.5,61.3,19.5,61.8z M18.7,112.4c-3.2,0-5.7,2.5-5.7,5.6c0,3.2,2.5,5.7,5.6,5.7c3.2,0,5.7-2.5,5.8-5.6
			C24.4,115,21.9,112.4,18.7,112.4z M18.7,120.2c-1.3,0-2.2-0.9-2.2-2.2c0-1.2,1-2.2,2.3-2.1c1.2,0,2.1,0.9,2.1,2.2
			C20.8,119.3,19.9,120.2,18.7,120.2z M25.2,33.6c-0.6-1.6-1.3-3.1-2-4.7c-0.8-1.8-2.8-2.6-4.6-2c-2.2,0.8-4.3,1.7-6.4,2.7
			c-1.7,0.8-2.4,2.8-1.8,4.6c0.6,1.7,1.3,3.3,2.1,4.9c0.6,1.3,1.8,2,3.4,2.1c0.3,0,0.7,0,1-0.1c2.2-0.9,4.4-1.8,6.6-2.9
			C25.3,37.4,25.9,35.4,25.2,33.6z M21.2,35.5c-1.6,0.7-3.1,1.3-4.7,2c-0.6,0.3-0.9,0.2-1.1-0.4c-0.4-1.2-0.9-2.3-1.5-3.4
			c-0.3-0.6-0.2-0.9,0.4-1.1c1.6-0.7,3.2-1.4,4.8-2c0.2-0.1,0.6-0.4,0.8,0c0.7,1.4,1.3,2.9,2,4.3C21.8,35.3,21.5,35.4,21.2,35.5z
			 M25.2,33.6c-0.6-1.6-1.3-3.1-2-4.7c-0.8-1.8-2.8-2.6-4.6-2c-2.2,0.8-4.3,1.7-6.4,2.7c-1.7,0.8-2.4,2.8-1.8,4.6
			c0.6,1.7,1.3,3.3,2.1,4.9c0.6,1.3,1.8,2,3.4,2.1c0.3,0,0.7,0,1-0.1c2.2-0.9,4.4-1.8,6.6-2.9C25.3,37.4,25.9,35.4,25.2,33.6z
			 M21.2,35.5c-1.6,0.7-3.1,1.3-4.7,2c-0.6,0.3-0.9,0.2-1.1-0.4c-0.4-1.2-0.9-2.3-1.5-3.4c-0.3-0.6-0.2-0.9,0.4-1.1
			c1.6-0.7,3.2-1.4,4.8-2c0.2-0.1,0.6-0.4,0.8,0c0.7,1.4,1.3,2.9,2,4.3C21.8,35.3,21.5,35.4,21.2,35.5z M18.7,112.4
			c-3.2,0-5.7,2.5-5.7,5.6c0,3.2,2.5,5.7,5.6,5.7c3.2,0,5.7-2.5,5.8-5.6C24.4,115,21.9,112.4,18.7,112.4z M18.7,120.2
			c-1.3,0-2.2-0.9-2.2-2.2c0-1.2,1-2.2,2.3-2.1c1.2,0,2.1,0.9,2.1,2.2C20.8,119.3,19.9,120.2,18.7,120.2z M20.7,106.4
			c1.8-1,2.4-2.5,2.4-4.5c0-6.9,0-13.7,0-20.6c0-4.4,0-8.7,0-13.1c0-2.9,0.1-5.7-0.1-8.6c-0.1-2.6-2.8-4.4-5.3-3.8
			c-2.2,0.5-3.5,2.3-3.5,4.7c0,13.9,0,27.7,0,41.6c0,0.2,0,0.4,0,0.6C14.5,105.9,17.9,107.9,20.7,106.4z M17.8,60.2
			c0.1-0.5,0.3-1,0.9-1c0.6,0,0.9,0.4,0.8,1c0,0.5,0,1,0,1.5v39.7c0,0.3,0,0.7,0,1c0,0.5-0.3,0.8-0.8,0.8c-0.5,0.1-0.8-0.3-0.9-0.8
			c-0.1-0.3,0-0.7,0-1c0-13.5,0-27,0-40.6C17.8,60.7,17.8,60.5,17.8,60.2z M38,9.9c-2.3-3.6-5.4-6.1-9.2-7.9c-2.1-1-4.3-1.4-6.5-2
			h-1.7c-1.3,0.6-1.7,1.3-1.2,2.6c0.4,1.3,1,2.5,1.5,3.7c1.2,2.8,2.5,5.6,3.7,8.5c0.6,1.5,0.1,3-1.3,3.6c-2.6,1.1-5.1,2.2-7.7,3.3
			c-0.8,0.3-1.2,0.2-1.6-0.6c-0.4-1.1-0.9-2.2-1.4-3.3c-1.2-2.7-2.3-5.5-3.5-8.1C8.5,8.4,7.5,8,6.4,8.3C5.8,8.5,5.3,8.9,4.8,9.4
			C2.3,12,0.4,15,0,18.7v4.7c0.3,0.7,0.1,1.5,0.4,2.2c0.4,1.2,0.9,2.3-0.2,3.4c-0.1,0.1-0.1,0.1-0.1,0.2c0,0,0,0,0,0.1v0.1
			c0,0.4-0.1,0.8,0.1,1.1C0.6,31.4,1.3,32,2,32.6c4.8,4.6,6.9,10.2,6.8,16.8c-0.1,22.8,0,45.7,0,68.5c0,3.9,1.8,6.9,5.2,8.8
			c3.4,1.9,6.8,1.7,10-0.3c3.3-2.1,4.6-5.2,4.6-9.1c0-22.8,0-45.6,0-68.4c0-5.2,1.3-9.9,4.6-14c1-1.2,2.1-2.3,3.2-3.5
			C41.6,25.3,42.2,16.6,38,9.9z M4.5,25.8c-1.8-4.5-1.1-8.6,1.9-12.6c1.5,3.5,2.9,6.9,4.4,10.2c0.2,0.5,0,0.6-0.4,0.8
			c-1.6,0.7-3.3,1.4-4.9,2.1C4.9,26.7,4.7,26.3,4.5,25.8z M25,85.1c0,10.9,0,21.9,0,32.8c0,3.8-2.9,6.6-6.5,6.5
			c-3.3-0.1-6-2.8-6.2-6.3c0-0.3,0-0.7,0-1c0-21.7,0-43.5,0-65.2c0-1.1,0.3-1.4,1.4-1.3c3.4,0.1,6.8,0.1,10.2,0c1,0,1.2,0.2,1.2,1.2
			C25,62.9,25,74,25,85.1z M33.3,29.3c-2.6,2.8-5,5.7-6.4,9.2c-1,2.5-1.5,5.1-1.8,7.7c-0.1,0.6-0.2,0.8-0.9,0.8c-3.7,0-7.4,0-11.1,0
			c-0.4,0-0.8,0.1-0.9-0.5c-0.4-6.2-2.9-11.5-7.4-16c2.8-1.2,5.5-2.4,8.2-3.5c4.3-1.9,8.7-3.7,13-5.6c0.9-0.4,1.4-1.1,1.8-2
			c1.1-2.6,1-5-0.4-7.6c-1.3-2.4-2.2-5-3.3-7.6c0.7-0.2,1.4,0.2,2,0.5c5.3,2.2,9.2,5.6,10.6,11.3C38.1,21.1,36.7,25.5,33.3,29.3z
			 M23.2,28.9c-0.8-1.8-2.8-2.6-4.6-2c-2.2,0.8-4.3,1.7-6.4,2.7c-1.7,0.8-2.4,2.8-1.8,4.6c0.6,1.7,1.3,3.3,2.1,4.9
			c0.6,1.3,1.8,2,3.4,2.1c0.3,0,0.7,0,1-0.1c2.2-0.9,4.4-1.8,6.6-2.9c1.7-0.9,2.3-2.8,1.6-4.6C24.6,32,23.9,30.5,23.2,28.9z
			 M21.2,35.5c-1.6,0.7-3.1,1.3-4.7,2c-0.6,0.3-0.9,0.2-1.1-0.4c-0.4-1.2-0.9-2.3-1.5-3.4c-0.3-0.6-0.2-0.9,0.4-1.1
			c1.6-0.7,3.2-1.4,4.8-2c0.2-0.1,0.6-0.4,0.8,0c0.7,1.4,1.3,2.9,2,4.3C21.8,35.3,21.5,35.4,21.2,35.5z M18.7,112.4
			c-3.2,0-5.7,2.5-5.7,5.6c0,3.2,2.5,5.7,5.6,5.7c3.2,0,5.7-2.5,5.8-5.6C24.4,115,21.9,112.4,18.7,112.4z M18.7,120.2
			c-1.3,0-2.2-0.9-2.2-2.2c0-1.2,1-2.2,2.3-2.1c1.2,0,2.1,0.9,2.1,2.2C20.8,119.3,19.9,120.2,18.7,120.2z M20.7,106.4
			c1.8-1,2.4-2.5,2.4-4.5c0-6.9,0-13.7,0-20.6c0-4.4,0-8.7,0-13.1c0-2.9,0.1-5.7-0.1-8.6c-0.1-2.6-2.8-4.4-5.3-3.8
			c-2.2,0.5-3.5,2.3-3.5,4.7c0,13.9,0,27.7,0,41.6c0,0.2,0,0.4,0,0.6C14.5,105.9,17.9,107.9,20.7,106.4z M17.8,60.2
			c0.1-0.5,0.3-1,0.9-1c0.6,0,0.9,0.4,0.8,1c0,0.5,0,1,0,1.5v39.7c0,0.3,0,0.7,0,1c0,0.5-0.3,0.8-0.8,0.8c-0.5,0.1-0.8-0.3-0.9-0.8
			c-0.1-0.3,0-0.7,0-1c0-13.5,0-27,0-40.6C17.8,60.7,17.8,60.5,17.8,60.2z M23.1,81.3c0-4.4,0-8.7,0-13.1c0-2.9,0.1-5.7-0.1-8.6
			c-0.1-2.6-2.8-4.4-5.3-3.8c-2.2,0.5-3.5,2.3-3.5,4.7c0,13.9,0,27.7,0,41.6c0,0.2,0,0.4,0,0.6c0.2,3.2,3.6,5.2,6.4,3.7
			c1.8-1,2.4-2.5,2.4-4.5C23.1,95,23.1,88.2,23.1,81.3z M19.5,61.8v39.7c0,0.3,0,0.7,0,1c0,0.5-0.3,0.8-0.8,0.8
			c-0.5,0.1-0.8-0.3-0.9-0.8c-0.1-0.3,0-0.7,0-1c0-13.5,0-27,0-40.6c0-0.3,0-0.5,0-0.7c0.1-0.5,0.3-1,0.9-1c0.6,0,0.9,0.4,0.8,1
			C19.5,60.8,19.5,61.3,19.5,61.8z M18.7,112.4c-3.2,0-5.7,2.5-5.7,5.6c0,3.2,2.5,5.7,5.6,5.7c3.2,0,5.7-2.5,5.8-5.6
			C24.4,115,21.9,112.4,18.7,112.4z M18.7,120.2c-1.3,0-2.2-0.9-2.2-2.2c0-1.2,1-2.2,2.3-2.1c1.2,0,2.1,0.9,2.1,2.2
			C20.8,119.3,19.9,120.2,18.7,120.2z M25.2,33.6c-0.6-1.6-1.3-3.1-2-4.7c-0.8-1.8-2.8-2.6-4.6-2c-2.2,0.8-4.3,1.7-6.4,2.7
			c-1.7,0.8-2.4,2.8-1.8,4.6c0.6,1.7,1.3,3.3,2.1,4.9c0.6,1.3,1.8,2,3.4,2.1c0.3,0,0.7,0,1-0.1c2.2-0.9,4.4-1.8,6.6-2.9
			C25.3,37.4,25.9,35.4,25.2,33.6z M21.2,35.5c-1.6,0.7-3.1,1.3-4.7,2c-0.6,0.3-0.9,0.2-1.1-0.4c-0.4-1.2-0.9-2.3-1.5-3.4
			c-0.3-0.6-0.2-0.9,0.4-1.1c1.6-0.7,3.2-1.4,4.8-2c0.2-0.1,0.6-0.4,0.8,0c0.7,1.4,1.3,2.9,2,4.3C21.8,35.3,21.5,35.4,21.2,35.5z
			 M25.2,33.6c-0.6-1.6-1.3-3.1-2-4.7c-0.8-1.8-2.8-2.6-4.6-2c-2.2,0.8-4.3,1.7-6.4,2.7c-1.7,0.8-2.4,2.8-1.8,4.6
			c0.6,1.7,1.3,3.3,2.1,4.9c0.6,1.3,1.8,2,3.4,2.1c0.3,0,0.7,0,1-0.1c2.2-0.9,4.4-1.8,6.6-2.9C25.3,37.4,25.9,35.4,25.2,33.6z
			 M21.2,35.5c-1.6,0.7-3.1,1.3-4.7,2c-0.6,0.3-0.9,0.2-1.1-0.4c-0.4-1.2-0.9-2.3-1.5-3.4c-0.3-0.6-0.2-0.9,0.4-1.1
			c1.6-0.7,3.2-1.4,4.8-2c0.2-0.1,0.6-0.4,0.8,0c0.7,1.4,1.3,2.9,2,4.3C21.8,35.3,21.5,35.4,21.2,35.5z M18.7,112.4
			c-3.2,0-5.7,2.5-5.7,5.6c0,3.2,2.5,5.7,5.6,5.7c3.2,0,5.7-2.5,5.8-5.6C24.4,115,21.9,112.4,18.7,112.4z M18.7,120.2
			c-1.3,0-2.2-0.9-2.2-2.2c0-1.2,1-2.2,2.3-2.1c1.2,0,2.1,0.9,2.1,2.2C20.8,119.3,19.9,120.2,18.7,120.2z M23.1,81.3
			c0-4.4,0-8.7,0-13.1c0-2.9,0.1-5.7-0.1-8.6c-0.1-2.6-2.8-4.4-5.3-3.8c-2.2,0.5-3.5,2.3-3.5,4.7c0,13.9,0,27.7,0,41.6
			c0,0.2,0,0.4,0,0.6c0.2,3.2,3.6,5.2,6.4,3.7c1.8-1,2.4-2.5,2.4-4.5C23.1,95,23.1,88.2,23.1,81.3z M19.5,61.8v39.7c0,0.3,0,0.7,0,1
			c0,0.5-0.3,0.8-0.8,0.8c-0.5,0.1-0.8-0.3-0.9-0.8c-0.1-0.3,0-0.7,0-1c0-13.5,0-27,0-40.6c0-0.3,0-0.5,0-0.7c0.1-0.5,0.3-1,0.9-1
			c0.6,0,0.9,0.4,0.8,1C19.5,60.8,19.5,61.3,19.5,61.8z M25.2,33.6c-0.6-1.6-1.3-3.1-2-4.7c-0.8-1.8-2.8-2.6-4.6-2
			c-2.2,0.8-4.3,1.7-6.4,2.7c-1.7,0.8-2.4,2.8-1.8,4.6c0.6,1.7,1.3,3.3,2.1,4.9c0.6,1.3,1.8,2,3.4,2.1c0.3,0,0.7,0,1-0.1
			c2.2-0.9,4.4-1.8,6.6-2.9C25.3,37.4,25.9,35.4,25.2,33.6z M21.2,35.5c-1.6,0.7-3.1,1.3-4.7,2c-0.6,0.3-0.9,0.2-1.1-0.4
			c-0.4-1.2-0.9-2.3-1.5-3.4c-0.3-0.6-0.2-0.9,0.4-1.1c1.6-0.7,3.2-1.4,4.8-2c0.2-0.1,0.6-0.4,0.8,0c0.7,1.4,1.3,2.9,2,4.3
			C21.8,35.3,21.5,35.4,21.2,35.5z M25.2,33.6c-0.6-1.6-1.3-3.1-2-4.7c-0.8-1.8-2.8-2.6-4.6-2c-2.2,0.8-4.3,1.7-6.4,2.7
			c-1.7,0.8-2.4,2.8-1.8,4.6c0.6,1.7,1.3,3.3,2.1,4.9c0.6,1.3,1.8,2,3.4,2.1c0.3,0,0.7,0,1-0.1c2.2-0.9,4.4-1.8,6.6-2.9
			C25.3,37.4,25.9,35.4,25.2,33.6z M21.2,35.5c-1.6,0.7-3.1,1.3-4.7,2c-0.6,0.3-0.9,0.2-1.1-0.4c-0.4-1.2-0.9-2.3-1.5-3.4
			c-0.3-0.6-0.2-0.9,0.4-1.1c1.6-0.7,3.2-1.4,4.8-2c0.2-0.1,0.6-0.4,0.8,0c0.7,1.4,1.3,2.9,2,4.3C21.8,35.3,21.5,35.4,21.2,35.5z"/>
		<path d="M0,23.5c0.6,1.3,0.7,2.8,1.5,4.1c0.2,0.3,0,0.5-0.3,0.7c-0.4,0.2-0.8,0.4-0.9,0.9c-0.1,0.1-0.1,0.1-0.2,0
			C0,27.3,0,25.4,0,23.5z"/>
		<path d="M0,29.2c0.1,0,0.2,0,0.2,0c0,0.4,0,0.9,0,1.3c-0.1,0-0.1,0-0.2,0C0,30.1,0,29.6,0,29.2z"/>
		<path d="M109.7,100.6c-5,0-9.1,4.1-9.1,9.1c0,5,4,9,9,9c5.1,0,9.1-4,9.1-9C118.7,104.6,114.7,100.6,109.7,100.6z M109.5,115.2
			c-3.1,0-5.4-2.5-5.4-5.6c0-3.1,2.5-5.4,5.6-5.4c3.1,0,5.5,2.5,5.5,5.7C115.2,112.9,112.7,115.2,109.5,115.2z"/>
		<path d="M25.2,33.6c-0.6-1.6-1.3-3.1-2-4.7c-0.8-1.8-2.8-2.6-4.6-2c-2.2,0.8-4.3,1.7-6.4,2.7c-1.7,0.8-2.4,2.8-1.8,4.6
			c0.6,1.7,1.3,3.3,2.1,4.9c0.6,1.3,1.8,2,3.4,2.1c0.3,0,0.7,0,1-0.1c2.2-0.9,4.4-1.8,6.6-2.9C25.3,37.4,25.9,35.4,25.2,33.6z
			 M21.2,35.5c-1.6,0.7-3.1,1.3-4.7,2c-0.6,0.3-0.9,0.2-1.1-0.4c-0.4-1.2-0.9-2.3-1.5-3.4c-0.3-0.6-0.2-0.9,0.4-1.1
			c1.6-0.7,3.2-1.4,4.8-2c0.2-0.1,0.6-0.4,0.8,0c0.7,1.4,1.3,2.9,2,4.3C21.8,35.3,21.5,35.4,21.2,35.5z"/>
		<path d="M23.1,81.3c0-4.4,0-8.7,0-13.1c0-2.9,0.1-5.7-0.1-8.6c-0.1-2.6-2.8-4.4-5.3-3.8c-2.2,0.5-3.5,2.3-3.5,4.7
			c0,13.9,0,27.7,0,41.6c0,0.2,0,0.4,0,0.6c0.2,3.2,3.6,5.2,6.4,3.7c1.8-1,2.4-2.5,2.4-4.5C23.1,95,23.1,88.2,23.1,81.3z M19.5,61.8
			v39.7c0,0.3,0,0.7,0,1c0,0.5-0.3,0.8-0.8,0.8c-0.5,0.1-0.8-0.3-0.9-0.8c-0.1-0.3,0-0.7,0-1c0-13.5,0-27,0-40.6c0-0.3,0-0.5,0-0.7
			c0.1-0.5,0.3-1,0.9-1c0.6,0,0.9,0.4,0.8,1C19.5,60.8,19.5,61.3,19.5,61.8z"/>
		<path d="M18.7,112.4c-3.2,0-5.7,2.5-5.7,5.6c0,3.2,2.5,5.7,5.6,5.7c3.2,0,5.7-2.5,5.8-5.6C24.4,115,21.9,112.4,18.7,112.4z
			 M18.7,120.2c-1.3,0-2.2-0.9-2.2-2.2c0-1.2,1-2.2,2.3-2.1c1.2,0,2.1,0.9,2.1,2.2C20.8,119.3,19.9,120.2,18.7,120.2z"/>
		<path d="M109.7,100.6c-5,0-9.1,4.1-9.1,9.1c0,5,4,9,9,9c5.1,0,9.1-4,9.1-9C118.7,104.6,114.7,100.6,109.7,100.6z M109.5,115.2
			c-3.1,0-5.4-2.5-5.4-5.6c0-3.1,2.5-5.4,5.6-5.4c3.1,0,5.5,2.5,5.5,5.7C115.2,112.9,112.7,115.2,109.5,115.2z"/>
		<path d="M25.2,33.6c-0.6-1.6-1.3-3.1-2-4.7c-0.8-1.8-2.8-2.6-4.6-2c-2.2,0.8-4.3,1.7-6.4,2.7c-1.7,0.8-2.4,2.8-1.8,4.6
			c0.6,1.7,1.3,3.3,2.1,4.9c0.6,1.3,1.8,2,3.4,2.1c0.3,0,0.7,0,1-0.1c2.2-0.9,4.4-1.8,6.6-2.9C25.3,37.4,25.9,35.4,25.2,33.6z
			 M21.2,35.5c-1.6,0.7-3.1,1.3-4.7,2c-0.6,0.3-0.9,0.2-1.1-0.4c-0.4-1.2-0.9-2.3-1.5-3.4c-0.3-0.6-0.2-0.9,0.4-1.1
			c1.6-0.7,3.2-1.4,4.8-2c0.2-0.1,0.6-0.4,0.8,0c0.7,1.4,1.3,2.9,2,4.3C21.8,35.3,21.5,35.4,21.2,35.5z"/>
		<path d="M23.1,81.3c0-4.4,0-8.7,0-13.1c0-2.9,0.1-5.7-0.1-8.6c-0.1-2.6-2.8-4.4-5.3-3.8c-2.2,0.5-3.5,2.3-3.5,4.7
			c0,13.9,0,27.7,0,41.6c0,0.2,0,0.4,0,0.6c0.2,3.2,3.6,5.2,6.4,3.7c1.8-1,2.4-2.5,2.4-4.5C23.1,95,23.1,88.2,23.1,81.3z M19.5,61.8
			v39.7c0,0.3,0,0.7,0,1c0,0.5-0.3,0.8-0.8,0.8c-0.5,0.1-0.8-0.3-0.9-0.8c-0.1-0.3,0-0.7,0-1c0-13.5,0-27,0-40.6c0-0.3,0-0.5,0-0.7
			c0.1-0.5,0.3-1,0.9-1c0.6,0,0.9,0.4,0.8,1C19.5,60.8,19.5,61.3,19.5,61.8z"/>
		<path d="M18.7,112.4c-3.2,0-5.7,2.5-5.7,5.6c0,3.2,2.5,5.7,5.6,5.7c3.2,0,5.7-2.5,5.8-5.6C24.4,115,21.9,112.4,18.7,112.4z
			 M18.7,120.2c-1.3,0-2.2-0.9-2.2-2.2c0-1.2,1-2.2,2.3-2.1c1.2,0,2.1,0.9,2.1,2.2C20.8,119.3,19.9,120.2,18.7,120.2z"/>
	</g>
</g>
</svg>
