<?xml version="1.0" encoding="utf-8"?>
<!-- Generator: Adobe Illustrator 28.0.0, SVG Export Plug-In . SVG Version: 6.00 Build 0)  -->
<svg version="1.1" id="Layer_1" xmlns="http://www.w3.org/2000/svg" xmlns:xlink="http://www.w3.org/1999/xlink" x="0px" y="0px"
	 viewBox="0 0 128 128" style="enable-background:new 0 0 128 128;" xml:space="preserve">
<g id="_x34_5XkuL.tif">
	<g>
		<path d="M71.8,39.8c-8.4,0-15,6.7-15,15c0,8.3,6.7,14.9,15,14.9c8.3,0,15-6.7,15-15C86.7,46.4,80,39.8,71.8,39.8z M71.8,62.2
			c-4.1,0-7.6-3.5-7.5-7.6c0.1-4.1,3.5-7.4,7.6-7.4c4,0,7.5,3.5,7.4,7.5C79.2,58.8,75.8,62.2,71.8,62.2z"/>
		<path d="M126.8,51.9C118.2,42.6,108.4,35,97,29.6c-7.3-3.5-14.9-5.7-23.1-6c-9.6-0.4-18.7,1.9-27.3,6c-10.7,5-20,12.1-28.1,20.6
			c-0.7,0.7-1.3,1-2.3,0.9c-4.1,0-8.2,0-12.2,0c-2.3,0-4,1.5-4,3.7c0,2.2,1.6,3.8,4,3.8c4.1,0,8.2,0,12.4,0c0.8,0,1.4,0.2,1.9,0.8
			c7,7.3,14.8,13.5,23.7,18.4c10,5.5,20.5,8.8,32,8.3c1,0,2-0.1,3.2-0.2c-0.3,0.3-0.5,0.5-0.6,0.7c-7,7.6-15.2,13.7-24.6,18.1
			c-7.8,3.6-15.9,6-24.4,6.9c-3.5,0.4-7.1,0.9-10.7,0.3c-6.3-0.9-10.5-7-9.2-13.4c1.2-6.1,7.7-10.1,13.8-8.5c5,1.3,8.2,5.5,8.4,10.7
			c0.1,2.3,1.6,3.9,3.8,3.8c2.2,0,3.7-1.7,3.7-4c0-1-0.1-1.9-0.2-2.9c-1.4-8.9-9.8-16.8-20.7-15.5C5.7,83.4-1.3,93,0.2,103.8
			c1.3,8.8,9.2,15.6,18.1,15.7c5.5,0.1,10.9-0.5,16.3-1.5c15.5-2.9,29.1-9.6,41-20c2.6-2.2,4.9-4.7,7.4-7.3v8.7c0,2.4,1.5,4.1,3.8,4
			c2.2,0,3.8-1.6,3.8-4.1V85.7c0-1-0.3-2.2,0.2-2.9c0.4-0.7,1.7-0.8,2.6-1.2c12.3-5,22.7-12.8,32-22.3c1-1.1,2.1-2.1,2.8-3.5v-2
			C127.6,53.1,127.3,52.5,126.8,51.9z M44.5,70.2c-0.5,0-0.8-0.3-1.2-0.5c-6.7-4-12.7-8.8-18.2-14.3c-0.3-0.3-0.8-0.5-0.2-1.2
			c5.9-5.8,12.3-10.9,19.8-15.2C39.1,49.6,39.1,59.9,44.5,70.2z M71.7,78.5c-13,0-23.7-10.7-23.7-23.7c0-13,10.7-23.7,23.7-23.8
			c13-0.1,23.8,10.7,23.8,23.8C95.5,67.8,84.8,78.5,71.7,78.5z M118.6,55.3c-5.8,5.7-12.2,10.8-19.3,14.9c-0.1,0-0.1,0-0.4,0
			c2.7-4.9,4.1-10,4.1-15.5c0-5.5-1.4-10.6-3.9-15.5c7.2,4.1,13.6,9.1,19.5,14.9C119,54.6,119,54.8,118.6,55.3z"/>
		<path d="M128,35.8c-1.4,2.5-3.3,3.4-5.3,2.4c-0.6-0.3-1.1-0.8-1.6-1.2C111,28.3,99.7,21.7,86.8,18.1c-6.6-1.8-13.4-2.6-20.3-1.8
			c-10.2,1.1-19.6,4.6-28.5,9.6c-5.7,3.3-11.1,7-16,11.4c-0.9,0.8-1.9,1.2-3.1,1.2c-5,0-10,0-15,0c-2.3,0-4-1.5-4-3.7
			C0,32.6,1.6,31,4,31c4.2,0,8.4,0,12.6,0c0.8,0,1.4-0.2,2-0.8c10.9-9.1,22.9-15.9,36.7-19.6c3.7-1,7.4-1.7,11.1-1.9
			c0.2,0,0.4,0,0.5-0.2c0.7,0,1.3,0,2,0c0.6,0.2,1.2,0.2,1.7,0c1.8,0,3.7,0,5.5,0c2.2,0.3,4.4,0.2,6.5,0.6c6.6,1.2,12.9,3.2,19,6
			c8.1,3.7,15.5,8.4,22.4,14c0.8,0.6,1.5,1.3,2.3,1.9c0.9,0.6,1.4,1.5,1.5,2.6C128,34.4,128,35.1,128,35.8z"/>
		<path d="M70.7,8.5c-0.6,0.4-1.2,0.4-1.7,0C69.6,8.5,70.2,8.5,70.7,8.5z"/>
		<path d="M71.8,39.8c-8.4,0-15,6.7-15,15c0,8.3,6.7,14.9,15,14.9c8.3,0,15-6.7,15-15C86.7,46.4,80,39.8,71.8,39.8z M71.8,62.2
			c-4.1,0-7.6-3.5-7.5-7.6c0.1-4.1,3.5-7.4,7.6-7.4c4,0,7.5,3.5,7.4,7.5C79.2,58.8,75.8,62.2,71.8,62.2z"/>
		<path d="M71.8,39.8c-8.4,0-15,6.7-15,15c0,8.3,6.7,14.9,15,14.9c8.3,0,15-6.7,15-15C86.7,46.4,80,39.8,71.8,39.8z M71.8,62.2
			c-4.1,0-7.6-3.5-7.5-7.6c0.1-4.1,3.5-7.4,7.6-7.4c4,0,7.5,3.5,7.4,7.5C79.2,58.8,75.8,62.2,71.8,62.2z"/>
	</g>
</g>
</svg>
