<?xml version="1.0" encoding="utf-8"?>
<!-- Generator: Adobe Illustrator 28.0.0, SVG Export Plug-In . SVG Version: 6.00 Build 0)  -->
<svg version="1.1" id="Layer_1" xmlns="http://www.w3.org/2000/svg" xmlns:xlink="http://www.w3.org/1999/xlink" x="0px" y="0px"
	 viewBox="0 0 128 128" style="enable-background:new 0 0 128 128;" xml:space="preserve">
<g id="IQXJcG.tif">
	<g>
		<path d="M64.6,0c0.6,0.5,1,1.1,1.4,1.7c7.3,10.8,17.5,17.4,30.2,20.1c5.3,1.1,10.6,1.6,16,1c1.4-0.1,2,0.3,2.4,1.7
			c0.1,0.6,0.1,1.2,0,1.8c0,4.6-0.2,9.2-0.6,13.9c-0.2,2.1-0.3,4.2-0.5,6.3c-0.1,1.3-1.1,2.1-2.1,2c-1.2-0.1-1.8-1.1-1.7-2.5
			c0.6-6,0.9-12.1,1.1-18.2c0-1-0.3-1.1-1.1-1c-7.7,0.3-15.2-0.9-22.5-3.6c-9.2-3.5-16.8-9.1-22.7-17c-0.6-0.8-0.9-0.7-1.4,0
			C55,16.9,44.1,23.2,30.9,25.8c-4.3,0.8-8.7,1.1-13,1c-0.7,0-1,0.1-1,0.9c0.3,15.7,2,31.2,6.7,46.3c0.2,0.6,0.4,1.3,0.6,1.9
			c0.4,1.4,0,2.4-1.1,2.8c-1.1,0.4-2.1-0.2-2.5-1.6c-2.4-7-4-14.2-5.2-21.5c-1.6-10-2.4-20.1-2.3-30.2c0-2.2,0.7-2.7,2.9-2.6
			c19.1,1,34.8-5.4,45.9-21.4c0.4-0.5,0.7-1,1.2-1.4C63.6,0,64.1,0,64.6,0z"/>
		<path d="M114.7,26.3c0-0.6,0-1.2,0-1.8c0.1,0,0.1,0,0.2,0c0,0.6,0,1.2,0,1.8l-0.1,0L114.7,26.3z"/>
		<path d="M88.7,70.4c-0.2-7.3-3-13.7-7.2-19.6c-0.2-0.3-0.4-0.5-0.7-0.7c-0.7-0.7-1.6-0.8-2.4-0.5c-0.8,0.3-1.2,1-1.3,1.9
			c-0.1,0.6-0.1,1.2-0.1,1.9c-0.1,2.1-0.8,4.2-1.7,5.1c-0.3-3.6-1.7-6.7-4-9.5c-1.8-2.1-2.3-4.6-2.1-7.3c0.2-2.3,0.8-4.5,1.6-6.6
			c0.8-2.1-0.4-3.6-2.7-3.3c-0.4,0-0.7,0.1-1.1,0.3c-3.7,1.5-7,3.5-9.6,6.5c-0.1,0.1-0.1,0.1-0.2,0.2c-0.8,1-0.8,2.1,0,2.8
			c0.8,0.8,2,0.7,2.8-0.3c1.6-1.9,3.5-3.4,5.8-4.5c0.2,0.4,0,0.8,0,1.1c-1.2,5.2-0.7,9.9,2.9,14.2c2.5,2.9,3.2,6.3,2.6,10.1
			c-0.1,0.9-0.1,1.8-0.1,2.7c0.1,1.1,0.7,1.6,1.8,1.4c1.1-0.1,1.9-0.7,2.6-1.5c2.2-2.4,3.9-5.1,4.7-8.4c7.2,11.2,6.1,25.8-6.3,33
			c-0.1-3.6-1.4-6.7-3.7-9.4c-0.4-0.5-0.7-1.1-0.8-1.8c-0.6-2.5-0.2-4.9,0.6-7.3c0.7-2.1-0.7-3.7-2.8-3.2
			c-5.8,1.5-11.6,5.4-13.2,12.8c-0.7,2.9-0.6,5.8-0.3,8.8c-0.3,0.1-0.5-0.2-0.7-0.3c-1.4-1.1-2.8-2.4-4-3.8
			c-7.7-8.6-8-18.6-3.1-28.2c0.4-0.8,0.7-0.8,1.2,0c0.9,1.4,1.9,2.8,3.1,3.9c0.7,0.7,1.6,1.1,2.6,0.7c1-0.4,1.4-1.3,1.4-2.4
			c0-3.7,0.7-7.2,1.8-10.6c0.4-1.4,0-2.3-1.2-2.7c-1.1-0.3-1.9,0.2-2.4,1.5c-0.9,2.5-1.5,5.1-1.9,8.1c-0.7-1.2-1.2-2.1-1.8-3
			c-1.4-2.2-3-2.2-4.5-0.2c-1.2,1.5-2,3.3-2.7,5c-2.2,5.1-3.3,10.4-2.5,15.9c1,7.1,4.8,12.7,10,17.5c5.6,5.2,12.2,6.8,19.5,5.2
			C80.4,93.3,89.1,82.2,88.7,70.4z M70.4,90.3c0,0.7-0.3,1.2-1.1,1.4c-3.3,0.9-6.5,1.2-9.8,0.4c-0.5-0.1-0.8-0.3-1-0.8
			c-2.4-5.7-1.6-15.2,6.7-18.8c0.1-0.1,0.3-0.1,0.6-0.2c-0.3,2.2-0.5,4.3,0,6.4c0.4,1.7,1.2,3.1,2.3,4.5
			C69.7,85.2,70.4,87.6,70.4,90.3z"/>
		<path d="M103.9,31.2c-2.9-0.3-5.7-0.6-8.5-1.1c-11-2.2-20.6-7-28.7-14.8c-2.8-2.7-2.8-2.7-5.7,0c-5.7,5.6-12.4,9.7-19.9,12.4
			c-5.7,2-11.5,3-17.5,3.5c-1.6,0.1-2.1,0.8-2,2.5c0.3,3.3,0.5,6.6,0.8,9.8c0.7,7.9,1.8,15.7,3.8,23.3c3.3,12.9,8.4,24.9,16.7,35.4
			c5.4,6.8,11.7,12.4,19.4,16.4c1.1,0.6,2,0.6,3.1,0c2.4-1.3,4.8-2.7,7-4.3C82,107.3,89,98.1,94.1,87.5c8-16.5,11-34.2,12-52.3
			c0-0.4,0-0.7,0.1-1.1C106.3,31.9,105.9,31.4,103.9,31.2z M102.3,35.9c-0.6,10.7-2,21.4-4.9,31.9C93.9,80.4,88.7,92,80.2,102
			c-4.3,5.1-9.3,9.4-15.2,12.6c-0.8,0.5-1.4,0.5-2.3,0c-10.8-6.1-18.4-15.2-24.3-26c-5.2-9.6-8.3-19.8-10.4-30.5
			c-1.4-7.4-2.2-14.8-2.7-22.3c-0.1-0.7,0-1,0.9-1.1c14.1-1.3,26.5-6.5,36.9-16.2c0.5-0.5,0.8-0.6,1.4-0.1
			c8.7,8.3,19.1,13.2,30.8,15.5c2,0.4,4,0.6,6,0.8C102.3,34.8,102.5,35.1,102.3,35.9z"/>
		<path d="M112.4,55.5c-0.4,2.3-0.9,5-1.5,7.7c-2.4,11.5-6.2,22.5-12,32.8c-6.2,10.9-14.1,20.2-24.7,27.1c-2.8,1.8-5.7,3.3-8.8,4.6
			c-1,0.4-1.9,0.4-2.9,0c-7.1-2.9-13.2-7.2-18.7-12.4c-8.8-8.4-15.1-18.4-19.8-29.5c-0.5-1.2-0.1-2.3,0.9-2.7c1.1-0.4,2,0,2.6,1.3
			c2.8,6.4,6,12.5,10.1,18.1c6.4,8.7,14.1,15.9,23.9,20.7c1.7,0.8,3.1,0.8,4.9,0c7.2-3.5,13.4-8.4,18.7-14.3
			c10.2-11.3,16.4-24.7,20.4-39.2c1.4-4.9,2.4-9.9,3.2-14.9c0.2-1.2,1.1-1.8,2.1-1.7C111.7,53.2,112.4,54,112.4,55.5z"/>
		<path d="M88.7,70.4c-0.2-7.3-3-13.7-7.2-19.6c-0.2-0.3-0.4-0.5-0.7-0.7c-0.7-0.7-1.6-0.8-2.4-0.5c-0.8,0.3-1.2,1-1.3,1.9
			c-0.1,0.6-0.1,1.2-0.1,1.9c-0.1,2.1-0.8,4.2-1.7,5.1c-0.3-3.6-1.7-6.7-4-9.5c-1.8-2.1-2.3-4.6-2.1-7.3c0.2-2.3,0.8-4.5,1.6-6.6
			c0.8-2.1-0.4-3.6-2.7-3.3c-0.4,0-0.7,0.1-1.1,0.3c-3.7,1.5-7,3.5-9.6,6.5c-0.1,0.1-0.1,0.1-0.2,0.2c-0.8,1-0.8,2.1,0,2.8
			c0.8,0.8,2,0.7,2.8-0.3c1.6-1.9,3.5-3.4,5.8-4.5c0.2,0.4,0,0.8,0,1.1c-1.2,5.2-0.7,9.9,2.9,14.2c2.5,2.9,3.2,6.3,2.6,10.1
			c-0.1,0.9-0.1,1.8-0.1,2.7c0.1,1.1,0.7,1.6,1.8,1.4c1.1-0.1,1.9-0.7,2.6-1.5c2.2-2.4,3.9-5.1,4.7-8.4c7.2,11.2,6.1,25.8-6.3,33
			c-0.1-3.6-1.4-6.7-3.7-9.4c-0.4-0.5-0.7-1.1-0.8-1.8c-0.6-2.5-0.2-4.9,0.6-7.3c0.7-2.1-0.7-3.7-2.8-3.2
			c-5.8,1.5-11.6,5.4-13.2,12.8c-0.7,2.9-0.6,5.8-0.3,8.8c-0.3,0.1-0.5-0.2-0.7-0.3c-1.4-1.1-2.8-2.4-4-3.8
			c-7.7-8.6-8-18.6-3.1-28.2c0.4-0.8,0.7-0.8,1.2,0c0.9,1.4,1.9,2.8,3.1,3.9c0.7,0.7,1.6,1.1,2.6,0.7c1-0.4,1.4-1.3,1.4-2.4
			c0-3.7,0.7-7.2,1.8-10.6c0.4-1.4,0-2.3-1.2-2.7c-1.1-0.3-1.9,0.2-2.4,1.5c-0.9,2.5-1.5,5.1-1.9,8.1c-0.7-1.2-1.2-2.1-1.8-3
			c-1.4-2.2-3-2.2-4.5-0.2c-1.2,1.5-2,3.3-2.7,5c-2.2,5.1-3.3,10.4-2.5,15.9c1,7.1,4.8,12.7,10,17.5c5.6,5.2,12.2,6.8,19.5,5.2
			C80.4,93.3,89.1,82.2,88.7,70.4z M70.4,90.3c0,0.7-0.3,1.2-1.1,1.4c-3.3,0.9-6.5,1.2-9.8,0.4c-0.5-0.1-0.8-0.3-1-0.8
			c-2.4-5.7-1.6-15.2,6.7-18.8c0.1-0.1,0.3-0.1,0.6-0.2c-0.3,2.2-0.5,4.3,0,6.4c0.4,1.7,1.2,3.1,2.3,4.5
			C69.7,85.2,70.4,87.6,70.4,90.3z"/>
		<path d="M88.7,70.4c-0.2-7.3-3-13.7-7.2-19.6c-0.2-0.3-0.4-0.5-0.7-0.7c-0.7-0.7-1.6-0.8-2.4-0.5c-0.8,0.3-1.2,1-1.3,1.9
			c-0.1,0.6-0.1,1.2-0.1,1.9c-0.1,2.1-0.8,4.2-1.7,5.1c-0.3-3.6-1.7-6.7-4-9.5c-1.8-2.1-2.3-4.6-2.1-7.3c0.2-2.3,0.8-4.5,1.6-6.6
			c0.8-2.1-0.4-3.6-2.7-3.3c-0.4,0-0.7,0.1-1.1,0.3c-3.7,1.5-7,3.5-9.6,6.5c-0.1,0.1-0.1,0.1-0.2,0.2c-0.8,1-0.8,2.1,0,2.8
			c0.8,0.8,2,0.7,2.8-0.3c1.6-1.9,3.5-3.4,5.8-4.5c0.2,0.4,0,0.8,0,1.1c-1.2,5.2-0.7,9.9,2.9,14.2c2.5,2.9,3.2,6.3,2.6,10.1
			c-0.1,0.9-0.1,1.8-0.1,2.7c0.1,1.1,0.7,1.6,1.8,1.4c1.1-0.1,1.9-0.7,2.6-1.5c2.2-2.4,3.9-5.1,4.7-8.4c7.2,11.2,6.1,25.8-6.3,33
			c-0.1-3.6-1.4-6.7-3.7-9.4c-0.4-0.5-0.7-1.1-0.8-1.8c-0.6-2.5-0.2-4.9,0.6-7.3c0.7-2.1-0.7-3.7-2.8-3.2
			c-5.8,1.5-11.6,5.4-13.2,12.8c-0.7,2.9-0.6,5.8-0.3,8.8c-0.3,0.1-0.5-0.2-0.7-0.3c-1.4-1.1-2.8-2.4-4-3.8
			c-7.7-8.6-8-18.6-3.1-28.2c0.4-0.8,0.7-0.8,1.2,0c0.9,1.4,1.9,2.8,3.1,3.9c0.7,0.7,1.6,1.1,2.6,0.7c1-0.4,1.4-1.3,1.4-2.4
			c0-3.7,0.7-7.2,1.8-10.6c0.4-1.4,0-2.3-1.2-2.7c-1.1-0.3-1.9,0.2-2.4,1.5c-0.9,2.5-1.5,5.1-1.9,8.1c-0.7-1.2-1.2-2.1-1.8-3
			c-1.4-2.2-3-2.2-4.5-0.2c-1.2,1.5-2,3.3-2.7,5c-2.2,5.1-3.3,10.4-2.5,15.9c1,7.1,4.8,12.7,10,17.5c5.6,5.2,12.2,6.8,19.5,5.2
			C80.4,93.3,89.1,82.2,88.7,70.4z M70.4,90.3c0,0.7-0.3,1.2-1.1,1.4c-3.3,0.9-6.5,1.2-9.8,0.4c-0.5-0.1-0.8-0.3-1-0.8
			c-2.4-5.7-1.6-15.2,6.7-18.8c0.1-0.1,0.3-0.1,0.6-0.2c-0.3,2.2-0.5,4.3,0,6.4c0.4,1.7,1.2,3.1,2.3,4.5
			C69.7,85.2,70.4,87.6,70.4,90.3z"/>
	</g>
</g>
</svg>
