<?xml version="1.0" encoding="utf-8"?>
<!-- Generator: Adobe Illustrator 28.0.0, SVG Export Plug-In . SVG Version: 6.00 Build 0)  -->
<svg version="1.1" id="Layer_1" xmlns="http://www.w3.org/2000/svg" xmlns:xlink="http://www.w3.org/1999/xlink" x="0px" y="0px"
	 viewBox="0 0 128 128" style="enable-background:new 0 0 128 128;" xml:space="preserve">
<g id="_x39_ppKwb.tif">
	<g>
		<path d="M10.6,128c0-0.1,0.1-0.2,0.1-0.2c0,0,0-0.1-0.1-0.1c1-0.8,2.1-0.6,3.2-0.6c22.7,0,45.4,0,68.1,0c10.9,0,21.8,0,32.7,0
			c1,0,2-0.2,2.9,0.6c0,0.1,0,0.2,0,0.4C81.9,128,46.3,128,10.6,128z"/>
		<path d="M4.6,87.6l-0.2-0.1l-0.2,0c0-5,0-10.1,0-15.1c0.1,0,0.2,0,0.3,0c0.6,0.5,0.6,1.3,0.6,2c0,3.7,0,7.5,0,11.2
			C5.2,86.3,5.2,87,4.6,87.6z"/>
		<path d="M4.3,96.7c0.1,0,0.2,0,0.3,0c0.6,0.5,0.6,1.3,0.6,2c0,3.7,0,7.5,0,11.2c0,0.7,0,1.4-0.6,2c-0.1,0-0.2,0-0.3,0
			C4.3,106.8,4.3,101.7,4.3,96.7z"/>
		<path d="M120.3,89.6c2.5-0.1,3.4-0.9,3.4-3.4c0-4.2,0-8.4,0-12.7c0-2.3-0.9-3.2-3.2-3.2c-1.1,0-1.2-0.4-1.2-1.3
			c0.1-2.5,0-4.9,0-7.4c0-3.4-0.6-4-3.9-4.6c-8.7-1.4-13.7-7.3-13.7-16.1c0-12.3,0-24.6,0-36.9c0-3.2-0.9-4-4.1-4
			c-5,0-10.1,0-15.1,0C80,0,79,1.1,78.9,3.5c0,1.6-0.1,3.2,0,4.7c0.1,1.2-0.4,1.8-1.4,2.2c-8.9,3.6-17.8,3.7-26.8,0
			c-1.1-0.5-1.7-1-1.6-2.3c0.1-1.6,0.1-3.2,0-4.7C49.2,1,48.1,0,45.7,0c-5,0-10.1,0-15.1,0c-3.2,0-4,0.9-4.1,4.1c0,12.7,0,25.3,0,38
			c0,3.4-1.1,6.4-3.2,9.1c-2.6,3.3-6,5.3-10.2,5.9c-3.6,0.5-4.2,1.2-4.2,4.7c0,2.3-0.1,4.7,0,7c0,1.2-0.2,1.7-1.5,1.6
			C6,70.2,5,71,4.6,72.4c0,5.1,0,10.1,0,15.2c0.4,1.3,1.2,2.2,2.5,2c1.7-0.2,2,0.5,1.8,1.9c-0.1,0.6-0.1,1.2,0,1.7
			c0.1,0.9-0.2,1.2-1.2,1.2c-1.5,0-2.7,0.5-3.1,2.2c0,5.1,0,10.1,0,15.2c0.4,1.4,1.4,2.2,2.8,2.1c1.4-0.1,1.5,0.5,1.4,1.6
			c-0.1,3.1,0,6.2,0,9.3c0,1.3,0.4,2.4,1.8,2.9h106.9c1.4-0.5,1.8-1.6,1.8-2.9c0-3.2,0.1-6.3,0-9.5c0-1.1,0.3-1.4,1.3-1.3
			c1.9,0,3-0.9,3-2.7c0.1-4.7,0.1-9.4,0-14.1c0-1.4-0.9-2.6-2.4-2.5c-2,0.1-2.1-1-2-2.4c0-0.5,0-0.9,0-1.4
			C119.2,90,119.4,89.7,120.3,89.6z M116.6,75.9c1.1,0,1.4,0.3,1.3,1.4c-0.1,1.9-0.1,3.9,0,5.8c0,0.8-0.2,1-1,1
			c-7.5,0-15.1,0-22.6,0c-0.9,0-1-0.4-1-1.2c0-1.9,0.1-3.9,0-5.8c0-0.9,0.3-1.2,1.2-1.2c3.7,0,7.4,0,11,0
			C109.2,75.9,112.9,76,116.6,75.9z M84.8,22.1c0-5,0-10.1,0-15.1c0-1,0.2-1.4,1.3-1.4c2.9,0.1,5.7,0.1,8.6,0c1,0,1.3,0.4,1.3,1.3
			c0,10.2,0,20.4,0,30.5c0,1-0.3,1.3-1.3,1.3c-2.9-0.1-5.7-0.1-8.6,0c-1.1,0-1.3-0.4-1.3-1.4C84.8,32.3,84.8,27.2,84.8,22.1z
			 M32.3,22.2c0-5,0-9.9,0-14.9c0-1.2,0.2-1.6,1.5-1.6c2.8,0.1,5.6,0.1,8.4,0c1,0,1.3,0.3,1.3,1.3c0,10.2,0,20.4,0,30.5
			c0,1.2-0.4,1.3-1.4,1.3c-2.7-0.1-5.5-0.1-8.2,0c-1.2,0-1.6-0.3-1.6-1.5C32.3,32.2,32.3,27.2,32.3,22.2z M14.6,63.9
			c-0.1-1,0.3-1.4,1.3-1.7c8.7-2.2,14-7.8,15.9-16.5c0.2-0.9,0.6-1.2,1.5-1.2c4,0.1,8,0,12,0c3,0,4-1,4-4c0-7.5,0-15,0-22.5v-1.9
			C60.1,19.9,68,20,78.7,16.2c0.4,0.6,0.2,1.2,0.2,1.8c0,7.5,0,15,0,22.5c0,3,1,4,4,4c3.9,0,7.9,0,11.8,0c1.1,0,1.5,0.3,1.7,1.4
			c1.9,8.6,7.2,14,15.7,16.3c1.1,0.3,1.5,0.7,1.4,1.9c-0.1,1.6-0.1,3.2,0,4.7c0.1,1.2-0.3,1.5-1.5,1.5c-6.9-0.1-13.7,0-20.6,0
			c-3,0-3.9,0.8-3.9,3.8v11.8c0,2.9,0.9,3.8,3.7,3.8c6.9,0,13.8,0,20.7,0c1.1,0,1.5,0.3,1.5,1.4c0,3.4,0,3.4-3.4,3.4
			c-6.3,0-12.5,0-18.8,0c-2.9,0-3.8,0.9-3.8,3.8c0,4,0,8.1,0,12.1c0,2.5,1,3.5,3.5,3.5c7,0,13.9,0,20.9,0c1.2,0,1.6,0.3,1.5,1.6
			c-0.1,1.9-0.1,3.8,0,5.6c0,1-0.3,1.4-1.3,1.2c-0.2,0-0.5,0-0.7,0c-31.6,0-63.3,0-94.9,0c-1.7,0-2.2-0.4-2.1-2.1
			c0.2-1.6,0.1-3.3,0-4.9c-0.1-1.2,0.4-1.4,1.5-1.4c6.9,0,13.8,0,20.7,0c2.7,0,3.7-0.9,3.7-3.7c0-4,0-8,0-12c0-2.9-0.9-3.8-3.9-3.8
			c-6.7,0-13.5,0-20.2,0c-1.5,0-1.9-0.4-1.8-1.8c0.1-3,0-3,3.1-3c6.4,0,12.9,0,19.3,0c2.5,0,3.5-1,3.5-3.5c0-4.2,0-8.3,0-12.5
			c0-2.5-1-3.4-3.5-3.5c-6.9,0-13.8,0-20.7,0c-1.3,0-1.8-0.3-1.7-1.6C14.7,67.1,14.7,65.5,14.6,63.9z M10.2,82.7
			c0.1-1.9,0.1-3.9,0-5.8c0-0.8,0.2-1,1-1c7.5,0,15.1,0,22.6,0c0.8,0,1,0.2,1,1c0,2-0.1,4,0,6c0,1-0.3,1.2-1.2,1.2
			c-3.7,0-7.5,0-11.2,0c-3.6,0-7.3,0-10.9,0C10.4,84.1,10.2,83.7,10.2,82.7z M10.2,106.9c0.1-1.9,0.1-3.7,0-5.6
			c0-0.8,0.2-1.1,1.1-1.1c7.5,0,15,0,22.5,0c0.9,0,1.1,0.3,1.1,1.1c0,1.9-0.1,3.8,0,5.6c0,1.1-0.2,1.4-1.4,1.4
			c-3.7-0.1-7.4,0-11.1,0c-3.6,0-7.1,0-10.7,0C10.6,108.3,10.1,108.1,10.2,106.9z M117.9,101.6c-0.1,1.9-0.1,3.7,0,5.6
			c0,0.8-0.2,1.1-1.1,1.1c-7.5,0-15,0-22.5,0c-0.9,0-1.1-0.4-1.1-1.1c0-1.9,0.1-3.8,0-5.6c-0.1-1.1,0.3-1.4,1.4-1.4
			c3.7,0.1,7.4,0,11.1,0c3.6,0,7.1,0,10.7,0C117.5,100.2,118,100.4,117.9,101.6z"/>
	</g>
</g>
</svg>
