<?xml version="1.0" encoding="utf-8"?>
<!-- Generator: Adobe Illustrator 28.0.0, SVG Export Plug-In . SVG Version: 6.00 Build 0)  -->
<svg version="1.1" id="Layer_1" xmlns="http://www.w3.org/2000/svg" xmlns:xlink="http://www.w3.org/1999/xlink" x="0px" y="0px"
	 viewBox="0 0 128 128" style="enable-background:new 0 0 128 128;" xml:space="preserve">
<g id="APWCNT.tif">
	<g>
		<path d="M108.6,105.6c0.1-0.1,0.2-0.1,0.2,0c0,6.9,0,13.8,0,20.7c-0.2,0.1-0.3,0-0.4-0.2c-0.3-0.6-0.3-1.3-0.3-2
			c0-5.5,0-11,0-16.5C108.1,107,107.9,106.2,108.6,105.6z"/>
		<path d="M40.3,127.6c0,0.1,0,0.2,0,0.3c-6.6,0-13.2,0-19.9,0c0-0.1,0-0.2,0-0.3c0.5-0.5,1.2-0.4,1.8-0.4c5.5,0,10.9,0,16.4,0
			C39.2,127.2,39.8,127.1,40.3,127.6z"/>
		<path d="M87.6,127.9c0-0.1,0-0.2,0-0.3c0.5-0.5,1.1-0.4,1.6-0.4c5.5,0,11.1,0,16.6,0c0.5,0,1,0,1.4,0.2c0.2,0.1,0.2,0.3,0.2,0.4
			C100.8,127.9,94.2,127.9,87.6,127.9z"/>
		<path d="M69.6,127.6c0,0.1,0,0.2,0,0.3c-3.8,0-7.5,0-11.3,0c0-0.1,0-0.2,0-0.3c0.4-0.4,1-0.4,1.5-0.4c2.8,0,5.5,0,8.3,0
			C68.6,127.2,69.2,127.2,69.6,127.6z"/>
		<path d="M107.4,127.9c0-0.1,0-0.2,0-0.3c0.4-0.4,0.6-1,1.1-1.3c0.1,0,0.2,0,0.2,0C108.8,127.2,109.1,128.4,107.4,127.9z"/>
		<path d="M107.6,104c-2.4-2.4-4.8-4.8-7.2-7.2c-0.7-0.7-1-1.4-1-2.3c0-20.9,0-41.8,0-62.7c0-3.5-1.5-5.9-4.7-7.3
			c-2.8-1.3-5.6-2.4-8.6-3.3c-3.9-1.2-7.9-2.2-12-2.7c-0.5-0.1-1.3,0.1-1.4-0.5c-0.1-1.4-0.3-2.8,0.1-4.1c0.2-0.6,1.7-0.1,2.6-0.2
			c0.1,0,0.2,0,0.3,0c1.5,0,2.2-0.7,2.2-2.2c0-3,0-6.1,0-9.1c0-1.6-0.7-2.3-2.3-2.3c-8,0-15.9,0-23.9,0c-1.5,0-2.2,0.7-2.2,2.2
			c0,3,0,6.1,0,9.1c0,1.6,0.7,2.2,2.3,2.3c1,0,2.3-0.4,2.8,0.2c0.6,0.7,0.1,2,0.2,3c0.2,1.2-0.4,1.6-1.5,1.7
			c-7,0.8-13.6,2.9-19.9,5.7c-3.5,1.6-5.2,4.1-5.2,8c0.1,20.8,0,41.5,0.1,62.3c0,0.9-0.3,1.6-0.9,2.2c-2.5,2.4-4.9,4.9-7.4,7.4
			c-0.6,0.6-0.9,1.3-0.9,2.1c0,6.4,0,12.9,0,19.3c0,0.9,0.2,1.7,1.2,2c6.6,0,13.3,0,19.9,0c1.2-0.4,1.2-1.3,1.2-2.3
			c0-5.3,0-10.6,0-15.8c0-0.6-0.1-1.2,0.9-0.9c4.5,1.4,9.1,2.3,13.7,2.8c0.9,0.1,1.1,0.4,1.1,1.2c0,4.3,0,8.5,0,12.8
			c0,0.9,0,1.9,1.2,2.3h11.3c1.2-0.4,1.2-1.3,1.2-2.3c0-4.1,0.1-8.2,0-12.3c0-1.3,0.5-1.7,1.6-1.7c4.4-0.3,8.6-1.3,12.8-2.5
			c1.1-0.3,1.3-0.2,1.3,0.9c0,5.2,0,10.5,0,15.7c0,0.9,0,1.9,1.2,2.3c6.6,0,13.3,0,19.9,0h0c0.7-0.2,1-0.7,1.1-1.3v0
			c0-6.9,0-13.8,0-20.7C108.5,104.9,108,104.5,107.6,104z M99,100.7c1.9,1.9,3.6,3.7,5.4,5.5c0.4,0.4,0.4,0.8,0.4,1.2
			c0,5.2,0,10.4,0,15.6c0,0.8-0.2,1-1.1,1c-4.2,0-8.3,0-12.5,0c-0.8,0-1.1-0.2-1.1-1c0-5.1,0-10.1,0-15.2c0-0.7,0.2-1,0.9-1.2
			c1-0.4,2-0.9,3.1-1.3C96.3,104.5,98,103.1,99,100.7z M32.2,67.6c0-0.8,0.2-1,1-1c20.5,0,41,0,61.5,0c0.7,0,1,0.2,1,1
			c-0.1,2.1-0.1,4.1,0,6.2c0,1-0.3,1.2-1.3,1.2c-10.2,0-20.3,0-30.5,0c-10.2,0-20.3,0-30.5,0c-1,0-1.3-0.2-1.3-1.2
			C32.3,71.7,32.3,69.6,32.2,67.6z M54.7,9.8c-0.8,0-1.2-0.2-1.2-1.1c0.1-1.3,0.1-2.6,0-3.9c0-0.9,0.3-1,1.1-1c6.2,0,12.4,0,18.6,0
			c0.8,0,1.1,0.2,1.1,1c-0.1,1.3-0.1,2.7,0,4c0,0.8-0.3,1-1,1c-3.1,0-6.3,0-9.4,0C60.8,9.8,57.8,9.8,54.7,9.8z M69,17
			c0.1,0.9-0.3,1-1.1,0.9c-2.7-0.3-5.5-0.3-8.2,0c-0.8,0.1-1-0.1-1-0.9c-0.1-3.4-0.1-3.4,3.2-3.4h2c1.3,0,2.7,0,4,0
			c0.7,0,1.1,0.1,1,0.9C69,15.4,69,16.2,69,17z M32.2,31.9c0-1.9,0.8-3.2,2.6-4c10.2-4.7,21-6.7,32.2-6.2c9.1,0.4,17.7,2.5,26,6.2
			c1.8,0.8,2.6,2.1,2.6,4.1c0,5.9,0,11.7,0,17.6c0,1-0.2,1.3-1.2,1.3c-10.2,0-20.4,0-30.6,0c-10.1,0-20.2,0-30.3,0
			c-1,0-1.3-0.2-1.3-1.2C32.3,43.7,32.3,37.8,32.2,31.9z M33.8,54.5c10.1,0.1,20.1,0,30.2,0c10.1,0,20.2,0,30.3,0
			c1.1,0,1.4,0.3,1.4,1.4c-0.1,1.9-0.1,3.8,0,5.6c0,1-0.2,1.3-1.3,1.3c-7.8-0.1-15.6,0-23.3,0c-12.5,0-25,0-37.4,0
			c-1.1,0-1.5-0.2-1.4-1.4c0.1-1.8,0.1-3.6,0-5.4C32.1,54.9,32.4,54.5,33.8,54.5z M23.1,107.5c0-0.5,0-0.9,0.4-1.2
			c1.8-1.8,3.6-3.6,5.5-5.5c1.3,3.4,4.3,4.5,7.1,5.6c1.2,0.5,1.7,1,1.6,2.4c-0.1,4.7-0.1,9.5,0,14.2c0,0.9-0.3,1.2-1.2,1.2
			c-4.1-0.1-8.2,0-12.3,0c-0.8,0-1.1-0.2-1.1-1C23.1,117.9,23.1,112.7,23.1,107.5z M66.9,111.3c0,3.9,0,7.8,0,11.7
			c0,0.9-0.3,1.1-1.1,1.1c-1.3-0.1-2.7,0-4,0c-0.6,0-0.8-0.2-0.8-0.8c0-8,0-15.9,0-23.9c0-0.7,0.2-0.8,0.8-0.8c1.4,0,2.9,0.1,4.3,0
			c0.8,0,0.8,0.3,0.8,0.9C66.9,103.4,66.9,107.4,66.9,111.3z M72.6,107.4c-1.9,0.2-1.9,0.2-1.9-1.7c0-2.8,0-5.6,0-8.5
			c0-1.9-0.6-2.5-2.5-2.5c-2.9,0-5.8,0-8.7,0c-1.9,0-2.4,0.6-2.4,2.4c0,3.1,0,6.2,0,9.3c0,0.9-0.2,1.1-1.1,1
			c-7.1-0.8-13.9-2.7-20.4-5.5c-2.5-1-3.4-2.6-3.4-5.2c0.1-5.6,0.1-11.2,0-16.8c0-1.1,0.3-1.3,1.3-1.3c10.2,0,20.3,0,30.5,0
			c10.1,0,20.2,0,30.3,0c1.1,0,1.3,0.3,1.3,1.3c0,5.9,0,11.7,0,17.6c0,1.9-0.8,3.2-2.5,4C86.6,104.6,79.7,106.5,72.6,107.4z"/>
	</g>
</g>
</svg>
